<?xml version="1.0" encoding="utf-8" standalone="no"?>
<!DOCTYPE svg PUBLIC "-//W3C//DTD SVG 1.1//EN"
  "http://www.w3.org/Graphics/SVG/1.1/DTD/svg11.dtd">
<!-- Created with matplotlib (https://matplotlib.org/) -->
<svg height="345.6pt" version="1.1" viewBox="0 0 460.8 345.6" width="460.8pt" xmlns="http://www.w3.org/2000/svg" xmlns:xlink="http://www.w3.org/1999/xlink">
 <metadata>
  <rdf:RDF xmlns:cc="http://creativecommons.org/ns#" xmlns:dc="http://purl.org/dc/elements/1.1/" xmlns:rdf="http://www.w3.org/1999/02/22-rdf-syntax-ns#">
   <cc:Work>
    <dc:type rdf:resource="http://purl.org/dc/dcmitype/StillImage"/>
    <dc:date>2021-02-12T10:40:21.035720</dc:date>
    <dc:format>image/svg+xml</dc:format>
    <dc:creator>
     <cc:Agent>
      <dc:title>Matplotlib v3.3.3, https://matplotlib.org/</dc:title>
     </cc:Agent>
    </dc:creator>
   </cc:Work>
  </rdf:RDF>
 </metadata>
 <defs>
  <style type="text/css">*{stroke-linecap:butt;stroke-linejoin:round;}</style>
 </defs>
 <g id="figure_1">
  <g id="patch_1">
   <path d="M 0 345.6 
L 460.8 345.6 
L 460.8 0 
L 0 0 
z
" style="fill:#ffffff;"/>
  </g>
  <g id="axes_1">
   <g id="patch_2">
    <path d="M 57.6 147.9168 
L 200.448 147.9168 
L 200.448 41.472 
L 57.6 41.472 
z
" style="fill:#ffffff;"/>
   </g>
   <g id="PathCollection_1">
    <defs>
     <path d="M 0 1.5 
C 0.397805 1.5 0.77937 1.341951 1.06066 1.06066 
C 1.341951 0.77937 1.5 0.397805 1.5 0 
C 1.5 -0.397805 1.341951 -0.77937 1.06066 -1.06066 
C 0.77937 -1.341951 0.397805 -1.5 0 -1.5 
C -0.397805 -1.5 -0.77937 -1.341951 -1.06066 -1.06066 
C -1.341951 -0.77937 -1.5 -0.397805 -1.5 0 
C -1.5 0.397805 -1.341951 0.77937 -1.06066 1.06066 
C -0.77937 1.341951 -0.397805 1.5 0 1.5 
z
" id="m474715397b" style="stroke:#6495ed;"/>
    </defs>
    <g clip-path="url(#p4fa30ddbc0)">
     <use style="fill:#6495ed;stroke:#6495ed;" x="77.264528" xlink:href="#m474715397b" y="55.602952"/>
     <use style="fill:#6495ed;stroke:#6495ed;" x="90.099168" xlink:href="#m474715397b" y="61.042399"/>
     <use style="fill:#6495ed;stroke:#6495ed;" x="71.602153" xlink:href="#m474715397b" y="58.509276"/>
     <use style="fill:#6495ed;stroke:#6495ed;" x="129.68542" xlink:href="#m474715397b" y="74.896852"/>
     <use style="fill:#6495ed;stroke:#6495ed;" x="73.062883" xlink:href="#m474715397b" y="65.345486"/>
     <use style="fill:#6495ed;stroke:#6495ed;" x="70.659883" xlink:href="#m474715397b" y="46.3104"/>
     <use style="fill:#6495ed;stroke:#6495ed;" x="97.396866" xlink:href="#m474715397b" y="77.828258"/>
     <use style="fill:#6495ed;stroke:#6495ed;" x="79.312572" xlink:href="#m474715397b" y="70.69416"/>
     <use style="fill:#6495ed;stroke:#6495ed;" x="70.229675" xlink:href="#m474715397b" y="52.591947"/>
     <use style="fill:#6495ed;stroke:#6495ed;" x="73.609517" xlink:href="#m474715397b" y="68.975272"/>
     <use style="fill:#6495ed;stroke:#6495ed;" x="69.498537" xlink:href="#m474715397b" y="62.845589"/>
     <use style="fill:#6495ed;stroke:#6495ed;" x="70.926778" xlink:href="#m474715397b" y="69.845944"/>
     <use style="fill:#6495ed;stroke:#6495ed;" x="69.937146" xlink:href="#m474715397b" y="49.887571"/>
     <use style="fill:#6495ed;stroke:#6495ed;" x="86.149608" xlink:href="#m474715397b" y="63.738423"/>
     <use style="fill:#6495ed;stroke:#6495ed;" x="73.803631" xlink:href="#m474715397b" y="65.286668"/>
     <use style="fill:#6495ed;stroke:#6495ed;" x="72.235103" xlink:href="#m474715397b" y="55.596187"/>
     <use style="fill:#6495ed;stroke:#6495ed;" x="82.400294" xlink:href="#m474715397b" y="75.813166"/>
     <use style="fill:#6495ed;stroke:#6495ed;" x="67.176583" xlink:href="#m474715397b" y="140.15437"/>
     <use style="fill:#6495ed;stroke:#6495ed;" x="72.588503" xlink:href="#m474715397b" y="59.273534"/>
     <use style="fill:#6495ed;stroke:#6495ed;" x="83.022299" xlink:href="#m474715397b" y="76.036582"/>
     <use style="fill:#6495ed;stroke:#6495ed;" x="72.168621" xlink:href="#m474715397b" y="56.255946"/>
     <use style="fill:#6495ed;stroke:#6495ed;" x="73.293365" xlink:href="#m474715397b" y="82.254475"/>
     <use style="fill:#6495ed;stroke:#6495ed;" x="72.089639" xlink:href="#m474715397b" y="68.33825"/>
     <use style="fill:#6495ed;stroke:#6495ed;" x="73.844531" xlink:href="#m474715397b" y="68.573497"/>
     <use style="fill:#6495ed;stroke:#6495ed;" x="83.599627" xlink:href="#m474715397b" y="66.065272"/>
     <use style="fill:#6495ed;stroke:#6495ed;" x="80.702077" xlink:href="#m474715397b" y="57.699328"/>
     <use style="fill:#6495ed;stroke:#6495ed;" x="72.862986" xlink:href="#m474715397b" y="50.985017"/>
     <use style="fill:#6495ed;stroke:#6495ed;" x="73.183082" xlink:href="#m474715397b" y="53.469626"/>
     <use style="fill:#6495ed;stroke:#6495ed;" x="78.215811" xlink:href="#m474715397b" y="70.948091"/>
     <use style="fill:#6495ed;stroke:#6495ed;" x="77.141686" xlink:href="#m474715397b" y="51.694461"/>
     <use style="fill:#6495ed;stroke:#6495ed;" x="74.116665" xlink:href="#m474715397b" y="88.627881"/>
     <use style="fill:#6495ed;stroke:#6495ed;" x="70.106136" xlink:href="#m474715397b" y="50.758182"/>
     <use style="fill:#6495ed;stroke:#6495ed;" x="75.504456" xlink:href="#m474715397b" y="92.332164"/>
     <use style="fill:#6495ed;stroke:#6495ed;" x="73.447747" xlink:href="#m474715397b" y="95.913511"/>
     <use style="fill:#6495ed;stroke:#6495ed;" x="77.854256" xlink:href="#m474715397b" y="80.228993"/>
     <use style="fill:#6495ed;stroke:#6495ed;" x="70.503365" xlink:href="#m474715397b" y="53.232254"/>
     <use style="fill:#6495ed;stroke:#6495ed;" x="73.978114" xlink:href="#m474715397b" y="55.34365"/>
     <use style="fill:#6495ed;stroke:#6495ed;" x="72.302692" xlink:href="#m474715397b" y="58.017022"/>
     <use style="fill:#6495ed;stroke:#6495ed;" x="73.754412" xlink:href="#m474715397b" y="48.696288"/>
     <use style="fill:#6495ed;stroke:#6495ed;" x="76.454288" xlink:href="#m474715397b" y="70.255826"/>
     <use style="fill:#6495ed;stroke:#6495ed;" x="71.723699" xlink:href="#m474715397b" y="62.611647"/>
     <use style="fill:#6495ed;stroke:#6495ed;" x="70.895464" xlink:href="#m474715397b" y="50.938861"/>
     <use style="fill:#6495ed;stroke:#6495ed;" x="119.436771" xlink:href="#m474715397b" y="140.694801"/>
     <use style="fill:#6495ed;stroke:#6495ed;" x="71.718219" xlink:href="#m474715397b" y="59.969241"/>
     <use style="fill:#6495ed;stroke:#6495ed;" x="86.366616" xlink:href="#m474715397b" y="58.095267"/>
     <use style="fill:#6495ed;stroke:#6495ed;" x="78.968778" xlink:href="#m474715397b" y="65.382436"/>
     <use style="fill:#6495ed;stroke:#6495ed;" x="94.59107" xlink:href="#m474715397b" y="81.168019"/>
     <use style="fill:#6495ed;stroke:#6495ed;" x="74.993519" xlink:href="#m474715397b" y="99.277633"/>
     <use style="fill:#6495ed;stroke:#6495ed;" x="72.500527" xlink:href="#m474715397b" y="59.181222"/>
     <use style="fill:#6495ed;stroke:#6495ed;" x="88.357944" xlink:href="#m474715397b" y="86.675369"/>
     <use style="fill:#6495ed;stroke:#6495ed;" x="70.998216" xlink:href="#m474715397b" y="115.855766"/>
     <use style="fill:#6495ed;stroke:#6495ed;" x="131.542669" xlink:href="#m474715397b" y="97.650311"/>
     <use style="fill:#6495ed;stroke:#6495ed;" x="71.627014" xlink:href="#m474715397b" y="63.69289"/>
     <use style="fill:#6495ed;stroke:#6495ed;" x="77.78709" xlink:href="#m474715397b" y="70.84993"/>
     <use style="fill:#6495ed;stroke:#6495ed;" x="77.710073" xlink:href="#m474715397b" y="108.333813"/>
     <use style="fill:#6495ed;stroke:#6495ed;" x="70.296055" xlink:href="#m474715397b" y="115.200769"/>
     <use style="fill:#6495ed;stroke:#6495ed;" x="67.785836" xlink:href="#m474715397b" y="97.440217"/>
     <use style="fill:#6495ed;stroke:#6495ed;" x="73.278466" xlink:href="#m474715397b" y="76.254907"/>
     <use style="fill:#6495ed;stroke:#6495ed;" x="74.93155" xlink:href="#m474715397b" y="51.153583"/>
     <use style="fill:#6495ed;stroke:#6495ed;" x="119.204204" xlink:href="#m474715397b" y="116.721809"/>
     <use style="fill:#6495ed;stroke:#6495ed;" x="64.093091" xlink:href="#m474715397b" y="143.0784"/>
     <use style="fill:#6495ed;stroke:#6495ed;" x="71.879727" xlink:href="#m474715397b" y="64.58681"/>
     <use style="fill:#6495ed;stroke:#6495ed;" x="78.625795" xlink:href="#m474715397b" y="92.118431"/>
     <use style="fill:#6495ed;stroke:#6495ed;" x="84.662241" xlink:href="#m474715397b" y="59.403014"/>
     <use style="fill:#6495ed;stroke:#6495ed;" x="103.517672" xlink:href="#m474715397b" y="85.012784"/>
     <use style="fill:#6495ed;stroke:#6495ed;" x="79.745128" xlink:href="#m474715397b" y="73.727829"/>
     <use style="fill:#6495ed;stroke:#6495ed;" x="79.685192" xlink:href="#m474715397b" y="79.893595"/>
     <use style="fill:#6495ed;stroke:#6495ed;" x="91.813288" xlink:href="#m474715397b" y="74.18852"/>
     <use style="fill:#6495ed;stroke:#6495ed;" x="70.221167" xlink:href="#m474715397b" y="126.079199"/>
     <use style="fill:#6495ed;stroke:#6495ed;" x="82.376916" xlink:href="#m474715397b" y="53.547383"/>
     <use style="fill:#6495ed;stroke:#6495ed;" x="77.650988" xlink:href="#m474715397b" y="95.397348"/>
     <use style="fill:#6495ed;stroke:#6495ed;" x="74.888887" xlink:href="#m474715397b" y="55.393518"/>
     <use style="fill:#6495ed;stroke:#6495ed;" x="78.752034" xlink:href="#m474715397b" y="61.942376"/>
     <use style="fill:#6495ed;stroke:#6495ed;" x="75.784109" xlink:href="#m474715397b" y="70.184518"/>
     <use style="fill:#6495ed;stroke:#6495ed;" x="77.771695" xlink:href="#m474715397b" y="59.834718"/>
     <use style="fill:#6495ed;stroke:#6495ed;" x="128.497015" xlink:href="#m474715397b" y="96.040818"/>
     <use style="fill:#6495ed;stroke:#6495ed;" x="74.651182" xlink:href="#m474715397b" y="65.162328"/>
     <use style="fill:#6495ed;stroke:#6495ed;" x="70.590319" xlink:href="#m474715397b" y="63.000235"/>
     <use style="fill:#6495ed;stroke:#6495ed;" x="76.382319" xlink:href="#m474715397b" y="63.021481"/>
     <use style="fill:#6495ed;stroke:#6495ed;" x="68.781921" xlink:href="#m474715397b" y="91.13082"/>
     <use style="fill:#6495ed;stroke:#6495ed;" x="72.760988" xlink:href="#m474715397b" y="55.35625"/>
     <use style="fill:#6495ed;stroke:#6495ed;" x="76.095953" xlink:href="#m474715397b" y="73.1137"/>
     <use style="fill:#6495ed;stroke:#6495ed;" x="70.981715" xlink:href="#m474715397b" y="77.490857"/>
     <use style="fill:#6495ed;stroke:#6495ed;" x="81.872015" xlink:href="#m474715397b" y="91.083931"/>
     <use style="fill:#6495ed;stroke:#6495ed;" x="68.735671" xlink:href="#m474715397b" y="127.501671"/>
     <use style="fill:#6495ed;stroke:#6495ed;" x="87.540914" xlink:href="#m474715397b" y="63.52773"/>
     <use style="fill:#6495ed;stroke:#6495ed;" x="74.279574" xlink:href="#m474715397b" y="65.172194"/>
     <use style="fill:#6495ed;stroke:#6495ed;" x="71.451912" xlink:href="#m474715397b" y="54.277902"/>
     <use style="fill:#6495ed;stroke:#6495ed;" x="77.318753" xlink:href="#m474715397b" y="84.739879"/>
     <use style="fill:#6495ed;stroke:#6495ed;" x="83.821821" xlink:href="#m474715397b" y="86.866208"/>
     <use style="fill:#6495ed;stroke:#6495ed;" x="74.192506" xlink:href="#m474715397b" y="49.890661"/>
     <use style="fill:#6495ed;stroke:#6495ed;" x="123.800191" xlink:href="#m474715397b" y="67.674791"/>
     <use style="fill:#6495ed;stroke:#6495ed;" x="75.440514" xlink:href="#m474715397b" y="61.71874"/>
     <use style="fill:#6495ed;stroke:#6495ed;" x="79.343224" xlink:href="#m474715397b" y="55.533987"/>
     <use style="fill:#6495ed;stroke:#6495ed;" x="77.78184" xlink:href="#m474715397b" y="67.636865"/>
     <use style="fill:#6495ed;stroke:#6495ed;" x="88.420925" xlink:href="#m474715397b" y="85.331259"/>
     <use style="fill:#6495ed;stroke:#6495ed;" x="77.319302" xlink:href="#m474715397b" y="74.045094"/>
     <use style="fill:#6495ed;stroke:#6495ed;" x="72.469042" xlink:href="#m474715397b" y="69.835162"/>
     <use style="fill:#6495ed;stroke:#6495ed;" x="88.603837" xlink:href="#m474715397b" y="68.238819"/>
     <use style="fill:#6495ed;stroke:#6495ed;" x="68.810795" xlink:href="#m474715397b" y="91.691612"/>
     <use style="fill:#6495ed;stroke:#6495ed;" x="84.901775" xlink:href="#m474715397b" y="76.112373"/>
     <use style="fill:#6495ed;stroke:#6495ed;" x="71.586368" xlink:href="#m474715397b" y="83.605692"/>
     <use style="fill:#6495ed;stroke:#6495ed;" x="193.954909" xlink:href="#m474715397b" y="113.187473"/>
     <use style="fill:#6495ed;stroke:#6495ed;" x="80.368032" xlink:href="#m474715397b" y="59.248026"/>
     <use style="fill:#6495ed;stroke:#6495ed;" x="83.627874" xlink:href="#m474715397b" y="65.389676"/>
     <use style="fill:#6495ed;stroke:#6495ed;" x="71.884271" xlink:href="#m474715397b" y="84.739867"/>
     <use style="fill:#6495ed;stroke:#6495ed;" x="82.599565" xlink:href="#m474715397b" y="84.675749"/>
     <use style="fill:#6495ed;stroke:#6495ed;" x="70.573737" xlink:href="#m474715397b" y="83.316852"/>
     <use style="fill:#6495ed;stroke:#6495ed;" x="72.006121" xlink:href="#m474715397b" y="66.712247"/>
     <use style="fill:#6495ed;stroke:#6495ed;" x="75.031357" xlink:href="#m474715397b" y="57.201567"/>
    </g>
   </g>
   <g id="matplotlib.axis_1">
    <g id="xtick_1">
     <g id="line2d_1">
      <defs>
       <path d="M 0 0 
L 0 3.5 
" id="mc9cb03b1aa" style="stroke:#000000;stroke-width:0.8;"/>
      </defs>
      <g>
       <use style="stroke:#000000;stroke-width:0.8;" x="89.642313" xlink:href="#mc9cb03b1aa" y="147.9168"/>
      </g>
     </g>
     <g id="text_1">
      <!-- 2 -->
      <g transform="translate(86.461063 162.515237)scale(0.1 -0.1)">
       <defs>
        <path d="M 12.796875 55.515625 
L 7.328125 55.515625 
L 7.328125 68.5 
Q 12.546875 71.296875 17.84375 72.75 
Q 23.140625 74.21875 28.21875 74.21875 
Q 39.59375 74.21875 46.1875 68.703125 
Q 52.78125 63.1875 52.78125 53.71875 
Q 52.78125 43.015625 37.84375 28.125 
Q 36.671875 27 36.078125 26.421875 
L 17.671875 8.015625 
L 48.09375 8.015625 
L 48.09375 17 
L 53.8125 17 
L 53.8125 0 
L 6.78125 0 
L 6.78125 5.328125 
L 28.90625 27.390625 
Q 36.234375 34.71875 39.359375 40.84375 
Q 42.484375 46.96875 42.484375 53.71875 
Q 42.484375 61.078125 38.640625 65.234375 
Q 34.8125 69.390625 28.078125 69.390625 
Q 21.09375 69.390625 17.28125 65.921875 
Q 13.484375 62.453125 12.796875 55.515625 
z
" id="DejaVuSerif-50"/>
       </defs>
       <use xlink:href="#DejaVuSerif-50"/>
      </g>
     </g>
    </g>
    <g id="xtick_2">
     <g id="line2d_2">
      <g>
       <use style="stroke:#000000;stroke-width:0.8;" x="125.542568" xlink:href="#mc9cb03b1aa" y="147.9168"/>
      </g>
     </g>
     <g id="text_2">
      <!-- 4 -->
      <g transform="translate(122.361318 162.515237)scale(0.1 -0.1)">
       <defs>
        <path d="M 34.90625 24.703125 
L 34.90625 63.484375 
L 10.015625 24.703125 
z
M 56.390625 0 
L 23.1875 0 
L 23.1875 5.171875 
L 34.90625 5.171875 
L 34.90625 19.484375 
L 3.078125 19.484375 
L 3.078125 24.8125 
L 35.015625 74.21875 
L 44.671875 74.21875 
L 44.671875 24.703125 
L 58.59375 24.703125 
L 58.59375 19.484375 
L 44.671875 19.484375 
L 44.671875 5.171875 
L 56.390625 5.171875 
z
" id="DejaVuSerif-52"/>
       </defs>
       <use xlink:href="#DejaVuSerif-52"/>
      </g>
     </g>
    </g>
    <g id="xtick_3">
     <g id="line2d_3">
      <g>
       <use style="stroke:#000000;stroke-width:0.8;" x="161.442824" xlink:href="#mc9cb03b1aa" y="147.9168"/>
      </g>
     </g>
     <g id="text_3">
      <!-- 6 -->
      <g transform="translate(158.261574 162.515237)scale(0.1 -0.1)">
       <defs>
        <path d="M 32.71875 3.421875 
Q 39.59375 3.421875 43.296875 8.46875 
Q 47.015625 13.53125 47.015625 23 
Q 47.015625 32.46875 43.296875 37.515625 
Q 39.59375 42.578125 32.71875 42.578125 
Q 25.734375 42.578125 22.0625 37.6875 
Q 18.40625 32.8125 18.40625 23.578125 
Q 18.40625 13.875 22.109375 8.640625 
Q 25.828125 3.421875 32.71875 3.421875 
z
M 16.796875 40.140625 
Q 20.125 43.796875 24.3125 45.59375 
Q 28.515625 47.40625 33.796875 47.40625 
Q 44.671875 47.40625 51 40.859375 
Q 57.328125 34.328125 57.328125 23 
Q 57.328125 11.921875 50.515625 5.25 
Q 43.703125 -1.421875 32.328125 -1.421875 
Q 19.96875 -1.421875 13.328125 7.78125 
Q 6.6875 17 6.6875 34.078125 
Q 6.6875 53.21875 14.546875 63.71875 
Q 22.40625 74.21875 36.71875 74.21875 
Q 40.578125 74.21875 44.828125 73.484375 
Q 49.078125 72.75 53.515625 71.296875 
L 53.515625 59.28125 
L 48 59.28125 
Q 47.40625 64.203125 44.234375 66.796875 
Q 41.0625 69.390625 35.6875 69.390625 
Q 26.21875 69.390625 21.578125 62.203125 
Q 16.9375 55.03125 16.796875 40.140625 
z
" id="DejaVuSerif-54"/>
       </defs>
       <use xlink:href="#DejaVuSerif-54"/>
      </g>
     </g>
    </g>
    <g id="xtick_4">
     <g id="line2d_4">
      <g>
       <use style="stroke:#000000;stroke-width:0.8;" x="197.34308" xlink:href="#mc9cb03b1aa" y="147.9168"/>
      </g>
     </g>
     <g id="text_4">
      <!-- 8 -->
      <g transform="translate(194.16183 162.515237)scale(0.1 -0.1)">
       <defs>
        <path d="M 46.578125 19.921875 
Q 46.578125 27.734375 42.6875 32.046875 
Q 38.8125 36.375 31.78125 36.375 
Q 24.75 36.375 20.875 32.046875 
Q 17 27.734375 17 19.921875 
Q 17 12.0625 20.875 7.734375 
Q 24.75 3.421875 31.78125 3.421875 
Q 38.8125 3.421875 42.6875 7.734375 
Q 46.578125 12.0625 46.578125 19.921875 
z
M 44.578125 55.328125 
Q 44.578125 61.96875 41.203125 65.671875 
Q 37.84375 69.390625 31.78125 69.390625 
Q 25.78125 69.390625 22.390625 65.671875 
Q 19 61.96875 19 55.328125 
Q 19 48.640625 22.390625 44.921875 
Q 25.78125 41.21875 31.78125 41.21875 
Q 37.84375 41.21875 41.203125 44.921875 
Q 44.578125 48.640625 44.578125 55.328125 
z
M 39.3125 38.8125 
Q 47.609375 37.703125 52.25 32.6875 
Q 56.890625 27.6875 56.890625 19.921875 
Q 56.890625 9.671875 50.390625 4.125 
Q 43.890625 -1.421875 31.78125 -1.421875 
Q 19.734375 -1.421875 13.203125 4.125 
Q 6.6875 9.671875 6.6875 19.921875 
Q 6.6875 27.6875 11.328125 32.6875 
Q 15.96875 37.703125 24.3125 38.8125 
Q 16.9375 40.140625 13 44.40625 
Q 9.078125 48.6875 9.078125 55.328125 
Q 9.078125 64.109375 15.125 69.15625 
Q 21.1875 74.21875 31.78125 74.21875 
Q 42.390625 74.21875 48.4375 69.15625 
Q 54.5 64.109375 54.5 55.328125 
Q 54.5 48.6875 50.5625 44.40625 
Q 46.625 40.140625 39.3125 38.8125 
z
" id="DejaVuSerif-56"/>
       </defs>
       <use xlink:href="#DejaVuSerif-56"/>
      </g>
     </g>
    </g>
    <g id="text_5">
     <!-- Slope (z=1) -->
     <g transform="translate(99.333375 176.193362)scale(0.1 -0.1)">
      <defs>
       <path d="M 9.28125 3.515625 
L 9.28125 20.125 
L 14.890625 20.0625 
Q 15.140625 11.765625 19.703125 7.78125 
Q 24.265625 3.8125 33.59375 3.8125 
Q 42.28125 3.8125 46.84375 7.25 
Q 51.421875 10.6875 51.421875 17.28125 
Q 51.421875 22.5625 48.65625 25.390625 
Q 45.90625 28.21875 37.015625 30.90625 
L 27.390625 33.796875 
Q 16.9375 36.96875 12.671875 41.703125 
Q 8.40625 46.4375 8.40625 54.6875 
Q 8.40625 63.96875 14.984375 69.09375 
Q 21.578125 74.21875 33.5 74.21875 
Q 38.578125 74.21875 44.625 73.109375 
Q 50.6875 72.015625 57.515625 69.921875 
L 57.515625 54.390625 
L 52 54.390625 
Q 51.171875 62.109375 46.84375 65.546875 
Q 42.53125 69 33.6875 69 
Q 25.984375 69 21.953125 65.84375 
Q 17.921875 62.703125 17.921875 56.6875 
Q 17.921875 51.46875 20.9375 48.484375 
Q 23.96875 45.515625 33.796875 42.578125 
L 42.828125 39.890625 
Q 52.734375 36.921875 56.953125 32.296875 
Q 61.1875 27.6875 61.1875 19.921875 
Q 61.1875 9.328125 54.390625 3.953125 
Q 47.609375 -1.421875 34.1875 -1.421875 
Q 28.171875 -1.421875 21.9375 -0.1875 
Q 15.71875 1.03125 9.28125 3.515625 
z
" id="DejaVuSerif-83"/>
       <path d="M 20.515625 5.171875 
L 29 5.171875 
L 29 0 
L 2.875 0 
L 2.875 5.171875 
L 11.53125 5.171875 
L 11.53125 70.796875 
L 2.875 70.796875 
L 2.875 75.984375 
L 20.515625 75.984375 
z
" id="DejaVuSerif-108"/>
       <path d="M 30.078125 3.421875 
Q 37.3125 3.421875 40.984375 9.125 
Q 44.671875 14.84375 44.671875 25.984375 
Q 44.671875 37.109375 40.984375 42.796875 
Q 37.3125 48.484375 30.078125 48.484375 
Q 22.859375 48.484375 19.171875 42.796875 
Q 15.484375 37.109375 15.484375 25.984375 
Q 15.484375 14.84375 19.1875 9.125 
Q 22.90625 3.421875 30.078125 3.421875 
z
M 30.078125 -1.421875 
Q 18.75 -1.421875 11.859375 6.078125 
Q 4.984375 13.578125 4.984375 25.984375 
Q 4.984375 38.375 11.84375 45.84375 
Q 18.703125 53.328125 30.078125 53.328125 
Q 41.453125 53.328125 48.3125 45.84375 
Q 55.171875 38.375 55.171875 25.984375 
Q 55.171875 13.578125 48.3125 6.078125 
Q 41.453125 -1.421875 30.078125 -1.421875 
z
" id="DejaVuSerif-111"/>
       <path d="M 20.515625 28.515625 
L 20.515625 23.390625 
Q 20.515625 14.015625 24.09375 9.109375 
Q 27.6875 4.203125 34.515625 4.203125 
Q 41.40625 4.203125 44.9375 9.71875 
Q 48.484375 15.234375 48.484375 25.984375 
Q 48.484375 36.765625 44.9375 42.234375 
Q 41.40625 47.703125 34.515625 47.703125 
Q 27.6875 47.703125 24.09375 42.765625 
Q 20.515625 37.84375 20.515625 28.515625 
z
M 11.53125 46.6875 
L 2.875 46.6875 
L 2.875 51.90625 
L 20.515625 51.90625 
L 20.515625 43.796875 
Q 23.140625 48.6875 27.21875 51 
Q 31.296875 53.328125 37.3125 53.328125 
Q 46.875 53.328125 52.921875 45.75 
Q 58.984375 38.1875 58.984375 25.984375 
Q 58.984375 13.765625 52.921875 6.171875 
Q 46.875 -1.421875 37.3125 -1.421875 
Q 31.296875 -1.421875 27.21875 0.890625 
Q 23.140625 3.21875 20.515625 8.109375 
L 20.515625 -15.578125 
L 29 -15.578125 
L 29 -20.796875 
L 2.875 -20.796875 
L 2.875 -15.578125 
L 11.53125 -15.578125 
z
" id="DejaVuSerif-112"/>
       <path d="M 54.203125 25 
L 15.484375 25 
L 15.484375 24.609375 
Q 15.484375 14.109375 19.4375 8.765625 
Q 23.390625 3.421875 31.109375 3.421875 
Q 37.015625 3.421875 40.796875 6.515625 
Q 44.578125 9.625 46.09375 15.71875 
L 53.328125 15.71875 
Q 51.171875 7.171875 45.375 2.875 
Q 39.59375 -1.421875 30.171875 -1.421875 
Q 18.796875 -1.421875 11.890625 6.078125 
Q 4.984375 13.578125 4.984375 25.984375 
Q 4.984375 38.28125 11.765625 45.796875 
Q 18.5625 53.328125 29.59375 53.328125 
Q 41.359375 53.328125 47.65625 46.0625 
Q 53.953125 38.8125 54.203125 25 
z
M 43.609375 30.171875 
Q 43.3125 39.265625 39.765625 43.875 
Q 36.234375 48.484375 29.59375 48.484375 
Q 23.390625 48.484375 19.828125 43.84375 
Q 16.265625 39.203125 15.484375 30.171875 
z
" id="DejaVuSerif-101"/>
       <path id="DejaVuSerif-32"/>
       <path d="M 31.890625 -15.578125 
Q 20.015625 -10.25 13.953125 1.296875 
Q 7.90625 12.84375 7.90625 30.171875 
Q 7.90625 47.5625 13.953125 59.109375 
Q 20.015625 70.65625 31.890625 75.984375 
L 31.890625 71.1875 
Q 24.359375 66.015625 21.09375 56.609375 
Q 17.828125 47.21875 17.828125 30.171875 
Q 17.828125 13.1875 21.09375 3.78125 
Q 24.359375 -5.609375 31.890625 -10.796875 
z
" id="DejaVuSerif-40"/>
       <path d="M 4 0 
L 4 4.203125 
L 36.53125 46.6875 
L 10.796875 46.6875 
L 10.796875 37.703125 
L 5.609375 37.703125 
L 5.609375 51.90625 
L 48.09375 51.90625 
L 48.09375 47.703125 
L 15.578125 5.171875 
L 43.796875 5.171875 
L 43.796875 14.59375 
L 49.03125 14.59375 
L 49.03125 0 
z
" id="DejaVuSerif-122"/>
       <path d="M 10.59375 45.21875 
L 73.1875 45.21875 
L 73.1875 37.40625 
L 10.59375 37.40625 
z
M 10.59375 25.296875 
L 73.1875 25.296875 
L 73.1875 17.484375 
L 10.59375 17.484375 
z
" id="DejaVuSerif-61"/>
       <path d="M 14.203125 0 
L 14.203125 5.171875 
L 26.90625 5.171875 
L 26.90625 65.828125 
L 12.203125 56.296875 
L 12.203125 62.703125 
L 29.984375 74.21875 
L 36.71875 74.21875 
L 36.71875 5.171875 
L 49.421875 5.171875 
L 49.421875 0 
z
" id="DejaVuSerif-49"/>
       <path d="M 7.078125 -15.578125 
L 7.078125 -10.796875 
Q 14.59375 -5.609375 17.890625 3.78125 
Q 21.1875 13.1875 21.1875 30.171875 
Q 21.1875 47.21875 17.890625 56.609375 
Q 14.59375 66.015625 7.078125 71.1875 
L 7.078125 75.984375 
Q 19 70.65625 25.046875 59.109375 
Q 31.109375 47.5625 31.109375 30.171875 
Q 31.109375 12.84375 25.046875 1.296875 
Q 19 -10.25 7.078125 -15.578125 
z
" id="DejaVuSerif-41"/>
      </defs>
      <use xlink:href="#DejaVuSerif-83"/>
      <use x="68.505859" xlink:href="#DejaVuSerif-108"/>
      <use x="100.488281" xlink:href="#DejaVuSerif-111"/>
      <use x="160.693359" xlink:href="#DejaVuSerif-112"/>
      <use x="224.707031" xlink:href="#DejaVuSerif-101"/>
      <use x="283.886719" xlink:href="#DejaVuSerif-32"/>
      <use x="315.673828" xlink:href="#DejaVuSerif-40"/>
      <use x="354.6875" xlink:href="#DejaVuSerif-122"/>
      <use x="407.373047" xlink:href="#DejaVuSerif-61"/>
      <use x="491.162109" xlink:href="#DejaVuSerif-49"/>
      <use x="554.785156" xlink:href="#DejaVuSerif-41"/>
     </g>
    </g>
   </g>
   <g id="matplotlib.axis_2">
    <g id="ytick_1">
     <g id="line2d_5">
      <defs>
       <path d="M 0 0 
L -3.5 0 
" id="m1bbade4207" style="stroke:#000000;stroke-width:0.8;"/>
      </defs>
      <g>
       <use style="stroke:#000000;stroke-width:0.8;" x="57.6" xlink:href="#m1bbade4207" y="144.928563"/>
      </g>
     </g>
     <g id="text_6">
      <!-- 14 -->
      <g transform="translate(37.875 148.727781)scale(0.1 -0.1)">
       <use xlink:href="#DejaVuSerif-49"/>
       <use x="63.623047" xlink:href="#DejaVuSerif-52"/>
      </g>
     </g>
    </g>
    <g id="ytick_2">
     <g id="line2d_6">
      <g>
       <use style="stroke:#000000;stroke-width:0.8;" x="57.6" xlink:href="#m1bbade4207" y="119.321235"/>
      </g>
     </g>
     <g id="text_7">
      <!-- 16 -->
      <g transform="translate(37.875 123.120454)scale(0.1 -0.1)">
       <use xlink:href="#DejaVuSerif-49"/>
       <use x="63.623047" xlink:href="#DejaVuSerif-54"/>
      </g>
     </g>
    </g>
    <g id="ytick_3">
     <g id="line2d_7">
      <g>
       <use style="stroke:#000000;stroke-width:0.8;" x="57.6" xlink:href="#m1bbade4207" y="93.713907"/>
      </g>
     </g>
     <g id="text_8">
      <!-- 18 -->
      <g transform="translate(37.875 97.513126)scale(0.1 -0.1)">
       <use xlink:href="#DejaVuSerif-49"/>
       <use x="63.623047" xlink:href="#DejaVuSerif-56"/>
      </g>
     </g>
    </g>
    <g id="ytick_4">
     <g id="line2d_8">
      <g>
       <use style="stroke:#000000;stroke-width:0.8;" x="57.6" xlink:href="#m1bbade4207" y="68.106579"/>
      </g>
     </g>
     <g id="text_9">
      <!-- 20 -->
      <g transform="translate(37.875 71.905798)scale(0.1 -0.1)">
       <defs>
        <path d="M 31.78125 3.421875 
Q 39.265625 3.421875 42.96875 11.625 
Q 46.6875 19.828125 46.6875 36.375 
Q 46.6875 52.984375 42.96875 61.1875 
Q 39.265625 69.390625 31.78125 69.390625 
Q 24.3125 69.390625 20.59375 61.1875 
Q 16.890625 52.984375 16.890625 36.375 
Q 16.890625 19.828125 20.59375 11.625 
Q 24.3125 3.421875 31.78125 3.421875 
z
M 31.78125 -1.421875 
Q 19.921875 -1.421875 13.25 8.53125 
Q 6.59375 18.5 6.59375 36.375 
Q 6.59375 54.296875 13.25 64.25 
Q 19.921875 74.21875 31.78125 74.21875 
Q 43.703125 74.21875 50.34375 64.25 
Q 56.984375 54.296875 56.984375 36.375 
Q 56.984375 18.5 50.34375 8.53125 
Q 43.703125 -1.421875 31.78125 -1.421875 
z
" id="DejaVuSerif-48"/>
       </defs>
       <use xlink:href="#DejaVuSerif-50"/>
       <use x="63.623047" xlink:href="#DejaVuSerif-48"/>
      </g>
     </g>
    </g>
    <g id="ytick_5">
     <g id="line2d_9">
      <g>
       <use style="stroke:#000000;stroke-width:0.8;" x="57.6" xlink:href="#m1bbade4207" y="42.499251"/>
      </g>
     </g>
     <g id="text_10">
      <!-- 22 -->
      <g transform="translate(37.875 46.29847)scale(0.1 -0.1)">
       <use xlink:href="#DejaVuSerif-50"/>
       <use x="63.623047" xlink:href="#DejaVuSerif-50"/>
      </g>
     </g>
    </g>
    <g id="text_11">
     <!-- Median g -->
     <g transform="translate(31.653125 118.564712)rotate(-90)scale(0.1 -0.1)">
      <defs>
       <path d="M 5.515625 0 
L 5.515625 5.171875 
L 14.796875 5.171875 
L 14.796875 67.671875 
L 4.984375 67.671875 
L 4.984375 72.90625 
L 26.21875 72.90625 
L 51.8125 21 
L 77.390625 72.90625 
L 97.3125 72.90625 
L 97.3125 67.671875 
L 87.59375 67.671875 
L 87.59375 5.171875 
L 96.921875 5.171875 
L 96.921875 0 
L 68.40625 0 
L 68.40625 5.171875 
L 77.6875 5.171875 
L 77.6875 61.53125 
L 52.6875 10.6875 
L 45.796875 10.6875 
L 20.796875 61.53125 
L 20.796875 5.171875 
L 30.078125 5.171875 
L 30.078125 0 
z
" id="DejaVuSerif-77"/>
       <path d="M 52.484375 5.171875 
L 61.078125 5.171875 
L 61.078125 0 
L 43.5 0 
L 43.5 8.109375 
Q 40.875 3.21875 36.796875 0.890625 
Q 32.71875 -1.421875 26.703125 -1.421875 
Q 17.140625 -1.421875 11.0625 6.171875 
Q 4.984375 13.765625 4.984375 25.984375 
Q 4.984375 38.1875 11.03125 45.75 
Q 17.09375 53.328125 26.703125 53.328125 
Q 32.71875 53.328125 36.796875 51 
Q 40.875 48.6875 43.5 43.796875 
L 43.5 70.796875 
L 35.015625 70.796875 
L 35.015625 75.984375 
L 52.484375 75.984375 
z
M 43.5 23.390625 
L 43.5 28.515625 
Q 43.5 37.84375 39.90625 42.765625 
Q 36.328125 47.703125 29.5 47.703125 
Q 22.5625 47.703125 19.015625 42.234375 
Q 15.484375 36.765625 15.484375 25.984375 
Q 15.484375 15.234375 19.015625 9.71875 
Q 22.5625 4.203125 29.5 4.203125 
Q 36.328125 4.203125 39.90625 9.109375 
Q 43.5 14.015625 43.5 23.390625 
z
" id="DejaVuSerif-100"/>
       <path d="M 9.71875 68.015625 
Q 9.71875 70.265625 11.34375 71.921875 
Q 12.984375 73.578125 15.28125 73.578125 
Q 17.53125 73.578125 19.15625 71.921875 
Q 20.796875 70.265625 20.796875 68.015625 
Q 20.796875 65.71875 19.1875 64.109375 
Q 17.578125 62.5 15.28125 62.5 
Q 12.984375 62.5 11.34375 64.109375 
Q 9.71875 65.71875 9.71875 68.015625 
z
M 21.1875 5.171875 
L 29.6875 5.171875 
L 29.6875 0 
L 3.609375 0 
L 3.609375 5.171875 
L 12.203125 5.171875 
L 12.203125 46.6875 
L 3.609375 46.6875 
L 3.609375 51.90625 
L 21.1875 51.90625 
z
" id="DejaVuSerif-105"/>
       <path d="M 39.796875 16.3125 
L 39.796875 27.296875 
L 28.21875 27.296875 
Q 21.53125 27.296875 18.25 24.40625 
Q 14.984375 21.53125 14.984375 15.578125 
Q 14.984375 10.15625 18.296875 6.984375 
Q 21.625 3.8125 27.296875 3.8125 
Q 32.90625 3.8125 36.34375 7.28125 
Q 39.796875 10.75 39.796875 16.3125 
z
M 48.78125 32.421875 
L 48.78125 5.171875 
L 56.78125 5.171875 
L 56.78125 0 
L 39.796875 0 
L 39.796875 5.609375 
Q 36.8125 2 32.90625 0.28125 
Q 29 -1.421875 23.78125 -1.421875 
Q 15.140625 -1.421875 10.0625 3.171875 
Q 4.984375 7.765625 4.984375 15.578125 
Q 4.984375 23.640625 10.796875 28.078125 
Q 16.609375 32.515625 27.203125 32.515625 
L 39.796875 32.515625 
L 39.796875 36.078125 
Q 39.796875 42 36.203125 45.234375 
Q 32.625 48.484375 26.125 48.484375 
Q 20.75 48.484375 17.578125 46.046875 
Q 14.40625 43.609375 13.625 38.8125 
L 8.984375 38.8125 
L 8.984375 49.3125 
Q 13.671875 51.3125 18.09375 52.3125 
Q 22.515625 53.328125 26.703125 53.328125 
Q 37.5 53.328125 43.140625 47.96875 
Q 48.78125 42.625 48.78125 32.421875 
z
" id="DejaVuSerif-97"/>
       <path d="M 4.109375 0 
L 4.109375 5.171875 
L 12.203125 5.171875 
L 12.203125 46.6875 
L 3.609375 46.6875 
L 3.609375 51.90625 
L 21.1875 51.90625 
L 21.1875 42.671875 
Q 23.6875 47.953125 27.65625 50.640625 
Q 31.640625 53.328125 36.921875 53.328125 
Q 45.515625 53.328125 49.5625 48.390625 
Q 53.609375 43.453125 53.609375 33.015625 
L 53.609375 5.171875 
L 61.625 5.171875 
L 61.625 0 
L 36.8125 0 
L 36.8125 5.171875 
L 44.578125 5.171875 
L 44.578125 30.171875 
Q 44.578125 39.703125 42.234375 43.234375 
Q 39.890625 46.78125 33.984375 46.78125 
Q 27.734375 46.78125 24.453125 42.203125 
Q 21.1875 37.640625 21.1875 28.90625 
L 21.1875 5.171875 
L 29 5.171875 
L 29 0 
z
" id="DejaVuSerif-110"/>
       <path d="M 52.484375 46.6875 
L 52.484375 1.125 
Q 52.484375 -10.0625 46.328125 -16.140625 
Q 40.1875 -22.21875 28.8125 -22.21875 
Q 23.6875 -22.21875 19 -21.28125 
Q 14.3125 -20.359375 10.015625 -18.5 
L 10.015625 -7.625 
L 14.703125 -7.625 
Q 15.578125 -12.703125 18.84375 -15.046875 
Q 22.125 -17.390625 28.21875 -17.390625 
Q 36.140625 -17.390625 39.8125 -12.921875 
Q 43.5 -8.453125 43.5 1.125 
L 43.5 8.109375 
Q 40.875 3.21875 36.796875 0.890625 
Q 32.71875 -1.421875 26.703125 -1.421875 
Q 17.140625 -1.421875 11.0625 6.171875 
Q 4.984375 13.765625 4.984375 25.984375 
Q 4.984375 38.1875 11.03125 45.75 
Q 17.09375 53.328125 26.703125 53.328125 
Q 32.71875 53.328125 36.796875 51 
Q 40.875 48.6875 43.5 43.796875 
L 43.5 51.90625 
L 61.078125 51.90625 
L 61.078125 46.6875 
z
M 43.5 28.515625 
Q 43.5 37.84375 39.90625 42.765625 
Q 36.328125 47.703125 29.5 47.703125 
Q 22.5625 47.703125 19.015625 42.234375 
Q 15.484375 36.765625 15.484375 25.984375 
Q 15.484375 15.234375 19.015625 9.71875 
Q 22.5625 4.203125 29.5 4.203125 
Q 36.328125 4.203125 39.90625 9.109375 
Q 43.5 14.015625 43.5 23.390625 
z
" id="DejaVuSerif-103"/>
      </defs>
      <use xlink:href="#DejaVuSerif-77"/>
      <use x="102.392578" xlink:href="#DejaVuSerif-101"/>
      <use x="161.572266" xlink:href="#DejaVuSerif-100"/>
      <use x="225.585938" xlink:href="#DejaVuSerif-105"/>
      <use x="257.568359" xlink:href="#DejaVuSerif-97"/>
      <use x="317.1875" xlink:href="#DejaVuSerif-110"/>
      <use x="381.591797" xlink:href="#DejaVuSerif-32"/>
      <use x="413.378906" xlink:href="#DejaVuSerif-103"/>
     </g>
    </g>
   </g>
   <g id="patch_3">
    <path d="M 57.6 147.9168 
L 57.6 41.472 
" style="fill:none;stroke:#000000;stroke-linecap:square;stroke-linejoin:miter;stroke-width:0.8;"/>
   </g>
   <g id="patch_4">
    <path d="M 200.448 147.9168 
L 200.448 41.472 
" style="fill:none;stroke:#000000;stroke-linecap:square;stroke-linejoin:miter;stroke-width:0.8;"/>
   </g>
   <g id="patch_5">
    <path d="M 57.6 147.9168 
L 200.448 147.9168 
" style="fill:none;stroke:#000000;stroke-linecap:square;stroke-linejoin:miter;stroke-width:0.8;"/>
   </g>
   <g id="patch_6">
    <path d="M 57.6 41.472 
L 200.448 41.472 
" style="fill:none;stroke:#000000;stroke-linecap:square;stroke-linejoin:miter;stroke-width:0.8;"/>
   </g>
  </g>
  <g id="axes_2">
   <g id="patch_7">
    <path d="M 271.872 147.9168 
L 414.72 147.9168 
L 414.72 41.472 
L 271.872 41.472 
z
" style="fill:#ffffff;"/>
   </g>
   <g id="PathCollection_2">
    <g clip-path="url(#pc97fad19cb)">
     <use style="fill:#6495ed;stroke:#6495ed;" x="285.525265" xlink:href="#m474715397b" y="56.632124"/>
     <use style="fill:#6495ed;stroke:#6495ed;" x="289.272217" xlink:href="#m474715397b" y="63.822743"/>
     <use style="fill:#6495ed;stroke:#6495ed;" x="282.004692" xlink:href="#m474715397b" y="50.408022"/>
     <use style="fill:#6495ed;stroke:#6495ed;" x="290.674401" xlink:href="#m474715397b" y="67.64071"/>
     <use style="fill:#6495ed;stroke:#6495ed;" x="280.129235" xlink:href="#m474715397b" y="61.193244"/>
     <use style="fill:#6495ed;stroke:#6495ed;" x="283.792847" xlink:href="#m474715397b" y="68.556519"/>
     <use style="fill:#6495ed;stroke:#6495ed;" x="291.172325" xlink:href="#m474715397b" y="63.760877"/>
     <use style="fill:#6495ed;stroke:#6495ed;" x="287.148859" xlink:href="#m474715397b" y="53.568011"/>
     <use style="fill:#6495ed;stroke:#6495ed;" x="288.055375" xlink:href="#m474715397b" y="57.436003"/>
     <use style="fill:#6495ed;stroke:#6495ed;" x="286.978327" xlink:href="#m474715397b" y="54.261974"/>
     <use style="fill:#6495ed;stroke:#6495ed;" x="286.775726" xlink:href="#m474715397b" y="66.970662"/>
     <use style="fill:#6495ed;stroke:#6495ed;" x="291.27724" xlink:href="#m474715397b" y="67.218105"/>
     <use style="fill:#6495ed;stroke:#6495ed;" x="316.300253" xlink:href="#m474715397b" y="64.579846"/>
     <use style="fill:#6495ed;stroke:#6495ed;" x="308.867684" xlink:href="#m474715397b" y="55.780186"/>
     <use style="fill:#6495ed;stroke:#6495ed;" x="288.759457" xlink:href="#m474715397b" y="48.717784"/>
     <use style="fill:#6495ed;stroke:#6495ed;" x="289.580541" xlink:href="#m474715397b" y="51.331203"/>
     <use style="fill:#6495ed;stroke:#6495ed;" x="281.687799" xlink:href="#m474715397b" y="48.479189"/>
     <use style="fill:#6495ed;stroke:#6495ed;" x="301.562674" xlink:href="#m474715397b" y="79.477858"/>
     <use style="fill:#6495ed;stroke:#6495ed;" x="282.70674" xlink:href="#m474715397b" y="51.081525"/>
     <use style="fill:#6495ed;stroke:#6495ed;" x="291.619896" xlink:href="#m474715397b" y="53.302382"/>
     <use style="fill:#6495ed;stroke:#6495ed;" x="287.322235" xlink:href="#m474715397b" y="56.114349"/>
     <use style="fill:#6495ed;stroke:#6495ed;" x="291.046073" xlink:href="#m474715397b" y="46.3104"/>
     <use style="fill:#6495ed;stroke:#6495ed;" x="285.837045" xlink:href="#m474715397b" y="60.947174"/>
     <use style="fill:#6495ed;stroke:#6495ed;" x="283.712523" xlink:href="#m474715397b" y="48.669235"/>
     <use style="fill:#6495ed;stroke:#6495ed;" x="408.226909" xlink:href="#m474715397b" y="143.0784"/>
     <use style="fill:#6495ed;stroke:#6495ed;" x="285.822989" xlink:href="#m474715397b" y="58.167778"/>
     <use style="fill:#6495ed;stroke:#6495ed;" x="344.494648" xlink:href="#m474715397b" y="80.465566"/>
     <use style="fill:#6495ed;stroke:#6495ed;" x="287.829704" xlink:href="#m474715397b" y="57.338905"/>
     <use style="fill:#6495ed;stroke:#6495ed;" x="285.589037" xlink:href="#m474715397b" y="62.084472"/>
     <use style="fill:#6495ed;stroke:#6495ed;" x="289.825214" xlink:href="#m474715397b" y="75.297743"/>
     <use style="fill:#6495ed;stroke:#6495ed;" x="294.065577" xlink:href="#m474715397b" y="48.895089"/>
     <use style="fill:#6495ed;stroke:#6495ed;" x="407.630347" xlink:href="#m474715397b" y="117.862574"/>
     <use style="fill:#6495ed;stroke:#6495ed;" x="286.237277" xlink:href="#m474715397b" y="63.024736"/>
     <use style="fill:#6495ed;stroke:#6495ed;" x="303.541767" xlink:href="#m474715397b" y="91.983681"/>
     <use style="fill:#6495ed;stroke:#6495ed;" x="319.025989" xlink:href="#m474715397b" y="57.572196"/>
     <use style="fill:#6495ed;stroke:#6495ed;" x="306.412994" xlink:href="#m474715397b" y="72.639654"/>
     <use style="fill:#6495ed;stroke:#6495ed;" x="303.865585" xlink:href="#m474715397b" y="60.243206"/>
     <use style="fill:#6495ed;stroke:#6495ed;" x="296.252495" xlink:href="#m474715397b" y="68.912646"/>
     <use style="fill:#6495ed;stroke:#6495ed;" x="293.346397" xlink:href="#m474715397b" y="63.63009"/>
     <use style="fill:#6495ed;stroke:#6495ed;" x="288.49782" xlink:href="#m474715397b" y="53.315635"/>
     <use style="fill:#6495ed;stroke:#6495ed;" x="297.052412" xlink:href="#m474715397b" y="71.993686"/>
     <use style="fill:#6495ed;stroke:#6495ed;" x="283.933766" xlink:href="#m474715397b" y="76.597768"/>
     <use style="fill:#6495ed;stroke:#6495ed;" x="285.139881" xlink:href="#m474715397b" y="52.181383"/>
     <use style="fill:#6495ed;stroke:#6495ed;" x="316.870209" xlink:href="#m474715397b" y="86.459166"/>
     <use style="fill:#6495ed;stroke:#6495ed;" x="295.371131" xlink:href="#m474715397b" y="60.007976"/>
     <use style="fill:#6495ed;stroke:#6495ed;" x="328.667472" xlink:href="#m474715397b" y="84.84464"/>
     <use style="fill:#6495ed;stroke:#6495ed;" x="300.190453" xlink:href="#m474715397b" y="72.973367"/>
     <use style="fill:#6495ed;stroke:#6495ed;" x="278.365091" xlink:href="#m474715397b" y="91.534734"/>
     <use style="fill:#6495ed;stroke:#6495ed;" x="285.484774" xlink:href="#m474715397b" y="83.029615"/>
     <use style="fill:#6495ed;stroke:#6495ed;" x="316.372711" xlink:href="#m474715397b" y="63.869225"/>
     <use style="fill:#6495ed;stroke:#6495ed;" x="286.248932" xlink:href="#m474715397b" y="84.222589"/>
     <use style="fill:#6495ed;stroke:#6495ed;" x="282.887254" xlink:href="#m474715397b" y="82.725801"/>
     <use style="fill:#6495ed;stroke:#6495ed;" x="286.561493" xlink:href="#m474715397b" y="65.260362"/>
    </g>
   </g>
   <g id="matplotlib.axis_3">
    <g id="xtick_5">
     <g id="line2d_10">
      <g>
       <use style="stroke:#000000;stroke-width:0.8;" x="285.756208" xlink:href="#mc9cb03b1aa" y="147.9168"/>
      </g>
     </g>
     <g id="text_12">
      <!-- 1 -->
      <g transform="translate(282.574958 162.515237)scale(0.1 -0.1)">
       <use xlink:href="#DejaVuSerif-49"/>
      </g>
     </g>
    </g>
    <g id="xtick_6">
     <g id="line2d_11">
      <g>
       <use style="stroke:#000000;stroke-width:0.8;" x="331.800481" xlink:href="#mc9cb03b1aa" y="147.9168"/>
      </g>
     </g>
     <g id="text_13">
      <!-- 2 -->
      <g transform="translate(328.619231 162.515237)scale(0.1 -0.1)">
       <use xlink:href="#DejaVuSerif-50"/>
      </g>
     </g>
    </g>
    <g id="xtick_7">
     <g id="line2d_12">
      <g>
       <use style="stroke:#000000;stroke-width:0.8;" x="377.844754" xlink:href="#mc9cb03b1aa" y="147.9168"/>
      </g>
     </g>
     <g id="text_14">
      <!-- 3 -->
      <g transform="translate(374.663504 162.515237)scale(0.1 -0.1)">
       <defs>
        <path d="M 9.71875 69.828125 
Q 15.4375 71.96875 20.671875 73.09375 
Q 25.921875 74.21875 30.515625 74.21875 
Q 41.21875 74.21875 47.21875 69.59375 
Q 53.21875 64.984375 53.21875 56.78125 
Q 53.21875 50.203125 49.0625 45.78125 
Q 44.921875 41.359375 37.3125 39.796875 
Q 46.296875 38.53125 51.25 33.28125 
Q 56.203125 28.03125 56.203125 19.671875 
Q 56.203125 9.46875 49.34375 4.015625 
Q 42.484375 -1.421875 29.59375 -1.421875 
Q 23.875 -1.421875 18.421875 -0.1875 
Q 12.984375 1.03125 7.625 3.515625 
L 7.625 17.671875 
L 13.09375 17.671875 
Q 13.578125 10.640625 17.828125 7.03125 
Q 22.078125 3.421875 29.78125 3.421875 
Q 37.25 3.421875 41.578125 7.734375 
Q 45.90625 12.0625 45.90625 19.578125 
Q 45.90625 28.171875 41.453125 32.59375 
Q 37.015625 37.015625 28.421875 37.015625 
L 23.78125 37.015625 
L 23.78125 42 
L 26.21875 42 
Q 34.765625 42 39.03125 45.53125 
Q 43.3125 49.078125 43.3125 56.203125 
Q 43.3125 62.59375 39.796875 65.984375 
Q 36.28125 69.390625 29.6875 69.390625 
Q 23.09375 69.390625 19.453125 66.265625 
Q 15.828125 63.140625 15.1875 56.984375 
L 9.71875 56.984375 
z
" id="DejaVuSerif-51"/>
       </defs>
       <use xlink:href="#DejaVuSerif-51"/>
      </g>
     </g>
    </g>
    <g id="text_15">
     <!-- Slope (z=1.645) -->
     <g transform="translate(302.472562 176.193362)scale(0.1 -0.1)">
      <defs>
       <path d="M 9.421875 5.078125 
Q 9.421875 7.8125 11.28125 9.71875 
Q 13.140625 11.625 15.921875 11.625 
Q 18.609375 11.625 20.5 9.71875 
Q 22.40625 7.8125 22.40625 5.078125 
Q 22.40625 2.390625 20.5 0.484375 
Q 18.609375 -1.421875 15.921875 -1.421875 
Q 13.140625 -1.421875 11.28125 0.453125 
Q 9.421875 2.34375 9.421875 5.078125 
z
" id="DejaVuSerif-46"/>
       <path d="M 50.296875 72.90625 
L 50.296875 64.890625 
L 16.890625 64.890625 
L 16.890625 44 
Q 19.4375 45.75 22.828125 46.625 
Q 26.21875 47.515625 30.421875 47.515625 
Q 42.234375 47.515625 49.0625 40.96875 
Q 55.90625 34.421875 55.90625 23.09375 
Q 55.90625 11.53125 49 5.046875 
Q 42.09375 -1.421875 29.59375 -1.421875 
Q 24.5625 -1.421875 19.28125 -0.1875 
Q 14.015625 1.03125 8.5 3.515625 
L 8.5 17.671875 
L 14.015625 17.671875 
Q 14.453125 10.75 18.421875 7.078125 
Q 22.40625 3.421875 29.59375 3.421875 
Q 37.3125 3.421875 41.453125 8.5 
Q 45.609375 13.578125 45.609375 23.09375 
Q 45.609375 32.5625 41.484375 37.609375 
Q 37.359375 42.671875 29.59375 42.671875 
Q 25.203125 42.671875 21.84375 41.109375 
Q 18.5 39.546875 15.921875 36.28125 
L 11.71875 36.28125 
L 11.71875 72.90625 
z
" id="DejaVuSerif-53"/>
      </defs>
      <use xlink:href="#DejaVuSerif-83"/>
      <use x="68.505859" xlink:href="#DejaVuSerif-108"/>
      <use x="100.488281" xlink:href="#DejaVuSerif-111"/>
      <use x="160.693359" xlink:href="#DejaVuSerif-112"/>
      <use x="224.707031" xlink:href="#DejaVuSerif-101"/>
      <use x="283.886719" xlink:href="#DejaVuSerif-32"/>
      <use x="315.673828" xlink:href="#DejaVuSerif-40"/>
      <use x="354.6875" xlink:href="#DejaVuSerif-122"/>
      <use x="407.373047" xlink:href="#DejaVuSerif-61"/>
      <use x="491.162109" xlink:href="#DejaVuSerif-49"/>
      <use x="554.785156" xlink:href="#DejaVuSerif-46"/>
      <use x="586.572266" xlink:href="#DejaVuSerif-54"/>
      <use x="650.195312" xlink:href="#DejaVuSerif-52"/>
      <use x="713.818359" xlink:href="#DejaVuSerif-53"/>
      <use x="777.441406" xlink:href="#DejaVuSerif-41"/>
     </g>
    </g>
   </g>
   <g id="matplotlib.axis_4">
    <g id="ytick_6">
     <g id="line2d_13">
      <g>
       <use style="stroke:#000000;stroke-width:0.8;" x="271.872" xlink:href="#m1bbade4207" y="147.531653"/>
      </g>
     </g>
     <g id="text_16">
      <!-- 14 -->
      <g transform="translate(252.147 151.330871)scale(0.1 -0.1)">
       <use xlink:href="#DejaVuSerif-49"/>
       <use x="63.623047" xlink:href="#DejaVuSerif-52"/>
      </g>
     </g>
    </g>
    <g id="ytick_7">
     <g id="line2d_14">
      <g>
       <use style="stroke:#000000;stroke-width:0.8;" x="271.872" xlink:href="#m1bbade4207" y="120.596762"/>
      </g>
     </g>
     <g id="text_17">
      <!-- 16 -->
      <g transform="translate(252.147 124.395981)scale(0.1 -0.1)">
       <use xlink:href="#DejaVuSerif-49"/>
       <use x="63.623047" xlink:href="#DejaVuSerif-54"/>
      </g>
     </g>
    </g>
    <g id="ytick_8">
     <g id="line2d_15">
      <g>
       <use style="stroke:#000000;stroke-width:0.8;" x="271.872" xlink:href="#m1bbade4207" y="93.661871"/>
      </g>
     </g>
     <g id="text_18">
      <!-- 18 -->
      <g transform="translate(252.147 97.46109)scale(0.1 -0.1)">
       <use xlink:href="#DejaVuSerif-49"/>
       <use x="63.623047" xlink:href="#DejaVuSerif-56"/>
      </g>
     </g>
    </g>
    <g id="ytick_9">
     <g id="line2d_16">
      <g>
       <use style="stroke:#000000;stroke-width:0.8;" x="271.872" xlink:href="#m1bbade4207" y="66.72698"/>
      </g>
     </g>
     <g id="text_19">
      <!-- 20 -->
      <g transform="translate(252.147 70.526199)scale(0.1 -0.1)">
       <use xlink:href="#DejaVuSerif-50"/>
       <use x="63.623047" xlink:href="#DejaVuSerif-48"/>
      </g>
     </g>
    </g>
    <g id="text_20">
     <!-- Median g -->
     <g transform="translate(245.925125 118.564712)rotate(-90)scale(0.1 -0.1)">
      <use xlink:href="#DejaVuSerif-77"/>
      <use x="102.392578" xlink:href="#DejaVuSerif-101"/>
      <use x="161.572266" xlink:href="#DejaVuSerif-100"/>
      <use x="225.585938" xlink:href="#DejaVuSerif-105"/>
      <use x="257.568359" xlink:href="#DejaVuSerif-97"/>
      <use x="317.1875" xlink:href="#DejaVuSerif-110"/>
      <use x="381.591797" xlink:href="#DejaVuSerif-32"/>
      <use x="413.378906" xlink:href="#DejaVuSerif-103"/>
     </g>
    </g>
   </g>
   <g id="patch_8">
    <path d="M 271.872 147.9168 
L 271.872 41.472 
" style="fill:none;stroke:#000000;stroke-linecap:square;stroke-linejoin:miter;stroke-width:0.8;"/>
   </g>
   <g id="patch_9">
    <path d="M 414.72 147.9168 
L 414.72 41.472 
" style="fill:none;stroke:#000000;stroke-linecap:square;stroke-linejoin:miter;stroke-width:0.8;"/>
   </g>
   <g id="patch_10">
    <path d="M 271.872 147.9168 
L 414.72 147.9168 
" style="fill:none;stroke:#000000;stroke-linecap:square;stroke-linejoin:miter;stroke-width:0.8;"/>
   </g>
   <g id="patch_11">
    <path d="M 271.872 41.472 
L 414.72 41.472 
" style="fill:none;stroke:#000000;stroke-linecap:square;stroke-linejoin:miter;stroke-width:0.8;"/>
   </g>
  </g>
  <g id="axes_3">
   <g id="patch_12">
    <path d="M 57.6 307.584 
L 200.448 307.584 
L 200.448 201.1392 
L 57.6 201.1392 
z
" style="fill:#ffffff;"/>
   </g>
   <g id="PathCollection_3">
    <g clip-path="url(#pa8b703dd57)">
     <use style="fill:#6495ed;stroke:#6495ed;" x="76.402401" xlink:href="#m474715397b" y="227.30791"/>
     <use style="fill:#6495ed;stroke:#6495ed;" x="65.857235" xlink:href="#m474715397b" y="220.860444"/>
     <use style="fill:#6495ed;stroke:#6495ed;" x="69.520847" xlink:href="#m474715397b" y="228.223719"/>
     <use style="fill:#6495ed;stroke:#6495ed;" x="72.876859" xlink:href="#m474715397b" y="213.235211"/>
     <use style="fill:#6495ed;stroke:#6495ed;" x="72.706327" xlink:href="#m474715397b" y="213.929174"/>
     <use style="fill:#6495ed;stroke:#6495ed;" x="74.487457" xlink:href="#m474715397b" y="208.384984"/>
     <use style="fill:#6495ed;stroke:#6495ed;" x="67.415799" xlink:href="#m474715397b" y="208.146389"/>
     <use style="fill:#6495ed;stroke:#6495ed;" x="68.43474" xlink:href="#m474715397b" y="210.748725"/>
     <use style="fill:#6495ed;stroke:#6495ed;" x="77.347896" xlink:href="#m474715397b" y="212.969582"/>
     <use style="fill:#6495ed;stroke:#6495ed;" x="73.050235" xlink:href="#m474715397b" y="215.781549"/>
     <use style="fill:#6495ed;stroke:#6495ed;" x="76.774073" xlink:href="#m474715397b" y="205.9776"/>
     <use style="fill:#6495ed;stroke:#6495ed;" x="193.954909" xlink:href="#m474715397b" y="302.7456"/>
     <use style="fill:#6495ed;stroke:#6495ed;" x="71.550989" xlink:href="#m474715397b" y="217.834978"/>
     <use style="fill:#6495ed;stroke:#6495ed;" x="73.557704" xlink:href="#m474715397b" y="217.006105"/>
     <use style="fill:#6495ed;stroke:#6495ed;" x="71.317037" xlink:href="#m474715397b" y="221.751672"/>
     <use style="fill:#6495ed;stroke:#6495ed;" x="75.553214" xlink:href="#m474715397b" y="234.964943"/>
     <use style="fill:#6495ed;stroke:#6495ed;" x="79.793577" xlink:href="#m474715397b" y="208.562289"/>
     <use style="fill:#6495ed;stroke:#6495ed;" x="71.965277" xlink:href="#m474715397b" y="222.691936"/>
     <use style="fill:#6495ed;stroke:#6495ed;" x="89.593585" xlink:href="#m474715397b" y="219.910406"/>
     <use style="fill:#6495ed;stroke:#6495ed;" x="74.22582" xlink:href="#m474715397b" y="212.982835"/>
     <use style="fill:#6495ed;stroke:#6495ed;" x="69.661766" xlink:href="#m474715397b" y="236.264968"/>
     <use style="fill:#6495ed;stroke:#6495ed;" x="70.867881" xlink:href="#m474715397b" y="211.848583"/>
     <use style="fill:#6495ed;stroke:#6495ed;" x="81.099131" xlink:href="#m474715397b" y="219.675176"/>
     <use style="fill:#6495ed;stroke:#6495ed;" x="114.395472" xlink:href="#m474715397b" y="244.51184"/>
     <use style="fill:#6495ed;stroke:#6495ed;" x="85.918453" xlink:href="#m474715397b" y="232.640567"/>
     <use style="fill:#6495ed;stroke:#6495ed;" x="64.093091" xlink:href="#m474715397b" y="251.201934"/>
     <use style="fill:#6495ed;stroke:#6495ed;" x="71.212774" xlink:href="#m474715397b" y="242.696815"/>
     <use style="fill:#6495ed;stroke:#6495ed;" x="102.100711" xlink:href="#m474715397b" y="223.536425"/>
     <use style="fill:#6495ed;stroke:#6495ed;" x="71.976932" xlink:href="#m474715397b" y="243.889789"/>
     <use style="fill:#6495ed;stroke:#6495ed;" x="68.615254" xlink:href="#m474715397b" y="242.393001"/>
    </g>
   </g>
   <g id="matplotlib.axis_5">
    <g id="xtick_8">
     <g id="line2d_17">
      <g>
       <use style="stroke:#000000;stroke-width:0.8;" x="71.484208" xlink:href="#mc9cb03b1aa" y="307.584"/>
      </g>
     </g>
     <g id="text_21">
      <!-- 1 -->
      <g transform="translate(68.302958 322.182437)scale(0.1 -0.1)">
       <use xlink:href="#DejaVuSerif-49"/>
      </g>
     </g>
    </g>
    <g id="xtick_9">
     <g id="line2d_18">
      <g>
       <use style="stroke:#000000;stroke-width:0.8;" x="117.528481" xlink:href="#mc9cb03b1aa" y="307.584"/>
      </g>
     </g>
     <g id="text_22">
      <!-- 2 -->
      <g transform="translate(114.347231 322.182437)scale(0.1 -0.1)">
       <use xlink:href="#DejaVuSerif-50"/>
      </g>
     </g>
    </g>
    <g id="xtick_10">
     <g id="line2d_19">
      <g>
       <use style="stroke:#000000;stroke-width:0.8;" x="163.572754" xlink:href="#mc9cb03b1aa" y="307.584"/>
      </g>
     </g>
     <g id="text_23">
      <!-- 3 -->
      <g transform="translate(160.391504 322.182437)scale(0.1 -0.1)">
       <use xlink:href="#DejaVuSerif-51"/>
      </g>
     </g>
    </g>
    <g id="text_24">
     <!-- Slope (z=1.96) -->
     <g transform="translate(91.381812 335.860562)scale(0.1 -0.1)">
      <defs>
       <path d="M 46.78125 32.671875 
Q 43.5 29 39.25 27.1875 
Q 35.015625 25.390625 29.6875 25.390625 
Q 18.84375 25.390625 12.5625 31.9375 
Q 6.296875 38.484375 6.296875 49.8125 
Q 6.296875 60.890625 13.109375 67.546875 
Q 19.921875 74.21875 31.296875 74.21875 
Q 43.65625 74.21875 50.265625 65.015625 
Q 56.890625 55.8125 56.890625 38.71875 
Q 56.890625 19.578125 49.015625 9.078125 
Q 41.15625 -1.421875 26.90625 -1.421875 
Q 23.046875 -1.421875 18.796875 -0.6875 
Q 14.546875 0.046875 10.109375 1.515625 
L 10.109375 13.625 
L 15.578125 13.625 
Q 16.21875 8.6875 19.390625 6.046875 
Q 22.5625 3.421875 27.875 3.421875 
Q 37.359375 3.421875 41.984375 10.5625 
Q 46.625 17.71875 46.78125 32.671875 
z
M 30.90625 69.390625 
Q 23.96875 69.390625 20.28125 64.328125 
Q 16.609375 59.28125 16.609375 49.8125 
Q 16.609375 40.328125 20.28125 35.25 
Q 23.96875 30.171875 30.90625 30.171875 
Q 37.84375 30.171875 41.53125 35.078125 
Q 45.21875 39.984375 45.21875 49.21875 
Q 45.21875 58.9375 41.5 64.15625 
Q 37.796875 69.390625 30.90625 69.390625 
z
" id="DejaVuSerif-57"/>
      </defs>
      <use xlink:href="#DejaVuSerif-83"/>
      <use x="68.505859" xlink:href="#DejaVuSerif-108"/>
      <use x="100.488281" xlink:href="#DejaVuSerif-111"/>
      <use x="160.693359" xlink:href="#DejaVuSerif-112"/>
      <use x="224.707031" xlink:href="#DejaVuSerif-101"/>
      <use x="283.886719" xlink:href="#DejaVuSerif-32"/>
      <use x="315.673828" xlink:href="#DejaVuSerif-40"/>
      <use x="354.6875" xlink:href="#DejaVuSerif-122"/>
      <use x="407.373047" xlink:href="#DejaVuSerif-61"/>
      <use x="491.162109" xlink:href="#DejaVuSerif-49"/>
      <use x="554.785156" xlink:href="#DejaVuSerif-46"/>
      <use x="586.572266" xlink:href="#DejaVuSerif-57"/>
      <use x="650.195312" xlink:href="#DejaVuSerif-54"/>
      <use x="713.818359" xlink:href="#DejaVuSerif-41"/>
     </g>
    </g>
   </g>
   <g id="matplotlib.axis_6">
    <g id="ytick_10">
     <g id="line2d_20">
      <g>
       <use style="stroke:#000000;stroke-width:0.8;" x="57.6" xlink:href="#m1bbade4207" y="307.198853"/>
      </g>
     </g>
     <g id="text_25">
      <!-- 14 -->
      <g transform="translate(37.875 310.998071)scale(0.1 -0.1)">
       <use xlink:href="#DejaVuSerif-49"/>
       <use x="63.623047" xlink:href="#DejaVuSerif-52"/>
      </g>
     </g>
    </g>
    <g id="ytick_11">
     <g id="line2d_21">
      <g>
       <use style="stroke:#000000;stroke-width:0.8;" x="57.6" xlink:href="#m1bbade4207" y="280.263962"/>
      </g>
     </g>
     <g id="text_26">
      <!-- 16 -->
      <g transform="translate(37.875 284.063181)scale(0.1 -0.1)">
       <use xlink:href="#DejaVuSerif-49"/>
       <use x="63.623047" xlink:href="#DejaVuSerif-54"/>
      </g>
     </g>
    </g>
    <g id="ytick_12">
     <g id="line2d_22">
      <g>
       <use style="stroke:#000000;stroke-width:0.8;" x="57.6" xlink:href="#m1bbade4207" y="253.329071"/>
      </g>
     </g>
     <g id="text_27">
      <!-- 18 -->
      <g transform="translate(37.875 257.12829)scale(0.1 -0.1)">
       <use xlink:href="#DejaVuSerif-49"/>
       <use x="63.623047" xlink:href="#DejaVuSerif-56"/>
      </g>
     </g>
    </g>
    <g id="ytick_13">
     <g id="line2d_23">
      <g>
       <use style="stroke:#000000;stroke-width:0.8;" x="57.6" xlink:href="#m1bbade4207" y="226.39418"/>
      </g>
     </g>
     <g id="text_28">
      <!-- 20 -->
      <g transform="translate(37.875 230.193399)scale(0.1 -0.1)">
       <use xlink:href="#DejaVuSerif-50"/>
       <use x="63.623047" xlink:href="#DejaVuSerif-48"/>
      </g>
     </g>
    </g>
    <g id="text_29">
     <!-- Median g -->
     <g transform="translate(31.653125 278.231912)rotate(-90)scale(0.1 -0.1)">
      <use xlink:href="#DejaVuSerif-77"/>
      <use x="102.392578" xlink:href="#DejaVuSerif-101"/>
      <use x="161.572266" xlink:href="#DejaVuSerif-100"/>
      <use x="225.585938" xlink:href="#DejaVuSerif-105"/>
      <use x="257.568359" xlink:href="#DejaVuSerif-97"/>
      <use x="317.1875" xlink:href="#DejaVuSerif-110"/>
      <use x="381.591797" xlink:href="#DejaVuSerif-32"/>
      <use x="413.378906" xlink:href="#DejaVuSerif-103"/>
     </g>
    </g>
   </g>
   <g id="patch_13">
    <path d="M 57.6 307.584 
L 57.6 201.1392 
" style="fill:none;stroke:#000000;stroke-linecap:square;stroke-linejoin:miter;stroke-width:0.8;"/>
   </g>
   <g id="patch_14">
    <path d="M 200.448 307.584 
L 200.448 201.1392 
" style="fill:none;stroke:#000000;stroke-linecap:square;stroke-linejoin:miter;stroke-width:0.8;"/>
   </g>
   <g id="patch_15">
    <path d="M 57.6 307.584 
L 200.448 307.584 
" style="fill:none;stroke:#000000;stroke-linecap:square;stroke-linejoin:miter;stroke-width:0.8;"/>
   </g>
   <g id="patch_16">
    <path d="M 57.6 201.1392 
L 200.448 201.1392 
" style="fill:none;stroke:#000000;stroke-linecap:square;stroke-linejoin:miter;stroke-width:0.8;"/>
   </g>
  </g>
  <g id="axes_4">
   <g id="patch_17">
    <path d="M 271.872 307.584 
L 414.72 307.584 
L 414.72 201.1392 
L 271.872 201.1392 
z
" style="fill:#ffffff;"/>
   </g>
   <g id="PathCollection_4">
    <g clip-path="url(#p1951944eb9)">
     <use style="fill:#6495ed;stroke:#6495ed;" x="281.724229" xlink:href="#m474715397b" y="210.778762"/>
     <use style="fill:#6495ed;stroke:#6495ed;" x="281.905372" xlink:href="#m474715397b" y="213.39498"/>
     <use style="fill:#6495ed;stroke:#6495ed;" x="408.226909" xlink:href="#m474715397b" y="302.7456"/>
     <use style="fill:#6495ed;stroke:#6495ed;" x="280.338956" xlink:href="#m474715397b" y="215.504761"/>
     <use style="fill:#6495ed;stroke:#6495ed;" x="282.435578" xlink:href="#m474715397b" y="214.653141"/>
     <use style="fill:#6495ed;stroke:#6495ed;" x="280.094523" xlink:href="#m474715397b" y="219.528942"/>
     <use style="fill:#6495ed;stroke:#6495ed;" x="288.950835" xlink:href="#m474715397b" y="205.9776"/>
     <use style="fill:#6495ed;stroke:#6495ed;" x="280.771806" xlink:href="#m474715397b" y="220.495009"/>
     <use style="fill:#6495ed;stroke:#6495ed;" x="283.133628" xlink:href="#m474715397b" y="210.51946"/>
     <use style="fill:#6495ed;stroke:#6495ed;" x="278.365091" xlink:href="#m474715397b" y="234.440529"/>
     <use style="fill:#6495ed;stroke:#6495ed;" x="279.625243" xlink:href="#m474715397b" y="209.35408"/>
     <use style="fill:#6495ed;stroke:#6495ed;" x="325.10299" xlink:href="#m474715397b" y="242.913721"/>
    </g>
   </g>
   <g id="matplotlib.axis_7">
    <g id="xtick_11">
     <g id="line2d_24">
      <g>
       <use style="stroke:#000000;stroke-width:0.8;" x="280.269184" xlink:href="#mc9cb03b1aa" y="307.584"/>
      </g>
     </g>
     <g id="text_30">
      <!-- 1 -->
      <g transform="translate(277.087934 322.182437)scale(0.1 -0.1)">
       <use xlink:href="#DejaVuSerif-49"/>
      </g>
     </g>
    </g>
    <g id="xtick_12">
     <g id="line2d_25">
      <g>
       <use style="stroke:#000000;stroke-width:0.8;" x="328.376367" xlink:href="#mc9cb03b1aa" y="307.584"/>
      </g>
     </g>
     <g id="text_31">
      <!-- 2 -->
      <g transform="translate(325.195117 322.182437)scale(0.1 -0.1)">
       <use xlink:href="#DejaVuSerif-50"/>
      </g>
     </g>
    </g>
    <g id="xtick_13">
     <g id="line2d_26">
      <g>
       <use style="stroke:#000000;stroke-width:0.8;" x="376.48355" xlink:href="#mc9cb03b1aa" y="307.584"/>
      </g>
     </g>
     <g id="text_32">
      <!-- 3 -->
      <g transform="translate(373.3023 322.182437)scale(0.1 -0.1)">
       <use xlink:href="#DejaVuSerif-51"/>
      </g>
     </g>
    </g>
    <g id="text_33">
     <!-- Slope (z=2.58) -->
     <g transform="translate(305.653813 335.860562)scale(0.1 -0.1)">
      <use xlink:href="#DejaVuSerif-83"/>
      <use x="68.505859" xlink:href="#DejaVuSerif-108"/>
      <use x="100.488281" xlink:href="#DejaVuSerif-111"/>
      <use x="160.693359" xlink:href="#DejaVuSerif-112"/>
      <use x="224.707031" xlink:href="#DejaVuSerif-101"/>
      <use x="283.886719" xlink:href="#DejaVuSerif-32"/>
      <use x="315.673828" xlink:href="#DejaVuSerif-40"/>
      <use x="354.6875" xlink:href="#DejaVuSerif-122"/>
      <use x="407.373047" xlink:href="#DejaVuSerif-61"/>
      <use x="491.162109" xlink:href="#DejaVuSerif-50"/>
      <use x="554.785156" xlink:href="#DejaVuSerif-46"/>
      <use x="586.572266" xlink:href="#DejaVuSerif-53"/>
      <use x="650.195312" xlink:href="#DejaVuSerif-56"/>
      <use x="713.818359" xlink:href="#DejaVuSerif-41"/>
     </g>
    </g>
   </g>
   <g id="matplotlib.axis_8">
    <g id="ytick_14">
     <g id="line2d_27">
      <g>
       <use style="stroke:#000000;stroke-width:0.8;" x="271.872" xlink:href="#m1bbade4207" y="307.321064"/>
      </g>
     </g>
     <g id="text_34">
      <!-- 14 -->
      <g transform="translate(252.147 311.120283)scale(0.1 -0.1)">
       <use xlink:href="#DejaVuSerif-49"/>
       <use x="63.623047" xlink:href="#DejaVuSerif-52"/>
      </g>
     </g>
    </g>
    <g id="ytick_15">
     <g id="line2d_28">
      <g>
       <use style="stroke:#000000;stroke-width:0.8;" x="271.872" xlink:href="#m1bbade4207" y="279.646994"/>
      </g>
     </g>
     <g id="text_35">
      <!-- 16 -->
      <g transform="translate(252.147 283.446213)scale(0.1 -0.1)">
       <use xlink:href="#DejaVuSerif-49"/>
       <use x="63.623047" xlink:href="#DejaVuSerif-54"/>
      </g>
     </g>
    </g>
    <g id="ytick_16">
     <g id="line2d_29">
      <g>
       <use style="stroke:#000000;stroke-width:0.8;" x="271.872" xlink:href="#m1bbade4207" y="251.972925"/>
      </g>
     </g>
     <g id="text_36">
      <!-- 18 -->
      <g transform="translate(252.147 255.772144)scale(0.1 -0.1)">
       <use xlink:href="#DejaVuSerif-49"/>
       <use x="63.623047" xlink:href="#DejaVuSerif-56"/>
      </g>
     </g>
    </g>
    <g id="ytick_17">
     <g id="line2d_30">
      <g>
       <use style="stroke:#000000;stroke-width:0.8;" x="271.872" xlink:href="#m1bbade4207" y="224.298855"/>
      </g>
     </g>
     <g id="text_37">
      <!-- 20 -->
      <g transform="translate(252.147 228.098074)scale(0.1 -0.1)">
       <use xlink:href="#DejaVuSerif-50"/>
       <use x="63.623047" xlink:href="#DejaVuSerif-48"/>
      </g>
     </g>
    </g>
    <g id="text_38">
     <!-- Median g -->
     <g transform="translate(245.925125 278.231912)rotate(-90)scale(0.1 -0.1)">
      <use xlink:href="#DejaVuSerif-77"/>
      <use x="102.392578" xlink:href="#DejaVuSerif-101"/>
      <use x="161.572266" xlink:href="#DejaVuSerif-100"/>
      <use x="225.585938" xlink:href="#DejaVuSerif-105"/>
      <use x="257.568359" xlink:href="#DejaVuSerif-97"/>
      <use x="317.1875" xlink:href="#DejaVuSerif-110"/>
      <use x="381.591797" xlink:href="#DejaVuSerif-32"/>
      <use x="413.378906" xlink:href="#DejaVuSerif-103"/>
     </g>
    </g>
   </g>
   <g id="patch_18">
    <path d="M 271.872 307.584 
L 271.872 201.1392 
" style="fill:none;stroke:#000000;stroke-linecap:square;stroke-linejoin:miter;stroke-width:0.8;"/>
   </g>
   <g id="patch_19">
    <path d="M 414.72 307.584 
L 414.72 201.1392 
" style="fill:none;stroke:#000000;stroke-linecap:square;stroke-linejoin:miter;stroke-width:0.8;"/>
   </g>
   <g id="patch_20">
    <path d="M 271.872 307.584 
L 414.72 307.584 
" style="fill:none;stroke:#000000;stroke-linecap:square;stroke-linejoin:miter;stroke-width:0.8;"/>
   </g>
   <g id="patch_21">
    <path d="M 271.872 201.1392 
L 414.72 201.1392 
" style="fill:none;stroke:#000000;stroke-linecap:square;stroke-linejoin:miter;stroke-width:0.8;"/>
   </g>
  </g>
  <g id="text_39">
   <!-- Error formula: $100\cdot\frac{z\cdot \mathrm{SE}}{\mathrm{slope}}$ -->
   <g transform="translate(156.54 18.552)scale(0.12 -0.12)">
    <defs>
     <path d="M 5.515625 0 
L 5.515625 5.171875 
L 14.796875 5.171875 
L 14.796875 67.671875 
L 5.515625 67.671875 
L 5.515625 72.90625 
L 64.203125 72.90625 
L 64.203125 56.6875 
L 58.203125 56.6875 
L 58.203125 66.890625 
L 24.703125 66.890625 
L 24.703125 42.484375 
L 48.578125 42.484375 
L 48.578125 51.609375 
L 54.59375 51.609375 
L 54.59375 27.390625 
L 48.578125 27.390625 
L 48.578125 36.53125 
L 24.703125 36.53125 
L 24.703125 6 
L 58.984375 6 
L 58.984375 16.21875 
L 64.984375 16.21875 
L 64.984375 0 
z
" id="DejaVuSerif-69"/>
     <path d="M 47.796875 52 
L 47.796875 39.015625 
L 42.625 39.015625 
Q 42.390625 42.875 40.484375 44.78125 
Q 38.578125 46.6875 34.90625 46.6875 
Q 28.265625 46.6875 24.71875 42.09375 
Q 21.1875 37.5 21.1875 28.90625 
L 21.1875 5.171875 
L 31.59375 5.171875 
L 31.59375 0 
L 4.109375 0 
L 4.109375 5.171875 
L 12.203125 5.171875 
L 12.203125 46.78125 
L 3.609375 46.78125 
L 3.609375 51.90625 
L 21.1875 51.90625 
L 21.1875 42.671875 
Q 23.828125 48.09375 27.96875 50.703125 
Q 32.125 53.328125 38.09375 53.328125 
Q 40.28125 53.328125 42.703125 52.984375 
Q 45.125 52.640625 47.796875 52 
z
" id="DejaVuSerif-114"/>
     <path d="M 43.015625 63.71875 
L 38.28125 63.71875 
Q 38.234375 67.390625 36.203125 69.28125 
Q 34.1875 71.1875 30.328125 71.1875 
Q 25.296875 71.1875 23.234375 68.421875 
Q 21.1875 65.671875 21.1875 58.59375 
L 21.1875 51.90625 
L 35.6875 51.90625 
L 35.6875 46.6875 
L 21.1875 46.6875 
L 21.1875 5.171875 
L 32.71875 5.171875 
L 32.71875 0 
L 3.609375 0 
L 3.609375 5.171875 
L 12.203125 5.171875 
L 12.203125 46.6875 
L 3.609375 46.6875 
L 3.609375 51.90625 
L 12.203125 51.90625 
L 12.203125 58.40625 
Q 12.203125 67.09375 16.71875 71.53125 
Q 21.234375 75.984375 29.984375 75.984375 
Q 33.25 75.984375 36.515625 75.390625 
Q 39.796875 74.8125 43.015625 73.578125 
z
" id="DejaVuSerif-102"/>
     <path d="M 51.8125 41.796875 
Q 54.390625 47.515625 58.421875 50.421875 
Q 62.453125 53.328125 67.828125 53.328125 
Q 75.984375 53.328125 79.984375 48.265625 
Q 83.984375 43.21875 83.984375 33.015625 
L 83.984375 5.171875 
L 92.09375 5.171875 
L 92.09375 0 
L 67.1875 0 
L 67.1875 5.171875 
L 75 5.171875 
L 75 31.984375 
Q 75 39.9375 72.65625 43.3125 
Q 70.3125 46.6875 64.890625 46.6875 
Q 58.890625 46.6875 55.734375 42.140625 
Q 52.59375 37.59375 52.59375 28.90625 
L 52.59375 5.171875 
L 60.40625 5.171875 
L 60.40625 0 
L 35.796875 0 
L 35.796875 5.171875 
L 43.609375 5.171875 
L 43.609375 32.328125 
Q 43.609375 40.09375 41.265625 43.390625 
Q 38.921875 46.6875 33.5 46.6875 
Q 27.484375 46.6875 24.328125 42.140625 
Q 21.1875 37.59375 21.1875 28.90625 
L 21.1875 5.171875 
L 29 5.171875 
L 29 0 
L 4.109375 0 
L 4.109375 5.171875 
L 12.203125 5.171875 
L 12.203125 46.78125 
L 3.609375 46.78125 
L 3.609375 51.90625 
L 21.1875 51.90625 
L 21.1875 42.671875 
Q 23.6875 47.859375 27.53125 50.59375 
Q 31.390625 53.328125 36.28125 53.328125 
Q 42.328125 53.328125 46.375 50.3125 
Q 50.4375 47.3125 51.8125 41.796875 
z
" id="DejaVuSerif-109"/>
     <path d="M 35.40625 51.90625 
L 52.203125 51.90625 
L 52.203125 5.171875 
L 60.6875 5.171875 
L 60.6875 0 
L 43.21875 0 
L 43.21875 9.1875 
Q 40.71875 4 36.765625 1.28125 
Q 32.8125 -1.421875 27.59375 -1.421875 
Q 18.953125 -1.421875 14.875 3.484375 
Q 10.796875 8.40625 10.796875 18.890625 
L 10.796875 46.6875 
L 2.6875 46.6875 
L 2.6875 51.90625 
L 19.828125 51.90625 
L 19.828125 21.6875 
Q 19.828125 12.203125 22.140625 8.6875 
Q 24.46875 5.171875 30.421875 5.171875 
Q 36.671875 5.171875 39.9375 9.765625 
Q 43.21875 14.359375 43.21875 23.09375 
L 43.21875 46.6875 
L 35.40625 46.6875 
z
" id="DejaVuSerif-117"/>
     <path d="M 10.40625 5.078125 
Q 10.40625 7.8125 12.28125 9.71875 
Q 14.15625 11.625 16.890625 11.625 
Q 19.625 11.625 21.5 9.71875 
Q 23.390625 7.8125 23.390625 5.078125 
Q 23.390625 2.34375 21.53125 0.453125 
Q 19.671875 -1.421875 16.890625 -1.421875 
Q 14.109375 -1.421875 12.25 0.453125 
Q 10.40625 2.34375 10.40625 5.078125 
z
M 10.40625 36.921875 
Q 10.40625 39.65625 12.28125 41.53125 
Q 14.15625 43.40625 16.890625 43.40625 
Q 19.671875 43.40625 21.53125 41.546875 
Q 23.390625 39.703125 23.390625 36.921875 
Q 23.390625 34.125 21.53125 32.265625 
Q 19.671875 30.421875 16.890625 30.421875 
Q 14.15625 30.421875 12.28125 32.296875 
Q 10.40625 34.1875 10.40625 36.921875 
z
" id="DejaVuSerif-58"/>
     <path d="M 12.40625 8.296875 
L 28.515625 8.296875 
L 28.515625 63.921875 
L 10.984375 60.40625 
L 10.984375 69.390625 
L 28.421875 72.90625 
L 38.28125 72.90625 
L 38.28125 8.296875 
L 54.390625 8.296875 
L 54.390625 0 
L 12.40625 0 
z
" id="DejaVuSans-49"/>
     <path d="M 31.78125 66.40625 
Q 24.171875 66.40625 20.328125 58.90625 
Q 16.5 51.421875 16.5 36.375 
Q 16.5 21.390625 20.328125 13.890625 
Q 24.171875 6.390625 31.78125 6.390625 
Q 39.453125 6.390625 43.28125 13.890625 
Q 47.125 21.390625 47.125 36.375 
Q 47.125 51.421875 43.28125 58.90625 
Q 39.453125 66.40625 31.78125 66.40625 
z
M 31.78125 74.21875 
Q 44.046875 74.21875 50.515625 64.515625 
Q 56.984375 54.828125 56.984375 36.375 
Q 56.984375 17.96875 50.515625 8.265625 
Q 44.046875 -1.421875 31.78125 -1.421875 
Q 19.53125 -1.421875 13.0625 8.265625 
Q 6.59375 17.96875 6.59375 36.375 
Q 6.59375 54.828125 13.0625 64.515625 
Q 19.53125 74.21875 31.78125 74.21875 
z
" id="DejaVuSans-48"/>
     <path d="M 10.6875 40.921875 
L 21 40.921875 
L 21 28.515625 
L 10.6875 28.515625 
z
" id="DejaVuSans-8901"/>
     <path d="M 11.625 54.6875 
L 54.296875 54.6875 
L 52.6875 46.484375 
L 11.53125 7.171875 
L 45.515625 7.171875 
L 44.09375 0 
L -0.296875 0 
L 1.3125 8.203125 
L 42.484375 47.515625 
L 10.203125 47.515625 
z
" id="DejaVuSans-Oblique-122"/>
     <path d="M 53.515625 70.515625 
L 53.515625 60.890625 
Q 47.90625 63.578125 42.921875 64.890625 
Q 37.9375 66.21875 33.296875 66.21875 
Q 25.25 66.21875 20.875 63.09375 
Q 16.5 59.96875 16.5 54.203125 
Q 16.5 49.359375 19.40625 46.890625 
Q 22.3125 44.4375 30.421875 42.921875 
L 36.375 41.703125 
Q 47.40625 39.59375 52.65625 34.296875 
Q 57.90625 29 57.90625 20.125 
Q 57.90625 9.515625 50.796875 4.046875 
Q 43.703125 -1.421875 29.984375 -1.421875 
Q 24.8125 -1.421875 18.96875 -0.25 
Q 13.140625 0.921875 6.890625 3.21875 
L 6.890625 13.375 
Q 12.890625 10.015625 18.65625 8.296875 
Q 24.421875 6.59375 29.984375 6.59375 
Q 38.421875 6.59375 43.015625 9.90625 
Q 47.609375 13.234375 47.609375 19.390625 
Q 47.609375 24.75 44.3125 27.78125 
Q 41.015625 30.8125 33.5 32.328125 
L 27.484375 33.5 
Q 16.453125 35.6875 11.515625 40.375 
Q 6.59375 45.0625 6.59375 53.421875 
Q 6.59375 63.09375 13.40625 68.65625 
Q 20.21875 74.21875 32.171875 74.21875 
Q 37.3125 74.21875 42.625 73.28125 
Q 47.953125 72.359375 53.515625 70.515625 
z
" id="DejaVuSans-83"/>
     <path d="M 9.8125 72.90625 
L 55.90625 72.90625 
L 55.90625 64.59375 
L 19.671875 64.59375 
L 19.671875 43.015625 
L 54.390625 43.015625 
L 54.390625 34.71875 
L 19.671875 34.71875 
L 19.671875 8.296875 
L 56.78125 8.296875 
L 56.78125 0 
L 9.8125 0 
z
" id="DejaVuSans-69"/>
     <path d="M 44.28125 53.078125 
L 44.28125 44.578125 
Q 40.484375 46.53125 36.375 47.5 
Q 32.28125 48.484375 27.875 48.484375 
Q 21.1875 48.484375 17.84375 46.4375 
Q 14.5 44.390625 14.5 40.28125 
Q 14.5 37.15625 16.890625 35.375 
Q 19.28125 33.59375 26.515625 31.984375 
L 29.59375 31.296875 
Q 39.15625 29.25 43.1875 25.515625 
Q 47.21875 21.78125 47.21875 15.09375 
Q 47.21875 7.46875 41.1875 3.015625 
Q 35.15625 -1.421875 24.609375 -1.421875 
Q 20.21875 -1.421875 15.453125 -0.5625 
Q 10.6875 0.296875 5.421875 2 
L 5.421875 11.28125 
Q 10.40625 8.6875 15.234375 7.390625 
Q 20.0625 6.109375 24.8125 6.109375 
Q 31.15625 6.109375 34.5625 8.28125 
Q 37.984375 10.453125 37.984375 14.40625 
Q 37.984375 18.0625 35.515625 20.015625 
Q 33.0625 21.96875 24.703125 23.78125 
L 21.578125 24.515625 
Q 13.234375 26.265625 9.515625 29.90625 
Q 5.8125 33.546875 5.8125 39.890625 
Q 5.8125 47.609375 11.28125 51.796875 
Q 16.75 56 26.8125 56 
Q 31.78125 56 36.171875 55.265625 
Q 40.578125 54.546875 44.28125 53.078125 
z
" id="DejaVuSans-115"/>
     <path d="M 9.421875 75.984375 
L 18.40625 75.984375 
L 18.40625 0 
L 9.421875 0 
z
" id="DejaVuSans-108"/>
     <path d="M 30.609375 48.390625 
Q 23.390625 48.390625 19.1875 42.75 
Q 14.984375 37.109375 14.984375 27.296875 
Q 14.984375 17.484375 19.15625 11.84375 
Q 23.34375 6.203125 30.609375 6.203125 
Q 37.796875 6.203125 41.984375 11.859375 
Q 46.1875 17.53125 46.1875 27.296875 
Q 46.1875 37.015625 41.984375 42.703125 
Q 37.796875 48.390625 30.609375 48.390625 
z
M 30.609375 56 
Q 42.328125 56 49.015625 48.375 
Q 55.71875 40.765625 55.71875 27.296875 
Q 55.71875 13.875 49.015625 6.21875 
Q 42.328125 -1.421875 30.609375 -1.421875 
Q 18.84375 -1.421875 12.171875 6.21875 
Q 5.515625 13.875 5.515625 27.296875 
Q 5.515625 40.765625 12.171875 48.375 
Q 18.84375 56 30.609375 56 
z
" id="DejaVuSans-111"/>
     <path d="M 18.109375 8.203125 
L 18.109375 -20.796875 
L 9.078125 -20.796875 
L 9.078125 54.6875 
L 18.109375 54.6875 
L 18.109375 46.390625 
Q 20.953125 51.265625 25.265625 53.625 
Q 29.59375 56 35.59375 56 
Q 45.5625 56 51.78125 48.09375 
Q 58.015625 40.1875 58.015625 27.296875 
Q 58.015625 14.40625 51.78125 6.484375 
Q 45.5625 -1.421875 35.59375 -1.421875 
Q 29.59375 -1.421875 25.265625 0.953125 
Q 20.953125 3.328125 18.109375 8.203125 
z
M 48.6875 27.296875 
Q 48.6875 37.203125 44.609375 42.84375 
Q 40.53125 48.484375 33.40625 48.484375 
Q 26.265625 48.484375 22.1875 42.84375 
Q 18.109375 37.203125 18.109375 27.296875 
Q 18.109375 17.390625 22.1875 11.75 
Q 26.265625 6.109375 33.40625 6.109375 
Q 40.53125 6.109375 44.609375 11.75 
Q 48.6875 17.390625 48.6875 27.296875 
z
" id="DejaVuSans-112"/>
     <path d="M 56.203125 29.59375 
L 56.203125 25.203125 
L 14.890625 25.203125 
Q 15.484375 15.921875 20.484375 11.0625 
Q 25.484375 6.203125 34.421875 6.203125 
Q 39.59375 6.203125 44.453125 7.46875 
Q 49.3125 8.734375 54.109375 11.28125 
L 54.109375 2.78125 
Q 49.265625 0.734375 44.1875 -0.34375 
Q 39.109375 -1.421875 33.890625 -1.421875 
Q 20.796875 -1.421875 13.15625 6.1875 
Q 5.515625 13.8125 5.515625 26.8125 
Q 5.515625 40.234375 12.765625 48.109375 
Q 20.015625 56 32.328125 56 
Q 43.359375 56 49.78125 48.890625 
Q 56.203125 41.796875 56.203125 29.59375 
z
M 47.21875 32.234375 
Q 47.125 39.59375 43.09375 43.984375 
Q 39.0625 48.390625 32.421875 48.390625 
Q 24.90625 48.390625 20.390625 44.140625 
Q 15.875 39.890625 15.1875 32.171875 
z
" id="DejaVuSans-101"/>
    </defs>
    <use transform="translate(0 0.254688)" xlink:href="#DejaVuSerif-69"/>
    <use transform="translate(72.998047 0.254688)" xlink:href="#DejaVuSerif-114"/>
    <use transform="translate(120.800781 0.254688)" xlink:href="#DejaVuSerif-114"/>
    <use transform="translate(168.603516 0.254688)" xlink:href="#DejaVuSerif-111"/>
    <use transform="translate(228.808594 0.254688)" xlink:href="#DejaVuSerif-114"/>
    <use transform="translate(276.611328 0.254688)" xlink:href="#DejaVuSerif-32"/>
    <use transform="translate(308.398438 0.254688)" xlink:href="#DejaVuSerif-102"/>
    <use transform="translate(345.410156 0.254688)" xlink:href="#DejaVuSerif-111"/>
    <use transform="translate(405.615234 0.254688)" xlink:href="#DejaVuSerif-114"/>
    <use transform="translate(453.417969 0.254688)" xlink:href="#DejaVuSerif-109"/>
    <use transform="translate(548.242188 0.254688)" xlink:href="#DejaVuSerif-117"/>
    <use transform="translate(612.646484 0.254688)" xlink:href="#DejaVuSerif-108"/>
    <use transform="translate(644.628906 0.254688)" xlink:href="#DejaVuSerif-97"/>
    <use transform="translate(704.248047 0.254688)" xlink:href="#DejaVuSerif-58"/>
    <use transform="translate(737.939453 0.254688)" xlink:href="#DejaVuSerif-32"/>
    <use transform="translate(769.726562 0.254688)" xlink:href="#DejaVuSans-49"/>
    <use transform="translate(833.349609 0.254688)" xlink:href="#DejaVuSans-48"/>
    <use transform="translate(896.972656 0.254688)" xlink:href="#DejaVuSans-48"/>
    <use transform="translate(980.078125 0.254688)" xlink:href="#DejaVuSans-8901"/>
    <use transform="translate(1037.347656 45.046875)scale(0.7)" xlink:href="#DejaVuSans-Oblique-122"/>
    <use transform="translate(1087.728516 45.046875)scale(0.7)" xlink:href="#DejaVuSans-8901"/>
    <use transform="translate(1123.617188 45.046875)scale(0.7)" xlink:href="#DejaVuSans-83"/>
    <use transform="translate(1168.050781 45.046875)scale(0.7)" xlink:href="#DejaVuSans-69"/>
    <use transform="translate(1031.347656 -40.3875)scale(0.7)" xlink:href="#DejaVuSans-115"/>
    <use transform="translate(1067.817383 -40.3875)scale(0.7)" xlink:href="#DejaVuSans-108"/>
    <use transform="translate(1087.265625 -40.3875)scale(0.7)" xlink:href="#DejaVuSans-111"/>
    <use transform="translate(1130.092773 -40.3875)scale(0.7)" xlink:href="#DejaVuSans-112"/>
    <use transform="translate(1174.526367 -40.3875)scale(0.7)" xlink:href="#DejaVuSans-101"/>
    <path d="M 1031.347656 19.051563 
L 1031.347656 25.301563 
L 1217.592773 25.301563 
L 1217.592773 19.051563 
L 1031.347656 19.051563 
z
"/>
   </g>
  </g>
 </g>
 <defs>
  <clipPath id="p4fa30ddbc0">
   <rect height="106.4448" width="142.848" x="57.6" y="41.472"/>
  </clipPath>
  <clipPath id="pc97fad19cb">
   <rect height="106.4448" width="142.848" x="271.872" y="41.472"/>
  </clipPath>
  <clipPath id="pa8b703dd57">
   <rect height="106.4448" width="142.848" x="57.6" y="201.1392"/>
  </clipPath>
  <clipPath id="p1951944eb9">
   <rect height="106.4448" width="142.848" x="271.872" y="201.1392"/>
  </clipPath>
 </defs>
</svg>
