<?xml version="1.0" encoding="utf-8" standalone="no"?>
<!DOCTYPE svg PUBLIC "-//W3C//DTD SVG 1.1//EN"
  "http://www.w3.org/Graphics/SVG/1.1/DTD/svg11.dtd">
<!-- Created with matplotlib (https://matplotlib.org/) -->
<svg height="345.6pt" version="1.1" viewBox="0 0 460.8 345.6" width="460.8pt" xmlns="http://www.w3.org/2000/svg" xmlns:xlink="http://www.w3.org/1999/xlink">
 <metadata>
  <rdf:RDF xmlns:cc="http://creativecommons.org/ns#" xmlns:dc="http://purl.org/dc/elements/1.1/" xmlns:rdf="http://www.w3.org/1999/02/22-rdf-syntax-ns#">
   <cc:Work>
    <dc:type rdf:resource="http://purl.org/dc/dcmitype/StillImage"/>
    <dc:date>2021-02-16T16:33:29.101248</dc:date>
    <dc:format>image/svg+xml</dc:format>
    <dc:creator>
     <cc:Agent>
      <dc:title>Matplotlib v3.3.3, https://matplotlib.org/</dc:title>
     </cc:Agent>
    </dc:creator>
   </cc:Work>
  </rdf:RDF>
 </metadata>
 <defs>
  <style type="text/css">*{stroke-linecap:butt;stroke-linejoin:round;}</style>
 </defs>
 <g id="figure_1">
  <g id="patch_1">
   <path d="M 0 345.6 
L 460.8 345.6 
L 460.8 0 
L 0 0 
z
" style="fill:#ffffff;"/>
  </g>
  <g id="axes_1">
   <g id="patch_2">
    <path d="M 265.92 150.089143 
L 414.72 150.089143 
L 414.72 41.472 
L 265.92 41.472 
z
" style="fill:#ffffff;"/>
   </g>
   <g id="matplotlib.axis_1">
    <g id="xtick_1">
     <g id="line2d_1">
      <defs>
       <path d="M 0 0 
L 0 3.5 
" id="m5146f12768" style="stroke:#000000;stroke-width:0.8;"/>
      </defs>
      <g>
       <use style="stroke:#000000;stroke-width:0.8;" x="315.519224" xlink:href="#m5146f12768" y="150.089143"/>
      </g>
     </g>
     <g id="text_1">
      <!-- $\mathdefault{10^{1}}$ -->
      <g transform="translate(306.719224 164.68758)scale(0.1 -0.1)">
       <defs>
        <path d="M 14.203125 0 
L 14.203125 5.171875 
L 26.90625 5.171875 
L 26.90625 65.828125 
L 12.203125 56.296875 
L 12.203125 62.703125 
L 29.984375 74.21875 
L 36.71875 74.21875 
L 36.71875 5.171875 
L 49.421875 5.171875 
L 49.421875 0 
z
" id="DejaVuSerif-49"/>
        <path d="M 31.78125 3.421875 
Q 39.265625 3.421875 42.96875 11.625 
Q 46.6875 19.828125 46.6875 36.375 
Q 46.6875 52.984375 42.96875 61.1875 
Q 39.265625 69.390625 31.78125 69.390625 
Q 24.3125 69.390625 20.59375 61.1875 
Q 16.890625 52.984375 16.890625 36.375 
Q 16.890625 19.828125 20.59375 11.625 
Q 24.3125 3.421875 31.78125 3.421875 
z
M 31.78125 -1.421875 
Q 19.921875 -1.421875 13.25 8.53125 
Q 6.59375 18.5 6.59375 36.375 
Q 6.59375 54.296875 13.25 64.25 
Q 19.921875 74.21875 31.78125 74.21875 
Q 43.703125 74.21875 50.34375 64.25 
Q 56.984375 54.296875 56.984375 36.375 
Q 56.984375 18.5 50.34375 8.53125 
Q 43.703125 -1.421875 31.78125 -1.421875 
z
" id="DejaVuSerif-48"/>
       </defs>
       <use transform="translate(0 0.7125)" xlink:href="#DejaVuSerif-49"/>
       <use transform="translate(63.623047 0.7125)" xlink:href="#DejaVuSerif-48"/>
       <use transform="translate(128.154453 37.046875)scale(0.7)" xlink:href="#DejaVuSerif-49"/>
      </g>
     </g>
    </g>
    <g id="xtick_2">
     <g id="line2d_2">
      <g>
       <use style="stroke:#000000;stroke-width:0.8;" x="373.218149" xlink:href="#m5146f12768" y="150.089143"/>
      </g>
     </g>
     <g id="text_2">
      <!-- $\mathdefault{10^{2}}$ -->
      <g transform="translate(364.418149 164.68758)scale(0.1 -0.1)">
       <defs>
        <path d="M 12.796875 55.515625 
L 7.328125 55.515625 
L 7.328125 68.5 
Q 12.546875 71.296875 17.84375 72.75 
Q 23.140625 74.21875 28.21875 74.21875 
Q 39.59375 74.21875 46.1875 68.703125 
Q 52.78125 63.1875 52.78125 53.71875 
Q 52.78125 43.015625 37.84375 28.125 
Q 36.671875 27 36.078125 26.421875 
L 17.671875 8.015625 
L 48.09375 8.015625 
L 48.09375 17 
L 53.8125 17 
L 53.8125 0 
L 6.78125 0 
L 6.78125 5.328125 
L 28.90625 27.390625 
Q 36.234375 34.71875 39.359375 40.84375 
Q 42.484375 46.96875 42.484375 53.71875 
Q 42.484375 61.078125 38.640625 65.234375 
Q 34.8125 69.390625 28.078125 69.390625 
Q 21.09375 69.390625 17.28125 65.921875 
Q 13.484375 62.453125 12.796875 55.515625 
z
" id="DejaVuSerif-50"/>
       </defs>
       <use transform="translate(0 0.7125)" xlink:href="#DejaVuSerif-49"/>
       <use transform="translate(63.623047 0.7125)" xlink:href="#DejaVuSerif-48"/>
       <use transform="translate(128.154453 37.046875)scale(0.7)" xlink:href="#DejaVuSerif-50"/>
      </g>
     </g>
    </g>
    <g id="xtick_3">
     <g id="line2d_3">
      <defs>
       <path d="M 0 0 
L 0 2 
" id="m95b158db86" style="stroke:#000000;stroke-width:0.6;"/>
      </defs>
      <g>
       <use style="stroke:#000000;stroke-width:0.6;" x="275.189406" xlink:href="#m95b158db86" y="150.089143"/>
      </g>
     </g>
    </g>
    <g id="xtick_4">
     <g id="line2d_4">
      <g>
       <use style="stroke:#000000;stroke-width:0.6;" x="285.349683" xlink:href="#m95b158db86" y="150.089143"/>
      </g>
     </g>
    </g>
    <g id="xtick_5">
     <g id="line2d_5">
      <g>
       <use style="stroke:#000000;stroke-width:0.6;" x="292.558513" xlink:href="#m95b158db86" y="150.089143"/>
      </g>
     </g>
    </g>
    <g id="xtick_6">
     <g id="line2d_6">
      <g>
       <use style="stroke:#000000;stroke-width:0.6;" x="298.150117" xlink:href="#m95b158db86" y="150.089143"/>
      </g>
     </g>
    </g>
    <g id="xtick_7">
     <g id="line2d_7">
      <g>
       <use style="stroke:#000000;stroke-width:0.6;" x="302.71879" xlink:href="#m95b158db86" y="150.089143"/>
      </g>
     </g>
    </g>
    <g id="xtick_8">
     <g id="line2d_8">
      <g>
       <use style="stroke:#000000;stroke-width:0.6;" x="306.581548" xlink:href="#m95b158db86" y="150.089143"/>
      </g>
     </g>
    </g>
    <g id="xtick_9">
     <g id="line2d_9">
      <g>
       <use style="stroke:#000000;stroke-width:0.6;" x="309.927621" xlink:href="#m95b158db86" y="150.089143"/>
      </g>
     </g>
    </g>
    <g id="xtick_10">
     <g id="line2d_10">
      <g>
       <use style="stroke:#000000;stroke-width:0.6;" x="312.879066" xlink:href="#m95b158db86" y="150.089143"/>
      </g>
     </g>
    </g>
    <g id="xtick_11">
     <g id="line2d_11">
      <g>
       <use style="stroke:#000000;stroke-width:0.6;" x="332.888331" xlink:href="#m95b158db86" y="150.089143"/>
      </g>
     </g>
    </g>
    <g id="xtick_12">
     <g id="line2d_12">
      <g>
       <use style="stroke:#000000;stroke-width:0.6;" x="343.048608" xlink:href="#m95b158db86" y="150.089143"/>
      </g>
     </g>
    </g>
    <g id="xtick_13">
     <g id="line2d_13">
      <g>
       <use style="stroke:#000000;stroke-width:0.6;" x="350.257438" xlink:href="#m95b158db86" y="150.089143"/>
      </g>
     </g>
    </g>
    <g id="xtick_14">
     <g id="line2d_14">
      <g>
       <use style="stroke:#000000;stroke-width:0.6;" x="355.849042" xlink:href="#m95b158db86" y="150.089143"/>
      </g>
     </g>
    </g>
    <g id="xtick_15">
     <g id="line2d_15">
      <g>
       <use style="stroke:#000000;stroke-width:0.6;" x="360.417715" xlink:href="#m95b158db86" y="150.089143"/>
      </g>
     </g>
    </g>
    <g id="xtick_16">
     <g id="line2d_16">
      <g>
       <use style="stroke:#000000;stroke-width:0.6;" x="364.280473" xlink:href="#m95b158db86" y="150.089143"/>
      </g>
     </g>
    </g>
    <g id="xtick_17">
     <g id="line2d_17">
      <g>
       <use style="stroke:#000000;stroke-width:0.6;" x="367.626546" xlink:href="#m95b158db86" y="150.089143"/>
      </g>
     </g>
    </g>
    <g id="xtick_18">
     <g id="line2d_18">
      <g>
       <use style="stroke:#000000;stroke-width:0.6;" x="370.577991" xlink:href="#m95b158db86" y="150.089143"/>
      </g>
     </g>
    </g>
    <g id="xtick_19">
     <g id="line2d_19">
      <g>
       <use style="stroke:#000000;stroke-width:0.6;" x="390.587256" xlink:href="#m95b158db86" y="150.089143"/>
      </g>
     </g>
    </g>
    <g id="xtick_20">
     <g id="line2d_20">
      <g>
       <use style="stroke:#000000;stroke-width:0.6;" x="400.747533" xlink:href="#m95b158db86" y="150.089143"/>
      </g>
     </g>
    </g>
    <g id="xtick_21">
     <g id="line2d_21">
      <g>
       <use style="stroke:#000000;stroke-width:0.6;" x="407.956364" xlink:href="#m95b158db86" y="150.089143"/>
      </g>
     </g>
    </g>
    <g id="xtick_22">
     <g id="line2d_22">
      <g>
       <use style="stroke:#000000;stroke-width:0.6;" x="413.547967" xlink:href="#m95b158db86" y="150.089143"/>
      </g>
     </g>
    </g>
    <g id="text_3">
     <!-- Period d -->
     <g transform="translate(319.231719 178.365705)scale(0.1 -0.1)">
      <defs>
       <path d="M 24.703125 37.109375 
L 37.59375 37.109375 
Q 44.875 37.109375 48.671875 41.03125 
Q 52.484375 44.96875 52.484375 52.390625 
Q 52.484375 59.859375 48.671875 63.765625 
Q 44.875 67.671875 37.59375 67.671875 
L 24.703125 67.671875 
z
M 5.515625 0 
L 5.515625 5.171875 
L 14.796875 5.171875 
L 14.796875 67.671875 
L 5.515625 67.671875 
L 5.515625 72.90625 
L 39.984375 72.90625 
Q 50.921875 72.90625 57.3125 67.359375 
Q 63.71875 61.8125 63.71875 52.390625 
Q 63.71875 43.015625 57.3125 37.453125 
Q 50.921875 31.890625 39.984375 31.890625 
L 24.703125 31.890625 
L 24.703125 5.171875 
L 35.984375 5.171875 
L 35.984375 0 
z
" id="DejaVuSerif-80"/>
       <path d="M 54.203125 25 
L 15.484375 25 
L 15.484375 24.609375 
Q 15.484375 14.109375 19.4375 8.765625 
Q 23.390625 3.421875 31.109375 3.421875 
Q 37.015625 3.421875 40.796875 6.515625 
Q 44.578125 9.625 46.09375 15.71875 
L 53.328125 15.71875 
Q 51.171875 7.171875 45.375 2.875 
Q 39.59375 -1.421875 30.171875 -1.421875 
Q 18.796875 -1.421875 11.890625 6.078125 
Q 4.984375 13.578125 4.984375 25.984375 
Q 4.984375 38.28125 11.765625 45.796875 
Q 18.5625 53.328125 29.59375 53.328125 
Q 41.359375 53.328125 47.65625 46.0625 
Q 53.953125 38.8125 54.203125 25 
z
M 43.609375 30.171875 
Q 43.3125 39.265625 39.765625 43.875 
Q 36.234375 48.484375 29.59375 48.484375 
Q 23.390625 48.484375 19.828125 43.84375 
Q 16.265625 39.203125 15.484375 30.171875 
z
" id="DejaVuSerif-101"/>
       <path d="M 47.796875 52 
L 47.796875 39.015625 
L 42.625 39.015625 
Q 42.390625 42.875 40.484375 44.78125 
Q 38.578125 46.6875 34.90625 46.6875 
Q 28.265625 46.6875 24.71875 42.09375 
Q 21.1875 37.5 21.1875 28.90625 
L 21.1875 5.171875 
L 31.59375 5.171875 
L 31.59375 0 
L 4.109375 0 
L 4.109375 5.171875 
L 12.203125 5.171875 
L 12.203125 46.78125 
L 3.609375 46.78125 
L 3.609375 51.90625 
L 21.1875 51.90625 
L 21.1875 42.671875 
Q 23.828125 48.09375 27.96875 50.703125 
Q 32.125 53.328125 38.09375 53.328125 
Q 40.28125 53.328125 42.703125 52.984375 
Q 45.125 52.640625 47.796875 52 
z
" id="DejaVuSerif-114"/>
       <path d="M 9.71875 68.015625 
Q 9.71875 70.265625 11.34375 71.921875 
Q 12.984375 73.578125 15.28125 73.578125 
Q 17.53125 73.578125 19.15625 71.921875 
Q 20.796875 70.265625 20.796875 68.015625 
Q 20.796875 65.71875 19.1875 64.109375 
Q 17.578125 62.5 15.28125 62.5 
Q 12.984375 62.5 11.34375 64.109375 
Q 9.71875 65.71875 9.71875 68.015625 
z
M 21.1875 5.171875 
L 29.6875 5.171875 
L 29.6875 0 
L 3.609375 0 
L 3.609375 5.171875 
L 12.203125 5.171875 
L 12.203125 46.6875 
L 3.609375 46.6875 
L 3.609375 51.90625 
L 21.1875 51.90625 
z
" id="DejaVuSerif-105"/>
       <path d="M 30.078125 3.421875 
Q 37.3125 3.421875 40.984375 9.125 
Q 44.671875 14.84375 44.671875 25.984375 
Q 44.671875 37.109375 40.984375 42.796875 
Q 37.3125 48.484375 30.078125 48.484375 
Q 22.859375 48.484375 19.171875 42.796875 
Q 15.484375 37.109375 15.484375 25.984375 
Q 15.484375 14.84375 19.1875 9.125 
Q 22.90625 3.421875 30.078125 3.421875 
z
M 30.078125 -1.421875 
Q 18.75 -1.421875 11.859375 6.078125 
Q 4.984375 13.578125 4.984375 25.984375 
Q 4.984375 38.375 11.84375 45.84375 
Q 18.703125 53.328125 30.078125 53.328125 
Q 41.453125 53.328125 48.3125 45.84375 
Q 55.171875 38.375 55.171875 25.984375 
Q 55.171875 13.578125 48.3125 6.078125 
Q 41.453125 -1.421875 30.078125 -1.421875 
z
" id="DejaVuSerif-111"/>
       <path d="M 52.484375 5.171875 
L 61.078125 5.171875 
L 61.078125 0 
L 43.5 0 
L 43.5 8.109375 
Q 40.875 3.21875 36.796875 0.890625 
Q 32.71875 -1.421875 26.703125 -1.421875 
Q 17.140625 -1.421875 11.0625 6.171875 
Q 4.984375 13.765625 4.984375 25.984375 
Q 4.984375 38.1875 11.03125 45.75 
Q 17.09375 53.328125 26.703125 53.328125 
Q 32.71875 53.328125 36.796875 51 
Q 40.875 48.6875 43.5 43.796875 
L 43.5 70.796875 
L 35.015625 70.796875 
L 35.015625 75.984375 
L 52.484375 75.984375 
z
M 43.5 23.390625 
L 43.5 28.515625 
Q 43.5 37.84375 39.90625 42.765625 
Q 36.328125 47.703125 29.5 47.703125 
Q 22.5625 47.703125 19.015625 42.234375 
Q 15.484375 36.765625 15.484375 25.984375 
Q 15.484375 15.234375 19.015625 9.71875 
Q 22.5625 4.203125 29.5 4.203125 
Q 36.328125 4.203125 39.90625 9.109375 
Q 43.5 14.015625 43.5 23.390625 
z
" id="DejaVuSerif-100"/>
       <path id="DejaVuSerif-32"/>
      </defs>
      <use xlink:href="#DejaVuSerif-80"/>
      <use x="62.785156" xlink:href="#DejaVuSerif-101"/>
      <use x="121.964844" xlink:href="#DejaVuSerif-114"/>
      <use x="169.767578" xlink:href="#DejaVuSerif-105"/>
      <use x="201.75" xlink:href="#DejaVuSerif-111"/>
      <use x="261.955078" xlink:href="#DejaVuSerif-100"/>
      <use x="325.96875" xlink:href="#DejaVuSerif-32"/>
      <use x="357.755859" xlink:href="#DejaVuSerif-100"/>
     </g>
    </g>
   </g>
   <g id="matplotlib.axis_2">
    <g id="ytick_1">
     <g id="line2d_23">
      <defs>
       <path d="M 0 0 
L -3.5 0 
" id="m76515df886" style="stroke:#000000;stroke-width:0.8;"/>
      </defs>
      <g>
       <use style="stroke:#000000;stroke-width:0.8;" x="265.92" xlink:href="#m76515df886" y="145.161699"/>
      </g>
     </g>
     <g id="text_4">
      <!-- 0.0 -->
      <g transform="translate(243.016875 148.960918)scale(0.1 -0.1)">
       <defs>
        <path d="M 9.421875 5.078125 
Q 9.421875 7.8125 11.28125 9.71875 
Q 13.140625 11.625 15.921875 11.625 
Q 18.609375 11.625 20.5 9.71875 
Q 22.40625 7.8125 22.40625 5.078125 
Q 22.40625 2.390625 20.5 0.484375 
Q 18.609375 -1.421875 15.921875 -1.421875 
Q 13.140625 -1.421875 11.28125 0.453125 
Q 9.421875 2.34375 9.421875 5.078125 
z
" id="DejaVuSerif-46"/>
       </defs>
       <use xlink:href="#DejaVuSerif-48"/>
       <use x="63.623047" xlink:href="#DejaVuSerif-46"/>
       <use x="95.410156" xlink:href="#DejaVuSerif-48"/>
      </g>
     </g>
    </g>
    <g id="ytick_2">
     <g id="line2d_24">
      <g>
       <use style="stroke:#000000;stroke-width:0.8;" x="265.92" xlink:href="#m76515df886" y="111.108837"/>
      </g>
     </g>
     <g id="text_5">
      <!-- 0.2 -->
      <g transform="translate(243.016875 114.908056)scale(0.1 -0.1)">
       <use xlink:href="#DejaVuSerif-48"/>
       <use x="63.623047" xlink:href="#DejaVuSerif-46"/>
       <use x="95.410156" xlink:href="#DejaVuSerif-50"/>
      </g>
     </g>
    </g>
    <g id="ytick_3">
     <g id="line2d_25">
      <g>
       <use style="stroke:#000000;stroke-width:0.8;" x="265.92" xlink:href="#m76515df886" y="77.055975"/>
      </g>
     </g>
     <g id="text_6">
      <!-- 0.4 -->
      <g transform="translate(243.016875 80.855194)scale(0.1 -0.1)">
       <defs>
        <path d="M 34.90625 24.703125 
L 34.90625 63.484375 
L 10.015625 24.703125 
z
M 56.390625 0 
L 23.1875 0 
L 23.1875 5.171875 
L 34.90625 5.171875 
L 34.90625 19.484375 
L 3.078125 19.484375 
L 3.078125 24.8125 
L 35.015625 74.21875 
L 44.671875 74.21875 
L 44.671875 24.703125 
L 58.59375 24.703125 
L 58.59375 19.484375 
L 44.671875 19.484375 
L 44.671875 5.171875 
L 56.390625 5.171875 
z
" id="DejaVuSerif-52"/>
       </defs>
       <use xlink:href="#DejaVuSerif-48"/>
       <use x="63.623047" xlink:href="#DejaVuSerif-46"/>
       <use x="95.410156" xlink:href="#DejaVuSerif-52"/>
      </g>
     </g>
    </g>
    <g id="ytick_4">
     <g id="line2d_26">
      <g>
       <use style="stroke:#000000;stroke-width:0.8;" x="265.92" xlink:href="#m76515df886" y="43.003113"/>
      </g>
     </g>
     <g id="text_7">
      <!-- 0.6 -->
      <g transform="translate(243.016875 46.802332)scale(0.1 -0.1)">
       <defs>
        <path d="M 32.71875 3.421875 
Q 39.59375 3.421875 43.296875 8.46875 
Q 47.015625 13.53125 47.015625 23 
Q 47.015625 32.46875 43.296875 37.515625 
Q 39.59375 42.578125 32.71875 42.578125 
Q 25.734375 42.578125 22.0625 37.6875 
Q 18.40625 32.8125 18.40625 23.578125 
Q 18.40625 13.875 22.109375 8.640625 
Q 25.828125 3.421875 32.71875 3.421875 
z
M 16.796875 40.140625 
Q 20.125 43.796875 24.3125 45.59375 
Q 28.515625 47.40625 33.796875 47.40625 
Q 44.671875 47.40625 51 40.859375 
Q 57.328125 34.328125 57.328125 23 
Q 57.328125 11.921875 50.515625 5.25 
Q 43.703125 -1.421875 32.328125 -1.421875 
Q 19.96875 -1.421875 13.328125 7.78125 
Q 6.6875 17 6.6875 34.078125 
Q 6.6875 53.21875 14.546875 63.71875 
Q 22.40625 74.21875 36.71875 74.21875 
Q 40.578125 74.21875 44.828125 73.484375 
Q 49.078125 72.75 53.515625 71.296875 
L 53.515625 59.28125 
L 48 59.28125 
Q 47.40625 64.203125 44.234375 66.796875 
Q 41.0625 69.390625 35.6875 69.390625 
Q 26.21875 69.390625 21.578125 62.203125 
Q 16.9375 55.03125 16.796875 40.140625 
z
" id="DejaVuSerif-54"/>
       </defs>
       <use xlink:href="#DejaVuSerif-48"/>
       <use x="63.623047" xlink:href="#DejaVuSerif-46"/>
       <use x="95.410156" xlink:href="#DejaVuSerif-54"/>
      </g>
     </g>
    </g>
    <g id="text_8">
     <!-- Power -->
     <g transform="translate(236.937188 111.583696)rotate(-90)scale(0.1 -0.1)">
      <defs>
       <path d="M 48 51.90625 
L 61.28125 11.375 
L 73 46.6875 
L 65.484375 46.6875 
L 65.484375 51.90625 
L 84.28125 51.90625 
L 84.28125 46.6875 
L 78.515625 46.6875 
L 63.09375 0 
L 55.609375 0 
L 42.828125 38.8125 
L 29.984375 0 
L 22.796875 0 
L 7.421875 46.6875 
L 1.609375 46.6875 
L 1.609375 51.90625 
L 25.09375 51.90625 
L 25.09375 46.6875 
L 16.703125 46.6875 
L 28.328125 11.375 
L 41.703125 51.90625 
z
" id="DejaVuSerif-119"/>
      </defs>
      <use xlink:href="#DejaVuSerif-80"/>
      <use x="63.285156" xlink:href="#DejaVuSerif-111"/>
      <use x="123.490234" xlink:href="#DejaVuSerif-119"/>
      <use x="209.085938" xlink:href="#DejaVuSerif-101"/>
      <use x="268.265625" xlink:href="#DejaVuSerif-114"/>
     </g>
    </g>
   </g>
   <g id="LineCollection_1">
    <path clip-path="url(#pce0f31593a)" d="M 272.688076 65.758309 
L 407.956364 65.758309 
" style="fill:none;stroke:#808080;stroke-dasharray:5.55,2.4;stroke-dashoffset:0;stroke-width:1.5;"/>
   </g>
   <g id="LineCollection_2">
    <path clip-path="url(#pce0f31593a)" d="M 272.688076 76.958013 
L 407.956364 76.958013 
" style="fill:none;stroke:#a9a9a9;stroke-dasharray:5.55,2.4;stroke-dashoffset:0;stroke-width:1.5;"/>
   </g>
   <g id="LineCollection_3">
    <path clip-path="url(#pce0f31593a)" d="M 272.688076 85.77663 
L 407.956364 85.77663 
" style="fill:none;stroke:#c0c0c0;stroke-dasharray:5.55,2.4;stroke-dashoffset:0;stroke-width:1.5;"/>
   </g>
   <g id="LineCollection_4">
    <path clip-path="url(#pce0f31593a)" d="M 272.688076 89.942295 
L 407.956364 89.942295 
" style="fill:none;stroke:#d3d3d3;stroke-dasharray:5.55,2.4;stroke-dashoffset:0;stroke-width:1.5;"/>
   </g>
   <g id="line2d_27">
    <path clip-path="url(#pce0f31593a)" d="M 407.956364 133.232607 
L 403.213616 125.415635 
L 399.227255 85.227382 
L 395.788878 81.443975 
L 392.765875 94.220438 
L 390.068617 120.854018 
L 387.633683 142.781251 
L 385.414539 133.431971 
L 383.376032 113.075095 
L 381.490955 110.980204 
L 379.73782 122.888194 
L 378.099359 135.982782 
L 376.561486 140.664799 
L 375.112563 141.698766 
L 373.74286 137.350454 
L 372.444161 135.873878 
L 371.209467 133.944534 
L 370.032763 123.160481 
L 368.908846 118.962789 
L 367.833182 130.946005 
L 366.801799 144.16388 
L 365.811193 142.234233 
L 364.858264 128.388887 
L 363.940249 111.291059 
L 363.054681 109.601438 
L 362.199344 129.969942 
L 361.372241 142.3287 
L 360.571569 143.562997 
L 359.043114 128.520685 
L 358.312483 132.547425 
L 357.602554 126.758515 
L 356.912184 116.722312 
L 356.240326 126.937364 
L 355.586012 141.629366 
L 354.948349 143.618286 
L 354.326511 138.022497 
L 353.719731 123.023287 
L 353.127298 112.575694 
L 352.548548 115.675539 
L 351.982864 131.040585 
L 351.429669 140.685065 
L 350.888423 143.54142 
L 350.358621 139.834175 
L 349.839788 124.233437 
L 349.331481 119.402295 
L 348.83328 119.054125 
L 348.344791 120.861662 
L 347.395485 143.805427 
L 346.933987 127.594039 
L 346.480834 104.503206 
L 346.035731 96.733947 
L 345.598396 103.664129 
L 345.168563 125.68078 
L 344.745979 140.80874 
L 343.921608 101.584057 
L 343.519374 102.139909 
L 343.123495 116.913359 
L 342.733774 140.046483 
L 342.35002 139.373577 
L 341.972055 120.003491 
L 341.599707 113.629513 
L 341.23281 122.931961 
L 340.871208 141.113323 
L 340.51475 141.235745 
L 340.163291 129.647552 
L 339.816694 122.348808 
L 339.474825 125.703269 
L 339.137558 139.858118 
L 338.80477 143.138956 
L 338.152167 120.251035 
L 337.83213 121.314286 
L 337.204063 142.924883 
L 336.895836 137.254377 
L 336.591354 134.817043 
L 335.993269 140.990317 
L 335.699496 137.499964 
L 335.122085 118.027958 
L 334.838294 123.785293 
L 334.55768 141.348433 
L 334.280174 140.249986 
L 334.005708 123.481823 
L 333.734215 114.773901 
L 333.465633 117.395873 
L 332.936952 144.387497 
L 332.676737 137.327567 
L 332.419196 120.950975 
L 332.164275 119.834251 
L 331.662084 139.186771 
L 331.414712 142.879205 
L 331.169759 138.412123 
L 330.927177 131.576347 
L 330.686922 132.107683 
L 330.213212 134.340359 
L 329.979673 140.076487 
L 329.748291 140.938597 
L 329.29184 133.456333 
L 329.066695 131.493078 
L 328.843554 133.262461 
L 328.622384 139.770337 
L 328.403148 142.005137 
L 328.185814 130.964898 
L 327.970348 125.959468 
L 327.33485 143.811536 
L 326.919965 127.897131 
L 326.71507 128.04321 
L 326.310239 141.937757 
L 326.11025 141.172446 
L 325.911845 136.08743 
L 325.714998 136.867787 
L 325.519686 140.915933 
L 325.325884 139.623014 
L 324.942719 124.175886 
L 324.753312 127.958055 
L 324.378739 144.155074 
L 324.009683 107.617122 
L 323.827173 108.099906 
L 323.287487 142.275524 
L 322.934048 117.735374 
L 322.413063 142.712601 
L 322.071662 130.36252 
L 321.90269 134.588627 
L 321.73485 144.059303 
L 321.568126 137.601628 
L 321.402505 124.207678 
L 321.237971 120.948877 
L 321.07451 127.431782 
L 320.912109 140.814982 
L 320.750753 141.122664 
L 320.431126 109.551159 
L 320.272828 110.86245 
L 319.959202 142.640739 
L 319.803848 141.030356 
L 319.496001 121.26026 
L 318.891425 141.565943 
L 318.594521 140.874295 
L 318.447378 137.466654 
L 318.155658 125.676428 
L 317.867296 142.248137 
L 317.724349 142.909676 
L 317.44088 131.840052 
L 317.300339 132.687791 
L 317.021599 140.955803 
L 316.745926 134.500912 
L 316.609219 135.799394 
L 316.473253 141.764296 
L 316.338021 142.304414 
L 316.069727 134.353737 
L 315.936649 133.287743 
L 315.672596 141.760958 
L 315.411296 139.932415 
L 315.152693 138.091652 
L 314.896732 129.265258 
L 314.643358 144.364266 
L 314.517626 141.875132 
L 314.268038 112.47502 
L 314.14417 114.180683 
L 313.898256 143.816662 
L 313.776199 135.898502 
L 313.533852 114.776845 
L 313.174672 144.8797 
L 312.938046 129.578073 
L 312.703635 143.28895 
L 312.587246 140.570311 
L 312.356079 127.146181 
L 312.24129 131.302926 
L 312.127024 141.980063 
L 312.013277 142.002941 
L 311.78732 113.089122 
L 311.675102 114.861037 
L 311.452161 144.273192 
L 311.34143 141.186839 
L 311.121425 125.762234 
L 310.794997 141.717313 
L 310.687126 140.199514 
L 310.579717 140.380811 
L 310.472767 141.621261 
L 310.260226 129.548734 
L 310.154628 129.682514 
L 309.944758 144.253718 
L 309.840478 142.675473 
L 309.633211 121.460257 
L 309.530217 125.761455 
L 309.32549 145.124409 
L 309.021503 130.141279 
L 308.820874 144.360135 
L 308.522911 132.715159 
L 308.326219 144.176415 
L 308.228449 143.74277 
L 308.034047 131.357263 
L 307.937408 131.563721 
L 307.649708 144.381583 
L 307.554537 143.590873 
L 307.271175 120.61064 
L 306.990981 142.465828 
L 306.805911 110.878459 
L 306.713886 111.165799 
L 306.530844 138.556021 
L 306.439822 137.776992 
L 306.258763 110.627586 
L 306.168722 115.022287 
L 305.989605 143.515878 
L 305.900524 141.833718 
L 305.723307 130.253879 
L 305.547334 141.812974 
L 305.372589 138.410838 
L 305.199054 144.717481 
L 304.940984 128.570331 
L 304.685544 143.641062 
L 304.516687 128.960241 
L 304.432682 132.435839 
L 304.265515 145.092975 
L 304.099454 132.133359 
L 304.016835 134.012209 
L 303.852409 144.004865 
L 303.689056 137.587763 
L 303.607776 138.669927 
L 303.52676 144.018513 
L 303.446004 143.284319 
L 303.28527 127.965374 
L 303.205288 130.602902 
L 303.046086 144.477305 
L 302.809162 127.229091 
L 302.574458 144.264857 
L 302.419202 133.446271 
L 302.341932 135.659456 
L 302.188105 144.055312 
L 302.111544 143.26791 
L 301.883255 137.996157 
L 301.657027 144.515795 
L 301.582069 143.956067 
L 301.432822 131.657999 
L 301.358531 132.598792 
L 301.210607 144.547045 
L 300.990344 128.002538 
L 300.917351 133.48903 
L 300.772001 142.810201 
L 300.627488 125.906423 
L 300.555543 127.717579 
L 300.41227 144.57396 
L 300.34094 142.479502 
L 300.198885 134.340855 
L 300.057631 143.942359 
L 299.987302 142.100703 
L 299.917169 140.946513 
L 299.77749 144.139962 
L 299.707941 143.851086 
L 299.56942 135.835947 
L 299.431661 144.210673 
L 299.363064 144.202227 
L 299.226432 136.815167 
L 299.09054 145.018952 
L 299.022869 142.748695 
L 298.888074 131.88322 
L 298.820947 134.569729 
L 298.754 142.165764 
L 298.687231 141.406876 
L 298.554225 125.437576 
L 298.487985 127.158287 
L 298.356029 142.551428 
L 298.159389 124.990231 
L 297.96428 144.533291 
L 297.835046 137.049389 
L 297.770679 138.631068 
L 297.706476 142.946526 
L 297.642437 142.900052 
L 297.578561 142.362538 
L 297.387906 144.274665 
L 297.261603 139.176747 
L 297.073335 144.146036 
L 296.948604 142.578274 
L 296.824491 144.871729 
L 296.639467 134.091146 
L 296.516872 142.601966 
L 296.455798 140.229487 
L 296.334097 126.897517 
L 296.273467 128.860315 
L 296.152645 143.445075 
L 296.092452 140.736156 
L 295.972498 134.398809 
L 295.793636 144.672824 
L 295.675101 141.894885 
L 295.557123 143.892927 
L 295.439699 140.028452 
L 295.322822 145.001962 
L 295.206487 138.550188 
L 295.148522 135.780539 
L 294.975427 144.31472 
L 294.86069 139.353179 
L 294.746477 144.623202 
L 294.689565 143.284193 
L 294.576127 134.42862 
L 294.5196 137.309803 
L 294.463201 142.3414 
L 294.406927 142.287983 
L 294.294759 131.788267 
L 294.238863 133.061694 
L 294.127442 144.666022 
L 294.071918 142.698383 
L 293.961236 138.116672 
L 293.85104 144.993384 
L 293.796124 142.97818 
L 293.686651 138.872108 
L 293.523333 144.843481 
L 293.469129 143.464853 
L 293.415042 142.597245 
L 293.361072 142.887949 
L 293.146346 145.078039 
L 293.092951 144.233231 
L 292.9865 136.869736 
L 292.933444 137.430108 
L 292.827668 142.192629 
L 292.669836 125.77838 
L 292.617446 130.853301 
L 292.512992 141.613009 
L 292.460928 138.275264 
L 292.408972 135.29676 
L 292.357124 136.80017 
L 292.253748 145.116239 
L 292.202219 144.087788 
L 292.150796 142.76066 
L 292.099478 143.448981 
L 292.048266 144.832754 
L 291.997158 143.463421 
L 291.895253 136.708064 
L 291.844455 137.723325 
L 291.743168 143.957735 
L 291.692678 142.751428 
L 291.642289 141.522824 
L 291.592001 142.059921 
L 291.491728 144.294552 
L 291.441741 143.471041 
L 291.391854 143.65233 
L 291.342066 144.589723 
L 291.292376 143.247367 
L 291.143896 132.281902 
L 291.045396 140.249487 
L 290.996291 135.671183 
L 290.898369 127.430236 
L 290.84955 129.924497 
L 290.752198 140.8885 
L 290.703664 139.060215 
L 290.655223 136.230948 
L 290.606876 137.199436 
L 290.462392 145.004313 
L 290.414415 144.310141 
L 290.318735 145.152 
L 290.22342 142.095638 
L 290.175898 140.736938 
L 290.128466 141.833025 
L 290.03387 145.135735 
L 289.986706 144.636842 
L 289.845744 143.892823 
L 289.752207 139.131957 
L 289.70557 140.722705 
L 289.659019 143.352905 
L 289.612554 142.568322 
L 289.519883 135.496547 
L 289.473675 136.242518 
L 289.381515 143.682067 
L 289.335561 143.275293 
L 289.289692 140.915265 
L 289.243907 141.159672 
L 289.152586 145.151038 
L 289.10705 143.714437 
L 289.016226 141.050968 
L 288.970937 142.748076 
L 288.92573 142.260397 
L 288.790596 129.490127 
L 288.700909 136.870255 
L 288.656186 135.703222 
L 288.566978 125.398254 
L 288.522494 130.594548 
L 288.389511 143.780906 
L 288.345339 143.059018 
L 288.301246 142.466191 
L 288.169429 133.41532 
L 288.125643 135.666897 
L 288.081934 138.53717 
L 288.038302 135.773061 
L 287.951263 121.524611 
L 287.907857 122.816624 
L 287.778088 136.925998 
L 287.73498 133.667506 
L 287.691947 132.201911 
L 287.563288 144.792136 
L 287.435287 143.780376 
L 287.392765 145.062212 
L 287.350314 144.102721 
L 287.265629 139.477747 
L 287.223394 141.239244 
L 287.139135 144.766886 
L 287.097112 143.207132 
L 286.971464 139.497097 
L 286.929721 139.747322 
L 286.846443 143.173277 
L 286.804908 140.670752 
L 286.722043 122.180243 
L 286.639451 128.564929 
L 286.598257 133.57409 
L 286.55713 133.088273 
L 286.475079 119.958355 
L 286.434154 121.29932 
L 286.311779 142.157068 
L 286.230526 140.055044 
L 286.149536 141.522404 
L 286.068806 138.888731 
L 286.028539 140.987564 
L 285.988336 142.177016 
L 285.868114 122.024546 
L 285.828167 126.112723 
L 285.748465 139.063779 
L 285.708709 134.117811 
L 285.669016 126.773003 
L 285.629385 127.204221 
L 285.510868 143.428373 
L 285.471487 139.520181 
L 285.432167 138.884309 
L 285.353713 145.129397 
L 285.314578 142.385482 
L 285.23649 136.5961 
L 285.197537 140.801137 
L 285.158645 143.663317 
L 285.119812 140.919004 
L 285.042328 133.059174 
L 285.003676 137.265139 
L 284.926549 144.564091 
L 284.888075 142.151131 
L 284.84966 140.583983 
L 284.811303 142.558561 
L 284.773005 144.975174 
L 284.734766 143.02129 
L 284.658461 137.749507 
L 284.620396 141.107403 
L 284.582388 144.621361 
L 284.544439 143.637866 
L 284.468711 136.554893 
L 284.430932 138.163534 
L 284.317938 144.737472 
L 284.280386 144.680079 
L 284.205451 141.874654 
L 284.130739 138.012896 
L 284.093466 140.78743 
L 284.019087 144.509165 
L 283.98198 141.031464 
L 283.944928 138.632853 
L 283.90793 139.318555 
L 283.797265 144.800738 
L 283.760485 144.214417 
L 283.687086 141.76024 
L 283.613901 134.996051 
L 283.577389 137.098964 
L 283.54093 141.585661 
L 283.504524 140.103835 
L 283.395621 113.105905 
L 283.359426 122.962011 
L 283.323282 134.575878 
L 283.287191 132.256339 
L 283.215163 110.891838 
L 283.179227 113.687668 
L 283.107508 141.53641 
L 283.035995 131.354946 
L 283.000314 129.190537 
L 282.929106 143.591547 
L 282.893577 141.324164 
L 282.822671 130.766973 
L 282.787292 134.693718 
L 282.716685 144.947474 
L 282.681457 142.338821 
L 282.646277 140.526167 
L 282.576066 142.356585 
L 282.506051 139.760327 
L 282.471117 141.675081 
L 282.436231 144.981364 
L 282.401394 142.254896 
L 282.331865 126.398221 
L 282.297172 126.966492 
L 282.227931 142.383206 
L 282.193382 135.514454 
L 282.124427 119.907875 
L 282.09002 126.763736 
L 282.021348 142.544863 
L 281.987083 136.213413 
L 281.952864 129.039482 
L 281.918692 130.537574 
L 281.850487 144.577898 
L 281.782468 140.627879 
L 281.748527 139.001499 
L 281.714633 141.97508 
L 281.680784 144.454906 
L 281.64698 143.998228 
L 281.57951 134.532728 
L 281.512222 139.207269 
L 281.478645 143.523087 
L 281.445113 143.386575 
L 281.344786 117.813533 
L 281.311432 121.992916 
L 281.244859 135.88625 
L 281.211638 119.676758 
L 281.145328 100.502278 
L 281.112239 110.898955 
L 281.046192 136.641394 
L 281.013234 124.289527 
L 280.980318 113.692482 
L 280.947446 115.39737 
L 280.881831 142.197412 
L 280.816388 129.179818 
L 280.78373 125.960597 
L 280.718542 143.679916 
L 280.653522 134.246221 
L 280.621076 128.559717 
L 280.588672 130.902829 
L 280.523988 145.124755 
L 280.459471 137.186814 
L 280.39512 130.826466 
L 280.330934 134.627598 
L 280.298902 141.401414 
L 280.266911 136.01345 
L 280.171183 80.65194 
L 280.139355 82.181264 
L 280.07582 110.412905 
L 280.044112 78.762792 
L 279.980818 46.409143 
L 279.94923 57.853117 
L 279.886175 105.150288 
L 279.854706 81.198023 
L 279.791887 66.173253 
L 279.697954 130.996575 
L 279.635526 111.41786 
L 279.604371 112.557331 
L 279.511136 143.505947 
L 279.449172 128.21788 
L 279.418247 121.758456 
L 279.38736 127.522861 
L 279.325701 144.285874 
L 279.294928 136.356788 
L 279.233496 125.255238 
L 279.202836 135.265348 
L 279.172213 143.687633 
L 279.141628 133.268604 
L 279.08057 108.408229 
L 279.050096 113.945565 
L 278.98926 138.206239 
L 278.958897 125.885066 
L 278.898282 110.362216 
L 278.868029 119.034419 
L 278.807633 143.484371 
L 278.747382 131.187364 
L 278.717311 130.762592 
L 278.597386 144.830976 
L 278.567494 141.118093 
L 278.507817 126.751047 
L 278.478032 129.341108 
L 278.418567 143.757799 
L 278.388888 130.309915 
L 278.329634 104.322011 
L 278.30006 114.3741 
L 278.27052 136.494155 
L 278.211546 115.971593 
L 278.18211 102.713355 
L 278.123343 121.52532 
L 278.094011 136.194512 
L 278.064713 115.394144 
L 278.00622 84.78698 
L 277.977025 96.321155 
L 277.918736 123.478571 
L 277.889643 102.669697 
L 277.831556 87.478136 
L 277.802564 106.826091 
L 277.773605 133.780412 
L 277.686927 114.8512 
L 277.571822 144.185527 
L 277.514467 126.351549 
L 277.485839 124.204198 
L 277.457243 129.746893 
L 277.40015 144.749011 
L 277.371652 134.205334 
L 277.314753 117.767101 
L 277.286352 123.28256 
L 277.229646 144.067321 
L 277.201341 134.252328 
L 277.144827 117.496001 
L 277.116617 124.445971 
L 277.060294 144.743044 
L 277.004096 129.666374 
L 276.976045 128.375938 
L 276.892079 144.457771 
L 276.864152 138.566331 
L 276.808393 131.581121 
L 276.752757 136.728904 
L 276.724985 144.470903 
L 276.697244 140.088183 
L 276.614205 116.488147 
L 276.586587 125.745293 
L 276.558999 141.929788 
L 276.503913 117.506142 
L 276.476416 110.290855 
L 276.448949 113.824424 
L 276.394104 138.060968 
L 276.366727 114.61095 
L 276.312062 102.007127 
L 276.284775 118.30489 
L 276.257517 138.665257 
L 276.203089 107.989847 
L 276.17592 99.914574 
L 276.14878 104.076954 
L 276.094588 144.873793 
L 276.040513 126.661867 
L 276.013519 127.93311 
L 275.959619 143.900949 
L 275.905834 137.246802 
L 275.878985 136.396092 
L 275.745168 142.869431 
L 275.691841 136.376285 
L 275.638628 130.257553 
L 275.612063 137.873476 
L 275.585527 144.666074 
L 275.559018 130.691543 
L 275.506086 112.947862 
L 275.479661 120.898878 
L 275.426896 140.288167 
L 275.400554 122.031175 
L 275.374241 109.481917 
L 275.321697 124.735641 
L 275.295466 139.558498 
L 275.243086 120.878728 
L 275.190816 123.997507 
L 275.138655 113.432907 
L 275.112615 138.123713 
L 275.034656 113.479727 
L 275.008724 108.335623 
L 274.982819 116.002496 
L 274.95694 137.400449 
L 274.879464 111.19744 
L 274.853692 113.392986 
L 274.802226 142.96709 
L 274.725226 123.847063 
L 274.648462 144.872721 
L 274.546475 137.853017 
L 274.521042 135.659308 
L 274.470255 140.717521 
L 274.4449 144.17113 
L 274.419571 140.023658 
L 274.368989 125.549751 
L 274.318509 143.013489 
L 274.293307 142.337146 
L 274.242979 111.458236 
L 274.192752 134.857767 
L 274.167676 141.971253 
L 274.142625 122.546715 
L 274.092598 97.241843 
L 274.067622 104.862712 
L 274.042671 134.643646 
L 273.967967 105.104426 
L 273.918287 122.542737 
L 273.893484 142.454246 
L 273.843952 119.340765 
L 273.819223 119.464338 
L 273.74518 143.479143 
L 273.69594 127.592635 
L 273.646797 130.367678 
L 273.597749 144.767917 
L 273.548797 135.413927 
L 273.499941 124.767864 
L 273.475549 132.365169 
L 273.426835 143.927729 
L 273.402514 133.064307 
L 273.378216 124.433345 
L 273.329691 134.477118 
L 273.305463 144.756707 
L 273.257079 125.036085 
L 273.232922 119.135295 
L 273.208788 122.141914 
L 273.160589 144.825267 
L 273.112483 126.564859 
L 273.088465 122.206205 
L 273.06447 126.324831 
L 273.016548 145.13845 
L 272.968717 132.776868 
L 272.920978 122.353486 
L 272.897142 126.475561 
L 272.873329 140.649792 
L 272.825771 118.076358 
L 272.778303 96.625598 
L 272.730925 125.896604 
L 272.70727 121.072148 
L 272.683636 85.248601 
L 272.683636 85.248601 
" style="fill:none;stroke:#1f77b4;stroke-linecap:square;stroke-width:1.5;"/>
   </g>
   <g id="patch_3">
    <path d="M 265.92 150.089143 
L 265.92 41.472 
" style="fill:none;stroke:#000000;stroke-linecap:square;stroke-linejoin:miter;stroke-width:0.8;"/>
   </g>
   <g id="patch_4">
    <path d="M 414.72 150.089143 
L 414.72 41.472 
" style="fill:none;stroke:#000000;stroke-linecap:square;stroke-linejoin:miter;stroke-width:0.8;"/>
   </g>
   <g id="patch_5">
    <path d="M 265.92 150.089143 
L 414.72 150.089143 
" style="fill:none;stroke:#000000;stroke-linecap:square;stroke-linejoin:miter;stroke-width:0.8;"/>
   </g>
   <g id="patch_6">
    <path d="M 265.92 41.472 
L 414.72 41.472 
" style="fill:none;stroke:#000000;stroke-linecap:square;stroke-linejoin:miter;stroke-width:0.8;"/>
   </g>
   <g id="text_9">
    <!-- Periodogram -->
    <g transform="translate(307.698125 35.472)scale(0.1 -0.1)">
     <defs>
      <path d="M 52.484375 46.6875 
L 52.484375 1.125 
Q 52.484375 -10.0625 46.328125 -16.140625 
Q 40.1875 -22.21875 28.8125 -22.21875 
Q 23.6875 -22.21875 19 -21.28125 
Q 14.3125 -20.359375 10.015625 -18.5 
L 10.015625 -7.625 
L 14.703125 -7.625 
Q 15.578125 -12.703125 18.84375 -15.046875 
Q 22.125 -17.390625 28.21875 -17.390625 
Q 36.140625 -17.390625 39.8125 -12.921875 
Q 43.5 -8.453125 43.5 1.125 
L 43.5 8.109375 
Q 40.875 3.21875 36.796875 0.890625 
Q 32.71875 -1.421875 26.703125 -1.421875 
Q 17.140625 -1.421875 11.0625 6.171875 
Q 4.984375 13.765625 4.984375 25.984375 
Q 4.984375 38.1875 11.03125 45.75 
Q 17.09375 53.328125 26.703125 53.328125 
Q 32.71875 53.328125 36.796875 51 
Q 40.875 48.6875 43.5 43.796875 
L 43.5 51.90625 
L 61.078125 51.90625 
L 61.078125 46.6875 
z
M 43.5 28.515625 
Q 43.5 37.84375 39.90625 42.765625 
Q 36.328125 47.703125 29.5 47.703125 
Q 22.5625 47.703125 19.015625 42.234375 
Q 15.484375 36.765625 15.484375 25.984375 
Q 15.484375 15.234375 19.015625 9.71875 
Q 22.5625 4.203125 29.5 4.203125 
Q 36.328125 4.203125 39.90625 9.109375 
Q 43.5 14.015625 43.5 23.390625 
z
" id="DejaVuSerif-103"/>
      <path d="M 39.796875 16.3125 
L 39.796875 27.296875 
L 28.21875 27.296875 
Q 21.53125 27.296875 18.25 24.40625 
Q 14.984375 21.53125 14.984375 15.578125 
Q 14.984375 10.15625 18.296875 6.984375 
Q 21.625 3.8125 27.296875 3.8125 
Q 32.90625 3.8125 36.34375 7.28125 
Q 39.796875 10.75 39.796875 16.3125 
z
M 48.78125 32.421875 
L 48.78125 5.171875 
L 56.78125 5.171875 
L 56.78125 0 
L 39.796875 0 
L 39.796875 5.609375 
Q 36.8125 2 32.90625 0.28125 
Q 29 -1.421875 23.78125 -1.421875 
Q 15.140625 -1.421875 10.0625 3.171875 
Q 4.984375 7.765625 4.984375 15.578125 
Q 4.984375 23.640625 10.796875 28.078125 
Q 16.609375 32.515625 27.203125 32.515625 
L 39.796875 32.515625 
L 39.796875 36.078125 
Q 39.796875 42 36.203125 45.234375 
Q 32.625 48.484375 26.125 48.484375 
Q 20.75 48.484375 17.578125 46.046875 
Q 14.40625 43.609375 13.625 38.8125 
L 8.984375 38.8125 
L 8.984375 49.3125 
Q 13.671875 51.3125 18.09375 52.3125 
Q 22.515625 53.328125 26.703125 53.328125 
Q 37.5 53.328125 43.140625 47.96875 
Q 48.78125 42.625 48.78125 32.421875 
z
" id="DejaVuSerif-97"/>
      <path d="M 51.8125 41.796875 
Q 54.390625 47.515625 58.421875 50.421875 
Q 62.453125 53.328125 67.828125 53.328125 
Q 75.984375 53.328125 79.984375 48.265625 
Q 83.984375 43.21875 83.984375 33.015625 
L 83.984375 5.171875 
L 92.09375 5.171875 
L 92.09375 0 
L 67.1875 0 
L 67.1875 5.171875 
L 75 5.171875 
L 75 31.984375 
Q 75 39.9375 72.65625 43.3125 
Q 70.3125 46.6875 64.890625 46.6875 
Q 58.890625 46.6875 55.734375 42.140625 
Q 52.59375 37.59375 52.59375 28.90625 
L 52.59375 5.171875 
L 60.40625 5.171875 
L 60.40625 0 
L 35.796875 0 
L 35.796875 5.171875 
L 43.609375 5.171875 
L 43.609375 32.328125 
Q 43.609375 40.09375 41.265625 43.390625 
Q 38.921875 46.6875 33.5 46.6875 
Q 27.484375 46.6875 24.328125 42.140625 
Q 21.1875 37.59375 21.1875 28.90625 
L 21.1875 5.171875 
L 29 5.171875 
L 29 0 
L 4.109375 0 
L 4.109375 5.171875 
L 12.203125 5.171875 
L 12.203125 46.78125 
L 3.609375 46.78125 
L 3.609375 51.90625 
L 21.1875 51.90625 
L 21.1875 42.671875 
Q 23.6875 47.859375 27.53125 50.59375 
Q 31.390625 53.328125 36.28125 53.328125 
Q 42.328125 53.328125 46.375 50.3125 
Q 50.4375 47.3125 51.8125 41.796875 
z
" id="DejaVuSerif-109"/>
     </defs>
     <use xlink:href="#DejaVuSerif-80"/>
     <use x="62.785156" xlink:href="#DejaVuSerif-101"/>
     <use x="121.964844" xlink:href="#DejaVuSerif-114"/>
     <use x="169.767578" xlink:href="#DejaVuSerif-105"/>
     <use x="201.75" xlink:href="#DejaVuSerif-111"/>
     <use x="261.955078" xlink:href="#DejaVuSerif-100"/>
     <use x="325.96875" xlink:href="#DejaVuSerif-111"/>
     <use x="386.173828" xlink:href="#DejaVuSerif-103"/>
     <use x="450.1875" xlink:href="#DejaVuSerif-114"/>
     <use x="497.990234" xlink:href="#DejaVuSerif-97"/>
     <use x="557.609375" xlink:href="#DejaVuSerif-109"/>
    </g>
   </g>
   <g id="legend_1">
    <g id="patch_7">
     <path d="M 419.648125 108.123071 
L 454.431875 108.123071 
Q 455.231875 108.123071 455.231875 107.323071 
L 455.231875 84.238071 
Q 455.231875 83.438071 454.431875 83.438071 
L 419.648125 83.438071 
Q 418.848125 83.438071 418.848125 84.238071 
L 418.848125 107.323071 
Q 418.848125 108.123071 419.648125 108.123071 
z
" style="fill:#ffffff;opacity:0.8;stroke:#cccccc;stroke-linejoin:miter;"/>
    </g>
    <g id="line2d_28">
     <path d="M 420.448125 86.677446 
L 428.448125 86.677446 
" style="fill:none;stroke:#808080;stroke-dasharray:5.55,2.4;stroke-dashoffset:0;stroke-width:1.5;"/>
    </g>
    <g id="text_10">
     <!-- 99.9% FAP -->
     <g transform="translate(431.648125 88.077446)scale(0.04 -0.04)">
      <defs>
       <path d="M 46.78125 32.671875 
Q 43.5 29 39.25 27.1875 
Q 35.015625 25.390625 29.6875 25.390625 
Q 18.84375 25.390625 12.5625 31.9375 
Q 6.296875 38.484375 6.296875 49.8125 
Q 6.296875 60.890625 13.109375 67.546875 
Q 19.921875 74.21875 31.296875 74.21875 
Q 43.65625 74.21875 50.265625 65.015625 
Q 56.890625 55.8125 56.890625 38.71875 
Q 56.890625 19.578125 49.015625 9.078125 
Q 41.15625 -1.421875 26.90625 -1.421875 
Q 23.046875 -1.421875 18.796875 -0.6875 
Q 14.546875 0.046875 10.109375 1.515625 
L 10.109375 13.625 
L 15.578125 13.625 
Q 16.21875 8.6875 19.390625 6.046875 
Q 22.5625 3.421875 27.875 3.421875 
Q 37.359375 3.421875 41.984375 10.5625 
Q 46.625 17.71875 46.78125 32.671875 
z
M 30.90625 69.390625 
Q 23.96875 69.390625 20.28125 64.328125 
Q 16.609375 59.28125 16.609375 49.8125 
Q 16.609375 40.328125 20.28125 35.25 
Q 23.96875 30.171875 30.90625 30.171875 
Q 37.84375 30.171875 41.53125 35.078125 
Q 45.21875 39.984375 45.21875 49.21875 
Q 45.21875 58.9375 41.5 64.15625 
Q 37.796875 69.390625 30.90625 69.390625 
z
" id="DejaVuSerif-57"/>
       <path d="M 22.40625 69.671875 
Q 18.109375 69.671875 15.6875 65.625 
Q 13.28125 61.578125 13.28125 54.296875 
Q 13.28125 47.125 15.75 43.015625 
Q 18.21875 38.921875 22.40625 38.921875 
Q 26.5625 38.921875 28.96875 43 
Q 31.390625 47.078125 31.390625 54.296875 
Q 31.390625 61.53125 28.96875 65.59375 
Q 26.5625 69.671875 22.40625 69.671875 
z
M 72.703125 33.890625 
Q 68.453125 33.890625 66.03125 29.78125 
Q 63.625 25.6875 63.625 18.40625 
Q 63.625 11.234375 66.0625 7.15625 
Q 68.5 3.078125 72.703125 3.078125 
Q 76.90625 3.078125 79.296875 7.15625 
Q 81.6875 11.234375 81.6875 18.40625 
Q 81.6875 25.640625 79.265625 29.765625 
Q 76.859375 33.890625 72.703125 33.890625 
z
M 72.703125 38.28125 
Q 80.421875 38.28125 84.953125 32.90625 
Q 89.5 27.546875 89.5 18.40625 
Q 89.5 9.28125 84.9375 3.921875 
Q 80.375 -1.421875 72.703125 -1.421875 
Q 64.890625 -1.421875 60.34375 3.921875 
Q 55.8125 9.28125 55.8125 18.40625 
Q 55.8125 27.59375 60.375 32.9375 
Q 64.9375 38.28125 72.703125 38.28125 
z
M 66.609375 74.21875 
L 74.03125 74.21875 
L 28.421875 -1.421875 
L 21 -1.421875 
z
M 22.3125 74.21875 
Q 30.03125 74.21875 34.609375 68.875 
Q 39.203125 63.53125 39.203125 54.390625 
Q 39.203125 45.171875 34.640625 39.84375 
Q 30.078125 34.515625 22.3125 34.515625 
Q 14.546875 34.515625 10.03125 39.859375 
Q 5.515625 45.21875 5.515625 54.390625 
Q 5.515625 63.484375 10.046875 68.84375 
Q 14.59375 74.21875 22.3125 74.21875 
z
" id="DejaVuSerif-37"/>
       <path d="M 5.515625 0 
L 5.515625 5.171875 
L 14.796875 5.171875 
L 14.796875 67.671875 
L 5.515625 67.671875 
L 5.515625 72.90625 
L 65.1875 72.90625 
L 65.1875 56.6875 
L 59.1875 56.6875 
L 59.1875 66.890625 
L 24.703125 66.890625 
L 24.703125 42.484375 
L 49.609375 42.484375 
L 49.609375 51.609375 
L 55.609375 51.609375 
L 55.609375 27.390625 
L 49.609375 27.390625 
L 49.609375 36.53125 
L 24.703125 36.53125 
L 24.703125 5.171875 
L 36.375 5.171875 
L 36.375 0 
z
" id="DejaVuSerif-70"/>
       <path d="M 20.015625 26.421875 
L 46.78125 26.421875 
L 33.40625 61.078125 
z
M -0.59375 0 
L -0.59375 5.171875 
L 5.8125 5.171875 
L 31.78125 72.90625 
L 39.984375 72.90625 
L 66.015625 5.171875 
L 73.1875 5.171875 
L 73.1875 0 
L 46.6875 0 
L 46.6875 5.171875 
L 54.78125 5.171875 
L 48.6875 21.1875 
L 18.015625 21.1875 
L 11.921875 5.171875 
L 19.921875 5.171875 
L 19.921875 0 
z
" id="DejaVuSerif-65"/>
      </defs>
      <use xlink:href="#DejaVuSerif-57"/>
      <use x="63.623047" xlink:href="#DejaVuSerif-57"/>
      <use x="127.246094" xlink:href="#DejaVuSerif-46"/>
      <use x="159.033203" xlink:href="#DejaVuSerif-57"/>
      <use x="222.65625" xlink:href="#DejaVuSerif-37"/>
      <use x="317.675781" xlink:href="#DejaVuSerif-32"/>
      <use x="349.462891" xlink:href="#DejaVuSerif-70"/>
      <use x="410.097656" xlink:href="#DejaVuSerif-65"/>
      <use x="482.314453" xlink:href="#DejaVuSerif-80"/>
     </g>
    </g>
    <g id="line2d_29">
     <path d="M 420.448125 92.548696 
L 428.448125 92.548696 
" style="fill:none;stroke:#a9a9a9;stroke-dasharray:5.55,2.4;stroke-dashoffset:0;stroke-width:1.5;"/>
    </g>
    <g id="text_11">
     <!-- 99.0% FAP -->
     <g transform="translate(431.648125 93.948696)scale(0.04 -0.04)">
      <use xlink:href="#DejaVuSerif-57"/>
      <use x="63.623047" xlink:href="#DejaVuSerif-57"/>
      <use x="127.246094" xlink:href="#DejaVuSerif-46"/>
      <use x="159.033203" xlink:href="#DejaVuSerif-48"/>
      <use x="222.65625" xlink:href="#DejaVuSerif-37"/>
      <use x="317.675781" xlink:href="#DejaVuSerif-32"/>
      <use x="349.462891" xlink:href="#DejaVuSerif-70"/>
      <use x="410.097656" xlink:href="#DejaVuSerif-65"/>
      <use x="482.314453" xlink:href="#DejaVuSerif-80"/>
     </g>
    </g>
    <g id="line2d_30">
     <path d="M 420.448125 98.419946 
L 428.448125 98.419946 
" style="fill:none;stroke:#c0c0c0;stroke-dasharray:5.55,2.4;stroke-dashoffset:0;stroke-width:1.5;"/>
    </g>
    <g id="text_12">
     <!-- 95.0% FAP -->
     <g transform="translate(431.648125 99.819946)scale(0.04 -0.04)">
      <defs>
       <path d="M 50.296875 72.90625 
L 50.296875 64.890625 
L 16.890625 64.890625 
L 16.890625 44 
Q 19.4375 45.75 22.828125 46.625 
Q 26.21875 47.515625 30.421875 47.515625 
Q 42.234375 47.515625 49.0625 40.96875 
Q 55.90625 34.421875 55.90625 23.09375 
Q 55.90625 11.53125 49 5.046875 
Q 42.09375 -1.421875 29.59375 -1.421875 
Q 24.5625 -1.421875 19.28125 -0.1875 
Q 14.015625 1.03125 8.5 3.515625 
L 8.5 17.671875 
L 14.015625 17.671875 
Q 14.453125 10.75 18.421875 7.078125 
Q 22.40625 3.421875 29.59375 3.421875 
Q 37.3125 3.421875 41.453125 8.5 
Q 45.609375 13.578125 45.609375 23.09375 
Q 45.609375 32.5625 41.484375 37.609375 
Q 37.359375 42.671875 29.59375 42.671875 
Q 25.203125 42.671875 21.84375 41.109375 
Q 18.5 39.546875 15.921875 36.28125 
L 11.71875 36.28125 
L 11.71875 72.90625 
z
" id="DejaVuSerif-53"/>
      </defs>
      <use xlink:href="#DejaVuSerif-57"/>
      <use x="63.623047" xlink:href="#DejaVuSerif-53"/>
      <use x="127.246094" xlink:href="#DejaVuSerif-46"/>
      <use x="159.033203" xlink:href="#DejaVuSerif-48"/>
      <use x="222.65625" xlink:href="#DejaVuSerif-37"/>
      <use x="317.675781" xlink:href="#DejaVuSerif-32"/>
      <use x="349.462891" xlink:href="#DejaVuSerif-70"/>
      <use x="410.097656" xlink:href="#DejaVuSerif-65"/>
      <use x="482.314453" xlink:href="#DejaVuSerif-80"/>
     </g>
    </g>
    <g id="line2d_31">
     <path d="M 420.448125 104.291196 
L 428.448125 104.291196 
" style="fill:none;stroke:#d3d3d3;stroke-dasharray:5.55,2.4;stroke-dashoffset:0;stroke-width:1.5;"/>
    </g>
    <g id="text_13">
     <!-- 90.0% FAP -->
     <g transform="translate(431.648125 105.691196)scale(0.04 -0.04)">
      <use xlink:href="#DejaVuSerif-57"/>
      <use x="63.623047" xlink:href="#DejaVuSerif-48"/>
      <use x="127.246094" xlink:href="#DejaVuSerif-46"/>
      <use x="159.033203" xlink:href="#DejaVuSerif-48"/>
      <use x="222.65625" xlink:href="#DejaVuSerif-37"/>
      <use x="317.675781" xlink:href="#DejaVuSerif-32"/>
      <use x="349.462891" xlink:href="#DejaVuSerif-70"/>
      <use x="410.097656" xlink:href="#DejaVuSerif-65"/>
      <use x="482.314453" xlink:href="#DejaVuSerif-80"/>
     </g>
    </g>
   </g>
  </g>
  <g id="axes_2">
   <g id="patch_8">
    <path d="M 57.6 150.089143 
L 206.4 150.089143 
L 206.4 41.472 
L 57.6 41.472 
z
" style="fill:#ffffff;"/>
   </g>
   <g id="PathCollection_1">
    <defs>
     <path d="M 0 0.707107 
C 0.187527 0.707107 0.367398 0.632602 0.5 0.5 
C 0.632602 0.367398 0.707107 0.187527 0.707107 0 
C 0.707107 -0.187527 0.632602 -0.367398 0.5 -0.5 
C 0.367398 -0.632602 0.187527 -0.707107 0 -0.707107 
C -0.187527 -0.707107 -0.367398 -0.632602 -0.5 -0.5 
C -0.632602 -0.367398 -0.707107 -0.187527 -0.707107 0 
C -0.707107 0.187527 -0.632602 0.367398 -0.5 0.5 
C -0.367398 0.632602 -0.187527 0.707107 0 0.707107 
z
" id="m2425a46d27" style="stroke:#1f77b4;"/>
    </defs>
    <g clip-path="url(#pc106195e97)">
     <use style="fill:#1f77b4;stroke:#1f77b4;" x="126.33042" xlink:href="#m2425a46d27" y="47.742348"/>
     <use style="fill:#1f77b4;stroke:#1f77b4;" x="126.343685" xlink:href="#m2425a46d27" y="59.509069"/>
     <use style="fill:#1f77b4;stroke:#1f77b4;" x="77.365897" xlink:href="#m2425a46d27" y="72.889725"/>
     <use style="fill:#1f77b4;stroke:#1f77b4;" x="77.379162" xlink:href="#m2425a46d27" y="76.531195"/>
     <use style="fill:#1f77b4;stroke:#1f77b4;" x="67.798902" xlink:href="#m2425a46d27" y="46.409143"/>
     <use style="fill:#1f77b4;stroke:#1f77b4;" x="83.459033" xlink:href="#m2425a46d27" y="84.690962"/>
     <use style="fill:#1f77b4;stroke:#1f77b4;" x="83.551214" xlink:href="#m2425a46d27" y="83.801423"/>
     <use style="fill:#1f77b4;stroke:#1f77b4;" x="64.363636" xlink:href="#m2425a46d27" y="47.424071"/>
     <use style="fill:#1f77b4;stroke:#1f77b4;" x="92.983314" xlink:href="#m2425a46d27" y="91.705962"/>
     <use style="fill:#1f77b4;stroke:#1f77b4;" x="92.996247" xlink:href="#m2425a46d27" y="103.605551"/>
     <use style="fill:#1f77b4;stroke:#1f77b4;" x="81.508652" xlink:href="#m2425a46d27" y="92.416073"/>
     <use style="fill:#1f77b4;stroke:#1f77b4;" x="81.521914" xlink:href="#m2425a46d27" y="96.274517"/>
     <use style="fill:#1f77b4;stroke:#1f77b4;" x="68.526222" xlink:href="#m2425a46d27" y="68.216797"/>
     <use style="fill:#1f77b4;stroke:#1f77b4;" x="68.539487" xlink:href="#m2425a46d27" y="65.843948"/>
     <use style="fill:#1f77b4;stroke:#1f77b4;" x="96.894881" xlink:href="#m2425a46d27" y="103.626567"/>
     <use style="fill:#1f77b4;stroke:#1f77b4;" x="96.908143" xlink:href="#m2425a46d27" y="101.622292"/>
     <use style="fill:#1f77b4;stroke:#1f77b4;" x="127.075045" xlink:href="#m2425a46d27" y="57.801307"/>
     <use style="fill:#1f77b4;stroke:#1f77b4;" x="127.087977" xlink:href="#m2425a46d27" y="61.033665"/>
     <use style="fill:#1f77b4;stroke:#1f77b4;" x="85.116144" xlink:href="#m2425a46d27" y="98.267535"/>
     <use style="fill:#1f77b4;stroke:#1f77b4;" x="85.129408" xlink:href="#m2425a46d27" y="108.340741"/>
     <use style="fill:#1f77b4;stroke:#1f77b4;" x="113.738804" xlink:href="#m2425a46d27" y="71.231474"/>
     <use style="fill:#1f77b4;stroke:#1f77b4;" x="113.751736" xlink:href="#m2425a46d27" y="80.77923"/>
     <use style="fill:#1f77b4;stroke:#1f77b4;" x="94.302796" xlink:href="#m2425a46d27" y="106.675012"/>
     <use style="fill:#1f77b4;stroke:#1f77b4;" x="85.092664" xlink:href="#m2425a46d27" y="106.241145"/>
     <use style="fill:#1f77b4;stroke:#1f77b4;" x="113.612199" xlink:href="#m2425a46d27" y="87.517238"/>
     <use style="fill:#1f77b4;stroke:#1f77b4;" x="72.895123" xlink:href="#m2425a46d27" y="70.527345"/>
     <use style="fill:#1f77b4;stroke:#1f77b4;" x="101.49225" xlink:href="#m2425a46d27" y="92.777918"/>
     <use style="fill:#1f77b4;stroke:#1f77b4;" x="130.262803" xlink:href="#m2425a46d27" y="60.643326"/>
     <use style="fill:#1f77b4;stroke:#1f77b4;" x="127.623303" xlink:href="#m2425a46d27" y="66.81456"/>
     <use style="fill:#1f77b4;stroke:#1f77b4;" x="102.220233" xlink:href="#m2425a46d27" y="99.26066"/>
     <use style="fill:#1f77b4;stroke:#1f77b4;" x="65.676618" xlink:href="#m2425a46d27" y="84.597135"/>
     <use style="fill:#1f77b4;stroke:#1f77b4;" x="94.855034" xlink:href="#m2425a46d27" y="116.938901"/>
     <use style="fill:#1f77b4;stroke:#1f77b4;" x="86.693073" xlink:href="#m2425a46d27" y="130.276029"/>
     <use style="fill:#1f77b4;stroke:#1f77b4;" x="103.817527" xlink:href="#m2425a46d27" y="123.104113"/>
     <use style="fill:#1f77b4;stroke:#1f77b4;" x="64.593822" xlink:href="#m2425a46d27" y="89.741438"/>
     <use style="fill:#1f77b4;stroke:#1f77b4;" x="109.819003" xlink:href="#m2425a46d27" y="100.061646"/>
     <use style="fill:#1f77b4;stroke:#1f77b4;" x="118.610064" xlink:href="#m2425a46d27" y="87.314552"/>
     <use style="fill:#1f77b4;stroke:#1f77b4;" x="123.946814" xlink:href="#m2425a46d27" y="85.173631"/>
     <use style="fill:#1f77b4;stroke:#1f77b4;" x="64.626098" xlink:href="#m2425a46d27" y="87.197426"/>
     <use style="fill:#1f77b4;stroke:#1f77b4;" x="109.823823" xlink:href="#m2425a46d27" y="119.893519"/>
     <use style="fill:#1f77b4;stroke:#1f77b4;" x="109.836756" xlink:href="#m2425a46d27" y="111.456013"/>
     <use style="fill:#1f77b4;stroke:#1f77b4;" x="68.368615" xlink:href="#m2425a46d27" y="94.135878"/>
     <use style="fill:#1f77b4;stroke:#1f77b4;" x="68.381548" xlink:href="#m2425a46d27" y="101.023993"/>
     <use style="fill:#1f77b4;stroke:#1f77b4;" x="95.782942" xlink:href="#m2425a46d27" y="145.152"/>
     <use style="fill:#1f77b4;stroke:#1f77b4;" x="95.795874" xlink:href="#m2425a46d27" y="138.961993"/>
    </g>
   </g>
   <g id="PathCollection_2">
    <g clip-path="url(#pc106195e97)">
     <use style="fill:#1f77b4;stroke:#1f77b4;" x="195.70398" xlink:href="#m2425a46d27" y="47.742348"/>
     <use style="fill:#1f77b4;stroke:#1f77b4;" x="195.717245" xlink:href="#m2425a46d27" y="59.509069"/>
     <use style="fill:#1f77b4;stroke:#1f77b4;" x="146.739457" xlink:href="#m2425a46d27" y="72.889725"/>
     <use style="fill:#1f77b4;stroke:#1f77b4;" x="146.752722" xlink:href="#m2425a46d27" y="76.531195"/>
     <use style="fill:#1f77b4;stroke:#1f77b4;" x="137.172462" xlink:href="#m2425a46d27" y="46.409143"/>
     <use style="fill:#1f77b4;stroke:#1f77b4;" x="152.832593" xlink:href="#m2425a46d27" y="84.690962"/>
     <use style="fill:#1f77b4;stroke:#1f77b4;" x="152.924774" xlink:href="#m2425a46d27" y="83.801423"/>
     <use style="fill:#1f77b4;stroke:#1f77b4;" x="133.737197" xlink:href="#m2425a46d27" y="47.424071"/>
     <use style="fill:#1f77b4;stroke:#1f77b4;" x="162.356874" xlink:href="#m2425a46d27" y="91.705962"/>
     <use style="fill:#1f77b4;stroke:#1f77b4;" x="162.369807" xlink:href="#m2425a46d27" y="103.605551"/>
     <use style="fill:#1f77b4;stroke:#1f77b4;" x="150.882212" xlink:href="#m2425a46d27" y="92.416073"/>
     <use style="fill:#1f77b4;stroke:#1f77b4;" x="150.895474" xlink:href="#m2425a46d27" y="96.274517"/>
     <use style="fill:#1f77b4;stroke:#1f77b4;" x="137.899782" xlink:href="#m2425a46d27" y="68.216797"/>
     <use style="fill:#1f77b4;stroke:#1f77b4;" x="137.913047" xlink:href="#m2425a46d27" y="65.843948"/>
     <use style="fill:#1f77b4;stroke:#1f77b4;" x="166.268441" xlink:href="#m2425a46d27" y="103.626567"/>
     <use style="fill:#1f77b4;stroke:#1f77b4;" x="166.281703" xlink:href="#m2425a46d27" y="101.622292"/>
     <use style="fill:#1f77b4;stroke:#1f77b4;" x="196.448605" xlink:href="#m2425a46d27" y="57.801307"/>
     <use style="fill:#1f77b4;stroke:#1f77b4;" x="196.461537" xlink:href="#m2425a46d27" y="61.033665"/>
     <use style="fill:#1f77b4;stroke:#1f77b4;" x="154.489704" xlink:href="#m2425a46d27" y="98.267535"/>
     <use style="fill:#1f77b4;stroke:#1f77b4;" x="154.502969" xlink:href="#m2425a46d27" y="108.340741"/>
     <use style="fill:#1f77b4;stroke:#1f77b4;" x="183.112364" xlink:href="#m2425a46d27" y="71.231474"/>
     <use style="fill:#1f77b4;stroke:#1f77b4;" x="183.125296" xlink:href="#m2425a46d27" y="80.77923"/>
     <use style="fill:#1f77b4;stroke:#1f77b4;" x="163.676356" xlink:href="#m2425a46d27" y="106.675012"/>
     <use style="fill:#1f77b4;stroke:#1f77b4;" x="154.466224" xlink:href="#m2425a46d27" y="106.241145"/>
     <use style="fill:#1f77b4;stroke:#1f77b4;" x="182.985759" xlink:href="#m2425a46d27" y="87.517238"/>
     <use style="fill:#1f77b4;stroke:#1f77b4;" x="142.268683" xlink:href="#m2425a46d27" y="70.527345"/>
     <use style="fill:#1f77b4;stroke:#1f77b4;" x="170.86581" xlink:href="#m2425a46d27" y="92.777918"/>
     <use style="fill:#1f77b4;stroke:#1f77b4;" x="199.636364" xlink:href="#m2425a46d27" y="60.643326"/>
     <use style="fill:#1f77b4;stroke:#1f77b4;" x="196.996863" xlink:href="#m2425a46d27" y="66.81456"/>
     <use style="fill:#1f77b4;stroke:#1f77b4;" x="171.593793" xlink:href="#m2425a46d27" y="99.26066"/>
     <use style="fill:#1f77b4;stroke:#1f77b4;" x="135.050178" xlink:href="#m2425a46d27" y="84.597135"/>
     <use style="fill:#1f77b4;stroke:#1f77b4;" x="164.228594" xlink:href="#m2425a46d27" y="116.938901"/>
     <use style="fill:#1f77b4;stroke:#1f77b4;" x="156.066634" xlink:href="#m2425a46d27" y="130.276029"/>
     <use style="fill:#1f77b4;stroke:#1f77b4;" x="173.191087" xlink:href="#m2425a46d27" y="123.104113"/>
     <use style="fill:#1f77b4;stroke:#1f77b4;" x="133.967382" xlink:href="#m2425a46d27" y="89.741438"/>
     <use style="fill:#1f77b4;stroke:#1f77b4;" x="179.192564" xlink:href="#m2425a46d27" y="100.061646"/>
     <use style="fill:#1f77b4;stroke:#1f77b4;" x="187.983625" xlink:href="#m2425a46d27" y="87.314552"/>
     <use style="fill:#1f77b4;stroke:#1f77b4;" x="193.320374" xlink:href="#m2425a46d27" y="85.173631"/>
     <use style="fill:#1f77b4;stroke:#1f77b4;" x="133.999658" xlink:href="#m2425a46d27" y="87.197426"/>
     <use style="fill:#1f77b4;stroke:#1f77b4;" x="179.197383" xlink:href="#m2425a46d27" y="119.893519"/>
     <use style="fill:#1f77b4;stroke:#1f77b4;" x="179.210316" xlink:href="#m2425a46d27" y="111.456013"/>
     <use style="fill:#1f77b4;stroke:#1f77b4;" x="137.742175" xlink:href="#m2425a46d27" y="94.135878"/>
     <use style="fill:#1f77b4;stroke:#1f77b4;" x="137.755108" xlink:href="#m2425a46d27" y="101.023993"/>
     <use style="fill:#1f77b4;stroke:#1f77b4;" x="165.156502" xlink:href="#m2425a46d27" y="145.152"/>
     <use style="fill:#1f77b4;stroke:#1f77b4;" x="165.169435" xlink:href="#m2425a46d27" y="138.961993"/>
    </g>
   </g>
   <g id="matplotlib.axis_3">
    <g id="xtick_23">
     <g id="line2d_32">
      <g>
       <use style="stroke:#000000;stroke-width:0.8;" x="64.035641" xlink:href="#m5146f12768" y="150.089143"/>
      </g>
     </g>
     <g id="text_14">
      <!-- 0 -->
      <g transform="translate(60.854391 164.68758)scale(0.1 -0.1)">
       <use xlink:href="#DejaVuSerif-48"/>
      </g>
     </g>
    </g>
    <g id="xtick_24">
     <g id="line2d_33">
      <g>
       <use style="stroke:#000000;stroke-width:0.8;" x="133.409201" xlink:href="#m5146f12768" y="150.089143"/>
      </g>
     </g>
     <g id="text_15">
      <!-- 1 -->
      <g transform="translate(130.227951 164.68758)scale(0.1 -0.1)">
       <use xlink:href="#DejaVuSerif-49"/>
      </g>
     </g>
    </g>
    <g id="xtick_25">
     <g id="line2d_34">
      <g>
       <use style="stroke:#000000;stroke-width:0.8;" x="202.782761" xlink:href="#m5146f12768" y="150.089143"/>
      </g>
     </g>
     <g id="text_16">
      <!-- 2 -->
      <g transform="translate(199.601511 164.68758)scale(0.1 -0.1)">
       <use xlink:href="#DejaVuSerif-50"/>
      </g>
     </g>
    </g>
    <g id="text_17">
     <!-- Phase (P = 2.421 d) -->
     <g transform="translate(81.582812 178.365705)scale(0.1 -0.1)">
      <defs>
       <path d="M 4.109375 0 
L 4.109375 5.171875 
L 12.203125 5.171875 
L 12.203125 70.796875 
L 3.609375 70.796875 
L 3.609375 75.984375 
L 21.1875 75.984375 
L 21.1875 42.671875 
Q 23.6875 47.953125 27.65625 50.640625 
Q 31.640625 53.328125 36.921875 53.328125 
Q 45.515625 53.328125 49.5625 48.390625 
Q 53.609375 43.453125 53.609375 33.015625 
L 53.609375 5.171875 
L 61.625 5.171875 
L 61.625 0 
L 36.8125 0 
L 36.8125 5.171875 
L 44.578125 5.171875 
L 44.578125 30.171875 
Q 44.578125 39.703125 42.25 43.1875 
Q 39.9375 46.6875 33.984375 46.6875 
Q 27.734375 46.6875 24.453125 42.140625 
Q 21.1875 37.59375 21.1875 28.90625 
L 21.1875 5.171875 
L 29 5.171875 
L 29 0 
z
" id="DejaVuSerif-104"/>
       <path d="M 5.609375 2.875 
L 5.609375 14.984375 
L 10.796875 14.984375 
Q 10.984375 9.1875 14.421875 6.296875 
Q 17.875 3.421875 24.609375 3.421875 
Q 30.671875 3.421875 33.84375 5.6875 
Q 37.015625 7.953125 37.015625 12.3125 
Q 37.015625 15.71875 34.6875 17.8125 
Q 32.375 19.921875 24.90625 22.3125 
L 18.40625 24.515625 
Q 11.71875 26.65625 8.71875 29.875 
Q 5.71875 33.109375 5.71875 38.09375 
Q 5.71875 45.21875 10.9375 49.265625 
Q 16.15625 53.328125 25.390625 53.328125 
Q 29.5 53.328125 34.03125 52.25 
Q 38.578125 51.171875 43.40625 49.125 
L 43.40625 37.796875 
L 38.234375 37.796875 
Q 38.03125 42.828125 34.703125 45.65625 
Q 31.390625 48.484375 25.6875 48.484375 
Q 20.015625 48.484375 17.109375 46.484375 
Q 14.203125 44.484375 14.203125 40.484375 
Q 14.203125 37.203125 16.40625 35.21875 
Q 18.609375 33.25 25.203125 31.203125 
L 32.328125 29 
Q 39.703125 26.703125 42.9375 23.265625 
Q 46.1875 19.828125 46.1875 14.40625 
Q 46.1875 7.03125 40.546875 2.796875 
Q 34.90625 -1.421875 25 -1.421875 
Q 19.96875 -1.421875 15.1875 -0.34375 
Q 10.40625 0.734375 5.609375 2.875 
z
" id="DejaVuSerif-115"/>
       <path d="M 31.890625 -15.578125 
Q 20.015625 -10.25 13.953125 1.296875 
Q 7.90625 12.84375 7.90625 30.171875 
Q 7.90625 47.5625 13.953125 59.109375 
Q 20.015625 70.65625 31.890625 75.984375 
L 31.890625 71.1875 
Q 24.359375 66.015625 21.09375 56.609375 
Q 17.828125 47.21875 17.828125 30.171875 
Q 17.828125 13.1875 21.09375 3.78125 
Q 24.359375 -5.609375 31.890625 -10.796875 
z
" id="DejaVuSerif-40"/>
       <path d="M 10.59375 45.21875 
L 73.1875 45.21875 
L 73.1875 37.40625 
L 10.59375 37.40625 
z
M 10.59375 25.296875 
L 73.1875 25.296875 
L 73.1875 17.484375 
L 10.59375 17.484375 
z
" id="DejaVuSerif-61"/>
       <path d="M 7.078125 -15.578125 
L 7.078125 -10.796875 
Q 14.59375 -5.609375 17.890625 3.78125 
Q 21.1875 13.1875 21.1875 30.171875 
Q 21.1875 47.21875 17.890625 56.609375 
Q 14.59375 66.015625 7.078125 71.1875 
L 7.078125 75.984375 
Q 19 70.65625 25.046875 59.109375 
Q 31.109375 47.5625 31.109375 30.171875 
Q 31.109375 12.84375 25.046875 1.296875 
Q 19 -10.25 7.078125 -15.578125 
z
" id="DejaVuSerif-41"/>
      </defs>
      <use xlink:href="#DejaVuSerif-80"/>
      <use x="67.285156" xlink:href="#DejaVuSerif-104"/>
      <use x="131.689453" xlink:href="#DejaVuSerif-97"/>
      <use x="191.308594" xlink:href="#DejaVuSerif-115"/>
      <use x="242.626953" xlink:href="#DejaVuSerif-101"/>
      <use x="301.806641" xlink:href="#DejaVuSerif-32"/>
      <use x="333.59375" xlink:href="#DejaVuSerif-40"/>
      <use x="372.607422" xlink:href="#DejaVuSerif-80"/>
      <use x="439.892578" xlink:href="#DejaVuSerif-32"/>
      <use x="471.679688" xlink:href="#DejaVuSerif-61"/>
      <use x="555.46875" xlink:href="#DejaVuSerif-32"/>
      <use x="587.255859" xlink:href="#DejaVuSerif-50"/>
      <use x="650.878906" xlink:href="#DejaVuSerif-46"/>
      <use x="682.666016" xlink:href="#DejaVuSerif-52"/>
      <use x="746.289062" xlink:href="#DejaVuSerif-50"/>
      <use x="809.912109" xlink:href="#DejaVuSerif-49"/>
      <use x="873.535156" xlink:href="#DejaVuSerif-32"/>
      <use x="905.322266" xlink:href="#DejaVuSerif-100"/>
      <use x="969.335938" xlink:href="#DejaVuSerif-41"/>
     </g>
    </g>
   </g>
   <g id="matplotlib.axis_4">
    <g id="ytick_5">
     <g id="line2d_35">
      <g>
       <use style="stroke:#000000;stroke-width:0.8;" x="57.6" xlink:href="#m76515df886" y="77.023192"/>
      </g>
     </g>
     <g id="text_18">
      <!-- 16.8 -->
      <g transform="translate(28.334375 80.822411)scale(0.1 -0.1)">
       <defs>
        <path d="M 46.578125 19.921875 
Q 46.578125 27.734375 42.6875 32.046875 
Q 38.8125 36.375 31.78125 36.375 
Q 24.75 36.375 20.875 32.046875 
Q 17 27.734375 17 19.921875 
Q 17 12.0625 20.875 7.734375 
Q 24.75 3.421875 31.78125 3.421875 
Q 38.8125 3.421875 42.6875 7.734375 
Q 46.578125 12.0625 46.578125 19.921875 
z
M 44.578125 55.328125 
Q 44.578125 61.96875 41.203125 65.671875 
Q 37.84375 69.390625 31.78125 69.390625 
Q 25.78125 69.390625 22.390625 65.671875 
Q 19 61.96875 19 55.328125 
Q 19 48.640625 22.390625 44.921875 
Q 25.78125 41.21875 31.78125 41.21875 
Q 37.84375 41.21875 41.203125 44.921875 
Q 44.578125 48.640625 44.578125 55.328125 
z
M 39.3125 38.8125 
Q 47.609375 37.703125 52.25 32.6875 
Q 56.890625 27.6875 56.890625 19.921875 
Q 56.890625 9.671875 50.390625 4.125 
Q 43.890625 -1.421875 31.78125 -1.421875 
Q 19.734375 -1.421875 13.203125 4.125 
Q 6.6875 9.671875 6.6875 19.921875 
Q 6.6875 27.6875 11.328125 32.6875 
Q 15.96875 37.703125 24.3125 38.8125 
Q 16.9375 40.140625 13 44.40625 
Q 9.078125 48.6875 9.078125 55.328125 
Q 9.078125 64.109375 15.125 69.15625 
Q 21.1875 74.21875 31.78125 74.21875 
Q 42.390625 74.21875 48.4375 69.15625 
Q 54.5 64.109375 54.5 55.328125 
Q 54.5 48.6875 50.5625 44.40625 
Q 46.625 40.140625 39.3125 38.8125 
z
" id="DejaVuSerif-56"/>
       </defs>
       <use xlink:href="#DejaVuSerif-49"/>
       <use x="63.623047" xlink:href="#DejaVuSerif-54"/>
       <use x="127.246094" xlink:href="#DejaVuSerif-46"/>
       <use x="159.033203" xlink:href="#DejaVuSerif-56"/>
      </g>
     </g>
    </g>
    <g id="ytick_6">
     <g id="line2d_36">
      <g>
       <use style="stroke:#000000;stroke-width:0.8;" x="57.6" xlink:href="#m76515df886" y="116.379801"/>
      </g>
     </g>
     <g id="text_19">
      <!-- 16.9 -->
      <g transform="translate(28.334375 120.179019)scale(0.1 -0.1)">
       <use xlink:href="#DejaVuSerif-49"/>
       <use x="63.623047" xlink:href="#DejaVuSerif-54"/>
       <use x="127.246094" xlink:href="#DejaVuSerif-46"/>
       <use x="159.033203" xlink:href="#DejaVuSerif-57"/>
      </g>
     </g>
    </g>
    <g id="text_20">
     <!-- Mag -->
     <g transform="translate(22.1125 107.082134)rotate(-90)scale(0.1 -0.1)">
      <defs>
       <path d="M 5.515625 0 
L 5.515625 5.171875 
L 14.796875 5.171875 
L 14.796875 67.671875 
L 4.984375 67.671875 
L 4.984375 72.90625 
L 26.21875 72.90625 
L 51.8125 21 
L 77.390625 72.90625 
L 97.3125 72.90625 
L 97.3125 67.671875 
L 87.59375 67.671875 
L 87.59375 5.171875 
L 96.921875 5.171875 
L 96.921875 0 
L 68.40625 0 
L 68.40625 5.171875 
L 77.6875 5.171875 
L 77.6875 61.53125 
L 52.6875 10.6875 
L 45.796875 10.6875 
L 20.796875 61.53125 
L 20.796875 5.171875 
L 30.078125 5.171875 
L 30.078125 0 
z
" id="DejaVuSerif-77"/>
      </defs>
      <use xlink:href="#DejaVuSerif-77"/>
      <use x="102.392578" xlink:href="#DejaVuSerif-97"/>
      <use x="162.011719" xlink:href="#DejaVuSerif-103"/>
     </g>
    </g>
   </g>
   <g id="patch_9">
    <path d="M 57.6 150.089143 
L 57.6 41.472 
" style="fill:none;stroke:#000000;stroke-linecap:square;stroke-linejoin:miter;stroke-width:0.8;"/>
   </g>
   <g id="patch_10">
    <path d="M 206.4 150.089143 
L 206.4 41.472 
" style="fill:none;stroke:#000000;stroke-linecap:square;stroke-linejoin:miter;stroke-width:0.8;"/>
   </g>
   <g id="patch_11">
    <path d="M 57.6 150.089143 
L 206.4 150.089143 
" style="fill:none;stroke:#000000;stroke-linecap:square;stroke-linejoin:miter;stroke-width:0.8;"/>
   </g>
   <g id="patch_12">
    <path d="M 57.6 41.472 
L 206.4 41.472 
" style="fill:none;stroke:#000000;stroke-linecap:square;stroke-linejoin:miter;stroke-width:0.8;"/>
   </g>
   <g id="text_21">
    <!-- Folded Light Curve -->
    <g transform="translate(83.086719 35.472)scale(0.1 -0.1)">
     <defs>
      <path d="M 20.515625 5.171875 
L 29 5.171875 
L 29 0 
L 2.875 0 
L 2.875 5.171875 
L 11.53125 5.171875 
L 11.53125 70.796875 
L 2.875 70.796875 
L 2.875 75.984375 
L 20.515625 75.984375 
z
" id="DejaVuSerif-108"/>
      <path d="M 5.515625 0 
L 5.515625 5.171875 
L 14.796875 5.171875 
L 14.796875 67.671875 
L 5.515625 67.671875 
L 5.515625 72.90625 
L 33.984375 72.90625 
L 33.984375 67.671875 
L 24.703125 67.671875 
L 24.703125 6 
L 58.015625 6 
L 58.015625 18.21875 
L 64.015625 18.21875 
L 64.015625 0 
z
" id="DejaVuSerif-76"/>
      <path d="M 10.796875 46.6875 
L 2.875 46.6875 
L 2.875 51.90625 
L 10.796875 51.90625 
L 10.796875 68.015625 
L 19.828125 68.015625 
L 19.828125 51.90625 
L 36.71875 51.90625 
L 36.71875 46.6875 
L 19.828125 46.6875 
L 19.828125 13.71875 
Q 19.828125 7.125 21.09375 5.265625 
Q 22.359375 3.421875 25.78125 3.421875 
Q 29.296875 3.421875 30.90625 5.484375 
Q 32.515625 7.5625 32.625 12.203125 
L 39.40625 12.203125 
Q 39.015625 5.125 35.546875 1.84375 
Q 32.078125 -1.421875 25 -1.421875 
Q 17.234375 -1.421875 14.015625 2.015625 
Q 10.796875 5.46875 10.796875 13.71875 
z
" id="DejaVuSerif-116"/>
      <path d="M 70.515625 19.28125 
Q 67.28125 9.078125 59.6875 3.828125 
Q 52.09375 -1.421875 40.484375 -1.421875 
Q 33.34375 -1.421875 27.234375 1.015625 
Q 21.140625 3.46875 16.40625 8.203125 
Q 10.9375 13.671875 8.265625 20.625 
Q 5.609375 27.59375 5.609375 36.375 
Q 5.609375 53.375 15.421875 63.796875 
Q 25.25 74.21875 41.3125 74.21875 
Q 47.265625 74.21875 54 72.65625 
Q 60.75 71.09375 68.5 67.921875 
L 68.5 51.125 
L 62.984375 51.125 
Q 61.1875 60.296875 55.734375 64.640625 
Q 50.296875 69 40.484375 69 
Q 28.8125 69 22.796875 60.71875 
Q 16.796875 52.4375 16.796875 36.375 
Q 16.796875 20.359375 22.796875 12.078125 
Q 28.8125 3.8125 40.484375 3.8125 
Q 48.640625 3.8125 53.90625 7.6875 
Q 59.1875 11.578125 61.53125 19.28125 
z
" id="DejaVuSerif-67"/>
      <path d="M 35.40625 51.90625 
L 52.203125 51.90625 
L 52.203125 5.171875 
L 60.6875 5.171875 
L 60.6875 0 
L 43.21875 0 
L 43.21875 9.1875 
Q 40.71875 4 36.765625 1.28125 
Q 32.8125 -1.421875 27.59375 -1.421875 
Q 18.953125 -1.421875 14.875 3.484375 
Q 10.796875 8.40625 10.796875 18.890625 
L 10.796875 46.6875 
L 2.6875 46.6875 
L 2.6875 51.90625 
L 19.828125 51.90625 
L 19.828125 21.6875 
Q 19.828125 12.203125 22.140625 8.6875 
Q 24.46875 5.171875 30.421875 5.171875 
Q 36.671875 5.171875 39.9375 9.765625 
Q 43.21875 14.359375 43.21875 23.09375 
L 43.21875 46.6875 
L 35.40625 46.6875 
z
" id="DejaVuSerif-117"/>
      <path d="M 24.703125 0 
L 5.609375 46.6875 
L -0.296875 46.6875 
L -0.296875 51.90625 
L 23.578125 51.90625 
L 23.578125 46.6875 
L 15.28125 46.6875 
L 29.890625 10.984375 
L 44.484375 46.6875 
L 36.71875 46.6875 
L 36.71875 51.90625 
L 56.203125 51.90625 
L 56.203125 46.6875 
L 50.390625 46.6875 
L 31.296875 0 
z
" id="DejaVuSerif-118"/>
     </defs>
     <use xlink:href="#DejaVuSerif-70"/>
     <use x="63.884766" xlink:href="#DejaVuSerif-111"/>
     <use x="124.089844" xlink:href="#DejaVuSerif-108"/>
     <use x="156.072266" xlink:href="#DejaVuSerif-100"/>
     <use x="220.085938" xlink:href="#DejaVuSerif-101"/>
     <use x="279.265625" xlink:href="#DejaVuSerif-100"/>
     <use x="343.279297" xlink:href="#DejaVuSerif-32"/>
     <use x="375.066406" xlink:href="#DejaVuSerif-76"/>
     <use x="441.472656" xlink:href="#DejaVuSerif-105"/>
     <use x="473.455078" xlink:href="#DejaVuSerif-103"/>
     <use x="537.46875" xlink:href="#DejaVuSerif-104"/>
     <use x="601.873047" xlink:href="#DejaVuSerif-116"/>
     <use x="642.058594" xlink:href="#DejaVuSerif-32"/>
     <use x="673.845703" xlink:href="#DejaVuSerif-67"/>
     <use x="750.359375" xlink:href="#DejaVuSerif-117"/>
     <use x="814.763672" xlink:href="#DejaVuSerif-114"/>
     <use x="862.566406" xlink:href="#DejaVuSerif-118"/>
     <use x="919.060547" xlink:href="#DejaVuSerif-101"/>
    </g>
   </g>
  </g>
  <g id="axes_3">
   <g id="patch_13">
    <path d="M 57.6 307.584 
L 414.72 307.584 
L 414.72 198.966857 
L 57.6 198.966857 
z
" style="fill:#ffffff;"/>
   </g>
   <g id="PathCollection_3">
    <g clip-path="url(#pc078711753)">
     <use style="fill:#1f77b4;stroke:#1f77b4;" x="73.832727" xlink:href="#m2425a46d27" y="211.310794"/>
     <use style="fill:#1f77b4;stroke:#1f77b4;" x="73.833119" xlink:href="#m2425a46d27" y="221.53296"/>
     <use style="fill:#1f77b4;stroke:#1f77b4;" x="94.910293" xlink:href="#m2425a46d27" y="233.15721"/>
     <use style="fill:#1f77b4;stroke:#1f77b4;" x="94.910684" xlink:href="#m2425a46d27" y="236.320683"/>
     <use style="fill:#1f77b4;stroke:#1f77b4;" x="96.675449" xlink:href="#m2425a46d27" y="210.152592"/>
     <use style="fill:#1f77b4;stroke:#1f77b4;" x="99.185169" xlink:href="#m2425a46d27" y="243.409361"/>
     <use style="fill:#1f77b4;stroke:#1f77b4;" x="99.18789" xlink:href="#m2425a46d27" y="242.636588"/>
     <use style="fill:#1f77b4;stroke:#1f77b4;" x="121.144305" xlink:href="#m2425a46d27" y="211.034296"/>
     <use style="fill:#1f77b4;stroke:#1f77b4;" x="121.988998" xlink:href="#m2425a46d27" y="249.50354"/>
     <use style="fill:#1f77b4;stroke:#1f77b4;" x="121.98938" xlink:href="#m2425a46d27" y="259.841133"/>
     <use style="fill:#1f77b4;stroke:#1f77b4;" x="123.69785" xlink:href="#m2425a46d27" y="250.120438"/>
     <use style="fill:#1f77b4;stroke:#1f77b4;" x="123.698242" xlink:href="#m2425a46d27" y="253.472404"/>
     <use style="fill:#1f77b4;stroke:#1f77b4;" x="125.362202" xlink:href="#m2425a46d27" y="229.097672"/>
     <use style="fill:#1f77b4;stroke:#1f77b4;" x="125.362594" xlink:href="#m2425a46d27" y="227.036294"/>
     <use style="fill:#1f77b4;stroke:#1f77b4;" x="126.199487" xlink:href="#m2425a46d27" y="259.859391"/>
     <use style="fill:#1f77b4;stroke:#1f77b4;" x="126.199878" xlink:href="#m2425a46d27" y="258.118206"/>
     <use style="fill:#1f77b4;stroke:#1f77b4;" x="127.090237" xlink:href="#m2425a46d27" y="220.049367"/>
     <use style="fill:#1f77b4;stroke:#1f77b4;" x="127.090618" xlink:href="#m2425a46d27" y="222.857431"/>
     <use style="fill:#1f77b4;stroke:#1f77b4;" x="127.899364" xlink:href="#m2425a46d27" y="255.20381"/>
     <use style="fill:#1f77b4;stroke:#1f77b4;" x="127.899756" xlink:href="#m2425a46d27" y="263.95476"/>
     <use style="fill:#1f77b4;stroke:#1f77b4;" x="128.744146" xlink:href="#m2425a46d27" y="231.716628"/>
     <use style="fill:#1f77b4;stroke:#1f77b4;" x="128.744527" xlink:href="#m2425a46d27" y="240.011101"/>
     <use style="fill:#1f77b4;stroke:#1f77b4;" x="136.360585" xlink:href="#m2425a46d27" y="262.507682"/>
     <use style="fill:#1f77b4;stroke:#1f77b4;" x="142.231315" xlink:href="#m2425a46d27" y="262.130766"/>
     <use style="fill:#1f77b4;stroke:#1f77b4;" x="143.073052" xlink:href="#m2425a46d27" y="245.864647"/>
     <use style="fill:#1f77b4;stroke:#1f77b4;" x="143.918832" xlink:href="#m2425a46d27" y="231.104926"/>
     <use style="fill:#1f77b4;stroke:#1f77b4;" x="144.76286" xlink:href="#m2425a46d27" y="250.434786"/>
     <use style="fill:#1f77b4;stroke:#1f77b4;" x="145.612006" xlink:href="#m2425a46d27" y="222.51833"/>
     <use style="fill:#1f77b4;stroke:#1f77b4;" x="155.771705" xlink:href="#m2425a46d27" y="227.879499"/>
     <use style="fill:#1f77b4;stroke:#1f77b4;" x="163.21203" xlink:href="#m2425a46d27" y="256.066573"/>
     <use style="fill:#1f77b4;stroke:#1f77b4;" x="164.180987" xlink:href="#m2425a46d27" y="243.327851"/>
     <use style="fill:#1f77b4;stroke:#1f77b4;" x="165.042171" xlink:href="#m2425a46d27" y="271.424285"/>
     <use style="fill:#1f77b4;stroke:#1f77b4;" x="170.943837" xlink:href="#m2425a46d27" y="283.01072"/>
     <use style="fill:#1f77b4;stroke:#1f77b4;" x="173.496775" xlink:href="#m2425a46d27" y="276.780223"/>
     <use style="fill:#1f77b4;stroke:#1f77b4;" x="207.146958" xlink:href="#m2425a46d27" y="247.796888"/>
     <use style="fill:#1f77b4;stroke:#1f77b4;" x="210.529274" xlink:href="#m2425a46d27" y="256.762417"/>
     <use style="fill:#1f77b4;stroke:#1f77b4;" x="218.978819" xlink:href="#m2425a46d27" y="245.688566"/>
     <use style="fill:#1f77b4;stroke:#1f77b4;" x="346.082599" xlink:href="#m2425a46d27" y="243.828673"/>
     <use style="fill:#1f77b4;stroke:#1f77b4;" x="379.139631" xlink:href="#m2425a46d27" y="245.586815"/>
     <use style="fill:#1f77b4;stroke:#1f77b4;" x="396.853779" xlink:href="#m2425a46d27" y="273.991067"/>
     <use style="fill:#1f77b4;stroke:#1f77b4;" x="396.854161" xlink:href="#m2425a46d27" y="266.661107"/>
     <use style="fill:#1f77b4;stroke:#1f77b4;" x="397.677773" xlink:href="#m2425a46d27" y="251.614494"/>
     <use style="fill:#1f77b4;stroke:#1f77b4;" x="397.678155" xlink:href="#m2425a46d27" y="257.598443"/>
     <use style="fill:#1f77b4;stroke:#1f77b4;" x="398.486891" xlink:href="#m2425a46d27" y="295.934002"/>
     <use style="fill:#1f77b4;stroke:#1f77b4;" x="398.487273" xlink:href="#m2425a46d27" y="290.556524"/>
    </g>
   </g>
   <g id="matplotlib.axis_5">
    <g id="xtick_26">
     <g id="line2d_37">
      <g>
       <use style="stroke:#000000;stroke-width:0.8;" x="97.996351" xlink:href="#m5146f12768" y="307.584"/>
      </g>
     </g>
     <g id="text_22">
      <!-- 58300 -->
      <g transform="translate(82.090101 322.182437)scale(0.1 -0.1)">
       <defs>
        <path d="M 9.71875 69.828125 
Q 15.4375 71.96875 20.671875 73.09375 
Q 25.921875 74.21875 30.515625 74.21875 
Q 41.21875 74.21875 47.21875 69.59375 
Q 53.21875 64.984375 53.21875 56.78125 
Q 53.21875 50.203125 49.0625 45.78125 
Q 44.921875 41.359375 37.3125 39.796875 
Q 46.296875 38.53125 51.25 33.28125 
Q 56.203125 28.03125 56.203125 19.671875 
Q 56.203125 9.46875 49.34375 4.015625 
Q 42.484375 -1.421875 29.59375 -1.421875 
Q 23.875 -1.421875 18.421875 -0.1875 
Q 12.984375 1.03125 7.625 3.515625 
L 7.625 17.671875 
L 13.09375 17.671875 
Q 13.578125 10.640625 17.828125 7.03125 
Q 22.078125 3.421875 29.78125 3.421875 
Q 37.25 3.421875 41.578125 7.734375 
Q 45.90625 12.0625 45.90625 19.578125 
Q 45.90625 28.171875 41.453125 32.59375 
Q 37.015625 37.015625 28.421875 37.015625 
L 23.78125 37.015625 
L 23.78125 42 
L 26.21875 42 
Q 34.765625 42 39.03125 45.53125 
Q 43.3125 49.078125 43.3125 56.203125 
Q 43.3125 62.59375 39.796875 65.984375 
Q 36.28125 69.390625 29.6875 69.390625 
Q 23.09375 69.390625 19.453125 66.265625 
Q 15.828125 63.140625 15.1875 56.984375 
L 9.71875 56.984375 
z
" id="DejaVuSerif-51"/>
       </defs>
       <use xlink:href="#DejaVuSerif-53"/>
       <use x="63.623047" xlink:href="#DejaVuSerif-56"/>
       <use x="127.246094" xlink:href="#DejaVuSerif-51"/>
       <use x="190.869141" xlink:href="#DejaVuSerif-48"/>
       <use x="254.492188" xlink:href="#DejaVuSerif-48"/>
      </g>
     </g>
    </g>
    <g id="xtick_27">
     <g id="line2d_38">
      <g>
       <use style="stroke:#000000;stroke-width:0.8;" x="140.27554" xlink:href="#m5146f12768" y="307.584"/>
      </g>
     </g>
     <g id="text_23">
      <!-- 58350 -->
      <g transform="translate(124.36929 322.182437)scale(0.1 -0.1)">
       <use xlink:href="#DejaVuSerif-53"/>
       <use x="63.623047" xlink:href="#DejaVuSerif-56"/>
       <use x="127.246094" xlink:href="#DejaVuSerif-51"/>
       <use x="190.869141" xlink:href="#DejaVuSerif-53"/>
       <use x="254.492188" xlink:href="#DejaVuSerif-48"/>
      </g>
     </g>
    </g>
    <g id="xtick_28">
     <g id="line2d_39">
      <g>
       <use style="stroke:#000000;stroke-width:0.8;" x="182.55473" xlink:href="#m5146f12768" y="307.584"/>
      </g>
     </g>
     <g id="text_24">
      <!-- 58400 -->
      <g transform="translate(166.64848 322.182437)scale(0.1 -0.1)">
       <use xlink:href="#DejaVuSerif-53"/>
       <use x="63.623047" xlink:href="#DejaVuSerif-56"/>
       <use x="127.246094" xlink:href="#DejaVuSerif-52"/>
       <use x="190.869141" xlink:href="#DejaVuSerif-48"/>
       <use x="254.492188" xlink:href="#DejaVuSerif-48"/>
      </g>
     </g>
    </g>
    <g id="xtick_29">
     <g id="line2d_40">
      <g>
       <use style="stroke:#000000;stroke-width:0.8;" x="224.833919" xlink:href="#m5146f12768" y="307.584"/>
      </g>
     </g>
     <g id="text_25">
      <!-- 58450 -->
      <g transform="translate(208.927669 322.182437)scale(0.1 -0.1)">
       <use xlink:href="#DejaVuSerif-53"/>
       <use x="63.623047" xlink:href="#DejaVuSerif-56"/>
       <use x="127.246094" xlink:href="#DejaVuSerif-52"/>
       <use x="190.869141" xlink:href="#DejaVuSerif-53"/>
       <use x="254.492188" xlink:href="#DejaVuSerif-48"/>
      </g>
     </g>
    </g>
    <g id="xtick_30">
     <g id="line2d_41">
      <g>
       <use style="stroke:#000000;stroke-width:0.8;" x="267.113108" xlink:href="#m5146f12768" y="307.584"/>
      </g>
     </g>
     <g id="text_26">
      <!-- 58500 -->
      <g transform="translate(251.206858 322.182437)scale(0.1 -0.1)">
       <use xlink:href="#DejaVuSerif-53"/>
       <use x="63.623047" xlink:href="#DejaVuSerif-56"/>
       <use x="127.246094" xlink:href="#DejaVuSerif-53"/>
       <use x="190.869141" xlink:href="#DejaVuSerif-48"/>
       <use x="254.492188" xlink:href="#DejaVuSerif-48"/>
      </g>
     </g>
    </g>
    <g id="xtick_31">
     <g id="line2d_42">
      <g>
       <use style="stroke:#000000;stroke-width:0.8;" x="309.392298" xlink:href="#m5146f12768" y="307.584"/>
      </g>
     </g>
     <g id="text_27">
      <!-- 58550 -->
      <g transform="translate(293.486048 322.182437)scale(0.1 -0.1)">
       <use xlink:href="#DejaVuSerif-53"/>
       <use x="63.623047" xlink:href="#DejaVuSerif-56"/>
       <use x="127.246094" xlink:href="#DejaVuSerif-53"/>
       <use x="190.869141" xlink:href="#DejaVuSerif-53"/>
       <use x="254.492188" xlink:href="#DejaVuSerif-48"/>
      </g>
     </g>
    </g>
    <g id="xtick_32">
     <g id="line2d_43">
      <g>
       <use style="stroke:#000000;stroke-width:0.8;" x="351.671487" xlink:href="#m5146f12768" y="307.584"/>
      </g>
     </g>
     <g id="text_28">
      <!-- 58600 -->
      <g transform="translate(335.765237 322.182437)scale(0.1 -0.1)">
       <use xlink:href="#DejaVuSerif-53"/>
       <use x="63.623047" xlink:href="#DejaVuSerif-56"/>
       <use x="127.246094" xlink:href="#DejaVuSerif-54"/>
       <use x="190.869141" xlink:href="#DejaVuSerif-48"/>
       <use x="254.492188" xlink:href="#DejaVuSerif-48"/>
      </g>
     </g>
    </g>
    <g id="xtick_33">
     <g id="line2d_44">
      <g>
       <use style="stroke:#000000;stroke-width:0.8;" x="393.950677" xlink:href="#m5146f12768" y="307.584"/>
      </g>
     </g>
     <g id="text_29">
      <!-- 58650 -->
      <g transform="translate(378.044427 322.182437)scale(0.1 -0.1)">
       <use xlink:href="#DejaVuSerif-53"/>
       <use x="63.623047" xlink:href="#DejaVuSerif-56"/>
       <use x="127.246094" xlink:href="#DejaVuSerif-54"/>
       <use x="190.869141" xlink:href="#DejaVuSerif-53"/>
       <use x="254.492188" xlink:href="#DejaVuSerif-48"/>
      </g>
     </g>
    </g>
    <g id="text_30">
     <!-- MJD -->
     <g transform="translate(225.027187 335.860562)scale(0.1 -0.1)">
      <defs>
       <path d="M -8.40625 -17.484375 
L -8.40625 -6 
L -2.828125 -6 
Q -2.6875 -10.84375 -0.53125 -13.203125 
Q 1.609375 -15.578125 5.90625 -15.578125 
Q 11.71875 -15.578125 14.015625 -11.90625 
Q 16.3125 -8.25 16.3125 2.390625 
L 16.3125 67.671875 
L 4.984375 67.671875 
L 4.984375 72.90625 
L 35.5 72.90625 
L 35.5 67.671875 
L 26.21875 67.671875 
L 26.21875 2 
Q 26.21875 -10.0625 21.375 -15.421875 
Q 16.546875 -20.796875 5.8125 -20.796875 
Q 2.34375 -20.796875 -1.234375 -19.96875 
Q -4.828125 -19.140625 -8.40625 -17.484375 
z
" id="DejaVuSerif-74"/>
       <path d="M 24.703125 5.171875 
L 33.796875 5.171875 
Q 48 5.171875 55.59375 13.28125 
Q 63.1875 21.390625 63.1875 36.53125 
Q 63.1875 51.65625 55.609375 59.65625 
Q 48.046875 67.671875 33.796875 67.671875 
L 24.703125 67.671875 
z
M 5.515625 0 
L 5.515625 5.171875 
L 14.796875 5.171875 
L 14.796875 67.671875 
L 5.515625 67.671875 
L 5.515625 72.90625 
L 34.515625 72.90625 
Q 53.375 72.90625 63.890625 63.28125 
Q 74.421875 53.65625 74.421875 36.53125 
Q 74.421875 19.34375 63.875 9.671875 
Q 53.328125 0 34.515625 0 
z
" id="DejaVuSerif-68"/>
      </defs>
      <use xlink:href="#DejaVuSerif-77"/>
      <use x="102.392578" xlink:href="#DejaVuSerif-74"/>
      <use x="142.480469" xlink:href="#DejaVuSerif-68"/>
     </g>
    </g>
   </g>
   <g id="matplotlib.axis_6">
    <g id="ytick_7">
     <g id="line2d_45">
      <g>
       <use style="stroke:#000000;stroke-width:0.8;" x="57.6" xlink:href="#m76515df886" y="202.557622"/>
      </g>
     </g>
     <g id="text_31">
      <!-- 16.7 -->
      <g transform="translate(28.334375 206.356841)scale(0.1 -0.1)">
       <defs>
        <path d="M 56.390625 67.921875 
L 27.875 0 
L 20.609375 0 
L 47.796875 64.890625 
L 14.109375 64.890625 
L 14.109375 55.90625 
L 8.40625 55.90625 
L 8.40625 72.90625 
L 56.390625 72.90625 
z
" id="DejaVuSerif-55"/>
       </defs>
       <use xlink:href="#DejaVuSerif-49"/>
       <use x="63.623047" xlink:href="#DejaVuSerif-54"/>
       <use x="127.246094" xlink:href="#DejaVuSerif-46"/>
       <use x="159.033203" xlink:href="#DejaVuSerif-55"/>
      </g>
     </g>
    </g>
    <g id="ytick_8">
     <g id="line2d_46">
      <g>
       <use style="stroke:#000000;stroke-width:0.8;" x="57.6" xlink:href="#m76515df886" y="236.748099"/>
      </g>
     </g>
     <g id="text_32">
      <!-- 16.8 -->
      <g transform="translate(28.334375 240.547317)scale(0.1 -0.1)">
       <use xlink:href="#DejaVuSerif-49"/>
       <use x="63.623047" xlink:href="#DejaVuSerif-54"/>
       <use x="127.246094" xlink:href="#DejaVuSerif-46"/>
       <use x="159.033203" xlink:href="#DejaVuSerif-56"/>
      </g>
     </g>
    </g>
    <g id="ytick_9">
     <g id="line2d_47">
      <g>
       <use style="stroke:#000000;stroke-width:0.8;" x="57.6" xlink:href="#m76515df886" y="270.938575"/>
      </g>
     </g>
     <g id="text_33">
      <!-- 16.9 -->
      <g transform="translate(28.334375 274.737794)scale(0.1 -0.1)">
       <use xlink:href="#DejaVuSerif-49"/>
       <use x="63.623047" xlink:href="#DejaVuSerif-54"/>
       <use x="127.246094" xlink:href="#DejaVuSerif-46"/>
       <use x="159.033203" xlink:href="#DejaVuSerif-57"/>
      </g>
     </g>
    </g>
    <g id="ytick_10">
     <g id="line2d_48">
      <g>
       <use style="stroke:#000000;stroke-width:0.8;" x="57.6" xlink:href="#m76515df886" y="305.129052"/>
      </g>
     </g>
     <g id="text_34">
      <!-- 17.0 -->
      <g transform="translate(28.334375 308.928271)scale(0.1 -0.1)">
       <use xlink:href="#DejaVuSerif-49"/>
       <use x="63.623047" xlink:href="#DejaVuSerif-55"/>
       <use x="127.246094" xlink:href="#DejaVuSerif-46"/>
       <use x="159.033203" xlink:href="#DejaVuSerif-48"/>
      </g>
     </g>
    </g>
    <g id="text_35">
     <!-- Mag -->
     <g transform="translate(22.1125 264.576991)rotate(-90)scale(0.1 -0.1)">
      <use xlink:href="#DejaVuSerif-77"/>
      <use x="102.392578" xlink:href="#DejaVuSerif-97"/>
      <use x="162.011719" xlink:href="#DejaVuSerif-103"/>
     </g>
    </g>
   </g>
   <g id="LineCollection_5">
    <path clip-path="url(#pc078711753)" d="M 73.832727 205.05656 
L 73.832727 217.565028 
" style="fill:none;stroke:#1f77b4;stroke-width:0.5;"/>
    <path clip-path="url(#pc078711753)" d="M 73.833119 215.228226 
L 73.833119 227.837695 
" style="fill:none;stroke:#1f77b4;stroke-width:0.5;"/>
    <path clip-path="url(#pc078711753)" d="M 94.910293 226.793501 
L 94.910293 239.520918 
" style="fill:none;stroke:#1f77b4;stroke-width:0.5;"/>
    <path clip-path="url(#pc078711753)" d="M 94.910684 229.940634 
L 94.910684 242.700733 
" style="fill:none;stroke:#1f77b4;stroke-width:0.5;"/>
    <path clip-path="url(#pc078711753)" d="M 96.675449 203.904 
L 96.675449 216.401184 
" style="fill:none;stroke:#1f77b4;stroke-width:0.5;"/>
    <path clip-path="url(#pc078711753)" d="M 99.185169 236.992234 
L 99.185169 249.826487 
" style="fill:none;stroke:#1f77b4;stroke-width:0.5;"/>
    <path clip-path="url(#pc078711753)" d="M 99.18789 236.223535 
L 99.18789 249.04964 
" style="fill:none;stroke:#1f77b4;stroke-width:0.5;"/>
    <path clip-path="url(#pc078711753)" d="M 121.144305 204.78141 
L 121.144305 217.287182 
" style="fill:none;stroke:#1f77b4;stroke-width:0.5;"/>
    <path clip-path="url(#pc078711753)" d="M 121.988998 243.054021 
L 121.988998 255.953058 
" style="fill:none;stroke:#1f77b4;stroke-width:0.5;"/>
    <path clip-path="url(#pc078711753)" d="M 121.98938 253.335552 
L 121.98938 266.346714 
" style="fill:none;stroke:#1f77b4;stroke-width:0.5;"/>
    <path clip-path="url(#pc078711753)" d="M 123.69785 243.667613 
L 123.69785 256.573264 
" style="fill:none;stroke:#1f77b4;stroke-width:0.5;"/>
    <path clip-path="url(#pc078711753)" d="M 123.698242 247.001529 
L 123.698242 259.943279 
" style="fill:none;stroke:#1f77b4;stroke-width:0.5;"/>
    <path clip-path="url(#pc078711753)" d="M 125.362202 222.754749 
L 125.362202 235.440595 
" style="fill:none;stroke:#1f77b4;stroke-width:0.5;"/>
    <path clip-path="url(#pc078711753)" d="M 125.362594 220.703846 
L 125.362594 233.368742 
" style="fill:none;stroke:#1f77b4;stroke-width:0.5;"/>
    <path clip-path="url(#pc078711753)" d="M 126.199487 253.35371 
L 126.199487 266.365071 
" style="fill:none;stroke:#1f77b4;stroke-width:0.5;"/>
    <path clip-path="url(#pc078711753)" d="M 126.199878 251.622068 
L 126.199878 264.614344 
" style="fill:none;stroke:#1f77b4;stroke-width:0.5;"/>
    <path clip-path="url(#pc078711753)" d="M 127.090237 213.752041 
L 127.090237 226.346694 
" style="fill:none;stroke:#1f77b4;stroke-width:0.5;"/>
    <path clip-path="url(#pc078711753)" d="M 127.090618 216.54606 
L 127.090618 229.168802 
" style="fill:none;stroke:#1f77b4;stroke-width:0.5;"/>
    <path clip-path="url(#pc078711753)" d="M 127.899364 248.723552 
L 127.899364 261.684068 
" style="fill:none;stroke:#1f77b4;stroke-width:0.5;"/>
    <path clip-path="url(#pc078711753)" d="M 127.899756 257.426472 
L 127.899756 270.483048 
" style="fill:none;stroke:#1f77b4;stroke-width:0.5;"/>
    <path clip-path="url(#pc078711753)" d="M 128.744146 225.360319 
L 128.744146 238.072937 
" style="fill:none;stroke:#1f77b4;stroke-width:0.5;"/>
    <path clip-path="url(#pc078711753)" d="M 128.744527 233.61183 
L 128.744527 246.410371 
" style="fill:none;stroke:#1f77b4;stroke-width:0.5;"/>
    <path clip-path="url(#pc078711753)" d="M 136.360585 255.987407 
L 136.360585 269.027958 
" style="fill:none;stroke:#1f77b4;stroke-width:0.5;"/>
    <path clip-path="url(#pc078711753)" d="M 142.231315 255.612574 
L 142.231315 268.648959 
" style="fill:none;stroke:#1f77b4;stroke-width:0.5;"/>
    <path clip-path="url(#pc078711753)" d="M 143.073052 239.434529 
L 143.073052 252.294765 
" style="fill:none;stroke:#1f77b4;stroke-width:0.5;"/>
    <path clip-path="url(#pc078711753)" d="M 143.918832 224.751751 
L 143.918832 237.458101 
" style="fill:none;stroke:#1f77b4;stroke-width:0.5;"/>
    <path clip-path="url(#pc078711753)" d="M 144.76286 243.980275 
L 144.76286 256.889296 
" style="fill:none;stroke:#1f77b4;stroke-width:0.5;"/>
    <path clip-path="url(#pc078711753)" d="M 145.612006 216.208661 
L 145.612006 228.827999 
" style="fill:none;stroke:#1f77b4;stroke-width:0.5;"/>
    <path clip-path="url(#pc078711753)" d="M 155.771705 221.542772 
L 155.771705 234.216226 
" style="fill:none;stroke:#1f77b4;stroke-width:0.5;"/>
    <path clip-path="url(#pc078711753)" d="M 163.21203 249.581627 
L 163.21203 262.551518 
" style="fill:none;stroke:#1f77b4;stroke-width:0.5;"/>
    <path clip-path="url(#pc078711753)" d="M 164.180987 236.911154 
L 164.180987 249.744547 
" style="fill:none;stroke:#1f77b4;stroke-width:0.5;"/>
    <path clip-path="url(#pc078711753)" d="M 165.042171 264.854177 
L 165.042171 277.994394 
" style="fill:none;stroke:#1f77b4;stroke-width:0.5;"/>
    <path clip-path="url(#pc078711753)" d="M 170.943837 276.374201 
L 170.943837 289.647238 
" style="fill:none;stroke:#1f77b4;stroke-width:0.5;"/>
    <path clip-path="url(#pc078711753)" d="M 173.496775 270.179652 
L 173.496775 283.380795 
" style="fill:none;stroke:#1f77b4;stroke-width:0.5;"/>
    <path clip-path="url(#pc078711753)" d="M 207.146958 241.356489 
L 207.146958 254.237287 
" style="fill:none;stroke:#1f77b4;stroke-width:0.5;"/>
    <path clip-path="url(#pc078711753)" d="M 210.529274 250.27368 
L 210.529274 263.251154 
" style="fill:none;stroke:#1f77b4;stroke-width:0.5;"/>
    <path clip-path="url(#pc078711753)" d="M 218.978819 239.259382 
L 218.978819 252.11775 
" style="fill:none;stroke:#1f77b4;stroke-width:0.5;"/>
    <path clip-path="url(#pc078711753)" d="M 346.082599 237.409333 
L 346.082599 250.248012 
" style="fill:none;stroke:#1f77b4;stroke-width:0.5;"/>
    <path clip-path="url(#pc078711753)" d="M 379.139631 239.158172 
L 379.139631 252.015459 
" style="fill:none;stroke:#1f77b4;stroke-width:0.5;"/>
    <path clip-path="url(#pc078711753)" d="M 396.853779 267.406409 
L 396.853779 280.575725 
" style="fill:none;stroke:#1f77b4;stroke-width:0.5;"/>
    <path clip-path="url(#pc078711753)" d="M 396.854161 260.117755 
L 396.854161 273.20446 
" style="fill:none;stroke:#1f77b4;stroke-width:0.5;"/>
    <path clip-path="url(#pc078711753)" d="M 397.677773 245.153643 
L 397.677773 258.075345 
" style="fill:none;stroke:#1f77b4;stroke-width:0.5;"/>
    <path clip-path="url(#pc078711753)" d="M 397.678155 251.105144 
L 397.678155 264.091741 
" style="fill:none;stroke:#1f77b4;stroke-width:0.5;"/>
    <path clip-path="url(#pc078711753)" d="M 398.486891 289.221146 
L 398.486891 302.646857 
" style="fill:none;stroke:#1f77b4;stroke-width:0.5;"/>
    <path clip-path="url(#pc078711753)" d="M 398.487273 283.875729 
L 398.487273 297.237318 
" style="fill:none;stroke:#1f77b4;stroke-width:0.5;"/>
   </g>
   <g id="line2d_49">
    <path clip-path="url(#pc078711753)" d="M 73.832727 211.310794 
L 73.833119 221.53296 
L 94.910293 233.15721 
L 94.910684 236.320683 
L 96.675449 210.152592 
L 99.185169 243.409361 
L 99.18789 242.636588 
L 121.144305 211.034296 
L 121.988998 249.50354 
L 121.98938 259.841133 
L 123.69785 250.120438 
L 123.698242 253.472404 
L 125.362202 229.097672 
L 125.362594 227.036294 
L 126.199487 259.859391 
L 126.199878 258.118206 
L 127.090237 220.049367 
L 127.090618 222.857431 
L 127.899364 255.20381 
L 127.899756 263.95476 
L 128.744146 231.716628 
L 128.744527 240.011101 
L 136.360585 262.507682 
L 142.231315 262.130766 
L 143.073052 245.864647 
L 143.918832 231.104926 
L 144.76286 250.434786 
L 145.612006 222.51833 
L 155.771705 227.879499 
L 163.21203 256.066573 
L 164.180987 243.327851 
L 165.042171 271.424285 
L 170.943837 283.01072 
L 173.496775 276.780223 
L 207.146958 247.796888 
L 210.529274 256.762417 
L 218.978819 245.688566 
L 346.082599 243.828673 
L 379.139631 245.586815 
L 396.853779 273.991067 
L 396.854161 266.661107 
L 397.677773 251.614494 
L 397.678155 257.598443 
L 398.486891 295.934002 
L 398.487273 290.556524 
" style="fill:none;"/>
   </g>
   <g id="patch_14">
    <path d="M 57.6 307.584 
L 57.6 198.966857 
" style="fill:none;stroke:#000000;stroke-linecap:square;stroke-linejoin:miter;stroke-width:0.8;"/>
   </g>
   <g id="patch_15">
    <path d="M 414.72 307.584 
L 414.72 198.966857 
" style="fill:none;stroke:#000000;stroke-linecap:square;stroke-linejoin:miter;stroke-width:0.8;"/>
   </g>
   <g id="patch_16">
    <path d="M 57.6 307.584 
L 414.72 307.584 
" style="fill:none;stroke:#000000;stroke-linecap:square;stroke-linejoin:miter;stroke-width:0.8;"/>
   </g>
   <g id="patch_17">
    <path d="M 57.6 198.966857 
L 414.72 198.966857 
" style="fill:none;stroke:#000000;stroke-linecap:square;stroke-linejoin:miter;stroke-width:0.8;"/>
   </g>
   <g id="text_36">
    <!-- Light Curve -->
    <g transform="translate(206.000625 192.966857)scale(0.1 -0.1)">
     <use xlink:href="#DejaVuSerif-76"/>
     <use x="66.40625" xlink:href="#DejaVuSerif-105"/>
     <use x="98.388672" xlink:href="#DejaVuSerif-103"/>
     <use x="162.402344" xlink:href="#DejaVuSerif-104"/>
     <use x="226.806641" xlink:href="#DejaVuSerif-116"/>
     <use x="266.992188" xlink:href="#DejaVuSerif-32"/>
     <use x="298.779297" xlink:href="#DejaVuSerif-67"/>
     <use x="375.292969" xlink:href="#DejaVuSerif-117"/>
     <use x="439.697266" xlink:href="#DejaVuSerif-114"/>
     <use x="487.5" xlink:href="#DejaVuSerif-118"/>
     <use x="543.994141" xlink:href="#DejaVuSerif-101"/>
    </g>
   </g>
  </g>
 </g>
 <defs>
  <clipPath id="pce0f31593a">
   <rect height="108.617143" width="148.8" x="265.92" y="41.472"/>
  </clipPath>
  <clipPath id="pc106195e97">
   <rect height="108.617143" width="148.8" x="57.6" y="41.472"/>
  </clipPath>
  <clipPath id="pc078711753">
   <rect height="108.617143" width="357.12" x="57.6" y="198.966857"/>
  </clipPath>
 </defs>
</svg>
