<?xml version="1.0" encoding="utf-8" standalone="no"?>
<!DOCTYPE svg PUBLIC "-//W3C//DTD SVG 1.1//EN"
  "http://www.w3.org/Graphics/SVG/1.1/DTD/svg11.dtd">
<!-- Created with matplotlib (https://matplotlib.org/) -->
<svg height="345.6pt" version="1.1" viewBox="0 0 460.8 345.6" width="460.8pt" xmlns="http://www.w3.org/2000/svg" xmlns:xlink="http://www.w3.org/1999/xlink">
 <metadata>
  <rdf:RDF xmlns:cc="http://creativecommons.org/ns#" xmlns:dc="http://purl.org/dc/elements/1.1/" xmlns:rdf="http://www.w3.org/1999/02/22-rdf-syntax-ns#">
   <cc:Work>
    <dc:type rdf:resource="http://purl.org/dc/dcmitype/StillImage"/>
    <dc:date>2021-02-16T16:34:51.263679</dc:date>
    <dc:format>image/svg+xml</dc:format>
    <dc:creator>
     <cc:Agent>
      <dc:title>Matplotlib v3.3.3, https://matplotlib.org/</dc:title>
     </cc:Agent>
    </dc:creator>
   </cc:Work>
  </rdf:RDF>
 </metadata>
 <defs>
  <style type="text/css">*{stroke-linecap:butt;stroke-linejoin:round;}</style>
 </defs>
 <g id="figure_1">
  <g id="patch_1">
   <path d="M 0 345.6 
L 460.8 345.6 
L 460.8 0 
L 0 0 
z
" style="fill:#ffffff;"/>
  </g>
  <g id="axes_1">
   <g id="patch_2">
    <path d="M 265.92 150.089143 
L 414.72 150.089143 
L 414.72 41.472 
L 265.92 41.472 
z
" style="fill:#ffffff;"/>
   </g>
   <g id="matplotlib.axis_1">
    <g id="xtick_1">
     <g id="line2d_1">
      <defs>
       <path d="M 0 0 
L 0 3.5 
" id="mc019704942" style="stroke:#000000;stroke-width:0.8;"/>
      </defs>
      <g>
       <use style="stroke:#000000;stroke-width:0.8;" x="315.519224" xlink:href="#mc019704942" y="150.089143"/>
      </g>
     </g>
     <g id="text_1">
      <!-- $\mathdefault{10^{1}}$ -->
      <g transform="translate(306.719224 164.68758)scale(0.1 -0.1)">
       <defs>
        <path d="M 14.203125 0 
L 14.203125 5.171875 
L 26.90625 5.171875 
L 26.90625 65.828125 
L 12.203125 56.296875 
L 12.203125 62.703125 
L 29.984375 74.21875 
L 36.71875 74.21875 
L 36.71875 5.171875 
L 49.421875 5.171875 
L 49.421875 0 
z
" id="DejaVuSerif-49"/>
        <path d="M 31.78125 3.421875 
Q 39.265625 3.421875 42.96875 11.625 
Q 46.6875 19.828125 46.6875 36.375 
Q 46.6875 52.984375 42.96875 61.1875 
Q 39.265625 69.390625 31.78125 69.390625 
Q 24.3125 69.390625 20.59375 61.1875 
Q 16.890625 52.984375 16.890625 36.375 
Q 16.890625 19.828125 20.59375 11.625 
Q 24.3125 3.421875 31.78125 3.421875 
z
M 31.78125 -1.421875 
Q 19.921875 -1.421875 13.25 8.53125 
Q 6.59375 18.5 6.59375 36.375 
Q 6.59375 54.296875 13.25 64.25 
Q 19.921875 74.21875 31.78125 74.21875 
Q 43.703125 74.21875 50.34375 64.25 
Q 56.984375 54.296875 56.984375 36.375 
Q 56.984375 18.5 50.34375 8.53125 
Q 43.703125 -1.421875 31.78125 -1.421875 
z
" id="DejaVuSerif-48"/>
       </defs>
       <use transform="translate(0 0.7125)" xlink:href="#DejaVuSerif-49"/>
       <use transform="translate(63.623047 0.7125)" xlink:href="#DejaVuSerif-48"/>
       <use transform="translate(128.154453 37.046875)scale(0.7)" xlink:href="#DejaVuSerif-49"/>
      </g>
     </g>
    </g>
    <g id="xtick_2">
     <g id="line2d_2">
      <g>
       <use style="stroke:#000000;stroke-width:0.8;" x="373.218149" xlink:href="#mc019704942" y="150.089143"/>
      </g>
     </g>
     <g id="text_2">
      <!-- $\mathdefault{10^{2}}$ -->
      <g transform="translate(364.418149 164.68758)scale(0.1 -0.1)">
       <defs>
        <path d="M 12.796875 55.515625 
L 7.328125 55.515625 
L 7.328125 68.5 
Q 12.546875 71.296875 17.84375 72.75 
Q 23.140625 74.21875 28.21875 74.21875 
Q 39.59375 74.21875 46.1875 68.703125 
Q 52.78125 63.1875 52.78125 53.71875 
Q 52.78125 43.015625 37.84375 28.125 
Q 36.671875 27 36.078125 26.421875 
L 17.671875 8.015625 
L 48.09375 8.015625 
L 48.09375 17 
L 53.8125 17 
L 53.8125 0 
L 6.78125 0 
L 6.78125 5.328125 
L 28.90625 27.390625 
Q 36.234375 34.71875 39.359375 40.84375 
Q 42.484375 46.96875 42.484375 53.71875 
Q 42.484375 61.078125 38.640625 65.234375 
Q 34.8125 69.390625 28.078125 69.390625 
Q 21.09375 69.390625 17.28125 65.921875 
Q 13.484375 62.453125 12.796875 55.515625 
z
" id="DejaVuSerif-50"/>
       </defs>
       <use transform="translate(0 0.7125)" xlink:href="#DejaVuSerif-49"/>
       <use transform="translate(63.623047 0.7125)" xlink:href="#DejaVuSerif-48"/>
       <use transform="translate(128.154453 37.046875)scale(0.7)" xlink:href="#DejaVuSerif-50"/>
      </g>
     </g>
    </g>
    <g id="xtick_3">
     <g id="line2d_3">
      <defs>
       <path d="M 0 0 
L 0 2 
" id="m43f10bd8e7" style="stroke:#000000;stroke-width:0.6;"/>
      </defs>
      <g>
       <use style="stroke:#000000;stroke-width:0.6;" x="275.189406" xlink:href="#m43f10bd8e7" y="150.089143"/>
      </g>
     </g>
    </g>
    <g id="xtick_4">
     <g id="line2d_4">
      <g>
       <use style="stroke:#000000;stroke-width:0.6;" x="285.349683" xlink:href="#m43f10bd8e7" y="150.089143"/>
      </g>
     </g>
    </g>
    <g id="xtick_5">
     <g id="line2d_5">
      <g>
       <use style="stroke:#000000;stroke-width:0.6;" x="292.558513" xlink:href="#m43f10bd8e7" y="150.089143"/>
      </g>
     </g>
    </g>
    <g id="xtick_6">
     <g id="line2d_6">
      <g>
       <use style="stroke:#000000;stroke-width:0.6;" x="298.150117" xlink:href="#m43f10bd8e7" y="150.089143"/>
      </g>
     </g>
    </g>
    <g id="xtick_7">
     <g id="line2d_7">
      <g>
       <use style="stroke:#000000;stroke-width:0.6;" x="302.71879" xlink:href="#m43f10bd8e7" y="150.089143"/>
      </g>
     </g>
    </g>
    <g id="xtick_8">
     <g id="line2d_8">
      <g>
       <use style="stroke:#000000;stroke-width:0.6;" x="306.581548" xlink:href="#m43f10bd8e7" y="150.089143"/>
      </g>
     </g>
    </g>
    <g id="xtick_9">
     <g id="line2d_9">
      <g>
       <use style="stroke:#000000;stroke-width:0.6;" x="309.927621" xlink:href="#m43f10bd8e7" y="150.089143"/>
      </g>
     </g>
    </g>
    <g id="xtick_10">
     <g id="line2d_10">
      <g>
       <use style="stroke:#000000;stroke-width:0.6;" x="312.879066" xlink:href="#m43f10bd8e7" y="150.089143"/>
      </g>
     </g>
    </g>
    <g id="xtick_11">
     <g id="line2d_11">
      <g>
       <use style="stroke:#000000;stroke-width:0.6;" x="332.888331" xlink:href="#m43f10bd8e7" y="150.089143"/>
      </g>
     </g>
    </g>
    <g id="xtick_12">
     <g id="line2d_12">
      <g>
       <use style="stroke:#000000;stroke-width:0.6;" x="343.048608" xlink:href="#m43f10bd8e7" y="150.089143"/>
      </g>
     </g>
    </g>
    <g id="xtick_13">
     <g id="line2d_13">
      <g>
       <use style="stroke:#000000;stroke-width:0.6;" x="350.257438" xlink:href="#m43f10bd8e7" y="150.089143"/>
      </g>
     </g>
    </g>
    <g id="xtick_14">
     <g id="line2d_14">
      <g>
       <use style="stroke:#000000;stroke-width:0.6;" x="355.849042" xlink:href="#m43f10bd8e7" y="150.089143"/>
      </g>
     </g>
    </g>
    <g id="xtick_15">
     <g id="line2d_15">
      <g>
       <use style="stroke:#000000;stroke-width:0.6;" x="360.417715" xlink:href="#m43f10bd8e7" y="150.089143"/>
      </g>
     </g>
    </g>
    <g id="xtick_16">
     <g id="line2d_16">
      <g>
       <use style="stroke:#000000;stroke-width:0.6;" x="364.280473" xlink:href="#m43f10bd8e7" y="150.089143"/>
      </g>
     </g>
    </g>
    <g id="xtick_17">
     <g id="line2d_17">
      <g>
       <use style="stroke:#000000;stroke-width:0.6;" x="367.626546" xlink:href="#m43f10bd8e7" y="150.089143"/>
      </g>
     </g>
    </g>
    <g id="xtick_18">
     <g id="line2d_18">
      <g>
       <use style="stroke:#000000;stroke-width:0.6;" x="370.577991" xlink:href="#m43f10bd8e7" y="150.089143"/>
      </g>
     </g>
    </g>
    <g id="xtick_19">
     <g id="line2d_19">
      <g>
       <use style="stroke:#000000;stroke-width:0.6;" x="390.587256" xlink:href="#m43f10bd8e7" y="150.089143"/>
      </g>
     </g>
    </g>
    <g id="xtick_20">
     <g id="line2d_20">
      <g>
       <use style="stroke:#000000;stroke-width:0.6;" x="400.747533" xlink:href="#m43f10bd8e7" y="150.089143"/>
      </g>
     </g>
    </g>
    <g id="xtick_21">
     <g id="line2d_21">
      <g>
       <use style="stroke:#000000;stroke-width:0.6;" x="407.956364" xlink:href="#m43f10bd8e7" y="150.089143"/>
      </g>
     </g>
    </g>
    <g id="xtick_22">
     <g id="line2d_22">
      <g>
       <use style="stroke:#000000;stroke-width:0.6;" x="413.547967" xlink:href="#m43f10bd8e7" y="150.089143"/>
      </g>
     </g>
    </g>
    <g id="text_3">
     <!-- Period d -->
     <g transform="translate(319.231719 178.365705)scale(0.1 -0.1)">
      <defs>
       <path d="M 24.703125 37.109375 
L 37.59375 37.109375 
Q 44.875 37.109375 48.671875 41.03125 
Q 52.484375 44.96875 52.484375 52.390625 
Q 52.484375 59.859375 48.671875 63.765625 
Q 44.875 67.671875 37.59375 67.671875 
L 24.703125 67.671875 
z
M 5.515625 0 
L 5.515625 5.171875 
L 14.796875 5.171875 
L 14.796875 67.671875 
L 5.515625 67.671875 
L 5.515625 72.90625 
L 39.984375 72.90625 
Q 50.921875 72.90625 57.3125 67.359375 
Q 63.71875 61.8125 63.71875 52.390625 
Q 63.71875 43.015625 57.3125 37.453125 
Q 50.921875 31.890625 39.984375 31.890625 
L 24.703125 31.890625 
L 24.703125 5.171875 
L 35.984375 5.171875 
L 35.984375 0 
z
" id="DejaVuSerif-80"/>
       <path d="M 54.203125 25 
L 15.484375 25 
L 15.484375 24.609375 
Q 15.484375 14.109375 19.4375 8.765625 
Q 23.390625 3.421875 31.109375 3.421875 
Q 37.015625 3.421875 40.796875 6.515625 
Q 44.578125 9.625 46.09375 15.71875 
L 53.328125 15.71875 
Q 51.171875 7.171875 45.375 2.875 
Q 39.59375 -1.421875 30.171875 -1.421875 
Q 18.796875 -1.421875 11.890625 6.078125 
Q 4.984375 13.578125 4.984375 25.984375 
Q 4.984375 38.28125 11.765625 45.796875 
Q 18.5625 53.328125 29.59375 53.328125 
Q 41.359375 53.328125 47.65625 46.0625 
Q 53.953125 38.8125 54.203125 25 
z
M 43.609375 30.171875 
Q 43.3125 39.265625 39.765625 43.875 
Q 36.234375 48.484375 29.59375 48.484375 
Q 23.390625 48.484375 19.828125 43.84375 
Q 16.265625 39.203125 15.484375 30.171875 
z
" id="DejaVuSerif-101"/>
       <path d="M 47.796875 52 
L 47.796875 39.015625 
L 42.625 39.015625 
Q 42.390625 42.875 40.484375 44.78125 
Q 38.578125 46.6875 34.90625 46.6875 
Q 28.265625 46.6875 24.71875 42.09375 
Q 21.1875 37.5 21.1875 28.90625 
L 21.1875 5.171875 
L 31.59375 5.171875 
L 31.59375 0 
L 4.109375 0 
L 4.109375 5.171875 
L 12.203125 5.171875 
L 12.203125 46.78125 
L 3.609375 46.78125 
L 3.609375 51.90625 
L 21.1875 51.90625 
L 21.1875 42.671875 
Q 23.828125 48.09375 27.96875 50.703125 
Q 32.125 53.328125 38.09375 53.328125 
Q 40.28125 53.328125 42.703125 52.984375 
Q 45.125 52.640625 47.796875 52 
z
" id="DejaVuSerif-114"/>
       <path d="M 9.71875 68.015625 
Q 9.71875 70.265625 11.34375 71.921875 
Q 12.984375 73.578125 15.28125 73.578125 
Q 17.53125 73.578125 19.15625 71.921875 
Q 20.796875 70.265625 20.796875 68.015625 
Q 20.796875 65.71875 19.1875 64.109375 
Q 17.578125 62.5 15.28125 62.5 
Q 12.984375 62.5 11.34375 64.109375 
Q 9.71875 65.71875 9.71875 68.015625 
z
M 21.1875 5.171875 
L 29.6875 5.171875 
L 29.6875 0 
L 3.609375 0 
L 3.609375 5.171875 
L 12.203125 5.171875 
L 12.203125 46.6875 
L 3.609375 46.6875 
L 3.609375 51.90625 
L 21.1875 51.90625 
z
" id="DejaVuSerif-105"/>
       <path d="M 30.078125 3.421875 
Q 37.3125 3.421875 40.984375 9.125 
Q 44.671875 14.84375 44.671875 25.984375 
Q 44.671875 37.109375 40.984375 42.796875 
Q 37.3125 48.484375 30.078125 48.484375 
Q 22.859375 48.484375 19.171875 42.796875 
Q 15.484375 37.109375 15.484375 25.984375 
Q 15.484375 14.84375 19.1875 9.125 
Q 22.90625 3.421875 30.078125 3.421875 
z
M 30.078125 -1.421875 
Q 18.75 -1.421875 11.859375 6.078125 
Q 4.984375 13.578125 4.984375 25.984375 
Q 4.984375 38.375 11.84375 45.84375 
Q 18.703125 53.328125 30.078125 53.328125 
Q 41.453125 53.328125 48.3125 45.84375 
Q 55.171875 38.375 55.171875 25.984375 
Q 55.171875 13.578125 48.3125 6.078125 
Q 41.453125 -1.421875 30.078125 -1.421875 
z
" id="DejaVuSerif-111"/>
       <path d="M 52.484375 5.171875 
L 61.078125 5.171875 
L 61.078125 0 
L 43.5 0 
L 43.5 8.109375 
Q 40.875 3.21875 36.796875 0.890625 
Q 32.71875 -1.421875 26.703125 -1.421875 
Q 17.140625 -1.421875 11.0625 6.171875 
Q 4.984375 13.765625 4.984375 25.984375 
Q 4.984375 38.1875 11.03125 45.75 
Q 17.09375 53.328125 26.703125 53.328125 
Q 32.71875 53.328125 36.796875 51 
Q 40.875 48.6875 43.5 43.796875 
L 43.5 70.796875 
L 35.015625 70.796875 
L 35.015625 75.984375 
L 52.484375 75.984375 
z
M 43.5 23.390625 
L 43.5 28.515625 
Q 43.5 37.84375 39.90625 42.765625 
Q 36.328125 47.703125 29.5 47.703125 
Q 22.5625 47.703125 19.015625 42.234375 
Q 15.484375 36.765625 15.484375 25.984375 
Q 15.484375 15.234375 19.015625 9.71875 
Q 22.5625 4.203125 29.5 4.203125 
Q 36.328125 4.203125 39.90625 9.109375 
Q 43.5 14.015625 43.5 23.390625 
z
" id="DejaVuSerif-100"/>
       <path id="DejaVuSerif-32"/>
      </defs>
      <use xlink:href="#DejaVuSerif-80"/>
      <use x="62.785156" xlink:href="#DejaVuSerif-101"/>
      <use x="121.964844" xlink:href="#DejaVuSerif-114"/>
      <use x="169.767578" xlink:href="#DejaVuSerif-105"/>
      <use x="201.75" xlink:href="#DejaVuSerif-111"/>
      <use x="261.955078" xlink:href="#DejaVuSerif-100"/>
      <use x="325.96875" xlink:href="#DejaVuSerif-32"/>
      <use x="357.755859" xlink:href="#DejaVuSerif-100"/>
     </g>
    </g>
   </g>
   <g id="matplotlib.axis_2">
    <g id="ytick_1">
     <g id="line2d_23">
      <defs>
       <path d="M 0 0 
L -3.5 0 
" id="m84460283cb" style="stroke:#000000;stroke-width:0.8;"/>
      </defs>
      <g>
       <use style="stroke:#000000;stroke-width:0.8;" x="265.92" xlink:href="#m84460283cb" y="145.15288"/>
      </g>
     </g>
     <g id="text_4">
      <!-- 0.0 -->
      <g transform="translate(243.016875 148.952099)scale(0.1 -0.1)">
       <defs>
        <path d="M 9.421875 5.078125 
Q 9.421875 7.8125 11.28125 9.71875 
Q 13.140625 11.625 15.921875 11.625 
Q 18.609375 11.625 20.5 9.71875 
Q 22.40625 7.8125 22.40625 5.078125 
Q 22.40625 2.390625 20.5 0.484375 
Q 18.609375 -1.421875 15.921875 -1.421875 
Q 13.140625 -1.421875 11.28125 0.453125 
Q 9.421875 2.34375 9.421875 5.078125 
z
" id="DejaVuSerif-46"/>
       </defs>
       <use xlink:href="#DejaVuSerif-48"/>
       <use x="63.623047" xlink:href="#DejaVuSerif-46"/>
       <use x="95.410156" xlink:href="#DejaVuSerif-48"/>
      </g>
     </g>
    </g>
    <g id="ytick_2">
     <g id="line2d_24">
      <g>
       <use style="stroke:#000000;stroke-width:0.8;" x="265.92" xlink:href="#m84460283cb" y="102.806175"/>
      </g>
     </g>
     <g id="text_5">
      <!-- 0.2 -->
      <g transform="translate(243.016875 106.605394)scale(0.1 -0.1)">
       <use xlink:href="#DejaVuSerif-48"/>
       <use x="63.623047" xlink:href="#DejaVuSerif-46"/>
       <use x="95.410156" xlink:href="#DejaVuSerif-50"/>
      </g>
     </g>
    </g>
    <g id="ytick_3">
     <g id="line2d_25">
      <g>
       <use style="stroke:#000000;stroke-width:0.8;" x="265.92" xlink:href="#m84460283cb" y="60.45947"/>
      </g>
     </g>
     <g id="text_6">
      <!-- 0.4 -->
      <g transform="translate(243.016875 64.258688)scale(0.1 -0.1)">
       <defs>
        <path d="M 34.90625 24.703125 
L 34.90625 63.484375 
L 10.015625 24.703125 
z
M 56.390625 0 
L 23.1875 0 
L 23.1875 5.171875 
L 34.90625 5.171875 
L 34.90625 19.484375 
L 3.078125 19.484375 
L 3.078125 24.8125 
L 35.015625 74.21875 
L 44.671875 74.21875 
L 44.671875 24.703125 
L 58.59375 24.703125 
L 58.59375 19.484375 
L 44.671875 19.484375 
L 44.671875 5.171875 
L 56.390625 5.171875 
z
" id="DejaVuSerif-52"/>
       </defs>
       <use xlink:href="#DejaVuSerif-48"/>
       <use x="63.623047" xlink:href="#DejaVuSerif-46"/>
       <use x="95.410156" xlink:href="#DejaVuSerif-52"/>
      </g>
     </g>
    </g>
    <g id="text_7">
     <!-- Power -->
     <g transform="translate(236.937188 111.583696)rotate(-90)scale(0.1 -0.1)">
      <defs>
       <path d="M 48 51.90625 
L 61.28125 11.375 
L 73 46.6875 
L 65.484375 46.6875 
L 65.484375 51.90625 
L 84.28125 51.90625 
L 84.28125 46.6875 
L 78.515625 46.6875 
L 63.09375 0 
L 55.609375 0 
L 42.828125 38.8125 
L 29.984375 0 
L 22.796875 0 
L 7.421875 46.6875 
L 1.609375 46.6875 
L 1.609375 51.90625 
L 25.09375 51.90625 
L 25.09375 46.6875 
L 16.703125 46.6875 
L 28.328125 11.375 
L 41.703125 51.90625 
z
" id="DejaVuSerif-119"/>
      </defs>
      <use xlink:href="#DejaVuSerif-80"/>
      <use x="63.285156" xlink:href="#DejaVuSerif-111"/>
      <use x="123.490234" xlink:href="#DejaVuSerif-119"/>
      <use x="209.085938" xlink:href="#DejaVuSerif-101"/>
      <use x="268.265625" xlink:href="#DejaVuSerif-114"/>
     </g>
    </g>
   </g>
   <g id="LineCollection_1">
    <path clip-path="url(#p4e78d4b7b5)" d="M 272.688076 46.409143 
L 407.956364 46.409143 
" style="fill:none;stroke:#808080;stroke-dasharray:5.55,2.4;stroke-dashoffset:0;stroke-width:1.5;"/>
   </g>
   <g id="LineCollection_2">
    <path clip-path="url(#p4e78d4b7b5)" d="M 272.688076 60.336486 
L 407.956364 60.336486 
" style="fill:none;stroke:#a9a9a9;stroke-dasharray:5.55,2.4;stroke-dashoffset:0;stroke-width:1.5;"/>
   </g>
   <g id="LineCollection_3">
    <path clip-path="url(#p4e78d4b7b5)" d="M 272.688076 71.302836 
L 407.956364 71.302836 
" style="fill:none;stroke:#c0c0c0;stroke-dasharray:5.55,2.4;stroke-dashoffset:0;stroke-width:1.5;"/>
   </g>
   <g id="LineCollection_4">
    <path clip-path="url(#p4e78d4b7b5)" d="M 272.688076 76.483026 
L 407.956364 76.483026 
" style="fill:none;stroke:#d3d3d3;stroke-dasharray:5.55,2.4;stroke-dashoffset:0;stroke-width:1.5;"/>
   </g>
   <g id="line2d_26">
    <path clip-path="url(#p4e78d4b7b5)" d="M 407.956364 109.785276 
L 403.213616 136.728217 
L 399.227255 134.15553 
L 395.788878 113.702024 
L 392.765875 107.655069 
L 390.068617 110.900253 
L 387.633683 124.118281 
L 385.414539 140.168515 
L 383.376032 130.706948 
L 381.490955 111.926385 
L 379.73782 108.631183 
L 378.099359 115.988248 
L 376.561486 130.795712 
L 375.112563 142.833573 
L 372.444161 105.678636 
L 371.209467 103.013516 
L 370.032763 112.262468 
L 368.908846 131.403821 
L 367.833182 144.517167 
L 365.811193 104.481985 
L 364.858264 93.984034 
L 363.940249 90.605212 
L 363.054681 109.427245 
L 362.199344 141.750939 
L 361.372241 137.500753 
L 360.571569 124.910172 
L 359.79569 101.013968 
L 359.043114 92.227719 
L 358.312483 113.068638 
L 357.602554 139.374874 
L 356.912184 132.65791 
L 356.240326 127.677067 
L 355.586012 113.963787 
L 354.948349 109.579576 
L 354.326511 122.843248 
L 353.719731 142.033944 
L 353.127298 139.119875 
L 352.548548 129.377482 
L 351.982864 123.559626 
L 351.429669 120.149594 
L 350.888423 126.209337 
L 350.358621 141.07851 
L 349.839788 137.53387 
L 349.331481 133.017325 
L 348.83328 133.107297 
L 348.344791 131.720169 
L 347.865643 135.645522 
L 347.395485 135.565199 
L 346.933987 121.51912 
L 346.480834 115.133919 
L 346.035731 120.827345 
L 345.168563 139.148165 
L 344.745979 139.58038 
L 344.330404 120.432434 
L 343.921608 107.994688 
L 343.519374 108.105717 
L 343.123495 116.955181 
L 342.733774 132.976165 
L 342.35002 142.958063 
L 341.972055 131.382392 
L 341.599707 113.836268 
L 341.23281 105.252081 
L 340.871208 116.698673 
L 340.51475 139.522457 
L 340.163291 140.339105 
L 339.474825 91.910259 
L 339.137558 77.011212 
L 338.80477 90.825875 
L 338.476344 122.053136 
L 338.152167 118.685717 
L 337.83213 95.843934 
L 337.516128 88.695078 
L 337.204063 89.841438 
L 336.895836 99.052912 
L 336.591354 121.180653 
L 336.290527 125.17584 
L 335.993269 101.0227 
L 335.699496 90.451806 
L 335.409128 97.93265 
L 334.838294 135.572694 
L 334.55768 133.273282 
L 334.280174 98.439787 
L 334.005708 85.966059 
L 333.734215 91.92103 
L 333.465633 105.903951 
L 333.199898 127.901075 
L 332.936952 140.342853 
L 332.419196 81.449206 
L 332.164275 81.119924 
L 331.911921 95.877683 
L 331.414712 138.610876 
L 331.169759 132.633879 
L 330.927177 112.203704 
L 330.686922 104.708862 
L 330.448947 109.087816 
L 329.979673 142.95571 
L 329.748291 137.582675 
L 329.519026 120.776678 
L 329.29184 115.973455 
L 329.066695 124.459879 
L 328.843554 138.762983 
L 328.622384 144.424308 
L 328.185814 92.051935 
L 327.970348 96.941214 
L 327.544897 138.25997 
L 327.33485 143.641227 
L 326.919965 88.914549 
L 326.71507 85.966098 
L 326.511837 99.36272 
L 326.11025 144.985982 
L 325.911845 127.614148 
L 325.519686 81.823376 
L 325.325884 88.715637 
L 324.942719 142.356276 
L 324.753312 138.923578 
L 324.378739 108.284374 
L 324.193532 111.482632 
L 323.645984 142.956917 
L 323.287487 129.32169 
L 323.110144 128.273159 
L 322.585524 141.026163 
L 322.241781 137.319587 
L 321.90269 121.887712 
L 321.237971 142.692709 
L 320.912109 122.854555 
L 320.750753 120.480353 
L 320.59043 120.346753 
L 320.115524 140.611871 
L 319.959202 141.396659 
L 319.803848 138.378883 
L 319.343484 124.861583 
L 318.891425 144.976473 
L 318.594521 134.405724 
L 318.447378 136.066357 
L 318.155658 145.088694 
L 317.724349 125.097892 
L 317.44088 142.99314 
L 317.300339 139.798635 
L 317.021599 98.063979 
L 316.883384 105.91076 
L 316.609219 141.508862 
L 316.473253 142.460782 
L 316.203515 106.868294 
L 316.069727 110.485691 
L 315.804275 141.765382 
L 315.672596 140.925729 
L 315.281661 89.994311 
L 314.896732 141.150923 
L 314.517626 82.393478 
L 314.14417 140.758568 
L 314.020912 137.527903 
L 313.776199 97.123313 
L 313.654732 97.346774 
L 313.293827 144.102413 
L 313.174672 138.967638 
L 312.938046 106.126266 
L 312.820567 111.148085 
L 312.587246 136.066901 
L 312.471396 137.912749 
L 312.24129 99.078341 
L 312.127024 105.509489 
L 311.900044 137.299504 
L 311.78732 141.155215 
L 311.563383 119.626735 
L 311.34143 124.391332 
L 311.121425 135.000902 
L 311.012142 132.053718 
L 310.687126 142.832739 
L 310.366271 119.234235 
L 310.049473 144.634821 
L 309.73663 123.900617 
L 309.427645 140.364357 
L 309.223751 137.064261 
L 309.122423 138.274395 
L 309.021503 137.874595 
L 308.920988 136.693249 
L 308.721159 128.988265 
L 308.424372 141.647655 
L 308.228449 135.308182 
L 307.84114 142.797135 
L 307.649708 139.293587 
L 307.365274 144.076168 
L 307.271175 143.232025 
L 306.990981 135.66904 
L 306.713886 141.100314 
L 306.622198 139.695126 
L 306.349129 125.086179 
L 306.258763 126.979891 
L 306.079003 139.064796 
L 305.989605 138.236046 
L 305.723307 115.060462 
L 305.547334 139.01718 
L 305.459809 138.713997 
L 305.285671 125.327879 
L 305.199054 125.378245 
L 305.026712 142.02448 
L 304.940984 140.371685 
L 304.770402 122.449677 
L 304.516687 144.407081 
L 304.432682 139.230798 
L 304.265515 121.073649 
L 304.182347 122.202537 
L 303.934487 140.746854 
L 303.852409 139.149076 
L 303.770599 135.707375 
L 303.607776 100.560267 
L 303.52676 102.320731 
L 303.28527 144.084789 
L 303.046086 102.563262 
L 302.966862 108.389934 
L 302.809162 144.50553 
L 302.730683 138.490605 
L 302.574458 107.502503 
L 302.49671 114.780752 
L 302.341932 143.381613 
L 302.264901 141.707421 
L 302.111544 120.72769 
L 302.035216 123.437816 
L 301.807618 143.919844 
L 301.657027 131.81525 
L 301.507335 121.047241 
L 301.28446 144.813498 
L 301.06355 128.666945 
L 300.917351 141.447305 
L 300.844571 140.396603 
L 300.69964 126.096507 
L 300.627488 129.451583 
L 300.483805 144.98817 
L 300.41227 141.252734 
L 300.198885 124.259021 
L 299.987302 143.169077 
L 299.847232 128.064836 
L 299.77749 129.879932 
L 299.638585 144.945637 
L 299.431661 118.32468 
L 299.363064 126.954275 
L 299.226432 144.634571 
L 299.09054 120.108684 
L 299.022869 107.643583 
L 298.955381 114.883933 
L 298.754 139.487046 
L 298.687231 141.118203 
L 298.42192 113.014515 
L 298.224765 142.971509 
L 298.159389 139.145665 
L 297.96428 130.556449 
L 297.835046 138.842063 
L 297.770679 135.671586 
L 297.706476 137.791738 
L 297.642437 138.739396 
L 297.578561 141.763 
L 297.514848 139.625305 
L 297.387906 129.26892 
L 297.19869 141.980922 
L 297.010892 121.495149 
L 296.824491 142.086995 
L 296.639467 125.365605 
L 296.578094 125.496416 
L 296.455798 134.529962 
L 296.334097 143.787037 
L 296.212983 133.98564 
L 296.092452 119.871985 
L 295.912735 142.536216 
L 295.734298 123.953073 
L 295.675101 130.155688 
L 295.557123 140.358895 
L 295.381192 119.766414 
L 295.322822 121.351627 
L 295.206487 142.656144 
L 295.148522 138.246758 
L 294.975427 112.946955 
L 294.803519 145.032629 
L 294.746477 142.502399 
L 294.576127 126.263459 
L 294.406927 144.94301 
L 294.350781 142.747506 
L 294.238863 129.71539 
L 294.183091 133.447844 
L 294.071918 145.028735 
L 293.906077 127.638101 
L 293.85104 133.415721 
L 293.741328 144.878828 
L 293.577654 129.257064 
L 293.469129 138.216733 
L 293.415042 134.973086 
L 293.307218 123.737257 
L 293.199855 141.130859 
L 293.146346 140.452721 
L 292.9865 111.764465 
L 292.933444 121.708925 
L 292.774947 140.420426 
L 292.669836 132.537856 
L 292.617446 134.052863 
L 292.357124 142.743496 
L 292.305382 142.218404 
L 292.202219 136.929336 
L 292.099478 143.213657 
L 292.048266 140.703086 
L 291.946153 131.481914 
L 291.895253 134.17742 
L 291.793761 144.530147 
L 291.642289 126.622134 
L 291.592001 128.701523 
L 291.491728 143.469488 
L 291.441741 141.372152 
L 291.342066 134.168658 
L 291.292376 134.255914 
L 291.193292 144.217082 
L 291.143896 140.015024 
L 291.045396 133.87386 
L 290.898369 144.309702 
L 290.84955 142.116406 
L 290.800827 139.863103 
L 290.752198 140.168363 
L 290.655223 145.001093 
L 290.606876 144.533856 
L 290.366529 140.802039 
L 290.318735 140.381477 
L 290.22342 143.35189 
L 290.081123 134.910571 
L 290.03387 136.35467 
L 289.93963 143.6501 
L 289.845744 132.984526 
L 289.798932 134.22118 
L 289.659019 143.270831 
L 289.612554 140.168159 
L 289.566176 139.161294 
L 289.519883 140.459089 
L 289.473675 143.364677 
L 289.427552 142.123754 
L 289.335561 137.672326 
L 289.243907 144.8285 
L 289.198205 142.073573 
L 289.10705 128.146671 
L 289.061597 131.134865 
L 288.970937 144.545369 
L 288.835559 117.074599 
L 288.790596 122.643531 
L 288.700909 144.996229 
L 288.656186 135.720967 
L 288.566978 111.127411 
L 288.522494 112.319155 
L 288.43376 143.120849 
L 288.389511 142.609423 
L 288.25723 120.593651 
L 288.125643 143.746684 
L 288.038302 130.700683 
L 287.994745 130.940336 
L 287.864526 144.776643 
L 287.82127 141.600908 
L 287.73498 129.86383 
L 287.691947 130.280857 
L 287.606101 142.663345 
L 287.563288 142.22683 
L 287.435287 126.059317 
L 287.392765 131.397324 
L 287.307936 144.938754 
L 287.265629 142.106992 
L 287.181229 132.416759 
L 287.139135 135.474784 
L 287.05516 144.950764 
L 287.013277 140.018691 
L 286.929721 132.909961 
L 286.888048 136.278649 
L 286.804908 143.948468 
L 286.763441 142.995276 
L 286.722043 141.996273 
L 286.680713 142.696393 
L 286.598257 144.913076 
L 286.55713 143.737769 
L 286.516071 143.624032 
L 286.475079 144.474129 
L 286.434154 143.396615 
L 286.311779 126.053461 
L 286.271119 128.843274 
L 286.189998 144.764 
L 286.149536 142.950714 
L 286.068806 129.82053 
L 286.028539 130.64987 
L 285.868114 139.755637 
L 285.788285 142.457034 
L 285.748465 141.488568 
L 285.669016 134.35353 
L 285.629385 138.512763 
L 285.550312 142.748998 
L 285.510868 142.114424 
L 285.432167 138.613202 
L 285.353713 144.728939 
L 285.314578 144.133664 
L 285.197537 134.285596 
L 285.158645 135.184023 
L 285.042328 144.827895 
L 284.888075 114.554527 
L 284.84966 118.554595 
L 284.773005 143.976472 
L 284.734766 140.43631 
L 284.620396 103.547083 
L 284.582388 114.408632 
L 284.506546 142.229742 
L 284.468711 135.389807 
L 284.393211 100.587805 
L 284.355546 106.935888 
L 284.280386 135.596814 
L 284.205451 125.873632 
L 284.168067 117.642581 
L 284.130739 119.287169 
L 284.019087 134.176662 
L 283.98198 131.051107 
L 283.944928 129.356188 
L 283.834099 142.144038 
L 283.760485 137.130423 
L 283.723758 136.173737 
L 283.613901 144.850716 
L 283.54093 142.483004 
L 283.46817 139.43598 
L 283.43187 141.508822 
L 283.359426 145.012894 
L 283.323282 142.407837 
L 283.251151 137.497317 
L 283.215163 139.243165 
L 283.179227 141.218577 
L 283.143342 140.916716 
L 283.071726 135.134663 
L 283.035995 135.768844 
L 282.964685 139.44572 
L 282.929106 136.72391 
L 282.858099 128.468435 
L 282.822671 133.63147 
L 282.751964 145.010465 
L 282.716685 143.60578 
L 282.646277 136.70339 
L 282.611147 138.763399 
L 282.576066 140.118634 
L 282.506051 138.87985 
L 282.436231 137.528267 
L 282.366605 140.588378 
L 282.297172 139.788602 
L 282.227931 141.429736 
L 282.193382 143.355956 
L 282.158881 140.940792 
L 282.09002 133.956315 
L 282.055661 134.404419 
L 281.987083 143.41881 
L 281.952864 142.705082 
L 281.884566 129.85752 
L 281.816455 135.238124 
L 281.748527 143.919143 
L 281.714633 143.100838 
L 281.613223 132.487555 
L 281.57951 137.59221 
L 281.478645 143.684128 
L 281.411626 142.325485 
L 281.311432 139.190494 
L 281.244859 139.740178 
L 281.211638 139.123561 
L 281.178461 140.150696 
L 281.112239 144.592974 
L 281.046192 142.398132 
L 281.013234 141.411806 
L 280.980318 142.458426 
L 280.914617 145.141429 
L 280.881831 143.863278 
L 280.686011 130.696042 
L 280.653522 131.986504 
L 280.621076 134.0733 
L 280.556309 132.308086 
L 280.491709 123.316111 
L 280.459471 126.141346 
L 280.330934 143.805346 
L 280.298902 141.812145 
L 280.266911 140.271327 
L 280.203052 141.775601 
L 280.139355 144.986203 
L 280.07582 144.118082 
L 280.044112 143.773884 
L 280.012445 144.076078 
L 279.94923 144.832331 
L 279.917683 144.029758 
L 279.854706 141.669923 
L 279.823277 142.332451 
L 279.729226 144.98318 
L 279.697954 143.547217 
L 279.604371 134.432022 
L 279.542176 138.596573 
L 279.480135 144.854913 
L 279.449172 141.096486 
L 279.356512 127.883779 
L 279.325701 135.501767 
L 279.264193 144.705042 
L 279.233496 140.411131 
L 279.172213 130.977439 
L 279.141628 134.335627 
L 279.08057 144.599564 
L 279.050096 141.797573 
L 278.958897 127.861138 
L 278.928572 130.961066 
L 278.898282 136.800467 
L 278.837813 127.644439 
L 278.807633 124.830329 
L 278.77749 128.53181 
L 278.687276 135.164545 
L 278.627313 121.280228 
L 278.597386 126.698207 
L 278.507817 141.419228 
L 278.478032 136.162139 
L 278.448282 131.109011 
L 278.388888 135.797918 
L 278.30006 144.582434 
L 278.27052 141.168615 
L 278.211546 136.204043 
L 278.18211 137.26939 
L 278.094011 143.742641 
L 278.064713 141.144085 
L 278.00622 136.467647 
L 277.947864 140.227289 
L 277.860583 144.590864 
L 277.802564 143.027519 
L 277.773605 142.882205 
L 277.715787 145.01254 
L 277.686927 144.733971 
L 277.571822 134.822864 
L 277.543128 140.412712 
L 277.485839 143.877211 
L 277.457243 142.425791 
L 277.40015 136.338111 
L 277.371652 138.215818 
L 277.257983 145.152 
L 277.229646 145.077147 
L 277.116617 143.29102 
L 277.08844 144.001187 
L 277.060294 144.719571 
L 277.032179 144.408846 
L 276.948025 140.116947 
L 276.920036 142.953452 
L 276.892079 144.974217 
L 276.864152 144.455242 
L 276.808393 133.477939 
L 276.752757 139.87537 
L 276.697244 144.927157 
L 276.669534 140.063265 
L 276.614205 127.873838 
L 276.558999 135.149827 
L 276.476416 144.990487 
L 276.448949 142.120519 
L 276.394104 133.707009 
L 276.33938 137.397012 
L 276.284775 145.149218 
L 276.230288 142.257327 
L 276.203089 141.755678 
L 276.17592 142.878877 
L 276.14878 143.883725 
L 276.040513 129.521307 
L 275.959619 130.675153 
L 275.932712 130.834651 
L 275.825372 137.146044 
L 275.798609 132.97427 
L 275.718491 129.123154 
L 275.691841 132.117922 
L 275.638628 138.70961 
L 275.585527 133.512961 
L 275.532538 127.484386 
L 275.506086 130.822462 
L 275.426896 140.685105 
L 275.400554 139.326838 
L 275.347955 126.615447 
L 275.295466 135.319319 
L 275.216938 144.858383 
L 275.164722 139.600287 
L 275.138655 139.480251 
L 275.086602 140.858364 
L 275.034656 136.74294 
L 275.008724 142.878082 
L 274.982819 144.723417 
L 274.931088 141.912752 
L 274.879464 127.878981 
L 274.802226 136.337006 
L 274.750867 137.752911 
L 274.699612 128.123871 
L 274.622927 132.920424 
L 274.546475 131.898047 
L 274.4449 138.129383 
L 274.368989 131.194964 
L 274.343736 136.049037 
L 274.293307 142.410445 
L 274.242979 135.787803 
L 274.217853 131.843947 
L 274.192752 135.576493 
L 274.142625 144.796515 
L 274.067622 141.989994 
L 273.992843 144.563986 
L 273.967967 142.54655 
L 273.918287 136.154344 
L 273.843952 138.730805 
L 273.794518 144.113124 
L 273.74518 137.628748 
L 273.69594 127.472764 
L 273.646797 137.751032 
L 273.499941 143.601142 
L 273.426835 143.411176 
L 273.353942 144.661893 
L 273.257079 142.838402 
L 273.232922 143.700722 
L 273.112483 145.045344 
L 273.088465 144.964833 
L 273.016548 135.392093 
L 272.944836 142.142078 
L 272.920978 144.354157 
L 272.873329 141.437874 
L 272.849539 140.462952 
L 272.802026 142.818361 
L 272.754603 144.617095 
L 272.70727 141.960503 
L 272.683636 141.292414 
L 272.683636 141.292414 
" style="fill:none;stroke:#1f77b4;stroke-linecap:square;stroke-width:1.5;"/>
   </g>
   <g id="patch_3">
    <path d="M 265.92 150.089143 
L 265.92 41.472 
" style="fill:none;stroke:#000000;stroke-linecap:square;stroke-linejoin:miter;stroke-width:0.8;"/>
   </g>
   <g id="patch_4">
    <path d="M 414.72 150.089143 
L 414.72 41.472 
" style="fill:none;stroke:#000000;stroke-linecap:square;stroke-linejoin:miter;stroke-width:0.8;"/>
   </g>
   <g id="patch_5">
    <path d="M 265.92 150.089143 
L 414.72 150.089143 
" style="fill:none;stroke:#000000;stroke-linecap:square;stroke-linejoin:miter;stroke-width:0.8;"/>
   </g>
   <g id="patch_6">
    <path d="M 265.92 41.472 
L 414.72 41.472 
" style="fill:none;stroke:#000000;stroke-linecap:square;stroke-linejoin:miter;stroke-width:0.8;"/>
   </g>
   <g id="text_8">
    <!-- Periodogram -->
    <g transform="translate(307.698125 35.472)scale(0.1 -0.1)">
     <defs>
      <path d="M 52.484375 46.6875 
L 52.484375 1.125 
Q 52.484375 -10.0625 46.328125 -16.140625 
Q 40.1875 -22.21875 28.8125 -22.21875 
Q 23.6875 -22.21875 19 -21.28125 
Q 14.3125 -20.359375 10.015625 -18.5 
L 10.015625 -7.625 
L 14.703125 -7.625 
Q 15.578125 -12.703125 18.84375 -15.046875 
Q 22.125 -17.390625 28.21875 -17.390625 
Q 36.140625 -17.390625 39.8125 -12.921875 
Q 43.5 -8.453125 43.5 1.125 
L 43.5 8.109375 
Q 40.875 3.21875 36.796875 0.890625 
Q 32.71875 -1.421875 26.703125 -1.421875 
Q 17.140625 -1.421875 11.0625 6.171875 
Q 4.984375 13.765625 4.984375 25.984375 
Q 4.984375 38.1875 11.03125 45.75 
Q 17.09375 53.328125 26.703125 53.328125 
Q 32.71875 53.328125 36.796875 51 
Q 40.875 48.6875 43.5 43.796875 
L 43.5 51.90625 
L 61.078125 51.90625 
L 61.078125 46.6875 
z
M 43.5 28.515625 
Q 43.5 37.84375 39.90625 42.765625 
Q 36.328125 47.703125 29.5 47.703125 
Q 22.5625 47.703125 19.015625 42.234375 
Q 15.484375 36.765625 15.484375 25.984375 
Q 15.484375 15.234375 19.015625 9.71875 
Q 22.5625 4.203125 29.5 4.203125 
Q 36.328125 4.203125 39.90625 9.109375 
Q 43.5 14.015625 43.5 23.390625 
z
" id="DejaVuSerif-103"/>
      <path d="M 39.796875 16.3125 
L 39.796875 27.296875 
L 28.21875 27.296875 
Q 21.53125 27.296875 18.25 24.40625 
Q 14.984375 21.53125 14.984375 15.578125 
Q 14.984375 10.15625 18.296875 6.984375 
Q 21.625 3.8125 27.296875 3.8125 
Q 32.90625 3.8125 36.34375 7.28125 
Q 39.796875 10.75 39.796875 16.3125 
z
M 48.78125 32.421875 
L 48.78125 5.171875 
L 56.78125 5.171875 
L 56.78125 0 
L 39.796875 0 
L 39.796875 5.609375 
Q 36.8125 2 32.90625 0.28125 
Q 29 -1.421875 23.78125 -1.421875 
Q 15.140625 -1.421875 10.0625 3.171875 
Q 4.984375 7.765625 4.984375 15.578125 
Q 4.984375 23.640625 10.796875 28.078125 
Q 16.609375 32.515625 27.203125 32.515625 
L 39.796875 32.515625 
L 39.796875 36.078125 
Q 39.796875 42 36.203125 45.234375 
Q 32.625 48.484375 26.125 48.484375 
Q 20.75 48.484375 17.578125 46.046875 
Q 14.40625 43.609375 13.625 38.8125 
L 8.984375 38.8125 
L 8.984375 49.3125 
Q 13.671875 51.3125 18.09375 52.3125 
Q 22.515625 53.328125 26.703125 53.328125 
Q 37.5 53.328125 43.140625 47.96875 
Q 48.78125 42.625 48.78125 32.421875 
z
" id="DejaVuSerif-97"/>
      <path d="M 51.8125 41.796875 
Q 54.390625 47.515625 58.421875 50.421875 
Q 62.453125 53.328125 67.828125 53.328125 
Q 75.984375 53.328125 79.984375 48.265625 
Q 83.984375 43.21875 83.984375 33.015625 
L 83.984375 5.171875 
L 92.09375 5.171875 
L 92.09375 0 
L 67.1875 0 
L 67.1875 5.171875 
L 75 5.171875 
L 75 31.984375 
Q 75 39.9375 72.65625 43.3125 
Q 70.3125 46.6875 64.890625 46.6875 
Q 58.890625 46.6875 55.734375 42.140625 
Q 52.59375 37.59375 52.59375 28.90625 
L 52.59375 5.171875 
L 60.40625 5.171875 
L 60.40625 0 
L 35.796875 0 
L 35.796875 5.171875 
L 43.609375 5.171875 
L 43.609375 32.328125 
Q 43.609375 40.09375 41.265625 43.390625 
Q 38.921875 46.6875 33.5 46.6875 
Q 27.484375 46.6875 24.328125 42.140625 
Q 21.1875 37.59375 21.1875 28.90625 
L 21.1875 5.171875 
L 29 5.171875 
L 29 0 
L 4.109375 0 
L 4.109375 5.171875 
L 12.203125 5.171875 
L 12.203125 46.78125 
L 3.609375 46.78125 
L 3.609375 51.90625 
L 21.1875 51.90625 
L 21.1875 42.671875 
Q 23.6875 47.859375 27.53125 50.59375 
Q 31.390625 53.328125 36.28125 53.328125 
Q 42.328125 53.328125 46.375 50.3125 
Q 50.4375 47.3125 51.8125 41.796875 
z
" id="DejaVuSerif-109"/>
     </defs>
     <use xlink:href="#DejaVuSerif-80"/>
     <use x="62.785156" xlink:href="#DejaVuSerif-101"/>
     <use x="121.964844" xlink:href="#DejaVuSerif-114"/>
     <use x="169.767578" xlink:href="#DejaVuSerif-105"/>
     <use x="201.75" xlink:href="#DejaVuSerif-111"/>
     <use x="261.955078" xlink:href="#DejaVuSerif-100"/>
     <use x="325.96875" xlink:href="#DejaVuSerif-111"/>
     <use x="386.173828" xlink:href="#DejaVuSerif-103"/>
     <use x="450.1875" xlink:href="#DejaVuSerif-114"/>
     <use x="497.990234" xlink:href="#DejaVuSerif-97"/>
     <use x="557.609375" xlink:href="#DejaVuSerif-109"/>
    </g>
   </g>
   <g id="legend_1">
    <g id="patch_7">
     <path d="M 419.648125 108.123071 
L 454.431875 108.123071 
Q 455.231875 108.123071 455.231875 107.323071 
L 455.231875 84.238071 
Q 455.231875 83.438071 454.431875 83.438071 
L 419.648125 83.438071 
Q 418.848125 83.438071 418.848125 84.238071 
L 418.848125 107.323071 
Q 418.848125 108.123071 419.648125 108.123071 
z
" style="fill:#ffffff;opacity:0.8;stroke:#cccccc;stroke-linejoin:miter;"/>
    </g>
    <g id="line2d_27">
     <path d="M 420.448125 86.677446 
L 428.448125 86.677446 
" style="fill:none;stroke:#808080;stroke-dasharray:5.55,2.4;stroke-dashoffset:0;stroke-width:1.5;"/>
    </g>
    <g id="text_9">
     <!-- 99.9% FAP -->
     <g transform="translate(431.648125 88.077446)scale(0.04 -0.04)">
      <defs>
       <path d="M 46.78125 32.671875 
Q 43.5 29 39.25 27.1875 
Q 35.015625 25.390625 29.6875 25.390625 
Q 18.84375 25.390625 12.5625 31.9375 
Q 6.296875 38.484375 6.296875 49.8125 
Q 6.296875 60.890625 13.109375 67.546875 
Q 19.921875 74.21875 31.296875 74.21875 
Q 43.65625 74.21875 50.265625 65.015625 
Q 56.890625 55.8125 56.890625 38.71875 
Q 56.890625 19.578125 49.015625 9.078125 
Q 41.15625 -1.421875 26.90625 -1.421875 
Q 23.046875 -1.421875 18.796875 -0.6875 
Q 14.546875 0.046875 10.109375 1.515625 
L 10.109375 13.625 
L 15.578125 13.625 
Q 16.21875 8.6875 19.390625 6.046875 
Q 22.5625 3.421875 27.875 3.421875 
Q 37.359375 3.421875 41.984375 10.5625 
Q 46.625 17.71875 46.78125 32.671875 
z
M 30.90625 69.390625 
Q 23.96875 69.390625 20.28125 64.328125 
Q 16.609375 59.28125 16.609375 49.8125 
Q 16.609375 40.328125 20.28125 35.25 
Q 23.96875 30.171875 30.90625 30.171875 
Q 37.84375 30.171875 41.53125 35.078125 
Q 45.21875 39.984375 45.21875 49.21875 
Q 45.21875 58.9375 41.5 64.15625 
Q 37.796875 69.390625 30.90625 69.390625 
z
" id="DejaVuSerif-57"/>
       <path d="M 22.40625 69.671875 
Q 18.109375 69.671875 15.6875 65.625 
Q 13.28125 61.578125 13.28125 54.296875 
Q 13.28125 47.125 15.75 43.015625 
Q 18.21875 38.921875 22.40625 38.921875 
Q 26.5625 38.921875 28.96875 43 
Q 31.390625 47.078125 31.390625 54.296875 
Q 31.390625 61.53125 28.96875 65.59375 
Q 26.5625 69.671875 22.40625 69.671875 
z
M 72.703125 33.890625 
Q 68.453125 33.890625 66.03125 29.78125 
Q 63.625 25.6875 63.625 18.40625 
Q 63.625 11.234375 66.0625 7.15625 
Q 68.5 3.078125 72.703125 3.078125 
Q 76.90625 3.078125 79.296875 7.15625 
Q 81.6875 11.234375 81.6875 18.40625 
Q 81.6875 25.640625 79.265625 29.765625 
Q 76.859375 33.890625 72.703125 33.890625 
z
M 72.703125 38.28125 
Q 80.421875 38.28125 84.953125 32.90625 
Q 89.5 27.546875 89.5 18.40625 
Q 89.5 9.28125 84.9375 3.921875 
Q 80.375 -1.421875 72.703125 -1.421875 
Q 64.890625 -1.421875 60.34375 3.921875 
Q 55.8125 9.28125 55.8125 18.40625 
Q 55.8125 27.59375 60.375 32.9375 
Q 64.9375 38.28125 72.703125 38.28125 
z
M 66.609375 74.21875 
L 74.03125 74.21875 
L 28.421875 -1.421875 
L 21 -1.421875 
z
M 22.3125 74.21875 
Q 30.03125 74.21875 34.609375 68.875 
Q 39.203125 63.53125 39.203125 54.390625 
Q 39.203125 45.171875 34.640625 39.84375 
Q 30.078125 34.515625 22.3125 34.515625 
Q 14.546875 34.515625 10.03125 39.859375 
Q 5.515625 45.21875 5.515625 54.390625 
Q 5.515625 63.484375 10.046875 68.84375 
Q 14.59375 74.21875 22.3125 74.21875 
z
" id="DejaVuSerif-37"/>
       <path d="M 5.515625 0 
L 5.515625 5.171875 
L 14.796875 5.171875 
L 14.796875 67.671875 
L 5.515625 67.671875 
L 5.515625 72.90625 
L 65.1875 72.90625 
L 65.1875 56.6875 
L 59.1875 56.6875 
L 59.1875 66.890625 
L 24.703125 66.890625 
L 24.703125 42.484375 
L 49.609375 42.484375 
L 49.609375 51.609375 
L 55.609375 51.609375 
L 55.609375 27.390625 
L 49.609375 27.390625 
L 49.609375 36.53125 
L 24.703125 36.53125 
L 24.703125 5.171875 
L 36.375 5.171875 
L 36.375 0 
z
" id="DejaVuSerif-70"/>
       <path d="M 20.015625 26.421875 
L 46.78125 26.421875 
L 33.40625 61.078125 
z
M -0.59375 0 
L -0.59375 5.171875 
L 5.8125 5.171875 
L 31.78125 72.90625 
L 39.984375 72.90625 
L 66.015625 5.171875 
L 73.1875 5.171875 
L 73.1875 0 
L 46.6875 0 
L 46.6875 5.171875 
L 54.78125 5.171875 
L 48.6875 21.1875 
L 18.015625 21.1875 
L 11.921875 5.171875 
L 19.921875 5.171875 
L 19.921875 0 
z
" id="DejaVuSerif-65"/>
      </defs>
      <use xlink:href="#DejaVuSerif-57"/>
      <use x="63.623047" xlink:href="#DejaVuSerif-57"/>
      <use x="127.246094" xlink:href="#DejaVuSerif-46"/>
      <use x="159.033203" xlink:href="#DejaVuSerif-57"/>
      <use x="222.65625" xlink:href="#DejaVuSerif-37"/>
      <use x="317.675781" xlink:href="#DejaVuSerif-32"/>
      <use x="349.462891" xlink:href="#DejaVuSerif-70"/>
      <use x="410.097656" xlink:href="#DejaVuSerif-65"/>
      <use x="482.314453" xlink:href="#DejaVuSerif-80"/>
     </g>
    </g>
    <g id="line2d_28">
     <path d="M 420.448125 92.548696 
L 428.448125 92.548696 
" style="fill:none;stroke:#a9a9a9;stroke-dasharray:5.55,2.4;stroke-dashoffset:0;stroke-width:1.5;"/>
    </g>
    <g id="text_10">
     <!-- 99.0% FAP -->
     <g transform="translate(431.648125 93.948696)scale(0.04 -0.04)">
      <use xlink:href="#DejaVuSerif-57"/>
      <use x="63.623047" xlink:href="#DejaVuSerif-57"/>
      <use x="127.246094" xlink:href="#DejaVuSerif-46"/>
      <use x="159.033203" xlink:href="#DejaVuSerif-48"/>
      <use x="222.65625" xlink:href="#DejaVuSerif-37"/>
      <use x="317.675781" xlink:href="#DejaVuSerif-32"/>
      <use x="349.462891" xlink:href="#DejaVuSerif-70"/>
      <use x="410.097656" xlink:href="#DejaVuSerif-65"/>
      <use x="482.314453" xlink:href="#DejaVuSerif-80"/>
     </g>
    </g>
    <g id="line2d_29">
     <path d="M 420.448125 98.419946 
L 428.448125 98.419946 
" style="fill:none;stroke:#c0c0c0;stroke-dasharray:5.55,2.4;stroke-dashoffset:0;stroke-width:1.5;"/>
    </g>
    <g id="text_11">
     <!-- 95.0% FAP -->
     <g transform="translate(431.648125 99.819946)scale(0.04 -0.04)">
      <defs>
       <path d="M 50.296875 72.90625 
L 50.296875 64.890625 
L 16.890625 64.890625 
L 16.890625 44 
Q 19.4375 45.75 22.828125 46.625 
Q 26.21875 47.515625 30.421875 47.515625 
Q 42.234375 47.515625 49.0625 40.96875 
Q 55.90625 34.421875 55.90625 23.09375 
Q 55.90625 11.53125 49 5.046875 
Q 42.09375 -1.421875 29.59375 -1.421875 
Q 24.5625 -1.421875 19.28125 -0.1875 
Q 14.015625 1.03125 8.5 3.515625 
L 8.5 17.671875 
L 14.015625 17.671875 
Q 14.453125 10.75 18.421875 7.078125 
Q 22.40625 3.421875 29.59375 3.421875 
Q 37.3125 3.421875 41.453125 8.5 
Q 45.609375 13.578125 45.609375 23.09375 
Q 45.609375 32.5625 41.484375 37.609375 
Q 37.359375 42.671875 29.59375 42.671875 
Q 25.203125 42.671875 21.84375 41.109375 
Q 18.5 39.546875 15.921875 36.28125 
L 11.71875 36.28125 
L 11.71875 72.90625 
z
" id="DejaVuSerif-53"/>
      </defs>
      <use xlink:href="#DejaVuSerif-57"/>
      <use x="63.623047" xlink:href="#DejaVuSerif-53"/>
      <use x="127.246094" xlink:href="#DejaVuSerif-46"/>
      <use x="159.033203" xlink:href="#DejaVuSerif-48"/>
      <use x="222.65625" xlink:href="#DejaVuSerif-37"/>
      <use x="317.675781" xlink:href="#DejaVuSerif-32"/>
      <use x="349.462891" xlink:href="#DejaVuSerif-70"/>
      <use x="410.097656" xlink:href="#DejaVuSerif-65"/>
      <use x="482.314453" xlink:href="#DejaVuSerif-80"/>
     </g>
    </g>
    <g id="line2d_30">
     <path d="M 420.448125 104.291196 
L 428.448125 104.291196 
" style="fill:none;stroke:#d3d3d3;stroke-dasharray:5.55,2.4;stroke-dashoffset:0;stroke-width:1.5;"/>
    </g>
    <g id="text_12">
     <!-- 90.0% FAP -->
     <g transform="translate(431.648125 105.691196)scale(0.04 -0.04)">
      <use xlink:href="#DejaVuSerif-57"/>
      <use x="63.623047" xlink:href="#DejaVuSerif-48"/>
      <use x="127.246094" xlink:href="#DejaVuSerif-46"/>
      <use x="159.033203" xlink:href="#DejaVuSerif-48"/>
      <use x="222.65625" xlink:href="#DejaVuSerif-37"/>
      <use x="317.675781" xlink:href="#DejaVuSerif-32"/>
      <use x="349.462891" xlink:href="#DejaVuSerif-70"/>
      <use x="410.097656" xlink:href="#DejaVuSerif-65"/>
      <use x="482.314453" xlink:href="#DejaVuSerif-80"/>
     </g>
    </g>
   </g>
  </g>
  <g id="axes_2">
   <g id="patch_8">
    <path d="M 57.6 150.089143 
L 206.4 150.089143 
L 206.4 41.472 
L 57.6 41.472 
z
" style="fill:#ffffff;"/>
   </g>
   <g id="PathCollection_1">
    <defs>
     <path d="M 0 0.707107 
C 0.187527 0.707107 0.367398 0.632602 0.5 0.5 
C 0.632602 0.367398 0.707107 0.187527 0.707107 0 
C 0.707107 -0.187527 0.632602 -0.367398 0.5 -0.5 
C 0.367398 -0.632602 0.187527 -0.707107 0 -0.707107 
C -0.187527 -0.707107 -0.367398 -0.632602 -0.5 -0.5 
C -0.632602 -0.367398 -0.707107 -0.187527 -0.707107 0 
C -0.707107 0.187527 -0.632602 0.367398 -0.5 0.5 
C -0.367398 0.632602 -0.187527 0.707107 0 0.707107 
z
" id="m67d0c489d4" style="stroke:#1f77b4;"/>
    </defs>
    <g clip-path="url(#p09089cf920)">
     <use style="fill:#1f77b4;stroke:#1f77b4;" x="96.764152" xlink:href="#m67d0c489d4" y="108.055839"/>
     <use style="fill:#1f77b4;stroke:#1f77b4;" x="96.765397" xlink:href="#m67d0c489d4" y="86.966312"/>
     <use style="fill:#1f77b4;stroke:#1f77b4;" x="94.780296" xlink:href="#m67d0c489d4" y="108.785489"/>
     <use style="fill:#1f77b4;stroke:#1f77b4;" x="94.78154" xlink:href="#m67d0c489d4" y="107.911861"/>
     <use style="fill:#1f77b4;stroke:#1f77b4;" x="100.390794" xlink:href="#m67d0c489d4" y="82.845203"/>
     <use style="fill:#1f77b4;stroke:#1f77b4;" x="108.367868" xlink:href="#m67d0c489d4" y="86.560531"/>
     <use style="fill:#1f77b4;stroke:#1f77b4;" x="108.376516" xlink:href="#m67d0c489d4" y="89.419602"/>
     <use style="fill:#1f77b4;stroke:#1f77b4;" x="109.186057" xlink:href="#m67d0c489d4" y="95.869932"/>
     <use style="fill:#1f77b4;stroke:#1f77b4;" x="111.87089" xlink:href="#m67d0c489d4" y="76.413481"/>
     <use style="fill:#1f77b4;stroke:#1f77b4;" x="111.872103" xlink:href="#m67d0c489d4" y="116.072168"/>
     <use style="fill:#1f77b4;stroke:#1f77b4;" x="117.302429" xlink:href="#m67d0c489d4" y="55.421999"/>
     <use style="fill:#1f77b4;stroke:#1f77b4;" x="117.303673" xlink:href="#m67d0c489d4" y="98.868036"/>
     <use style="fill:#1f77b4;stroke:#1f77b4;" x="122.592523" xlink:href="#m67d0c489d4" y="65.246416"/>
     <use style="fill:#1f77b4;stroke:#1f77b4;" x="122.593767" xlink:href="#m67d0c489d4" y="67.631458"/>
     <use style="fill:#1f77b4;stroke:#1f77b4;" x="125.253808" xlink:href="#m67d0c489d4" y="90.553797"/>
     <use style="fill:#1f77b4;stroke:#1f77b4;" x="125.255052" xlink:href="#m67d0c489d4" y="71.776119"/>
     <use style="fill:#1f77b4;stroke:#1f77b4;" x="128.085032" xlink:href="#m67d0c489d4" y="84.766106"/>
     <use style="fill:#1f77b4;stroke:#1f77b4;" x="128.086245" xlink:href="#m67d0c489d4" y="78.189234"/>
     <use style="fill:#1f77b4;stroke:#1f77b4;" x="130.656821" xlink:href="#m67d0c489d4" y="91.395155"/>
     <use style="fill:#1f77b4;stroke:#1f77b4;" x="130.658066" xlink:href="#m67d0c489d4" y="64.228809"/>
     <use style="fill:#1f77b4;stroke:#1f77b4;" x="64.363636" xlink:href="#m67d0c489d4" y="77.145603"/>
     <use style="fill:#1f77b4;stroke:#1f77b4;" x="64.36485" xlink:href="#m67d0c489d4" y="80.797628"/>
     <use style="fill:#1f77b4;stroke:#1f77b4;" x="88.572272" xlink:href="#m67d0c489d4" y="121.554597"/>
     <use style="fill:#1f77b4;stroke:#1f77b4;" x="107.232219" xlink:href="#m67d0c489d4" y="58.078798"/>
     <use style="fill:#1f77b4;stroke:#1f77b4;" x="109.907658" xlink:href="#m67d0c489d4" y="46.409143"/>
     <use style="fill:#1f77b4;stroke:#1f77b4;" x="112.595944" xlink:href="#m67d0c489d4" y="99.922792"/>
     <use style="fill:#1f77b4;stroke:#1f77b4;" x="115.278662" xlink:href="#m67d0c489d4" y="71.426225"/>
     <use style="fill:#1f77b4;stroke:#1f77b4;" x="117.977649" xlink:href="#m67d0c489d4" y="103.238521"/>
     <use style="fill:#1f77b4;stroke:#1f77b4;" x="81.291664" xlink:href="#m67d0c489d4" y="132.794919"/>
     <use style="fill:#1f77b4;stroke:#1f77b4;" x="104.940525" xlink:href="#m67d0c489d4" y="96.484165"/>
     <use style="fill:#1f77b4;stroke:#1f77b4;" x="108.020327" xlink:href="#m67d0c489d4" y="94.931763"/>
     <use style="fill:#1f77b4;stroke:#1f77b4;" x="110.757576" xlink:href="#m67d0c489d4" y="66.204362"/>
     <use style="fill:#1f77b4;stroke:#1f77b4;" x="129.515853" xlink:href="#m67d0c489d4" y="128.671338"/>
     <use style="fill:#1f77b4;stroke:#1f77b4;" x="68.651998" xlink:href="#m67d0c489d4" y="80.375712"/>
     <use style="fill:#1f77b4;stroke:#1f77b4;" x="106.629847" xlink:href="#m67d0c489d4" y="69.296739"/>
     <use style="fill:#1f77b4;stroke:#1f77b4;" x="117.380441" xlink:href="#m67d0c489d4" y="103.430904"/>
     <use style="fill:#1f77b4;stroke:#1f77b4;" x="75.25878" xlink:href="#m67d0c489d4" y="111.944878"/>
     <use style="fill:#1f77b4;stroke:#1f77b4;" x="65.384734" xlink:href="#m67d0c489d4" y="127.391929"/>
     <use style="fill:#1f77b4;stroke:#1f77b4;" x="101.477268" xlink:href="#m67d0c489d4" y="56.274483"/>
     <use style="fill:#1f77b4;stroke:#1f77b4;" x="88.802886" xlink:href="#m67d0c489d4" y="96.547469"/>
     <use style="fill:#1f77b4;stroke:#1f77b4;" x="88.804099" xlink:href="#m67d0c489d4" y="94.322475"/>
     <use style="fill:#1f77b4;stroke:#1f77b4;" x="91.421928" xlink:href="#m67d0c489d4" y="145.152"/>
     <use style="fill:#1f77b4;stroke:#1f77b4;" x="91.423141" xlink:href="#m67d0c489d4" y="137.586083"/>
     <use style="fill:#1f77b4;stroke:#1f77b4;" x="93.993686" xlink:href="#m67d0c489d4" y="143.6009"/>
     <use style="fill:#1f77b4;stroke:#1f77b4;" x="93.994899" xlink:href="#m67d0c489d4" y="117.972056"/>
    </g>
   </g>
   <g id="PathCollection_2">
    <g clip-path="url(#p09089cf920)">
     <use style="fill:#1f77b4;stroke:#1f77b4;" x="165.74245" xlink:href="#m67d0c489d4" y="108.055839"/>
     <use style="fill:#1f77b4;stroke:#1f77b4;" x="165.743695" xlink:href="#m67d0c489d4" y="86.966312"/>
     <use style="fill:#1f77b4;stroke:#1f77b4;" x="163.758594" xlink:href="#m67d0c489d4" y="108.785489"/>
     <use style="fill:#1f77b4;stroke:#1f77b4;" x="163.759838" xlink:href="#m67d0c489d4" y="107.911861"/>
     <use style="fill:#1f77b4;stroke:#1f77b4;" x="169.369092" xlink:href="#m67d0c489d4" y="82.845203"/>
     <use style="fill:#1f77b4;stroke:#1f77b4;" x="177.346166" xlink:href="#m67d0c489d4" y="86.560531"/>
     <use style="fill:#1f77b4;stroke:#1f77b4;" x="177.354814" xlink:href="#m67d0c489d4" y="89.419602"/>
     <use style="fill:#1f77b4;stroke:#1f77b4;" x="178.164355" xlink:href="#m67d0c489d4" y="95.869932"/>
     <use style="fill:#1f77b4;stroke:#1f77b4;" x="180.849188" xlink:href="#m67d0c489d4" y="76.413481"/>
     <use style="fill:#1f77b4;stroke:#1f77b4;" x="180.850401" xlink:href="#m67d0c489d4" y="116.072168"/>
     <use style="fill:#1f77b4;stroke:#1f77b4;" x="186.280727" xlink:href="#m67d0c489d4" y="55.421999"/>
     <use style="fill:#1f77b4;stroke:#1f77b4;" x="186.281971" xlink:href="#m67d0c489d4" y="98.868036"/>
     <use style="fill:#1f77b4;stroke:#1f77b4;" x="191.570821" xlink:href="#m67d0c489d4" y="65.246416"/>
     <use style="fill:#1f77b4;stroke:#1f77b4;" x="191.572065" xlink:href="#m67d0c489d4" y="67.631458"/>
     <use style="fill:#1f77b4;stroke:#1f77b4;" x="194.232106" xlink:href="#m67d0c489d4" y="90.553797"/>
     <use style="fill:#1f77b4;stroke:#1f77b4;" x="194.23335" xlink:href="#m67d0c489d4" y="71.776119"/>
     <use style="fill:#1f77b4;stroke:#1f77b4;" x="197.06333" xlink:href="#m67d0c489d4" y="84.766106"/>
     <use style="fill:#1f77b4;stroke:#1f77b4;" x="197.064543" xlink:href="#m67d0c489d4" y="78.189234"/>
     <use style="fill:#1f77b4;stroke:#1f77b4;" x="199.635119" xlink:href="#m67d0c489d4" y="91.395155"/>
     <use style="fill:#1f77b4;stroke:#1f77b4;" x="199.636364" xlink:href="#m67d0c489d4" y="64.228809"/>
     <use style="fill:#1f77b4;stroke:#1f77b4;" x="133.341934" xlink:href="#m67d0c489d4" y="77.145603"/>
     <use style="fill:#1f77b4;stroke:#1f77b4;" x="133.343148" xlink:href="#m67d0c489d4" y="80.797628"/>
     <use style="fill:#1f77b4;stroke:#1f77b4;" x="157.55057" xlink:href="#m67d0c489d4" y="121.554597"/>
     <use style="fill:#1f77b4;stroke:#1f77b4;" x="176.210517" xlink:href="#m67d0c489d4" y="58.078798"/>
     <use style="fill:#1f77b4;stroke:#1f77b4;" x="178.885956" xlink:href="#m67d0c489d4" y="46.409143"/>
     <use style="fill:#1f77b4;stroke:#1f77b4;" x="181.574242" xlink:href="#m67d0c489d4" y="99.922792"/>
     <use style="fill:#1f77b4;stroke:#1f77b4;" x="184.25696" xlink:href="#m67d0c489d4" y="71.426225"/>
     <use style="fill:#1f77b4;stroke:#1f77b4;" x="186.955947" xlink:href="#m67d0c489d4" y="103.238521"/>
     <use style="fill:#1f77b4;stroke:#1f77b4;" x="150.269962" xlink:href="#m67d0c489d4" y="132.794919"/>
     <use style="fill:#1f77b4;stroke:#1f77b4;" x="173.918823" xlink:href="#m67d0c489d4" y="96.484165"/>
     <use style="fill:#1f77b4;stroke:#1f77b4;" x="176.998625" xlink:href="#m67d0c489d4" y="94.931763"/>
     <use style="fill:#1f77b4;stroke:#1f77b4;" x="179.735874" xlink:href="#m67d0c489d4" y="66.204362"/>
     <use style="fill:#1f77b4;stroke:#1f77b4;" x="198.494151" xlink:href="#m67d0c489d4" y="128.671338"/>
     <use style="fill:#1f77b4;stroke:#1f77b4;" x="137.630296" xlink:href="#m67d0c489d4" y="80.375712"/>
     <use style="fill:#1f77b4;stroke:#1f77b4;" x="175.608145" xlink:href="#m67d0c489d4" y="69.296739"/>
     <use style="fill:#1f77b4;stroke:#1f77b4;" x="186.358739" xlink:href="#m67d0c489d4" y="103.430904"/>
     <use style="fill:#1f77b4;stroke:#1f77b4;" x="144.237078" xlink:href="#m67d0c489d4" y="111.944878"/>
     <use style="fill:#1f77b4;stroke:#1f77b4;" x="134.363032" xlink:href="#m67d0c489d4" y="127.391929"/>
     <use style="fill:#1f77b4;stroke:#1f77b4;" x="170.455566" xlink:href="#m67d0c489d4" y="56.274483"/>
     <use style="fill:#1f77b4;stroke:#1f77b4;" x="157.781184" xlink:href="#m67d0c489d4" y="96.547469"/>
     <use style="fill:#1f77b4;stroke:#1f77b4;" x="157.782397" xlink:href="#m67d0c489d4" y="94.322475"/>
     <use style="fill:#1f77b4;stroke:#1f77b4;" x="160.400226" xlink:href="#m67d0c489d4" y="145.152"/>
     <use style="fill:#1f77b4;stroke:#1f77b4;" x="160.401439" xlink:href="#m67d0c489d4" y="137.586083"/>
     <use style="fill:#1f77b4;stroke:#1f77b4;" x="162.971984" xlink:href="#m67d0c489d4" y="143.6009"/>
     <use style="fill:#1f77b4;stroke:#1f77b4;" x="162.973197" xlink:href="#m67d0c489d4" y="117.972056"/>
    </g>
   </g>
   <g id="matplotlib.axis_3">
    <g id="xtick_23">
     <g id="line2d_31">
      <g>
       <use style="stroke:#000000;stroke-width:0.8;" x="63.494999" xlink:href="#mc019704942" y="150.089143"/>
      </g>
     </g>
     <g id="text_13">
      <!-- 0 -->
      <g transform="translate(60.313749 164.68758)scale(0.1 -0.1)">
       <use xlink:href="#DejaVuSerif-48"/>
      </g>
     </g>
    </g>
    <g id="xtick_24">
     <g id="line2d_32">
      <g>
       <use style="stroke:#000000;stroke-width:0.8;" x="132.473297" xlink:href="#mc019704942" y="150.089143"/>
      </g>
     </g>
     <g id="text_14">
      <!-- 1 -->
      <g transform="translate(129.292047 164.68758)scale(0.1 -0.1)">
       <use xlink:href="#DejaVuSerif-49"/>
      </g>
     </g>
    </g>
    <g id="xtick_25">
     <g id="line2d_33">
      <g>
       <use style="stroke:#000000;stroke-width:0.8;" x="201.451595" xlink:href="#mc019704942" y="150.089143"/>
      </g>
     </g>
     <g id="text_15">
      <!-- 2 -->
      <g transform="translate(198.270345 164.68758)scale(0.1 -0.1)">
       <use xlink:href="#DejaVuSerif-50"/>
      </g>
     </g>
    </g>
    <g id="text_16">
     <!-- Phase (P = 25.665 d) -->
     <g transform="translate(78.401562 178.365705)scale(0.1 -0.1)">
      <defs>
       <path d="M 4.109375 0 
L 4.109375 5.171875 
L 12.203125 5.171875 
L 12.203125 70.796875 
L 3.609375 70.796875 
L 3.609375 75.984375 
L 21.1875 75.984375 
L 21.1875 42.671875 
Q 23.6875 47.953125 27.65625 50.640625 
Q 31.640625 53.328125 36.921875 53.328125 
Q 45.515625 53.328125 49.5625 48.390625 
Q 53.609375 43.453125 53.609375 33.015625 
L 53.609375 5.171875 
L 61.625 5.171875 
L 61.625 0 
L 36.8125 0 
L 36.8125 5.171875 
L 44.578125 5.171875 
L 44.578125 30.171875 
Q 44.578125 39.703125 42.25 43.1875 
Q 39.9375 46.6875 33.984375 46.6875 
Q 27.734375 46.6875 24.453125 42.140625 
Q 21.1875 37.59375 21.1875 28.90625 
L 21.1875 5.171875 
L 29 5.171875 
L 29 0 
z
" id="DejaVuSerif-104"/>
       <path d="M 5.609375 2.875 
L 5.609375 14.984375 
L 10.796875 14.984375 
Q 10.984375 9.1875 14.421875 6.296875 
Q 17.875 3.421875 24.609375 3.421875 
Q 30.671875 3.421875 33.84375 5.6875 
Q 37.015625 7.953125 37.015625 12.3125 
Q 37.015625 15.71875 34.6875 17.8125 
Q 32.375 19.921875 24.90625 22.3125 
L 18.40625 24.515625 
Q 11.71875 26.65625 8.71875 29.875 
Q 5.71875 33.109375 5.71875 38.09375 
Q 5.71875 45.21875 10.9375 49.265625 
Q 16.15625 53.328125 25.390625 53.328125 
Q 29.5 53.328125 34.03125 52.25 
Q 38.578125 51.171875 43.40625 49.125 
L 43.40625 37.796875 
L 38.234375 37.796875 
Q 38.03125 42.828125 34.703125 45.65625 
Q 31.390625 48.484375 25.6875 48.484375 
Q 20.015625 48.484375 17.109375 46.484375 
Q 14.203125 44.484375 14.203125 40.484375 
Q 14.203125 37.203125 16.40625 35.21875 
Q 18.609375 33.25 25.203125 31.203125 
L 32.328125 29 
Q 39.703125 26.703125 42.9375 23.265625 
Q 46.1875 19.828125 46.1875 14.40625 
Q 46.1875 7.03125 40.546875 2.796875 
Q 34.90625 -1.421875 25 -1.421875 
Q 19.96875 -1.421875 15.1875 -0.34375 
Q 10.40625 0.734375 5.609375 2.875 
z
" id="DejaVuSerif-115"/>
       <path d="M 31.890625 -15.578125 
Q 20.015625 -10.25 13.953125 1.296875 
Q 7.90625 12.84375 7.90625 30.171875 
Q 7.90625 47.5625 13.953125 59.109375 
Q 20.015625 70.65625 31.890625 75.984375 
L 31.890625 71.1875 
Q 24.359375 66.015625 21.09375 56.609375 
Q 17.828125 47.21875 17.828125 30.171875 
Q 17.828125 13.1875 21.09375 3.78125 
Q 24.359375 -5.609375 31.890625 -10.796875 
z
" id="DejaVuSerif-40"/>
       <path d="M 10.59375 45.21875 
L 73.1875 45.21875 
L 73.1875 37.40625 
L 10.59375 37.40625 
z
M 10.59375 25.296875 
L 73.1875 25.296875 
L 73.1875 17.484375 
L 10.59375 17.484375 
z
" id="DejaVuSerif-61"/>
       <path d="M 32.71875 3.421875 
Q 39.59375 3.421875 43.296875 8.46875 
Q 47.015625 13.53125 47.015625 23 
Q 47.015625 32.46875 43.296875 37.515625 
Q 39.59375 42.578125 32.71875 42.578125 
Q 25.734375 42.578125 22.0625 37.6875 
Q 18.40625 32.8125 18.40625 23.578125 
Q 18.40625 13.875 22.109375 8.640625 
Q 25.828125 3.421875 32.71875 3.421875 
z
M 16.796875 40.140625 
Q 20.125 43.796875 24.3125 45.59375 
Q 28.515625 47.40625 33.796875 47.40625 
Q 44.671875 47.40625 51 40.859375 
Q 57.328125 34.328125 57.328125 23 
Q 57.328125 11.921875 50.515625 5.25 
Q 43.703125 -1.421875 32.328125 -1.421875 
Q 19.96875 -1.421875 13.328125 7.78125 
Q 6.6875 17 6.6875 34.078125 
Q 6.6875 53.21875 14.546875 63.71875 
Q 22.40625 74.21875 36.71875 74.21875 
Q 40.578125 74.21875 44.828125 73.484375 
Q 49.078125 72.75 53.515625 71.296875 
L 53.515625 59.28125 
L 48 59.28125 
Q 47.40625 64.203125 44.234375 66.796875 
Q 41.0625 69.390625 35.6875 69.390625 
Q 26.21875 69.390625 21.578125 62.203125 
Q 16.9375 55.03125 16.796875 40.140625 
z
" id="DejaVuSerif-54"/>
       <path d="M 7.078125 -15.578125 
L 7.078125 -10.796875 
Q 14.59375 -5.609375 17.890625 3.78125 
Q 21.1875 13.1875 21.1875 30.171875 
Q 21.1875 47.21875 17.890625 56.609375 
Q 14.59375 66.015625 7.078125 71.1875 
L 7.078125 75.984375 
Q 19 70.65625 25.046875 59.109375 
Q 31.109375 47.5625 31.109375 30.171875 
Q 31.109375 12.84375 25.046875 1.296875 
Q 19 -10.25 7.078125 -15.578125 
z
" id="DejaVuSerif-41"/>
      </defs>
      <use xlink:href="#DejaVuSerif-80"/>
      <use x="67.285156" xlink:href="#DejaVuSerif-104"/>
      <use x="131.689453" xlink:href="#DejaVuSerif-97"/>
      <use x="191.308594" xlink:href="#DejaVuSerif-115"/>
      <use x="242.626953" xlink:href="#DejaVuSerif-101"/>
      <use x="301.806641" xlink:href="#DejaVuSerif-32"/>
      <use x="333.59375" xlink:href="#DejaVuSerif-40"/>
      <use x="372.607422" xlink:href="#DejaVuSerif-80"/>
      <use x="439.892578" xlink:href="#DejaVuSerif-32"/>
      <use x="471.679688" xlink:href="#DejaVuSerif-61"/>
      <use x="555.46875" xlink:href="#DejaVuSerif-32"/>
      <use x="587.255859" xlink:href="#DejaVuSerif-50"/>
      <use x="650.878906" xlink:href="#DejaVuSerif-53"/>
      <use x="714.501953" xlink:href="#DejaVuSerif-46"/>
      <use x="746.289062" xlink:href="#DejaVuSerif-54"/>
      <use x="809.912109" xlink:href="#DejaVuSerif-54"/>
      <use x="873.535156" xlink:href="#DejaVuSerif-53"/>
      <use x="937.158203" xlink:href="#DejaVuSerif-32"/>
      <use x="968.945312" xlink:href="#DejaVuSerif-100"/>
      <use x="1032.958984" xlink:href="#DejaVuSerif-41"/>
     </g>
    </g>
   </g>
   <g id="matplotlib.axis_4">
    <g id="ytick_4">
     <g id="line2d_34">
      <g>
       <use style="stroke:#000000;stroke-width:0.8;" x="57.6" xlink:href="#m84460283cb" y="42.862581"/>
      </g>
     </g>
     <g id="text_17">
      <!-- 17.50 -->
      <g transform="translate(21.971875 46.661799)scale(0.1 -0.1)">
       <defs>
        <path d="M 56.390625 67.921875 
L 27.875 0 
L 20.609375 0 
L 47.796875 64.890625 
L 14.109375 64.890625 
L 14.109375 55.90625 
L 8.40625 55.90625 
L 8.40625 72.90625 
L 56.390625 72.90625 
z
" id="DejaVuSerif-55"/>
       </defs>
       <use xlink:href="#DejaVuSerif-49"/>
       <use x="63.623047" xlink:href="#DejaVuSerif-55"/>
       <use x="127.246094" xlink:href="#DejaVuSerif-46"/>
       <use x="159.033203" xlink:href="#DejaVuSerif-53"/>
       <use x="222.65625" xlink:href="#DejaVuSerif-48"/>
      </g>
     </g>
    </g>
    <g id="ytick_5">
     <g id="line2d_35">
      <g>
       <use style="stroke:#000000;stroke-width:0.8;" x="57.6" xlink:href="#m84460283cb" y="75.392686"/>
      </g>
     </g>
     <g id="text_18">
      <!-- 17.55 -->
      <g transform="translate(21.971875 79.191905)scale(0.1 -0.1)">
       <use xlink:href="#DejaVuSerif-49"/>
       <use x="63.623047" xlink:href="#DejaVuSerif-55"/>
       <use x="127.246094" xlink:href="#DejaVuSerif-46"/>
       <use x="159.033203" xlink:href="#DejaVuSerif-53"/>
       <use x="222.65625" xlink:href="#DejaVuSerif-53"/>
      </g>
     </g>
    </g>
    <g id="ytick_6">
     <g id="line2d_36">
      <g>
       <use style="stroke:#000000;stroke-width:0.8;" x="57.6" xlink:href="#m84460283cb" y="107.922791"/>
      </g>
     </g>
     <g id="text_19">
      <!-- 17.60 -->
      <g transform="translate(21.971875 111.72201)scale(0.1 -0.1)">
       <use xlink:href="#DejaVuSerif-49"/>
       <use x="63.623047" xlink:href="#DejaVuSerif-55"/>
       <use x="127.246094" xlink:href="#DejaVuSerif-46"/>
       <use x="159.033203" xlink:href="#DejaVuSerif-54"/>
       <use x="222.65625" xlink:href="#DejaVuSerif-48"/>
      </g>
     </g>
    </g>
    <g id="ytick_7">
     <g id="line2d_37">
      <g>
       <use style="stroke:#000000;stroke-width:0.8;" x="57.6" xlink:href="#m84460283cb" y="140.452896"/>
      </g>
     </g>
     <g id="text_20">
      <!-- 17.65 -->
      <g transform="translate(21.971875 144.252115)scale(0.1 -0.1)">
       <use xlink:href="#DejaVuSerif-49"/>
       <use x="63.623047" xlink:href="#DejaVuSerif-55"/>
       <use x="127.246094" xlink:href="#DejaVuSerif-46"/>
       <use x="159.033203" xlink:href="#DejaVuSerif-54"/>
       <use x="222.65625" xlink:href="#DejaVuSerif-53"/>
      </g>
     </g>
    </g>
    <g id="text_21">
     <!-- Mag -->
     <g transform="translate(15.75 107.082134)rotate(-90)scale(0.1 -0.1)">
      <defs>
       <path d="M 5.515625 0 
L 5.515625 5.171875 
L 14.796875 5.171875 
L 14.796875 67.671875 
L 4.984375 67.671875 
L 4.984375 72.90625 
L 26.21875 72.90625 
L 51.8125 21 
L 77.390625 72.90625 
L 97.3125 72.90625 
L 97.3125 67.671875 
L 87.59375 67.671875 
L 87.59375 5.171875 
L 96.921875 5.171875 
L 96.921875 0 
L 68.40625 0 
L 68.40625 5.171875 
L 77.6875 5.171875 
L 77.6875 61.53125 
L 52.6875 10.6875 
L 45.796875 10.6875 
L 20.796875 61.53125 
L 20.796875 5.171875 
L 30.078125 5.171875 
L 30.078125 0 
z
" id="DejaVuSerif-77"/>
      </defs>
      <use xlink:href="#DejaVuSerif-77"/>
      <use x="102.392578" xlink:href="#DejaVuSerif-97"/>
      <use x="162.011719" xlink:href="#DejaVuSerif-103"/>
     </g>
    </g>
   </g>
   <g id="patch_9">
    <path d="M 57.6 150.089143 
L 57.6 41.472 
" style="fill:none;stroke:#000000;stroke-linecap:square;stroke-linejoin:miter;stroke-width:0.8;"/>
   </g>
   <g id="patch_10">
    <path d="M 206.4 150.089143 
L 206.4 41.472 
" style="fill:none;stroke:#000000;stroke-linecap:square;stroke-linejoin:miter;stroke-width:0.8;"/>
   </g>
   <g id="patch_11">
    <path d="M 57.6 150.089143 
L 206.4 150.089143 
" style="fill:none;stroke:#000000;stroke-linecap:square;stroke-linejoin:miter;stroke-width:0.8;"/>
   </g>
   <g id="patch_12">
    <path d="M 57.6 41.472 
L 206.4 41.472 
" style="fill:none;stroke:#000000;stroke-linecap:square;stroke-linejoin:miter;stroke-width:0.8;"/>
   </g>
   <g id="text_22">
    <!-- Folded Light Curve -->
    <g transform="translate(83.086719 35.472)scale(0.1 -0.1)">
     <defs>
      <path d="M 20.515625 5.171875 
L 29 5.171875 
L 29 0 
L 2.875 0 
L 2.875 5.171875 
L 11.53125 5.171875 
L 11.53125 70.796875 
L 2.875 70.796875 
L 2.875 75.984375 
L 20.515625 75.984375 
z
" id="DejaVuSerif-108"/>
      <path d="M 5.515625 0 
L 5.515625 5.171875 
L 14.796875 5.171875 
L 14.796875 67.671875 
L 5.515625 67.671875 
L 5.515625 72.90625 
L 33.984375 72.90625 
L 33.984375 67.671875 
L 24.703125 67.671875 
L 24.703125 6 
L 58.015625 6 
L 58.015625 18.21875 
L 64.015625 18.21875 
L 64.015625 0 
z
" id="DejaVuSerif-76"/>
      <path d="M 10.796875 46.6875 
L 2.875 46.6875 
L 2.875 51.90625 
L 10.796875 51.90625 
L 10.796875 68.015625 
L 19.828125 68.015625 
L 19.828125 51.90625 
L 36.71875 51.90625 
L 36.71875 46.6875 
L 19.828125 46.6875 
L 19.828125 13.71875 
Q 19.828125 7.125 21.09375 5.265625 
Q 22.359375 3.421875 25.78125 3.421875 
Q 29.296875 3.421875 30.90625 5.484375 
Q 32.515625 7.5625 32.625 12.203125 
L 39.40625 12.203125 
Q 39.015625 5.125 35.546875 1.84375 
Q 32.078125 -1.421875 25 -1.421875 
Q 17.234375 -1.421875 14.015625 2.015625 
Q 10.796875 5.46875 10.796875 13.71875 
z
" id="DejaVuSerif-116"/>
      <path d="M 70.515625 19.28125 
Q 67.28125 9.078125 59.6875 3.828125 
Q 52.09375 -1.421875 40.484375 -1.421875 
Q 33.34375 -1.421875 27.234375 1.015625 
Q 21.140625 3.46875 16.40625 8.203125 
Q 10.9375 13.671875 8.265625 20.625 
Q 5.609375 27.59375 5.609375 36.375 
Q 5.609375 53.375 15.421875 63.796875 
Q 25.25 74.21875 41.3125 74.21875 
Q 47.265625 74.21875 54 72.65625 
Q 60.75 71.09375 68.5 67.921875 
L 68.5 51.125 
L 62.984375 51.125 
Q 61.1875 60.296875 55.734375 64.640625 
Q 50.296875 69 40.484375 69 
Q 28.8125 69 22.796875 60.71875 
Q 16.796875 52.4375 16.796875 36.375 
Q 16.796875 20.359375 22.796875 12.078125 
Q 28.8125 3.8125 40.484375 3.8125 
Q 48.640625 3.8125 53.90625 7.6875 
Q 59.1875 11.578125 61.53125 19.28125 
z
" id="DejaVuSerif-67"/>
      <path d="M 35.40625 51.90625 
L 52.203125 51.90625 
L 52.203125 5.171875 
L 60.6875 5.171875 
L 60.6875 0 
L 43.21875 0 
L 43.21875 9.1875 
Q 40.71875 4 36.765625 1.28125 
Q 32.8125 -1.421875 27.59375 -1.421875 
Q 18.953125 -1.421875 14.875 3.484375 
Q 10.796875 8.40625 10.796875 18.890625 
L 10.796875 46.6875 
L 2.6875 46.6875 
L 2.6875 51.90625 
L 19.828125 51.90625 
L 19.828125 21.6875 
Q 19.828125 12.203125 22.140625 8.6875 
Q 24.46875 5.171875 30.421875 5.171875 
Q 36.671875 5.171875 39.9375 9.765625 
Q 43.21875 14.359375 43.21875 23.09375 
L 43.21875 46.6875 
L 35.40625 46.6875 
z
" id="DejaVuSerif-117"/>
      <path d="M 24.703125 0 
L 5.609375 46.6875 
L -0.296875 46.6875 
L -0.296875 51.90625 
L 23.578125 51.90625 
L 23.578125 46.6875 
L 15.28125 46.6875 
L 29.890625 10.984375 
L 44.484375 46.6875 
L 36.71875 46.6875 
L 36.71875 51.90625 
L 56.203125 51.90625 
L 56.203125 46.6875 
L 50.390625 46.6875 
L 31.296875 0 
z
" id="DejaVuSerif-118"/>
     </defs>
     <use xlink:href="#DejaVuSerif-70"/>
     <use x="63.884766" xlink:href="#DejaVuSerif-111"/>
     <use x="124.089844" xlink:href="#DejaVuSerif-108"/>
     <use x="156.072266" xlink:href="#DejaVuSerif-100"/>
     <use x="220.085938" xlink:href="#DejaVuSerif-101"/>
     <use x="279.265625" xlink:href="#DejaVuSerif-100"/>
     <use x="343.279297" xlink:href="#DejaVuSerif-32"/>
     <use x="375.066406" xlink:href="#DejaVuSerif-76"/>
     <use x="441.472656" xlink:href="#DejaVuSerif-105"/>
     <use x="473.455078" xlink:href="#DejaVuSerif-103"/>
     <use x="537.46875" xlink:href="#DejaVuSerif-104"/>
     <use x="601.873047" xlink:href="#DejaVuSerif-116"/>
     <use x="642.058594" xlink:href="#DejaVuSerif-32"/>
     <use x="673.845703" xlink:href="#DejaVuSerif-67"/>
     <use x="750.359375" xlink:href="#DejaVuSerif-117"/>
     <use x="814.763672" xlink:href="#DejaVuSerif-114"/>
     <use x="862.566406" xlink:href="#DejaVuSerif-118"/>
     <use x="919.060547" xlink:href="#DejaVuSerif-101"/>
    </g>
   </g>
  </g>
  <g id="axes_3">
   <g id="patch_13">
    <path d="M 57.6 307.584 
L 414.72 307.584 
L 414.72 198.966857 
L 57.6 198.966857 
z
" style="fill:#ffffff;"/>
   </g>
   <g id="PathCollection_3">
    <g clip-path="url(#p850671c1fa)">
     <use style="fill:#1f77b4;stroke:#1f77b4;" x="73.832727" xlink:href="#m67d0c489d4" y="262.154252"/>
     <use style="fill:#1f77b4;stroke:#1f77b4;" x="73.833119" xlink:href="#m67d0c489d4" y="246.272456"/>
     <use style="fill:#1f77b4;stroke:#1f77b4;" x="94.910293" xlink:href="#m67d0c489d4" y="262.703727"/>
     <use style="fill:#1f77b4;stroke:#1f77b4;" x="94.910684" xlink:href="#m67d0c489d4" y="262.045827"/>
     <use style="fill:#1f77b4;stroke:#1f77b4;" x="96.675449" xlink:href="#m67d0c489d4" y="243.168991"/>
     <use style="fill:#1f77b4;stroke:#1f77b4;" x="99.185169" xlink:href="#m67d0c489d4" y="245.966877"/>
     <use style="fill:#1f77b4;stroke:#1f77b4;" x="99.18789" xlink:href="#m67d0c489d4" y="248.119945"/>
     <use style="fill:#1f77b4;stroke:#1f77b4;" x="121.144305" xlink:href="#m67d0c489d4" y="252.977465"/>
     <use style="fill:#1f77b4;stroke:#1f77b4;" x="121.988998" xlink:href="#m67d0c489d4" y="238.325482"/>
     <use style="fill:#1f77b4;stroke:#1f77b4;" x="121.98938" xlink:href="#m67d0c489d4" y="268.191073"/>
     <use style="fill:#1f77b4;stroke:#1f77b4;" x="123.69785" xlink:href="#m67d0c489d4" y="222.517521"/>
     <use style="fill:#1f77b4;stroke:#1f77b4;" x="123.698242" xlink:href="#m67d0c489d4" y="255.235235"/>
     <use style="fill:#1f77b4;stroke:#1f77b4;" x="125.362202" xlink:href="#m67d0c489d4" y="229.915951"/>
     <use style="fill:#1f77b4;stroke:#1f77b4;" x="125.362594" xlink:href="#m67d0c489d4" y="231.712044"/>
     <use style="fill:#1f77b4;stroke:#1f77b4;" x="126.199487" xlink:href="#m67d0c489d4" y="248.974067"/>
     <use style="fill:#1f77b4;stroke:#1f77b4;" x="126.199878" xlink:href="#m67d0c489d4" y="234.833245"/>
     <use style="fill:#1f77b4;stroke:#1f77b4;" x="127.090237" xlink:href="#m67d0c489d4" y="244.615557"/>
     <use style="fill:#1f77b4;stroke:#1f77b4;" x="127.090618" xlink:href="#m67d0c489d4" y="239.662741"/>
     <use style="fill:#1f77b4;stroke:#1f77b4;" x="127.899364" xlink:href="#m67d0c489d4" y="249.607666"/>
     <use style="fill:#1f77b4;stroke:#1f77b4;" x="127.899756" xlink:href="#m67d0c489d4" y="229.149626"/>
     <use style="fill:#1f77b4;stroke:#1f77b4;" x="128.744146" xlink:href="#m67d0c489d4" y="238.876819"/>
     <use style="fill:#1f77b4;stroke:#1f77b4;" x="128.744527" xlink:href="#m67d0c489d4" y="241.627033"/>
     <use style="fill:#1f77b4;stroke:#1f77b4;" x="136.360585" xlink:href="#m67d0c489d4" y="272.319702"/>
     <use style="fill:#1f77b4;stroke:#1f77b4;" x="142.231315" xlink:href="#m67d0c489d4" y="224.518264"/>
     <use style="fill:#1f77b4;stroke:#1f77b4;" x="143.073052" xlink:href="#m67d0c489d4" y="215.73025"/>
     <use style="fill:#1f77b4;stroke:#1f77b4;" x="143.918832" xlink:href="#m67d0c489d4" y="256.029535"/>
     <use style="fill:#1f77b4;stroke:#1f77b4;" x="144.76286" xlink:href="#m67d0c489d4" y="234.569752"/>
     <use style="fill:#1f77b4;stroke:#1f77b4;" x="145.612006" xlink:href="#m67d0c489d4" y="258.526496"/>
     <use style="fill:#1f77b4;stroke:#1f77b4;" x="155.771705" xlink:href="#m67d0c489d4" y="280.784401"/>
     <use style="fill:#1f77b4;stroke:#1f77b4;" x="163.21203" xlink:href="#m67d0c489d4" y="253.440023"/>
     <use style="fill:#1f77b4;stroke:#1f77b4;" x="164.180987" xlink:href="#m67d0c489d4" y="252.270963"/>
     <use style="fill:#1f77b4;stroke:#1f77b4;" x="165.042171" xlink:href="#m67d0c489d4" y="230.637347"/>
     <use style="fill:#1f77b4;stroke:#1f77b4;" x="170.943837" xlink:href="#m67d0c489d4" y="277.679074"/>
     <use style="fill:#1f77b4;stroke:#1f77b4;" x="173.496775" xlink:href="#m67d0c489d4" y="241.309303"/>
     <use style="fill:#1f77b4;stroke:#1f77b4;" x="207.146958" xlink:href="#m67d0c489d4" y="232.96611"/>
     <use style="fill:#1f77b4;stroke:#1f77b4;" x="210.529274" xlink:href="#m67d0c489d4" y="258.671373"/>
     <use style="fill:#1f77b4;stroke:#1f77b4;" x="218.978819" xlink:href="#m67d0c489d4" y="265.082954"/>
     <use style="fill:#1f77b4;stroke:#1f77b4;" x="346.082599" xlink:href="#m67d0c489d4" y="276.715595"/>
     <use style="fill:#1f77b4;stroke:#1f77b4;" x="379.139631" xlink:href="#m67d0c489d4" y="223.159497"/>
     <use style="fill:#1f77b4;stroke:#1f77b4;" x="396.853779" xlink:href="#m67d0c489d4" y="253.487695"/>
     <use style="fill:#1f77b4;stroke:#1f77b4;" x="396.854161" xlink:href="#m67d0c489d4" y="251.812129"/>
     <use style="fill:#1f77b4;stroke:#1f77b4;" x="397.677773" xlink:href="#m67d0c489d4" y="290.090093"/>
     <use style="fill:#1f77b4;stroke:#1f77b4;" x="397.678155" xlink:href="#m67d0c489d4" y="284.392462"/>
     <use style="fill:#1f77b4;stroke:#1f77b4;" x="398.486891" xlink:href="#m67d0c489d4" y="288.922013"/>
     <use style="fill:#1f77b4;stroke:#1f77b4;" x="398.487273" xlink:href="#m67d0c489d4" y="269.621814"/>
    </g>
   </g>
   <g id="matplotlib.axis_5">
    <g id="xtick_26">
     <g id="line2d_38">
      <g>
       <use style="stroke:#000000;stroke-width:0.8;" x="97.996351" xlink:href="#mc019704942" y="307.584"/>
      </g>
     </g>
     <g id="text_23">
      <!-- 58300 -->
      <g transform="translate(82.090101 322.182437)scale(0.1 -0.1)">
       <defs>
        <path d="M 46.578125 19.921875 
Q 46.578125 27.734375 42.6875 32.046875 
Q 38.8125 36.375 31.78125 36.375 
Q 24.75 36.375 20.875 32.046875 
Q 17 27.734375 17 19.921875 
Q 17 12.0625 20.875 7.734375 
Q 24.75 3.421875 31.78125 3.421875 
Q 38.8125 3.421875 42.6875 7.734375 
Q 46.578125 12.0625 46.578125 19.921875 
z
M 44.578125 55.328125 
Q 44.578125 61.96875 41.203125 65.671875 
Q 37.84375 69.390625 31.78125 69.390625 
Q 25.78125 69.390625 22.390625 65.671875 
Q 19 61.96875 19 55.328125 
Q 19 48.640625 22.390625 44.921875 
Q 25.78125 41.21875 31.78125 41.21875 
Q 37.84375 41.21875 41.203125 44.921875 
Q 44.578125 48.640625 44.578125 55.328125 
z
M 39.3125 38.8125 
Q 47.609375 37.703125 52.25 32.6875 
Q 56.890625 27.6875 56.890625 19.921875 
Q 56.890625 9.671875 50.390625 4.125 
Q 43.890625 -1.421875 31.78125 -1.421875 
Q 19.734375 -1.421875 13.203125 4.125 
Q 6.6875 9.671875 6.6875 19.921875 
Q 6.6875 27.6875 11.328125 32.6875 
Q 15.96875 37.703125 24.3125 38.8125 
Q 16.9375 40.140625 13 44.40625 
Q 9.078125 48.6875 9.078125 55.328125 
Q 9.078125 64.109375 15.125 69.15625 
Q 21.1875 74.21875 31.78125 74.21875 
Q 42.390625 74.21875 48.4375 69.15625 
Q 54.5 64.109375 54.5 55.328125 
Q 54.5 48.6875 50.5625 44.40625 
Q 46.625 40.140625 39.3125 38.8125 
z
" id="DejaVuSerif-56"/>
        <path d="M 9.71875 69.828125 
Q 15.4375 71.96875 20.671875 73.09375 
Q 25.921875 74.21875 30.515625 74.21875 
Q 41.21875 74.21875 47.21875 69.59375 
Q 53.21875 64.984375 53.21875 56.78125 
Q 53.21875 50.203125 49.0625 45.78125 
Q 44.921875 41.359375 37.3125 39.796875 
Q 46.296875 38.53125 51.25 33.28125 
Q 56.203125 28.03125 56.203125 19.671875 
Q 56.203125 9.46875 49.34375 4.015625 
Q 42.484375 -1.421875 29.59375 -1.421875 
Q 23.875 -1.421875 18.421875 -0.1875 
Q 12.984375 1.03125 7.625 3.515625 
L 7.625 17.671875 
L 13.09375 17.671875 
Q 13.578125 10.640625 17.828125 7.03125 
Q 22.078125 3.421875 29.78125 3.421875 
Q 37.25 3.421875 41.578125 7.734375 
Q 45.90625 12.0625 45.90625 19.578125 
Q 45.90625 28.171875 41.453125 32.59375 
Q 37.015625 37.015625 28.421875 37.015625 
L 23.78125 37.015625 
L 23.78125 42 
L 26.21875 42 
Q 34.765625 42 39.03125 45.53125 
Q 43.3125 49.078125 43.3125 56.203125 
Q 43.3125 62.59375 39.796875 65.984375 
Q 36.28125 69.390625 29.6875 69.390625 
Q 23.09375 69.390625 19.453125 66.265625 
Q 15.828125 63.140625 15.1875 56.984375 
L 9.71875 56.984375 
z
" id="DejaVuSerif-51"/>
       </defs>
       <use xlink:href="#DejaVuSerif-53"/>
       <use x="63.623047" xlink:href="#DejaVuSerif-56"/>
       <use x="127.246094" xlink:href="#DejaVuSerif-51"/>
       <use x="190.869141" xlink:href="#DejaVuSerif-48"/>
       <use x="254.492188" xlink:href="#DejaVuSerif-48"/>
      </g>
     </g>
    </g>
    <g id="xtick_27">
     <g id="line2d_39">
      <g>
       <use style="stroke:#000000;stroke-width:0.8;" x="140.27554" xlink:href="#mc019704942" y="307.584"/>
      </g>
     </g>
     <g id="text_24">
      <!-- 58350 -->
      <g transform="translate(124.36929 322.182437)scale(0.1 -0.1)">
       <use xlink:href="#DejaVuSerif-53"/>
       <use x="63.623047" xlink:href="#DejaVuSerif-56"/>
       <use x="127.246094" xlink:href="#DejaVuSerif-51"/>
       <use x="190.869141" xlink:href="#DejaVuSerif-53"/>
       <use x="254.492188" xlink:href="#DejaVuSerif-48"/>
      </g>
     </g>
    </g>
    <g id="xtick_28">
     <g id="line2d_40">
      <g>
       <use style="stroke:#000000;stroke-width:0.8;" x="182.55473" xlink:href="#mc019704942" y="307.584"/>
      </g>
     </g>
     <g id="text_25">
      <!-- 58400 -->
      <g transform="translate(166.64848 322.182437)scale(0.1 -0.1)">
       <use xlink:href="#DejaVuSerif-53"/>
       <use x="63.623047" xlink:href="#DejaVuSerif-56"/>
       <use x="127.246094" xlink:href="#DejaVuSerif-52"/>
       <use x="190.869141" xlink:href="#DejaVuSerif-48"/>
       <use x="254.492188" xlink:href="#DejaVuSerif-48"/>
      </g>
     </g>
    </g>
    <g id="xtick_29">
     <g id="line2d_41">
      <g>
       <use style="stroke:#000000;stroke-width:0.8;" x="224.833919" xlink:href="#mc019704942" y="307.584"/>
      </g>
     </g>
     <g id="text_26">
      <!-- 58450 -->
      <g transform="translate(208.927669 322.182437)scale(0.1 -0.1)">
       <use xlink:href="#DejaVuSerif-53"/>
       <use x="63.623047" xlink:href="#DejaVuSerif-56"/>
       <use x="127.246094" xlink:href="#DejaVuSerif-52"/>
       <use x="190.869141" xlink:href="#DejaVuSerif-53"/>
       <use x="254.492188" xlink:href="#DejaVuSerif-48"/>
      </g>
     </g>
    </g>
    <g id="xtick_30">
     <g id="line2d_42">
      <g>
       <use style="stroke:#000000;stroke-width:0.8;" x="267.113108" xlink:href="#mc019704942" y="307.584"/>
      </g>
     </g>
     <g id="text_27">
      <!-- 58500 -->
      <g transform="translate(251.206858 322.182437)scale(0.1 -0.1)">
       <use xlink:href="#DejaVuSerif-53"/>
       <use x="63.623047" xlink:href="#DejaVuSerif-56"/>
       <use x="127.246094" xlink:href="#DejaVuSerif-53"/>
       <use x="190.869141" xlink:href="#DejaVuSerif-48"/>
       <use x="254.492188" xlink:href="#DejaVuSerif-48"/>
      </g>
     </g>
    </g>
    <g id="xtick_31">
     <g id="line2d_43">
      <g>
       <use style="stroke:#000000;stroke-width:0.8;" x="309.392298" xlink:href="#mc019704942" y="307.584"/>
      </g>
     </g>
     <g id="text_28">
      <!-- 58550 -->
      <g transform="translate(293.486048 322.182437)scale(0.1 -0.1)">
       <use xlink:href="#DejaVuSerif-53"/>
       <use x="63.623047" xlink:href="#DejaVuSerif-56"/>
       <use x="127.246094" xlink:href="#DejaVuSerif-53"/>
       <use x="190.869141" xlink:href="#DejaVuSerif-53"/>
       <use x="254.492188" xlink:href="#DejaVuSerif-48"/>
      </g>
     </g>
    </g>
    <g id="xtick_32">
     <g id="line2d_44">
      <g>
       <use style="stroke:#000000;stroke-width:0.8;" x="351.671487" xlink:href="#mc019704942" y="307.584"/>
      </g>
     </g>
     <g id="text_29">
      <!-- 58600 -->
      <g transform="translate(335.765237 322.182437)scale(0.1 -0.1)">
       <use xlink:href="#DejaVuSerif-53"/>
       <use x="63.623047" xlink:href="#DejaVuSerif-56"/>
       <use x="127.246094" xlink:href="#DejaVuSerif-54"/>
       <use x="190.869141" xlink:href="#DejaVuSerif-48"/>
       <use x="254.492188" xlink:href="#DejaVuSerif-48"/>
      </g>
     </g>
    </g>
    <g id="xtick_33">
     <g id="line2d_45">
      <g>
       <use style="stroke:#000000;stroke-width:0.8;" x="393.950677" xlink:href="#mc019704942" y="307.584"/>
      </g>
     </g>
     <g id="text_30">
      <!-- 58650 -->
      <g transform="translate(378.044427 322.182437)scale(0.1 -0.1)">
       <use xlink:href="#DejaVuSerif-53"/>
       <use x="63.623047" xlink:href="#DejaVuSerif-56"/>
       <use x="127.246094" xlink:href="#DejaVuSerif-54"/>
       <use x="190.869141" xlink:href="#DejaVuSerif-53"/>
       <use x="254.492188" xlink:href="#DejaVuSerif-48"/>
      </g>
     </g>
    </g>
    <g id="text_31">
     <!-- MJD -->
     <g transform="translate(225.027187 335.860562)scale(0.1 -0.1)">
      <defs>
       <path d="M -8.40625 -17.484375 
L -8.40625 -6 
L -2.828125 -6 
Q -2.6875 -10.84375 -0.53125 -13.203125 
Q 1.609375 -15.578125 5.90625 -15.578125 
Q 11.71875 -15.578125 14.015625 -11.90625 
Q 16.3125 -8.25 16.3125 2.390625 
L 16.3125 67.671875 
L 4.984375 67.671875 
L 4.984375 72.90625 
L 35.5 72.90625 
L 35.5 67.671875 
L 26.21875 67.671875 
L 26.21875 2 
Q 26.21875 -10.0625 21.375 -15.421875 
Q 16.546875 -20.796875 5.8125 -20.796875 
Q 2.34375 -20.796875 -1.234375 -19.96875 
Q -4.828125 -19.140625 -8.40625 -17.484375 
z
" id="DejaVuSerif-74"/>
       <path d="M 24.703125 5.171875 
L 33.796875 5.171875 
Q 48 5.171875 55.59375 13.28125 
Q 63.1875 21.390625 63.1875 36.53125 
Q 63.1875 51.65625 55.609375 59.65625 
Q 48.046875 67.671875 33.796875 67.671875 
L 24.703125 67.671875 
z
M 5.515625 0 
L 5.515625 5.171875 
L 14.796875 5.171875 
L 14.796875 67.671875 
L 5.515625 67.671875 
L 5.515625 72.90625 
L 34.515625 72.90625 
Q 53.375 72.90625 63.890625 63.28125 
Q 74.421875 53.65625 74.421875 36.53125 
Q 74.421875 19.34375 63.875 9.671875 
Q 53.328125 0 34.515625 0 
z
" id="DejaVuSerif-68"/>
      </defs>
      <use xlink:href="#DejaVuSerif-77"/>
      <use x="102.392578" xlink:href="#DejaVuSerif-74"/>
      <use x="142.480469" xlink:href="#DejaVuSerif-68"/>
     </g>
    </g>
   </g>
   <g id="matplotlib.axis_6">
    <g id="ytick_8">
     <g id="line2d_46">
      <g>
       <use style="stroke:#000000;stroke-width:0.8;" x="57.6" xlink:href="#m84460283cb" y="213.059456"/>
      </g>
     </g>
     <g id="text_32">
      <!-- 17.50 -->
      <g transform="translate(21.971875 216.858675)scale(0.1 -0.1)">
       <use xlink:href="#DejaVuSerif-49"/>
       <use x="63.623047" xlink:href="#DejaVuSerif-55"/>
       <use x="127.246094" xlink:href="#DejaVuSerif-46"/>
       <use x="159.033203" xlink:href="#DejaVuSerif-53"/>
       <use x="222.65625" xlink:href="#DejaVuSerif-48"/>
      </g>
     </g>
    </g>
    <g id="ytick_9">
     <g id="line2d_47">
      <g>
       <use style="stroke:#000000;stroke-width:0.8;" x="57.6" xlink:href="#m84460283cb" y="237.556757"/>
      </g>
     </g>
     <g id="text_33">
      <!-- 17.55 -->
      <g transform="translate(21.971875 241.355976)scale(0.1 -0.1)">
       <use xlink:href="#DejaVuSerif-49"/>
       <use x="63.623047" xlink:href="#DejaVuSerif-55"/>
       <use x="127.246094" xlink:href="#DejaVuSerif-46"/>
       <use x="159.033203" xlink:href="#DejaVuSerif-53"/>
       <use x="222.65625" xlink:href="#DejaVuSerif-53"/>
      </g>
     </g>
    </g>
    <g id="ytick_10">
     <g id="line2d_48">
      <g>
       <use style="stroke:#000000;stroke-width:0.8;" x="57.6" xlink:href="#m84460283cb" y="262.054059"/>
      </g>
     </g>
     <g id="text_34">
      <!-- 17.60 -->
      <g transform="translate(21.971875 265.853277)scale(0.1 -0.1)">
       <use xlink:href="#DejaVuSerif-49"/>
       <use x="63.623047" xlink:href="#DejaVuSerif-55"/>
       <use x="127.246094" xlink:href="#DejaVuSerif-46"/>
       <use x="159.033203" xlink:href="#DejaVuSerif-54"/>
       <use x="222.65625" xlink:href="#DejaVuSerif-48"/>
      </g>
     </g>
    </g>
    <g id="ytick_11">
     <g id="line2d_49">
      <g>
       <use style="stroke:#000000;stroke-width:0.8;" x="57.6" xlink:href="#m84460283cb" y="286.55136"/>
      </g>
     </g>
     <g id="text_35">
      <!-- 17.65 -->
      <g transform="translate(21.971875 290.350579)scale(0.1 -0.1)">
       <use xlink:href="#DejaVuSerif-49"/>
       <use x="63.623047" xlink:href="#DejaVuSerif-55"/>
       <use x="127.246094" xlink:href="#DejaVuSerif-46"/>
       <use x="159.033203" xlink:href="#DejaVuSerif-54"/>
       <use x="222.65625" xlink:href="#DejaVuSerif-53"/>
      </g>
     </g>
    </g>
    <g id="text_36">
     <!-- Mag -->
     <g transform="translate(15.75 264.576991)rotate(-90)scale(0.1 -0.1)">
      <use xlink:href="#DejaVuSerif-77"/>
      <use x="102.392578" xlink:href="#DejaVuSerif-97"/>
      <use x="162.011719" xlink:href="#DejaVuSerif-103"/>
     </g>
    </g>
   </g>
   <g id="LineCollection_5">
    <path clip-path="url(#p850671c1fa)" d="M 73.832727 249.885341 
L 73.832727 274.423164 
" style="fill:none;stroke:#1f77b4;stroke-width:0.5;"/>
    <path clip-path="url(#p850671c1fa)" d="M 73.833119 234.15987 
L 73.833119 258.385043 
" style="fill:none;stroke:#1f77b4;stroke-width:0.5;"/>
    <path clip-path="url(#p850671c1fa)" d="M 94.910293 250.429313 
L 94.910293 274.978141 
" style="fill:none;stroke:#1f77b4;stroke-width:0.5;"/>
    <path clip-path="url(#p850671c1fa)" d="M 94.910684 249.778004 
L 94.910684 274.313651 
" style="fill:none;stroke:#1f77b4;stroke-width:0.5;"/>
    <path clip-path="url(#p850671c1fa)" d="M 96.675449 231.086349 
L 96.675449 255.251632 
" style="fill:none;stroke:#1f77b4;stroke-width:0.5;"/>
    <path clip-path="url(#p850671c1fa)" d="M 99.185169 233.857245 
L 99.185169 258.076508 
" style="fill:none;stroke:#1f77b4;stroke-width:0.5;"/>
    <path clip-path="url(#p850671c1fa)" d="M 99.18789 235.98944 
L 99.18789 260.250449 
" style="fill:none;stroke:#1f77b4;stroke-width:0.5;"/>
    <path clip-path="url(#p850671c1fa)" d="M 121.144305 240.799514 
L 121.144305 265.155417 
" style="fill:none;stroke:#1f77b4;stroke-width:0.5;"/>
    <path clip-path="url(#p850671c1fa)" d="M 121.988998 226.289188 
L 121.988998 250.361777 
" style="fill:none;stroke:#1f77b4;stroke-width:0.5;"/>
    <path clip-path="url(#p850671c1fa)" d="M 121.98938 255.861367 
L 121.98938 280.52078 
" style="fill:none;stroke:#1f77b4;stroke-width:0.5;"/>
    <path clip-path="url(#p850671c1fa)" d="M 123.69785 210.629227 
L 123.69785 234.405815 
" style="fill:none;stroke:#1f77b4;stroke-width:0.5;"/>
    <path clip-path="url(#p850671c1fa)" d="M 123.698242 243.035071 
L 123.698242 267.435398 
" style="fill:none;stroke:#1f77b4;stroke-width:0.5;"/>
    <path clip-path="url(#p850671c1fa)" d="M 125.362202 217.959003 
L 125.362202 241.872899 
" style="fill:none;stroke:#1f77b4;stroke-width:0.5;"/>
    <path clip-path="url(#p850671c1fa)" d="M 125.362594 219.738269 
L 125.362594 243.685819 
" style="fill:none;stroke:#1f77b4;stroke-width:0.5;"/>
    <path clip-path="url(#p850671c1fa)" d="M 126.199487 236.835258 
L 126.199487 261.112876 
" style="fill:none;stroke:#1f77b4;stroke-width:0.5;"/>
    <path clip-path="url(#p850671c1fa)" d="M 126.199878 222.830072 
L 126.199878 246.836419 
" style="fill:none;stroke:#1f77b4;stroke-width:0.5;"/>
    <path clip-path="url(#p850671c1fa)" d="M 127.090237 232.518982 
L 127.090237 256.712132 
" style="fill:none;stroke:#1f77b4;stroke-width:0.5;"/>
    <path clip-path="url(#p850671c1fa)" d="M 127.090618 227.613695 
L 127.090618 251.711787 
" style="fill:none;stroke:#1f77b4;stroke-width:0.5;"/>
    <path clip-path="url(#p850671c1fa)" d="M 127.899364 237.462683 
L 127.899364 261.752648 
" style="fill:none;stroke:#1f77b4;stroke-width:0.5;"/>
    <path clip-path="url(#p850671c1fa)" d="M 127.899756 217.199839 
L 127.899756 241.099414 
" style="fill:none;stroke:#1f77b4;stroke-width:0.5;"/>
    <path clip-path="url(#p850671c1fa)" d="M 128.744146 226.835272 
L 128.744146 250.918365 
" style="fill:none;stroke:#1f77b4;stroke-width:0.5;"/>
    <path clip-path="url(#p850671c1fa)" d="M 128.744527 229.559198 
L 128.744527 253.694867 
" style="fill:none;stroke:#1f77b4;stroke-width:0.5;"/>
    <path clip-path="url(#p850671c1fa)" d="M 136.360585 259.947973 
L 136.360585 284.691431 
" style="fill:none;stroke:#1f77b4;stroke-width:0.5;"/>
    <path clip-path="url(#p850671c1fa)" d="M 142.231315 212.611514 
L 142.231315 236.425015 
" style="fill:none;stroke:#1f77b4;stroke-width:0.5;"/>
    <path clip-path="url(#p850671c1fa)" d="M 143.073052 203.904 
L 143.073052 227.556499 
" style="fill:none;stroke:#1f77b4;stroke-width:0.5;"/>
    <path clip-path="url(#p850671c1fa)" d="M 143.918832 243.821529 
L 143.918832 268.237541 
" style="fill:none;stroke:#1f77b4;stroke-width:0.5;"/>
    <path clip-path="url(#p850671c1fa)" d="M 144.76286 222.569066 
L 144.76286 246.570438 
" style="fill:none;stroke:#1f77b4;stroke-width:0.5;"/>
    <path clip-path="url(#p850671c1fa)" d="M 145.612006 246.293751 
L 145.612006 270.759241 
" style="fill:none;stroke:#1f77b4;stroke-width:0.5;"/>
    <path clip-path="url(#p850671c1fa)" d="M 155.771705 268.325387 
L 155.771705 293.243415 
" style="fill:none;stroke:#1f77b4;stroke-width:0.5;"/>
    <path clip-path="url(#p850671c1fa)" d="M 163.21203 241.257529 
L 163.21203 265.622517 
" style="fill:none;stroke:#1f77b4;stroke-width:0.5;"/>
    <path clip-path="url(#p850671c1fa)" d="M 164.180987 240.099945 
L 164.180987 264.441981 
" style="fill:none;stroke:#1f77b4;stroke-width:0.5;"/>
    <path clip-path="url(#p850671c1fa)" d="M 165.042171 218.67365 
L 165.042171 242.601045 
" style="fill:none;stroke:#1f77b4;stroke-width:0.5;"/>
    <path clip-path="url(#p850671c1fa)" d="M 170.943837 265.252256 
L 170.943837 290.105892 
" style="fill:none;stroke:#1f77b4;stroke-width:0.5;"/>
    <path clip-path="url(#p850671c1fa)" d="M 173.496775 229.244512 
L 173.496775 253.374094 
" style="fill:none;stroke:#1f77b4;stroke-width:0.5;"/>
    <path clip-path="url(#p850671c1fa)" d="M 207.146958 220.980548 
L 207.146958 244.951672 
" style="fill:none;stroke:#1f77b4;stroke-width:0.5;"/>
    <path clip-path="url(#p850671c1fa)" d="M 210.529274 246.437189 
L 210.529274 270.905558 
" style="fill:none;stroke:#1f77b4;stroke-width:0.5;"/>
    <path clip-path="url(#p850671c1fa)" d="M 218.978819 252.784645 
L 218.978819 277.381263 
" style="fill:none;stroke:#1f77b4;stroke-width:0.5;"/>
    <path clip-path="url(#p850671c1fa)" d="M 346.082599 264.298729 
L 346.082599 289.132461 
" style="fill:none;stroke:#1f77b4;stroke-width:0.5;"/>
    <path clip-path="url(#p850671c1fa)" d="M 379.139631 211.265289 
L 379.139631 235.053705 
" style="fill:none;stroke:#1f77b4;stroke-width:0.5;"/>
    <path clip-path="url(#p850671c1fa)" d="M 396.853779 241.304736 
L 396.853779 265.670655 
" style="fill:none;stroke:#1f77b4;stroke-width:0.5;"/>
    <path clip-path="url(#p850671c1fa)" d="M 396.854161 239.645603 
L 396.854161 263.978654 
" style="fill:none;stroke:#1f77b4;stroke-width:0.5;"/>
    <path clip-path="url(#p850671c1fa)" d="M 397.677773 277.533329 
L 397.677773 302.646857 
" style="fill:none;stroke:#1f77b4;stroke-width:0.5;"/>
    <path clip-path="url(#p850671c1fa)" d="M 397.678155 271.895769 
L 397.678155 296.889154 
" style="fill:none;stroke:#1f77b4;stroke-width:0.5;"/>
    <path clip-path="url(#p850671c1fa)" d="M 398.486891 276.377622 
L 398.486891 301.466404 
" style="fill:none;stroke:#1f77b4;stroke-width:0.5;"/>
    <path clip-path="url(#p850671c1fa)" d="M 398.487273 257.27759 
L 398.487273 281.966038 
" style="fill:none;stroke:#1f77b4;stroke-width:0.5;"/>
   </g>
   <g id="line2d_50">
    <path clip-path="url(#p850671c1fa)" d="M 73.832727 262.154252 
L 73.833119 246.272456 
L 94.910293 262.703727 
L 94.910684 262.045827 
L 96.675449 243.168991 
L 99.185169 245.966877 
L 99.18789 248.119945 
L 121.144305 252.977465 
L 121.988998 238.325482 
L 121.98938 268.191073 
L 123.69785 222.517521 
L 123.698242 255.235235 
L 125.362202 229.915951 
L 125.362594 231.712044 
L 126.199487 248.974067 
L 126.199878 234.833245 
L 127.090237 244.615557 
L 127.090618 239.662741 
L 127.899364 249.607666 
L 127.899756 229.149626 
L 128.744146 238.876819 
L 128.744527 241.627033 
L 136.360585 272.319702 
L 142.231315 224.518264 
L 143.073052 215.73025 
L 143.918832 256.029535 
L 144.76286 234.569752 
L 145.612006 258.526496 
L 155.771705 280.784401 
L 163.21203 253.440023 
L 164.180987 252.270963 
L 165.042171 230.637347 
L 170.943837 277.679074 
L 173.496775 241.309303 
L 207.146958 232.96611 
L 210.529274 258.671373 
L 218.978819 265.082954 
L 346.082599 276.715595 
L 379.139631 223.159497 
L 396.853779 253.487695 
L 396.854161 251.812129 
L 397.677773 290.090093 
L 397.678155 284.392462 
L 398.486891 288.922013 
L 398.487273 269.621814 
" style="fill:none;"/>
   </g>
   <g id="patch_14">
    <path d="M 57.6 307.584 
L 57.6 198.966857 
" style="fill:none;stroke:#000000;stroke-linecap:square;stroke-linejoin:miter;stroke-width:0.8;"/>
   </g>
   <g id="patch_15">
    <path d="M 414.72 307.584 
L 414.72 198.966857 
" style="fill:none;stroke:#000000;stroke-linecap:square;stroke-linejoin:miter;stroke-width:0.8;"/>
   </g>
   <g id="patch_16">
    <path d="M 57.6 307.584 
L 414.72 307.584 
" style="fill:none;stroke:#000000;stroke-linecap:square;stroke-linejoin:miter;stroke-width:0.8;"/>
   </g>
   <g id="patch_17">
    <path d="M 57.6 198.966857 
L 414.72 198.966857 
" style="fill:none;stroke:#000000;stroke-linecap:square;stroke-linejoin:miter;stroke-width:0.8;"/>
   </g>
   <g id="text_37">
    <!-- Light Curve -->
    <g transform="translate(206.000625 192.966857)scale(0.1 -0.1)">
     <use xlink:href="#DejaVuSerif-76"/>
     <use x="66.40625" xlink:href="#DejaVuSerif-105"/>
     <use x="98.388672" xlink:href="#DejaVuSerif-103"/>
     <use x="162.402344" xlink:href="#DejaVuSerif-104"/>
     <use x="226.806641" xlink:href="#DejaVuSerif-116"/>
     <use x="266.992188" xlink:href="#DejaVuSerif-32"/>
     <use x="298.779297" xlink:href="#DejaVuSerif-67"/>
     <use x="375.292969" xlink:href="#DejaVuSerif-117"/>
     <use x="439.697266" xlink:href="#DejaVuSerif-114"/>
     <use x="487.5" xlink:href="#DejaVuSerif-118"/>
     <use x="543.994141" xlink:href="#DejaVuSerif-101"/>
    </g>
   </g>
  </g>
 </g>
 <defs>
  <clipPath id="p4e78d4b7b5">
   <rect height="108.617143" width="148.8" x="265.92" y="41.472"/>
  </clipPath>
  <clipPath id="p09089cf920">
   <rect height="108.617143" width="148.8" x="57.6" y="41.472"/>
  </clipPath>
  <clipPath id="p850671c1fa">
   <rect height="108.617143" width="357.12" x="57.6" y="198.966857"/>
  </clipPath>
 </defs>
</svg>
