<?xml version="1.0" encoding="utf-8" standalone="no"?>
<!DOCTYPE svg PUBLIC "-//W3C//DTD SVG 1.1//EN"
  "http://www.w3.org/Graphics/SVG/1.1/DTD/svg11.dtd">
<!-- Created with matplotlib (https://matplotlib.org/) -->
<svg height="345.6pt" version="1.1" viewBox="0 0 460.8 345.6" width="460.8pt" xmlns="http://www.w3.org/2000/svg" xmlns:xlink="http://www.w3.org/1999/xlink">
 <metadata>
  <rdf:RDF xmlns:cc="http://creativecommons.org/ns#" xmlns:dc="http://purl.org/dc/elements/1.1/" xmlns:rdf="http://www.w3.org/1999/02/22-rdf-syntax-ns#">
   <cc:Work>
    <dc:type rdf:resource="http://purl.org/dc/dcmitype/StillImage"/>
    <dc:date>2021-02-16T16:34:47.954185</dc:date>
    <dc:format>image/svg+xml</dc:format>
    <dc:creator>
     <cc:Agent>
      <dc:title>Matplotlib v3.3.3, https://matplotlib.org/</dc:title>
     </cc:Agent>
    </dc:creator>
   </cc:Work>
  </rdf:RDF>
 </metadata>
 <defs>
  <style type="text/css">*{stroke-linecap:butt;stroke-linejoin:round;}</style>
 </defs>
 <g id="figure_1">
  <g id="patch_1">
   <path d="M 0 345.6 
L 460.8 345.6 
L 460.8 0 
L 0 0 
z
" style="fill:#ffffff;"/>
  </g>
  <g id="axes_1">
   <g id="patch_2">
    <path d="M 265.92 150.089143 
L 414.72 150.089143 
L 414.72 41.472 
L 265.92 41.472 
z
" style="fill:#ffffff;"/>
   </g>
   <g id="matplotlib.axis_1">
    <g id="xtick_1">
     <g id="line2d_1">
      <defs>
       <path d="M 0 0 
L 0 3.5 
" id="mcc5aa2cb74" style="stroke:#000000;stroke-width:0.8;"/>
      </defs>
      <g>
       <use style="stroke:#000000;stroke-width:0.8;" x="315.519224" xlink:href="#mcc5aa2cb74" y="150.089143"/>
      </g>
     </g>
     <g id="text_1">
      <!-- $\mathdefault{10^{1}}$ -->
      <g transform="translate(306.719224 164.68758)scale(0.1 -0.1)">
       <defs>
        <path d="M 14.203125 0 
L 14.203125 5.171875 
L 26.90625 5.171875 
L 26.90625 65.828125 
L 12.203125 56.296875 
L 12.203125 62.703125 
L 29.984375 74.21875 
L 36.71875 74.21875 
L 36.71875 5.171875 
L 49.421875 5.171875 
L 49.421875 0 
z
" id="DejaVuSerif-49"/>
        <path d="M 31.78125 3.421875 
Q 39.265625 3.421875 42.96875 11.625 
Q 46.6875 19.828125 46.6875 36.375 
Q 46.6875 52.984375 42.96875 61.1875 
Q 39.265625 69.390625 31.78125 69.390625 
Q 24.3125 69.390625 20.59375 61.1875 
Q 16.890625 52.984375 16.890625 36.375 
Q 16.890625 19.828125 20.59375 11.625 
Q 24.3125 3.421875 31.78125 3.421875 
z
M 31.78125 -1.421875 
Q 19.921875 -1.421875 13.25 8.53125 
Q 6.59375 18.5 6.59375 36.375 
Q 6.59375 54.296875 13.25 64.25 
Q 19.921875 74.21875 31.78125 74.21875 
Q 43.703125 74.21875 50.34375 64.25 
Q 56.984375 54.296875 56.984375 36.375 
Q 56.984375 18.5 50.34375 8.53125 
Q 43.703125 -1.421875 31.78125 -1.421875 
z
" id="DejaVuSerif-48"/>
       </defs>
       <use transform="translate(0 0.7125)" xlink:href="#DejaVuSerif-49"/>
       <use transform="translate(63.623047 0.7125)" xlink:href="#DejaVuSerif-48"/>
       <use transform="translate(128.154453 37.046875)scale(0.7)" xlink:href="#DejaVuSerif-49"/>
      </g>
     </g>
    </g>
    <g id="xtick_2">
     <g id="line2d_2">
      <g>
       <use style="stroke:#000000;stroke-width:0.8;" x="373.218149" xlink:href="#mcc5aa2cb74" y="150.089143"/>
      </g>
     </g>
     <g id="text_2">
      <!-- $\mathdefault{10^{2}}$ -->
      <g transform="translate(364.418149 164.68758)scale(0.1 -0.1)">
       <defs>
        <path d="M 12.796875 55.515625 
L 7.328125 55.515625 
L 7.328125 68.5 
Q 12.546875 71.296875 17.84375 72.75 
Q 23.140625 74.21875 28.21875 74.21875 
Q 39.59375 74.21875 46.1875 68.703125 
Q 52.78125 63.1875 52.78125 53.71875 
Q 52.78125 43.015625 37.84375 28.125 
Q 36.671875 27 36.078125 26.421875 
L 17.671875 8.015625 
L 48.09375 8.015625 
L 48.09375 17 
L 53.8125 17 
L 53.8125 0 
L 6.78125 0 
L 6.78125 5.328125 
L 28.90625 27.390625 
Q 36.234375 34.71875 39.359375 40.84375 
Q 42.484375 46.96875 42.484375 53.71875 
Q 42.484375 61.078125 38.640625 65.234375 
Q 34.8125 69.390625 28.078125 69.390625 
Q 21.09375 69.390625 17.28125 65.921875 
Q 13.484375 62.453125 12.796875 55.515625 
z
" id="DejaVuSerif-50"/>
       </defs>
       <use transform="translate(0 0.7125)" xlink:href="#DejaVuSerif-49"/>
       <use transform="translate(63.623047 0.7125)" xlink:href="#DejaVuSerif-48"/>
       <use transform="translate(128.154453 37.046875)scale(0.7)" xlink:href="#DejaVuSerif-50"/>
      </g>
     </g>
    </g>
    <g id="xtick_3">
     <g id="line2d_3">
      <defs>
       <path d="M 0 0 
L 0 2 
" id="m19681c68c5" style="stroke:#000000;stroke-width:0.6;"/>
      </defs>
      <g>
       <use style="stroke:#000000;stroke-width:0.6;" x="275.189406" xlink:href="#m19681c68c5" y="150.089143"/>
      </g>
     </g>
    </g>
    <g id="xtick_4">
     <g id="line2d_4">
      <g>
       <use style="stroke:#000000;stroke-width:0.6;" x="285.349683" xlink:href="#m19681c68c5" y="150.089143"/>
      </g>
     </g>
    </g>
    <g id="xtick_5">
     <g id="line2d_5">
      <g>
       <use style="stroke:#000000;stroke-width:0.6;" x="292.558513" xlink:href="#m19681c68c5" y="150.089143"/>
      </g>
     </g>
    </g>
    <g id="xtick_6">
     <g id="line2d_6">
      <g>
       <use style="stroke:#000000;stroke-width:0.6;" x="298.150117" xlink:href="#m19681c68c5" y="150.089143"/>
      </g>
     </g>
    </g>
    <g id="xtick_7">
     <g id="line2d_7">
      <g>
       <use style="stroke:#000000;stroke-width:0.6;" x="302.71879" xlink:href="#m19681c68c5" y="150.089143"/>
      </g>
     </g>
    </g>
    <g id="xtick_8">
     <g id="line2d_8">
      <g>
       <use style="stroke:#000000;stroke-width:0.6;" x="306.581548" xlink:href="#m19681c68c5" y="150.089143"/>
      </g>
     </g>
    </g>
    <g id="xtick_9">
     <g id="line2d_9">
      <g>
       <use style="stroke:#000000;stroke-width:0.6;" x="309.927621" xlink:href="#m19681c68c5" y="150.089143"/>
      </g>
     </g>
    </g>
    <g id="xtick_10">
     <g id="line2d_10">
      <g>
       <use style="stroke:#000000;stroke-width:0.6;" x="312.879066" xlink:href="#m19681c68c5" y="150.089143"/>
      </g>
     </g>
    </g>
    <g id="xtick_11">
     <g id="line2d_11">
      <g>
       <use style="stroke:#000000;stroke-width:0.6;" x="332.888331" xlink:href="#m19681c68c5" y="150.089143"/>
      </g>
     </g>
    </g>
    <g id="xtick_12">
     <g id="line2d_12">
      <g>
       <use style="stroke:#000000;stroke-width:0.6;" x="343.048608" xlink:href="#m19681c68c5" y="150.089143"/>
      </g>
     </g>
    </g>
    <g id="xtick_13">
     <g id="line2d_13">
      <g>
       <use style="stroke:#000000;stroke-width:0.6;" x="350.257438" xlink:href="#m19681c68c5" y="150.089143"/>
      </g>
     </g>
    </g>
    <g id="xtick_14">
     <g id="line2d_14">
      <g>
       <use style="stroke:#000000;stroke-width:0.6;" x="355.849042" xlink:href="#m19681c68c5" y="150.089143"/>
      </g>
     </g>
    </g>
    <g id="xtick_15">
     <g id="line2d_15">
      <g>
       <use style="stroke:#000000;stroke-width:0.6;" x="360.417715" xlink:href="#m19681c68c5" y="150.089143"/>
      </g>
     </g>
    </g>
    <g id="xtick_16">
     <g id="line2d_16">
      <g>
       <use style="stroke:#000000;stroke-width:0.6;" x="364.280473" xlink:href="#m19681c68c5" y="150.089143"/>
      </g>
     </g>
    </g>
    <g id="xtick_17">
     <g id="line2d_17">
      <g>
       <use style="stroke:#000000;stroke-width:0.6;" x="367.626546" xlink:href="#m19681c68c5" y="150.089143"/>
      </g>
     </g>
    </g>
    <g id="xtick_18">
     <g id="line2d_18">
      <g>
       <use style="stroke:#000000;stroke-width:0.6;" x="370.577991" xlink:href="#m19681c68c5" y="150.089143"/>
      </g>
     </g>
    </g>
    <g id="xtick_19">
     <g id="line2d_19">
      <g>
       <use style="stroke:#000000;stroke-width:0.6;" x="390.587256" xlink:href="#m19681c68c5" y="150.089143"/>
      </g>
     </g>
    </g>
    <g id="xtick_20">
     <g id="line2d_20">
      <g>
       <use style="stroke:#000000;stroke-width:0.6;" x="400.747533" xlink:href="#m19681c68c5" y="150.089143"/>
      </g>
     </g>
    </g>
    <g id="xtick_21">
     <g id="line2d_21">
      <g>
       <use style="stroke:#000000;stroke-width:0.6;" x="407.956364" xlink:href="#m19681c68c5" y="150.089143"/>
      </g>
     </g>
    </g>
    <g id="xtick_22">
     <g id="line2d_22">
      <g>
       <use style="stroke:#000000;stroke-width:0.6;" x="413.547967" xlink:href="#m19681c68c5" y="150.089143"/>
      </g>
     </g>
    </g>
    <g id="text_3">
     <!-- Period d -->
     <g transform="translate(319.231719 178.365705)scale(0.1 -0.1)">
      <defs>
       <path d="M 24.703125 37.109375 
L 37.59375 37.109375 
Q 44.875 37.109375 48.671875 41.03125 
Q 52.484375 44.96875 52.484375 52.390625 
Q 52.484375 59.859375 48.671875 63.765625 
Q 44.875 67.671875 37.59375 67.671875 
L 24.703125 67.671875 
z
M 5.515625 0 
L 5.515625 5.171875 
L 14.796875 5.171875 
L 14.796875 67.671875 
L 5.515625 67.671875 
L 5.515625 72.90625 
L 39.984375 72.90625 
Q 50.921875 72.90625 57.3125 67.359375 
Q 63.71875 61.8125 63.71875 52.390625 
Q 63.71875 43.015625 57.3125 37.453125 
Q 50.921875 31.890625 39.984375 31.890625 
L 24.703125 31.890625 
L 24.703125 5.171875 
L 35.984375 5.171875 
L 35.984375 0 
z
" id="DejaVuSerif-80"/>
       <path d="M 54.203125 25 
L 15.484375 25 
L 15.484375 24.609375 
Q 15.484375 14.109375 19.4375 8.765625 
Q 23.390625 3.421875 31.109375 3.421875 
Q 37.015625 3.421875 40.796875 6.515625 
Q 44.578125 9.625 46.09375 15.71875 
L 53.328125 15.71875 
Q 51.171875 7.171875 45.375 2.875 
Q 39.59375 -1.421875 30.171875 -1.421875 
Q 18.796875 -1.421875 11.890625 6.078125 
Q 4.984375 13.578125 4.984375 25.984375 
Q 4.984375 38.28125 11.765625 45.796875 
Q 18.5625 53.328125 29.59375 53.328125 
Q 41.359375 53.328125 47.65625 46.0625 
Q 53.953125 38.8125 54.203125 25 
z
M 43.609375 30.171875 
Q 43.3125 39.265625 39.765625 43.875 
Q 36.234375 48.484375 29.59375 48.484375 
Q 23.390625 48.484375 19.828125 43.84375 
Q 16.265625 39.203125 15.484375 30.171875 
z
" id="DejaVuSerif-101"/>
       <path d="M 47.796875 52 
L 47.796875 39.015625 
L 42.625 39.015625 
Q 42.390625 42.875 40.484375 44.78125 
Q 38.578125 46.6875 34.90625 46.6875 
Q 28.265625 46.6875 24.71875 42.09375 
Q 21.1875 37.5 21.1875 28.90625 
L 21.1875 5.171875 
L 31.59375 5.171875 
L 31.59375 0 
L 4.109375 0 
L 4.109375 5.171875 
L 12.203125 5.171875 
L 12.203125 46.78125 
L 3.609375 46.78125 
L 3.609375 51.90625 
L 21.1875 51.90625 
L 21.1875 42.671875 
Q 23.828125 48.09375 27.96875 50.703125 
Q 32.125 53.328125 38.09375 53.328125 
Q 40.28125 53.328125 42.703125 52.984375 
Q 45.125 52.640625 47.796875 52 
z
" id="DejaVuSerif-114"/>
       <path d="M 9.71875 68.015625 
Q 9.71875 70.265625 11.34375 71.921875 
Q 12.984375 73.578125 15.28125 73.578125 
Q 17.53125 73.578125 19.15625 71.921875 
Q 20.796875 70.265625 20.796875 68.015625 
Q 20.796875 65.71875 19.1875 64.109375 
Q 17.578125 62.5 15.28125 62.5 
Q 12.984375 62.5 11.34375 64.109375 
Q 9.71875 65.71875 9.71875 68.015625 
z
M 21.1875 5.171875 
L 29.6875 5.171875 
L 29.6875 0 
L 3.609375 0 
L 3.609375 5.171875 
L 12.203125 5.171875 
L 12.203125 46.6875 
L 3.609375 46.6875 
L 3.609375 51.90625 
L 21.1875 51.90625 
z
" id="DejaVuSerif-105"/>
       <path d="M 30.078125 3.421875 
Q 37.3125 3.421875 40.984375 9.125 
Q 44.671875 14.84375 44.671875 25.984375 
Q 44.671875 37.109375 40.984375 42.796875 
Q 37.3125 48.484375 30.078125 48.484375 
Q 22.859375 48.484375 19.171875 42.796875 
Q 15.484375 37.109375 15.484375 25.984375 
Q 15.484375 14.84375 19.1875 9.125 
Q 22.90625 3.421875 30.078125 3.421875 
z
M 30.078125 -1.421875 
Q 18.75 -1.421875 11.859375 6.078125 
Q 4.984375 13.578125 4.984375 25.984375 
Q 4.984375 38.375 11.84375 45.84375 
Q 18.703125 53.328125 30.078125 53.328125 
Q 41.453125 53.328125 48.3125 45.84375 
Q 55.171875 38.375 55.171875 25.984375 
Q 55.171875 13.578125 48.3125 6.078125 
Q 41.453125 -1.421875 30.078125 -1.421875 
z
" id="DejaVuSerif-111"/>
       <path d="M 52.484375 5.171875 
L 61.078125 5.171875 
L 61.078125 0 
L 43.5 0 
L 43.5 8.109375 
Q 40.875 3.21875 36.796875 0.890625 
Q 32.71875 -1.421875 26.703125 -1.421875 
Q 17.140625 -1.421875 11.0625 6.171875 
Q 4.984375 13.765625 4.984375 25.984375 
Q 4.984375 38.1875 11.03125 45.75 
Q 17.09375 53.328125 26.703125 53.328125 
Q 32.71875 53.328125 36.796875 51 
Q 40.875 48.6875 43.5 43.796875 
L 43.5 70.796875 
L 35.015625 70.796875 
L 35.015625 75.984375 
L 52.484375 75.984375 
z
M 43.5 23.390625 
L 43.5 28.515625 
Q 43.5 37.84375 39.90625 42.765625 
Q 36.328125 47.703125 29.5 47.703125 
Q 22.5625 47.703125 19.015625 42.234375 
Q 15.484375 36.765625 15.484375 25.984375 
Q 15.484375 15.234375 19.015625 9.71875 
Q 22.5625 4.203125 29.5 4.203125 
Q 36.328125 4.203125 39.90625 9.109375 
Q 43.5 14.015625 43.5 23.390625 
z
" id="DejaVuSerif-100"/>
       <path id="DejaVuSerif-32"/>
      </defs>
      <use xlink:href="#DejaVuSerif-80"/>
      <use x="62.785156" xlink:href="#DejaVuSerif-101"/>
      <use x="121.964844" xlink:href="#DejaVuSerif-114"/>
      <use x="169.767578" xlink:href="#DejaVuSerif-105"/>
      <use x="201.75" xlink:href="#DejaVuSerif-111"/>
      <use x="261.955078" xlink:href="#DejaVuSerif-100"/>
      <use x="325.96875" xlink:href="#DejaVuSerif-32"/>
      <use x="357.755859" xlink:href="#DejaVuSerif-100"/>
     </g>
    </g>
   </g>
   <g id="matplotlib.axis_2">
    <g id="ytick_1">
     <g id="line2d_23">
      <defs>
       <path d="M 0 0 
L -3.5 0 
" id="m1c28ef4335" style="stroke:#000000;stroke-width:0.8;"/>
      </defs>
      <g>
       <use style="stroke:#000000;stroke-width:0.8;" x="265.92" xlink:href="#m1c28ef4335" y="145.157532"/>
      </g>
     </g>
     <g id="text_4">
      <!-- 0.0 -->
      <g transform="translate(243.016875 148.956751)scale(0.1 -0.1)">
       <defs>
        <path d="M 9.421875 5.078125 
Q 9.421875 7.8125 11.28125 9.71875 
Q 13.140625 11.625 15.921875 11.625 
Q 18.609375 11.625 20.5 9.71875 
Q 22.40625 7.8125 22.40625 5.078125 
Q 22.40625 2.390625 20.5 0.484375 
Q 18.609375 -1.421875 15.921875 -1.421875 
Q 13.140625 -1.421875 11.28125 0.453125 
Q 9.421875 2.34375 9.421875 5.078125 
z
" id="DejaVuSerif-46"/>
       </defs>
       <use xlink:href="#DejaVuSerif-48"/>
       <use x="63.623047" xlink:href="#DejaVuSerif-46"/>
       <use x="95.410156" xlink:href="#DejaVuSerif-48"/>
      </g>
     </g>
    </g>
    <g id="ytick_2">
     <g id="line2d_24">
      <g>
       <use style="stroke:#000000;stroke-width:0.8;" x="265.92" xlink:href="#m1c28ef4335" y="102.837724"/>
      </g>
     </g>
     <g id="text_5">
      <!-- 0.2 -->
      <g transform="translate(243.016875 106.636942)scale(0.1 -0.1)">
       <use xlink:href="#DejaVuSerif-48"/>
       <use x="63.623047" xlink:href="#DejaVuSerif-46"/>
       <use x="95.410156" xlink:href="#DejaVuSerif-50"/>
      </g>
     </g>
    </g>
    <g id="ytick_3">
     <g id="line2d_25">
      <g>
       <use style="stroke:#000000;stroke-width:0.8;" x="265.92" xlink:href="#m1c28ef4335" y="60.517915"/>
      </g>
     </g>
     <g id="text_6">
      <!-- 0.4 -->
      <g transform="translate(243.016875 64.317134)scale(0.1 -0.1)">
       <defs>
        <path d="M 34.90625 24.703125 
L 34.90625 63.484375 
L 10.015625 24.703125 
z
M 56.390625 0 
L 23.1875 0 
L 23.1875 5.171875 
L 34.90625 5.171875 
L 34.90625 19.484375 
L 3.078125 19.484375 
L 3.078125 24.8125 
L 35.015625 74.21875 
L 44.671875 74.21875 
L 44.671875 24.703125 
L 58.59375 24.703125 
L 58.59375 19.484375 
L 44.671875 19.484375 
L 44.671875 5.171875 
L 56.390625 5.171875 
z
" id="DejaVuSerif-52"/>
       </defs>
       <use xlink:href="#DejaVuSerif-48"/>
       <use x="63.623047" xlink:href="#DejaVuSerif-46"/>
       <use x="95.410156" xlink:href="#DejaVuSerif-52"/>
      </g>
     </g>
    </g>
    <g id="text_7">
     <!-- Power -->
     <g transform="translate(236.937188 111.583696)rotate(-90)scale(0.1 -0.1)">
      <defs>
       <path d="M 48 51.90625 
L 61.28125 11.375 
L 73 46.6875 
L 65.484375 46.6875 
L 65.484375 51.90625 
L 84.28125 51.90625 
L 84.28125 46.6875 
L 78.515625 46.6875 
L 63.09375 0 
L 55.609375 0 
L 42.828125 38.8125 
L 29.984375 0 
L 22.796875 0 
L 7.421875 46.6875 
L 1.609375 46.6875 
L 1.609375 51.90625 
L 25.09375 51.90625 
L 25.09375 46.6875 
L 16.703125 46.6875 
L 28.328125 11.375 
L 41.703125 51.90625 
z
" id="DejaVuSerif-119"/>
      </defs>
      <use xlink:href="#DejaVuSerif-80"/>
      <use x="63.285156" xlink:href="#DejaVuSerif-111"/>
      <use x="123.490234" xlink:href="#DejaVuSerif-119"/>
      <use x="209.085938" xlink:href="#DejaVuSerif-101"/>
      <use x="268.265625" xlink:href="#DejaVuSerif-114"/>
     </g>
    </g>
   </g>
   <g id="LineCollection_1">
    <path clip-path="url(#pb388fd267d)" d="M 272.688076 46.409143 
L 407.956364 46.409143 
" style="fill:none;stroke:#808080;stroke-dasharray:5.55,2.4;stroke-dashoffset:0;stroke-width:1.5;"/>
   </g>
   <g id="LineCollection_2">
    <path clip-path="url(#pb388fd267d)" d="M 272.688076 60.318685 
L 407.956364 60.318685 
" style="fill:none;stroke:#a9a9a9;stroke-dasharray:5.55,2.4;stroke-dashoffset:0;stroke-width:1.5;"/>
   </g>
   <g id="LineCollection_3">
    <path clip-path="url(#pb388fd267d)" d="M 272.688076 71.270714 
L 407.956364 71.270714 
" style="fill:none;stroke:#c0c0c0;stroke-dasharray:5.55,2.4;stroke-dashoffset:0;stroke-width:1.5;"/>
   </g>
   <g id="LineCollection_4">
    <path clip-path="url(#pb388fd267d)" d="M 272.688076 76.444003 
L 407.956364 76.444003 
" style="fill:none;stroke:#d3d3d3;stroke-dasharray:5.55,2.4;stroke-dashoffset:0;stroke-width:1.5;"/>
   </g>
   <g id="line2d_26">
    <path clip-path="url(#pb388fd267d)" d="M 407.956364 115.575 
L 403.213616 140.985589 
L 399.227255 139.808986 
L 395.788878 117.682955 
L 392.765875 105.418327 
L 390.068617 105.772613 
L 387.633683 114.924722 
L 385.414539 133.970802 
L 383.376032 142.983506 
L 381.490955 127.796038 
L 379.73782 109.98583 
L 378.099359 99.542473 
L 376.561486 109.442359 
L 375.112563 134.973617 
L 373.74286 138.731009 
L 370.032763 101.744418 
L 368.908846 114.545629 
L 367.833182 140.173428 
L 366.801799 130.440294 
L 365.811193 107.993962 
L 364.858264 97.681235 
L 363.940249 91.790219 
L 363.054681 111.882316 
L 362.199344 143.962743 
L 360.571569 103.716782 
L 359.79569 76.998413 
L 359.043114 70.125902 
L 357.602554 142.169703 
L 356.240326 109.50851 
L 355.586012 87.0446 
L 354.948349 87.553598 
L 353.719731 133.353135 
L 353.127298 124.004829 
L 352.548548 117.021935 
L 351.982864 117.360868 
L 351.429669 106.359726 
L 350.888423 106.346705 
L 350.358621 123.237631 
L 349.839788 119.551113 
L 349.331481 121.349812 
L 348.83328 129.376882 
L 348.344791 114.061097 
L 347.865643 104.457737 
L 347.395485 111.489223 
L 346.480834 120.157878 
L 346.035731 129.069928 
L 345.598396 126.239572 
L 345.168563 115.675931 
L 344.745979 117.676324 
L 344.330404 114.675355 
L 343.921608 113.077094 
L 343.123495 129.083832 
L 342.733774 129.777294 
L 342.35002 128.946722 
L 341.599707 115.398494 
L 341.23281 114.282602 
L 340.871208 123.780994 
L 340.51475 126.632379 
L 340.163291 134.822023 
L 339.816694 135.055551 
L 339.474825 120.212836 
L 339.137558 113.595952 
L 338.80477 115.798849 
L 338.476344 124.342432 
L 338.152167 141.636349 
L 337.83213 139.398988 
L 337.204063 114.659795 
L 336.895836 108.777258 
L 336.591354 122.537919 
L 336.290527 144.061555 
L 335.993269 137.657935 
L 335.409128 107.535913 
L 335.122085 109.736064 
L 334.55768 144.716013 
L 334.005708 102.316662 
L 333.734215 99.799632 
L 333.465633 111.988569 
L 333.199898 134.753277 
L 332.936952 144.257762 
L 332.419196 96.162271 
L 332.164275 100.676658 
L 331.662084 139.324811 
L 331.414712 141.752818 
L 330.927177 112.987495 
L 330.448947 123.715646 
L 329.979673 136.452178 
L 329.29184 122.185759 
L 328.843554 115.202521 
L 328.403148 135.478181 
L 327.970348 118.145272 
L 327.756719 116.710364 
L 327.544897 107.065074 
L 327.126548 133.638132 
L 326.511837 107.571685 
L 326.310239 114.705093 
L 326.11025 132.130599 
L 325.911845 134.366219 
L 325.325884 90.803551 
L 325.133569 105.240871 
L 324.942719 131.809948 
L 324.753312 139.975859 
L 324.193532 83.599989 
L 324.009683 89.600128 
L 323.645984 143.117912 
L 323.466094 130.855069 
L 323.110144 85.623786 
L 322.934048 90.463907 
L 322.585524 141.373057 
L 322.413063 133.431427 
L 322.071662 106.135017 
L 321.90269 105.833849 
L 321.568126 135.123396 
L 321.402505 126.729053 
L 320.912109 130.125238 
L 320.750753 131.243365 
L 320.431126 116.549861 
L 319.959202 141.435793 
L 319.649452 117.482175 
L 319.496001 114.780793 
L 319.041207 141.914537 
L 318.594521 127.713212 
L 318.301094 133.996825 
L 318.155658 132.982966 
L 317.867296 142.128658 
L 317.582214 129.954044 
L 317.44088 122.693097 
L 317.300339 123.59176 
L 317.021599 144.234768 
L 316.883384 138.039994 
L 316.609219 116.531961 
L 316.203515 142.035043 
L 315.936649 119.825759 
L 315.804275 123.516558 
L 315.541606 140.345795 
L 315.411296 134.194404 
L 315.152693 113.720294 
L 314.769725 143.216975 
L 314.392521 93.670207 
L 314.268038 102.938002 
L 314.020912 145.125506 
L 313.898256 124.044184 
L 313.654732 61.236381 
L 313.533852 74.019628 
L 313.293827 143.123762 
L 313.174672 135.039517 
L 312.938046 65.731431 
L 312.820567 66.705226 
L 312.471396 144.033141 
L 312.127024 92.374822 
L 311.900044 112.154253 
L 311.675102 141.981798 
L 311.563383 132.551376 
L 311.34143 85.964367 
L 311.231186 93.131515 
L 311.012142 140.967941 
L 310.903334 138.08225 
L 310.687126 100.867604 
L 310.579717 106.510121 
L 310.366271 141.989408 
L 310.049473 114.868322 
L 309.840478 140.429057 
L 309.73663 139.804648 
L 309.530217 109.921795 
L 309.427645 115.4825 
L 309.223751 144.678311 
L 309.122423 137.291601 
L 308.920988 109.363243 
L 308.621839 144.800806 
L 308.522911 140.397579 
L 308.326219 123.577152 
L 308.228449 124.521942 
L 308.034047 143.423325 
L 307.937408 143.090624 
L 307.745241 131.965276 
L 307.649708 132.264595 
L 307.459727 141.075284 
L 307.365274 140.286377 
L 307.271175 138.450121 
L 307.084032 140.093353 
L 306.990981 138.996838 
L 306.805911 132.899385 
L 306.713886 134.546759 
L 306.530844 142.299821 
L 306.439822 139.56596 
L 306.258763 127.502881 
L 306.168722 129.683636 
L 305.989605 141.261349 
L 305.900524 138.29853 
L 305.723307 123.980657 
L 305.635166 126.976603 
L 305.459809 136.141186 
L 305.372589 136.681332 
L 305.285671 134.570355 
L 305.026712 120.919213 
L 304.855548 140.141173 
L 304.770402 138.005881 
L 304.600973 104.414871 
L 304.516687 104.979959 
L 304.348959 143.268172 
L 304.265515 137.510682 
L 304.099454 85.585863 
L 304.016835 88.520047 
L 303.852409 143.661498 
L 303.770599 137.996961 
L 303.52676 71.821932 
L 303.28527 142.12983 
L 303.046086 95.329968 
L 302.809162 144.79762 
L 302.730683 137.58867 
L 302.574458 102.538789 
L 302.49671 106.718837 
L 302.264901 144.212711 
L 302.111544 118.18535 
L 302.035216 121.468485 
L 301.807618 142.725255 
L 301.657027 132.444571 
L 301.582069 134.73024 
L 301.432822 140.125896 
L 301.358531 139.987141 
L 301.210607 136.49663 
L 301.06355 142.072642 
L 300.990344 141.82907 
L 300.844571 138.681096 
L 300.772001 139.76951 
L 300.555543 143.796768 
L 300.483805 143.617643 
L 300.269812 135.528941 
L 300.057631 144.8146 
L 299.847232 134.490888 
L 299.77749 134.248579 
L 299.638585 144.375461 
L 299.56942 143.696806 
L 299.431661 134.504244 
L 299.363064 129.965099 
L 299.294655 130.682862 
L 299.09054 145.089728 
L 299.022869 140.180804 
L 298.820947 114.188041 
L 298.62064 144.131258 
L 298.42192 113.698192 
L 298.356029 119.148922 
L 298.159389 143.007515 
L 297.96428 109.060327 
L 297.89958 115.157318 
L 297.770679 142.947524 
L 297.706476 142.259266 
L 297.578561 112.74954 
L 297.514848 120.48258 
L 297.324675 141.314577 
L 297.19869 133.808466 
L 297.135934 135.013182 
L 296.948604 128.524212 
L 296.886471 130.904652 
L 296.762664 143.787822 
L 296.578094 124.302358 
L 296.516872 127.171959 
L 296.394874 143.320408 
L 296.334097 142.782832 
L 296.212983 133.709399 
L 296.092452 138.160878 
L 296.032403 136.850995 
L 295.972498 137.864661 
L 295.793636 144.6399 
L 295.616043 124.208636 
L 295.557123 127.718288 
L 295.439699 142.723959 
L 295.381192 139.013133 
L 295.264587 120.565745 
L 295.206487 125.160493 
L 295.090691 138.353464 
L 295.032992 137.04654 
L 294.917993 120.890993 
L 294.86069 120.995358 
L 294.746477 134.545481 
L 294.689565 134.370027 
L 294.576127 121.176601 
L 294.5196 122.867714 
L 294.350781 138.556297 
L 294.183091 126.286712 
L 294.016515 143.800136 
L 293.961236 140.158743 
L 293.796124 127.980643 
L 293.686651 144.056458 
L 293.632093 141.728448 
L 293.523333 119.864441 
L 293.469129 120.332936 
L 293.361072 143.453533 
L 293.307218 138.940815 
L 293.199855 115.140344 
L 293.146346 119.578113 
L 293.039669 143.706799 
L 292.9865 136.054837 
L 292.8805 116.12206 
L 292.827668 123.366563 
L 292.722336 144.4662 
L 292.617446 119.400843 
L 292.565165 120.199085 
L 292.460928 143.92158 
L 292.408972 142.822338 
L 292.305382 121.519758 
L 292.253748 128.386975 
L 292.150796 145.050012 
L 292.099478 140.750159 
L 291.997158 126.268197 
L 291.844455 145.152 
L 291.793761 140.970015 
L 291.692678 125.051443 
L 291.642289 128.829951 
L 291.541814 144.254933 
L 291.491728 143.808511 
L 291.391854 128.468079 
L 291.342066 131.302419 
L 291.193292 144.702601 
L 291.094598 136.391388 
L 291.045396 136.398236 
L 290.898369 144.625187 
L 290.84955 142.624519 
L 290.752198 137.039971 
L 290.703664 138.963693 
L 290.606876 141.84265 
L 289.93963 102.395779 
L 289.892643 107.241158 
L 289.845744 107.408305 
L 289.70557 90.317749 
L 289.659019 92.089635 
L 289.566176 115.759848 
L 289.519883 112.535523 
L 289.381515 104.039017 
L 289.289692 134.072333 
L 289.243907 133.759142 
L 289.152586 125.197601 
L 289.10705 129.239219 
L 289.016226 143.822389 
L 288.970937 140.770689 
L 288.880604 128.917237 
L 288.835559 132.818923 
L 288.745712 144.343849 
L 288.700909 142.238985 
L 288.566978 129.071571 
L 288.43376 143.042226 
L 288.389511 137.853222 
L 288.25723 122.214052 
L 288.125643 140.165523 
L 287.994745 117.176154 
L 287.864526 142.574308 
L 287.82127 138.74639 
L 287.73498 130.379706 
L 287.691947 134.452461 
L 287.606101 144.474746 
L 287.563288 141.576623 
L 287.477881 135.983217 
L 287.435287 138.596097 
L 287.392765 142.237484 
L 287.350314 141.506706 
L 287.223394 121.412581 
L 287.181229 123.453118 
L 287.139135 127.128904 
L 287.097112 125.476345 
L 286.971464 97.39815 
L 286.929721 99.373618 
L 286.846443 112.088138 
L 286.804908 106.164809 
L 286.680713 90.628822 
L 286.271119 137.951248 
L 286.189998 135.416449 
L 286.149536 135.935497 
L 285.988336 143.380107 
L 285.948198 141.368427 
L 285.868114 137.136854 
L 285.828167 138.41971 
L 285.748465 143.213433 
L 285.708709 141.541436 
L 285.589817 134.205047 
L 285.510868 141.307885 
L 285.471487 139.682062 
L 285.353713 129.783361 
L 285.314578 133.224922 
L 285.23649 138.334259 
L 285.119812 128.242812 
L 285.08104 131.398353 
L 285.003676 138.86283 
L 284.965083 136.689923 
L 284.888075 128.320643 
L 284.84966 129.041455 
L 284.773005 138.652417 
L 284.734766 137.247943 
L 284.620396 127.479001 
L 284.544439 137.263362 
L 284.468711 132.858436 
L 284.430932 130.072125 
L 284.393211 130.375844 
L 284.280386 140.122613 
L 284.24289 136.615052 
L 284.205451 133.667091 
L 284.168067 134.149932 
L 284.056249 142.65228 
L 284.019087 139.275246 
L 283.944928 135.504669 
L 283.870987 144.009305 
L 283.797265 140.519039 
L 283.760485 137.449749 
L 283.723758 137.575644 
L 283.613901 145.128157 
L 283.577389 143.799554 
L 283.46817 137.844242 
L 283.43187 139.362886 
L 283.359426 144.59857 
L 283.323282 141.962403 
L 283.215163 126.343255 
L 283.179227 130.68885 
L 283.107508 141.266322 
L 283.071726 135.940513 
L 283.000314 121.592715 
L 282.964685 124.357398 
L 282.893577 141.589855 
L 282.858099 139.370982 
L 282.787292 129.403209 
L 282.751964 131.518932 
L 282.646277 143.58333 
L 282.611147 138.343302 
L 282.576066 134.150483 
L 282.541034 134.876624 
L 282.471117 143.944318 
L 282.401394 139.098216 
L 282.366605 134.649849 
L 282.297172 139.907093 
L 282.262528 143.225283 
L 282.227931 141.726444 
L 282.158881 133.383573 
L 282.124427 134.447142 
L 282.021348 142.343191 
L 281.987083 140.302959 
L 281.952864 138.272041 
L 281.918692 138.740158 
L 281.782468 144.885049 
L 281.748527 144.877902 
L 281.714633 144.85967 
L 281.613223 142.507075 
L 281.512222 139.660996 
L 281.445113 140.700398 
L 281.411626 140.601211 
L 281.344786 137.430552 
L 281.311432 137.647794 
L 281.178461 144.599597 
L 281.145328 143.782615 
L 281.046192 141.518212 
L 281.013234 141.887851 
L 280.914617 145.096224 
L 280.881831 143.443964 
L 280.78373 135.271513 
L 280.751115 139.013433 
L 280.686011 145.023911 
L 280.653522 141.293839 
L 280.588672 134.245689 
L 280.523988 137.571027 
L 280.459471 145.111709 
L 280.427275 141.851946 
L 280.363006 130.064812 
L 280.330934 131.812409 
L 280.234961 144.584453 
L 280.203052 140.763107 
L 280.171183 136.766232 
L 280.107567 139.702708 
L 280.012445 141.824877 
L 279.94923 143.856554 
L 279.917683 141.017335 
L 279.854706 134.355767 
L 279.823277 136.57074 
L 279.760537 144.821434 
L 279.697954 140.415016 
L 279.666721 138.989496 
L 279.635526 140.365971 
L 279.480135 144.613355 
L 279.449172 144.186989 
L 279.38736 133.020189 
L 279.325701 139.601522 
L 279.294928 143.780285 
L 279.233496 138.22032 
L 279.172213 132.349456 
L 279.141628 137.960259 
L 279.11108 142.803878 
L 279.050096 140.063289 
L 279.01966 138.135621 
L 278.98926 138.658144 
L 278.928572 143.99853 
L 278.868029 142.473978 
L 278.837813 142.01379 
L 278.807633 142.570089 
L 278.747382 144.455905 
L 278.717311 143.041926 
L 278.687276 142.150529 
L 278.657277 142.676402 
L 278.597386 144.434208 
L 278.567494 142.681981 
L 278.507817 138.746785 
L 278.478032 141.054056 
L 278.418567 144.067147 
L 278.388888 139.254134 
L 278.359243 134.788739 
L 278.30006 140.358392 
L 278.241016 145.04718 
L 278.211546 141.825956 
L 278.18211 137.087985 
L 278.123343 142.126674 
L 278.094011 141.929393 
L 278.064713 140.609878 
L 278.00622 142.036632 
L 277.977025 142.950117 
L 277.947864 142.576025 
L 277.889643 138.475649 
L 277.831556 140.729307 
L 277.773605 141.795405 
L 277.715787 141.140635 
L 277.686927 140.982035 
L 277.629309 131.789724 
L 277.571822 140.056311 
L 277.543128 144.808631 
L 277.514467 141.895951 
L 277.42868 120.34892 
L 277.40015 129.135765 
L 277.371652 143.881396 
L 277.314753 130.140307 
L 277.257983 119.519626 
L 277.229646 129.792276 
L 277.201341 143.235512 
L 277.144827 133.719108 
L 277.116617 127.562103 
L 277.060294 137.447329 
L 277.032179 144.032144 
L 276.976045 138.317706 
L 276.948025 134.985466 
L 276.892079 140.472725 
L 276.864152 145.134319 
L 276.808393 136.664408 
L 276.752757 129.94468 
L 276.724985 136.460576 
L 276.697244 143.3787 
L 276.641855 134.06086 
L 276.586587 125.057431 
L 276.558999 133.698244 
L 276.531441 141.339533 
L 276.448949 133.951918 
L 276.421512 133.236333 
L 276.366727 144.022842 
L 276.284775 142.405788 
L 276.230288 144.907778 
L 276.14878 144.886781 
L 276.040513 142.399017 
L 276.013519 143.34867 
L 275.986554 144.598419 
L 275.905834 143.486851 
L 275.825372 136.757362 
L 275.798609 137.49622 
L 275.745168 144.228846 
L 275.718491 137.347527 
L 275.66522 114.448614 
L 275.612063 128.578122 
L 275.585527 141.309193 
L 275.532538 120.56684 
L 275.506086 111.443851 
L 275.453264 127.411365 
L 275.400554 143.087062 
L 275.347955 125.195473 
L 275.321697 122.39358 
L 275.295466 128.293449 
L 275.269262 141.950804 
L 275.190816 136.277813 
L 275.086602 116.78297 
L 275.060615 119.326625 
L 274.982819 144.850702 
L 274.95694 138.981567 
L 274.879464 111.055032 
L 274.853692 126.778523 
L 274.827946 141.878317 
L 274.776534 120.977624 
L 274.725226 111.302291 
L 274.699612 123.824369 
L 274.648462 143.686468 
L 274.597417 125.316527 
L 274.571933 125.323703 
L 274.470255 144.551629 
L 274.419571 142.127067 
L 274.368989 137.083219 
L 274.318509 143.186375 
L 274.26813 144.600613 
L 274.217853 142.91344 
L 274.192752 144.025341 
L 274.117599 142.755922 
L 274.092598 143.340041 
L 274.067622 144.747681 
L 274.042671 143.173368 
L 273.967967 135.49588 
L 273.943115 138.592247 
L 273.918287 141.514516 
L 273.893484 134.237398 
L 273.868706 128.818755 
L 273.819223 132.871299 
L 273.769837 140.694456 
L 273.74518 132.931319 
L 273.720548 128.136432 
L 273.671356 137.024297 
L 273.622261 144.476706 
L 273.573261 134.534957 
L 273.475549 144.488056 
L 273.45118 139.712408 
L 273.426835 135.339898 
L 273.378216 140.032167 
L 273.353942 144.709119 
L 273.305463 133.485806 
L 273.281259 125.807277 
L 273.232922 135.502009 
L 273.208788 144.039077 
L 273.160589 125.105006 
L 273.136525 119.257154 
L 273.088465 132.956684 
L 273.040497 143.878206 
L 273.016548 133.471743 
L 272.992621 126.242421 
L 272.944836 135.929258 
L 272.897142 142.542862 
L 272.849539 137.240217 
L 272.825771 136.846157 
L 272.70727 141.695623 
L 272.683636 140.343011 
" style="fill:none;stroke:#1f77b4;stroke-linecap:square;stroke-width:1.5;"/>
   </g>
   <g id="patch_3">
    <path d="M 265.92 150.089143 
L 265.92 41.472 
" style="fill:none;stroke:#000000;stroke-linecap:square;stroke-linejoin:miter;stroke-width:0.8;"/>
   </g>
   <g id="patch_4">
    <path d="M 414.72 150.089143 
L 414.72 41.472 
" style="fill:none;stroke:#000000;stroke-linecap:square;stroke-linejoin:miter;stroke-width:0.8;"/>
   </g>
   <g id="patch_5">
    <path d="M 265.92 150.089143 
L 414.72 150.089143 
" style="fill:none;stroke:#000000;stroke-linecap:square;stroke-linejoin:miter;stroke-width:0.8;"/>
   </g>
   <g id="patch_6">
    <path d="M 265.92 41.472 
L 414.72 41.472 
" style="fill:none;stroke:#000000;stroke-linecap:square;stroke-linejoin:miter;stroke-width:0.8;"/>
   </g>
   <g id="text_8">
    <!-- Periodogram -->
    <g transform="translate(307.698125 35.472)scale(0.1 -0.1)">
     <defs>
      <path d="M 52.484375 46.6875 
L 52.484375 1.125 
Q 52.484375 -10.0625 46.328125 -16.140625 
Q 40.1875 -22.21875 28.8125 -22.21875 
Q 23.6875 -22.21875 19 -21.28125 
Q 14.3125 -20.359375 10.015625 -18.5 
L 10.015625 -7.625 
L 14.703125 -7.625 
Q 15.578125 -12.703125 18.84375 -15.046875 
Q 22.125 -17.390625 28.21875 -17.390625 
Q 36.140625 -17.390625 39.8125 -12.921875 
Q 43.5 -8.453125 43.5 1.125 
L 43.5 8.109375 
Q 40.875 3.21875 36.796875 0.890625 
Q 32.71875 -1.421875 26.703125 -1.421875 
Q 17.140625 -1.421875 11.0625 6.171875 
Q 4.984375 13.765625 4.984375 25.984375 
Q 4.984375 38.1875 11.03125 45.75 
Q 17.09375 53.328125 26.703125 53.328125 
Q 32.71875 53.328125 36.796875 51 
Q 40.875 48.6875 43.5 43.796875 
L 43.5 51.90625 
L 61.078125 51.90625 
L 61.078125 46.6875 
z
M 43.5 28.515625 
Q 43.5 37.84375 39.90625 42.765625 
Q 36.328125 47.703125 29.5 47.703125 
Q 22.5625 47.703125 19.015625 42.234375 
Q 15.484375 36.765625 15.484375 25.984375 
Q 15.484375 15.234375 19.015625 9.71875 
Q 22.5625 4.203125 29.5 4.203125 
Q 36.328125 4.203125 39.90625 9.109375 
Q 43.5 14.015625 43.5 23.390625 
z
" id="DejaVuSerif-103"/>
      <path d="M 39.796875 16.3125 
L 39.796875 27.296875 
L 28.21875 27.296875 
Q 21.53125 27.296875 18.25 24.40625 
Q 14.984375 21.53125 14.984375 15.578125 
Q 14.984375 10.15625 18.296875 6.984375 
Q 21.625 3.8125 27.296875 3.8125 
Q 32.90625 3.8125 36.34375 7.28125 
Q 39.796875 10.75 39.796875 16.3125 
z
M 48.78125 32.421875 
L 48.78125 5.171875 
L 56.78125 5.171875 
L 56.78125 0 
L 39.796875 0 
L 39.796875 5.609375 
Q 36.8125 2 32.90625 0.28125 
Q 29 -1.421875 23.78125 -1.421875 
Q 15.140625 -1.421875 10.0625 3.171875 
Q 4.984375 7.765625 4.984375 15.578125 
Q 4.984375 23.640625 10.796875 28.078125 
Q 16.609375 32.515625 27.203125 32.515625 
L 39.796875 32.515625 
L 39.796875 36.078125 
Q 39.796875 42 36.203125 45.234375 
Q 32.625 48.484375 26.125 48.484375 
Q 20.75 48.484375 17.578125 46.046875 
Q 14.40625 43.609375 13.625 38.8125 
L 8.984375 38.8125 
L 8.984375 49.3125 
Q 13.671875 51.3125 18.09375 52.3125 
Q 22.515625 53.328125 26.703125 53.328125 
Q 37.5 53.328125 43.140625 47.96875 
Q 48.78125 42.625 48.78125 32.421875 
z
" id="DejaVuSerif-97"/>
      <path d="M 51.8125 41.796875 
Q 54.390625 47.515625 58.421875 50.421875 
Q 62.453125 53.328125 67.828125 53.328125 
Q 75.984375 53.328125 79.984375 48.265625 
Q 83.984375 43.21875 83.984375 33.015625 
L 83.984375 5.171875 
L 92.09375 5.171875 
L 92.09375 0 
L 67.1875 0 
L 67.1875 5.171875 
L 75 5.171875 
L 75 31.984375 
Q 75 39.9375 72.65625 43.3125 
Q 70.3125 46.6875 64.890625 46.6875 
Q 58.890625 46.6875 55.734375 42.140625 
Q 52.59375 37.59375 52.59375 28.90625 
L 52.59375 5.171875 
L 60.40625 5.171875 
L 60.40625 0 
L 35.796875 0 
L 35.796875 5.171875 
L 43.609375 5.171875 
L 43.609375 32.328125 
Q 43.609375 40.09375 41.265625 43.390625 
Q 38.921875 46.6875 33.5 46.6875 
Q 27.484375 46.6875 24.328125 42.140625 
Q 21.1875 37.59375 21.1875 28.90625 
L 21.1875 5.171875 
L 29 5.171875 
L 29 0 
L 4.109375 0 
L 4.109375 5.171875 
L 12.203125 5.171875 
L 12.203125 46.78125 
L 3.609375 46.78125 
L 3.609375 51.90625 
L 21.1875 51.90625 
L 21.1875 42.671875 
Q 23.6875 47.859375 27.53125 50.59375 
Q 31.390625 53.328125 36.28125 53.328125 
Q 42.328125 53.328125 46.375 50.3125 
Q 50.4375 47.3125 51.8125 41.796875 
z
" id="DejaVuSerif-109"/>
     </defs>
     <use xlink:href="#DejaVuSerif-80"/>
     <use x="62.785156" xlink:href="#DejaVuSerif-101"/>
     <use x="121.964844" xlink:href="#DejaVuSerif-114"/>
     <use x="169.767578" xlink:href="#DejaVuSerif-105"/>
     <use x="201.75" xlink:href="#DejaVuSerif-111"/>
     <use x="261.955078" xlink:href="#DejaVuSerif-100"/>
     <use x="325.96875" xlink:href="#DejaVuSerif-111"/>
     <use x="386.173828" xlink:href="#DejaVuSerif-103"/>
     <use x="450.1875" xlink:href="#DejaVuSerif-114"/>
     <use x="497.990234" xlink:href="#DejaVuSerif-97"/>
     <use x="557.609375" xlink:href="#DejaVuSerif-109"/>
    </g>
   </g>
   <g id="legend_1">
    <g id="patch_7">
     <path d="M 419.648125 108.123071 
L 454.431875 108.123071 
Q 455.231875 108.123071 455.231875 107.323071 
L 455.231875 84.238071 
Q 455.231875 83.438071 454.431875 83.438071 
L 419.648125 83.438071 
Q 418.848125 83.438071 418.848125 84.238071 
L 418.848125 107.323071 
Q 418.848125 108.123071 419.648125 108.123071 
z
" style="fill:#ffffff;opacity:0.8;stroke:#cccccc;stroke-linejoin:miter;"/>
    </g>
    <g id="line2d_27">
     <path d="M 420.448125 86.677446 
L 428.448125 86.677446 
" style="fill:none;stroke:#808080;stroke-dasharray:5.55,2.4;stroke-dashoffset:0;stroke-width:1.5;"/>
    </g>
    <g id="text_9">
     <!-- 99.9% FAP -->
     <g transform="translate(431.648125 88.077446)scale(0.04 -0.04)">
      <defs>
       <path d="M 46.78125 32.671875 
Q 43.5 29 39.25 27.1875 
Q 35.015625 25.390625 29.6875 25.390625 
Q 18.84375 25.390625 12.5625 31.9375 
Q 6.296875 38.484375 6.296875 49.8125 
Q 6.296875 60.890625 13.109375 67.546875 
Q 19.921875 74.21875 31.296875 74.21875 
Q 43.65625 74.21875 50.265625 65.015625 
Q 56.890625 55.8125 56.890625 38.71875 
Q 56.890625 19.578125 49.015625 9.078125 
Q 41.15625 -1.421875 26.90625 -1.421875 
Q 23.046875 -1.421875 18.796875 -0.6875 
Q 14.546875 0.046875 10.109375 1.515625 
L 10.109375 13.625 
L 15.578125 13.625 
Q 16.21875 8.6875 19.390625 6.046875 
Q 22.5625 3.421875 27.875 3.421875 
Q 37.359375 3.421875 41.984375 10.5625 
Q 46.625 17.71875 46.78125 32.671875 
z
M 30.90625 69.390625 
Q 23.96875 69.390625 20.28125 64.328125 
Q 16.609375 59.28125 16.609375 49.8125 
Q 16.609375 40.328125 20.28125 35.25 
Q 23.96875 30.171875 30.90625 30.171875 
Q 37.84375 30.171875 41.53125 35.078125 
Q 45.21875 39.984375 45.21875 49.21875 
Q 45.21875 58.9375 41.5 64.15625 
Q 37.796875 69.390625 30.90625 69.390625 
z
" id="DejaVuSerif-57"/>
       <path d="M 22.40625 69.671875 
Q 18.109375 69.671875 15.6875 65.625 
Q 13.28125 61.578125 13.28125 54.296875 
Q 13.28125 47.125 15.75 43.015625 
Q 18.21875 38.921875 22.40625 38.921875 
Q 26.5625 38.921875 28.96875 43 
Q 31.390625 47.078125 31.390625 54.296875 
Q 31.390625 61.53125 28.96875 65.59375 
Q 26.5625 69.671875 22.40625 69.671875 
z
M 72.703125 33.890625 
Q 68.453125 33.890625 66.03125 29.78125 
Q 63.625 25.6875 63.625 18.40625 
Q 63.625 11.234375 66.0625 7.15625 
Q 68.5 3.078125 72.703125 3.078125 
Q 76.90625 3.078125 79.296875 7.15625 
Q 81.6875 11.234375 81.6875 18.40625 
Q 81.6875 25.640625 79.265625 29.765625 
Q 76.859375 33.890625 72.703125 33.890625 
z
M 72.703125 38.28125 
Q 80.421875 38.28125 84.953125 32.90625 
Q 89.5 27.546875 89.5 18.40625 
Q 89.5 9.28125 84.9375 3.921875 
Q 80.375 -1.421875 72.703125 -1.421875 
Q 64.890625 -1.421875 60.34375 3.921875 
Q 55.8125 9.28125 55.8125 18.40625 
Q 55.8125 27.59375 60.375 32.9375 
Q 64.9375 38.28125 72.703125 38.28125 
z
M 66.609375 74.21875 
L 74.03125 74.21875 
L 28.421875 -1.421875 
L 21 -1.421875 
z
M 22.3125 74.21875 
Q 30.03125 74.21875 34.609375 68.875 
Q 39.203125 63.53125 39.203125 54.390625 
Q 39.203125 45.171875 34.640625 39.84375 
Q 30.078125 34.515625 22.3125 34.515625 
Q 14.546875 34.515625 10.03125 39.859375 
Q 5.515625 45.21875 5.515625 54.390625 
Q 5.515625 63.484375 10.046875 68.84375 
Q 14.59375 74.21875 22.3125 74.21875 
z
" id="DejaVuSerif-37"/>
       <path d="M 5.515625 0 
L 5.515625 5.171875 
L 14.796875 5.171875 
L 14.796875 67.671875 
L 5.515625 67.671875 
L 5.515625 72.90625 
L 65.1875 72.90625 
L 65.1875 56.6875 
L 59.1875 56.6875 
L 59.1875 66.890625 
L 24.703125 66.890625 
L 24.703125 42.484375 
L 49.609375 42.484375 
L 49.609375 51.609375 
L 55.609375 51.609375 
L 55.609375 27.390625 
L 49.609375 27.390625 
L 49.609375 36.53125 
L 24.703125 36.53125 
L 24.703125 5.171875 
L 36.375 5.171875 
L 36.375 0 
z
" id="DejaVuSerif-70"/>
       <path d="M 20.015625 26.421875 
L 46.78125 26.421875 
L 33.40625 61.078125 
z
M -0.59375 0 
L -0.59375 5.171875 
L 5.8125 5.171875 
L 31.78125 72.90625 
L 39.984375 72.90625 
L 66.015625 5.171875 
L 73.1875 5.171875 
L 73.1875 0 
L 46.6875 0 
L 46.6875 5.171875 
L 54.78125 5.171875 
L 48.6875 21.1875 
L 18.015625 21.1875 
L 11.921875 5.171875 
L 19.921875 5.171875 
L 19.921875 0 
z
" id="DejaVuSerif-65"/>
      </defs>
      <use xlink:href="#DejaVuSerif-57"/>
      <use x="63.623047" xlink:href="#DejaVuSerif-57"/>
      <use x="127.246094" xlink:href="#DejaVuSerif-46"/>
      <use x="159.033203" xlink:href="#DejaVuSerif-57"/>
      <use x="222.65625" xlink:href="#DejaVuSerif-37"/>
      <use x="317.675781" xlink:href="#DejaVuSerif-32"/>
      <use x="349.462891" xlink:href="#DejaVuSerif-70"/>
      <use x="410.097656" xlink:href="#DejaVuSerif-65"/>
      <use x="482.314453" xlink:href="#DejaVuSerif-80"/>
     </g>
    </g>
    <g id="line2d_28">
     <path d="M 420.448125 92.548696 
L 428.448125 92.548696 
" style="fill:none;stroke:#a9a9a9;stroke-dasharray:5.55,2.4;stroke-dashoffset:0;stroke-width:1.5;"/>
    </g>
    <g id="text_10">
     <!-- 99.0% FAP -->
     <g transform="translate(431.648125 93.948696)scale(0.04 -0.04)">
      <use xlink:href="#DejaVuSerif-57"/>
      <use x="63.623047" xlink:href="#DejaVuSerif-57"/>
      <use x="127.246094" xlink:href="#DejaVuSerif-46"/>
      <use x="159.033203" xlink:href="#DejaVuSerif-48"/>
      <use x="222.65625" xlink:href="#DejaVuSerif-37"/>
      <use x="317.675781" xlink:href="#DejaVuSerif-32"/>
      <use x="349.462891" xlink:href="#DejaVuSerif-70"/>
      <use x="410.097656" xlink:href="#DejaVuSerif-65"/>
      <use x="482.314453" xlink:href="#DejaVuSerif-80"/>
     </g>
    </g>
    <g id="line2d_29">
     <path d="M 420.448125 98.419946 
L 428.448125 98.419946 
" style="fill:none;stroke:#c0c0c0;stroke-dasharray:5.55,2.4;stroke-dashoffset:0;stroke-width:1.5;"/>
    </g>
    <g id="text_11">
     <!-- 95.0% FAP -->
     <g transform="translate(431.648125 99.819946)scale(0.04 -0.04)">
      <defs>
       <path d="M 50.296875 72.90625 
L 50.296875 64.890625 
L 16.890625 64.890625 
L 16.890625 44 
Q 19.4375 45.75 22.828125 46.625 
Q 26.21875 47.515625 30.421875 47.515625 
Q 42.234375 47.515625 49.0625 40.96875 
Q 55.90625 34.421875 55.90625 23.09375 
Q 55.90625 11.53125 49 5.046875 
Q 42.09375 -1.421875 29.59375 -1.421875 
Q 24.5625 -1.421875 19.28125 -0.1875 
Q 14.015625 1.03125 8.5 3.515625 
L 8.5 17.671875 
L 14.015625 17.671875 
Q 14.453125 10.75 18.421875 7.078125 
Q 22.40625 3.421875 29.59375 3.421875 
Q 37.3125 3.421875 41.453125 8.5 
Q 45.609375 13.578125 45.609375 23.09375 
Q 45.609375 32.5625 41.484375 37.609375 
Q 37.359375 42.671875 29.59375 42.671875 
Q 25.203125 42.671875 21.84375 41.109375 
Q 18.5 39.546875 15.921875 36.28125 
L 11.71875 36.28125 
L 11.71875 72.90625 
z
" id="DejaVuSerif-53"/>
      </defs>
      <use xlink:href="#DejaVuSerif-57"/>
      <use x="63.623047" xlink:href="#DejaVuSerif-53"/>
      <use x="127.246094" xlink:href="#DejaVuSerif-46"/>
      <use x="159.033203" xlink:href="#DejaVuSerif-48"/>
      <use x="222.65625" xlink:href="#DejaVuSerif-37"/>
      <use x="317.675781" xlink:href="#DejaVuSerif-32"/>
      <use x="349.462891" xlink:href="#DejaVuSerif-70"/>
      <use x="410.097656" xlink:href="#DejaVuSerif-65"/>
      <use x="482.314453" xlink:href="#DejaVuSerif-80"/>
     </g>
    </g>
    <g id="line2d_30">
     <path d="M 420.448125 104.291196 
L 428.448125 104.291196 
" style="fill:none;stroke:#d3d3d3;stroke-dasharray:5.55,2.4;stroke-dashoffset:0;stroke-width:1.5;"/>
    </g>
    <g id="text_12">
     <!-- 90.0% FAP -->
     <g transform="translate(431.648125 105.691196)scale(0.04 -0.04)">
      <use xlink:href="#DejaVuSerif-57"/>
      <use x="63.623047" xlink:href="#DejaVuSerif-48"/>
      <use x="127.246094" xlink:href="#DejaVuSerif-46"/>
      <use x="159.033203" xlink:href="#DejaVuSerif-48"/>
      <use x="222.65625" xlink:href="#DejaVuSerif-37"/>
      <use x="317.675781" xlink:href="#DejaVuSerif-32"/>
      <use x="349.462891" xlink:href="#DejaVuSerif-70"/>
      <use x="410.097656" xlink:href="#DejaVuSerif-65"/>
      <use x="482.314453" xlink:href="#DejaVuSerif-80"/>
     </g>
    </g>
   </g>
  </g>
  <g id="axes_2">
   <g id="patch_8">
    <path d="M 57.6 150.089143 
L 206.4 150.089143 
L 206.4 41.472 
L 57.6 41.472 
z
" style="fill:#ffffff;"/>
   </g>
   <g id="PathCollection_1">
    <defs>
     <path d="M 0 0.707107 
C 0.187527 0.707107 0.367398 0.632602 0.5 0.5 
C 0.632602 0.367398 0.707107 0.187527 0.707107 0 
C 0.707107 -0.187527 0.632602 -0.367398 0.5 -0.5 
C 0.367398 -0.632602 0.187527 -0.707107 0 -0.707107 
C -0.187527 -0.707107 -0.367398 -0.632602 -0.5 -0.5 
C -0.632602 -0.367398 -0.707107 -0.187527 -0.707107 0 
C -0.707107 0.187527 -0.632602 0.367398 -0.5 0.5 
C -0.367398 0.632602 -0.187527 0.707107 0 0.707107 
z
" id="m62c39988a7" style="stroke:#1f77b4;"/>
    </defs>
    <g clip-path="url(#pdd87bf1439)">
     <use style="fill:#1f77b4;stroke:#1f77b4;" x="79.453909" xlink:href="#m62c39988a7" y="96.570365"/>
     <use style="fill:#1f77b4;stroke:#1f77b4;" x="79.457407" xlink:href="#m62c39988a7" y="77.959341"/>
     <use style="fill:#1f77b4;stroke:#1f77b4;" x="127.506681" xlink:href="#m62c39988a7" y="88.901015"/>
     <use style="fill:#1f77b4;stroke:#1f77b4;" x="127.510179" xlink:href="#m62c39988a7" y="89.315496"/>
     <use style="fill:#1f77b4;stroke:#1f77b4;" x="73.148133" xlink:href="#m62c39988a7" y="117.862362"/>
     <use style="fill:#1f77b4;stroke:#1f77b4;" x="95.57036" xlink:href="#m62c39988a7" y="116.244655"/>
     <use style="fill:#1f77b4;stroke:#1f77b4;" x="95.594667" xlink:href="#m62c39988a7" y="122.175017"/>
     <use style="fill:#1f77b4;stroke:#1f77b4;" x="81.370489" xlink:href="#m62c39988a7" y="117.755692"/>
     <use style="fill:#1f77b4;stroke:#1f77b4;" x="88.917109" xlink:href="#m62c39988a7" y="64.411153"/>
     <use style="fill:#1f77b4;stroke:#1f77b4;" x="88.920519" xlink:href="#m62c39988a7" y="80.85613"/>
     <use style="fill:#1f77b4;stroke:#1f77b4;" x="104.18426" xlink:href="#m62c39988a7" y="95.821454"/>
     <use style="fill:#1f77b4;stroke:#1f77b4;" x="104.187757" xlink:href="#m62c39988a7" y="134.903456"/>
     <use style="fill:#1f77b4;stroke:#1f77b4;" x="119.053834" xlink:href="#m62c39988a7" y="73.744842"/>
     <use style="fill:#1f77b4;stroke:#1f77b4;" x="119.057332" xlink:href="#m62c39988a7" y="72.247655"/>
     <use style="fill:#1f77b4;stroke:#1f77b4;" x="126.534263" xlink:href="#m62c39988a7" y="107.915529"/>
     <use style="fill:#1f77b4;stroke:#1f77b4;" x="126.53776" xlink:href="#m62c39988a7" y="118.075002"/>
     <use style="fill:#1f77b4;stroke:#1f77b4;" x="64.363636" xlink:href="#m62c39988a7" y="83.311755"/>
     <use style="fill:#1f77b4;stroke:#1f77b4;" x="64.367046" xlink:href="#m62c39988a7" y="83.236025"/>
     <use style="fill:#1f77b4;stroke:#1f77b4;" x="71.592509" xlink:href="#m62c39988a7" y="80.471954"/>
     <use style="fill:#1f77b4;stroke:#1f77b4;" x="71.596007" xlink:href="#m62c39988a7" y="54.681853"/>
     <use style="fill:#1f77b4;stroke:#1f77b4;" x="79.139915" xlink:href="#m62c39988a7" y="90.558746"/>
     <use style="fill:#1f77b4;stroke:#1f77b4;" x="79.143325" xlink:href="#m62c39988a7" y="90.318216"/>
     <use style="fill:#1f77b4;stroke:#1f77b4;" x="77.057634" xlink:href="#m62c39988a7" y="91.531162"/>
     <use style="fill:#1f77b4;stroke:#1f77b4;" x="129.507638" xlink:href="#m62c39988a7" y="93.491812"/>
     <use style="fill:#1f77b4;stroke:#1f77b4;" x="66.899126" xlink:href="#m62c39988a7" y="53.668841"/>
     <use style="fill:#1f77b4;stroke:#1f77b4;" x="74.455451" xlink:href="#m62c39988a7" y="70.439099"/>
     <use style="fill:#1f77b4;stroke:#1f77b4;" x="81.996125" xlink:href="#m62c39988a7" y="115.299431"/>
     <use style="fill:#1f77b4;stroke:#1f77b4;" x="89.582528" xlink:href="#m62c39988a7" y="102.60314"/>
     <use style="fill:#1f77b4;stroke:#1f77b4;" x="110.222121" xlink:href="#m62c39988a7" y="117.434603"/>
     <use style="fill:#1f77b4;stroke:#1f77b4;" x="106.566407" xlink:href="#m62c39988a7" y="104.844918"/>
     <use style="fill:#1f77b4;stroke:#1f77b4;" x="115.223216" xlink:href="#m62c39988a7" y="95.147701"/>
     <use style="fill:#1f77b4;stroke:#1f77b4;" x="122.917168" xlink:href="#m62c39988a7" y="60.906112"/>
     <use style="fill:#1f77b4;stroke:#1f77b4;" x="105.514836" xlink:href="#m62c39988a7" y="109.821669"/>
     <use style="fill:#1f77b4;stroke:#1f77b4;" x="128.323185" xlink:href="#m62c39988a7" y="56.595236"/>
     <use style="fill:#1f77b4;stroke:#1f77b4;" x="78.315484" xlink:href="#m62c39988a7" y="102.260831"/>
     <use style="fill:#1f77b4;stroke:#1f77b4;" x="108.533613" xlink:href="#m62c39988a7" y="98.266215"/>
     <use style="fill:#1f77b4;stroke:#1f77b4;" x="113.894426" xlink:href="#m62c39988a7" y="97.660949"/>
     <use style="fill:#1f77b4;stroke:#1f77b4;" x="127.3996" xlink:href="#m62c39988a7" y="97.117436"/>
     <use style="fill:#1f77b4;stroke:#1f77b4;" x="72.092591" xlink:href="#m62c39988a7" y="46.409143"/>
     <use style="fill:#1f77b4;stroke:#1f77b4;" x="90.096076" xlink:href="#m62c39988a7" y="138.467899"/>
     <use style="fill:#1f77b4;stroke:#1f77b4;" x="90.099486" xlink:href="#m62c39988a7" y="145.152"/>
     <use style="fill:#1f77b4;stroke:#1f77b4;" x="97.457765" xlink:href="#m62c39988a7" y="143.742741"/>
     <use style="fill:#1f77b4;stroke:#1f77b4;" x="97.461175" xlink:href="#m62c39988a7" y="126.282338"/>
     <use style="fill:#1f77b4;stroke:#1f77b4;" x="104.68655" xlink:href="#m62c39988a7" y="134.005563"/>
     <use style="fill:#1f77b4;stroke:#1f77b4;" x="104.68996" xlink:href="#m62c39988a7" y="142.581827"/>
    </g>
   </g>
   <g id="PathCollection_2">
    <g clip-path="url(#pdd87bf1439)">
     <use style="fill:#1f77b4;stroke:#1f77b4;" x="149.582634" xlink:href="#m62c39988a7" y="96.570365"/>
     <use style="fill:#1f77b4;stroke:#1f77b4;" x="149.586132" xlink:href="#m62c39988a7" y="77.959341"/>
     <use style="fill:#1f77b4;stroke:#1f77b4;" x="197.635407" xlink:href="#m62c39988a7" y="88.901015"/>
     <use style="fill:#1f77b4;stroke:#1f77b4;" x="197.638904" xlink:href="#m62c39988a7" y="89.315496"/>
     <use style="fill:#1f77b4;stroke:#1f77b4;" x="143.276859" xlink:href="#m62c39988a7" y="117.862362"/>
     <use style="fill:#1f77b4;stroke:#1f77b4;" x="165.699086" xlink:href="#m62c39988a7" y="116.244655"/>
     <use style="fill:#1f77b4;stroke:#1f77b4;" x="165.723393" xlink:href="#m62c39988a7" y="122.175017"/>
     <use style="fill:#1f77b4;stroke:#1f77b4;" x="151.499215" xlink:href="#m62c39988a7" y="117.755692"/>
     <use style="fill:#1f77b4;stroke:#1f77b4;" x="159.045834" xlink:href="#m62c39988a7" y="64.411153"/>
     <use style="fill:#1f77b4;stroke:#1f77b4;" x="159.049244" xlink:href="#m62c39988a7" y="80.85613"/>
     <use style="fill:#1f77b4;stroke:#1f77b4;" x="174.312985" xlink:href="#m62c39988a7" y="95.821454"/>
     <use style="fill:#1f77b4;stroke:#1f77b4;" x="174.316482" xlink:href="#m62c39988a7" y="134.903456"/>
     <use style="fill:#1f77b4;stroke:#1f77b4;" x="189.182559" xlink:href="#m62c39988a7" y="73.744842"/>
     <use style="fill:#1f77b4;stroke:#1f77b4;" x="189.186057" xlink:href="#m62c39988a7" y="72.247655"/>
     <use style="fill:#1f77b4;stroke:#1f77b4;" x="196.662989" xlink:href="#m62c39988a7" y="107.915529"/>
     <use style="fill:#1f77b4;stroke:#1f77b4;" x="196.666486" xlink:href="#m62c39988a7" y="118.075002"/>
     <use style="fill:#1f77b4;stroke:#1f77b4;" x="134.492362" xlink:href="#m62c39988a7" y="83.311755"/>
     <use style="fill:#1f77b4;stroke:#1f77b4;" x="134.495772" xlink:href="#m62c39988a7" y="83.236025"/>
     <use style="fill:#1f77b4;stroke:#1f77b4;" x="141.721234" xlink:href="#m62c39988a7" y="80.471954"/>
     <use style="fill:#1f77b4;stroke:#1f77b4;" x="141.724732" xlink:href="#m62c39988a7" y="54.681853"/>
     <use style="fill:#1f77b4;stroke:#1f77b4;" x="149.26864" xlink:href="#m62c39988a7" y="90.558746"/>
     <use style="fill:#1f77b4;stroke:#1f77b4;" x="149.27205" xlink:href="#m62c39988a7" y="90.318216"/>
     <use style="fill:#1f77b4;stroke:#1f77b4;" x="147.186359" xlink:href="#m62c39988a7" y="91.531162"/>
     <use style="fill:#1f77b4;stroke:#1f77b4;" x="199.636364" xlink:href="#m62c39988a7" y="93.491812"/>
     <use style="fill:#1f77b4;stroke:#1f77b4;" x="137.027852" xlink:href="#m62c39988a7" y="53.668841"/>
     <use style="fill:#1f77b4;stroke:#1f77b4;" x="144.584176" xlink:href="#m62c39988a7" y="70.439099"/>
     <use style="fill:#1f77b4;stroke:#1f77b4;" x="152.12485" xlink:href="#m62c39988a7" y="115.299431"/>
     <use style="fill:#1f77b4;stroke:#1f77b4;" x="159.711253" xlink:href="#m62c39988a7" y="102.60314"/>
     <use style="fill:#1f77b4;stroke:#1f77b4;" x="180.350846" xlink:href="#m62c39988a7" y="117.434603"/>
     <use style="fill:#1f77b4;stroke:#1f77b4;" x="176.695132" xlink:href="#m62c39988a7" y="104.844918"/>
     <use style="fill:#1f77b4;stroke:#1f77b4;" x="185.351942" xlink:href="#m62c39988a7" y="95.147701"/>
     <use style="fill:#1f77b4;stroke:#1f77b4;" x="193.045893" xlink:href="#m62c39988a7" y="60.906112"/>
     <use style="fill:#1f77b4;stroke:#1f77b4;" x="175.643561" xlink:href="#m62c39988a7" y="109.821669"/>
     <use style="fill:#1f77b4;stroke:#1f77b4;" x="198.45191" xlink:href="#m62c39988a7" y="56.595236"/>
     <use style="fill:#1f77b4;stroke:#1f77b4;" x="148.44421" xlink:href="#m62c39988a7" y="102.260831"/>
     <use style="fill:#1f77b4;stroke:#1f77b4;" x="178.662338" xlink:href="#m62c39988a7" y="98.266215"/>
     <use style="fill:#1f77b4;stroke:#1f77b4;" x="184.023151" xlink:href="#m62c39988a7" y="97.660949"/>
     <use style="fill:#1f77b4;stroke:#1f77b4;" x="197.528325" xlink:href="#m62c39988a7" y="97.117436"/>
     <use style="fill:#1f77b4;stroke:#1f77b4;" x="142.221317" xlink:href="#m62c39988a7" y="46.409143"/>
     <use style="fill:#1f77b4;stroke:#1f77b4;" x="160.224801" xlink:href="#m62c39988a7" y="138.467899"/>
     <use style="fill:#1f77b4;stroke:#1f77b4;" x="160.228211" xlink:href="#m62c39988a7" y="145.152"/>
     <use style="fill:#1f77b4;stroke:#1f77b4;" x="167.586491" xlink:href="#m62c39988a7" y="143.742741"/>
     <use style="fill:#1f77b4;stroke:#1f77b4;" x="167.589901" xlink:href="#m62c39988a7" y="126.282338"/>
     <use style="fill:#1f77b4;stroke:#1f77b4;" x="174.815275" xlink:href="#m62c39988a7" y="134.005563"/>
     <use style="fill:#1f77b4;stroke:#1f77b4;" x="174.818686" xlink:href="#m62c39988a7" y="142.581827"/>
    </g>
   </g>
   <g id="matplotlib.axis_3">
    <g id="xtick_23">
     <g id="line2d_31">
      <g>
       <use style="stroke:#000000;stroke-width:0.8;" x="61.56361" xlink:href="#mcc5aa2cb74" y="150.089143"/>
      </g>
     </g>
     <g id="text_13">
      <!-- 0 -->
      <g transform="translate(58.38236 164.68758)scale(0.1 -0.1)">
       <use xlink:href="#DejaVuSerif-48"/>
      </g>
     </g>
    </g>
    <g id="xtick_24">
     <g id="line2d_32">
      <g>
       <use style="stroke:#000000;stroke-width:0.8;" x="131.692336" xlink:href="#mcc5aa2cb74" y="150.089143"/>
      </g>
     </g>
     <g id="text_14">
      <!-- 1 -->
      <g transform="translate(128.511086 164.68758)scale(0.1 -0.1)">
       <use xlink:href="#DejaVuSerif-49"/>
      </g>
     </g>
    </g>
    <g id="xtick_25">
     <g id="line2d_33">
      <g>
       <use style="stroke:#000000;stroke-width:0.8;" x="201.821061" xlink:href="#mcc5aa2cb74" y="150.089143"/>
      </g>
     </g>
     <g id="text_15">
      <!-- 2 -->
      <g transform="translate(198.639811 164.68758)scale(0.1 -0.1)">
       <use xlink:href="#DejaVuSerif-50"/>
      </g>
     </g>
    </g>
    <g id="text_16">
     <!-- Phase (P = 9.283 d) -->
     <g transform="translate(81.582812 178.365705)scale(0.1 -0.1)">
      <defs>
       <path d="M 4.109375 0 
L 4.109375 5.171875 
L 12.203125 5.171875 
L 12.203125 70.796875 
L 3.609375 70.796875 
L 3.609375 75.984375 
L 21.1875 75.984375 
L 21.1875 42.671875 
Q 23.6875 47.953125 27.65625 50.640625 
Q 31.640625 53.328125 36.921875 53.328125 
Q 45.515625 53.328125 49.5625 48.390625 
Q 53.609375 43.453125 53.609375 33.015625 
L 53.609375 5.171875 
L 61.625 5.171875 
L 61.625 0 
L 36.8125 0 
L 36.8125 5.171875 
L 44.578125 5.171875 
L 44.578125 30.171875 
Q 44.578125 39.703125 42.25 43.1875 
Q 39.9375 46.6875 33.984375 46.6875 
Q 27.734375 46.6875 24.453125 42.140625 
Q 21.1875 37.59375 21.1875 28.90625 
L 21.1875 5.171875 
L 29 5.171875 
L 29 0 
z
" id="DejaVuSerif-104"/>
       <path d="M 5.609375 2.875 
L 5.609375 14.984375 
L 10.796875 14.984375 
Q 10.984375 9.1875 14.421875 6.296875 
Q 17.875 3.421875 24.609375 3.421875 
Q 30.671875 3.421875 33.84375 5.6875 
Q 37.015625 7.953125 37.015625 12.3125 
Q 37.015625 15.71875 34.6875 17.8125 
Q 32.375 19.921875 24.90625 22.3125 
L 18.40625 24.515625 
Q 11.71875 26.65625 8.71875 29.875 
Q 5.71875 33.109375 5.71875 38.09375 
Q 5.71875 45.21875 10.9375 49.265625 
Q 16.15625 53.328125 25.390625 53.328125 
Q 29.5 53.328125 34.03125 52.25 
Q 38.578125 51.171875 43.40625 49.125 
L 43.40625 37.796875 
L 38.234375 37.796875 
Q 38.03125 42.828125 34.703125 45.65625 
Q 31.390625 48.484375 25.6875 48.484375 
Q 20.015625 48.484375 17.109375 46.484375 
Q 14.203125 44.484375 14.203125 40.484375 
Q 14.203125 37.203125 16.40625 35.21875 
Q 18.609375 33.25 25.203125 31.203125 
L 32.328125 29 
Q 39.703125 26.703125 42.9375 23.265625 
Q 46.1875 19.828125 46.1875 14.40625 
Q 46.1875 7.03125 40.546875 2.796875 
Q 34.90625 -1.421875 25 -1.421875 
Q 19.96875 -1.421875 15.1875 -0.34375 
Q 10.40625 0.734375 5.609375 2.875 
z
" id="DejaVuSerif-115"/>
       <path d="M 31.890625 -15.578125 
Q 20.015625 -10.25 13.953125 1.296875 
Q 7.90625 12.84375 7.90625 30.171875 
Q 7.90625 47.5625 13.953125 59.109375 
Q 20.015625 70.65625 31.890625 75.984375 
L 31.890625 71.1875 
Q 24.359375 66.015625 21.09375 56.609375 
Q 17.828125 47.21875 17.828125 30.171875 
Q 17.828125 13.1875 21.09375 3.78125 
Q 24.359375 -5.609375 31.890625 -10.796875 
z
" id="DejaVuSerif-40"/>
       <path d="M 10.59375 45.21875 
L 73.1875 45.21875 
L 73.1875 37.40625 
L 10.59375 37.40625 
z
M 10.59375 25.296875 
L 73.1875 25.296875 
L 73.1875 17.484375 
L 10.59375 17.484375 
z
" id="DejaVuSerif-61"/>
       <path d="M 46.578125 19.921875 
Q 46.578125 27.734375 42.6875 32.046875 
Q 38.8125 36.375 31.78125 36.375 
Q 24.75 36.375 20.875 32.046875 
Q 17 27.734375 17 19.921875 
Q 17 12.0625 20.875 7.734375 
Q 24.75 3.421875 31.78125 3.421875 
Q 38.8125 3.421875 42.6875 7.734375 
Q 46.578125 12.0625 46.578125 19.921875 
z
M 44.578125 55.328125 
Q 44.578125 61.96875 41.203125 65.671875 
Q 37.84375 69.390625 31.78125 69.390625 
Q 25.78125 69.390625 22.390625 65.671875 
Q 19 61.96875 19 55.328125 
Q 19 48.640625 22.390625 44.921875 
Q 25.78125 41.21875 31.78125 41.21875 
Q 37.84375 41.21875 41.203125 44.921875 
Q 44.578125 48.640625 44.578125 55.328125 
z
M 39.3125 38.8125 
Q 47.609375 37.703125 52.25 32.6875 
Q 56.890625 27.6875 56.890625 19.921875 
Q 56.890625 9.671875 50.390625 4.125 
Q 43.890625 -1.421875 31.78125 -1.421875 
Q 19.734375 -1.421875 13.203125 4.125 
Q 6.6875 9.671875 6.6875 19.921875 
Q 6.6875 27.6875 11.328125 32.6875 
Q 15.96875 37.703125 24.3125 38.8125 
Q 16.9375 40.140625 13 44.40625 
Q 9.078125 48.6875 9.078125 55.328125 
Q 9.078125 64.109375 15.125 69.15625 
Q 21.1875 74.21875 31.78125 74.21875 
Q 42.390625 74.21875 48.4375 69.15625 
Q 54.5 64.109375 54.5 55.328125 
Q 54.5 48.6875 50.5625 44.40625 
Q 46.625 40.140625 39.3125 38.8125 
z
" id="DejaVuSerif-56"/>
       <path d="M 9.71875 69.828125 
Q 15.4375 71.96875 20.671875 73.09375 
Q 25.921875 74.21875 30.515625 74.21875 
Q 41.21875 74.21875 47.21875 69.59375 
Q 53.21875 64.984375 53.21875 56.78125 
Q 53.21875 50.203125 49.0625 45.78125 
Q 44.921875 41.359375 37.3125 39.796875 
Q 46.296875 38.53125 51.25 33.28125 
Q 56.203125 28.03125 56.203125 19.671875 
Q 56.203125 9.46875 49.34375 4.015625 
Q 42.484375 -1.421875 29.59375 -1.421875 
Q 23.875 -1.421875 18.421875 -0.1875 
Q 12.984375 1.03125 7.625 3.515625 
L 7.625 17.671875 
L 13.09375 17.671875 
Q 13.578125 10.640625 17.828125 7.03125 
Q 22.078125 3.421875 29.78125 3.421875 
Q 37.25 3.421875 41.578125 7.734375 
Q 45.90625 12.0625 45.90625 19.578125 
Q 45.90625 28.171875 41.453125 32.59375 
Q 37.015625 37.015625 28.421875 37.015625 
L 23.78125 37.015625 
L 23.78125 42 
L 26.21875 42 
Q 34.765625 42 39.03125 45.53125 
Q 43.3125 49.078125 43.3125 56.203125 
Q 43.3125 62.59375 39.796875 65.984375 
Q 36.28125 69.390625 29.6875 69.390625 
Q 23.09375 69.390625 19.453125 66.265625 
Q 15.828125 63.140625 15.1875 56.984375 
L 9.71875 56.984375 
z
" id="DejaVuSerif-51"/>
       <path d="M 7.078125 -15.578125 
L 7.078125 -10.796875 
Q 14.59375 -5.609375 17.890625 3.78125 
Q 21.1875 13.1875 21.1875 30.171875 
Q 21.1875 47.21875 17.890625 56.609375 
Q 14.59375 66.015625 7.078125 71.1875 
L 7.078125 75.984375 
Q 19 70.65625 25.046875 59.109375 
Q 31.109375 47.5625 31.109375 30.171875 
Q 31.109375 12.84375 25.046875 1.296875 
Q 19 -10.25 7.078125 -15.578125 
z
" id="DejaVuSerif-41"/>
      </defs>
      <use xlink:href="#DejaVuSerif-80"/>
      <use x="67.285156" xlink:href="#DejaVuSerif-104"/>
      <use x="131.689453" xlink:href="#DejaVuSerif-97"/>
      <use x="191.308594" xlink:href="#DejaVuSerif-115"/>
      <use x="242.626953" xlink:href="#DejaVuSerif-101"/>
      <use x="301.806641" xlink:href="#DejaVuSerif-32"/>
      <use x="333.59375" xlink:href="#DejaVuSerif-40"/>
      <use x="372.607422" xlink:href="#DejaVuSerif-80"/>
      <use x="439.892578" xlink:href="#DejaVuSerif-32"/>
      <use x="471.679688" xlink:href="#DejaVuSerif-61"/>
      <use x="555.46875" xlink:href="#DejaVuSerif-32"/>
      <use x="587.255859" xlink:href="#DejaVuSerif-57"/>
      <use x="650.878906" xlink:href="#DejaVuSerif-46"/>
      <use x="682.666016" xlink:href="#DejaVuSerif-50"/>
      <use x="746.289062" xlink:href="#DejaVuSerif-56"/>
      <use x="809.912109" xlink:href="#DejaVuSerif-51"/>
      <use x="873.535156" xlink:href="#DejaVuSerif-32"/>
      <use x="905.322266" xlink:href="#DejaVuSerif-100"/>
      <use x="969.335938" xlink:href="#DejaVuSerif-41"/>
     </g>
    </g>
   </g>
   <g id="matplotlib.axis_4">
    <g id="ytick_4">
     <g id="line2d_34">
      <g>
       <use style="stroke:#000000;stroke-width:0.8;" x="57.6" xlink:href="#m1c28ef4335" y="43.999387"/>
      </g>
     </g>
     <g id="text_17">
      <!-- 13.30 -->
      <g transform="translate(21.971875 47.798606)scale(0.1 -0.1)">
       <use xlink:href="#DejaVuSerif-49"/>
       <use x="63.623047" xlink:href="#DejaVuSerif-51"/>
       <use x="127.246094" xlink:href="#DejaVuSerif-46"/>
       <use x="159.033203" xlink:href="#DejaVuSerif-51"/>
       <use x="222.65625" xlink:href="#DejaVuSerif-48"/>
      </g>
     </g>
    </g>
    <g id="ytick_5">
     <g id="line2d_35">
      <g>
       <use style="stroke:#000000;stroke-width:0.8;" x="57.6" xlink:href="#m1c28ef4335" y="75.765212"/>
      </g>
     </g>
     <g id="text_18">
      <!-- 13.35 -->
      <g transform="translate(21.971875 79.56443)scale(0.1 -0.1)">
       <use xlink:href="#DejaVuSerif-49"/>
       <use x="63.623047" xlink:href="#DejaVuSerif-51"/>
       <use x="127.246094" xlink:href="#DejaVuSerif-46"/>
       <use x="159.033203" xlink:href="#DejaVuSerif-51"/>
       <use x="222.65625" xlink:href="#DejaVuSerif-53"/>
      </g>
     </g>
    </g>
    <g id="ytick_6">
     <g id="line2d_36">
      <g>
       <use style="stroke:#000000;stroke-width:0.8;" x="57.6" xlink:href="#m1c28ef4335" y="107.531036"/>
      </g>
     </g>
     <g id="text_19">
      <!-- 13.40 -->
      <g transform="translate(21.971875 111.330254)scale(0.1 -0.1)">
       <use xlink:href="#DejaVuSerif-49"/>
       <use x="63.623047" xlink:href="#DejaVuSerif-51"/>
       <use x="127.246094" xlink:href="#DejaVuSerif-46"/>
       <use x="159.033203" xlink:href="#DejaVuSerif-52"/>
       <use x="222.65625" xlink:href="#DejaVuSerif-48"/>
      </g>
     </g>
    </g>
    <g id="ytick_7">
     <g id="line2d_37">
      <g>
       <use style="stroke:#000000;stroke-width:0.8;" x="57.6" xlink:href="#m1c28ef4335" y="139.29686"/>
      </g>
     </g>
     <g id="text_20">
      <!-- 13.45 -->
      <g transform="translate(21.971875 143.096079)scale(0.1 -0.1)">
       <use xlink:href="#DejaVuSerif-49"/>
       <use x="63.623047" xlink:href="#DejaVuSerif-51"/>
       <use x="127.246094" xlink:href="#DejaVuSerif-46"/>
       <use x="159.033203" xlink:href="#DejaVuSerif-52"/>
       <use x="222.65625" xlink:href="#DejaVuSerif-53"/>
      </g>
     </g>
    </g>
    <g id="text_21">
     <!-- Mag -->
     <g transform="translate(15.75 107.082134)rotate(-90)scale(0.1 -0.1)">
      <defs>
       <path d="M 5.515625 0 
L 5.515625 5.171875 
L 14.796875 5.171875 
L 14.796875 67.671875 
L 4.984375 67.671875 
L 4.984375 72.90625 
L 26.21875 72.90625 
L 51.8125 21 
L 77.390625 72.90625 
L 97.3125 72.90625 
L 97.3125 67.671875 
L 87.59375 67.671875 
L 87.59375 5.171875 
L 96.921875 5.171875 
L 96.921875 0 
L 68.40625 0 
L 68.40625 5.171875 
L 77.6875 5.171875 
L 77.6875 61.53125 
L 52.6875 10.6875 
L 45.796875 10.6875 
L 20.796875 61.53125 
L 20.796875 5.171875 
L 30.078125 5.171875 
L 30.078125 0 
z
" id="DejaVuSerif-77"/>
      </defs>
      <use xlink:href="#DejaVuSerif-77"/>
      <use x="102.392578" xlink:href="#DejaVuSerif-97"/>
      <use x="162.011719" xlink:href="#DejaVuSerif-103"/>
     </g>
    </g>
   </g>
   <g id="patch_9">
    <path d="M 57.6 150.089143 
L 57.6 41.472 
" style="fill:none;stroke:#000000;stroke-linecap:square;stroke-linejoin:miter;stroke-width:0.8;"/>
   </g>
   <g id="patch_10">
    <path d="M 206.4 150.089143 
L 206.4 41.472 
" style="fill:none;stroke:#000000;stroke-linecap:square;stroke-linejoin:miter;stroke-width:0.8;"/>
   </g>
   <g id="patch_11">
    <path d="M 57.6 150.089143 
L 206.4 150.089143 
" style="fill:none;stroke:#000000;stroke-linecap:square;stroke-linejoin:miter;stroke-width:0.8;"/>
   </g>
   <g id="patch_12">
    <path d="M 57.6 41.472 
L 206.4 41.472 
" style="fill:none;stroke:#000000;stroke-linecap:square;stroke-linejoin:miter;stroke-width:0.8;"/>
   </g>
   <g id="text_22">
    <!-- Folded Light Curve -->
    <g transform="translate(83.086719 35.472)scale(0.1 -0.1)">
     <defs>
      <path d="M 20.515625 5.171875 
L 29 5.171875 
L 29 0 
L 2.875 0 
L 2.875 5.171875 
L 11.53125 5.171875 
L 11.53125 70.796875 
L 2.875 70.796875 
L 2.875 75.984375 
L 20.515625 75.984375 
z
" id="DejaVuSerif-108"/>
      <path d="M 5.515625 0 
L 5.515625 5.171875 
L 14.796875 5.171875 
L 14.796875 67.671875 
L 5.515625 67.671875 
L 5.515625 72.90625 
L 33.984375 72.90625 
L 33.984375 67.671875 
L 24.703125 67.671875 
L 24.703125 6 
L 58.015625 6 
L 58.015625 18.21875 
L 64.015625 18.21875 
L 64.015625 0 
z
" id="DejaVuSerif-76"/>
      <path d="M 10.796875 46.6875 
L 2.875 46.6875 
L 2.875 51.90625 
L 10.796875 51.90625 
L 10.796875 68.015625 
L 19.828125 68.015625 
L 19.828125 51.90625 
L 36.71875 51.90625 
L 36.71875 46.6875 
L 19.828125 46.6875 
L 19.828125 13.71875 
Q 19.828125 7.125 21.09375 5.265625 
Q 22.359375 3.421875 25.78125 3.421875 
Q 29.296875 3.421875 30.90625 5.484375 
Q 32.515625 7.5625 32.625 12.203125 
L 39.40625 12.203125 
Q 39.015625 5.125 35.546875 1.84375 
Q 32.078125 -1.421875 25 -1.421875 
Q 17.234375 -1.421875 14.015625 2.015625 
Q 10.796875 5.46875 10.796875 13.71875 
z
" id="DejaVuSerif-116"/>
      <path d="M 70.515625 19.28125 
Q 67.28125 9.078125 59.6875 3.828125 
Q 52.09375 -1.421875 40.484375 -1.421875 
Q 33.34375 -1.421875 27.234375 1.015625 
Q 21.140625 3.46875 16.40625 8.203125 
Q 10.9375 13.671875 8.265625 20.625 
Q 5.609375 27.59375 5.609375 36.375 
Q 5.609375 53.375 15.421875 63.796875 
Q 25.25 74.21875 41.3125 74.21875 
Q 47.265625 74.21875 54 72.65625 
Q 60.75 71.09375 68.5 67.921875 
L 68.5 51.125 
L 62.984375 51.125 
Q 61.1875 60.296875 55.734375 64.640625 
Q 50.296875 69 40.484375 69 
Q 28.8125 69 22.796875 60.71875 
Q 16.796875 52.4375 16.796875 36.375 
Q 16.796875 20.359375 22.796875 12.078125 
Q 28.8125 3.8125 40.484375 3.8125 
Q 48.640625 3.8125 53.90625 7.6875 
Q 59.1875 11.578125 61.53125 19.28125 
z
" id="DejaVuSerif-67"/>
      <path d="M 35.40625 51.90625 
L 52.203125 51.90625 
L 52.203125 5.171875 
L 60.6875 5.171875 
L 60.6875 0 
L 43.21875 0 
L 43.21875 9.1875 
Q 40.71875 4 36.765625 1.28125 
Q 32.8125 -1.421875 27.59375 -1.421875 
Q 18.953125 -1.421875 14.875 3.484375 
Q 10.796875 8.40625 10.796875 18.890625 
L 10.796875 46.6875 
L 2.6875 46.6875 
L 2.6875 51.90625 
L 19.828125 51.90625 
L 19.828125 21.6875 
Q 19.828125 12.203125 22.140625 8.6875 
Q 24.46875 5.171875 30.421875 5.171875 
Q 36.671875 5.171875 39.9375 9.765625 
Q 43.21875 14.359375 43.21875 23.09375 
L 43.21875 46.6875 
L 35.40625 46.6875 
z
" id="DejaVuSerif-117"/>
      <path d="M 24.703125 0 
L 5.609375 46.6875 
L -0.296875 46.6875 
L -0.296875 51.90625 
L 23.578125 51.90625 
L 23.578125 46.6875 
L 15.28125 46.6875 
L 29.890625 10.984375 
L 44.484375 46.6875 
L 36.71875 46.6875 
L 36.71875 51.90625 
L 56.203125 51.90625 
L 56.203125 46.6875 
L 50.390625 46.6875 
L 31.296875 0 
z
" id="DejaVuSerif-118"/>
     </defs>
     <use xlink:href="#DejaVuSerif-70"/>
     <use x="63.884766" xlink:href="#DejaVuSerif-111"/>
     <use x="124.089844" xlink:href="#DejaVuSerif-108"/>
     <use x="156.072266" xlink:href="#DejaVuSerif-100"/>
     <use x="220.085938" xlink:href="#DejaVuSerif-101"/>
     <use x="279.265625" xlink:href="#DejaVuSerif-100"/>
     <use x="343.279297" xlink:href="#DejaVuSerif-32"/>
     <use x="375.066406" xlink:href="#DejaVuSerif-76"/>
     <use x="441.472656" xlink:href="#DejaVuSerif-105"/>
     <use x="473.455078" xlink:href="#DejaVuSerif-103"/>
     <use x="537.46875" xlink:href="#DejaVuSerif-104"/>
     <use x="601.873047" xlink:href="#DejaVuSerif-116"/>
     <use x="642.058594" xlink:href="#DejaVuSerif-32"/>
     <use x="673.845703" xlink:href="#DejaVuSerif-67"/>
     <use x="750.359375" xlink:href="#DejaVuSerif-117"/>
     <use x="814.763672" xlink:href="#DejaVuSerif-114"/>
     <use x="862.566406" xlink:href="#DejaVuSerif-118"/>
     <use x="919.060547" xlink:href="#DejaVuSerif-101"/>
    </g>
   </g>
  </g>
  <g id="axes_3">
   <g id="patch_13">
    <path d="M 57.6 307.584 
L 414.72 307.584 
L 414.72 198.966857 
L 57.6 198.966857 
z
" style="fill:#ffffff;"/>
   </g>
   <g id="PathCollection_3">
    <g clip-path="url(#p4217da154c)">
     <use style="fill:#1f77b4;stroke:#1f77b4;" x="73.832727" xlink:href="#m62c39988a7" y="253.960637"/>
     <use style="fill:#1f77b4;stroke:#1f77b4;" x="73.833119" xlink:href="#m62c39988a7" y="239.000585"/>
     <use style="fill:#1f77b4;stroke:#1f77b4;" x="94.910293" xlink:href="#m62c39988a7" y="247.795803"/>
     <use style="fill:#1f77b4;stroke:#1f77b4;" x="94.910684" xlink:href="#m62c39988a7" y="248.128974"/>
     <use style="fill:#1f77b4;stroke:#1f77b4;" x="96.675449" xlink:href="#m62c39988a7" y="271.075728"/>
     <use style="fill:#1f77b4;stroke:#1f77b4;" x="99.185169" xlink:href="#m62c39988a7" y="269.775372"/>
     <use style="fill:#1f77b4;stroke:#1f77b4;" x="99.18789" xlink:href="#m62c39988a7" y="274.542359"/>
     <use style="fill:#1f77b4;stroke:#1f77b4;" x="121.144305" xlink:href="#m62c39988a7" y="270.989984"/>
     <use style="fill:#1f77b4;stroke:#1f77b4;" x="121.988998" xlink:href="#m62c39988a7" y="228.11018"/>
     <use style="fill:#1f77b4;stroke:#1f77b4;" x="121.98938" xlink:href="#m62c39988a7" y="241.329103"/>
     <use style="fill:#1f77b4;stroke:#1f77b4;" x="123.69785" xlink:href="#m62c39988a7" y="253.358642"/>
     <use style="fill:#1f77b4;stroke:#1f77b4;" x="123.698242" xlink:href="#m62c39988a7" y="284.773828"/>
     <use style="fill:#1f77b4;stroke:#1f77b4;" x="125.362202" xlink:href="#m62c39988a7" y="235.612855"/>
     <use style="fill:#1f77b4;stroke:#1f77b4;" x="125.362594" xlink:href="#m62c39988a7" y="234.409375"/>
     <use style="fill:#1f77b4;stroke:#1f77b4;" x="126.199487" xlink:href="#m62c39988a7" y="263.080191"/>
     <use style="fill:#1f77b4;stroke:#1f77b4;" x="126.199878" xlink:href="#m62c39988a7" y="271.246655"/>
     <use style="fill:#1f77b4;stroke:#1f77b4;" x="127.090237" xlink:href="#m62c39988a7" y="243.303002"/>
     <use style="fill:#1f77b4;stroke:#1f77b4;" x="127.090618" xlink:href="#m62c39988a7" y="243.242129"/>
     <use style="fill:#1f77b4;stroke:#1f77b4;" x="127.899364" xlink:href="#m62c39988a7" y="241.020292"/>
     <use style="fill:#1f77b4;stroke:#1f77b4;" x="127.899756" xlink:href="#m62c39988a7" y="220.289501"/>
     <use style="fill:#1f77b4;stroke:#1f77b4;" x="128.744146" xlink:href="#m62c39988a7" y="249.128333"/>
     <use style="fill:#1f77b4;stroke:#1f77b4;" x="128.744527" xlink:href="#m62c39988a7" y="248.934988"/>
     <use style="fill:#1f77b4;stroke:#1f77b4;" x="136.360585" xlink:href="#m62c39988a7" y="249.909987"/>
     <use style="fill:#1f77b4;stroke:#1f77b4;" x="142.231315" xlink:href="#m62c39988a7" y="251.486012"/>
     <use style="fill:#1f77b4;stroke:#1f77b4;" x="143.073052" xlink:href="#m62c39988a7" y="219.475214"/>
     <use style="fill:#1f77b4;stroke:#1f77b4;" x="143.918832" xlink:href="#m62c39988a7" y="232.955608"/>
     <use style="fill:#1f77b4;stroke:#1f77b4;" x="144.76286" xlink:href="#m62c39988a7" y="269.015575"/>
     <use style="fill:#1f77b4;stroke:#1f77b4;" x="145.612006" xlink:href="#m62c39988a7" y="258.809947"/>
     <use style="fill:#1f77b4;stroke:#1f77b4;" x="155.771705" xlink:href="#m62c39988a7" y="270.731884"/>
     <use style="fill:#1f77b4;stroke:#1f77b4;" x="163.21203" xlink:href="#m62c39988a7" y="260.611949"/>
     <use style="fill:#1f77b4;stroke:#1f77b4;" x="164.180987" xlink:href="#m62c39988a7" y="252.817061"/>
     <use style="fill:#1f77b4;stroke:#1f77b4;" x="165.042171" xlink:href="#m62c39988a7" y="225.292732"/>
     <use style="fill:#1f77b4;stroke:#1f77b4;" x="170.943837" xlink:href="#m62c39988a7" y="264.612399"/>
     <use style="fill:#1f77b4;stroke:#1f77b4;" x="173.496775" xlink:href="#m62c39988a7" y="221.827531"/>
     <use style="fill:#1f77b4;stroke:#1f77b4;" x="207.146958" xlink:href="#m62c39988a7" y="258.53479"/>
     <use style="fill:#1f77b4;stroke:#1f77b4;" x="210.529274" xlink:href="#m62c39988a7" y="255.323808"/>
     <use style="fill:#1f77b4;stroke:#1f77b4;" x="218.978819" xlink:href="#m62c39988a7" y="254.837279"/>
     <use style="fill:#1f77b4;stroke:#1f77b4;" x="346.082599" xlink:href="#m62c39988a7" y="254.400388"/>
     <use style="fill:#1f77b4;stroke:#1f77b4;" x="379.139631" xlink:href="#m62c39988a7" y="213.63967"/>
     <use style="fill:#1f77b4;stroke:#1f77b4;" x="396.853779" xlink:href="#m62c39988a7" y="287.639025"/>
     <use style="fill:#1f77b4;stroke:#1f77b4;" x="396.854161" xlink:href="#m62c39988a7" y="293.011889"/>
     <use style="fill:#1f77b4;stroke:#1f77b4;" x="397.677773" xlink:href="#m62c39988a7" y="291.879088"/>
     <use style="fill:#1f77b4;stroke:#1f77b4;" x="397.678155" xlink:href="#m62c39988a7" y="277.843937"/>
     <use style="fill:#1f77b4;stroke:#1f77b4;" x="398.486891" xlink:href="#m62c39988a7" y="284.052077"/>
     <use style="fill:#1f77b4;stroke:#1f77b4;" x="398.487273" xlink:href="#m62c39988a7" y="290.945913"/>
    </g>
   </g>
   <g id="matplotlib.axis_5">
    <g id="xtick_26">
     <g id="line2d_38">
      <g>
       <use style="stroke:#000000;stroke-width:0.8;" x="97.996351" xlink:href="#mcc5aa2cb74" y="307.584"/>
      </g>
     </g>
     <g id="text_23">
      <!-- 58300 -->
      <g transform="translate(82.090101 322.182437)scale(0.1 -0.1)">
       <use xlink:href="#DejaVuSerif-53"/>
       <use x="63.623047" xlink:href="#DejaVuSerif-56"/>
       <use x="127.246094" xlink:href="#DejaVuSerif-51"/>
       <use x="190.869141" xlink:href="#DejaVuSerif-48"/>
       <use x="254.492188" xlink:href="#DejaVuSerif-48"/>
      </g>
     </g>
    </g>
    <g id="xtick_27">
     <g id="line2d_39">
      <g>
       <use style="stroke:#000000;stroke-width:0.8;" x="140.27554" xlink:href="#mcc5aa2cb74" y="307.584"/>
      </g>
     </g>
     <g id="text_24">
      <!-- 58350 -->
      <g transform="translate(124.36929 322.182437)scale(0.1 -0.1)">
       <use xlink:href="#DejaVuSerif-53"/>
       <use x="63.623047" xlink:href="#DejaVuSerif-56"/>
       <use x="127.246094" xlink:href="#DejaVuSerif-51"/>
       <use x="190.869141" xlink:href="#DejaVuSerif-53"/>
       <use x="254.492188" xlink:href="#DejaVuSerif-48"/>
      </g>
     </g>
    </g>
    <g id="xtick_28">
     <g id="line2d_40">
      <g>
       <use style="stroke:#000000;stroke-width:0.8;" x="182.55473" xlink:href="#mcc5aa2cb74" y="307.584"/>
      </g>
     </g>
     <g id="text_25">
      <!-- 58400 -->
      <g transform="translate(166.64848 322.182437)scale(0.1 -0.1)">
       <use xlink:href="#DejaVuSerif-53"/>
       <use x="63.623047" xlink:href="#DejaVuSerif-56"/>
       <use x="127.246094" xlink:href="#DejaVuSerif-52"/>
       <use x="190.869141" xlink:href="#DejaVuSerif-48"/>
       <use x="254.492188" xlink:href="#DejaVuSerif-48"/>
      </g>
     </g>
    </g>
    <g id="xtick_29">
     <g id="line2d_41">
      <g>
       <use style="stroke:#000000;stroke-width:0.8;" x="224.833919" xlink:href="#mcc5aa2cb74" y="307.584"/>
      </g>
     </g>
     <g id="text_26">
      <!-- 58450 -->
      <g transform="translate(208.927669 322.182437)scale(0.1 -0.1)">
       <use xlink:href="#DejaVuSerif-53"/>
       <use x="63.623047" xlink:href="#DejaVuSerif-56"/>
       <use x="127.246094" xlink:href="#DejaVuSerif-52"/>
       <use x="190.869141" xlink:href="#DejaVuSerif-53"/>
       <use x="254.492188" xlink:href="#DejaVuSerif-48"/>
      </g>
     </g>
    </g>
    <g id="xtick_30">
     <g id="line2d_42">
      <g>
       <use style="stroke:#000000;stroke-width:0.8;" x="267.113108" xlink:href="#mcc5aa2cb74" y="307.584"/>
      </g>
     </g>
     <g id="text_27">
      <!-- 58500 -->
      <g transform="translate(251.206858 322.182437)scale(0.1 -0.1)">
       <use xlink:href="#DejaVuSerif-53"/>
       <use x="63.623047" xlink:href="#DejaVuSerif-56"/>
       <use x="127.246094" xlink:href="#DejaVuSerif-53"/>
       <use x="190.869141" xlink:href="#DejaVuSerif-48"/>
       <use x="254.492188" xlink:href="#DejaVuSerif-48"/>
      </g>
     </g>
    </g>
    <g id="xtick_31">
     <g id="line2d_43">
      <g>
       <use style="stroke:#000000;stroke-width:0.8;" x="309.392298" xlink:href="#mcc5aa2cb74" y="307.584"/>
      </g>
     </g>
     <g id="text_28">
      <!-- 58550 -->
      <g transform="translate(293.486048 322.182437)scale(0.1 -0.1)">
       <use xlink:href="#DejaVuSerif-53"/>
       <use x="63.623047" xlink:href="#DejaVuSerif-56"/>
       <use x="127.246094" xlink:href="#DejaVuSerif-53"/>
       <use x="190.869141" xlink:href="#DejaVuSerif-53"/>
       <use x="254.492188" xlink:href="#DejaVuSerif-48"/>
      </g>
     </g>
    </g>
    <g id="xtick_32">
     <g id="line2d_44">
      <g>
       <use style="stroke:#000000;stroke-width:0.8;" x="351.671487" xlink:href="#mcc5aa2cb74" y="307.584"/>
      </g>
     </g>
     <g id="text_29">
      <!-- 58600 -->
      <g transform="translate(335.765237 322.182437)scale(0.1 -0.1)">
       <defs>
        <path d="M 32.71875 3.421875 
Q 39.59375 3.421875 43.296875 8.46875 
Q 47.015625 13.53125 47.015625 23 
Q 47.015625 32.46875 43.296875 37.515625 
Q 39.59375 42.578125 32.71875 42.578125 
Q 25.734375 42.578125 22.0625 37.6875 
Q 18.40625 32.8125 18.40625 23.578125 
Q 18.40625 13.875 22.109375 8.640625 
Q 25.828125 3.421875 32.71875 3.421875 
z
M 16.796875 40.140625 
Q 20.125 43.796875 24.3125 45.59375 
Q 28.515625 47.40625 33.796875 47.40625 
Q 44.671875 47.40625 51 40.859375 
Q 57.328125 34.328125 57.328125 23 
Q 57.328125 11.921875 50.515625 5.25 
Q 43.703125 -1.421875 32.328125 -1.421875 
Q 19.96875 -1.421875 13.328125 7.78125 
Q 6.6875 17 6.6875 34.078125 
Q 6.6875 53.21875 14.546875 63.71875 
Q 22.40625 74.21875 36.71875 74.21875 
Q 40.578125 74.21875 44.828125 73.484375 
Q 49.078125 72.75 53.515625 71.296875 
L 53.515625 59.28125 
L 48 59.28125 
Q 47.40625 64.203125 44.234375 66.796875 
Q 41.0625 69.390625 35.6875 69.390625 
Q 26.21875 69.390625 21.578125 62.203125 
Q 16.9375 55.03125 16.796875 40.140625 
z
" id="DejaVuSerif-54"/>
       </defs>
       <use xlink:href="#DejaVuSerif-53"/>
       <use x="63.623047" xlink:href="#DejaVuSerif-56"/>
       <use x="127.246094" xlink:href="#DejaVuSerif-54"/>
       <use x="190.869141" xlink:href="#DejaVuSerif-48"/>
       <use x="254.492188" xlink:href="#DejaVuSerif-48"/>
      </g>
     </g>
    </g>
    <g id="xtick_33">
     <g id="line2d_45">
      <g>
       <use style="stroke:#000000;stroke-width:0.8;" x="393.950677" xlink:href="#mcc5aa2cb74" y="307.584"/>
      </g>
     </g>
     <g id="text_30">
      <!-- 58650 -->
      <g transform="translate(378.044427 322.182437)scale(0.1 -0.1)">
       <use xlink:href="#DejaVuSerif-53"/>
       <use x="63.623047" xlink:href="#DejaVuSerif-56"/>
       <use x="127.246094" xlink:href="#DejaVuSerif-54"/>
       <use x="190.869141" xlink:href="#DejaVuSerif-53"/>
       <use x="254.492188" xlink:href="#DejaVuSerif-48"/>
      </g>
     </g>
    </g>
    <g id="text_31">
     <!-- MJD -->
     <g transform="translate(225.027187 335.860562)scale(0.1 -0.1)">
      <defs>
       <path d="M -8.40625 -17.484375 
L -8.40625 -6 
L -2.828125 -6 
Q -2.6875 -10.84375 -0.53125 -13.203125 
Q 1.609375 -15.578125 5.90625 -15.578125 
Q 11.71875 -15.578125 14.015625 -11.90625 
Q 16.3125 -8.25 16.3125 2.390625 
L 16.3125 67.671875 
L 4.984375 67.671875 
L 4.984375 72.90625 
L 35.5 72.90625 
L 35.5 67.671875 
L 26.21875 67.671875 
L 26.21875 2 
Q 26.21875 -10.0625 21.375 -15.421875 
Q 16.546875 -20.796875 5.8125 -20.796875 
Q 2.34375 -20.796875 -1.234375 -19.96875 
Q -4.828125 -19.140625 -8.40625 -17.484375 
z
" id="DejaVuSerif-74"/>
       <path d="M 24.703125 5.171875 
L 33.796875 5.171875 
Q 48 5.171875 55.59375 13.28125 
Q 63.1875 21.390625 63.1875 36.53125 
Q 63.1875 51.65625 55.609375 59.65625 
Q 48.046875 67.671875 33.796875 67.671875 
L 24.703125 67.671875 
z
M 5.515625 0 
L 5.515625 5.171875 
L 14.796875 5.171875 
L 14.796875 67.671875 
L 5.515625 67.671875 
L 5.515625 72.90625 
L 34.515625 72.90625 
Q 53.375 72.90625 63.890625 63.28125 
Q 74.421875 53.65625 74.421875 36.53125 
Q 74.421875 19.34375 63.875 9.671875 
Q 53.328125 0 34.515625 0 
z
" id="DejaVuSerif-68"/>
      </defs>
      <use xlink:href="#DejaVuSerif-77"/>
      <use x="102.392578" xlink:href="#DejaVuSerif-74"/>
      <use x="142.480469" xlink:href="#DejaVuSerif-68"/>
     </g>
    </g>
   </g>
   <g id="matplotlib.axis_6">
    <g id="ytick_8">
     <g id="line2d_46">
      <g>
       <use style="stroke:#000000;stroke-width:0.8;" x="57.6" xlink:href="#m1c28ef4335" y="211.702642"/>
      </g>
     </g>
     <g id="text_32">
      <!-- 13.30 -->
      <g transform="translate(21.971875 215.501861)scale(0.1 -0.1)">
       <use xlink:href="#DejaVuSerif-49"/>
       <use x="63.623047" xlink:href="#DejaVuSerif-51"/>
       <use x="127.246094" xlink:href="#DejaVuSerif-46"/>
       <use x="159.033203" xlink:href="#DejaVuSerif-51"/>
       <use x="222.65625" xlink:href="#DejaVuSerif-48"/>
      </g>
     </g>
    </g>
    <g id="ytick_9">
     <g id="line2d_47">
      <g>
       <use style="stroke:#000000;stroke-width:0.8;" x="57.6" xlink:href="#m1c28ef4335" y="237.236884"/>
      </g>
     </g>
     <g id="text_33">
      <!-- 13.35 -->
      <g transform="translate(21.971875 241.036102)scale(0.1 -0.1)">
       <use xlink:href="#DejaVuSerif-49"/>
       <use x="63.623047" xlink:href="#DejaVuSerif-51"/>
       <use x="127.246094" xlink:href="#DejaVuSerif-46"/>
       <use x="159.033203" xlink:href="#DejaVuSerif-51"/>
       <use x="222.65625" xlink:href="#DejaVuSerif-53"/>
      </g>
     </g>
    </g>
    <g id="ytick_10">
     <g id="line2d_48">
      <g>
       <use style="stroke:#000000;stroke-width:0.8;" x="57.6" xlink:href="#m1c28ef4335" y="262.771125"/>
      </g>
     </g>
     <g id="text_34">
      <!-- 13.40 -->
      <g transform="translate(21.971875 266.570344)scale(0.1 -0.1)">
       <use xlink:href="#DejaVuSerif-49"/>
       <use x="63.623047" xlink:href="#DejaVuSerif-51"/>
       <use x="127.246094" xlink:href="#DejaVuSerif-46"/>
       <use x="159.033203" xlink:href="#DejaVuSerif-52"/>
       <use x="222.65625" xlink:href="#DejaVuSerif-48"/>
      </g>
     </g>
    </g>
    <g id="ytick_11">
     <g id="line2d_49">
      <g>
       <use style="stroke:#000000;stroke-width:0.8;" x="57.6" xlink:href="#m1c28ef4335" y="288.305366"/>
      </g>
     </g>
     <g id="text_35">
      <!-- 13.45 -->
      <g transform="translate(21.971875 292.104585)scale(0.1 -0.1)">
       <use xlink:href="#DejaVuSerif-49"/>
       <use x="63.623047" xlink:href="#DejaVuSerif-51"/>
       <use x="127.246094" xlink:href="#DejaVuSerif-46"/>
       <use x="159.033203" xlink:href="#DejaVuSerif-52"/>
       <use x="222.65625" xlink:href="#DejaVuSerif-53"/>
      </g>
     </g>
    </g>
    <g id="text_36">
     <!-- Mag -->
     <g transform="translate(15.75 264.576991)rotate(-90)scale(0.1 -0.1)">
      <use xlink:href="#DejaVuSerif-77"/>
      <use x="102.392578" xlink:href="#DejaVuSerif-97"/>
      <use x="162.011719" xlink:href="#DejaVuSerif-103"/>
     </g>
    </g>
   </g>
   <g id="LineCollection_5">
    <path clip-path="url(#p4217da154c)" d="M 73.832727 244.276472 
L 73.832727 263.644802 
" style="fill:none;stroke:#1f77b4;stroke-width:0.5;"/>
    <path clip-path="url(#p4217da154c)" d="M 73.833119 229.297391 
L 73.833119 248.703779 
" style="fill:none;stroke:#1f77b4;stroke-width:0.5;"/>
    <path clip-path="url(#p4217da154c)" d="M 94.910293 238.103809 
L 94.910293 257.487797 
" style="fill:none;stroke:#1f77b4;stroke-width:0.5;"/>
    <path clip-path="url(#p4217da154c)" d="M 94.910684 238.437403 
L 94.910684 257.820545 
" style="fill:none;stroke:#1f77b4;stroke-width:0.5;"/>
    <path clip-path="url(#p4217da154c)" d="M 96.675449 261.41321 
L 96.675449 280.738247 
" style="fill:none;stroke:#1f77b4;stroke-width:0.5;"/>
    <path clip-path="url(#p4217da154c)" d="M 99.185169 260.111214 
L 99.185169 279.439529 
" style="fill:none;stroke:#1f77b4;stroke-width:0.5;"/>
    <path clip-path="url(#p4217da154c)" d="M 99.18789 264.88421 
L 99.18789 284.200508 
" style="fill:none;stroke:#1f77b4;stroke-width:0.5;"/>
    <path clip-path="url(#p4217da154c)" d="M 121.144305 261.327358 
L 121.144305 280.652611 
" style="fill:none;stroke:#1f77b4;stroke-width:0.5;"/>
    <path clip-path="url(#p4217da154c)" d="M 121.988998 218.393074 
L 121.988998 237.827285 
" style="fill:none;stroke:#1f77b4;stroke-width:0.5;"/>
    <path clip-path="url(#p4217da154c)" d="M 121.98938 231.628878 
L 121.98938 251.029329 
" style="fill:none;stroke:#1f77b4;stroke-width:0.5;"/>
    <path clip-path="url(#p4217da154c)" d="M 123.69785 243.673713 
L 123.69785 263.04357 
" style="fill:none;stroke:#1f77b4;stroke-width:0.5;"/>
    <path clip-path="url(#p4217da154c)" d="M 123.698242 275.12854 
L 123.698242 294.419115 
" style="fill:none;stroke:#1f77b4;stroke-width:0.5;"/>
    <path clip-path="url(#p4217da154c)" d="M 125.362202 225.905338 
L 125.362202 245.320371 
" style="fill:none;stroke:#1f77b4;stroke-width:0.5;"/>
    <path clip-path="url(#p4217da154c)" d="M 125.362594 224.700321 
L 125.362594 244.118428 
" style="fill:none;stroke:#1f77b4;stroke-width:0.5;"/>
    <path clip-path="url(#p4217da154c)" d="M 126.199487 253.407576 
L 126.199487 272.752806 
" style="fill:none;stroke:#1f77b4;stroke-width:0.5;"/>
    <path clip-path="url(#p4217da154c)" d="M 126.199878 261.584352 
L 126.199878 280.908957 
" style="fill:none;stroke:#1f77b4;stroke-width:0.5;"/>
    <path clip-path="url(#p4217da154c)" d="M 127.090237 233.60529 
L 127.090237 253.000714 
" style="fill:none;stroke:#1f77b4;stroke-width:0.5;"/>
    <path clip-path="url(#p4217da154c)" d="M 127.090618 233.54434 
L 127.090618 252.939917 
" style="fill:none;stroke:#1f77b4;stroke-width:0.5;"/>
    <path clip-path="url(#p4217da154c)" d="M 127.899364 231.319672 
L 127.899364 250.720912 
" style="fill:none;stroke:#1f77b4;stroke-width:0.5;"/>
    <path clip-path="url(#p4217da154c)" d="M 127.899756 210.562373 
L 127.899756 230.016629 
" style="fill:none;stroke:#1f77b4;stroke-width:0.5;"/>
    <path clip-path="url(#p4217da154c)" d="M 128.744146 239.438032 
L 128.744146 258.818634 
" style="fill:none;stroke:#1f77b4;stroke-width:0.5;"/>
    <path clip-path="url(#p4217da154c)" d="M 128.744527 239.24444 
L 128.744527 258.625535 
" style="fill:none;stroke:#1f77b4;stroke-width:0.5;"/>
    <path clip-path="url(#p4217da154c)" d="M 136.360585 240.220679 
L 136.360585 259.599295 
" style="fill:none;stroke:#1f77b4;stroke-width:0.5;"/>
    <path clip-path="url(#p4217da154c)" d="M 142.231315 241.798705 
L 142.231315 261.173318 
" style="fill:none;stroke:#1f77b4;stroke-width:0.5;"/>
    <path clip-path="url(#p4217da154c)" d="M 143.073052 209.747041 
L 143.073052 229.203387 
" style="fill:none;stroke:#1f77b4;stroke-width:0.5;"/>
    <path clip-path="url(#p4217da154c)" d="M 143.918832 223.244698 
L 143.918832 242.666519 
" style="fill:none;stroke:#1f77b4;stroke-width:0.5;"/>
    <path clip-path="url(#p4217da154c)" d="M 144.76286 259.350458 
L 144.76286 278.680691 
" style="fill:none;stroke:#1f77b4;stroke-width:0.5;"/>
    <path clip-path="url(#p4217da154c)" d="M 145.612006 249.131928 
L 145.612006 268.487966 
" style="fill:none;stroke:#1f77b4;stroke-width:0.5;"/>
    <path clip-path="url(#p4217da154c)" d="M 155.771705 261.068933 
L 155.771705 280.394836 
" style="fill:none;stroke:#1f77b4;stroke-width:0.5;"/>
    <path clip-path="url(#p4217da154c)" d="M 163.21203 250.936213 
L 163.21203 270.287686 
" style="fill:none;stroke:#1f77b4;stroke-width:0.5;"/>
    <path clip-path="url(#p4217da154c)" d="M 164.180987 243.131444 
L 164.180987 262.502677 
" style="fill:none;stroke:#1f77b4;stroke-width:0.5;"/>
    <path clip-path="url(#p4217da154c)" d="M 165.042171 215.572018 
L 165.042171 235.013445 
" style="fill:none;stroke:#1f77b4;stroke-width:0.5;"/>
    <path clip-path="url(#p4217da154c)" d="M 170.943837 254.941722 
L 170.943837 274.283076 
" style="fill:none;stroke:#1f77b4;stroke-width:0.5;"/>
    <path clip-path="url(#p4217da154c)" d="M 173.496775 212.102375 
L 173.496775 231.552687 
" style="fill:none;stroke:#1f77b4;stroke-width:0.5;"/>
    <path clip-path="url(#p4217da154c)" d="M 207.146958 248.856423 
L 207.146958 268.213157 
" style="fill:none;stroke:#1f77b4;stroke-width:0.5;"/>
    <path clip-path="url(#p4217da154c)" d="M 210.529274 245.641372 
L 210.529274 265.006245 
" style="fill:none;stroke:#1f77b4;stroke-width:0.5;"/>
    <path clip-path="url(#p4217da154c)" d="M 218.978819 245.154225 
L 218.978819 264.520332 
" style="fill:none;stroke:#1f77b4;stroke-width:0.5;"/>
    <path clip-path="url(#p4217da154c)" d="M 346.082599 244.716779 
L 346.082599 264.083996 
" style="fill:none;stroke:#1f77b4;stroke-width:0.5;"/>
    <path clip-path="url(#p4217da154c)" d="M 379.139631 203.904 
L 379.139631 223.37534 
" style="fill:none;stroke:#1f77b4;stroke-width:0.5;"/>
    <path clip-path="url(#p4217da154c)" d="M 396.853779 277.997329 
L 396.853779 297.28072 
" style="fill:none;stroke:#1f77b4;stroke-width:0.5;"/>
    <path clip-path="url(#p4217da154c)" d="M 396.854161 283.37692 
L 396.854161 302.646857 
" style="fill:none;stroke:#1f77b4;stroke-width:0.5;"/>
    <path clip-path="url(#p4217da154c)" d="M 397.677773 282.242702 
L 397.677773 301.515473 
" style="fill:none;stroke:#1f77b4;stroke-width:0.5;"/>
    <path clip-path="url(#p4217da154c)" d="M 397.678155 268.189942 
L 397.678155 287.497931 
" style="fill:none;stroke:#1f77b4;stroke-width:0.5;"/>
    <path clip-path="url(#p4217da154c)" d="M 398.486891 274.405882 
L 398.486891 293.698271 
" style="fill:none;stroke:#1f77b4;stroke-width:0.5;"/>
    <path clip-path="url(#p4217da154c)" d="M 398.487273 281.30836 
L 398.487273 300.583466 
" style="fill:none;stroke:#1f77b4;stroke-width:0.5;"/>
   </g>
   <g id="line2d_50">
    <path clip-path="url(#p4217da154c)" d="M 73.832727 253.960637 
L 73.833119 239.000585 
L 94.910293 247.795803 
L 94.910684 248.128974 
L 96.675449 271.075728 
L 99.185169 269.775372 
L 99.18789 274.542359 
L 121.144305 270.989984 
L 121.988998 228.11018 
L 121.98938 241.329103 
L 123.69785 253.358642 
L 123.698242 284.773828 
L 125.362202 235.612855 
L 125.362594 234.409375 
L 126.199487 263.080191 
L 126.199878 271.246655 
L 127.090237 243.303002 
L 127.090618 243.242129 
L 127.899364 241.020292 
L 127.899756 220.289501 
L 128.744146 249.128333 
L 128.744527 248.934988 
L 136.360585 249.909987 
L 142.231315 251.486012 
L 143.073052 219.475214 
L 143.918832 232.955608 
L 144.76286 269.015575 
L 145.612006 258.809947 
L 155.771705 270.731884 
L 163.21203 260.611949 
L 164.180987 252.817061 
L 165.042171 225.292732 
L 170.943837 264.612399 
L 173.496775 221.827531 
L 207.146958 258.53479 
L 210.529274 255.323808 
L 218.978819 254.837279 
L 346.082599 254.400388 
L 379.139631 213.63967 
L 396.853779 287.639025 
L 396.854161 293.011889 
L 397.677773 291.879088 
L 397.678155 277.843937 
L 398.486891 284.052077 
L 398.487273 290.945913 
" style="fill:none;"/>
   </g>
   <g id="patch_14">
    <path d="M 57.6 307.584 
L 57.6 198.966857 
" style="fill:none;stroke:#000000;stroke-linecap:square;stroke-linejoin:miter;stroke-width:0.8;"/>
   </g>
   <g id="patch_15">
    <path d="M 414.72 307.584 
L 414.72 198.966857 
" style="fill:none;stroke:#000000;stroke-linecap:square;stroke-linejoin:miter;stroke-width:0.8;"/>
   </g>
   <g id="patch_16">
    <path d="M 57.6 307.584 
L 414.72 307.584 
" style="fill:none;stroke:#000000;stroke-linecap:square;stroke-linejoin:miter;stroke-width:0.8;"/>
   </g>
   <g id="patch_17">
    <path d="M 57.6 198.966857 
L 414.72 198.966857 
" style="fill:none;stroke:#000000;stroke-linecap:square;stroke-linejoin:miter;stroke-width:0.8;"/>
   </g>
   <g id="text_37">
    <!-- Light Curve -->
    <g transform="translate(206.000625 192.966857)scale(0.1 -0.1)">
     <use xlink:href="#DejaVuSerif-76"/>
     <use x="66.40625" xlink:href="#DejaVuSerif-105"/>
     <use x="98.388672" xlink:href="#DejaVuSerif-103"/>
     <use x="162.402344" xlink:href="#DejaVuSerif-104"/>
     <use x="226.806641" xlink:href="#DejaVuSerif-116"/>
     <use x="266.992188" xlink:href="#DejaVuSerif-32"/>
     <use x="298.779297" xlink:href="#DejaVuSerif-67"/>
     <use x="375.292969" xlink:href="#DejaVuSerif-117"/>
     <use x="439.697266" xlink:href="#DejaVuSerif-114"/>
     <use x="487.5" xlink:href="#DejaVuSerif-118"/>
     <use x="543.994141" xlink:href="#DejaVuSerif-101"/>
    </g>
   </g>
  </g>
 </g>
 <defs>
  <clipPath id="pb388fd267d">
   <rect height="108.617143" width="148.8" x="265.92" y="41.472"/>
  </clipPath>
  <clipPath id="pdd87bf1439">
   <rect height="108.617143" width="148.8" x="57.6" y="41.472"/>
  </clipPath>
  <clipPath id="p4217da154c">
   <rect height="108.617143" width="357.12" x="57.6" y="198.966857"/>
  </clipPath>
 </defs>
</svg>
