<?xml version="1.0" encoding="utf-8" standalone="no"?>
<!DOCTYPE svg PUBLIC "-//W3C//DTD SVG 1.1//EN"
  "http://www.w3.org/Graphics/SVG/1.1/DTD/svg11.dtd">
<!-- Created with matplotlib (https://matplotlib.org/) -->
<svg height="345.6pt" version="1.1" viewBox="0 0 460.8 345.6" width="460.8pt" xmlns="http://www.w3.org/2000/svg" xmlns:xlink="http://www.w3.org/1999/xlink">
 <metadata>
  <rdf:RDF xmlns:cc="http://creativecommons.org/ns#" xmlns:dc="http://purl.org/dc/elements/1.1/" xmlns:rdf="http://www.w3.org/1999/02/22-rdf-syntax-ns#">
   <cc:Work>
    <dc:type rdf:resource="http://purl.org/dc/dcmitype/StillImage"/>
    <dc:date>2021-02-16T16:36:48.302337</dc:date>
    <dc:format>image/svg+xml</dc:format>
    <dc:creator>
     <cc:Agent>
      <dc:title>Matplotlib v3.3.3, https://matplotlib.org/</dc:title>
     </cc:Agent>
    </dc:creator>
   </cc:Work>
  </rdf:RDF>
 </metadata>
 <defs>
  <style type="text/css">*{stroke-linecap:butt;stroke-linejoin:round;}</style>
 </defs>
 <g id="figure_1">
  <g id="patch_1">
   <path d="M 0 345.6 
L 460.8 345.6 
L 460.8 0 
L 0 0 
z
" style="fill:#ffffff;"/>
  </g>
  <g id="axes_1">
   <g id="patch_2">
    <path d="M 265.92 150.089143 
L 414.72 150.089143 
L 414.72 41.472 
L 265.92 41.472 
z
" style="fill:#ffffff;"/>
   </g>
   <g id="matplotlib.axis_1">
    <g id="xtick_1">
     <g id="line2d_1">
      <defs>
       <path d="M 0 0 
L 0 3.5 
" id="maac71eb2a0" style="stroke:#000000;stroke-width:0.8;"/>
      </defs>
      <g>
       <use style="stroke:#000000;stroke-width:0.8;" x="315.519224" xlink:href="#maac71eb2a0" y="150.089143"/>
      </g>
     </g>
     <g id="text_1">
      <!-- $\mathdefault{10^{1}}$ -->
      <g transform="translate(306.719224 164.68758)scale(0.1 -0.1)">
       <defs>
        <path d="M 14.203125 0 
L 14.203125 5.171875 
L 26.90625 5.171875 
L 26.90625 65.828125 
L 12.203125 56.296875 
L 12.203125 62.703125 
L 29.984375 74.21875 
L 36.71875 74.21875 
L 36.71875 5.171875 
L 49.421875 5.171875 
L 49.421875 0 
z
" id="DejaVuSerif-49"/>
        <path d="M 31.78125 3.421875 
Q 39.265625 3.421875 42.96875 11.625 
Q 46.6875 19.828125 46.6875 36.375 
Q 46.6875 52.984375 42.96875 61.1875 
Q 39.265625 69.390625 31.78125 69.390625 
Q 24.3125 69.390625 20.59375 61.1875 
Q 16.890625 52.984375 16.890625 36.375 
Q 16.890625 19.828125 20.59375 11.625 
Q 24.3125 3.421875 31.78125 3.421875 
z
M 31.78125 -1.421875 
Q 19.921875 -1.421875 13.25 8.53125 
Q 6.59375 18.5 6.59375 36.375 
Q 6.59375 54.296875 13.25 64.25 
Q 19.921875 74.21875 31.78125 74.21875 
Q 43.703125 74.21875 50.34375 64.25 
Q 56.984375 54.296875 56.984375 36.375 
Q 56.984375 18.5 50.34375 8.53125 
Q 43.703125 -1.421875 31.78125 -1.421875 
z
" id="DejaVuSerif-48"/>
       </defs>
       <use transform="translate(0 0.7125)" xlink:href="#DejaVuSerif-49"/>
       <use transform="translate(63.623047 0.7125)" xlink:href="#DejaVuSerif-48"/>
       <use transform="translate(128.154453 37.046875)scale(0.7)" xlink:href="#DejaVuSerif-49"/>
      </g>
     </g>
    </g>
    <g id="xtick_2">
     <g id="line2d_2">
      <g>
       <use style="stroke:#000000;stroke-width:0.8;" x="373.218149" xlink:href="#maac71eb2a0" y="150.089143"/>
      </g>
     </g>
     <g id="text_2">
      <!-- $\mathdefault{10^{2}}$ -->
      <g transform="translate(364.418149 164.68758)scale(0.1 -0.1)">
       <defs>
        <path d="M 12.796875 55.515625 
L 7.328125 55.515625 
L 7.328125 68.5 
Q 12.546875 71.296875 17.84375 72.75 
Q 23.140625 74.21875 28.21875 74.21875 
Q 39.59375 74.21875 46.1875 68.703125 
Q 52.78125 63.1875 52.78125 53.71875 
Q 52.78125 43.015625 37.84375 28.125 
Q 36.671875 27 36.078125 26.421875 
L 17.671875 8.015625 
L 48.09375 8.015625 
L 48.09375 17 
L 53.8125 17 
L 53.8125 0 
L 6.78125 0 
L 6.78125 5.328125 
L 28.90625 27.390625 
Q 36.234375 34.71875 39.359375 40.84375 
Q 42.484375 46.96875 42.484375 53.71875 
Q 42.484375 61.078125 38.640625 65.234375 
Q 34.8125 69.390625 28.078125 69.390625 
Q 21.09375 69.390625 17.28125 65.921875 
Q 13.484375 62.453125 12.796875 55.515625 
z
" id="DejaVuSerif-50"/>
       </defs>
       <use transform="translate(0 0.7125)" xlink:href="#DejaVuSerif-49"/>
       <use transform="translate(63.623047 0.7125)" xlink:href="#DejaVuSerif-48"/>
       <use transform="translate(128.154453 37.046875)scale(0.7)" xlink:href="#DejaVuSerif-50"/>
      </g>
     </g>
    </g>
    <g id="xtick_3">
     <g id="line2d_3">
      <defs>
       <path d="M 0 0 
L 0 2 
" id="m0b1775f4fa" style="stroke:#000000;stroke-width:0.6;"/>
      </defs>
      <g>
       <use style="stroke:#000000;stroke-width:0.6;" x="275.189406" xlink:href="#m0b1775f4fa" y="150.089143"/>
      </g>
     </g>
    </g>
    <g id="xtick_4">
     <g id="line2d_4">
      <g>
       <use style="stroke:#000000;stroke-width:0.6;" x="285.349683" xlink:href="#m0b1775f4fa" y="150.089143"/>
      </g>
     </g>
    </g>
    <g id="xtick_5">
     <g id="line2d_5">
      <g>
       <use style="stroke:#000000;stroke-width:0.6;" x="292.558513" xlink:href="#m0b1775f4fa" y="150.089143"/>
      </g>
     </g>
    </g>
    <g id="xtick_6">
     <g id="line2d_6">
      <g>
       <use style="stroke:#000000;stroke-width:0.6;" x="298.150117" xlink:href="#m0b1775f4fa" y="150.089143"/>
      </g>
     </g>
    </g>
    <g id="xtick_7">
     <g id="line2d_7">
      <g>
       <use style="stroke:#000000;stroke-width:0.6;" x="302.71879" xlink:href="#m0b1775f4fa" y="150.089143"/>
      </g>
     </g>
    </g>
    <g id="xtick_8">
     <g id="line2d_8">
      <g>
       <use style="stroke:#000000;stroke-width:0.6;" x="306.581548" xlink:href="#m0b1775f4fa" y="150.089143"/>
      </g>
     </g>
    </g>
    <g id="xtick_9">
     <g id="line2d_9">
      <g>
       <use style="stroke:#000000;stroke-width:0.6;" x="309.927621" xlink:href="#m0b1775f4fa" y="150.089143"/>
      </g>
     </g>
    </g>
    <g id="xtick_10">
     <g id="line2d_10">
      <g>
       <use style="stroke:#000000;stroke-width:0.6;" x="312.879066" xlink:href="#m0b1775f4fa" y="150.089143"/>
      </g>
     </g>
    </g>
    <g id="xtick_11">
     <g id="line2d_11">
      <g>
       <use style="stroke:#000000;stroke-width:0.6;" x="332.888331" xlink:href="#m0b1775f4fa" y="150.089143"/>
      </g>
     </g>
    </g>
    <g id="xtick_12">
     <g id="line2d_12">
      <g>
       <use style="stroke:#000000;stroke-width:0.6;" x="343.048608" xlink:href="#m0b1775f4fa" y="150.089143"/>
      </g>
     </g>
    </g>
    <g id="xtick_13">
     <g id="line2d_13">
      <g>
       <use style="stroke:#000000;stroke-width:0.6;" x="350.257438" xlink:href="#m0b1775f4fa" y="150.089143"/>
      </g>
     </g>
    </g>
    <g id="xtick_14">
     <g id="line2d_14">
      <g>
       <use style="stroke:#000000;stroke-width:0.6;" x="355.849042" xlink:href="#m0b1775f4fa" y="150.089143"/>
      </g>
     </g>
    </g>
    <g id="xtick_15">
     <g id="line2d_15">
      <g>
       <use style="stroke:#000000;stroke-width:0.6;" x="360.417715" xlink:href="#m0b1775f4fa" y="150.089143"/>
      </g>
     </g>
    </g>
    <g id="xtick_16">
     <g id="line2d_16">
      <g>
       <use style="stroke:#000000;stroke-width:0.6;" x="364.280473" xlink:href="#m0b1775f4fa" y="150.089143"/>
      </g>
     </g>
    </g>
    <g id="xtick_17">
     <g id="line2d_17">
      <g>
       <use style="stroke:#000000;stroke-width:0.6;" x="367.626546" xlink:href="#m0b1775f4fa" y="150.089143"/>
      </g>
     </g>
    </g>
    <g id="xtick_18">
     <g id="line2d_18">
      <g>
       <use style="stroke:#000000;stroke-width:0.6;" x="370.577991" xlink:href="#m0b1775f4fa" y="150.089143"/>
      </g>
     </g>
    </g>
    <g id="xtick_19">
     <g id="line2d_19">
      <g>
       <use style="stroke:#000000;stroke-width:0.6;" x="390.587256" xlink:href="#m0b1775f4fa" y="150.089143"/>
      </g>
     </g>
    </g>
    <g id="xtick_20">
     <g id="line2d_20">
      <g>
       <use style="stroke:#000000;stroke-width:0.6;" x="400.747533" xlink:href="#m0b1775f4fa" y="150.089143"/>
      </g>
     </g>
    </g>
    <g id="xtick_21">
     <g id="line2d_21">
      <g>
       <use style="stroke:#000000;stroke-width:0.6;" x="407.956364" xlink:href="#m0b1775f4fa" y="150.089143"/>
      </g>
     </g>
    </g>
    <g id="xtick_22">
     <g id="line2d_22">
      <g>
       <use style="stroke:#000000;stroke-width:0.6;" x="413.547967" xlink:href="#m0b1775f4fa" y="150.089143"/>
      </g>
     </g>
    </g>
    <g id="text_3">
     <!-- Period d -->
     <g transform="translate(319.231719 178.365705)scale(0.1 -0.1)">
      <defs>
       <path d="M 24.703125 37.109375 
L 37.59375 37.109375 
Q 44.875 37.109375 48.671875 41.03125 
Q 52.484375 44.96875 52.484375 52.390625 
Q 52.484375 59.859375 48.671875 63.765625 
Q 44.875 67.671875 37.59375 67.671875 
L 24.703125 67.671875 
z
M 5.515625 0 
L 5.515625 5.171875 
L 14.796875 5.171875 
L 14.796875 67.671875 
L 5.515625 67.671875 
L 5.515625 72.90625 
L 39.984375 72.90625 
Q 50.921875 72.90625 57.3125 67.359375 
Q 63.71875 61.8125 63.71875 52.390625 
Q 63.71875 43.015625 57.3125 37.453125 
Q 50.921875 31.890625 39.984375 31.890625 
L 24.703125 31.890625 
L 24.703125 5.171875 
L 35.984375 5.171875 
L 35.984375 0 
z
" id="DejaVuSerif-80"/>
       <path d="M 54.203125 25 
L 15.484375 25 
L 15.484375 24.609375 
Q 15.484375 14.109375 19.4375 8.765625 
Q 23.390625 3.421875 31.109375 3.421875 
Q 37.015625 3.421875 40.796875 6.515625 
Q 44.578125 9.625 46.09375 15.71875 
L 53.328125 15.71875 
Q 51.171875 7.171875 45.375 2.875 
Q 39.59375 -1.421875 30.171875 -1.421875 
Q 18.796875 -1.421875 11.890625 6.078125 
Q 4.984375 13.578125 4.984375 25.984375 
Q 4.984375 38.28125 11.765625 45.796875 
Q 18.5625 53.328125 29.59375 53.328125 
Q 41.359375 53.328125 47.65625 46.0625 
Q 53.953125 38.8125 54.203125 25 
z
M 43.609375 30.171875 
Q 43.3125 39.265625 39.765625 43.875 
Q 36.234375 48.484375 29.59375 48.484375 
Q 23.390625 48.484375 19.828125 43.84375 
Q 16.265625 39.203125 15.484375 30.171875 
z
" id="DejaVuSerif-101"/>
       <path d="M 47.796875 52 
L 47.796875 39.015625 
L 42.625 39.015625 
Q 42.390625 42.875 40.484375 44.78125 
Q 38.578125 46.6875 34.90625 46.6875 
Q 28.265625 46.6875 24.71875 42.09375 
Q 21.1875 37.5 21.1875 28.90625 
L 21.1875 5.171875 
L 31.59375 5.171875 
L 31.59375 0 
L 4.109375 0 
L 4.109375 5.171875 
L 12.203125 5.171875 
L 12.203125 46.78125 
L 3.609375 46.78125 
L 3.609375 51.90625 
L 21.1875 51.90625 
L 21.1875 42.671875 
Q 23.828125 48.09375 27.96875 50.703125 
Q 32.125 53.328125 38.09375 53.328125 
Q 40.28125 53.328125 42.703125 52.984375 
Q 45.125 52.640625 47.796875 52 
z
" id="DejaVuSerif-114"/>
       <path d="M 9.71875 68.015625 
Q 9.71875 70.265625 11.34375 71.921875 
Q 12.984375 73.578125 15.28125 73.578125 
Q 17.53125 73.578125 19.15625 71.921875 
Q 20.796875 70.265625 20.796875 68.015625 
Q 20.796875 65.71875 19.1875 64.109375 
Q 17.578125 62.5 15.28125 62.5 
Q 12.984375 62.5 11.34375 64.109375 
Q 9.71875 65.71875 9.71875 68.015625 
z
M 21.1875 5.171875 
L 29.6875 5.171875 
L 29.6875 0 
L 3.609375 0 
L 3.609375 5.171875 
L 12.203125 5.171875 
L 12.203125 46.6875 
L 3.609375 46.6875 
L 3.609375 51.90625 
L 21.1875 51.90625 
z
" id="DejaVuSerif-105"/>
       <path d="M 30.078125 3.421875 
Q 37.3125 3.421875 40.984375 9.125 
Q 44.671875 14.84375 44.671875 25.984375 
Q 44.671875 37.109375 40.984375 42.796875 
Q 37.3125 48.484375 30.078125 48.484375 
Q 22.859375 48.484375 19.171875 42.796875 
Q 15.484375 37.109375 15.484375 25.984375 
Q 15.484375 14.84375 19.1875 9.125 
Q 22.90625 3.421875 30.078125 3.421875 
z
M 30.078125 -1.421875 
Q 18.75 -1.421875 11.859375 6.078125 
Q 4.984375 13.578125 4.984375 25.984375 
Q 4.984375 38.375 11.84375 45.84375 
Q 18.703125 53.328125 30.078125 53.328125 
Q 41.453125 53.328125 48.3125 45.84375 
Q 55.171875 38.375 55.171875 25.984375 
Q 55.171875 13.578125 48.3125 6.078125 
Q 41.453125 -1.421875 30.078125 -1.421875 
z
" id="DejaVuSerif-111"/>
       <path d="M 52.484375 5.171875 
L 61.078125 5.171875 
L 61.078125 0 
L 43.5 0 
L 43.5 8.109375 
Q 40.875 3.21875 36.796875 0.890625 
Q 32.71875 -1.421875 26.703125 -1.421875 
Q 17.140625 -1.421875 11.0625 6.171875 
Q 4.984375 13.765625 4.984375 25.984375 
Q 4.984375 38.1875 11.03125 45.75 
Q 17.09375 53.328125 26.703125 53.328125 
Q 32.71875 53.328125 36.796875 51 
Q 40.875 48.6875 43.5 43.796875 
L 43.5 70.796875 
L 35.015625 70.796875 
L 35.015625 75.984375 
L 52.484375 75.984375 
z
M 43.5 23.390625 
L 43.5 28.515625 
Q 43.5 37.84375 39.90625 42.765625 
Q 36.328125 47.703125 29.5 47.703125 
Q 22.5625 47.703125 19.015625 42.234375 
Q 15.484375 36.765625 15.484375 25.984375 
Q 15.484375 15.234375 19.015625 9.71875 
Q 22.5625 4.203125 29.5 4.203125 
Q 36.328125 4.203125 39.90625 9.109375 
Q 43.5 14.015625 43.5 23.390625 
z
" id="DejaVuSerif-100"/>
       <path id="DejaVuSerif-32"/>
      </defs>
      <use xlink:href="#DejaVuSerif-80"/>
      <use x="62.785156" xlink:href="#DejaVuSerif-101"/>
      <use x="121.964844" xlink:href="#DejaVuSerif-114"/>
      <use x="169.767578" xlink:href="#DejaVuSerif-105"/>
      <use x="201.75" xlink:href="#DejaVuSerif-111"/>
      <use x="261.955078" xlink:href="#DejaVuSerif-100"/>
      <use x="325.96875" xlink:href="#DejaVuSerif-32"/>
      <use x="357.755859" xlink:href="#DejaVuSerif-100"/>
     </g>
    </g>
   </g>
   <g id="matplotlib.axis_2">
    <g id="ytick_1">
     <g id="line2d_23">
      <defs>
       <path d="M 0 0 
L -3.5 0 
" id="me5a6b0cac6" style="stroke:#000000;stroke-width:0.8;"/>
      </defs>
      <g>
       <use style="stroke:#000000;stroke-width:0.8;" x="265.92" xlink:href="#me5a6b0cac6" y="145.159368"/>
      </g>
     </g>
     <g id="text_4">
      <!-- 0.0 -->
      <g transform="translate(243.016875 148.958587)scale(0.1 -0.1)">
       <defs>
        <path d="M 9.421875 5.078125 
Q 9.421875 7.8125 11.28125 9.71875 
Q 13.140625 11.625 15.921875 11.625 
Q 18.609375 11.625 20.5 9.71875 
Q 22.40625 7.8125 22.40625 5.078125 
Q 22.40625 2.390625 20.5 0.484375 
Q 18.609375 -1.421875 15.921875 -1.421875 
Q 13.140625 -1.421875 11.28125 0.453125 
Q 9.421875 2.34375 9.421875 5.078125 
z
" id="DejaVuSerif-46"/>
       </defs>
       <use xlink:href="#DejaVuSerif-48"/>
       <use x="63.623047" xlink:href="#DejaVuSerif-46"/>
       <use x="95.410156" xlink:href="#DejaVuSerif-48"/>
      </g>
     </g>
    </g>
    <g id="ytick_2">
     <g id="line2d_24">
      <g>
       <use style="stroke:#000000;stroke-width:0.8;" x="265.92" xlink:href="#me5a6b0cac6" y="102.833667"/>
      </g>
     </g>
     <g id="text_5">
      <!-- 0.2 -->
      <g transform="translate(243.016875 106.632885)scale(0.1 -0.1)">
       <use xlink:href="#DejaVuSerif-48"/>
       <use x="63.623047" xlink:href="#DejaVuSerif-46"/>
       <use x="95.410156" xlink:href="#DejaVuSerif-50"/>
      </g>
     </g>
    </g>
    <g id="ytick_3">
     <g id="line2d_25">
      <g>
       <use style="stroke:#000000;stroke-width:0.8;" x="265.92" xlink:href="#me5a6b0cac6" y="60.507965"/>
      </g>
     </g>
     <g id="text_6">
      <!-- 0.4 -->
      <g transform="translate(243.016875 64.307184)scale(0.1 -0.1)">
       <defs>
        <path d="M 34.90625 24.703125 
L 34.90625 63.484375 
L 10.015625 24.703125 
z
M 56.390625 0 
L 23.1875 0 
L 23.1875 5.171875 
L 34.90625 5.171875 
L 34.90625 19.484375 
L 3.078125 19.484375 
L 3.078125 24.8125 
L 35.015625 74.21875 
L 44.671875 74.21875 
L 44.671875 24.703125 
L 58.59375 24.703125 
L 58.59375 19.484375 
L 44.671875 19.484375 
L 44.671875 5.171875 
L 56.390625 5.171875 
z
" id="DejaVuSerif-52"/>
       </defs>
       <use xlink:href="#DejaVuSerif-48"/>
       <use x="63.623047" xlink:href="#DejaVuSerif-46"/>
       <use x="95.410156" xlink:href="#DejaVuSerif-52"/>
      </g>
     </g>
    </g>
    <g id="text_7">
     <!-- Power -->
     <g transform="translate(236.937188 111.583696)rotate(-90)scale(0.1 -0.1)">
      <defs>
       <path d="M 48 51.90625 
L 61.28125 11.375 
L 73 46.6875 
L 65.484375 46.6875 
L 65.484375 51.90625 
L 84.28125 51.90625 
L 84.28125 46.6875 
L 78.515625 46.6875 
L 63.09375 0 
L 55.609375 0 
L 42.828125 38.8125 
L 29.984375 0 
L 22.796875 0 
L 7.421875 46.6875 
L 1.609375 46.6875 
L 1.609375 51.90625 
L 25.09375 51.90625 
L 25.09375 46.6875 
L 16.703125 46.6875 
L 28.328125 11.375 
L 41.703125 51.90625 
z
" id="DejaVuSerif-119"/>
      </defs>
      <use xlink:href="#DejaVuSerif-80"/>
      <use x="63.285156" xlink:href="#DejaVuSerif-111"/>
      <use x="123.490234" xlink:href="#DejaVuSerif-119"/>
      <use x="209.085938" xlink:href="#DejaVuSerif-101"/>
      <use x="268.265625" xlink:href="#DejaVuSerif-114"/>
     </g>
    </g>
   </g>
   <g id="LineCollection_1">
    <path clip-path="url(#p5ca10084b0)" d="M 272.688076 46.409143 
L 407.956364 46.409143 
" style="fill:none;stroke:#808080;stroke-dasharray:5.55,2.4;stroke-dashoffset:0;stroke-width:1.5;"/>
   </g>
   <g id="LineCollection_2">
    <path clip-path="url(#p5ca10084b0)" d="M 272.688076 60.322206 
L 407.956364 60.322206 
" style="fill:none;stroke:#a9a9a9;stroke-dasharray:5.55,2.4;stroke-dashoffset:0;stroke-width:1.5;"/>
   </g>
   <g id="LineCollection_3">
    <path clip-path="url(#p5ca10084b0)" d="M 272.688076 71.277061 
L 407.956364 71.277061 
" style="fill:none;stroke:#c0c0c0;stroke-dasharray:5.55,2.4;stroke-dashoffset:0;stroke-width:1.5;"/>
   </g>
   <g id="LineCollection_4">
    <path clip-path="url(#p5ca10084b0)" d="M 272.688076 76.451708 
L 407.956364 76.451708 
" style="fill:none;stroke:#d3d3d3;stroke-dasharray:5.55,2.4;stroke-dashoffset:0;stroke-width:1.5;"/>
   </g>
   <g id="line2d_26">
    <path clip-path="url(#p5ca10084b0)" d="M 407.956364 119.925242 
L 403.213616 107.438767 
L 399.227255 126.259952 
L 395.788878 137.204182 
L 392.765875 138.815829 
L 390.068617 122.588265 
L 387.633683 98.441334 
L 385.414539 92.249587 
L 383.376032 94.719817 
L 381.490955 109.649558 
L 379.73782 129.073766 
L 378.099359 121.32193 
L 376.561486 99.898167 
L 375.112563 89.392102 
L 373.74286 83.792569 
L 372.444161 93.218423 
L 371.209467 117.382229 
L 370.032763 125.946821 
L 368.908846 119.102092 
L 367.833182 108.173985 
L 366.801799 95.876793 
L 365.811193 97.616177 
L 363.940249 120.60142 
L 363.054681 126.383067 
L 362.199344 133.379585 
L 361.372241 130.183803 
L 360.571569 120.153881 
L 359.79569 118.132009 
L 359.043114 118.616955 
L 358.312483 111.607662 
L 357.602554 123.658715 
L 356.912184 137.850837 
L 356.240326 140.763812 
L 355.586012 139.426172 
L 354.948349 132.194164 
L 354.326511 128.402437 
L 353.127298 139.012662 
L 352.548548 141.522672 
L 351.429669 112.610612 
L 350.888423 111.94698 
L 350.358621 104.787037 
L 349.839788 114.46229 
L 349.331481 129.273045 
L 348.83328 119.109659 
L 348.344791 103.754979 
L 347.865643 98.484416 
L 347.395485 83.452612 
L 346.933987 91.651142 
L 346.480834 114.843933 
L 346.035731 122.524214 
L 345.598396 123.742647 
L 345.168563 126.241344 
L 344.745979 119.324259 
L 344.330404 117.389354 
L 343.921608 121.967518 
L 343.519374 122.151699 
L 343.123495 116.876296 
L 342.733774 115.438033 
L 342.35002 124.568764 
L 341.972055 128.923365 
L 341.599707 125.841443 
L 341.23281 119.250307 
L 340.51475 84.383826 
L 340.163291 93.161106 
L 339.137558 127.075536 
L 338.80477 116.370817 
L 338.476344 93.399877 
L 338.152167 90.757526 
L 337.83213 95.862644 
L 337.516128 105.738121 
L 337.204063 131.244993 
L 336.895836 139.413903 
L 336.290527 124.076171 
L 335.993269 120.456838 
L 335.699496 126.519295 
L 335.409128 138.998533 
L 335.122085 143.541765 
L 334.838294 140.707146 
L 334.55768 131.984903 
L 334.280174 127.301077 
L 333.734215 135.44912 
L 333.465633 135.137701 
L 333.199898 136.554484 
L 332.936952 136.613057 
L 332.676737 131.35716 
L 332.419196 129.78888 
L 332.164275 124.452536 
L 331.911921 109.637093 
L 331.662084 103.271425 
L 330.927177 134.192957 
L 330.686922 129.709376 
L 330.448947 114.548663 
L 330.213212 109.069109 
L 329.979673 112.221444 
L 329.748291 121.332076 
L 329.29184 143.16831 
L 329.066695 141.552927 
L 328.622384 133.27404 
L 328.403148 134.540053 
L 328.185814 138.67863 
L 327.970348 137.259919 
L 327.756719 133.226802 
L 327.544897 136.050198 
L 327.126548 143.594534 
L 326.919965 141.034131 
L 326.511837 122.042942 
L 326.310239 122.884568 
L 326.11025 125.239434 
L 325.714998 140.417465 
L 325.519686 140.902424 
L 324.942719 131.326863 
L 324.378739 144.430339 
L 324.009683 140.816531 
L 323.827173 141.632863 
L 323.645984 143.702852 
L 323.466094 144.350371 
L 323.287487 137.152796 
L 322.934048 119.594069 
L 322.75918 115.298323 
L 322.585524 117.374978 
L 322.413063 129.969455 
L 322.241781 133.647476 
L 321.90269 119.313088 
L 321.73485 109.315379 
L 321.568126 110.195849 
L 321.237971 130.06309 
L 320.912109 137.579802 
L 320.431126 130.765564 
L 320.115524 124.026769 
L 319.959202 126.8073 
L 319.649452 140.198647 
L 319.496001 141.214088 
L 319.343484 136.686753 
L 319.19189 128.166802 
L 319.041207 126.142116 
L 318.447378 145.070025 
L 318.011062 140.416893 
L 317.867296 139.643644 
L 317.582214 135.765474 
L 317.44088 136.613412 
L 317.160581 144.92751 
L 317.021599 143.430884 
L 316.745926 130.709403 
L 316.609219 131.382408 
L 316.338021 140.952462 
L 316.203515 141.512655 
L 315.804275 126.498906 
L 315.672596 124.781905 
L 315.541606 125.658022 
L 315.281661 133.181635 
L 315.152693 131.489599 
L 314.769725 113.350868 
L 314.643358 116.223696 
L 314.268038 134.469188 
L 314.020912 121.455912 
L 313.898256 120.000121 
L 313.776199 123.865842 
L 313.413552 144.101404 
L 313.293827 143.682328 
L 313.05608 133.904618 
L 312.820567 122.35298 
L 312.703635 121.750746 
L 312.356079 138.739552 
L 312.24129 137.500614 
L 312.013277 122.500097 
L 311.900044 121.046181 
L 311.78732 121.81466 
L 311.452161 141.847229 
L 311.34143 141.696693 
L 311.121425 132.804941 
L 310.903334 124.661132 
L 310.687126 135.485525 
L 310.472767 143.877738 
L 310.154628 134.99475 
L 309.840478 143.235252 
L 309.73663 142.96851 
L 309.633211 142.058072 
L 309.530217 142.568565 
L 309.427645 144.121788 
L 309.32549 144.013826 
L 308.920988 126.463714 
L 308.820874 126.835476 
L 308.621839 135.384204 
L 308.522911 135.110369 
L 308.228449 122.513644 
L 308.13106 125.492834 
L 307.84114 142.960313 
L 307.649708 131.358037 
L 307.554537 131.638327 
L 307.365274 143.997998 
L 307.271175 143.893608 
L 306.990981 127.865465 
L 306.713886 144.820986 
L 306.622198 144.23827 
L 306.258763 131.918343 
L 306.168722 132.398721 
L 305.900524 140.539509 
L 305.723307 131.715184 
L 305.459809 119.185285 
L 305.372589 119.645759 
L 305.112735 128.433408 
L 305.026712 124.545937 
L 304.770402 105.387546 
L 304.685544 106.915589 
L 304.432682 128.61209 
L 304.099454 84.525138 
L 304.016835 88.781942 
L 303.770599 122.903577 
L 303.52676 99.610507 
L 303.365508 117.797038 
L 303.205288 136.964557 
L 303.12556 135.191668 
L 302.966862 129.055951 
L 302.652449 144.519816 
L 302.49671 143.870449 
L 302.419202 144.25966 
L 302.341932 143.750343 
L 302.111544 133.821479 
L 301.883255 144.872622 
L 301.657027 129.487818 
L 301.582069 133.177656 
L 301.432822 144.620532 
L 301.358531 143.711928 
L 301.210607 135.430269 
L 301.13697 135.97047 
L 300.917351 144.314747 
L 300.69964 137.373894 
L 300.627488 137.624003 
L 300.34094 144.7923 
L 300.057631 138.504504 
L 299.987302 139.083798 
L 299.847232 145.0357 
L 299.707941 139.761865 
L 299.56942 134.436854 
L 299.363064 144.436303 
L 299.158394 130.804277 
L 298.955381 142.90036 
L 298.687231 116.675479 
L 298.554225 130.798903 
L 298.487985 129.761587 
L 298.290311 102.083937 
L 298.224765 106.359548 
L 297.96428 138.533132 
L 297.89958 136.889096 
L 297.578561 124.708904 
L 297.451297 135.807672 
L 297.387906 135.121286 
L 297.135934 96.316433 
L 296.948604 126.595553 
L 296.886471 121.692296 
L 296.70099 100.668471 
L 296.455798 139.211669 
L 296.394874 136.99409 
L 296.273467 130.109782 
L 296.212983 130.948652 
L 296.032403 143.986743 
L 295.972498 140.562447 
L 295.793636 119.403619 
L 295.734298 124.876244 
L 295.616043 139.542906 
L 295.498342 115.688331 
L 295.439699 99.957263 
L 295.381192 104.902638 
L 295.206487 137.885931 
L 295.032992 120.261211 
L 294.975427 124.420947 
L 294.803519 143.53968 
L 294.746477 143.173783 
L 294.689565 142.117712 
L 294.632782 142.259243 
L 294.5196 144.867581 
L 294.463201 144.42874 
L 294.294759 136.463299 
L 294.238863 137.920764 
L 294.127442 144.351766 
L 294.016515 137.973086 
L 293.961236 133.126044 
L 293.906077 133.176228 
L 293.796124 143.538877 
L 293.741328 142.528104 
L 293.686651 141.730255 
L 293.577654 144.684411 
L 293.523333 143.808097 
L 293.361072 126.436862 
L 293.307218 127.310254 
L 293.199855 140.338968 
L 293.146346 137.850127 
L 292.9865 111.968436 
L 292.933444 113.592204 
L 292.774947 134.238308 
L 292.669836 122.990958 
L 292.617446 117.773946 
L 292.565165 118.369395 
L 292.460928 128.312516 
L 292.357124 137.135243 
L 292.202219 111.967243 
L 292.150796 112.859735 
L 291.997158 138.487815 
L 291.946153 133.727682 
L 291.844455 118.084736 
L 291.793761 119.776328 
L 291.642289 139.910203 
L 291.592001 136.079775 
L 291.491728 126.165461 
L 291.441741 126.22847 
L 291.292376 144.247082 
L 291.242785 143.088518 
L 291.143896 139.612771 
L 291.094598 140.812123 
L 290.996291 143.965431 
L 290.947282 142.51907 
L 290.898369 141.47812 
L 290.800827 144.87919 
L 290.752198 143.152544 
L 290.606876 128.746287 
L 290.462392 141.9115 
L 290.318735 115.436476 
L 290.271032 120.161778 
L 290.128466 139.953575 
L 290.03387 128.871541 
L 289.986706 129.197012 
L 289.798932 144.528139 
L 289.752207 144.393752 
L 289.519883 141.129543 
L 289.381515 143.933119 
L 289.335561 144.943963 
L 289.289692 144.932444 
L 289.152586 139.962437 
L 289.061597 135.832669 
L 289.016226 136.469687 
L 288.880604 144.065309 
L 288.700909 122.71574 
L 288.656186 128.153081 
L 288.566978 141.466625 
L 288.522494 136.546897 
L 288.43376 124.579976 
L 288.389511 125.782344 
L 288.25723 143.374009 
L 288.213291 139.714282 
L 288.125643 135.698869 
L 287.994745 144.660699 
L 287.951263 140.316217 
L 287.864526 134.174309 
L 287.82127 137.645497 
L 287.73498 144.062957 
L 287.691947 140.608336 
L 287.606101 132.604149 
L 287.563288 135.402876 
L 287.477881 144.79723 
L 287.435287 144.115738 
L 287.350314 140.405816 
L 287.307936 141.473264 
L 287.223394 145.145444 
L 287.181229 143.801646 
L 287.097112 138.216075 
L 287.05516 138.615468 
L 286.929721 145.107558 
L 286.888048 144.108032 
L 286.804908 139.146467 
L 286.763441 139.567349 
L 286.598257 144.715725 
L 286.55713 144.148723 
L 286.434154 136.118398 
L 286.352504 139.713221 
L 286.271119 144.734488 
L 286.230526 143.546616 
L 286.068806 139.735394 
L 286.028539 139.737474 
L 285.948198 141.381333 
L 285.868114 144.555692 
L 285.708709 127.453064 
L 285.629385 132.860674 
L 285.589817 135.158707 
L 285.550312 132.630965 
L 285.432167 113.378027 
L 285.392909 113.72786 
L 285.275503 134.146534 
L 285.23649 129.356794 
L 285.158645 118.398478 
L 285.119812 122.786694 
L 285.003676 142.401172 
L 284.965083 136.704515 
L 284.926549 131.225946 
L 284.888075 132.033049 
L 284.773005 145.037329 
L 284.734766 143.674594 
L 284.658461 141.127358 
L 284.620396 141.581967 
L 284.430932 144.864656 
L 284.393211 144.288872 
L 284.280386 137.101701 
L 284.24289 138.257004 
L 284.168067 144.69891 
L 284.093466 141.697542 
L 284.019087 135.292663 
L 283.98198 136.943819 
L 283.870987 144.930639 
L 283.834099 144.736043 
L 283.687086 138.472531 
L 283.650467 139.94212 
L 283.577389 144.77528 
L 283.54093 144.574083 
L 283.43187 140.415756 
L 283.395621 142.044012 
L 283.323282 145.086681 
L 283.287191 143.079194 
L 283.215163 136.027494 
L 283.179227 136.886356 
L 283.107508 141.211932 
L 283.000314 107.477167 
L 282.929106 115.411191 
L 282.858099 133.875857 
L 282.822671 124.416639 
L 282.751964 102.254758 
L 282.716685 103.324486 
L 282.611147 138.970839 
L 282.541034 125.004713 
L 282.506051 122.042845 
L 282.471117 126.568233 
L 282.366605 144.921217 
L 282.297172 142.593215 
L 282.227931 139.71696 
L 282.193382 139.860397 
L 282.055661 145.037088 
L 282.021348 143.533062 
L 281.952864 140.037157 
L 281.918692 140.582472 
L 281.816455 144.653986 
L 281.680784 137.646078 
L 281.57951 145.063902 
L 281.545843 143.634055 
L 281.445113 136.879113 
L 281.411626 138.55419 
L 281.311432 144.884432 
L 281.278123 143.0224 
L 281.178461 127.325245 
L 281.145328 127.953386 
L 281.046192 140.73821 
L 281.013234 134.494124 
L 280.947446 123.312207 
L 280.914617 127.595783 
L 280.849088 143.068789 
L 280.816388 141.332589 
L 280.751115 127.874475 
L 280.686011 136.022184 
L 280.653522 143.672286 
L 280.588672 135.997618 
L 280.523988 129.829904 
L 280.491709 135.897746 
L 280.459471 141.814979 
L 280.39512 134.188348 
L 280.330934 121.266287 
L 280.298902 126.303303 
L 280.203052 139.101569 
L 280.171183 135.204165 
L 280.07582 129.198324 
L 280.044112 129.248415 
L 279.94923 141.10421 
L 279.917683 140.574583 
L 279.823277 122.347675 
L 279.760537 129.899298 
L 279.697954 141.711927 
L 279.666721 136.799066 
L 279.573254 120.190655 
L 279.542176 124.829747 
L 279.449172 144.110004 
L 279.418247 140.705421 
L 279.356512 132.950564 
L 279.325701 136.035857 
L 279.202836 145.125733 
L 279.172213 142.908087 
L 279.08057 135.273774 
L 279.050096 139.128069 
L 279.01966 143.28973 
L 278.958897 137.426153 
L 278.898282 116.798409 
L 278.837813 126.22333 
L 278.77749 134.34585 
L 278.657277 106.685961 
L 278.627313 117.162935 
L 278.597386 131.010236 
L 278.537638 124.332575 
L 278.478032 107.203611 
L 278.448282 116.878633 
L 278.359243 142.694425 
L 278.30006 138.085967 
L 278.27052 137.769851 
L 278.18211 143.793849 
L 278.123343 141.176075 
L 278.094011 140.66756 
L 277.977025 144.357626 
L 277.860583 136.319474 
L 277.802564 139.69374 
L 277.744679 143.929546 
L 277.715787 138.721461 
L 277.658102 129.996911 
L 277.600549 136.492248 
L 277.543128 144.204964 
L 277.485839 137.470935 
L 277.457243 135.10736 
L 277.42868 137.930193 
L 277.286352 144.028813 
L 277.257983 143.310031 
L 277.144827 127.534898 
L 277.116617 133.120837 
L 277.060294 140.242432 
L 277.032179 137.257567 
L 276.976045 124.907876 
L 276.920036 131.523328 
L 276.892079 139.777389 
L 276.836257 128.387537 
L 276.780559 114.10964 
L 276.752757 120.893833 
L 276.697244 135.736795 
L 276.669534 129.805891 
L 276.614205 106.070622 
L 276.558999 125.406358 
L 276.503913 140.797242 
L 276.448949 129.328228 
L 276.394104 130.114829 
L 276.284775 144.569727 
L 276.230288 139.72254 
L 276.17592 134.802709 
L 276.121669 138.936639 
L 276.067536 144.552596 
L 276.013519 140.509016 
L 275.932712 139.641475 
L 275.852164 144.772536 
L 275.798609 143.351074 
L 275.745168 142.145392 
L 275.718491 142.567033 
L 275.638628 145.066072 
L 275.612063 144.536459 
L 275.532538 134.30766 
L 275.479661 141.153441 
L 275.453264 144.102444 
L 275.426896 141.753744 
L 275.347955 122.925722 
L 275.321697 131.321709 
L 275.269262 140.712356 
L 275.243086 129.632023 
L 275.164722 122.43514 
L 275.138655 123.838269 
L 275.112615 138.736547 
L 275.060615 118.702982 
L 275.034656 104.955227 
L 274.982819 124.808172 
L 274.931088 139.694328 
L 274.879464 131.143539 
L 274.853692 127.817945 
L 274.827946 133.93444 
L 274.725226 145.050607 
L 274.674024 144.578941 
L 274.597417 139.918305 
L 274.571933 136.814609 
L 274.521042 142.585066 
L 274.470255 144.864052 
L 274.419571 142.441673 
L 274.394267 141.962887 
L 274.368989 143.077835 
L 274.343736 144.469377 
L 274.318509 141.982505 
L 274.26813 137.844159 
L 274.217853 141.383583 
L 274.167676 145.012403 
L 274.142625 142.134121 
L 274.092598 134.985091 
L 274.017745 136.731881 
L 273.967967 143.027743 
L 273.943115 140.237693 
L 273.843952 104.829652 
L 273.819223 114.401143 
L 273.769837 129.349934 
L 273.74518 124.019571 
L 273.69594 94.839329 
L 273.646797 111.864039 
L 273.597749 134.448296 
L 273.524357 123.381534 
L 273.499941 124.135044 
L 273.426835 143.260802 
L 273.378216 135.6301 
L 273.353942 135.611873 
L 273.281259 144.605428 
L 273.232922 140.908061 
L 273.184677 138.466752 
L 273.136525 141.541799 
L 273.06447 145.152 
L 273.040497 143.925633 
L 272.968717 131.812434 
L 272.920978 137.182943 
L 272.873329 143.652163 
L 272.849539 136.658734 
L 272.778303 127.55805 
L 272.754603 131.844094 
L 272.70727 144.4999 
L 272.683636 143.205959 
" style="fill:none;stroke:#1f77b4;stroke-linecap:square;stroke-width:1.5;"/>
   </g>
   <g id="patch_3">
    <path d="M 265.92 150.089143 
L 265.92 41.472 
" style="fill:none;stroke:#000000;stroke-linecap:square;stroke-linejoin:miter;stroke-width:0.8;"/>
   </g>
   <g id="patch_4">
    <path d="M 414.72 150.089143 
L 414.72 41.472 
" style="fill:none;stroke:#000000;stroke-linecap:square;stroke-linejoin:miter;stroke-width:0.8;"/>
   </g>
   <g id="patch_5">
    <path d="M 265.92 150.089143 
L 414.72 150.089143 
" style="fill:none;stroke:#000000;stroke-linecap:square;stroke-linejoin:miter;stroke-width:0.8;"/>
   </g>
   <g id="patch_6">
    <path d="M 265.92 41.472 
L 414.72 41.472 
" style="fill:none;stroke:#000000;stroke-linecap:square;stroke-linejoin:miter;stroke-width:0.8;"/>
   </g>
   <g id="text_8">
    <!-- Periodogram -->
    <g transform="translate(307.698125 35.472)scale(0.1 -0.1)">
     <defs>
      <path d="M 52.484375 46.6875 
L 52.484375 1.125 
Q 52.484375 -10.0625 46.328125 -16.140625 
Q 40.1875 -22.21875 28.8125 -22.21875 
Q 23.6875 -22.21875 19 -21.28125 
Q 14.3125 -20.359375 10.015625 -18.5 
L 10.015625 -7.625 
L 14.703125 -7.625 
Q 15.578125 -12.703125 18.84375 -15.046875 
Q 22.125 -17.390625 28.21875 -17.390625 
Q 36.140625 -17.390625 39.8125 -12.921875 
Q 43.5 -8.453125 43.5 1.125 
L 43.5 8.109375 
Q 40.875 3.21875 36.796875 0.890625 
Q 32.71875 -1.421875 26.703125 -1.421875 
Q 17.140625 -1.421875 11.0625 6.171875 
Q 4.984375 13.765625 4.984375 25.984375 
Q 4.984375 38.1875 11.03125 45.75 
Q 17.09375 53.328125 26.703125 53.328125 
Q 32.71875 53.328125 36.796875 51 
Q 40.875 48.6875 43.5 43.796875 
L 43.5 51.90625 
L 61.078125 51.90625 
L 61.078125 46.6875 
z
M 43.5 28.515625 
Q 43.5 37.84375 39.90625 42.765625 
Q 36.328125 47.703125 29.5 47.703125 
Q 22.5625 47.703125 19.015625 42.234375 
Q 15.484375 36.765625 15.484375 25.984375 
Q 15.484375 15.234375 19.015625 9.71875 
Q 22.5625 4.203125 29.5 4.203125 
Q 36.328125 4.203125 39.90625 9.109375 
Q 43.5 14.015625 43.5 23.390625 
z
" id="DejaVuSerif-103"/>
      <path d="M 39.796875 16.3125 
L 39.796875 27.296875 
L 28.21875 27.296875 
Q 21.53125 27.296875 18.25 24.40625 
Q 14.984375 21.53125 14.984375 15.578125 
Q 14.984375 10.15625 18.296875 6.984375 
Q 21.625 3.8125 27.296875 3.8125 
Q 32.90625 3.8125 36.34375 7.28125 
Q 39.796875 10.75 39.796875 16.3125 
z
M 48.78125 32.421875 
L 48.78125 5.171875 
L 56.78125 5.171875 
L 56.78125 0 
L 39.796875 0 
L 39.796875 5.609375 
Q 36.8125 2 32.90625 0.28125 
Q 29 -1.421875 23.78125 -1.421875 
Q 15.140625 -1.421875 10.0625 3.171875 
Q 4.984375 7.765625 4.984375 15.578125 
Q 4.984375 23.640625 10.796875 28.078125 
Q 16.609375 32.515625 27.203125 32.515625 
L 39.796875 32.515625 
L 39.796875 36.078125 
Q 39.796875 42 36.203125 45.234375 
Q 32.625 48.484375 26.125 48.484375 
Q 20.75 48.484375 17.578125 46.046875 
Q 14.40625 43.609375 13.625 38.8125 
L 8.984375 38.8125 
L 8.984375 49.3125 
Q 13.671875 51.3125 18.09375 52.3125 
Q 22.515625 53.328125 26.703125 53.328125 
Q 37.5 53.328125 43.140625 47.96875 
Q 48.78125 42.625 48.78125 32.421875 
z
" id="DejaVuSerif-97"/>
      <path d="M 51.8125 41.796875 
Q 54.390625 47.515625 58.421875 50.421875 
Q 62.453125 53.328125 67.828125 53.328125 
Q 75.984375 53.328125 79.984375 48.265625 
Q 83.984375 43.21875 83.984375 33.015625 
L 83.984375 5.171875 
L 92.09375 5.171875 
L 92.09375 0 
L 67.1875 0 
L 67.1875 5.171875 
L 75 5.171875 
L 75 31.984375 
Q 75 39.9375 72.65625 43.3125 
Q 70.3125 46.6875 64.890625 46.6875 
Q 58.890625 46.6875 55.734375 42.140625 
Q 52.59375 37.59375 52.59375 28.90625 
L 52.59375 5.171875 
L 60.40625 5.171875 
L 60.40625 0 
L 35.796875 0 
L 35.796875 5.171875 
L 43.609375 5.171875 
L 43.609375 32.328125 
Q 43.609375 40.09375 41.265625 43.390625 
Q 38.921875 46.6875 33.5 46.6875 
Q 27.484375 46.6875 24.328125 42.140625 
Q 21.1875 37.59375 21.1875 28.90625 
L 21.1875 5.171875 
L 29 5.171875 
L 29 0 
L 4.109375 0 
L 4.109375 5.171875 
L 12.203125 5.171875 
L 12.203125 46.78125 
L 3.609375 46.78125 
L 3.609375 51.90625 
L 21.1875 51.90625 
L 21.1875 42.671875 
Q 23.6875 47.859375 27.53125 50.59375 
Q 31.390625 53.328125 36.28125 53.328125 
Q 42.328125 53.328125 46.375 50.3125 
Q 50.4375 47.3125 51.8125 41.796875 
z
" id="DejaVuSerif-109"/>
     </defs>
     <use xlink:href="#DejaVuSerif-80"/>
     <use x="62.785156" xlink:href="#DejaVuSerif-101"/>
     <use x="121.964844" xlink:href="#DejaVuSerif-114"/>
     <use x="169.767578" xlink:href="#DejaVuSerif-105"/>
     <use x="201.75" xlink:href="#DejaVuSerif-111"/>
     <use x="261.955078" xlink:href="#DejaVuSerif-100"/>
     <use x="325.96875" xlink:href="#DejaVuSerif-111"/>
     <use x="386.173828" xlink:href="#DejaVuSerif-103"/>
     <use x="450.1875" xlink:href="#DejaVuSerif-114"/>
     <use x="497.990234" xlink:href="#DejaVuSerif-97"/>
     <use x="557.609375" xlink:href="#DejaVuSerif-109"/>
    </g>
   </g>
   <g id="legend_1">
    <g id="patch_7">
     <path d="M 419.648125 108.123071 
L 454.431875 108.123071 
Q 455.231875 108.123071 455.231875 107.323071 
L 455.231875 84.238071 
Q 455.231875 83.438071 454.431875 83.438071 
L 419.648125 83.438071 
Q 418.848125 83.438071 418.848125 84.238071 
L 418.848125 107.323071 
Q 418.848125 108.123071 419.648125 108.123071 
z
" style="fill:#ffffff;opacity:0.8;stroke:#cccccc;stroke-linejoin:miter;"/>
    </g>
    <g id="line2d_27">
     <path d="M 420.448125 86.677446 
L 428.448125 86.677446 
" style="fill:none;stroke:#808080;stroke-dasharray:5.55,2.4;stroke-dashoffset:0;stroke-width:1.5;"/>
    </g>
    <g id="text_9">
     <!-- 99.9% FAP -->
     <g transform="translate(431.648125 88.077446)scale(0.04 -0.04)">
      <defs>
       <path d="M 46.78125 32.671875 
Q 43.5 29 39.25 27.1875 
Q 35.015625 25.390625 29.6875 25.390625 
Q 18.84375 25.390625 12.5625 31.9375 
Q 6.296875 38.484375 6.296875 49.8125 
Q 6.296875 60.890625 13.109375 67.546875 
Q 19.921875 74.21875 31.296875 74.21875 
Q 43.65625 74.21875 50.265625 65.015625 
Q 56.890625 55.8125 56.890625 38.71875 
Q 56.890625 19.578125 49.015625 9.078125 
Q 41.15625 -1.421875 26.90625 -1.421875 
Q 23.046875 -1.421875 18.796875 -0.6875 
Q 14.546875 0.046875 10.109375 1.515625 
L 10.109375 13.625 
L 15.578125 13.625 
Q 16.21875 8.6875 19.390625 6.046875 
Q 22.5625 3.421875 27.875 3.421875 
Q 37.359375 3.421875 41.984375 10.5625 
Q 46.625 17.71875 46.78125 32.671875 
z
M 30.90625 69.390625 
Q 23.96875 69.390625 20.28125 64.328125 
Q 16.609375 59.28125 16.609375 49.8125 
Q 16.609375 40.328125 20.28125 35.25 
Q 23.96875 30.171875 30.90625 30.171875 
Q 37.84375 30.171875 41.53125 35.078125 
Q 45.21875 39.984375 45.21875 49.21875 
Q 45.21875 58.9375 41.5 64.15625 
Q 37.796875 69.390625 30.90625 69.390625 
z
" id="DejaVuSerif-57"/>
       <path d="M 22.40625 69.671875 
Q 18.109375 69.671875 15.6875 65.625 
Q 13.28125 61.578125 13.28125 54.296875 
Q 13.28125 47.125 15.75 43.015625 
Q 18.21875 38.921875 22.40625 38.921875 
Q 26.5625 38.921875 28.96875 43 
Q 31.390625 47.078125 31.390625 54.296875 
Q 31.390625 61.53125 28.96875 65.59375 
Q 26.5625 69.671875 22.40625 69.671875 
z
M 72.703125 33.890625 
Q 68.453125 33.890625 66.03125 29.78125 
Q 63.625 25.6875 63.625 18.40625 
Q 63.625 11.234375 66.0625 7.15625 
Q 68.5 3.078125 72.703125 3.078125 
Q 76.90625 3.078125 79.296875 7.15625 
Q 81.6875 11.234375 81.6875 18.40625 
Q 81.6875 25.640625 79.265625 29.765625 
Q 76.859375 33.890625 72.703125 33.890625 
z
M 72.703125 38.28125 
Q 80.421875 38.28125 84.953125 32.90625 
Q 89.5 27.546875 89.5 18.40625 
Q 89.5 9.28125 84.9375 3.921875 
Q 80.375 -1.421875 72.703125 -1.421875 
Q 64.890625 -1.421875 60.34375 3.921875 
Q 55.8125 9.28125 55.8125 18.40625 
Q 55.8125 27.59375 60.375 32.9375 
Q 64.9375 38.28125 72.703125 38.28125 
z
M 66.609375 74.21875 
L 74.03125 74.21875 
L 28.421875 -1.421875 
L 21 -1.421875 
z
M 22.3125 74.21875 
Q 30.03125 74.21875 34.609375 68.875 
Q 39.203125 63.53125 39.203125 54.390625 
Q 39.203125 45.171875 34.640625 39.84375 
Q 30.078125 34.515625 22.3125 34.515625 
Q 14.546875 34.515625 10.03125 39.859375 
Q 5.515625 45.21875 5.515625 54.390625 
Q 5.515625 63.484375 10.046875 68.84375 
Q 14.59375 74.21875 22.3125 74.21875 
z
" id="DejaVuSerif-37"/>
       <path d="M 5.515625 0 
L 5.515625 5.171875 
L 14.796875 5.171875 
L 14.796875 67.671875 
L 5.515625 67.671875 
L 5.515625 72.90625 
L 65.1875 72.90625 
L 65.1875 56.6875 
L 59.1875 56.6875 
L 59.1875 66.890625 
L 24.703125 66.890625 
L 24.703125 42.484375 
L 49.609375 42.484375 
L 49.609375 51.609375 
L 55.609375 51.609375 
L 55.609375 27.390625 
L 49.609375 27.390625 
L 49.609375 36.53125 
L 24.703125 36.53125 
L 24.703125 5.171875 
L 36.375 5.171875 
L 36.375 0 
z
" id="DejaVuSerif-70"/>
       <path d="M 20.015625 26.421875 
L 46.78125 26.421875 
L 33.40625 61.078125 
z
M -0.59375 0 
L -0.59375 5.171875 
L 5.8125 5.171875 
L 31.78125 72.90625 
L 39.984375 72.90625 
L 66.015625 5.171875 
L 73.1875 5.171875 
L 73.1875 0 
L 46.6875 0 
L 46.6875 5.171875 
L 54.78125 5.171875 
L 48.6875 21.1875 
L 18.015625 21.1875 
L 11.921875 5.171875 
L 19.921875 5.171875 
L 19.921875 0 
z
" id="DejaVuSerif-65"/>
      </defs>
      <use xlink:href="#DejaVuSerif-57"/>
      <use x="63.623047" xlink:href="#DejaVuSerif-57"/>
      <use x="127.246094" xlink:href="#DejaVuSerif-46"/>
      <use x="159.033203" xlink:href="#DejaVuSerif-57"/>
      <use x="222.65625" xlink:href="#DejaVuSerif-37"/>
      <use x="317.675781" xlink:href="#DejaVuSerif-32"/>
      <use x="349.462891" xlink:href="#DejaVuSerif-70"/>
      <use x="410.097656" xlink:href="#DejaVuSerif-65"/>
      <use x="482.314453" xlink:href="#DejaVuSerif-80"/>
     </g>
    </g>
    <g id="line2d_28">
     <path d="M 420.448125 92.548696 
L 428.448125 92.548696 
" style="fill:none;stroke:#a9a9a9;stroke-dasharray:5.55,2.4;stroke-dashoffset:0;stroke-width:1.5;"/>
    </g>
    <g id="text_10">
     <!-- 99.0% FAP -->
     <g transform="translate(431.648125 93.948696)scale(0.04 -0.04)">
      <use xlink:href="#DejaVuSerif-57"/>
      <use x="63.623047" xlink:href="#DejaVuSerif-57"/>
      <use x="127.246094" xlink:href="#DejaVuSerif-46"/>
      <use x="159.033203" xlink:href="#DejaVuSerif-48"/>
      <use x="222.65625" xlink:href="#DejaVuSerif-37"/>
      <use x="317.675781" xlink:href="#DejaVuSerif-32"/>
      <use x="349.462891" xlink:href="#DejaVuSerif-70"/>
      <use x="410.097656" xlink:href="#DejaVuSerif-65"/>
      <use x="482.314453" xlink:href="#DejaVuSerif-80"/>
     </g>
    </g>
    <g id="line2d_29">
     <path d="M 420.448125 98.419946 
L 428.448125 98.419946 
" style="fill:none;stroke:#c0c0c0;stroke-dasharray:5.55,2.4;stroke-dashoffset:0;stroke-width:1.5;"/>
    </g>
    <g id="text_11">
     <!-- 95.0% FAP -->
     <g transform="translate(431.648125 99.819946)scale(0.04 -0.04)">
      <defs>
       <path d="M 50.296875 72.90625 
L 50.296875 64.890625 
L 16.890625 64.890625 
L 16.890625 44 
Q 19.4375 45.75 22.828125 46.625 
Q 26.21875 47.515625 30.421875 47.515625 
Q 42.234375 47.515625 49.0625 40.96875 
Q 55.90625 34.421875 55.90625 23.09375 
Q 55.90625 11.53125 49 5.046875 
Q 42.09375 -1.421875 29.59375 -1.421875 
Q 24.5625 -1.421875 19.28125 -0.1875 
Q 14.015625 1.03125 8.5 3.515625 
L 8.5 17.671875 
L 14.015625 17.671875 
Q 14.453125 10.75 18.421875 7.078125 
Q 22.40625 3.421875 29.59375 3.421875 
Q 37.3125 3.421875 41.453125 8.5 
Q 45.609375 13.578125 45.609375 23.09375 
Q 45.609375 32.5625 41.484375 37.609375 
Q 37.359375 42.671875 29.59375 42.671875 
Q 25.203125 42.671875 21.84375 41.109375 
Q 18.5 39.546875 15.921875 36.28125 
L 11.71875 36.28125 
L 11.71875 72.90625 
z
" id="DejaVuSerif-53"/>
      </defs>
      <use xlink:href="#DejaVuSerif-57"/>
      <use x="63.623047" xlink:href="#DejaVuSerif-53"/>
      <use x="127.246094" xlink:href="#DejaVuSerif-46"/>
      <use x="159.033203" xlink:href="#DejaVuSerif-48"/>
      <use x="222.65625" xlink:href="#DejaVuSerif-37"/>
      <use x="317.675781" xlink:href="#DejaVuSerif-32"/>
      <use x="349.462891" xlink:href="#DejaVuSerif-70"/>
      <use x="410.097656" xlink:href="#DejaVuSerif-65"/>
      <use x="482.314453" xlink:href="#DejaVuSerif-80"/>
     </g>
    </g>
    <g id="line2d_30">
     <path d="M 420.448125 104.291196 
L 428.448125 104.291196 
" style="fill:none;stroke:#d3d3d3;stroke-dasharray:5.55,2.4;stroke-dashoffset:0;stroke-width:1.5;"/>
    </g>
    <g id="text_12">
     <!-- 90.0% FAP -->
     <g transform="translate(431.648125 105.691196)scale(0.04 -0.04)">
      <use xlink:href="#DejaVuSerif-57"/>
      <use x="63.623047" xlink:href="#DejaVuSerif-48"/>
      <use x="127.246094" xlink:href="#DejaVuSerif-46"/>
      <use x="159.033203" xlink:href="#DejaVuSerif-48"/>
      <use x="222.65625" xlink:href="#DejaVuSerif-37"/>
      <use x="317.675781" xlink:href="#DejaVuSerif-32"/>
      <use x="349.462891" xlink:href="#DejaVuSerif-70"/>
      <use x="410.097656" xlink:href="#DejaVuSerif-65"/>
      <use x="482.314453" xlink:href="#DejaVuSerif-80"/>
     </g>
    </g>
   </g>
  </g>
  <g id="axes_2">
   <g id="patch_8">
    <path d="M 57.6 150.089143 
L 206.4 150.089143 
L 206.4 41.472 
L 57.6 41.472 
z
" style="fill:#ffffff;"/>
   </g>
   <g id="PathCollection_1">
    <defs>
     <path d="M 0 0.707107 
C 0.187527 0.707107 0.367398 0.632602 0.5 0.5 
C 0.632602 0.367398 0.707107 0.187527 0.707107 0 
C 0.707107 -0.187527 0.632602 -0.367398 0.5 -0.5 
C 0.367398 -0.632602 0.187527 -0.707107 0 -0.707107 
C -0.187527 -0.707107 -0.367398 -0.632602 -0.5 -0.5 
C -0.632602 -0.367398 -0.707107 -0.187527 -0.707107 0 
C -0.707107 0.187527 -0.632602 0.367398 -0.5 0.5 
C -0.367398 0.632602 -0.187527 0.707107 0 0.707107 
z
" id="m361dbb5862" style="stroke:#1f77b4;"/>
    </defs>
    <g clip-path="url(#pfb47341f2f)">
     <use style="fill:#1f77b4;stroke:#1f77b4;" x="67.082602" xlink:href="#m361dbb5862" y="98.57267"/>
     <use style="fill:#1f77b4;stroke:#1f77b4;" x="67.083536" xlink:href="#m361dbb5862" y="102.759702"/>
     <use style="fill:#1f77b4;stroke:#1f77b4;" x="117.398013" xlink:href="#m361dbb5862" y="79.229359"/>
     <use style="fill:#1f77b4;stroke:#1f77b4;" x="117.398948" xlink:href="#m361dbb5862" y="71.739051"/>
     <use style="fill:#1f77b4;stroke:#1f77b4;" x="121.611714" xlink:href="#m361dbb5862" y="80.738865"/>
     <use style="fill:#1f77b4;stroke:#1f77b4;" x="127.602805" xlink:href="#m361dbb5862" y="105.272005"/>
     <use style="fill:#1f77b4;stroke:#1f77b4;" x="127.609299" xlink:href="#m361dbb5862" y="115.348384"/>
     <use style="fill:#1f77b4;stroke:#1f77b4;" x="107.995595" xlink:href="#m361dbb5862" y="50.102744"/>
     <use style="fill:#1f77b4;stroke:#1f77b4;" x="110.012009" xlink:href="#m361dbb5862" y="67.079355"/>
     <use style="fill:#1f77b4;stroke:#1f77b4;" x="110.01292" xlink:href="#m361dbb5862" y="95.348775"/>
     <use style="fill:#1f77b4;stroke:#1f77b4;" x="114.091304" xlink:href="#m361dbb5862" y="58.487734"/>
     <use style="fill:#1f77b4;stroke:#1f77b4;" x="114.092238" xlink:href="#m361dbb5862" y="46.409143"/>
     <use style="fill:#1f77b4;stroke:#1f77b4;" x="118.064369" xlink:href="#m361dbb5862" y="54.016319"/>
     <use style="fill:#1f77b4;stroke:#1f77b4;" x="118.065303" xlink:href="#m361dbb5862" y="66.436339"/>
     <use style="fill:#1f77b4;stroke:#1f77b4;" x="120.063097" xlink:href="#m361dbb5862" y="90.02077"/>
     <use style="fill:#1f77b4;stroke:#1f77b4;" x="120.064031" xlink:href="#m361dbb5862" y="87.856113"/>
     <use style="fill:#1f77b4;stroke:#1f77b4;" x="122.189455" xlink:href="#m361dbb5862" y="58.062879"/>
     <use style="fill:#1f77b4;stroke:#1f77b4;" x="122.190366" xlink:href="#m361dbb5862" y="66.962487"/>
     <use style="fill:#1f77b4;stroke:#1f77b4;" x="124.120968" xlink:href="#m361dbb5862" y="52.262753"/>
     <use style="fill:#1f77b4;stroke:#1f77b4;" x="124.121903" xlink:href="#m361dbb5862" y="55.335251"/>
     <use style="fill:#1f77b4;stroke:#1f77b4;" x="126.137592" xlink:href="#m361dbb5862" y="63.326414"/>
     <use style="fill:#1f77b4;stroke:#1f77b4;" x="126.138503" xlink:href="#m361dbb5862" y="47.375116"/>
     <use style="fill:#1f77b4;stroke:#1f77b4;" x="72.292147" xlink:href="#m361dbb5862" y="85.636825"/>
     <use style="fill:#1f77b4;stroke:#1f77b4;" x="86.306487" xlink:href="#m361dbb5862" y="126.934752"/>
     <use style="fill:#1f77b4;stroke:#1f77b4;" x="88.315845" xlink:href="#m361dbb5862" y="86.108342"/>
     <use style="fill:#1f77b4;stroke:#1f77b4;" x="90.334852" xlink:href="#m361dbb5862" y="48.992255"/>
     <use style="fill:#1f77b4;stroke:#1f77b4;" x="92.349676" xlink:href="#m361dbb5862" y="53.647906"/>
     <use style="fill:#1f77b4;stroke:#1f77b4;" x="94.37672" xlink:href="#m361dbb5862" y="57.226934"/>
     <use style="fill:#1f77b4;stroke:#1f77b4;" x="118.629494" xlink:href="#m361dbb5862" y="65.342511"/>
     <use style="fill:#1f77b4;stroke:#1f77b4;" x="64.363636" xlink:href="#m361dbb5862" y="131.574828"/>
     <use style="fill:#1f77b4;stroke:#1f77b4;" x="66.676686" xlink:href="#m361dbb5862" y="100.937621"/>
     <use style="fill:#1f77b4;stroke:#1f77b4;" x="68.732466" xlink:href="#m361dbb5862" y="90.630404"/>
     <use style="fill:#1f77b4;stroke:#1f77b4;" x="82.820656" xlink:href="#m361dbb5862" y="88.498043"/>
     <use style="fill:#1f77b4;stroke:#1f77b4;" x="88.914916" xlink:href="#m361dbb5862" y="66.643574"/>
     <use style="fill:#1f77b4;stroke:#1f77b4;" x="97.216046" xlink:href="#m361dbb5862" y="79.762449"/>
     <use style="fill:#1f77b4;stroke:#1f77b4;" x="105.290157" xlink:href="#m361dbb5862" y="82.535593"/>
     <use style="fill:#1f77b4;stroke:#1f77b4;" x="125.460528" xlink:href="#m361dbb5862" y="80.166598"/>
     <use style="fill:#1f77b4;stroke:#1f77b4;" x="68.741601" xlink:href="#m361dbb5862" y="145.152"/>
     <use style="fill:#1f77b4;stroke:#1f77b4;" x="75.626786" xlink:href="#m361dbb5862" y="66.292427"/>
     <use style="fill:#1f77b4;stroke:#1f77b4;" x="117.9132" xlink:href="#m361dbb5862" y="68.884775"/>
     <use style="fill:#1f77b4;stroke:#1f77b4;" x="117.914111" xlink:href="#m361dbb5862" y="81.783133"/>
     <use style="fill:#1f77b4;stroke:#1f77b4;" x="119.880201" xlink:href="#m361dbb5862" y="75.893786"/>
     <use style="fill:#1f77b4;stroke:#1f77b4;" x="119.881112" xlink:href="#m361dbb5862" y="69.982044"/>
     <use style="fill:#1f77b4;stroke:#1f77b4;" x="121.811691" xlink:href="#m361dbb5862" y="83.879818"/>
     <use style="fill:#1f77b4;stroke:#1f77b4;" x="121.812602" xlink:href="#m361dbb5862" y="72.859319"/>
    </g>
   </g>
   <g id="PathCollection_2">
    <g clip-path="url(#pfb47341f2f)">
     <use style="fill:#1f77b4;stroke:#1f77b4;" x="139.109666" xlink:href="#m361dbb5862" y="98.57267"/>
     <use style="fill:#1f77b4;stroke:#1f77b4;" x="139.110601" xlink:href="#m361dbb5862" y="102.759702"/>
     <use style="fill:#1f77b4;stroke:#1f77b4;" x="189.425078" xlink:href="#m361dbb5862" y="79.229359"/>
     <use style="fill:#1f77b4;stroke:#1f77b4;" x="189.426012" xlink:href="#m361dbb5862" y="71.739051"/>
     <use style="fill:#1f77b4;stroke:#1f77b4;" x="193.638779" xlink:href="#m361dbb5862" y="80.738865"/>
     <use style="fill:#1f77b4;stroke:#1f77b4;" x="199.629869" xlink:href="#m361dbb5862" y="105.272005"/>
     <use style="fill:#1f77b4;stroke:#1f77b4;" x="199.636364" xlink:href="#m361dbb5862" y="115.348384"/>
     <use style="fill:#1f77b4;stroke:#1f77b4;" x="180.02266" xlink:href="#m361dbb5862" y="50.102744"/>
     <use style="fill:#1f77b4;stroke:#1f77b4;" x="182.039073" xlink:href="#m361dbb5862" y="67.079355"/>
     <use style="fill:#1f77b4;stroke:#1f77b4;" x="182.039984" xlink:href="#m361dbb5862" y="95.348775"/>
     <use style="fill:#1f77b4;stroke:#1f77b4;" x="186.118368" xlink:href="#m361dbb5862" y="58.487734"/>
     <use style="fill:#1f77b4;stroke:#1f77b4;" x="186.119303" xlink:href="#m361dbb5862" y="46.409143"/>
     <use style="fill:#1f77b4;stroke:#1f77b4;" x="190.091433" xlink:href="#m361dbb5862" y="54.016319"/>
     <use style="fill:#1f77b4;stroke:#1f77b4;" x="190.092368" xlink:href="#m361dbb5862" y="66.436339"/>
     <use style="fill:#1f77b4;stroke:#1f77b4;" x="192.090161" xlink:href="#m361dbb5862" y="90.02077"/>
     <use style="fill:#1f77b4;stroke:#1f77b4;" x="192.091095" xlink:href="#m361dbb5862" y="87.856113"/>
     <use style="fill:#1f77b4;stroke:#1f77b4;" x="194.216519" xlink:href="#m361dbb5862" y="58.062879"/>
     <use style="fill:#1f77b4;stroke:#1f77b4;" x="194.21743" xlink:href="#m361dbb5862" y="66.962487"/>
     <use style="fill:#1f77b4;stroke:#1f77b4;" x="196.148033" xlink:href="#m361dbb5862" y="52.262753"/>
     <use style="fill:#1f77b4;stroke:#1f77b4;" x="196.148967" xlink:href="#m361dbb5862" y="55.335251"/>
     <use style="fill:#1f77b4;stroke:#1f77b4;" x="198.164656" xlink:href="#m361dbb5862" y="63.326414"/>
     <use style="fill:#1f77b4;stroke:#1f77b4;" x="198.165567" xlink:href="#m361dbb5862" y="47.375116"/>
     <use style="fill:#1f77b4;stroke:#1f77b4;" x="144.319211" xlink:href="#m361dbb5862" y="85.636825"/>
     <use style="fill:#1f77b4;stroke:#1f77b4;" x="158.333552" xlink:href="#m361dbb5862" y="126.934752"/>
     <use style="fill:#1f77b4;stroke:#1f77b4;" x="160.342909" xlink:href="#m361dbb5862" y="86.108342"/>
     <use style="fill:#1f77b4;stroke:#1f77b4;" x="162.361916" xlink:href="#m361dbb5862" y="48.992255"/>
     <use style="fill:#1f77b4;stroke:#1f77b4;" x="164.376741" xlink:href="#m361dbb5862" y="53.647906"/>
     <use style="fill:#1f77b4;stroke:#1f77b4;" x="166.403784" xlink:href="#m361dbb5862" y="57.226934"/>
     <use style="fill:#1f77b4;stroke:#1f77b4;" x="190.656558" xlink:href="#m361dbb5862" y="65.342511"/>
     <use style="fill:#1f77b4;stroke:#1f77b4;" x="136.390701" xlink:href="#m361dbb5862" y="131.574828"/>
     <use style="fill:#1f77b4;stroke:#1f77b4;" x="138.703751" xlink:href="#m361dbb5862" y="100.937621"/>
     <use style="fill:#1f77b4;stroke:#1f77b4;" x="140.75953" xlink:href="#m361dbb5862" y="90.630404"/>
     <use style="fill:#1f77b4;stroke:#1f77b4;" x="154.84772" xlink:href="#m361dbb5862" y="88.498043"/>
     <use style="fill:#1f77b4;stroke:#1f77b4;" x="160.94198" xlink:href="#m361dbb5862" y="66.643574"/>
     <use style="fill:#1f77b4;stroke:#1f77b4;" x="169.243111" xlink:href="#m361dbb5862" y="79.762449"/>
     <use style="fill:#1f77b4;stroke:#1f77b4;" x="177.317221" xlink:href="#m361dbb5862" y="82.535593"/>
     <use style="fill:#1f77b4;stroke:#1f77b4;" x="197.487593" xlink:href="#m361dbb5862" y="80.166598"/>
     <use style="fill:#1f77b4;stroke:#1f77b4;" x="140.768665" xlink:href="#m361dbb5862" y="145.152"/>
     <use style="fill:#1f77b4;stroke:#1f77b4;" x="147.653851" xlink:href="#m361dbb5862" y="66.292427"/>
     <use style="fill:#1f77b4;stroke:#1f77b4;" x="189.940265" xlink:href="#m361dbb5862" y="68.884775"/>
     <use style="fill:#1f77b4;stroke:#1f77b4;" x="189.941176" xlink:href="#m361dbb5862" y="81.783133"/>
     <use style="fill:#1f77b4;stroke:#1f77b4;" x="191.907266" xlink:href="#m361dbb5862" y="75.893786"/>
     <use style="fill:#1f77b4;stroke:#1f77b4;" x="191.908177" xlink:href="#m361dbb5862" y="69.982044"/>
     <use style="fill:#1f77b4;stroke:#1f77b4;" x="193.838756" xlink:href="#m361dbb5862" y="83.879818"/>
     <use style="fill:#1f77b4;stroke:#1f77b4;" x="193.839667" xlink:href="#m361dbb5862" y="72.859319"/>
    </g>
   </g>
   <g id="matplotlib.axis_3">
    <g id="xtick_23">
     <g id="line2d_31">
      <g>
       <use style="stroke:#000000;stroke-width:0.8;" x="64.116013" xlink:href="#maac71eb2a0" y="150.089143"/>
      </g>
     </g>
     <g id="text_13">
      <!-- 0 -->
      <g transform="translate(60.934763 164.68758)scale(0.1 -0.1)">
       <use xlink:href="#DejaVuSerif-48"/>
      </g>
     </g>
    </g>
    <g id="xtick_24">
     <g id="line2d_32">
      <g>
       <use style="stroke:#000000;stroke-width:0.8;" x="136.143078" xlink:href="#maac71eb2a0" y="150.089143"/>
      </g>
     </g>
     <g id="text_14">
      <!-- 1 -->
      <g transform="translate(132.961828 164.68758)scale(0.1 -0.1)">
       <use xlink:href="#DejaVuSerif-49"/>
      </g>
     </g>
    </g>
    <g id="text_15">
     <!-- Phase (P = 35.683 d) -->
     <g transform="translate(78.401562 178.365705)scale(0.1 -0.1)">
      <defs>
       <path d="M 4.109375 0 
L 4.109375 5.171875 
L 12.203125 5.171875 
L 12.203125 70.796875 
L 3.609375 70.796875 
L 3.609375 75.984375 
L 21.1875 75.984375 
L 21.1875 42.671875 
Q 23.6875 47.953125 27.65625 50.640625 
Q 31.640625 53.328125 36.921875 53.328125 
Q 45.515625 53.328125 49.5625 48.390625 
Q 53.609375 43.453125 53.609375 33.015625 
L 53.609375 5.171875 
L 61.625 5.171875 
L 61.625 0 
L 36.8125 0 
L 36.8125 5.171875 
L 44.578125 5.171875 
L 44.578125 30.171875 
Q 44.578125 39.703125 42.25 43.1875 
Q 39.9375 46.6875 33.984375 46.6875 
Q 27.734375 46.6875 24.453125 42.140625 
Q 21.1875 37.59375 21.1875 28.90625 
L 21.1875 5.171875 
L 29 5.171875 
L 29 0 
z
" id="DejaVuSerif-104"/>
       <path d="M 5.609375 2.875 
L 5.609375 14.984375 
L 10.796875 14.984375 
Q 10.984375 9.1875 14.421875 6.296875 
Q 17.875 3.421875 24.609375 3.421875 
Q 30.671875 3.421875 33.84375 5.6875 
Q 37.015625 7.953125 37.015625 12.3125 
Q 37.015625 15.71875 34.6875 17.8125 
Q 32.375 19.921875 24.90625 22.3125 
L 18.40625 24.515625 
Q 11.71875 26.65625 8.71875 29.875 
Q 5.71875 33.109375 5.71875 38.09375 
Q 5.71875 45.21875 10.9375 49.265625 
Q 16.15625 53.328125 25.390625 53.328125 
Q 29.5 53.328125 34.03125 52.25 
Q 38.578125 51.171875 43.40625 49.125 
L 43.40625 37.796875 
L 38.234375 37.796875 
Q 38.03125 42.828125 34.703125 45.65625 
Q 31.390625 48.484375 25.6875 48.484375 
Q 20.015625 48.484375 17.109375 46.484375 
Q 14.203125 44.484375 14.203125 40.484375 
Q 14.203125 37.203125 16.40625 35.21875 
Q 18.609375 33.25 25.203125 31.203125 
L 32.328125 29 
Q 39.703125 26.703125 42.9375 23.265625 
Q 46.1875 19.828125 46.1875 14.40625 
Q 46.1875 7.03125 40.546875 2.796875 
Q 34.90625 -1.421875 25 -1.421875 
Q 19.96875 -1.421875 15.1875 -0.34375 
Q 10.40625 0.734375 5.609375 2.875 
z
" id="DejaVuSerif-115"/>
       <path d="M 31.890625 -15.578125 
Q 20.015625 -10.25 13.953125 1.296875 
Q 7.90625 12.84375 7.90625 30.171875 
Q 7.90625 47.5625 13.953125 59.109375 
Q 20.015625 70.65625 31.890625 75.984375 
L 31.890625 71.1875 
Q 24.359375 66.015625 21.09375 56.609375 
Q 17.828125 47.21875 17.828125 30.171875 
Q 17.828125 13.1875 21.09375 3.78125 
Q 24.359375 -5.609375 31.890625 -10.796875 
z
" id="DejaVuSerif-40"/>
       <path d="M 10.59375 45.21875 
L 73.1875 45.21875 
L 73.1875 37.40625 
L 10.59375 37.40625 
z
M 10.59375 25.296875 
L 73.1875 25.296875 
L 73.1875 17.484375 
L 10.59375 17.484375 
z
" id="DejaVuSerif-61"/>
       <path d="M 9.71875 69.828125 
Q 15.4375 71.96875 20.671875 73.09375 
Q 25.921875 74.21875 30.515625 74.21875 
Q 41.21875 74.21875 47.21875 69.59375 
Q 53.21875 64.984375 53.21875 56.78125 
Q 53.21875 50.203125 49.0625 45.78125 
Q 44.921875 41.359375 37.3125 39.796875 
Q 46.296875 38.53125 51.25 33.28125 
Q 56.203125 28.03125 56.203125 19.671875 
Q 56.203125 9.46875 49.34375 4.015625 
Q 42.484375 -1.421875 29.59375 -1.421875 
Q 23.875 -1.421875 18.421875 -0.1875 
Q 12.984375 1.03125 7.625 3.515625 
L 7.625 17.671875 
L 13.09375 17.671875 
Q 13.578125 10.640625 17.828125 7.03125 
Q 22.078125 3.421875 29.78125 3.421875 
Q 37.25 3.421875 41.578125 7.734375 
Q 45.90625 12.0625 45.90625 19.578125 
Q 45.90625 28.171875 41.453125 32.59375 
Q 37.015625 37.015625 28.421875 37.015625 
L 23.78125 37.015625 
L 23.78125 42 
L 26.21875 42 
Q 34.765625 42 39.03125 45.53125 
Q 43.3125 49.078125 43.3125 56.203125 
Q 43.3125 62.59375 39.796875 65.984375 
Q 36.28125 69.390625 29.6875 69.390625 
Q 23.09375 69.390625 19.453125 66.265625 
Q 15.828125 63.140625 15.1875 56.984375 
L 9.71875 56.984375 
z
" id="DejaVuSerif-51"/>
       <path d="M 32.71875 3.421875 
Q 39.59375 3.421875 43.296875 8.46875 
Q 47.015625 13.53125 47.015625 23 
Q 47.015625 32.46875 43.296875 37.515625 
Q 39.59375 42.578125 32.71875 42.578125 
Q 25.734375 42.578125 22.0625 37.6875 
Q 18.40625 32.8125 18.40625 23.578125 
Q 18.40625 13.875 22.109375 8.640625 
Q 25.828125 3.421875 32.71875 3.421875 
z
M 16.796875 40.140625 
Q 20.125 43.796875 24.3125 45.59375 
Q 28.515625 47.40625 33.796875 47.40625 
Q 44.671875 47.40625 51 40.859375 
Q 57.328125 34.328125 57.328125 23 
Q 57.328125 11.921875 50.515625 5.25 
Q 43.703125 -1.421875 32.328125 -1.421875 
Q 19.96875 -1.421875 13.328125 7.78125 
Q 6.6875 17 6.6875 34.078125 
Q 6.6875 53.21875 14.546875 63.71875 
Q 22.40625 74.21875 36.71875 74.21875 
Q 40.578125 74.21875 44.828125 73.484375 
Q 49.078125 72.75 53.515625 71.296875 
L 53.515625 59.28125 
L 48 59.28125 
Q 47.40625 64.203125 44.234375 66.796875 
Q 41.0625 69.390625 35.6875 69.390625 
Q 26.21875 69.390625 21.578125 62.203125 
Q 16.9375 55.03125 16.796875 40.140625 
z
" id="DejaVuSerif-54"/>
       <path d="M 46.578125 19.921875 
Q 46.578125 27.734375 42.6875 32.046875 
Q 38.8125 36.375 31.78125 36.375 
Q 24.75 36.375 20.875 32.046875 
Q 17 27.734375 17 19.921875 
Q 17 12.0625 20.875 7.734375 
Q 24.75 3.421875 31.78125 3.421875 
Q 38.8125 3.421875 42.6875 7.734375 
Q 46.578125 12.0625 46.578125 19.921875 
z
M 44.578125 55.328125 
Q 44.578125 61.96875 41.203125 65.671875 
Q 37.84375 69.390625 31.78125 69.390625 
Q 25.78125 69.390625 22.390625 65.671875 
Q 19 61.96875 19 55.328125 
Q 19 48.640625 22.390625 44.921875 
Q 25.78125 41.21875 31.78125 41.21875 
Q 37.84375 41.21875 41.203125 44.921875 
Q 44.578125 48.640625 44.578125 55.328125 
z
M 39.3125 38.8125 
Q 47.609375 37.703125 52.25 32.6875 
Q 56.890625 27.6875 56.890625 19.921875 
Q 56.890625 9.671875 50.390625 4.125 
Q 43.890625 -1.421875 31.78125 -1.421875 
Q 19.734375 -1.421875 13.203125 4.125 
Q 6.6875 9.671875 6.6875 19.921875 
Q 6.6875 27.6875 11.328125 32.6875 
Q 15.96875 37.703125 24.3125 38.8125 
Q 16.9375 40.140625 13 44.40625 
Q 9.078125 48.6875 9.078125 55.328125 
Q 9.078125 64.109375 15.125 69.15625 
Q 21.1875 74.21875 31.78125 74.21875 
Q 42.390625 74.21875 48.4375 69.15625 
Q 54.5 64.109375 54.5 55.328125 
Q 54.5 48.6875 50.5625 44.40625 
Q 46.625 40.140625 39.3125 38.8125 
z
" id="DejaVuSerif-56"/>
       <path d="M 7.078125 -15.578125 
L 7.078125 -10.796875 
Q 14.59375 -5.609375 17.890625 3.78125 
Q 21.1875 13.1875 21.1875 30.171875 
Q 21.1875 47.21875 17.890625 56.609375 
Q 14.59375 66.015625 7.078125 71.1875 
L 7.078125 75.984375 
Q 19 70.65625 25.046875 59.109375 
Q 31.109375 47.5625 31.109375 30.171875 
Q 31.109375 12.84375 25.046875 1.296875 
Q 19 -10.25 7.078125 -15.578125 
z
" id="DejaVuSerif-41"/>
      </defs>
      <use xlink:href="#DejaVuSerif-80"/>
      <use x="67.285156" xlink:href="#DejaVuSerif-104"/>
      <use x="131.689453" xlink:href="#DejaVuSerif-97"/>
      <use x="191.308594" xlink:href="#DejaVuSerif-115"/>
      <use x="242.626953" xlink:href="#DejaVuSerif-101"/>
      <use x="301.806641" xlink:href="#DejaVuSerif-32"/>
      <use x="333.59375" xlink:href="#DejaVuSerif-40"/>
      <use x="372.607422" xlink:href="#DejaVuSerif-80"/>
      <use x="439.892578" xlink:href="#DejaVuSerif-32"/>
      <use x="471.679688" xlink:href="#DejaVuSerif-61"/>
      <use x="555.46875" xlink:href="#DejaVuSerif-32"/>
      <use x="587.255859" xlink:href="#DejaVuSerif-51"/>
      <use x="650.878906" xlink:href="#DejaVuSerif-53"/>
      <use x="714.501953" xlink:href="#DejaVuSerif-46"/>
      <use x="746.289062" xlink:href="#DejaVuSerif-54"/>
      <use x="809.912109" xlink:href="#DejaVuSerif-56"/>
      <use x="873.535156" xlink:href="#DejaVuSerif-51"/>
      <use x="937.158203" xlink:href="#DejaVuSerif-32"/>
      <use x="968.945312" xlink:href="#DejaVuSerif-100"/>
      <use x="1032.958984" xlink:href="#DejaVuSerif-41"/>
     </g>
    </g>
   </g>
   <g id="matplotlib.axis_4">
    <g id="ytick_4">
     <g id="line2d_33">
      <g>
       <use style="stroke:#000000;stroke-width:0.8;" x="57.6" xlink:href="#me5a6b0cac6" y="70.746999"/>
      </g>
     </g>
     <g id="text_16">
      <!-- 13.80 -->
      <g transform="translate(21.971875 74.546218)scale(0.1 -0.1)">
       <use xlink:href="#DejaVuSerif-49"/>
       <use x="63.623047" xlink:href="#DejaVuSerif-51"/>
       <use x="127.246094" xlink:href="#DejaVuSerif-46"/>
       <use x="159.033203" xlink:href="#DejaVuSerif-56"/>
       <use x="222.65625" xlink:href="#DejaVuSerif-48"/>
      </g>
     </g>
    </g>
    <g id="ytick_5">
     <g id="line2d_34">
      <g>
       <use style="stroke:#000000;stroke-width:0.8;" x="57.6" xlink:href="#me5a6b0cac6" y="100.929894"/>
      </g>
     </g>
     <g id="text_17">
      <!-- 13.85 -->
      <g transform="translate(21.971875 104.729113)scale(0.1 -0.1)">
       <use xlink:href="#DejaVuSerif-49"/>
       <use x="63.623047" xlink:href="#DejaVuSerif-51"/>
       <use x="127.246094" xlink:href="#DejaVuSerif-46"/>
       <use x="159.033203" xlink:href="#DejaVuSerif-56"/>
       <use x="222.65625" xlink:href="#DejaVuSerif-53"/>
      </g>
     </g>
    </g>
    <g id="ytick_6">
     <g id="line2d_35">
      <g>
       <use style="stroke:#000000;stroke-width:0.8;" x="57.6" xlink:href="#me5a6b0cac6" y="131.112789"/>
      </g>
     </g>
     <g id="text_18">
      <!-- 13.90 -->
      <g transform="translate(21.971875 134.912007)scale(0.1 -0.1)">
       <use xlink:href="#DejaVuSerif-49"/>
       <use x="63.623047" xlink:href="#DejaVuSerif-51"/>
       <use x="127.246094" xlink:href="#DejaVuSerif-46"/>
       <use x="159.033203" xlink:href="#DejaVuSerif-57"/>
       <use x="222.65625" xlink:href="#DejaVuSerif-48"/>
      </g>
     </g>
    </g>
    <g id="text_19">
     <!-- Mag -->
     <g transform="translate(15.75 107.082134)rotate(-90)scale(0.1 -0.1)">
      <defs>
       <path d="M 5.515625 0 
L 5.515625 5.171875 
L 14.796875 5.171875 
L 14.796875 67.671875 
L 4.984375 67.671875 
L 4.984375 72.90625 
L 26.21875 72.90625 
L 51.8125 21 
L 77.390625 72.90625 
L 97.3125 72.90625 
L 97.3125 67.671875 
L 87.59375 67.671875 
L 87.59375 5.171875 
L 96.921875 5.171875 
L 96.921875 0 
L 68.40625 0 
L 68.40625 5.171875 
L 77.6875 5.171875 
L 77.6875 61.53125 
L 52.6875 10.6875 
L 45.796875 10.6875 
L 20.796875 61.53125 
L 20.796875 5.171875 
L 30.078125 5.171875 
L 30.078125 0 
z
" id="DejaVuSerif-77"/>
      </defs>
      <use xlink:href="#DejaVuSerif-77"/>
      <use x="102.392578" xlink:href="#DejaVuSerif-97"/>
      <use x="162.011719" xlink:href="#DejaVuSerif-103"/>
     </g>
    </g>
   </g>
   <g id="patch_9">
    <path d="M 57.6 150.089143 
L 57.6 41.472 
" style="fill:none;stroke:#000000;stroke-linecap:square;stroke-linejoin:miter;stroke-width:0.8;"/>
   </g>
   <g id="patch_10">
    <path d="M 206.4 150.089143 
L 206.4 41.472 
" style="fill:none;stroke:#000000;stroke-linecap:square;stroke-linejoin:miter;stroke-width:0.8;"/>
   </g>
   <g id="patch_11">
    <path d="M 57.6 150.089143 
L 206.4 150.089143 
" style="fill:none;stroke:#000000;stroke-linecap:square;stroke-linejoin:miter;stroke-width:0.8;"/>
   </g>
   <g id="patch_12">
    <path d="M 57.6 41.472 
L 206.4 41.472 
" style="fill:none;stroke:#000000;stroke-linecap:square;stroke-linejoin:miter;stroke-width:0.8;"/>
   </g>
   <g id="text_20">
    <!-- Folded Light Curve -->
    <g transform="translate(83.086719 35.472)scale(0.1 -0.1)">
     <defs>
      <path d="M 20.515625 5.171875 
L 29 5.171875 
L 29 0 
L 2.875 0 
L 2.875 5.171875 
L 11.53125 5.171875 
L 11.53125 70.796875 
L 2.875 70.796875 
L 2.875 75.984375 
L 20.515625 75.984375 
z
" id="DejaVuSerif-108"/>
      <path d="M 5.515625 0 
L 5.515625 5.171875 
L 14.796875 5.171875 
L 14.796875 67.671875 
L 5.515625 67.671875 
L 5.515625 72.90625 
L 33.984375 72.90625 
L 33.984375 67.671875 
L 24.703125 67.671875 
L 24.703125 6 
L 58.015625 6 
L 58.015625 18.21875 
L 64.015625 18.21875 
L 64.015625 0 
z
" id="DejaVuSerif-76"/>
      <path d="M 10.796875 46.6875 
L 2.875 46.6875 
L 2.875 51.90625 
L 10.796875 51.90625 
L 10.796875 68.015625 
L 19.828125 68.015625 
L 19.828125 51.90625 
L 36.71875 51.90625 
L 36.71875 46.6875 
L 19.828125 46.6875 
L 19.828125 13.71875 
Q 19.828125 7.125 21.09375 5.265625 
Q 22.359375 3.421875 25.78125 3.421875 
Q 29.296875 3.421875 30.90625 5.484375 
Q 32.515625 7.5625 32.625 12.203125 
L 39.40625 12.203125 
Q 39.015625 5.125 35.546875 1.84375 
Q 32.078125 -1.421875 25 -1.421875 
Q 17.234375 -1.421875 14.015625 2.015625 
Q 10.796875 5.46875 10.796875 13.71875 
z
" id="DejaVuSerif-116"/>
      <path d="M 70.515625 19.28125 
Q 67.28125 9.078125 59.6875 3.828125 
Q 52.09375 -1.421875 40.484375 -1.421875 
Q 33.34375 -1.421875 27.234375 1.015625 
Q 21.140625 3.46875 16.40625 8.203125 
Q 10.9375 13.671875 8.265625 20.625 
Q 5.609375 27.59375 5.609375 36.375 
Q 5.609375 53.375 15.421875 63.796875 
Q 25.25 74.21875 41.3125 74.21875 
Q 47.265625 74.21875 54 72.65625 
Q 60.75 71.09375 68.5 67.921875 
L 68.5 51.125 
L 62.984375 51.125 
Q 61.1875 60.296875 55.734375 64.640625 
Q 50.296875 69 40.484375 69 
Q 28.8125 69 22.796875 60.71875 
Q 16.796875 52.4375 16.796875 36.375 
Q 16.796875 20.359375 22.796875 12.078125 
Q 28.8125 3.8125 40.484375 3.8125 
Q 48.640625 3.8125 53.90625 7.6875 
Q 59.1875 11.578125 61.53125 19.28125 
z
" id="DejaVuSerif-67"/>
      <path d="M 35.40625 51.90625 
L 52.203125 51.90625 
L 52.203125 5.171875 
L 60.6875 5.171875 
L 60.6875 0 
L 43.21875 0 
L 43.21875 9.1875 
Q 40.71875 4 36.765625 1.28125 
Q 32.8125 -1.421875 27.59375 -1.421875 
Q 18.953125 -1.421875 14.875 3.484375 
Q 10.796875 8.40625 10.796875 18.890625 
L 10.796875 46.6875 
L 2.6875 46.6875 
L 2.6875 51.90625 
L 19.828125 51.90625 
L 19.828125 21.6875 
Q 19.828125 12.203125 22.140625 8.6875 
Q 24.46875 5.171875 30.421875 5.171875 
Q 36.671875 5.171875 39.9375 9.765625 
Q 43.21875 14.359375 43.21875 23.09375 
L 43.21875 46.6875 
L 35.40625 46.6875 
z
" id="DejaVuSerif-117"/>
      <path d="M 24.703125 0 
L 5.609375 46.6875 
L -0.296875 46.6875 
L -0.296875 51.90625 
L 23.578125 51.90625 
L 23.578125 46.6875 
L 15.28125 46.6875 
L 29.890625 10.984375 
L 44.484375 46.6875 
L 36.71875 46.6875 
L 36.71875 51.90625 
L 56.203125 51.90625 
L 56.203125 46.6875 
L 50.390625 46.6875 
L 31.296875 0 
z
" id="DejaVuSerif-118"/>
     </defs>
     <use xlink:href="#DejaVuSerif-70"/>
     <use x="63.884766" xlink:href="#DejaVuSerif-111"/>
     <use x="124.089844" xlink:href="#DejaVuSerif-108"/>
     <use x="156.072266" xlink:href="#DejaVuSerif-100"/>
     <use x="220.085938" xlink:href="#DejaVuSerif-101"/>
     <use x="279.265625" xlink:href="#DejaVuSerif-100"/>
     <use x="343.279297" xlink:href="#DejaVuSerif-32"/>
     <use x="375.066406" xlink:href="#DejaVuSerif-76"/>
     <use x="441.472656" xlink:href="#DejaVuSerif-105"/>
     <use x="473.455078" xlink:href="#DejaVuSerif-103"/>
     <use x="537.46875" xlink:href="#DejaVuSerif-104"/>
     <use x="601.873047" xlink:href="#DejaVuSerif-116"/>
     <use x="642.058594" xlink:href="#DejaVuSerif-32"/>
     <use x="673.845703" xlink:href="#DejaVuSerif-67"/>
     <use x="750.359375" xlink:href="#DejaVuSerif-117"/>
     <use x="814.763672" xlink:href="#DejaVuSerif-114"/>
     <use x="862.566406" xlink:href="#DejaVuSerif-118"/>
     <use x="919.060547" xlink:href="#DejaVuSerif-101"/>
    </g>
   </g>
  </g>
  <g id="axes_3">
   <g id="patch_13">
    <path d="M 57.6 307.584 
L 414.72 307.584 
L 414.72 198.966857 
L 57.6 198.966857 
z
" style="fill:#ffffff;"/>
   </g>
   <g id="PathCollection_3">
    <g clip-path="url(#pbf3e8f5277)">
     <use style="fill:#1f77b4;stroke:#1f77b4;" x="73.832727" xlink:href="#m361dbb5862" y="255.694588"/>
     <use style="fill:#1f77b4;stroke:#1f77b4;" x="73.833119" xlink:href="#m361dbb5862" y="259.338673"/>
     <use style="fill:#1f77b4;stroke:#1f77b4;" x="94.910293" xlink:href="#m361dbb5862" y="238.859589"/>
     <use style="fill:#1f77b4;stroke:#1f77b4;" x="94.910684" xlink:href="#m361dbb5862" y="232.340575"/>
     <use style="fill:#1f77b4;stroke:#1f77b4;" x="96.675449" xlink:href="#m361dbb5862" y="240.173353"/>
     <use style="fill:#1f77b4;stroke:#1f77b4;" x="99.185169" xlink:href="#m361dbb5862" y="261.525198"/>
     <use style="fill:#1f77b4;stroke:#1f77b4;" x="99.18789" xlink:href="#m361dbb5862" y="270.294938"/>
     <use style="fill:#1f77b4;stroke:#1f77b4;" x="121.144305" xlink:href="#m361dbb5862" y="213.509921"/>
     <use style="fill:#1f77b4;stroke:#1f77b4;" x="121.988998" xlink:href="#m361dbb5862" y="228.285118"/>
     <use style="fill:#1f77b4;stroke:#1f77b4;" x="121.98938" xlink:href="#m361dbb5862" y="252.888746"/>
     <use style="fill:#1f77b4;stroke:#1f77b4;" x="123.69785" xlink:href="#m361dbb5862" y="220.807601"/>
     <use style="fill:#1f77b4;stroke:#1f77b4;" x="123.698242" xlink:href="#m361dbb5862" y="210.295282"/>
     <use style="fill:#1f77b4;stroke:#1f77b4;" x="125.362202" xlink:href="#m361dbb5862" y="216.916009"/>
     <use style="fill:#1f77b4;stroke:#1f77b4;" x="125.362594" xlink:href="#m361dbb5862" y="227.725483"/>
     <use style="fill:#1f77b4;stroke:#1f77b4;" x="126.199487" xlink:href="#m361dbb5862" y="248.251641"/>
     <use style="fill:#1f77b4;stroke:#1f77b4;" x="126.199878" xlink:href="#m361dbb5862" y="246.367683"/>
     <use style="fill:#1f77b4;stroke:#1f77b4;" x="127.090237" xlink:href="#m361dbb5862" y="220.437839"/>
     <use style="fill:#1f77b4;stroke:#1f77b4;" x="127.090618" xlink:href="#m361dbb5862" y="228.183404"/>
     <use style="fill:#1f77b4;stroke:#1f77b4;" x="127.899364" xlink:href="#m361dbb5862" y="215.389834"/>
     <use style="fill:#1f77b4;stroke:#1f77b4;" x="127.899756" xlink:href="#m361dbb5862" y="218.063911"/>
     <use style="fill:#1f77b4;stroke:#1f77b4;" x="128.744146" xlink:href="#m361dbb5862" y="225.018833"/>
     <use style="fill:#1f77b4;stroke:#1f77b4;" x="128.744527" xlink:href="#m361dbb5862" y="211.135994"/>
     <use style="fill:#1f77b4;stroke:#1f77b4;" x="136.360585" xlink:href="#m361dbb5862" y="244.436178"/>
     <use style="fill:#1f77b4;stroke:#1f77b4;" x="142.231315" xlink:href="#m361dbb5862" y="280.378863"/>
     <use style="fill:#1f77b4;stroke:#1f77b4;" x="143.073052" xlink:href="#m361dbb5862" y="244.846552"/>
     <use style="fill:#1f77b4;stroke:#1f77b4;" x="143.918832" xlink:href="#m361dbb5862" y="212.543433"/>
     <use style="fill:#1f77b4;stroke:#1f77b4;" x="144.76286" xlink:href="#m361dbb5862" y="216.59537"/>
     <use style="fill:#1f77b4;stroke:#1f77b4;" x="145.612006" xlink:href="#m361dbb5862" y="219.710293"/>
     <use style="fill:#1f77b4;stroke:#1f77b4;" x="155.771705" xlink:href="#m361dbb5862" y="226.773496"/>
     <use style="fill:#1f77b4;stroke:#1f77b4;" x="163.21203" xlink:href="#m361dbb5862" y="284.417245"/>
     <use style="fill:#1f77b4;stroke:#1f77b4;" x="164.180987" xlink:href="#m361dbb5862" y="257.752868"/>
     <use style="fill:#1f77b4;stroke:#1f77b4;" x="165.042171" xlink:href="#m361dbb5862" y="248.782222"/>
     <use style="fill:#1f77b4;stroke:#1f77b4;" x="170.943837" xlink:href="#m361dbb5862" y="246.926372"/>
     <use style="fill:#1f77b4;stroke:#1f77b4;" x="173.496775" xlink:href="#m361dbb5862" y="227.905846"/>
     <use style="fill:#1f77b4;stroke:#1f77b4;" x="207.146958" xlink:href="#m361dbb5862" y="239.323552"/>
     <use style="fill:#1f77b4;stroke:#1f77b4;" x="210.529274" xlink:href="#m361dbb5862" y="241.737093"/>
     <use style="fill:#1f77b4;stroke:#1f77b4;" x="218.978819" xlink:href="#m361dbb5862" y="239.675293"/>
     <use style="fill:#1f77b4;stroke:#1f77b4;" x="346.082599" xlink:href="#m361dbb5862" y="296.233819"/>
     <use style="fill:#1f77b4;stroke:#1f77b4;" x="379.139631" xlink:href="#m361dbb5862" y="227.600233"/>
     <use style="fill:#1f77b4;stroke:#1f77b4;" x="396.853779" xlink:href="#m361dbb5862" y="229.856423"/>
     <use style="fill:#1f77b4;stroke:#1f77b4;" x="396.854161" xlink:href="#m361dbb5862" y="241.082207"/>
     <use style="fill:#1f77b4;stroke:#1f77b4;" x="397.677773" xlink:href="#m361dbb5862" y="235.956552"/>
     <use style="fill:#1f77b4;stroke:#1f77b4;" x="397.678155" xlink:href="#m361dbb5862" y="230.811405"/>
     <use style="fill:#1f77b4;stroke:#1f77b4;" x="398.486891" xlink:href="#m361dbb5862" y="242.907008"/>
     <use style="fill:#1f77b4;stroke:#1f77b4;" x="398.487273" xlink:href="#m361dbb5862" y="233.315574"/>
    </g>
   </g>
   <g id="matplotlib.axis_5">
    <g id="xtick_25">
     <g id="line2d_36">
      <g>
       <use style="stroke:#000000;stroke-width:0.8;" x="97.996351" xlink:href="#maac71eb2a0" y="307.584"/>
      </g>
     </g>
     <g id="text_21">
      <!-- 58300 -->
      <g transform="translate(82.090101 322.182437)scale(0.1 -0.1)">
       <use xlink:href="#DejaVuSerif-53"/>
       <use x="63.623047" xlink:href="#DejaVuSerif-56"/>
       <use x="127.246094" xlink:href="#DejaVuSerif-51"/>
       <use x="190.869141" xlink:href="#DejaVuSerif-48"/>
       <use x="254.492188" xlink:href="#DejaVuSerif-48"/>
      </g>
     </g>
    </g>
    <g id="xtick_26">
     <g id="line2d_37">
      <g>
       <use style="stroke:#000000;stroke-width:0.8;" x="140.27554" xlink:href="#maac71eb2a0" y="307.584"/>
      </g>
     </g>
     <g id="text_22">
      <!-- 58350 -->
      <g transform="translate(124.36929 322.182437)scale(0.1 -0.1)">
       <use xlink:href="#DejaVuSerif-53"/>
       <use x="63.623047" xlink:href="#DejaVuSerif-56"/>
       <use x="127.246094" xlink:href="#DejaVuSerif-51"/>
       <use x="190.869141" xlink:href="#DejaVuSerif-53"/>
       <use x="254.492188" xlink:href="#DejaVuSerif-48"/>
      </g>
     </g>
    </g>
    <g id="xtick_27">
     <g id="line2d_38">
      <g>
       <use style="stroke:#000000;stroke-width:0.8;" x="182.55473" xlink:href="#maac71eb2a0" y="307.584"/>
      </g>
     </g>
     <g id="text_23">
      <!-- 58400 -->
      <g transform="translate(166.64848 322.182437)scale(0.1 -0.1)">
       <use xlink:href="#DejaVuSerif-53"/>
       <use x="63.623047" xlink:href="#DejaVuSerif-56"/>
       <use x="127.246094" xlink:href="#DejaVuSerif-52"/>
       <use x="190.869141" xlink:href="#DejaVuSerif-48"/>
       <use x="254.492188" xlink:href="#DejaVuSerif-48"/>
      </g>
     </g>
    </g>
    <g id="xtick_28">
     <g id="line2d_39">
      <g>
       <use style="stroke:#000000;stroke-width:0.8;" x="224.833919" xlink:href="#maac71eb2a0" y="307.584"/>
      </g>
     </g>
     <g id="text_24">
      <!-- 58450 -->
      <g transform="translate(208.927669 322.182437)scale(0.1 -0.1)">
       <use xlink:href="#DejaVuSerif-53"/>
       <use x="63.623047" xlink:href="#DejaVuSerif-56"/>
       <use x="127.246094" xlink:href="#DejaVuSerif-52"/>
       <use x="190.869141" xlink:href="#DejaVuSerif-53"/>
       <use x="254.492188" xlink:href="#DejaVuSerif-48"/>
      </g>
     </g>
    </g>
    <g id="xtick_29">
     <g id="line2d_40">
      <g>
       <use style="stroke:#000000;stroke-width:0.8;" x="267.113108" xlink:href="#maac71eb2a0" y="307.584"/>
      </g>
     </g>
     <g id="text_25">
      <!-- 58500 -->
      <g transform="translate(251.206858 322.182437)scale(0.1 -0.1)">
       <use xlink:href="#DejaVuSerif-53"/>
       <use x="63.623047" xlink:href="#DejaVuSerif-56"/>
       <use x="127.246094" xlink:href="#DejaVuSerif-53"/>
       <use x="190.869141" xlink:href="#DejaVuSerif-48"/>
       <use x="254.492188" xlink:href="#DejaVuSerif-48"/>
      </g>
     </g>
    </g>
    <g id="xtick_30">
     <g id="line2d_41">
      <g>
       <use style="stroke:#000000;stroke-width:0.8;" x="309.392298" xlink:href="#maac71eb2a0" y="307.584"/>
      </g>
     </g>
     <g id="text_26">
      <!-- 58550 -->
      <g transform="translate(293.486048 322.182437)scale(0.1 -0.1)">
       <use xlink:href="#DejaVuSerif-53"/>
       <use x="63.623047" xlink:href="#DejaVuSerif-56"/>
       <use x="127.246094" xlink:href="#DejaVuSerif-53"/>
       <use x="190.869141" xlink:href="#DejaVuSerif-53"/>
       <use x="254.492188" xlink:href="#DejaVuSerif-48"/>
      </g>
     </g>
    </g>
    <g id="xtick_31">
     <g id="line2d_42">
      <g>
       <use style="stroke:#000000;stroke-width:0.8;" x="351.671487" xlink:href="#maac71eb2a0" y="307.584"/>
      </g>
     </g>
     <g id="text_27">
      <!-- 58600 -->
      <g transform="translate(335.765237 322.182437)scale(0.1 -0.1)">
       <use xlink:href="#DejaVuSerif-53"/>
       <use x="63.623047" xlink:href="#DejaVuSerif-56"/>
       <use x="127.246094" xlink:href="#DejaVuSerif-54"/>
       <use x="190.869141" xlink:href="#DejaVuSerif-48"/>
       <use x="254.492188" xlink:href="#DejaVuSerif-48"/>
      </g>
     </g>
    </g>
    <g id="xtick_32">
     <g id="line2d_43">
      <g>
       <use style="stroke:#000000;stroke-width:0.8;" x="393.950677" xlink:href="#maac71eb2a0" y="307.584"/>
      </g>
     </g>
     <g id="text_28">
      <!-- 58650 -->
      <g transform="translate(378.044427 322.182437)scale(0.1 -0.1)">
       <use xlink:href="#DejaVuSerif-53"/>
       <use x="63.623047" xlink:href="#DejaVuSerif-56"/>
       <use x="127.246094" xlink:href="#DejaVuSerif-54"/>
       <use x="190.869141" xlink:href="#DejaVuSerif-53"/>
       <use x="254.492188" xlink:href="#DejaVuSerif-48"/>
      </g>
     </g>
    </g>
    <g id="text_29">
     <!-- MJD -->
     <g transform="translate(225.027187 335.860562)scale(0.1 -0.1)">
      <defs>
       <path d="M -8.40625 -17.484375 
L -8.40625 -6 
L -2.828125 -6 
Q -2.6875 -10.84375 -0.53125 -13.203125 
Q 1.609375 -15.578125 5.90625 -15.578125 
Q 11.71875 -15.578125 14.015625 -11.90625 
Q 16.3125 -8.25 16.3125 2.390625 
L 16.3125 67.671875 
L 4.984375 67.671875 
L 4.984375 72.90625 
L 35.5 72.90625 
L 35.5 67.671875 
L 26.21875 67.671875 
L 26.21875 2 
Q 26.21875 -10.0625 21.375 -15.421875 
Q 16.546875 -20.796875 5.8125 -20.796875 
Q 2.34375 -20.796875 -1.234375 -19.96875 
Q -4.828125 -19.140625 -8.40625 -17.484375 
z
" id="DejaVuSerif-74"/>
       <path d="M 24.703125 5.171875 
L 33.796875 5.171875 
Q 48 5.171875 55.59375 13.28125 
Q 63.1875 21.390625 63.1875 36.53125 
Q 63.1875 51.65625 55.609375 59.65625 
Q 48.046875 67.671875 33.796875 67.671875 
L 24.703125 67.671875 
z
M 5.515625 0 
L 5.515625 5.171875 
L 14.796875 5.171875 
L 14.796875 67.671875 
L 5.515625 67.671875 
L 5.515625 72.90625 
L 34.515625 72.90625 
Q 53.375 72.90625 63.890625 63.28125 
Q 74.421875 53.65625 74.421875 36.53125 
Q 74.421875 19.34375 63.875 9.671875 
Q 53.328125 0 34.515625 0 
z
" id="DejaVuSerif-68"/>
      </defs>
      <use xlink:href="#DejaVuSerif-77"/>
      <use x="102.392578" xlink:href="#DejaVuSerif-74"/>
      <use x="142.480469" xlink:href="#DejaVuSerif-68"/>
     </g>
    </g>
   </g>
   <g id="matplotlib.axis_6">
    <g id="ytick_7">
     <g id="line2d_44">
      <g>
       <use style="stroke:#000000;stroke-width:0.8;" x="57.6" xlink:href="#me5a6b0cac6" y="205.208189"/>
      </g>
     </g>
     <g id="text_30">
      <!-- 13.75 -->
      <g transform="translate(21.971875 209.007408)scale(0.1 -0.1)">
       <defs>
        <path d="M 56.390625 67.921875 
L 27.875 0 
L 20.609375 0 
L 47.796875 64.890625 
L 14.109375 64.890625 
L 14.109375 55.90625 
L 8.40625 55.90625 
L 8.40625 72.90625 
L 56.390625 72.90625 
z
" id="DejaVuSerif-55"/>
       </defs>
       <use xlink:href="#DejaVuSerif-49"/>
       <use x="63.623047" xlink:href="#DejaVuSerif-51"/>
       <use x="127.246094" xlink:href="#DejaVuSerif-46"/>
       <use x="159.033203" xlink:href="#DejaVuSerif-55"/>
       <use x="222.65625" xlink:href="#DejaVuSerif-53"/>
      </g>
     </g>
    </g>
    <g id="ytick_8">
     <g id="line2d_45">
      <g>
       <use style="stroke:#000000;stroke-width:0.8;" x="57.6" xlink:href="#me5a6b0cac6" y="231.477166"/>
      </g>
     </g>
     <g id="text_31">
      <!-- 13.80 -->
      <g transform="translate(21.971875 235.276385)scale(0.1 -0.1)">
       <use xlink:href="#DejaVuSerif-49"/>
       <use x="63.623047" xlink:href="#DejaVuSerif-51"/>
       <use x="127.246094" xlink:href="#DejaVuSerif-46"/>
       <use x="159.033203" xlink:href="#DejaVuSerif-56"/>
       <use x="222.65625" xlink:href="#DejaVuSerif-48"/>
      </g>
     </g>
    </g>
    <g id="ytick_9">
     <g id="line2d_46">
      <g>
       <use style="stroke:#000000;stroke-width:0.8;" x="57.6" xlink:href="#me5a6b0cac6" y="257.746143"/>
      </g>
     </g>
     <g id="text_32">
      <!-- 13.85 -->
      <g transform="translate(21.971875 261.545362)scale(0.1 -0.1)">
       <use xlink:href="#DejaVuSerif-49"/>
       <use x="63.623047" xlink:href="#DejaVuSerif-51"/>
       <use x="127.246094" xlink:href="#DejaVuSerif-46"/>
       <use x="159.033203" xlink:href="#DejaVuSerif-56"/>
       <use x="222.65625" xlink:href="#DejaVuSerif-53"/>
      </g>
     </g>
    </g>
    <g id="ytick_10">
     <g id="line2d_47">
      <g>
       <use style="stroke:#000000;stroke-width:0.8;" x="57.6" xlink:href="#me5a6b0cac6" y="284.01512"/>
      </g>
     </g>
     <g id="text_33">
      <!-- 13.90 -->
      <g transform="translate(21.971875 287.814338)scale(0.1 -0.1)">
       <use xlink:href="#DejaVuSerif-49"/>
       <use x="63.623047" xlink:href="#DejaVuSerif-51"/>
       <use x="127.246094" xlink:href="#DejaVuSerif-46"/>
       <use x="159.033203" xlink:href="#DejaVuSerif-57"/>
       <use x="222.65625" xlink:href="#DejaVuSerif-48"/>
      </g>
     </g>
    </g>
    <g id="text_34">
     <!-- Mag -->
     <g transform="translate(15.75 264.576991)rotate(-90)scale(0.1 -0.1)">
      <use xlink:href="#DejaVuSerif-77"/>
      <use x="102.392578" xlink:href="#DejaVuSerif-97"/>
      <use x="162.011719" xlink:href="#DejaVuSerif-103"/>
     </g>
    </g>
   </g>
   <g id="LineCollection_5">
    <path clip-path="url(#pbf3e8f5277)" d="M 73.832727 249.292324 
L 73.832727 262.096852 
" style="fill:none;stroke:#1f77b4;stroke-width:0.5;"/>
    <path clip-path="url(#pbf3e8f5277)" d="M 73.833119 252.93548 
L 73.833119 265.741867 
" style="fill:none;stroke:#1f77b4;stroke-width:0.5;"/>
    <path clip-path="url(#pbf3e8f5277)" d="M 94.910293 232.461527 
L 94.910293 245.257651 
" style="fill:none;stroke:#1f77b4;stroke-width:0.5;"/>
    <path clip-path="url(#pbf3e8f5277)" d="M 94.910684 225.944099 
L 94.910684 238.737051 
" style="fill:none;stroke:#1f77b4;stroke-width:0.5;"/>
    <path clip-path="url(#pbf3e8f5277)" d="M 96.675449 233.774969 
L 96.675449 246.571737 
" style="fill:none;stroke:#1f77b4;stroke-width:0.5;"/>
    <path clip-path="url(#pbf3e8f5277)" d="M 99.185169 255.121443 
L 99.185169 267.928953 
" style="fill:none;stroke:#1f77b4;stroke-width:0.5;"/>
    <path clip-path="url(#pbf3e8f5277)" d="M 99.18789 263.888903 
L 99.18789 276.700973 
" style="fill:none;stroke:#1f77b4;stroke-width:0.5;"/>
    <path clip-path="url(#pbf3e8f5277)" d="M 121.144305 207.117899 
L 121.144305 219.901944 
" style="fill:none;stroke:#1f77b4;stroke-width:0.5;"/>
    <path clip-path="url(#pbf3e8f5277)" d="M 121.988998 221.889616 
L 121.988998 234.680619 
" style="fill:none;stroke:#1f77b4;stroke-width:0.5;"/>
    <path clip-path="url(#pbf3e8f5277)" d="M 121.98938 246.487194 
L 121.98938 259.290299 
" style="fill:none;stroke:#1f77b4;stroke-width:0.5;"/>
    <path clip-path="url(#pbf3e8f5277)" d="M 123.69785 214.413874 
L 123.69785 227.201328 
" style="fill:none;stroke:#1f77b4;stroke-width:0.5;"/>
    <path clip-path="url(#pbf3e8f5277)" d="M 123.698242 203.904 
L 123.698242 216.686563 
" style="fill:none;stroke:#1f77b4;stroke-width:0.5;"/>
    <path clip-path="url(#pbf3e8f5277)" d="M 125.362202 210.523194 
L 125.362202 223.308824 
" style="fill:none;stroke:#1f77b4;stroke-width:0.5;"/>
    <path clip-path="url(#pbf3e8f5277)" d="M 125.362594 221.330116 
L 125.362594 234.120851 
" style="fill:none;stroke:#1f77b4;stroke-width:0.5;"/>
    <path clip-path="url(#pbf3e8f5277)" d="M 126.199487 241.851255 
L 126.199487 254.652028 
" style="fill:none;stroke:#1f77b4;stroke-width:0.5;"/>
    <path clip-path="url(#pbf3e8f5277)" d="M 126.199878 239.967767 
L 126.199878 252.767599 
" style="fill:none;stroke:#1f77b4;stroke-width:0.5;"/>
    <path clip-path="url(#pbf3e8f5277)" d="M 127.090237 214.044199 
L 127.090237 226.831479 
" style="fill:none;stroke:#1f77b4;stroke-width:0.5;"/>
    <path clip-path="url(#pbf3e8f5277)" d="M 127.090618 221.787927 
L 127.090618 234.578881 
" style="fill:none;stroke:#1f77b4;stroke-width:0.5;"/>
    <path clip-path="url(#pbf3e8f5277)" d="M 127.899364 208.997375 
L 127.899364 221.782294 
" style="fill:none;stroke:#1f77b4;stroke-width:0.5;"/>
    <path clip-path="url(#pbf3e8f5277)" d="M 127.899756 211.670828 
L 127.899756 224.456994 
" style="fill:none;stroke:#1f77b4;stroke-width:0.5;"/>
    <path clip-path="url(#pbf3e8f5277)" d="M 128.744146 218.62411 
L 128.744146 231.413556 
" style="fill:none;stroke:#1f77b4;stroke-width:0.5;"/>
    <path clip-path="url(#pbf3e8f5277)" d="M 128.744527 204.744519 
L 128.744527 217.527469 
" style="fill:none;stroke:#1f77b4;stroke-width:0.5;"/>
    <path clip-path="url(#pbf3e8f5277)" d="M 136.360585 238.036741 
L 136.360585 250.835614 
" style="fill:none;stroke:#1f77b4;stroke-width:0.5;"/>
    <path clip-path="url(#pbf3e8f5277)" d="M 142.231315 273.970152 
L 142.231315 286.787574 
" style="fill:none;stroke:#1f77b4;stroke-width:0.5;"/>
    <path clip-path="url(#pbf3e8f5277)" d="M 143.073052 238.447014 
L 143.073052 251.24609 
" style="fill:none;stroke:#1f77b4;stroke-width:0.5;"/>
    <path clip-path="url(#pbf3e8f5277)" d="M 143.918832 206.151634 
L 143.918832 218.935232 
" style="fill:none;stroke:#1f77b4;stroke-width:0.5;"/>
    <path clip-path="url(#pbf3e8f5277)" d="M 144.76286 210.20263 
L 144.76286 222.98811 
" style="fill:none;stroke:#1f77b4;stroke-width:0.5;"/>
    <path clip-path="url(#pbf3e8f5277)" d="M 145.612006 213.316824 
L 145.612006 226.103762 
" style="fill:none;stroke:#1f77b4;stroke-width:0.5;"/>
    <path clip-path="url(#pbf3e8f5277)" d="M 155.771705 220.378355 
L 155.771705 233.168636 
" style="fill:none;stroke:#1f77b4;stroke-width:0.5;"/>
    <path clip-path="url(#pbf3e8f5277)" d="M 163.21203 278.007447 
L 163.21203 290.827044 
" style="fill:none;stroke:#1f77b4;stroke-width:0.5;"/>
    <path clip-path="url(#pbf3e8f5277)" d="M 164.180987 251.35008 
L 164.180987 264.155656 
" style="fill:none;stroke:#1f77b4;stroke-width:0.5;"/>
    <path clip-path="url(#pbf3e8f5277)" d="M 165.042171 242.381703 
L 165.042171 255.182741 
" style="fill:none;stroke:#1f77b4;stroke-width:0.5;"/>
    <path clip-path="url(#pbf3e8f5277)" d="M 170.943837 240.526316 
L 170.943837 253.326427 
" style="fill:none;stroke:#1f77b4;stroke-width:0.5;"/>
    <path clip-path="url(#pbf3e8f5277)" d="M 173.496775 221.510436 
L 173.496775 234.301256 
" style="fill:none;stroke:#1f77b4;stroke-width:0.5;"/>
    <path clip-path="url(#pbf3e8f5277)" d="M 207.146958 232.925376 
L 207.146958 245.721727 
" style="fill:none;stroke:#1f77b4;stroke-width:0.5;"/>
    <path clip-path="url(#pbf3e8f5277)" d="M 210.529274 235.338324 
L 210.529274 248.135862 
" style="fill:none;stroke:#1f77b4;stroke-width:0.5;"/>
    <path clip-path="url(#pbf3e8f5277)" d="M 218.978819 233.277031 
L 218.978819 246.073556 
" style="fill:none;stroke:#1f77b4;stroke-width:0.5;"/>
    <path clip-path="url(#pbf3e8f5277)" d="M 346.082599 289.820781 
L 346.082599 302.646857 
" style="fill:none;stroke:#1f77b4;stroke-width:0.5;"/>
    <path clip-path="url(#pbf3e8f5277)" d="M 379.139631 221.204895 
L 379.139631 233.995571 
" style="fill:none;stroke:#1f77b4;stroke-width:0.5;"/>
    <path clip-path="url(#pbf3e8f5277)" d="M 396.853779 223.460545 
L 396.853779 236.252301 
" style="fill:none;stroke:#1f77b4;stroke-width:0.5;"/>
    <path clip-path="url(#pbf3e8f5277)" d="M 396.854161 234.6836 
L 396.854161 247.480814 
" style="fill:none;stroke:#1f77b4;stroke-width:0.5;"/>
    <path clip-path="url(#pbf3e8f5277)" d="M 397.677773 229.559199 
L 397.677773 242.353905 
" style="fill:none;stroke:#1f77b4;stroke-width:0.5;"/>
    <path clip-path="url(#pbf3e8f5277)" d="M 397.678155 224.415298 
L 397.678155 237.207513 
" style="fill:none;stroke:#1f77b4;stroke-width:0.5;"/>
    <path clip-path="url(#pbf3e8f5277)" d="M 398.486891 236.50795 
L 398.486891 249.306065 
" style="fill:none;stroke:#1f77b4;stroke-width:0.5;"/>
    <path clip-path="url(#pbf3e8f5277)" d="M 398.487273 226.918862 
L 398.487273 239.712286 
" style="fill:none;stroke:#1f77b4;stroke-width:0.5;"/>
   </g>
   <g id="line2d_48">
    <path clip-path="url(#pbf3e8f5277)" d="M 73.832727 255.694588 
L 73.833119 259.338673 
L 94.910293 238.859589 
L 94.910684 232.340575 
L 96.675449 240.173353 
L 99.185169 261.525198 
L 99.18789 270.294938 
L 121.144305 213.509921 
L 121.988998 228.285118 
L 121.98938 252.888746 
L 123.69785 220.807601 
L 123.698242 210.295282 
L 125.362202 216.916009 
L 125.362594 227.725483 
L 126.199487 248.251641 
L 126.199878 246.367683 
L 127.090237 220.437839 
L 127.090618 228.183404 
L 127.899364 215.389834 
L 127.899756 218.063911 
L 128.744146 225.018833 
L 128.744527 211.135994 
L 136.360585 244.436178 
L 142.231315 280.378863 
L 143.073052 244.846552 
L 143.918832 212.543433 
L 144.76286 216.59537 
L 145.612006 219.710293 
L 155.771705 226.773496 
L 163.21203 284.417245 
L 164.180987 257.752868 
L 165.042171 248.782222 
L 170.943837 246.926372 
L 173.496775 227.905846 
L 207.146958 239.323552 
L 210.529274 241.737093 
L 218.978819 239.675293 
L 346.082599 296.233819 
L 379.139631 227.600233 
L 396.853779 229.856423 
L 396.854161 241.082207 
L 397.677773 235.956552 
L 397.678155 230.811405 
L 398.486891 242.907008 
L 398.487273 233.315574 
" style="fill:none;"/>
   </g>
   <g id="patch_14">
    <path d="M 57.6 307.584 
L 57.6 198.966857 
" style="fill:none;stroke:#000000;stroke-linecap:square;stroke-linejoin:miter;stroke-width:0.8;"/>
   </g>
   <g id="patch_15">
    <path d="M 414.72 307.584 
L 414.72 198.966857 
" style="fill:none;stroke:#000000;stroke-linecap:square;stroke-linejoin:miter;stroke-width:0.8;"/>
   </g>
   <g id="patch_16">
    <path d="M 57.6 307.584 
L 414.72 307.584 
" style="fill:none;stroke:#000000;stroke-linecap:square;stroke-linejoin:miter;stroke-width:0.8;"/>
   </g>
   <g id="patch_17">
    <path d="M 57.6 198.966857 
L 414.72 198.966857 
" style="fill:none;stroke:#000000;stroke-linecap:square;stroke-linejoin:miter;stroke-width:0.8;"/>
   </g>
   <g id="text_35">
    <!-- Light Curve -->
    <g transform="translate(206.000625 192.966857)scale(0.1 -0.1)">
     <use xlink:href="#DejaVuSerif-76"/>
     <use x="66.40625" xlink:href="#DejaVuSerif-105"/>
     <use x="98.388672" xlink:href="#DejaVuSerif-103"/>
     <use x="162.402344" xlink:href="#DejaVuSerif-104"/>
     <use x="226.806641" xlink:href="#DejaVuSerif-116"/>
     <use x="266.992188" xlink:href="#DejaVuSerif-32"/>
     <use x="298.779297" xlink:href="#DejaVuSerif-67"/>
     <use x="375.292969" xlink:href="#DejaVuSerif-117"/>
     <use x="439.697266" xlink:href="#DejaVuSerif-114"/>
     <use x="487.5" xlink:href="#DejaVuSerif-118"/>
     <use x="543.994141" xlink:href="#DejaVuSerif-101"/>
    </g>
   </g>
  </g>
 </g>
 <defs>
  <clipPath id="p5ca10084b0">
   <rect height="108.617143" width="148.8" x="265.92" y="41.472"/>
  </clipPath>
  <clipPath id="pfb47341f2f">
   <rect height="108.617143" width="148.8" x="57.6" y="41.472"/>
  </clipPath>
  <clipPath id="pbf3e8f5277">
   <rect height="108.617143" width="357.12" x="57.6" y="198.966857"/>
  </clipPath>
 </defs>
</svg>
