<?xml version="1.0" encoding="utf-8" standalone="no"?>
<!DOCTYPE svg PUBLIC "-//W3C//DTD SVG 1.1//EN"
  "http://www.w3.org/Graphics/SVG/1.1/DTD/svg11.dtd">
<!-- Created with matplotlib (https://matplotlib.org/) -->
<svg height="345.6pt" version="1.1" viewBox="0 0 460.8 345.6" width="460.8pt" xmlns="http://www.w3.org/2000/svg" xmlns:xlink="http://www.w3.org/1999/xlink">
 <metadata>
  <rdf:RDF xmlns:cc="http://creativecommons.org/ns#" xmlns:dc="http://purl.org/dc/elements/1.1/" xmlns:rdf="http://www.w3.org/1999/02/22-rdf-syntax-ns#">
   <cc:Work>
    <dc:type rdf:resource="http://purl.org/dc/dcmitype/StillImage"/>
    <dc:date>2021-02-16T16:34:53.373989</dc:date>
    <dc:format>image/svg+xml</dc:format>
    <dc:creator>
     <cc:Agent>
      <dc:title>Matplotlib v3.3.3, https://matplotlib.org/</dc:title>
     </cc:Agent>
    </dc:creator>
   </cc:Work>
  </rdf:RDF>
 </metadata>
 <defs>
  <style type="text/css">*{stroke-linecap:butt;stroke-linejoin:round;}</style>
 </defs>
 <g id="figure_1">
  <g id="patch_1">
   <path d="M 0 345.6 
L 460.8 345.6 
L 460.8 0 
L 0 0 
z
" style="fill:#ffffff;"/>
  </g>
  <g id="axes_1">
   <g id="patch_2">
    <path d="M 265.92 150.089143 
L 414.72 150.089143 
L 414.72 41.472 
L 265.92 41.472 
z
" style="fill:#ffffff;"/>
   </g>
   <g id="matplotlib.axis_1">
    <g id="xtick_1">
     <g id="line2d_1">
      <defs>
       <path d="M 0 0 
L 0 3.5 
" id="mff8d89c0e1" style="stroke:#000000;stroke-width:0.8;"/>
      </defs>
      <g>
       <use style="stroke:#000000;stroke-width:0.8;" x="315.519224" xlink:href="#mff8d89c0e1" y="150.089143"/>
      </g>
     </g>
     <g id="text_1">
      <!-- $\mathdefault{10^{1}}$ -->
      <g transform="translate(306.719224 164.68758)scale(0.1 -0.1)">
       <defs>
        <path d="M 14.203125 0 
L 14.203125 5.171875 
L 26.90625 5.171875 
L 26.90625 65.828125 
L 12.203125 56.296875 
L 12.203125 62.703125 
L 29.984375 74.21875 
L 36.71875 74.21875 
L 36.71875 5.171875 
L 49.421875 5.171875 
L 49.421875 0 
z
" id="DejaVuSerif-49"/>
        <path d="M 31.78125 3.421875 
Q 39.265625 3.421875 42.96875 11.625 
Q 46.6875 19.828125 46.6875 36.375 
Q 46.6875 52.984375 42.96875 61.1875 
Q 39.265625 69.390625 31.78125 69.390625 
Q 24.3125 69.390625 20.59375 61.1875 
Q 16.890625 52.984375 16.890625 36.375 
Q 16.890625 19.828125 20.59375 11.625 
Q 24.3125 3.421875 31.78125 3.421875 
z
M 31.78125 -1.421875 
Q 19.921875 -1.421875 13.25 8.53125 
Q 6.59375 18.5 6.59375 36.375 
Q 6.59375 54.296875 13.25 64.25 
Q 19.921875 74.21875 31.78125 74.21875 
Q 43.703125 74.21875 50.34375 64.25 
Q 56.984375 54.296875 56.984375 36.375 
Q 56.984375 18.5 50.34375 8.53125 
Q 43.703125 -1.421875 31.78125 -1.421875 
z
" id="DejaVuSerif-48"/>
       </defs>
       <use transform="translate(0 0.7125)" xlink:href="#DejaVuSerif-49"/>
       <use transform="translate(63.623047 0.7125)" xlink:href="#DejaVuSerif-48"/>
       <use transform="translate(128.154453 37.046875)scale(0.7)" xlink:href="#DejaVuSerif-49"/>
      </g>
     </g>
    </g>
    <g id="xtick_2">
     <g id="line2d_2">
      <g>
       <use style="stroke:#000000;stroke-width:0.8;" x="373.218149" xlink:href="#mff8d89c0e1" y="150.089143"/>
      </g>
     </g>
     <g id="text_2">
      <!-- $\mathdefault{10^{2}}$ -->
      <g transform="translate(364.418149 164.68758)scale(0.1 -0.1)">
       <defs>
        <path d="M 12.796875 55.515625 
L 7.328125 55.515625 
L 7.328125 68.5 
Q 12.546875 71.296875 17.84375 72.75 
Q 23.140625 74.21875 28.21875 74.21875 
Q 39.59375 74.21875 46.1875 68.703125 
Q 52.78125 63.1875 52.78125 53.71875 
Q 52.78125 43.015625 37.84375 28.125 
Q 36.671875 27 36.078125 26.421875 
L 17.671875 8.015625 
L 48.09375 8.015625 
L 48.09375 17 
L 53.8125 17 
L 53.8125 0 
L 6.78125 0 
L 6.78125 5.328125 
L 28.90625 27.390625 
Q 36.234375 34.71875 39.359375 40.84375 
Q 42.484375 46.96875 42.484375 53.71875 
Q 42.484375 61.078125 38.640625 65.234375 
Q 34.8125 69.390625 28.078125 69.390625 
Q 21.09375 69.390625 17.28125 65.921875 
Q 13.484375 62.453125 12.796875 55.515625 
z
" id="DejaVuSerif-50"/>
       </defs>
       <use transform="translate(0 0.7125)" xlink:href="#DejaVuSerif-49"/>
       <use transform="translate(63.623047 0.7125)" xlink:href="#DejaVuSerif-48"/>
       <use transform="translate(128.154453 37.046875)scale(0.7)" xlink:href="#DejaVuSerif-50"/>
      </g>
     </g>
    </g>
    <g id="xtick_3">
     <g id="line2d_3">
      <defs>
       <path d="M 0 0 
L 0 2 
" id="md77fe1c7fb" style="stroke:#000000;stroke-width:0.6;"/>
      </defs>
      <g>
       <use style="stroke:#000000;stroke-width:0.6;" x="275.189406" xlink:href="#md77fe1c7fb" y="150.089143"/>
      </g>
     </g>
    </g>
    <g id="xtick_4">
     <g id="line2d_4">
      <g>
       <use style="stroke:#000000;stroke-width:0.6;" x="285.349683" xlink:href="#md77fe1c7fb" y="150.089143"/>
      </g>
     </g>
    </g>
    <g id="xtick_5">
     <g id="line2d_5">
      <g>
       <use style="stroke:#000000;stroke-width:0.6;" x="292.558513" xlink:href="#md77fe1c7fb" y="150.089143"/>
      </g>
     </g>
    </g>
    <g id="xtick_6">
     <g id="line2d_6">
      <g>
       <use style="stroke:#000000;stroke-width:0.6;" x="298.150117" xlink:href="#md77fe1c7fb" y="150.089143"/>
      </g>
     </g>
    </g>
    <g id="xtick_7">
     <g id="line2d_7">
      <g>
       <use style="stroke:#000000;stroke-width:0.6;" x="302.71879" xlink:href="#md77fe1c7fb" y="150.089143"/>
      </g>
     </g>
    </g>
    <g id="xtick_8">
     <g id="line2d_8">
      <g>
       <use style="stroke:#000000;stroke-width:0.6;" x="306.581548" xlink:href="#md77fe1c7fb" y="150.089143"/>
      </g>
     </g>
    </g>
    <g id="xtick_9">
     <g id="line2d_9">
      <g>
       <use style="stroke:#000000;stroke-width:0.6;" x="309.927621" xlink:href="#md77fe1c7fb" y="150.089143"/>
      </g>
     </g>
    </g>
    <g id="xtick_10">
     <g id="line2d_10">
      <g>
       <use style="stroke:#000000;stroke-width:0.6;" x="312.879066" xlink:href="#md77fe1c7fb" y="150.089143"/>
      </g>
     </g>
    </g>
    <g id="xtick_11">
     <g id="line2d_11">
      <g>
       <use style="stroke:#000000;stroke-width:0.6;" x="332.888331" xlink:href="#md77fe1c7fb" y="150.089143"/>
      </g>
     </g>
    </g>
    <g id="xtick_12">
     <g id="line2d_12">
      <g>
       <use style="stroke:#000000;stroke-width:0.6;" x="343.048608" xlink:href="#md77fe1c7fb" y="150.089143"/>
      </g>
     </g>
    </g>
    <g id="xtick_13">
     <g id="line2d_13">
      <g>
       <use style="stroke:#000000;stroke-width:0.6;" x="350.257438" xlink:href="#md77fe1c7fb" y="150.089143"/>
      </g>
     </g>
    </g>
    <g id="xtick_14">
     <g id="line2d_14">
      <g>
       <use style="stroke:#000000;stroke-width:0.6;" x="355.849042" xlink:href="#md77fe1c7fb" y="150.089143"/>
      </g>
     </g>
    </g>
    <g id="xtick_15">
     <g id="line2d_15">
      <g>
       <use style="stroke:#000000;stroke-width:0.6;" x="360.417715" xlink:href="#md77fe1c7fb" y="150.089143"/>
      </g>
     </g>
    </g>
    <g id="xtick_16">
     <g id="line2d_16">
      <g>
       <use style="stroke:#000000;stroke-width:0.6;" x="364.280473" xlink:href="#md77fe1c7fb" y="150.089143"/>
      </g>
     </g>
    </g>
    <g id="xtick_17">
     <g id="line2d_17">
      <g>
       <use style="stroke:#000000;stroke-width:0.6;" x="367.626546" xlink:href="#md77fe1c7fb" y="150.089143"/>
      </g>
     </g>
    </g>
    <g id="xtick_18">
     <g id="line2d_18">
      <g>
       <use style="stroke:#000000;stroke-width:0.6;" x="370.577991" xlink:href="#md77fe1c7fb" y="150.089143"/>
      </g>
     </g>
    </g>
    <g id="xtick_19">
     <g id="line2d_19">
      <g>
       <use style="stroke:#000000;stroke-width:0.6;" x="390.587256" xlink:href="#md77fe1c7fb" y="150.089143"/>
      </g>
     </g>
    </g>
    <g id="xtick_20">
     <g id="line2d_20">
      <g>
       <use style="stroke:#000000;stroke-width:0.6;" x="400.747533" xlink:href="#md77fe1c7fb" y="150.089143"/>
      </g>
     </g>
    </g>
    <g id="xtick_21">
     <g id="line2d_21">
      <g>
       <use style="stroke:#000000;stroke-width:0.6;" x="407.956364" xlink:href="#md77fe1c7fb" y="150.089143"/>
      </g>
     </g>
    </g>
    <g id="xtick_22">
     <g id="line2d_22">
      <g>
       <use style="stroke:#000000;stroke-width:0.6;" x="413.547967" xlink:href="#md77fe1c7fb" y="150.089143"/>
      </g>
     </g>
    </g>
    <g id="text_3">
     <!-- Period d -->
     <g transform="translate(319.231719 178.365705)scale(0.1 -0.1)">
      <defs>
       <path d="M 24.703125 37.109375 
L 37.59375 37.109375 
Q 44.875 37.109375 48.671875 41.03125 
Q 52.484375 44.96875 52.484375 52.390625 
Q 52.484375 59.859375 48.671875 63.765625 
Q 44.875 67.671875 37.59375 67.671875 
L 24.703125 67.671875 
z
M 5.515625 0 
L 5.515625 5.171875 
L 14.796875 5.171875 
L 14.796875 67.671875 
L 5.515625 67.671875 
L 5.515625 72.90625 
L 39.984375 72.90625 
Q 50.921875 72.90625 57.3125 67.359375 
Q 63.71875 61.8125 63.71875 52.390625 
Q 63.71875 43.015625 57.3125 37.453125 
Q 50.921875 31.890625 39.984375 31.890625 
L 24.703125 31.890625 
L 24.703125 5.171875 
L 35.984375 5.171875 
L 35.984375 0 
z
" id="DejaVuSerif-80"/>
       <path d="M 54.203125 25 
L 15.484375 25 
L 15.484375 24.609375 
Q 15.484375 14.109375 19.4375 8.765625 
Q 23.390625 3.421875 31.109375 3.421875 
Q 37.015625 3.421875 40.796875 6.515625 
Q 44.578125 9.625 46.09375 15.71875 
L 53.328125 15.71875 
Q 51.171875 7.171875 45.375 2.875 
Q 39.59375 -1.421875 30.171875 -1.421875 
Q 18.796875 -1.421875 11.890625 6.078125 
Q 4.984375 13.578125 4.984375 25.984375 
Q 4.984375 38.28125 11.765625 45.796875 
Q 18.5625 53.328125 29.59375 53.328125 
Q 41.359375 53.328125 47.65625 46.0625 
Q 53.953125 38.8125 54.203125 25 
z
M 43.609375 30.171875 
Q 43.3125 39.265625 39.765625 43.875 
Q 36.234375 48.484375 29.59375 48.484375 
Q 23.390625 48.484375 19.828125 43.84375 
Q 16.265625 39.203125 15.484375 30.171875 
z
" id="DejaVuSerif-101"/>
       <path d="M 47.796875 52 
L 47.796875 39.015625 
L 42.625 39.015625 
Q 42.390625 42.875 40.484375 44.78125 
Q 38.578125 46.6875 34.90625 46.6875 
Q 28.265625 46.6875 24.71875 42.09375 
Q 21.1875 37.5 21.1875 28.90625 
L 21.1875 5.171875 
L 31.59375 5.171875 
L 31.59375 0 
L 4.109375 0 
L 4.109375 5.171875 
L 12.203125 5.171875 
L 12.203125 46.78125 
L 3.609375 46.78125 
L 3.609375 51.90625 
L 21.1875 51.90625 
L 21.1875 42.671875 
Q 23.828125 48.09375 27.96875 50.703125 
Q 32.125 53.328125 38.09375 53.328125 
Q 40.28125 53.328125 42.703125 52.984375 
Q 45.125 52.640625 47.796875 52 
z
" id="DejaVuSerif-114"/>
       <path d="M 9.71875 68.015625 
Q 9.71875 70.265625 11.34375 71.921875 
Q 12.984375 73.578125 15.28125 73.578125 
Q 17.53125 73.578125 19.15625 71.921875 
Q 20.796875 70.265625 20.796875 68.015625 
Q 20.796875 65.71875 19.1875 64.109375 
Q 17.578125 62.5 15.28125 62.5 
Q 12.984375 62.5 11.34375 64.109375 
Q 9.71875 65.71875 9.71875 68.015625 
z
M 21.1875 5.171875 
L 29.6875 5.171875 
L 29.6875 0 
L 3.609375 0 
L 3.609375 5.171875 
L 12.203125 5.171875 
L 12.203125 46.6875 
L 3.609375 46.6875 
L 3.609375 51.90625 
L 21.1875 51.90625 
z
" id="DejaVuSerif-105"/>
       <path d="M 30.078125 3.421875 
Q 37.3125 3.421875 40.984375 9.125 
Q 44.671875 14.84375 44.671875 25.984375 
Q 44.671875 37.109375 40.984375 42.796875 
Q 37.3125 48.484375 30.078125 48.484375 
Q 22.859375 48.484375 19.171875 42.796875 
Q 15.484375 37.109375 15.484375 25.984375 
Q 15.484375 14.84375 19.1875 9.125 
Q 22.90625 3.421875 30.078125 3.421875 
z
M 30.078125 -1.421875 
Q 18.75 -1.421875 11.859375 6.078125 
Q 4.984375 13.578125 4.984375 25.984375 
Q 4.984375 38.375 11.84375 45.84375 
Q 18.703125 53.328125 30.078125 53.328125 
Q 41.453125 53.328125 48.3125 45.84375 
Q 55.171875 38.375 55.171875 25.984375 
Q 55.171875 13.578125 48.3125 6.078125 
Q 41.453125 -1.421875 30.078125 -1.421875 
z
" id="DejaVuSerif-111"/>
       <path d="M 52.484375 5.171875 
L 61.078125 5.171875 
L 61.078125 0 
L 43.5 0 
L 43.5 8.109375 
Q 40.875 3.21875 36.796875 0.890625 
Q 32.71875 -1.421875 26.703125 -1.421875 
Q 17.140625 -1.421875 11.0625 6.171875 
Q 4.984375 13.765625 4.984375 25.984375 
Q 4.984375 38.1875 11.03125 45.75 
Q 17.09375 53.328125 26.703125 53.328125 
Q 32.71875 53.328125 36.796875 51 
Q 40.875 48.6875 43.5 43.796875 
L 43.5 70.796875 
L 35.015625 70.796875 
L 35.015625 75.984375 
L 52.484375 75.984375 
z
M 43.5 23.390625 
L 43.5 28.515625 
Q 43.5 37.84375 39.90625 42.765625 
Q 36.328125 47.703125 29.5 47.703125 
Q 22.5625 47.703125 19.015625 42.234375 
Q 15.484375 36.765625 15.484375 25.984375 
Q 15.484375 15.234375 19.015625 9.71875 
Q 22.5625 4.203125 29.5 4.203125 
Q 36.328125 4.203125 39.90625 9.109375 
Q 43.5 14.015625 43.5 23.390625 
z
" id="DejaVuSerif-100"/>
       <path id="DejaVuSerif-32"/>
      </defs>
      <use xlink:href="#DejaVuSerif-80"/>
      <use x="62.785156" xlink:href="#DejaVuSerif-101"/>
      <use x="121.964844" xlink:href="#DejaVuSerif-114"/>
      <use x="169.767578" xlink:href="#DejaVuSerif-105"/>
      <use x="201.75" xlink:href="#DejaVuSerif-111"/>
      <use x="261.955078" xlink:href="#DejaVuSerif-100"/>
      <use x="325.96875" xlink:href="#DejaVuSerif-32"/>
      <use x="357.755859" xlink:href="#DejaVuSerif-100"/>
     </g>
    </g>
   </g>
   <g id="matplotlib.axis_2">
    <g id="ytick_1">
     <g id="line2d_23">
      <defs>
       <path d="M 0 0 
L -3.5 0 
" id="m6cf7ade264" style="stroke:#000000;stroke-width:0.8;"/>
      </defs>
      <g>
       <use style="stroke:#000000;stroke-width:0.8;" x="265.92" xlink:href="#m6cf7ade264" y="145.157623"/>
      </g>
     </g>
     <g id="text_4">
      <!-- 0.0 -->
      <g transform="translate(243.016875 148.956842)scale(0.1 -0.1)">
       <defs>
        <path d="M 9.421875 5.078125 
Q 9.421875 7.8125 11.28125 9.71875 
Q 13.140625 11.625 15.921875 11.625 
Q 18.609375 11.625 20.5 9.71875 
Q 22.40625 7.8125 22.40625 5.078125 
Q 22.40625 2.390625 20.5 0.484375 
Q 18.609375 -1.421875 15.921875 -1.421875 
Q 13.140625 -1.421875 11.28125 0.453125 
Q 9.421875 2.34375 9.421875 5.078125 
z
" id="DejaVuSerif-46"/>
       </defs>
       <use xlink:href="#DejaVuSerif-48"/>
       <use x="63.623047" xlink:href="#DejaVuSerif-46"/>
       <use x="95.410156" xlink:href="#DejaVuSerif-48"/>
      </g>
     </g>
    </g>
    <g id="ytick_2">
     <g id="line2d_24">
      <g>
       <use style="stroke:#000000;stroke-width:0.8;" x="265.92" xlink:href="#m6cf7ade264" y="102.821231"/>
      </g>
     </g>
     <g id="text_5">
      <!-- 0.2 -->
      <g transform="translate(243.016875 106.62045)scale(0.1 -0.1)">
       <use xlink:href="#DejaVuSerif-48"/>
       <use x="63.623047" xlink:href="#DejaVuSerif-46"/>
       <use x="95.410156" xlink:href="#DejaVuSerif-50"/>
      </g>
     </g>
    </g>
    <g id="ytick_3">
     <g id="line2d_25">
      <g>
       <use style="stroke:#000000;stroke-width:0.8;" x="265.92" xlink:href="#m6cf7ade264" y="60.484839"/>
      </g>
     </g>
     <g id="text_6">
      <!-- 0.4 -->
      <g transform="translate(243.016875 64.284057)scale(0.1 -0.1)">
       <defs>
        <path d="M 34.90625 24.703125 
L 34.90625 63.484375 
L 10.015625 24.703125 
z
M 56.390625 0 
L 23.1875 0 
L 23.1875 5.171875 
L 34.90625 5.171875 
L 34.90625 19.484375 
L 3.078125 19.484375 
L 3.078125 24.8125 
L 35.015625 74.21875 
L 44.671875 74.21875 
L 44.671875 24.703125 
L 58.59375 24.703125 
L 58.59375 19.484375 
L 44.671875 19.484375 
L 44.671875 5.171875 
L 56.390625 5.171875 
z
" id="DejaVuSerif-52"/>
       </defs>
       <use xlink:href="#DejaVuSerif-48"/>
       <use x="63.623047" xlink:href="#DejaVuSerif-46"/>
       <use x="95.410156" xlink:href="#DejaVuSerif-52"/>
      </g>
     </g>
    </g>
    <g id="text_7">
     <!-- Power -->
     <g transform="translate(236.937188 111.583696)rotate(-90)scale(0.1 -0.1)">
      <defs>
       <path d="M 48 51.90625 
L 61.28125 11.375 
L 73 46.6875 
L 65.484375 46.6875 
L 65.484375 51.90625 
L 84.28125 51.90625 
L 84.28125 46.6875 
L 78.515625 46.6875 
L 63.09375 0 
L 55.609375 0 
L 42.828125 38.8125 
L 29.984375 0 
L 22.796875 0 
L 7.421875 46.6875 
L 1.609375 46.6875 
L 1.609375 51.90625 
L 25.09375 51.90625 
L 25.09375 46.6875 
L 16.703125 46.6875 
L 28.328125 11.375 
L 41.703125 51.90625 
z
" id="DejaVuSerif-119"/>
      </defs>
      <use xlink:href="#DejaVuSerif-80"/>
      <use x="63.285156" xlink:href="#DejaVuSerif-111"/>
      <use x="123.490234" xlink:href="#DejaVuSerif-119"/>
      <use x="209.085938" xlink:href="#DejaVuSerif-101"/>
      <use x="268.265625" xlink:href="#DejaVuSerif-114"/>
     </g>
    </g>
   </g>
   <g id="LineCollection_1">
    <path clip-path="url(#pc61f7ed6bc)" d="M 272.688076 46.409143 
L 407.956364 46.409143 
" style="fill:none;stroke:#808080;stroke-dasharray:5.55,2.4;stroke-dashoffset:0;stroke-width:1.5;"/>
   </g>
   <g id="LineCollection_2">
    <path clip-path="url(#pc61f7ed6bc)" d="M 272.688076 60.329267 
L 407.956364 60.329267 
" style="fill:none;stroke:#a9a9a9;stroke-dasharray:5.55,2.4;stroke-dashoffset:0;stroke-width:1.5;"/>
   </g>
   <g id="LineCollection_3">
    <path clip-path="url(#pc61f7ed6bc)" d="M 272.688076 71.289803 
L 407.956364 71.289803 
" style="fill:none;stroke:#c0c0c0;stroke-dasharray:5.55,2.4;stroke-dashoffset:0;stroke-width:1.5;"/>
   </g>
   <g id="LineCollection_4">
    <path clip-path="url(#pc61f7ed6bc)" d="M 272.688076 76.467188 
L 407.956364 76.467188 
" style="fill:none;stroke:#d3d3d3;stroke-dasharray:5.55,2.4;stroke-dashoffset:0;stroke-width:1.5;"/>
   </g>
   <g id="line2d_26">
    <path clip-path="url(#pc61f7ed6bc)" d="M 407.956364 123.822339 
L 403.213616 144.764424 
L 399.227255 132.085638 
L 395.788878 117.909206 
L 392.765875 114.946616 
L 390.068617 122.381723 
L 387.633683 136.416346 
L 385.414539 145.148191 
L 383.376032 132.014956 
L 381.490955 113.996459 
L 379.73782 108.056693 
L 378.099359 110.276745 
L 376.561486 121.680195 
L 375.112563 140.559529 
L 373.74286 132.376855 
L 372.444161 105.437547 
L 371.209467 85.655994 
L 370.032763 80.855702 
L 368.908846 95.965184 
L 367.833182 128.323184 
L 366.801799 134.377164 
L 364.858264 77.734761 
L 363.940249 67.146486 
L 363.054681 83.342559 
L 362.199344 132.151139 
L 361.372241 141.895286 
L 360.571569 122.545594 
L 359.79569 98.348041 
L 359.043114 95.835401 
L 358.312483 117.877979 
L 357.602554 144.147011 
L 356.240326 125.099077 
L 355.586012 115.08622 
L 354.948349 116.764597 
L 353.719731 142.459235 
L 352.548548 133.915953 
L 351.982864 129.483828 
L 351.429669 122.223332 
L 350.888423 124.481744 
L 350.358621 136.92042 
L 349.839788 139.636998 
L 349.331481 138.254056 
L 348.83328 131.360093 
L 348.344791 122.242542 
L 347.865643 128.35405 
L 347.395485 141.28474 
L 346.933987 137.234358 
L 346.035731 110.746727 
L 345.598396 108.045073 
L 345.168563 121.17171 
L 344.745979 143.438468 
L 344.330404 134.769368 
L 343.921608 111.898448 
L 343.519374 97.016673 
L 343.123495 96.645992 
L 342.35002 142.232475 
L 341.972055 139.904035 
L 341.599707 124.283029 
L 341.23281 118.275479 
L 340.871208 125.015587 
L 340.163291 143.052956 
L 339.474825 113.027983 
L 339.137558 112.218439 
L 338.80477 123.966567 
L 338.476344 139.865664 
L 338.152167 141.999346 
L 337.516128 108.084966 
L 337.204063 99.942745 
L 336.895836 103.969447 
L 336.290527 141.506636 
L 335.993269 124.869264 
L 335.699496 99.820515 
L 335.409128 91.914552 
L 335.122085 102.996717 
L 334.838294 127.278671 
L 334.55768 140.71672 
L 334.005708 81.468349 
L 333.734215 82.096573 
L 333.465633 96.110612 
L 333.199898 123.144313 
L 332.936952 135.79745 
L 332.419196 62.919456 
L 332.164275 70.50173 
L 331.414712 141.616306 
L 331.169759 130.929809 
L 330.927177 110.147169 
L 330.686922 102.648297 
L 330.448947 103.838876 
L 330.213212 116.579689 
L 329.979673 139.146397 
L 329.748291 142.586944 
L 329.29184 112.649573 
L 329.066695 114.180695 
L 328.622384 144.441635 
L 328.403148 128.644496 
L 328.185814 90.961549 
L 327.970348 82.264803 
L 327.756719 98.400644 
L 327.33485 140.818964 
L 326.919965 74.485475 
L 326.71507 69.065041 
L 326.511837 83.986331 
L 326.11025 142.728594 
L 325.519686 82.585158 
L 325.325884 98.934829 
L 324.942719 145.082707 
L 324.378739 106.432817 
L 324.193532 114.597199 
L 323.827173 144.119199 
L 323.645984 139.829594 
L 323.287487 109.129074 
L 323.110144 108.508748 
L 322.585524 143.521956 
L 322.241781 111.054549 
L 322.071662 106.921719 
L 321.568126 140.99278 
L 321.237971 122.941458 
L 321.07451 122.601786 
L 320.750753 142.167089 
L 320.431126 118.441036 
L 320.272828 117.130775 
L 319.803848 143.012096 
L 319.496001 119.829134 
L 319.343484 120.848355 
L 318.891425 143.295621 
L 318.594521 133.081943 
L 318.447378 132.700838 
L 318.301094 134.779315 
L 318.155658 140.423846 
L 318.011062 139.957648 
L 317.724349 120.409437 
L 317.582214 126.334297 
L 317.300339 145.149984 
L 317.160581 131.96442 
L 316.883384 98.408822 
L 316.473253 144.710748 
L 316.069727 97.787032 
L 315.672596 143.206165 
L 315.281661 86.133431 
L 314.896732 144.275763 
L 314.517626 97.43101 
L 314.392521 103.883815 
L 314.020912 143.699537 
L 313.654732 83.899947 
L 313.413552 125.334416 
L 313.293827 143.879708 
L 313.174672 134.823546 
L 312.938046 95.991967 
L 312.587246 143.847616 
L 312.24129 100.945612 
L 312.013277 142.252901 
L 311.900044 141.190487 
L 311.675102 109.970123 
L 311.34143 139.636527 
L 311.231186 137.398277 
L 311.012142 127.170442 
L 310.794997 140.181785 
L 310.687126 140.697453 
L 310.366271 123.503736 
L 310.260226 125.561905 
L 310.049473 143.0806 
L 309.944758 142.122024 
L 309.633211 119.097275 
L 309.223751 142.045357 
L 309.021503 132.784958 
L 308.820874 118.656575 
L 308.721159 119.388087 
L 308.522911 143.599479 
L 308.424372 141.851728 
L 308.228449 114.106356 
L 308.13106 119.715031 
L 307.937408 143.634347 
L 307.84114 140.876306 
L 307.649708 126.085909 
L 307.365274 141.429829 
L 307.177429 134.52286 
L 307.084032 134.156208 
L 306.990981 136.466806 
L 306.805911 129.886258 
L 306.530844 141.701089 
L 306.349129 112.665344 
L 306.258763 113.094206 
L 306.079003 143.563171 
L 305.989605 139.525593 
L 305.811759 108.950269 
L 305.723307 114.475449 
L 305.547334 142.96978 
L 305.372589 113.856684 
L 305.285671 117.422348 
L 305.112735 144.997004 
L 304.855548 104.58569 
L 304.770402 114.574578 
L 304.600973 145.038436 
L 304.348959 117.039151 
L 304.265515 123.415245 
L 304.016835 138.909774 
L 303.934487 141.150276 
L 303.770599 131.832514 
L 303.607776 110.299865 
L 303.365508 142.940479 
L 303.28527 138.125396 
L 303.12556 116.926672 
L 303.046086 119.784961 
L 302.887888 142.972223 
L 302.809162 141.606902 
L 302.574458 104.618986 
L 302.341932 141.378947 
L 302.188105 96.029189 
L 302.111544 96.971825 
L 301.883255 144.868217 
L 301.657027 124.199905 
L 301.507335 126.085841 
L 301.28446 143.709126 
L 301.210607 139.128304 
L 301.06355 113.889959 
L 300.844571 143.87482 
L 300.69964 110.845839 
L 300.627488 112.429116 
L 300.483805 144.37653 
L 300.269812 95.539615 
L 300.198885 102.939678 
L 300.057631 142.817962 
L 299.847232 108.654204 
L 299.707941 143.449973 
L 299.638585 139.720278 
L 299.500446 112.427018 
L 299.431661 116.65581 
L 299.294655 144.967965 
L 299.022869 115.848463 
L 298.820947 138.764998 
L 298.754 141.963072 
L 298.487985 118.441492 
L 298.290311 143.133442 
L 298.159389 127.596633 
L 298.094184 128.137054 
L 297.89958 140.627151 
L 297.770679 132.927769 
L 297.706476 134.64727 
L 297.642437 135.508564 
L 297.578561 141.782927 
L 297.514848 139.827498 
L 297.324675 121.412327 
L 297.19869 143.523334 
L 297.135934 141.493726 
L 297.010892 115.529198 
L 296.948604 117.128112 
L 296.824491 143.511473 
L 296.762664 139.233138 
L 296.639467 125.36924 
L 296.455798 140.586891 
L 296.334097 130.871204 
L 296.212983 141.827659 
L 296.152645 137.593787 
L 296.092452 127.405965 
L 296.032403 129.060235 
L 295.912735 145.068982 
L 295.734298 106.830407 
L 295.675101 115.810156 
L 295.557123 139.953389 
L 295.381192 102.255724 
L 295.206487 144.958516 
L 295.148522 137.979073 
L 295.032992 127.66699 
L 294.689565 142.928452 
L 294.5196 121.08125 
L 294.406927 143.753789 
L 294.350781 141.516667 
L 294.238863 118.10828 
L 294.183091 125.2306 
L 294.071918 145.125299 
L 293.906077 115.578324 
L 293.85104 123.405661 
L 293.741328 144.116864 
L 293.686651 141.591399 
L 293.523333 120.810269 
L 293.415042 141.634362 
L 293.361072 140.562664 
L 293.253479 125.029079 
L 293.199855 129.67128 
L 293.092951 144.337475 
L 292.933444 110.104284 
L 292.8805 118.578538 
L 292.774947 144.548767 
L 292.722336 141.132004 
L 292.565165 121.857648 
L 292.512992 124.177668 
L 292.357124 145.004984 
L 292.202219 105.705901 
L 292.150796 117.407548 
L 292.048266 144.699532 
L 291.895253 103.466002 
L 291.844455 120.934061 
L 291.793761 140.930319 
L 291.743168 139.351975 
L 291.592001 97.910958 
L 291.491728 142.649009 
L 291.441741 140.32846 
L 291.342066 115.301501 
L 291.292376 122.91086 
L 291.193292 142.932932 
L 291.094598 126.285122 
L 291.045396 126.69801 
L 290.947282 144.754331 
L 290.898369 137.931199 
L 290.800827 124.886642 
L 290.752198 128.500574 
L 290.606876 144.53055 
L 290.462392 124.72134 
L 290.414415 125.090184 
L 290.271032 144.494696 
L 290.128466 126.51656 
L 289.986706 141.582566 
L 289.892643 131.864926 
L 289.845744 134.322725 
L 289.798932 139.940008 
L 289.70557 138.59288 
L 289.659019 137.378213 
L 289.612554 137.643225 
L 289.566176 140.313877 
L 289.473675 139.456899 
L 289.381515 134.893656 
L 289.243907 144.007252 
L 289.10705 116.175412 
L 289.061597 117.502514 
L 288.970937 142.405365 
L 288.92573 131.96449 
L 288.790596 78.880208 
L 288.700909 132.282755 
L 288.656186 125.908417 
L 288.566978 72.909647 
L 288.522494 75.924215 
L 288.389511 137.535252 
L 288.301246 97.831887 
L 288.25723 107.01212 
L 288.169429 144.711598 
L 288.125643 140.806758 
L 288.038302 122.0919 
L 287.994745 129.349493 
L 287.864526 144.802164 
L 287.73498 119.247419 
L 287.691947 121.727713 
L 287.606101 143.584052 
L 287.563288 138.414858 
L 287.477881 111.060875 
L 287.435287 118.810694 
L 287.350314 144.201834 
L 287.307936 134.297179 
L 287.223394 111.450635 
L 287.181229 121.705358 
L 287.097112 140.569137 
L 287.013277 110.514698 
L 286.971464 111.564889 
L 286.846443 144.155538 
L 286.804908 139.402325 
L 286.722043 133.302603 
L 286.680713 135.716341 
L 286.598257 143.763949 
L 286.55713 142.209854 
L 286.475079 140.595781 
L 286.393296 143.914333 
L 286.271119 124.102865 
L 286.230526 129.458237 
L 286.149536 145.142659 
L 286.109139 139.612243 
L 286.028539 122.494854 
L 285.988336 130.894695 
L 285.908124 143.922814 
L 285.868114 139.565905 
L 285.828167 132.736271 
L 285.788285 133.218835 
L 285.708709 143.930921 
L 285.669016 142.176874 
L 285.589817 133.097508 
L 285.550312 134.826289 
L 285.392909 144.15612 
L 285.353713 143.378096 
L 285.23649 131.485687 
L 285.119812 143.830303 
L 285.042328 135.466692 
L 285.003676 139.500917 
L 284.965083 143.940735 
L 284.926549 138.517638 
L 284.84966 115.982873 
L 284.811303 124.509786 
L 284.734766 140.024296 
L 284.620396 95.530884 
L 284.582388 111.897722 
L 284.506546 139.332626 
L 284.468711 128.569798 
L 284.393211 109.369241 
L 284.355546 126.090642 
L 284.280386 143.607548 
L 284.24289 137.728114 
L 284.168067 131.235395 
L 284.130739 135.995351 
L 284.056249 144.952292 
L 284.019087 142.584419 
L 283.90793 125.289356 
L 283.870987 133.957257 
L 283.797265 143.629034 
L 283.760485 136.831136 
L 283.687086 127.405296 
L 283.650467 133.26925 
L 283.577389 144.995927 
L 283.54093 140.215345 
L 283.46817 134.071885 
L 283.43187 139.263307 
L 283.359426 144.626979 
L 283.323282 139.528079 
L 283.251151 133.34989 
L 283.215163 137.750598 
L 283.143342 144.073114 
L 283.107508 138.686937 
L 283.035995 120.940055 
L 283.000314 126.302145 
L 282.929106 140.702947 
L 282.893577 134.197379 
L 282.822671 118.077565 
L 282.787292 127.808387 
L 282.716685 144.847569 
L 282.681457 139.982585 
L 282.646277 133.705919 
L 282.576066 140.928968 
L 282.541034 143.198982 
L 282.506051 140.432624 
L 282.471117 136.424528 
L 282.436231 137.087645 
L 282.366605 144.165251 
L 282.331865 139.546817 
L 282.297172 135.23577 
L 282.262528 135.744726 
L 282.193382 145.101769 
L 282.158881 139.418659 
L 282.09002 129.354225 
L 282.055661 134.791556 
L 281.987083 144.570951 
L 281.952864 140.558333 
L 281.918692 136.244271 
L 281.850487 140.943966 
L 281.782468 138.839104 
L 281.714633 144.34065 
L 281.680784 142.844738 
L 281.57951 121.099277 
L 281.545843 128.45797 
L 281.478645 142.978369 
L 281.445113 138.313253 
L 281.378184 129.249419 
L 281.344786 135.406856 
L 281.278123 144.763838 
L 281.244859 141.615055 
L 281.211638 139.081306 
L 281.178461 140.677714 
L 281.112239 144.921971 
L 281.079194 143.67843 
L 281.013234 141.415926 
L 280.980318 141.737011 
L 280.914617 144.820421 
L 280.849088 143.890905 
L 280.816388 143.070765 
L 280.78373 143.870063 
L 280.751115 144.970158 
L 280.718542 143.807264 
L 280.653522 133.399145 
L 280.588672 139.873855 
L 280.556309 142.489169 
L 280.523988 139.406963 
L 280.459471 123.697977 
L 280.427275 127.19424 
L 280.330934 144.087763 
L 280.298902 142.163919 
L 280.203052 134.295122 
L 280.171183 136.480197 
L 280.07582 144.041939 
L 280.044112 140.317541 
L 279.980818 131.608164 
L 279.94923 137.580166 
L 279.917683 142.570498 
L 279.854706 136.352068 
L 279.823277 130.257251 
L 279.791887 132.673489 
L 279.729226 142.27627 
L 279.697954 138.259859 
L 279.635526 124.859788 
L 279.604371 132.496319 
L 279.542176 144.54683 
L 279.511136 141.118093 
L 279.449172 135.852194 
L 279.418247 142.191544 
L 279.38736 144.367487 
L 279.356512 141.375515 
L 279.325701 139.975497 
L 279.294928 141.150522 
L 279.233496 144.723922 
L 279.202836 142.797676 
L 279.172213 140.630757 
L 279.141628 141.837443 
L 279.11108 144.231765 
L 279.050096 142.076244 
L 279.01966 140.698435 
L 278.98926 141.741481 
L 278.928572 144.600733 
L 278.898282 141.944874 
L 278.837813 136.839794 
L 278.807633 139.580225 
L 278.747382 144.356635 
L 278.687276 141.174817 
L 278.627313 134.254487 
L 278.597386 136.225199 
L 278.507817 143.73962 
L 278.478032 140.722346 
L 278.418567 137.357298 
L 278.388888 139.808698 
L 278.329634 145.084758 
L 278.27052 143.424117 
L 278.094011 145.150681 
L 278.064713 144.503516 
L 277.860583 132.801506 
L 277.831556 135.699882 
L 277.744679 142.769005 
L 277.715787 141.415338 
L 277.686927 140.448539 
L 277.658102 142.49249 
L 277.629309 144.382294 
L 277.600549 142.387748 
L 277.571822 138.544405 
L 277.514467 142.343225 
L 277.485839 142.861992 
L 277.457243 141.458948 
L 277.40015 130.975533 
L 277.371652 134.861285 
L 277.286352 145.081029 
L 277.229646 144.994123 
L 277.201341 144.877897 
L 277.116617 139.982839 
L 277.08844 141.897842 
L 277.060294 143.582452 
L 277.004096 141.69286 
L 276.976045 139.676135 
L 276.948025 140.780388 
L 276.892079 145.143394 
L 276.836257 142.142995 
L 276.808393 141.048881 
L 276.780559 142.987766 
L 276.724985 145.087367 
L 276.669534 143.082745 
L 276.586587 139.213407 
L 276.558999 139.987755 
L 276.503913 142.675899 
L 276.476416 142.200932 
L 276.421512 134.954572 
L 276.366727 140.319544 
L 276.230288 145.113116 
L 276.203089 145.020118 
L 276.121669 141.51713 
L 276.040513 142.777637 
L 276.013519 142.749616 
L 275.986554 141.133004 
L 275.905834 142.815727 
L 275.878985 143.194091 
L 275.852164 142.933387 
L 275.798609 140.073477 
L 275.745168 135.889274 
L 275.691841 138.583746 
L 275.66522 140.482744 
L 275.612063 138.427078 
L 275.559018 140.339719 
L 275.532538 140.336756 
L 275.400554 143.170205 
L 275.374241 142.791019 
L 275.269262 137.655934 
L 275.243086 140.141246 
L 275.216938 142.105706 
L 275.190816 138.735589 
L 275.164722 139.16933 
L 275.138655 139.316371 
L 275.112615 134.074572 
L 275.060615 140.88311 
L 274.982819 144.776263 
L 274.931088 143.882742 
L 274.853692 135.157063 
L 274.725226 136.918343 
L 274.699612 135.402412 
L 274.674024 138.088617 
L 274.470255 142.489251 
L 274.318509 144.282584 
L 274.293307 143.939104 
L 274.242979 142.643172 
L 274.192752 139.657015 
L 274.142625 142.905701 
L 274.067622 145.000527 
L 273.992843 144.961963 
L 273.893484 139.35989 
L 273.843952 141.005556 
L 273.794518 143.093803 
L 273.74518 142.743932 
L 273.671356 138.696012 
L 273.622261 142.131999 
L 273.475549 144.246115 
L 273.45118 144.06679 
L 273.402514 141.872095 
L 273.305463 142.500132 
L 273.281259 141.723245 
L 273.257079 142.492326 
L 273.208788 145.152 
L 273.136525 143.616647 
L 273.112483 143.586554 
L 273.06447 140.632804 
L 273.016548 135.743407 
L 272.968717 142.354472 
L 272.873329 144.691189 
L 272.849539 144.540893 
L 272.730925 133.074159 
L 272.683636 135.799907 
" style="fill:none;stroke:#1f77b4;stroke-linecap:square;stroke-width:1.5;"/>
   </g>
   <g id="patch_3">
    <path d="M 265.92 150.089143 
L 265.92 41.472 
" style="fill:none;stroke:#000000;stroke-linecap:square;stroke-linejoin:miter;stroke-width:0.8;"/>
   </g>
   <g id="patch_4">
    <path d="M 414.72 150.089143 
L 414.72 41.472 
" style="fill:none;stroke:#000000;stroke-linecap:square;stroke-linejoin:miter;stroke-width:0.8;"/>
   </g>
   <g id="patch_5">
    <path d="M 265.92 150.089143 
L 414.72 150.089143 
" style="fill:none;stroke:#000000;stroke-linecap:square;stroke-linejoin:miter;stroke-width:0.8;"/>
   </g>
   <g id="patch_6">
    <path d="M 265.92 41.472 
L 414.72 41.472 
" style="fill:none;stroke:#000000;stroke-linecap:square;stroke-linejoin:miter;stroke-width:0.8;"/>
   </g>
   <g id="text_8">
    <!-- Periodogram -->
    <g transform="translate(307.698125 35.472)scale(0.1 -0.1)">
     <defs>
      <path d="M 52.484375 46.6875 
L 52.484375 1.125 
Q 52.484375 -10.0625 46.328125 -16.140625 
Q 40.1875 -22.21875 28.8125 -22.21875 
Q 23.6875 -22.21875 19 -21.28125 
Q 14.3125 -20.359375 10.015625 -18.5 
L 10.015625 -7.625 
L 14.703125 -7.625 
Q 15.578125 -12.703125 18.84375 -15.046875 
Q 22.125 -17.390625 28.21875 -17.390625 
Q 36.140625 -17.390625 39.8125 -12.921875 
Q 43.5 -8.453125 43.5 1.125 
L 43.5 8.109375 
Q 40.875 3.21875 36.796875 0.890625 
Q 32.71875 -1.421875 26.703125 -1.421875 
Q 17.140625 -1.421875 11.0625 6.171875 
Q 4.984375 13.765625 4.984375 25.984375 
Q 4.984375 38.1875 11.03125 45.75 
Q 17.09375 53.328125 26.703125 53.328125 
Q 32.71875 53.328125 36.796875 51 
Q 40.875 48.6875 43.5 43.796875 
L 43.5 51.90625 
L 61.078125 51.90625 
L 61.078125 46.6875 
z
M 43.5 28.515625 
Q 43.5 37.84375 39.90625 42.765625 
Q 36.328125 47.703125 29.5 47.703125 
Q 22.5625 47.703125 19.015625 42.234375 
Q 15.484375 36.765625 15.484375 25.984375 
Q 15.484375 15.234375 19.015625 9.71875 
Q 22.5625 4.203125 29.5 4.203125 
Q 36.328125 4.203125 39.90625 9.109375 
Q 43.5 14.015625 43.5 23.390625 
z
" id="DejaVuSerif-103"/>
      <path d="M 39.796875 16.3125 
L 39.796875 27.296875 
L 28.21875 27.296875 
Q 21.53125 27.296875 18.25 24.40625 
Q 14.984375 21.53125 14.984375 15.578125 
Q 14.984375 10.15625 18.296875 6.984375 
Q 21.625 3.8125 27.296875 3.8125 
Q 32.90625 3.8125 36.34375 7.28125 
Q 39.796875 10.75 39.796875 16.3125 
z
M 48.78125 32.421875 
L 48.78125 5.171875 
L 56.78125 5.171875 
L 56.78125 0 
L 39.796875 0 
L 39.796875 5.609375 
Q 36.8125 2 32.90625 0.28125 
Q 29 -1.421875 23.78125 -1.421875 
Q 15.140625 -1.421875 10.0625 3.171875 
Q 4.984375 7.765625 4.984375 15.578125 
Q 4.984375 23.640625 10.796875 28.078125 
Q 16.609375 32.515625 27.203125 32.515625 
L 39.796875 32.515625 
L 39.796875 36.078125 
Q 39.796875 42 36.203125 45.234375 
Q 32.625 48.484375 26.125 48.484375 
Q 20.75 48.484375 17.578125 46.046875 
Q 14.40625 43.609375 13.625 38.8125 
L 8.984375 38.8125 
L 8.984375 49.3125 
Q 13.671875 51.3125 18.09375 52.3125 
Q 22.515625 53.328125 26.703125 53.328125 
Q 37.5 53.328125 43.140625 47.96875 
Q 48.78125 42.625 48.78125 32.421875 
z
" id="DejaVuSerif-97"/>
      <path d="M 51.8125 41.796875 
Q 54.390625 47.515625 58.421875 50.421875 
Q 62.453125 53.328125 67.828125 53.328125 
Q 75.984375 53.328125 79.984375 48.265625 
Q 83.984375 43.21875 83.984375 33.015625 
L 83.984375 5.171875 
L 92.09375 5.171875 
L 92.09375 0 
L 67.1875 0 
L 67.1875 5.171875 
L 75 5.171875 
L 75 31.984375 
Q 75 39.9375 72.65625 43.3125 
Q 70.3125 46.6875 64.890625 46.6875 
Q 58.890625 46.6875 55.734375 42.140625 
Q 52.59375 37.59375 52.59375 28.90625 
L 52.59375 5.171875 
L 60.40625 5.171875 
L 60.40625 0 
L 35.796875 0 
L 35.796875 5.171875 
L 43.609375 5.171875 
L 43.609375 32.328125 
Q 43.609375 40.09375 41.265625 43.390625 
Q 38.921875 46.6875 33.5 46.6875 
Q 27.484375 46.6875 24.328125 42.140625 
Q 21.1875 37.59375 21.1875 28.90625 
L 21.1875 5.171875 
L 29 5.171875 
L 29 0 
L 4.109375 0 
L 4.109375 5.171875 
L 12.203125 5.171875 
L 12.203125 46.78125 
L 3.609375 46.78125 
L 3.609375 51.90625 
L 21.1875 51.90625 
L 21.1875 42.671875 
Q 23.6875 47.859375 27.53125 50.59375 
Q 31.390625 53.328125 36.28125 53.328125 
Q 42.328125 53.328125 46.375 50.3125 
Q 50.4375 47.3125 51.8125 41.796875 
z
" id="DejaVuSerif-109"/>
     </defs>
     <use xlink:href="#DejaVuSerif-80"/>
     <use x="62.785156" xlink:href="#DejaVuSerif-101"/>
     <use x="121.964844" xlink:href="#DejaVuSerif-114"/>
     <use x="169.767578" xlink:href="#DejaVuSerif-105"/>
     <use x="201.75" xlink:href="#DejaVuSerif-111"/>
     <use x="261.955078" xlink:href="#DejaVuSerif-100"/>
     <use x="325.96875" xlink:href="#DejaVuSerif-111"/>
     <use x="386.173828" xlink:href="#DejaVuSerif-103"/>
     <use x="450.1875" xlink:href="#DejaVuSerif-114"/>
     <use x="497.990234" xlink:href="#DejaVuSerif-97"/>
     <use x="557.609375" xlink:href="#DejaVuSerif-109"/>
    </g>
   </g>
   <g id="legend_1">
    <g id="patch_7">
     <path d="M 419.648125 108.123071 
L 454.431875 108.123071 
Q 455.231875 108.123071 455.231875 107.323071 
L 455.231875 84.238071 
Q 455.231875 83.438071 454.431875 83.438071 
L 419.648125 83.438071 
Q 418.848125 83.438071 418.848125 84.238071 
L 418.848125 107.323071 
Q 418.848125 108.123071 419.648125 108.123071 
z
" style="fill:#ffffff;opacity:0.8;stroke:#cccccc;stroke-linejoin:miter;"/>
    </g>
    <g id="line2d_27">
     <path d="M 420.448125 86.677446 
L 428.448125 86.677446 
" style="fill:none;stroke:#808080;stroke-dasharray:5.55,2.4;stroke-dashoffset:0;stroke-width:1.5;"/>
    </g>
    <g id="text_9">
     <!-- 99.9% FAP -->
     <g transform="translate(431.648125 88.077446)scale(0.04 -0.04)">
      <defs>
       <path d="M 46.78125 32.671875 
Q 43.5 29 39.25 27.1875 
Q 35.015625 25.390625 29.6875 25.390625 
Q 18.84375 25.390625 12.5625 31.9375 
Q 6.296875 38.484375 6.296875 49.8125 
Q 6.296875 60.890625 13.109375 67.546875 
Q 19.921875 74.21875 31.296875 74.21875 
Q 43.65625 74.21875 50.265625 65.015625 
Q 56.890625 55.8125 56.890625 38.71875 
Q 56.890625 19.578125 49.015625 9.078125 
Q 41.15625 -1.421875 26.90625 -1.421875 
Q 23.046875 -1.421875 18.796875 -0.6875 
Q 14.546875 0.046875 10.109375 1.515625 
L 10.109375 13.625 
L 15.578125 13.625 
Q 16.21875 8.6875 19.390625 6.046875 
Q 22.5625 3.421875 27.875 3.421875 
Q 37.359375 3.421875 41.984375 10.5625 
Q 46.625 17.71875 46.78125 32.671875 
z
M 30.90625 69.390625 
Q 23.96875 69.390625 20.28125 64.328125 
Q 16.609375 59.28125 16.609375 49.8125 
Q 16.609375 40.328125 20.28125 35.25 
Q 23.96875 30.171875 30.90625 30.171875 
Q 37.84375 30.171875 41.53125 35.078125 
Q 45.21875 39.984375 45.21875 49.21875 
Q 45.21875 58.9375 41.5 64.15625 
Q 37.796875 69.390625 30.90625 69.390625 
z
" id="DejaVuSerif-57"/>
       <path d="M 22.40625 69.671875 
Q 18.109375 69.671875 15.6875 65.625 
Q 13.28125 61.578125 13.28125 54.296875 
Q 13.28125 47.125 15.75 43.015625 
Q 18.21875 38.921875 22.40625 38.921875 
Q 26.5625 38.921875 28.96875 43 
Q 31.390625 47.078125 31.390625 54.296875 
Q 31.390625 61.53125 28.96875 65.59375 
Q 26.5625 69.671875 22.40625 69.671875 
z
M 72.703125 33.890625 
Q 68.453125 33.890625 66.03125 29.78125 
Q 63.625 25.6875 63.625 18.40625 
Q 63.625 11.234375 66.0625 7.15625 
Q 68.5 3.078125 72.703125 3.078125 
Q 76.90625 3.078125 79.296875 7.15625 
Q 81.6875 11.234375 81.6875 18.40625 
Q 81.6875 25.640625 79.265625 29.765625 
Q 76.859375 33.890625 72.703125 33.890625 
z
M 72.703125 38.28125 
Q 80.421875 38.28125 84.953125 32.90625 
Q 89.5 27.546875 89.5 18.40625 
Q 89.5 9.28125 84.9375 3.921875 
Q 80.375 -1.421875 72.703125 -1.421875 
Q 64.890625 -1.421875 60.34375 3.921875 
Q 55.8125 9.28125 55.8125 18.40625 
Q 55.8125 27.59375 60.375 32.9375 
Q 64.9375 38.28125 72.703125 38.28125 
z
M 66.609375 74.21875 
L 74.03125 74.21875 
L 28.421875 -1.421875 
L 21 -1.421875 
z
M 22.3125 74.21875 
Q 30.03125 74.21875 34.609375 68.875 
Q 39.203125 63.53125 39.203125 54.390625 
Q 39.203125 45.171875 34.640625 39.84375 
Q 30.078125 34.515625 22.3125 34.515625 
Q 14.546875 34.515625 10.03125 39.859375 
Q 5.515625 45.21875 5.515625 54.390625 
Q 5.515625 63.484375 10.046875 68.84375 
Q 14.59375 74.21875 22.3125 74.21875 
z
" id="DejaVuSerif-37"/>
       <path d="M 5.515625 0 
L 5.515625 5.171875 
L 14.796875 5.171875 
L 14.796875 67.671875 
L 5.515625 67.671875 
L 5.515625 72.90625 
L 65.1875 72.90625 
L 65.1875 56.6875 
L 59.1875 56.6875 
L 59.1875 66.890625 
L 24.703125 66.890625 
L 24.703125 42.484375 
L 49.609375 42.484375 
L 49.609375 51.609375 
L 55.609375 51.609375 
L 55.609375 27.390625 
L 49.609375 27.390625 
L 49.609375 36.53125 
L 24.703125 36.53125 
L 24.703125 5.171875 
L 36.375 5.171875 
L 36.375 0 
z
" id="DejaVuSerif-70"/>
       <path d="M 20.015625 26.421875 
L 46.78125 26.421875 
L 33.40625 61.078125 
z
M -0.59375 0 
L -0.59375 5.171875 
L 5.8125 5.171875 
L 31.78125 72.90625 
L 39.984375 72.90625 
L 66.015625 5.171875 
L 73.1875 5.171875 
L 73.1875 0 
L 46.6875 0 
L 46.6875 5.171875 
L 54.78125 5.171875 
L 48.6875 21.1875 
L 18.015625 21.1875 
L 11.921875 5.171875 
L 19.921875 5.171875 
L 19.921875 0 
z
" id="DejaVuSerif-65"/>
      </defs>
      <use xlink:href="#DejaVuSerif-57"/>
      <use x="63.623047" xlink:href="#DejaVuSerif-57"/>
      <use x="127.246094" xlink:href="#DejaVuSerif-46"/>
      <use x="159.033203" xlink:href="#DejaVuSerif-57"/>
      <use x="222.65625" xlink:href="#DejaVuSerif-37"/>
      <use x="317.675781" xlink:href="#DejaVuSerif-32"/>
      <use x="349.462891" xlink:href="#DejaVuSerif-70"/>
      <use x="410.097656" xlink:href="#DejaVuSerif-65"/>
      <use x="482.314453" xlink:href="#DejaVuSerif-80"/>
     </g>
    </g>
    <g id="line2d_28">
     <path d="M 420.448125 92.548696 
L 428.448125 92.548696 
" style="fill:none;stroke:#a9a9a9;stroke-dasharray:5.55,2.4;stroke-dashoffset:0;stroke-width:1.5;"/>
    </g>
    <g id="text_10">
     <!-- 99.0% FAP -->
     <g transform="translate(431.648125 93.948696)scale(0.04 -0.04)">
      <use xlink:href="#DejaVuSerif-57"/>
      <use x="63.623047" xlink:href="#DejaVuSerif-57"/>
      <use x="127.246094" xlink:href="#DejaVuSerif-46"/>
      <use x="159.033203" xlink:href="#DejaVuSerif-48"/>
      <use x="222.65625" xlink:href="#DejaVuSerif-37"/>
      <use x="317.675781" xlink:href="#DejaVuSerif-32"/>
      <use x="349.462891" xlink:href="#DejaVuSerif-70"/>
      <use x="410.097656" xlink:href="#DejaVuSerif-65"/>
      <use x="482.314453" xlink:href="#DejaVuSerif-80"/>
     </g>
    </g>
    <g id="line2d_29">
     <path d="M 420.448125 98.419946 
L 428.448125 98.419946 
" style="fill:none;stroke:#c0c0c0;stroke-dasharray:5.55,2.4;stroke-dashoffset:0;stroke-width:1.5;"/>
    </g>
    <g id="text_11">
     <!-- 95.0% FAP -->
     <g transform="translate(431.648125 99.819946)scale(0.04 -0.04)">
      <defs>
       <path d="M 50.296875 72.90625 
L 50.296875 64.890625 
L 16.890625 64.890625 
L 16.890625 44 
Q 19.4375 45.75 22.828125 46.625 
Q 26.21875 47.515625 30.421875 47.515625 
Q 42.234375 47.515625 49.0625 40.96875 
Q 55.90625 34.421875 55.90625 23.09375 
Q 55.90625 11.53125 49 5.046875 
Q 42.09375 -1.421875 29.59375 -1.421875 
Q 24.5625 -1.421875 19.28125 -0.1875 
Q 14.015625 1.03125 8.5 3.515625 
L 8.5 17.671875 
L 14.015625 17.671875 
Q 14.453125 10.75 18.421875 7.078125 
Q 22.40625 3.421875 29.59375 3.421875 
Q 37.3125 3.421875 41.453125 8.5 
Q 45.609375 13.578125 45.609375 23.09375 
Q 45.609375 32.5625 41.484375 37.609375 
Q 37.359375 42.671875 29.59375 42.671875 
Q 25.203125 42.671875 21.84375 41.109375 
Q 18.5 39.546875 15.921875 36.28125 
L 11.71875 36.28125 
L 11.71875 72.90625 
z
" id="DejaVuSerif-53"/>
      </defs>
      <use xlink:href="#DejaVuSerif-57"/>
      <use x="63.623047" xlink:href="#DejaVuSerif-53"/>
      <use x="127.246094" xlink:href="#DejaVuSerif-46"/>
      <use x="159.033203" xlink:href="#DejaVuSerif-48"/>
      <use x="222.65625" xlink:href="#DejaVuSerif-37"/>
      <use x="317.675781" xlink:href="#DejaVuSerif-32"/>
      <use x="349.462891" xlink:href="#DejaVuSerif-70"/>
      <use x="410.097656" xlink:href="#DejaVuSerif-65"/>
      <use x="482.314453" xlink:href="#DejaVuSerif-80"/>
     </g>
    </g>
    <g id="line2d_30">
     <path d="M 420.448125 104.291196 
L 428.448125 104.291196 
" style="fill:none;stroke:#d3d3d3;stroke-dasharray:5.55,2.4;stroke-dashoffset:0;stroke-width:1.5;"/>
    </g>
    <g id="text_12">
     <!-- 90.0% FAP -->
     <g transform="translate(431.648125 105.691196)scale(0.04 -0.04)">
      <use xlink:href="#DejaVuSerif-57"/>
      <use x="63.623047" xlink:href="#DejaVuSerif-48"/>
      <use x="127.246094" xlink:href="#DejaVuSerif-46"/>
      <use x="159.033203" xlink:href="#DejaVuSerif-48"/>
      <use x="222.65625" xlink:href="#DejaVuSerif-37"/>
      <use x="317.675781" xlink:href="#DejaVuSerif-32"/>
      <use x="349.462891" xlink:href="#DejaVuSerif-70"/>
      <use x="410.097656" xlink:href="#DejaVuSerif-65"/>
      <use x="482.314453" xlink:href="#DejaVuSerif-80"/>
     </g>
    </g>
   </g>
  </g>
  <g id="axes_2">
   <g id="patch_8">
    <path d="M 57.6 150.089143 
L 206.4 150.089143 
L 206.4 41.472 
L 57.6 41.472 
z
" style="fill:#ffffff;"/>
   </g>
   <g id="PathCollection_1">
    <defs>
     <path d="M 0 0.707107 
C 0.187527 0.707107 0.367398 0.632602 0.5 0.5 
C 0.632602 0.367398 0.707107 0.187527 0.707107 0 
C 0.707107 -0.187527 0.632602 -0.367398 0.5 -0.5 
C 0.367398 -0.632602 0.187527 -0.707107 0 -0.707107 
C -0.187527 -0.707107 -0.367398 -0.632602 -0.5 -0.5 
C -0.632602 -0.367398 -0.707107 -0.187527 -0.707107 0 
C -0.707107 0.187527 -0.632602 0.367398 -0.5 0.5 
C -0.367398 0.632602 -0.187527 0.707107 0 0.707107 
z
" id="m960b55d21c" style="stroke:#1f77b4;"/>
    </defs>
    <g clip-path="url(#p0369bbcfd8)">
     <use style="fill:#1f77b4;stroke:#1f77b4;" x="107.671624" xlink:href="#m960b55d21c" y="77.710983"/>
     <use style="fill:#1f77b4;stroke:#1f77b4;" x="107.673261" xlink:href="#m960b55d21c" y="67.839733"/>
     <use style="fill:#1f77b4;stroke:#1f77b4;" x="126.409703" xlink:href="#m960b55d21c" y="112.131193"/>
     <use style="fill:#1f77b4;stroke:#1f77b4;" x="126.411341" xlink:href="#m960b55d21c" y="108.942691"/>
     <use style="fill:#1f77b4;stroke:#1f77b4;" x="64.363636" xlink:href="#m960b55d21c" y="68.703517"/>
     <use style="fill:#1f77b4;stroke:#1f77b4;" x="74.86184" xlink:href="#m960b55d21c" y="96.260137"/>
     <use style="fill:#1f77b4;stroke:#1f77b4;" x="74.87322" xlink:href="#m960b55d21c" y="98.74335"/>
     <use style="fill:#1f77b4;stroke:#1f77b4;" x="97.287542" xlink:href="#m960b55d21c" y="111.884408"/>
     <use style="fill:#1f77b4;stroke:#1f77b4;" x="100.820909" xlink:href="#m960b55d21c" y="108.050898"/>
     <use style="fill:#1f77b4;stroke:#1f77b4;" x="100.822505" xlink:href="#m960b55d21c" y="91.191306"/>
     <use style="fill:#1f77b4;stroke:#1f77b4;" x="107.969068" xlink:href="#m960b55d21c" y="63.840818"/>
     <use style="fill:#1f77b4;stroke:#1f77b4;" x="107.970706" xlink:href="#m960b55d21c" y="105.563421"/>
     <use style="fill:#1f77b4;stroke:#1f77b4;" x="114.93108" xlink:href="#m960b55d21c" y="67.127461"/>
     <use style="fill:#1f77b4;stroke:#1f77b4;" x="114.932718" xlink:href="#m960b55d21c" y="77.882049"/>
     <use style="fill:#1f77b4;stroke:#1f77b4;" x="118.433456" xlink:href="#m960b55d21c" y="53.13394"/>
     <use style="fill:#1f77b4;stroke:#1f77b4;" x="118.435094" xlink:href="#m960b55d21c" y="79.620717"/>
     <use style="fill:#1f77b4;stroke:#1f77b4;" x="122.159479" xlink:href="#m960b55d21c" y="93.451626"/>
     <use style="fill:#1f77b4;stroke:#1f77b4;" x="122.161076" xlink:href="#m960b55d21c" y="79.421569"/>
     <use style="fill:#1f77b4;stroke:#1f77b4;" x="125.544075" xlink:href="#m960b55d21c" y="88.315456"/>
     <use style="fill:#1f77b4;stroke:#1f77b4;" x="125.545713" xlink:href="#m960b55d21c" y="65.704239"/>
     <use style="fill:#1f77b4;stroke:#1f77b4;" x="129.07781" xlink:href="#m960b55d21c" y="55.25679"/>
     <use style="fill:#1f77b4;stroke:#1f77b4;" x="129.079406" xlink:href="#m960b55d21c" y="71.85416"/>
     <use style="fill:#1f77b4;stroke:#1f77b4;" x="91.507763" xlink:href="#m960b55d21c" y="97.027104"/>
     <use style="fill:#1f77b4;stroke:#1f77b4;" x="116.065128" xlink:href="#m960b55d21c" y="62.135745"/>
     <use style="fill:#1f77b4;stroke:#1f77b4;" x="119.586131" xlink:href="#m960b55d21c" y="46.409143"/>
     <use style="fill:#1f77b4;stroke:#1f77b4;" x="123.124041" xlink:href="#m960b55d21c" y="107.058172"/>
     <use style="fill:#1f77b4;stroke:#1f77b4;" x="126.654624" xlink:href="#m960b55d21c" y="94.752816"/>
     <use style="fill:#1f77b4;stroke:#1f77b4;" x="130.206618" xlink:href="#m960b55d21c" y="94.065758"/>
     <use style="fill:#1f77b4;stroke:#1f77b4;" x="103.27507" xlink:href="#m960b55d21c" y="116.685356"/>
     <use style="fill:#1f77b4;stroke:#1f77b4;" x="64.968334" xlink:href="#m960b55d21c" y="86.432407"/>
     <use style="fill:#1f77b4;stroke:#1f77b4;" x="69.021497" xlink:href="#m960b55d21c" y="100.229647"/>
     <use style="fill:#1f77b4;stroke:#1f77b4;" x="72.623845" xlink:href="#m960b55d21c" y="94.312543"/>
     <use style="fill:#1f77b4;stroke:#1f77b4;" x="97.310617" xlink:href="#m960b55d21c" y="130.360637"/>
     <use style="fill:#1f77b4;stroke:#1f77b4;" x="107.989604" xlink:href="#m960b55d21c" y="87.677506"/>
     <use style="fill:#1f77b4;stroke:#1f77b4;" x="109.889417" xlink:href="#m960b55d21c" y="60.230274"/>
     <use style="fill:#1f77b4;stroke:#1f77b4;" x="124.037702" xlink:href="#m960b55d21c" y="89.149761"/>
     <use style="fill:#1f77b4;stroke:#1f77b4;" x="89.95255" xlink:href="#m960b55d21c" y="99.758499"/>
     <use style="fill:#1f77b4;stroke:#1f77b4;" x="66.191919" xlink:href="#m960b55d21c" y="101.971109"/>
     <use style="fill:#1f77b4;stroke:#1f77b4;" x="65.610568" xlink:href="#m960b55d21c" y="81.276683"/>
     <use style="fill:#1f77b4;stroke:#1f77b4;" x="70.279415" xlink:href="#m960b55d21c" y="86.170185"/>
     <use style="fill:#1f77b4;stroke:#1f77b4;" x="70.281012" xlink:href="#m960b55d21c" y="87.326993"/>
     <use style="fill:#1f77b4;stroke:#1f77b4;" x="73.726196" xlink:href="#m960b55d21c" y="129.795538"/>
     <use style="fill:#1f77b4;stroke:#1f77b4;" x="73.727793" xlink:href="#m960b55d21c" y="138.138442"/>
     <use style="fill:#1f77b4;stroke:#1f77b4;" x="77.110751" xlink:href="#m960b55d21c" y="131.537074"/>
     <use style="fill:#1f77b4;stroke:#1f77b4;" x="77.112348" xlink:href="#m960b55d21c" y="145.152"/>
    </g>
   </g>
   <g id="PathCollection_2">
    <g clip-path="url(#p0369bbcfd8)">
     <use style="fill:#1f77b4;stroke:#1f77b4;" x="177.10137" xlink:href="#m960b55d21c" y="77.710983"/>
     <use style="fill:#1f77b4;stroke:#1f77b4;" x="177.103007" xlink:href="#m960b55d21c" y="67.839733"/>
     <use style="fill:#1f77b4;stroke:#1f77b4;" x="195.83945" xlink:href="#m960b55d21c" y="112.131193"/>
     <use style="fill:#1f77b4;stroke:#1f77b4;" x="195.841087" xlink:href="#m960b55d21c" y="108.942691"/>
     <use style="fill:#1f77b4;stroke:#1f77b4;" x="133.793382" xlink:href="#m960b55d21c" y="68.703517"/>
     <use style="fill:#1f77b4;stroke:#1f77b4;" x="144.291586" xlink:href="#m960b55d21c" y="96.260137"/>
     <use style="fill:#1f77b4;stroke:#1f77b4;" x="144.302966" xlink:href="#m960b55d21c" y="98.74335"/>
     <use style="fill:#1f77b4;stroke:#1f77b4;" x="166.717288" xlink:href="#m960b55d21c" y="111.884408"/>
     <use style="fill:#1f77b4;stroke:#1f77b4;" x="170.250655" xlink:href="#m960b55d21c" y="108.050898"/>
     <use style="fill:#1f77b4;stroke:#1f77b4;" x="170.252252" xlink:href="#m960b55d21c" y="91.191306"/>
     <use style="fill:#1f77b4;stroke:#1f77b4;" x="177.398815" xlink:href="#m960b55d21c" y="63.840818"/>
     <use style="fill:#1f77b4;stroke:#1f77b4;" x="177.400452" xlink:href="#m960b55d21c" y="105.563421"/>
     <use style="fill:#1f77b4;stroke:#1f77b4;" x="184.360826" xlink:href="#m960b55d21c" y="67.127461"/>
     <use style="fill:#1f77b4;stroke:#1f77b4;" x="184.362464" xlink:href="#m960b55d21c" y="77.882049"/>
     <use style="fill:#1f77b4;stroke:#1f77b4;" x="187.863202" xlink:href="#m960b55d21c" y="53.13394"/>
     <use style="fill:#1f77b4;stroke:#1f77b4;" x="187.86484" xlink:href="#m960b55d21c" y="79.620717"/>
     <use style="fill:#1f77b4;stroke:#1f77b4;" x="191.589225" xlink:href="#m960b55d21c" y="93.451626"/>
     <use style="fill:#1f77b4;stroke:#1f77b4;" x="191.590822" xlink:href="#m960b55d21c" y="79.421569"/>
     <use style="fill:#1f77b4;stroke:#1f77b4;" x="194.973821" xlink:href="#m960b55d21c" y="88.315456"/>
     <use style="fill:#1f77b4;stroke:#1f77b4;" x="194.975459" xlink:href="#m960b55d21c" y="65.704239"/>
     <use style="fill:#1f77b4;stroke:#1f77b4;" x="198.507556" xlink:href="#m960b55d21c" y="55.25679"/>
     <use style="fill:#1f77b4;stroke:#1f77b4;" x="198.509153" xlink:href="#m960b55d21c" y="71.85416"/>
     <use style="fill:#1f77b4;stroke:#1f77b4;" x="160.937509" xlink:href="#m960b55d21c" y="97.027104"/>
     <use style="fill:#1f77b4;stroke:#1f77b4;" x="185.494874" xlink:href="#m960b55d21c" y="62.135745"/>
     <use style="fill:#1f77b4;stroke:#1f77b4;" x="189.015877" xlink:href="#m960b55d21c" y="46.409143"/>
     <use style="fill:#1f77b4;stroke:#1f77b4;" x="192.553788" xlink:href="#m960b55d21c" y="107.058172"/>
     <use style="fill:#1f77b4;stroke:#1f77b4;" x="196.08437" xlink:href="#m960b55d21c" y="94.752816"/>
     <use style="fill:#1f77b4;stroke:#1f77b4;" x="199.636364" xlink:href="#m960b55d21c" y="94.065758"/>
     <use style="fill:#1f77b4;stroke:#1f77b4;" x="172.704816" xlink:href="#m960b55d21c" y="116.685356"/>
     <use style="fill:#1f77b4;stroke:#1f77b4;" x="134.39808" xlink:href="#m960b55d21c" y="86.432407"/>
     <use style="fill:#1f77b4;stroke:#1f77b4;" x="138.451243" xlink:href="#m960b55d21c" y="100.229647"/>
     <use style="fill:#1f77b4;stroke:#1f77b4;" x="142.053591" xlink:href="#m960b55d21c" y="94.312543"/>
     <use style="fill:#1f77b4;stroke:#1f77b4;" x="166.740363" xlink:href="#m960b55d21c" y="130.360637"/>
     <use style="fill:#1f77b4;stroke:#1f77b4;" x="177.419351" xlink:href="#m960b55d21c" y="87.677506"/>
     <use style="fill:#1f77b4;stroke:#1f77b4;" x="179.319163" xlink:href="#m960b55d21c" y="60.230274"/>
     <use style="fill:#1f77b4;stroke:#1f77b4;" x="193.467448" xlink:href="#m960b55d21c" y="89.149761"/>
     <use style="fill:#1f77b4;stroke:#1f77b4;" x="159.382297" xlink:href="#m960b55d21c" y="99.758499"/>
     <use style="fill:#1f77b4;stroke:#1f77b4;" x="135.621665" xlink:href="#m960b55d21c" y="101.971109"/>
     <use style="fill:#1f77b4;stroke:#1f77b4;" x="135.040314" xlink:href="#m960b55d21c" y="81.276683"/>
     <use style="fill:#1f77b4;stroke:#1f77b4;" x="139.709161" xlink:href="#m960b55d21c" y="86.170185"/>
     <use style="fill:#1f77b4;stroke:#1f77b4;" x="139.710758" xlink:href="#m960b55d21c" y="87.326993"/>
     <use style="fill:#1f77b4;stroke:#1f77b4;" x="143.155943" xlink:href="#m960b55d21c" y="129.795538"/>
     <use style="fill:#1f77b4;stroke:#1f77b4;" x="143.157539" xlink:href="#m960b55d21c" y="138.138442"/>
     <use style="fill:#1f77b4;stroke:#1f77b4;" x="146.540497" xlink:href="#m960b55d21c" y="131.537074"/>
     <use style="fill:#1f77b4;stroke:#1f77b4;" x="146.542094" xlink:href="#m960b55d21c" y="145.152"/>
    </g>
   </g>
   <g id="matplotlib.axis_3">
    <g id="xtick_23">
     <g id="line2d_31">
      <g>
       <use style="stroke:#000000;stroke-width:0.8;" x="63.783816" xlink:href="#mff8d89c0e1" y="150.089143"/>
      </g>
     </g>
     <g id="text_13">
      <!-- 0 -->
      <g transform="translate(60.602566 164.68758)scale(0.1 -0.1)">
       <use xlink:href="#DejaVuSerif-48"/>
      </g>
     </g>
    </g>
    <g id="xtick_24">
     <g id="line2d_32">
      <g>
       <use style="stroke:#000000;stroke-width:0.8;" x="133.213562" xlink:href="#mff8d89c0e1" y="150.089143"/>
      </g>
     </g>
     <g id="text_14">
      <!-- 1 -->
      <g transform="translate(130.032312 164.68758)scale(0.1 -0.1)">
       <use xlink:href="#DejaVuSerif-49"/>
      </g>
     </g>
    </g>
    <g id="xtick_25">
     <g id="line2d_33">
      <g>
       <use style="stroke:#000000;stroke-width:0.8;" x="202.643308" xlink:href="#mff8d89c0e1" y="150.089143"/>
      </g>
     </g>
     <g id="text_15">
      <!-- 2 -->
      <g transform="translate(199.462058 164.68758)scale(0.1 -0.1)">
       <use xlink:href="#DejaVuSerif-50"/>
      </g>
     </g>
    </g>
    <g id="text_16">
     <!-- Phase (P = 19.629 d) -->
     <g transform="translate(78.401562 178.365705)scale(0.1 -0.1)">
      <defs>
       <path d="M 4.109375 0 
L 4.109375 5.171875 
L 12.203125 5.171875 
L 12.203125 70.796875 
L 3.609375 70.796875 
L 3.609375 75.984375 
L 21.1875 75.984375 
L 21.1875 42.671875 
Q 23.6875 47.953125 27.65625 50.640625 
Q 31.640625 53.328125 36.921875 53.328125 
Q 45.515625 53.328125 49.5625 48.390625 
Q 53.609375 43.453125 53.609375 33.015625 
L 53.609375 5.171875 
L 61.625 5.171875 
L 61.625 0 
L 36.8125 0 
L 36.8125 5.171875 
L 44.578125 5.171875 
L 44.578125 30.171875 
Q 44.578125 39.703125 42.25 43.1875 
Q 39.9375 46.6875 33.984375 46.6875 
Q 27.734375 46.6875 24.453125 42.140625 
Q 21.1875 37.59375 21.1875 28.90625 
L 21.1875 5.171875 
L 29 5.171875 
L 29 0 
z
" id="DejaVuSerif-104"/>
       <path d="M 5.609375 2.875 
L 5.609375 14.984375 
L 10.796875 14.984375 
Q 10.984375 9.1875 14.421875 6.296875 
Q 17.875 3.421875 24.609375 3.421875 
Q 30.671875 3.421875 33.84375 5.6875 
Q 37.015625 7.953125 37.015625 12.3125 
Q 37.015625 15.71875 34.6875 17.8125 
Q 32.375 19.921875 24.90625 22.3125 
L 18.40625 24.515625 
Q 11.71875 26.65625 8.71875 29.875 
Q 5.71875 33.109375 5.71875 38.09375 
Q 5.71875 45.21875 10.9375 49.265625 
Q 16.15625 53.328125 25.390625 53.328125 
Q 29.5 53.328125 34.03125 52.25 
Q 38.578125 51.171875 43.40625 49.125 
L 43.40625 37.796875 
L 38.234375 37.796875 
Q 38.03125 42.828125 34.703125 45.65625 
Q 31.390625 48.484375 25.6875 48.484375 
Q 20.015625 48.484375 17.109375 46.484375 
Q 14.203125 44.484375 14.203125 40.484375 
Q 14.203125 37.203125 16.40625 35.21875 
Q 18.609375 33.25 25.203125 31.203125 
L 32.328125 29 
Q 39.703125 26.703125 42.9375 23.265625 
Q 46.1875 19.828125 46.1875 14.40625 
Q 46.1875 7.03125 40.546875 2.796875 
Q 34.90625 -1.421875 25 -1.421875 
Q 19.96875 -1.421875 15.1875 -0.34375 
Q 10.40625 0.734375 5.609375 2.875 
z
" id="DejaVuSerif-115"/>
       <path d="M 31.890625 -15.578125 
Q 20.015625 -10.25 13.953125 1.296875 
Q 7.90625 12.84375 7.90625 30.171875 
Q 7.90625 47.5625 13.953125 59.109375 
Q 20.015625 70.65625 31.890625 75.984375 
L 31.890625 71.1875 
Q 24.359375 66.015625 21.09375 56.609375 
Q 17.828125 47.21875 17.828125 30.171875 
Q 17.828125 13.1875 21.09375 3.78125 
Q 24.359375 -5.609375 31.890625 -10.796875 
z
" id="DejaVuSerif-40"/>
       <path d="M 10.59375 45.21875 
L 73.1875 45.21875 
L 73.1875 37.40625 
L 10.59375 37.40625 
z
M 10.59375 25.296875 
L 73.1875 25.296875 
L 73.1875 17.484375 
L 10.59375 17.484375 
z
" id="DejaVuSerif-61"/>
       <path d="M 32.71875 3.421875 
Q 39.59375 3.421875 43.296875 8.46875 
Q 47.015625 13.53125 47.015625 23 
Q 47.015625 32.46875 43.296875 37.515625 
Q 39.59375 42.578125 32.71875 42.578125 
Q 25.734375 42.578125 22.0625 37.6875 
Q 18.40625 32.8125 18.40625 23.578125 
Q 18.40625 13.875 22.109375 8.640625 
Q 25.828125 3.421875 32.71875 3.421875 
z
M 16.796875 40.140625 
Q 20.125 43.796875 24.3125 45.59375 
Q 28.515625 47.40625 33.796875 47.40625 
Q 44.671875 47.40625 51 40.859375 
Q 57.328125 34.328125 57.328125 23 
Q 57.328125 11.921875 50.515625 5.25 
Q 43.703125 -1.421875 32.328125 -1.421875 
Q 19.96875 -1.421875 13.328125 7.78125 
Q 6.6875 17 6.6875 34.078125 
Q 6.6875 53.21875 14.546875 63.71875 
Q 22.40625 74.21875 36.71875 74.21875 
Q 40.578125 74.21875 44.828125 73.484375 
Q 49.078125 72.75 53.515625 71.296875 
L 53.515625 59.28125 
L 48 59.28125 
Q 47.40625 64.203125 44.234375 66.796875 
Q 41.0625 69.390625 35.6875 69.390625 
Q 26.21875 69.390625 21.578125 62.203125 
Q 16.9375 55.03125 16.796875 40.140625 
z
" id="DejaVuSerif-54"/>
       <path d="M 7.078125 -15.578125 
L 7.078125 -10.796875 
Q 14.59375 -5.609375 17.890625 3.78125 
Q 21.1875 13.1875 21.1875 30.171875 
Q 21.1875 47.21875 17.890625 56.609375 
Q 14.59375 66.015625 7.078125 71.1875 
L 7.078125 75.984375 
Q 19 70.65625 25.046875 59.109375 
Q 31.109375 47.5625 31.109375 30.171875 
Q 31.109375 12.84375 25.046875 1.296875 
Q 19 -10.25 7.078125 -15.578125 
z
" id="DejaVuSerif-41"/>
      </defs>
      <use xlink:href="#DejaVuSerif-80"/>
      <use x="67.285156" xlink:href="#DejaVuSerif-104"/>
      <use x="131.689453" xlink:href="#DejaVuSerif-97"/>
      <use x="191.308594" xlink:href="#DejaVuSerif-115"/>
      <use x="242.626953" xlink:href="#DejaVuSerif-101"/>
      <use x="301.806641" xlink:href="#DejaVuSerif-32"/>
      <use x="333.59375" xlink:href="#DejaVuSerif-40"/>
      <use x="372.607422" xlink:href="#DejaVuSerif-80"/>
      <use x="439.892578" xlink:href="#DejaVuSerif-32"/>
      <use x="471.679688" xlink:href="#DejaVuSerif-61"/>
      <use x="555.46875" xlink:href="#DejaVuSerif-32"/>
      <use x="587.255859" xlink:href="#DejaVuSerif-49"/>
      <use x="650.878906" xlink:href="#DejaVuSerif-57"/>
      <use x="714.501953" xlink:href="#DejaVuSerif-46"/>
      <use x="746.289062" xlink:href="#DejaVuSerif-54"/>
      <use x="809.912109" xlink:href="#DejaVuSerif-50"/>
      <use x="873.535156" xlink:href="#DejaVuSerif-57"/>
      <use x="937.158203" xlink:href="#DejaVuSerif-32"/>
      <use x="968.945312" xlink:href="#DejaVuSerif-100"/>
      <use x="1032.958984" xlink:href="#DejaVuSerif-41"/>
     </g>
    </g>
   </g>
   <g id="matplotlib.axis_4">
    <g id="ytick_4">
     <g id="line2d_34">
      <g>
       <use style="stroke:#000000;stroke-width:0.8;" x="57.6" xlink:href="#m6cf7ade264" y="47.977333"/>
      </g>
     </g>
     <g id="text_17">
      <!-- 16.80 -->
      <g transform="translate(21.971875 51.776552)scale(0.1 -0.1)">
       <defs>
        <path d="M 46.578125 19.921875 
Q 46.578125 27.734375 42.6875 32.046875 
Q 38.8125 36.375 31.78125 36.375 
Q 24.75 36.375 20.875 32.046875 
Q 17 27.734375 17 19.921875 
Q 17 12.0625 20.875 7.734375 
Q 24.75 3.421875 31.78125 3.421875 
Q 38.8125 3.421875 42.6875 7.734375 
Q 46.578125 12.0625 46.578125 19.921875 
z
M 44.578125 55.328125 
Q 44.578125 61.96875 41.203125 65.671875 
Q 37.84375 69.390625 31.78125 69.390625 
Q 25.78125 69.390625 22.390625 65.671875 
Q 19 61.96875 19 55.328125 
Q 19 48.640625 22.390625 44.921875 
Q 25.78125 41.21875 31.78125 41.21875 
Q 37.84375 41.21875 41.203125 44.921875 
Q 44.578125 48.640625 44.578125 55.328125 
z
M 39.3125 38.8125 
Q 47.609375 37.703125 52.25 32.6875 
Q 56.890625 27.6875 56.890625 19.921875 
Q 56.890625 9.671875 50.390625 4.125 
Q 43.890625 -1.421875 31.78125 -1.421875 
Q 19.734375 -1.421875 13.203125 4.125 
Q 6.6875 9.671875 6.6875 19.921875 
Q 6.6875 27.6875 11.328125 32.6875 
Q 15.96875 37.703125 24.3125 38.8125 
Q 16.9375 40.140625 13 44.40625 
Q 9.078125 48.6875 9.078125 55.328125 
Q 9.078125 64.109375 15.125 69.15625 
Q 21.1875 74.21875 31.78125 74.21875 
Q 42.390625 74.21875 48.4375 69.15625 
Q 54.5 64.109375 54.5 55.328125 
Q 54.5 48.6875 50.5625 44.40625 
Q 46.625 40.140625 39.3125 38.8125 
z
" id="DejaVuSerif-56"/>
       </defs>
       <use xlink:href="#DejaVuSerif-49"/>
       <use x="63.623047" xlink:href="#DejaVuSerif-54"/>
       <use x="127.246094" xlink:href="#DejaVuSerif-46"/>
       <use x="159.033203" xlink:href="#DejaVuSerif-56"/>
       <use x="222.65625" xlink:href="#DejaVuSerif-48"/>
      </g>
     </g>
    </g>
    <g id="ytick_5">
     <g id="line2d_35">
      <g>
       <use style="stroke:#000000;stroke-width:0.8;" x="57.6" xlink:href="#m6cf7ade264" y="84.734098"/>
      </g>
     </g>
     <g id="text_18">
      <!-- 16.85 -->
      <g transform="translate(21.971875 88.533317)scale(0.1 -0.1)">
       <use xlink:href="#DejaVuSerif-49"/>
       <use x="63.623047" xlink:href="#DejaVuSerif-54"/>
       <use x="127.246094" xlink:href="#DejaVuSerif-46"/>
       <use x="159.033203" xlink:href="#DejaVuSerif-56"/>
       <use x="222.65625" xlink:href="#DejaVuSerif-53"/>
      </g>
     </g>
    </g>
    <g id="ytick_6">
     <g id="line2d_36">
      <g>
       <use style="stroke:#000000;stroke-width:0.8;" x="57.6" xlink:href="#m6cf7ade264" y="121.490862"/>
      </g>
     </g>
     <g id="text_19">
      <!-- 16.90 -->
      <g transform="translate(21.971875 125.290081)scale(0.1 -0.1)">
       <use xlink:href="#DejaVuSerif-49"/>
       <use x="63.623047" xlink:href="#DejaVuSerif-54"/>
       <use x="127.246094" xlink:href="#DejaVuSerif-46"/>
       <use x="159.033203" xlink:href="#DejaVuSerif-57"/>
       <use x="222.65625" xlink:href="#DejaVuSerif-48"/>
      </g>
     </g>
    </g>
    <g id="text_20">
     <!-- Mag -->
     <g transform="translate(15.75 107.082134)rotate(-90)scale(0.1 -0.1)">
      <defs>
       <path d="M 5.515625 0 
L 5.515625 5.171875 
L 14.796875 5.171875 
L 14.796875 67.671875 
L 4.984375 67.671875 
L 4.984375 72.90625 
L 26.21875 72.90625 
L 51.8125 21 
L 77.390625 72.90625 
L 97.3125 72.90625 
L 97.3125 67.671875 
L 87.59375 67.671875 
L 87.59375 5.171875 
L 96.921875 5.171875 
L 96.921875 0 
L 68.40625 0 
L 68.40625 5.171875 
L 77.6875 5.171875 
L 77.6875 61.53125 
L 52.6875 10.6875 
L 45.796875 10.6875 
L 20.796875 61.53125 
L 20.796875 5.171875 
L 30.078125 5.171875 
L 30.078125 0 
z
" id="DejaVuSerif-77"/>
      </defs>
      <use xlink:href="#DejaVuSerif-77"/>
      <use x="102.392578" xlink:href="#DejaVuSerif-97"/>
      <use x="162.011719" xlink:href="#DejaVuSerif-103"/>
     </g>
    </g>
   </g>
   <g id="patch_9">
    <path d="M 57.6 150.089143 
L 57.6 41.472 
" style="fill:none;stroke:#000000;stroke-linecap:square;stroke-linejoin:miter;stroke-width:0.8;"/>
   </g>
   <g id="patch_10">
    <path d="M 206.4 150.089143 
L 206.4 41.472 
" style="fill:none;stroke:#000000;stroke-linecap:square;stroke-linejoin:miter;stroke-width:0.8;"/>
   </g>
   <g id="patch_11">
    <path d="M 57.6 150.089143 
L 206.4 150.089143 
" style="fill:none;stroke:#000000;stroke-linecap:square;stroke-linejoin:miter;stroke-width:0.8;"/>
   </g>
   <g id="patch_12">
    <path d="M 57.6 41.472 
L 206.4 41.472 
" style="fill:none;stroke:#000000;stroke-linecap:square;stroke-linejoin:miter;stroke-width:0.8;"/>
   </g>
   <g id="text_21">
    <!-- Folded Light Curve -->
    <g transform="translate(83.086719 35.472)scale(0.1 -0.1)">
     <defs>
      <path d="M 20.515625 5.171875 
L 29 5.171875 
L 29 0 
L 2.875 0 
L 2.875 5.171875 
L 11.53125 5.171875 
L 11.53125 70.796875 
L 2.875 70.796875 
L 2.875 75.984375 
L 20.515625 75.984375 
z
" id="DejaVuSerif-108"/>
      <path d="M 5.515625 0 
L 5.515625 5.171875 
L 14.796875 5.171875 
L 14.796875 67.671875 
L 5.515625 67.671875 
L 5.515625 72.90625 
L 33.984375 72.90625 
L 33.984375 67.671875 
L 24.703125 67.671875 
L 24.703125 6 
L 58.015625 6 
L 58.015625 18.21875 
L 64.015625 18.21875 
L 64.015625 0 
z
" id="DejaVuSerif-76"/>
      <path d="M 10.796875 46.6875 
L 2.875 46.6875 
L 2.875 51.90625 
L 10.796875 51.90625 
L 10.796875 68.015625 
L 19.828125 68.015625 
L 19.828125 51.90625 
L 36.71875 51.90625 
L 36.71875 46.6875 
L 19.828125 46.6875 
L 19.828125 13.71875 
Q 19.828125 7.125 21.09375 5.265625 
Q 22.359375 3.421875 25.78125 3.421875 
Q 29.296875 3.421875 30.90625 5.484375 
Q 32.515625 7.5625 32.625 12.203125 
L 39.40625 12.203125 
Q 39.015625 5.125 35.546875 1.84375 
Q 32.078125 -1.421875 25 -1.421875 
Q 17.234375 -1.421875 14.015625 2.015625 
Q 10.796875 5.46875 10.796875 13.71875 
z
" id="DejaVuSerif-116"/>
      <path d="M 70.515625 19.28125 
Q 67.28125 9.078125 59.6875 3.828125 
Q 52.09375 -1.421875 40.484375 -1.421875 
Q 33.34375 -1.421875 27.234375 1.015625 
Q 21.140625 3.46875 16.40625 8.203125 
Q 10.9375 13.671875 8.265625 20.625 
Q 5.609375 27.59375 5.609375 36.375 
Q 5.609375 53.375 15.421875 63.796875 
Q 25.25 74.21875 41.3125 74.21875 
Q 47.265625 74.21875 54 72.65625 
Q 60.75 71.09375 68.5 67.921875 
L 68.5 51.125 
L 62.984375 51.125 
Q 61.1875 60.296875 55.734375 64.640625 
Q 50.296875 69 40.484375 69 
Q 28.8125 69 22.796875 60.71875 
Q 16.796875 52.4375 16.796875 36.375 
Q 16.796875 20.359375 22.796875 12.078125 
Q 28.8125 3.8125 40.484375 3.8125 
Q 48.640625 3.8125 53.90625 7.6875 
Q 59.1875 11.578125 61.53125 19.28125 
z
" id="DejaVuSerif-67"/>
      <path d="M 35.40625 51.90625 
L 52.203125 51.90625 
L 52.203125 5.171875 
L 60.6875 5.171875 
L 60.6875 0 
L 43.21875 0 
L 43.21875 9.1875 
Q 40.71875 4 36.765625 1.28125 
Q 32.8125 -1.421875 27.59375 -1.421875 
Q 18.953125 -1.421875 14.875 3.484375 
Q 10.796875 8.40625 10.796875 18.890625 
L 10.796875 46.6875 
L 2.6875 46.6875 
L 2.6875 51.90625 
L 19.828125 51.90625 
L 19.828125 21.6875 
Q 19.828125 12.203125 22.140625 8.6875 
Q 24.46875 5.171875 30.421875 5.171875 
Q 36.671875 5.171875 39.9375 9.765625 
Q 43.21875 14.359375 43.21875 23.09375 
L 43.21875 46.6875 
L 35.40625 46.6875 
z
" id="DejaVuSerif-117"/>
      <path d="M 24.703125 0 
L 5.609375 46.6875 
L -0.296875 46.6875 
L -0.296875 51.90625 
L 23.578125 51.90625 
L 23.578125 46.6875 
L 15.28125 46.6875 
L 29.890625 10.984375 
L 44.484375 46.6875 
L 36.71875 46.6875 
L 36.71875 51.90625 
L 56.203125 51.90625 
L 56.203125 46.6875 
L 50.390625 46.6875 
L 31.296875 0 
z
" id="DejaVuSerif-118"/>
     </defs>
     <use xlink:href="#DejaVuSerif-70"/>
     <use x="63.884766" xlink:href="#DejaVuSerif-111"/>
     <use x="124.089844" xlink:href="#DejaVuSerif-108"/>
     <use x="156.072266" xlink:href="#DejaVuSerif-100"/>
     <use x="220.085938" xlink:href="#DejaVuSerif-101"/>
     <use x="279.265625" xlink:href="#DejaVuSerif-100"/>
     <use x="343.279297" xlink:href="#DejaVuSerif-32"/>
     <use x="375.066406" xlink:href="#DejaVuSerif-76"/>
     <use x="441.472656" xlink:href="#DejaVuSerif-105"/>
     <use x="473.455078" xlink:href="#DejaVuSerif-103"/>
     <use x="537.46875" xlink:href="#DejaVuSerif-104"/>
     <use x="601.873047" xlink:href="#DejaVuSerif-116"/>
     <use x="642.058594" xlink:href="#DejaVuSerif-32"/>
     <use x="673.845703" xlink:href="#DejaVuSerif-67"/>
     <use x="750.359375" xlink:href="#DejaVuSerif-117"/>
     <use x="814.763672" xlink:href="#DejaVuSerif-114"/>
     <use x="862.566406" xlink:href="#DejaVuSerif-118"/>
     <use x="919.060547" xlink:href="#DejaVuSerif-101"/>
    </g>
   </g>
  </g>
  <g id="axes_3">
   <g id="patch_13">
    <path d="M 57.6 307.584 
L 414.72 307.584 
L 414.72 198.966857 
L 57.6 198.966857 
z
" style="fill:#ffffff;"/>
   </g>
   <g id="PathCollection_3">
    <g clip-path="url(#pc6b9f914b7)">
     <use style="fill:#1f77b4;stroke:#1f77b4;" x="73.832727" xlink:href="#m960b55d21c" y="239.176585"/>
     <use style="fill:#1f77b4;stroke:#1f77b4;" x="73.833119" xlink:href="#m960b55d21c" y="231.566925"/>
     <use style="fill:#1f77b4;stroke:#1f77b4;" x="94.910293" xlink:href="#m960b55d21c" y="265.710823"/>
     <use style="fill:#1f77b4;stroke:#1f77b4;" x="94.910684" xlink:href="#m960b55d21c" y="263.252834"/>
     <use style="fill:#1f77b4;stroke:#1f77b4;" x="96.675449" xlink:href="#m960b55d21c" y="232.232809"/>
     <use style="fill:#1f77b4;stroke:#1f77b4;" x="99.185169" xlink:href="#m960b55d21c" y="253.475965"/>
     <use style="fill:#1f77b4;stroke:#1f77b4;" x="99.18789" xlink:href="#m960b55d21c" y="255.390252"/>
     <use style="fill:#1f77b4;stroke:#1f77b4;" x="121.144305" xlink:href="#m960b55d21c" y="265.520578"/>
     <use style="fill:#1f77b4;stroke:#1f77b4;" x="121.988998" xlink:href="#m960b55d21c" y="262.565359"/>
     <use style="fill:#1f77b4;stroke:#1f77b4;" x="121.98938" xlink:href="#m960b55d21c" y="249.568447"/>
     <use style="fill:#1f77b4;stroke:#1f77b4;" x="123.69785" xlink:href="#m960b55d21c" y="228.484197"/>
     <use style="fill:#1f77b4;stroke:#1f77b4;" x="123.698242" xlink:href="#m960b55d21c" y="260.647785"/>
     <use style="fill:#1f77b4;stroke:#1f77b4;" x="125.362202" xlink:href="#m960b55d21c" y="231.017841"/>
     <use style="fill:#1f77b4;stroke:#1f77b4;" x="125.362594" xlink:href="#m960b55d21c" y="239.308458"/>
     <use style="fill:#1f77b4;stroke:#1f77b4;" x="126.199487" xlink:href="#m960b55d21c" y="220.230359"/>
     <use style="fill:#1f77b4;stroke:#1f77b4;" x="126.199878" xlink:href="#m960b55d21c" y="240.648783"/>
     <use style="fill:#1f77b4;stroke:#1f77b4;" x="127.090237" xlink:href="#m960b55d21c" y="251.310909"/>
     <use style="fill:#1f77b4;stroke:#1f77b4;" x="127.090618" xlink:href="#m960b55d21c" y="240.495261"/>
     <use style="fill:#1f77b4;stroke:#1f77b4;" x="127.899364" xlink:href="#m960b55d21c" y="247.351481"/>
     <use style="fill:#1f77b4;stroke:#1f77b4;" x="127.899756" xlink:href="#m960b55d21c" y="229.920692"/>
     <use style="fill:#1f77b4;stroke:#1f77b4;" x="128.744146" xlink:href="#m960b55d21c" y="221.866845"/>
     <use style="fill:#1f77b4;stroke:#1f77b4;" x="128.744527" xlink:href="#m960b55d21c" y="234.661612"/>
     <use style="fill:#1f77b4;stroke:#1f77b4;" x="136.360585" xlink:href="#m960b55d21c" y="254.067213"/>
     <use style="fill:#1f77b4;stroke:#1f77b4;" x="142.231315" xlink:href="#m960b55d21c" y="227.169771"/>
     <use style="fill:#1f77b4;stroke:#1f77b4;" x="143.073052" xlink:href="#m960b55d21c" y="215.046272"/>
     <use style="fill:#1f77b4;stroke:#1f77b4;" x="143.918832" xlink:href="#m960b55d21c" y="261.800075"/>
     <use style="fill:#1f77b4;stroke:#1f77b4;" x="144.76286" xlink:href="#m960b55d21c" y="252.313984"/>
     <use style="fill:#1f77b4;stroke:#1f77b4;" x="145.612006" xlink:href="#m960b55d21c" y="251.784338"/>
     <use style="fill:#1f77b4;stroke:#1f77b4;" x="155.771705" xlink:href="#m960b55d21c" y="269.221587"/>
     <use style="fill:#1f77b4;stroke:#1f77b4;" x="163.21203" xlink:href="#m960b55d21c" y="245.899855"/>
     <use style="fill:#1f77b4;stroke:#1f77b4;" x="164.180987" xlink:href="#m960b55d21c" y="256.536025"/>
     <use style="fill:#1f77b4;stroke:#1f77b4;" x="165.042171" xlink:href="#m960b55d21c" y="251.974582"/>
     <use style="fill:#1f77b4;stroke:#1f77b4;" x="170.943837" xlink:href="#m960b55d21c" y="279.763741"/>
     <use style="fill:#1f77b4;stroke:#1f77b4;" x="173.496775" xlink:href="#m960b55d21c" y="246.85969"/>
     <use style="fill:#1f77b4;stroke:#1f77b4;" x="207.146958" xlink:href="#m960b55d21c" y="225.700861"/>
     <use style="fill:#1f77b4;stroke:#1f77b4;" x="210.529274" xlink:href="#m960b55d21c" y="247.994639"/>
     <use style="fill:#1f77b4;stroke:#1f77b4;" x="218.978819" xlink:href="#m960b55d21c" y="256.172821"/>
     <use style="fill:#1f77b4;stroke:#1f77b4;" x="346.082599" xlink:href="#m960b55d21c" y="257.878503"/>
     <use style="fill:#1f77b4;stroke:#1f77b4;" x="379.139631" xlink:href="#m960b55d21c" y="241.925352"/>
     <use style="fill:#1f77b4;stroke:#1f77b4;" x="396.853779" xlink:href="#m960b55d21c" y="245.697709"/>
     <use style="fill:#1f77b4;stroke:#1f77b4;" x="396.854161" xlink:href="#m960b55d21c" y="246.589483"/>
     <use style="fill:#1f77b4;stroke:#1f77b4;" x="397.677773" xlink:href="#m960b55d21c" y="279.328111"/>
     <use style="fill:#1f77b4;stroke:#1f77b4;" x="397.678155" xlink:href="#m960b55d21c" y="285.759582"/>
     <use style="fill:#1f77b4;stroke:#1f77b4;" x="398.486891" xlink:href="#m960b55d21c" y="280.670646"/>
     <use style="fill:#1f77b4;stroke:#1f77b4;" x="398.487273" xlink:href="#m960b55d21c" y="291.166273"/>
    </g>
   </g>
   <g id="matplotlib.axis_5">
    <g id="xtick_26">
     <g id="line2d_37">
      <g>
       <use style="stroke:#000000;stroke-width:0.8;" x="97.996351" xlink:href="#mff8d89c0e1" y="307.584"/>
      </g>
     </g>
     <g id="text_22">
      <!-- 58300 -->
      <g transform="translate(82.090101 322.182437)scale(0.1 -0.1)">
       <defs>
        <path d="M 9.71875 69.828125 
Q 15.4375 71.96875 20.671875 73.09375 
Q 25.921875 74.21875 30.515625 74.21875 
Q 41.21875 74.21875 47.21875 69.59375 
Q 53.21875 64.984375 53.21875 56.78125 
Q 53.21875 50.203125 49.0625 45.78125 
Q 44.921875 41.359375 37.3125 39.796875 
Q 46.296875 38.53125 51.25 33.28125 
Q 56.203125 28.03125 56.203125 19.671875 
Q 56.203125 9.46875 49.34375 4.015625 
Q 42.484375 -1.421875 29.59375 -1.421875 
Q 23.875 -1.421875 18.421875 -0.1875 
Q 12.984375 1.03125 7.625 3.515625 
L 7.625 17.671875 
L 13.09375 17.671875 
Q 13.578125 10.640625 17.828125 7.03125 
Q 22.078125 3.421875 29.78125 3.421875 
Q 37.25 3.421875 41.578125 7.734375 
Q 45.90625 12.0625 45.90625 19.578125 
Q 45.90625 28.171875 41.453125 32.59375 
Q 37.015625 37.015625 28.421875 37.015625 
L 23.78125 37.015625 
L 23.78125 42 
L 26.21875 42 
Q 34.765625 42 39.03125 45.53125 
Q 43.3125 49.078125 43.3125 56.203125 
Q 43.3125 62.59375 39.796875 65.984375 
Q 36.28125 69.390625 29.6875 69.390625 
Q 23.09375 69.390625 19.453125 66.265625 
Q 15.828125 63.140625 15.1875 56.984375 
L 9.71875 56.984375 
z
" id="DejaVuSerif-51"/>
       </defs>
       <use xlink:href="#DejaVuSerif-53"/>
       <use x="63.623047" xlink:href="#DejaVuSerif-56"/>
       <use x="127.246094" xlink:href="#DejaVuSerif-51"/>
       <use x="190.869141" xlink:href="#DejaVuSerif-48"/>
       <use x="254.492188" xlink:href="#DejaVuSerif-48"/>
      </g>
     </g>
    </g>
    <g id="xtick_27">
     <g id="line2d_38">
      <g>
       <use style="stroke:#000000;stroke-width:0.8;" x="140.27554" xlink:href="#mff8d89c0e1" y="307.584"/>
      </g>
     </g>
     <g id="text_23">
      <!-- 58350 -->
      <g transform="translate(124.36929 322.182437)scale(0.1 -0.1)">
       <use xlink:href="#DejaVuSerif-53"/>
       <use x="63.623047" xlink:href="#DejaVuSerif-56"/>
       <use x="127.246094" xlink:href="#DejaVuSerif-51"/>
       <use x="190.869141" xlink:href="#DejaVuSerif-53"/>
       <use x="254.492188" xlink:href="#DejaVuSerif-48"/>
      </g>
     </g>
    </g>
    <g id="xtick_28">
     <g id="line2d_39">
      <g>
       <use style="stroke:#000000;stroke-width:0.8;" x="182.55473" xlink:href="#mff8d89c0e1" y="307.584"/>
      </g>
     </g>
     <g id="text_24">
      <!-- 58400 -->
      <g transform="translate(166.64848 322.182437)scale(0.1 -0.1)">
       <use xlink:href="#DejaVuSerif-53"/>
       <use x="63.623047" xlink:href="#DejaVuSerif-56"/>
       <use x="127.246094" xlink:href="#DejaVuSerif-52"/>
       <use x="190.869141" xlink:href="#DejaVuSerif-48"/>
       <use x="254.492188" xlink:href="#DejaVuSerif-48"/>
      </g>
     </g>
    </g>
    <g id="xtick_29">
     <g id="line2d_40">
      <g>
       <use style="stroke:#000000;stroke-width:0.8;" x="224.833919" xlink:href="#mff8d89c0e1" y="307.584"/>
      </g>
     </g>
     <g id="text_25">
      <!-- 58450 -->
      <g transform="translate(208.927669 322.182437)scale(0.1 -0.1)">
       <use xlink:href="#DejaVuSerif-53"/>
       <use x="63.623047" xlink:href="#DejaVuSerif-56"/>
       <use x="127.246094" xlink:href="#DejaVuSerif-52"/>
       <use x="190.869141" xlink:href="#DejaVuSerif-53"/>
       <use x="254.492188" xlink:href="#DejaVuSerif-48"/>
      </g>
     </g>
    </g>
    <g id="xtick_30">
     <g id="line2d_41">
      <g>
       <use style="stroke:#000000;stroke-width:0.8;" x="267.113108" xlink:href="#mff8d89c0e1" y="307.584"/>
      </g>
     </g>
     <g id="text_26">
      <!-- 58500 -->
      <g transform="translate(251.206858 322.182437)scale(0.1 -0.1)">
       <use xlink:href="#DejaVuSerif-53"/>
       <use x="63.623047" xlink:href="#DejaVuSerif-56"/>
       <use x="127.246094" xlink:href="#DejaVuSerif-53"/>
       <use x="190.869141" xlink:href="#DejaVuSerif-48"/>
       <use x="254.492188" xlink:href="#DejaVuSerif-48"/>
      </g>
     </g>
    </g>
    <g id="xtick_31">
     <g id="line2d_42">
      <g>
       <use style="stroke:#000000;stroke-width:0.8;" x="309.392298" xlink:href="#mff8d89c0e1" y="307.584"/>
      </g>
     </g>
     <g id="text_27">
      <!-- 58550 -->
      <g transform="translate(293.486048 322.182437)scale(0.1 -0.1)">
       <use xlink:href="#DejaVuSerif-53"/>
       <use x="63.623047" xlink:href="#DejaVuSerif-56"/>
       <use x="127.246094" xlink:href="#DejaVuSerif-53"/>
       <use x="190.869141" xlink:href="#DejaVuSerif-53"/>
       <use x="254.492188" xlink:href="#DejaVuSerif-48"/>
      </g>
     </g>
    </g>
    <g id="xtick_32">
     <g id="line2d_43">
      <g>
       <use style="stroke:#000000;stroke-width:0.8;" x="351.671487" xlink:href="#mff8d89c0e1" y="307.584"/>
      </g>
     </g>
     <g id="text_28">
      <!-- 58600 -->
      <g transform="translate(335.765237 322.182437)scale(0.1 -0.1)">
       <use xlink:href="#DejaVuSerif-53"/>
       <use x="63.623047" xlink:href="#DejaVuSerif-56"/>
       <use x="127.246094" xlink:href="#DejaVuSerif-54"/>
       <use x="190.869141" xlink:href="#DejaVuSerif-48"/>
       <use x="254.492188" xlink:href="#DejaVuSerif-48"/>
      </g>
     </g>
    </g>
    <g id="xtick_33">
     <g id="line2d_44">
      <g>
       <use style="stroke:#000000;stroke-width:0.8;" x="393.950677" xlink:href="#mff8d89c0e1" y="307.584"/>
      </g>
     </g>
     <g id="text_29">
      <!-- 58650 -->
      <g transform="translate(378.044427 322.182437)scale(0.1 -0.1)">
       <use xlink:href="#DejaVuSerif-53"/>
       <use x="63.623047" xlink:href="#DejaVuSerif-56"/>
       <use x="127.246094" xlink:href="#DejaVuSerif-54"/>
       <use x="190.869141" xlink:href="#DejaVuSerif-53"/>
       <use x="254.492188" xlink:href="#DejaVuSerif-48"/>
      </g>
     </g>
    </g>
    <g id="text_30">
     <!-- MJD -->
     <g transform="translate(225.027187 335.860562)scale(0.1 -0.1)">
      <defs>
       <path d="M -8.40625 -17.484375 
L -8.40625 -6 
L -2.828125 -6 
Q -2.6875 -10.84375 -0.53125 -13.203125 
Q 1.609375 -15.578125 5.90625 -15.578125 
Q 11.71875 -15.578125 14.015625 -11.90625 
Q 16.3125 -8.25 16.3125 2.390625 
L 16.3125 67.671875 
L 4.984375 67.671875 
L 4.984375 72.90625 
L 35.5 72.90625 
L 35.5 67.671875 
L 26.21875 67.671875 
L 26.21875 2 
Q 26.21875 -10.0625 21.375 -15.421875 
Q 16.546875 -20.796875 5.8125 -20.796875 
Q 2.34375 -20.796875 -1.234375 -19.96875 
Q -4.828125 -19.140625 -8.40625 -17.484375 
z
" id="DejaVuSerif-74"/>
       <path d="M 24.703125 5.171875 
L 33.796875 5.171875 
Q 48 5.171875 55.59375 13.28125 
Q 63.1875 21.390625 63.1875 36.53125 
Q 63.1875 51.65625 55.609375 59.65625 
Q 48.046875 67.671875 33.796875 67.671875 
L 24.703125 67.671875 
z
M 5.515625 0 
L 5.515625 5.171875 
L 14.796875 5.171875 
L 14.796875 67.671875 
L 5.515625 67.671875 
L 5.515625 72.90625 
L 34.515625 72.90625 
Q 53.375 72.90625 63.890625 63.28125 
Q 74.421875 53.65625 74.421875 36.53125 
Q 74.421875 19.34375 63.875 9.671875 
Q 53.328125 0 34.515625 0 
z
" id="DejaVuSerif-68"/>
      </defs>
      <use xlink:href="#DejaVuSerif-77"/>
      <use x="102.392578" xlink:href="#DejaVuSerif-74"/>
      <use x="142.480469" xlink:href="#DejaVuSerif-68"/>
     </g>
    </g>
   </g>
   <g id="matplotlib.axis_6">
    <g id="ytick_7">
     <g id="line2d_45">
      <g>
       <use style="stroke:#000000;stroke-width:0.8;" x="57.6" xlink:href="#m6cf7ade264" y="216.255176"/>
      </g>
     </g>
     <g id="text_31">
      <!-- 16.80 -->
      <g transform="translate(21.971875 220.054395)scale(0.1 -0.1)">
       <use xlink:href="#DejaVuSerif-49"/>
       <use x="63.623047" xlink:href="#DejaVuSerif-54"/>
       <use x="127.246094" xlink:href="#DejaVuSerif-46"/>
       <use x="159.033203" xlink:href="#DejaVuSerif-56"/>
       <use x="222.65625" xlink:href="#DejaVuSerif-48"/>
      </g>
     </g>
    </g>
    <g id="ytick_8">
     <g id="line2d_46">
      <g>
       <use style="stroke:#000000;stroke-width:0.8;" x="57.6" xlink:href="#m6cf7ade264" y="244.590643"/>
      </g>
     </g>
     <g id="text_32">
      <!-- 16.85 -->
      <g transform="translate(21.971875 248.389861)scale(0.1 -0.1)">
       <use xlink:href="#DejaVuSerif-49"/>
       <use x="63.623047" xlink:href="#DejaVuSerif-54"/>
       <use x="127.246094" xlink:href="#DejaVuSerif-46"/>
       <use x="159.033203" xlink:href="#DejaVuSerif-56"/>
       <use x="222.65625" xlink:href="#DejaVuSerif-53"/>
      </g>
     </g>
    </g>
    <g id="ytick_9">
     <g id="line2d_47">
      <g>
       <use style="stroke:#000000;stroke-width:0.8;" x="57.6" xlink:href="#m6cf7ade264" y="272.926109"/>
      </g>
     </g>
     <g id="text_33">
      <!-- 16.90 -->
      <g transform="translate(21.971875 276.725328)scale(0.1 -0.1)">
       <use xlink:href="#DejaVuSerif-49"/>
       <use x="63.623047" xlink:href="#DejaVuSerif-54"/>
       <use x="127.246094" xlink:href="#DejaVuSerif-46"/>
       <use x="159.033203" xlink:href="#DejaVuSerif-57"/>
       <use x="222.65625" xlink:href="#DejaVuSerif-48"/>
      </g>
     </g>
    </g>
    <g id="ytick_10">
     <g id="line2d_48">
      <g>
       <use style="stroke:#000000;stroke-width:0.8;" x="57.6" xlink:href="#m6cf7ade264" y="301.261576"/>
      </g>
     </g>
     <g id="text_34">
      <!-- 16.95 -->
      <g transform="translate(21.971875 305.060795)scale(0.1 -0.1)">
       <use xlink:href="#DejaVuSerif-49"/>
       <use x="63.623047" xlink:href="#DejaVuSerif-54"/>
       <use x="127.246094" xlink:href="#DejaVuSerif-46"/>
       <use x="159.033203" xlink:href="#DejaVuSerif-57"/>
       <use x="222.65625" xlink:href="#DejaVuSerif-53"/>
      </g>
     </g>
    </g>
    <g id="text_35">
     <!-- Mag -->
     <g transform="translate(15.75 264.576991)rotate(-90)scale(0.1 -0.1)">
      <use xlink:href="#DejaVuSerif-77"/>
      <use x="102.392578" xlink:href="#DejaVuSerif-97"/>
      <use x="162.011719" xlink:href="#DejaVuSerif-103"/>
     </g>
    </g>
   </g>
   <g id="LineCollection_5">
    <path clip-path="url(#pc6b9f914b7)" d="M 73.832727 227.932987 
L 73.832727 250.420183 
" style="fill:none;stroke:#1f77b4;stroke-width:0.5;"/>
    <path clip-path="url(#pc6b9f914b7)" d="M 73.833119 220.355856 
L 73.833119 242.777994 
" style="fill:none;stroke:#1f77b4;stroke-width:0.5;"/>
    <path clip-path="url(#pc6b9f914b7)" d="M 94.910293 254.349548 
L 94.910293 277.072097 
" style="fill:none;stroke:#1f77b4;stroke-width:0.5;"/>
    <path clip-path="url(#pc6b9f914b7)" d="M 94.910684 251.902741 
L 94.910684 274.602927 
" style="fill:none;stroke:#1f77b4;stroke-width:0.5;"/>
    <path clip-path="url(#pc6b9f914b7)" d="M 96.675449 221.018917 
L 96.675449 243.446701 
" style="fill:none;stroke:#1f77b4;stroke-width:0.5;"/>
    <path clip-path="url(#pc6b9f914b7)" d="M 99.185169 242.169782 
L 99.185169 264.782148 
" style="fill:none;stroke:#1f77b4;stroke-width:0.5;"/>
    <path clip-path="url(#pc6b9f914b7)" d="M 99.18789 244.075542 
L 99.18789 266.704962 
" style="fill:none;stroke:#1f77b4;stroke-width:0.5;"/>
    <path clip-path="url(#pc6b9f914b7)" d="M 121.144305 254.160169 
L 121.144305 276.880988 
" style="fill:none;stroke:#1f77b4;stroke-width:0.5;"/>
    <path clip-path="url(#pc6b9f914b7)" d="M 121.988998 251.218386 
L 121.988998 273.912333 
" style="fill:none;stroke:#1f77b4;stroke-width:0.5;"/>
    <path clip-path="url(#pc6b9f914b7)" d="M 121.98938 238.279558 
L 121.98938 260.857337 
" style="fill:none;stroke:#1f77b4;stroke-width:0.5;"/>
    <path clip-path="url(#pc6b9f914b7)" d="M 123.69785 217.286156 
L 123.69785 239.682238 
" style="fill:none;stroke:#1f77b4;stroke-width:0.5;"/>
    <path clip-path="url(#pc6b9f914b7)" d="M 123.698242 249.309483 
L 123.698242 271.986087 
" style="fill:none;stroke:#1f77b4;stroke-width:0.5;"/>
    <path clip-path="url(#pc6b9f914b7)" d="M 125.362202 219.809098 
L 125.362202 242.226583 
" style="fill:none;stroke:#1f77b4;stroke-width:0.5;"/>
    <path clip-path="url(#pc6b9f914b7)" d="M 125.362594 228.064294 
L 125.362594 250.552623 
" style="fill:none;stroke:#1f77b4;stroke-width:0.5;"/>
    <path clip-path="url(#pc6b9f914b7)" d="M 126.199487 209.066765 
L 126.199487 231.393952 
" style="fill:none;stroke:#1f77b4;stroke-width:0.5;"/>
    <path clip-path="url(#pc6b9f914b7)" d="M 126.199878 229.398831 
L 126.199878 251.898734 
" style="fill:none;stroke:#1f77b4;stroke-width:0.5;"/>
    <path clip-path="url(#pc6b9f914b7)" d="M 127.090237 240.014328 
L 127.090237 262.607489 
" style="fill:none;stroke:#1f77b4;stroke-width:0.5;"/>
    <path clip-path="url(#pc6b9f914b7)" d="M 127.090618 229.245973 
L 127.090618 251.744549 
" style="fill:none;stroke:#1f77b4;stroke-width:0.5;"/>
    <path clip-path="url(#pc6b9f914b7)" d="M 127.899364 236.07234 
L 127.899364 258.630621 
" style="fill:none;stroke:#1f77b4;stroke-width:0.5;"/>
    <path clip-path="url(#pc6b9f914b7)" d="M 127.899756 218.716589 
L 127.899756 241.124794 
" style="fill:none;stroke:#1f77b4;stroke-width:0.5;"/>
    <path clip-path="url(#pc6b9f914b7)" d="M 128.744146 210.696472 
L 128.744146 233.037218 
" style="fill:none;stroke:#1f77b4;stroke-width:0.5;"/>
    <path clip-path="url(#pc6b9f914b7)" d="M 128.744527 223.437381 
L 128.744527 245.885843 
" style="fill:none;stroke:#1f77b4;stroke-width:0.5;"/>
    <path clip-path="url(#pc6b9f914b7)" d="M 136.360585 242.7584 
L 136.360585 265.376025 
" style="fill:none;stroke:#1f77b4;stroke-width:0.5;"/>
    <path clip-path="url(#pc6b9f914b7)" d="M 142.231315 215.977256 
L 142.231315 238.362286 
" style="fill:none;stroke:#1f77b4;stroke-width:0.5;"/>
    <path clip-path="url(#pc6b9f914b7)" d="M 143.073052 203.904 
L 143.073052 226.188543 
" style="fill:none;stroke:#1f77b4;stroke-width:0.5;"/>
    <path clip-path="url(#pc6b9f914b7)" d="M 143.918832 250.456564 
L 143.918832 273.143586 
" style="fill:none;stroke:#1f77b4;stroke-width:0.5;"/>
    <path clip-path="url(#pc6b9f914b7)" d="M 144.76286 241.012959 
L 144.76286 263.61501 
" style="fill:none;stroke:#1f77b4;stroke-width:0.5;"/>
    <path clip-path="url(#pc6b9f914b7)" d="M 145.612006 240.48566 
L 145.612006 263.083015 
" style="fill:none;stroke:#1f77b4;stroke-width:0.5;"/>
    <path clip-path="url(#pc6b9f914b7)" d="M 155.771705 257.844237 
L 155.771705 280.598937 
" style="fill:none;stroke:#1f77b4;stroke-width:0.5;"/>
    <path clip-path="url(#pc6b9f914b7)" d="M 163.21203 234.62707 
L 163.21203 257.172639 
" style="fill:none;stroke:#1f77b4;stroke-width:0.5;"/>
    <path clip-path="url(#pc6b9f914b7)" d="M 164.180987 245.216196 
L 164.180987 267.855855 
" style="fill:none;stroke:#1f77b4;stroke-width:0.5;"/>
    <path clip-path="url(#pc6b9f914b7)" d="M 165.042171 240.67506 
L 165.042171 263.274104 
" style="fill:none;stroke:#1f77b4;stroke-width:0.5;"/>
    <path clip-path="url(#pc6b9f914b7)" d="M 170.943837 268.337392 
L 170.943837 291.19009 
" style="fill:none;stroke:#1f77b4;stroke-width:0.5;"/>
    <path clip-path="url(#pc6b9f914b7)" d="M 173.496775 235.582708 
L 173.496775 258.136673 
" style="fill:none;stroke:#1f77b4;stroke-width:0.5;"/>
    <path clip-path="url(#pc6b9f914b7)" d="M 207.146958 214.514506 
L 207.146958 236.887215 
" style="fill:none;stroke:#1f77b4;stroke-width:0.5;"/>
    <path clip-path="url(#pc6b9f914b7)" d="M 210.529274 236.712676 
L 210.529274 259.276602 
" style="fill:none;stroke:#1f77b4;stroke-width:0.5;"/>
    <path clip-path="url(#pc6b9f914b7)" d="M 218.978819 244.854618 
L 218.978819 267.491024 
" style="fill:none;stroke:#1f77b4;stroke-width:0.5;"/>
    <path clip-path="url(#pc6b9f914b7)" d="M 346.082599 246.55266 
L 346.082599 269.204346 
" style="fill:none;stroke:#1f77b4;stroke-width:0.5;"/>
    <path clip-path="url(#pc6b9f914b7)" d="M 379.139631 230.669876 
L 379.139631 253.180828 
" style="fill:none;stroke:#1f77b4;stroke-width:0.5;"/>
    <path clip-path="url(#pc6b9f914b7)" d="M 396.853779 234.425812 
L 396.853779 256.969607 
" style="fill:none;stroke:#1f77b4;stroke-width:0.5;"/>
    <path clip-path="url(#pc6b9f914b7)" d="M 396.854161 235.313682 
L 396.854161 257.865284 
" style="fill:none;stroke:#1f77b4;stroke-width:0.5;"/>
    <path clip-path="url(#pc6b9f914b7)" d="M 397.677773 267.903809 
L 397.677773 290.752413 
" style="fill:none;stroke:#1f77b4;stroke-width:0.5;"/>
    <path clip-path="url(#pc6b9f914b7)" d="M 397.678155 274.304877 
L 397.678155 297.214287 
" style="fill:none;stroke:#1f77b4;stroke-width:0.5;"/>
    <path clip-path="url(#pc6b9f914b7)" d="M 398.486891 269.240031 
L 398.486891 292.10126 
" style="fill:none;stroke:#1f77b4;stroke-width:0.5;"/>
    <path clip-path="url(#pc6b9f914b7)" d="M 398.487273 279.685688 
L 398.487273 302.646857 
" style="fill:none;stroke:#1f77b4;stroke-width:0.5;"/>
   </g>
   <g id="line2d_49">
    <path clip-path="url(#pc6b9f914b7)" d="M 73.832727 239.176585 
L 73.833119 231.566925 
L 94.910293 265.710823 
L 94.910684 263.252834 
L 96.675449 232.232809 
L 99.185169 253.475965 
L 99.18789 255.390252 
L 121.144305 265.520578 
L 121.988998 262.565359 
L 121.98938 249.568447 
L 123.69785 228.484197 
L 123.698242 260.647785 
L 125.362202 231.017841 
L 125.362594 239.308458 
L 126.199487 220.230359 
L 126.199878 240.648783 
L 127.090237 251.310909 
L 127.090618 240.495261 
L 127.899364 247.351481 
L 127.899756 229.920692 
L 128.744146 221.866845 
L 128.744527 234.661612 
L 136.360585 254.067213 
L 142.231315 227.169771 
L 143.073052 215.046272 
L 143.918832 261.800075 
L 144.76286 252.313984 
L 145.612006 251.784338 
L 155.771705 269.221587 
L 163.21203 245.899855 
L 164.180987 256.536025 
L 165.042171 251.974582 
L 170.943837 279.763741 
L 173.496775 246.85969 
L 207.146958 225.700861 
L 210.529274 247.994639 
L 218.978819 256.172821 
L 346.082599 257.878503 
L 379.139631 241.925352 
L 396.853779 245.697709 
L 396.854161 246.589483 
L 397.677773 279.328111 
L 397.678155 285.759582 
L 398.486891 280.670646 
L 398.487273 291.166273 
" style="fill:none;"/>
   </g>
   <g id="patch_14">
    <path d="M 57.6 307.584 
L 57.6 198.966857 
" style="fill:none;stroke:#000000;stroke-linecap:square;stroke-linejoin:miter;stroke-width:0.8;"/>
   </g>
   <g id="patch_15">
    <path d="M 414.72 307.584 
L 414.72 198.966857 
" style="fill:none;stroke:#000000;stroke-linecap:square;stroke-linejoin:miter;stroke-width:0.8;"/>
   </g>
   <g id="patch_16">
    <path d="M 57.6 307.584 
L 414.72 307.584 
" style="fill:none;stroke:#000000;stroke-linecap:square;stroke-linejoin:miter;stroke-width:0.8;"/>
   </g>
   <g id="patch_17">
    <path d="M 57.6 198.966857 
L 414.72 198.966857 
" style="fill:none;stroke:#000000;stroke-linecap:square;stroke-linejoin:miter;stroke-width:0.8;"/>
   </g>
   <g id="text_36">
    <!-- Light Curve -->
    <g transform="translate(206.000625 192.966857)scale(0.1 -0.1)">
     <use xlink:href="#DejaVuSerif-76"/>
     <use x="66.40625" xlink:href="#DejaVuSerif-105"/>
     <use x="98.388672" xlink:href="#DejaVuSerif-103"/>
     <use x="162.402344" xlink:href="#DejaVuSerif-104"/>
     <use x="226.806641" xlink:href="#DejaVuSerif-116"/>
     <use x="266.992188" xlink:href="#DejaVuSerif-32"/>
     <use x="298.779297" xlink:href="#DejaVuSerif-67"/>
     <use x="375.292969" xlink:href="#DejaVuSerif-117"/>
     <use x="439.697266" xlink:href="#DejaVuSerif-114"/>
     <use x="487.5" xlink:href="#DejaVuSerif-118"/>
     <use x="543.994141" xlink:href="#DejaVuSerif-101"/>
    </g>
   </g>
  </g>
 </g>
 <defs>
  <clipPath id="pc61f7ed6bc">
   <rect height="108.617143" width="148.8" x="265.92" y="41.472"/>
  </clipPath>
  <clipPath id="p0369bbcfd8">
   <rect height="108.617143" width="148.8" x="57.6" y="41.472"/>
  </clipPath>
  <clipPath id="pc6b9f914b7">
   <rect height="108.617143" width="357.12" x="57.6" y="198.966857"/>
  </clipPath>
 </defs>
</svg>
