<?xml version="1.0" encoding="utf-8" standalone="no"?>
<!DOCTYPE svg PUBLIC "-//W3C//DTD SVG 1.1//EN"
  "http://www.w3.org/Graphics/SVG/1.1/DTD/svg11.dtd">
<!-- Created with matplotlib (https://matplotlib.org/) -->
<svg height="345.6pt" version="1.1" viewBox="0 0 460.8 345.6" width="460.8pt" xmlns="http://www.w3.org/2000/svg" xmlns:xlink="http://www.w3.org/1999/xlink">
 <metadata>
  <rdf:RDF xmlns:cc="http://creativecommons.org/ns#" xmlns:dc="http://purl.org/dc/elements/1.1/" xmlns:rdf="http://www.w3.org/1999/02/22-rdf-syntax-ns#">
   <cc:Work>
    <dc:type rdf:resource="http://purl.org/dc/dcmitype/StillImage"/>
    <dc:date>2021-02-16T16:31:55.461792</dc:date>
    <dc:format>image/svg+xml</dc:format>
    <dc:creator>
     <cc:Agent>
      <dc:title>Matplotlib v3.3.3, https://matplotlib.org/</dc:title>
     </cc:Agent>
    </dc:creator>
   </cc:Work>
  </rdf:RDF>
 </metadata>
 <defs>
  <style type="text/css">*{stroke-linecap:butt;stroke-linejoin:round;}</style>
 </defs>
 <g id="figure_1">
  <g id="patch_1">
   <path d="M 0 345.6 
L 460.8 345.6 
L 460.8 0 
L 0 0 
z
" style="fill:#ffffff;"/>
  </g>
  <g id="axes_1">
   <g id="patch_2">
    <path d="M 265.92 150.089143 
L 414.72 150.089143 
L 414.72 41.472 
L 265.92 41.472 
z
" style="fill:#ffffff;"/>
   </g>
   <g id="matplotlib.axis_1">
    <g id="xtick_1">
     <g id="line2d_1">
      <defs>
       <path d="M 0 0 
L 0 3.5 
" id="mb61ecaf089" style="stroke:#000000;stroke-width:0.8;"/>
      </defs>
      <g>
       <use style="stroke:#000000;stroke-width:0.8;" x="315.519224" xlink:href="#mb61ecaf089" y="150.089143"/>
      </g>
     </g>
     <g id="text_1">
      <!-- $\mathdefault{10^{1}}$ -->
      <g transform="translate(306.719224 164.68758)scale(0.1 -0.1)">
       <defs>
        <path d="M 14.203125 0 
L 14.203125 5.171875 
L 26.90625 5.171875 
L 26.90625 65.828125 
L 12.203125 56.296875 
L 12.203125 62.703125 
L 29.984375 74.21875 
L 36.71875 74.21875 
L 36.71875 5.171875 
L 49.421875 5.171875 
L 49.421875 0 
z
" id="DejaVuSerif-49"/>
        <path d="M 31.78125 3.421875 
Q 39.265625 3.421875 42.96875 11.625 
Q 46.6875 19.828125 46.6875 36.375 
Q 46.6875 52.984375 42.96875 61.1875 
Q 39.265625 69.390625 31.78125 69.390625 
Q 24.3125 69.390625 20.59375 61.1875 
Q 16.890625 52.984375 16.890625 36.375 
Q 16.890625 19.828125 20.59375 11.625 
Q 24.3125 3.421875 31.78125 3.421875 
z
M 31.78125 -1.421875 
Q 19.921875 -1.421875 13.25 8.53125 
Q 6.59375 18.5 6.59375 36.375 
Q 6.59375 54.296875 13.25 64.25 
Q 19.921875 74.21875 31.78125 74.21875 
Q 43.703125 74.21875 50.34375 64.25 
Q 56.984375 54.296875 56.984375 36.375 
Q 56.984375 18.5 50.34375 8.53125 
Q 43.703125 -1.421875 31.78125 -1.421875 
z
" id="DejaVuSerif-48"/>
       </defs>
       <use transform="translate(0 0.7125)" xlink:href="#DejaVuSerif-49"/>
       <use transform="translate(63.623047 0.7125)" xlink:href="#DejaVuSerif-48"/>
       <use transform="translate(128.154453 37.046875)scale(0.7)" xlink:href="#DejaVuSerif-49"/>
      </g>
     </g>
    </g>
    <g id="xtick_2">
     <g id="line2d_2">
      <g>
       <use style="stroke:#000000;stroke-width:0.8;" x="373.218149" xlink:href="#mb61ecaf089" y="150.089143"/>
      </g>
     </g>
     <g id="text_2">
      <!-- $\mathdefault{10^{2}}$ -->
      <g transform="translate(364.418149 164.68758)scale(0.1 -0.1)">
       <defs>
        <path d="M 12.796875 55.515625 
L 7.328125 55.515625 
L 7.328125 68.5 
Q 12.546875 71.296875 17.84375 72.75 
Q 23.140625 74.21875 28.21875 74.21875 
Q 39.59375 74.21875 46.1875 68.703125 
Q 52.78125 63.1875 52.78125 53.71875 
Q 52.78125 43.015625 37.84375 28.125 
Q 36.671875 27 36.078125 26.421875 
L 17.671875 8.015625 
L 48.09375 8.015625 
L 48.09375 17 
L 53.8125 17 
L 53.8125 0 
L 6.78125 0 
L 6.78125 5.328125 
L 28.90625 27.390625 
Q 36.234375 34.71875 39.359375 40.84375 
Q 42.484375 46.96875 42.484375 53.71875 
Q 42.484375 61.078125 38.640625 65.234375 
Q 34.8125 69.390625 28.078125 69.390625 
Q 21.09375 69.390625 17.28125 65.921875 
Q 13.484375 62.453125 12.796875 55.515625 
z
" id="DejaVuSerif-50"/>
       </defs>
       <use transform="translate(0 0.7125)" xlink:href="#DejaVuSerif-49"/>
       <use transform="translate(63.623047 0.7125)" xlink:href="#DejaVuSerif-48"/>
       <use transform="translate(128.154453 37.046875)scale(0.7)" xlink:href="#DejaVuSerif-50"/>
      </g>
     </g>
    </g>
    <g id="xtick_3">
     <g id="line2d_3">
      <defs>
       <path d="M 0 0 
L 0 2 
" id="m8169439c50" style="stroke:#000000;stroke-width:0.6;"/>
      </defs>
      <g>
       <use style="stroke:#000000;stroke-width:0.6;" x="275.189406" xlink:href="#m8169439c50" y="150.089143"/>
      </g>
     </g>
    </g>
    <g id="xtick_4">
     <g id="line2d_4">
      <g>
       <use style="stroke:#000000;stroke-width:0.6;" x="285.349683" xlink:href="#m8169439c50" y="150.089143"/>
      </g>
     </g>
    </g>
    <g id="xtick_5">
     <g id="line2d_5">
      <g>
       <use style="stroke:#000000;stroke-width:0.6;" x="292.558513" xlink:href="#m8169439c50" y="150.089143"/>
      </g>
     </g>
    </g>
    <g id="xtick_6">
     <g id="line2d_6">
      <g>
       <use style="stroke:#000000;stroke-width:0.6;" x="298.150117" xlink:href="#m8169439c50" y="150.089143"/>
      </g>
     </g>
    </g>
    <g id="xtick_7">
     <g id="line2d_7">
      <g>
       <use style="stroke:#000000;stroke-width:0.6;" x="302.71879" xlink:href="#m8169439c50" y="150.089143"/>
      </g>
     </g>
    </g>
    <g id="xtick_8">
     <g id="line2d_8">
      <g>
       <use style="stroke:#000000;stroke-width:0.6;" x="306.581548" xlink:href="#m8169439c50" y="150.089143"/>
      </g>
     </g>
    </g>
    <g id="xtick_9">
     <g id="line2d_9">
      <g>
       <use style="stroke:#000000;stroke-width:0.6;" x="309.927621" xlink:href="#m8169439c50" y="150.089143"/>
      </g>
     </g>
    </g>
    <g id="xtick_10">
     <g id="line2d_10">
      <g>
       <use style="stroke:#000000;stroke-width:0.6;" x="312.879066" xlink:href="#m8169439c50" y="150.089143"/>
      </g>
     </g>
    </g>
    <g id="xtick_11">
     <g id="line2d_11">
      <g>
       <use style="stroke:#000000;stroke-width:0.6;" x="332.888331" xlink:href="#m8169439c50" y="150.089143"/>
      </g>
     </g>
    </g>
    <g id="xtick_12">
     <g id="line2d_12">
      <g>
       <use style="stroke:#000000;stroke-width:0.6;" x="343.048608" xlink:href="#m8169439c50" y="150.089143"/>
      </g>
     </g>
    </g>
    <g id="xtick_13">
     <g id="line2d_13">
      <g>
       <use style="stroke:#000000;stroke-width:0.6;" x="350.257438" xlink:href="#m8169439c50" y="150.089143"/>
      </g>
     </g>
    </g>
    <g id="xtick_14">
     <g id="line2d_14">
      <g>
       <use style="stroke:#000000;stroke-width:0.6;" x="355.849042" xlink:href="#m8169439c50" y="150.089143"/>
      </g>
     </g>
    </g>
    <g id="xtick_15">
     <g id="line2d_15">
      <g>
       <use style="stroke:#000000;stroke-width:0.6;" x="360.417715" xlink:href="#m8169439c50" y="150.089143"/>
      </g>
     </g>
    </g>
    <g id="xtick_16">
     <g id="line2d_16">
      <g>
       <use style="stroke:#000000;stroke-width:0.6;" x="364.280473" xlink:href="#m8169439c50" y="150.089143"/>
      </g>
     </g>
    </g>
    <g id="xtick_17">
     <g id="line2d_17">
      <g>
       <use style="stroke:#000000;stroke-width:0.6;" x="367.626546" xlink:href="#m8169439c50" y="150.089143"/>
      </g>
     </g>
    </g>
    <g id="xtick_18">
     <g id="line2d_18">
      <g>
       <use style="stroke:#000000;stroke-width:0.6;" x="370.577991" xlink:href="#m8169439c50" y="150.089143"/>
      </g>
     </g>
    </g>
    <g id="xtick_19">
     <g id="line2d_19">
      <g>
       <use style="stroke:#000000;stroke-width:0.6;" x="390.587256" xlink:href="#m8169439c50" y="150.089143"/>
      </g>
     </g>
    </g>
    <g id="xtick_20">
     <g id="line2d_20">
      <g>
       <use style="stroke:#000000;stroke-width:0.6;" x="400.747533" xlink:href="#m8169439c50" y="150.089143"/>
      </g>
     </g>
    </g>
    <g id="xtick_21">
     <g id="line2d_21">
      <g>
       <use style="stroke:#000000;stroke-width:0.6;" x="407.956364" xlink:href="#m8169439c50" y="150.089143"/>
      </g>
     </g>
    </g>
    <g id="xtick_22">
     <g id="line2d_22">
      <g>
       <use style="stroke:#000000;stroke-width:0.6;" x="413.547967" xlink:href="#m8169439c50" y="150.089143"/>
      </g>
     </g>
    </g>
    <g id="text_3">
     <!-- Period d -->
     <g transform="translate(319.231719 178.365705)scale(0.1 -0.1)">
      <defs>
       <path d="M 24.703125 37.109375 
L 37.59375 37.109375 
Q 44.875 37.109375 48.671875 41.03125 
Q 52.484375 44.96875 52.484375 52.390625 
Q 52.484375 59.859375 48.671875 63.765625 
Q 44.875 67.671875 37.59375 67.671875 
L 24.703125 67.671875 
z
M 5.515625 0 
L 5.515625 5.171875 
L 14.796875 5.171875 
L 14.796875 67.671875 
L 5.515625 67.671875 
L 5.515625 72.90625 
L 39.984375 72.90625 
Q 50.921875 72.90625 57.3125 67.359375 
Q 63.71875 61.8125 63.71875 52.390625 
Q 63.71875 43.015625 57.3125 37.453125 
Q 50.921875 31.890625 39.984375 31.890625 
L 24.703125 31.890625 
L 24.703125 5.171875 
L 35.984375 5.171875 
L 35.984375 0 
z
" id="DejaVuSerif-80"/>
       <path d="M 54.203125 25 
L 15.484375 25 
L 15.484375 24.609375 
Q 15.484375 14.109375 19.4375 8.765625 
Q 23.390625 3.421875 31.109375 3.421875 
Q 37.015625 3.421875 40.796875 6.515625 
Q 44.578125 9.625 46.09375 15.71875 
L 53.328125 15.71875 
Q 51.171875 7.171875 45.375 2.875 
Q 39.59375 -1.421875 30.171875 -1.421875 
Q 18.796875 -1.421875 11.890625 6.078125 
Q 4.984375 13.578125 4.984375 25.984375 
Q 4.984375 38.28125 11.765625 45.796875 
Q 18.5625 53.328125 29.59375 53.328125 
Q 41.359375 53.328125 47.65625 46.0625 
Q 53.953125 38.8125 54.203125 25 
z
M 43.609375 30.171875 
Q 43.3125 39.265625 39.765625 43.875 
Q 36.234375 48.484375 29.59375 48.484375 
Q 23.390625 48.484375 19.828125 43.84375 
Q 16.265625 39.203125 15.484375 30.171875 
z
" id="DejaVuSerif-101"/>
       <path d="M 47.796875 52 
L 47.796875 39.015625 
L 42.625 39.015625 
Q 42.390625 42.875 40.484375 44.78125 
Q 38.578125 46.6875 34.90625 46.6875 
Q 28.265625 46.6875 24.71875 42.09375 
Q 21.1875 37.5 21.1875 28.90625 
L 21.1875 5.171875 
L 31.59375 5.171875 
L 31.59375 0 
L 4.109375 0 
L 4.109375 5.171875 
L 12.203125 5.171875 
L 12.203125 46.78125 
L 3.609375 46.78125 
L 3.609375 51.90625 
L 21.1875 51.90625 
L 21.1875 42.671875 
Q 23.828125 48.09375 27.96875 50.703125 
Q 32.125 53.328125 38.09375 53.328125 
Q 40.28125 53.328125 42.703125 52.984375 
Q 45.125 52.640625 47.796875 52 
z
" id="DejaVuSerif-114"/>
       <path d="M 9.71875 68.015625 
Q 9.71875 70.265625 11.34375 71.921875 
Q 12.984375 73.578125 15.28125 73.578125 
Q 17.53125 73.578125 19.15625 71.921875 
Q 20.796875 70.265625 20.796875 68.015625 
Q 20.796875 65.71875 19.1875 64.109375 
Q 17.578125 62.5 15.28125 62.5 
Q 12.984375 62.5 11.34375 64.109375 
Q 9.71875 65.71875 9.71875 68.015625 
z
M 21.1875 5.171875 
L 29.6875 5.171875 
L 29.6875 0 
L 3.609375 0 
L 3.609375 5.171875 
L 12.203125 5.171875 
L 12.203125 46.6875 
L 3.609375 46.6875 
L 3.609375 51.90625 
L 21.1875 51.90625 
z
" id="DejaVuSerif-105"/>
       <path d="M 30.078125 3.421875 
Q 37.3125 3.421875 40.984375 9.125 
Q 44.671875 14.84375 44.671875 25.984375 
Q 44.671875 37.109375 40.984375 42.796875 
Q 37.3125 48.484375 30.078125 48.484375 
Q 22.859375 48.484375 19.171875 42.796875 
Q 15.484375 37.109375 15.484375 25.984375 
Q 15.484375 14.84375 19.1875 9.125 
Q 22.90625 3.421875 30.078125 3.421875 
z
M 30.078125 -1.421875 
Q 18.75 -1.421875 11.859375 6.078125 
Q 4.984375 13.578125 4.984375 25.984375 
Q 4.984375 38.375 11.84375 45.84375 
Q 18.703125 53.328125 30.078125 53.328125 
Q 41.453125 53.328125 48.3125 45.84375 
Q 55.171875 38.375 55.171875 25.984375 
Q 55.171875 13.578125 48.3125 6.078125 
Q 41.453125 -1.421875 30.078125 -1.421875 
z
" id="DejaVuSerif-111"/>
       <path d="M 52.484375 5.171875 
L 61.078125 5.171875 
L 61.078125 0 
L 43.5 0 
L 43.5 8.109375 
Q 40.875 3.21875 36.796875 0.890625 
Q 32.71875 -1.421875 26.703125 -1.421875 
Q 17.140625 -1.421875 11.0625 6.171875 
Q 4.984375 13.765625 4.984375 25.984375 
Q 4.984375 38.1875 11.03125 45.75 
Q 17.09375 53.328125 26.703125 53.328125 
Q 32.71875 53.328125 36.796875 51 
Q 40.875 48.6875 43.5 43.796875 
L 43.5 70.796875 
L 35.015625 70.796875 
L 35.015625 75.984375 
L 52.484375 75.984375 
z
M 43.5 23.390625 
L 43.5 28.515625 
Q 43.5 37.84375 39.90625 42.765625 
Q 36.328125 47.703125 29.5 47.703125 
Q 22.5625 47.703125 19.015625 42.234375 
Q 15.484375 36.765625 15.484375 25.984375 
Q 15.484375 15.234375 19.015625 9.71875 
Q 22.5625 4.203125 29.5 4.203125 
Q 36.328125 4.203125 39.90625 9.109375 
Q 43.5 14.015625 43.5 23.390625 
z
" id="DejaVuSerif-100"/>
       <path id="DejaVuSerif-32"/>
      </defs>
      <use xlink:href="#DejaVuSerif-80"/>
      <use x="62.785156" xlink:href="#DejaVuSerif-101"/>
      <use x="121.964844" xlink:href="#DejaVuSerif-114"/>
      <use x="169.767578" xlink:href="#DejaVuSerif-105"/>
      <use x="201.75" xlink:href="#DejaVuSerif-111"/>
      <use x="261.955078" xlink:href="#DejaVuSerif-100"/>
      <use x="325.96875" xlink:href="#DejaVuSerif-32"/>
      <use x="357.755859" xlink:href="#DejaVuSerif-100"/>
     </g>
    </g>
   </g>
   <g id="matplotlib.axis_2">
    <g id="ytick_1">
     <g id="line2d_23">
      <defs>
       <path d="M 0 0 
L -3.5 0 
" id="m1ff960136a" style="stroke:#000000;stroke-width:0.8;"/>
      </defs>
      <g>
       <use style="stroke:#000000;stroke-width:0.8;" x="265.92" xlink:href="#m1ff960136a" y="145.152943"/>
      </g>
     </g>
     <g id="text_4">
      <!-- 0.0 -->
      <g transform="translate(243.016875 148.952162)scale(0.1 -0.1)">
       <defs>
        <path d="M 9.421875 5.078125 
Q 9.421875 7.8125 11.28125 9.71875 
Q 13.140625 11.625 15.921875 11.625 
Q 18.609375 11.625 20.5 9.71875 
Q 22.40625 7.8125 22.40625 5.078125 
Q 22.40625 2.390625 20.5 0.484375 
Q 18.609375 -1.421875 15.921875 -1.421875 
Q 13.140625 -1.421875 11.28125 0.453125 
Q 9.421875 2.34375 9.421875 5.078125 
z
" id="DejaVuSerif-46"/>
       </defs>
       <use xlink:href="#DejaVuSerif-48"/>
       <use x="63.623047" xlink:href="#DejaVuSerif-46"/>
       <use x="95.410156" xlink:href="#DejaVuSerif-48"/>
      </g>
     </g>
    </g>
    <g id="ytick_2">
     <g id="line2d_24">
      <g>
       <use style="stroke:#000000;stroke-width:0.8;" x="265.92" xlink:href="#m1ff960136a" y="106.134458"/>
      </g>
     </g>
     <g id="text_5">
      <!-- 0.2 -->
      <g transform="translate(243.016875 109.933677)scale(0.1 -0.1)">
       <use xlink:href="#DejaVuSerif-48"/>
       <use x="63.623047" xlink:href="#DejaVuSerif-46"/>
       <use x="95.410156" xlink:href="#DejaVuSerif-50"/>
      </g>
     </g>
    </g>
    <g id="ytick_3">
     <g id="line2d_25">
      <g>
       <use style="stroke:#000000;stroke-width:0.8;" x="265.92" xlink:href="#m1ff960136a" y="67.115973"/>
      </g>
     </g>
     <g id="text_6">
      <!-- 0.4 -->
      <g transform="translate(243.016875 70.915191)scale(0.1 -0.1)">
       <defs>
        <path d="M 34.90625 24.703125 
L 34.90625 63.484375 
L 10.015625 24.703125 
z
M 56.390625 0 
L 23.1875 0 
L 23.1875 5.171875 
L 34.90625 5.171875 
L 34.90625 19.484375 
L 3.078125 19.484375 
L 3.078125 24.8125 
L 35.015625 74.21875 
L 44.671875 74.21875 
L 44.671875 24.703125 
L 58.59375 24.703125 
L 58.59375 19.484375 
L 44.671875 19.484375 
L 44.671875 5.171875 
L 56.390625 5.171875 
z
" id="DejaVuSerif-52"/>
       </defs>
       <use xlink:href="#DejaVuSerif-48"/>
       <use x="63.623047" xlink:href="#DejaVuSerif-46"/>
       <use x="95.410156" xlink:href="#DejaVuSerif-52"/>
      </g>
     </g>
    </g>
    <g id="text_7">
     <!-- Power -->
     <g transform="translate(236.937188 111.583696)rotate(-90)scale(0.1 -0.1)">
      <defs>
       <path d="M 48 51.90625 
L 61.28125 11.375 
L 73 46.6875 
L 65.484375 46.6875 
L 65.484375 51.90625 
L 84.28125 51.90625 
L 84.28125 46.6875 
L 78.515625 46.6875 
L 63.09375 0 
L 55.609375 0 
L 42.828125 38.8125 
L 29.984375 0 
L 22.796875 0 
L 7.421875 46.6875 
L 1.609375 46.6875 
L 1.609375 51.90625 
L 25.09375 51.90625 
L 25.09375 46.6875 
L 16.703125 46.6875 
L 28.328125 11.375 
L 41.703125 51.90625 
z
" id="DejaVuSerif-119"/>
      </defs>
      <use xlink:href="#DejaVuSerif-80"/>
      <use x="63.285156" xlink:href="#DejaVuSerif-111"/>
      <use x="123.490234" xlink:href="#DejaVuSerif-119"/>
      <use x="209.085938" xlink:href="#DejaVuSerif-101"/>
      <use x="268.265625" xlink:href="#DejaVuSerif-114"/>
     </g>
    </g>
   </g>
   <g id="LineCollection_1">
    <path clip-path="url(#p0c3302f742)" d="M 272.688076 46.409143 
L 407.956364 46.409143 
" style="fill:none;stroke:#808080;stroke-dasharray:5.55,2.4;stroke-dashoffset:0;stroke-width:1.5;"/>
   </g>
   <g id="LineCollection_2">
    <path clip-path="url(#p0c3302f742)" d="M 272.688076 60.035467 
L 407.956364 60.035467 
" style="fill:none;stroke:#a9a9a9;stroke-dasharray:5.55,2.4;stroke-dashoffset:0;stroke-width:1.5;"/>
   </g>
   <g id="LineCollection_3">
    <path clip-path="url(#p0c3302f742)" d="M 272.688076 70.915053 
L 407.956364 70.915053 
" style="fill:none;stroke:#c0c0c0;stroke-dasharray:5.55,2.4;stroke-dashoffset:0;stroke-width:1.5;"/>
   </g>
   <g id="LineCollection_4">
    <path clip-path="url(#p0c3302f742)" d="M 272.688076 76.098001 
L 407.956364 76.098001 
" style="fill:none;stroke:#d3d3d3;stroke-dasharray:5.55,2.4;stroke-dashoffset:0;stroke-width:1.5;"/>
   </g>
   <g id="line2d_26">
    <path clip-path="url(#p0c3302f742)" d="M 407.956364 143.741002 
L 403.213616 143.543066 
L 399.227255 144.216621 
L 395.788878 144.986658 
L 392.765875 145.065861 
L 390.068617 144.719851 
L 387.633683 144.600158 
L 385.414539 144.908002 
L 383.376032 144.981399 
L 381.490955 144.517707 
L 379.73782 143.916232 
L 378.099359 143.538546 
L 376.561486 143.421444 
L 375.112563 143.670411 
L 373.74286 142.628139 
L 372.444161 140.356134 
L 371.209467 139.608265 
L 370.032763 139.469479 
L 368.908846 139.898385 
L 367.833182 139.55352 
L 366.801799 133.46568 
L 365.811193 129.423195 
L 364.858264 126.583948 
L 363.940249 124.355607 
L 363.054681 126.382968 
L 362.199344 122.015333 
L 361.372241 112.414727 
L 360.571569 111.731236 
L 359.79569 113.289214 
L 359.043114 110.929115 
L 358.312483 113.09913 
L 357.602554 123.808947 
L 356.912184 121.958041 
L 356.240326 122.780643 
L 355.586012 130.832231 
L 354.948349 134.592254 
L 354.326511 140.0335 
L 353.719731 143.978973 
L 353.127298 142.515554 
L 352.548548 141.688571 
L 351.982864 141.757319 
L 351.429669 143.615013 
L 350.888423 144.820752 
L 350.358621 144.150095 
L 349.839788 142.70774 
L 348.83328 142.285185 
L 347.865643 140.93225 
L 347.395485 141.850732 
L 346.933987 143.198822 
L 346.480834 141.62725 
L 346.035731 139.602833 
L 345.598396 138.590582 
L 345.168563 138.217349 
L 344.330404 143.690574 
L 343.921608 142.022504 
L 343.519374 139.315536 
L 343.123495 135.297368 
L 342.733774 133.077718 
L 342.35002 133.834833 
L 341.23281 120.70562 
L 340.871208 110.561971 
L 340.51475 109.913846 
L 340.163291 117.259022 
L 339.474825 115.771433 
L 339.137558 116.83549 
L 338.80477 114.485128 
L 338.476344 110.620756 
L 337.83213 128.453592 
L 337.516128 127.030042 
L 337.204063 129.938995 
L 336.895836 130.002112 
L 336.591354 126.295643 
L 336.290527 130.580681 
L 335.993269 129.266511 
L 335.699496 127.326747 
L 335.409128 128.846375 
L 335.122085 122.812637 
L 334.838294 120.193469 
L 334.55768 122.180386 
L 334.280174 117.765 
L 333.734215 126.361834 
L 333.465633 123.194972 
L 333.199898 123.675496 
L 332.936952 129.391418 
L 332.676737 128.753772 
L 332.164275 134.355055 
L 331.911921 132.47379 
L 331.414712 135.666747 
L 331.169759 134.349348 
L 330.686922 136.96492 
L 330.448947 137.468731 
L 329.979673 139.466162 
L 329.748291 138.02761 
L 329.29184 133.540213 
L 329.066695 132.649166 
L 328.843554 132.344101 
L 328.622384 135.596631 
L 328.403148 136.623165 
L 328.185814 133.692065 
L 327.970348 133.183293 
L 327.756719 132.070301 
L 327.544897 132.324102 
L 327.33485 135.831099 
L 326.919965 128.235802 
L 326.71507 127.83809 
L 326.511837 123.656424 
L 326.310239 124.915325 
L 326.11025 129.853728 
L 325.714998 118.169346 
L 325.519686 117.19153 
L 325.325884 111.186017 
L 324.942719 124.663743 
L 324.565326 112.984487 
L 324.378739 111.379313 
L 324.193532 106.352335 
L 323.827173 122.522767 
L 323.645984 120.269797 
L 323.466094 115.917242 
L 323.287487 115.651466 
L 323.110144 113.129176 
L 322.934048 115.372582 
L 322.75918 125.512343 
L 322.585524 128.566132 
L 322.413063 125.469439 
L 322.071662 123.859745 
L 321.90269 127.623331 
L 321.73485 134.413231 
L 321.568126 135.896009 
L 321.07451 130.454071 
L 320.912109 132.966988 
L 320.59043 139.594937 
L 320.431126 140.034777 
L 320.272828 139.72618 
L 320.115524 139.709273 
L 319.803848 144.628992 
L 319.649452 145.015501 
L 319.496001 144.301297 
L 319.19189 142.644292 
L 319.041207 143.1731 
L 318.891425 142.542935 
L 318.594521 139.794915 
L 318.155658 131.077524 
L 318.011062 131.145658 
L 317.867296 128.744619 
L 317.582214 130.250407 
L 317.44088 125.18907 
L 317.300339 124.181761 
L 317.021599 133.811349 
L 316.745926 137.318487 
L 316.609219 135.170414 
L 316.473253 134.886427 
L 316.338021 131.632785 
L 315.936649 116.422161 
L 315.804275 112.844543 
L 315.672596 114.502815 
L 315.411296 107.886528 
L 315.281661 107.967141 
L 315.152693 106.477241 
L 314.643358 126.954479 
L 314.517626 127.322038 
L 314.392521 126.386808 
L 314.14417 130.174328 
L 313.533852 102.893064 
L 313.413552 110.013629 
L 313.293827 108.31354 
L 313.174672 103.365043 
L 313.05608 106.443415 
L 312.820567 102.994243 
L 312.471396 126.767457 
L 312.24129 131.691282 
L 312.127024 133.327353 
L 312.013277 138.55133 
L 311.900044 136.862335 
L 311.563383 114.625482 
L 311.452161 114.815492 
L 311.34143 122.156703 
L 311.231186 120.121709 
L 311.012142 110.195978 
L 310.903334 107.65449 
L 310.794997 111.088745 
L 310.579717 125.034234 
L 310.366271 118.918658 
L 310.154628 114.214405 
L 309.944758 123.44577 
L 309.840478 120.064028 
L 309.530217 97.972623 
L 309.32549 102.903849 
L 309.223751 103.785597 
L 309.122423 103.396365 
L 308.920988 94.499799 
L 308.621839 123.748529 
L 308.522911 127.813975 
L 308.424372 126.298781 
L 308.326219 128.717597 
L 308.13106 137.962647 
L 308.034047 138.95203 
L 307.84114 134.086136 
L 307.745241 134.553995 
L 307.649708 136.181039 
L 307.554537 135.871256 
L 307.459727 135.123631 
L 307.271175 129.867854 
L 307.177429 127.905777 
L 306.990981 131.016364 
L 306.805911 128.912028 
L 306.622198 123.743654 
L 306.349129 126.434396 
L 306.258763 126.539238 
L 306.168722 125.720774 
L 306.079003 126.413955 
L 305.900524 128.489653 
L 305.811759 127.954584 
L 305.635166 124.576071 
L 305.372589 131.612014 
L 305.285671 129.86658 
L 305.112735 125.388481 
L 304.940984 130.59132 
L 304.770402 129.744574 
L 304.600973 127.495825 
L 304.432682 133.4975 
L 304.265515 130.09293 
L 304.099454 121.928967 
L 303.934487 127.82595 
L 303.852409 125.795922 
L 303.607776 110.981078 
L 303.52676 112.388069 
L 303.365508 120.299131 
L 303.12556 117.758107 
L 302.966862 132.710612 
L 302.809162 142.288654 
L 302.652449 142.966918 
L 302.49671 145.082872 
L 302.419202 144.683255 
L 302.188105 139.167218 
L 302.035216 140.953205 
L 301.95912 140.812358 
L 301.732209 132.396628 
L 301.657027 133.349731 
L 301.432822 138.741935 
L 301.28446 132.512771 
L 301.210607 132.536217 
L 301.13697 132.380959 
L 301.06355 131.087447 
L 300.844571 109.154276 
L 300.772001 109.321002 
L 300.555543 115.210751 
L 300.483805 111.478019 
L 300.41227 113.227353 
L 300.128159 139.035849 
L 299.987302 139.720727 
L 299.917169 140.545184 
L 299.847232 140.398031 
L 299.638585 131.132504 
L 299.431661 126.682704 
L 299.363064 125.309566 
L 299.158394 117.044636 
L 299.09054 117.110487 
L 298.687231 128.381121 
L 298.554225 129.016333 
L 298.356029 119.597553 
L 298.159389 124.339647 
L 298.094184 123.120206 
L 298.029148 120.94796 
L 297.706476 132.751838 
L 297.578561 129.839057 
L 297.451297 134.852954 
L 297.387906 133.795611 
L 297.19869 116.673989 
L 297.135934 116.929573 
L 297.073335 119.384386 
L 297.010892 117.994891 
L 296.824491 98.736849 
L 296.762664 100.611641 
L 296.639467 116.530595 
L 296.578094 115.512407 
L 296.516872 113.427466 
L 296.455798 114.946633 
L 296.273467 131.357566 
L 296.212983 130.090644 
L 296.092452 127.376334 
L 295.972498 131.565824 
L 295.853115 138.090211 
L 295.675101 130.062955 
L 295.616043 131.980967 
L 295.498342 140.73562 
L 295.439699 139.577093 
L 295.322822 135.610204 
L 295.148522 140.643847 
L 294.975427 131.549127 
L 294.917993 133.814389 
L 294.803519 139.730116 
L 294.746477 138.496842 
L 294.689565 136.453978 
L 294.632782 136.728791 
L 294.5196 141.939036 
L 294.463201 141.765651 
L 294.294759 136.567503 
L 294.183091 138.651298 
L 294.071918 134.978358 
L 293.961236 129.53931 
L 293.906077 129.774455 
L 293.796124 134.277533 
L 293.741328 133.526788 
L 293.632093 134.954866 
L 293.523333 139.272625 
L 293.039669 112.197641 
L 292.9865 112.443382 
L 292.512992 141.565038 
L 292.460928 140.011907 
L 292.357124 138.541953 
L 292.253748 140.070729 
L 292.099478 130.108722 
L 292.048266 130.379138 
L 291.895253 139.256065 
L 291.793761 136.818852 
L 291.642289 144.142474 
L 291.592001 141.506937 
L 291.441741 130.72499 
L 291.391854 133.589465 
L 291.342066 131.141165 
L 291.193292 109.328102 
L 291.143896 111.606446 
L 291.045396 127.006526 
L 290.996291 124.07332 
L 290.898369 118.396099 
L 290.84955 119.1966 
L 290.703664 131.328917 
L 290.558622 116.979136 
L 290.510461 121.323093 
L 290.414415 128.579757 
L 290.318735 117.431968 
L 290.271032 118.024721 
L 290.128466 135.531875 
L 290.081123 133.985069 
L 290.03387 131.26481 
L 289.986706 132.694216 
L 289.892643 139.302364 
L 289.845744 137.794171 
L 289.752207 128.184165 
L 289.70557 130.577514 
L 289.612554 135.914348 
L 289.566176 134.369014 
L 289.473675 129.249168 
L 289.335561 138.264271 
L 289.289692 137.479483 
L 288.880604 114.873657 
L 288.835559 119.218104 
L 288.745712 124.763948 
L 288.700909 122.457925 
L 288.656186 121.674648 
L 288.478087 133.50985 
L 288.43376 130.840093 
L 288.389511 129.405063 
L 288.345339 130.836872 
L 288.301246 132.212561 
L 288.25723 130.799353 
L 288.125643 117.188898 
L 288.081934 120.023674 
L 287.994745 124.570292 
L 287.951263 122.549609 
L 287.82127 110.805871 
L 287.73498 125.331082 
L 287.691947 124.911926 
L 287.606101 116.165515 
L 287.563288 118.000938 
L 287.477881 127.074264 
L 287.435287 121.342316 
L 287.350314 105.756861 
L 287.307936 108.892573 
L 287.181229 131.352838 
L 287.139135 130.012493 
L 287.097112 129.811632 
L 286.888048 145.1298 
L 286.804908 144.598967 
L 286.680713 144.111952 
L 286.598257 141.165084 
L 286.516071 137.8923 
L 286.475079 139.545501 
L 286.434154 140.352923 
L 286.311779 126.953163 
L 286.271119 129.297963 
L 286.149536 142.555749 
L 286.109139 141.473569 
L 286.068806 140.548916 
L 285.988336 144.517364 
L 285.948198 144.111774 
L 285.828167 136.631285 
L 285.788285 139.024967 
L 285.708709 141.01956 
L 285.629385 137.682474 
L 285.589817 138.459089 
L 285.471487 144.631858 
L 285.432167 143.755465 
L 285.392909 142.622704 
L 285.314578 143.46975 
L 285.275503 143.022722 
L 285.119812 130.266882 
L 285.08104 132.369265 
L 285.042328 133.752638 
L 285.003676 131.61879 
L 284.965083 128.746933 
L 284.926549 130.228156 
L 284.811303 142.937454 
L 284.734766 141.934382 
L 284.658461 144.548101 
L 284.620396 144.249829 
L 284.506546 138.095043 
L 284.468711 140.344417 
L 284.393211 142.272636 
L 284.317938 138.488742 
L 284.280386 139.739018 
L 284.168067 144.94619 
L 284.130739 144.452753 
L 283.870987 131.199412 
L 283.797265 113.994793 
L 283.760485 117.253777 
L 283.687086 127.46421 
L 283.650467 122.128641 
L 283.577389 102.79134 
L 283.54093 107.116897 
L 283.43187 128.386189 
L 283.395621 121.448434 
L 283.359426 117.758392 
L 283.323282 121.449288 
L 283.215163 139.140087 
L 283.179227 137.423489 
L 283.107508 130.595813 
L 283.071726 135.040936 
L 282.964685 145.152 
L 282.929106 144.743221 
L 282.822671 144.30249 
L 282.716685 138.318287 
L 282.681457 140.268135 
L 282.611147 143.96973 
L 282.576066 142.356939 
L 282.506051 139.873256 
L 282.471117 141.745261 
L 282.331865 145.078898 
L 282.297172 145.028986 
L 282.227931 142.901217 
L 282.193382 143.147732 
L 282.124427 145.016775 
L 281.850487 122.386251 
L 281.782468 127.509935 
L 281.57951 143.968219 
L 281.545843 143.81892 
L 281.445113 135.381303 
L 281.411626 136.078274 
L 281.378184 137.003202 
L 281.311432 126.508755 
L 281.244859 132.431288 
L 281.145328 143.336011 
L 281.079194 141.219707 
L 281.046192 141.288599 
L 280.914617 144.598748 
L 280.881831 143.657896 
L 280.849088 142.97813 
L 280.816388 143.681857 
L 280.78373 144.68498 
L 280.751115 144.358563 
L 280.653522 131.247543 
L 280.588672 134.910986 
L 280.523988 140.9541 
L 280.491709 136.223664 
L 280.459471 131.96718 
L 280.39512 137.336254 
L 280.330934 144.908405 
L 280.298902 142.674673 
L 280.234961 138.643931 
L 280.203052 139.993939 
L 280.171183 142.098041 
L 280.139355 138.179851 
L 280.07582 111.615238 
L 280.012445 112.885848 
L 279.94923 126.519181 
L 279.917683 114.234387 
L 279.886175 108.018878 
L 279.854706 114.725476 
L 279.760537 138.804586 
L 279.697954 130.991518 
L 279.604371 142.680155 
L 279.542176 135.993746 
L 279.511136 134.301009 
L 279.480135 137.069273 
L 279.418247 144.686198 
L 279.356512 143.275629 
L 279.325701 143.044532 
L 279.294928 143.336737 
L 279.264193 143.233914 
L 279.233496 143.282447 
L 279.172213 145.050671 
L 279.141628 143.900484 
L 279.08057 141.086752 
L 279.050096 141.817883 
L 279.01966 143.662744 
L 278.98926 143.469516 
L 278.928572 137.734856 
L 278.868029 139.583546 
L 278.837813 142.450787 
L 278.77749 137.799226 
L 278.747382 137.503173 
L 278.657277 144.865893 
L 278.567494 143.86325 
L 278.537638 144.382536 
L 278.507817 144.039459 
L 278.448282 142.854445 
L 278.418567 143.608566 
L 278.388888 144.575737 
L 278.359243 143.280888 
L 278.27052 131.184635 
L 278.211546 133.31756 
L 278.18211 134.992038 
L 278.094011 100.105217 
L 278.00622 117.221843 
L 277.977025 119.61538 
L 277.918736 99.23001 
L 277.860583 113.42721 
L 277.802564 132.191998 
L 277.744679 119.485127 
L 277.629309 138.635746 
L 277.600549 131.389978 
L 277.571822 125.417319 
L 277.514467 132.012735 
L 277.457243 144.155636 
L 277.40015 140.387783 
L 277.371652 137.474321 
L 277.314753 141.473735 
L 277.257983 144.701621 
L 277.229646 142.83429 
L 277.116617 139.695176 
L 277.004096 107.189437 
L 276.976045 113.697202 
L 276.948025 121.744068 
L 276.920036 112.630136 
L 276.864152 96.637334 
L 276.808393 106.505586 
L 276.780559 125.290368 
L 276.697244 117.960972 
L 276.614205 138.205023 
L 276.558999 124.272424 
L 276.503913 121.213492 
L 276.312062 138.372494 
L 276.257517 145.028875 
L 276.17592 144.756505 
L 276.14878 144.816635 
L 276.094588 138.548162 
L 276.040513 141.031848 
L 275.986554 143.981437 
L 275.959619 141.365741 
L 275.932712 140.40615 
L 275.878985 142.247994 
L 275.825372 144.852462 
L 275.771875 142.669841 
L 275.691841 145.106525 
L 275.66522 142.88763 
L 275.612063 139.790986 
L 275.559018 141.222323 
L 275.506086 144.294443 
L 275.479661 140.719787 
L 275.426896 132.527419 
L 275.374241 137.167353 
L 275.347955 142.117057 
L 275.321697 135.708213 
L 275.269262 128.120557 
L 275.216938 131.691562 
L 275.190816 138.160913 
L 275.138655 126.713897 
L 275.086602 129.608278 
L 275.034656 139.997815 
L 274.982819 131.376815 
L 274.725226 144.856696 
L 274.699612 142.860597 
L 274.622927 140.510391 
L 274.597417 141.7883 
L 274.546475 144.614831 
L 274.495636 141.74345 
L 274.419571 144.452012 
L 274.343736 136.913101 
L 274.293307 140.021984 
L 274.26813 142.86387 
L 274.217853 138.786941 
L 274.192752 138.495945 
L 274.117599 145.105736 
L 274.017745 144.77945 
L 273.794518 110.00605 
L 273.74518 114.401041 
L 273.69594 133.325783 
L 273.646797 112.757122 
L 273.622261 112.653671 
L 273.597749 111.945789 
L 273.548797 123.045304 
L 273.524357 105.826133 
L 273.499941 100.524303 
L 273.45118 105.820254 
L 273.281259 137.047542 
L 273.232922 144.47302 
L 273.160589 143.812939 
L 273.136525 144.585323 
L 273.112483 144.439582 
L 273.040497 136.020038 
L 272.992621 140.061424 
L 272.968717 140.713677 
L 272.873329 111.65279 
L 272.849539 122.349708 
L 272.825771 133.185286 
L 272.778303 115.554799 
L 272.730925 110.150355 
L 272.70727 116.655211 
L 272.683636 128.604543 
L 272.683636 128.604543 
" style="fill:none;stroke:#1f77b4;stroke-linecap:square;stroke-width:1.5;"/>
   </g>
   <g id="patch_3">
    <path d="M 265.92 150.089143 
L 265.92 41.472 
" style="fill:none;stroke:#000000;stroke-linecap:square;stroke-linejoin:miter;stroke-width:0.8;"/>
   </g>
   <g id="patch_4">
    <path d="M 414.72 150.089143 
L 414.72 41.472 
" style="fill:none;stroke:#000000;stroke-linecap:square;stroke-linejoin:miter;stroke-width:0.8;"/>
   </g>
   <g id="patch_5">
    <path d="M 265.92 150.089143 
L 414.72 150.089143 
" style="fill:none;stroke:#000000;stroke-linecap:square;stroke-linejoin:miter;stroke-width:0.8;"/>
   </g>
   <g id="patch_6">
    <path d="M 265.92 41.472 
L 414.72 41.472 
" style="fill:none;stroke:#000000;stroke-linecap:square;stroke-linejoin:miter;stroke-width:0.8;"/>
   </g>
   <g id="text_8">
    <!-- Periodogram -->
    <g transform="translate(307.698125 35.472)scale(0.1 -0.1)">
     <defs>
      <path d="M 52.484375 46.6875 
L 52.484375 1.125 
Q 52.484375 -10.0625 46.328125 -16.140625 
Q 40.1875 -22.21875 28.8125 -22.21875 
Q 23.6875 -22.21875 19 -21.28125 
Q 14.3125 -20.359375 10.015625 -18.5 
L 10.015625 -7.625 
L 14.703125 -7.625 
Q 15.578125 -12.703125 18.84375 -15.046875 
Q 22.125 -17.390625 28.21875 -17.390625 
Q 36.140625 -17.390625 39.8125 -12.921875 
Q 43.5 -8.453125 43.5 1.125 
L 43.5 8.109375 
Q 40.875 3.21875 36.796875 0.890625 
Q 32.71875 -1.421875 26.703125 -1.421875 
Q 17.140625 -1.421875 11.0625 6.171875 
Q 4.984375 13.765625 4.984375 25.984375 
Q 4.984375 38.1875 11.03125 45.75 
Q 17.09375 53.328125 26.703125 53.328125 
Q 32.71875 53.328125 36.796875 51 
Q 40.875 48.6875 43.5 43.796875 
L 43.5 51.90625 
L 61.078125 51.90625 
L 61.078125 46.6875 
z
M 43.5 28.515625 
Q 43.5 37.84375 39.90625 42.765625 
Q 36.328125 47.703125 29.5 47.703125 
Q 22.5625 47.703125 19.015625 42.234375 
Q 15.484375 36.765625 15.484375 25.984375 
Q 15.484375 15.234375 19.015625 9.71875 
Q 22.5625 4.203125 29.5 4.203125 
Q 36.328125 4.203125 39.90625 9.109375 
Q 43.5 14.015625 43.5 23.390625 
z
" id="DejaVuSerif-103"/>
      <path d="M 39.796875 16.3125 
L 39.796875 27.296875 
L 28.21875 27.296875 
Q 21.53125 27.296875 18.25 24.40625 
Q 14.984375 21.53125 14.984375 15.578125 
Q 14.984375 10.15625 18.296875 6.984375 
Q 21.625 3.8125 27.296875 3.8125 
Q 32.90625 3.8125 36.34375 7.28125 
Q 39.796875 10.75 39.796875 16.3125 
z
M 48.78125 32.421875 
L 48.78125 5.171875 
L 56.78125 5.171875 
L 56.78125 0 
L 39.796875 0 
L 39.796875 5.609375 
Q 36.8125 2 32.90625 0.28125 
Q 29 -1.421875 23.78125 -1.421875 
Q 15.140625 -1.421875 10.0625 3.171875 
Q 4.984375 7.765625 4.984375 15.578125 
Q 4.984375 23.640625 10.796875 28.078125 
Q 16.609375 32.515625 27.203125 32.515625 
L 39.796875 32.515625 
L 39.796875 36.078125 
Q 39.796875 42 36.203125 45.234375 
Q 32.625 48.484375 26.125 48.484375 
Q 20.75 48.484375 17.578125 46.046875 
Q 14.40625 43.609375 13.625 38.8125 
L 8.984375 38.8125 
L 8.984375 49.3125 
Q 13.671875 51.3125 18.09375 52.3125 
Q 22.515625 53.328125 26.703125 53.328125 
Q 37.5 53.328125 43.140625 47.96875 
Q 48.78125 42.625 48.78125 32.421875 
z
" id="DejaVuSerif-97"/>
      <path d="M 51.8125 41.796875 
Q 54.390625 47.515625 58.421875 50.421875 
Q 62.453125 53.328125 67.828125 53.328125 
Q 75.984375 53.328125 79.984375 48.265625 
Q 83.984375 43.21875 83.984375 33.015625 
L 83.984375 5.171875 
L 92.09375 5.171875 
L 92.09375 0 
L 67.1875 0 
L 67.1875 5.171875 
L 75 5.171875 
L 75 31.984375 
Q 75 39.9375 72.65625 43.3125 
Q 70.3125 46.6875 64.890625 46.6875 
Q 58.890625 46.6875 55.734375 42.140625 
Q 52.59375 37.59375 52.59375 28.90625 
L 52.59375 5.171875 
L 60.40625 5.171875 
L 60.40625 0 
L 35.796875 0 
L 35.796875 5.171875 
L 43.609375 5.171875 
L 43.609375 32.328125 
Q 43.609375 40.09375 41.265625 43.390625 
Q 38.921875 46.6875 33.5 46.6875 
Q 27.484375 46.6875 24.328125 42.140625 
Q 21.1875 37.59375 21.1875 28.90625 
L 21.1875 5.171875 
L 29 5.171875 
L 29 0 
L 4.109375 0 
L 4.109375 5.171875 
L 12.203125 5.171875 
L 12.203125 46.78125 
L 3.609375 46.78125 
L 3.609375 51.90625 
L 21.1875 51.90625 
L 21.1875 42.671875 
Q 23.6875 47.859375 27.53125 50.59375 
Q 31.390625 53.328125 36.28125 53.328125 
Q 42.328125 53.328125 46.375 50.3125 
Q 50.4375 47.3125 51.8125 41.796875 
z
" id="DejaVuSerif-109"/>
     </defs>
     <use xlink:href="#DejaVuSerif-80"/>
     <use x="62.785156" xlink:href="#DejaVuSerif-101"/>
     <use x="121.964844" xlink:href="#DejaVuSerif-114"/>
     <use x="169.767578" xlink:href="#DejaVuSerif-105"/>
     <use x="201.75" xlink:href="#DejaVuSerif-111"/>
     <use x="261.955078" xlink:href="#DejaVuSerif-100"/>
     <use x="325.96875" xlink:href="#DejaVuSerif-111"/>
     <use x="386.173828" xlink:href="#DejaVuSerif-103"/>
     <use x="450.1875" xlink:href="#DejaVuSerif-114"/>
     <use x="497.990234" xlink:href="#DejaVuSerif-97"/>
     <use x="557.609375" xlink:href="#DejaVuSerif-109"/>
    </g>
   </g>
   <g id="legend_1">
    <g id="patch_7">
     <path d="M 419.648125 108.123071 
L 454.431875 108.123071 
Q 455.231875 108.123071 455.231875 107.323071 
L 455.231875 84.238071 
Q 455.231875 83.438071 454.431875 83.438071 
L 419.648125 83.438071 
Q 418.848125 83.438071 418.848125 84.238071 
L 418.848125 107.323071 
Q 418.848125 108.123071 419.648125 108.123071 
z
" style="fill:#ffffff;opacity:0.8;stroke:#cccccc;stroke-linejoin:miter;"/>
    </g>
    <g id="line2d_27">
     <path d="M 420.448125 86.677446 
L 428.448125 86.677446 
" style="fill:none;stroke:#808080;stroke-dasharray:5.55,2.4;stroke-dashoffset:0;stroke-width:1.5;"/>
    </g>
    <g id="text_9">
     <!-- 99.9% FAP -->
     <g transform="translate(431.648125 88.077446)scale(0.04 -0.04)">
      <defs>
       <path d="M 46.78125 32.671875 
Q 43.5 29 39.25 27.1875 
Q 35.015625 25.390625 29.6875 25.390625 
Q 18.84375 25.390625 12.5625 31.9375 
Q 6.296875 38.484375 6.296875 49.8125 
Q 6.296875 60.890625 13.109375 67.546875 
Q 19.921875 74.21875 31.296875 74.21875 
Q 43.65625 74.21875 50.265625 65.015625 
Q 56.890625 55.8125 56.890625 38.71875 
Q 56.890625 19.578125 49.015625 9.078125 
Q 41.15625 -1.421875 26.90625 -1.421875 
Q 23.046875 -1.421875 18.796875 -0.6875 
Q 14.546875 0.046875 10.109375 1.515625 
L 10.109375 13.625 
L 15.578125 13.625 
Q 16.21875 8.6875 19.390625 6.046875 
Q 22.5625 3.421875 27.875 3.421875 
Q 37.359375 3.421875 41.984375 10.5625 
Q 46.625 17.71875 46.78125 32.671875 
z
M 30.90625 69.390625 
Q 23.96875 69.390625 20.28125 64.328125 
Q 16.609375 59.28125 16.609375 49.8125 
Q 16.609375 40.328125 20.28125 35.25 
Q 23.96875 30.171875 30.90625 30.171875 
Q 37.84375 30.171875 41.53125 35.078125 
Q 45.21875 39.984375 45.21875 49.21875 
Q 45.21875 58.9375 41.5 64.15625 
Q 37.796875 69.390625 30.90625 69.390625 
z
" id="DejaVuSerif-57"/>
       <path d="M 22.40625 69.671875 
Q 18.109375 69.671875 15.6875 65.625 
Q 13.28125 61.578125 13.28125 54.296875 
Q 13.28125 47.125 15.75 43.015625 
Q 18.21875 38.921875 22.40625 38.921875 
Q 26.5625 38.921875 28.96875 43 
Q 31.390625 47.078125 31.390625 54.296875 
Q 31.390625 61.53125 28.96875 65.59375 
Q 26.5625 69.671875 22.40625 69.671875 
z
M 72.703125 33.890625 
Q 68.453125 33.890625 66.03125 29.78125 
Q 63.625 25.6875 63.625 18.40625 
Q 63.625 11.234375 66.0625 7.15625 
Q 68.5 3.078125 72.703125 3.078125 
Q 76.90625 3.078125 79.296875 7.15625 
Q 81.6875 11.234375 81.6875 18.40625 
Q 81.6875 25.640625 79.265625 29.765625 
Q 76.859375 33.890625 72.703125 33.890625 
z
M 72.703125 38.28125 
Q 80.421875 38.28125 84.953125 32.90625 
Q 89.5 27.546875 89.5 18.40625 
Q 89.5 9.28125 84.9375 3.921875 
Q 80.375 -1.421875 72.703125 -1.421875 
Q 64.890625 -1.421875 60.34375 3.921875 
Q 55.8125 9.28125 55.8125 18.40625 
Q 55.8125 27.59375 60.375 32.9375 
Q 64.9375 38.28125 72.703125 38.28125 
z
M 66.609375 74.21875 
L 74.03125 74.21875 
L 28.421875 -1.421875 
L 21 -1.421875 
z
M 22.3125 74.21875 
Q 30.03125 74.21875 34.609375 68.875 
Q 39.203125 63.53125 39.203125 54.390625 
Q 39.203125 45.171875 34.640625 39.84375 
Q 30.078125 34.515625 22.3125 34.515625 
Q 14.546875 34.515625 10.03125 39.859375 
Q 5.515625 45.21875 5.515625 54.390625 
Q 5.515625 63.484375 10.046875 68.84375 
Q 14.59375 74.21875 22.3125 74.21875 
z
" id="DejaVuSerif-37"/>
       <path d="M 5.515625 0 
L 5.515625 5.171875 
L 14.796875 5.171875 
L 14.796875 67.671875 
L 5.515625 67.671875 
L 5.515625 72.90625 
L 65.1875 72.90625 
L 65.1875 56.6875 
L 59.1875 56.6875 
L 59.1875 66.890625 
L 24.703125 66.890625 
L 24.703125 42.484375 
L 49.609375 42.484375 
L 49.609375 51.609375 
L 55.609375 51.609375 
L 55.609375 27.390625 
L 49.609375 27.390625 
L 49.609375 36.53125 
L 24.703125 36.53125 
L 24.703125 5.171875 
L 36.375 5.171875 
L 36.375 0 
z
" id="DejaVuSerif-70"/>
       <path d="M 20.015625 26.421875 
L 46.78125 26.421875 
L 33.40625 61.078125 
z
M -0.59375 0 
L -0.59375 5.171875 
L 5.8125 5.171875 
L 31.78125 72.90625 
L 39.984375 72.90625 
L 66.015625 5.171875 
L 73.1875 5.171875 
L 73.1875 0 
L 46.6875 0 
L 46.6875 5.171875 
L 54.78125 5.171875 
L 48.6875 21.1875 
L 18.015625 21.1875 
L 11.921875 5.171875 
L 19.921875 5.171875 
L 19.921875 0 
z
" id="DejaVuSerif-65"/>
      </defs>
      <use xlink:href="#DejaVuSerif-57"/>
      <use x="63.623047" xlink:href="#DejaVuSerif-57"/>
      <use x="127.246094" xlink:href="#DejaVuSerif-46"/>
      <use x="159.033203" xlink:href="#DejaVuSerif-57"/>
      <use x="222.65625" xlink:href="#DejaVuSerif-37"/>
      <use x="317.675781" xlink:href="#DejaVuSerif-32"/>
      <use x="349.462891" xlink:href="#DejaVuSerif-70"/>
      <use x="410.097656" xlink:href="#DejaVuSerif-65"/>
      <use x="482.314453" xlink:href="#DejaVuSerif-80"/>
     </g>
    </g>
    <g id="line2d_28">
     <path d="M 420.448125 92.548696 
L 428.448125 92.548696 
" style="fill:none;stroke:#a9a9a9;stroke-dasharray:5.55,2.4;stroke-dashoffset:0;stroke-width:1.5;"/>
    </g>
    <g id="text_10">
     <!-- 99.0% FAP -->
     <g transform="translate(431.648125 93.948696)scale(0.04 -0.04)">
      <use xlink:href="#DejaVuSerif-57"/>
      <use x="63.623047" xlink:href="#DejaVuSerif-57"/>
      <use x="127.246094" xlink:href="#DejaVuSerif-46"/>
      <use x="159.033203" xlink:href="#DejaVuSerif-48"/>
      <use x="222.65625" xlink:href="#DejaVuSerif-37"/>
      <use x="317.675781" xlink:href="#DejaVuSerif-32"/>
      <use x="349.462891" xlink:href="#DejaVuSerif-70"/>
      <use x="410.097656" xlink:href="#DejaVuSerif-65"/>
      <use x="482.314453" xlink:href="#DejaVuSerif-80"/>
     </g>
    </g>
    <g id="line2d_29">
     <path d="M 420.448125 98.419946 
L 428.448125 98.419946 
" style="fill:none;stroke:#c0c0c0;stroke-dasharray:5.55,2.4;stroke-dashoffset:0;stroke-width:1.5;"/>
    </g>
    <g id="text_11">
     <!-- 95.0% FAP -->
     <g transform="translate(431.648125 99.819946)scale(0.04 -0.04)">
      <defs>
       <path d="M 50.296875 72.90625 
L 50.296875 64.890625 
L 16.890625 64.890625 
L 16.890625 44 
Q 19.4375 45.75 22.828125 46.625 
Q 26.21875 47.515625 30.421875 47.515625 
Q 42.234375 47.515625 49.0625 40.96875 
Q 55.90625 34.421875 55.90625 23.09375 
Q 55.90625 11.53125 49 5.046875 
Q 42.09375 -1.421875 29.59375 -1.421875 
Q 24.5625 -1.421875 19.28125 -0.1875 
Q 14.015625 1.03125 8.5 3.515625 
L 8.5 17.671875 
L 14.015625 17.671875 
Q 14.453125 10.75 18.421875 7.078125 
Q 22.40625 3.421875 29.59375 3.421875 
Q 37.3125 3.421875 41.453125 8.5 
Q 45.609375 13.578125 45.609375 23.09375 
Q 45.609375 32.5625 41.484375 37.609375 
Q 37.359375 42.671875 29.59375 42.671875 
Q 25.203125 42.671875 21.84375 41.109375 
Q 18.5 39.546875 15.921875 36.28125 
L 11.71875 36.28125 
L 11.71875 72.90625 
z
" id="DejaVuSerif-53"/>
      </defs>
      <use xlink:href="#DejaVuSerif-57"/>
      <use x="63.623047" xlink:href="#DejaVuSerif-53"/>
      <use x="127.246094" xlink:href="#DejaVuSerif-46"/>
      <use x="159.033203" xlink:href="#DejaVuSerif-48"/>
      <use x="222.65625" xlink:href="#DejaVuSerif-37"/>
      <use x="317.675781" xlink:href="#DejaVuSerif-32"/>
      <use x="349.462891" xlink:href="#DejaVuSerif-70"/>
      <use x="410.097656" xlink:href="#DejaVuSerif-65"/>
      <use x="482.314453" xlink:href="#DejaVuSerif-80"/>
     </g>
    </g>
    <g id="line2d_30">
     <path d="M 420.448125 104.291196 
L 428.448125 104.291196 
" style="fill:none;stroke:#d3d3d3;stroke-dasharray:5.55,2.4;stroke-dashoffset:0;stroke-width:1.5;"/>
    </g>
    <g id="text_12">
     <!-- 90.0% FAP -->
     <g transform="translate(431.648125 105.691196)scale(0.04 -0.04)">
      <use xlink:href="#DejaVuSerif-57"/>
      <use x="63.623047" xlink:href="#DejaVuSerif-48"/>
      <use x="127.246094" xlink:href="#DejaVuSerif-46"/>
      <use x="159.033203" xlink:href="#DejaVuSerif-48"/>
      <use x="222.65625" xlink:href="#DejaVuSerif-37"/>
      <use x="317.675781" xlink:href="#DejaVuSerif-32"/>
      <use x="349.462891" xlink:href="#DejaVuSerif-70"/>
      <use x="410.097656" xlink:href="#DejaVuSerif-65"/>
      <use x="482.314453" xlink:href="#DejaVuSerif-80"/>
     </g>
    </g>
   </g>
  </g>
  <g id="axes_2">
   <g id="patch_8">
    <path d="M 57.6 150.089143 
L 206.4 150.089143 
L 206.4 41.472 
L 57.6 41.472 
z
" style="fill:#ffffff;"/>
   </g>
   <g id="PathCollection_1">
    <defs>
     <path d="M 0 0.707107 
C 0.187527 0.707107 0.367398 0.632602 0.5 0.5 
C 0.632602 0.367398 0.707107 0.187527 0.707107 0 
C 0.707107 -0.187527 0.632602 -0.367398 0.5 -0.5 
C 0.367398 -0.632602 0.187527 -0.707107 0 -0.707107 
C -0.187527 -0.707107 -0.367398 -0.632602 -0.5 -0.5 
C -0.632602 -0.367398 -0.707107 -0.187527 -0.707107 0 
C -0.707107 0.187527 -0.632602 0.367398 -0.5 0.5 
C -0.367398 0.632602 -0.187527 0.707107 0 0.707107 
z
" id="m2c6f261bf9" style="stroke:#1f77b4;"/>
    </defs>
    <g clip-path="url(#p3f6b3203d1)">
     <use style="fill:#1f77b4;stroke:#1f77b4;" x="98.256851" xlink:href="#m2c6f261bf9" y="82.395165"/>
     <use style="fill:#1f77b4;stroke:#1f77b4;" x="98.261063" xlink:href="#m2c6f261bf9" y="89.574861"/>
     <use style="fill:#1f77b4;stroke:#1f77b4;" x="115.287101" xlink:href="#m2c6f261bf9" y="115.188493"/>
     <use style="fill:#1f77b4;stroke:#1f77b4;" x="64.363636" xlink:href="#m2c6f261bf9" y="126.519742"/>
     <use style="fill:#1f77b4;stroke:#1f77b4;" x="91.363205" xlink:href="#m2c6f261bf9" y="105.373311"/>
     <use style="fill:#1f77b4;stroke:#1f77b4;" x="91.392474" xlink:href="#m2c6f261bf9" y="106.779035"/>
     <use style="fill:#1f77b4;stroke:#1f77b4;" x="126.960381" xlink:href="#m2c6f261bf9" y="94.474491"/>
     <use style="fill:#1f77b4;stroke:#1f77b4;" x="126.964488" xlink:href="#m2c6f261bf9" y="131.223523"/>
     <use style="fill:#1f77b4;stroke:#1f77b4;" x="75.435414" xlink:href="#m2c6f261bf9" y="94.892534"/>
     <use style="fill:#1f77b4;stroke:#1f77b4;" x="75.439625" xlink:href="#m2c6f261bf9" y="145.152"/>
     <use style="fill:#1f77b4;stroke:#1f77b4;" x="93.340507" xlink:href="#m2c6f261bf9" y="75.328781"/>
     <use style="fill:#1f77b4;stroke:#1f77b4;" x="93.344719" xlink:href="#m2c6f261bf9" y="94.261261"/>
     <use style="fill:#1f77b4;stroke:#1f77b4;" x="102.348014" xlink:href="#m2c6f261bf9" y="56.281972"/>
     <use style="fill:#1f77b4;stroke:#1f77b4;" x="102.352225" xlink:href="#m2c6f261bf9" y="46.409143"/>
     <use style="fill:#1f77b4;stroke:#1f77b4;" x="111.930703" xlink:href="#m2c6f261bf9" y="83.468821"/>
     <use style="fill:#1f77b4;stroke:#1f77b4;" x="111.934809" xlink:href="#m2c6f261bf9" y="96.728732"/>
     <use style="fill:#1f77b4;stroke:#1f77b4;" x="120.6353" xlink:href="#m2c6f261bf9" y="108.59084"/>
     <use style="fill:#1f77b4;stroke:#1f77b4;" x="120.639511" xlink:href="#m2c6f261bf9" y="109.421948"/>
     <use style="fill:#1f77b4;stroke:#1f77b4;" x="129.723456" xlink:href="#m2c6f261bf9" y="92.715355"/>
     <use style="fill:#1f77b4;stroke:#1f77b4;" x="129.727562" xlink:href="#m2c6f261bf9" y="88.186051"/>
     <use style="fill:#1f77b4;stroke:#1f77b4;" x="71.843504" xlink:href="#m2c6f261bf9" y="134.779584"/>
     <use style="fill:#1f77b4;stroke:#1f77b4;" x="65.09201" xlink:href="#m2c6f261bf9" y="103.928313"/>
     <use style="fill:#1f77b4;stroke:#1f77b4;" x="74.147423" xlink:href="#m2c6f261bf9" y="79.946588"/>
     <use style="fill:#1f77b4;stroke:#1f77b4;" x="83.246319" xlink:href="#m2c6f261bf9" y="123.237581"/>
     <use style="fill:#1f77b4;stroke:#1f77b4;" x="92.326368" xlink:href="#m2c6f261bf9" y="102.44206"/>
     <use style="fill:#1f77b4;stroke:#1f77b4;" x="101.461483" xlink:href="#m2c6f261bf9" y="106.615972"/>
     <use style="fill:#1f77b4;stroke:#1f77b4;" x="70.941918" xlink:href="#m2c6f261bf9" y="121.874597"/>
     <use style="fill:#1f77b4;stroke:#1f77b4;" x="81.076129" xlink:href="#m2c6f261bf9" y="105.744626"/>
     <use style="fill:#1f77b4;stroke:#1f77b4;" x="91.500166" xlink:href="#m2c6f261bf9" y="85.316955"/>
     <use style="fill:#1f77b4;stroke:#1f77b4;" x="100.764784" xlink:href="#m2c6f261bf9" y="107.677719"/>
     <use style="fill:#1f77b4;stroke:#1f77b4;" x="121.810616" xlink:href="#m2c6f261bf9" y="70.905831"/>
     <use style="fill:#1f77b4;stroke:#1f77b4;" x="64.366462" xlink:href="#m2c6f261bf9" y="123.982193"/>
     <use style="fill:#1f77b4;stroke:#1f77b4;" x="100.753412" xlink:href="#m2c6f261bf9" y="87.881842"/>
     <use style="fill:#1f77b4;stroke:#1f77b4;" x="121.744811" xlink:href="#m2c6f261bf9" y="75.938684"/>
     <use style="fill:#1f77b4;stroke:#1f77b4;" x="97.034719" xlink:href="#m2c6f261bf9" y="89.35019"/>
     <use style="fill:#1f77b4;stroke:#1f77b4;" x="77.881223" xlink:href="#m2c6f261bf9" y="125.735856"/>
     <use style="fill:#1f77b4;stroke:#1f77b4;" x="86.741644" xlink:href="#m2c6f261bf9" y="75.238819"/>
     <use style="fill:#1f77b4;stroke:#1f77b4;" x="86.74575" xlink:href="#m2c6f261bf9" y="111.817856"/>
     <use style="fill:#1f77b4;stroke:#1f77b4;" x="95.446135" xlink:href="#m2c6f261bf9" y="98.57783"/>
     <use style="fill:#1f77b4;stroke:#1f77b4;" x="95.450241" xlink:href="#m2c6f261bf9" y="102.375475"/>
    </g>
   </g>
   <g id="PathCollection_2">
    <g clip-path="url(#p3f6b3203d1)">
     <use style="fill:#1f77b4;stroke:#1f77b4;" x="168.165652" xlink:href="#m2c6f261bf9" y="82.395165"/>
     <use style="fill:#1f77b4;stroke:#1f77b4;" x="168.169864" xlink:href="#m2c6f261bf9" y="89.574861"/>
     <use style="fill:#1f77b4;stroke:#1f77b4;" x="185.195902" xlink:href="#m2c6f261bf9" y="115.188493"/>
     <use style="fill:#1f77b4;stroke:#1f77b4;" x="134.272438" xlink:href="#m2c6f261bf9" y="126.519742"/>
     <use style="fill:#1f77b4;stroke:#1f77b4;" x="161.272006" xlink:href="#m2c6f261bf9" y="105.373311"/>
     <use style="fill:#1f77b4;stroke:#1f77b4;" x="161.301275" xlink:href="#m2c6f261bf9" y="106.779035"/>
     <use style="fill:#1f77b4;stroke:#1f77b4;" x="196.869183" xlink:href="#m2c6f261bf9" y="94.474491"/>
     <use style="fill:#1f77b4;stroke:#1f77b4;" x="196.873289" xlink:href="#m2c6f261bf9" y="131.223523"/>
     <use style="fill:#1f77b4;stroke:#1f77b4;" x="145.344215" xlink:href="#m2c6f261bf9" y="94.892534"/>
     <use style="fill:#1f77b4;stroke:#1f77b4;" x="145.348426" xlink:href="#m2c6f261bf9" y="145.152"/>
     <use style="fill:#1f77b4;stroke:#1f77b4;" x="163.249309" xlink:href="#m2c6f261bf9" y="75.328781"/>
     <use style="fill:#1f77b4;stroke:#1f77b4;" x="163.253521" xlink:href="#m2c6f261bf9" y="94.261261"/>
     <use style="fill:#1f77b4;stroke:#1f77b4;" x="172.256816" xlink:href="#m2c6f261bf9" y="56.281972"/>
     <use style="fill:#1f77b4;stroke:#1f77b4;" x="172.261027" xlink:href="#m2c6f261bf9" y="46.409143"/>
     <use style="fill:#1f77b4;stroke:#1f77b4;" x="181.839505" xlink:href="#m2c6f261bf9" y="83.468821"/>
     <use style="fill:#1f77b4;stroke:#1f77b4;" x="181.843611" xlink:href="#m2c6f261bf9" y="96.728732"/>
     <use style="fill:#1f77b4;stroke:#1f77b4;" x="190.544101" xlink:href="#m2c6f261bf9" y="108.59084"/>
     <use style="fill:#1f77b4;stroke:#1f77b4;" x="190.548313" xlink:href="#m2c6f261bf9" y="109.421948"/>
     <use style="fill:#1f77b4;stroke:#1f77b4;" x="199.632257" xlink:href="#m2c6f261bf9" y="92.715355"/>
     <use style="fill:#1f77b4;stroke:#1f77b4;" x="199.636364" xlink:href="#m2c6f261bf9" y="88.186051"/>
     <use style="fill:#1f77b4;stroke:#1f77b4;" x="141.752306" xlink:href="#m2c6f261bf9" y="134.779584"/>
     <use style="fill:#1f77b4;stroke:#1f77b4;" x="135.000812" xlink:href="#m2c6f261bf9" y="103.928313"/>
     <use style="fill:#1f77b4;stroke:#1f77b4;" x="144.056224" xlink:href="#m2c6f261bf9" y="79.946588"/>
     <use style="fill:#1f77b4;stroke:#1f77b4;" x="153.15512" xlink:href="#m2c6f261bf9" y="123.237581"/>
     <use style="fill:#1f77b4;stroke:#1f77b4;" x="162.23517" xlink:href="#m2c6f261bf9" y="102.44206"/>
     <use style="fill:#1f77b4;stroke:#1f77b4;" x="171.370284" xlink:href="#m2c6f261bf9" y="106.615972"/>
     <use style="fill:#1f77b4;stroke:#1f77b4;" x="140.850719" xlink:href="#m2c6f261bf9" y="121.874597"/>
     <use style="fill:#1f77b4;stroke:#1f77b4;" x="150.984931" xlink:href="#m2c6f261bf9" y="105.744626"/>
     <use style="fill:#1f77b4;stroke:#1f77b4;" x="161.408968" xlink:href="#m2c6f261bf9" y="85.316955"/>
     <use style="fill:#1f77b4;stroke:#1f77b4;" x="170.673586" xlink:href="#m2c6f261bf9" y="107.677719"/>
     <use style="fill:#1f77b4;stroke:#1f77b4;" x="191.719418" xlink:href="#m2c6f261bf9" y="70.905831"/>
     <use style="fill:#1f77b4;stroke:#1f77b4;" x="134.275264" xlink:href="#m2c6f261bf9" y="123.982193"/>
     <use style="fill:#1f77b4;stroke:#1f77b4;" x="170.662213" xlink:href="#m2c6f261bf9" y="87.881842"/>
     <use style="fill:#1f77b4;stroke:#1f77b4;" x="191.653613" xlink:href="#m2c6f261bf9" y="75.938684"/>
     <use style="fill:#1f77b4;stroke:#1f77b4;" x="166.943521" xlink:href="#m2c6f261bf9" y="89.35019"/>
     <use style="fill:#1f77b4;stroke:#1f77b4;" x="147.790025" xlink:href="#m2c6f261bf9" y="125.735856"/>
     <use style="fill:#1f77b4;stroke:#1f77b4;" x="156.650445" xlink:href="#m2c6f261bf9" y="75.238819"/>
     <use style="fill:#1f77b4;stroke:#1f77b4;" x="156.654552" xlink:href="#m2c6f261bf9" y="111.817856"/>
     <use style="fill:#1f77b4;stroke:#1f77b4;" x="165.354936" xlink:href="#m2c6f261bf9" y="98.57783"/>
     <use style="fill:#1f77b4;stroke:#1f77b4;" x="165.359043" xlink:href="#m2c6f261bf9" y="102.375475"/>
    </g>
   </g>
   <g id="matplotlib.axis_3">
    <g id="xtick_23">
     <g id="line2d_31">
      <g>
       <use style="stroke:#000000;stroke-width:0.8;" x="63.882811" xlink:href="#mb61ecaf089" y="150.089143"/>
      </g>
     </g>
     <g id="text_13">
      <!-- 0 -->
      <g transform="translate(60.701561 164.68758)scale(0.1 -0.1)">
       <use xlink:href="#DejaVuSerif-48"/>
      </g>
     </g>
    </g>
    <g id="xtick_24">
     <g id="line2d_32">
      <g>
       <use style="stroke:#000000;stroke-width:0.8;" x="133.791613" xlink:href="#mb61ecaf089" y="150.089143"/>
      </g>
     </g>
     <g id="text_14">
      <!-- 1 -->
      <g transform="translate(130.610363 164.68758)scale(0.1 -0.1)">
       <use xlink:href="#DejaVuSerif-49"/>
      </g>
     </g>
    </g>
    <g id="xtick_25">
     <g id="line2d_33">
      <g>
       <use style="stroke:#000000;stroke-width:0.8;" x="203.700414" xlink:href="#mb61ecaf089" y="150.089143"/>
      </g>
     </g>
     <g id="text_15">
      <!-- 2 -->
      <g transform="translate(200.519164 164.68758)scale(0.1 -0.1)">
       <use xlink:href="#DejaVuSerif-50"/>
      </g>
     </g>
    </g>
    <g id="text_16">
     <!-- Phase (P = 7.685 d) -->
     <g transform="translate(81.582812 178.365705)scale(0.1 -0.1)">
      <defs>
       <path d="M 4.109375 0 
L 4.109375 5.171875 
L 12.203125 5.171875 
L 12.203125 70.796875 
L 3.609375 70.796875 
L 3.609375 75.984375 
L 21.1875 75.984375 
L 21.1875 42.671875 
Q 23.6875 47.953125 27.65625 50.640625 
Q 31.640625 53.328125 36.921875 53.328125 
Q 45.515625 53.328125 49.5625 48.390625 
Q 53.609375 43.453125 53.609375 33.015625 
L 53.609375 5.171875 
L 61.625 5.171875 
L 61.625 0 
L 36.8125 0 
L 36.8125 5.171875 
L 44.578125 5.171875 
L 44.578125 30.171875 
Q 44.578125 39.703125 42.25 43.1875 
Q 39.9375 46.6875 33.984375 46.6875 
Q 27.734375 46.6875 24.453125 42.140625 
Q 21.1875 37.59375 21.1875 28.90625 
L 21.1875 5.171875 
L 29 5.171875 
L 29 0 
z
" id="DejaVuSerif-104"/>
       <path d="M 5.609375 2.875 
L 5.609375 14.984375 
L 10.796875 14.984375 
Q 10.984375 9.1875 14.421875 6.296875 
Q 17.875 3.421875 24.609375 3.421875 
Q 30.671875 3.421875 33.84375 5.6875 
Q 37.015625 7.953125 37.015625 12.3125 
Q 37.015625 15.71875 34.6875 17.8125 
Q 32.375 19.921875 24.90625 22.3125 
L 18.40625 24.515625 
Q 11.71875 26.65625 8.71875 29.875 
Q 5.71875 33.109375 5.71875 38.09375 
Q 5.71875 45.21875 10.9375 49.265625 
Q 16.15625 53.328125 25.390625 53.328125 
Q 29.5 53.328125 34.03125 52.25 
Q 38.578125 51.171875 43.40625 49.125 
L 43.40625 37.796875 
L 38.234375 37.796875 
Q 38.03125 42.828125 34.703125 45.65625 
Q 31.390625 48.484375 25.6875 48.484375 
Q 20.015625 48.484375 17.109375 46.484375 
Q 14.203125 44.484375 14.203125 40.484375 
Q 14.203125 37.203125 16.40625 35.21875 
Q 18.609375 33.25 25.203125 31.203125 
L 32.328125 29 
Q 39.703125 26.703125 42.9375 23.265625 
Q 46.1875 19.828125 46.1875 14.40625 
Q 46.1875 7.03125 40.546875 2.796875 
Q 34.90625 -1.421875 25 -1.421875 
Q 19.96875 -1.421875 15.1875 -0.34375 
Q 10.40625 0.734375 5.609375 2.875 
z
" id="DejaVuSerif-115"/>
       <path d="M 31.890625 -15.578125 
Q 20.015625 -10.25 13.953125 1.296875 
Q 7.90625 12.84375 7.90625 30.171875 
Q 7.90625 47.5625 13.953125 59.109375 
Q 20.015625 70.65625 31.890625 75.984375 
L 31.890625 71.1875 
Q 24.359375 66.015625 21.09375 56.609375 
Q 17.828125 47.21875 17.828125 30.171875 
Q 17.828125 13.1875 21.09375 3.78125 
Q 24.359375 -5.609375 31.890625 -10.796875 
z
" id="DejaVuSerif-40"/>
       <path d="M 10.59375 45.21875 
L 73.1875 45.21875 
L 73.1875 37.40625 
L 10.59375 37.40625 
z
M 10.59375 25.296875 
L 73.1875 25.296875 
L 73.1875 17.484375 
L 10.59375 17.484375 
z
" id="DejaVuSerif-61"/>
       <path d="M 56.390625 67.921875 
L 27.875 0 
L 20.609375 0 
L 47.796875 64.890625 
L 14.109375 64.890625 
L 14.109375 55.90625 
L 8.40625 55.90625 
L 8.40625 72.90625 
L 56.390625 72.90625 
z
" id="DejaVuSerif-55"/>
       <path d="M 32.71875 3.421875 
Q 39.59375 3.421875 43.296875 8.46875 
Q 47.015625 13.53125 47.015625 23 
Q 47.015625 32.46875 43.296875 37.515625 
Q 39.59375 42.578125 32.71875 42.578125 
Q 25.734375 42.578125 22.0625 37.6875 
Q 18.40625 32.8125 18.40625 23.578125 
Q 18.40625 13.875 22.109375 8.640625 
Q 25.828125 3.421875 32.71875 3.421875 
z
M 16.796875 40.140625 
Q 20.125 43.796875 24.3125 45.59375 
Q 28.515625 47.40625 33.796875 47.40625 
Q 44.671875 47.40625 51 40.859375 
Q 57.328125 34.328125 57.328125 23 
Q 57.328125 11.921875 50.515625 5.25 
Q 43.703125 -1.421875 32.328125 -1.421875 
Q 19.96875 -1.421875 13.328125 7.78125 
Q 6.6875 17 6.6875 34.078125 
Q 6.6875 53.21875 14.546875 63.71875 
Q 22.40625 74.21875 36.71875 74.21875 
Q 40.578125 74.21875 44.828125 73.484375 
Q 49.078125 72.75 53.515625 71.296875 
L 53.515625 59.28125 
L 48 59.28125 
Q 47.40625 64.203125 44.234375 66.796875 
Q 41.0625 69.390625 35.6875 69.390625 
Q 26.21875 69.390625 21.578125 62.203125 
Q 16.9375 55.03125 16.796875 40.140625 
z
" id="DejaVuSerif-54"/>
       <path d="M 46.578125 19.921875 
Q 46.578125 27.734375 42.6875 32.046875 
Q 38.8125 36.375 31.78125 36.375 
Q 24.75 36.375 20.875 32.046875 
Q 17 27.734375 17 19.921875 
Q 17 12.0625 20.875 7.734375 
Q 24.75 3.421875 31.78125 3.421875 
Q 38.8125 3.421875 42.6875 7.734375 
Q 46.578125 12.0625 46.578125 19.921875 
z
M 44.578125 55.328125 
Q 44.578125 61.96875 41.203125 65.671875 
Q 37.84375 69.390625 31.78125 69.390625 
Q 25.78125 69.390625 22.390625 65.671875 
Q 19 61.96875 19 55.328125 
Q 19 48.640625 22.390625 44.921875 
Q 25.78125 41.21875 31.78125 41.21875 
Q 37.84375 41.21875 41.203125 44.921875 
Q 44.578125 48.640625 44.578125 55.328125 
z
M 39.3125 38.8125 
Q 47.609375 37.703125 52.25 32.6875 
Q 56.890625 27.6875 56.890625 19.921875 
Q 56.890625 9.671875 50.390625 4.125 
Q 43.890625 -1.421875 31.78125 -1.421875 
Q 19.734375 -1.421875 13.203125 4.125 
Q 6.6875 9.671875 6.6875 19.921875 
Q 6.6875 27.6875 11.328125 32.6875 
Q 15.96875 37.703125 24.3125 38.8125 
Q 16.9375 40.140625 13 44.40625 
Q 9.078125 48.6875 9.078125 55.328125 
Q 9.078125 64.109375 15.125 69.15625 
Q 21.1875 74.21875 31.78125 74.21875 
Q 42.390625 74.21875 48.4375 69.15625 
Q 54.5 64.109375 54.5 55.328125 
Q 54.5 48.6875 50.5625 44.40625 
Q 46.625 40.140625 39.3125 38.8125 
z
" id="DejaVuSerif-56"/>
       <path d="M 7.078125 -15.578125 
L 7.078125 -10.796875 
Q 14.59375 -5.609375 17.890625 3.78125 
Q 21.1875 13.1875 21.1875 30.171875 
Q 21.1875 47.21875 17.890625 56.609375 
Q 14.59375 66.015625 7.078125 71.1875 
L 7.078125 75.984375 
Q 19 70.65625 25.046875 59.109375 
Q 31.109375 47.5625 31.109375 30.171875 
Q 31.109375 12.84375 25.046875 1.296875 
Q 19 -10.25 7.078125 -15.578125 
z
" id="DejaVuSerif-41"/>
      </defs>
      <use xlink:href="#DejaVuSerif-80"/>
      <use x="67.285156" xlink:href="#DejaVuSerif-104"/>
      <use x="131.689453" xlink:href="#DejaVuSerif-97"/>
      <use x="191.308594" xlink:href="#DejaVuSerif-115"/>
      <use x="242.626953" xlink:href="#DejaVuSerif-101"/>
      <use x="301.806641" xlink:href="#DejaVuSerif-32"/>
      <use x="333.59375" xlink:href="#DejaVuSerif-40"/>
      <use x="372.607422" xlink:href="#DejaVuSerif-80"/>
      <use x="439.892578" xlink:href="#DejaVuSerif-32"/>
      <use x="471.679688" xlink:href="#DejaVuSerif-61"/>
      <use x="555.46875" xlink:href="#DejaVuSerif-32"/>
      <use x="587.255859" xlink:href="#DejaVuSerif-55"/>
      <use x="650.878906" xlink:href="#DejaVuSerif-46"/>
      <use x="682.666016" xlink:href="#DejaVuSerif-54"/>
      <use x="746.289062" xlink:href="#DejaVuSerif-56"/>
      <use x="809.912109" xlink:href="#DejaVuSerif-53"/>
      <use x="873.535156" xlink:href="#DejaVuSerif-32"/>
      <use x="905.322266" xlink:href="#DejaVuSerif-100"/>
      <use x="969.335938" xlink:href="#DejaVuSerif-41"/>
     </g>
    </g>
   </g>
   <g id="matplotlib.axis_4">
    <g id="ytick_4">
     <g id="line2d_34">
      <g>
       <use style="stroke:#000000;stroke-width:0.8;" x="57.6" xlink:href="#m1ff960136a" y="44.77635"/>
      </g>
     </g>
     <g id="text_17">
      <!-- 19.4 -->
      <g transform="translate(28.334375 48.575569)scale(0.1 -0.1)">
       <use xlink:href="#DejaVuSerif-49"/>
       <use x="63.623047" xlink:href="#DejaVuSerif-57"/>
       <use x="127.246094" xlink:href="#DejaVuSerif-46"/>
       <use x="159.033203" xlink:href="#DejaVuSerif-52"/>
      </g>
     </g>
    </g>
    <g id="ytick_5">
     <g id="line2d_35">
      <g>
       <use style="stroke:#000000;stroke-width:0.8;" x="57.6" xlink:href="#m1ff960136a" y="70.837239"/>
      </g>
     </g>
     <g id="text_18">
      <!-- 19.5 -->
      <g transform="translate(28.334375 74.636457)scale(0.1 -0.1)">
       <use xlink:href="#DejaVuSerif-49"/>
       <use x="63.623047" xlink:href="#DejaVuSerif-57"/>
       <use x="127.246094" xlink:href="#DejaVuSerif-46"/>
       <use x="159.033203" xlink:href="#DejaVuSerif-53"/>
      </g>
     </g>
    </g>
    <g id="ytick_6">
     <g id="line2d_36">
      <g>
       <use style="stroke:#000000;stroke-width:0.8;" x="57.6" xlink:href="#m1ff960136a" y="96.898127"/>
      </g>
     </g>
     <g id="text_19">
      <!-- 19.6 -->
      <g transform="translate(28.334375 100.697346)scale(0.1 -0.1)">
       <use xlink:href="#DejaVuSerif-49"/>
       <use x="63.623047" xlink:href="#DejaVuSerif-57"/>
       <use x="127.246094" xlink:href="#DejaVuSerif-46"/>
       <use x="159.033203" xlink:href="#DejaVuSerif-54"/>
      </g>
     </g>
    </g>
    <g id="ytick_7">
     <g id="line2d_37">
      <g>
       <use style="stroke:#000000;stroke-width:0.8;" x="57.6" xlink:href="#m1ff960136a" y="122.959016"/>
      </g>
     </g>
     <g id="text_20">
      <!-- 19.7 -->
      <g transform="translate(28.334375 126.758235)scale(0.1 -0.1)">
       <use xlink:href="#DejaVuSerif-49"/>
       <use x="63.623047" xlink:href="#DejaVuSerif-57"/>
       <use x="127.246094" xlink:href="#DejaVuSerif-46"/>
       <use x="159.033203" xlink:href="#DejaVuSerif-55"/>
      </g>
     </g>
    </g>
    <g id="ytick_8">
     <g id="line2d_38">
      <g>
       <use style="stroke:#000000;stroke-width:0.8;" x="57.6" xlink:href="#m1ff960136a" y="149.019905"/>
      </g>
     </g>
     <g id="text_21">
      <!-- 19.8 -->
      <g transform="translate(28.334375 152.819124)scale(0.1 -0.1)">
       <use xlink:href="#DejaVuSerif-49"/>
       <use x="63.623047" xlink:href="#DejaVuSerif-57"/>
       <use x="127.246094" xlink:href="#DejaVuSerif-46"/>
       <use x="159.033203" xlink:href="#DejaVuSerif-56"/>
      </g>
     </g>
    </g>
    <g id="text_22">
     <!-- Mag -->
     <g transform="translate(22.1125 107.082134)rotate(-90)scale(0.1 -0.1)">
      <defs>
       <path d="M 5.515625 0 
L 5.515625 5.171875 
L 14.796875 5.171875 
L 14.796875 67.671875 
L 4.984375 67.671875 
L 4.984375 72.90625 
L 26.21875 72.90625 
L 51.8125 21 
L 77.390625 72.90625 
L 97.3125 72.90625 
L 97.3125 67.671875 
L 87.59375 67.671875 
L 87.59375 5.171875 
L 96.921875 5.171875 
L 96.921875 0 
L 68.40625 0 
L 68.40625 5.171875 
L 77.6875 5.171875 
L 77.6875 61.53125 
L 52.6875 10.6875 
L 45.796875 10.6875 
L 20.796875 61.53125 
L 20.796875 5.171875 
L 30.078125 5.171875 
L 30.078125 0 
z
" id="DejaVuSerif-77"/>
      </defs>
      <use xlink:href="#DejaVuSerif-77"/>
      <use x="102.392578" xlink:href="#DejaVuSerif-97"/>
      <use x="162.011719" xlink:href="#DejaVuSerif-103"/>
     </g>
    </g>
   </g>
   <g id="patch_9">
    <path d="M 57.6 150.089143 
L 57.6 41.472 
" style="fill:none;stroke:#000000;stroke-linecap:square;stroke-linejoin:miter;stroke-width:0.8;"/>
   </g>
   <g id="patch_10">
    <path d="M 206.4 150.089143 
L 206.4 41.472 
" style="fill:none;stroke:#000000;stroke-linecap:square;stroke-linejoin:miter;stroke-width:0.8;"/>
   </g>
   <g id="patch_11">
    <path d="M 57.6 150.089143 
L 206.4 150.089143 
" style="fill:none;stroke:#000000;stroke-linecap:square;stroke-linejoin:miter;stroke-width:0.8;"/>
   </g>
   <g id="patch_12">
    <path d="M 57.6 41.472 
L 206.4 41.472 
" style="fill:none;stroke:#000000;stroke-linecap:square;stroke-linejoin:miter;stroke-width:0.8;"/>
   </g>
   <g id="text_23">
    <!-- Folded Light Curve -->
    <g transform="translate(83.086719 35.472)scale(0.1 -0.1)">
     <defs>
      <path d="M 20.515625 5.171875 
L 29 5.171875 
L 29 0 
L 2.875 0 
L 2.875 5.171875 
L 11.53125 5.171875 
L 11.53125 70.796875 
L 2.875 70.796875 
L 2.875 75.984375 
L 20.515625 75.984375 
z
" id="DejaVuSerif-108"/>
      <path d="M 5.515625 0 
L 5.515625 5.171875 
L 14.796875 5.171875 
L 14.796875 67.671875 
L 5.515625 67.671875 
L 5.515625 72.90625 
L 33.984375 72.90625 
L 33.984375 67.671875 
L 24.703125 67.671875 
L 24.703125 6 
L 58.015625 6 
L 58.015625 18.21875 
L 64.015625 18.21875 
L 64.015625 0 
z
" id="DejaVuSerif-76"/>
      <path d="M 10.796875 46.6875 
L 2.875 46.6875 
L 2.875 51.90625 
L 10.796875 51.90625 
L 10.796875 68.015625 
L 19.828125 68.015625 
L 19.828125 51.90625 
L 36.71875 51.90625 
L 36.71875 46.6875 
L 19.828125 46.6875 
L 19.828125 13.71875 
Q 19.828125 7.125 21.09375 5.265625 
Q 22.359375 3.421875 25.78125 3.421875 
Q 29.296875 3.421875 30.90625 5.484375 
Q 32.515625 7.5625 32.625 12.203125 
L 39.40625 12.203125 
Q 39.015625 5.125 35.546875 1.84375 
Q 32.078125 -1.421875 25 -1.421875 
Q 17.234375 -1.421875 14.015625 2.015625 
Q 10.796875 5.46875 10.796875 13.71875 
z
" id="DejaVuSerif-116"/>
      <path d="M 70.515625 19.28125 
Q 67.28125 9.078125 59.6875 3.828125 
Q 52.09375 -1.421875 40.484375 -1.421875 
Q 33.34375 -1.421875 27.234375 1.015625 
Q 21.140625 3.46875 16.40625 8.203125 
Q 10.9375 13.671875 8.265625 20.625 
Q 5.609375 27.59375 5.609375 36.375 
Q 5.609375 53.375 15.421875 63.796875 
Q 25.25 74.21875 41.3125 74.21875 
Q 47.265625 74.21875 54 72.65625 
Q 60.75 71.09375 68.5 67.921875 
L 68.5 51.125 
L 62.984375 51.125 
Q 61.1875 60.296875 55.734375 64.640625 
Q 50.296875 69 40.484375 69 
Q 28.8125 69 22.796875 60.71875 
Q 16.796875 52.4375 16.796875 36.375 
Q 16.796875 20.359375 22.796875 12.078125 
Q 28.8125 3.8125 40.484375 3.8125 
Q 48.640625 3.8125 53.90625 7.6875 
Q 59.1875 11.578125 61.53125 19.28125 
z
" id="DejaVuSerif-67"/>
      <path d="M 35.40625 51.90625 
L 52.203125 51.90625 
L 52.203125 5.171875 
L 60.6875 5.171875 
L 60.6875 0 
L 43.21875 0 
L 43.21875 9.1875 
Q 40.71875 4 36.765625 1.28125 
Q 32.8125 -1.421875 27.59375 -1.421875 
Q 18.953125 -1.421875 14.875 3.484375 
Q 10.796875 8.40625 10.796875 18.890625 
L 10.796875 46.6875 
L 2.6875 46.6875 
L 2.6875 51.90625 
L 19.828125 51.90625 
L 19.828125 21.6875 
Q 19.828125 12.203125 22.140625 8.6875 
Q 24.46875 5.171875 30.421875 5.171875 
Q 36.671875 5.171875 39.9375 9.765625 
Q 43.21875 14.359375 43.21875 23.09375 
L 43.21875 46.6875 
L 35.40625 46.6875 
z
" id="DejaVuSerif-117"/>
      <path d="M 24.703125 0 
L 5.609375 46.6875 
L -0.296875 46.6875 
L -0.296875 51.90625 
L 23.578125 51.90625 
L 23.578125 46.6875 
L 15.28125 46.6875 
L 29.890625 10.984375 
L 44.484375 46.6875 
L 36.71875 46.6875 
L 36.71875 51.90625 
L 56.203125 51.90625 
L 56.203125 46.6875 
L 50.390625 46.6875 
L 31.296875 0 
z
" id="DejaVuSerif-118"/>
     </defs>
     <use xlink:href="#DejaVuSerif-70"/>
     <use x="63.884766" xlink:href="#DejaVuSerif-111"/>
     <use x="124.089844" xlink:href="#DejaVuSerif-108"/>
     <use x="156.072266" xlink:href="#DejaVuSerif-100"/>
     <use x="220.085938" xlink:href="#DejaVuSerif-101"/>
     <use x="279.265625" xlink:href="#DejaVuSerif-100"/>
     <use x="343.279297" xlink:href="#DejaVuSerif-32"/>
     <use x="375.066406" xlink:href="#DejaVuSerif-76"/>
     <use x="441.472656" xlink:href="#DejaVuSerif-105"/>
     <use x="473.455078" xlink:href="#DejaVuSerif-103"/>
     <use x="537.46875" xlink:href="#DejaVuSerif-104"/>
     <use x="601.873047" xlink:href="#DejaVuSerif-116"/>
     <use x="642.058594" xlink:href="#DejaVuSerif-32"/>
     <use x="673.845703" xlink:href="#DejaVuSerif-67"/>
     <use x="750.359375" xlink:href="#DejaVuSerif-117"/>
     <use x="814.763672" xlink:href="#DejaVuSerif-114"/>
     <use x="862.566406" xlink:href="#DejaVuSerif-118"/>
     <use x="919.060547" xlink:href="#DejaVuSerif-101"/>
    </g>
   </g>
  </g>
  <g id="axes_3">
   <g id="patch_13">
    <path d="M 57.6 307.584 
L 414.72 307.584 
L 414.72 198.966857 
L 57.6 198.966857 
z
" style="fill:#ffffff;"/>
   </g>
   <g id="PathCollection_3">
    <g clip-path="url(#pa645164d40)">
     <use style="fill:#1f77b4;stroke:#1f77b4;" x="73.832727" xlink:href="#m2c6f261bf9" y="241.980526"/>
     <use style="fill:#1f77b4;stroke:#1f77b4;" x="73.833119" xlink:href="#m2c6f261bf9" y="246.97846"/>
     <use style="fill:#1f77b4;stroke:#1f77b4;" x="94.910684" xlink:href="#m2c6f261bf9" y="264.808631"/>
     <use style="fill:#1f77b4;stroke:#1f77b4;" x="96.675449" xlink:href="#m2c6f261bf9" y="272.696543"/>
     <use style="fill:#1f77b4;stroke:#1f77b4;" x="99.185169" xlink:href="#m2c6f261bf9" y="257.976082"/>
     <use style="fill:#1f77b4;stroke:#1f77b4;" x="99.18789" xlink:href="#m2c6f261bf9" y="258.954636"/>
     <use style="fill:#1f77b4;stroke:#1f77b4;" x="121.988998" xlink:href="#m2c6f261bf9" y="250.389192"/>
     <use style="fill:#1f77b4;stroke:#1f77b4;" x="121.98938" xlink:href="#m2c6f261bf9" y="275.970942"/>
     <use style="fill:#1f77b4;stroke:#1f77b4;" x="123.69785" xlink:href="#m2c6f261bf9" y="250.6802"/>
     <use style="fill:#1f77b4;stroke:#1f77b4;" x="123.698242" xlink:href="#m2c6f261bf9" y="285.666838"/>
     <use style="fill:#1f77b4;stroke:#1f77b4;" x="125.362202" xlink:href="#m2c6f261bf9" y="237.061473"/>
     <use style="fill:#1f77b4;stroke:#1f77b4;" x="125.362594" xlink:href="#m2c6f261bf9" y="250.240758"/>
     <use style="fill:#1f77b4;stroke:#1f77b4;" x="126.199487" xlink:href="#m2c6f261bf9" y="223.802601"/>
     <use style="fill:#1f77b4;stroke:#1f77b4;" x="126.199878" xlink:href="#m2c6f261bf9" y="216.929923"/>
     <use style="fill:#1f77b4;stroke:#1f77b4;" x="127.090237" xlink:href="#m2c6f261bf9" y="242.727921"/>
     <use style="fill:#1f77b4;stroke:#1f77b4;" x="127.090618" xlink:href="#m2c6f261bf9" y="251.958414"/>
     <use style="fill:#1f77b4;stroke:#1f77b4;" x="127.899364" xlink:href="#m2c6f261bf9" y="260.21587"/>
     <use style="fill:#1f77b4;stroke:#1f77b4;" x="127.899756" xlink:href="#m2c6f261bf9" y="260.794421"/>
     <use style="fill:#1f77b4;stroke:#1f77b4;" x="128.744146" xlink:href="#m2c6f261bf9" y="249.164621"/>
     <use style="fill:#1f77b4;stroke:#1f77b4;" x="128.744527" xlink:href="#m2c6f261bf9" y="246.01168"/>
     <use style="fill:#1f77b4;stroke:#1f77b4;" x="136.360585" xlink:href="#m2c6f261bf9" y="278.446388"/>
     <use style="fill:#1f77b4;stroke:#1f77b4;" x="142.231315" xlink:href="#m2c6f261bf9" y="256.97019"/>
     <use style="fill:#1f77b4;stroke:#1f77b4;" x="143.073052" xlink:href="#m2c6f261bf9" y="240.276022"/>
     <use style="fill:#1f77b4;stroke:#1f77b4;" x="143.918832" xlink:href="#m2c6f261bf9" y="270.411765"/>
     <use style="fill:#1f77b4;stroke:#1f77b4;" x="144.76286" xlink:href="#m2c6f261bf9" y="255.935579"/>
     <use style="fill:#1f77b4;stroke:#1f77b4;" x="145.612006" xlink:href="#m2c6f261bf9" y="258.841124"/>
     <use style="fill:#1f77b4;stroke:#1f77b4;" x="155.771705" xlink:href="#m2c6f261bf9" y="269.462963"/>
     <use style="fill:#1f77b4;stroke:#1f77b4;" x="163.21203" xlink:href="#m2c6f261bf9" y="258.234563"/>
     <use style="fill:#1f77b4;stroke:#1f77b4;" x="164.180987" xlink:href="#m2c6f261bf9" y="244.014444"/>
     <use style="fill:#1f77b4;stroke:#1f77b4;" x="165.042171" xlink:href="#m2c6f261bf9" y="259.580228"/>
     <use style="fill:#1f77b4;stroke:#1f77b4;" x="173.496775" xlink:href="#m2c6f261bf9" y="233.982567"/>
     <use style="fill:#1f77b4;stroke:#1f77b4;" x="207.146958" xlink:href="#m2c6f261bf9" y="270.930104"/>
     <use style="fill:#1f77b4;stroke:#1f77b4;" x="210.529274" xlink:href="#m2c6f261bf9" y="245.799914"/>
     <use style="fill:#1f77b4;stroke:#1f77b4;" x="218.978819" xlink:href="#m2c6f261bf9" y="237.486039"/>
     <use style="fill:#1f77b4;stroke:#1f77b4;" x="379.139631" xlink:href="#m2c6f261bf9" y="246.822062"/>
     <use style="fill:#1f77b4;stroke:#1f77b4;" x="396.854161" xlink:href="#m2c6f261bf9" y="272.150865"/>
     <use style="fill:#1f77b4;stroke:#1f77b4;" x="397.677773" xlink:href="#m2c6f261bf9" y="236.998848"/>
     <use style="fill:#1f77b4;stroke:#1f77b4;" x="397.678155" xlink:href="#m2c6f261bf9" y="262.462261"/>
     <use style="fill:#1f77b4;stroke:#1f77b4;" x="398.486891" xlink:href="#m2c6f261bf9" y="253.245609"/>
     <use style="fill:#1f77b4;stroke:#1f77b4;" x="398.487273" xlink:href="#m2c6f261bf9" y="255.889227"/>
    </g>
   </g>
   <g id="matplotlib.axis_5">
    <g id="xtick_26">
     <g id="line2d_39">
      <g>
       <use style="stroke:#000000;stroke-width:0.8;" x="97.996351" xlink:href="#mb61ecaf089" y="307.584"/>
      </g>
     </g>
     <g id="text_24">
      <!-- 58300 -->
      <g transform="translate(82.090101 322.182437)scale(0.1 -0.1)">
       <defs>
        <path d="M 9.71875 69.828125 
Q 15.4375 71.96875 20.671875 73.09375 
Q 25.921875 74.21875 30.515625 74.21875 
Q 41.21875 74.21875 47.21875 69.59375 
Q 53.21875 64.984375 53.21875 56.78125 
Q 53.21875 50.203125 49.0625 45.78125 
Q 44.921875 41.359375 37.3125 39.796875 
Q 46.296875 38.53125 51.25 33.28125 
Q 56.203125 28.03125 56.203125 19.671875 
Q 56.203125 9.46875 49.34375 4.015625 
Q 42.484375 -1.421875 29.59375 -1.421875 
Q 23.875 -1.421875 18.421875 -0.1875 
Q 12.984375 1.03125 7.625 3.515625 
L 7.625 17.671875 
L 13.09375 17.671875 
Q 13.578125 10.640625 17.828125 7.03125 
Q 22.078125 3.421875 29.78125 3.421875 
Q 37.25 3.421875 41.578125 7.734375 
Q 45.90625 12.0625 45.90625 19.578125 
Q 45.90625 28.171875 41.453125 32.59375 
Q 37.015625 37.015625 28.421875 37.015625 
L 23.78125 37.015625 
L 23.78125 42 
L 26.21875 42 
Q 34.765625 42 39.03125 45.53125 
Q 43.3125 49.078125 43.3125 56.203125 
Q 43.3125 62.59375 39.796875 65.984375 
Q 36.28125 69.390625 29.6875 69.390625 
Q 23.09375 69.390625 19.453125 66.265625 
Q 15.828125 63.140625 15.1875 56.984375 
L 9.71875 56.984375 
z
" id="DejaVuSerif-51"/>
       </defs>
       <use xlink:href="#DejaVuSerif-53"/>
       <use x="63.623047" xlink:href="#DejaVuSerif-56"/>
       <use x="127.246094" xlink:href="#DejaVuSerif-51"/>
       <use x="190.869141" xlink:href="#DejaVuSerif-48"/>
       <use x="254.492188" xlink:href="#DejaVuSerif-48"/>
      </g>
     </g>
    </g>
    <g id="xtick_27">
     <g id="line2d_40">
      <g>
       <use style="stroke:#000000;stroke-width:0.8;" x="140.27554" xlink:href="#mb61ecaf089" y="307.584"/>
      </g>
     </g>
     <g id="text_25">
      <!-- 58350 -->
      <g transform="translate(124.36929 322.182437)scale(0.1 -0.1)">
       <use xlink:href="#DejaVuSerif-53"/>
       <use x="63.623047" xlink:href="#DejaVuSerif-56"/>
       <use x="127.246094" xlink:href="#DejaVuSerif-51"/>
       <use x="190.869141" xlink:href="#DejaVuSerif-53"/>
       <use x="254.492188" xlink:href="#DejaVuSerif-48"/>
      </g>
     </g>
    </g>
    <g id="xtick_28">
     <g id="line2d_41">
      <g>
       <use style="stroke:#000000;stroke-width:0.8;" x="182.55473" xlink:href="#mb61ecaf089" y="307.584"/>
      </g>
     </g>
     <g id="text_26">
      <!-- 58400 -->
      <g transform="translate(166.64848 322.182437)scale(0.1 -0.1)">
       <use xlink:href="#DejaVuSerif-53"/>
       <use x="63.623047" xlink:href="#DejaVuSerif-56"/>
       <use x="127.246094" xlink:href="#DejaVuSerif-52"/>
       <use x="190.869141" xlink:href="#DejaVuSerif-48"/>
       <use x="254.492188" xlink:href="#DejaVuSerif-48"/>
      </g>
     </g>
    </g>
    <g id="xtick_29">
     <g id="line2d_42">
      <g>
       <use style="stroke:#000000;stroke-width:0.8;" x="224.833919" xlink:href="#mb61ecaf089" y="307.584"/>
      </g>
     </g>
     <g id="text_27">
      <!-- 58450 -->
      <g transform="translate(208.927669 322.182437)scale(0.1 -0.1)">
       <use xlink:href="#DejaVuSerif-53"/>
       <use x="63.623047" xlink:href="#DejaVuSerif-56"/>
       <use x="127.246094" xlink:href="#DejaVuSerif-52"/>
       <use x="190.869141" xlink:href="#DejaVuSerif-53"/>
       <use x="254.492188" xlink:href="#DejaVuSerif-48"/>
      </g>
     </g>
    </g>
    <g id="xtick_30">
     <g id="line2d_43">
      <g>
       <use style="stroke:#000000;stroke-width:0.8;" x="267.113108" xlink:href="#mb61ecaf089" y="307.584"/>
      </g>
     </g>
     <g id="text_28">
      <!-- 58500 -->
      <g transform="translate(251.206858 322.182437)scale(0.1 -0.1)">
       <use xlink:href="#DejaVuSerif-53"/>
       <use x="63.623047" xlink:href="#DejaVuSerif-56"/>
       <use x="127.246094" xlink:href="#DejaVuSerif-53"/>
       <use x="190.869141" xlink:href="#DejaVuSerif-48"/>
       <use x="254.492188" xlink:href="#DejaVuSerif-48"/>
      </g>
     </g>
    </g>
    <g id="xtick_31">
     <g id="line2d_44">
      <g>
       <use style="stroke:#000000;stroke-width:0.8;" x="309.392298" xlink:href="#mb61ecaf089" y="307.584"/>
      </g>
     </g>
     <g id="text_29">
      <!-- 58550 -->
      <g transform="translate(293.486048 322.182437)scale(0.1 -0.1)">
       <use xlink:href="#DejaVuSerif-53"/>
       <use x="63.623047" xlink:href="#DejaVuSerif-56"/>
       <use x="127.246094" xlink:href="#DejaVuSerif-53"/>
       <use x="190.869141" xlink:href="#DejaVuSerif-53"/>
       <use x="254.492188" xlink:href="#DejaVuSerif-48"/>
      </g>
     </g>
    </g>
    <g id="xtick_32">
     <g id="line2d_45">
      <g>
       <use style="stroke:#000000;stroke-width:0.8;" x="351.671487" xlink:href="#mb61ecaf089" y="307.584"/>
      </g>
     </g>
     <g id="text_30">
      <!-- 58600 -->
      <g transform="translate(335.765237 322.182437)scale(0.1 -0.1)">
       <use xlink:href="#DejaVuSerif-53"/>
       <use x="63.623047" xlink:href="#DejaVuSerif-56"/>
       <use x="127.246094" xlink:href="#DejaVuSerif-54"/>
       <use x="190.869141" xlink:href="#DejaVuSerif-48"/>
       <use x="254.492188" xlink:href="#DejaVuSerif-48"/>
      </g>
     </g>
    </g>
    <g id="xtick_33">
     <g id="line2d_46">
      <g>
       <use style="stroke:#000000;stroke-width:0.8;" x="393.950677" xlink:href="#mb61ecaf089" y="307.584"/>
      </g>
     </g>
     <g id="text_31">
      <!-- 58650 -->
      <g transform="translate(378.044427 322.182437)scale(0.1 -0.1)">
       <use xlink:href="#DejaVuSerif-53"/>
       <use x="63.623047" xlink:href="#DejaVuSerif-56"/>
       <use x="127.246094" xlink:href="#DejaVuSerif-54"/>
       <use x="190.869141" xlink:href="#DejaVuSerif-53"/>
       <use x="254.492188" xlink:href="#DejaVuSerif-48"/>
      </g>
     </g>
    </g>
    <g id="text_32">
     <!-- MJD -->
     <g transform="translate(225.027187 335.860562)scale(0.1 -0.1)">
      <defs>
       <path d="M -8.40625 -17.484375 
L -8.40625 -6 
L -2.828125 -6 
Q -2.6875 -10.84375 -0.53125 -13.203125 
Q 1.609375 -15.578125 5.90625 -15.578125 
Q 11.71875 -15.578125 14.015625 -11.90625 
Q 16.3125 -8.25 16.3125 2.390625 
L 16.3125 67.671875 
L 4.984375 67.671875 
L 4.984375 72.90625 
L 35.5 72.90625 
L 35.5 67.671875 
L 26.21875 67.671875 
L 26.21875 2 
Q 26.21875 -10.0625 21.375 -15.421875 
Q 16.546875 -20.796875 5.8125 -20.796875 
Q 2.34375 -20.796875 -1.234375 -19.96875 
Q -4.828125 -19.140625 -8.40625 -17.484375 
z
" id="DejaVuSerif-74"/>
       <path d="M 24.703125 5.171875 
L 33.796875 5.171875 
Q 48 5.171875 55.59375 13.28125 
Q 63.1875 21.390625 63.1875 36.53125 
Q 63.1875 51.65625 55.609375 59.65625 
Q 48.046875 67.671875 33.796875 67.671875 
L 24.703125 67.671875 
z
M 5.515625 0 
L 5.515625 5.171875 
L 14.796875 5.171875 
L 14.796875 67.671875 
L 5.515625 67.671875 
L 5.515625 72.90625 
L 34.515625 72.90625 
Q 53.375 72.90625 63.890625 63.28125 
Q 74.421875 53.65625 74.421875 36.53125 
Q 74.421875 19.34375 63.875 9.671875 
Q 53.328125 0 34.515625 0 
z
" id="DejaVuSerif-68"/>
      </defs>
      <use xlink:href="#DejaVuSerif-77"/>
      <use x="102.392578" xlink:href="#DejaVuSerif-74"/>
      <use x="142.480469" xlink:href="#DejaVuSerif-68"/>
     </g>
    </g>
   </g>
   <g id="matplotlib.axis_6">
    <g id="ytick_9">
     <g id="line2d_47">
      <g>
       <use style="stroke:#000000;stroke-width:0.8;" x="57.6" xlink:href="#m1ff960136a" y="215.793303"/>
      </g>
     </g>
     <g id="text_33">
      <!-- 19.4 -->
      <g transform="translate(28.334375 219.592522)scale(0.1 -0.1)">
       <use xlink:href="#DejaVuSerif-49"/>
       <use x="63.623047" xlink:href="#DejaVuSerif-57"/>
       <use x="127.246094" xlink:href="#DejaVuSerif-46"/>
       <use x="159.033203" xlink:href="#DejaVuSerif-52"/>
      </g>
     </g>
    </g>
    <g id="ytick_10">
     <g id="line2d_48">
      <g>
       <use style="stroke:#000000;stroke-width:0.8;" x="57.6" xlink:href="#m1ff960136a" y="252.076334"/>
      </g>
     </g>
     <g id="text_34">
      <!-- 19.6 -->
      <g transform="translate(28.334375 255.875553)scale(0.1 -0.1)">
       <use xlink:href="#DejaVuSerif-49"/>
       <use x="63.623047" xlink:href="#DejaVuSerif-57"/>
       <use x="127.246094" xlink:href="#DejaVuSerif-46"/>
       <use x="159.033203" xlink:href="#DejaVuSerif-54"/>
      </g>
     </g>
    </g>
    <g id="ytick_11">
     <g id="line2d_49">
      <g>
       <use style="stroke:#000000;stroke-width:0.8;" x="57.6" xlink:href="#m1ff960136a" y="288.359366"/>
      </g>
     </g>
     <g id="text_35">
      <!-- 19.8 -->
      <g transform="translate(28.334375 292.158584)scale(0.1 -0.1)">
       <use xlink:href="#DejaVuSerif-49"/>
       <use x="63.623047" xlink:href="#DejaVuSerif-57"/>
       <use x="127.246094" xlink:href="#DejaVuSerif-46"/>
       <use x="159.033203" xlink:href="#DejaVuSerif-56"/>
      </g>
     </g>
    </g>
    <g id="text_36">
     <!-- Mag -->
     <g transform="translate(22.1125 264.576991)rotate(-90)scale(0.1 -0.1)">
      <use xlink:href="#DejaVuSerif-77"/>
      <use x="102.392578" xlink:href="#DejaVuSerif-97"/>
      <use x="162.011719" xlink:href="#DejaVuSerif-103"/>
     </g>
    </g>
   </g>
   <g id="LineCollection_5">
    <path clip-path="url(#pa645164d40)" d="M 73.832727 227.632244 
L 73.832727 256.328809 
" style="fill:none;stroke:#1f77b4;stroke-width:0.5;"/>
    <path clip-path="url(#pa645164d40)" d="M 73.833119 232.350359 
L 73.833119 261.606561 
" style="fill:none;stroke:#1f77b4;stroke-width:0.5;"/>
    <path clip-path="url(#pa645164d40)" d="M 94.910684 249.137813 
L 94.910684 280.479448 
" style="fill:none;stroke:#1f77b4;stroke-width:0.5;"/>
    <path clip-path="url(#pa645164d40)" d="M 96.675449 256.542038 
L 96.675449 288.851049 
" style="fill:none;stroke:#1f77b4;stroke-width:0.5;"/>
    <path clip-path="url(#pa645164d40)" d="M 99.185169 242.713096 
L 99.185169 273.239069 
" style="fill:none;stroke:#1f77b4;stroke-width:0.5;"/>
    <path clip-path="url(#pa645164d40)" d="M 99.18789 243.633873 
L 99.18789 274.275398 
" style="fill:none;stroke:#1f77b4;stroke-width:0.5;"/>
    <path clip-path="url(#pa645164d40)" d="M 121.988998 235.567011 
L 121.988998 265.211372 
" style="fill:none;stroke:#1f77b4;stroke-width:0.5;"/>
    <path clip-path="url(#pa645164d40)" d="M 121.98938 259.611576 
L 121.98938 292.330308 
" style="fill:none;stroke:#1f77b4;stroke-width:0.5;"/>
    <path clip-path="url(#pa645164d40)" d="M 123.69785 235.841351 
L 123.69785 265.519048 
" style="fill:none;stroke:#1f77b4;stroke-width:0.5;"/>
    <path clip-path="url(#pa645164d40)" d="M 123.698242 268.686819 
L 123.698242 302.646857 
" style="fill:none;stroke:#1f77b4;stroke-width:0.5;"/>
    <path clip-path="url(#pa645164d40)" d="M 125.362202 222.983341 
L 125.362202 251.139604 
" style="fill:none;stroke:#1f77b4;stroke-width:0.5;"/>
    <path clip-path="url(#pa645164d40)" d="M 125.362594 235.427083 
L 125.362594 265.054432 
" style="fill:none;stroke:#1f77b4;stroke-width:0.5;"/>
    <path clip-path="url(#pa645164d40)" d="M 126.199487 210.426991 
L 126.199487 237.17821 
" style="fill:none;stroke:#1f77b4;stroke-width:0.5;"/>
    <path clip-path="url(#pa645164d40)" d="M 126.199878 203.904 
L 126.199878 229.955847 
" style="fill:none;stroke:#1f77b4;stroke-width:0.5;"/>
    <path clip-path="url(#pa645164d40)" d="M 127.090237 228.338136 
L 127.090237 257.117706 
" style="fill:none;stroke:#1f77b4;stroke-width:0.5;"/>
    <path clip-path="url(#pa645164d40)" d="M 127.090618 237.046094 
L 127.090618 266.870735 
" style="fill:none;stroke:#1f77b4;stroke-width:0.5;"/>
    <path clip-path="url(#pa645164d40)" d="M 127.899364 244.820328 
L 127.899364 275.611413 
" style="fill:none;stroke:#1f77b4;stroke-width:0.5;"/>
    <path clip-path="url(#pa645164d40)" d="M 127.899756 245.364463 
L 127.899756 276.224379 
" style="fill:none;stroke:#1f77b4;stroke-width:0.5;"/>
    <path clip-path="url(#pa645164d40)" d="M 128.744146 234.412416 
L 128.744146 263.916826 
" style="fill:none;stroke:#1f77b4;stroke-width:0.5;"/>
    <path clip-path="url(#pa645164d40)" d="M 128.744527 231.438125 
L 128.744527 260.585235 
" style="fill:none;stroke:#1f77b4;stroke-width:0.5;"/>
    <path clip-path="url(#pa645164d40)" d="M 136.360585 261.930555 
L 136.360585 294.962221 
" style="fill:none;stroke:#1f77b4;stroke-width:0.5;"/>
    <path clip-path="url(#pa645164d40)" d="M 142.231315 241.766374 
L 142.231315 272.174005 
" style="fill:none;stroke:#1f77b4;stroke-width:0.5;"/>
    <path clip-path="url(#pa645164d40)" d="M 143.073052 226.021941 
L 143.073052 254.530103 
" style="fill:none;stroke:#1f77b4;stroke-width:0.5;"/>
    <path clip-path="url(#pa645164d40)" d="M 143.918832 254.398778 
L 143.918832 286.424751 
" style="fill:none;stroke:#1f77b4;stroke-width:0.5;"/>
    <path clip-path="url(#pa645164d40)" d="M 144.76286 240.792389 
L 144.76286 271.078769 
" style="fill:none;stroke:#1f77b4;stroke-width:0.5;"/>
    <path clip-path="url(#pa645164d40)" d="M 145.612006 243.527075 
L 145.612006 274.155173 
" style="fill:none;stroke:#1f77b4;stroke-width:0.5;"/>
    <path clip-path="url(#pa645164d40)" d="M 155.771705 253.508418 
L 155.771705 285.417508 
" style="fill:none;stroke:#1f77b4;stroke-width:0.5;"/>
    <path clip-path="url(#pa645164d40)" d="M 163.21203 242.95634 
L 163.21203 273.512785 
" style="fill:none;stroke:#1f77b4;stroke-width:0.5;"/>
    <path clip-path="url(#pa645164d40)" d="M 164.180987 229.552938 
L 164.180987 258.475951 
" style="fill:none;stroke:#1f77b4;stroke-width:0.5;"/>
    <path clip-path="url(#pa645164d40)" d="M 165.042171 244.222414 
L 165.042171 274.938042 
" style="fill:none;stroke:#1f77b4;stroke-width:0.5;"/>
    <path clip-path="url(#pa645164d40)" d="M 173.496775 220.07088 
L 173.496775 247.894254 
" style="fill:none;stroke:#1f77b4;stroke-width:0.5;"/>
    <path clip-path="url(#pa645164d40)" d="M 207.146958 254.885122 
L 207.146958 286.975087 
" style="fill:none;stroke:#1f77b4;stroke-width:0.5;"/>
    <path clip-path="url(#pa645164d40)" d="M 210.529274 231.238278 
L 210.529274 260.361551 
" style="fill:none;stroke:#1f77b4;stroke-width:0.5;"/>
    <path clip-path="url(#pa645164d40)" d="M 218.978819 223.384786 
L 218.978819 251.587291 
" style="fill:none;stroke:#1f77b4;stroke-width:0.5;"/>
    <path clip-path="url(#pa645164d40)" d="M 379.139631 232.202796 
L 379.139631 261.441327 
" style="fill:none;stroke:#1f77b4;stroke-width:0.5;"/>
    <path clip-path="url(#pa645164d40)" d="M 396.854161 256.030266 
L 396.854161 288.271464 
" style="fill:none;stroke:#1f77b4;stroke-width:0.5;"/>
    <path clip-path="url(#pa645164d40)" d="M 397.677773 222.924116 
L 397.677773 251.07358 
" style="fill:none;stroke:#1f77b4;stroke-width:0.5;"/>
    <path clip-path="url(#pa645164d40)" d="M 397.678155 246.932665 
L 397.678155 277.991858 
" style="fill:none;stroke:#1f77b4;stroke-width:0.5;"/>
    <path clip-path="url(#pa645164d40)" d="M 398.486891 238.258947 
L 398.486891 268.232272 
" style="fill:none;stroke:#1f77b4;stroke-width:0.5;"/>
    <path clip-path="url(#pa645164d40)" d="M 398.487273 240.748744 
L 398.487273 271.029711 
" style="fill:none;stroke:#1f77b4;stroke-width:0.5;"/>
   </g>
   <g id="line2d_50">
    <path clip-path="url(#pa645164d40)" d="M 73.832727 241.980526 
L 73.833119 246.97846 
L 94.910684 264.808631 
L 96.675449 272.696543 
L 99.185169 257.976082 
L 99.18789 258.954636 
L 121.988998 250.389192 
L 121.98938 275.970942 
L 123.69785 250.6802 
L 123.698242 285.666838 
L 125.362202 237.061473 
L 125.362594 250.240758 
L 126.199487 223.802601 
L 126.199878 216.929923 
L 127.090237 242.727921 
L 127.090618 251.958414 
L 127.899364 260.21587 
L 127.899756 260.794421 
L 128.744146 249.164621 
L 128.744527 246.01168 
L 136.360585 278.446388 
L 142.231315 256.97019 
L 143.073052 240.276022 
L 143.918832 270.411765 
L 144.76286 255.935579 
L 145.612006 258.841124 
L 155.771705 269.462963 
L 163.21203 258.234563 
L 164.180987 244.014444 
L 165.042171 259.580228 
L 173.496775 233.982567 
L 207.146958 270.930104 
L 210.529274 245.799914 
L 218.978819 237.486039 
L 379.139631 246.822062 
L 396.854161 272.150865 
L 397.677773 236.998848 
L 397.678155 262.462261 
L 398.486891 253.245609 
L 398.487273 255.889227 
" style="fill:none;"/>
   </g>
   <g id="patch_14">
    <path d="M 57.6 307.584 
L 57.6 198.966857 
" style="fill:none;stroke:#000000;stroke-linecap:square;stroke-linejoin:miter;stroke-width:0.8;"/>
   </g>
   <g id="patch_15">
    <path d="M 414.72 307.584 
L 414.72 198.966857 
" style="fill:none;stroke:#000000;stroke-linecap:square;stroke-linejoin:miter;stroke-width:0.8;"/>
   </g>
   <g id="patch_16">
    <path d="M 57.6 307.584 
L 414.72 307.584 
" style="fill:none;stroke:#000000;stroke-linecap:square;stroke-linejoin:miter;stroke-width:0.8;"/>
   </g>
   <g id="patch_17">
    <path d="M 57.6 198.966857 
L 414.72 198.966857 
" style="fill:none;stroke:#000000;stroke-linecap:square;stroke-linejoin:miter;stroke-width:0.8;"/>
   </g>
   <g id="text_37">
    <!-- Light Curve -->
    <g transform="translate(206.000625 192.966857)scale(0.1 -0.1)">
     <use xlink:href="#DejaVuSerif-76"/>
     <use x="66.40625" xlink:href="#DejaVuSerif-105"/>
     <use x="98.388672" xlink:href="#DejaVuSerif-103"/>
     <use x="162.402344" xlink:href="#DejaVuSerif-104"/>
     <use x="226.806641" xlink:href="#DejaVuSerif-116"/>
     <use x="266.992188" xlink:href="#DejaVuSerif-32"/>
     <use x="298.779297" xlink:href="#DejaVuSerif-67"/>
     <use x="375.292969" xlink:href="#DejaVuSerif-117"/>
     <use x="439.697266" xlink:href="#DejaVuSerif-114"/>
     <use x="487.5" xlink:href="#DejaVuSerif-118"/>
     <use x="543.994141" xlink:href="#DejaVuSerif-101"/>
    </g>
   </g>
  </g>
 </g>
 <defs>
  <clipPath id="p0c3302f742">
   <rect height="108.617143" width="148.8" x="265.92" y="41.472"/>
  </clipPath>
  <clipPath id="p3f6b3203d1">
   <rect height="108.617143" width="148.8" x="57.6" y="41.472"/>
  </clipPath>
  <clipPath id="pa645164d40">
   <rect height="108.617143" width="357.12" x="57.6" y="198.966857"/>
  </clipPath>
 </defs>
</svg>
