<?xml version="1.0" encoding="utf-8" standalone="no"?>
<!DOCTYPE svg PUBLIC "-//W3C//DTD SVG 1.1//EN"
  "http://www.w3.org/Graphics/SVG/1.1/DTD/svg11.dtd">
<!-- Created with matplotlib (https://matplotlib.org/) -->
<svg height="345.6pt" version="1.1" viewBox="0 0 460.8 345.6" width="460.8pt" xmlns="http://www.w3.org/2000/svg" xmlns:xlink="http://www.w3.org/1999/xlink">
 <metadata>
  <rdf:RDF xmlns:cc="http://creativecommons.org/ns#" xmlns:dc="http://purl.org/dc/elements/1.1/" xmlns:rdf="http://www.w3.org/1999/02/22-rdf-syntax-ns#">
   <cc:Work>
    <dc:type rdf:resource="http://purl.org/dc/dcmitype/StillImage"/>
    <dc:date>2021-02-16T16:29:07.541297</dc:date>
    <dc:format>image/svg+xml</dc:format>
    <dc:creator>
     <cc:Agent>
      <dc:title>Matplotlib v3.3.3, https://matplotlib.org/</dc:title>
     </cc:Agent>
    </dc:creator>
   </cc:Work>
  </rdf:RDF>
 </metadata>
 <defs>
  <style type="text/css">*{stroke-linecap:butt;stroke-linejoin:round;}</style>
 </defs>
 <g id="figure_1">
  <g id="patch_1">
   <path d="M 0 345.6 
L 460.8 345.6 
L 460.8 0 
L 0 0 
z
" style="fill:#ffffff;"/>
  </g>
  <g id="axes_1">
   <g id="patch_2">
    <path d="M 265.92 150.089143 
L 414.72 150.089143 
L 414.72 41.472 
L 265.92 41.472 
z
" style="fill:#ffffff;"/>
   </g>
   <g id="matplotlib.axis_1">
    <g id="xtick_1">
     <g id="line2d_1">
      <defs>
       <path d="M 0 0 
L 0 3.5 
" id="m87b1cfa22d" style="stroke:#000000;stroke-width:0.8;"/>
      </defs>
      <g>
       <use style="stroke:#000000;stroke-width:0.8;" x="315.519224" xlink:href="#m87b1cfa22d" y="150.089143"/>
      </g>
     </g>
     <g id="text_1">
      <!-- $\mathdefault{10^{1}}$ -->
      <g transform="translate(306.719224 164.68758)scale(0.1 -0.1)">
       <defs>
        <path d="M 14.203125 0 
L 14.203125 5.171875 
L 26.90625 5.171875 
L 26.90625 65.828125 
L 12.203125 56.296875 
L 12.203125 62.703125 
L 29.984375 74.21875 
L 36.71875 74.21875 
L 36.71875 5.171875 
L 49.421875 5.171875 
L 49.421875 0 
z
" id="DejaVuSerif-49"/>
        <path d="M 31.78125 3.421875 
Q 39.265625 3.421875 42.96875 11.625 
Q 46.6875 19.828125 46.6875 36.375 
Q 46.6875 52.984375 42.96875 61.1875 
Q 39.265625 69.390625 31.78125 69.390625 
Q 24.3125 69.390625 20.59375 61.1875 
Q 16.890625 52.984375 16.890625 36.375 
Q 16.890625 19.828125 20.59375 11.625 
Q 24.3125 3.421875 31.78125 3.421875 
z
M 31.78125 -1.421875 
Q 19.921875 -1.421875 13.25 8.53125 
Q 6.59375 18.5 6.59375 36.375 
Q 6.59375 54.296875 13.25 64.25 
Q 19.921875 74.21875 31.78125 74.21875 
Q 43.703125 74.21875 50.34375 64.25 
Q 56.984375 54.296875 56.984375 36.375 
Q 56.984375 18.5 50.34375 8.53125 
Q 43.703125 -1.421875 31.78125 -1.421875 
z
" id="DejaVuSerif-48"/>
       </defs>
       <use transform="translate(0 0.7125)" xlink:href="#DejaVuSerif-49"/>
       <use transform="translate(63.623047 0.7125)" xlink:href="#DejaVuSerif-48"/>
       <use transform="translate(128.154453 37.046875)scale(0.7)" xlink:href="#DejaVuSerif-49"/>
      </g>
     </g>
    </g>
    <g id="xtick_2">
     <g id="line2d_2">
      <g>
       <use style="stroke:#000000;stroke-width:0.8;" x="373.218149" xlink:href="#m87b1cfa22d" y="150.089143"/>
      </g>
     </g>
     <g id="text_2">
      <!-- $\mathdefault{10^{2}}$ -->
      <g transform="translate(364.418149 164.68758)scale(0.1 -0.1)">
       <defs>
        <path d="M 12.796875 55.515625 
L 7.328125 55.515625 
L 7.328125 68.5 
Q 12.546875 71.296875 17.84375 72.75 
Q 23.140625 74.21875 28.21875 74.21875 
Q 39.59375 74.21875 46.1875 68.703125 
Q 52.78125 63.1875 52.78125 53.71875 
Q 52.78125 43.015625 37.84375 28.125 
Q 36.671875 27 36.078125 26.421875 
L 17.671875 8.015625 
L 48.09375 8.015625 
L 48.09375 17 
L 53.8125 17 
L 53.8125 0 
L 6.78125 0 
L 6.78125 5.328125 
L 28.90625 27.390625 
Q 36.234375 34.71875 39.359375 40.84375 
Q 42.484375 46.96875 42.484375 53.71875 
Q 42.484375 61.078125 38.640625 65.234375 
Q 34.8125 69.390625 28.078125 69.390625 
Q 21.09375 69.390625 17.28125 65.921875 
Q 13.484375 62.453125 12.796875 55.515625 
z
" id="DejaVuSerif-50"/>
       </defs>
       <use transform="translate(0 0.7125)" xlink:href="#DejaVuSerif-49"/>
       <use transform="translate(63.623047 0.7125)" xlink:href="#DejaVuSerif-48"/>
       <use transform="translate(128.154453 37.046875)scale(0.7)" xlink:href="#DejaVuSerif-50"/>
      </g>
     </g>
    </g>
    <g id="xtick_3">
     <g id="line2d_3">
      <defs>
       <path d="M 0 0 
L 0 2 
" id="m1cfd99b8f6" style="stroke:#000000;stroke-width:0.6;"/>
      </defs>
      <g>
       <use style="stroke:#000000;stroke-width:0.6;" x="275.189406" xlink:href="#m1cfd99b8f6" y="150.089143"/>
      </g>
     </g>
    </g>
    <g id="xtick_4">
     <g id="line2d_4">
      <g>
       <use style="stroke:#000000;stroke-width:0.6;" x="285.349683" xlink:href="#m1cfd99b8f6" y="150.089143"/>
      </g>
     </g>
    </g>
    <g id="xtick_5">
     <g id="line2d_5">
      <g>
       <use style="stroke:#000000;stroke-width:0.6;" x="292.558513" xlink:href="#m1cfd99b8f6" y="150.089143"/>
      </g>
     </g>
    </g>
    <g id="xtick_6">
     <g id="line2d_6">
      <g>
       <use style="stroke:#000000;stroke-width:0.6;" x="298.150117" xlink:href="#m1cfd99b8f6" y="150.089143"/>
      </g>
     </g>
    </g>
    <g id="xtick_7">
     <g id="line2d_7">
      <g>
       <use style="stroke:#000000;stroke-width:0.6;" x="302.71879" xlink:href="#m1cfd99b8f6" y="150.089143"/>
      </g>
     </g>
    </g>
    <g id="xtick_8">
     <g id="line2d_8">
      <g>
       <use style="stroke:#000000;stroke-width:0.6;" x="306.581548" xlink:href="#m1cfd99b8f6" y="150.089143"/>
      </g>
     </g>
    </g>
    <g id="xtick_9">
     <g id="line2d_9">
      <g>
       <use style="stroke:#000000;stroke-width:0.6;" x="309.927621" xlink:href="#m1cfd99b8f6" y="150.089143"/>
      </g>
     </g>
    </g>
    <g id="xtick_10">
     <g id="line2d_10">
      <g>
       <use style="stroke:#000000;stroke-width:0.6;" x="312.879066" xlink:href="#m1cfd99b8f6" y="150.089143"/>
      </g>
     </g>
    </g>
    <g id="xtick_11">
     <g id="line2d_11">
      <g>
       <use style="stroke:#000000;stroke-width:0.6;" x="332.888331" xlink:href="#m1cfd99b8f6" y="150.089143"/>
      </g>
     </g>
    </g>
    <g id="xtick_12">
     <g id="line2d_12">
      <g>
       <use style="stroke:#000000;stroke-width:0.6;" x="343.048608" xlink:href="#m1cfd99b8f6" y="150.089143"/>
      </g>
     </g>
    </g>
    <g id="xtick_13">
     <g id="line2d_13">
      <g>
       <use style="stroke:#000000;stroke-width:0.6;" x="350.257438" xlink:href="#m1cfd99b8f6" y="150.089143"/>
      </g>
     </g>
    </g>
    <g id="xtick_14">
     <g id="line2d_14">
      <g>
       <use style="stroke:#000000;stroke-width:0.6;" x="355.849042" xlink:href="#m1cfd99b8f6" y="150.089143"/>
      </g>
     </g>
    </g>
    <g id="xtick_15">
     <g id="line2d_15">
      <g>
       <use style="stroke:#000000;stroke-width:0.6;" x="360.417715" xlink:href="#m1cfd99b8f6" y="150.089143"/>
      </g>
     </g>
    </g>
    <g id="xtick_16">
     <g id="line2d_16">
      <g>
       <use style="stroke:#000000;stroke-width:0.6;" x="364.280473" xlink:href="#m1cfd99b8f6" y="150.089143"/>
      </g>
     </g>
    </g>
    <g id="xtick_17">
     <g id="line2d_17">
      <g>
       <use style="stroke:#000000;stroke-width:0.6;" x="367.626546" xlink:href="#m1cfd99b8f6" y="150.089143"/>
      </g>
     </g>
    </g>
    <g id="xtick_18">
     <g id="line2d_18">
      <g>
       <use style="stroke:#000000;stroke-width:0.6;" x="370.577991" xlink:href="#m1cfd99b8f6" y="150.089143"/>
      </g>
     </g>
    </g>
    <g id="xtick_19">
     <g id="line2d_19">
      <g>
       <use style="stroke:#000000;stroke-width:0.6;" x="390.587256" xlink:href="#m1cfd99b8f6" y="150.089143"/>
      </g>
     </g>
    </g>
    <g id="xtick_20">
     <g id="line2d_20">
      <g>
       <use style="stroke:#000000;stroke-width:0.6;" x="400.747533" xlink:href="#m1cfd99b8f6" y="150.089143"/>
      </g>
     </g>
    </g>
    <g id="xtick_21">
     <g id="line2d_21">
      <g>
       <use style="stroke:#000000;stroke-width:0.6;" x="407.956364" xlink:href="#m1cfd99b8f6" y="150.089143"/>
      </g>
     </g>
    </g>
    <g id="xtick_22">
     <g id="line2d_22">
      <g>
       <use style="stroke:#000000;stroke-width:0.6;" x="413.547967" xlink:href="#m1cfd99b8f6" y="150.089143"/>
      </g>
     </g>
    </g>
    <g id="text_3">
     <!-- Period d -->
     <g transform="translate(319.231719 178.365705)scale(0.1 -0.1)">
      <defs>
       <path d="M 24.703125 37.109375 
L 37.59375 37.109375 
Q 44.875 37.109375 48.671875 41.03125 
Q 52.484375 44.96875 52.484375 52.390625 
Q 52.484375 59.859375 48.671875 63.765625 
Q 44.875 67.671875 37.59375 67.671875 
L 24.703125 67.671875 
z
M 5.515625 0 
L 5.515625 5.171875 
L 14.796875 5.171875 
L 14.796875 67.671875 
L 5.515625 67.671875 
L 5.515625 72.90625 
L 39.984375 72.90625 
Q 50.921875 72.90625 57.3125 67.359375 
Q 63.71875 61.8125 63.71875 52.390625 
Q 63.71875 43.015625 57.3125 37.453125 
Q 50.921875 31.890625 39.984375 31.890625 
L 24.703125 31.890625 
L 24.703125 5.171875 
L 35.984375 5.171875 
L 35.984375 0 
z
" id="DejaVuSerif-80"/>
       <path d="M 54.203125 25 
L 15.484375 25 
L 15.484375 24.609375 
Q 15.484375 14.109375 19.4375 8.765625 
Q 23.390625 3.421875 31.109375 3.421875 
Q 37.015625 3.421875 40.796875 6.515625 
Q 44.578125 9.625 46.09375 15.71875 
L 53.328125 15.71875 
Q 51.171875 7.171875 45.375 2.875 
Q 39.59375 -1.421875 30.171875 -1.421875 
Q 18.796875 -1.421875 11.890625 6.078125 
Q 4.984375 13.578125 4.984375 25.984375 
Q 4.984375 38.28125 11.765625 45.796875 
Q 18.5625 53.328125 29.59375 53.328125 
Q 41.359375 53.328125 47.65625 46.0625 
Q 53.953125 38.8125 54.203125 25 
z
M 43.609375 30.171875 
Q 43.3125 39.265625 39.765625 43.875 
Q 36.234375 48.484375 29.59375 48.484375 
Q 23.390625 48.484375 19.828125 43.84375 
Q 16.265625 39.203125 15.484375 30.171875 
z
" id="DejaVuSerif-101"/>
       <path d="M 47.796875 52 
L 47.796875 39.015625 
L 42.625 39.015625 
Q 42.390625 42.875 40.484375 44.78125 
Q 38.578125 46.6875 34.90625 46.6875 
Q 28.265625 46.6875 24.71875 42.09375 
Q 21.1875 37.5 21.1875 28.90625 
L 21.1875 5.171875 
L 31.59375 5.171875 
L 31.59375 0 
L 4.109375 0 
L 4.109375 5.171875 
L 12.203125 5.171875 
L 12.203125 46.78125 
L 3.609375 46.78125 
L 3.609375 51.90625 
L 21.1875 51.90625 
L 21.1875 42.671875 
Q 23.828125 48.09375 27.96875 50.703125 
Q 32.125 53.328125 38.09375 53.328125 
Q 40.28125 53.328125 42.703125 52.984375 
Q 45.125 52.640625 47.796875 52 
z
" id="DejaVuSerif-114"/>
       <path d="M 9.71875 68.015625 
Q 9.71875 70.265625 11.34375 71.921875 
Q 12.984375 73.578125 15.28125 73.578125 
Q 17.53125 73.578125 19.15625 71.921875 
Q 20.796875 70.265625 20.796875 68.015625 
Q 20.796875 65.71875 19.1875 64.109375 
Q 17.578125 62.5 15.28125 62.5 
Q 12.984375 62.5 11.34375 64.109375 
Q 9.71875 65.71875 9.71875 68.015625 
z
M 21.1875 5.171875 
L 29.6875 5.171875 
L 29.6875 0 
L 3.609375 0 
L 3.609375 5.171875 
L 12.203125 5.171875 
L 12.203125 46.6875 
L 3.609375 46.6875 
L 3.609375 51.90625 
L 21.1875 51.90625 
z
" id="DejaVuSerif-105"/>
       <path d="M 30.078125 3.421875 
Q 37.3125 3.421875 40.984375 9.125 
Q 44.671875 14.84375 44.671875 25.984375 
Q 44.671875 37.109375 40.984375 42.796875 
Q 37.3125 48.484375 30.078125 48.484375 
Q 22.859375 48.484375 19.171875 42.796875 
Q 15.484375 37.109375 15.484375 25.984375 
Q 15.484375 14.84375 19.1875 9.125 
Q 22.90625 3.421875 30.078125 3.421875 
z
M 30.078125 -1.421875 
Q 18.75 -1.421875 11.859375 6.078125 
Q 4.984375 13.578125 4.984375 25.984375 
Q 4.984375 38.375 11.84375 45.84375 
Q 18.703125 53.328125 30.078125 53.328125 
Q 41.453125 53.328125 48.3125 45.84375 
Q 55.171875 38.375 55.171875 25.984375 
Q 55.171875 13.578125 48.3125 6.078125 
Q 41.453125 -1.421875 30.078125 -1.421875 
z
" id="DejaVuSerif-111"/>
       <path d="M 52.484375 5.171875 
L 61.078125 5.171875 
L 61.078125 0 
L 43.5 0 
L 43.5 8.109375 
Q 40.875 3.21875 36.796875 0.890625 
Q 32.71875 -1.421875 26.703125 -1.421875 
Q 17.140625 -1.421875 11.0625 6.171875 
Q 4.984375 13.765625 4.984375 25.984375 
Q 4.984375 38.1875 11.03125 45.75 
Q 17.09375 53.328125 26.703125 53.328125 
Q 32.71875 53.328125 36.796875 51 
Q 40.875 48.6875 43.5 43.796875 
L 43.5 70.796875 
L 35.015625 70.796875 
L 35.015625 75.984375 
L 52.484375 75.984375 
z
M 43.5 23.390625 
L 43.5 28.515625 
Q 43.5 37.84375 39.90625 42.765625 
Q 36.328125 47.703125 29.5 47.703125 
Q 22.5625 47.703125 19.015625 42.234375 
Q 15.484375 36.765625 15.484375 25.984375 
Q 15.484375 15.234375 19.015625 9.71875 
Q 22.5625 4.203125 29.5 4.203125 
Q 36.328125 4.203125 39.90625 9.109375 
Q 43.5 14.015625 43.5 23.390625 
z
" id="DejaVuSerif-100"/>
       <path id="DejaVuSerif-32"/>
      </defs>
      <use xlink:href="#DejaVuSerif-80"/>
      <use x="62.785156" xlink:href="#DejaVuSerif-101"/>
      <use x="121.964844" xlink:href="#DejaVuSerif-114"/>
      <use x="169.767578" xlink:href="#DejaVuSerif-105"/>
      <use x="201.75" xlink:href="#DejaVuSerif-111"/>
      <use x="261.955078" xlink:href="#DejaVuSerif-100"/>
      <use x="325.96875" xlink:href="#DejaVuSerif-32"/>
      <use x="357.755859" xlink:href="#DejaVuSerif-100"/>
     </g>
    </g>
   </g>
   <g id="matplotlib.axis_2">
    <g id="ytick_1">
     <g id="line2d_23">
      <defs>
       <path d="M 0 0 
L -3.5 0 
" id="m768db88981" style="stroke:#000000;stroke-width:0.8;"/>
      </defs>
      <g>
       <use style="stroke:#000000;stroke-width:0.8;" x="265.92" xlink:href="#m768db88981" y="145.16065"/>
      </g>
     </g>
     <g id="text_4">
      <!-- 0.0 -->
      <g transform="translate(243.016875 148.959869)scale(0.1 -0.1)">
       <defs>
        <path d="M 9.421875 5.078125 
Q 9.421875 7.8125 11.28125 9.71875 
Q 13.140625 11.625 15.921875 11.625 
Q 18.609375 11.625 20.5 9.71875 
Q 22.40625 7.8125 22.40625 5.078125 
Q 22.40625 2.390625 20.5 0.484375 
Q 18.609375 -1.421875 15.921875 -1.421875 
Q 13.140625 -1.421875 11.28125 0.453125 
Q 9.421875 2.34375 9.421875 5.078125 
z
" id="DejaVuSerif-46"/>
       </defs>
       <use xlink:href="#DejaVuSerif-48"/>
       <use x="63.623047" xlink:href="#DejaVuSerif-46"/>
       <use x="95.410156" xlink:href="#DejaVuSerif-48"/>
      </g>
     </g>
    </g>
    <g id="ytick_2">
     <g id="line2d_24">
      <g>
       <use style="stroke:#000000;stroke-width:0.8;" x="265.92" xlink:href="#m768db88981" y="105.649357"/>
      </g>
     </g>
     <g id="text_5">
      <!-- 0.2 -->
      <g transform="translate(243.016875 109.448576)scale(0.1 -0.1)">
       <use xlink:href="#DejaVuSerif-48"/>
       <use x="63.623047" xlink:href="#DejaVuSerif-46"/>
       <use x="95.410156" xlink:href="#DejaVuSerif-50"/>
      </g>
     </g>
    </g>
    <g id="ytick_3">
     <g id="line2d_25">
      <g>
       <use style="stroke:#000000;stroke-width:0.8;" x="265.92" xlink:href="#m768db88981" y="66.138064"/>
      </g>
     </g>
     <g id="text_6">
      <!-- 0.4 -->
      <g transform="translate(243.016875 69.937283)scale(0.1 -0.1)">
       <defs>
        <path d="M 34.90625 24.703125 
L 34.90625 63.484375 
L 10.015625 24.703125 
z
M 56.390625 0 
L 23.1875 0 
L 23.1875 5.171875 
L 34.90625 5.171875 
L 34.90625 19.484375 
L 3.078125 19.484375 
L 3.078125 24.8125 
L 35.015625 74.21875 
L 44.671875 74.21875 
L 44.671875 24.703125 
L 58.59375 24.703125 
L 58.59375 19.484375 
L 44.671875 19.484375 
L 44.671875 5.171875 
L 56.390625 5.171875 
z
" id="DejaVuSerif-52"/>
       </defs>
       <use xlink:href="#DejaVuSerif-48"/>
       <use x="63.623047" xlink:href="#DejaVuSerif-46"/>
       <use x="95.410156" xlink:href="#DejaVuSerif-52"/>
      </g>
     </g>
    </g>
    <g id="text_7">
     <!-- Power -->
     <g transform="translate(236.937188 111.583696)rotate(-90)scale(0.1 -0.1)">
      <defs>
       <path d="M 48 51.90625 
L 61.28125 11.375 
L 73 46.6875 
L 65.484375 46.6875 
L 65.484375 51.90625 
L 84.28125 51.90625 
L 84.28125 46.6875 
L 78.515625 46.6875 
L 63.09375 0 
L 55.609375 0 
L 42.828125 38.8125 
L 29.984375 0 
L 22.796875 0 
L 7.421875 46.6875 
L 1.609375 46.6875 
L 1.609375 51.90625 
L 25.09375 51.90625 
L 25.09375 46.6875 
L 16.703125 46.6875 
L 28.328125 11.375 
L 41.703125 51.90625 
z
" id="DejaVuSerif-119"/>
      </defs>
      <use xlink:href="#DejaVuSerif-80"/>
      <use x="63.285156" xlink:href="#DejaVuSerif-111"/>
      <use x="123.490234" xlink:href="#DejaVuSerif-119"/>
      <use x="209.085938" xlink:href="#DejaVuSerif-101"/>
      <use x="268.265625" xlink:href="#DejaVuSerif-114"/>
     </g>
    </g>
   </g>
   <g id="LineCollection_1">
    <path clip-path="url(#p88a7ccb4b0)" d="M 272.688076 53.043906 
L 407.956364 53.043906 
" style="fill:none;stroke:#808080;stroke-dasharray:5.55,2.4;stroke-dashoffset:0;stroke-width:1.5;"/>
   </g>
   <g id="LineCollection_2">
    <path clip-path="url(#p88a7ccb4b0)" d="M 272.688076 66.040762 
L 407.956364 66.040762 
" style="fill:none;stroke:#a9a9a9;stroke-dasharray:5.55,2.4;stroke-dashoffset:0;stroke-width:1.5;"/>
   </g>
   <g id="LineCollection_3">
    <path clip-path="url(#p88a7ccb4b0)" d="M 272.688076 76.274518 
L 407.956364 76.274518 
" style="fill:none;stroke:#c0c0c0;stroke-dasharray:5.55,2.4;stroke-dashoffset:0;stroke-width:1.5;"/>
   </g>
   <g id="LineCollection_4">
    <path clip-path="url(#p88a7ccb4b0)" d="M 272.688076 81.108684 
L 407.956364 81.108684 
" style="fill:none;stroke:#d3d3d3;stroke-dasharray:5.55,2.4;stroke-dashoffset:0;stroke-width:1.5;"/>
   </g>
   <g id="line2d_26">
    <path clip-path="url(#p88a7ccb4b0)" d="M 407.956364 141.902362 
L 403.213616 131.6497 
L 399.227255 124.933423 
L 395.788878 131.030594 
L 392.765875 138.574338 
L 390.068617 143.703989 
L 387.633683 139.464483 
L 385.414539 130.941276 
L 383.376032 126.053978 
L 381.490955 128.235414 
L 379.73782 135.705054 
L 378.099359 139.620593 
L 376.561486 140.334447 
L 375.112563 142.94887 
L 373.74286 139.50348 
L 372.444161 133.757151 
L 371.209467 126.785243 
L 370.032763 117.99293 
L 368.908846 118.226595 
L 367.833182 132.785424 
L 366.801799 144.098305 
L 365.811193 136.529932 
L 364.858264 123.362134 
L 363.940249 115.945388 
L 363.054681 121.934466 
L 362.199344 141.338064 
L 361.372241 143.059991 
L 360.571569 136.937961 
L 359.79569 132.272465 
L 359.043114 133.710327 
L 358.312483 142.930371 
L 357.602554 140.322175 
L 356.912184 129.154518 
L 356.240326 125.492947 
L 355.586012 123.363005 
L 354.948349 127.886294 
L 354.326511 137.600667 
L 353.719731 144.00573 
L 353.127298 141.800181 
L 352.548548 137.960721 
L 351.429669 112.706898 
L 350.888423 112.103215 
L 350.358621 125.328818 
L 349.839788 141.396435 
L 349.331481 144.436855 
L 348.344791 116.81219 
L 347.865643 119.777901 
L 347.395485 135.533136 
L 346.933987 145.051676 
L 346.480834 133.972867 
L 346.035731 116.728873 
L 345.598396 106.063955 
L 345.168563 108.619619 
L 344.745979 129.538835 
L 344.330404 138.261311 
L 343.519374 107.175501 
L 343.123495 103.7413 
L 342.733774 116.000349 
L 342.35002 135.735515 
L 341.972055 144.829553 
L 341.599707 143.141203 
L 341.23281 139.888221 
L 340.51475 126.100887 
L 340.163291 131.274511 
L 339.816694 133.362041 
L 339.474825 133.441269 
L 339.137558 137.675187 
L 338.80477 138.939119 
L 338.476344 138.91419 
L 338.152167 142.513841 
L 337.83213 142.665572 
L 337.516128 136.940902 
L 337.204063 120.770286 
L 336.895836 111.146168 
L 336.591354 116.302645 
L 335.993269 144.599683 
L 335.699496 139.781517 
L 335.409128 128.246939 
L 335.122085 125.052494 
L 334.838294 132.640995 
L 334.55768 144.075738 
L 334.280174 139.499933 
L 334.005708 129.840461 
L 333.734215 127.815029 
L 333.465633 132.378781 
L 333.199898 141.088832 
L 332.936952 141.04582 
L 332.676737 123.312356 
L 332.419196 113.592741 
L 332.164275 121.152006 
L 331.662084 139.456264 
L 331.414712 142.331016 
L 331.169759 142.425539 
L 330.927177 140.544812 
L 330.686922 137.795185 
L 330.448947 129.519625 
L 330.213212 126.117672 
L 329.748291 135.356557 
L 329.519026 137.05413 
L 329.066695 137.815804 
L 328.622384 144.518437 
L 328.403148 131.646156 
L 328.185814 106.445902 
L 327.970348 98.344084 
L 327.756719 107.753891 
L 327.33485 138.935867 
L 326.919965 105.080672 
L 326.71507 104.832914 
L 326.511837 115.405934 
L 326.310239 134.748148 
L 326.11025 141.346391 
L 325.714998 110.641098 
L 325.519686 114.278541 
L 325.133569 142.610647 
L 324.942719 140.140557 
L 324.565326 113.481755 
L 324.378739 117.654919 
L 323.827173 143.961703 
L 323.645984 142.989791 
L 323.110144 112.564568 
L 322.934048 120.099131 
L 322.585524 145.1348 
L 322.071662 121.907197 
L 321.90269 129.657851 
L 321.73485 142.829416 
L 321.568126 142.627828 
L 321.237971 128.275254 
L 321.07451 130.25536 
L 320.750753 144.89975 
L 320.431126 130.966469 
L 320.272828 131.343139 
L 319.959202 143.114326 
L 319.803848 142.954774 
L 319.496001 137.686769 
L 319.343484 137.913569 
L 319.041207 132.361466 
L 318.742534 142.330363 
L 318.594521 142.666523 
L 318.301094 123.768572 
L 318.155658 124.87657 
L 317.867296 143.723072 
L 317.724349 140.95129 
L 317.44088 132.161705 
L 317.160581 142.691189 
L 317.021599 141.11402 
L 316.883384 136.737171 
L 316.745926 136.594446 
L 316.473253 144.416898 
L 316.203515 130.453057 
L 316.069727 132.515216 
L 315.804275 144.892871 
L 315.411296 111.650201 
L 315.024386 144.706786 
L 314.643358 121.780286 
L 314.268038 138.616527 
L 314.14417 138.83648 
L 314.020912 140.619646 
L 313.898256 140.334147 
L 313.654732 128.67183 
L 313.533852 129.791856 
L 313.293827 143.21096 
L 313.174672 141.754547 
L 312.938046 127.38056 
L 312.587246 144.378264 
L 312.356079 128.714369 
L 312.24129 129.272661 
L 312.013277 142.944328 
L 311.900044 142.264712 
L 311.675102 139.524081 
L 311.563383 139.892393 
L 311.34143 127.236589 
L 311.012142 143.704726 
L 310.794997 126.769411 
L 310.687126 127.062324 
L 310.472767 144.264505 
L 310.366271 138.510899 
L 310.154628 118.291591 
L 309.840478 144.823545 
L 309.530217 122.394206 
L 309.223751 144.65072 
L 309.122423 143.7704 
L 308.820874 132.011672 
L 308.721159 134.418873 
L 308.522911 144.598747 
L 308.228449 104.066722 
L 307.937408 137.136297 
L 307.649708 82.342429 
L 307.365274 138.380784 
L 307.084032 98.833488 
L 306.805911 141.468668 
L 306.622198 111.569845 
L 306.530844 114.740549 
L 306.258763 144.348299 
L 305.989605 119.545547 
L 305.900524 122.0833 
L 305.723307 143.822578 
L 305.635166 140.751863 
L 305.459809 111.080372 
L 305.285671 136.818737 
L 305.199054 145.105284 
L 304.940984 112.681459 
L 304.685544 142.622252 
L 304.516687 117.144391 
L 304.432682 119.829981 
L 304.265515 143.854225 
L 304.099454 128.749313 
L 304.016835 128.8053 
L 303.852409 145.03546 
L 303.770599 140.163696 
L 303.607776 111.249736 
L 303.52676 117.256444 
L 303.28527 142.884574 
L 303.046086 111.41865 
L 302.966862 116.0757 
L 302.809162 142.878744 
L 302.730683 136.331288 
L 302.574458 100.998456 
L 302.341932 136.875413 
L 302.111544 61.094562 
L 301.883255 119.918509 
L 301.732209 65.670192 
L 301.657027 65.920953 
L 301.432822 136.145523 
L 301.28446 114.008315 
L 301.210607 116.851457 
L 301.06355 141.293549 
L 300.990344 136.904698 
L 300.772001 109.060588 
L 300.627488 129.340603 
L 300.555543 125.138655 
L 300.34094 46.409143 
L 300.128159 118.770571 
L 299.987302 69.261099 
L 299.917169 71.190939 
L 299.707941 132.011167 
L 299.500446 82.92343 
L 299.294655 133.604104 
L 299.09054 102.910385 
L 298.888074 143.479156 
L 298.820947 138.300066 
L 298.687231 126.216172 
L 298.487985 144.914064 
L 298.42192 138.02857 
L 298.290311 123.478563 
L 298.159389 144.144797 
L 298.094184 136.102216 
L 297.96428 87.132171 
L 297.89958 94.079423 
L 297.770679 136.603576 
L 297.578561 83.085947 
L 297.514848 97.156338 
L 297.387906 138.706189 
L 297.324675 134.114793 
L 297.19869 109.656866 
L 297.010892 142.705589 
L 296.824491 121.472232 
L 296.639467 142.956079 
L 296.455798 116.155387 
L 296.394874 121.594719 
L 296.273467 142.287267 
L 296.092452 101.053985 
L 296.032403 112.285531 
L 295.912735 137.922354 
L 295.734298 81.061377 
L 295.616043 119.808331 
L 295.557123 119.566208 
L 295.381192 65.100891 
L 295.206487 121.274468 
L 295.148522 112.215026 
L 295.032992 99.080774 
L 294.86069 142.509471 
L 294.803519 138.656618 
L 294.689565 124.563585 
L 294.632782 128.411378 
L 294.5196 143.741443 
L 294.350781 99.167813 
L 294.294759 101.465853 
L 294.183091 137.738519 
L 294.127442 128.323922 
L 294.016515 97.491197 
L 293.961236 100.915253 
L 293.85104 144.426319 
L 293.796124 140.537722 
L 293.686651 132.146907 
L 293.577654 144.653371 
L 293.415042 113.647358 
L 293.361072 119.058023 
L 293.253479 142.570595 
L 293.199855 138.061261 
L 293.092951 128.616464 
L 293.039669 129.148414 
L 292.8805 144.45622 
L 292.774947 140.200607 
L 292.722336 135.487207 
L 292.669836 137.316391 
L 292.617446 142.283182 
L 292.565165 139.718169 
L 292.460928 121.039721 
L 292.408972 122.580957 
L 292.305382 142.517313 
L 292.253748 133.990001 
L 292.150796 109.401268 
L 292.099478 116.506323 
L 291.997158 144.30561 
L 291.946153 141.483525 
L 291.844455 132.932032 
L 291.743168 143.865995 
L 291.592001 116.568815 
L 291.541814 122.379291 
L 291.441741 141.62481 
L 291.391854 136.958561 
L 291.242785 129.45245 
L 291.193292 128.855364 
L 291.094598 143.80194 
L 291.045396 143.202678 
L 290.947282 126.963279 
L 290.898369 127.459673 
L 290.800827 145.150161 
L 290.752198 138.075941 
L 290.655223 118.535267 
L 290.606876 124.580928 
L 290.558622 135.481825 
L 290.510461 134.900617 
L 290.366529 103.364902 
L 290.22342 139.588326 
L 290.175898 135.256975 
L 290.128466 131.871224 
L 290.081123 133.678502 
L 289.93963 144.54412 
L 289.892643 143.105788 
L 289.845744 142.207995 
L 289.752207 136.923369 
L 289.659019 144.267427 
L 289.612554 143.184399 
L 289.473675 124.685705 
L 289.381515 143.298747 
L 289.335561 143.028008 
L 289.243907 127.075327 
L 289.198205 129.167025 
L 289.061597 142.888842 
L 289.016226 141.267425 
L 288.92573 144.188674 
L 288.880604 143.157588 
L 288.790596 132.839081 
L 288.745712 135.469354 
L 288.656186 145.110472 
L 288.611543 141.884115 
L 288.566978 137.986404 
L 288.522494 139.276907 
L 288.478087 143.356826 
L 288.43376 142.639752 
L 288.345339 137.078276 
L 288.301246 139.137529 
L 288.25723 144.506269 
L 288.213291 142.896528 
L 288.081934 130.243359 
L 287.994745 144.29461 
L 287.951263 142.650156 
L 287.907857 139.802328 
L 287.864526 140.500353 
L 287.82127 142.878322 
L 287.778088 142.700056 
L 287.691947 135.014653 
L 287.648987 137.923135 
L 287.563288 144.745267 
L 287.477881 134.666142 
L 287.435287 136.949573 
L 287.350314 143.619725 
L 287.223394 130.42261 
L 287.139135 141.986257 
L 287.097112 139.191127 
L 287.013277 129.824795 
L 286.971464 133.803882 
L 286.804908 145.152 
L 286.763441 142.749589 
L 286.680713 125.935513 
L 286.639451 126.111431 
L 286.516071 144.974078 
L 286.475079 141.647895 
L 286.434154 137.406484 
L 286.393296 137.662559 
L 286.311779 144.233832 
L 286.271119 141.210836 
L 286.230526 138.500649 
L 286.189998 139.475379 
L 286.109139 145.150641 
L 286.068806 142.911749 
L 286.028539 141.03719 
L 285.988336 142.161993 
L 285.948198 143.872742 
L 285.908124 143.386627 
L 285.828167 137.02676 
L 285.788285 139.818937 
L 285.708709 144.517678 
L 285.589817 135.444512 
L 285.550312 139.794801 
L 285.510868 140.194408 
L 285.432167 135.498542 
L 285.353713 144.587542 
L 285.314578 138.349606 
L 285.23649 117.333076 
L 285.197537 119.863578 
L 285.08104 143.637888 
L 285.042328 139.51479 
L 285.003676 137.224592 
L 284.965083 140.155945 
L 284.926549 143.445814 
L 284.84966 140.894203 
L 284.734766 144.622777 
L 284.658461 137.733637 
L 284.620396 139.969397 
L 284.544439 144.438322 
L 284.430932 132.313975 
L 284.355546 144.589189 
L 284.317938 143.427 
L 284.24289 136.088848 
L 284.205451 136.976999 
L 284.019087 144.678712 
L 283.90793 125.545336 
L 283.870987 129.631703 
L 283.797265 142.53853 
L 283.723758 137.719462 
L 283.687086 137.748982 
L 283.613901 144.349181 
L 283.577389 142.783606 
L 283.504524 137.8438 
L 283.46817 141.133008 
L 283.395621 145.064213 
L 283.359426 143.730928 
L 283.215163 139.265793 
L 283.179227 140.458185 
L 283.107508 145.03847 
L 283.071726 141.316207 
L 283.035995 134.44861 
L 282.964685 140.609055 
L 282.929106 144.893774 
L 282.893577 142.470645 
L 282.822671 127.566571 
L 282.787292 131.702527 
L 282.716685 142.233776 
L 282.681457 138.063569 
L 282.646277 132.228184 
L 282.576066 138.961294 
L 282.541034 144.140991 
L 282.471117 139.718697 
L 282.436231 138.991239 
L 282.366605 145.090776 
L 282.331865 143.838086 
L 282.262528 138.285941 
L 282.227931 141.046812 
L 282.09002 143.68952 
L 282.055661 144.496102 
L 281.952864 135.957599 
L 281.918692 139.073401 
L 281.850487 144.580857 
L 281.816455 138.815937 
L 281.782468 136.080255 
L 281.748527 139.293688 
L 281.680784 144.133604 
L 281.64698 138.57456 
L 281.613223 132.490463 
L 281.545843 139.092475 
L 281.512222 142.208551 
L 281.445113 138.138598 
L 281.411626 138.372254 
L 281.344786 144.737169 
L 281.311432 143.055855 
L 281.244859 137.441498 
L 281.211638 141.360174 
L 281.178461 144.379908 
L 281.145328 143.024903 
L 281.079194 135.269458 
L 281.046192 136.918356 
L 280.947446 145.012277 
L 280.914617 144.746894 
L 280.816388 132.918394 
L 280.751115 139.727153 
L 280.718542 142.290979 
L 280.686011 138.967091 
L 280.621076 126.118206 
L 280.556309 133.715526 
L 280.523988 133.354139 
L 280.459471 123.53509 
L 280.427275 125.89112 
L 280.363006 135.034502 
L 280.298902 129.93837 
L 280.266911 127.807837 
L 280.171183 144.514917 
L 280.107567 139.059828 
L 280.07582 139.024457 
L 279.980818 144.624802 
L 279.917683 142.208937 
L 279.854706 135.737263 
L 279.823277 138.569233 
L 279.791887 142.881259 
L 279.729226 136.680766 
L 279.666721 121.640117 
L 279.635526 128.402621 
L 279.604371 133.893227 
L 279.542176 127.954927 
L 279.511136 122.108374 
L 279.449172 130.355401 
L 279.38736 136.513574 
L 279.356512 133.153073 
L 279.325701 131.864488 
L 279.233496 144.446417 
L 279.172213 139.126122 
L 279.08057 144.572514 
L 278.98926 143.727829 
L 278.898282 138.781038 
L 278.868029 141.5598 
L 278.807633 145.150872 
L 278.747382 143.206244 
L 278.687276 145.148892 
L 278.657277 143.179103 
L 278.448282 119.721161 
L 278.418567 119.569225 
L 278.27052 132.681029 
L 278.18211 144.823006 
L 278.123343 138.999295 
L 278.094011 138.518903 
L 278.00622 144.870182 
L 277.977025 143.814369 
L 277.889643 133.5531 
L 277.831556 138.933992 
L 277.658102 144.717888 
L 277.514467 131.073426 
L 277.40015 98.966837 
L 277.343186 132.977687 
L 277.257983 131.678169 
L 277.032179 144.621479 
L 276.976045 145.13244 
L 276.920036 141.10349 
L 276.864152 130.742804 
L 276.808393 135.74974 
L 276.724985 132.634984 
L 276.641855 143.964293 
L 276.558999 141.299723 
L 276.531441 142.608785 
L 276.421512 117.802543 
L 276.394104 122.056682 
L 276.312062 137.849807 
L 276.257517 137.2375 
L 276.094588 145.068744 
L 276.040513 145.00682 
L 276.013519 144.961875 
L 275.932712 139.88229 
L 275.825372 126.194647 
L 275.771875 129.320512 
L 275.585527 144.760183 
L 275.506086 137.103419 
L 275.453264 141.436222 
L 275.321697 144.007252 
L 275.295466 144.643646 
L 275.216938 144.422565 
L 275.112615 140.575972 
L 275.086602 143.917895 
L 274.95694 145.085679 
L 274.853692 135.409454 
L 274.750867 137.217734 
L 274.725226 137.012199 
L 274.648462 144.997282 
L 274.597417 138.465893 
L 274.571933 135.148406 
L 274.521042 140.774324 
L 274.495636 138.694735 
L 274.419571 133.55253 
L 274.293307 144.216506 
L 274.26813 143.958751 
L 274.242979 143.932798 
L 274.192752 145.004111 
L 274.092598 144.879411 
L 274.067622 143.749042 
L 273.967967 121.264125 
L 273.893484 125.080426 
L 273.868706 125.950476 
L 273.74518 144.881922 
L 273.671356 143.364965 
L 273.622261 138.458817 
L 273.548797 140.669046 
L 273.426835 142.493473 
L 273.402514 142.421202 
L 273.329691 145.048 
L 273.305463 144.276662 
L 273.208788 144.878951 
L 273.136525 124.501493 
L 273.06447 127.523866 
L 273.016548 113.475301 
L 272.825771 145.141942 
L 272.778303 140.435502 
L 272.754603 139.762 
L 272.730925 140.991346 
L 272.683636 143.627459 
L 272.683636 143.627459 
" style="fill:none;stroke:#1f77b4;stroke-linecap:square;stroke-width:1.5;"/>
   </g>
   <g id="patch_3">
    <path d="M 265.92 150.089143 
L 265.92 41.472 
" style="fill:none;stroke:#000000;stroke-linecap:square;stroke-linejoin:miter;stroke-width:0.8;"/>
   </g>
   <g id="patch_4">
    <path d="M 414.72 150.089143 
L 414.72 41.472 
" style="fill:none;stroke:#000000;stroke-linecap:square;stroke-linejoin:miter;stroke-width:0.8;"/>
   </g>
   <g id="patch_5">
    <path d="M 265.92 150.089143 
L 414.72 150.089143 
" style="fill:none;stroke:#000000;stroke-linecap:square;stroke-linejoin:miter;stroke-width:0.8;"/>
   </g>
   <g id="patch_6">
    <path d="M 265.92 41.472 
L 414.72 41.472 
" style="fill:none;stroke:#000000;stroke-linecap:square;stroke-linejoin:miter;stroke-width:0.8;"/>
   </g>
   <g id="text_8">
    <!-- Periodogram -->
    <g transform="translate(307.698125 35.472)scale(0.1 -0.1)">
     <defs>
      <path d="M 52.484375 46.6875 
L 52.484375 1.125 
Q 52.484375 -10.0625 46.328125 -16.140625 
Q 40.1875 -22.21875 28.8125 -22.21875 
Q 23.6875 -22.21875 19 -21.28125 
Q 14.3125 -20.359375 10.015625 -18.5 
L 10.015625 -7.625 
L 14.703125 -7.625 
Q 15.578125 -12.703125 18.84375 -15.046875 
Q 22.125 -17.390625 28.21875 -17.390625 
Q 36.140625 -17.390625 39.8125 -12.921875 
Q 43.5 -8.453125 43.5 1.125 
L 43.5 8.109375 
Q 40.875 3.21875 36.796875 0.890625 
Q 32.71875 -1.421875 26.703125 -1.421875 
Q 17.140625 -1.421875 11.0625 6.171875 
Q 4.984375 13.765625 4.984375 25.984375 
Q 4.984375 38.1875 11.03125 45.75 
Q 17.09375 53.328125 26.703125 53.328125 
Q 32.71875 53.328125 36.796875 51 
Q 40.875 48.6875 43.5 43.796875 
L 43.5 51.90625 
L 61.078125 51.90625 
L 61.078125 46.6875 
z
M 43.5 28.515625 
Q 43.5 37.84375 39.90625 42.765625 
Q 36.328125 47.703125 29.5 47.703125 
Q 22.5625 47.703125 19.015625 42.234375 
Q 15.484375 36.765625 15.484375 25.984375 
Q 15.484375 15.234375 19.015625 9.71875 
Q 22.5625 4.203125 29.5 4.203125 
Q 36.328125 4.203125 39.90625 9.109375 
Q 43.5 14.015625 43.5 23.390625 
z
" id="DejaVuSerif-103"/>
      <path d="M 39.796875 16.3125 
L 39.796875 27.296875 
L 28.21875 27.296875 
Q 21.53125 27.296875 18.25 24.40625 
Q 14.984375 21.53125 14.984375 15.578125 
Q 14.984375 10.15625 18.296875 6.984375 
Q 21.625 3.8125 27.296875 3.8125 
Q 32.90625 3.8125 36.34375 7.28125 
Q 39.796875 10.75 39.796875 16.3125 
z
M 48.78125 32.421875 
L 48.78125 5.171875 
L 56.78125 5.171875 
L 56.78125 0 
L 39.796875 0 
L 39.796875 5.609375 
Q 36.8125 2 32.90625 0.28125 
Q 29 -1.421875 23.78125 -1.421875 
Q 15.140625 -1.421875 10.0625 3.171875 
Q 4.984375 7.765625 4.984375 15.578125 
Q 4.984375 23.640625 10.796875 28.078125 
Q 16.609375 32.515625 27.203125 32.515625 
L 39.796875 32.515625 
L 39.796875 36.078125 
Q 39.796875 42 36.203125 45.234375 
Q 32.625 48.484375 26.125 48.484375 
Q 20.75 48.484375 17.578125 46.046875 
Q 14.40625 43.609375 13.625 38.8125 
L 8.984375 38.8125 
L 8.984375 49.3125 
Q 13.671875 51.3125 18.09375 52.3125 
Q 22.515625 53.328125 26.703125 53.328125 
Q 37.5 53.328125 43.140625 47.96875 
Q 48.78125 42.625 48.78125 32.421875 
z
" id="DejaVuSerif-97"/>
      <path d="M 51.8125 41.796875 
Q 54.390625 47.515625 58.421875 50.421875 
Q 62.453125 53.328125 67.828125 53.328125 
Q 75.984375 53.328125 79.984375 48.265625 
Q 83.984375 43.21875 83.984375 33.015625 
L 83.984375 5.171875 
L 92.09375 5.171875 
L 92.09375 0 
L 67.1875 0 
L 67.1875 5.171875 
L 75 5.171875 
L 75 31.984375 
Q 75 39.9375 72.65625 43.3125 
Q 70.3125 46.6875 64.890625 46.6875 
Q 58.890625 46.6875 55.734375 42.140625 
Q 52.59375 37.59375 52.59375 28.90625 
L 52.59375 5.171875 
L 60.40625 5.171875 
L 60.40625 0 
L 35.796875 0 
L 35.796875 5.171875 
L 43.609375 5.171875 
L 43.609375 32.328125 
Q 43.609375 40.09375 41.265625 43.390625 
Q 38.921875 46.6875 33.5 46.6875 
Q 27.484375 46.6875 24.328125 42.140625 
Q 21.1875 37.59375 21.1875 28.90625 
L 21.1875 5.171875 
L 29 5.171875 
L 29 0 
L 4.109375 0 
L 4.109375 5.171875 
L 12.203125 5.171875 
L 12.203125 46.78125 
L 3.609375 46.78125 
L 3.609375 51.90625 
L 21.1875 51.90625 
L 21.1875 42.671875 
Q 23.6875 47.859375 27.53125 50.59375 
Q 31.390625 53.328125 36.28125 53.328125 
Q 42.328125 53.328125 46.375 50.3125 
Q 50.4375 47.3125 51.8125 41.796875 
z
" id="DejaVuSerif-109"/>
     </defs>
     <use xlink:href="#DejaVuSerif-80"/>
     <use x="62.785156" xlink:href="#DejaVuSerif-101"/>
     <use x="121.964844" xlink:href="#DejaVuSerif-114"/>
     <use x="169.767578" xlink:href="#DejaVuSerif-105"/>
     <use x="201.75" xlink:href="#DejaVuSerif-111"/>
     <use x="261.955078" xlink:href="#DejaVuSerif-100"/>
     <use x="325.96875" xlink:href="#DejaVuSerif-111"/>
     <use x="386.173828" xlink:href="#DejaVuSerif-103"/>
     <use x="450.1875" xlink:href="#DejaVuSerif-114"/>
     <use x="497.990234" xlink:href="#DejaVuSerif-97"/>
     <use x="557.609375" xlink:href="#DejaVuSerif-109"/>
    </g>
   </g>
   <g id="legend_1">
    <g id="patch_7">
     <path d="M 419.648125 108.123071 
L 454.431875 108.123071 
Q 455.231875 108.123071 455.231875 107.323071 
L 455.231875 84.238071 
Q 455.231875 83.438071 454.431875 83.438071 
L 419.648125 83.438071 
Q 418.848125 83.438071 418.848125 84.238071 
L 418.848125 107.323071 
Q 418.848125 108.123071 419.648125 108.123071 
z
" style="fill:#ffffff;opacity:0.8;stroke:#cccccc;stroke-linejoin:miter;"/>
    </g>
    <g id="line2d_27">
     <path d="M 420.448125 86.677446 
L 428.448125 86.677446 
" style="fill:none;stroke:#808080;stroke-dasharray:5.55,2.4;stroke-dashoffset:0;stroke-width:1.5;"/>
    </g>
    <g id="text_9">
     <!-- 99.9% FAP -->
     <g transform="translate(431.648125 88.077446)scale(0.04 -0.04)">
      <defs>
       <path d="M 46.78125 32.671875 
Q 43.5 29 39.25 27.1875 
Q 35.015625 25.390625 29.6875 25.390625 
Q 18.84375 25.390625 12.5625 31.9375 
Q 6.296875 38.484375 6.296875 49.8125 
Q 6.296875 60.890625 13.109375 67.546875 
Q 19.921875 74.21875 31.296875 74.21875 
Q 43.65625 74.21875 50.265625 65.015625 
Q 56.890625 55.8125 56.890625 38.71875 
Q 56.890625 19.578125 49.015625 9.078125 
Q 41.15625 -1.421875 26.90625 -1.421875 
Q 23.046875 -1.421875 18.796875 -0.6875 
Q 14.546875 0.046875 10.109375 1.515625 
L 10.109375 13.625 
L 15.578125 13.625 
Q 16.21875 8.6875 19.390625 6.046875 
Q 22.5625 3.421875 27.875 3.421875 
Q 37.359375 3.421875 41.984375 10.5625 
Q 46.625 17.71875 46.78125 32.671875 
z
M 30.90625 69.390625 
Q 23.96875 69.390625 20.28125 64.328125 
Q 16.609375 59.28125 16.609375 49.8125 
Q 16.609375 40.328125 20.28125 35.25 
Q 23.96875 30.171875 30.90625 30.171875 
Q 37.84375 30.171875 41.53125 35.078125 
Q 45.21875 39.984375 45.21875 49.21875 
Q 45.21875 58.9375 41.5 64.15625 
Q 37.796875 69.390625 30.90625 69.390625 
z
" id="DejaVuSerif-57"/>
       <path d="M 22.40625 69.671875 
Q 18.109375 69.671875 15.6875 65.625 
Q 13.28125 61.578125 13.28125 54.296875 
Q 13.28125 47.125 15.75 43.015625 
Q 18.21875 38.921875 22.40625 38.921875 
Q 26.5625 38.921875 28.96875 43 
Q 31.390625 47.078125 31.390625 54.296875 
Q 31.390625 61.53125 28.96875 65.59375 
Q 26.5625 69.671875 22.40625 69.671875 
z
M 72.703125 33.890625 
Q 68.453125 33.890625 66.03125 29.78125 
Q 63.625 25.6875 63.625 18.40625 
Q 63.625 11.234375 66.0625 7.15625 
Q 68.5 3.078125 72.703125 3.078125 
Q 76.90625 3.078125 79.296875 7.15625 
Q 81.6875 11.234375 81.6875 18.40625 
Q 81.6875 25.640625 79.265625 29.765625 
Q 76.859375 33.890625 72.703125 33.890625 
z
M 72.703125 38.28125 
Q 80.421875 38.28125 84.953125 32.90625 
Q 89.5 27.546875 89.5 18.40625 
Q 89.5 9.28125 84.9375 3.921875 
Q 80.375 -1.421875 72.703125 -1.421875 
Q 64.890625 -1.421875 60.34375 3.921875 
Q 55.8125 9.28125 55.8125 18.40625 
Q 55.8125 27.59375 60.375 32.9375 
Q 64.9375 38.28125 72.703125 38.28125 
z
M 66.609375 74.21875 
L 74.03125 74.21875 
L 28.421875 -1.421875 
L 21 -1.421875 
z
M 22.3125 74.21875 
Q 30.03125 74.21875 34.609375 68.875 
Q 39.203125 63.53125 39.203125 54.390625 
Q 39.203125 45.171875 34.640625 39.84375 
Q 30.078125 34.515625 22.3125 34.515625 
Q 14.546875 34.515625 10.03125 39.859375 
Q 5.515625 45.21875 5.515625 54.390625 
Q 5.515625 63.484375 10.046875 68.84375 
Q 14.59375 74.21875 22.3125 74.21875 
z
" id="DejaVuSerif-37"/>
       <path d="M 5.515625 0 
L 5.515625 5.171875 
L 14.796875 5.171875 
L 14.796875 67.671875 
L 5.515625 67.671875 
L 5.515625 72.90625 
L 65.1875 72.90625 
L 65.1875 56.6875 
L 59.1875 56.6875 
L 59.1875 66.890625 
L 24.703125 66.890625 
L 24.703125 42.484375 
L 49.609375 42.484375 
L 49.609375 51.609375 
L 55.609375 51.609375 
L 55.609375 27.390625 
L 49.609375 27.390625 
L 49.609375 36.53125 
L 24.703125 36.53125 
L 24.703125 5.171875 
L 36.375 5.171875 
L 36.375 0 
z
" id="DejaVuSerif-70"/>
       <path d="M 20.015625 26.421875 
L 46.78125 26.421875 
L 33.40625 61.078125 
z
M -0.59375 0 
L -0.59375 5.171875 
L 5.8125 5.171875 
L 31.78125 72.90625 
L 39.984375 72.90625 
L 66.015625 5.171875 
L 73.1875 5.171875 
L 73.1875 0 
L 46.6875 0 
L 46.6875 5.171875 
L 54.78125 5.171875 
L 48.6875 21.1875 
L 18.015625 21.1875 
L 11.921875 5.171875 
L 19.921875 5.171875 
L 19.921875 0 
z
" id="DejaVuSerif-65"/>
      </defs>
      <use xlink:href="#DejaVuSerif-57"/>
      <use x="63.623047" xlink:href="#DejaVuSerif-57"/>
      <use x="127.246094" xlink:href="#DejaVuSerif-46"/>
      <use x="159.033203" xlink:href="#DejaVuSerif-57"/>
      <use x="222.65625" xlink:href="#DejaVuSerif-37"/>
      <use x="317.675781" xlink:href="#DejaVuSerif-32"/>
      <use x="349.462891" xlink:href="#DejaVuSerif-70"/>
      <use x="410.097656" xlink:href="#DejaVuSerif-65"/>
      <use x="482.314453" xlink:href="#DejaVuSerif-80"/>
     </g>
    </g>
    <g id="line2d_28">
     <path d="M 420.448125 92.548696 
L 428.448125 92.548696 
" style="fill:none;stroke:#a9a9a9;stroke-dasharray:5.55,2.4;stroke-dashoffset:0;stroke-width:1.5;"/>
    </g>
    <g id="text_10">
     <!-- 99.0% FAP -->
     <g transform="translate(431.648125 93.948696)scale(0.04 -0.04)">
      <use xlink:href="#DejaVuSerif-57"/>
      <use x="63.623047" xlink:href="#DejaVuSerif-57"/>
      <use x="127.246094" xlink:href="#DejaVuSerif-46"/>
      <use x="159.033203" xlink:href="#DejaVuSerif-48"/>
      <use x="222.65625" xlink:href="#DejaVuSerif-37"/>
      <use x="317.675781" xlink:href="#DejaVuSerif-32"/>
      <use x="349.462891" xlink:href="#DejaVuSerif-70"/>
      <use x="410.097656" xlink:href="#DejaVuSerif-65"/>
      <use x="482.314453" xlink:href="#DejaVuSerif-80"/>
     </g>
    </g>
    <g id="line2d_29">
     <path d="M 420.448125 98.419946 
L 428.448125 98.419946 
" style="fill:none;stroke:#c0c0c0;stroke-dasharray:5.55,2.4;stroke-dashoffset:0;stroke-width:1.5;"/>
    </g>
    <g id="text_11">
     <!-- 95.0% FAP -->
     <g transform="translate(431.648125 99.819946)scale(0.04 -0.04)">
      <defs>
       <path d="M 50.296875 72.90625 
L 50.296875 64.890625 
L 16.890625 64.890625 
L 16.890625 44 
Q 19.4375 45.75 22.828125 46.625 
Q 26.21875 47.515625 30.421875 47.515625 
Q 42.234375 47.515625 49.0625 40.96875 
Q 55.90625 34.421875 55.90625 23.09375 
Q 55.90625 11.53125 49 5.046875 
Q 42.09375 -1.421875 29.59375 -1.421875 
Q 24.5625 -1.421875 19.28125 -0.1875 
Q 14.015625 1.03125 8.5 3.515625 
L 8.5 17.671875 
L 14.015625 17.671875 
Q 14.453125 10.75 18.421875 7.078125 
Q 22.40625 3.421875 29.59375 3.421875 
Q 37.3125 3.421875 41.453125 8.5 
Q 45.609375 13.578125 45.609375 23.09375 
Q 45.609375 32.5625 41.484375 37.609375 
Q 37.359375 42.671875 29.59375 42.671875 
Q 25.203125 42.671875 21.84375 41.109375 
Q 18.5 39.546875 15.921875 36.28125 
L 11.71875 36.28125 
L 11.71875 72.90625 
z
" id="DejaVuSerif-53"/>
      </defs>
      <use xlink:href="#DejaVuSerif-57"/>
      <use x="63.623047" xlink:href="#DejaVuSerif-53"/>
      <use x="127.246094" xlink:href="#DejaVuSerif-46"/>
      <use x="159.033203" xlink:href="#DejaVuSerif-48"/>
      <use x="222.65625" xlink:href="#DejaVuSerif-37"/>
      <use x="317.675781" xlink:href="#DejaVuSerif-32"/>
      <use x="349.462891" xlink:href="#DejaVuSerif-70"/>
      <use x="410.097656" xlink:href="#DejaVuSerif-65"/>
      <use x="482.314453" xlink:href="#DejaVuSerif-80"/>
     </g>
    </g>
    <g id="line2d_30">
     <path d="M 420.448125 104.291196 
L 428.448125 104.291196 
" style="fill:none;stroke:#d3d3d3;stroke-dasharray:5.55,2.4;stroke-dashoffset:0;stroke-width:1.5;"/>
    </g>
    <g id="text_12">
     <!-- 90.0% FAP -->
     <g transform="translate(431.648125 105.691196)scale(0.04 -0.04)">
      <use xlink:href="#DejaVuSerif-57"/>
      <use x="63.623047" xlink:href="#DejaVuSerif-48"/>
      <use x="127.246094" xlink:href="#DejaVuSerif-46"/>
      <use x="159.033203" xlink:href="#DejaVuSerif-48"/>
      <use x="222.65625" xlink:href="#DejaVuSerif-37"/>
      <use x="317.675781" xlink:href="#DejaVuSerif-32"/>
      <use x="349.462891" xlink:href="#DejaVuSerif-70"/>
      <use x="410.097656" xlink:href="#DejaVuSerif-65"/>
      <use x="482.314453" xlink:href="#DejaVuSerif-80"/>
     </g>
    </g>
   </g>
  </g>
  <g id="axes_2">
   <g id="patch_8">
    <path d="M 57.6 150.089143 
L 206.4 150.089143 
L 206.4 41.472 
L 57.6 41.472 
z
" style="fill:#ffffff;"/>
   </g>
   <g id="PathCollection_1">
    <defs>
     <path d="M 0 0.707107 
C 0.187527 0.707107 0.367398 0.632602 0.5 0.5 
C 0.632602 0.367398 0.707107 0.187527 0.707107 0 
C 0.707107 -0.187527 0.632602 -0.367398 0.5 -0.5 
C 0.367398 -0.632602 0.187527 -0.707107 0 -0.707107 
C -0.187527 -0.707107 -0.367398 -0.632602 -0.5 -0.5 
C -0.632602 -0.367398 -0.707107 -0.187527 -0.707107 0 
C -0.707107 0.187527 -0.632602 0.367398 -0.5 0.5 
C -0.367398 0.632602 -0.187527 0.707107 0 0.707107 
z
" id="m5ea3de28de" style="stroke:#1f77b4;"/>
    </defs>
    <g clip-path="url(#p513879d4e4)">
     <use style="fill:#1f77b4;stroke:#1f77b4;" x="107.16949" xlink:href="#m5ea3de28de" y="75.029107"/>
     <use style="fill:#1f77b4;stroke:#1f77b4;" x="107.17526" xlink:href="#m5ea3de28de" y="48.074517"/>
     <use style="fill:#1f77b4;stroke:#1f77b4;" x="77.792912" xlink:href="#m5ea3de28de" y="97.518206"/>
     <use style="fill:#1f77b4;stroke:#1f77b4;" x="77.798681" xlink:href="#m5ea3de28de" y="85.249682"/>
     <use style="fill:#1f77b4;stroke:#1f77b4;" x="103.805328" xlink:href="#m5ea3de28de" y="88.197822"/>
     <use style="fill:#1f77b4;stroke:#1f77b4;" x="72.792408" xlink:href="#m5ea3de28de" y="82.862817"/>
     <use style="fill:#1f77b4;stroke:#1f77b4;" x="72.832502" xlink:href="#m5ea3de28de" y="86.215341"/>
     <use style="fill:#1f77b4;stroke:#1f77b4;" x="124.404866" xlink:href="#m5ea3de28de" y="145.152"/>
     <use style="fill:#1f77b4;stroke:#1f77b4;" x="68.855095" xlink:href="#m5ea3de28de" y="81.614162"/>
     <use style="fill:#1f77b4;stroke:#1f77b4;" x="68.86072" xlink:href="#m5ea3de28de" y="101.985091"/>
     <use style="fill:#1f77b4;stroke:#1f77b4;" x="94.037786" xlink:href="#m5ea3de28de" y="46.409143"/>
     <use style="fill:#1f77b4;stroke:#1f77b4;" x="94.043554" xlink:href="#m5ea3de28de" y="68.85598"/>
     <use style="fill:#1f77b4;stroke:#1f77b4;" x="118.564684" xlink:href="#m5ea3de28de" y="109.703564"/>
     <use style="fill:#1f77b4;stroke:#1f77b4;" x="118.570454" xlink:href="#m5ea3de28de" y="111.357319"/>
     <use style="fill:#1f77b4;stroke:#1f77b4;" x="130.903419" xlink:href="#m5ea3de28de" y="88.3117"/>
     <use style="fill:#1f77b4;stroke:#1f77b4;" x="130.909187" xlink:href="#m5ea3de28de" y="89.408328"/>
     <use style="fill:#1f77b4;stroke:#1f77b4;" x="76.03237" xlink:href="#m5ea3de28de" y="77.198441"/>
     <use style="fill:#1f77b4;stroke:#1f77b4;" x="76.037995" xlink:href="#m5ea3de28de" y="73.942741"/>
     <use style="fill:#1f77b4;stroke:#1f77b4;" x="87.95617" xlink:href="#m5ea3de28de" y="68.211505"/>
     <use style="fill:#1f77b4;stroke:#1f77b4;" x="87.96194" xlink:href="#m5ea3de28de" y="57.919313"/>
     <use style="fill:#1f77b4;stroke:#1f77b4;" x="100.405381" xlink:href="#m5ea3de28de" y="76.438729"/>
     <use style="fill:#1f77b4;stroke:#1f77b4;" x="100.411006" xlink:href="#m5ea3de28de" y="85.233343"/>
     <use style="fill:#1f77b4;stroke:#1f77b4;" x="76.650501" xlink:href="#m5ea3de28de" y="78.926529"/>
     <use style="fill:#1f77b4;stroke:#1f77b4;" x="95.167465" xlink:href="#m5ea3de28de" y="62.16999"/>
     <use style="fill:#1f77b4;stroke:#1f77b4;" x="107.571822" xlink:href="#m5ea3de28de" y="77.190254"/>
     <use style="fill:#1f77b4;stroke:#1f77b4;" x="120.035745" xlink:href="#m5ea3de28de" y="119.16171"/>
     <use style="fill:#1f77b4;stroke:#1f77b4;" x="64.476166" xlink:href="#m5ea3de28de" y="105.238717"/>
     <use style="fill:#1f77b4;stroke:#1f77b4;" x="76.989702" xlink:href="#m5ea3de28de" y="98.420471"/>
     <use style="fill:#1f77b4;stroke:#1f77b4;" x="90.713845" xlink:href="#m5ea3de28de" y="96.094282"/>
     <use style="fill:#1f77b4;stroke:#1f77b4;" x="64.363636" xlink:href="#m5ea3de28de" y="100.021023"/>
     <use style="fill:#1f77b4;stroke:#1f77b4;" x="78.642774" xlink:href="#m5ea3de28de" y="72.417882"/>
     <use style="fill:#1f77b4;stroke:#1f77b4;" x="91.333707" xlink:href="#m5ea3de28de" y="84.149015"/>
     <use style="fill:#1f77b4;stroke:#1f77b4;" x="110.306565" xlink:href="#m5ea3de28de" y="109.548747"/>
     <use style="fill:#1f77b4;stroke:#1f77b4;" x="79.930541" xlink:href="#m5ea3de28de" y="90.494014"/>
     <use style="fill:#1f77b4;stroke:#1f77b4;" x="99.836341" xlink:href="#m5ea3de28de" y="62.802881"/>
     <use style="fill:#1f77b4;stroke:#1f77b4;" x="81.682518" xlink:href="#m5ea3de28de" y="59.408739"/>
     <use style="fill:#1f77b4;stroke:#1f77b4;" x="70.20479" xlink:href="#m5ea3de28de" y="105.929566"/>
     <use style="fill:#1f77b4;stroke:#1f77b4;" x="107.346024" xlink:href="#m5ea3de28de" y="71.449471"/>
     <use style="fill:#1f77b4;stroke:#1f77b4;" x="118.510779" xlink:href="#m5ea3de28de" y="79.980859"/>
     <use style="fill:#1f77b4;stroke:#1f77b4;" x="107.566522" xlink:href="#m5ea3de28de" y="76.659692"/>
     <use style="fill:#1f77b4;stroke:#1f77b4;" x="107.572147" xlink:href="#m5ea3de28de" y="95.796947"/>
     <use style="fill:#1f77b4;stroke:#1f77b4;" x="119.709399" xlink:href="#m5ea3de28de" y="125.664208"/>
     <use style="fill:#1f77b4;stroke:#1f77b4;" x="119.715024" xlink:href="#m5ea3de28de" y="103.649071"/>
     <use style="fill:#1f77b4;stroke:#1f77b4;" x="131.633054" xlink:href="#m5ea3de28de" y="140.376911"/>
     <use style="fill:#1f77b4;stroke:#1f77b4;" x="131.638679" xlink:href="#m5ea3de28de" y="120.220116"/>
    </g>
   </g>
   <g id="PathCollection_2">
    <g clip-path="url(#p513879d4e4)">
     <use style="fill:#1f77b4;stroke:#1f77b4;" x="175.167175" xlink:href="#m5ea3de28de" y="75.029107"/>
     <use style="fill:#1f77b4;stroke:#1f77b4;" x="175.172944" xlink:href="#m5ea3de28de" y="48.074517"/>
     <use style="fill:#1f77b4;stroke:#1f77b4;" x="145.790596" xlink:href="#m5ea3de28de" y="97.518206"/>
     <use style="fill:#1f77b4;stroke:#1f77b4;" x="145.796366" xlink:href="#m5ea3de28de" y="85.249682"/>
     <use style="fill:#1f77b4;stroke:#1f77b4;" x="171.803012" xlink:href="#m5ea3de28de" y="88.197822"/>
     <use style="fill:#1f77b4;stroke:#1f77b4;" x="140.790093" xlink:href="#m5ea3de28de" y="82.862817"/>
     <use style="fill:#1f77b4;stroke:#1f77b4;" x="140.830186" xlink:href="#m5ea3de28de" y="86.215341"/>
     <use style="fill:#1f77b4;stroke:#1f77b4;" x="192.40255" xlink:href="#m5ea3de28de" y="145.152"/>
     <use style="fill:#1f77b4;stroke:#1f77b4;" x="136.85278" xlink:href="#m5ea3de28de" y="81.614162"/>
     <use style="fill:#1f77b4;stroke:#1f77b4;" x="136.858405" xlink:href="#m5ea3de28de" y="101.985091"/>
     <use style="fill:#1f77b4;stroke:#1f77b4;" x="162.03547" xlink:href="#m5ea3de28de" y="46.409143"/>
     <use style="fill:#1f77b4;stroke:#1f77b4;" x="162.041238" xlink:href="#m5ea3de28de" y="68.85598"/>
     <use style="fill:#1f77b4;stroke:#1f77b4;" x="186.562368" xlink:href="#m5ea3de28de" y="109.703564"/>
     <use style="fill:#1f77b4;stroke:#1f77b4;" x="186.568138" xlink:href="#m5ea3de28de" y="111.357319"/>
     <use style="fill:#1f77b4;stroke:#1f77b4;" x="198.901103" xlink:href="#m5ea3de28de" y="88.3117"/>
     <use style="fill:#1f77b4;stroke:#1f77b4;" x="198.906872" xlink:href="#m5ea3de28de" y="89.408328"/>
     <use style="fill:#1f77b4;stroke:#1f77b4;" x="144.030054" xlink:href="#m5ea3de28de" y="77.198441"/>
     <use style="fill:#1f77b4;stroke:#1f77b4;" x="144.035679" xlink:href="#m5ea3de28de" y="73.942741"/>
     <use style="fill:#1f77b4;stroke:#1f77b4;" x="155.953854" xlink:href="#m5ea3de28de" y="68.211505"/>
     <use style="fill:#1f77b4;stroke:#1f77b4;" x="155.959624" xlink:href="#m5ea3de28de" y="57.919313"/>
     <use style="fill:#1f77b4;stroke:#1f77b4;" x="168.403065" xlink:href="#m5ea3de28de" y="76.438729"/>
     <use style="fill:#1f77b4;stroke:#1f77b4;" x="168.40869" xlink:href="#m5ea3de28de" y="85.233343"/>
     <use style="fill:#1f77b4;stroke:#1f77b4;" x="144.648185" xlink:href="#m5ea3de28de" y="78.926529"/>
     <use style="fill:#1f77b4;stroke:#1f77b4;" x="163.165149" xlink:href="#m5ea3de28de" y="62.16999"/>
     <use style="fill:#1f77b4;stroke:#1f77b4;" x="175.569506" xlink:href="#m5ea3de28de" y="77.190254"/>
     <use style="fill:#1f77b4;stroke:#1f77b4;" x="188.033429" xlink:href="#m5ea3de28de" y="119.16171"/>
     <use style="fill:#1f77b4;stroke:#1f77b4;" x="132.47385" xlink:href="#m5ea3de28de" y="105.238717"/>
     <use style="fill:#1f77b4;stroke:#1f77b4;" x="144.987386" xlink:href="#m5ea3de28de" y="98.420471"/>
     <use style="fill:#1f77b4;stroke:#1f77b4;" x="158.711529" xlink:href="#m5ea3de28de" y="96.094282"/>
     <use style="fill:#1f77b4;stroke:#1f77b4;" x="132.361321" xlink:href="#m5ea3de28de" y="100.021023"/>
     <use style="fill:#1f77b4;stroke:#1f77b4;" x="146.640459" xlink:href="#m5ea3de28de" y="72.417882"/>
     <use style="fill:#1f77b4;stroke:#1f77b4;" x="159.331391" xlink:href="#m5ea3de28de" y="84.149015"/>
     <use style="fill:#1f77b4;stroke:#1f77b4;" x="178.304249" xlink:href="#m5ea3de28de" y="109.548747"/>
     <use style="fill:#1f77b4;stroke:#1f77b4;" x="147.928226" xlink:href="#m5ea3de28de" y="90.494014"/>
     <use style="fill:#1f77b4;stroke:#1f77b4;" x="167.834025" xlink:href="#m5ea3de28de" y="62.802881"/>
     <use style="fill:#1f77b4;stroke:#1f77b4;" x="149.680203" xlink:href="#m5ea3de28de" y="59.408739"/>
     <use style="fill:#1f77b4;stroke:#1f77b4;" x="138.202474" xlink:href="#m5ea3de28de" y="105.929566"/>
     <use style="fill:#1f77b4;stroke:#1f77b4;" x="175.343708" xlink:href="#m5ea3de28de" y="71.449471"/>
     <use style="fill:#1f77b4;stroke:#1f77b4;" x="186.508464" xlink:href="#m5ea3de28de" y="79.980859"/>
     <use style="fill:#1f77b4;stroke:#1f77b4;" x="175.564206" xlink:href="#m5ea3de28de" y="76.659692"/>
     <use style="fill:#1f77b4;stroke:#1f77b4;" x="175.569831" xlink:href="#m5ea3de28de" y="95.796947"/>
     <use style="fill:#1f77b4;stroke:#1f77b4;" x="187.707083" xlink:href="#m5ea3de28de" y="125.664208"/>
     <use style="fill:#1f77b4;stroke:#1f77b4;" x="187.712708" xlink:href="#m5ea3de28de" y="103.649071"/>
     <use style="fill:#1f77b4;stroke:#1f77b4;" x="199.630739" xlink:href="#m5ea3de28de" y="140.376911"/>
     <use style="fill:#1f77b4;stroke:#1f77b4;" x="199.636364" xlink:href="#m5ea3de28de" y="120.220116"/>
    </g>
   </g>
   <g id="matplotlib.axis_3">
    <g id="xtick_23">
     <g id="line2d_31">
      <g>
       <use style="stroke:#000000;stroke-width:0.8;" x="64.037793" xlink:href="#m87b1cfa22d" y="150.089143"/>
      </g>
     </g>
     <g id="text_13">
      <!-- 0 -->
      <g transform="translate(60.856543 164.68758)scale(0.1 -0.1)">
       <use xlink:href="#DejaVuSerif-48"/>
      </g>
     </g>
    </g>
    <g id="xtick_24">
     <g id="line2d_32">
      <g>
       <use style="stroke:#000000;stroke-width:0.8;" x="132.035477" xlink:href="#m87b1cfa22d" y="150.089143"/>
      </g>
     </g>
     <g id="text_14">
      <!-- 1 -->
      <g transform="translate(128.854227 164.68758)scale(0.1 -0.1)">
       <use xlink:href="#DejaVuSerif-49"/>
      </g>
     </g>
    </g>
    <g id="xtick_25">
     <g id="line2d_33">
      <g>
       <use style="stroke:#000000;stroke-width:0.8;" x="200.033162" xlink:href="#m87b1cfa22d" y="150.089143"/>
      </g>
     </g>
     <g id="text_15">
      <!-- 2 -->
      <g transform="translate(196.851912 164.68758)scale(0.1 -0.1)">
       <use xlink:href="#DejaVuSerif-50"/>
      </g>
     </g>
    </g>
    <g id="text_16">
     <!-- Phase (P = 5.457 d) -->
     <g transform="translate(81.582812 178.365705)scale(0.1 -0.1)">
      <defs>
       <path d="M 4.109375 0 
L 4.109375 5.171875 
L 12.203125 5.171875 
L 12.203125 70.796875 
L 3.609375 70.796875 
L 3.609375 75.984375 
L 21.1875 75.984375 
L 21.1875 42.671875 
Q 23.6875 47.953125 27.65625 50.640625 
Q 31.640625 53.328125 36.921875 53.328125 
Q 45.515625 53.328125 49.5625 48.390625 
Q 53.609375 43.453125 53.609375 33.015625 
L 53.609375 5.171875 
L 61.625 5.171875 
L 61.625 0 
L 36.8125 0 
L 36.8125 5.171875 
L 44.578125 5.171875 
L 44.578125 30.171875 
Q 44.578125 39.703125 42.25 43.1875 
Q 39.9375 46.6875 33.984375 46.6875 
Q 27.734375 46.6875 24.453125 42.140625 
Q 21.1875 37.59375 21.1875 28.90625 
L 21.1875 5.171875 
L 29 5.171875 
L 29 0 
z
" id="DejaVuSerif-104"/>
       <path d="M 5.609375 2.875 
L 5.609375 14.984375 
L 10.796875 14.984375 
Q 10.984375 9.1875 14.421875 6.296875 
Q 17.875 3.421875 24.609375 3.421875 
Q 30.671875 3.421875 33.84375 5.6875 
Q 37.015625 7.953125 37.015625 12.3125 
Q 37.015625 15.71875 34.6875 17.8125 
Q 32.375 19.921875 24.90625 22.3125 
L 18.40625 24.515625 
Q 11.71875 26.65625 8.71875 29.875 
Q 5.71875 33.109375 5.71875 38.09375 
Q 5.71875 45.21875 10.9375 49.265625 
Q 16.15625 53.328125 25.390625 53.328125 
Q 29.5 53.328125 34.03125 52.25 
Q 38.578125 51.171875 43.40625 49.125 
L 43.40625 37.796875 
L 38.234375 37.796875 
Q 38.03125 42.828125 34.703125 45.65625 
Q 31.390625 48.484375 25.6875 48.484375 
Q 20.015625 48.484375 17.109375 46.484375 
Q 14.203125 44.484375 14.203125 40.484375 
Q 14.203125 37.203125 16.40625 35.21875 
Q 18.609375 33.25 25.203125 31.203125 
L 32.328125 29 
Q 39.703125 26.703125 42.9375 23.265625 
Q 46.1875 19.828125 46.1875 14.40625 
Q 46.1875 7.03125 40.546875 2.796875 
Q 34.90625 -1.421875 25 -1.421875 
Q 19.96875 -1.421875 15.1875 -0.34375 
Q 10.40625 0.734375 5.609375 2.875 
z
" id="DejaVuSerif-115"/>
       <path d="M 31.890625 -15.578125 
Q 20.015625 -10.25 13.953125 1.296875 
Q 7.90625 12.84375 7.90625 30.171875 
Q 7.90625 47.5625 13.953125 59.109375 
Q 20.015625 70.65625 31.890625 75.984375 
L 31.890625 71.1875 
Q 24.359375 66.015625 21.09375 56.609375 
Q 17.828125 47.21875 17.828125 30.171875 
Q 17.828125 13.1875 21.09375 3.78125 
Q 24.359375 -5.609375 31.890625 -10.796875 
z
" id="DejaVuSerif-40"/>
       <path d="M 10.59375 45.21875 
L 73.1875 45.21875 
L 73.1875 37.40625 
L 10.59375 37.40625 
z
M 10.59375 25.296875 
L 73.1875 25.296875 
L 73.1875 17.484375 
L 10.59375 17.484375 
z
" id="DejaVuSerif-61"/>
       <path d="M 56.390625 67.921875 
L 27.875 0 
L 20.609375 0 
L 47.796875 64.890625 
L 14.109375 64.890625 
L 14.109375 55.90625 
L 8.40625 55.90625 
L 8.40625 72.90625 
L 56.390625 72.90625 
z
" id="DejaVuSerif-55"/>
       <path d="M 7.078125 -15.578125 
L 7.078125 -10.796875 
Q 14.59375 -5.609375 17.890625 3.78125 
Q 21.1875 13.1875 21.1875 30.171875 
Q 21.1875 47.21875 17.890625 56.609375 
Q 14.59375 66.015625 7.078125 71.1875 
L 7.078125 75.984375 
Q 19 70.65625 25.046875 59.109375 
Q 31.109375 47.5625 31.109375 30.171875 
Q 31.109375 12.84375 25.046875 1.296875 
Q 19 -10.25 7.078125 -15.578125 
z
" id="DejaVuSerif-41"/>
      </defs>
      <use xlink:href="#DejaVuSerif-80"/>
      <use x="67.285156" xlink:href="#DejaVuSerif-104"/>
      <use x="131.689453" xlink:href="#DejaVuSerif-97"/>
      <use x="191.308594" xlink:href="#DejaVuSerif-115"/>
      <use x="242.626953" xlink:href="#DejaVuSerif-101"/>
      <use x="301.806641" xlink:href="#DejaVuSerif-32"/>
      <use x="333.59375" xlink:href="#DejaVuSerif-40"/>
      <use x="372.607422" xlink:href="#DejaVuSerif-80"/>
      <use x="439.892578" xlink:href="#DejaVuSerif-32"/>
      <use x="471.679688" xlink:href="#DejaVuSerif-61"/>
      <use x="555.46875" xlink:href="#DejaVuSerif-32"/>
      <use x="587.255859" xlink:href="#DejaVuSerif-53"/>
      <use x="650.878906" xlink:href="#DejaVuSerif-46"/>
      <use x="682.666016" xlink:href="#DejaVuSerif-52"/>
      <use x="746.289062" xlink:href="#DejaVuSerif-53"/>
      <use x="809.912109" xlink:href="#DejaVuSerif-55"/>
      <use x="873.535156" xlink:href="#DejaVuSerif-32"/>
      <use x="905.322266" xlink:href="#DejaVuSerif-100"/>
      <use x="969.335938" xlink:href="#DejaVuSerif-41"/>
     </g>
    </g>
   </g>
   <g id="matplotlib.axis_4">
    <g id="ytick_4">
     <g id="line2d_34">
      <g>
       <use style="stroke:#000000;stroke-width:0.8;" x="57.6" xlink:href="#m768db88981" y="56.148677"/>
      </g>
     </g>
     <g id="text_17">
      <!-- 17.7 -->
      <g transform="translate(28.334375 59.947896)scale(0.1 -0.1)">
       <use xlink:href="#DejaVuSerif-49"/>
       <use x="63.623047" xlink:href="#DejaVuSerif-55"/>
       <use x="127.246094" xlink:href="#DejaVuSerif-46"/>
       <use x="159.033203" xlink:href="#DejaVuSerif-55"/>
      </g>
     </g>
    </g>
    <g id="ytick_5">
     <g id="line2d_35">
      <g>
       <use style="stroke:#000000;stroke-width:0.8;" x="57.6" xlink:href="#m768db88981" y="91.903207"/>
      </g>
     </g>
     <g id="text_18">
      <!-- 17.8 -->
      <g transform="translate(28.334375 95.702426)scale(0.1 -0.1)">
       <defs>
        <path d="M 46.578125 19.921875 
Q 46.578125 27.734375 42.6875 32.046875 
Q 38.8125 36.375 31.78125 36.375 
Q 24.75 36.375 20.875 32.046875 
Q 17 27.734375 17 19.921875 
Q 17 12.0625 20.875 7.734375 
Q 24.75 3.421875 31.78125 3.421875 
Q 38.8125 3.421875 42.6875 7.734375 
Q 46.578125 12.0625 46.578125 19.921875 
z
M 44.578125 55.328125 
Q 44.578125 61.96875 41.203125 65.671875 
Q 37.84375 69.390625 31.78125 69.390625 
Q 25.78125 69.390625 22.390625 65.671875 
Q 19 61.96875 19 55.328125 
Q 19 48.640625 22.390625 44.921875 
Q 25.78125 41.21875 31.78125 41.21875 
Q 37.84375 41.21875 41.203125 44.921875 
Q 44.578125 48.640625 44.578125 55.328125 
z
M 39.3125 38.8125 
Q 47.609375 37.703125 52.25 32.6875 
Q 56.890625 27.6875 56.890625 19.921875 
Q 56.890625 9.671875 50.390625 4.125 
Q 43.890625 -1.421875 31.78125 -1.421875 
Q 19.734375 -1.421875 13.203125 4.125 
Q 6.6875 9.671875 6.6875 19.921875 
Q 6.6875 27.6875 11.328125 32.6875 
Q 15.96875 37.703125 24.3125 38.8125 
Q 16.9375 40.140625 13 44.40625 
Q 9.078125 48.6875 9.078125 55.328125 
Q 9.078125 64.109375 15.125 69.15625 
Q 21.1875 74.21875 31.78125 74.21875 
Q 42.390625 74.21875 48.4375 69.15625 
Q 54.5 64.109375 54.5 55.328125 
Q 54.5 48.6875 50.5625 44.40625 
Q 46.625 40.140625 39.3125 38.8125 
z
" id="DejaVuSerif-56"/>
       </defs>
       <use xlink:href="#DejaVuSerif-49"/>
       <use x="63.623047" xlink:href="#DejaVuSerif-55"/>
       <use x="127.246094" xlink:href="#DejaVuSerif-46"/>
       <use x="159.033203" xlink:href="#DejaVuSerif-56"/>
      </g>
     </g>
    </g>
    <g id="ytick_6">
     <g id="line2d_36">
      <g>
       <use style="stroke:#000000;stroke-width:0.8;" x="57.6" xlink:href="#m768db88981" y="127.657737"/>
      </g>
     </g>
     <g id="text_19">
      <!-- 17.9 -->
      <g transform="translate(28.334375 131.456956)scale(0.1 -0.1)">
       <use xlink:href="#DejaVuSerif-49"/>
       <use x="63.623047" xlink:href="#DejaVuSerif-55"/>
       <use x="127.246094" xlink:href="#DejaVuSerif-46"/>
       <use x="159.033203" xlink:href="#DejaVuSerif-57"/>
      </g>
     </g>
    </g>
    <g id="text_20">
     <!-- Mag -->
     <g transform="translate(22.1125 107.082134)rotate(-90)scale(0.1 -0.1)">
      <defs>
       <path d="M 5.515625 0 
L 5.515625 5.171875 
L 14.796875 5.171875 
L 14.796875 67.671875 
L 4.984375 67.671875 
L 4.984375 72.90625 
L 26.21875 72.90625 
L 51.8125 21 
L 77.390625 72.90625 
L 97.3125 72.90625 
L 97.3125 67.671875 
L 87.59375 67.671875 
L 87.59375 5.171875 
L 96.921875 5.171875 
L 96.921875 0 
L 68.40625 0 
L 68.40625 5.171875 
L 77.6875 5.171875 
L 77.6875 61.53125 
L 52.6875 10.6875 
L 45.796875 10.6875 
L 20.796875 61.53125 
L 20.796875 5.171875 
L 30.078125 5.171875 
L 30.078125 0 
z
" id="DejaVuSerif-77"/>
      </defs>
      <use xlink:href="#DejaVuSerif-77"/>
      <use x="102.392578" xlink:href="#DejaVuSerif-97"/>
      <use x="162.011719" xlink:href="#DejaVuSerif-103"/>
     </g>
    </g>
   </g>
   <g id="patch_9">
    <path d="M 57.6 150.089143 
L 57.6 41.472 
" style="fill:none;stroke:#000000;stroke-linecap:square;stroke-linejoin:miter;stroke-width:0.8;"/>
   </g>
   <g id="patch_10">
    <path d="M 206.4 150.089143 
L 206.4 41.472 
" style="fill:none;stroke:#000000;stroke-linecap:square;stroke-linejoin:miter;stroke-width:0.8;"/>
   </g>
   <g id="patch_11">
    <path d="M 57.6 150.089143 
L 206.4 150.089143 
" style="fill:none;stroke:#000000;stroke-linecap:square;stroke-linejoin:miter;stroke-width:0.8;"/>
   </g>
   <g id="patch_12">
    <path d="M 57.6 41.472 
L 206.4 41.472 
" style="fill:none;stroke:#000000;stroke-linecap:square;stroke-linejoin:miter;stroke-width:0.8;"/>
   </g>
   <g id="text_21">
    <!-- Folded Light Curve -->
    <g transform="translate(83.086719 35.472)scale(0.1 -0.1)">
     <defs>
      <path d="M 20.515625 5.171875 
L 29 5.171875 
L 29 0 
L 2.875 0 
L 2.875 5.171875 
L 11.53125 5.171875 
L 11.53125 70.796875 
L 2.875 70.796875 
L 2.875 75.984375 
L 20.515625 75.984375 
z
" id="DejaVuSerif-108"/>
      <path d="M 5.515625 0 
L 5.515625 5.171875 
L 14.796875 5.171875 
L 14.796875 67.671875 
L 5.515625 67.671875 
L 5.515625 72.90625 
L 33.984375 72.90625 
L 33.984375 67.671875 
L 24.703125 67.671875 
L 24.703125 6 
L 58.015625 6 
L 58.015625 18.21875 
L 64.015625 18.21875 
L 64.015625 0 
z
" id="DejaVuSerif-76"/>
      <path d="M 10.796875 46.6875 
L 2.875 46.6875 
L 2.875 51.90625 
L 10.796875 51.90625 
L 10.796875 68.015625 
L 19.828125 68.015625 
L 19.828125 51.90625 
L 36.71875 51.90625 
L 36.71875 46.6875 
L 19.828125 46.6875 
L 19.828125 13.71875 
Q 19.828125 7.125 21.09375 5.265625 
Q 22.359375 3.421875 25.78125 3.421875 
Q 29.296875 3.421875 30.90625 5.484375 
Q 32.515625 7.5625 32.625 12.203125 
L 39.40625 12.203125 
Q 39.015625 5.125 35.546875 1.84375 
Q 32.078125 -1.421875 25 -1.421875 
Q 17.234375 -1.421875 14.015625 2.015625 
Q 10.796875 5.46875 10.796875 13.71875 
z
" id="DejaVuSerif-116"/>
      <path d="M 70.515625 19.28125 
Q 67.28125 9.078125 59.6875 3.828125 
Q 52.09375 -1.421875 40.484375 -1.421875 
Q 33.34375 -1.421875 27.234375 1.015625 
Q 21.140625 3.46875 16.40625 8.203125 
Q 10.9375 13.671875 8.265625 20.625 
Q 5.609375 27.59375 5.609375 36.375 
Q 5.609375 53.375 15.421875 63.796875 
Q 25.25 74.21875 41.3125 74.21875 
Q 47.265625 74.21875 54 72.65625 
Q 60.75 71.09375 68.5 67.921875 
L 68.5 51.125 
L 62.984375 51.125 
Q 61.1875 60.296875 55.734375 64.640625 
Q 50.296875 69 40.484375 69 
Q 28.8125 69 22.796875 60.71875 
Q 16.796875 52.4375 16.796875 36.375 
Q 16.796875 20.359375 22.796875 12.078125 
Q 28.8125 3.8125 40.484375 3.8125 
Q 48.640625 3.8125 53.90625 7.6875 
Q 59.1875 11.578125 61.53125 19.28125 
z
" id="DejaVuSerif-67"/>
      <path d="M 35.40625 51.90625 
L 52.203125 51.90625 
L 52.203125 5.171875 
L 60.6875 5.171875 
L 60.6875 0 
L 43.21875 0 
L 43.21875 9.1875 
Q 40.71875 4 36.765625 1.28125 
Q 32.8125 -1.421875 27.59375 -1.421875 
Q 18.953125 -1.421875 14.875 3.484375 
Q 10.796875 8.40625 10.796875 18.890625 
L 10.796875 46.6875 
L 2.6875 46.6875 
L 2.6875 51.90625 
L 19.828125 51.90625 
L 19.828125 21.6875 
Q 19.828125 12.203125 22.140625 8.6875 
Q 24.46875 5.171875 30.421875 5.171875 
Q 36.671875 5.171875 39.9375 9.765625 
Q 43.21875 14.359375 43.21875 23.09375 
L 43.21875 46.6875 
L 35.40625 46.6875 
z
" id="DejaVuSerif-117"/>
      <path d="M 24.703125 0 
L 5.609375 46.6875 
L -0.296875 46.6875 
L -0.296875 51.90625 
L 23.578125 51.90625 
L 23.578125 46.6875 
L 15.28125 46.6875 
L 29.890625 10.984375 
L 44.484375 46.6875 
L 36.71875 46.6875 
L 36.71875 51.90625 
L 56.203125 51.90625 
L 56.203125 46.6875 
L 50.390625 46.6875 
L 31.296875 0 
z
" id="DejaVuSerif-118"/>
     </defs>
     <use xlink:href="#DejaVuSerif-70"/>
     <use x="63.884766" xlink:href="#DejaVuSerif-111"/>
     <use x="124.089844" xlink:href="#DejaVuSerif-108"/>
     <use x="156.072266" xlink:href="#DejaVuSerif-100"/>
     <use x="220.085938" xlink:href="#DejaVuSerif-101"/>
     <use x="279.265625" xlink:href="#DejaVuSerif-100"/>
     <use x="343.279297" xlink:href="#DejaVuSerif-32"/>
     <use x="375.066406" xlink:href="#DejaVuSerif-76"/>
     <use x="441.472656" xlink:href="#DejaVuSerif-105"/>
     <use x="473.455078" xlink:href="#DejaVuSerif-103"/>
     <use x="537.46875" xlink:href="#DejaVuSerif-104"/>
     <use x="601.873047" xlink:href="#DejaVuSerif-116"/>
     <use x="642.058594" xlink:href="#DejaVuSerif-32"/>
     <use x="673.845703" xlink:href="#DejaVuSerif-67"/>
     <use x="750.359375" xlink:href="#DejaVuSerif-117"/>
     <use x="814.763672" xlink:href="#DejaVuSerif-114"/>
     <use x="862.566406" xlink:href="#DejaVuSerif-118"/>
     <use x="919.060547" xlink:href="#DejaVuSerif-101"/>
    </g>
   </g>
  </g>
  <g id="axes_3">
   <g id="patch_13">
    <path d="M 57.6 307.584 
L 414.72 307.584 
L 414.72 198.966857 
L 57.6 198.966857 
z
" style="fill:#ffffff;"/>
   </g>
   <g id="PathCollection_3">
    <g clip-path="url(#p28fb172f1e)">
     <use style="fill:#1f77b4;stroke:#1f77b4;" x="73.832727" xlink:href="#m5ea3de28de" y="235.460533"/>
     <use style="fill:#1f77b4;stroke:#1f77b4;" x="73.833119" xlink:href="#m5ea3de28de" y="212.983532"/>
     <use style="fill:#1f77b4;stroke:#1f77b4;" x="94.910293" xlink:href="#m5ea3de28de" y="254.213833"/>
     <use style="fill:#1f77b4;stroke:#1f77b4;" x="94.910684" xlink:href="#m5ea3de28de" y="243.983307"/>
     <use style="fill:#1f77b4;stroke:#1f77b4;" x="96.675449" xlink:href="#m5ea3de28de" y="246.441714"/>
     <use style="fill:#1f77b4;stroke:#1f77b4;" x="99.185169" xlink:href="#m5ea3de28de" y="241.992939"/>
     <use style="fill:#1f77b4;stroke:#1f77b4;" x="99.18789" xlink:href="#m5ea3de28de" y="244.788554"/>
     <use style="fill:#1f77b4;stroke:#1f77b4;" x="121.144305" xlink:href="#m5ea3de28de" y="293.934892"/>
     <use style="fill:#1f77b4;stroke:#1f77b4;" x="121.988998" xlink:href="#m5ea3de28de" y="240.951705"/>
     <use style="fill:#1f77b4;stroke:#1f77b4;" x="121.98938" xlink:href="#m5ea3de28de" y="257.938697"/>
     <use style="fill:#1f77b4;stroke:#1f77b4;" x="123.69785" xlink:href="#m5ea3de28de" y="211.594802"/>
     <use style="fill:#1f77b4;stroke:#1f77b4;" x="123.698242" xlink:href="#m5ea3de28de" y="230.312861"/>
     <use style="fill:#1f77b4;stroke:#1f77b4;" x="125.362202" xlink:href="#m5ea3de28de" y="264.375008"/>
     <use style="fill:#1f77b4;stroke:#1f77b4;" x="125.362594" xlink:href="#m5ea3de28de" y="265.754048"/>
     <use style="fill:#1f77b4;stroke:#1f77b4;" x="126.199487" xlink:href="#m5ea3de28de" y="246.536675"/>
     <use style="fill:#1f77b4;stroke:#1f77b4;" x="126.199878" xlink:href="#m5ea3de28de" y="247.451135"/>
     <use style="fill:#1f77b4;stroke:#1f77b4;" x="127.090237" xlink:href="#m5ea3de28de" y="237.269506"/>
     <use style="fill:#1f77b4;stroke:#1f77b4;" x="127.090618" xlink:href="#m5ea3de28de" y="234.55463"/>
     <use style="fill:#1f77b4;stroke:#1f77b4;" x="127.899364" xlink:href="#m5ea3de28de" y="229.775443"/>
     <use style="fill:#1f77b4;stroke:#1f77b4;" x="127.899756" xlink:href="#m5ea3de28de" y="221.192949"/>
     <use style="fill:#1f77b4;stroke:#1f77b4;" x="128.744146" xlink:href="#m5ea3de28de" y="236.635994"/>
     <use style="fill:#1f77b4;stroke:#1f77b4;" x="128.744527" xlink:href="#m5ea3de28de" y="243.969682"/>
     <use style="fill:#1f77b4;stroke:#1f77b4;" x="136.360585" xlink:href="#m5ea3de28de" y="238.710531"/>
     <use style="fill:#1f77b4;stroke:#1f77b4;" x="142.231315" xlink:href="#m5ea3de28de" y="224.737521"/>
     <use style="fill:#1f77b4;stroke:#1f77b4;" x="143.073052" xlink:href="#m5ea3de28de" y="237.262679"/>
     <use style="fill:#1f77b4;stroke:#1f77b4;" x="143.918832" xlink:href="#m5ea3de28de" y="272.262005"/>
     <use style="fill:#1f77b4;stroke:#1f77b4;" x="144.76286" xlink:href="#m5ea3de28de" y="260.651844"/>
     <use style="fill:#1f77b4;stroke:#1f77b4;" x="145.612006" xlink:href="#m5ea3de28de" y="254.966218"/>
     <use style="fill:#1f77b4;stroke:#1f77b4;" x="155.771705" xlink:href="#m5ea3de28de" y="253.026445"/>
     <use style="fill:#1f77b4;stroke:#1f77b4;" x="163.21203" xlink:href="#m5ea3de28de" y="256.300892"/>
     <use style="fill:#1f77b4;stroke:#1f77b4;" x="164.180987" xlink:href="#m5ea3de28de" y="233.283074"/>
     <use style="fill:#1f77b4;stroke:#1f77b4;" x="165.042171" xlink:href="#m5ea3de28de" y="243.065478"/>
     <use style="fill:#1f77b4;stroke:#1f77b4;" x="170.943837" xlink:href="#m5ea3de28de" y="264.245909"/>
     <use style="fill:#1f77b4;stroke:#1f77b4;" x="173.496775" xlink:href="#m5ea3de28de" y="248.356471"/>
     <use style="fill:#1f77b4;stroke:#1f77b4;" x="207.146958" xlink:href="#m5ea3de28de" y="225.265279"/>
     <use style="fill:#1f77b4;stroke:#1f77b4;" x="210.529274" xlink:href="#m5ea3de28de" y="222.434958"/>
     <use style="fill:#1f77b4;stroke:#1f77b4;" x="218.978819" xlink:href="#m5ea3de28de" y="261.227932"/>
     <use style="fill:#1f77b4;stroke:#1f77b4;" x="346.082599" xlink:href="#m5ea3de28de" y="232.475531"/>
     <use style="fill:#1f77b4;stroke:#1f77b4;" x="379.139631" xlink:href="#m5ea3de28de" y="239.58972"/>
     <use style="fill:#1f77b4;stroke:#1f77b4;" x="396.853779" xlink:href="#m5ea3de28de" y="236.820252"/>
     <use style="fill:#1f77b4;stroke:#1f77b4;" x="396.854161" xlink:href="#m5ea3de28de" y="252.778503"/>
     <use style="fill:#1f77b4;stroke:#1f77b4;" x="397.677773" xlink:href="#m5ea3de28de" y="277.684334"/>
     <use style="fill:#1f77b4;stroke:#1f77b4;" x="397.678155" xlink:href="#m5ea3de28de" y="259.326263"/>
     <use style="fill:#1f77b4;stroke:#1f77b4;" x="398.486891" xlink:href="#m5ea3de28de" y="289.953022"/>
     <use style="fill:#1f77b4;stroke:#1f77b4;" x="398.487273" xlink:href="#m5ea3de28de" y="273.144592"/>
    </g>
   </g>
   <g id="matplotlib.axis_5">
    <g id="xtick_26">
     <g id="line2d_37">
      <g>
       <use style="stroke:#000000;stroke-width:0.8;" x="97.996351" xlink:href="#m87b1cfa22d" y="307.584"/>
      </g>
     </g>
     <g id="text_22">
      <!-- 58300 -->
      <g transform="translate(82.090101 322.182437)scale(0.1 -0.1)">
       <defs>
        <path d="M 9.71875 69.828125 
Q 15.4375 71.96875 20.671875 73.09375 
Q 25.921875 74.21875 30.515625 74.21875 
Q 41.21875 74.21875 47.21875 69.59375 
Q 53.21875 64.984375 53.21875 56.78125 
Q 53.21875 50.203125 49.0625 45.78125 
Q 44.921875 41.359375 37.3125 39.796875 
Q 46.296875 38.53125 51.25 33.28125 
Q 56.203125 28.03125 56.203125 19.671875 
Q 56.203125 9.46875 49.34375 4.015625 
Q 42.484375 -1.421875 29.59375 -1.421875 
Q 23.875 -1.421875 18.421875 -0.1875 
Q 12.984375 1.03125 7.625 3.515625 
L 7.625 17.671875 
L 13.09375 17.671875 
Q 13.578125 10.640625 17.828125 7.03125 
Q 22.078125 3.421875 29.78125 3.421875 
Q 37.25 3.421875 41.578125 7.734375 
Q 45.90625 12.0625 45.90625 19.578125 
Q 45.90625 28.171875 41.453125 32.59375 
Q 37.015625 37.015625 28.421875 37.015625 
L 23.78125 37.015625 
L 23.78125 42 
L 26.21875 42 
Q 34.765625 42 39.03125 45.53125 
Q 43.3125 49.078125 43.3125 56.203125 
Q 43.3125 62.59375 39.796875 65.984375 
Q 36.28125 69.390625 29.6875 69.390625 
Q 23.09375 69.390625 19.453125 66.265625 
Q 15.828125 63.140625 15.1875 56.984375 
L 9.71875 56.984375 
z
" id="DejaVuSerif-51"/>
       </defs>
       <use xlink:href="#DejaVuSerif-53"/>
       <use x="63.623047" xlink:href="#DejaVuSerif-56"/>
       <use x="127.246094" xlink:href="#DejaVuSerif-51"/>
       <use x="190.869141" xlink:href="#DejaVuSerif-48"/>
       <use x="254.492188" xlink:href="#DejaVuSerif-48"/>
      </g>
     </g>
    </g>
    <g id="xtick_27">
     <g id="line2d_38">
      <g>
       <use style="stroke:#000000;stroke-width:0.8;" x="140.27554" xlink:href="#m87b1cfa22d" y="307.584"/>
      </g>
     </g>
     <g id="text_23">
      <!-- 58350 -->
      <g transform="translate(124.36929 322.182437)scale(0.1 -0.1)">
       <use xlink:href="#DejaVuSerif-53"/>
       <use x="63.623047" xlink:href="#DejaVuSerif-56"/>
       <use x="127.246094" xlink:href="#DejaVuSerif-51"/>
       <use x="190.869141" xlink:href="#DejaVuSerif-53"/>
       <use x="254.492188" xlink:href="#DejaVuSerif-48"/>
      </g>
     </g>
    </g>
    <g id="xtick_28">
     <g id="line2d_39">
      <g>
       <use style="stroke:#000000;stroke-width:0.8;" x="182.55473" xlink:href="#m87b1cfa22d" y="307.584"/>
      </g>
     </g>
     <g id="text_24">
      <!-- 58400 -->
      <g transform="translate(166.64848 322.182437)scale(0.1 -0.1)">
       <use xlink:href="#DejaVuSerif-53"/>
       <use x="63.623047" xlink:href="#DejaVuSerif-56"/>
       <use x="127.246094" xlink:href="#DejaVuSerif-52"/>
       <use x="190.869141" xlink:href="#DejaVuSerif-48"/>
       <use x="254.492188" xlink:href="#DejaVuSerif-48"/>
      </g>
     </g>
    </g>
    <g id="xtick_29">
     <g id="line2d_40">
      <g>
       <use style="stroke:#000000;stroke-width:0.8;" x="224.833919" xlink:href="#m87b1cfa22d" y="307.584"/>
      </g>
     </g>
     <g id="text_25">
      <!-- 58450 -->
      <g transform="translate(208.927669 322.182437)scale(0.1 -0.1)">
       <use xlink:href="#DejaVuSerif-53"/>
       <use x="63.623047" xlink:href="#DejaVuSerif-56"/>
       <use x="127.246094" xlink:href="#DejaVuSerif-52"/>
       <use x="190.869141" xlink:href="#DejaVuSerif-53"/>
       <use x="254.492188" xlink:href="#DejaVuSerif-48"/>
      </g>
     </g>
    </g>
    <g id="xtick_30">
     <g id="line2d_41">
      <g>
       <use style="stroke:#000000;stroke-width:0.8;" x="267.113108" xlink:href="#m87b1cfa22d" y="307.584"/>
      </g>
     </g>
     <g id="text_26">
      <!-- 58500 -->
      <g transform="translate(251.206858 322.182437)scale(0.1 -0.1)">
       <use xlink:href="#DejaVuSerif-53"/>
       <use x="63.623047" xlink:href="#DejaVuSerif-56"/>
       <use x="127.246094" xlink:href="#DejaVuSerif-53"/>
       <use x="190.869141" xlink:href="#DejaVuSerif-48"/>
       <use x="254.492188" xlink:href="#DejaVuSerif-48"/>
      </g>
     </g>
    </g>
    <g id="xtick_31">
     <g id="line2d_42">
      <g>
       <use style="stroke:#000000;stroke-width:0.8;" x="309.392298" xlink:href="#m87b1cfa22d" y="307.584"/>
      </g>
     </g>
     <g id="text_27">
      <!-- 58550 -->
      <g transform="translate(293.486048 322.182437)scale(0.1 -0.1)">
       <use xlink:href="#DejaVuSerif-53"/>
       <use x="63.623047" xlink:href="#DejaVuSerif-56"/>
       <use x="127.246094" xlink:href="#DejaVuSerif-53"/>
       <use x="190.869141" xlink:href="#DejaVuSerif-53"/>
       <use x="254.492188" xlink:href="#DejaVuSerif-48"/>
      </g>
     </g>
    </g>
    <g id="xtick_32">
     <g id="line2d_43">
      <g>
       <use style="stroke:#000000;stroke-width:0.8;" x="351.671487" xlink:href="#m87b1cfa22d" y="307.584"/>
      </g>
     </g>
     <g id="text_28">
      <!-- 58600 -->
      <g transform="translate(335.765237 322.182437)scale(0.1 -0.1)">
       <defs>
        <path d="M 32.71875 3.421875 
Q 39.59375 3.421875 43.296875 8.46875 
Q 47.015625 13.53125 47.015625 23 
Q 47.015625 32.46875 43.296875 37.515625 
Q 39.59375 42.578125 32.71875 42.578125 
Q 25.734375 42.578125 22.0625 37.6875 
Q 18.40625 32.8125 18.40625 23.578125 
Q 18.40625 13.875 22.109375 8.640625 
Q 25.828125 3.421875 32.71875 3.421875 
z
M 16.796875 40.140625 
Q 20.125 43.796875 24.3125 45.59375 
Q 28.515625 47.40625 33.796875 47.40625 
Q 44.671875 47.40625 51 40.859375 
Q 57.328125 34.328125 57.328125 23 
Q 57.328125 11.921875 50.515625 5.25 
Q 43.703125 -1.421875 32.328125 -1.421875 
Q 19.96875 -1.421875 13.328125 7.78125 
Q 6.6875 17 6.6875 34.078125 
Q 6.6875 53.21875 14.546875 63.71875 
Q 22.40625 74.21875 36.71875 74.21875 
Q 40.578125 74.21875 44.828125 73.484375 
Q 49.078125 72.75 53.515625 71.296875 
L 53.515625 59.28125 
L 48 59.28125 
Q 47.40625 64.203125 44.234375 66.796875 
Q 41.0625 69.390625 35.6875 69.390625 
Q 26.21875 69.390625 21.578125 62.203125 
Q 16.9375 55.03125 16.796875 40.140625 
z
" id="DejaVuSerif-54"/>
       </defs>
       <use xlink:href="#DejaVuSerif-53"/>
       <use x="63.623047" xlink:href="#DejaVuSerif-56"/>
       <use x="127.246094" xlink:href="#DejaVuSerif-54"/>
       <use x="190.869141" xlink:href="#DejaVuSerif-48"/>
       <use x="254.492188" xlink:href="#DejaVuSerif-48"/>
      </g>
     </g>
    </g>
    <g id="xtick_33">
     <g id="line2d_44">
      <g>
       <use style="stroke:#000000;stroke-width:0.8;" x="393.950677" xlink:href="#m87b1cfa22d" y="307.584"/>
      </g>
     </g>
     <g id="text_29">
      <!-- 58650 -->
      <g transform="translate(378.044427 322.182437)scale(0.1 -0.1)">
       <use xlink:href="#DejaVuSerif-53"/>
       <use x="63.623047" xlink:href="#DejaVuSerif-56"/>
       <use x="127.246094" xlink:href="#DejaVuSerif-54"/>
       <use x="190.869141" xlink:href="#DejaVuSerif-53"/>
       <use x="254.492188" xlink:href="#DejaVuSerif-48"/>
      </g>
     </g>
    </g>
    <g id="text_30">
     <!-- MJD -->
     <g transform="translate(225.027187 335.860562)scale(0.1 -0.1)">
      <defs>
       <path d="M -8.40625 -17.484375 
L -8.40625 -6 
L -2.828125 -6 
Q -2.6875 -10.84375 -0.53125 -13.203125 
Q 1.609375 -15.578125 5.90625 -15.578125 
Q 11.71875 -15.578125 14.015625 -11.90625 
Q 16.3125 -8.25 16.3125 2.390625 
L 16.3125 67.671875 
L 4.984375 67.671875 
L 4.984375 72.90625 
L 35.5 72.90625 
L 35.5 67.671875 
L 26.21875 67.671875 
L 26.21875 2 
Q 26.21875 -10.0625 21.375 -15.421875 
Q 16.546875 -20.796875 5.8125 -20.796875 
Q 2.34375 -20.796875 -1.234375 -19.96875 
Q -4.828125 -19.140625 -8.40625 -17.484375 
z
" id="DejaVuSerif-74"/>
       <path d="M 24.703125 5.171875 
L 33.796875 5.171875 
Q 48 5.171875 55.59375 13.28125 
Q 63.1875 21.390625 63.1875 36.53125 
Q 63.1875 51.65625 55.609375 59.65625 
Q 48.046875 67.671875 33.796875 67.671875 
L 24.703125 67.671875 
z
M 5.515625 0 
L 5.515625 5.171875 
L 14.796875 5.171875 
L 14.796875 67.671875 
L 5.515625 67.671875 
L 5.515625 72.90625 
L 34.515625 72.90625 
Q 53.375 72.90625 63.890625 63.28125 
Q 74.421875 53.65625 74.421875 36.53125 
Q 74.421875 19.34375 63.875 9.671875 
Q 53.328125 0 34.515625 0 
z
" id="DejaVuSerif-68"/>
      </defs>
      <use xlink:href="#DejaVuSerif-77"/>
      <use x="102.392578" xlink:href="#DejaVuSerif-74"/>
      <use x="142.480469" xlink:href="#DejaVuSerif-68"/>
     </g>
    </g>
   </g>
   <g id="matplotlib.axis_6">
    <g id="ytick_7">
     <g id="line2d_45">
      <g>
       <use style="stroke:#000000;stroke-width:0.8;" x="57.6" xlink:href="#m768db88981" y="219.716444"/>
      </g>
     </g>
     <g id="text_31">
      <!-- 17.7 -->
      <g transform="translate(28.334375 223.515663)scale(0.1 -0.1)">
       <use xlink:href="#DejaVuSerif-49"/>
       <use x="63.623047" xlink:href="#DejaVuSerif-55"/>
       <use x="127.246094" xlink:href="#DejaVuSerif-46"/>
       <use x="159.033203" xlink:href="#DejaVuSerif-55"/>
      </g>
     </g>
    </g>
    <g id="ytick_8">
     <g id="line2d_46">
      <g>
       <use style="stroke:#000000;stroke-width:0.8;" x="57.6" xlink:href="#m768db88981" y="249.531575"/>
      </g>
     </g>
     <g id="text_32">
      <!-- 17.8 -->
      <g transform="translate(28.334375 253.330794)scale(0.1 -0.1)">
       <use xlink:href="#DejaVuSerif-49"/>
       <use x="63.623047" xlink:href="#DejaVuSerif-55"/>
       <use x="127.246094" xlink:href="#DejaVuSerif-46"/>
       <use x="159.033203" xlink:href="#DejaVuSerif-56"/>
      </g>
     </g>
    </g>
    <g id="ytick_9">
     <g id="line2d_47">
      <g>
       <use style="stroke:#000000;stroke-width:0.8;" x="57.6" xlink:href="#m768db88981" y="279.346706"/>
      </g>
     </g>
     <g id="text_33">
      <!-- 17.9 -->
      <g transform="translate(28.334375 283.145925)scale(0.1 -0.1)">
       <use xlink:href="#DejaVuSerif-49"/>
       <use x="63.623047" xlink:href="#DejaVuSerif-55"/>
       <use x="127.246094" xlink:href="#DejaVuSerif-46"/>
       <use x="159.033203" xlink:href="#DejaVuSerif-57"/>
      </g>
     </g>
    </g>
    <g id="text_34">
     <!-- Mag -->
     <g transform="translate(22.1125 264.576991)rotate(-90)scale(0.1 -0.1)">
      <use xlink:href="#DejaVuSerif-77"/>
      <use x="102.392578" xlink:href="#DejaVuSerif-97"/>
      <use x="162.011719" xlink:href="#DejaVuSerif-103"/>
     </g>
    </g>
   </g>
   <g id="LineCollection_5">
    <path clip-path="url(#p28fb172f1e)" d="M 73.832727 227.501963 
L 73.832727 243.419102 
" style="fill:none;stroke:#1f77b4;stroke-width:0.5;"/>
    <path clip-path="url(#p28fb172f1e)" d="M 73.833119 205.277733 
L 73.833119 220.68933 
" style="fill:none;stroke:#1f77b4;stroke-width:0.5;"/>
    <path clip-path="url(#p28fb172f1e)" d="M 94.910293 246.029306 
L 94.910293 262.39836 
" style="fill:none;stroke:#1f77b4;stroke-width:0.5;"/>
    <path clip-path="url(#p28fb172f1e)" d="M 94.910684 235.923796 
L 94.910684 252.042818 
" style="fill:none;stroke:#1f77b4;stroke-width:0.5;"/>
    <path clip-path="url(#p28fb172f1e)" d="M 96.675449 238.352547 
L 96.675449 254.530881 
" style="fill:none;stroke:#1f77b4;stroke-width:0.5;"/>
    <path clip-path="url(#p28fb172f1e)" d="M 99.185169 233.957259 
L 99.185169 250.028618 
" style="fill:none;stroke:#1f77b4;stroke-width:0.5;"/>
    <path clip-path="url(#p28fb172f1e)" d="M 99.18789 236.719355 
L 99.18789 252.857754 
" style="fill:none;stroke:#1f77b4;stroke-width:0.5;"/>
    <path clip-path="url(#p28fb172f1e)" d="M 121.144305 285.222927 
L 121.144305 302.646857 
" style="fill:none;stroke:#1f77b4;stroke-width:0.5;"/>
    <path clip-path="url(#p28fb172f1e)" d="M 121.988998 232.928426 
L 121.988998 248.974983 
" style="fill:none;stroke:#1f77b4;stroke-width:0.5;"/>
    <path clip-path="url(#p28fb172f1e)" d="M 121.98938 249.707588 
L 121.98938 266.169805 
" style="fill:none;stroke:#1f77b4;stroke-width:0.5;"/>
    <path clip-path="url(#p28fb172f1e)" d="M 123.69785 203.904 
L 123.69785 219.285605 
" style="fill:none;stroke:#1f77b4;stroke-width:0.5;"/>
    <path clip-path="url(#p28fb172f1e)" d="M 123.698242 222.413879 
L 123.698242 238.211843 
" style="fill:none;stroke:#1f77b4;stroke-width:0.5;"/>
    <path clip-path="url(#p28fb172f1e)" d="M 125.362202 256.062042 
L 125.362202 272.687975 
" style="fill:none;stroke:#1f77b4;stroke-width:0.5;"/>
    <path clip-path="url(#p28fb172f1e)" d="M 125.362594 257.423315 
L 125.362594 274.08478 
" style="fill:none;stroke:#1f77b4;stroke-width:0.5;"/>
    <path clip-path="url(#p28fb172f1e)" d="M 126.199487 238.446359 
L 126.199487 254.626991 
" style="fill:none;stroke:#1f77b4;stroke-width:0.5;"/>
    <path clip-path="url(#p28fb172f1e)" d="M 126.199878 239.349723 
L 126.199878 255.552547 
" style="fill:none;stroke:#1f77b4;stroke-width:0.5;"/>
    <path clip-path="url(#p28fb172f1e)" d="M 127.090237 229.289749 
L 127.090237 245.249263 
" style="fill:none;stroke:#1f77b4;stroke-width:0.5;"/>
    <path clip-path="url(#p28fb172f1e)" d="M 127.090618 226.606623 
L 127.090618 242.502637 
" style="fill:none;stroke:#1f77b4;stroke-width:0.5;"/>
    <path clip-path="url(#p28fb172f1e)" d="M 127.899364 221.882623 
L 127.899364 237.668264 
" style="fill:none;stroke:#1f77b4;stroke-width:0.5;"/>
    <path clip-path="url(#p28fb172f1e)" d="M 127.899756 213.397039 
L 127.899756 228.988859 
" style="fill:none;stroke:#1f77b4;stroke-width:0.5;"/>
    <path clip-path="url(#p28fb172f1e)" d="M 128.744146 228.663674 
L 128.744146 244.608314 
" style="fill:none;stroke:#1f77b4;stroke-width:0.5;"/>
    <path clip-path="url(#p28fb172f1e)" d="M 128.744527 235.910333 
L 128.744527 252.02903 
" style="fill:none;stroke:#1f77b4;stroke-width:0.5;"/>
    <path clip-path="url(#p28fb172f1e)" d="M 136.360585 230.713808 
L 136.360585 246.707254 
" style="fill:none;stroke:#1f77b4;stroke-width:0.5;"/>
    <path clip-path="url(#p28fb172f1e)" d="M 142.231315 216.901929 
L 142.231315 232.573112 
" style="fill:none;stroke:#1f77b4;stroke-width:0.5;"/>
    <path clip-path="url(#p28fb172f1e)" d="M 143.073052 229.283005 
L 143.073052 245.242352 
" style="fill:none;stroke:#1f77b4;stroke-width:0.5;"/>
    <path clip-path="url(#p28fb172f1e)" d="M 143.918832 263.846336 
L 143.918832 280.677674 
" style="fill:none;stroke:#1f77b4;stroke-width:0.5;"/>
    <path clip-path="url(#p28fb172f1e)" d="M 144.76286 252.386438 
L 144.76286 268.917249 
" style="fill:none;stroke:#1f77b4;stroke-width:0.5;"/>
    <path clip-path="url(#p28fb172f1e)" d="M 145.612006 246.772327 
L 145.612006 263.160108 
" style="fill:none;stroke:#1f77b4;stroke-width:0.5;"/>
    <path clip-path="url(#p28fb172f1e)" d="M 155.771705 244.856648 
L 155.771705 261.196243 
" style="fill:none;stroke:#1f77b4;stroke-width:0.5;"/>
    <path clip-path="url(#p28fb172f1e)" d="M 163.21203 248.090336 
L 163.21203 264.511448 
" style="fill:none;stroke:#1f77b4;stroke-width:0.5;"/>
    <path clip-path="url(#p28fb172f1e)" d="M 164.180987 225.349834 
L 164.180987 241.216314 
" style="fill:none;stroke:#1f77b4;stroke-width:0.5;"/>
    <path clip-path="url(#p28fb172f1e)" d="M 165.042171 235.016975 
L 165.042171 251.113982 
" style="fill:none;stroke:#1f77b4;stroke-width:0.5;"/>
    <path clip-path="url(#p28fb172f1e)" d="M 170.943837 255.9346 
L 170.943837 272.557218 
" style="fill:none;stroke:#1f77b4;stroke-width:0.5;"/>
    <path clip-path="url(#p28fb172f1e)" d="M 173.496775 240.244041 
L 173.496775 256.468902 
" style="fill:none;stroke:#1f77b4;stroke-width:0.5;"/>
    <path clip-path="url(#p28fb172f1e)" d="M 207.146958 217.423737 
L 207.146958 233.10682 
" style="fill:none;stroke:#1f77b4;stroke-width:0.5;"/>
    <path clip-path="url(#p28fb172f1e)" d="M 210.529274 214.625198 
L 210.529274 230.244717 
" style="fill:none;stroke:#1f77b4;stroke-width:0.5;"/>
    <path clip-path="url(#p28fb172f1e)" d="M 218.978819 252.955205 
L 218.978819 269.500659 
" style="fill:none;stroke:#1f77b4;stroke-width:0.5;"/>
    <path clip-path="url(#p28fb172f1e)" d="M 346.082599 224.551638 
L 346.082599 240.399424 
" style="fill:none;stroke:#1f77b4;stroke-width:0.5;"/>
    <path clip-path="url(#p28fb172f1e)" d="M 379.139631 231.582602 
L 379.139631 247.596837 
" style="fill:none;stroke:#1f77b4;stroke-width:0.5;"/>
    <path clip-path="url(#p28fb172f1e)" d="M 396.853779 228.845768 
L 396.853779 244.794736 
" style="fill:none;stroke:#1f77b4;stroke-width:0.5;"/>
    <path clip-path="url(#p28fb172f1e)" d="M 396.854161 244.611771 
L 396.854161 260.945234 
" style="fill:none;stroke:#1f77b4;stroke-width:0.5;"/>
    <path clip-path="url(#p28fb172f1e)" d="M 397.677773 269.196493 
L 397.677773 286.172175 
" style="fill:none;stroke:#1f77b4;stroke-width:0.5;"/>
    <path clip-path="url(#p28fb172f1e)" d="M 397.678155 251.077653 
L 397.678155 267.574873 
" style="fill:none;stroke:#1f77b4;stroke-width:0.5;"/>
    <path clip-path="url(#p28fb172f1e)" d="M 398.486891 281.297076 
L 398.486891 298.608967 
" style="fill:none;stroke:#1f77b4;stroke-width:0.5;"/>
    <path clip-path="url(#p28fb172f1e)" d="M 398.487273 264.717259 
L 398.487273 281.571926 
" style="fill:none;stroke:#1f77b4;stroke-width:0.5;"/>
   </g>
   <g id="line2d_48">
    <path clip-path="url(#p28fb172f1e)" d="M 73.832727 235.460533 
L 73.833119 212.983532 
L 94.910293 254.213833 
L 94.910684 243.983307 
L 96.675449 246.441714 
L 99.185169 241.992939 
L 99.18789 244.788554 
L 121.144305 293.934892 
L 121.988998 240.951705 
L 121.98938 257.938697 
L 123.69785 211.594802 
L 123.698242 230.312861 
L 125.362202 264.375008 
L 125.362594 265.754048 
L 126.199487 246.536675 
L 126.199878 247.451135 
L 127.090237 237.269506 
L 127.090618 234.55463 
L 127.899364 229.775443 
L 127.899756 221.192949 
L 128.744146 236.635994 
L 128.744527 243.969682 
L 136.360585 238.710531 
L 142.231315 224.737521 
L 143.073052 237.262679 
L 143.918832 272.262005 
L 144.76286 260.651844 
L 145.612006 254.966218 
L 155.771705 253.026445 
L 163.21203 256.300892 
L 164.180987 233.283074 
L 165.042171 243.065478 
L 170.943837 264.245909 
L 173.496775 248.356471 
L 207.146958 225.265279 
L 210.529274 222.434958 
L 218.978819 261.227932 
L 346.082599 232.475531 
L 379.139631 239.58972 
L 396.853779 236.820252 
L 396.854161 252.778503 
L 397.677773 277.684334 
L 397.678155 259.326263 
L 398.486891 289.953022 
L 398.487273 273.144592 
" style="fill:none;"/>
   </g>
   <g id="patch_14">
    <path d="M 57.6 307.584 
L 57.6 198.966857 
" style="fill:none;stroke:#000000;stroke-linecap:square;stroke-linejoin:miter;stroke-width:0.8;"/>
   </g>
   <g id="patch_15">
    <path d="M 414.72 307.584 
L 414.72 198.966857 
" style="fill:none;stroke:#000000;stroke-linecap:square;stroke-linejoin:miter;stroke-width:0.8;"/>
   </g>
   <g id="patch_16">
    <path d="M 57.6 307.584 
L 414.72 307.584 
" style="fill:none;stroke:#000000;stroke-linecap:square;stroke-linejoin:miter;stroke-width:0.8;"/>
   </g>
   <g id="patch_17">
    <path d="M 57.6 198.966857 
L 414.72 198.966857 
" style="fill:none;stroke:#000000;stroke-linecap:square;stroke-linejoin:miter;stroke-width:0.8;"/>
   </g>
   <g id="text_35">
    <!-- Light Curve -->
    <g transform="translate(206.000625 192.966857)scale(0.1 -0.1)">
     <use xlink:href="#DejaVuSerif-76"/>
     <use x="66.40625" xlink:href="#DejaVuSerif-105"/>
     <use x="98.388672" xlink:href="#DejaVuSerif-103"/>
     <use x="162.402344" xlink:href="#DejaVuSerif-104"/>
     <use x="226.806641" xlink:href="#DejaVuSerif-116"/>
     <use x="266.992188" xlink:href="#DejaVuSerif-32"/>
     <use x="298.779297" xlink:href="#DejaVuSerif-67"/>
     <use x="375.292969" xlink:href="#DejaVuSerif-117"/>
     <use x="439.697266" xlink:href="#DejaVuSerif-114"/>
     <use x="487.5" xlink:href="#DejaVuSerif-118"/>
     <use x="543.994141" xlink:href="#DejaVuSerif-101"/>
    </g>
   </g>
  </g>
 </g>
 <defs>
  <clipPath id="p88a7ccb4b0">
   <rect height="108.617143" width="148.8" x="265.92" y="41.472"/>
  </clipPath>
  <clipPath id="p513879d4e4">
   <rect height="108.617143" width="148.8" x="57.6" y="41.472"/>
  </clipPath>
  <clipPath id="p28fb172f1e">
   <rect height="108.617143" width="357.12" x="57.6" y="198.966857"/>
  </clipPath>
 </defs>
</svg>
