<?xml version="1.0" encoding="utf-8" standalone="no"?>
<!DOCTYPE svg PUBLIC "-//W3C//DTD SVG 1.1//EN"
  "http://www.w3.org/Graphics/SVG/1.1/DTD/svg11.dtd">
<!-- Created with matplotlib (https://matplotlib.org/) -->
<svg height="345.6pt" version="1.1" viewBox="0 0 460.8 345.6" width="460.8pt" xmlns="http://www.w3.org/2000/svg" xmlns:xlink="http://www.w3.org/1999/xlink">
 <metadata>
  <rdf:RDF xmlns:cc="http://creativecommons.org/ns#" xmlns:dc="http://purl.org/dc/elements/1.1/" xmlns:rdf="http://www.w3.org/1999/02/22-rdf-syntax-ns#">
   <cc:Work>
    <dc:type rdf:resource="http://purl.org/dc/dcmitype/StillImage"/>
    <dc:date>2021-02-16T16:26:25.648779</dc:date>
    <dc:format>image/svg+xml</dc:format>
    <dc:creator>
     <cc:Agent>
      <dc:title>Matplotlib v3.3.3, https://matplotlib.org/</dc:title>
     </cc:Agent>
    </dc:creator>
   </cc:Work>
  </rdf:RDF>
 </metadata>
 <defs>
  <style type="text/css">*{stroke-linecap:butt;stroke-linejoin:round;}</style>
 </defs>
 <g id="figure_1">
  <g id="patch_1">
   <path d="M 0 345.6 
L 460.8 345.6 
L 460.8 0 
L 0 0 
z
" style="fill:#ffffff;"/>
  </g>
  <g id="axes_1">
   <g id="patch_2">
    <path d="M 265.92 150.089143 
L 414.72 150.089143 
L 414.72 41.472 
L 265.92 41.472 
z
" style="fill:#ffffff;"/>
   </g>
   <g id="matplotlib.axis_1">
    <g id="xtick_1">
     <g id="line2d_1">
      <defs>
       <path d="M 0 0 
L 0 3.5 
" id="me840f58408" style="stroke:#000000;stroke-width:0.8;"/>
      </defs>
      <g>
       <use style="stroke:#000000;stroke-width:0.8;" x="315.519224" xlink:href="#me840f58408" y="150.089143"/>
      </g>
     </g>
     <g id="text_1">
      <!-- $\mathdefault{10^{1}}$ -->
      <g transform="translate(306.719224 164.68758)scale(0.1 -0.1)">
       <defs>
        <path d="M 14.203125 0 
L 14.203125 5.171875 
L 26.90625 5.171875 
L 26.90625 65.828125 
L 12.203125 56.296875 
L 12.203125 62.703125 
L 29.984375 74.21875 
L 36.71875 74.21875 
L 36.71875 5.171875 
L 49.421875 5.171875 
L 49.421875 0 
z
" id="DejaVuSerif-49"/>
        <path d="M 31.78125 3.421875 
Q 39.265625 3.421875 42.96875 11.625 
Q 46.6875 19.828125 46.6875 36.375 
Q 46.6875 52.984375 42.96875 61.1875 
Q 39.265625 69.390625 31.78125 69.390625 
Q 24.3125 69.390625 20.59375 61.1875 
Q 16.890625 52.984375 16.890625 36.375 
Q 16.890625 19.828125 20.59375 11.625 
Q 24.3125 3.421875 31.78125 3.421875 
z
M 31.78125 -1.421875 
Q 19.921875 -1.421875 13.25 8.53125 
Q 6.59375 18.5 6.59375 36.375 
Q 6.59375 54.296875 13.25 64.25 
Q 19.921875 74.21875 31.78125 74.21875 
Q 43.703125 74.21875 50.34375 64.25 
Q 56.984375 54.296875 56.984375 36.375 
Q 56.984375 18.5 50.34375 8.53125 
Q 43.703125 -1.421875 31.78125 -1.421875 
z
" id="DejaVuSerif-48"/>
       </defs>
       <use transform="translate(0 0.7125)" xlink:href="#DejaVuSerif-49"/>
       <use transform="translate(63.623047 0.7125)" xlink:href="#DejaVuSerif-48"/>
       <use transform="translate(128.154453 37.046875)scale(0.7)" xlink:href="#DejaVuSerif-49"/>
      </g>
     </g>
    </g>
    <g id="xtick_2">
     <g id="line2d_2">
      <g>
       <use style="stroke:#000000;stroke-width:0.8;" x="373.218149" xlink:href="#me840f58408" y="150.089143"/>
      </g>
     </g>
     <g id="text_2">
      <!-- $\mathdefault{10^{2}}$ -->
      <g transform="translate(364.418149 164.68758)scale(0.1 -0.1)">
       <defs>
        <path d="M 12.796875 55.515625 
L 7.328125 55.515625 
L 7.328125 68.5 
Q 12.546875 71.296875 17.84375 72.75 
Q 23.140625 74.21875 28.21875 74.21875 
Q 39.59375 74.21875 46.1875 68.703125 
Q 52.78125 63.1875 52.78125 53.71875 
Q 52.78125 43.015625 37.84375 28.125 
Q 36.671875 27 36.078125 26.421875 
L 17.671875 8.015625 
L 48.09375 8.015625 
L 48.09375 17 
L 53.8125 17 
L 53.8125 0 
L 6.78125 0 
L 6.78125 5.328125 
L 28.90625 27.390625 
Q 36.234375 34.71875 39.359375 40.84375 
Q 42.484375 46.96875 42.484375 53.71875 
Q 42.484375 61.078125 38.640625 65.234375 
Q 34.8125 69.390625 28.078125 69.390625 
Q 21.09375 69.390625 17.28125 65.921875 
Q 13.484375 62.453125 12.796875 55.515625 
z
" id="DejaVuSerif-50"/>
       </defs>
       <use transform="translate(0 0.7125)" xlink:href="#DejaVuSerif-49"/>
       <use transform="translate(63.623047 0.7125)" xlink:href="#DejaVuSerif-48"/>
       <use transform="translate(128.154453 37.046875)scale(0.7)" xlink:href="#DejaVuSerif-50"/>
      </g>
     </g>
    </g>
    <g id="xtick_3">
     <g id="line2d_3">
      <defs>
       <path d="M 0 0 
L 0 2 
" id="m7c71f2d9f0" style="stroke:#000000;stroke-width:0.6;"/>
      </defs>
      <g>
       <use style="stroke:#000000;stroke-width:0.6;" x="275.189406" xlink:href="#m7c71f2d9f0" y="150.089143"/>
      </g>
     </g>
    </g>
    <g id="xtick_4">
     <g id="line2d_4">
      <g>
       <use style="stroke:#000000;stroke-width:0.6;" x="285.349683" xlink:href="#m7c71f2d9f0" y="150.089143"/>
      </g>
     </g>
    </g>
    <g id="xtick_5">
     <g id="line2d_5">
      <g>
       <use style="stroke:#000000;stroke-width:0.6;" x="292.558513" xlink:href="#m7c71f2d9f0" y="150.089143"/>
      </g>
     </g>
    </g>
    <g id="xtick_6">
     <g id="line2d_6">
      <g>
       <use style="stroke:#000000;stroke-width:0.6;" x="298.150117" xlink:href="#m7c71f2d9f0" y="150.089143"/>
      </g>
     </g>
    </g>
    <g id="xtick_7">
     <g id="line2d_7">
      <g>
       <use style="stroke:#000000;stroke-width:0.6;" x="302.71879" xlink:href="#m7c71f2d9f0" y="150.089143"/>
      </g>
     </g>
    </g>
    <g id="xtick_8">
     <g id="line2d_8">
      <g>
       <use style="stroke:#000000;stroke-width:0.6;" x="306.581548" xlink:href="#m7c71f2d9f0" y="150.089143"/>
      </g>
     </g>
    </g>
    <g id="xtick_9">
     <g id="line2d_9">
      <g>
       <use style="stroke:#000000;stroke-width:0.6;" x="309.927621" xlink:href="#m7c71f2d9f0" y="150.089143"/>
      </g>
     </g>
    </g>
    <g id="xtick_10">
     <g id="line2d_10">
      <g>
       <use style="stroke:#000000;stroke-width:0.6;" x="312.879066" xlink:href="#m7c71f2d9f0" y="150.089143"/>
      </g>
     </g>
    </g>
    <g id="xtick_11">
     <g id="line2d_11">
      <g>
       <use style="stroke:#000000;stroke-width:0.6;" x="332.888331" xlink:href="#m7c71f2d9f0" y="150.089143"/>
      </g>
     </g>
    </g>
    <g id="xtick_12">
     <g id="line2d_12">
      <g>
       <use style="stroke:#000000;stroke-width:0.6;" x="343.048608" xlink:href="#m7c71f2d9f0" y="150.089143"/>
      </g>
     </g>
    </g>
    <g id="xtick_13">
     <g id="line2d_13">
      <g>
       <use style="stroke:#000000;stroke-width:0.6;" x="350.257438" xlink:href="#m7c71f2d9f0" y="150.089143"/>
      </g>
     </g>
    </g>
    <g id="xtick_14">
     <g id="line2d_14">
      <g>
       <use style="stroke:#000000;stroke-width:0.6;" x="355.849042" xlink:href="#m7c71f2d9f0" y="150.089143"/>
      </g>
     </g>
    </g>
    <g id="xtick_15">
     <g id="line2d_15">
      <g>
       <use style="stroke:#000000;stroke-width:0.6;" x="360.417715" xlink:href="#m7c71f2d9f0" y="150.089143"/>
      </g>
     </g>
    </g>
    <g id="xtick_16">
     <g id="line2d_16">
      <g>
       <use style="stroke:#000000;stroke-width:0.6;" x="364.280473" xlink:href="#m7c71f2d9f0" y="150.089143"/>
      </g>
     </g>
    </g>
    <g id="xtick_17">
     <g id="line2d_17">
      <g>
       <use style="stroke:#000000;stroke-width:0.6;" x="367.626546" xlink:href="#m7c71f2d9f0" y="150.089143"/>
      </g>
     </g>
    </g>
    <g id="xtick_18">
     <g id="line2d_18">
      <g>
       <use style="stroke:#000000;stroke-width:0.6;" x="370.577991" xlink:href="#m7c71f2d9f0" y="150.089143"/>
      </g>
     </g>
    </g>
    <g id="xtick_19">
     <g id="line2d_19">
      <g>
       <use style="stroke:#000000;stroke-width:0.6;" x="390.587256" xlink:href="#m7c71f2d9f0" y="150.089143"/>
      </g>
     </g>
    </g>
    <g id="xtick_20">
     <g id="line2d_20">
      <g>
       <use style="stroke:#000000;stroke-width:0.6;" x="400.747533" xlink:href="#m7c71f2d9f0" y="150.089143"/>
      </g>
     </g>
    </g>
    <g id="xtick_21">
     <g id="line2d_21">
      <g>
       <use style="stroke:#000000;stroke-width:0.6;" x="407.956364" xlink:href="#m7c71f2d9f0" y="150.089143"/>
      </g>
     </g>
    </g>
    <g id="xtick_22">
     <g id="line2d_22">
      <g>
       <use style="stroke:#000000;stroke-width:0.6;" x="413.547967" xlink:href="#m7c71f2d9f0" y="150.089143"/>
      </g>
     </g>
    </g>
    <g id="text_3">
     <!-- Period d -->
     <g transform="translate(319.231719 178.365705)scale(0.1 -0.1)">
      <defs>
       <path d="M 24.703125 37.109375 
L 37.59375 37.109375 
Q 44.875 37.109375 48.671875 41.03125 
Q 52.484375 44.96875 52.484375 52.390625 
Q 52.484375 59.859375 48.671875 63.765625 
Q 44.875 67.671875 37.59375 67.671875 
L 24.703125 67.671875 
z
M 5.515625 0 
L 5.515625 5.171875 
L 14.796875 5.171875 
L 14.796875 67.671875 
L 5.515625 67.671875 
L 5.515625 72.90625 
L 39.984375 72.90625 
Q 50.921875 72.90625 57.3125 67.359375 
Q 63.71875 61.8125 63.71875 52.390625 
Q 63.71875 43.015625 57.3125 37.453125 
Q 50.921875 31.890625 39.984375 31.890625 
L 24.703125 31.890625 
L 24.703125 5.171875 
L 35.984375 5.171875 
L 35.984375 0 
z
" id="DejaVuSerif-80"/>
       <path d="M 54.203125 25 
L 15.484375 25 
L 15.484375 24.609375 
Q 15.484375 14.109375 19.4375 8.765625 
Q 23.390625 3.421875 31.109375 3.421875 
Q 37.015625 3.421875 40.796875 6.515625 
Q 44.578125 9.625 46.09375 15.71875 
L 53.328125 15.71875 
Q 51.171875 7.171875 45.375 2.875 
Q 39.59375 -1.421875 30.171875 -1.421875 
Q 18.796875 -1.421875 11.890625 6.078125 
Q 4.984375 13.578125 4.984375 25.984375 
Q 4.984375 38.28125 11.765625 45.796875 
Q 18.5625 53.328125 29.59375 53.328125 
Q 41.359375 53.328125 47.65625 46.0625 
Q 53.953125 38.8125 54.203125 25 
z
M 43.609375 30.171875 
Q 43.3125 39.265625 39.765625 43.875 
Q 36.234375 48.484375 29.59375 48.484375 
Q 23.390625 48.484375 19.828125 43.84375 
Q 16.265625 39.203125 15.484375 30.171875 
z
" id="DejaVuSerif-101"/>
       <path d="M 47.796875 52 
L 47.796875 39.015625 
L 42.625 39.015625 
Q 42.390625 42.875 40.484375 44.78125 
Q 38.578125 46.6875 34.90625 46.6875 
Q 28.265625 46.6875 24.71875 42.09375 
Q 21.1875 37.5 21.1875 28.90625 
L 21.1875 5.171875 
L 31.59375 5.171875 
L 31.59375 0 
L 4.109375 0 
L 4.109375 5.171875 
L 12.203125 5.171875 
L 12.203125 46.78125 
L 3.609375 46.78125 
L 3.609375 51.90625 
L 21.1875 51.90625 
L 21.1875 42.671875 
Q 23.828125 48.09375 27.96875 50.703125 
Q 32.125 53.328125 38.09375 53.328125 
Q 40.28125 53.328125 42.703125 52.984375 
Q 45.125 52.640625 47.796875 52 
z
" id="DejaVuSerif-114"/>
       <path d="M 9.71875 68.015625 
Q 9.71875 70.265625 11.34375 71.921875 
Q 12.984375 73.578125 15.28125 73.578125 
Q 17.53125 73.578125 19.15625 71.921875 
Q 20.796875 70.265625 20.796875 68.015625 
Q 20.796875 65.71875 19.1875 64.109375 
Q 17.578125 62.5 15.28125 62.5 
Q 12.984375 62.5 11.34375 64.109375 
Q 9.71875 65.71875 9.71875 68.015625 
z
M 21.1875 5.171875 
L 29.6875 5.171875 
L 29.6875 0 
L 3.609375 0 
L 3.609375 5.171875 
L 12.203125 5.171875 
L 12.203125 46.6875 
L 3.609375 46.6875 
L 3.609375 51.90625 
L 21.1875 51.90625 
z
" id="DejaVuSerif-105"/>
       <path d="M 30.078125 3.421875 
Q 37.3125 3.421875 40.984375 9.125 
Q 44.671875 14.84375 44.671875 25.984375 
Q 44.671875 37.109375 40.984375 42.796875 
Q 37.3125 48.484375 30.078125 48.484375 
Q 22.859375 48.484375 19.171875 42.796875 
Q 15.484375 37.109375 15.484375 25.984375 
Q 15.484375 14.84375 19.1875 9.125 
Q 22.90625 3.421875 30.078125 3.421875 
z
M 30.078125 -1.421875 
Q 18.75 -1.421875 11.859375 6.078125 
Q 4.984375 13.578125 4.984375 25.984375 
Q 4.984375 38.375 11.84375 45.84375 
Q 18.703125 53.328125 30.078125 53.328125 
Q 41.453125 53.328125 48.3125 45.84375 
Q 55.171875 38.375 55.171875 25.984375 
Q 55.171875 13.578125 48.3125 6.078125 
Q 41.453125 -1.421875 30.078125 -1.421875 
z
" id="DejaVuSerif-111"/>
       <path d="M 52.484375 5.171875 
L 61.078125 5.171875 
L 61.078125 0 
L 43.5 0 
L 43.5 8.109375 
Q 40.875 3.21875 36.796875 0.890625 
Q 32.71875 -1.421875 26.703125 -1.421875 
Q 17.140625 -1.421875 11.0625 6.171875 
Q 4.984375 13.765625 4.984375 25.984375 
Q 4.984375 38.1875 11.03125 45.75 
Q 17.09375 53.328125 26.703125 53.328125 
Q 32.71875 53.328125 36.796875 51 
Q 40.875 48.6875 43.5 43.796875 
L 43.5 70.796875 
L 35.015625 70.796875 
L 35.015625 75.984375 
L 52.484375 75.984375 
z
M 43.5 23.390625 
L 43.5 28.515625 
Q 43.5 37.84375 39.90625 42.765625 
Q 36.328125 47.703125 29.5 47.703125 
Q 22.5625 47.703125 19.015625 42.234375 
Q 15.484375 36.765625 15.484375 25.984375 
Q 15.484375 15.234375 19.015625 9.71875 
Q 22.5625 4.203125 29.5 4.203125 
Q 36.328125 4.203125 39.90625 9.109375 
Q 43.5 14.015625 43.5 23.390625 
z
" id="DejaVuSerif-100"/>
       <path id="DejaVuSerif-32"/>
      </defs>
      <use xlink:href="#DejaVuSerif-80"/>
      <use x="62.785156" xlink:href="#DejaVuSerif-101"/>
      <use x="121.964844" xlink:href="#DejaVuSerif-114"/>
      <use x="169.767578" xlink:href="#DejaVuSerif-105"/>
      <use x="201.75" xlink:href="#DejaVuSerif-111"/>
      <use x="261.955078" xlink:href="#DejaVuSerif-100"/>
      <use x="325.96875" xlink:href="#DejaVuSerif-32"/>
      <use x="357.755859" xlink:href="#DejaVuSerif-100"/>
     </g>
    </g>
   </g>
   <g id="matplotlib.axis_2">
    <g id="ytick_1">
     <g id="line2d_23">
      <defs>
       <path d="M 0 0 
L -3.5 0 
" id="mfb764c952b" style="stroke:#000000;stroke-width:0.8;"/>
      </defs>
      <g>
       <use style="stroke:#000000;stroke-width:0.8;" x="265.92" xlink:href="#mfb764c952b" y="145.158812"/>
      </g>
     </g>
     <g id="text_4">
      <!-- 0.0 -->
      <g transform="translate(243.016875 148.958031)scale(0.1 -0.1)">
       <defs>
        <path d="M 9.421875 5.078125 
Q 9.421875 7.8125 11.28125 9.71875 
Q 13.140625 11.625 15.921875 11.625 
Q 18.609375 11.625 20.5 9.71875 
Q 22.40625 7.8125 22.40625 5.078125 
Q 22.40625 2.390625 20.5 0.484375 
Q 18.609375 -1.421875 15.921875 -1.421875 
Q 13.140625 -1.421875 11.28125 0.453125 
Q 9.421875 2.34375 9.421875 5.078125 
z
" id="DejaVuSerif-46"/>
       </defs>
       <use xlink:href="#DejaVuSerif-48"/>
       <use x="63.623047" xlink:href="#DejaVuSerif-46"/>
       <use x="95.410156" xlink:href="#DejaVuSerif-48"/>
      </g>
     </g>
    </g>
    <g id="ytick_2">
     <g id="line2d_24">
      <g>
       <use style="stroke:#000000;stroke-width:0.8;" x="265.92" xlink:href="#mfb764c952b" y="105.348791"/>
      </g>
     </g>
     <g id="text_5">
      <!-- 0.2 -->
      <g transform="translate(243.016875 109.14801)scale(0.1 -0.1)">
       <use xlink:href="#DejaVuSerif-48"/>
       <use x="63.623047" xlink:href="#DejaVuSerif-46"/>
       <use x="95.410156" xlink:href="#DejaVuSerif-50"/>
      </g>
     </g>
    </g>
    <g id="ytick_3">
     <g id="line2d_25">
      <g>
       <use style="stroke:#000000;stroke-width:0.8;" x="265.92" xlink:href="#mfb764c952b" y="65.53877"/>
      </g>
     </g>
     <g id="text_6">
      <!-- 0.4 -->
      <g transform="translate(243.016875 69.337988)scale(0.1 -0.1)">
       <defs>
        <path d="M 34.90625 24.703125 
L 34.90625 63.484375 
L 10.015625 24.703125 
z
M 56.390625 0 
L 23.1875 0 
L 23.1875 5.171875 
L 34.90625 5.171875 
L 34.90625 19.484375 
L 3.078125 19.484375 
L 3.078125 24.8125 
L 35.015625 74.21875 
L 44.671875 74.21875 
L 44.671875 24.703125 
L 58.59375 24.703125 
L 58.59375 19.484375 
L 44.671875 19.484375 
L 44.671875 5.171875 
L 56.390625 5.171875 
z
" id="DejaVuSerif-52"/>
       </defs>
       <use xlink:href="#DejaVuSerif-48"/>
       <use x="63.623047" xlink:href="#DejaVuSerif-46"/>
       <use x="95.410156" xlink:href="#DejaVuSerif-52"/>
      </g>
     </g>
    </g>
    <g id="text_7">
     <!-- Power -->
     <g transform="translate(236.937188 111.583696)rotate(-90)scale(0.1 -0.1)">
      <defs>
       <path d="M 48 51.90625 
L 61.28125 11.375 
L 73 46.6875 
L 65.484375 46.6875 
L 65.484375 51.90625 
L 84.28125 51.90625 
L 84.28125 46.6875 
L 78.515625 46.6875 
L 63.09375 0 
L 55.609375 0 
L 42.828125 38.8125 
L 29.984375 0 
L 22.796875 0 
L 7.421875 46.6875 
L 1.609375 46.6875 
L 1.609375 51.90625 
L 25.09375 51.90625 
L 25.09375 46.6875 
L 16.703125 46.6875 
L 28.328125 11.375 
L 41.703125 51.90625 
z
" id="DejaVuSerif-119"/>
      </defs>
      <use xlink:href="#DejaVuSerif-80"/>
      <use x="63.285156" xlink:href="#DejaVuSerif-111"/>
      <use x="123.490234" xlink:href="#DejaVuSerif-119"/>
      <use x="209.085938" xlink:href="#DejaVuSerif-101"/>
      <use x="268.265625" xlink:href="#DejaVuSerif-114"/>
     </g>
    </g>
   </g>
   <g id="LineCollection_1">
    <path clip-path="url(#pccc19978be)" d="M 272.688076 52.273008 
L 407.956364 52.273008 
" style="fill:none;stroke:#808080;stroke-dasharray:5.55,2.4;stroke-dashoffset:0;stroke-width:1.5;"/>
   </g>
   <g id="LineCollection_2">
    <path clip-path="url(#pccc19978be)" d="M 272.688076 65.358477 
L 407.956364 65.358477 
" style="fill:none;stroke:#a9a9a9;stroke-dasharray:5.55,2.4;stroke-dashoffset:0;stroke-width:1.5;"/>
   </g>
   <g id="LineCollection_3">
    <path clip-path="url(#pccc19978be)" d="M 272.688076 75.66168 
L 407.956364 75.66168 
" style="fill:none;stroke:#c0c0c0;stroke-dasharray:5.55,2.4;stroke-dashoffset:0;stroke-width:1.5;"/>
   </g>
   <g id="LineCollection_4">
    <path clip-path="url(#pccc19978be)" d="M 272.688076 80.528502 
L 407.956364 80.528502 
" style="fill:none;stroke:#d3d3d3;stroke-dasharray:5.55,2.4;stroke-dashoffset:0;stroke-width:1.5;"/>
   </g>
   <g id="line2d_26">
    <path clip-path="url(#pccc19978be)" d="M 407.956364 54.809878 
L 403.213616 128.886661 
L 399.227255 135.470116 
L 395.788878 105.495049 
L 392.765875 85.118199 
L 390.068617 85.438229 
L 387.633683 100.76435 
L 385.414539 127.393827 
L 383.376032 141.220545 
L 381.490955 122.155395 
L 379.73782 102.095183 
L 378.099359 89.240358 
L 376.561486 96.030006 
L 375.112563 130.459804 
L 373.74286 142.166631 
L 372.444161 117.422992 
L 371.209467 88.153821 
L 370.032763 67.304422 
L 368.908846 82.08284 
L 367.833182 129.637637 
L 366.801799 139.582792 
L 365.811193 108.672642 
L 364.858264 82.774515 
L 363.940249 66.122622 
L 363.054681 88.631921 
L 362.199344 139.899225 
L 361.372241 119.239591 
L 360.571569 96.049417 
L 359.79569 83.030331 
L 359.043114 77.369432 
L 358.312483 112.509987 
L 357.602554 140.884236 
L 356.912184 105.252561 
L 356.240326 92.247841 
L 355.586012 88.021429 
L 354.948349 95.136249 
L 354.326511 122.471818 
L 353.719731 141.55862 
L 353.127298 128.225888 
L 352.548548 119.824178 
L 351.982864 120.872116 
L 351.429669 114.354893 
L 350.888423 116.936749 
L 350.358621 133.373459 
L 349.839788 133.736688 
L 349.331481 132.818039 
L 348.83328 121.290499 
L 348.344791 101.275416 
L 347.865643 109.098093 
L 347.395485 130.773557 
L 346.933987 130.471687 
L 345.598396 86.455522 
L 345.168563 101.028319 
L 344.745979 133.886565 
L 344.330404 125.765502 
L 343.921608 103.833489 
L 343.519374 90.802501 
L 343.123495 87.825186 
L 342.35002 126.407532 
L 341.972055 117.478353 
L 341.599707 100.859855 
L 341.23281 101.872074 
L 340.871208 120.619636 
L 340.51475 126.520937 
L 340.163291 129.312763 
L 339.474825 84.225525 
L 339.137558 91.157462 
L 338.476344 140.311344 
L 338.152167 137.16434 
L 337.83213 109.472582 
L 337.516128 94.332395 
L 337.204063 88.014151 
L 336.895836 96.346874 
L 336.591354 128.429777 
L 336.290527 143.142414 
L 335.699496 81.531085 
L 335.409128 70.281511 
L 335.122085 85.476626 
L 334.838294 123.159959 
L 334.55768 142.149362 
L 334.005708 46.409143 
L 333.734215 49.276753 
L 333.465633 80.90024 
L 333.199898 126.542399 
L 332.936952 142.477226 
L 332.419196 58.757499 
L 332.164275 57.616551 
L 331.662084 122.774677 
L 331.414712 134.217857 
L 331.169759 132.024543 
L 330.927177 117.930297 
L 330.448947 112.924434 
L 330.213212 109.726456 
L 329.748291 135.585271 
L 329.519026 131.941811 
L 329.066695 119.858512 
L 328.843554 121.501822 
L 328.622384 134.323262 
L 328.403148 132.54851 
L 328.185814 98.455035 
L 327.970348 85.912066 
L 327.33485 143.683803 
L 327.126548 116.935616 
L 326.919965 74.638101 
L 326.71507 62.831348 
L 326.511837 79.58607 
L 326.11025 144.038874 
L 325.519686 73.605382 
L 325.325884 90.650616 
L 324.942719 142.361827 
L 324.378739 101.882164 
L 324.009683 124.595647 
L 323.827173 139.001914 
L 323.645984 139.695288 
L 323.110144 107.394321 
L 322.934048 113.551208 
L 322.585524 140.353634 
L 322.241781 120.597277 
L 322.071662 105.523519 
L 321.90269 108.068221 
L 321.73485 122.654257 
L 321.568126 114.588561 
L 321.402505 112.129946 
L 321.237971 125.120441 
L 320.912109 126.751535 
L 320.59043 84.127003 
L 320.431126 84.840466 
L 319.959202 136.688475 
L 319.496001 91.722204 
L 319.041207 134.700777 
L 318.891425 133.735899 
L 318.594521 114.3622 
L 318.301094 121.358831 
L 318.011062 141.126981 
L 317.582214 98.782025 
L 317.44088 108.532848 
L 317.160581 142.232081 
L 316.745926 84.703664 
L 316.609219 98.897437 
L 316.473253 129.398415 
L 316.338021 131.96348 
L 316.069727 99.952093 
L 315.936649 100.64406 
L 315.672596 135.314358 
L 315.281661 86.178776 
L 314.896732 138.516039 
L 314.517626 107.853496 
L 314.14417 136.597024 
L 314.020912 141.513245 
L 313.898256 134.700244 
L 313.654732 105.291628 
L 313.533852 111.033622 
L 313.293827 143.051933 
L 313.174672 134.858113 
L 312.938046 86.442847 
L 312.820567 97.136123 
L 312.587246 140.258257 
L 312.471396 131.91097 
L 312.24129 85.037249 
L 311.78732 134.031353 
L 311.563383 120.098675 
L 311.452161 116.682509 
L 311.34143 109.551328 
L 311.012142 139.496525 
L 310.903334 134.506215 
L 310.687126 117.279895 
L 310.366271 138.132235 
L 310.154628 124.380124 
L 310.049473 126.517438 
L 309.840478 133.474073 
L 309.633211 117.451958 
L 309.530217 118.192457 
L 309.32549 122.725225 
L 309.223751 123.954994 
L 309.021503 123.676195 
L 308.920988 125.68599 
L 308.721159 96.707408 
L 308.522911 124.799511 
L 308.424372 138.386587 
L 308.326219 128.808578 
L 308.13106 99.672536 
L 307.84114 141.515243 
L 307.649708 114.793657 
L 307.554537 118.532015 
L 307.365274 139.958096 
L 307.084032 123.05208 
L 306.898275 135.242423 
L 306.713886 124.690934 
L 306.622198 124.705836 
L 306.530844 130.21317 
L 306.439822 128.919775 
L 306.258763 112.347907 
L 305.989605 132.910749 
L 305.723307 107.614427 
L 305.547334 137.186285 
L 305.372589 109.27968 
L 305.285671 112.146155 
L 305.112735 140.174579 
L 305.026712 137.517375 
L 304.855548 119.373792 
L 304.770402 123.065488 
L 304.600973 140.063046 
L 304.516687 139.649624 
L 304.348959 133.845226 
L 304.099454 121.944803 
L 303.934487 141.188774 
L 303.852409 138.970816 
L 303.607776 99.743149 
L 303.365508 136.56259 
L 303.28527 134.732967 
L 303.046086 113.775929 
L 302.966862 112.353734 
L 302.809162 139.250681 
L 302.730683 139.148208 
L 302.574458 107.306168 
L 302.49671 109.247715 
L 302.341932 142.858569 
L 302.264901 140.891382 
L 302.111544 107.715433 
L 301.883255 143.806471 
L 301.807618 139.390757 
L 301.657027 123.697338 
L 301.582069 128.419798 
L 301.507335 127.206362 
L 301.432822 126.837626 
L 301.358531 125.608007 
L 301.28446 127.016776 
L 301.210607 137.198248 
L 301.13697 132.382351 
L 300.990344 115.648045 
L 300.917351 115.773835 
L 300.772001 130.66801 
L 300.627488 121.523037 
L 300.483805 138.971559 
L 300.41227 131.966049 
L 300.269812 101.606714 
L 300.057631 145.100988 
L 299.987302 132.179636 
L 299.847232 112.199504 
L 299.638585 143.677601 
L 299.431661 117.286055 
L 299.294655 140.644303 
L 299.226432 140.398916 
L 299.09054 127.449262 
L 299.022869 115.426338 
L 298.955381 115.581929 
L 298.687231 140.306252 
L 298.487985 109.322164 
L 298.224765 140.529709 
L 297.96428 127.154788 
L 297.89958 129.41403 
L 297.770679 143.494154 
L 297.706476 143.395085 
L 297.578561 129.339213 
L 297.387906 141.723387 
L 297.261603 134.191731 
L 297.19869 136.200336 
L 297.135934 136.969845 
L 296.948604 126.670464 
L 296.824491 138.210439 
L 296.762664 133.49204 
L 296.639467 121.828548 
L 296.455798 139.945956 
L 296.273467 118.935763 
L 296.152645 142.866888 
L 296.092452 137.717449 
L 296.032403 132.744679 
L 295.972498 133.58128 
L 295.853115 143.08921 
L 295.734298 125.923499 
L 295.675101 127.054198 
L 295.557123 145.037149 
L 295.381192 117.986713 
L 295.322822 119.423327 
L 295.206487 141.997234 
L 295.148522 139.208741 
L 294.86069 120.513805 
L 294.689565 142.74241 
L 294.5196 119.719828 
L 294.350781 142.585231 
L 294.238863 122.031663 
L 294.183091 128.628997 
L 294.071918 144.908858 
L 294.016515 142.449675 
L 293.906077 132.275493 
L 293.686651 144.32455 
L 293.577654 136.556288 
L 293.469129 129.116873 
L 293.361072 141.78719 
L 293.307218 140.023166 
L 293.199855 128.625484 
L 293.146346 132.865186 
L 293.039669 142.688218 
L 292.8805 119.236899 
L 292.722336 144.837154 
L 292.669836 138.61467 
L 292.565165 133.04322 
L 292.357124 144.793272 
L 292.305382 144.338835 
L 292.202219 132.266661 
L 292.150796 133.844694 
L 292.048266 144.916988 
L 291.997158 141.295815 
L 291.895253 125.940954 
L 291.793761 143.655511 
L 291.743168 142.627248 
L 291.592001 113.269126 
L 291.491728 143.382302 
L 291.441741 142.647038 
L 291.342066 124.650921 
L 291.292376 125.698169 
L 291.193292 141.03444 
L 291.143896 135.877505 
L 291.094598 135.088853 
L 290.947282 144.340838 
L 290.898369 141.130429 
L 290.84955 139.099699 
L 290.800827 140.530213 
L 290.752198 142.036216 
L 290.703664 141.349579 
L 290.655223 141.078228 
L 290.558622 144.737998 
L 290.510461 142.763445 
L 290.414415 128.959891 
L 290.366529 131.151316 
L 290.271032 143.257782 
L 290.22342 142.075846 
L 290.128466 134.107957 
L 290.03387 138.782077 
L 289.892643 130.855374 
L 289.798932 144.186675 
L 289.752207 141.820116 
L 289.659019 131.497985 
L 289.612554 133.454109 
L 289.519883 144.58718 
L 289.473675 143.540003 
L 289.381515 141.170883 
L 289.289692 144.746251 
L 289.243907 144.513386 
L 289.152586 142.563551 
L 289.061597 139.936538 
L 288.970937 144.851938 
L 288.92573 143.781234 
L 288.790596 123.306168 
L 288.745712 130.664701 
L 288.656186 144.076756 
L 288.522494 125.171152 
L 288.43376 144.625594 
L 288.389511 142.729321 
L 288.301246 129.720744 
L 288.25723 133.018006 
L 288.169429 144.769107 
L 288.125643 141.777225 
L 288.038302 136.133271 
L 287.907857 145.028935 
L 287.864526 144.700727 
L 287.73498 133.456801 
L 287.691947 135.196575 
L 287.606101 144.567417 
L 287.563288 138.182549 
L 287.477881 121.35658 
L 287.435287 129.609039 
L 287.350314 144.466929 
L 287.307936 134.464985 
L 287.223394 118.751597 
L 287.181229 129.290426 
L 287.097112 144.101894 
L 287.05516 135.481489 
L 287.013277 126.612658 
L 286.971464 128.362444 
L 286.846443 144.755894 
L 286.804908 143.873909 
L 286.763441 143.12886 
L 286.722043 144.006404 
L 286.680713 143.925266 
L 286.639451 143.533325 
L 286.598257 143.5787 
L 286.516071 144.663934 
L 286.475079 143.919158 
L 286.434154 143.77496 
L 286.393296 144.57816 
L 286.352504 144.414893 
L 286.230526 133.81121 
L 286.189998 138.314142 
L 286.109139 144.505656 
L 286.028539 131.706516 
L 285.988336 132.483366 
L 285.868114 144.296423 
L 285.828167 140.857843 
L 285.788285 138.424913 
L 285.748465 140.566452 
L 285.669016 144.603648 
L 285.629385 144.142237 
L 285.550312 142.839813 
L 285.392909 144.86326 
L 285.353713 144.494125 
L 285.275503 140.988684 
L 285.23649 141.766294 
L 285.158645 144.730706 
L 285.08104 138.084694 
L 285.042328 138.545384 
L 284.965083 145.12515 
L 284.926549 139.996536 
L 284.84966 128.537342 
L 284.811303 134.0408 
L 284.734766 142.781618 
L 284.620396 123.418077 
L 284.582388 132.095529 
L 284.506546 144.068536 
L 284.468711 141.239333 
L 284.430932 137.804366 
L 284.393211 139.058661 
L 284.317938 145.043941 
L 284.24289 144.692457 
L 284.205451 144.736496 
L 284.130739 143.262991 
L 284.093466 143.485487 
L 284.056249 144.816207 
L 284.019087 144.451117 
L 283.90793 131.692997 
L 283.870987 136.88705 
L 283.797265 143.715901 
L 283.760485 136.919159 
L 283.687086 129.173938 
L 283.650467 135.448181 
L 283.577389 144.85592 
L 283.54093 140.874876 
L 283.504524 137.325225 
L 283.46817 138.722779 
L 283.395621 144.591143 
L 283.359426 143.944396 
L 283.287191 141.08983 
L 283.251151 142.45034 
L 283.179227 145.027481 
L 283.107508 144.220022 
L 283.035995 142.296347 
L 283.000314 143.243642 
L 282.964685 143.952073 
L 282.929106 142.499243 
L 282.858099 135.710415 
L 282.822671 137.20259 
L 282.751964 144.679778 
L 282.716685 141.810144 
L 282.646277 134.163465 
L 282.611147 138.180357 
L 282.541034 145.067726 
L 282.506051 142.567618 
L 282.471117 139.520211 
L 282.436231 139.971612 
L 282.366605 144.515373 
L 282.331865 143.278365 
L 282.297172 142.407767 
L 282.262528 143.266511 
L 282.227931 144.559427 
L 282.193382 143.861965 
L 282.124427 139.240065 
L 282.055661 141.055226 
L 281.952864 138.842514 
L 281.850487 144.848623 
L 281.782468 143.517301 
L 281.748527 144.680396 
L 281.714633 143.964139 
L 281.613223 131.071551 
L 281.57951 137.426532 
L 281.545843 143.715559 
L 281.512222 142.370369 
L 281.445113 127.382685 
L 281.411626 129.473256 
L 281.344786 144.224354 
L 281.278123 138.858846 
L 281.244859 135.462389 
L 281.211638 138.586219 
L 281.145328 144.999154 
L 281.079194 143.130531 
L 280.980318 145.057856 
L 280.914617 144.418956 
L 280.881831 144.769442 
L 280.849088 144.357942 
L 280.653522 140.196022 
L 280.588672 144.936843 
L 280.556309 143.670722 
L 280.459471 129.13483 
L 280.427275 135.959468 
L 280.363006 144.67562 
L 280.330934 141.972716 
L 280.266911 137.344185 
L 280.234961 140.096452 
L 280.107567 145.064194 
L 280.07582 144.615538 
L 279.854706 138.403731 
L 279.760537 144.1636 
L 279.729226 139.779773 
L 279.666721 134.839112 
L 279.635526 139.269589 
L 279.604371 144.733949 
L 279.542176 140.389563 
L 279.511136 138.593328 
L 279.480135 140.238731 
L 279.449172 144.478666 
L 279.418247 143.634803 
L 279.356512 134.433797 
L 279.325701 138.247975 
L 279.264193 142.979703 
L 279.233496 140.443477 
L 279.202836 137.085635 
L 279.141628 142.156622 
L 278.98926 145.152 
L 278.898282 138.419872 
L 278.868029 139.741042 
L 278.807633 144.807469 
L 278.77749 141.011865 
L 278.717311 135.961402 
L 278.657277 139.764113 
L 278.567494 143.545161 
L 278.537638 143.228934 
L 278.478032 138.276489 
L 278.418567 141.23088 
L 278.359243 144.397211 
L 278.329634 141.640159 
L 278.30006 139.815045 
L 278.27052 142.235669 
L 278.241016 144.814677 
L 278.18211 142.406521 
L 278.152709 140.886134 
L 278.123343 141.42639 
L 278.064713 144.703593 
L 278.00622 142.637435 
L 277.947864 143.918533 
L 277.918736 143.103665 
L 277.889643 141.439149 
L 277.831556 143.184678 
L 277.802564 143.495992 
L 277.744679 141.676573 
L 277.715787 142.632604 
L 277.686927 143.847164 
L 277.658102 142.442733 
L 277.571822 125.646836 
L 277.543128 136.995039 
L 277.514467 141.21001 
L 277.485839 137.823822 
L 277.42868 126.874262 
L 277.40015 127.030597 
L 277.257983 142.722855 
L 277.229646 144.475007 
L 277.201341 141.72552 
L 277.144827 137.849335 
L 277.116617 140.255869 
L 277.08844 143.789122 
L 277.060294 141.025544 
L 277.004096 130.68796 
L 276.948025 139.23932 
L 276.920036 144.533382 
L 276.864152 141.254762 
L 276.836257 138.917326 
L 276.752757 139.336453 
L 276.697244 144.855213 
L 276.641855 139.680566 
L 276.586587 130.609699 
L 276.558999 135.560167 
L 276.531441 140.57848 
L 276.476416 130.617467 
L 276.421512 124.385309 
L 276.394104 132.463194 
L 276.366727 139.570599 
L 276.312062 132.048807 
L 276.284775 134.314836 
L 276.203089 144.192234 
L 276.121669 142.828166 
L 276.013519 132.760372 
L 275.959619 138.526703 
L 275.932712 139.289841 
L 275.878985 144.520268 
L 275.852164 139.558256 
L 275.771875 125.598933 
L 275.745168 135.432642 
L 275.718491 141.656204 
L 275.66522 134.297472 
L 275.638628 131.067743 
L 275.612063 133.332479 
L 275.585527 139.73126 
L 275.506086 132.26427 
L 275.426896 143.263018 
L 275.321697 138.422173 
L 275.295466 138.012506 
L 275.216938 143.683459 
L 275.190816 140.875924 
L 275.138655 125.374402 
L 275.086602 139.466165 
L 275.060615 139.278695 
L 274.95694 144.978771 
L 274.931088 143.770342 
L 274.750867 128.224997 
L 274.674024 140.266652 
L 274.648462 138.303831 
L 274.597417 128.808635 
L 274.546475 140.716362 
L 274.521042 144.852586 
L 274.495636 139.943318 
L 274.470255 132.62178 
L 274.394267 136.987751 
L 274.343736 144.656702 
L 274.293307 141.885861 
L 274.242979 133.896631 
L 274.192752 142.806203 
L 274.117599 142.495226 
L 274.067622 144.865009 
L 273.868706 123.530596 
L 273.843952 128.224413 
L 273.769837 144.798004 
L 273.69594 138.083703 
L 273.646797 136.02156 
L 273.622261 138.02556 
L 273.573261 143.956741 
L 273.524357 137.356595 
L 273.499941 133.944806 
L 273.475549 136.196737 
L 273.426835 144.488681 
L 273.378216 133.022567 
L 273.353942 130.392822 
L 273.329691 134.818979 
L 273.305463 141.392048 
L 273.208788 140.042809 
L 273.184677 143.59121 
L 273.136525 137.606106 
L 273.112483 137.900306 
L 273.06447 142.990183 
L 273.040497 138.544634 
L 272.992621 127.220215 
L 272.944836 139.315214 
L 272.920978 144.675119 
L 272.825771 141.819459 
L 272.802026 141.608967 
L 272.754603 138.765828 
L 272.730925 140.643849 
L 272.683636 145.022958 
L 272.683636 145.022958 
" style="fill:none;stroke:#1f77b4;stroke-linecap:square;stroke-width:1.5;"/>
   </g>
   <g id="patch_3">
    <path d="M 265.92 150.089143 
L 265.92 41.472 
" style="fill:none;stroke:#000000;stroke-linecap:square;stroke-linejoin:miter;stroke-width:0.8;"/>
   </g>
   <g id="patch_4">
    <path d="M 414.72 150.089143 
L 414.72 41.472 
" style="fill:none;stroke:#000000;stroke-linecap:square;stroke-linejoin:miter;stroke-width:0.8;"/>
   </g>
   <g id="patch_5">
    <path d="M 265.92 150.089143 
L 414.72 150.089143 
" style="fill:none;stroke:#000000;stroke-linecap:square;stroke-linejoin:miter;stroke-width:0.8;"/>
   </g>
   <g id="patch_6">
    <path d="M 265.92 41.472 
L 414.72 41.472 
" style="fill:none;stroke:#000000;stroke-linecap:square;stroke-linejoin:miter;stroke-width:0.8;"/>
   </g>
   <g id="text_8">
    <!-- Periodogram -->
    <g transform="translate(307.698125 35.472)scale(0.1 -0.1)">
     <defs>
      <path d="M 52.484375 46.6875 
L 52.484375 1.125 
Q 52.484375 -10.0625 46.328125 -16.140625 
Q 40.1875 -22.21875 28.8125 -22.21875 
Q 23.6875 -22.21875 19 -21.28125 
Q 14.3125 -20.359375 10.015625 -18.5 
L 10.015625 -7.625 
L 14.703125 -7.625 
Q 15.578125 -12.703125 18.84375 -15.046875 
Q 22.125 -17.390625 28.21875 -17.390625 
Q 36.140625 -17.390625 39.8125 -12.921875 
Q 43.5 -8.453125 43.5 1.125 
L 43.5 8.109375 
Q 40.875 3.21875 36.796875 0.890625 
Q 32.71875 -1.421875 26.703125 -1.421875 
Q 17.140625 -1.421875 11.0625 6.171875 
Q 4.984375 13.765625 4.984375 25.984375 
Q 4.984375 38.1875 11.03125 45.75 
Q 17.09375 53.328125 26.703125 53.328125 
Q 32.71875 53.328125 36.796875 51 
Q 40.875 48.6875 43.5 43.796875 
L 43.5 51.90625 
L 61.078125 51.90625 
L 61.078125 46.6875 
z
M 43.5 28.515625 
Q 43.5 37.84375 39.90625 42.765625 
Q 36.328125 47.703125 29.5 47.703125 
Q 22.5625 47.703125 19.015625 42.234375 
Q 15.484375 36.765625 15.484375 25.984375 
Q 15.484375 15.234375 19.015625 9.71875 
Q 22.5625 4.203125 29.5 4.203125 
Q 36.328125 4.203125 39.90625 9.109375 
Q 43.5 14.015625 43.5 23.390625 
z
" id="DejaVuSerif-103"/>
      <path d="M 39.796875 16.3125 
L 39.796875 27.296875 
L 28.21875 27.296875 
Q 21.53125 27.296875 18.25 24.40625 
Q 14.984375 21.53125 14.984375 15.578125 
Q 14.984375 10.15625 18.296875 6.984375 
Q 21.625 3.8125 27.296875 3.8125 
Q 32.90625 3.8125 36.34375 7.28125 
Q 39.796875 10.75 39.796875 16.3125 
z
M 48.78125 32.421875 
L 48.78125 5.171875 
L 56.78125 5.171875 
L 56.78125 0 
L 39.796875 0 
L 39.796875 5.609375 
Q 36.8125 2 32.90625 0.28125 
Q 29 -1.421875 23.78125 -1.421875 
Q 15.140625 -1.421875 10.0625 3.171875 
Q 4.984375 7.765625 4.984375 15.578125 
Q 4.984375 23.640625 10.796875 28.078125 
Q 16.609375 32.515625 27.203125 32.515625 
L 39.796875 32.515625 
L 39.796875 36.078125 
Q 39.796875 42 36.203125 45.234375 
Q 32.625 48.484375 26.125 48.484375 
Q 20.75 48.484375 17.578125 46.046875 
Q 14.40625 43.609375 13.625 38.8125 
L 8.984375 38.8125 
L 8.984375 49.3125 
Q 13.671875 51.3125 18.09375 52.3125 
Q 22.515625 53.328125 26.703125 53.328125 
Q 37.5 53.328125 43.140625 47.96875 
Q 48.78125 42.625 48.78125 32.421875 
z
" id="DejaVuSerif-97"/>
      <path d="M 51.8125 41.796875 
Q 54.390625 47.515625 58.421875 50.421875 
Q 62.453125 53.328125 67.828125 53.328125 
Q 75.984375 53.328125 79.984375 48.265625 
Q 83.984375 43.21875 83.984375 33.015625 
L 83.984375 5.171875 
L 92.09375 5.171875 
L 92.09375 0 
L 67.1875 0 
L 67.1875 5.171875 
L 75 5.171875 
L 75 31.984375 
Q 75 39.9375 72.65625 43.3125 
Q 70.3125 46.6875 64.890625 46.6875 
Q 58.890625 46.6875 55.734375 42.140625 
Q 52.59375 37.59375 52.59375 28.90625 
L 52.59375 5.171875 
L 60.40625 5.171875 
L 60.40625 0 
L 35.796875 0 
L 35.796875 5.171875 
L 43.609375 5.171875 
L 43.609375 32.328125 
Q 43.609375 40.09375 41.265625 43.390625 
Q 38.921875 46.6875 33.5 46.6875 
Q 27.484375 46.6875 24.328125 42.140625 
Q 21.1875 37.59375 21.1875 28.90625 
L 21.1875 5.171875 
L 29 5.171875 
L 29 0 
L 4.109375 0 
L 4.109375 5.171875 
L 12.203125 5.171875 
L 12.203125 46.78125 
L 3.609375 46.78125 
L 3.609375 51.90625 
L 21.1875 51.90625 
L 21.1875 42.671875 
Q 23.6875 47.859375 27.53125 50.59375 
Q 31.390625 53.328125 36.28125 53.328125 
Q 42.328125 53.328125 46.375 50.3125 
Q 50.4375 47.3125 51.8125 41.796875 
z
" id="DejaVuSerif-109"/>
     </defs>
     <use xlink:href="#DejaVuSerif-80"/>
     <use x="62.785156" xlink:href="#DejaVuSerif-101"/>
     <use x="121.964844" xlink:href="#DejaVuSerif-114"/>
     <use x="169.767578" xlink:href="#DejaVuSerif-105"/>
     <use x="201.75" xlink:href="#DejaVuSerif-111"/>
     <use x="261.955078" xlink:href="#DejaVuSerif-100"/>
     <use x="325.96875" xlink:href="#DejaVuSerif-111"/>
     <use x="386.173828" xlink:href="#DejaVuSerif-103"/>
     <use x="450.1875" xlink:href="#DejaVuSerif-114"/>
     <use x="497.990234" xlink:href="#DejaVuSerif-97"/>
     <use x="557.609375" xlink:href="#DejaVuSerif-109"/>
    </g>
   </g>
   <g id="legend_1">
    <g id="patch_7">
     <path d="M 419.648125 108.123071 
L 454.431875 108.123071 
Q 455.231875 108.123071 455.231875 107.323071 
L 455.231875 84.238071 
Q 455.231875 83.438071 454.431875 83.438071 
L 419.648125 83.438071 
Q 418.848125 83.438071 418.848125 84.238071 
L 418.848125 107.323071 
Q 418.848125 108.123071 419.648125 108.123071 
z
" style="fill:#ffffff;opacity:0.8;stroke:#cccccc;stroke-linejoin:miter;"/>
    </g>
    <g id="line2d_27">
     <path d="M 420.448125 86.677446 
L 428.448125 86.677446 
" style="fill:none;stroke:#808080;stroke-dasharray:5.55,2.4;stroke-dashoffset:0;stroke-width:1.5;"/>
    </g>
    <g id="text_9">
     <!-- 99.9% FAP -->
     <g transform="translate(431.648125 88.077446)scale(0.04 -0.04)">
      <defs>
       <path d="M 46.78125 32.671875 
Q 43.5 29 39.25 27.1875 
Q 35.015625 25.390625 29.6875 25.390625 
Q 18.84375 25.390625 12.5625 31.9375 
Q 6.296875 38.484375 6.296875 49.8125 
Q 6.296875 60.890625 13.109375 67.546875 
Q 19.921875 74.21875 31.296875 74.21875 
Q 43.65625 74.21875 50.265625 65.015625 
Q 56.890625 55.8125 56.890625 38.71875 
Q 56.890625 19.578125 49.015625 9.078125 
Q 41.15625 -1.421875 26.90625 -1.421875 
Q 23.046875 -1.421875 18.796875 -0.6875 
Q 14.546875 0.046875 10.109375 1.515625 
L 10.109375 13.625 
L 15.578125 13.625 
Q 16.21875 8.6875 19.390625 6.046875 
Q 22.5625 3.421875 27.875 3.421875 
Q 37.359375 3.421875 41.984375 10.5625 
Q 46.625 17.71875 46.78125 32.671875 
z
M 30.90625 69.390625 
Q 23.96875 69.390625 20.28125 64.328125 
Q 16.609375 59.28125 16.609375 49.8125 
Q 16.609375 40.328125 20.28125 35.25 
Q 23.96875 30.171875 30.90625 30.171875 
Q 37.84375 30.171875 41.53125 35.078125 
Q 45.21875 39.984375 45.21875 49.21875 
Q 45.21875 58.9375 41.5 64.15625 
Q 37.796875 69.390625 30.90625 69.390625 
z
" id="DejaVuSerif-57"/>
       <path d="M 22.40625 69.671875 
Q 18.109375 69.671875 15.6875 65.625 
Q 13.28125 61.578125 13.28125 54.296875 
Q 13.28125 47.125 15.75 43.015625 
Q 18.21875 38.921875 22.40625 38.921875 
Q 26.5625 38.921875 28.96875 43 
Q 31.390625 47.078125 31.390625 54.296875 
Q 31.390625 61.53125 28.96875 65.59375 
Q 26.5625 69.671875 22.40625 69.671875 
z
M 72.703125 33.890625 
Q 68.453125 33.890625 66.03125 29.78125 
Q 63.625 25.6875 63.625 18.40625 
Q 63.625 11.234375 66.0625 7.15625 
Q 68.5 3.078125 72.703125 3.078125 
Q 76.90625 3.078125 79.296875 7.15625 
Q 81.6875 11.234375 81.6875 18.40625 
Q 81.6875 25.640625 79.265625 29.765625 
Q 76.859375 33.890625 72.703125 33.890625 
z
M 72.703125 38.28125 
Q 80.421875 38.28125 84.953125 32.90625 
Q 89.5 27.546875 89.5 18.40625 
Q 89.5 9.28125 84.9375 3.921875 
Q 80.375 -1.421875 72.703125 -1.421875 
Q 64.890625 -1.421875 60.34375 3.921875 
Q 55.8125 9.28125 55.8125 18.40625 
Q 55.8125 27.59375 60.375 32.9375 
Q 64.9375 38.28125 72.703125 38.28125 
z
M 66.609375 74.21875 
L 74.03125 74.21875 
L 28.421875 -1.421875 
L 21 -1.421875 
z
M 22.3125 74.21875 
Q 30.03125 74.21875 34.609375 68.875 
Q 39.203125 63.53125 39.203125 54.390625 
Q 39.203125 45.171875 34.640625 39.84375 
Q 30.078125 34.515625 22.3125 34.515625 
Q 14.546875 34.515625 10.03125 39.859375 
Q 5.515625 45.21875 5.515625 54.390625 
Q 5.515625 63.484375 10.046875 68.84375 
Q 14.59375 74.21875 22.3125 74.21875 
z
" id="DejaVuSerif-37"/>
       <path d="M 5.515625 0 
L 5.515625 5.171875 
L 14.796875 5.171875 
L 14.796875 67.671875 
L 5.515625 67.671875 
L 5.515625 72.90625 
L 65.1875 72.90625 
L 65.1875 56.6875 
L 59.1875 56.6875 
L 59.1875 66.890625 
L 24.703125 66.890625 
L 24.703125 42.484375 
L 49.609375 42.484375 
L 49.609375 51.609375 
L 55.609375 51.609375 
L 55.609375 27.390625 
L 49.609375 27.390625 
L 49.609375 36.53125 
L 24.703125 36.53125 
L 24.703125 5.171875 
L 36.375 5.171875 
L 36.375 0 
z
" id="DejaVuSerif-70"/>
       <path d="M 20.015625 26.421875 
L 46.78125 26.421875 
L 33.40625 61.078125 
z
M -0.59375 0 
L -0.59375 5.171875 
L 5.8125 5.171875 
L 31.78125 72.90625 
L 39.984375 72.90625 
L 66.015625 5.171875 
L 73.1875 5.171875 
L 73.1875 0 
L 46.6875 0 
L 46.6875 5.171875 
L 54.78125 5.171875 
L 48.6875 21.1875 
L 18.015625 21.1875 
L 11.921875 5.171875 
L 19.921875 5.171875 
L 19.921875 0 
z
" id="DejaVuSerif-65"/>
      </defs>
      <use xlink:href="#DejaVuSerif-57"/>
      <use x="63.623047" xlink:href="#DejaVuSerif-57"/>
      <use x="127.246094" xlink:href="#DejaVuSerif-46"/>
      <use x="159.033203" xlink:href="#DejaVuSerif-57"/>
      <use x="222.65625" xlink:href="#DejaVuSerif-37"/>
      <use x="317.675781" xlink:href="#DejaVuSerif-32"/>
      <use x="349.462891" xlink:href="#DejaVuSerif-70"/>
      <use x="410.097656" xlink:href="#DejaVuSerif-65"/>
      <use x="482.314453" xlink:href="#DejaVuSerif-80"/>
     </g>
    </g>
    <g id="line2d_28">
     <path d="M 420.448125 92.548696 
L 428.448125 92.548696 
" style="fill:none;stroke:#a9a9a9;stroke-dasharray:5.55,2.4;stroke-dashoffset:0;stroke-width:1.5;"/>
    </g>
    <g id="text_10">
     <!-- 99.0% FAP -->
     <g transform="translate(431.648125 93.948696)scale(0.04 -0.04)">
      <use xlink:href="#DejaVuSerif-57"/>
      <use x="63.623047" xlink:href="#DejaVuSerif-57"/>
      <use x="127.246094" xlink:href="#DejaVuSerif-46"/>
      <use x="159.033203" xlink:href="#DejaVuSerif-48"/>
      <use x="222.65625" xlink:href="#DejaVuSerif-37"/>
      <use x="317.675781" xlink:href="#DejaVuSerif-32"/>
      <use x="349.462891" xlink:href="#DejaVuSerif-70"/>
      <use x="410.097656" xlink:href="#DejaVuSerif-65"/>
      <use x="482.314453" xlink:href="#DejaVuSerif-80"/>
     </g>
    </g>
    <g id="line2d_29">
     <path d="M 420.448125 98.419946 
L 428.448125 98.419946 
" style="fill:none;stroke:#c0c0c0;stroke-dasharray:5.55,2.4;stroke-dashoffset:0;stroke-width:1.5;"/>
    </g>
    <g id="text_11">
     <!-- 95.0% FAP -->
     <g transform="translate(431.648125 99.819946)scale(0.04 -0.04)">
      <defs>
       <path d="M 50.296875 72.90625 
L 50.296875 64.890625 
L 16.890625 64.890625 
L 16.890625 44 
Q 19.4375 45.75 22.828125 46.625 
Q 26.21875 47.515625 30.421875 47.515625 
Q 42.234375 47.515625 49.0625 40.96875 
Q 55.90625 34.421875 55.90625 23.09375 
Q 55.90625 11.53125 49 5.046875 
Q 42.09375 -1.421875 29.59375 -1.421875 
Q 24.5625 -1.421875 19.28125 -0.1875 
Q 14.015625 1.03125 8.5 3.515625 
L 8.5 17.671875 
L 14.015625 17.671875 
Q 14.453125 10.75 18.421875 7.078125 
Q 22.40625 3.421875 29.59375 3.421875 
Q 37.3125 3.421875 41.453125 8.5 
Q 45.609375 13.578125 45.609375 23.09375 
Q 45.609375 32.5625 41.484375 37.609375 
Q 37.359375 42.671875 29.59375 42.671875 
Q 25.203125 42.671875 21.84375 41.109375 
Q 18.5 39.546875 15.921875 36.28125 
L 11.71875 36.28125 
L 11.71875 72.90625 
z
" id="DejaVuSerif-53"/>
      </defs>
      <use xlink:href="#DejaVuSerif-57"/>
      <use x="63.623047" xlink:href="#DejaVuSerif-53"/>
      <use x="127.246094" xlink:href="#DejaVuSerif-46"/>
      <use x="159.033203" xlink:href="#DejaVuSerif-48"/>
      <use x="222.65625" xlink:href="#DejaVuSerif-37"/>
      <use x="317.675781" xlink:href="#DejaVuSerif-32"/>
      <use x="349.462891" xlink:href="#DejaVuSerif-70"/>
      <use x="410.097656" xlink:href="#DejaVuSerif-65"/>
      <use x="482.314453" xlink:href="#DejaVuSerif-80"/>
     </g>
    </g>
    <g id="line2d_30">
     <path d="M 420.448125 104.291196 
L 428.448125 104.291196 
" style="fill:none;stroke:#d3d3d3;stroke-dasharray:5.55,2.4;stroke-dashoffset:0;stroke-width:1.5;"/>
    </g>
    <g id="text_12">
     <!-- 90.0% FAP -->
     <g transform="translate(431.648125 105.691196)scale(0.04 -0.04)">
      <use xlink:href="#DejaVuSerif-57"/>
      <use x="63.623047" xlink:href="#DejaVuSerif-48"/>
      <use x="127.246094" xlink:href="#DejaVuSerif-46"/>
      <use x="159.033203" xlink:href="#DejaVuSerif-48"/>
      <use x="222.65625" xlink:href="#DejaVuSerif-37"/>
      <use x="317.675781" xlink:href="#DejaVuSerif-32"/>
      <use x="349.462891" xlink:href="#DejaVuSerif-70"/>
      <use x="410.097656" xlink:href="#DejaVuSerif-65"/>
      <use x="482.314453" xlink:href="#DejaVuSerif-80"/>
     </g>
    </g>
   </g>
  </g>
  <g id="axes_2">
   <g id="patch_8">
    <path d="M 57.6 150.089143 
L 206.4 150.089143 
L 206.4 41.472 
L 57.6 41.472 
z
" style="fill:#ffffff;"/>
   </g>
   <g id="PathCollection_1">
    <defs>
     <path d="M 0 0.707107 
C 0.187527 0.707107 0.367398 0.632602 0.5 0.5 
C 0.632602 0.367398 0.707107 0.187527 0.707107 0 
C 0.707107 -0.187527 0.632602 -0.367398 0.5 -0.5 
C 0.367398 -0.632602 0.187527 -0.707107 0 -0.707107 
C -0.187527 -0.707107 -0.367398 -0.632602 -0.5 -0.5 
C -0.632602 -0.367398 -0.707107 -0.187527 -0.707107 0 
C -0.707107 0.187527 -0.632602 0.367398 -0.5 0.5 
C -0.367398 0.632602 -0.187527 0.707107 0 0.707107 
z
" id="m28c4d10b5f" style="stroke:#1f77b4;"/>
    </defs>
    <g clip-path="url(#pcc47e7cd24)">
     <use style="fill:#1f77b4;stroke:#1f77b4;" x="96.451884" xlink:href="#m28c4d10b5f" y="61.209785"/>
     <use style="fill:#1f77b4;stroke:#1f77b4;" x="96.453415" xlink:href="#m28c4d10b5f" y="51.193645"/>
     <use style="fill:#1f77b4;stroke:#1f77b4;" x="109.730345" xlink:href="#m28c4d10b5f" y="91.176289"/>
     <use style="fill:#1f77b4;stroke:#1f77b4;" x="109.731876" xlink:href="#m28c4d10b5f" y="97.292463"/>
     <use style="fill:#1f77b4;stroke:#1f77b4;" x="116.63477" xlink:href="#m28c4d10b5f" y="87.138991"/>
     <use style="fill:#1f77b4;stroke:#1f77b4;" x="126.451565" xlink:href="#m28c4d10b5f" y="80.419627"/>
     <use style="fill:#1f77b4;stroke:#1f77b4;" x="126.462207" xlink:href="#m28c4d10b5f" y="89.250241"/>
     <use style="fill:#1f77b4;stroke:#1f77b4;" x="74.011651" xlink:href="#m28c4d10b5f" y="90.951627"/>
     <use style="fill:#1f77b4;stroke:#1f77b4;" x="77.315677" xlink:href="#m28c4d10b5f" y="75.49065"/>
     <use style="fill:#1f77b4;stroke:#1f77b4;" x="77.31717" xlink:href="#m28c4d10b5f" y="84.11469"/>
     <use style="fill:#1f77b4;stroke:#1f77b4;" x="83.99987" xlink:href="#m28c4d10b5f" y="46.409143"/>
     <use style="fill:#1f77b4;stroke:#1f77b4;" x="84.001401" xlink:href="#m28c4d10b5f" y="86.497897"/>
     <use style="fill:#1f77b4;stroke:#1f77b4;" x="90.509998" xlink:href="#m28c4d10b5f" y="65.348757"/>
     <use style="fill:#1f77b4;stroke:#1f77b4;" x="90.511529" xlink:href="#m28c4d10b5f" y="62.276125"/>
     <use style="fill:#1f77b4;stroke:#1f77b4;" x="93.785044" xlink:href="#m28c4d10b5f" y="65.407515"/>
     <use style="fill:#1f77b4;stroke:#1f77b4;" x="93.786575" xlink:href="#m28c4d10b5f" y="70.612827"/>
     <use style="fill:#1f77b4;stroke:#1f77b4;" x="97.269222" xlink:href="#m28c4d10b5f" y="74.639122"/>
     <use style="fill:#1f77b4;stroke:#1f77b4;" x="97.270715" xlink:href="#m28c4d10b5f" y="70.552398"/>
     <use style="fill:#1f77b4;stroke:#1f77b4;" x="100.434133" xlink:href="#m28c4d10b5f" y="85.495845"/>
     <use style="fill:#1f77b4;stroke:#1f77b4;" x="100.435665" xlink:href="#m28c4d10b5f" y="57.477912"/>
     <use style="fill:#1f77b4;stroke:#1f77b4;" x="103.738503" xlink:href="#m28c4d10b5f" y="55.106803"/>
     <use style="fill:#1f77b4;stroke:#1f77b4;" x="103.739996" xlink:href="#m28c4d10b5f" y="61.77674"/>
     <use style="fill:#1f77b4;stroke:#1f77b4;" x="64.363636" xlink:href="#m28c4d10b5f" y="71.228632"/>
     <use style="fill:#1f77b4;stroke:#1f77b4;" x="87.327053" xlink:href="#m28c4d10b5f" y="58.059097"/>
     <use style="fill:#1f77b4;stroke:#1f77b4;" x="90.619518" xlink:href="#m28c4d10b5f" y="48.345675"/>
     <use style="fill:#1f77b4;stroke:#1f77b4;" x="93.927793" xlink:href="#m28c4d10b5f" y="79.055523"/>
     <use style="fill:#1f77b4;stroke:#1f77b4;" x="97.229215" xlink:href="#m28c4d10b5f" y="80.797579"/>
     <use style="fill:#1f77b4;stroke:#1f77b4;" x="100.550659" xlink:href="#m28c4d10b5f" y="81.894161"/>
     <use style="fill:#1f77b4;stroke:#1f77b4;" x="71.123777" xlink:href="#m28c4d10b5f" y="82.16992"/>
     <use style="fill:#1f77b4;stroke:#1f77b4;" x="100.226681" xlink:href="#m28c4d10b5f" y="66.663896"/>
     <use style="fill:#1f77b4;stroke:#1f77b4;" x="104.016766" xlink:href="#m28c4d10b5f" y="67.66157"/>
     <use style="fill:#1f77b4;stroke:#1f77b4;" x="107.385295" xlink:href="#m28c4d10b5f" y="57.238388"/>
     <use style="fill:#1f77b4;stroke:#1f77b4;" x="130.469719" xlink:href="#m28c4d10b5f" y="106.064261"/>
     <use style="fill:#1f77b4;stroke:#1f77b4;" x="71.28892" xlink:href="#m28c4d10b5f" y="64.552127"/>
     <use style="fill:#1f77b4;stroke:#1f77b4;" x="64.578653" xlink:href="#m28c4d10b5f" y="57.343288"/>
     <use style="fill:#1f77b4;stroke:#1f77b4;" x="77.808613" xlink:href="#m28c4d10b5f" y="72.535073"/>
     <use style="fill:#1f77b4;stroke:#1f77b4;" x="110.859091" xlink:href="#m28c4d10b5f" y="83.579072"/>
     <use style="fill:#1f77b4;stroke:#1f77b4;" x="123.860265" xlink:href="#m28c4d10b5f" y="117.194554"/>
     <use style="fill:#1f77b4;stroke:#1f77b4;" x="114.829879" xlink:href="#m28c4d10b5f" y="91.28839"/>
     <use style="fill:#1f77b4;stroke:#1f77b4;" x="114.952301" xlink:href="#m28c4d10b5f" y="105.450645"/>
     <use style="fill:#1f77b4;stroke:#1f77b4;" x="114.953794" xlink:href="#m28c4d10b5f" y="110.373516"/>
     <use style="fill:#1f77b4;stroke:#1f77b4;" x="118.175361" xlink:href="#m28c4d10b5f" y="138.292021"/>
     <use style="fill:#1f77b4;stroke:#1f77b4;" x="118.176854" xlink:href="#m28c4d10b5f" y="125.875162"/>
     <use style="fill:#1f77b4;stroke:#1f77b4;" x="121.340234" xlink:href="#m28c4d10b5f" y="137.92945"/>
     <use style="fill:#1f77b4;stroke:#1f77b4;" x="121.341727" xlink:href="#m28c4d10b5f" y="145.152"/>
    </g>
   </g>
   <g id="PathCollection_2">
    <g clip-path="url(#pcc47e7cd24)">
     <use style="fill:#1f77b4;stroke:#1f77b4;" x="165.618528" xlink:href="#m28c4d10b5f" y="61.209785"/>
     <use style="fill:#1f77b4;stroke:#1f77b4;" x="165.62006" xlink:href="#m28c4d10b5f" y="51.193645"/>
     <use style="fill:#1f77b4;stroke:#1f77b4;" x="178.896989" xlink:href="#m28c4d10b5f" y="91.176289"/>
     <use style="fill:#1f77b4;stroke:#1f77b4;" x="178.89852" xlink:href="#m28c4d10b5f" y="97.292463"/>
     <use style="fill:#1f77b4;stroke:#1f77b4;" x="185.801414" xlink:href="#m28c4d10b5f" y="87.138991"/>
     <use style="fill:#1f77b4;stroke:#1f77b4;" x="195.618209" xlink:href="#m28c4d10b5f" y="80.419627"/>
     <use style="fill:#1f77b4;stroke:#1f77b4;" x="195.628851" xlink:href="#m28c4d10b5f" y="89.250241"/>
     <use style="fill:#1f77b4;stroke:#1f77b4;" x="143.178295" xlink:href="#m28c4d10b5f" y="90.951627"/>
     <use style="fill:#1f77b4;stroke:#1f77b4;" x="146.482321" xlink:href="#m28c4d10b5f" y="75.49065"/>
     <use style="fill:#1f77b4;stroke:#1f77b4;" x="146.483814" xlink:href="#m28c4d10b5f" y="84.11469"/>
     <use style="fill:#1f77b4;stroke:#1f77b4;" x="153.166514" xlink:href="#m28c4d10b5f" y="46.409143"/>
     <use style="fill:#1f77b4;stroke:#1f77b4;" x="153.168045" xlink:href="#m28c4d10b5f" y="86.497897"/>
     <use style="fill:#1f77b4;stroke:#1f77b4;" x="159.676642" xlink:href="#m28c4d10b5f" y="65.348757"/>
     <use style="fill:#1f77b4;stroke:#1f77b4;" x="159.678173" xlink:href="#m28c4d10b5f" y="62.276125"/>
     <use style="fill:#1f77b4;stroke:#1f77b4;" x="162.951689" xlink:href="#m28c4d10b5f" y="65.407515"/>
     <use style="fill:#1f77b4;stroke:#1f77b4;" x="162.95322" xlink:href="#m28c4d10b5f" y="70.612827"/>
     <use style="fill:#1f77b4;stroke:#1f77b4;" x="166.435866" xlink:href="#m28c4d10b5f" y="74.639122"/>
     <use style="fill:#1f77b4;stroke:#1f77b4;" x="166.437359" xlink:href="#m28c4d10b5f" y="70.552398"/>
     <use style="fill:#1f77b4;stroke:#1f77b4;" x="169.600777" xlink:href="#m28c4d10b5f" y="85.495845"/>
     <use style="fill:#1f77b4;stroke:#1f77b4;" x="169.602309" xlink:href="#m28c4d10b5f" y="57.477912"/>
     <use style="fill:#1f77b4;stroke:#1f77b4;" x="172.905148" xlink:href="#m28c4d10b5f" y="55.106803"/>
     <use style="fill:#1f77b4;stroke:#1f77b4;" x="172.906641" xlink:href="#m28c4d10b5f" y="61.77674"/>
     <use style="fill:#1f77b4;stroke:#1f77b4;" x="133.530281" xlink:href="#m28c4d10b5f" y="71.228632"/>
     <use style="fill:#1f77b4;stroke:#1f77b4;" x="156.493697" xlink:href="#m28c4d10b5f" y="58.059097"/>
     <use style="fill:#1f77b4;stroke:#1f77b4;" x="159.786162" xlink:href="#m28c4d10b5f" y="48.345675"/>
     <use style="fill:#1f77b4;stroke:#1f77b4;" x="163.094437" xlink:href="#m28c4d10b5f" y="79.055523"/>
     <use style="fill:#1f77b4;stroke:#1f77b4;" x="166.39586" xlink:href="#m28c4d10b5f" y="80.797579"/>
     <use style="fill:#1f77b4;stroke:#1f77b4;" x="169.717303" xlink:href="#m28c4d10b5f" y="81.894161"/>
     <use style="fill:#1f77b4;stroke:#1f77b4;" x="140.290422" xlink:href="#m28c4d10b5f" y="82.16992"/>
     <use style="fill:#1f77b4;stroke:#1f77b4;" x="169.393326" xlink:href="#m28c4d10b5f" y="66.663896"/>
     <use style="fill:#1f77b4;stroke:#1f77b4;" x="173.18341" xlink:href="#m28c4d10b5f" y="67.66157"/>
     <use style="fill:#1f77b4;stroke:#1f77b4;" x="176.55194" xlink:href="#m28c4d10b5f" y="57.238388"/>
     <use style="fill:#1f77b4;stroke:#1f77b4;" x="199.636364" xlink:href="#m28c4d10b5f" y="106.064261"/>
     <use style="fill:#1f77b4;stroke:#1f77b4;" x="140.455565" xlink:href="#m28c4d10b5f" y="64.552127"/>
     <use style="fill:#1f77b4;stroke:#1f77b4;" x="133.745297" xlink:href="#m28c4d10b5f" y="57.343288"/>
     <use style="fill:#1f77b4;stroke:#1f77b4;" x="146.975258" xlink:href="#m28c4d10b5f" y="72.535073"/>
     <use style="fill:#1f77b4;stroke:#1f77b4;" x="180.025736" xlink:href="#m28c4d10b5f" y="83.579072"/>
     <use style="fill:#1f77b4;stroke:#1f77b4;" x="193.026909" xlink:href="#m28c4d10b5f" y="117.194554"/>
     <use style="fill:#1f77b4;stroke:#1f77b4;" x="183.996524" xlink:href="#m28c4d10b5f" y="91.28839"/>
     <use style="fill:#1f77b4;stroke:#1f77b4;" x="184.118945" xlink:href="#m28c4d10b5f" y="105.450645"/>
     <use style="fill:#1f77b4;stroke:#1f77b4;" x="184.120438" xlink:href="#m28c4d10b5f" y="110.373516"/>
     <use style="fill:#1f77b4;stroke:#1f77b4;" x="187.342005" xlink:href="#m28c4d10b5f" y="138.292021"/>
     <use style="fill:#1f77b4;stroke:#1f77b4;" x="187.343498" xlink:href="#m28c4d10b5f" y="125.875162"/>
     <use style="fill:#1f77b4;stroke:#1f77b4;" x="190.506878" xlink:href="#m28c4d10b5f" y="137.92945"/>
     <use style="fill:#1f77b4;stroke:#1f77b4;" x="190.508371" xlink:href="#m28c4d10b5f" y="145.152"/>
    </g>
   </g>
   <g id="matplotlib.axis_3">
    <g id="xtick_23">
     <g id="line2d_31">
      <g>
       <use style="stroke:#000000;stroke-width:0.8;" x="61.447879" xlink:href="#me840f58408" y="150.089143"/>
      </g>
     </g>
     <g id="text_13">
      <!-- 0 -->
      <g transform="translate(58.266629 164.68758)scale(0.1 -0.1)">
       <use xlink:href="#DejaVuSerif-48"/>
      </g>
     </g>
    </g>
    <g id="xtick_24">
     <g id="line2d_32">
      <g>
       <use style="stroke:#000000;stroke-width:0.8;" x="130.614523" xlink:href="#me840f58408" y="150.089143"/>
      </g>
     </g>
     <g id="text_14">
      <!-- 1 -->
      <g transform="translate(127.433273 164.68758)scale(0.1 -0.1)">
       <use xlink:href="#DejaVuSerif-49"/>
      </g>
     </g>
    </g>
    <g id="xtick_25">
     <g id="line2d_33">
      <g>
       <use style="stroke:#000000;stroke-width:0.8;" x="199.781168" xlink:href="#me840f58408" y="150.089143"/>
      </g>
     </g>
     <g id="text_15">
      <!-- 2 -->
      <g transform="translate(196.599918 164.68758)scale(0.1 -0.1)">
       <use xlink:href="#DejaVuSerif-50"/>
      </g>
     </g>
    </g>
    <g id="text_16">
     <!-- Phase (P = 20.912 d) -->
     <g transform="translate(78.401562 178.365705)scale(0.1 -0.1)">
      <defs>
       <path d="M 4.109375 0 
L 4.109375 5.171875 
L 12.203125 5.171875 
L 12.203125 70.796875 
L 3.609375 70.796875 
L 3.609375 75.984375 
L 21.1875 75.984375 
L 21.1875 42.671875 
Q 23.6875 47.953125 27.65625 50.640625 
Q 31.640625 53.328125 36.921875 53.328125 
Q 45.515625 53.328125 49.5625 48.390625 
Q 53.609375 43.453125 53.609375 33.015625 
L 53.609375 5.171875 
L 61.625 5.171875 
L 61.625 0 
L 36.8125 0 
L 36.8125 5.171875 
L 44.578125 5.171875 
L 44.578125 30.171875 
Q 44.578125 39.703125 42.25 43.1875 
Q 39.9375 46.6875 33.984375 46.6875 
Q 27.734375 46.6875 24.453125 42.140625 
Q 21.1875 37.59375 21.1875 28.90625 
L 21.1875 5.171875 
L 29 5.171875 
L 29 0 
z
" id="DejaVuSerif-104"/>
       <path d="M 5.609375 2.875 
L 5.609375 14.984375 
L 10.796875 14.984375 
Q 10.984375 9.1875 14.421875 6.296875 
Q 17.875 3.421875 24.609375 3.421875 
Q 30.671875 3.421875 33.84375 5.6875 
Q 37.015625 7.953125 37.015625 12.3125 
Q 37.015625 15.71875 34.6875 17.8125 
Q 32.375 19.921875 24.90625 22.3125 
L 18.40625 24.515625 
Q 11.71875 26.65625 8.71875 29.875 
Q 5.71875 33.109375 5.71875 38.09375 
Q 5.71875 45.21875 10.9375 49.265625 
Q 16.15625 53.328125 25.390625 53.328125 
Q 29.5 53.328125 34.03125 52.25 
Q 38.578125 51.171875 43.40625 49.125 
L 43.40625 37.796875 
L 38.234375 37.796875 
Q 38.03125 42.828125 34.703125 45.65625 
Q 31.390625 48.484375 25.6875 48.484375 
Q 20.015625 48.484375 17.109375 46.484375 
Q 14.203125 44.484375 14.203125 40.484375 
Q 14.203125 37.203125 16.40625 35.21875 
Q 18.609375 33.25 25.203125 31.203125 
L 32.328125 29 
Q 39.703125 26.703125 42.9375 23.265625 
Q 46.1875 19.828125 46.1875 14.40625 
Q 46.1875 7.03125 40.546875 2.796875 
Q 34.90625 -1.421875 25 -1.421875 
Q 19.96875 -1.421875 15.1875 -0.34375 
Q 10.40625 0.734375 5.609375 2.875 
z
" id="DejaVuSerif-115"/>
       <path d="M 31.890625 -15.578125 
Q 20.015625 -10.25 13.953125 1.296875 
Q 7.90625 12.84375 7.90625 30.171875 
Q 7.90625 47.5625 13.953125 59.109375 
Q 20.015625 70.65625 31.890625 75.984375 
L 31.890625 71.1875 
Q 24.359375 66.015625 21.09375 56.609375 
Q 17.828125 47.21875 17.828125 30.171875 
Q 17.828125 13.1875 21.09375 3.78125 
Q 24.359375 -5.609375 31.890625 -10.796875 
z
" id="DejaVuSerif-40"/>
       <path d="M 10.59375 45.21875 
L 73.1875 45.21875 
L 73.1875 37.40625 
L 10.59375 37.40625 
z
M 10.59375 25.296875 
L 73.1875 25.296875 
L 73.1875 17.484375 
L 10.59375 17.484375 
z
" id="DejaVuSerif-61"/>
       <path d="M 7.078125 -15.578125 
L 7.078125 -10.796875 
Q 14.59375 -5.609375 17.890625 3.78125 
Q 21.1875 13.1875 21.1875 30.171875 
Q 21.1875 47.21875 17.890625 56.609375 
Q 14.59375 66.015625 7.078125 71.1875 
L 7.078125 75.984375 
Q 19 70.65625 25.046875 59.109375 
Q 31.109375 47.5625 31.109375 30.171875 
Q 31.109375 12.84375 25.046875 1.296875 
Q 19 -10.25 7.078125 -15.578125 
z
" id="DejaVuSerif-41"/>
      </defs>
      <use xlink:href="#DejaVuSerif-80"/>
      <use x="67.285156" xlink:href="#DejaVuSerif-104"/>
      <use x="131.689453" xlink:href="#DejaVuSerif-97"/>
      <use x="191.308594" xlink:href="#DejaVuSerif-115"/>
      <use x="242.626953" xlink:href="#DejaVuSerif-101"/>
      <use x="301.806641" xlink:href="#DejaVuSerif-32"/>
      <use x="333.59375" xlink:href="#DejaVuSerif-40"/>
      <use x="372.607422" xlink:href="#DejaVuSerif-80"/>
      <use x="439.892578" xlink:href="#DejaVuSerif-32"/>
      <use x="471.679688" xlink:href="#DejaVuSerif-61"/>
      <use x="555.46875" xlink:href="#DejaVuSerif-32"/>
      <use x="587.255859" xlink:href="#DejaVuSerif-50"/>
      <use x="650.878906" xlink:href="#DejaVuSerif-48"/>
      <use x="714.501953" xlink:href="#DejaVuSerif-46"/>
      <use x="746.289062" xlink:href="#DejaVuSerif-57"/>
      <use x="809.912109" xlink:href="#DejaVuSerif-49"/>
      <use x="873.535156" xlink:href="#DejaVuSerif-50"/>
      <use x="937.158203" xlink:href="#DejaVuSerif-32"/>
      <use x="968.945312" xlink:href="#DejaVuSerif-100"/>
      <use x="1032.958984" xlink:href="#DejaVuSerif-41"/>
     </g>
    </g>
   </g>
   <g id="matplotlib.axis_4">
    <g id="ytick_4">
     <g id="line2d_34">
      <g>
       <use style="stroke:#000000;stroke-width:0.8;" x="57.6" xlink:href="#mfb764c952b" y="56.420789"/>
      </g>
     </g>
     <g id="text_17">
      <!-- 15.05 -->
      <g transform="translate(21.971875 60.220008)scale(0.1 -0.1)">
       <use xlink:href="#DejaVuSerif-49"/>
       <use x="63.623047" xlink:href="#DejaVuSerif-53"/>
       <use x="127.246094" xlink:href="#DejaVuSerif-46"/>
       <use x="159.033203" xlink:href="#DejaVuSerif-48"/>
       <use x="222.65625" xlink:href="#DejaVuSerif-53"/>
      </g>
     </g>
    </g>
    <g id="ytick_5">
     <g id="line2d_35">
      <g>
       <use style="stroke:#000000;stroke-width:0.8;" x="57.6" xlink:href="#mfb764c952b" y="85.223658"/>
      </g>
     </g>
     <g id="text_18">
      <!-- 15.10 -->
      <g transform="translate(21.971875 89.022876)scale(0.1 -0.1)">
       <use xlink:href="#DejaVuSerif-49"/>
       <use x="63.623047" xlink:href="#DejaVuSerif-53"/>
       <use x="127.246094" xlink:href="#DejaVuSerif-46"/>
       <use x="159.033203" xlink:href="#DejaVuSerif-49"/>
       <use x="222.65625" xlink:href="#DejaVuSerif-48"/>
      </g>
     </g>
    </g>
    <g id="ytick_6">
     <g id="line2d_36">
      <g>
       <use style="stroke:#000000;stroke-width:0.8;" x="57.6" xlink:href="#mfb764c952b" y="114.026526"/>
      </g>
     </g>
     <g id="text_19">
      <!-- 15.15 -->
      <g transform="translate(21.971875 117.825745)scale(0.1 -0.1)">
       <use xlink:href="#DejaVuSerif-49"/>
       <use x="63.623047" xlink:href="#DejaVuSerif-53"/>
       <use x="127.246094" xlink:href="#DejaVuSerif-46"/>
       <use x="159.033203" xlink:href="#DejaVuSerif-49"/>
       <use x="222.65625" xlink:href="#DejaVuSerif-53"/>
      </g>
     </g>
    </g>
    <g id="ytick_7">
     <g id="line2d_37">
      <g>
       <use style="stroke:#000000;stroke-width:0.8;" x="57.6" xlink:href="#mfb764c952b" y="142.829394"/>
      </g>
     </g>
     <g id="text_20">
      <!-- 15.20 -->
      <g transform="translate(21.971875 146.628613)scale(0.1 -0.1)">
       <use xlink:href="#DejaVuSerif-49"/>
       <use x="63.623047" xlink:href="#DejaVuSerif-53"/>
       <use x="127.246094" xlink:href="#DejaVuSerif-46"/>
       <use x="159.033203" xlink:href="#DejaVuSerif-50"/>
       <use x="222.65625" xlink:href="#DejaVuSerif-48"/>
      </g>
     </g>
    </g>
    <g id="text_21">
     <!-- Mag -->
     <g transform="translate(15.75 107.082134)rotate(-90)scale(0.1 -0.1)">
      <defs>
       <path d="M 5.515625 0 
L 5.515625 5.171875 
L 14.796875 5.171875 
L 14.796875 67.671875 
L 4.984375 67.671875 
L 4.984375 72.90625 
L 26.21875 72.90625 
L 51.8125 21 
L 77.390625 72.90625 
L 97.3125 72.90625 
L 97.3125 67.671875 
L 87.59375 67.671875 
L 87.59375 5.171875 
L 96.921875 5.171875 
L 96.921875 0 
L 68.40625 0 
L 68.40625 5.171875 
L 77.6875 5.171875 
L 77.6875 61.53125 
L 52.6875 10.6875 
L 45.796875 10.6875 
L 20.796875 61.53125 
L 20.796875 5.171875 
L 30.078125 5.171875 
L 30.078125 0 
z
" id="DejaVuSerif-77"/>
      </defs>
      <use xlink:href="#DejaVuSerif-77"/>
      <use x="102.392578" xlink:href="#DejaVuSerif-97"/>
      <use x="162.011719" xlink:href="#DejaVuSerif-103"/>
     </g>
    </g>
   </g>
   <g id="patch_9">
    <path d="M 57.6 150.089143 
L 57.6 41.472 
" style="fill:none;stroke:#000000;stroke-linecap:square;stroke-linejoin:miter;stroke-width:0.8;"/>
   </g>
   <g id="patch_10">
    <path d="M 206.4 150.089143 
L 206.4 41.472 
" style="fill:none;stroke:#000000;stroke-linecap:square;stroke-linejoin:miter;stroke-width:0.8;"/>
   </g>
   <g id="patch_11">
    <path d="M 57.6 150.089143 
L 206.4 150.089143 
" style="fill:none;stroke:#000000;stroke-linecap:square;stroke-linejoin:miter;stroke-width:0.8;"/>
   </g>
   <g id="patch_12">
    <path d="M 57.6 41.472 
L 206.4 41.472 
" style="fill:none;stroke:#000000;stroke-linecap:square;stroke-linejoin:miter;stroke-width:0.8;"/>
   </g>
   <g id="text_22">
    <!-- Folded Light Curve -->
    <g transform="translate(83.086719 35.472)scale(0.1 -0.1)">
     <defs>
      <path d="M 20.515625 5.171875 
L 29 5.171875 
L 29 0 
L 2.875 0 
L 2.875 5.171875 
L 11.53125 5.171875 
L 11.53125 70.796875 
L 2.875 70.796875 
L 2.875 75.984375 
L 20.515625 75.984375 
z
" id="DejaVuSerif-108"/>
      <path d="M 5.515625 0 
L 5.515625 5.171875 
L 14.796875 5.171875 
L 14.796875 67.671875 
L 5.515625 67.671875 
L 5.515625 72.90625 
L 33.984375 72.90625 
L 33.984375 67.671875 
L 24.703125 67.671875 
L 24.703125 6 
L 58.015625 6 
L 58.015625 18.21875 
L 64.015625 18.21875 
L 64.015625 0 
z
" id="DejaVuSerif-76"/>
      <path d="M 10.796875 46.6875 
L 2.875 46.6875 
L 2.875 51.90625 
L 10.796875 51.90625 
L 10.796875 68.015625 
L 19.828125 68.015625 
L 19.828125 51.90625 
L 36.71875 51.90625 
L 36.71875 46.6875 
L 19.828125 46.6875 
L 19.828125 13.71875 
Q 19.828125 7.125 21.09375 5.265625 
Q 22.359375 3.421875 25.78125 3.421875 
Q 29.296875 3.421875 30.90625 5.484375 
Q 32.515625 7.5625 32.625 12.203125 
L 39.40625 12.203125 
Q 39.015625 5.125 35.546875 1.84375 
Q 32.078125 -1.421875 25 -1.421875 
Q 17.234375 -1.421875 14.015625 2.015625 
Q 10.796875 5.46875 10.796875 13.71875 
z
" id="DejaVuSerif-116"/>
      <path d="M 70.515625 19.28125 
Q 67.28125 9.078125 59.6875 3.828125 
Q 52.09375 -1.421875 40.484375 -1.421875 
Q 33.34375 -1.421875 27.234375 1.015625 
Q 21.140625 3.46875 16.40625 8.203125 
Q 10.9375 13.671875 8.265625 20.625 
Q 5.609375 27.59375 5.609375 36.375 
Q 5.609375 53.375 15.421875 63.796875 
Q 25.25 74.21875 41.3125 74.21875 
Q 47.265625 74.21875 54 72.65625 
Q 60.75 71.09375 68.5 67.921875 
L 68.5 51.125 
L 62.984375 51.125 
Q 61.1875 60.296875 55.734375 64.640625 
Q 50.296875 69 40.484375 69 
Q 28.8125 69 22.796875 60.71875 
Q 16.796875 52.4375 16.796875 36.375 
Q 16.796875 20.359375 22.796875 12.078125 
Q 28.8125 3.8125 40.484375 3.8125 
Q 48.640625 3.8125 53.90625 7.6875 
Q 59.1875 11.578125 61.53125 19.28125 
z
" id="DejaVuSerif-67"/>
      <path d="M 35.40625 51.90625 
L 52.203125 51.90625 
L 52.203125 5.171875 
L 60.6875 5.171875 
L 60.6875 0 
L 43.21875 0 
L 43.21875 9.1875 
Q 40.71875 4 36.765625 1.28125 
Q 32.8125 -1.421875 27.59375 -1.421875 
Q 18.953125 -1.421875 14.875 3.484375 
Q 10.796875 8.40625 10.796875 18.890625 
L 10.796875 46.6875 
L 2.6875 46.6875 
L 2.6875 51.90625 
L 19.828125 51.90625 
L 19.828125 21.6875 
Q 19.828125 12.203125 22.140625 8.6875 
Q 24.46875 5.171875 30.421875 5.171875 
Q 36.671875 5.171875 39.9375 9.765625 
Q 43.21875 14.359375 43.21875 23.09375 
L 43.21875 46.6875 
L 35.40625 46.6875 
z
" id="DejaVuSerif-117"/>
      <path d="M 24.703125 0 
L 5.609375 46.6875 
L -0.296875 46.6875 
L -0.296875 51.90625 
L 23.578125 51.90625 
L 23.578125 46.6875 
L 15.28125 46.6875 
L 29.890625 10.984375 
L 44.484375 46.6875 
L 36.71875 46.6875 
L 36.71875 51.90625 
L 56.203125 51.90625 
L 56.203125 46.6875 
L 50.390625 46.6875 
L 31.296875 0 
z
" id="DejaVuSerif-118"/>
     </defs>
     <use xlink:href="#DejaVuSerif-70"/>
     <use x="63.884766" xlink:href="#DejaVuSerif-111"/>
     <use x="124.089844" xlink:href="#DejaVuSerif-108"/>
     <use x="156.072266" xlink:href="#DejaVuSerif-100"/>
     <use x="220.085938" xlink:href="#DejaVuSerif-101"/>
     <use x="279.265625" xlink:href="#DejaVuSerif-100"/>
     <use x="343.279297" xlink:href="#DejaVuSerif-32"/>
     <use x="375.066406" xlink:href="#DejaVuSerif-76"/>
     <use x="441.472656" xlink:href="#DejaVuSerif-105"/>
     <use x="473.455078" xlink:href="#DejaVuSerif-103"/>
     <use x="537.46875" xlink:href="#DejaVuSerif-104"/>
     <use x="601.873047" xlink:href="#DejaVuSerif-116"/>
     <use x="642.058594" xlink:href="#DejaVuSerif-32"/>
     <use x="673.845703" xlink:href="#DejaVuSerif-67"/>
     <use x="750.359375" xlink:href="#DejaVuSerif-117"/>
     <use x="814.763672" xlink:href="#DejaVuSerif-114"/>
     <use x="862.566406" xlink:href="#DejaVuSerif-118"/>
     <use x="919.060547" xlink:href="#DejaVuSerif-101"/>
    </g>
   </g>
  </g>
  <g id="axes_3">
   <g id="patch_13">
    <path d="M 57.6 307.584 
L 414.72 307.584 
L 414.72 198.966857 
L 57.6 198.966857 
z
" style="fill:#ffffff;"/>
   </g>
   <g id="PathCollection_3">
    <g clip-path="url(#pc80078f338)">
     <use style="fill:#1f77b4;stroke:#1f77b4;" x="73.832727" xlink:href="#m28c4d10b5f" y="224.547973"/>
     <use style="fill:#1f77b4;stroke:#1f77b4;" x="73.833119" xlink:href="#m28c4d10b5f" y="216.221197"/>
     <use style="fill:#1f77b4;stroke:#1f77b4;" x="94.910293" xlink:href="#m28c4d10b5f" y="249.460201"/>
     <use style="fill:#1f77b4;stroke:#1f77b4;" x="94.910684" xlink:href="#m28c4d10b5f" y="254.544796"/>
     <use style="fill:#1f77b4;stroke:#1f77b4;" x="96.675449" xlink:href="#m28c4d10b5f" y="246.103851"/>
     <use style="fill:#1f77b4;stroke:#1f77b4;" x="99.185169" xlink:href="#m28c4d10b5f" y="240.517803"/>
     <use style="fill:#1f77b4;stroke:#1f77b4;" x="99.18789" xlink:href="#m28c4d10b5f" y="247.859009"/>
     <use style="fill:#1f77b4;stroke:#1f77b4;" x="121.144305" xlink:href="#m28c4d10b5f" y="249.273432"/>
     <use style="fill:#1f77b4;stroke:#1f77b4;" x="121.988998" xlink:href="#m28c4d10b5f" y="236.420168"/>
     <use style="fill:#1f77b4;stroke:#1f77b4;" x="121.98938" xlink:href="#m28c4d10b5f" y="243.589641"/>
     <use style="fill:#1f77b4;stroke:#1f77b4;" x="123.69785" xlink:href="#m28c4d10b5f" y="212.243669"/>
     <use style="fill:#1f77b4;stroke:#1f77b4;" x="123.698242" xlink:href="#m28c4d10b5f" y="245.570886"/>
     <use style="fill:#1f77b4;stroke:#1f77b4;" x="125.362202" xlink:href="#m28c4d10b5f" y="227.988849"/>
     <use style="fill:#1f77b4;stroke:#1f77b4;" x="125.362594" xlink:href="#m28c4d10b5f" y="225.434459"/>
     <use style="fill:#1f77b4;stroke:#1f77b4;" x="126.199487" xlink:href="#m28c4d10b5f" y="228.037696"/>
     <use style="fill:#1f77b4;stroke:#1f77b4;" x="126.199878" xlink:href="#m28c4d10b5f" y="232.365059"/>
     <use style="fill:#1f77b4;stroke:#1f77b4;" x="127.090237" xlink:href="#m28c4d10b5f" y="235.712262"/>
     <use style="fill:#1f77b4;stroke:#1f77b4;" x="127.090618" xlink:href="#m28c4d10b5f" y="232.314822"/>
     <use style="fill:#1f77b4;stroke:#1f77b4;" x="127.899364" xlink:href="#m28c4d10b5f" y="244.737845"/>
     <use style="fill:#1f77b4;stroke:#1f77b4;" x="127.899756" xlink:href="#m28c4d10b5f" y="221.445534"/>
     <use style="fill:#1f77b4;stroke:#1f77b4;" x="128.744146" xlink:href="#m28c4d10b5f" y="219.474345"/>
     <use style="fill:#1f77b4;stroke:#1f77b4;" x="128.744527" xlink:href="#m28c4d10b5f" y="225.019303"/>
     <use style="fill:#1f77b4;stroke:#1f77b4;" x="136.360585" xlink:href="#m28c4d10b5f" y="232.877"/>
     <use style="fill:#1f77b4;stroke:#1f77b4;" x="142.231315" xlink:href="#m28c4d10b5f" y="221.928693"/>
     <use style="fill:#1f77b4;stroke:#1f77b4;" x="143.073052" xlink:href="#m28c4d10b5f" y="213.853577"/>
     <use style="fill:#1f77b4;stroke:#1f77b4;" x="143.918832" xlink:href="#m28c4d10b5f" y="239.383775"/>
     <use style="fill:#1f77b4;stroke:#1f77b4;" x="144.76286" xlink:href="#m28c4d10b5f" y="240.832008"/>
     <use style="fill:#1f77b4;stroke:#1f77b4;" x="145.612006" xlink:href="#m28c4d10b5f" y="241.743636"/>
     <use style="fill:#1f77b4;stroke:#1f77b4;" x="155.771705" xlink:href="#m28c4d10b5f" y="241.972884"/>
     <use style="fill:#1f77b4;stroke:#1f77b4;" x="163.21203" xlink:href="#m28c4d10b5f" y="229.082171"/>
     <use style="fill:#1f77b4;stroke:#1f77b4;" x="164.180987" xlink:href="#m28c4d10b5f" y="229.911573"/>
     <use style="fill:#1f77b4;stroke:#1f77b4;" x="165.042171" xlink:href="#m28c4d10b5f" y="221.246408"/>
     <use style="fill:#1f77b4;stroke:#1f77b4;" x="170.943837" xlink:href="#m28c4d10b5f" y="261.837106"/>
     <use style="fill:#1f77b4;stroke:#1f77b4;" x="173.496775" xlink:href="#m28c4d10b5f" y="227.326582"/>
     <use style="fill:#1f77b4;stroke:#1f77b4;" x="207.146958" xlink:href="#m28c4d10b5f" y="221.333615"/>
     <use style="fill:#1f77b4;stroke:#1f77b4;" x="210.529274" xlink:href="#m28c4d10b5f" y="233.96309"/>
     <use style="fill:#1f77b4;stroke:#1f77b4;" x="218.978819" xlink:href="#m28c4d10b5f" y="243.144362"/>
     <use style="fill:#1f77b4;stroke:#1f77b4;" x="346.082599" xlink:href="#m28c4d10b5f" y="271.090117"/>
     <use style="fill:#1f77b4;stroke:#1f77b4;" x="379.139631" xlink:href="#m28c4d10b5f" y="249.553395"/>
     <use style="fill:#1f77b4;stroke:#1f77b4;" x="396.853779" xlink:href="#m28c4d10b5f" y="261.326985"/>
     <use style="fill:#1f77b4;stroke:#1f77b4;" x="396.854161" xlink:href="#m28c4d10b5f" y="265.419544"/>
     <use style="fill:#1f77b4;stroke:#1f77b4;" x="397.677773" xlink:href="#m28c4d10b5f" y="288.629198"/>
     <use style="fill:#1f77b4;stroke:#1f77b4;" x="397.678155" xlink:href="#m28c4d10b5f" y="278.306618"/>
     <use style="fill:#1f77b4;stroke:#1f77b4;" x="398.486891" xlink:href="#m28c4d10b5f" y="288.32778"/>
     <use style="fill:#1f77b4;stroke:#1f77b4;" x="398.487273" xlink:href="#m28c4d10b5f" y="294.332144"/>
    </g>
   </g>
   <g id="matplotlib.axis_5">
    <g id="xtick_26">
     <g id="line2d_38">
      <g>
       <use style="stroke:#000000;stroke-width:0.8;" x="97.996351" xlink:href="#me840f58408" y="307.584"/>
      </g>
     </g>
     <g id="text_23">
      <!-- 58300 -->
      <g transform="translate(82.090101 322.182437)scale(0.1 -0.1)">
       <defs>
        <path d="M 46.578125 19.921875 
Q 46.578125 27.734375 42.6875 32.046875 
Q 38.8125 36.375 31.78125 36.375 
Q 24.75 36.375 20.875 32.046875 
Q 17 27.734375 17 19.921875 
Q 17 12.0625 20.875 7.734375 
Q 24.75 3.421875 31.78125 3.421875 
Q 38.8125 3.421875 42.6875 7.734375 
Q 46.578125 12.0625 46.578125 19.921875 
z
M 44.578125 55.328125 
Q 44.578125 61.96875 41.203125 65.671875 
Q 37.84375 69.390625 31.78125 69.390625 
Q 25.78125 69.390625 22.390625 65.671875 
Q 19 61.96875 19 55.328125 
Q 19 48.640625 22.390625 44.921875 
Q 25.78125 41.21875 31.78125 41.21875 
Q 37.84375 41.21875 41.203125 44.921875 
Q 44.578125 48.640625 44.578125 55.328125 
z
M 39.3125 38.8125 
Q 47.609375 37.703125 52.25 32.6875 
Q 56.890625 27.6875 56.890625 19.921875 
Q 56.890625 9.671875 50.390625 4.125 
Q 43.890625 -1.421875 31.78125 -1.421875 
Q 19.734375 -1.421875 13.203125 4.125 
Q 6.6875 9.671875 6.6875 19.921875 
Q 6.6875 27.6875 11.328125 32.6875 
Q 15.96875 37.703125 24.3125 38.8125 
Q 16.9375 40.140625 13 44.40625 
Q 9.078125 48.6875 9.078125 55.328125 
Q 9.078125 64.109375 15.125 69.15625 
Q 21.1875 74.21875 31.78125 74.21875 
Q 42.390625 74.21875 48.4375 69.15625 
Q 54.5 64.109375 54.5 55.328125 
Q 54.5 48.6875 50.5625 44.40625 
Q 46.625 40.140625 39.3125 38.8125 
z
" id="DejaVuSerif-56"/>
        <path d="M 9.71875 69.828125 
Q 15.4375 71.96875 20.671875 73.09375 
Q 25.921875 74.21875 30.515625 74.21875 
Q 41.21875 74.21875 47.21875 69.59375 
Q 53.21875 64.984375 53.21875 56.78125 
Q 53.21875 50.203125 49.0625 45.78125 
Q 44.921875 41.359375 37.3125 39.796875 
Q 46.296875 38.53125 51.25 33.28125 
Q 56.203125 28.03125 56.203125 19.671875 
Q 56.203125 9.46875 49.34375 4.015625 
Q 42.484375 -1.421875 29.59375 -1.421875 
Q 23.875 -1.421875 18.421875 -0.1875 
Q 12.984375 1.03125 7.625 3.515625 
L 7.625 17.671875 
L 13.09375 17.671875 
Q 13.578125 10.640625 17.828125 7.03125 
Q 22.078125 3.421875 29.78125 3.421875 
Q 37.25 3.421875 41.578125 7.734375 
Q 45.90625 12.0625 45.90625 19.578125 
Q 45.90625 28.171875 41.453125 32.59375 
Q 37.015625 37.015625 28.421875 37.015625 
L 23.78125 37.015625 
L 23.78125 42 
L 26.21875 42 
Q 34.765625 42 39.03125 45.53125 
Q 43.3125 49.078125 43.3125 56.203125 
Q 43.3125 62.59375 39.796875 65.984375 
Q 36.28125 69.390625 29.6875 69.390625 
Q 23.09375 69.390625 19.453125 66.265625 
Q 15.828125 63.140625 15.1875 56.984375 
L 9.71875 56.984375 
z
" id="DejaVuSerif-51"/>
       </defs>
       <use xlink:href="#DejaVuSerif-53"/>
       <use x="63.623047" xlink:href="#DejaVuSerif-56"/>
       <use x="127.246094" xlink:href="#DejaVuSerif-51"/>
       <use x="190.869141" xlink:href="#DejaVuSerif-48"/>
       <use x="254.492188" xlink:href="#DejaVuSerif-48"/>
      </g>
     </g>
    </g>
    <g id="xtick_27">
     <g id="line2d_39">
      <g>
       <use style="stroke:#000000;stroke-width:0.8;" x="140.27554" xlink:href="#me840f58408" y="307.584"/>
      </g>
     </g>
     <g id="text_24">
      <!-- 58350 -->
      <g transform="translate(124.36929 322.182437)scale(0.1 -0.1)">
       <use xlink:href="#DejaVuSerif-53"/>
       <use x="63.623047" xlink:href="#DejaVuSerif-56"/>
       <use x="127.246094" xlink:href="#DejaVuSerif-51"/>
       <use x="190.869141" xlink:href="#DejaVuSerif-53"/>
       <use x="254.492188" xlink:href="#DejaVuSerif-48"/>
      </g>
     </g>
    </g>
    <g id="xtick_28">
     <g id="line2d_40">
      <g>
       <use style="stroke:#000000;stroke-width:0.8;" x="182.55473" xlink:href="#me840f58408" y="307.584"/>
      </g>
     </g>
     <g id="text_25">
      <!-- 58400 -->
      <g transform="translate(166.64848 322.182437)scale(0.1 -0.1)">
       <use xlink:href="#DejaVuSerif-53"/>
       <use x="63.623047" xlink:href="#DejaVuSerif-56"/>
       <use x="127.246094" xlink:href="#DejaVuSerif-52"/>
       <use x="190.869141" xlink:href="#DejaVuSerif-48"/>
       <use x="254.492188" xlink:href="#DejaVuSerif-48"/>
      </g>
     </g>
    </g>
    <g id="xtick_29">
     <g id="line2d_41">
      <g>
       <use style="stroke:#000000;stroke-width:0.8;" x="224.833919" xlink:href="#me840f58408" y="307.584"/>
      </g>
     </g>
     <g id="text_26">
      <!-- 58450 -->
      <g transform="translate(208.927669 322.182437)scale(0.1 -0.1)">
       <use xlink:href="#DejaVuSerif-53"/>
       <use x="63.623047" xlink:href="#DejaVuSerif-56"/>
       <use x="127.246094" xlink:href="#DejaVuSerif-52"/>
       <use x="190.869141" xlink:href="#DejaVuSerif-53"/>
       <use x="254.492188" xlink:href="#DejaVuSerif-48"/>
      </g>
     </g>
    </g>
    <g id="xtick_30">
     <g id="line2d_42">
      <g>
       <use style="stroke:#000000;stroke-width:0.8;" x="267.113108" xlink:href="#me840f58408" y="307.584"/>
      </g>
     </g>
     <g id="text_27">
      <!-- 58500 -->
      <g transform="translate(251.206858 322.182437)scale(0.1 -0.1)">
       <use xlink:href="#DejaVuSerif-53"/>
       <use x="63.623047" xlink:href="#DejaVuSerif-56"/>
       <use x="127.246094" xlink:href="#DejaVuSerif-53"/>
       <use x="190.869141" xlink:href="#DejaVuSerif-48"/>
       <use x="254.492188" xlink:href="#DejaVuSerif-48"/>
      </g>
     </g>
    </g>
    <g id="xtick_31">
     <g id="line2d_43">
      <g>
       <use style="stroke:#000000;stroke-width:0.8;" x="309.392298" xlink:href="#me840f58408" y="307.584"/>
      </g>
     </g>
     <g id="text_28">
      <!-- 58550 -->
      <g transform="translate(293.486048 322.182437)scale(0.1 -0.1)">
       <use xlink:href="#DejaVuSerif-53"/>
       <use x="63.623047" xlink:href="#DejaVuSerif-56"/>
       <use x="127.246094" xlink:href="#DejaVuSerif-53"/>
       <use x="190.869141" xlink:href="#DejaVuSerif-53"/>
       <use x="254.492188" xlink:href="#DejaVuSerif-48"/>
      </g>
     </g>
    </g>
    <g id="xtick_32">
     <g id="line2d_44">
      <g>
       <use style="stroke:#000000;stroke-width:0.8;" x="351.671487" xlink:href="#me840f58408" y="307.584"/>
      </g>
     </g>
     <g id="text_29">
      <!-- 58600 -->
      <g transform="translate(335.765237 322.182437)scale(0.1 -0.1)">
       <defs>
        <path d="M 32.71875 3.421875 
Q 39.59375 3.421875 43.296875 8.46875 
Q 47.015625 13.53125 47.015625 23 
Q 47.015625 32.46875 43.296875 37.515625 
Q 39.59375 42.578125 32.71875 42.578125 
Q 25.734375 42.578125 22.0625 37.6875 
Q 18.40625 32.8125 18.40625 23.578125 
Q 18.40625 13.875 22.109375 8.640625 
Q 25.828125 3.421875 32.71875 3.421875 
z
M 16.796875 40.140625 
Q 20.125 43.796875 24.3125 45.59375 
Q 28.515625 47.40625 33.796875 47.40625 
Q 44.671875 47.40625 51 40.859375 
Q 57.328125 34.328125 57.328125 23 
Q 57.328125 11.921875 50.515625 5.25 
Q 43.703125 -1.421875 32.328125 -1.421875 
Q 19.96875 -1.421875 13.328125 7.78125 
Q 6.6875 17 6.6875 34.078125 
Q 6.6875 53.21875 14.546875 63.71875 
Q 22.40625 74.21875 36.71875 74.21875 
Q 40.578125 74.21875 44.828125 73.484375 
Q 49.078125 72.75 53.515625 71.296875 
L 53.515625 59.28125 
L 48 59.28125 
Q 47.40625 64.203125 44.234375 66.796875 
Q 41.0625 69.390625 35.6875 69.390625 
Q 26.21875 69.390625 21.578125 62.203125 
Q 16.9375 55.03125 16.796875 40.140625 
z
" id="DejaVuSerif-54"/>
       </defs>
       <use xlink:href="#DejaVuSerif-53"/>
       <use x="63.623047" xlink:href="#DejaVuSerif-56"/>
       <use x="127.246094" xlink:href="#DejaVuSerif-54"/>
       <use x="190.869141" xlink:href="#DejaVuSerif-48"/>
       <use x="254.492188" xlink:href="#DejaVuSerif-48"/>
      </g>
     </g>
    </g>
    <g id="xtick_33">
     <g id="line2d_45">
      <g>
       <use style="stroke:#000000;stroke-width:0.8;" x="393.950677" xlink:href="#me840f58408" y="307.584"/>
      </g>
     </g>
     <g id="text_30">
      <!-- 58650 -->
      <g transform="translate(378.044427 322.182437)scale(0.1 -0.1)">
       <use xlink:href="#DejaVuSerif-53"/>
       <use x="63.623047" xlink:href="#DejaVuSerif-56"/>
       <use x="127.246094" xlink:href="#DejaVuSerif-54"/>
       <use x="190.869141" xlink:href="#DejaVuSerif-53"/>
       <use x="254.492188" xlink:href="#DejaVuSerif-48"/>
      </g>
     </g>
    </g>
    <g id="text_31">
     <!-- MJD -->
     <g transform="translate(225.027187 335.860562)scale(0.1 -0.1)">
      <defs>
       <path d="M -8.40625 -17.484375 
L -8.40625 -6 
L -2.828125 -6 
Q -2.6875 -10.84375 -0.53125 -13.203125 
Q 1.609375 -15.578125 5.90625 -15.578125 
Q 11.71875 -15.578125 14.015625 -11.90625 
Q 16.3125 -8.25 16.3125 2.390625 
L 16.3125 67.671875 
L 4.984375 67.671875 
L 4.984375 72.90625 
L 35.5 72.90625 
L 35.5 67.671875 
L 26.21875 67.671875 
L 26.21875 2 
Q 26.21875 -10.0625 21.375 -15.421875 
Q 16.546875 -20.796875 5.8125 -20.796875 
Q 2.34375 -20.796875 -1.234375 -19.96875 
Q -4.828125 -19.140625 -8.40625 -17.484375 
z
" id="DejaVuSerif-74"/>
       <path d="M 24.703125 5.171875 
L 33.796875 5.171875 
Q 48 5.171875 55.59375 13.28125 
Q 63.1875 21.390625 63.1875 36.53125 
Q 63.1875 51.65625 55.609375 59.65625 
Q 48.046875 67.671875 33.796875 67.671875 
L 24.703125 67.671875 
z
M 5.515625 0 
L 5.515625 5.171875 
L 14.796875 5.171875 
L 14.796875 67.671875 
L 5.515625 67.671875 
L 5.515625 72.90625 
L 34.515625 72.90625 
Q 53.375 72.90625 63.890625 63.28125 
Q 74.421875 53.65625 74.421875 36.53125 
Q 74.421875 19.34375 63.875 9.671875 
Q 53.328125 0 34.515625 0 
z
" id="DejaVuSerif-68"/>
      </defs>
      <use xlink:href="#DejaVuSerif-77"/>
      <use x="102.392578" xlink:href="#DejaVuSerif-74"/>
      <use x="142.480469" xlink:href="#DejaVuSerif-68"/>
     </g>
    </g>
   </g>
   <g id="matplotlib.axis_6">
    <g id="ytick_8">
     <g id="line2d_46">
      <g>
       <use style="stroke:#000000;stroke-width:0.8;" x="57.6" xlink:href="#mfb764c952b" y="220.566709"/>
      </g>
     </g>
     <g id="text_32">
      <!-- 15.05 -->
      <g transform="translate(21.971875 224.365928)scale(0.1 -0.1)">
       <use xlink:href="#DejaVuSerif-49"/>
       <use x="63.623047" xlink:href="#DejaVuSerif-53"/>
       <use x="127.246094" xlink:href="#DejaVuSerif-46"/>
       <use x="159.033203" xlink:href="#DejaVuSerif-48"/>
       <use x="222.65625" xlink:href="#DejaVuSerif-53"/>
      </g>
     </g>
    </g>
    <g id="ytick_9">
     <g id="line2d_47">
      <g>
       <use style="stroke:#000000;stroke-width:0.8;" x="57.6" xlink:href="#mfb764c952b" y="244.511566"/>
      </g>
     </g>
     <g id="text_33">
      <!-- 15.10 -->
      <g transform="translate(21.971875 248.310785)scale(0.1 -0.1)">
       <use xlink:href="#DejaVuSerif-49"/>
       <use x="63.623047" xlink:href="#DejaVuSerif-53"/>
       <use x="127.246094" xlink:href="#DejaVuSerif-46"/>
       <use x="159.033203" xlink:href="#DejaVuSerif-49"/>
       <use x="222.65625" xlink:href="#DejaVuSerif-48"/>
      </g>
     </g>
    </g>
    <g id="ytick_10">
     <g id="line2d_48">
      <g>
       <use style="stroke:#000000;stroke-width:0.8;" x="57.6" xlink:href="#mfb764c952b" y="268.456422"/>
      </g>
     </g>
     <g id="text_34">
      <!-- 15.15 -->
      <g transform="translate(21.971875 272.255641)scale(0.1 -0.1)">
       <use xlink:href="#DejaVuSerif-49"/>
       <use x="63.623047" xlink:href="#DejaVuSerif-53"/>
       <use x="127.246094" xlink:href="#DejaVuSerif-46"/>
       <use x="159.033203" xlink:href="#DejaVuSerif-49"/>
       <use x="222.65625" xlink:href="#DejaVuSerif-53"/>
      </g>
     </g>
    </g>
    <g id="ytick_11">
     <g id="line2d_49">
      <g>
       <use style="stroke:#000000;stroke-width:0.8;" x="57.6" xlink:href="#mfb764c952b" y="292.401279"/>
      </g>
     </g>
     <g id="text_35">
      <!-- 15.20 -->
      <g transform="translate(21.971875 296.200498)scale(0.1 -0.1)">
       <use xlink:href="#DejaVuSerif-49"/>
       <use x="63.623047" xlink:href="#DejaVuSerif-53"/>
       <use x="127.246094" xlink:href="#DejaVuSerif-46"/>
       <use x="159.033203" xlink:href="#DejaVuSerif-50"/>
       <use x="222.65625" xlink:href="#DejaVuSerif-48"/>
      </g>
     </g>
    </g>
    <g id="text_36">
     <!-- Mag -->
     <g transform="translate(15.75 264.576991)rotate(-90)scale(0.1 -0.1)">
      <use xlink:href="#DejaVuSerif-77"/>
      <use x="102.392578" xlink:href="#DejaVuSerif-97"/>
      <use x="162.011719" xlink:href="#DejaVuSerif-103"/>
     </g>
    </g>
   </g>
   <g id="LineCollection_5">
    <path clip-path="url(#pc80078f338)" d="M 73.832727 216.213022 
L 73.832727 232.882924 
" style="fill:none;stroke:#1f77b4;stroke-width:0.5;"/>
    <path clip-path="url(#pc80078f338)" d="M 73.833119 207.883089 
L 73.833119 224.559305 
" style="fill:none;stroke:#1f77b4;stroke-width:0.5;"/>
    <path clip-path="url(#pc80078f338)" d="M 94.910293 241.133776 
L 94.910293 257.786627 
" style="fill:none;stroke:#1f77b4;stroke-width:0.5;"/>
    <path clip-path="url(#pc80078f338)" d="M 94.910684 246.219939 
L 94.910684 262.869653 
" style="fill:none;stroke:#1f77b4;stroke-width:0.5;"/>
    <path clip-path="url(#pc80078f338)" d="M 96.675449 237.77636 
L 96.675449 254.431342 
" style="fill:none;stroke:#1f77b4;stroke-width:0.5;"/>
    <path clip-path="url(#pc80078f338)" d="M 99.185169 232.188479 
L 99.185169 248.847127 
" style="fill:none;stroke:#1f77b4;stroke-width:0.5;"/>
    <path clip-path="url(#pc80078f338)" d="M 99.18789 239.532079 
L 99.18789 256.185939 
" style="fill:none;stroke:#1f77b4;stroke-width:0.5;"/>
    <path clip-path="url(#pc80078f338)" d="M 121.144305 240.946949 
L 121.144305 257.599914 
" style="fill:none;stroke:#1f77b4;stroke-width:0.5;"/>
    <path clip-path="url(#pc80078f338)" d="M 121.988998 228.089455 
L 121.988998 244.750881 
" style="fill:none;stroke:#1f77b4;stroke-width:0.5;"/>
    <path clip-path="url(#pc80078f338)" d="M 121.98938 235.261335 
L 121.98938 251.917947 
" style="fill:none;stroke:#1f77b4;stroke-width:0.5;"/>
    <path clip-path="url(#pc80078f338)" d="M 123.69785 203.904 
L 123.69785 220.583338 
" style="fill:none;stroke:#1f77b4;stroke-width:0.5;"/>
    <path clip-path="url(#pc80078f338)" d="M 123.698242 237.243223 
L 123.698242 253.89855 
" style="fill:none;stroke:#1f77b4;stroke-width:0.5;"/>
    <path clip-path="url(#pc80078f338)" d="M 125.362202 219.655158 
L 125.362202 236.322539 
" style="fill:none;stroke:#1f77b4;stroke-width:0.5;"/>
    <path clip-path="url(#pc80078f338)" d="M 125.362594 217.099836 
L 125.362594 233.769083 
" style="fill:none;stroke:#1f77b4;stroke-width:0.5;"/>
    <path clip-path="url(#pc80078f338)" d="M 126.199487 219.704023 
L 126.199487 236.37137 
" style="fill:none;stroke:#1f77b4;stroke-width:0.5;"/>
    <path clip-path="url(#pc80078f338)" d="M 126.199878 224.032933 
L 126.199878 240.697185 
" style="fill:none;stroke:#1f77b4;stroke-width:0.5;"/>
    <path clip-path="url(#pc80078f338)" d="M 127.090237 227.381305 
L 127.090237 244.04322 
" style="fill:none;stroke:#1f77b4;stroke-width:0.5;"/>
    <path clip-path="url(#pc80078f338)" d="M 127.090618 223.982678 
L 127.090618 240.646966 
" style="fill:none;stroke:#1f77b4;stroke-width:0.5;"/>
    <path clip-path="url(#pc80078f338)" d="M 127.899364 236.409912 
L 127.899364 253.065777 
" style="fill:none;stroke:#1f77b4;stroke-width:0.5;"/>
    <path clip-path="url(#pc80078f338)" d="M 127.899756 213.109424 
L 127.899756 229.781643 
" style="fill:none;stroke:#1f77b4;stroke-width:0.5;"/>
    <path clip-path="url(#pc80078f338)" d="M 128.744146 211.137488 
L 128.744146 227.811202 
" style="fill:none;stroke:#1f77b4;stroke-width:0.5;"/>
    <path clip-path="url(#pc80078f338)" d="M 128.744527 216.684526 
L 128.744527 233.35408 
" style="fill:none;stroke:#1f77b4;stroke-width:0.5;"/>
    <path clip-path="url(#pc80078f338)" d="M 136.360585 224.545053 
L 136.360585 241.208946 
" style="fill:none;stroke:#1f77b4;stroke-width:0.5;"/>
    <path clip-path="url(#pc80078f338)" d="M 142.231315 213.592765 
L 142.231315 230.264621 
" style="fill:none;stroke:#1f77b4;stroke-width:0.5;"/>
    <path clip-path="url(#pc80078f338)" d="M 143.073052 205.514544 
L 143.073052 222.19261 
" style="fill:none;stroke:#1f77b4;stroke-width:0.5;"/>
    <path clip-path="url(#pc80078f338)" d="M 143.918832 231.054071 
L 143.918832 247.713479 
" style="fill:none;stroke:#1f77b4;stroke-width:0.5;"/>
    <path clip-path="url(#pc80078f338)" d="M 144.76286 232.502788 
L 144.76286 249.161227 
" style="fill:none;stroke:#1f77b4;stroke-width:0.5;"/>
    <path clip-path="url(#pc80078f338)" d="M 145.612006 233.41472 
L 145.612006 250.072553 
" style="fill:none;stroke:#1f77b4;stroke-width:0.5;"/>
    <path clip-path="url(#pc80078f338)" d="M 155.771705 233.644045 
L 155.771705 250.301724 
" style="fill:none;stroke:#1f77b4;stroke-width:0.5;"/>
    <path clip-path="url(#pc80078f338)" d="M 163.21203 220.748875 
L 163.21203 237.415466 
" style="fill:none;stroke:#1f77b4;stroke-width:0.5;"/>
    <path clip-path="url(#pc80078f338)" d="M 164.180987 221.578574 
L 164.180987 238.244572 
" style="fill:none;stroke:#1f77b4;stroke-width:0.5;"/>
    <path clip-path="url(#pc80078f338)" d="M 165.042171 212.910223 
L 165.042171 229.582594 
" style="fill:none;stroke:#1f77b4;stroke-width:0.5;"/>
    <path clip-path="url(#pc80078f338)" d="M 170.943837 253.514392 
L 170.943837 270.159821 
" style="fill:none;stroke:#1f77b4;stroke-width:0.5;"/>
    <path clip-path="url(#pc80078f338)" d="M 173.496775 218.99265 
L 173.496775 235.660513 
" style="fill:none;stroke:#1f77b4;stroke-width:0.5;"/>
    <path clip-path="url(#pc80078f338)" d="M 207.146958 212.997462 
L 207.146958 229.669769 
" style="fill:none;stroke:#1f77b4;stroke-width:0.5;"/>
    <path clip-path="url(#pc80078f338)" d="M 210.529274 225.631525 
L 210.529274 242.294655 
" style="fill:none;stroke:#1f77b4;stroke-width:0.5;"/>
    <path clip-path="url(#pc80078f338)" d="M 218.978819 234.81591 
L 218.978819 251.472815 
" style="fill:none;stroke:#1f77b4;stroke-width:0.5;"/>
    <path clip-path="url(#pc80078f338)" d="M 346.082599 262.769941 
L 346.082599 279.410294 
" style="fill:none;stroke:#1f77b4;stroke-width:0.5;"/>
    <path clip-path="url(#pc80078f338)" d="M 379.139631 241.227 
L 379.139631 257.87979 
" style="fill:none;stroke:#1f77b4;stroke-width:0.5;"/>
    <path clip-path="url(#pc80078f338)" d="M 396.853779 253.004124 
L 396.853779 269.649846 
" style="fill:none;stroke:#1f77b4;stroke-width:0.5;"/>
    <path clip-path="url(#pc80078f338)" d="M 396.854161 257.097837 
L 396.854161 273.741251 
" style="fill:none;stroke:#1f77b4;stroke-width:0.5;"/>
    <path clip-path="url(#pc80078f338)" d="M 397.677773 280.313267 
L 397.677773 296.945128 
" style="fill:none;stroke:#1f77b4;stroke-width:0.5;"/>
    <path clip-path="url(#pc80078f338)" d="M 397.678155 269.988281 
L 397.678155 286.624955 
" style="fill:none;stroke:#1f77b4;stroke-width:0.5;"/>
    <path clip-path="url(#pc80078f338)" d="M 398.486891 280.011783 
L 398.486891 296.643776 
" style="fill:none;stroke:#1f77b4;stroke-width:0.5;"/>
    <path clip-path="url(#pc80078f338)" d="M 398.487273 286.017431 
L 398.487273 302.646857 
" style="fill:none;stroke:#1f77b4;stroke-width:0.5;"/>
   </g>
   <g id="line2d_50">
    <path clip-path="url(#pc80078f338)" d="M 73.832727 224.547973 
L 73.833119 216.221197 
L 94.910293 249.460201 
L 94.910684 254.544796 
L 96.675449 246.103851 
L 99.185169 240.517803 
L 99.18789 247.859009 
L 121.144305 249.273432 
L 121.988998 236.420168 
L 121.98938 243.589641 
L 123.69785 212.243669 
L 123.698242 245.570886 
L 125.362202 227.988849 
L 125.362594 225.434459 
L 126.199487 228.037696 
L 126.199878 232.365059 
L 127.090237 235.712262 
L 127.090618 232.314822 
L 127.899364 244.737845 
L 127.899756 221.445534 
L 128.744146 219.474345 
L 128.744527 225.019303 
L 136.360585 232.877 
L 142.231315 221.928693 
L 143.073052 213.853577 
L 143.918832 239.383775 
L 144.76286 240.832008 
L 145.612006 241.743636 
L 155.771705 241.972884 
L 163.21203 229.082171 
L 164.180987 229.911573 
L 165.042171 221.246408 
L 170.943837 261.837106 
L 173.496775 227.326582 
L 207.146958 221.333615 
L 210.529274 233.96309 
L 218.978819 243.144362 
L 346.082599 271.090117 
L 379.139631 249.553395 
L 396.853779 261.326985 
L 396.854161 265.419544 
L 397.677773 288.629198 
L 397.678155 278.306618 
L 398.486891 288.32778 
L 398.487273 294.332144 
" style="fill:none;"/>
   </g>
   <g id="patch_14">
    <path d="M 57.6 307.584 
L 57.6 198.966857 
" style="fill:none;stroke:#000000;stroke-linecap:square;stroke-linejoin:miter;stroke-width:0.8;"/>
   </g>
   <g id="patch_15">
    <path d="M 414.72 307.584 
L 414.72 198.966857 
" style="fill:none;stroke:#000000;stroke-linecap:square;stroke-linejoin:miter;stroke-width:0.8;"/>
   </g>
   <g id="patch_16">
    <path d="M 57.6 307.584 
L 414.72 307.584 
" style="fill:none;stroke:#000000;stroke-linecap:square;stroke-linejoin:miter;stroke-width:0.8;"/>
   </g>
   <g id="patch_17">
    <path d="M 57.6 198.966857 
L 414.72 198.966857 
" style="fill:none;stroke:#000000;stroke-linecap:square;stroke-linejoin:miter;stroke-width:0.8;"/>
   </g>
   <g id="text_37">
    <!-- Light Curve -->
    <g transform="translate(206.000625 192.966857)scale(0.1 -0.1)">
     <use xlink:href="#DejaVuSerif-76"/>
     <use x="66.40625" xlink:href="#DejaVuSerif-105"/>
     <use x="98.388672" xlink:href="#DejaVuSerif-103"/>
     <use x="162.402344" xlink:href="#DejaVuSerif-104"/>
     <use x="226.806641" xlink:href="#DejaVuSerif-116"/>
     <use x="266.992188" xlink:href="#DejaVuSerif-32"/>
     <use x="298.779297" xlink:href="#DejaVuSerif-67"/>
     <use x="375.292969" xlink:href="#DejaVuSerif-117"/>
     <use x="439.697266" xlink:href="#DejaVuSerif-114"/>
     <use x="487.5" xlink:href="#DejaVuSerif-118"/>
     <use x="543.994141" xlink:href="#DejaVuSerif-101"/>
    </g>
   </g>
  </g>
 </g>
 <defs>
  <clipPath id="pccc19978be">
   <rect height="108.617143" width="148.8" x="265.92" y="41.472"/>
  </clipPath>
  <clipPath id="pcc47e7cd24">
   <rect height="108.617143" width="148.8" x="57.6" y="41.472"/>
  </clipPath>
  <clipPath id="pc80078f338">
   <rect height="108.617143" width="357.12" x="57.6" y="198.966857"/>
  </clipPath>
 </defs>
</svg>
