<?xml version="1.0" encoding="utf-8" standalone="no"?>
<!DOCTYPE svg PUBLIC "-//W3C//DTD SVG 1.1//EN"
  "http://www.w3.org/Graphics/SVG/1.1/DTD/svg11.dtd">
<!-- Created with matplotlib (https://matplotlib.org/) -->
<svg height="345.6pt" version="1.1" viewBox="0 0 460.8 345.6" width="460.8pt" xmlns="http://www.w3.org/2000/svg" xmlns:xlink="http://www.w3.org/1999/xlink">
 <metadata>
  <rdf:RDF xmlns:cc="http://creativecommons.org/ns#" xmlns:dc="http://purl.org/dc/elements/1.1/" xmlns:rdf="http://www.w3.org/1999/02/22-rdf-syntax-ns#">
   <cc:Work>
    <dc:type rdf:resource="http://purl.org/dc/dcmitype/StillImage"/>
    <dc:date>2021-02-16T16:27:49.465336</dc:date>
    <dc:format>image/svg+xml</dc:format>
    <dc:creator>
     <cc:Agent>
      <dc:title>Matplotlib v3.3.3, https://matplotlib.org/</dc:title>
     </cc:Agent>
    </dc:creator>
   </cc:Work>
  </rdf:RDF>
 </metadata>
 <defs>
  <style type="text/css">*{stroke-linecap:butt;stroke-linejoin:round;}</style>
 </defs>
 <g id="figure_1">
  <g id="patch_1">
   <path d="M 0 345.6 
L 460.8 345.6 
L 460.8 0 
L 0 0 
z
" style="fill:#ffffff;"/>
  </g>
  <g id="axes_1">
   <g id="patch_2">
    <path d="M 265.92 150.089143 
L 414.72 150.089143 
L 414.72 41.472 
L 265.92 41.472 
z
" style="fill:#ffffff;"/>
   </g>
   <g id="matplotlib.axis_1">
    <g id="xtick_1">
     <g id="line2d_1">
      <defs>
       <path d="M 0 0 
L 0 3.5 
" id="mdc3358c474" style="stroke:#000000;stroke-width:0.8;"/>
      </defs>
      <g>
       <use style="stroke:#000000;stroke-width:0.8;" x="315.519224" xlink:href="#mdc3358c474" y="150.089143"/>
      </g>
     </g>
     <g id="text_1">
      <!-- $\mathdefault{10^{1}}$ -->
      <g transform="translate(306.719224 164.68758)scale(0.1 -0.1)">
       <defs>
        <path d="M 14.203125 0 
L 14.203125 5.171875 
L 26.90625 5.171875 
L 26.90625 65.828125 
L 12.203125 56.296875 
L 12.203125 62.703125 
L 29.984375 74.21875 
L 36.71875 74.21875 
L 36.71875 5.171875 
L 49.421875 5.171875 
L 49.421875 0 
z
" id="DejaVuSerif-49"/>
        <path d="M 31.78125 3.421875 
Q 39.265625 3.421875 42.96875 11.625 
Q 46.6875 19.828125 46.6875 36.375 
Q 46.6875 52.984375 42.96875 61.1875 
Q 39.265625 69.390625 31.78125 69.390625 
Q 24.3125 69.390625 20.59375 61.1875 
Q 16.890625 52.984375 16.890625 36.375 
Q 16.890625 19.828125 20.59375 11.625 
Q 24.3125 3.421875 31.78125 3.421875 
z
M 31.78125 -1.421875 
Q 19.921875 -1.421875 13.25 8.53125 
Q 6.59375 18.5 6.59375 36.375 
Q 6.59375 54.296875 13.25 64.25 
Q 19.921875 74.21875 31.78125 74.21875 
Q 43.703125 74.21875 50.34375 64.25 
Q 56.984375 54.296875 56.984375 36.375 
Q 56.984375 18.5 50.34375 8.53125 
Q 43.703125 -1.421875 31.78125 -1.421875 
z
" id="DejaVuSerif-48"/>
       </defs>
       <use transform="translate(0 0.7125)" xlink:href="#DejaVuSerif-49"/>
       <use transform="translate(63.623047 0.7125)" xlink:href="#DejaVuSerif-48"/>
       <use transform="translate(128.154453 37.046875)scale(0.7)" xlink:href="#DejaVuSerif-49"/>
      </g>
     </g>
    </g>
    <g id="xtick_2">
     <g id="line2d_2">
      <g>
       <use style="stroke:#000000;stroke-width:0.8;" x="373.218149" xlink:href="#mdc3358c474" y="150.089143"/>
      </g>
     </g>
     <g id="text_2">
      <!-- $\mathdefault{10^{2}}$ -->
      <g transform="translate(364.418149 164.68758)scale(0.1 -0.1)">
       <defs>
        <path d="M 12.796875 55.515625 
L 7.328125 55.515625 
L 7.328125 68.5 
Q 12.546875 71.296875 17.84375 72.75 
Q 23.140625 74.21875 28.21875 74.21875 
Q 39.59375 74.21875 46.1875 68.703125 
Q 52.78125 63.1875 52.78125 53.71875 
Q 52.78125 43.015625 37.84375 28.125 
Q 36.671875 27 36.078125 26.421875 
L 17.671875 8.015625 
L 48.09375 8.015625 
L 48.09375 17 
L 53.8125 17 
L 53.8125 0 
L 6.78125 0 
L 6.78125 5.328125 
L 28.90625 27.390625 
Q 36.234375 34.71875 39.359375 40.84375 
Q 42.484375 46.96875 42.484375 53.71875 
Q 42.484375 61.078125 38.640625 65.234375 
Q 34.8125 69.390625 28.078125 69.390625 
Q 21.09375 69.390625 17.28125 65.921875 
Q 13.484375 62.453125 12.796875 55.515625 
z
" id="DejaVuSerif-50"/>
       </defs>
       <use transform="translate(0 0.7125)" xlink:href="#DejaVuSerif-49"/>
       <use transform="translate(63.623047 0.7125)" xlink:href="#DejaVuSerif-48"/>
       <use transform="translate(128.154453 37.046875)scale(0.7)" xlink:href="#DejaVuSerif-50"/>
      </g>
     </g>
    </g>
    <g id="xtick_3">
     <g id="line2d_3">
      <defs>
       <path d="M 0 0 
L 0 2 
" id="mb26e365029" style="stroke:#000000;stroke-width:0.6;"/>
      </defs>
      <g>
       <use style="stroke:#000000;stroke-width:0.6;" x="275.189406" xlink:href="#mb26e365029" y="150.089143"/>
      </g>
     </g>
    </g>
    <g id="xtick_4">
     <g id="line2d_4">
      <g>
       <use style="stroke:#000000;stroke-width:0.6;" x="285.349683" xlink:href="#mb26e365029" y="150.089143"/>
      </g>
     </g>
    </g>
    <g id="xtick_5">
     <g id="line2d_5">
      <g>
       <use style="stroke:#000000;stroke-width:0.6;" x="292.558513" xlink:href="#mb26e365029" y="150.089143"/>
      </g>
     </g>
    </g>
    <g id="xtick_6">
     <g id="line2d_6">
      <g>
       <use style="stroke:#000000;stroke-width:0.6;" x="298.150117" xlink:href="#mb26e365029" y="150.089143"/>
      </g>
     </g>
    </g>
    <g id="xtick_7">
     <g id="line2d_7">
      <g>
       <use style="stroke:#000000;stroke-width:0.6;" x="302.71879" xlink:href="#mb26e365029" y="150.089143"/>
      </g>
     </g>
    </g>
    <g id="xtick_8">
     <g id="line2d_8">
      <g>
       <use style="stroke:#000000;stroke-width:0.6;" x="306.581548" xlink:href="#mb26e365029" y="150.089143"/>
      </g>
     </g>
    </g>
    <g id="xtick_9">
     <g id="line2d_9">
      <g>
       <use style="stroke:#000000;stroke-width:0.6;" x="309.927621" xlink:href="#mb26e365029" y="150.089143"/>
      </g>
     </g>
    </g>
    <g id="xtick_10">
     <g id="line2d_10">
      <g>
       <use style="stroke:#000000;stroke-width:0.6;" x="312.879066" xlink:href="#mb26e365029" y="150.089143"/>
      </g>
     </g>
    </g>
    <g id="xtick_11">
     <g id="line2d_11">
      <g>
       <use style="stroke:#000000;stroke-width:0.6;" x="332.888331" xlink:href="#mb26e365029" y="150.089143"/>
      </g>
     </g>
    </g>
    <g id="xtick_12">
     <g id="line2d_12">
      <g>
       <use style="stroke:#000000;stroke-width:0.6;" x="343.048608" xlink:href="#mb26e365029" y="150.089143"/>
      </g>
     </g>
    </g>
    <g id="xtick_13">
     <g id="line2d_13">
      <g>
       <use style="stroke:#000000;stroke-width:0.6;" x="350.257438" xlink:href="#mb26e365029" y="150.089143"/>
      </g>
     </g>
    </g>
    <g id="xtick_14">
     <g id="line2d_14">
      <g>
       <use style="stroke:#000000;stroke-width:0.6;" x="355.849042" xlink:href="#mb26e365029" y="150.089143"/>
      </g>
     </g>
    </g>
    <g id="xtick_15">
     <g id="line2d_15">
      <g>
       <use style="stroke:#000000;stroke-width:0.6;" x="360.417715" xlink:href="#mb26e365029" y="150.089143"/>
      </g>
     </g>
    </g>
    <g id="xtick_16">
     <g id="line2d_16">
      <g>
       <use style="stroke:#000000;stroke-width:0.6;" x="364.280473" xlink:href="#mb26e365029" y="150.089143"/>
      </g>
     </g>
    </g>
    <g id="xtick_17">
     <g id="line2d_17">
      <g>
       <use style="stroke:#000000;stroke-width:0.6;" x="367.626546" xlink:href="#mb26e365029" y="150.089143"/>
      </g>
     </g>
    </g>
    <g id="xtick_18">
     <g id="line2d_18">
      <g>
       <use style="stroke:#000000;stroke-width:0.6;" x="370.577991" xlink:href="#mb26e365029" y="150.089143"/>
      </g>
     </g>
    </g>
    <g id="xtick_19">
     <g id="line2d_19">
      <g>
       <use style="stroke:#000000;stroke-width:0.6;" x="390.587256" xlink:href="#mb26e365029" y="150.089143"/>
      </g>
     </g>
    </g>
    <g id="xtick_20">
     <g id="line2d_20">
      <g>
       <use style="stroke:#000000;stroke-width:0.6;" x="400.747533" xlink:href="#mb26e365029" y="150.089143"/>
      </g>
     </g>
    </g>
    <g id="xtick_21">
     <g id="line2d_21">
      <g>
       <use style="stroke:#000000;stroke-width:0.6;" x="407.956364" xlink:href="#mb26e365029" y="150.089143"/>
      </g>
     </g>
    </g>
    <g id="xtick_22">
     <g id="line2d_22">
      <g>
       <use style="stroke:#000000;stroke-width:0.6;" x="413.547967" xlink:href="#mb26e365029" y="150.089143"/>
      </g>
     </g>
    </g>
    <g id="text_3">
     <!-- Period d -->
     <g transform="translate(319.231719 178.365705)scale(0.1 -0.1)">
      <defs>
       <path d="M 24.703125 37.109375 
L 37.59375 37.109375 
Q 44.875 37.109375 48.671875 41.03125 
Q 52.484375 44.96875 52.484375 52.390625 
Q 52.484375 59.859375 48.671875 63.765625 
Q 44.875 67.671875 37.59375 67.671875 
L 24.703125 67.671875 
z
M 5.515625 0 
L 5.515625 5.171875 
L 14.796875 5.171875 
L 14.796875 67.671875 
L 5.515625 67.671875 
L 5.515625 72.90625 
L 39.984375 72.90625 
Q 50.921875 72.90625 57.3125 67.359375 
Q 63.71875 61.8125 63.71875 52.390625 
Q 63.71875 43.015625 57.3125 37.453125 
Q 50.921875 31.890625 39.984375 31.890625 
L 24.703125 31.890625 
L 24.703125 5.171875 
L 35.984375 5.171875 
L 35.984375 0 
z
" id="DejaVuSerif-80"/>
       <path d="M 54.203125 25 
L 15.484375 25 
L 15.484375 24.609375 
Q 15.484375 14.109375 19.4375 8.765625 
Q 23.390625 3.421875 31.109375 3.421875 
Q 37.015625 3.421875 40.796875 6.515625 
Q 44.578125 9.625 46.09375 15.71875 
L 53.328125 15.71875 
Q 51.171875 7.171875 45.375 2.875 
Q 39.59375 -1.421875 30.171875 -1.421875 
Q 18.796875 -1.421875 11.890625 6.078125 
Q 4.984375 13.578125 4.984375 25.984375 
Q 4.984375 38.28125 11.765625 45.796875 
Q 18.5625 53.328125 29.59375 53.328125 
Q 41.359375 53.328125 47.65625 46.0625 
Q 53.953125 38.8125 54.203125 25 
z
M 43.609375 30.171875 
Q 43.3125 39.265625 39.765625 43.875 
Q 36.234375 48.484375 29.59375 48.484375 
Q 23.390625 48.484375 19.828125 43.84375 
Q 16.265625 39.203125 15.484375 30.171875 
z
" id="DejaVuSerif-101"/>
       <path d="M 47.796875 52 
L 47.796875 39.015625 
L 42.625 39.015625 
Q 42.390625 42.875 40.484375 44.78125 
Q 38.578125 46.6875 34.90625 46.6875 
Q 28.265625 46.6875 24.71875 42.09375 
Q 21.1875 37.5 21.1875 28.90625 
L 21.1875 5.171875 
L 31.59375 5.171875 
L 31.59375 0 
L 4.109375 0 
L 4.109375 5.171875 
L 12.203125 5.171875 
L 12.203125 46.78125 
L 3.609375 46.78125 
L 3.609375 51.90625 
L 21.1875 51.90625 
L 21.1875 42.671875 
Q 23.828125 48.09375 27.96875 50.703125 
Q 32.125 53.328125 38.09375 53.328125 
Q 40.28125 53.328125 42.703125 52.984375 
Q 45.125 52.640625 47.796875 52 
z
" id="DejaVuSerif-114"/>
       <path d="M 9.71875 68.015625 
Q 9.71875 70.265625 11.34375 71.921875 
Q 12.984375 73.578125 15.28125 73.578125 
Q 17.53125 73.578125 19.15625 71.921875 
Q 20.796875 70.265625 20.796875 68.015625 
Q 20.796875 65.71875 19.1875 64.109375 
Q 17.578125 62.5 15.28125 62.5 
Q 12.984375 62.5 11.34375 64.109375 
Q 9.71875 65.71875 9.71875 68.015625 
z
M 21.1875 5.171875 
L 29.6875 5.171875 
L 29.6875 0 
L 3.609375 0 
L 3.609375 5.171875 
L 12.203125 5.171875 
L 12.203125 46.6875 
L 3.609375 46.6875 
L 3.609375 51.90625 
L 21.1875 51.90625 
z
" id="DejaVuSerif-105"/>
       <path d="M 30.078125 3.421875 
Q 37.3125 3.421875 40.984375 9.125 
Q 44.671875 14.84375 44.671875 25.984375 
Q 44.671875 37.109375 40.984375 42.796875 
Q 37.3125 48.484375 30.078125 48.484375 
Q 22.859375 48.484375 19.171875 42.796875 
Q 15.484375 37.109375 15.484375 25.984375 
Q 15.484375 14.84375 19.1875 9.125 
Q 22.90625 3.421875 30.078125 3.421875 
z
M 30.078125 -1.421875 
Q 18.75 -1.421875 11.859375 6.078125 
Q 4.984375 13.578125 4.984375 25.984375 
Q 4.984375 38.375 11.84375 45.84375 
Q 18.703125 53.328125 30.078125 53.328125 
Q 41.453125 53.328125 48.3125 45.84375 
Q 55.171875 38.375 55.171875 25.984375 
Q 55.171875 13.578125 48.3125 6.078125 
Q 41.453125 -1.421875 30.078125 -1.421875 
z
" id="DejaVuSerif-111"/>
       <path d="M 52.484375 5.171875 
L 61.078125 5.171875 
L 61.078125 0 
L 43.5 0 
L 43.5 8.109375 
Q 40.875 3.21875 36.796875 0.890625 
Q 32.71875 -1.421875 26.703125 -1.421875 
Q 17.140625 -1.421875 11.0625 6.171875 
Q 4.984375 13.765625 4.984375 25.984375 
Q 4.984375 38.1875 11.03125 45.75 
Q 17.09375 53.328125 26.703125 53.328125 
Q 32.71875 53.328125 36.796875 51 
Q 40.875 48.6875 43.5 43.796875 
L 43.5 70.796875 
L 35.015625 70.796875 
L 35.015625 75.984375 
L 52.484375 75.984375 
z
M 43.5 23.390625 
L 43.5 28.515625 
Q 43.5 37.84375 39.90625 42.765625 
Q 36.328125 47.703125 29.5 47.703125 
Q 22.5625 47.703125 19.015625 42.234375 
Q 15.484375 36.765625 15.484375 25.984375 
Q 15.484375 15.234375 19.015625 9.71875 
Q 22.5625 4.203125 29.5 4.203125 
Q 36.328125 4.203125 39.90625 9.109375 
Q 43.5 14.015625 43.5 23.390625 
z
" id="DejaVuSerif-100"/>
       <path id="DejaVuSerif-32"/>
      </defs>
      <use xlink:href="#DejaVuSerif-80"/>
      <use x="62.785156" xlink:href="#DejaVuSerif-101"/>
      <use x="121.964844" xlink:href="#DejaVuSerif-114"/>
      <use x="169.767578" xlink:href="#DejaVuSerif-105"/>
      <use x="201.75" xlink:href="#DejaVuSerif-111"/>
      <use x="261.955078" xlink:href="#DejaVuSerif-100"/>
      <use x="325.96875" xlink:href="#DejaVuSerif-32"/>
      <use x="357.755859" xlink:href="#DejaVuSerif-100"/>
     </g>
    </g>
   </g>
   <g id="matplotlib.axis_2">
    <g id="ytick_1">
     <g id="line2d_23">
      <defs>
       <path d="M 0 0 
L -3.5 0 
" id="meb9217922f" style="stroke:#000000;stroke-width:0.8;"/>
      </defs>
      <g>
       <use style="stroke:#000000;stroke-width:0.8;" x="265.92" xlink:href="#meb9217922f" y="145.155221"/>
      </g>
     </g>
     <g id="text_4">
      <!-- 0.0 -->
      <g transform="translate(243.016875 148.95444)scale(0.1 -0.1)">
       <defs>
        <path d="M 9.421875 5.078125 
Q 9.421875 7.8125 11.28125 9.71875 
Q 13.140625 11.625 15.921875 11.625 
Q 18.609375 11.625 20.5 9.71875 
Q 22.40625 7.8125 22.40625 5.078125 
Q 22.40625 2.390625 20.5 0.484375 
Q 18.609375 -1.421875 15.921875 -1.421875 
Q 13.140625 -1.421875 11.28125 0.453125 
Q 9.421875 2.34375 9.421875 5.078125 
z
" id="DejaVuSerif-46"/>
       </defs>
       <use xlink:href="#DejaVuSerif-48"/>
       <use x="63.623047" xlink:href="#DejaVuSerif-46"/>
       <use x="95.410156" xlink:href="#DejaVuSerif-48"/>
      </g>
     </g>
    </g>
    <g id="ytick_2">
     <g id="line2d_24">
      <g>
       <use style="stroke:#000000;stroke-width:0.8;" x="265.92" xlink:href="#meb9217922f" y="113.609594"/>
      </g>
     </g>
     <g id="text_5">
      <!-- 0.2 -->
      <g transform="translate(243.016875 117.408813)scale(0.1 -0.1)">
       <use xlink:href="#DejaVuSerif-48"/>
       <use x="63.623047" xlink:href="#DejaVuSerif-46"/>
       <use x="95.410156" xlink:href="#DejaVuSerif-50"/>
      </g>
     </g>
    </g>
    <g id="ytick_3">
     <g id="line2d_25">
      <g>
       <use style="stroke:#000000;stroke-width:0.8;" x="265.92" xlink:href="#meb9217922f" y="82.063968"/>
      </g>
     </g>
     <g id="text_6">
      <!-- 0.4 -->
      <g transform="translate(243.016875 85.863187)scale(0.1 -0.1)">
       <defs>
        <path d="M 34.90625 24.703125 
L 34.90625 63.484375 
L 10.015625 24.703125 
z
M 56.390625 0 
L 23.1875 0 
L 23.1875 5.171875 
L 34.90625 5.171875 
L 34.90625 19.484375 
L 3.078125 19.484375 
L 3.078125 24.8125 
L 35.015625 74.21875 
L 44.671875 74.21875 
L 44.671875 24.703125 
L 58.59375 24.703125 
L 58.59375 19.484375 
L 44.671875 19.484375 
L 44.671875 5.171875 
L 56.390625 5.171875 
z
" id="DejaVuSerif-52"/>
       </defs>
       <use xlink:href="#DejaVuSerif-48"/>
       <use x="63.623047" xlink:href="#DejaVuSerif-46"/>
       <use x="95.410156" xlink:href="#DejaVuSerif-52"/>
      </g>
     </g>
    </g>
    <g id="ytick_4">
     <g id="line2d_26">
      <g>
       <use style="stroke:#000000;stroke-width:0.8;" x="265.92" xlink:href="#meb9217922f" y="50.518342"/>
      </g>
     </g>
     <g id="text_7">
      <!-- 0.6 -->
      <g transform="translate(243.016875 54.317561)scale(0.1 -0.1)">
       <defs>
        <path d="M 32.71875 3.421875 
Q 39.59375 3.421875 43.296875 8.46875 
Q 47.015625 13.53125 47.015625 23 
Q 47.015625 32.46875 43.296875 37.515625 
Q 39.59375 42.578125 32.71875 42.578125 
Q 25.734375 42.578125 22.0625 37.6875 
Q 18.40625 32.8125 18.40625 23.578125 
Q 18.40625 13.875 22.109375 8.640625 
Q 25.828125 3.421875 32.71875 3.421875 
z
M 16.796875 40.140625 
Q 20.125 43.796875 24.3125 45.59375 
Q 28.515625 47.40625 33.796875 47.40625 
Q 44.671875 47.40625 51 40.859375 
Q 57.328125 34.328125 57.328125 23 
Q 57.328125 11.921875 50.515625 5.25 
Q 43.703125 -1.421875 32.328125 -1.421875 
Q 19.96875 -1.421875 13.328125 7.78125 
Q 6.6875 17 6.6875 34.078125 
Q 6.6875 53.21875 14.546875 63.71875 
Q 22.40625 74.21875 36.71875 74.21875 
Q 40.578125 74.21875 44.828125 73.484375 
Q 49.078125 72.75 53.515625 71.296875 
L 53.515625 59.28125 
L 48 59.28125 
Q 47.40625 64.203125 44.234375 66.796875 
Q 41.0625 69.390625 35.6875 69.390625 
Q 26.21875 69.390625 21.578125 62.203125 
Q 16.9375 55.03125 16.796875 40.140625 
z
" id="DejaVuSerif-54"/>
       </defs>
       <use xlink:href="#DejaVuSerif-48"/>
       <use x="63.623047" xlink:href="#DejaVuSerif-46"/>
       <use x="95.410156" xlink:href="#DejaVuSerif-54"/>
      </g>
     </g>
    </g>
    <g id="text_8">
     <!-- Power -->
     <g transform="translate(236.937188 111.583696)rotate(-90)scale(0.1 -0.1)">
      <defs>
       <path d="M 48 51.90625 
L 61.28125 11.375 
L 73 46.6875 
L 65.484375 46.6875 
L 65.484375 51.90625 
L 84.28125 51.90625 
L 84.28125 46.6875 
L 78.515625 46.6875 
L 63.09375 0 
L 55.609375 0 
L 42.828125 38.8125 
L 29.984375 0 
L 22.796875 0 
L 7.421875 46.6875 
L 1.609375 46.6875 
L 1.609375 51.90625 
L 25.09375 51.90625 
L 25.09375 46.6875 
L 16.703125 46.6875 
L 28.328125 11.375 
L 41.703125 51.90625 
z
" id="DejaVuSerif-119"/>
      </defs>
      <use xlink:href="#DejaVuSerif-80"/>
      <use x="63.285156" xlink:href="#DejaVuSerif-111"/>
      <use x="123.490234" xlink:href="#DejaVuSerif-119"/>
      <use x="209.085938" xlink:href="#DejaVuSerif-101"/>
      <use x="268.265625" xlink:href="#DejaVuSerif-114"/>
     </g>
    </g>
   </g>
   <g id="LineCollection_1">
    <path clip-path="url(#p77224eb90e)" d="M 272.688076 71.546844 
L 407.956364 71.546844 
" style="fill:none;stroke:#808080;stroke-dasharray:5.55,2.4;stroke-dashoffset:0;stroke-width:1.5;"/>
   </g>
   <g id="LineCollection_2">
    <path clip-path="url(#p77224eb90e)" d="M 272.688076 81.915122 
L 407.956364 81.915122 
" style="fill:none;stroke:#a9a9a9;stroke-dasharray:5.55,2.4;stroke-dashoffset:0;stroke-width:1.5;"/>
   </g>
   <g id="LineCollection_3">
    <path clip-path="url(#p77224eb90e)" d="M 272.688076 90.078846 
L 407.956364 90.078846 
" style="fill:none;stroke:#c0c0c0;stroke-dasharray:5.55,2.4;stroke-dashoffset:0;stroke-width:1.5;"/>
   </g>
   <g id="LineCollection_4">
    <path clip-path="url(#p77224eb90e)" d="M 272.688076 93.935053 
L 407.956364 93.935053 
" style="fill:none;stroke:#d3d3d3;stroke-dasharray:5.55,2.4;stroke-dashoffset:0;stroke-width:1.5;"/>
   </g>
   <g id="line2d_27">
    <path clip-path="url(#p77224eb90e)" d="M 407.956364 135.906319 
L 403.213616 141.678212 
L 399.227255 145.075614 
L 395.788878 143.499588 
L 392.765875 141.939367 
L 390.068617 141.2113 
L 387.633683 141.521749 
L 385.414539 143.210272 
L 383.376032 143.713668 
L 381.490955 141.305062 
L 379.73782 139.56569 
L 378.099359 140.343936 
L 375.112563 144.296433 
L 373.74286 142.016002 
L 372.444161 137.136336 
L 371.209467 134.870314 
L 370.032763 138.417754 
L 368.908846 144.07964 
L 367.833182 142.279739 
L 366.801799 127.097581 
L 365.811193 119.522535 
L 364.858264 121.581647 
L 363.940249 128.720976 
L 363.054681 139.73887 
L 362.199344 137.123828 
L 361.372241 116.848016 
L 360.571569 109.153757 
L 359.79569 107.632414 
L 359.043114 110.504819 
L 358.312483 124.994301 
L 357.602554 143.47386 
L 356.240326 127.338867 
L 355.586012 125.992629 
L 354.948349 131.245986 
L 354.326511 141.653018 
L 353.719731 144.080517 
L 352.548548 127.422317 
L 351.982864 128.087014 
L 351.429669 138.551308 
L 350.888423 144.329345 
L 350.358621 143.134636 
L 349.839788 138.283031 
L 349.331481 137.864373 
L 348.83328 139.310074 
L 348.344791 139.604307 
L 347.865643 140.355585 
L 347.395485 143.49793 
L 346.933987 144.730711 
L 346.480834 142.573268 
L 346.035731 138.919136 
L 345.598396 134.218314 
L 345.168563 132.742042 
L 344.745979 138.058745 
L 344.330404 140.595011 
L 343.519374 134.905176 
L 343.123495 134.036299 
L 342.733774 136.762397 
L 342.35002 142.933785 
L 341.972055 143.912294 
L 341.599707 138.263545 
L 341.23281 130.231113 
L 340.871208 125.684529 
L 340.51475 127.034352 
L 340.163291 129.708241 
L 339.816694 140.006909 
L 339.474825 144.895741 
L 339.137558 144.70332 
L 338.80477 142.863177 
L 338.476344 140.383682 
L 338.152167 140.487378 
L 337.83213 142.478233 
L 337.204063 142.784261 
L 336.895836 143.706778 
L 336.591354 143.715568 
L 335.699496 137.010872 
L 335.409128 136.980658 
L 334.838294 143.008828 
L 334.55768 139.525678 
L 334.280174 132.638395 
L 334.005708 131.650716 
L 333.734215 133.7604 
L 333.199898 144.937732 
L 332.419196 125.799663 
L 332.164275 126.778684 
L 331.662084 142.371077 
L 331.414712 139.522825 
L 331.169759 134.134365 
L 330.927177 131.907869 
L 330.686922 135.079516 
L 330.448947 141.970055 
L 330.213212 144.993098 
L 329.748291 144.622837 
L 329.519026 145.085657 
L 329.29184 143.719983 
L 328.843554 135.070869 
L 328.622384 135.562241 
L 328.185814 144.608486 
L 327.970348 144.782567 
L 327.544897 135.070856 
L 327.33485 135.054127 
L 327.126548 134.879509 
L 326.919965 132.989415 
L 326.71507 134.47124 
L 326.310239 142.825479 
L 326.11025 142.64214 
L 325.714998 131.492948 
L 325.519686 130.130858 
L 325.325884 133.131483 
L 324.942719 141.85199 
L 324.753312 139.711268 
L 324.378739 132.362918 
L 323.827173 142.29239 
L 323.645984 144.081428 
L 323.466094 143.314217 
L 323.110144 137.891221 
L 322.934048 134.865463 
L 322.75918 135.162778 
L 322.413063 144.496349 
L 322.241781 141.682859 
L 321.90269 127.754586 
L 321.73485 127.959421 
L 321.402505 142.657828 
L 321.237971 145.142904 
L 321.07451 140.513819 
L 320.750753 126.163324 
L 320.59043 124.789029 
L 320.431126 129.573162 
L 320.115524 145.031568 
L 319.959202 138.415555 
L 319.649452 117.856792 
L 319.343484 136.793293 
L 319.19189 144.673357 
L 319.041207 141.926038 
L 318.742534 128.575183 
L 318.301094 144.994313 
L 318.155658 143.459795 
L 318.011062 139.253962 
L 317.867296 139.380054 
L 317.724349 142.682757 
L 317.582214 142.996237 
L 317.300339 138.935186 
L 317.160581 139.068243 
L 316.883384 143.822287 
L 316.338021 134.586936 
L 316.203515 136.305132 
L 315.936649 145.147161 
L 315.804275 142.979428 
L 315.541606 131.418391 
L 315.411296 131.807707 
L 315.152693 144.497628 
L 315.024386 143.619379 
L 314.769725 129.304086 
L 314.643358 131.386495 
L 314.392521 144.275429 
L 314.268038 143.674364 
L 314.020912 138.768514 
L 313.776199 145.039192 
L 313.654732 143.51562 
L 313.413552 138.470234 
L 313.174672 144.723813 
L 313.05608 141.244037 
L 312.820567 124.807178 
L 312.703635 125.661075 
L 312.356079 144.737425 
L 312.013277 126.832335 
L 311.900044 126.033589 
L 311.675102 141.270987 
L 311.563383 140.430863 
L 311.231186 120.123526 
L 310.903334 144.337639 
L 310.579717 110.774828 
L 310.260226 142.33338 
L 309.944758 121.955953 
L 309.73663 139.579191 
L 309.633211 138.018983 
L 309.32549 112.689368 
L 309.122423 136.729996 
L 309.021503 134.82025 
L 308.721159 87.603317 
L 308.621839 96.891498 
L 308.424372 137.571054 
L 308.326219 131.578389 
L 308.13106 96.449702 
L 308.034047 105.576052 
L 307.84114 141.713642 
L 307.745241 142.959503 
L 307.554537 122.934347 
L 307.459727 126.757844 
L 307.271175 143.202047 
L 307.177429 142.11775 
L 306.990981 136.558687 
L 306.805911 142.872474 
L 306.622198 140.337084 
L 306.530844 140.83607 
L 306.349129 143.567738 
L 306.079003 127.239572 
L 305.900524 137.884778 
L 305.811759 143.710831 
L 305.723307 143.668545 
L 305.372589 113.695358 
L 305.112735 143.44652 
L 305.026712 138.9484 
L 304.855548 121.960443 
L 304.770402 126.315289 
L 304.600973 144.944812 
L 304.348959 137.285749 
L 304.182347 144.789031 
L 303.934487 130.819497 
L 303.770599 144.603698 
L 303.689056 141.658105 
L 303.52676 114.062754 
L 303.446004 118.220054 
L 303.28527 144.133852 
L 303.205288 132.527478 
L 302.966862 79.093866 
L 302.730683 134.943719 
L 302.49671 46.409143 
L 302.419202 62.340564 
L 302.188105 135.342341 
L 302.035216 99.617367 
L 301.883255 127.630781 
L 301.732209 143.323512 
L 301.582069 129.888807 
L 301.358531 145.033741 
L 301.28446 142.808381 
L 301.13697 137.916343 
L 300.917351 141.913181 
L 300.844571 143.348174 
L 300.772001 142.787252 
L 300.627488 136.089352 
L 300.555543 137.29494 
L 300.41227 143.010255 
L 300.198885 119.82318 
L 300.128159 127.879209 
L 299.987302 140.595245 
L 299.77749 109.400528 
L 299.56942 135.848686 
L 299.500446 133.805463 
L 299.431661 131.360989 
L 299.363064 133.121534 
L 299.226432 142.148214 
L 299.158394 140.536186 
L 299.09054 137.46078 
L 299.022869 138.746833 
L 298.888074 145.037557 
L 298.687231 130.236824 
L 298.487985 144.04594 
L 298.290311 124.464108 
L 298.094184 144.493944 
L 297.89958 114.963284 
L 297.835046 123.507378 
L 297.706476 144.359451 
L 297.514848 119.376541 
L 297.451297 129.41871 
L 297.324675 144.520507 
L 297.19869 131.438563 
L 297.135934 131.682087 
L 296.948604 144.606664 
L 296.70099 129.796541 
L 296.578094 140.070895 
L 296.516872 143.455533 
L 296.334097 112.565607 
L 296.273467 118.72902 
L 296.152645 144.612152 
L 296.092452 135.904597 
L 295.972498 93.295822 
L 295.912735 100.651374 
L 295.734298 137.889051 
L 295.557123 100.901456 
L 295.381192 143.050356 
L 295.322822 139.385369 
L 295.264587 136.358459 
L 295.206487 138.888578 
L 295.090691 144.525004 
L 294.975427 139.608546 
L 294.86069 144.624071 
L 294.803519 144.264044 
L 294.689565 136.283149 
L 294.632782 137.331309 
L 294.5196 142.024999 
L 294.463201 141.72643 
L 294.350781 137.196144 
L 294.294759 138.530849 
L 294.127442 143.935968 
L 293.961236 133.467992 
L 293.906077 136.627276 
L 293.741328 144.175726 
L 293.577654 138.377913 
L 293.523333 139.184586 
L 293.361072 143.472994 
L 293.199855 127.071202 
L 293.146346 129.419577 
L 292.9865 144.529875 
L 292.933444 142.593224 
L 292.722336 128.865269 
L 292.669836 130.188563 
L 292.512992 144.208665 
L 292.460928 138.602686 
L 292.357124 123.703333 
L 292.202219 142.503565 
L 292.048266 100.959439 
L 291.997158 108.511632 
L 291.895253 132.86065 
L 291.743168 104.863204 
L 291.541814 142.856728 
L 291.391854 119.635476 
L 291.342066 124.769035 
L 291.193292 140.237987 
L 291.094598 131.638603 
L 291.045396 132.587629 
L 290.947282 140.134979 
L 290.898369 139.321571 
L 290.800827 127.175173 
L 290.752198 127.934305 
L 290.606876 143.472486 
L 290.510461 138.430924 
L 290.462392 139.881648 
L 290.366529 144.629452 
L 290.271032 140.0037 
L 290.22342 140.327065 
L 290.128466 144.476403 
L 290.081123 142.94941 
L 289.93963 132.36291 
L 289.892643 134.942158 
L 289.798932 144.797715 
L 289.752207 141.342477 
L 289.659019 129.55572 
L 289.612554 133.050653 
L 289.473675 143.849372 
L 289.381515 139.444872 
L 289.335561 141.572916 
L 289.243907 144.051983 
L 289.152586 139.351177 
L 289.10705 141.247338 
L 289.016226 144.675529 
L 288.92573 140.613341 
L 288.880604 141.98219 
L 288.835559 144.059246 
L 288.790596 143.522003 
L 288.700909 134.333107 
L 288.656186 135.71866 
L 288.566978 144.697285 
L 288.522494 143.698053 
L 288.389511 127.909999 
L 288.345339 128.064752 
L 288.25723 144.103003 
L 288.213291 141.415076 
L 288.081934 111.205034 
L 288.038302 124.137376 
L 287.951263 144.760593 
L 287.907857 133.088802 
L 287.82127 107.494368 
L 287.778088 116.961286 
L 287.691947 143.50616 
L 287.648987 138.765871 
L 287.563288 124.540898 
L 287.520548 128.49265 
L 287.435287 144.455134 
L 287.392765 139.126527 
L 287.307936 131.049982 
L 287.265629 136.014604 
L 287.181229 145.035779 
L 287.139135 140.594387 
L 287.05516 122.846609 
L 287.013277 125.672047 
L 286.888048 144.362775 
L 286.846443 138.9367 
L 286.804908 129.876516 
L 286.722043 134.819494 
L 286.639451 141.368775 
L 286.55713 127.014601 
L 286.516071 130.254798 
L 286.434154 144.124253 
L 286.393296 141.53088 
L 286.271119 122.390072 
L 286.149536 140.316157 
L 286.109139 137.805968 
L 286.068806 136.424376 
L 286.028539 138.742673 
L 285.948198 142.92131 
L 285.868114 135.526176 
L 285.828167 136.020465 
L 285.748465 143.939447 
L 285.708709 142.22587 
L 285.629385 125.952357 
L 285.589817 125.982883 
L 285.471487 145.097287 
L 285.432167 142.692721 
L 285.392909 139.239599 
L 285.353713 140.305583 
L 285.275503 144.682325 
L 285.158645 125.445017 
L 285.119812 129.359646 
L 285.08104 133.546522 
L 285.042328 132.232218 
L 284.965083 119.101421 
L 284.926549 120.522098 
L 284.84966 136.769635 
L 284.773005 130.218018 
L 284.734766 124.402678 
L 284.696584 127.150959 
L 284.620396 144.392754 
L 284.582388 143.380796 
L 284.468711 113.891297 
L 284.430932 114.860101 
L 284.355546 142.96741 
L 284.317938 140.298828 
L 284.205451 91.595278 
L 284.168067 105.711259 
L 284.093466 142.197238 
L 284.056249 136.937107 
L 283.98198 116.382179 
L 283.944928 123.006028 
L 283.870987 143.963902 
L 283.834099 134.076446 
L 283.760485 119.939907 
L 283.723758 128.576501 
L 283.687086 137.522055 
L 283.650467 134.902858 
L 283.577389 117.584437 
L 283.54093 123.902163 
L 283.46817 142.091467 
L 283.43187 139.721077 
L 283.359426 126.559292 
L 283.323282 130.337646 
L 283.251151 145.149786 
L 283.215163 139.813343 
L 283.143342 115.623029 
L 283.107508 120.068994 
L 283.035995 143.843383 
L 282.964685 134.523844 
L 282.929106 126.461347 
L 282.893577 128.874829 
L 282.787292 144.975548 
L 282.751964 142.218962 
L 282.716685 140.464413 
L 282.681457 141.789938 
L 282.611147 144.118565 
L 282.576066 142.85529 
L 282.541034 141.466199 
L 282.471117 142.750901 
L 282.436231 143.131284 
L 282.401394 142.509956 
L 282.297172 140.069422 
L 282.262528 140.718743 
L 282.193382 145.138469 
L 282.158881 143.929097 
L 282.09002 135.686882 
L 282.055661 136.864928 
L 281.987083 145.122906 
L 281.952864 140.791178 
L 281.884566 126.14944 
L 281.850487 131.119198 
L 281.782468 139.052653 
L 281.748527 133.73798 
L 281.680784 121.192408 
L 281.64698 128.368638 
L 281.613223 135.33743 
L 281.545843 130.800676 
L 281.512222 126.037681 
L 281.478645 128.31516 
L 281.445113 135.150613 
L 281.378184 126.695357 
L 281.311432 114.231621 
L 281.278123 123.851899 
L 281.211638 141.558057 
L 281.178461 134.303621 
L 281.112239 115.447332 
L 281.079194 119.026389 
L 280.980318 143.796771 
L 280.947446 139.776082 
L 280.881831 133.05052 
L 280.849088 137.820829 
L 280.78373 140.933946 
L 280.751115 139.849153 
L 280.718542 138.469619 
L 280.686011 139.842999 
L 280.588672 143.281284 
L 280.556309 141.596716 
L 280.523988 141.908574 
L 280.459471 144.897343 
L 280.39512 143.259223 
L 280.363006 142.478417 
L 280.330934 143.131905 
L 280.234961 145.084752 
L 280.203052 144.712125 
L 280.139355 138.10106 
L 280.107567 131.623511 
L 280.044112 139.73964 
L 280.012445 144.065953 
L 279.980818 143.708493 
L 279.917683 128.994773 
L 279.854706 136.319541 
L 279.791887 145.002336 
L 279.760537 141.242495 
L 279.729226 137.764517 
L 279.666721 141.935623 
L 279.635526 144.762144 
L 279.573254 142.00741 
L 279.511136 140.910169 
L 279.480135 141.690629 
L 279.449172 141.688275 
L 279.356512 133.031764 
L 279.264193 124.205683 
L 279.233496 127.761756 
L 279.172213 139.573022 
L 279.11108 133.596329 
L 279.08057 131.39825 
L 279.050096 133.335534 
L 278.958897 144.501547 
L 278.898282 143.320805 
L 278.868029 143.570915 
L 278.837813 143.291257 
L 278.807633 142.972502 
L 278.747382 143.346144 
L 278.537638 145.05425 
L 278.507817 144.991464 
L 278.388888 137.786016 
L 278.359243 141.651164 
L 278.329634 144.609848 
L 278.27052 141.209775 
L 278.211546 130.659696 
L 278.152709 138.971099 
L 278.094011 137.716393 
L 278.03545 144.100533 
L 277.977025 140.610994 
L 277.918736 130.75567 
L 277.860583 137.149203 
L 277.744679 145.096462 
L 277.715787 144.29689 
L 277.629309 130.342024 
L 277.571822 134.39943 
L 277.543128 139.988421 
L 277.457243 137.975942 
L 277.42868 138.063035 
L 277.40015 138.017224 
L 277.371652 136.880305 
L 277.314753 128.27401 
L 277.257983 133.493008 
L 277.229646 133.607457 
L 277.173068 125.498394 
L 277.144827 126.445073 
L 277.032179 144.980591 
L 276.976045 143.653491 
L 276.920036 145.061732 
L 276.892079 144.672318 
L 276.752757 133.731849 
L 276.724985 134.476716 
L 276.641855 138.742629 
L 276.614205 135.755572 
L 276.558999 123.868182 
L 276.503913 129.03289 
L 276.448949 143.679548 
L 276.394104 137.060484 
L 276.33938 131.420052 
L 276.312062 136.802755 
L 276.257517 144.329499 
L 276.203089 139.761625 
L 276.14878 134.445569 
L 276.121669 137.167142 
L 276.040513 145.021196 
L 275.986554 144.777886 
L 275.959619 145.055137 
L 275.932712 144.848685 
L 275.691841 126.997424 
L 275.66522 133.978796 
L 275.638628 135.690328 
L 275.612063 133.43008 
L 275.532538 118.877882 
L 275.506086 129.326625 
L 275.453264 140.306217 
L 275.400554 127.57554 
L 275.374241 125.367016 
L 275.347955 129.579715 
L 275.269262 144.579077 
L 275.216938 139.248799 
L 275.190816 128.503723 
L 275.112615 139.319774 
L 275.086602 143.271014 
L 275.034656 138.07579 
L 275.008724 136.36926 
L 274.982819 136.547234 
L 274.931088 141.469867 
L 274.905263 138.72205 
L 274.853692 126.807052 
L 274.776534 132.258019 
L 274.725226 133.676987 
L 274.622927 129.724985 
L 274.597417 131.066444 
L 274.470255 141.408392 
L 274.394267 139.663369 
L 274.368989 138.517772 
L 274.343736 141.588614 
L 274.318509 144.296708 
L 274.217853 143.346585 
L 274.167676 145.152 
L 274.142625 143.408538 
L 274.067622 135.231733 
L 274.017745 138.984981 
L 273.967967 144.233754 
L 273.918287 139.244128 
L 273.893484 138.521137 
L 273.868706 139.960556 
L 273.819223 144.852852 
L 273.769837 138.707991 
L 273.74518 132.53685 
L 273.671356 140.20487 
L 273.622261 142.742488 
L 273.597749 141.917047 
L 273.548797 138.069139 
L 273.499941 139.896797 
L 273.426835 144.681782 
L 273.402514 143.491877 
L 273.160589 119.454729 
L 273.136525 120.581157 
L 273.040497 142.513816 
L 272.968717 140.201578 
L 272.920978 144.890517 
L 272.873329 141.814949 
L 272.825771 139.333004 
L 272.754603 140.586025 
L 272.730925 140.503879 
L 272.683636 145.001661 
L 272.683636 145.001661 
" style="fill:none;stroke:#1f77b4;stroke-linecap:square;stroke-width:1.5;"/>
   </g>
   <g id="patch_3">
    <path d="M 265.92 150.089143 
L 265.92 41.472 
" style="fill:none;stroke:#000000;stroke-linecap:square;stroke-linejoin:miter;stroke-width:0.8;"/>
   </g>
   <g id="patch_4">
    <path d="M 414.72 150.089143 
L 414.72 41.472 
" style="fill:none;stroke:#000000;stroke-linecap:square;stroke-linejoin:miter;stroke-width:0.8;"/>
   </g>
   <g id="patch_5">
    <path d="M 265.92 150.089143 
L 414.72 150.089143 
" style="fill:none;stroke:#000000;stroke-linecap:square;stroke-linejoin:miter;stroke-width:0.8;"/>
   </g>
   <g id="patch_6">
    <path d="M 265.92 41.472 
L 414.72 41.472 
" style="fill:none;stroke:#000000;stroke-linecap:square;stroke-linejoin:miter;stroke-width:0.8;"/>
   </g>
   <g id="text_9">
    <!-- Periodogram -->
    <g transform="translate(307.698125 35.472)scale(0.1 -0.1)">
     <defs>
      <path d="M 52.484375 46.6875 
L 52.484375 1.125 
Q 52.484375 -10.0625 46.328125 -16.140625 
Q 40.1875 -22.21875 28.8125 -22.21875 
Q 23.6875 -22.21875 19 -21.28125 
Q 14.3125 -20.359375 10.015625 -18.5 
L 10.015625 -7.625 
L 14.703125 -7.625 
Q 15.578125 -12.703125 18.84375 -15.046875 
Q 22.125 -17.390625 28.21875 -17.390625 
Q 36.140625 -17.390625 39.8125 -12.921875 
Q 43.5 -8.453125 43.5 1.125 
L 43.5 8.109375 
Q 40.875 3.21875 36.796875 0.890625 
Q 32.71875 -1.421875 26.703125 -1.421875 
Q 17.140625 -1.421875 11.0625 6.171875 
Q 4.984375 13.765625 4.984375 25.984375 
Q 4.984375 38.1875 11.03125 45.75 
Q 17.09375 53.328125 26.703125 53.328125 
Q 32.71875 53.328125 36.796875 51 
Q 40.875 48.6875 43.5 43.796875 
L 43.5 51.90625 
L 61.078125 51.90625 
L 61.078125 46.6875 
z
M 43.5 28.515625 
Q 43.5 37.84375 39.90625 42.765625 
Q 36.328125 47.703125 29.5 47.703125 
Q 22.5625 47.703125 19.015625 42.234375 
Q 15.484375 36.765625 15.484375 25.984375 
Q 15.484375 15.234375 19.015625 9.71875 
Q 22.5625 4.203125 29.5 4.203125 
Q 36.328125 4.203125 39.90625 9.109375 
Q 43.5 14.015625 43.5 23.390625 
z
" id="DejaVuSerif-103"/>
      <path d="M 39.796875 16.3125 
L 39.796875 27.296875 
L 28.21875 27.296875 
Q 21.53125 27.296875 18.25 24.40625 
Q 14.984375 21.53125 14.984375 15.578125 
Q 14.984375 10.15625 18.296875 6.984375 
Q 21.625 3.8125 27.296875 3.8125 
Q 32.90625 3.8125 36.34375 7.28125 
Q 39.796875 10.75 39.796875 16.3125 
z
M 48.78125 32.421875 
L 48.78125 5.171875 
L 56.78125 5.171875 
L 56.78125 0 
L 39.796875 0 
L 39.796875 5.609375 
Q 36.8125 2 32.90625 0.28125 
Q 29 -1.421875 23.78125 -1.421875 
Q 15.140625 -1.421875 10.0625 3.171875 
Q 4.984375 7.765625 4.984375 15.578125 
Q 4.984375 23.640625 10.796875 28.078125 
Q 16.609375 32.515625 27.203125 32.515625 
L 39.796875 32.515625 
L 39.796875 36.078125 
Q 39.796875 42 36.203125 45.234375 
Q 32.625 48.484375 26.125 48.484375 
Q 20.75 48.484375 17.578125 46.046875 
Q 14.40625 43.609375 13.625 38.8125 
L 8.984375 38.8125 
L 8.984375 49.3125 
Q 13.671875 51.3125 18.09375 52.3125 
Q 22.515625 53.328125 26.703125 53.328125 
Q 37.5 53.328125 43.140625 47.96875 
Q 48.78125 42.625 48.78125 32.421875 
z
" id="DejaVuSerif-97"/>
      <path d="M 51.8125 41.796875 
Q 54.390625 47.515625 58.421875 50.421875 
Q 62.453125 53.328125 67.828125 53.328125 
Q 75.984375 53.328125 79.984375 48.265625 
Q 83.984375 43.21875 83.984375 33.015625 
L 83.984375 5.171875 
L 92.09375 5.171875 
L 92.09375 0 
L 67.1875 0 
L 67.1875 5.171875 
L 75 5.171875 
L 75 31.984375 
Q 75 39.9375 72.65625 43.3125 
Q 70.3125 46.6875 64.890625 46.6875 
Q 58.890625 46.6875 55.734375 42.140625 
Q 52.59375 37.59375 52.59375 28.90625 
L 52.59375 5.171875 
L 60.40625 5.171875 
L 60.40625 0 
L 35.796875 0 
L 35.796875 5.171875 
L 43.609375 5.171875 
L 43.609375 32.328125 
Q 43.609375 40.09375 41.265625 43.390625 
Q 38.921875 46.6875 33.5 46.6875 
Q 27.484375 46.6875 24.328125 42.140625 
Q 21.1875 37.59375 21.1875 28.90625 
L 21.1875 5.171875 
L 29 5.171875 
L 29 0 
L 4.109375 0 
L 4.109375 5.171875 
L 12.203125 5.171875 
L 12.203125 46.78125 
L 3.609375 46.78125 
L 3.609375 51.90625 
L 21.1875 51.90625 
L 21.1875 42.671875 
Q 23.6875 47.859375 27.53125 50.59375 
Q 31.390625 53.328125 36.28125 53.328125 
Q 42.328125 53.328125 46.375 50.3125 
Q 50.4375 47.3125 51.8125 41.796875 
z
" id="DejaVuSerif-109"/>
     </defs>
     <use xlink:href="#DejaVuSerif-80"/>
     <use x="62.785156" xlink:href="#DejaVuSerif-101"/>
     <use x="121.964844" xlink:href="#DejaVuSerif-114"/>
     <use x="169.767578" xlink:href="#DejaVuSerif-105"/>
     <use x="201.75" xlink:href="#DejaVuSerif-111"/>
     <use x="261.955078" xlink:href="#DejaVuSerif-100"/>
     <use x="325.96875" xlink:href="#DejaVuSerif-111"/>
     <use x="386.173828" xlink:href="#DejaVuSerif-103"/>
     <use x="450.1875" xlink:href="#DejaVuSerif-114"/>
     <use x="497.990234" xlink:href="#DejaVuSerif-97"/>
     <use x="557.609375" xlink:href="#DejaVuSerif-109"/>
    </g>
   </g>
   <g id="legend_1">
    <g id="patch_7">
     <path d="M 419.648125 108.123071 
L 454.431875 108.123071 
Q 455.231875 108.123071 455.231875 107.323071 
L 455.231875 84.238071 
Q 455.231875 83.438071 454.431875 83.438071 
L 419.648125 83.438071 
Q 418.848125 83.438071 418.848125 84.238071 
L 418.848125 107.323071 
Q 418.848125 108.123071 419.648125 108.123071 
z
" style="fill:#ffffff;opacity:0.8;stroke:#cccccc;stroke-linejoin:miter;"/>
    </g>
    <g id="line2d_28">
     <path d="M 420.448125 86.677446 
L 428.448125 86.677446 
" style="fill:none;stroke:#808080;stroke-dasharray:5.55,2.4;stroke-dashoffset:0;stroke-width:1.5;"/>
    </g>
    <g id="text_10">
     <!-- 99.9% FAP -->
     <g transform="translate(431.648125 88.077446)scale(0.04 -0.04)">
      <defs>
       <path d="M 46.78125 32.671875 
Q 43.5 29 39.25 27.1875 
Q 35.015625 25.390625 29.6875 25.390625 
Q 18.84375 25.390625 12.5625 31.9375 
Q 6.296875 38.484375 6.296875 49.8125 
Q 6.296875 60.890625 13.109375 67.546875 
Q 19.921875 74.21875 31.296875 74.21875 
Q 43.65625 74.21875 50.265625 65.015625 
Q 56.890625 55.8125 56.890625 38.71875 
Q 56.890625 19.578125 49.015625 9.078125 
Q 41.15625 -1.421875 26.90625 -1.421875 
Q 23.046875 -1.421875 18.796875 -0.6875 
Q 14.546875 0.046875 10.109375 1.515625 
L 10.109375 13.625 
L 15.578125 13.625 
Q 16.21875 8.6875 19.390625 6.046875 
Q 22.5625 3.421875 27.875 3.421875 
Q 37.359375 3.421875 41.984375 10.5625 
Q 46.625 17.71875 46.78125 32.671875 
z
M 30.90625 69.390625 
Q 23.96875 69.390625 20.28125 64.328125 
Q 16.609375 59.28125 16.609375 49.8125 
Q 16.609375 40.328125 20.28125 35.25 
Q 23.96875 30.171875 30.90625 30.171875 
Q 37.84375 30.171875 41.53125 35.078125 
Q 45.21875 39.984375 45.21875 49.21875 
Q 45.21875 58.9375 41.5 64.15625 
Q 37.796875 69.390625 30.90625 69.390625 
z
" id="DejaVuSerif-57"/>
       <path d="M 22.40625 69.671875 
Q 18.109375 69.671875 15.6875 65.625 
Q 13.28125 61.578125 13.28125 54.296875 
Q 13.28125 47.125 15.75 43.015625 
Q 18.21875 38.921875 22.40625 38.921875 
Q 26.5625 38.921875 28.96875 43 
Q 31.390625 47.078125 31.390625 54.296875 
Q 31.390625 61.53125 28.96875 65.59375 
Q 26.5625 69.671875 22.40625 69.671875 
z
M 72.703125 33.890625 
Q 68.453125 33.890625 66.03125 29.78125 
Q 63.625 25.6875 63.625 18.40625 
Q 63.625 11.234375 66.0625 7.15625 
Q 68.5 3.078125 72.703125 3.078125 
Q 76.90625 3.078125 79.296875 7.15625 
Q 81.6875 11.234375 81.6875 18.40625 
Q 81.6875 25.640625 79.265625 29.765625 
Q 76.859375 33.890625 72.703125 33.890625 
z
M 72.703125 38.28125 
Q 80.421875 38.28125 84.953125 32.90625 
Q 89.5 27.546875 89.5 18.40625 
Q 89.5 9.28125 84.9375 3.921875 
Q 80.375 -1.421875 72.703125 -1.421875 
Q 64.890625 -1.421875 60.34375 3.921875 
Q 55.8125 9.28125 55.8125 18.40625 
Q 55.8125 27.59375 60.375 32.9375 
Q 64.9375 38.28125 72.703125 38.28125 
z
M 66.609375 74.21875 
L 74.03125 74.21875 
L 28.421875 -1.421875 
L 21 -1.421875 
z
M 22.3125 74.21875 
Q 30.03125 74.21875 34.609375 68.875 
Q 39.203125 63.53125 39.203125 54.390625 
Q 39.203125 45.171875 34.640625 39.84375 
Q 30.078125 34.515625 22.3125 34.515625 
Q 14.546875 34.515625 10.03125 39.859375 
Q 5.515625 45.21875 5.515625 54.390625 
Q 5.515625 63.484375 10.046875 68.84375 
Q 14.59375 74.21875 22.3125 74.21875 
z
" id="DejaVuSerif-37"/>
       <path d="M 5.515625 0 
L 5.515625 5.171875 
L 14.796875 5.171875 
L 14.796875 67.671875 
L 5.515625 67.671875 
L 5.515625 72.90625 
L 65.1875 72.90625 
L 65.1875 56.6875 
L 59.1875 56.6875 
L 59.1875 66.890625 
L 24.703125 66.890625 
L 24.703125 42.484375 
L 49.609375 42.484375 
L 49.609375 51.609375 
L 55.609375 51.609375 
L 55.609375 27.390625 
L 49.609375 27.390625 
L 49.609375 36.53125 
L 24.703125 36.53125 
L 24.703125 5.171875 
L 36.375 5.171875 
L 36.375 0 
z
" id="DejaVuSerif-70"/>
       <path d="M 20.015625 26.421875 
L 46.78125 26.421875 
L 33.40625 61.078125 
z
M -0.59375 0 
L -0.59375 5.171875 
L 5.8125 5.171875 
L 31.78125 72.90625 
L 39.984375 72.90625 
L 66.015625 5.171875 
L 73.1875 5.171875 
L 73.1875 0 
L 46.6875 0 
L 46.6875 5.171875 
L 54.78125 5.171875 
L 48.6875 21.1875 
L 18.015625 21.1875 
L 11.921875 5.171875 
L 19.921875 5.171875 
L 19.921875 0 
z
" id="DejaVuSerif-65"/>
      </defs>
      <use xlink:href="#DejaVuSerif-57"/>
      <use x="63.623047" xlink:href="#DejaVuSerif-57"/>
      <use x="127.246094" xlink:href="#DejaVuSerif-46"/>
      <use x="159.033203" xlink:href="#DejaVuSerif-57"/>
      <use x="222.65625" xlink:href="#DejaVuSerif-37"/>
      <use x="317.675781" xlink:href="#DejaVuSerif-32"/>
      <use x="349.462891" xlink:href="#DejaVuSerif-70"/>
      <use x="410.097656" xlink:href="#DejaVuSerif-65"/>
      <use x="482.314453" xlink:href="#DejaVuSerif-80"/>
     </g>
    </g>
    <g id="line2d_29">
     <path d="M 420.448125 92.548696 
L 428.448125 92.548696 
" style="fill:none;stroke:#a9a9a9;stroke-dasharray:5.55,2.4;stroke-dashoffset:0;stroke-width:1.5;"/>
    </g>
    <g id="text_11">
     <!-- 99.0% FAP -->
     <g transform="translate(431.648125 93.948696)scale(0.04 -0.04)">
      <use xlink:href="#DejaVuSerif-57"/>
      <use x="63.623047" xlink:href="#DejaVuSerif-57"/>
      <use x="127.246094" xlink:href="#DejaVuSerif-46"/>
      <use x="159.033203" xlink:href="#DejaVuSerif-48"/>
      <use x="222.65625" xlink:href="#DejaVuSerif-37"/>
      <use x="317.675781" xlink:href="#DejaVuSerif-32"/>
      <use x="349.462891" xlink:href="#DejaVuSerif-70"/>
      <use x="410.097656" xlink:href="#DejaVuSerif-65"/>
      <use x="482.314453" xlink:href="#DejaVuSerif-80"/>
     </g>
    </g>
    <g id="line2d_30">
     <path d="M 420.448125 98.419946 
L 428.448125 98.419946 
" style="fill:none;stroke:#c0c0c0;stroke-dasharray:5.55,2.4;stroke-dashoffset:0;stroke-width:1.5;"/>
    </g>
    <g id="text_12">
     <!-- 95.0% FAP -->
     <g transform="translate(431.648125 99.819946)scale(0.04 -0.04)">
      <defs>
       <path d="M 50.296875 72.90625 
L 50.296875 64.890625 
L 16.890625 64.890625 
L 16.890625 44 
Q 19.4375 45.75 22.828125 46.625 
Q 26.21875 47.515625 30.421875 47.515625 
Q 42.234375 47.515625 49.0625 40.96875 
Q 55.90625 34.421875 55.90625 23.09375 
Q 55.90625 11.53125 49 5.046875 
Q 42.09375 -1.421875 29.59375 -1.421875 
Q 24.5625 -1.421875 19.28125 -0.1875 
Q 14.015625 1.03125 8.5 3.515625 
L 8.5 17.671875 
L 14.015625 17.671875 
Q 14.453125 10.75 18.421875 7.078125 
Q 22.40625 3.421875 29.59375 3.421875 
Q 37.3125 3.421875 41.453125 8.5 
Q 45.609375 13.578125 45.609375 23.09375 
Q 45.609375 32.5625 41.484375 37.609375 
Q 37.359375 42.671875 29.59375 42.671875 
Q 25.203125 42.671875 21.84375 41.109375 
Q 18.5 39.546875 15.921875 36.28125 
L 11.71875 36.28125 
L 11.71875 72.90625 
z
" id="DejaVuSerif-53"/>
      </defs>
      <use xlink:href="#DejaVuSerif-57"/>
      <use x="63.623047" xlink:href="#DejaVuSerif-53"/>
      <use x="127.246094" xlink:href="#DejaVuSerif-46"/>
      <use x="159.033203" xlink:href="#DejaVuSerif-48"/>
      <use x="222.65625" xlink:href="#DejaVuSerif-37"/>
      <use x="317.675781" xlink:href="#DejaVuSerif-32"/>
      <use x="349.462891" xlink:href="#DejaVuSerif-70"/>
      <use x="410.097656" xlink:href="#DejaVuSerif-65"/>
      <use x="482.314453" xlink:href="#DejaVuSerif-80"/>
     </g>
    </g>
    <g id="line2d_31">
     <path d="M 420.448125 104.291196 
L 428.448125 104.291196 
" style="fill:none;stroke:#d3d3d3;stroke-dasharray:5.55,2.4;stroke-dashoffset:0;stroke-width:1.5;"/>
    </g>
    <g id="text_13">
     <!-- 90.0% FAP -->
     <g transform="translate(431.648125 105.691196)scale(0.04 -0.04)">
      <use xlink:href="#DejaVuSerif-57"/>
      <use x="63.623047" xlink:href="#DejaVuSerif-48"/>
      <use x="127.246094" xlink:href="#DejaVuSerif-46"/>
      <use x="159.033203" xlink:href="#DejaVuSerif-48"/>
      <use x="222.65625" xlink:href="#DejaVuSerif-37"/>
      <use x="317.675781" xlink:href="#DejaVuSerif-32"/>
      <use x="349.462891" xlink:href="#DejaVuSerif-70"/>
      <use x="410.097656" xlink:href="#DejaVuSerif-65"/>
      <use x="482.314453" xlink:href="#DejaVuSerif-80"/>
     </g>
    </g>
   </g>
  </g>
  <g id="axes_2">
   <g id="patch_8">
    <path d="M 57.6 150.089143 
L 206.4 150.089143 
L 206.4 41.472 
L 57.6 41.472 
z
" style="fill:#ffffff;"/>
   </g>
   <g id="PathCollection_1">
    <defs>
     <path d="M 0 0.707107 
C 0.187527 0.707107 0.367398 0.632602 0.5 0.5 
C 0.632602 0.367398 0.707107 0.187527 0.707107 0 
C 0.707107 -0.187527 0.632602 -0.367398 0.5 -0.5 
C 0.367398 -0.632602 0.187527 -0.707107 0 -0.707107 
C -0.187527 -0.707107 -0.367398 -0.632602 -0.5 -0.5 
C -0.632602 -0.367398 -0.707107 -0.187527 -0.707107 0 
C -0.707107 0.187527 -0.632602 0.367398 -0.5 0.5 
C -0.367398 0.632602 -0.187527 0.707107 0 0.707107 
z
" id="m33cc25a8e5" style="stroke:#1f77b4;"/>
    </defs>
    <g clip-path="url(#pb12c93d6be)">
     <use style="fill:#1f77b4;stroke:#1f77b4;" x="84.955041" xlink:href="#m33cc25a8e5" y="108.148696"/>
     <use style="fill:#1f77b4;stroke:#1f77b4;" x="84.960615" xlink:href="#m33cc25a8e5" y="120.940605"/>
     <use style="fill:#1f77b4;stroke:#1f77b4;" x="98.662227" xlink:href="#m33cc25a8e5" y="84.547189"/>
     <use style="fill:#1f77b4;stroke:#1f77b4;" x="98.667801" xlink:href="#m33cc25a8e5" y="79.872206"/>
     <use style="fill:#1f77b4;stroke:#1f77b4;" x="123.79719" xlink:href="#m33cc25a8e5" y="99.259438"/>
     <use style="fill:#1f77b4;stroke:#1f77b4;" x="87.927613" xlink:href="#m33cc25a8e5" y="98.836446"/>
     <use style="fill:#1f77b4;stroke:#1f77b4;" x="87.966354" xlink:href="#m33cc25a8e5" y="64.974941"/>
     <use style="fill:#1f77b4;stroke:#1f77b4;" x="114.187926" xlink:href="#m33cc25a8e5" y="94.890339"/>
     <use style="fill:#1f77b4;stroke:#1f77b4;" x="126.215946" xlink:href="#m33cc25a8e5" y="124.541329"/>
     <use style="fill:#1f77b4;stroke:#1f77b4;" x="126.221381" xlink:href="#m33cc25a8e5" y="131.757628"/>
     <use style="fill:#1f77b4;stroke:#1f77b4;" x="78.942402" xlink:href="#m33cc25a8e5" y="134.508707"/>
     <use style="fill:#1f77b4;stroke:#1f77b4;" x="78.947976" xlink:href="#m33cc25a8e5" y="128.387356"/>
     <use style="fill:#1f77b4;stroke:#1f77b4;" x="102.641958" xlink:href="#m33cc25a8e5" y="87.590788"/>
     <use style="fill:#1f77b4;stroke:#1f77b4;" x="102.647533" xlink:href="#m33cc25a8e5" y="54.952821"/>
     <use style="fill:#1f77b4;stroke:#1f77b4;" x="114.564482" xlink:href="#m33cc25a8e5" y="92.554728"/>
     <use style="fill:#1f77b4;stroke:#1f77b4;" x="114.570055" xlink:href="#m33cc25a8e5" y="95.386881"/>
     <use style="fill:#1f77b4;stroke:#1f77b4;" x="127.248329" xlink:href="#m33cc25a8e5" y="124.324142"/>
     <use style="fill:#1f77b4;stroke:#1f77b4;" x="127.253764" xlink:href="#m33cc25a8e5" y="118.623901"/>
     <use style="fill:#1f77b4;stroke:#1f77b4;" x="67.163145" xlink:href="#m33cc25a8e5" y="97.038954"/>
     <use style="fill:#1f77b4;stroke:#1f77b4;" x="67.16872" xlink:href="#m33cc25a8e5" y="103.598344"/>
     <use style="fill:#1f77b4;stroke:#1f77b4;" x="79.192418" xlink:href="#m33cc25a8e5" y="124.103291"/>
     <use style="fill:#1f77b4;stroke:#1f77b4;" x="79.197853" xlink:href="#m33cc25a8e5" y="114.51921"/>
     <use style="fill:#1f77b4;stroke:#1f77b4;" x="116.040034" xlink:href="#m33cc25a8e5" y="103.806028"/>
     <use style="fill:#1f77b4;stroke:#1f77b4;" x="128.029594" xlink:href="#m33cc25a8e5" y="101.447749"/>
     <use style="fill:#1f77b4;stroke:#1f77b4;" x="68.408758" xlink:href="#m33cc25a8e5" y="113.567602"/>
     <use style="fill:#1f77b4;stroke:#1f77b4;" x="80.452246" xlink:href="#m33cc25a8e5" y="112.744288"/>
     <use style="fill:#1f77b4;stroke:#1f77b4;" x="92.470789" xlink:href="#m33cc25a8e5" y="58.313689"/>
     <use style="fill:#1f77b4;stroke:#1f77b4;" x="104.562217" xlink:href="#m33cc25a8e5" y="86.261626"/>
     <use style="fill:#1f77b4;stroke:#1f77b4;" x="106.017842" xlink:href="#m33cc25a8e5" y="104.927506"/>
     <use style="fill:#1f77b4;stroke:#1f77b4;" x="68.750905" xlink:href="#m33cc25a8e5" y="133.92525"/>
     <use style="fill:#1f77b4;stroke:#1f77b4;" x="82.548378" xlink:href="#m33cc25a8e5" y="100.165707"/>
     <use style="fill:#1f77b4;stroke:#1f77b4;" x="94.811219" xlink:href="#m33cc25a8e5" y="77.851884"/>
     <use style="fill:#1f77b4;stroke:#1f77b4;" x="107.241296" xlink:href="#m33cc25a8e5" y="81.074955"/>
     <use style="fill:#1f77b4;stroke:#1f77b4;" x="71.987131" xlink:href="#m33cc25a8e5" y="145.152"/>
     <use style="fill:#1f77b4;stroke:#1f77b4;" x="121.508724" xlink:href="#m33cc25a8e5" y="87.360534"/>
     <use style="fill:#1f77b4;stroke:#1f77b4;" x="98.06448" xlink:href="#m33cc25a8e5" y="76.500053"/>
     <use style="fill:#1f77b4;stroke:#1f77b4;" x="75.168344" xlink:href="#m33cc25a8e5" y="131.447982"/>
     <use style="fill:#1f77b4;stroke:#1f77b4;" x="94.895003" xlink:href="#m33cc25a8e5" y="52.39636"/>
     <use style="fill:#1f77b4;stroke:#1f77b4;" x="64.363636" xlink:href="#m33cc25a8e5" y="140.386341"/>
     <use style="fill:#1f77b4;stroke:#1f77b4;" x="101.78417" xlink:href="#m33cc25a8e5" y="46.409143"/>
     <use style="fill:#1f77b4;stroke:#1f77b4;" x="101.789606" xlink:href="#m33cc25a8e5" y="72.608589"/>
     <use style="fill:#1f77b4;stroke:#1f77b4;" x="113.517443" xlink:href="#m33cc25a8e5" y="87.74185"/>
     <use style="fill:#1f77b4;stroke:#1f77b4;" x="113.522879" xlink:href="#m33cc25a8e5" y="71.466324"/>
     <use style="fill:#1f77b4;stroke:#1f77b4;" x="125.038889" xlink:href="#m33cc25a8e5" y="120.194801"/>
     <use style="fill:#1f77b4;stroke:#1f77b4;" x="125.044324" xlink:href="#m33cc25a8e5" y="109.572296"/>
    </g>
   </g>
   <g id="PathCollection_2">
    <g clip-path="url(#pb12c93d6be)">
     <use style="fill:#1f77b4;stroke:#1f77b4;" x="156.56181" xlink:href="#m33cc25a8e5" y="108.148696"/>
     <use style="fill:#1f77b4;stroke:#1f77b4;" x="156.567385" xlink:href="#m33cc25a8e5" y="120.940605"/>
     <use style="fill:#1f77b4;stroke:#1f77b4;" x="170.268996" xlink:href="#m33cc25a8e5" y="84.547189"/>
     <use style="fill:#1f77b4;stroke:#1f77b4;" x="170.274571" xlink:href="#m33cc25a8e5" y="79.872206"/>
     <use style="fill:#1f77b4;stroke:#1f77b4;" x="195.403959" xlink:href="#m33cc25a8e5" y="99.259438"/>
     <use style="fill:#1f77b4;stroke:#1f77b4;" x="159.534382" xlink:href="#m33cc25a8e5" y="98.836446"/>
     <use style="fill:#1f77b4;stroke:#1f77b4;" x="159.573123" xlink:href="#m33cc25a8e5" y="64.974941"/>
     <use style="fill:#1f77b4;stroke:#1f77b4;" x="185.794695" xlink:href="#m33cc25a8e5" y="94.890339"/>
     <use style="fill:#1f77b4;stroke:#1f77b4;" x="197.822715" xlink:href="#m33cc25a8e5" y="124.541329"/>
     <use style="fill:#1f77b4;stroke:#1f77b4;" x="197.82815" xlink:href="#m33cc25a8e5" y="131.757628"/>
     <use style="fill:#1f77b4;stroke:#1f77b4;" x="150.549172" xlink:href="#m33cc25a8e5" y="134.508707"/>
     <use style="fill:#1f77b4;stroke:#1f77b4;" x="150.554745" xlink:href="#m33cc25a8e5" y="128.387356"/>
     <use style="fill:#1f77b4;stroke:#1f77b4;" x="174.248727" xlink:href="#m33cc25a8e5" y="87.590788"/>
     <use style="fill:#1f77b4;stroke:#1f77b4;" x="174.254302" xlink:href="#m33cc25a8e5" y="54.952821"/>
     <use style="fill:#1f77b4;stroke:#1f77b4;" x="186.171251" xlink:href="#m33cc25a8e5" y="92.554728"/>
     <use style="fill:#1f77b4;stroke:#1f77b4;" x="186.176825" xlink:href="#m33cc25a8e5" y="95.386881"/>
     <use style="fill:#1f77b4;stroke:#1f77b4;" x="198.855098" xlink:href="#m33cc25a8e5" y="124.324142"/>
     <use style="fill:#1f77b4;stroke:#1f77b4;" x="198.860533" xlink:href="#m33cc25a8e5" y="118.623901"/>
     <use style="fill:#1f77b4;stroke:#1f77b4;" x="138.769914" xlink:href="#m33cc25a8e5" y="97.038954"/>
     <use style="fill:#1f77b4;stroke:#1f77b4;" x="138.775489" xlink:href="#m33cc25a8e5" y="103.598344"/>
     <use style="fill:#1f77b4;stroke:#1f77b4;" x="150.799187" xlink:href="#m33cc25a8e5" y="124.103291"/>
     <use style="fill:#1f77b4;stroke:#1f77b4;" x="150.804622" xlink:href="#m33cc25a8e5" y="114.51921"/>
     <use style="fill:#1f77b4;stroke:#1f77b4;" x="187.646803" xlink:href="#m33cc25a8e5" y="103.806028"/>
     <use style="fill:#1f77b4;stroke:#1f77b4;" x="199.636364" xlink:href="#m33cc25a8e5" y="101.447749"/>
     <use style="fill:#1f77b4;stroke:#1f77b4;" x="140.015527" xlink:href="#m33cc25a8e5" y="113.567602"/>
     <use style="fill:#1f77b4;stroke:#1f77b4;" x="152.059016" xlink:href="#m33cc25a8e5" y="112.744288"/>
     <use style="fill:#1f77b4;stroke:#1f77b4;" x="164.077558" xlink:href="#m33cc25a8e5" y="58.313689"/>
     <use style="fill:#1f77b4;stroke:#1f77b4;" x="176.168987" xlink:href="#m33cc25a8e5" y="86.261626"/>
     <use style="fill:#1f77b4;stroke:#1f77b4;" x="177.624611" xlink:href="#m33cc25a8e5" y="104.927506"/>
     <use style="fill:#1f77b4;stroke:#1f77b4;" x="140.357675" xlink:href="#m33cc25a8e5" y="133.92525"/>
     <use style="fill:#1f77b4;stroke:#1f77b4;" x="154.155148" xlink:href="#m33cc25a8e5" y="100.165707"/>
     <use style="fill:#1f77b4;stroke:#1f77b4;" x="166.417989" xlink:href="#m33cc25a8e5" y="77.851884"/>
     <use style="fill:#1f77b4;stroke:#1f77b4;" x="178.848066" xlink:href="#m33cc25a8e5" y="81.074955"/>
     <use style="fill:#1f77b4;stroke:#1f77b4;" x="143.593901" xlink:href="#m33cc25a8e5" y="145.152"/>
     <use style="fill:#1f77b4;stroke:#1f77b4;" x="193.115494" xlink:href="#m33cc25a8e5" y="87.360534"/>
     <use style="fill:#1f77b4;stroke:#1f77b4;" x="169.671249" xlink:href="#m33cc25a8e5" y="76.500053"/>
     <use style="fill:#1f77b4;stroke:#1f77b4;" x="146.775113" xlink:href="#m33cc25a8e5" y="131.447982"/>
     <use style="fill:#1f77b4;stroke:#1f77b4;" x="166.501773" xlink:href="#m33cc25a8e5" y="52.39636"/>
     <use style="fill:#1f77b4;stroke:#1f77b4;" x="135.970406" xlink:href="#m33cc25a8e5" y="140.386341"/>
     <use style="fill:#1f77b4;stroke:#1f77b4;" x="173.39094" xlink:href="#m33cc25a8e5" y="46.409143"/>
     <use style="fill:#1f77b4;stroke:#1f77b4;" x="173.396375" xlink:href="#m33cc25a8e5" y="72.608589"/>
     <use style="fill:#1f77b4;stroke:#1f77b4;" x="185.124213" xlink:href="#m33cc25a8e5" y="87.74185"/>
     <use style="fill:#1f77b4;stroke:#1f77b4;" x="185.129648" xlink:href="#m33cc25a8e5" y="71.466324"/>
     <use style="fill:#1f77b4;stroke:#1f77b4;" x="196.645659" xlink:href="#m33cc25a8e5" y="120.194801"/>
     <use style="fill:#1f77b4;stroke:#1f77b4;" x="196.651094" xlink:href="#m33cc25a8e5" y="109.572296"/>
    </g>
   </g>
   <g id="matplotlib.axis_3">
    <g id="xtick_23">
     <g id="line2d_32">
      <g>
       <use style="stroke:#000000;stroke-width:0.8;" x="59.286138" xlink:href="#mdc3358c474" y="150.089143"/>
      </g>
     </g>
     <g id="text_14">
      <!-- 0 -->
      <g transform="translate(56.104888 164.68758)scale(0.1 -0.1)">
       <use xlink:href="#DejaVuSerif-48"/>
      </g>
     </g>
    </g>
    <g id="xtick_24">
     <g id="line2d_33">
      <g>
       <use style="stroke:#000000;stroke-width:0.8;" x="130.892908" xlink:href="#mdc3358c474" y="150.089143"/>
      </g>
     </g>
     <g id="text_15">
      <!-- 1 -->
      <g transform="translate(127.711658 164.68758)scale(0.1 -0.1)">
       <use xlink:href="#DejaVuSerif-49"/>
      </g>
     </g>
    </g>
    <g id="xtick_25">
     <g id="line2d_34">
      <g>
       <use style="stroke:#000000;stroke-width:0.8;" x="202.499677" xlink:href="#mdc3358c474" y="150.089143"/>
      </g>
     </g>
     <g id="text_16">
      <!-- 2 -->
      <g transform="translate(199.318427 164.68758)scale(0.1 -0.1)">
       <use xlink:href="#DejaVuSerif-50"/>
      </g>
     </g>
    </g>
    <g id="text_17">
     <!-- Phase (P = 5.947 d) -->
     <g transform="translate(81.582812 178.365705)scale(0.1 -0.1)">
      <defs>
       <path d="M 4.109375 0 
L 4.109375 5.171875 
L 12.203125 5.171875 
L 12.203125 70.796875 
L 3.609375 70.796875 
L 3.609375 75.984375 
L 21.1875 75.984375 
L 21.1875 42.671875 
Q 23.6875 47.953125 27.65625 50.640625 
Q 31.640625 53.328125 36.921875 53.328125 
Q 45.515625 53.328125 49.5625 48.390625 
Q 53.609375 43.453125 53.609375 33.015625 
L 53.609375 5.171875 
L 61.625 5.171875 
L 61.625 0 
L 36.8125 0 
L 36.8125 5.171875 
L 44.578125 5.171875 
L 44.578125 30.171875 
Q 44.578125 39.703125 42.25 43.1875 
Q 39.9375 46.6875 33.984375 46.6875 
Q 27.734375 46.6875 24.453125 42.140625 
Q 21.1875 37.59375 21.1875 28.90625 
L 21.1875 5.171875 
L 29 5.171875 
L 29 0 
z
" id="DejaVuSerif-104"/>
       <path d="M 5.609375 2.875 
L 5.609375 14.984375 
L 10.796875 14.984375 
Q 10.984375 9.1875 14.421875 6.296875 
Q 17.875 3.421875 24.609375 3.421875 
Q 30.671875 3.421875 33.84375 5.6875 
Q 37.015625 7.953125 37.015625 12.3125 
Q 37.015625 15.71875 34.6875 17.8125 
Q 32.375 19.921875 24.90625 22.3125 
L 18.40625 24.515625 
Q 11.71875 26.65625 8.71875 29.875 
Q 5.71875 33.109375 5.71875 38.09375 
Q 5.71875 45.21875 10.9375 49.265625 
Q 16.15625 53.328125 25.390625 53.328125 
Q 29.5 53.328125 34.03125 52.25 
Q 38.578125 51.171875 43.40625 49.125 
L 43.40625 37.796875 
L 38.234375 37.796875 
Q 38.03125 42.828125 34.703125 45.65625 
Q 31.390625 48.484375 25.6875 48.484375 
Q 20.015625 48.484375 17.109375 46.484375 
Q 14.203125 44.484375 14.203125 40.484375 
Q 14.203125 37.203125 16.40625 35.21875 
Q 18.609375 33.25 25.203125 31.203125 
L 32.328125 29 
Q 39.703125 26.703125 42.9375 23.265625 
Q 46.1875 19.828125 46.1875 14.40625 
Q 46.1875 7.03125 40.546875 2.796875 
Q 34.90625 -1.421875 25 -1.421875 
Q 19.96875 -1.421875 15.1875 -0.34375 
Q 10.40625 0.734375 5.609375 2.875 
z
" id="DejaVuSerif-115"/>
       <path d="M 31.890625 -15.578125 
Q 20.015625 -10.25 13.953125 1.296875 
Q 7.90625 12.84375 7.90625 30.171875 
Q 7.90625 47.5625 13.953125 59.109375 
Q 20.015625 70.65625 31.890625 75.984375 
L 31.890625 71.1875 
Q 24.359375 66.015625 21.09375 56.609375 
Q 17.828125 47.21875 17.828125 30.171875 
Q 17.828125 13.1875 21.09375 3.78125 
Q 24.359375 -5.609375 31.890625 -10.796875 
z
" id="DejaVuSerif-40"/>
       <path d="M 10.59375 45.21875 
L 73.1875 45.21875 
L 73.1875 37.40625 
L 10.59375 37.40625 
z
M 10.59375 25.296875 
L 73.1875 25.296875 
L 73.1875 17.484375 
L 10.59375 17.484375 
z
" id="DejaVuSerif-61"/>
       <path d="M 56.390625 67.921875 
L 27.875 0 
L 20.609375 0 
L 47.796875 64.890625 
L 14.109375 64.890625 
L 14.109375 55.90625 
L 8.40625 55.90625 
L 8.40625 72.90625 
L 56.390625 72.90625 
z
" id="DejaVuSerif-55"/>
       <path d="M 7.078125 -15.578125 
L 7.078125 -10.796875 
Q 14.59375 -5.609375 17.890625 3.78125 
Q 21.1875 13.1875 21.1875 30.171875 
Q 21.1875 47.21875 17.890625 56.609375 
Q 14.59375 66.015625 7.078125 71.1875 
L 7.078125 75.984375 
Q 19 70.65625 25.046875 59.109375 
Q 31.109375 47.5625 31.109375 30.171875 
Q 31.109375 12.84375 25.046875 1.296875 
Q 19 -10.25 7.078125 -15.578125 
z
" id="DejaVuSerif-41"/>
      </defs>
      <use xlink:href="#DejaVuSerif-80"/>
      <use x="67.285156" xlink:href="#DejaVuSerif-104"/>
      <use x="131.689453" xlink:href="#DejaVuSerif-97"/>
      <use x="191.308594" xlink:href="#DejaVuSerif-115"/>
      <use x="242.626953" xlink:href="#DejaVuSerif-101"/>
      <use x="301.806641" xlink:href="#DejaVuSerif-32"/>
      <use x="333.59375" xlink:href="#DejaVuSerif-40"/>
      <use x="372.607422" xlink:href="#DejaVuSerif-80"/>
      <use x="439.892578" xlink:href="#DejaVuSerif-32"/>
      <use x="471.679688" xlink:href="#DejaVuSerif-61"/>
      <use x="555.46875" xlink:href="#DejaVuSerif-32"/>
      <use x="587.255859" xlink:href="#DejaVuSerif-53"/>
      <use x="650.878906" xlink:href="#DejaVuSerif-46"/>
      <use x="682.666016" xlink:href="#DejaVuSerif-57"/>
      <use x="746.289062" xlink:href="#DejaVuSerif-52"/>
      <use x="809.912109" xlink:href="#DejaVuSerif-55"/>
      <use x="873.535156" xlink:href="#DejaVuSerif-32"/>
      <use x="905.322266" xlink:href="#DejaVuSerif-100"/>
      <use x="969.335938" xlink:href="#DejaVuSerif-41"/>
     </g>
    </g>
   </g>
   <g id="matplotlib.axis_4">
    <g id="ytick_5">
     <g id="line2d_35">
      <g>
       <use style="stroke:#000000;stroke-width:0.8;" x="57.6" xlink:href="#meb9217922f" y="49.911569"/>
      </g>
     </g>
     <g id="text_18">
      <!-- 16.625 -->
      <g transform="translate(15.609375 53.710788)scale(0.1 -0.1)">
       <use xlink:href="#DejaVuSerif-49"/>
       <use x="63.623047" xlink:href="#DejaVuSerif-54"/>
       <use x="127.246094" xlink:href="#DejaVuSerif-46"/>
       <use x="159.033203" xlink:href="#DejaVuSerif-54"/>
       <use x="222.65625" xlink:href="#DejaVuSerif-50"/>
       <use x="286.279297" xlink:href="#DejaVuSerif-53"/>
      </g>
     </g>
    </g>
    <g id="ytick_6">
     <g id="line2d_36">
      <g>
       <use style="stroke:#000000;stroke-width:0.8;" x="57.6" xlink:href="#meb9217922f" y="74.6595"/>
      </g>
     </g>
     <g id="text_19">
      <!-- 16.650 -->
      <g transform="translate(15.609375 78.458718)scale(0.1 -0.1)">
       <use xlink:href="#DejaVuSerif-49"/>
       <use x="63.623047" xlink:href="#DejaVuSerif-54"/>
       <use x="127.246094" xlink:href="#DejaVuSerif-46"/>
       <use x="159.033203" xlink:href="#DejaVuSerif-54"/>
       <use x="222.65625" xlink:href="#DejaVuSerif-53"/>
       <use x="286.279297" xlink:href="#DejaVuSerif-48"/>
      </g>
     </g>
    </g>
    <g id="ytick_7">
     <g id="line2d_37">
      <g>
       <use style="stroke:#000000;stroke-width:0.8;" x="57.6" xlink:href="#meb9217922f" y="99.40743"/>
      </g>
     </g>
     <g id="text_20">
      <!-- 16.675 -->
      <g transform="translate(15.609375 103.206649)scale(0.1 -0.1)">
       <use xlink:href="#DejaVuSerif-49"/>
       <use x="63.623047" xlink:href="#DejaVuSerif-54"/>
       <use x="127.246094" xlink:href="#DejaVuSerif-46"/>
       <use x="159.033203" xlink:href="#DejaVuSerif-54"/>
       <use x="222.65625" xlink:href="#DejaVuSerif-55"/>
       <use x="286.279297" xlink:href="#DejaVuSerif-53"/>
      </g>
     </g>
    </g>
    <g id="ytick_8">
     <g id="line2d_38">
      <g>
       <use style="stroke:#000000;stroke-width:0.8;" x="57.6" xlink:href="#meb9217922f" y="124.155361"/>
      </g>
     </g>
     <g id="text_21">
      <!-- 16.700 -->
      <g transform="translate(15.609375 127.954579)scale(0.1 -0.1)">
       <use xlink:href="#DejaVuSerif-49"/>
       <use x="63.623047" xlink:href="#DejaVuSerif-54"/>
       <use x="127.246094" xlink:href="#DejaVuSerif-46"/>
       <use x="159.033203" xlink:href="#DejaVuSerif-55"/>
       <use x="222.65625" xlink:href="#DejaVuSerif-48"/>
       <use x="286.279297" xlink:href="#DejaVuSerif-48"/>
      </g>
     </g>
    </g>
    <g id="ytick_9">
     <g id="line2d_39">
      <g>
       <use style="stroke:#000000;stroke-width:0.8;" x="57.6" xlink:href="#meb9217922f" y="148.903291"/>
      </g>
     </g>
     <g id="text_22">
      <!-- 16.725 -->
      <g transform="translate(15.609375 152.70251)scale(0.1 -0.1)">
       <use xlink:href="#DejaVuSerif-49"/>
       <use x="63.623047" xlink:href="#DejaVuSerif-54"/>
       <use x="127.246094" xlink:href="#DejaVuSerif-46"/>
       <use x="159.033203" xlink:href="#DejaVuSerif-55"/>
       <use x="222.65625" xlink:href="#DejaVuSerif-50"/>
       <use x="286.279297" xlink:href="#DejaVuSerif-53"/>
      </g>
     </g>
    </g>
    <g id="text_23">
     <!-- Mag -->
     <g transform="translate(9.3875 107.082134)rotate(-90)scale(0.1 -0.1)">
      <defs>
       <path d="M 5.515625 0 
L 5.515625 5.171875 
L 14.796875 5.171875 
L 14.796875 67.671875 
L 4.984375 67.671875 
L 4.984375 72.90625 
L 26.21875 72.90625 
L 51.8125 21 
L 77.390625 72.90625 
L 97.3125 72.90625 
L 97.3125 67.671875 
L 87.59375 67.671875 
L 87.59375 5.171875 
L 96.921875 5.171875 
L 96.921875 0 
L 68.40625 0 
L 68.40625 5.171875 
L 77.6875 5.171875 
L 77.6875 61.53125 
L 52.6875 10.6875 
L 45.796875 10.6875 
L 20.796875 61.53125 
L 20.796875 5.171875 
L 30.078125 5.171875 
L 30.078125 0 
z
" id="DejaVuSerif-77"/>
      </defs>
      <use xlink:href="#DejaVuSerif-77"/>
      <use x="102.392578" xlink:href="#DejaVuSerif-97"/>
      <use x="162.011719" xlink:href="#DejaVuSerif-103"/>
     </g>
    </g>
   </g>
   <g id="patch_9">
    <path d="M 57.6 150.089143 
L 57.6 41.472 
" style="fill:none;stroke:#000000;stroke-linecap:square;stroke-linejoin:miter;stroke-width:0.8;"/>
   </g>
   <g id="patch_10">
    <path d="M 206.4 150.089143 
L 206.4 41.472 
" style="fill:none;stroke:#000000;stroke-linecap:square;stroke-linejoin:miter;stroke-width:0.8;"/>
   </g>
   <g id="patch_11">
    <path d="M 57.6 150.089143 
L 206.4 150.089143 
" style="fill:none;stroke:#000000;stroke-linecap:square;stroke-linejoin:miter;stroke-width:0.8;"/>
   </g>
   <g id="patch_12">
    <path d="M 57.6 41.472 
L 206.4 41.472 
" style="fill:none;stroke:#000000;stroke-linecap:square;stroke-linejoin:miter;stroke-width:0.8;"/>
   </g>
   <g id="text_24">
    <!-- Folded Light Curve -->
    <g transform="translate(83.086719 35.472)scale(0.1 -0.1)">
     <defs>
      <path d="M 20.515625 5.171875 
L 29 5.171875 
L 29 0 
L 2.875 0 
L 2.875 5.171875 
L 11.53125 5.171875 
L 11.53125 70.796875 
L 2.875 70.796875 
L 2.875 75.984375 
L 20.515625 75.984375 
z
" id="DejaVuSerif-108"/>
      <path d="M 5.515625 0 
L 5.515625 5.171875 
L 14.796875 5.171875 
L 14.796875 67.671875 
L 5.515625 67.671875 
L 5.515625 72.90625 
L 33.984375 72.90625 
L 33.984375 67.671875 
L 24.703125 67.671875 
L 24.703125 6 
L 58.015625 6 
L 58.015625 18.21875 
L 64.015625 18.21875 
L 64.015625 0 
z
" id="DejaVuSerif-76"/>
      <path d="M 10.796875 46.6875 
L 2.875 46.6875 
L 2.875 51.90625 
L 10.796875 51.90625 
L 10.796875 68.015625 
L 19.828125 68.015625 
L 19.828125 51.90625 
L 36.71875 51.90625 
L 36.71875 46.6875 
L 19.828125 46.6875 
L 19.828125 13.71875 
Q 19.828125 7.125 21.09375 5.265625 
Q 22.359375 3.421875 25.78125 3.421875 
Q 29.296875 3.421875 30.90625 5.484375 
Q 32.515625 7.5625 32.625 12.203125 
L 39.40625 12.203125 
Q 39.015625 5.125 35.546875 1.84375 
Q 32.078125 -1.421875 25 -1.421875 
Q 17.234375 -1.421875 14.015625 2.015625 
Q 10.796875 5.46875 10.796875 13.71875 
z
" id="DejaVuSerif-116"/>
      <path d="M 70.515625 19.28125 
Q 67.28125 9.078125 59.6875 3.828125 
Q 52.09375 -1.421875 40.484375 -1.421875 
Q 33.34375 -1.421875 27.234375 1.015625 
Q 21.140625 3.46875 16.40625 8.203125 
Q 10.9375 13.671875 8.265625 20.625 
Q 5.609375 27.59375 5.609375 36.375 
Q 5.609375 53.375 15.421875 63.796875 
Q 25.25 74.21875 41.3125 74.21875 
Q 47.265625 74.21875 54 72.65625 
Q 60.75 71.09375 68.5 67.921875 
L 68.5 51.125 
L 62.984375 51.125 
Q 61.1875 60.296875 55.734375 64.640625 
Q 50.296875 69 40.484375 69 
Q 28.8125 69 22.796875 60.71875 
Q 16.796875 52.4375 16.796875 36.375 
Q 16.796875 20.359375 22.796875 12.078125 
Q 28.8125 3.8125 40.484375 3.8125 
Q 48.640625 3.8125 53.90625 7.6875 
Q 59.1875 11.578125 61.53125 19.28125 
z
" id="DejaVuSerif-67"/>
      <path d="M 35.40625 51.90625 
L 52.203125 51.90625 
L 52.203125 5.171875 
L 60.6875 5.171875 
L 60.6875 0 
L 43.21875 0 
L 43.21875 9.1875 
Q 40.71875 4 36.765625 1.28125 
Q 32.8125 -1.421875 27.59375 -1.421875 
Q 18.953125 -1.421875 14.875 3.484375 
Q 10.796875 8.40625 10.796875 18.890625 
L 10.796875 46.6875 
L 2.6875 46.6875 
L 2.6875 51.90625 
L 19.828125 51.90625 
L 19.828125 21.6875 
Q 19.828125 12.203125 22.140625 8.6875 
Q 24.46875 5.171875 30.421875 5.171875 
Q 36.671875 5.171875 39.9375 9.765625 
Q 43.21875 14.359375 43.21875 23.09375 
L 43.21875 46.6875 
L 35.40625 46.6875 
z
" id="DejaVuSerif-117"/>
      <path d="M 24.703125 0 
L 5.609375 46.6875 
L -0.296875 46.6875 
L -0.296875 51.90625 
L 23.578125 51.90625 
L 23.578125 46.6875 
L 15.28125 46.6875 
L 29.890625 10.984375 
L 44.484375 46.6875 
L 36.71875 46.6875 
L 36.71875 51.90625 
L 56.203125 51.90625 
L 56.203125 46.6875 
L 50.390625 46.6875 
L 31.296875 0 
z
" id="DejaVuSerif-118"/>
     </defs>
     <use xlink:href="#DejaVuSerif-70"/>
     <use x="63.884766" xlink:href="#DejaVuSerif-111"/>
     <use x="124.089844" xlink:href="#DejaVuSerif-108"/>
     <use x="156.072266" xlink:href="#DejaVuSerif-100"/>
     <use x="220.085938" xlink:href="#DejaVuSerif-101"/>
     <use x="279.265625" xlink:href="#DejaVuSerif-100"/>
     <use x="343.279297" xlink:href="#DejaVuSerif-32"/>
     <use x="375.066406" xlink:href="#DejaVuSerif-76"/>
     <use x="441.472656" xlink:href="#DejaVuSerif-105"/>
     <use x="473.455078" xlink:href="#DejaVuSerif-103"/>
     <use x="537.46875" xlink:href="#DejaVuSerif-104"/>
     <use x="601.873047" xlink:href="#DejaVuSerif-116"/>
     <use x="642.058594" xlink:href="#DejaVuSerif-32"/>
     <use x="673.845703" xlink:href="#DejaVuSerif-67"/>
     <use x="750.359375" xlink:href="#DejaVuSerif-117"/>
     <use x="814.763672" xlink:href="#DejaVuSerif-114"/>
     <use x="862.566406" xlink:href="#DejaVuSerif-118"/>
     <use x="919.060547" xlink:href="#DejaVuSerif-101"/>
    </g>
   </g>
  </g>
  <g id="axes_3">
   <g id="patch_13">
    <path d="M 57.6 307.584 
L 414.72 307.584 
L 414.72 198.966857 
L 57.6 198.966857 
z
" style="fill:#ffffff;"/>
   </g>
   <g id="PathCollection_3">
    <g clip-path="url(#p3f8600c90f)">
     <use style="fill:#1f77b4;stroke:#1f77b4;" x="73.832727" xlink:href="#m33cc25a8e5" y="262.189272"/>
     <use style="fill:#1f77b4;stroke:#1f77b4;" x="73.833119" xlink:href="#m33cc25a8e5" y="271.583526"/>
     <use style="fill:#1f77b4;stroke:#1f77b4;" x="94.910293" xlink:href="#m33cc25a8e5" y="244.856552"/>
     <use style="fill:#1f77b4;stroke:#1f77b4;" x="94.910684" xlink:href="#m33cc25a8e5" y="241.423289"/>
     <use style="fill:#1f77b4;stroke:#1f77b4;" x="96.675449" xlink:href="#m33cc25a8e5" y="255.661086"/>
     <use style="fill:#1f77b4;stroke:#1f77b4;" x="99.185169" xlink:href="#m33cc25a8e5" y="255.350445"/>
     <use style="fill:#1f77b4;stroke:#1f77b4;" x="99.18789" xlink:href="#m33cc25a8e5" y="230.482881"/>
     <use style="fill:#1f77b4;stroke:#1f77b4;" x="121.144305" xlink:href="#m33cc25a8e5" y="252.452462"/>
     <use style="fill:#1f77b4;stroke:#1f77b4;" x="121.988998" xlink:href="#m33cc25a8e5" y="274.227864"/>
     <use style="fill:#1f77b4;stroke:#1f77b4;" x="121.98938" xlink:href="#m33cc25a8e5" y="279.527445"/>
     <use style="fill:#1f77b4;stroke:#1f77b4;" x="123.69785" xlink:href="#m33cc25a8e5" y="281.547811"/>
     <use style="fill:#1f77b4;stroke:#1f77b4;" x="123.698242" xlink:href="#m33cc25a8e5" y="277.052349"/>
     <use style="fill:#1f77b4;stroke:#1f77b4;" x="125.362202" xlink:href="#m33cc25a8e5" y="247.091742"/>
     <use style="fill:#1f77b4;stroke:#1f77b4;" x="125.362594" xlink:href="#m33cc25a8e5" y="223.122732"/>
     <use style="fill:#1f77b4;stroke:#1f77b4;" x="126.199487" xlink:href="#m33cc25a8e5" y="250.737212"/>
     <use style="fill:#1f77b4;stroke:#1f77b4;" x="126.199878" xlink:href="#m33cc25a8e5" y="252.817118"/>
     <use style="fill:#1f77b4;stroke:#1f77b4;" x="127.090237" xlink:href="#m33cc25a8e5" y="274.068364"/>
     <use style="fill:#1f77b4;stroke:#1f77b4;" x="127.090618" xlink:href="#m33cc25a8e5" y="269.882162"/>
     <use style="fill:#1f77b4;stroke:#1f77b4;" x="127.899364" xlink:href="#m33cc25a8e5" y="254.030384"/>
     <use style="fill:#1f77b4;stroke:#1f77b4;" x="127.899756" xlink:href="#m33cc25a8e5" y="258.847537"/>
     <use style="fill:#1f77b4;stroke:#1f77b4;" x="128.744146" xlink:href="#m33cc25a8e5" y="273.906173"/>
     <use style="fill:#1f77b4;stroke:#1f77b4;" x="128.744527" xlink:href="#m33cc25a8e5" y="266.867716"/>
     <use style="fill:#1f77b4;stroke:#1f77b4;" x="136.360585" xlink:href="#m33cc25a8e5" y="259.000058"/>
     <use style="fill:#1f77b4;stroke:#1f77b4;" x="142.231315" xlink:href="#m33cc25a8e5" y="257.26816"/>
     <use style="fill:#1f77b4;stroke:#1f77b4;" x="143.073052" xlink:href="#m33cc25a8e5" y="266.168864"/>
     <use style="fill:#1f77b4;stroke:#1f77b4;" x="143.918832" xlink:href="#m33cc25a8e5" y="265.56423"/>
     <use style="fill:#1f77b4;stroke:#1f77b4;" x="144.76286" xlink:href="#m33cc25a8e5" y="225.590922"/>
     <use style="fill:#1f77b4;stroke:#1f77b4;" x="145.612006" xlink:href="#m33cc25a8e5" y="246.115618"/>
     <use style="fill:#1f77b4;stroke:#1f77b4;" x="155.771705" xlink:href="#m33cc25a8e5" y="259.82366"/>
     <use style="fill:#1f77b4;stroke:#1f77b4;" x="163.21203" xlink:href="#m33cc25a8e5" y="281.119325"/>
     <use style="fill:#1f77b4;stroke:#1f77b4;" x="164.180987" xlink:href="#m33cc25a8e5" y="256.326641"/>
     <use style="fill:#1f77b4;stroke:#1f77b4;" x="165.042171" xlink:href="#m33cc25a8e5" y="239.939584"/>
     <use style="fill:#1f77b4;stroke:#1f77b4;" x="170.943837" xlink:href="#m33cc25a8e5" y="242.306576"/>
     <use style="fill:#1f77b4;stroke:#1f77b4;" x="173.496775" xlink:href="#m33cc25a8e5" y="289.364143"/>
     <use style="fill:#1f77b4;stroke:#1f77b4;" x="207.146958" xlink:href="#m33cc25a8e5" y="246.922645"/>
     <use style="fill:#1f77b4;stroke:#1f77b4;" x="210.529274" xlink:href="#m33cc25a8e5" y="238.946812"/>
     <use style="fill:#1f77b4;stroke:#1f77b4;" x="218.978819" xlink:href="#m33cc25a8e5" y="279.300043"/>
     <use style="fill:#1f77b4;stroke:#1f77b4;" x="346.082599" xlink:href="#m33cc25a8e5" y="221.245292"/>
     <use style="fill:#1f77b4;stroke:#1f77b4;" x="379.139631" xlink:href="#m33cc25a8e5" y="285.864288"/>
     <use style="fill:#1f77b4;stroke:#1f77b4;" x="396.853779" xlink:href="#m33cc25a8e5" y="216.848337"/>
     <use style="fill:#1f77b4;stroke:#1f77b4;" x="396.854161" xlink:href="#m33cc25a8e5" y="236.088959"/>
     <use style="fill:#1f77b4;stroke:#1f77b4;" x="397.677773" xlink:href="#m33cc25a8e5" y="247.20268"/>
     <use style="fill:#1f77b4;stroke:#1f77b4;" x="397.678155" xlink:href="#m33cc25a8e5" y="235.25009"/>
     <use style="fill:#1f77b4;stroke:#1f77b4;" x="398.486891" xlink:href="#m33cc25a8e5" y="271.035815"/>
     <use style="fill:#1f77b4;stroke:#1f77b4;" x="398.487273" xlink:href="#m33cc25a8e5" y="263.23475"/>
    </g>
   </g>
   <g id="matplotlib.axis_5">
    <g id="xtick_26">
     <g id="line2d_40">
      <g>
       <use style="stroke:#000000;stroke-width:0.8;" x="97.996351" xlink:href="#mdc3358c474" y="307.584"/>
      </g>
     </g>
     <g id="text_25">
      <!-- 58300 -->
      <g transform="translate(82.090101 322.182437)scale(0.1 -0.1)">
       <defs>
        <path d="M 46.578125 19.921875 
Q 46.578125 27.734375 42.6875 32.046875 
Q 38.8125 36.375 31.78125 36.375 
Q 24.75 36.375 20.875 32.046875 
Q 17 27.734375 17 19.921875 
Q 17 12.0625 20.875 7.734375 
Q 24.75 3.421875 31.78125 3.421875 
Q 38.8125 3.421875 42.6875 7.734375 
Q 46.578125 12.0625 46.578125 19.921875 
z
M 44.578125 55.328125 
Q 44.578125 61.96875 41.203125 65.671875 
Q 37.84375 69.390625 31.78125 69.390625 
Q 25.78125 69.390625 22.390625 65.671875 
Q 19 61.96875 19 55.328125 
Q 19 48.640625 22.390625 44.921875 
Q 25.78125 41.21875 31.78125 41.21875 
Q 37.84375 41.21875 41.203125 44.921875 
Q 44.578125 48.640625 44.578125 55.328125 
z
M 39.3125 38.8125 
Q 47.609375 37.703125 52.25 32.6875 
Q 56.890625 27.6875 56.890625 19.921875 
Q 56.890625 9.671875 50.390625 4.125 
Q 43.890625 -1.421875 31.78125 -1.421875 
Q 19.734375 -1.421875 13.203125 4.125 
Q 6.6875 9.671875 6.6875 19.921875 
Q 6.6875 27.6875 11.328125 32.6875 
Q 15.96875 37.703125 24.3125 38.8125 
Q 16.9375 40.140625 13 44.40625 
Q 9.078125 48.6875 9.078125 55.328125 
Q 9.078125 64.109375 15.125 69.15625 
Q 21.1875 74.21875 31.78125 74.21875 
Q 42.390625 74.21875 48.4375 69.15625 
Q 54.5 64.109375 54.5 55.328125 
Q 54.5 48.6875 50.5625 44.40625 
Q 46.625 40.140625 39.3125 38.8125 
z
" id="DejaVuSerif-56"/>
        <path d="M 9.71875 69.828125 
Q 15.4375 71.96875 20.671875 73.09375 
Q 25.921875 74.21875 30.515625 74.21875 
Q 41.21875 74.21875 47.21875 69.59375 
Q 53.21875 64.984375 53.21875 56.78125 
Q 53.21875 50.203125 49.0625 45.78125 
Q 44.921875 41.359375 37.3125 39.796875 
Q 46.296875 38.53125 51.25 33.28125 
Q 56.203125 28.03125 56.203125 19.671875 
Q 56.203125 9.46875 49.34375 4.015625 
Q 42.484375 -1.421875 29.59375 -1.421875 
Q 23.875 -1.421875 18.421875 -0.1875 
Q 12.984375 1.03125 7.625 3.515625 
L 7.625 17.671875 
L 13.09375 17.671875 
Q 13.578125 10.640625 17.828125 7.03125 
Q 22.078125 3.421875 29.78125 3.421875 
Q 37.25 3.421875 41.578125 7.734375 
Q 45.90625 12.0625 45.90625 19.578125 
Q 45.90625 28.171875 41.453125 32.59375 
Q 37.015625 37.015625 28.421875 37.015625 
L 23.78125 37.015625 
L 23.78125 42 
L 26.21875 42 
Q 34.765625 42 39.03125 45.53125 
Q 43.3125 49.078125 43.3125 56.203125 
Q 43.3125 62.59375 39.796875 65.984375 
Q 36.28125 69.390625 29.6875 69.390625 
Q 23.09375 69.390625 19.453125 66.265625 
Q 15.828125 63.140625 15.1875 56.984375 
L 9.71875 56.984375 
z
" id="DejaVuSerif-51"/>
       </defs>
       <use xlink:href="#DejaVuSerif-53"/>
       <use x="63.623047" xlink:href="#DejaVuSerif-56"/>
       <use x="127.246094" xlink:href="#DejaVuSerif-51"/>
       <use x="190.869141" xlink:href="#DejaVuSerif-48"/>
       <use x="254.492188" xlink:href="#DejaVuSerif-48"/>
      </g>
     </g>
    </g>
    <g id="xtick_27">
     <g id="line2d_41">
      <g>
       <use style="stroke:#000000;stroke-width:0.8;" x="140.27554" xlink:href="#mdc3358c474" y="307.584"/>
      </g>
     </g>
     <g id="text_26">
      <!-- 58350 -->
      <g transform="translate(124.36929 322.182437)scale(0.1 -0.1)">
       <use xlink:href="#DejaVuSerif-53"/>
       <use x="63.623047" xlink:href="#DejaVuSerif-56"/>
       <use x="127.246094" xlink:href="#DejaVuSerif-51"/>
       <use x="190.869141" xlink:href="#DejaVuSerif-53"/>
       <use x="254.492188" xlink:href="#DejaVuSerif-48"/>
      </g>
     </g>
    </g>
    <g id="xtick_28">
     <g id="line2d_42">
      <g>
       <use style="stroke:#000000;stroke-width:0.8;" x="182.55473" xlink:href="#mdc3358c474" y="307.584"/>
      </g>
     </g>
     <g id="text_27">
      <!-- 58400 -->
      <g transform="translate(166.64848 322.182437)scale(0.1 -0.1)">
       <use xlink:href="#DejaVuSerif-53"/>
       <use x="63.623047" xlink:href="#DejaVuSerif-56"/>
       <use x="127.246094" xlink:href="#DejaVuSerif-52"/>
       <use x="190.869141" xlink:href="#DejaVuSerif-48"/>
       <use x="254.492188" xlink:href="#DejaVuSerif-48"/>
      </g>
     </g>
    </g>
    <g id="xtick_29">
     <g id="line2d_43">
      <g>
       <use style="stroke:#000000;stroke-width:0.8;" x="224.833919" xlink:href="#mdc3358c474" y="307.584"/>
      </g>
     </g>
     <g id="text_28">
      <!-- 58450 -->
      <g transform="translate(208.927669 322.182437)scale(0.1 -0.1)">
       <use xlink:href="#DejaVuSerif-53"/>
       <use x="63.623047" xlink:href="#DejaVuSerif-56"/>
       <use x="127.246094" xlink:href="#DejaVuSerif-52"/>
       <use x="190.869141" xlink:href="#DejaVuSerif-53"/>
       <use x="254.492188" xlink:href="#DejaVuSerif-48"/>
      </g>
     </g>
    </g>
    <g id="xtick_30">
     <g id="line2d_44">
      <g>
       <use style="stroke:#000000;stroke-width:0.8;" x="267.113108" xlink:href="#mdc3358c474" y="307.584"/>
      </g>
     </g>
     <g id="text_29">
      <!-- 58500 -->
      <g transform="translate(251.206858 322.182437)scale(0.1 -0.1)">
       <use xlink:href="#DejaVuSerif-53"/>
       <use x="63.623047" xlink:href="#DejaVuSerif-56"/>
       <use x="127.246094" xlink:href="#DejaVuSerif-53"/>
       <use x="190.869141" xlink:href="#DejaVuSerif-48"/>
       <use x="254.492188" xlink:href="#DejaVuSerif-48"/>
      </g>
     </g>
    </g>
    <g id="xtick_31">
     <g id="line2d_45">
      <g>
       <use style="stroke:#000000;stroke-width:0.8;" x="309.392298" xlink:href="#mdc3358c474" y="307.584"/>
      </g>
     </g>
     <g id="text_30">
      <!-- 58550 -->
      <g transform="translate(293.486048 322.182437)scale(0.1 -0.1)">
       <use xlink:href="#DejaVuSerif-53"/>
       <use x="63.623047" xlink:href="#DejaVuSerif-56"/>
       <use x="127.246094" xlink:href="#DejaVuSerif-53"/>
       <use x="190.869141" xlink:href="#DejaVuSerif-53"/>
       <use x="254.492188" xlink:href="#DejaVuSerif-48"/>
      </g>
     </g>
    </g>
    <g id="xtick_32">
     <g id="line2d_46">
      <g>
       <use style="stroke:#000000;stroke-width:0.8;" x="351.671487" xlink:href="#mdc3358c474" y="307.584"/>
      </g>
     </g>
     <g id="text_31">
      <!-- 58600 -->
      <g transform="translate(335.765237 322.182437)scale(0.1 -0.1)">
       <use xlink:href="#DejaVuSerif-53"/>
       <use x="63.623047" xlink:href="#DejaVuSerif-56"/>
       <use x="127.246094" xlink:href="#DejaVuSerif-54"/>
       <use x="190.869141" xlink:href="#DejaVuSerif-48"/>
       <use x="254.492188" xlink:href="#DejaVuSerif-48"/>
      </g>
     </g>
    </g>
    <g id="xtick_33">
     <g id="line2d_47">
      <g>
       <use style="stroke:#000000;stroke-width:0.8;" x="393.950677" xlink:href="#mdc3358c474" y="307.584"/>
      </g>
     </g>
     <g id="text_32">
      <!-- 58650 -->
      <g transform="translate(378.044427 322.182437)scale(0.1 -0.1)">
       <use xlink:href="#DejaVuSerif-53"/>
       <use x="63.623047" xlink:href="#DejaVuSerif-56"/>
       <use x="127.246094" xlink:href="#DejaVuSerif-54"/>
       <use x="190.869141" xlink:href="#DejaVuSerif-53"/>
       <use x="254.492188" xlink:href="#DejaVuSerif-48"/>
      </g>
     </g>
    </g>
    <g id="text_33">
     <!-- MJD -->
     <g transform="translate(225.027187 335.860562)scale(0.1 -0.1)">
      <defs>
       <path d="M -8.40625 -17.484375 
L -8.40625 -6 
L -2.828125 -6 
Q -2.6875 -10.84375 -0.53125 -13.203125 
Q 1.609375 -15.578125 5.90625 -15.578125 
Q 11.71875 -15.578125 14.015625 -11.90625 
Q 16.3125 -8.25 16.3125 2.390625 
L 16.3125 67.671875 
L 4.984375 67.671875 
L 4.984375 72.90625 
L 35.5 72.90625 
L 35.5 67.671875 
L 26.21875 67.671875 
L 26.21875 2 
Q 26.21875 -10.0625 21.375 -15.421875 
Q 16.546875 -20.796875 5.8125 -20.796875 
Q 2.34375 -20.796875 -1.234375 -19.96875 
Q -4.828125 -19.140625 -8.40625 -17.484375 
z
" id="DejaVuSerif-74"/>
       <path d="M 24.703125 5.171875 
L 33.796875 5.171875 
Q 48 5.171875 55.59375 13.28125 
Q 63.1875 21.390625 63.1875 36.53125 
Q 63.1875 51.65625 55.609375 59.65625 
Q 48.046875 67.671875 33.796875 67.671875 
L 24.703125 67.671875 
z
M 5.515625 0 
L 5.515625 5.171875 
L 14.796875 5.171875 
L 14.796875 67.671875 
L 5.515625 67.671875 
L 5.515625 72.90625 
L 34.515625 72.90625 
Q 53.375 72.90625 63.890625 63.28125 
Q 74.421875 53.65625 74.421875 36.53125 
Q 74.421875 19.34375 63.875 9.671875 
Q 53.328125 0 34.515625 0 
z
" id="DejaVuSerif-68"/>
      </defs>
      <use xlink:href="#DejaVuSerif-77"/>
      <use x="102.392578" xlink:href="#DejaVuSerif-74"/>
      <use x="142.480469" xlink:href="#DejaVuSerif-68"/>
     </g>
    </g>
   </g>
   <g id="matplotlib.axis_6">
    <g id="ytick_10">
     <g id="line2d_48">
      <g>
       <use style="stroke:#000000;stroke-width:0.8;" x="57.6" xlink:href="#meb9217922f" y="201.245843"/>
      </g>
     </g>
     <g id="text_34">
      <!-- 16.60 -->
      <g transform="translate(21.971875 205.045061)scale(0.1 -0.1)">
       <use xlink:href="#DejaVuSerif-49"/>
       <use x="63.623047" xlink:href="#DejaVuSerif-54"/>
       <use x="127.246094" xlink:href="#DejaVuSerif-46"/>
       <use x="159.033203" xlink:href="#DejaVuSerif-54"/>
       <use x="222.65625" xlink:href="#DejaVuSerif-48"/>
      </g>
     </g>
    </g>
    <g id="ytick_11">
     <g id="line2d_49">
      <g>
       <use style="stroke:#000000;stroke-width:0.8;" x="57.6" xlink:href="#meb9217922f" y="237.595128"/>
      </g>
     </g>
     <g id="text_35">
      <!-- 16.65 -->
      <g transform="translate(21.971875 241.394346)scale(0.1 -0.1)">
       <use xlink:href="#DejaVuSerif-49"/>
       <use x="63.623047" xlink:href="#DejaVuSerif-54"/>
       <use x="127.246094" xlink:href="#DejaVuSerif-46"/>
       <use x="159.033203" xlink:href="#DejaVuSerif-54"/>
       <use x="222.65625" xlink:href="#DejaVuSerif-53"/>
      </g>
     </g>
    </g>
    <g id="ytick_12">
     <g id="line2d_50">
      <g>
       <use style="stroke:#000000;stroke-width:0.8;" x="57.6" xlink:href="#meb9217922f" y="273.944413"/>
      </g>
     </g>
     <g id="text_36">
      <!-- 16.70 -->
      <g transform="translate(21.971875 277.743631)scale(0.1 -0.1)">
       <use xlink:href="#DejaVuSerif-49"/>
       <use x="63.623047" xlink:href="#DejaVuSerif-54"/>
       <use x="127.246094" xlink:href="#DejaVuSerif-46"/>
       <use x="159.033203" xlink:href="#DejaVuSerif-55"/>
       <use x="222.65625" xlink:href="#DejaVuSerif-48"/>
      </g>
     </g>
    </g>
    <g id="text_37">
     <!-- Mag -->
     <g transform="translate(15.75 264.576991)rotate(-90)scale(0.1 -0.1)">
      <use xlink:href="#DejaVuSerif-77"/>
      <use x="102.392578" xlink:href="#DejaVuSerif-97"/>
      <use x="162.011719" xlink:href="#DejaVuSerif-103"/>
     </g>
    </g>
   </g>
   <g id="LineCollection_5">
    <path clip-path="url(#p3f8600c90f)" d="M 73.832727 249.036643 
L 73.832727 275.3419 
" style="fill:none;stroke:#1f77b4;stroke-width:0.5;"/>
    <path clip-path="url(#p3f8600c90f)" d="M 73.833119 258.386381 
L 73.833119 284.780672 
" style="fill:none;stroke:#1f77b4;stroke-width:0.5;"/>
    <path clip-path="url(#p3f8600c90f)" d="M 94.910293 231.784815 
L 94.910293 257.928288 
" style="fill:none;stroke:#1f77b4;stroke-width:0.5;"/>
    <path clip-path="url(#p3f8600c90f)" d="M 94.910684 228.367386 
L 94.910684 254.479192 
" style="fill:none;stroke:#1f77b4;stroke-width:0.5;"/>
    <path clip-path="url(#p3f8600c90f)" d="M 96.675449 242.539108 
L 96.675449 268.783064 
" style="fill:none;stroke:#1f77b4;stroke-width:0.5;"/>
    <path clip-path="url(#p3f8600c90f)" d="M 99.185169 242.229922 
L 99.185169 268.470967 
" style="fill:none;stroke:#1f77b4;stroke-width:0.5;"/>
    <path clip-path="url(#p3f8600c90f)" d="M 99.18789 217.477029 
L 99.18789 243.488733 
" style="fill:none;stroke:#1f77b4;stroke-width:0.5;"/>
    <path clip-path="url(#p3f8600c90f)" d="M 121.144305 239.345471 
L 121.144305 265.559452 
" style="fill:none;stroke:#1f77b4;stroke-width:0.5;"/>
    <path clip-path="url(#p3f8600c90f)" d="M 121.988998 261.0181 
L 121.988998 287.437628 
" style="fill:none;stroke:#1f77b4;stroke-width:0.5;"/>
    <path clip-path="url(#p3f8600c90f)" d="M 121.98938 266.29228 
L 121.98938 292.762609 
" style="fill:none;stroke:#1f77b4;stroke-width:0.5;"/>
    <path clip-path="url(#p3f8600c90f)" d="M 123.69785 268.302925 
L 123.69785 294.792696 
" style="fill:none;stroke:#1f77b4;stroke-width:0.5;"/>
    <path clip-path="url(#p3f8600c90f)" d="M 123.698242 263.829068 
L 123.698242 290.27563 
" style="fill:none;stroke:#1f77b4;stroke-width:0.5;"/>
    <path clip-path="url(#p3f8600c90f)" d="M 125.362202 234.00966 
L 125.362202 260.173824 
" style="fill:none;stroke:#1f77b4;stroke-width:0.5;"/>
    <path clip-path="url(#p3f8600c90f)" d="M 125.362594 210.150205 
L 125.362594 236.09526 
" style="fill:none;stroke:#1f77b4;stroke-width:0.5;"/>
    <path clip-path="url(#p3f8600c90f)" d="M 126.199487 237.638207 
L 126.199487 263.836216 
" style="fill:none;stroke:#1f77b4;stroke-width:0.5;"/>
    <path clip-path="url(#p3f8600c90f)" d="M 126.199878 239.708425 
L 126.199878 265.925811 
" style="fill:none;stroke:#1f77b4;stroke-width:0.5;"/>
    <path clip-path="url(#p3f8600c90f)" d="M 127.090237 260.859362 
L 127.090237 287.277365 
" style="fill:none;stroke:#1f77b4;stroke-width:0.5;"/>
    <path clip-path="url(#p3f8600c90f)" d="M 127.090618 256.693113 
L 127.090618 283.071211 
" style="fill:none;stroke:#1f77b4;stroke-width:0.5;"/>
    <path clip-path="url(#p3f8600c90f)" d="M 127.899364 240.91603 
L 127.899364 267.144739 
" style="fill:none;stroke:#1f77b4;stroke-width:0.5;"/>
    <path clip-path="url(#p3f8600c90f)" d="M 127.899756 245.710627 
L 127.899756 271.984447 
" style="fill:none;stroke:#1f77b4;stroke-width:0.5;"/>
    <path clip-path="url(#p3f8600c90f)" d="M 128.744146 260.697949 
L 128.744146 287.114398 
" style="fill:none;stroke:#1f77b4;stroke-width:0.5;"/>
    <path clip-path="url(#p3f8600c90f)" d="M 128.744527 253.692973 
L 128.744527 280.042458 
" style="fill:none;stroke:#1f77b4;stroke-width:0.5;"/>
    <path clip-path="url(#p3f8600c90f)" d="M 136.360585 245.862433 
L 136.360585 272.137683 
" style="fill:none;stroke:#1f77b4;stroke-width:0.5;"/>
    <path clip-path="url(#p3f8600c90f)" d="M 142.231315 244.138659 
L 142.231315 270.397662 
" style="fill:none;stroke:#1f77b4;stroke-width:0.5;"/>
    <path clip-path="url(#p3f8600c90f)" d="M 143.073052 252.997435 
L 143.073052 279.340293 
" style="fill:none;stroke:#1f77b4;stroke-width:0.5;"/>
    <path clip-path="url(#p3f8600c90f)" d="M 143.918832 252.39566 
L 143.918832 278.732801 
" style="fill:none;stroke:#1f77b4;stroke-width:0.5;"/>
    <path clip-path="url(#p3f8600c90f)" d="M 144.76286 212.607252 
L 144.76286 238.574592 
" style="fill:none;stroke:#1f77b4;stroke-width:0.5;"/>
    <path clip-path="url(#p3f8600c90f)" d="M 145.612006 233.038059 
L 145.612006 259.193177 
" style="fill:none;stroke:#1f77b4;stroke-width:0.5;"/>
    <path clip-path="url(#p3f8600c90f)" d="M 155.771705 246.682163 
L 155.771705 272.965158 
" style="fill:none;stroke:#1f77b4;stroke-width:0.5;"/>
    <path clip-path="url(#p3f8600c90f)" d="M 163.21203 267.876502 
L 163.21203 294.362149 
" style="fill:none;stroke:#1f77b4;stroke-width:0.5;"/>
    <path clip-path="url(#p3f8600c90f)" d="M 164.180987 243.201548 
L 164.180987 269.451734 
" style="fill:none;stroke:#1f77b4;stroke-width:0.5;"/>
    <path clip-path="url(#p3f8600c90f)" d="M 165.042171 226.890504 
L 165.042171 252.988663 
" style="fill:none;stroke:#1f77b4;stroke-width:0.5;"/>
    <path clip-path="url(#p3f8600c90f)" d="M 170.943837 229.246607 
L 170.943837 255.366546 
" style="fill:none;stroke:#1f77b4;stroke-width:0.5;"/>
    <path clip-path="url(#p3f8600c90f)" d="M 173.496775 276.081428 
L 173.496775 302.646857 
" style="fill:none;stroke:#1f77b4;stroke-width:0.5;"/>
    <path clip-path="url(#p3f8600c90f)" d="M 207.146958 233.84135 
L 207.146958 260.00394 
" style="fill:none;stroke:#1f77b4;stroke-width:0.5;"/>
    <path clip-path="url(#p3f8600c90f)" d="M 210.529274 225.902296 
L 210.529274 251.991328 
" style="fill:none;stroke:#1f77b4;stroke-width:0.5;"/>
    <path clip-path="url(#p3f8600c90f)" d="M 218.978819 266.065976 
L 218.978819 292.534111 
" style="fill:none;stroke:#1f77b4;stroke-width:0.5;"/>
    <path clip-path="url(#p3f8600c90f)" d="M 346.082599 208.281221 
L 346.082599 234.209363 
" style="fill:none;stroke:#1f77b4;stroke-width:0.5;"/>
    <path clip-path="url(#p3f8600c90f)" d="M 379.139631 272.59855 
L 379.139631 299.130026 
" style="fill:none;stroke:#1f77b4;stroke-width:0.5;"/>
    <path clip-path="url(#p3f8600c90f)" d="M 396.853779 203.904 
L 396.853779 229.792674 
" style="fill:none;stroke:#1f77b4;stroke-width:0.5;"/>
    <path clip-path="url(#p3f8600c90f)" d="M 396.854161 223.057537 
L 396.854161 249.12038 
" style="fill:none;stroke:#1f77b4;stroke-width:0.5;"/>
    <path clip-path="url(#p3f8600c90f)" d="M 397.677773 234.120083 
L 397.677773 260.285276 
" style="fill:none;stroke:#1f77b4;stroke-width:0.5;"/>
    <path clip-path="url(#p3f8600c90f)" d="M 397.678155 222.222504 
L 397.678155 248.277675 
" style="fill:none;stroke:#1f77b4;stroke-width:0.5;"/>
    <path clip-path="url(#p3f8600c90f)" d="M 398.486891 257.841278 
L 398.486891 284.230353 
" style="fill:none;stroke:#1f77b4;stroke-width:0.5;"/>
    <path clip-path="url(#p3f8600c90f)" d="M 398.487273 250.077187 
L 398.487273 276.392313 
" style="fill:none;stroke:#1f77b4;stroke-width:0.5;"/>
   </g>
   <g id="line2d_51">
    <path clip-path="url(#p3f8600c90f)" d="M 73.832727 262.189272 
L 73.833119 271.583526 
L 94.910293 244.856552 
L 94.910684 241.423289 
L 96.675449 255.661086 
L 99.185169 255.350445 
L 99.18789 230.482881 
L 121.144305 252.452462 
L 121.988998 274.227864 
L 121.98938 279.527445 
L 123.69785 281.547811 
L 123.698242 277.052349 
L 125.362202 247.091742 
L 125.362594 223.122732 
L 126.199487 250.737212 
L 126.199878 252.817118 
L 127.090237 274.068364 
L 127.090618 269.882162 
L 127.899364 254.030384 
L 127.899756 258.847537 
L 128.744146 273.906173 
L 128.744527 266.867716 
L 136.360585 259.000058 
L 142.231315 257.26816 
L 143.073052 266.168864 
L 143.918832 265.56423 
L 144.76286 225.590922 
L 145.612006 246.115618 
L 155.771705 259.82366 
L 163.21203 281.119325 
L 164.180987 256.326641 
L 165.042171 239.939584 
L 170.943837 242.306576 
L 173.496775 289.364143 
L 207.146958 246.922645 
L 210.529274 238.946812 
L 218.978819 279.300043 
L 346.082599 221.245292 
L 379.139631 285.864288 
L 396.853779 216.848337 
L 396.854161 236.088959 
L 397.677773 247.20268 
L 397.678155 235.25009 
L 398.486891 271.035815 
L 398.487273 263.23475 
" style="fill:none;"/>
   </g>
   <g id="patch_14">
    <path d="M 57.6 307.584 
L 57.6 198.966857 
" style="fill:none;stroke:#000000;stroke-linecap:square;stroke-linejoin:miter;stroke-width:0.8;"/>
   </g>
   <g id="patch_15">
    <path d="M 414.72 307.584 
L 414.72 198.966857 
" style="fill:none;stroke:#000000;stroke-linecap:square;stroke-linejoin:miter;stroke-width:0.8;"/>
   </g>
   <g id="patch_16">
    <path d="M 57.6 307.584 
L 414.72 307.584 
" style="fill:none;stroke:#000000;stroke-linecap:square;stroke-linejoin:miter;stroke-width:0.8;"/>
   </g>
   <g id="patch_17">
    <path d="M 57.6 198.966857 
L 414.72 198.966857 
" style="fill:none;stroke:#000000;stroke-linecap:square;stroke-linejoin:miter;stroke-width:0.8;"/>
   </g>
   <g id="text_38">
    <!-- Light Curve -->
    <g transform="translate(206.000625 192.966857)scale(0.1 -0.1)">
     <use xlink:href="#DejaVuSerif-76"/>
     <use x="66.40625" xlink:href="#DejaVuSerif-105"/>
     <use x="98.388672" xlink:href="#DejaVuSerif-103"/>
     <use x="162.402344" xlink:href="#DejaVuSerif-104"/>
     <use x="226.806641" xlink:href="#DejaVuSerif-116"/>
     <use x="266.992188" xlink:href="#DejaVuSerif-32"/>
     <use x="298.779297" xlink:href="#DejaVuSerif-67"/>
     <use x="375.292969" xlink:href="#DejaVuSerif-117"/>
     <use x="439.697266" xlink:href="#DejaVuSerif-114"/>
     <use x="487.5" xlink:href="#DejaVuSerif-118"/>
     <use x="543.994141" xlink:href="#DejaVuSerif-101"/>
    </g>
   </g>
  </g>
 </g>
 <defs>
  <clipPath id="p77224eb90e">
   <rect height="108.617143" width="148.8" x="265.92" y="41.472"/>
  </clipPath>
  <clipPath id="pb12c93d6be">
   <rect height="108.617143" width="148.8" x="57.6" y="41.472"/>
  </clipPath>
  <clipPath id="p3f8600c90f">
   <rect height="108.617143" width="357.12" x="57.6" y="198.966857"/>
  </clipPath>
 </defs>
</svg>
