<?xml version="1.0" encoding="utf-8" standalone="no"?>
<!DOCTYPE svg PUBLIC "-//W3C//DTD SVG 1.1//EN"
  "http://www.w3.org/Graphics/SVG/1.1/DTD/svg11.dtd">
<!-- Created with matplotlib (https://matplotlib.org/) -->
<svg height="345.6pt" version="1.1" viewBox="0 0 460.8 345.6" width="460.8pt" xmlns="http://www.w3.org/2000/svg" xmlns:xlink="http://www.w3.org/1999/xlink">
 <metadata>
  <rdf:RDF xmlns:cc="http://creativecommons.org/ns#" xmlns:dc="http://purl.org/dc/elements/1.1/" xmlns:rdf="http://www.w3.org/1999/02/22-rdf-syntax-ns#">
   <cc:Work>
    <dc:type rdf:resource="http://purl.org/dc/dcmitype/StillImage"/>
    <dc:date>2021-02-24T00:24:14.065266</dc:date>
    <dc:format>image/svg+xml</dc:format>
    <dc:creator>
     <cc:Agent>
      <dc:title>Matplotlib v3.3.3, https://matplotlib.org/</dc:title>
     </cc:Agent>
    </dc:creator>
   </cc:Work>
  </rdf:RDF>
 </metadata>
 <defs>
  <style type="text/css">*{stroke-linecap:butt;stroke-linejoin:round;}</style>
 </defs>
 <g id="figure_1">
  <g id="patch_1">
   <path d="M 0 345.6 
L 460.8 345.6 
L 460.8 0 
L 0 0 
z
" style="fill:#ffffff;"/>
  </g>
  <g id="axes_1">
   <g id="patch_2">
    <path d="M 265.92 150.089143 
L 414.72 150.089143 
L 414.72 41.472 
L 265.92 41.472 
z
" style="fill:#ffffff;"/>
   </g>
   <g id="matplotlib.axis_1">
    <g id="xtick_1">
     <g id="line2d_1">
      <defs>
       <path d="M 0 0 
L 0 3.5 
" id="m912d66606f" style="stroke:#000000;stroke-width:0.8;"/>
      </defs>
      <g>
       <use style="stroke:#000000;stroke-width:0.8;" x="326.985138" xlink:href="#m912d66606f" y="150.089143"/>
      </g>
     </g>
     <g id="text_1">
      <!-- $\mathdefault{10^{1}}$ -->
      <g transform="translate(318.185138 164.68758)scale(0.1 -0.1)">
       <defs>
        <path d="M 14.203125 0 
L 14.203125 5.171875 
L 26.90625 5.171875 
L 26.90625 65.828125 
L 12.203125 56.296875 
L 12.203125 62.703125 
L 29.984375 74.21875 
L 36.71875 74.21875 
L 36.71875 5.171875 
L 49.421875 5.171875 
L 49.421875 0 
z
" id="DejaVuSerif-49"/>
        <path d="M 31.78125 3.421875 
Q 39.265625 3.421875 42.96875 11.625 
Q 46.6875 19.828125 46.6875 36.375 
Q 46.6875 52.984375 42.96875 61.1875 
Q 39.265625 69.390625 31.78125 69.390625 
Q 24.3125 69.390625 20.59375 61.1875 
Q 16.890625 52.984375 16.890625 36.375 
Q 16.890625 19.828125 20.59375 11.625 
Q 24.3125 3.421875 31.78125 3.421875 
z
M 31.78125 -1.421875 
Q 19.921875 -1.421875 13.25 8.53125 
Q 6.59375 18.5 6.59375 36.375 
Q 6.59375 54.296875 13.25 64.25 
Q 19.921875 74.21875 31.78125 74.21875 
Q 43.703125 74.21875 50.34375 64.25 
Q 56.984375 54.296875 56.984375 36.375 
Q 56.984375 18.5 50.34375 8.53125 
Q 43.703125 -1.421875 31.78125 -1.421875 
z
" id="DejaVuSerif-48"/>
       </defs>
       <use transform="translate(0 0.7125)" xlink:href="#DejaVuSerif-49"/>
       <use transform="translate(63.623047 0.7125)" xlink:href="#DejaVuSerif-48"/>
       <use transform="translate(128.154453 37.046875)scale(0.7)" xlink:href="#DejaVuSerif-49"/>
      </g>
     </g>
    </g>
    <g id="xtick_2">
     <g id="line2d_2">
      <g>
       <use style="stroke:#000000;stroke-width:0.8;" x="400.12039" xlink:href="#m912d66606f" y="150.089143"/>
      </g>
     </g>
     <g id="text_2">
      <!-- $\mathdefault{10^{2}}$ -->
      <g transform="translate(391.32039 164.68758)scale(0.1 -0.1)">
       <defs>
        <path d="M 12.796875 55.515625 
L 7.328125 55.515625 
L 7.328125 68.5 
Q 12.546875 71.296875 17.84375 72.75 
Q 23.140625 74.21875 28.21875 74.21875 
Q 39.59375 74.21875 46.1875 68.703125 
Q 52.78125 63.1875 52.78125 53.71875 
Q 52.78125 43.015625 37.84375 28.125 
Q 36.671875 27 36.078125 26.421875 
L 17.671875 8.015625 
L 48.09375 8.015625 
L 48.09375 17 
L 53.8125 17 
L 53.8125 0 
L 6.78125 0 
L 6.78125 5.328125 
L 28.90625 27.390625 
Q 36.234375 34.71875 39.359375 40.84375 
Q 42.484375 46.96875 42.484375 53.71875 
Q 42.484375 61.078125 38.640625 65.234375 
Q 34.8125 69.390625 28.078125 69.390625 
Q 21.09375 69.390625 17.28125 65.921875 
Q 13.484375 62.453125 12.796875 55.515625 
z
" id="DejaVuSerif-50"/>
       </defs>
       <use transform="translate(0 0.7125)" xlink:href="#DejaVuSerif-49"/>
       <use transform="translate(63.623047 0.7125)" xlink:href="#DejaVuSerif-48"/>
       <use transform="translate(128.154453 37.046875)scale(0.7)" xlink:href="#DejaVuSerif-50"/>
      </g>
     </g>
    </g>
    <g id="xtick_3">
     <g id="line2d_3">
      <defs>
       <path d="M 0 0 
L 0 2 
" id="m948c330fc8" style="stroke:#000000;stroke-width:0.6;"/>
      </defs>
      <g>
       <use style="stroke:#000000;stroke-width:0.6;" x="275.86579" xlink:href="#m948c330fc8" y="150.089143"/>
      </g>
     </g>
    </g>
    <g id="xtick_4">
     <g id="line2d_4">
      <g>
       <use style="stroke:#000000;stroke-width:0.6;" x="288.744269" xlink:href="#m948c330fc8" y="150.089143"/>
      </g>
     </g>
    </g>
    <g id="xtick_5">
     <g id="line2d_5">
      <g>
       <use style="stroke:#000000;stroke-width:0.6;" x="297.881695" xlink:href="#m948c330fc8" y="150.089143"/>
      </g>
     </g>
    </g>
    <g id="xtick_6">
     <g id="line2d_6">
      <g>
       <use style="stroke:#000000;stroke-width:0.6;" x="304.969233" xlink:href="#m948c330fc8" y="150.089143"/>
      </g>
     </g>
    </g>
    <g id="xtick_7">
     <g id="line2d_7">
      <g>
       <use style="stroke:#000000;stroke-width:0.6;" x="310.760174" xlink:href="#m948c330fc8" y="150.089143"/>
      </g>
     </g>
    </g>
    <g id="xtick_8">
     <g id="line2d_8">
      <g>
       <use style="stroke:#000000;stroke-width:0.6;" x="315.656344" xlink:href="#m948c330fc8" y="150.089143"/>
      </g>
     </g>
    </g>
    <g id="xtick_9">
     <g id="line2d_9">
      <g>
       <use style="stroke:#000000;stroke-width:0.6;" x="319.8976" xlink:href="#m948c330fc8" y="150.089143"/>
      </g>
     </g>
    </g>
    <g id="xtick_10">
     <g id="line2d_10">
      <g>
       <use style="stroke:#000000;stroke-width:0.6;" x="323.638652" xlink:href="#m948c330fc8" y="150.089143"/>
      </g>
     </g>
    </g>
    <g id="xtick_11">
     <g id="line2d_11">
      <g>
       <use style="stroke:#000000;stroke-width:0.6;" x="349.001043" xlink:href="#m948c330fc8" y="150.089143"/>
      </g>
     </g>
    </g>
    <g id="xtick_12">
     <g id="line2d_12">
      <g>
       <use style="stroke:#000000;stroke-width:0.6;" x="361.879521" xlink:href="#m948c330fc8" y="150.089143"/>
      </g>
     </g>
    </g>
    <g id="xtick_13">
     <g id="line2d_13">
      <g>
       <use style="stroke:#000000;stroke-width:0.6;" x="371.016947" xlink:href="#m948c330fc8" y="150.089143"/>
      </g>
     </g>
    </g>
    <g id="xtick_14">
     <g id="line2d_14">
      <g>
       <use style="stroke:#000000;stroke-width:0.6;" x="378.104486" xlink:href="#m948c330fc8" y="150.089143"/>
      </g>
     </g>
    </g>
    <g id="xtick_15">
     <g id="line2d_15">
      <g>
       <use style="stroke:#000000;stroke-width:0.6;" x="383.895426" xlink:href="#m948c330fc8" y="150.089143"/>
      </g>
     </g>
    </g>
    <g id="xtick_16">
     <g id="line2d_16">
      <g>
       <use style="stroke:#000000;stroke-width:0.6;" x="388.791597" xlink:href="#m948c330fc8" y="150.089143"/>
      </g>
     </g>
    </g>
    <g id="xtick_17">
     <g id="line2d_17">
      <g>
       <use style="stroke:#000000;stroke-width:0.6;" x="393.032852" xlink:href="#m948c330fc8" y="150.089143"/>
      </g>
     </g>
    </g>
    <g id="xtick_18">
     <g id="line2d_18">
      <g>
       <use style="stroke:#000000;stroke-width:0.6;" x="396.773905" xlink:href="#m948c330fc8" y="150.089143"/>
      </g>
     </g>
    </g>
    <g id="text_3">
     <!-- Period d -->
     <g transform="translate(319.231719 178.365705)scale(0.1 -0.1)">
      <defs>
       <path d="M 24.703125 37.109375 
L 37.59375 37.109375 
Q 44.875 37.109375 48.671875 41.03125 
Q 52.484375 44.96875 52.484375 52.390625 
Q 52.484375 59.859375 48.671875 63.765625 
Q 44.875 67.671875 37.59375 67.671875 
L 24.703125 67.671875 
z
M 5.515625 0 
L 5.515625 5.171875 
L 14.796875 5.171875 
L 14.796875 67.671875 
L 5.515625 67.671875 
L 5.515625 72.90625 
L 39.984375 72.90625 
Q 50.921875 72.90625 57.3125 67.359375 
Q 63.71875 61.8125 63.71875 52.390625 
Q 63.71875 43.015625 57.3125 37.453125 
Q 50.921875 31.890625 39.984375 31.890625 
L 24.703125 31.890625 
L 24.703125 5.171875 
L 35.984375 5.171875 
L 35.984375 0 
z
" id="DejaVuSerif-80"/>
       <path d="M 54.203125 25 
L 15.484375 25 
L 15.484375 24.609375 
Q 15.484375 14.109375 19.4375 8.765625 
Q 23.390625 3.421875 31.109375 3.421875 
Q 37.015625 3.421875 40.796875 6.515625 
Q 44.578125 9.625 46.09375 15.71875 
L 53.328125 15.71875 
Q 51.171875 7.171875 45.375 2.875 
Q 39.59375 -1.421875 30.171875 -1.421875 
Q 18.796875 -1.421875 11.890625 6.078125 
Q 4.984375 13.578125 4.984375 25.984375 
Q 4.984375 38.28125 11.765625 45.796875 
Q 18.5625 53.328125 29.59375 53.328125 
Q 41.359375 53.328125 47.65625 46.0625 
Q 53.953125 38.8125 54.203125 25 
z
M 43.609375 30.171875 
Q 43.3125 39.265625 39.765625 43.875 
Q 36.234375 48.484375 29.59375 48.484375 
Q 23.390625 48.484375 19.828125 43.84375 
Q 16.265625 39.203125 15.484375 30.171875 
z
" id="DejaVuSerif-101"/>
       <path d="M 47.796875 52 
L 47.796875 39.015625 
L 42.625 39.015625 
Q 42.390625 42.875 40.484375 44.78125 
Q 38.578125 46.6875 34.90625 46.6875 
Q 28.265625 46.6875 24.71875 42.09375 
Q 21.1875 37.5 21.1875 28.90625 
L 21.1875 5.171875 
L 31.59375 5.171875 
L 31.59375 0 
L 4.109375 0 
L 4.109375 5.171875 
L 12.203125 5.171875 
L 12.203125 46.78125 
L 3.609375 46.78125 
L 3.609375 51.90625 
L 21.1875 51.90625 
L 21.1875 42.671875 
Q 23.828125 48.09375 27.96875 50.703125 
Q 32.125 53.328125 38.09375 53.328125 
Q 40.28125 53.328125 42.703125 52.984375 
Q 45.125 52.640625 47.796875 52 
z
" id="DejaVuSerif-114"/>
       <path d="M 9.71875 68.015625 
Q 9.71875 70.265625 11.34375 71.921875 
Q 12.984375 73.578125 15.28125 73.578125 
Q 17.53125 73.578125 19.15625 71.921875 
Q 20.796875 70.265625 20.796875 68.015625 
Q 20.796875 65.71875 19.1875 64.109375 
Q 17.578125 62.5 15.28125 62.5 
Q 12.984375 62.5 11.34375 64.109375 
Q 9.71875 65.71875 9.71875 68.015625 
z
M 21.1875 5.171875 
L 29.6875 5.171875 
L 29.6875 0 
L 3.609375 0 
L 3.609375 5.171875 
L 12.203125 5.171875 
L 12.203125 46.6875 
L 3.609375 46.6875 
L 3.609375 51.90625 
L 21.1875 51.90625 
z
" id="DejaVuSerif-105"/>
       <path d="M 30.078125 3.421875 
Q 37.3125 3.421875 40.984375 9.125 
Q 44.671875 14.84375 44.671875 25.984375 
Q 44.671875 37.109375 40.984375 42.796875 
Q 37.3125 48.484375 30.078125 48.484375 
Q 22.859375 48.484375 19.171875 42.796875 
Q 15.484375 37.109375 15.484375 25.984375 
Q 15.484375 14.84375 19.1875 9.125 
Q 22.90625 3.421875 30.078125 3.421875 
z
M 30.078125 -1.421875 
Q 18.75 -1.421875 11.859375 6.078125 
Q 4.984375 13.578125 4.984375 25.984375 
Q 4.984375 38.375 11.84375 45.84375 
Q 18.703125 53.328125 30.078125 53.328125 
Q 41.453125 53.328125 48.3125 45.84375 
Q 55.171875 38.375 55.171875 25.984375 
Q 55.171875 13.578125 48.3125 6.078125 
Q 41.453125 -1.421875 30.078125 -1.421875 
z
" id="DejaVuSerif-111"/>
       <path d="M 52.484375 5.171875 
L 61.078125 5.171875 
L 61.078125 0 
L 43.5 0 
L 43.5 8.109375 
Q 40.875 3.21875 36.796875 0.890625 
Q 32.71875 -1.421875 26.703125 -1.421875 
Q 17.140625 -1.421875 11.0625 6.171875 
Q 4.984375 13.765625 4.984375 25.984375 
Q 4.984375 38.1875 11.03125 45.75 
Q 17.09375 53.328125 26.703125 53.328125 
Q 32.71875 53.328125 36.796875 51 
Q 40.875 48.6875 43.5 43.796875 
L 43.5 70.796875 
L 35.015625 70.796875 
L 35.015625 75.984375 
L 52.484375 75.984375 
z
M 43.5 23.390625 
L 43.5 28.515625 
Q 43.5 37.84375 39.90625 42.765625 
Q 36.328125 47.703125 29.5 47.703125 
Q 22.5625 47.703125 19.015625 42.234375 
Q 15.484375 36.765625 15.484375 25.984375 
Q 15.484375 15.234375 19.015625 9.71875 
Q 22.5625 4.203125 29.5 4.203125 
Q 36.328125 4.203125 39.90625 9.109375 
Q 43.5 14.015625 43.5 23.390625 
z
" id="DejaVuSerif-100"/>
       <path id="DejaVuSerif-32"/>
      </defs>
      <use xlink:href="#DejaVuSerif-80"/>
      <use x="62.785156" xlink:href="#DejaVuSerif-101"/>
      <use x="121.964844" xlink:href="#DejaVuSerif-114"/>
      <use x="169.767578" xlink:href="#DejaVuSerif-105"/>
      <use x="201.75" xlink:href="#DejaVuSerif-111"/>
      <use x="261.955078" xlink:href="#DejaVuSerif-100"/>
      <use x="325.96875" xlink:href="#DejaVuSerif-32"/>
      <use x="357.755859" xlink:href="#DejaVuSerif-100"/>
     </g>
    </g>
   </g>
   <g id="matplotlib.axis_2">
    <g id="ytick_1">
     <g id="line2d_19">
      <defs>
       <path d="M 0 0 
L -3.5 0 
" id="mf5f595251b" style="stroke:#000000;stroke-width:0.8;"/>
      </defs>
      <g>
       <use style="stroke:#000000;stroke-width:0.8;" x="265.92" xlink:href="#mf5f595251b" y="145.160373"/>
      </g>
     </g>
     <g id="text_4">
      <!-- 0.0 -->
      <g transform="translate(243.016875 148.959592)scale(0.1 -0.1)">
       <defs>
        <path d="M 9.421875 5.078125 
Q 9.421875 7.8125 11.28125 9.71875 
Q 13.140625 11.625 15.921875 11.625 
Q 18.609375 11.625 20.5 9.71875 
Q 22.40625 7.8125 22.40625 5.078125 
Q 22.40625 2.390625 20.5 0.484375 
Q 18.609375 -1.421875 15.921875 -1.421875 
Q 13.140625 -1.421875 11.28125 0.453125 
Q 9.421875 2.34375 9.421875 5.078125 
z
" id="DejaVuSerif-46"/>
       </defs>
       <use xlink:href="#DejaVuSerif-48"/>
       <use x="63.623047" xlink:href="#DejaVuSerif-46"/>
       <use x="95.410156" xlink:href="#DejaVuSerif-48"/>
      </g>
     </g>
    </g>
    <g id="ytick_2">
     <g id="line2d_20">
      <g>
       <use style="stroke:#000000;stroke-width:0.8;" x="265.92" xlink:href="#mf5f595251b" y="103.922647"/>
      </g>
     </g>
     <g id="text_5">
      <!-- 0.2 -->
      <g transform="translate(243.016875 107.721866)scale(0.1 -0.1)">
       <use xlink:href="#DejaVuSerif-48"/>
       <use x="63.623047" xlink:href="#DejaVuSerif-46"/>
       <use x="95.410156" xlink:href="#DejaVuSerif-50"/>
      </g>
     </g>
    </g>
    <g id="ytick_3">
     <g id="line2d_21">
      <g>
       <use style="stroke:#000000;stroke-width:0.8;" x="265.92" xlink:href="#mf5f595251b" y="62.684922"/>
      </g>
     </g>
     <g id="text_6">
      <!-- 0.4 -->
      <g transform="translate(243.016875 66.484141)scale(0.1 -0.1)">
       <defs>
        <path d="M 34.90625 24.703125 
L 34.90625 63.484375 
L 10.015625 24.703125 
z
M 56.390625 0 
L 23.1875 0 
L 23.1875 5.171875 
L 34.90625 5.171875 
L 34.90625 19.484375 
L 3.078125 19.484375 
L 3.078125 24.8125 
L 35.015625 74.21875 
L 44.671875 74.21875 
L 44.671875 24.703125 
L 58.59375 24.703125 
L 58.59375 19.484375 
L 44.671875 19.484375 
L 44.671875 5.171875 
L 56.390625 5.171875 
z
" id="DejaVuSerif-52"/>
       </defs>
       <use xlink:href="#DejaVuSerif-48"/>
       <use x="63.623047" xlink:href="#DejaVuSerif-46"/>
       <use x="95.410156" xlink:href="#DejaVuSerif-52"/>
      </g>
     </g>
    </g>
    <g id="text_7">
     <!-- Power -->
     <g transform="translate(236.937188 111.583696)rotate(-90)scale(0.1 -0.1)">
      <defs>
       <path d="M 48 51.90625 
L 61.28125 11.375 
L 73 46.6875 
L 65.484375 46.6875 
L 65.484375 51.90625 
L 84.28125 51.90625 
L 84.28125 46.6875 
L 78.515625 46.6875 
L 63.09375 0 
L 55.609375 0 
L 42.828125 38.8125 
L 29.984375 0 
L 22.796875 0 
L 7.421875 46.6875 
L 1.609375 46.6875 
L 1.609375 51.90625 
L 25.09375 51.90625 
L 25.09375 46.6875 
L 16.703125 46.6875 
L 28.328125 11.375 
L 41.703125 51.90625 
z
" id="DejaVuSerif-119"/>
      </defs>
      <use xlink:href="#DejaVuSerif-80"/>
      <use x="63.285156" xlink:href="#DejaVuSerif-111"/>
      <use x="123.490234" xlink:href="#DejaVuSerif-119"/>
      <use x="209.085938" xlink:href="#DejaVuSerif-101"/>
      <use x="268.265625" xlink:href="#DejaVuSerif-114"/>
     </g>
    </g>
   </g>
   <g id="LineCollection_1">
    <path clip-path="url(#p7e06dba720)" d="M 272.695273 46.409143 
L 407.956364 46.409143 
" style="fill:none;stroke:#808080;stroke-dasharray:5.55,2.4;stroke-dashoffset:0;stroke-width:1.5;"/>
   </g>
   <g id="LineCollection_2">
    <path clip-path="url(#p7e06dba720)" d="M 272.695273 60.374635 
L 407.956364 60.374635 
" style="fill:none;stroke:#a9a9a9;stroke-dasharray:5.55,2.4;stroke-dashoffset:0;stroke-width:1.5;"/>
   </g>
   <g id="LineCollection_3">
    <path clip-path="url(#p7e06dba720)" d="M 272.695273 71.430211 
L 407.956364 71.430211 
" style="fill:none;stroke:#c0c0c0;stroke-dasharray:5.55,2.4;stroke-dashoffset:0;stroke-width:1.5;"/>
   </g>
   <g id="LineCollection_4">
    <path clip-path="url(#p7e06dba720)" d="M 272.695273 76.670083 
L 407.956364 76.670083 
" style="fill:none;stroke:#d3d3d3;stroke-dasharray:5.55,2.4;stroke-dashoffset:0;stroke-width:1.5;"/>
   </g>
   <g id="line2d_22">
    <path clip-path="url(#p7e06dba720)" d="M 407.956364 133.471472 
L 405.906476 136.652481 
L 403.980902 142.458817 
L 402.165423 144.788521 
L 400.448127 139.157654 
L 398.818938 135.935075 
L 397.269253 137.950093 
L 395.791673 142.004894 
L 394.379786 141.019286 
L 391.731399 117.152734 
L 390.485662 116.238175 
L 389.286945 126.139349 
L 388.131827 137.669698 
L 387.017248 136.216301 
L 385.940459 120.688652 
L 384.898981 115.940435 
L 383.890571 119.315049 
L 381.964998 135.239508 
L 381.044289 139.979843 
L 380.149518 132.301619 
L 379.279266 123.344977 
L 378.432223 117.162466 
L 377.607183 115.007686 
L 376.803033 118.540557 
L 376.01874 130.9165 
L 375.253348 137.763292 
L 374.505967 130.073811 
L 373.775768 124.517358 
L 373.06198 124.945306 
L 372.363881 128.785471 
L 371.012092 144.545643 
L 370.357178 144.096486 
L 369.715495 143.272101 
L 369.086519 143.9648 
L 368.469757 142.855457 
L 367.27104 136.48829 
L 366.68823 136.081646 
L 365.553744 144.841116 
L 365.001343 141.685731 
L 364.458386 134.955771 
L 363.924554 133.238446 
L 363.399547 137.254261 
L 362.883076 143.131084 
L 362.374869 143.492042 
L 361.874666 136.057944 
L 361.382219 131.307114 
L 360.89729 134.100979 
L 360.419653 140.545347 
L 359.949093 144.220902 
L 359.485402 144.414875 
L 359.028384 144.230231 
L 358.577848 144.932097 
L 358.133614 140.99216 
L 356.837016 113.318023 
L 356.416318 115.528596 
L 356.001119 127.140293 
L 355.591278 127.771655 
L 355.186658 121.980598 
L 354.787128 122.278648 
L 354.392561 125.431067 
L 354.002836 130.991268 
L 353.617834 140.279728 
L 353.237443 143.268924 
L 352.861555 141.61852 
L 352.490062 141.732865 
L 352.122865 143.715461 
L 351.759864 145.032812 
L 351.400965 142.797104 
L 351.046076 139.734079 
L 350.695108 140.100983 
L 350.004597 145.152 
L 349.32878 140.027741 
L 348.996188 140.875516 
L 348.667042 143.631727 
L 348.341273 142.244435 
L 348.018811 133.358856 
L 347.69959 120.402654 
L 347.383545 114.899157 
L 347.070614 121.667357 
L 346.760736 134.279675 
L 346.453852 138.550958 
L 345.848839 125.741174 
L 345.5506 126.977107 
L 344.672325 144.119585 
L 344.384882 144.507581 
L 343.817685 137.404635 
L 343.537839 139.462946 
L 343.260438 143.69053 
L 342.985439 145.045845 
L 342.7128 139.461043 
L 342.174444 116.666607 
L 341.908649 119.926964 
L 341.645061 134.23086 
L 341.383642 141.192229 
L 340.867171 124.840026 
L 340.612052 125.401145 
L 339.858762 145.088188 
L 339.366314 138.464095 
L 339.122924 140.086209 
L 338.881385 144.320025 
L 338.641669 142.988205 
L 338.167597 129.193388 
L 337.933188 127.361096 
L 337.700497 131.013074 
L 337.240166 144.089315 
L 337.012479 142.4196 
L 336.561943 133.609732 
L 336.33905 131.891567 
L 336.117709 133.159671 
L 335.679602 142.361039 
L 335.462794 139.839931 
L 335.033568 120.204669 
L 334.821111 119.426061 
L 334.610066 126.98383 
L 334.400413 128.940859 
L 333.779633 75.165983 
L 333.575374 74.646795 
L 333.170754 105.279507 
L 332.771223 73.769192 
L 332.573327 73.837377 
L 332.376656 85.175624 
L 331.986931 127.498 
L 331.601929 124.094647 
L 331.411165 127.145726 
L 331.033038 143.086265 
L 330.84565 143.134242 
L 330.659361 138.974608 
L 330.474157 137.443748 
L 330.290028 138.647817 
L 329.924941 143.52945 
L 329.743959 139.960794 
L 329.38506 131.240676 
L 329.20712 133.517156 
L 328.854202 139.440597 
L 328.332072 118.47644 
L 328.159918 121.394842 
L 327.818385 130.865684 
L 327.480486 106.693546 
L 327.312875 104.929418 
L 326.815284 122.931624 
L 326.325368 91.601175 
L 326.163728 99.946464 
L 325.842895 132.332174 
L 325.683685 127.437605 
L 325.52527 115.561658 
L 325.36764 113.376359 
L 325.21079 117.446726 
L 324.744831 140.095018 
L 324.437948 123.825233 
L 324.28561 124.166092 
L 323.983111 141.914347 
L 323.832934 138.11752 
L 323.534695 116.039433 
L 323.386619 114.905566 
L 323.23923 123.658738 
L 323.092522 125.111051 
L 322.801124 76.546058 
L 322.512374 68.863694 
L 322.226226 98.716802 
L 321.942633 67.294068 
L 321.80178 67.441767 
L 321.661549 78.345307 
L 321.382931 115.22902 
L 320.969534 96.827052 
L 320.832922 102.387989 
L 320.561448 129.623443 
L 320.426576 126.776244 
L 320.158539 113.611455 
L 320.025364 112.18507 
L 319.892745 116.025347 
L 319.629156 128.281396 
L 319.23783 116.203995 
L 319.108452 122.519594 
L 318.851267 142.172612 
L 318.596147 138.795037 
L 318.469351 138.886581 
L 318.34306 140.55126 
L 318.217269 135.479882 
L 317.967171 112.993397 
L 317.842857 108.710485 
L 317.719027 109.489031 
L 317.595679 115.948724 
L 317.472807 111.351829 
L 317.228481 95.352983 
L 316.98602 112.459044 
L 316.745396 127.738359 
L 316.506581 117.711753 
L 316.269548 125.204068 
L 316.151692 126.179135 
L 316.034272 117.804496 
L 315.800725 84.947345 
L 315.684592 85.37888 
L 315.453593 106.740496 
L 315.33872 105.401797 
L 315.110214 85.326978 
L 314.996574 93.204136 
L 314.658075 137.082724 
L 314.434396 130.404035 
L 314.212282 141.266606 
L 314.101804 138.590138 
L 313.772659 108.312648 
L 313.663698 114.761205 
L 313.44689 132.317544 
L 313.231552 111.617753 
L 313.124428 114.026084 
L 312.805206 140.997989 
L 312.699508 140.161913 
L 312.489162 123.633147 
L 312.384508 122.962456 
L 312.176231 134.095071 
L 312.072602 125.606026 
L 311.763728 70.47081 
L 311.661434 73.676087 
L 311.45783 95.059928 
L 311.255522 56.282934 
L 311.154849 59.80938 
L 310.854731 114.163187 
L 310.755319 113.581281 
L 310.656216 108.269952 
L 310.557423 111.465016 
L 310.262871 137.163567 
L 310.06801 126.401137 
L 309.971026 126.649649 
L 309.681838 138.626308 
L 309.39526 128.187322 
L 309.300305 129.784473 
L 309.111244 138.319678 
L 309.017133 137.600765 
L 308.829745 133.077787 
L 308.736464 134.989176 
L 308.550719 143.776875 
L 308.458253 142.856638 
L 308.366055 140.595416 
L 308.274123 140.701387 
L 308.091055 144.905902 
L 307.999915 144.329157 
L 307.818416 141.720426 
L 307.637949 144.310858 
L 307.548098 144.273172 
L 307.28006 144.857158 
L 307.102617 141.233266 
L 307.014266 142.071448 
L 306.838298 144.264486 
L 306.663299 142.512504 
L 306.489258 145.125173 
L 306.402595 143.109191 
L 306.144013 131.510121 
L 305.972788 142.024029 
L 305.717668 123.100774 
L 305.633082 127.035174 
L 305.464581 140.910688 
L 305.213495 125.77438 
L 304.964378 143.710927 
L 304.799379 136.191942 
L 304.553477 144.786185 
L 304.390593 137.955931 
L 304.309464 137.97601 
L 304.067311 144.262118 
L 303.987002 145.034383 
L 303.906895 144.502807 
L 303.66778 131.552649 
L 303.588474 133.855356 
L 303.430453 139.601074 
L 303.194885 118.751601 
L 302.961051 131.28286 
L 302.728927 112.245304 
L 302.498486 125.755108 
L 302.269706 117.597633 
L 302.19381 118.790334 
L 302.042561 130.479619 
L 301.967206 128.578236 
L 301.81703 120.947817 
L 301.593088 136.282311 
L 301.51879 134.287416 
L 301.370714 128.687687 
L 301.223326 137.193163 
L 301.149887 136.585777 
L 301.003517 124.923753 
L 300.857818 134.875534 
L 300.712785 141.230425 
L 300.568411 137.355087 
L 300.353073 145.074123 
L 300.068208 140.506442 
L 299.926728 143.865481 
L 299.856223 142.371174 
L 299.645644 111.1096 
L 299.57576 115.368936 
L 299.436452 129.76521 
L 299.228629 111.380222 
L 298.953629 142.972802 
L 298.88525 139.056851 
L 298.817017 138.803977 
L 298.68099 144.854947 
L 298.478036 130.857231 
L 298.34345 142.003725 
L 298.27637 141.912056 
L 298.142634 130.402314 
L 298.075977 131.967946 
L 297.94308 140.529753 
L 297.744772 118.262526 
L 297.678944 118.52558 
L 297.482273 129.221272 
L 297.351832 106.212748 
L 297.286812 92.626163 
L 297.221925 94.692795 
L 297.028056 110.083323 
L 296.899463 95.825778 
L 296.835362 97.26348 
L 296.64383 126.791605 
L 296.516781 114.831731 
L 296.453447 115.215027 
L 296.327155 125.705819 
L 296.264197 123.855077 
L 296.138655 117.764835 
L 295.951266 135.417917 
L 295.826952 132.963312 
L 295.764977 132.287075 
L 295.579774 139.768513 
L 295.518279 138.278062 
L 295.395645 126.272615 
L 295.334505 127.83359 
L 295.273482 129.929127 
L 295.151788 116.951073 
L 295.030557 96.856944 
L 294.849576 120.111643 
L 294.789477 116.705901 
L 294.729491 113.013233 
L 294.669619 117.205414 
L 294.490676 143.837721 
L 294.371939 140.312373 
L 294.312736 142.030947 
L 294.253644 144.696535 
L 294.194661 144.433735 
L 294.077023 142.528876 
L 293.959819 144.302243 
L 293.843046 141.658276 
L 293.668687 144.872518 
L 293.552978 139.858359 
L 293.495281 140.54387 
L 293.3802 144.223708 
L 293.265535 140.811489 
L 293.151282 144.743098 
L 293.037439 134.827743 
L 292.98067 128.462903 
L 292.924002 129.251165 
L 292.810969 141.022982 
L 292.754603 139.013556 
L 292.64217 128.398311 
L 292.474264 140.835277 
L 292.30724 124.367428 
L 292.196377 135.667912 
L 292.14109 133.470462 
L 292.030805 118.518586 
L 291.975805 120.939268 
L 291.811376 132.460345 
L 291.323133 95.961356 
L 291.269345 99.088389 
L 291.16204 112.960416 
L 291.108523 109.211047 
L 291.055096 104.863212 
L 291.001759 106.213485 
L 290.789302 126.101799 
L 290.736409 125.97581 
L 290.525713 141.459179 
L 290.473257 140.429158 
L 290.316406 132.606484 
L 290.160326 140.783237 
L 290.108469 138.94804 
L 290.056697 136.060682 
L 290.005009 136.330293 
L 289.901885 144.695282 
L 289.850448 141.974285 
L 289.747824 132.126904 
L 289.696636 135.811633 
L 289.64553 139.028322 
L 289.492704 119.317343 
L 289.441925 122.493301 
L 289.34061 140.882147 
L 289.290073 140.14635 
L 289.189241 134.479559 
L 289.088727 144.643579 
L 289.03859 142.775736 
L 288.938551 133.197225 
L 288.88865 134.579379 
L 288.789081 143.361034 
L 288.739414 140.692596 
L 288.689824 137.370698 
L 288.640312 138.023694 
L 288.541518 144.935933 
L 288.492236 144.472019 
L 288.393901 139.502997 
L 288.344847 140.388653 
L 288.246966 144.009069 
L 288.198139 143.310547 
L 288.100709 133.083811 
L 288.003576 120.348018 
L 287.955121 123.029397 
L 287.858433 125.11054 
L 287.713949 108.285079 
L 287.665934 117.267966 
L 287.474594 137.891223 
L 287.426939 137.976983 
L 287.284401 144.65967 
L 287.23703 144.050634 
L 286.81384 126.90897 
L 286.767166 131.724521 
L 286.720559 134.792842 
L 286.674021 133.975576 
L 286.627551 133.547929 
L 286.488548 142.009271 
L 286.442348 139.183525 
L 286.35015 126.862577 
L 286.304151 127.156163 
L 286.258219 129.466652 
L 286.07515 118.6415 
L 285.847789 142.496031 
L 285.802512 142.963735 
L 285.667065 135.88144 
L 285.622044 138.423581 
L 285.532193 142.301691 
L 285.442596 137.335464 
L 285.397892 137.495722 
L 285.308672 144.443671 
L 285.264156 140.960072 
L 285.17531 131.525197 
L 285.13098 134.696324 
L 285.042506 143.718546 
L 284.998361 142.515807 
L 284.954278 140.925633 
L 284.910255 141.187041 
L 284.866294 142.023946 
L 284.822393 141.475798 
L 284.778553 140.844929 
L 284.734773 141.264864 
L 284.647394 143.364921 
L 284.516774 132.054999 
L 284.429992 137.273682 
L 284.343447 143.522212 
L 284.300262 142.704136 
L 284.214069 140.002384 
L 284.17106 140.726085 
L 284.085216 144.518007 
L 284.042381 144.50243 
L 283.914221 138.510487 
L 283.871615 140.945513 
L 283.829067 140.997705 
L 283.701763 126.892252 
L 283.617177 133.304908 
L 283.532815 133.8356 
L 283.448677 128.730422 
L 283.239301 139.598945 
L 283.072788 144.606588 
L 283.031296 144.098653 
L 282.824644 135.228483 
L 282.660285 110.981167 
L 282.619328 113.660584 
L 282.578424 120.723809 
L 282.537572 118.775371 
L 282.415331 108.659631 
L 282.212636 135.558998 
L 282.091637 145.095147 
L 282.011226 141.691858 
L 281.971097 141.495902 
L 281.89099 144.780001 
L 281.851013 143.50895 
L 281.731381 139.735043 
L 281.691603 139.9174 
L 281.612198 143.84761 
L 281.572569 143.818193 
L 281.45398 136.454588 
L 281.414548 136.947933 
L 281.335831 144.038714 
L 281.296546 142.511149 
L 281.21812 137.681006 
L 281.17898 138.242796 
L 281.100844 142.318547 
L 281.061848 140.318564 
L 280.945147 128.697524 
L 280.906341 131.093978 
L 280.867583 134.917877 
L 280.790209 132.074271 
L 280.674499 119.760583 
L 280.482582 139.496333 
L 280.406138 144.527189 
L 280.367985 144.268679 
L 280.140026 132.620175 
L 280.064401 131.284957 
L 279.988957 138.373878 
L 279.913691 136.974474 
L 279.763691 127.080203 
L 279.688957 127.890053 
L 279.651655 129.280006 
L 279.502886 142.209801 
L 279.428761 139.482925 
L 279.35481 137.725117 
L 279.28103 141.396152 
L 279.244204 140.006575 
L 279.207421 139.093971 
L 279.17068 140.102468 
L 279.097326 144.88322 
L 279.060713 143.887254 
L 278.769314 122.217091 
L 278.660725 139.213076 
L 278.552506 134.788039 
L 278.444655 142.609506 
L 278.408785 138.93619 
L 278.30142 124.569629 
L 278.265712 126.813482 
L 278.230044 132.876602 
L 278.194416 131.345306 
L 278.087772 119.560992 
L 278.052303 126.132032 
L 277.946134 140.803655 
L 277.910823 140.741068 
L 277.805125 144.842641 
L 277.76997 142.255369 
L 277.699778 135.886599 
L 277.664739 139.223644 
L 277.594778 141.318392 
L 277.559856 140.777405 
L 277.524971 139.1724 
L 277.490125 140.769061 
L 277.420547 145.103374 
L 277.351122 144.922503 
L 277.316466 145.104289 
L 277.281847 145.029439 
L 277.10932 141.284624 
L 276.937724 121.639824 
L 276.83521 124.647811 
L 276.59729 139.024119 
L 276.529639 136.366596 
L 276.495867 137.276543 
L 276.394767 141.48195 
L 276.361138 138.853451 
L 276.327545 138.410336 
L 276.193527 144.545542 
L 276.160111 144.216707 
L 276.060072 140.202008 
L 276.026796 140.370095 
L 275.960348 143.337383 
L 275.927176 140.892093 
L 275.794833 132.947537 
L 275.761833 142.257937 
L 275.663039 139.568413 
L 275.630176 139.885827 
L 275.53179 144.640321 
L 275.499062 143.534604 
L 275.433708 141.741913 
L 275.401081 141.755144 
L 275.335928 144.508018 
L 275.303401 142.634184 
L 275.206021 135.519125 
L 275.173627 138.675105 
L 275.141266 141.273994 
L 275.108938 139.065729 
L 274.851492 121.495814 
L 274.787455 128.120489 
L 274.691641 126.803514 
L 274.659767 126.393403 
L 274.469193 143.836573 
L 274.248293 139.773948 
L 274.12275 130.232826 
L 274.091442 133.517191 
L 273.873144 144.906682 
L 273.656336 124.435367 
L 273.625484 116.858418 
L 273.563869 121.334368 
L 273.502374 133.010764 
L 273.440998 126.205712 
L 273.410354 125.937614 
L 273.288074 140.176576 
L 273.257577 135.776597 
L 273.196672 129.497771 
L 273.166263 130.106665 
L 273.105532 136.450956 
L 273.07521 130.389537 
L 273.044917 125.720212 
L 272.984417 128.981394 
L 272.803607 144.0727 
L 272.773572 144.160103 
L 272.683636 141.560163 
L 272.683636 141.560163 
" style="fill:none;stroke:#1f77b4;stroke-linecap:square;stroke-width:1.5;"/>
   </g>
   <g id="patch_3">
    <path d="M 265.92 150.089143 
L 265.92 41.472 
" style="fill:none;stroke:#000000;stroke-linecap:square;stroke-linejoin:miter;stroke-width:0.8;"/>
   </g>
   <g id="patch_4">
    <path d="M 414.72 150.089143 
L 414.72 41.472 
" style="fill:none;stroke:#000000;stroke-linecap:square;stroke-linejoin:miter;stroke-width:0.8;"/>
   </g>
   <g id="patch_5">
    <path d="M 265.92 150.089143 
L 414.72 150.089143 
" style="fill:none;stroke:#000000;stroke-linecap:square;stroke-linejoin:miter;stroke-width:0.8;"/>
   </g>
   <g id="patch_6">
    <path d="M 265.92 41.472 
L 414.72 41.472 
" style="fill:none;stroke:#000000;stroke-linecap:square;stroke-linejoin:miter;stroke-width:0.8;"/>
   </g>
   <g id="text_8">
    <!-- Periodogram -->
    <g transform="translate(307.698125 35.472)scale(0.1 -0.1)">
     <defs>
      <path d="M 52.484375 46.6875 
L 52.484375 1.125 
Q 52.484375 -10.0625 46.328125 -16.140625 
Q 40.1875 -22.21875 28.8125 -22.21875 
Q 23.6875 -22.21875 19 -21.28125 
Q 14.3125 -20.359375 10.015625 -18.5 
L 10.015625 -7.625 
L 14.703125 -7.625 
Q 15.578125 -12.703125 18.84375 -15.046875 
Q 22.125 -17.390625 28.21875 -17.390625 
Q 36.140625 -17.390625 39.8125 -12.921875 
Q 43.5 -8.453125 43.5 1.125 
L 43.5 8.109375 
Q 40.875 3.21875 36.796875 0.890625 
Q 32.71875 -1.421875 26.703125 -1.421875 
Q 17.140625 -1.421875 11.0625 6.171875 
Q 4.984375 13.765625 4.984375 25.984375 
Q 4.984375 38.1875 11.03125 45.75 
Q 17.09375 53.328125 26.703125 53.328125 
Q 32.71875 53.328125 36.796875 51 
Q 40.875 48.6875 43.5 43.796875 
L 43.5 51.90625 
L 61.078125 51.90625 
L 61.078125 46.6875 
z
M 43.5 28.515625 
Q 43.5 37.84375 39.90625 42.765625 
Q 36.328125 47.703125 29.5 47.703125 
Q 22.5625 47.703125 19.015625 42.234375 
Q 15.484375 36.765625 15.484375 25.984375 
Q 15.484375 15.234375 19.015625 9.71875 
Q 22.5625 4.203125 29.5 4.203125 
Q 36.328125 4.203125 39.90625 9.109375 
Q 43.5 14.015625 43.5 23.390625 
z
" id="DejaVuSerif-103"/>
      <path d="M 39.796875 16.3125 
L 39.796875 27.296875 
L 28.21875 27.296875 
Q 21.53125 27.296875 18.25 24.40625 
Q 14.984375 21.53125 14.984375 15.578125 
Q 14.984375 10.15625 18.296875 6.984375 
Q 21.625 3.8125 27.296875 3.8125 
Q 32.90625 3.8125 36.34375 7.28125 
Q 39.796875 10.75 39.796875 16.3125 
z
M 48.78125 32.421875 
L 48.78125 5.171875 
L 56.78125 5.171875 
L 56.78125 0 
L 39.796875 0 
L 39.796875 5.609375 
Q 36.8125 2 32.90625 0.28125 
Q 29 -1.421875 23.78125 -1.421875 
Q 15.140625 -1.421875 10.0625 3.171875 
Q 4.984375 7.765625 4.984375 15.578125 
Q 4.984375 23.640625 10.796875 28.078125 
Q 16.609375 32.515625 27.203125 32.515625 
L 39.796875 32.515625 
L 39.796875 36.078125 
Q 39.796875 42 36.203125 45.234375 
Q 32.625 48.484375 26.125 48.484375 
Q 20.75 48.484375 17.578125 46.046875 
Q 14.40625 43.609375 13.625 38.8125 
L 8.984375 38.8125 
L 8.984375 49.3125 
Q 13.671875 51.3125 18.09375 52.3125 
Q 22.515625 53.328125 26.703125 53.328125 
Q 37.5 53.328125 43.140625 47.96875 
Q 48.78125 42.625 48.78125 32.421875 
z
" id="DejaVuSerif-97"/>
      <path d="M 51.8125 41.796875 
Q 54.390625 47.515625 58.421875 50.421875 
Q 62.453125 53.328125 67.828125 53.328125 
Q 75.984375 53.328125 79.984375 48.265625 
Q 83.984375 43.21875 83.984375 33.015625 
L 83.984375 5.171875 
L 92.09375 5.171875 
L 92.09375 0 
L 67.1875 0 
L 67.1875 5.171875 
L 75 5.171875 
L 75 31.984375 
Q 75 39.9375 72.65625 43.3125 
Q 70.3125 46.6875 64.890625 46.6875 
Q 58.890625 46.6875 55.734375 42.140625 
Q 52.59375 37.59375 52.59375 28.90625 
L 52.59375 5.171875 
L 60.40625 5.171875 
L 60.40625 0 
L 35.796875 0 
L 35.796875 5.171875 
L 43.609375 5.171875 
L 43.609375 32.328125 
Q 43.609375 40.09375 41.265625 43.390625 
Q 38.921875 46.6875 33.5 46.6875 
Q 27.484375 46.6875 24.328125 42.140625 
Q 21.1875 37.59375 21.1875 28.90625 
L 21.1875 5.171875 
L 29 5.171875 
L 29 0 
L 4.109375 0 
L 4.109375 5.171875 
L 12.203125 5.171875 
L 12.203125 46.78125 
L 3.609375 46.78125 
L 3.609375 51.90625 
L 21.1875 51.90625 
L 21.1875 42.671875 
Q 23.6875 47.859375 27.53125 50.59375 
Q 31.390625 53.328125 36.28125 53.328125 
Q 42.328125 53.328125 46.375 50.3125 
Q 50.4375 47.3125 51.8125 41.796875 
z
" id="DejaVuSerif-109"/>
     </defs>
     <use xlink:href="#DejaVuSerif-80"/>
     <use x="62.785156" xlink:href="#DejaVuSerif-101"/>
     <use x="121.964844" xlink:href="#DejaVuSerif-114"/>
     <use x="169.767578" xlink:href="#DejaVuSerif-105"/>
     <use x="201.75" xlink:href="#DejaVuSerif-111"/>
     <use x="261.955078" xlink:href="#DejaVuSerif-100"/>
     <use x="325.96875" xlink:href="#DejaVuSerif-111"/>
     <use x="386.173828" xlink:href="#DejaVuSerif-103"/>
     <use x="450.1875" xlink:href="#DejaVuSerif-114"/>
     <use x="497.990234" xlink:href="#DejaVuSerif-97"/>
     <use x="557.609375" xlink:href="#DejaVuSerif-109"/>
    </g>
   </g>
   <g id="legend_1">
    <g id="patch_7">
     <path d="M 419.648125 108.123071 
L 454.431875 108.123071 
Q 455.231875 108.123071 455.231875 107.323071 
L 455.231875 84.238071 
Q 455.231875 83.438071 454.431875 83.438071 
L 419.648125 83.438071 
Q 418.848125 83.438071 418.848125 84.238071 
L 418.848125 107.323071 
Q 418.848125 108.123071 419.648125 108.123071 
z
" style="fill:#ffffff;opacity:0.8;stroke:#cccccc;stroke-linejoin:miter;"/>
    </g>
    <g id="line2d_23">
     <path d="M 420.448125 86.677446 
L 428.448125 86.677446 
" style="fill:none;stroke:#808080;stroke-dasharray:5.55,2.4;stroke-dashoffset:0;stroke-width:1.5;"/>
    </g>
    <g id="text_9">
     <!-- 99.9% FAP -->
     <g transform="translate(431.648125 88.077446)scale(0.04 -0.04)">
      <defs>
       <path d="M 46.78125 32.671875 
Q 43.5 29 39.25 27.1875 
Q 35.015625 25.390625 29.6875 25.390625 
Q 18.84375 25.390625 12.5625 31.9375 
Q 6.296875 38.484375 6.296875 49.8125 
Q 6.296875 60.890625 13.109375 67.546875 
Q 19.921875 74.21875 31.296875 74.21875 
Q 43.65625 74.21875 50.265625 65.015625 
Q 56.890625 55.8125 56.890625 38.71875 
Q 56.890625 19.578125 49.015625 9.078125 
Q 41.15625 -1.421875 26.90625 -1.421875 
Q 23.046875 -1.421875 18.796875 -0.6875 
Q 14.546875 0.046875 10.109375 1.515625 
L 10.109375 13.625 
L 15.578125 13.625 
Q 16.21875 8.6875 19.390625 6.046875 
Q 22.5625 3.421875 27.875 3.421875 
Q 37.359375 3.421875 41.984375 10.5625 
Q 46.625 17.71875 46.78125 32.671875 
z
M 30.90625 69.390625 
Q 23.96875 69.390625 20.28125 64.328125 
Q 16.609375 59.28125 16.609375 49.8125 
Q 16.609375 40.328125 20.28125 35.25 
Q 23.96875 30.171875 30.90625 30.171875 
Q 37.84375 30.171875 41.53125 35.078125 
Q 45.21875 39.984375 45.21875 49.21875 
Q 45.21875 58.9375 41.5 64.15625 
Q 37.796875 69.390625 30.90625 69.390625 
z
" id="DejaVuSerif-57"/>
       <path d="M 22.40625 69.671875 
Q 18.109375 69.671875 15.6875 65.625 
Q 13.28125 61.578125 13.28125 54.296875 
Q 13.28125 47.125 15.75 43.015625 
Q 18.21875 38.921875 22.40625 38.921875 
Q 26.5625 38.921875 28.96875 43 
Q 31.390625 47.078125 31.390625 54.296875 
Q 31.390625 61.53125 28.96875 65.59375 
Q 26.5625 69.671875 22.40625 69.671875 
z
M 72.703125 33.890625 
Q 68.453125 33.890625 66.03125 29.78125 
Q 63.625 25.6875 63.625 18.40625 
Q 63.625 11.234375 66.0625 7.15625 
Q 68.5 3.078125 72.703125 3.078125 
Q 76.90625 3.078125 79.296875 7.15625 
Q 81.6875 11.234375 81.6875 18.40625 
Q 81.6875 25.640625 79.265625 29.765625 
Q 76.859375 33.890625 72.703125 33.890625 
z
M 72.703125 38.28125 
Q 80.421875 38.28125 84.953125 32.90625 
Q 89.5 27.546875 89.5 18.40625 
Q 89.5 9.28125 84.9375 3.921875 
Q 80.375 -1.421875 72.703125 -1.421875 
Q 64.890625 -1.421875 60.34375 3.921875 
Q 55.8125 9.28125 55.8125 18.40625 
Q 55.8125 27.59375 60.375 32.9375 
Q 64.9375 38.28125 72.703125 38.28125 
z
M 66.609375 74.21875 
L 74.03125 74.21875 
L 28.421875 -1.421875 
L 21 -1.421875 
z
M 22.3125 74.21875 
Q 30.03125 74.21875 34.609375 68.875 
Q 39.203125 63.53125 39.203125 54.390625 
Q 39.203125 45.171875 34.640625 39.84375 
Q 30.078125 34.515625 22.3125 34.515625 
Q 14.546875 34.515625 10.03125 39.859375 
Q 5.515625 45.21875 5.515625 54.390625 
Q 5.515625 63.484375 10.046875 68.84375 
Q 14.59375 74.21875 22.3125 74.21875 
z
" id="DejaVuSerif-37"/>
       <path d="M 5.515625 0 
L 5.515625 5.171875 
L 14.796875 5.171875 
L 14.796875 67.671875 
L 5.515625 67.671875 
L 5.515625 72.90625 
L 65.1875 72.90625 
L 65.1875 56.6875 
L 59.1875 56.6875 
L 59.1875 66.890625 
L 24.703125 66.890625 
L 24.703125 42.484375 
L 49.609375 42.484375 
L 49.609375 51.609375 
L 55.609375 51.609375 
L 55.609375 27.390625 
L 49.609375 27.390625 
L 49.609375 36.53125 
L 24.703125 36.53125 
L 24.703125 5.171875 
L 36.375 5.171875 
L 36.375 0 
z
" id="DejaVuSerif-70"/>
       <path d="M 20.015625 26.421875 
L 46.78125 26.421875 
L 33.40625 61.078125 
z
M -0.59375 0 
L -0.59375 5.171875 
L 5.8125 5.171875 
L 31.78125 72.90625 
L 39.984375 72.90625 
L 66.015625 5.171875 
L 73.1875 5.171875 
L 73.1875 0 
L 46.6875 0 
L 46.6875 5.171875 
L 54.78125 5.171875 
L 48.6875 21.1875 
L 18.015625 21.1875 
L 11.921875 5.171875 
L 19.921875 5.171875 
L 19.921875 0 
z
" id="DejaVuSerif-65"/>
      </defs>
      <use xlink:href="#DejaVuSerif-57"/>
      <use x="63.623047" xlink:href="#DejaVuSerif-57"/>
      <use x="127.246094" xlink:href="#DejaVuSerif-46"/>
      <use x="159.033203" xlink:href="#DejaVuSerif-57"/>
      <use x="222.65625" xlink:href="#DejaVuSerif-37"/>
      <use x="317.675781" xlink:href="#DejaVuSerif-32"/>
      <use x="349.462891" xlink:href="#DejaVuSerif-70"/>
      <use x="410.097656" xlink:href="#DejaVuSerif-65"/>
      <use x="482.314453" xlink:href="#DejaVuSerif-80"/>
     </g>
    </g>
    <g id="line2d_24">
     <path d="M 420.448125 92.548696 
L 428.448125 92.548696 
" style="fill:none;stroke:#a9a9a9;stroke-dasharray:5.55,2.4;stroke-dashoffset:0;stroke-width:1.5;"/>
    </g>
    <g id="text_10">
     <!-- 99.0% FAP -->
     <g transform="translate(431.648125 93.948696)scale(0.04 -0.04)">
      <use xlink:href="#DejaVuSerif-57"/>
      <use x="63.623047" xlink:href="#DejaVuSerif-57"/>
      <use x="127.246094" xlink:href="#DejaVuSerif-46"/>
      <use x="159.033203" xlink:href="#DejaVuSerif-48"/>
      <use x="222.65625" xlink:href="#DejaVuSerif-37"/>
      <use x="317.675781" xlink:href="#DejaVuSerif-32"/>
      <use x="349.462891" xlink:href="#DejaVuSerif-70"/>
      <use x="410.097656" xlink:href="#DejaVuSerif-65"/>
      <use x="482.314453" xlink:href="#DejaVuSerif-80"/>
     </g>
    </g>
    <g id="line2d_25">
     <path d="M 420.448125 98.419946 
L 428.448125 98.419946 
" style="fill:none;stroke:#c0c0c0;stroke-dasharray:5.55,2.4;stroke-dashoffset:0;stroke-width:1.5;"/>
    </g>
    <g id="text_11">
     <!-- 95.0% FAP -->
     <g transform="translate(431.648125 99.819946)scale(0.04 -0.04)">
      <defs>
       <path d="M 50.296875 72.90625 
L 50.296875 64.890625 
L 16.890625 64.890625 
L 16.890625 44 
Q 19.4375 45.75 22.828125 46.625 
Q 26.21875 47.515625 30.421875 47.515625 
Q 42.234375 47.515625 49.0625 40.96875 
Q 55.90625 34.421875 55.90625 23.09375 
Q 55.90625 11.53125 49 5.046875 
Q 42.09375 -1.421875 29.59375 -1.421875 
Q 24.5625 -1.421875 19.28125 -0.1875 
Q 14.015625 1.03125 8.5 3.515625 
L 8.5 17.671875 
L 14.015625 17.671875 
Q 14.453125 10.75 18.421875 7.078125 
Q 22.40625 3.421875 29.59375 3.421875 
Q 37.3125 3.421875 41.453125 8.5 
Q 45.609375 13.578125 45.609375 23.09375 
Q 45.609375 32.5625 41.484375 37.609375 
Q 37.359375 42.671875 29.59375 42.671875 
Q 25.203125 42.671875 21.84375 41.109375 
Q 18.5 39.546875 15.921875 36.28125 
L 11.71875 36.28125 
L 11.71875 72.90625 
z
" id="DejaVuSerif-53"/>
      </defs>
      <use xlink:href="#DejaVuSerif-57"/>
      <use x="63.623047" xlink:href="#DejaVuSerif-53"/>
      <use x="127.246094" xlink:href="#DejaVuSerif-46"/>
      <use x="159.033203" xlink:href="#DejaVuSerif-48"/>
      <use x="222.65625" xlink:href="#DejaVuSerif-37"/>
      <use x="317.675781" xlink:href="#DejaVuSerif-32"/>
      <use x="349.462891" xlink:href="#DejaVuSerif-70"/>
      <use x="410.097656" xlink:href="#DejaVuSerif-65"/>
      <use x="482.314453" xlink:href="#DejaVuSerif-80"/>
     </g>
    </g>
    <g id="line2d_26">
     <path d="M 420.448125 104.291196 
L 428.448125 104.291196 
" style="fill:none;stroke:#d3d3d3;stroke-dasharray:5.55,2.4;stroke-dashoffset:0;stroke-width:1.5;"/>
    </g>
    <g id="text_12">
     <!-- 90.0% FAP -->
     <g transform="translate(431.648125 105.691196)scale(0.04 -0.04)">
      <use xlink:href="#DejaVuSerif-57"/>
      <use x="63.623047" xlink:href="#DejaVuSerif-48"/>
      <use x="127.246094" xlink:href="#DejaVuSerif-46"/>
      <use x="159.033203" xlink:href="#DejaVuSerif-48"/>
      <use x="222.65625" xlink:href="#DejaVuSerif-37"/>
      <use x="317.675781" xlink:href="#DejaVuSerif-32"/>
      <use x="349.462891" xlink:href="#DejaVuSerif-70"/>
      <use x="410.097656" xlink:href="#DejaVuSerif-65"/>
      <use x="482.314453" xlink:href="#DejaVuSerif-80"/>
     </g>
    </g>
   </g>
  </g>
  <g id="axes_2">
   <g id="patch_8">
    <path d="M 57.6 150.089143 
L 206.4 150.089143 
L 206.4 41.472 
L 57.6 41.472 
z
" style="fill:#ffffff;"/>
   </g>
   <g id="PathCollection_1">
    <defs>
     <path d="M 0 0.707107 
C 0.187527 0.707107 0.367398 0.632602 0.5 0.5 
C 0.632602 0.367398 0.707107 0.187527 0.707107 0 
C 0.707107 -0.187527 0.632602 -0.367398 0.5 -0.5 
C 0.367398 -0.632602 0.187527 -0.707107 0 -0.707107 
C -0.187527 -0.707107 -0.367398 -0.632602 -0.5 -0.5 
C -0.632602 -0.367398 -0.707107 -0.187527 -0.707107 0 
C -0.707107 0.187527 -0.632602 0.367398 -0.5 0.5 
C -0.367398 0.632602 -0.187527 0.707107 0 0.707107 
z
" id="m78b80a8b7e" style="stroke:#1f77b4;"/>
    </defs>
    <g clip-path="url(#pc40344a639)">
     <use style="fill:#1f77b4;stroke:#1f77b4;" x="104.495948" xlink:href="#m78b80a8b7e" y="123.921794"/>
     <use style="fill:#1f77b4;stroke:#1f77b4;" x="104.501322" xlink:href="#m78b80a8b7e" y="127.239259"/>
     <use style="fill:#1f77b4;stroke:#1f77b4;" x="110.873419" xlink:href="#m78b80a8b7e" y="117.023191"/>
     <use style="fill:#1f77b4;stroke:#1f77b4;" x="110.878793" xlink:href="#m78b80a8b7e" y="116.459844"/>
     <use style="fill:#1f77b4;stroke:#1f77b4;" x="64.363636" xlink:href="#m78b80a8b7e" y="108.14032"/>
     <use style="fill:#1f77b4;stroke:#1f77b4;" x="98.815649" xlink:href="#m78b80a8b7e" y="95.767464"/>
     <use style="fill:#1f77b4;stroke:#1f77b4;" x="98.852997" xlink:href="#m78b80a8b7e" y="93.223027"/>
     <use style="fill:#1f77b4;stroke:#1f77b4;" x="117.294812" xlink:href="#m78b80a8b7e" y="47.67488"/>
     <use style="fill:#1f77b4;stroke:#1f77b4;" x="128.89028" xlink:href="#m78b80a8b7e" y="66.821444"/>
     <use style="fill:#1f77b4;stroke:#1f77b4;" x="128.89552" xlink:href="#m78b80a8b7e" y="69.258311"/>
     <use style="fill:#1f77b4;stroke:#1f77b4;" x="81.607592" xlink:href="#m78b80a8b7e" y="83.798901"/>
     <use style="fill:#1f77b4;stroke:#1f77b4;" x="81.612966" xlink:href="#m78b80a8b7e" y="86.659895"/>
     <use style="fill:#1f77b4;stroke:#1f77b4;" x="104.454865" xlink:href="#m78b80a8b7e" y="126.912678"/>
     <use style="fill:#1f77b4;stroke:#1f77b4;" x="104.46024" xlink:href="#m78b80a8b7e" y="130.063321"/>
     <use style="fill:#1f77b4;stroke:#1f77b4;" x="115.948632" xlink:href="#m78b80a8b7e" y="144.207145"/>
     <use style="fill:#1f77b4;stroke:#1f77b4;" x="115.954005" xlink:href="#m78b80a8b7e" y="145.152"/>
     <use style="fill:#1f77b4;stroke:#1f77b4;" x="128.176343" xlink:href="#m78b80a8b7e" y="64.679459"/>
     <use style="fill:#1f77b4;stroke:#1f77b4;" x="128.181582" xlink:href="#m78b80a8b7e" y="65.949736"/>
     <use style="fill:#1f77b4;stroke:#1f77b4;" x="68.542746" xlink:href="#m78b80a8b7e" y="76.238724"/>
     <use style="fill:#1f77b4;stroke:#1f77b4;" x="68.54812" xlink:href="#m78b80a8b7e" y="76.6209"/>
     <use style="fill:#1f77b4;stroke:#1f77b4;" x="80.139423" xlink:href="#m78b80a8b7e" y="62.44472"/>
     <use style="fill:#1f77b4;stroke:#1f77b4;" x="80.144662" xlink:href="#m78b80a8b7e" y="61.118836"/>
     <use style="fill:#1f77b4;stroke:#1f77b4;" x="113.952731" xlink:href="#m78b80a8b7e" y="110.02273"/>
     <use style="fill:#1f77b4;stroke:#1f77b4;" x="123.801929" xlink:href="#m78b80a8b7e" y="137.385573"/>
     <use style="fill:#1f77b4;stroke:#1f77b4;" x="64.615981" xlink:href="#m78b80a8b7e" y="75.114753"/>
     <use style="fill:#1f77b4;stroke:#1f77b4;" x="76.226362" xlink:href="#m78b80a8b7e" y="49.742331"/>
     <use style="fill:#1f77b4;stroke:#1f77b4;" x="87.812694" xlink:href="#m78b80a8b7e" y="126.133282"/>
     <use style="fill:#1f77b4;stroke:#1f77b4;" x="99.469291" xlink:href="#m78b80a8b7e" y="103.422904"/>
     <use style="fill:#1f77b4;stroke:#1f77b4;" x="97.45418" xlink:href="#m78b80a8b7e" y="119.696634"/>
     <use style="fill:#1f77b4;stroke:#1f77b4;" x="128.84989" xlink:href="#m78b80a8b7e" y="56.041109"/>
     <use style="fill:#1f77b4;stroke:#1f77b4;" x="71.410336" xlink:href="#m78b80a8b7e" y="62.418744"/>
     <use style="fill:#1f77b4;stroke:#1f77b4;" x="83.232181" xlink:href="#m78b80a8b7e" y="74.898024"/>
     <use style="fill:#1f77b4;stroke:#1f77b4;" x="93.506054" xlink:href="#m78b80a8b7e" y="46.409143"/>
     <use style="fill:#1f77b4;stroke:#1f77b4;" x="128.551347" xlink:href="#m78b80a8b7e" y="87.02839"/>
     <use style="fill:#1f77b4;stroke:#1f77b4;" x="95.296036" xlink:href="#m78b80a8b7e" y="103.070121"/>
     <use style="fill:#1f77b4;stroke:#1f77b4;" x="70.985699" xlink:href="#m78b80a8b7e" y="57.863586"/>
     <use style="fill:#1f77b4;stroke:#1f77b4;" x="116.235408" xlink:href="#m78b80a8b7e" y="126.022295"/>
     <use style="fill:#1f77b4;stroke:#1f77b4;" x="92.522799" xlink:href="#m78b80a8b7e" y="90.510394"/>
     <use style="fill:#1f77b4;stroke:#1f77b4;" x="121.865883" xlink:href="#m78b80a8b7e" y="70.537036"/>
     <use style="fill:#1f77b4;stroke:#1f77b4;" x="93.383596" xlink:href="#m78b80a8b7e" y="99.707313"/>
     <use style="fill:#1f77b4;stroke:#1f77b4;" x="93.388836" xlink:href="#m78b80a8b7e" y="105.87209"/>
     <use style="fill:#1f77b4;stroke:#1f77b4;" x="104.490708" xlink:href="#m78b80a8b7e" y="119.324016"/>
     <use style="fill:#1f77b4;stroke:#1f77b4;" x="104.495948" xlink:href="#m78b80a8b7e" y="116.174974"/>
    </g>
   </g>
   <g id="PathCollection_2">
    <g clip-path="url(#pc40344a639)">
     <use style="fill:#1f77b4;stroke:#1f77b4;" x="175.236791" xlink:href="#m78b80a8b7e" y="123.921794"/>
     <use style="fill:#1f77b4;stroke:#1f77b4;" x="175.242166" xlink:href="#m78b80a8b7e" y="127.239259"/>
     <use style="fill:#1f77b4;stroke:#1f77b4;" x="181.614263" xlink:href="#m78b80a8b7e" y="117.023191"/>
     <use style="fill:#1f77b4;stroke:#1f77b4;" x="181.619637" xlink:href="#m78b80a8b7e" y="116.459844"/>
     <use style="fill:#1f77b4;stroke:#1f77b4;" x="135.10448" xlink:href="#m78b80a8b7e" y="108.14032"/>
     <use style="fill:#1f77b4;stroke:#1f77b4;" x="169.556492" xlink:href="#m78b80a8b7e" y="95.767464"/>
     <use style="fill:#1f77b4;stroke:#1f77b4;" x="169.59384" xlink:href="#m78b80a8b7e" y="93.223027"/>
     <use style="fill:#1f77b4;stroke:#1f77b4;" x="188.035655" xlink:href="#m78b80a8b7e" y="47.67488"/>
     <use style="fill:#1f77b4;stroke:#1f77b4;" x="199.631124" xlink:href="#m78b80a8b7e" y="66.821444"/>
     <use style="fill:#1f77b4;stroke:#1f77b4;" x="199.636364" xlink:href="#m78b80a8b7e" y="69.258311"/>
     <use style="fill:#1f77b4;stroke:#1f77b4;" x="152.348436" xlink:href="#m78b80a8b7e" y="83.798901"/>
     <use style="fill:#1f77b4;stroke:#1f77b4;" x="152.353809" xlink:href="#m78b80a8b7e" y="86.659895"/>
     <use style="fill:#1f77b4;stroke:#1f77b4;" x="175.195709" xlink:href="#m78b80a8b7e" y="126.912678"/>
     <use style="fill:#1f77b4;stroke:#1f77b4;" x="175.201083" xlink:href="#m78b80a8b7e" y="130.063321"/>
     <use style="fill:#1f77b4;stroke:#1f77b4;" x="186.689475" xlink:href="#m78b80a8b7e" y="144.207145"/>
     <use style="fill:#1f77b4;stroke:#1f77b4;" x="186.694849" xlink:href="#m78b80a8b7e" y="145.152"/>
     <use style="fill:#1f77b4;stroke:#1f77b4;" x="198.917186" xlink:href="#m78b80a8b7e" y="64.679459"/>
     <use style="fill:#1f77b4;stroke:#1f77b4;" x="198.922426" xlink:href="#m78b80a8b7e" y="65.949736"/>
     <use style="fill:#1f77b4;stroke:#1f77b4;" x="139.283589" xlink:href="#m78b80a8b7e" y="76.238724"/>
     <use style="fill:#1f77b4;stroke:#1f77b4;" x="139.288964" xlink:href="#m78b80a8b7e" y="76.6209"/>
     <use style="fill:#1f77b4;stroke:#1f77b4;" x="150.880266" xlink:href="#m78b80a8b7e" y="62.44472"/>
     <use style="fill:#1f77b4;stroke:#1f77b4;" x="150.885506" xlink:href="#m78b80a8b7e" y="61.118836"/>
     <use style="fill:#1f77b4;stroke:#1f77b4;" x="184.693575" xlink:href="#m78b80a8b7e" y="110.02273"/>
     <use style="fill:#1f77b4;stroke:#1f77b4;" x="194.542773" xlink:href="#m78b80a8b7e" y="137.385573"/>
     <use style="fill:#1f77b4;stroke:#1f77b4;" x="135.356825" xlink:href="#m78b80a8b7e" y="75.114753"/>
     <use style="fill:#1f77b4;stroke:#1f77b4;" x="146.967205" xlink:href="#m78b80a8b7e" y="49.742331"/>
     <use style="fill:#1f77b4;stroke:#1f77b4;" x="158.553538" xlink:href="#m78b80a8b7e" y="126.133282"/>
     <use style="fill:#1f77b4;stroke:#1f77b4;" x="170.210135" xlink:href="#m78b80a8b7e" y="103.422904"/>
     <use style="fill:#1f77b4;stroke:#1f77b4;" x="168.195023" xlink:href="#m78b80a8b7e" y="119.696634"/>
     <use style="fill:#1f77b4;stroke:#1f77b4;" x="199.590734" xlink:href="#m78b80a8b7e" y="56.041109"/>
     <use style="fill:#1f77b4;stroke:#1f77b4;" x="142.151179" xlink:href="#m78b80a8b7e" y="62.418744"/>
     <use style="fill:#1f77b4;stroke:#1f77b4;" x="153.973024" xlink:href="#m78b80a8b7e" y="74.898024"/>
     <use style="fill:#1f77b4;stroke:#1f77b4;" x="164.246897" xlink:href="#m78b80a8b7e" y="46.409143"/>
     <use style="fill:#1f77b4;stroke:#1f77b4;" x="199.29219" xlink:href="#m78b80a8b7e" y="87.02839"/>
     <use style="fill:#1f77b4;stroke:#1f77b4;" x="166.03688" xlink:href="#m78b80a8b7e" y="103.070121"/>
     <use style="fill:#1f77b4;stroke:#1f77b4;" x="141.726542" xlink:href="#m78b80a8b7e" y="57.863586"/>
     <use style="fill:#1f77b4;stroke:#1f77b4;" x="186.976251" xlink:href="#m78b80a8b7e" y="126.022295"/>
     <use style="fill:#1f77b4;stroke:#1f77b4;" x="163.263643" xlink:href="#m78b80a8b7e" y="90.510394"/>
     <use style="fill:#1f77b4;stroke:#1f77b4;" x="192.606727" xlink:href="#m78b80a8b7e" y="70.537036"/>
     <use style="fill:#1f77b4;stroke:#1f77b4;" x="164.12444" xlink:href="#m78b80a8b7e" y="99.707313"/>
     <use style="fill:#1f77b4;stroke:#1f77b4;" x="164.129679" xlink:href="#m78b80a8b7e" y="105.87209"/>
     <use style="fill:#1f77b4;stroke:#1f77b4;" x="175.231552" xlink:href="#m78b80a8b7e" y="119.324016"/>
     <use style="fill:#1f77b4;stroke:#1f77b4;" x="175.236791" xlink:href="#m78b80a8b7e" y="116.174974"/>
    </g>
   </g>
   <g id="matplotlib.axis_3">
    <g id="xtick_19">
     <g id="line2d_27">
      <g>
       <use style="stroke:#000000;stroke-width:0.8;" x="60.85642" xlink:href="#m912d66606f" y="150.089143"/>
      </g>
     </g>
     <g id="text_13">
      <!-- 0 -->
      <g transform="translate(57.67517 164.68758)scale(0.1 -0.1)">
       <use xlink:href="#DejaVuSerif-48"/>
      </g>
     </g>
    </g>
    <g id="xtick_20">
     <g id="line2d_28">
      <g>
       <use style="stroke:#000000;stroke-width:0.8;" x="131.597263" xlink:href="#m912d66606f" y="150.089143"/>
      </g>
     </g>
     <g id="text_14">
      <!-- 1 -->
      <g transform="translate(128.416013 164.68758)scale(0.1 -0.1)">
       <use xlink:href="#DejaVuSerif-49"/>
      </g>
     </g>
    </g>
    <g id="xtick_21">
     <g id="line2d_29">
      <g>
       <use style="stroke:#000000;stroke-width:0.8;" x="202.338107" xlink:href="#m912d66606f" y="150.089143"/>
      </g>
     </g>
     <g id="text_15">
      <!-- 2 -->
      <g transform="translate(199.156857 164.68758)scale(0.1 -0.1)">
       <use xlink:href="#DejaVuSerif-50"/>
      </g>
     </g>
    </g>
    <g id="text_16">
     <!-- Phase (P = 6.094 d) -->
     <g transform="translate(81.582812 178.365705)scale(0.1 -0.1)">
      <defs>
       <path d="M 4.109375 0 
L 4.109375 5.171875 
L 12.203125 5.171875 
L 12.203125 70.796875 
L 3.609375 70.796875 
L 3.609375 75.984375 
L 21.1875 75.984375 
L 21.1875 42.671875 
Q 23.6875 47.953125 27.65625 50.640625 
Q 31.640625 53.328125 36.921875 53.328125 
Q 45.515625 53.328125 49.5625 48.390625 
Q 53.609375 43.453125 53.609375 33.015625 
L 53.609375 5.171875 
L 61.625 5.171875 
L 61.625 0 
L 36.8125 0 
L 36.8125 5.171875 
L 44.578125 5.171875 
L 44.578125 30.171875 
Q 44.578125 39.703125 42.25 43.1875 
Q 39.9375 46.6875 33.984375 46.6875 
Q 27.734375 46.6875 24.453125 42.140625 
Q 21.1875 37.59375 21.1875 28.90625 
L 21.1875 5.171875 
L 29 5.171875 
L 29 0 
z
" id="DejaVuSerif-104"/>
       <path d="M 5.609375 2.875 
L 5.609375 14.984375 
L 10.796875 14.984375 
Q 10.984375 9.1875 14.421875 6.296875 
Q 17.875 3.421875 24.609375 3.421875 
Q 30.671875 3.421875 33.84375 5.6875 
Q 37.015625 7.953125 37.015625 12.3125 
Q 37.015625 15.71875 34.6875 17.8125 
Q 32.375 19.921875 24.90625 22.3125 
L 18.40625 24.515625 
Q 11.71875 26.65625 8.71875 29.875 
Q 5.71875 33.109375 5.71875 38.09375 
Q 5.71875 45.21875 10.9375 49.265625 
Q 16.15625 53.328125 25.390625 53.328125 
Q 29.5 53.328125 34.03125 52.25 
Q 38.578125 51.171875 43.40625 49.125 
L 43.40625 37.796875 
L 38.234375 37.796875 
Q 38.03125 42.828125 34.703125 45.65625 
Q 31.390625 48.484375 25.6875 48.484375 
Q 20.015625 48.484375 17.109375 46.484375 
Q 14.203125 44.484375 14.203125 40.484375 
Q 14.203125 37.203125 16.40625 35.21875 
Q 18.609375 33.25 25.203125 31.203125 
L 32.328125 29 
Q 39.703125 26.703125 42.9375 23.265625 
Q 46.1875 19.828125 46.1875 14.40625 
Q 46.1875 7.03125 40.546875 2.796875 
Q 34.90625 -1.421875 25 -1.421875 
Q 19.96875 -1.421875 15.1875 -0.34375 
Q 10.40625 0.734375 5.609375 2.875 
z
" id="DejaVuSerif-115"/>
       <path d="M 31.890625 -15.578125 
Q 20.015625 -10.25 13.953125 1.296875 
Q 7.90625 12.84375 7.90625 30.171875 
Q 7.90625 47.5625 13.953125 59.109375 
Q 20.015625 70.65625 31.890625 75.984375 
L 31.890625 71.1875 
Q 24.359375 66.015625 21.09375 56.609375 
Q 17.828125 47.21875 17.828125 30.171875 
Q 17.828125 13.1875 21.09375 3.78125 
Q 24.359375 -5.609375 31.890625 -10.796875 
z
" id="DejaVuSerif-40"/>
       <path d="M 10.59375 45.21875 
L 73.1875 45.21875 
L 73.1875 37.40625 
L 10.59375 37.40625 
z
M 10.59375 25.296875 
L 73.1875 25.296875 
L 73.1875 17.484375 
L 10.59375 17.484375 
z
" id="DejaVuSerif-61"/>
       <path d="M 32.71875 3.421875 
Q 39.59375 3.421875 43.296875 8.46875 
Q 47.015625 13.53125 47.015625 23 
Q 47.015625 32.46875 43.296875 37.515625 
Q 39.59375 42.578125 32.71875 42.578125 
Q 25.734375 42.578125 22.0625 37.6875 
Q 18.40625 32.8125 18.40625 23.578125 
Q 18.40625 13.875 22.109375 8.640625 
Q 25.828125 3.421875 32.71875 3.421875 
z
M 16.796875 40.140625 
Q 20.125 43.796875 24.3125 45.59375 
Q 28.515625 47.40625 33.796875 47.40625 
Q 44.671875 47.40625 51 40.859375 
Q 57.328125 34.328125 57.328125 23 
Q 57.328125 11.921875 50.515625 5.25 
Q 43.703125 -1.421875 32.328125 -1.421875 
Q 19.96875 -1.421875 13.328125 7.78125 
Q 6.6875 17 6.6875 34.078125 
Q 6.6875 53.21875 14.546875 63.71875 
Q 22.40625 74.21875 36.71875 74.21875 
Q 40.578125 74.21875 44.828125 73.484375 
Q 49.078125 72.75 53.515625 71.296875 
L 53.515625 59.28125 
L 48 59.28125 
Q 47.40625 64.203125 44.234375 66.796875 
Q 41.0625 69.390625 35.6875 69.390625 
Q 26.21875 69.390625 21.578125 62.203125 
Q 16.9375 55.03125 16.796875 40.140625 
z
" id="DejaVuSerif-54"/>
       <path d="M 7.078125 -15.578125 
L 7.078125 -10.796875 
Q 14.59375 -5.609375 17.890625 3.78125 
Q 21.1875 13.1875 21.1875 30.171875 
Q 21.1875 47.21875 17.890625 56.609375 
Q 14.59375 66.015625 7.078125 71.1875 
L 7.078125 75.984375 
Q 19 70.65625 25.046875 59.109375 
Q 31.109375 47.5625 31.109375 30.171875 
Q 31.109375 12.84375 25.046875 1.296875 
Q 19 -10.25 7.078125 -15.578125 
z
" id="DejaVuSerif-41"/>
      </defs>
      <use xlink:href="#DejaVuSerif-80"/>
      <use x="67.285156" xlink:href="#DejaVuSerif-104"/>
      <use x="131.689453" xlink:href="#DejaVuSerif-97"/>
      <use x="191.308594" xlink:href="#DejaVuSerif-115"/>
      <use x="242.626953" xlink:href="#DejaVuSerif-101"/>
      <use x="301.806641" xlink:href="#DejaVuSerif-32"/>
      <use x="333.59375" xlink:href="#DejaVuSerif-40"/>
      <use x="372.607422" xlink:href="#DejaVuSerif-80"/>
      <use x="439.892578" xlink:href="#DejaVuSerif-32"/>
      <use x="471.679688" xlink:href="#DejaVuSerif-61"/>
      <use x="555.46875" xlink:href="#DejaVuSerif-32"/>
      <use x="587.255859" xlink:href="#DejaVuSerif-54"/>
      <use x="650.878906" xlink:href="#DejaVuSerif-46"/>
      <use x="682.666016" xlink:href="#DejaVuSerif-48"/>
      <use x="746.289062" xlink:href="#DejaVuSerif-57"/>
      <use x="809.912109" xlink:href="#DejaVuSerif-52"/>
      <use x="873.535156" xlink:href="#DejaVuSerif-32"/>
      <use x="905.322266" xlink:href="#DejaVuSerif-100"/>
      <use x="969.335938" xlink:href="#DejaVuSerif-41"/>
     </g>
    </g>
   </g>
   <g id="matplotlib.axis_4">
    <g id="ytick_4">
     <g id="line2d_30">
      <g>
       <use style="stroke:#000000;stroke-width:0.8;" x="57.6" xlink:href="#mf5f595251b" y="65.082557"/>
      </g>
     </g>
     <g id="text_17">
      <!-- 16.6 -->
      <g transform="translate(28.334375 68.881775)scale(0.1 -0.1)">
       <use xlink:href="#DejaVuSerif-49"/>
       <use x="63.623047" xlink:href="#DejaVuSerif-54"/>
       <use x="127.246094" xlink:href="#DejaVuSerif-46"/>
       <use x="159.033203" xlink:href="#DejaVuSerif-54"/>
      </g>
     </g>
    </g>
    <g id="ytick_5">
     <g id="line2d_31">
      <g>
       <use style="stroke:#000000;stroke-width:0.8;" x="57.6" xlink:href="#mf5f595251b" y="88.979036"/>
      </g>
     </g>
     <g id="text_18">
      <!-- 16.8 -->
      <g transform="translate(28.334375 92.778255)scale(0.1 -0.1)">
       <defs>
        <path d="M 46.578125 19.921875 
Q 46.578125 27.734375 42.6875 32.046875 
Q 38.8125 36.375 31.78125 36.375 
Q 24.75 36.375 20.875 32.046875 
Q 17 27.734375 17 19.921875 
Q 17 12.0625 20.875 7.734375 
Q 24.75 3.421875 31.78125 3.421875 
Q 38.8125 3.421875 42.6875 7.734375 
Q 46.578125 12.0625 46.578125 19.921875 
z
M 44.578125 55.328125 
Q 44.578125 61.96875 41.203125 65.671875 
Q 37.84375 69.390625 31.78125 69.390625 
Q 25.78125 69.390625 22.390625 65.671875 
Q 19 61.96875 19 55.328125 
Q 19 48.640625 22.390625 44.921875 
Q 25.78125 41.21875 31.78125 41.21875 
Q 37.84375 41.21875 41.203125 44.921875 
Q 44.578125 48.640625 44.578125 55.328125 
z
M 39.3125 38.8125 
Q 47.609375 37.703125 52.25 32.6875 
Q 56.890625 27.6875 56.890625 19.921875 
Q 56.890625 9.671875 50.390625 4.125 
Q 43.890625 -1.421875 31.78125 -1.421875 
Q 19.734375 -1.421875 13.203125 4.125 
Q 6.6875 9.671875 6.6875 19.921875 
Q 6.6875 27.6875 11.328125 32.6875 
Q 15.96875 37.703125 24.3125 38.8125 
Q 16.9375 40.140625 13 44.40625 
Q 9.078125 48.6875 9.078125 55.328125 
Q 9.078125 64.109375 15.125 69.15625 
Q 21.1875 74.21875 31.78125 74.21875 
Q 42.390625 74.21875 48.4375 69.15625 
Q 54.5 64.109375 54.5 55.328125 
Q 54.5 48.6875 50.5625 44.40625 
Q 46.625 40.140625 39.3125 38.8125 
z
" id="DejaVuSerif-56"/>
       </defs>
       <use xlink:href="#DejaVuSerif-49"/>
       <use x="63.623047" xlink:href="#DejaVuSerif-54"/>
       <use x="127.246094" xlink:href="#DejaVuSerif-46"/>
       <use x="159.033203" xlink:href="#DejaVuSerif-56"/>
      </g>
     </g>
    </g>
    <g id="ytick_6">
     <g id="line2d_32">
      <g>
       <use style="stroke:#000000;stroke-width:0.8;" x="57.6" xlink:href="#mf5f595251b" y="112.875515"/>
      </g>
     </g>
     <g id="text_19">
      <!-- 17.0 -->
      <g transform="translate(28.334375 116.674734)scale(0.1 -0.1)">
       <defs>
        <path d="M 56.390625 67.921875 
L 27.875 0 
L 20.609375 0 
L 47.796875 64.890625 
L 14.109375 64.890625 
L 14.109375 55.90625 
L 8.40625 55.90625 
L 8.40625 72.90625 
L 56.390625 72.90625 
z
" id="DejaVuSerif-55"/>
       </defs>
       <use xlink:href="#DejaVuSerif-49"/>
       <use x="63.623047" xlink:href="#DejaVuSerif-55"/>
       <use x="127.246094" xlink:href="#DejaVuSerif-46"/>
       <use x="159.033203" xlink:href="#DejaVuSerif-48"/>
      </g>
     </g>
    </g>
    <g id="ytick_7">
     <g id="line2d_33">
      <g>
       <use style="stroke:#000000;stroke-width:0.8;" x="57.6" xlink:href="#mf5f595251b" y="136.771995"/>
      </g>
     </g>
     <g id="text_20">
      <!-- 17.2 -->
      <g transform="translate(28.334375 140.571213)scale(0.1 -0.1)">
       <use xlink:href="#DejaVuSerif-49"/>
       <use x="63.623047" xlink:href="#DejaVuSerif-55"/>
       <use x="127.246094" xlink:href="#DejaVuSerif-46"/>
       <use x="159.033203" xlink:href="#DejaVuSerif-50"/>
      </g>
     </g>
    </g>
    <g id="text_21">
     <!-- Mag -->
     <g transform="translate(22.1125 107.082134)rotate(-90)scale(0.1 -0.1)">
      <defs>
       <path d="M 5.515625 0 
L 5.515625 5.171875 
L 14.796875 5.171875 
L 14.796875 67.671875 
L 4.984375 67.671875 
L 4.984375 72.90625 
L 26.21875 72.90625 
L 51.8125 21 
L 77.390625 72.90625 
L 97.3125 72.90625 
L 97.3125 67.671875 
L 87.59375 67.671875 
L 87.59375 5.171875 
L 96.921875 5.171875 
L 96.921875 0 
L 68.40625 0 
L 68.40625 5.171875 
L 77.6875 5.171875 
L 77.6875 61.53125 
L 52.6875 10.6875 
L 45.796875 10.6875 
L 20.796875 61.53125 
L 20.796875 5.171875 
L 30.078125 5.171875 
L 30.078125 0 
z
" id="DejaVuSerif-77"/>
      </defs>
      <use xlink:href="#DejaVuSerif-77"/>
      <use x="102.392578" xlink:href="#DejaVuSerif-97"/>
      <use x="162.011719" xlink:href="#DejaVuSerif-103"/>
     </g>
    </g>
   </g>
   <g id="patch_9">
    <path d="M 57.6 150.089143 
L 57.6 41.472 
" style="fill:none;stroke:#000000;stroke-linecap:square;stroke-linejoin:miter;stroke-width:0.8;"/>
   </g>
   <g id="patch_10">
    <path d="M 206.4 150.089143 
L 206.4 41.472 
" style="fill:none;stroke:#000000;stroke-linecap:square;stroke-linejoin:miter;stroke-width:0.8;"/>
   </g>
   <g id="patch_11">
    <path d="M 57.6 150.089143 
L 206.4 150.089143 
" style="fill:none;stroke:#000000;stroke-linecap:square;stroke-linejoin:miter;stroke-width:0.8;"/>
   </g>
   <g id="patch_12">
    <path d="M 57.6 41.472 
L 206.4 41.472 
" style="fill:none;stroke:#000000;stroke-linecap:square;stroke-linejoin:miter;stroke-width:0.8;"/>
   </g>
   <g id="text_22">
    <!-- Folded Light Curve -->
    <g transform="translate(83.086719 35.472)scale(0.1 -0.1)">
     <defs>
      <path d="M 20.515625 5.171875 
L 29 5.171875 
L 29 0 
L 2.875 0 
L 2.875 5.171875 
L 11.53125 5.171875 
L 11.53125 70.796875 
L 2.875 70.796875 
L 2.875 75.984375 
L 20.515625 75.984375 
z
" id="DejaVuSerif-108"/>
      <path d="M 5.515625 0 
L 5.515625 5.171875 
L 14.796875 5.171875 
L 14.796875 67.671875 
L 5.515625 67.671875 
L 5.515625 72.90625 
L 33.984375 72.90625 
L 33.984375 67.671875 
L 24.703125 67.671875 
L 24.703125 6 
L 58.015625 6 
L 58.015625 18.21875 
L 64.015625 18.21875 
L 64.015625 0 
z
" id="DejaVuSerif-76"/>
      <path d="M 10.796875 46.6875 
L 2.875 46.6875 
L 2.875 51.90625 
L 10.796875 51.90625 
L 10.796875 68.015625 
L 19.828125 68.015625 
L 19.828125 51.90625 
L 36.71875 51.90625 
L 36.71875 46.6875 
L 19.828125 46.6875 
L 19.828125 13.71875 
Q 19.828125 7.125 21.09375 5.265625 
Q 22.359375 3.421875 25.78125 3.421875 
Q 29.296875 3.421875 30.90625 5.484375 
Q 32.515625 7.5625 32.625 12.203125 
L 39.40625 12.203125 
Q 39.015625 5.125 35.546875 1.84375 
Q 32.078125 -1.421875 25 -1.421875 
Q 17.234375 -1.421875 14.015625 2.015625 
Q 10.796875 5.46875 10.796875 13.71875 
z
" id="DejaVuSerif-116"/>
      <path d="M 70.515625 19.28125 
Q 67.28125 9.078125 59.6875 3.828125 
Q 52.09375 -1.421875 40.484375 -1.421875 
Q 33.34375 -1.421875 27.234375 1.015625 
Q 21.140625 3.46875 16.40625 8.203125 
Q 10.9375 13.671875 8.265625 20.625 
Q 5.609375 27.59375 5.609375 36.375 
Q 5.609375 53.375 15.421875 63.796875 
Q 25.25 74.21875 41.3125 74.21875 
Q 47.265625 74.21875 54 72.65625 
Q 60.75 71.09375 68.5 67.921875 
L 68.5 51.125 
L 62.984375 51.125 
Q 61.1875 60.296875 55.734375 64.640625 
Q 50.296875 69 40.484375 69 
Q 28.8125 69 22.796875 60.71875 
Q 16.796875 52.4375 16.796875 36.375 
Q 16.796875 20.359375 22.796875 12.078125 
Q 28.8125 3.8125 40.484375 3.8125 
Q 48.640625 3.8125 53.90625 7.6875 
Q 59.1875 11.578125 61.53125 19.28125 
z
" id="DejaVuSerif-67"/>
      <path d="M 35.40625 51.90625 
L 52.203125 51.90625 
L 52.203125 5.171875 
L 60.6875 5.171875 
L 60.6875 0 
L 43.21875 0 
L 43.21875 9.1875 
Q 40.71875 4 36.765625 1.28125 
Q 32.8125 -1.421875 27.59375 -1.421875 
Q 18.953125 -1.421875 14.875 3.484375 
Q 10.796875 8.40625 10.796875 18.890625 
L 10.796875 46.6875 
L 2.6875 46.6875 
L 2.6875 51.90625 
L 19.828125 51.90625 
L 19.828125 21.6875 
Q 19.828125 12.203125 22.140625 8.6875 
Q 24.46875 5.171875 30.421875 5.171875 
Q 36.671875 5.171875 39.9375 9.765625 
Q 43.21875 14.359375 43.21875 23.09375 
L 43.21875 46.6875 
L 35.40625 46.6875 
z
" id="DejaVuSerif-117"/>
      <path d="M 24.703125 0 
L 5.609375 46.6875 
L -0.296875 46.6875 
L -0.296875 51.90625 
L 23.578125 51.90625 
L 23.578125 46.6875 
L 15.28125 46.6875 
L 29.890625 10.984375 
L 44.484375 46.6875 
L 36.71875 46.6875 
L 36.71875 51.90625 
L 56.203125 51.90625 
L 56.203125 46.6875 
L 50.390625 46.6875 
L 31.296875 0 
z
" id="DejaVuSerif-118"/>
     </defs>
     <use xlink:href="#DejaVuSerif-70"/>
     <use x="63.884766" xlink:href="#DejaVuSerif-111"/>
     <use x="124.089844" xlink:href="#DejaVuSerif-108"/>
     <use x="156.072266" xlink:href="#DejaVuSerif-100"/>
     <use x="220.085938" xlink:href="#DejaVuSerif-101"/>
     <use x="279.265625" xlink:href="#DejaVuSerif-100"/>
     <use x="343.279297" xlink:href="#DejaVuSerif-32"/>
     <use x="375.066406" xlink:href="#DejaVuSerif-76"/>
     <use x="441.472656" xlink:href="#DejaVuSerif-105"/>
     <use x="473.455078" xlink:href="#DejaVuSerif-103"/>
     <use x="537.46875" xlink:href="#DejaVuSerif-104"/>
     <use x="601.873047" xlink:href="#DejaVuSerif-116"/>
     <use x="642.058594" xlink:href="#DejaVuSerif-32"/>
     <use x="673.845703" xlink:href="#DejaVuSerif-67"/>
     <use x="750.359375" xlink:href="#DejaVuSerif-117"/>
     <use x="814.763672" xlink:href="#DejaVuSerif-114"/>
     <use x="862.566406" xlink:href="#DejaVuSerif-118"/>
     <use x="919.060547" xlink:href="#DejaVuSerif-101"/>
    </g>
   </g>
  </g>
  <g id="axes_3">
   <g id="patch_13">
    <path d="M 57.6 307.584 
L 414.72 307.584 
L 414.72 198.966857 
L 57.6 198.966857 
z
" style="fill:#ffffff;"/>
   </g>
   <g id="PathCollection_3">
    <g clip-path="url(#p427ede0280)">
     <use style="fill:#1f77b4;stroke:#1f77b4;" x="73.832727" xlink:href="#m78b80a8b7e" y="280.019599"/>
     <use style="fill:#1f77b4;stroke:#1f77b4;" x="73.833119" xlink:href="#m78b80a8b7e" y="283.201515"/>
     <use style="fill:#1f77b4;stroke:#1f77b4;" x="94.910293" xlink:href="#m78b80a8b7e" y="273.402866"/>
     <use style="fill:#1f77b4;stroke:#1f77b4;" x="94.910684" xlink:href="#m78b80a8b7e" y="272.862536"/>
     <use style="fill:#1f77b4;stroke:#1f77b4;" x="96.675449" xlink:href="#m78b80a8b7e" y="264.882939"/>
     <use style="fill:#1f77b4;stroke:#1f77b4;" x="99.185169" xlink:href="#m78b80a8b7e" y="253.015625"/>
     <use style="fill:#1f77b4;stroke:#1f77b4;" x="99.18789" xlink:href="#m78b80a8b7e" y="250.575151"/>
     <use style="fill:#1f77b4;stroke:#1f77b4;" x="121.144305" xlink:href="#m78b80a8b7e" y="206.888054"/>
     <use style="fill:#1f77b4;stroke:#1f77b4;" x="121.988998" xlink:href="#m78b80a8b7e" y="225.252309"/>
     <use style="fill:#1f77b4;stroke:#1f77b4;" x="121.98938" xlink:href="#m78b80a8b7e" y="227.589609"/>
     <use style="fill:#1f77b4;stroke:#1f77b4;" x="123.69785" xlink:href="#m78b80a8b7e" y="241.536085"/>
     <use style="fill:#1f77b4;stroke:#1f77b4;" x="123.698242" xlink:href="#m78b80a8b7e" y="244.280182"/>
     <use style="fill:#1f77b4;stroke:#1f77b4;" x="125.362202" xlink:href="#m78b80a8b7e" y="282.888278"/>
     <use style="fill:#1f77b4;stroke:#1f77b4;" x="125.362594" xlink:href="#m78b80a8b7e" y="285.910189"/>
     <use style="fill:#1f77b4;stroke:#1f77b4;" x="126.199487" xlink:href="#m78b80a8b7e" y="299.476111"/>
     <use style="fill:#1f77b4;stroke:#1f77b4;" x="126.199878" xlink:href="#m78b80a8b7e" y="300.38236"/>
     <use style="fill:#1f77b4;stroke:#1f77b4;" x="127.090237" xlink:href="#m78b80a8b7e" y="223.197844"/>
     <use style="fill:#1f77b4;stroke:#1f77b4;" x="127.090618" xlink:href="#m78b80a8b7e" y="224.416219"/>
     <use style="fill:#1f77b4;stroke:#1f77b4;" x="127.899364" xlink:href="#m78b80a8b7e" y="234.284809"/>
     <use style="fill:#1f77b4;stroke:#1f77b4;" x="127.899756" xlink:href="#m78b80a8b7e" y="234.65137"/>
     <use style="fill:#1f77b4;stroke:#1f77b4;" x="128.744146" xlink:href="#m78b80a8b7e" y="221.054414"/>
     <use style="fill:#1f77b4;stroke:#1f77b4;" x="128.744527" xlink:href="#m78b80a8b7e" y="219.782704"/>
     <use style="fill:#1f77b4;stroke:#1f77b4;" x="136.360585" xlink:href="#m78b80a8b7e" y="266.688435"/>
     <use style="fill:#1f77b4;stroke:#1f77b4;" x="142.231315" xlink:href="#m78b80a8b7e" y="292.933261"/>
     <use style="fill:#1f77b4;stroke:#1f77b4;" x="143.073052" xlink:href="#m78b80a8b7e" y="233.206762"/>
     <use style="fill:#1f77b4;stroke:#1f77b4;" x="143.918832" xlink:href="#m78b80a8b7e" y="208.871032"/>
     <use style="fill:#1f77b4;stroke:#1f77b4;" x="144.76286" xlink:href="#m78b80a8b7e" y="282.140727"/>
     <use style="fill:#1f77b4;stroke:#1f77b4;" x="145.612006" xlink:href="#m78b80a8b7e" y="260.358272"/>
     <use style="fill:#1f77b4;stroke:#1f77b4;" x="155.771705" xlink:href="#m78b80a8b7e" y="275.967074"/>
     <use style="fill:#1f77b4;stroke:#1f77b4;" x="163.21203" xlink:href="#m78b80a8b7e" y="214.912447"/>
     <use style="fill:#1f77b4;stroke:#1f77b4;" x="164.180987" xlink:href="#m78b80a8b7e" y="221.0295"/>
     <use style="fill:#1f77b4;stroke:#1f77b4;" x="165.042171" xlink:href="#m78b80a8b7e" y="232.998888"/>
     <use style="fill:#1f77b4;stroke:#1f77b4;" x="170.943837" xlink:href="#m78b80a8b7e" y="205.674034"/>
     <use style="fill:#1f77b4;stroke:#1f77b4;" x="173.496775" xlink:href="#m78b80a8b7e" y="244.633621"/>
     <use style="fill:#1f77b4;stroke:#1f77b4;" x="207.146958" xlink:href="#m78b80a8b7e" y="260.019903"/>
     <use style="fill:#1f77b4;stroke:#1f77b4;" x="210.529274" xlink:href="#m78b80a8b7e" y="216.66046"/>
     <use style="fill:#1f77b4;stroke:#1f77b4;" x="218.978819" xlink:href="#m78b80a8b7e" y="282.034275"/>
     <use style="fill:#1f77b4;stroke:#1f77b4;" x="346.082599" xlink:href="#m78b80a8b7e" y="247.973354"/>
     <use style="fill:#1f77b4;stroke:#1f77b4;" x="379.139631" xlink:href="#m78b80a8b7e" y="228.816086"/>
     <use style="fill:#1f77b4;stroke:#1f77b4;" x="397.677773" xlink:href="#m78b80a8b7e" y="256.794496"/>
     <use style="fill:#1f77b4;stroke:#1f77b4;" x="397.678155" xlink:href="#m78b80a8b7e" y="262.707387"/>
     <use style="fill:#1f77b4;stroke:#1f77b4;" x="398.486891" xlink:href="#m78b80a8b7e" y="275.609681"/>
     <use style="fill:#1f77b4;stroke:#1f77b4;" x="398.487273" xlink:href="#m78b80a8b7e" y="272.589305"/>
    </g>
   </g>
   <g id="matplotlib.axis_5">
    <g id="xtick_22">
     <g id="line2d_34">
      <g>
       <use style="stroke:#000000;stroke-width:0.8;" x="97.996351" xlink:href="#m912d66606f" y="307.584"/>
      </g>
     </g>
     <g id="text_23">
      <!-- 58300 -->
      <g transform="translate(82.090101 322.182437)scale(0.1 -0.1)">
       <defs>
        <path d="M 9.71875 69.828125 
Q 15.4375 71.96875 20.671875 73.09375 
Q 25.921875 74.21875 30.515625 74.21875 
Q 41.21875 74.21875 47.21875 69.59375 
Q 53.21875 64.984375 53.21875 56.78125 
Q 53.21875 50.203125 49.0625 45.78125 
Q 44.921875 41.359375 37.3125 39.796875 
Q 46.296875 38.53125 51.25 33.28125 
Q 56.203125 28.03125 56.203125 19.671875 
Q 56.203125 9.46875 49.34375 4.015625 
Q 42.484375 -1.421875 29.59375 -1.421875 
Q 23.875 -1.421875 18.421875 -0.1875 
Q 12.984375 1.03125 7.625 3.515625 
L 7.625 17.671875 
L 13.09375 17.671875 
Q 13.578125 10.640625 17.828125 7.03125 
Q 22.078125 3.421875 29.78125 3.421875 
Q 37.25 3.421875 41.578125 7.734375 
Q 45.90625 12.0625 45.90625 19.578125 
Q 45.90625 28.171875 41.453125 32.59375 
Q 37.015625 37.015625 28.421875 37.015625 
L 23.78125 37.015625 
L 23.78125 42 
L 26.21875 42 
Q 34.765625 42 39.03125 45.53125 
Q 43.3125 49.078125 43.3125 56.203125 
Q 43.3125 62.59375 39.796875 65.984375 
Q 36.28125 69.390625 29.6875 69.390625 
Q 23.09375 69.390625 19.453125 66.265625 
Q 15.828125 63.140625 15.1875 56.984375 
L 9.71875 56.984375 
z
" id="DejaVuSerif-51"/>
       </defs>
       <use xlink:href="#DejaVuSerif-53"/>
       <use x="63.623047" xlink:href="#DejaVuSerif-56"/>
       <use x="127.246094" xlink:href="#DejaVuSerif-51"/>
       <use x="190.869141" xlink:href="#DejaVuSerif-48"/>
       <use x="254.492188" xlink:href="#DejaVuSerif-48"/>
      </g>
     </g>
    </g>
    <g id="xtick_23">
     <g id="line2d_35">
      <g>
       <use style="stroke:#000000;stroke-width:0.8;" x="140.27554" xlink:href="#m912d66606f" y="307.584"/>
      </g>
     </g>
     <g id="text_24">
      <!-- 58350 -->
      <g transform="translate(124.36929 322.182437)scale(0.1 -0.1)">
       <use xlink:href="#DejaVuSerif-53"/>
       <use x="63.623047" xlink:href="#DejaVuSerif-56"/>
       <use x="127.246094" xlink:href="#DejaVuSerif-51"/>
       <use x="190.869141" xlink:href="#DejaVuSerif-53"/>
       <use x="254.492188" xlink:href="#DejaVuSerif-48"/>
      </g>
     </g>
    </g>
    <g id="xtick_24">
     <g id="line2d_36">
      <g>
       <use style="stroke:#000000;stroke-width:0.8;" x="182.55473" xlink:href="#m912d66606f" y="307.584"/>
      </g>
     </g>
     <g id="text_25">
      <!-- 58400 -->
      <g transform="translate(166.64848 322.182437)scale(0.1 -0.1)">
       <use xlink:href="#DejaVuSerif-53"/>
       <use x="63.623047" xlink:href="#DejaVuSerif-56"/>
       <use x="127.246094" xlink:href="#DejaVuSerif-52"/>
       <use x="190.869141" xlink:href="#DejaVuSerif-48"/>
       <use x="254.492188" xlink:href="#DejaVuSerif-48"/>
      </g>
     </g>
    </g>
    <g id="xtick_25">
     <g id="line2d_37">
      <g>
       <use style="stroke:#000000;stroke-width:0.8;" x="224.833919" xlink:href="#m912d66606f" y="307.584"/>
      </g>
     </g>
     <g id="text_26">
      <!-- 58450 -->
      <g transform="translate(208.927669 322.182437)scale(0.1 -0.1)">
       <use xlink:href="#DejaVuSerif-53"/>
       <use x="63.623047" xlink:href="#DejaVuSerif-56"/>
       <use x="127.246094" xlink:href="#DejaVuSerif-52"/>
       <use x="190.869141" xlink:href="#DejaVuSerif-53"/>
       <use x="254.492188" xlink:href="#DejaVuSerif-48"/>
      </g>
     </g>
    </g>
    <g id="xtick_26">
     <g id="line2d_38">
      <g>
       <use style="stroke:#000000;stroke-width:0.8;" x="267.113108" xlink:href="#m912d66606f" y="307.584"/>
      </g>
     </g>
     <g id="text_27">
      <!-- 58500 -->
      <g transform="translate(251.206858 322.182437)scale(0.1 -0.1)">
       <use xlink:href="#DejaVuSerif-53"/>
       <use x="63.623047" xlink:href="#DejaVuSerif-56"/>
       <use x="127.246094" xlink:href="#DejaVuSerif-53"/>
       <use x="190.869141" xlink:href="#DejaVuSerif-48"/>
       <use x="254.492188" xlink:href="#DejaVuSerif-48"/>
      </g>
     </g>
    </g>
    <g id="xtick_27">
     <g id="line2d_39">
      <g>
       <use style="stroke:#000000;stroke-width:0.8;" x="309.392298" xlink:href="#m912d66606f" y="307.584"/>
      </g>
     </g>
     <g id="text_28">
      <!-- 58550 -->
      <g transform="translate(293.486048 322.182437)scale(0.1 -0.1)">
       <use xlink:href="#DejaVuSerif-53"/>
       <use x="63.623047" xlink:href="#DejaVuSerif-56"/>
       <use x="127.246094" xlink:href="#DejaVuSerif-53"/>
       <use x="190.869141" xlink:href="#DejaVuSerif-53"/>
       <use x="254.492188" xlink:href="#DejaVuSerif-48"/>
      </g>
     </g>
    </g>
    <g id="xtick_28">
     <g id="line2d_40">
      <g>
       <use style="stroke:#000000;stroke-width:0.8;" x="351.671487" xlink:href="#m912d66606f" y="307.584"/>
      </g>
     </g>
     <g id="text_29">
      <!-- 58600 -->
      <g transform="translate(335.765237 322.182437)scale(0.1 -0.1)">
       <use xlink:href="#DejaVuSerif-53"/>
       <use x="63.623047" xlink:href="#DejaVuSerif-56"/>
       <use x="127.246094" xlink:href="#DejaVuSerif-54"/>
       <use x="190.869141" xlink:href="#DejaVuSerif-48"/>
       <use x="254.492188" xlink:href="#DejaVuSerif-48"/>
      </g>
     </g>
    </g>
    <g id="xtick_29">
     <g id="line2d_41">
      <g>
       <use style="stroke:#000000;stroke-width:0.8;" x="393.950677" xlink:href="#m912d66606f" y="307.584"/>
      </g>
     </g>
     <g id="text_30">
      <!-- 58650 -->
      <g transform="translate(378.044427 322.182437)scale(0.1 -0.1)">
       <use xlink:href="#DejaVuSerif-53"/>
       <use x="63.623047" xlink:href="#DejaVuSerif-56"/>
       <use x="127.246094" xlink:href="#DejaVuSerif-54"/>
       <use x="190.869141" xlink:href="#DejaVuSerif-53"/>
       <use x="254.492188" xlink:href="#DejaVuSerif-48"/>
      </g>
     </g>
    </g>
    <g id="text_31">
     <!-- MJD -->
     <g transform="translate(225.027187 335.860562)scale(0.1 -0.1)">
      <defs>
       <path d="M -8.40625 -17.484375 
L -8.40625 -6 
L -2.828125 -6 
Q -2.6875 -10.84375 -0.53125 -13.203125 
Q 1.609375 -15.578125 5.90625 -15.578125 
Q 11.71875 -15.578125 14.015625 -11.90625 
Q 16.3125 -8.25 16.3125 2.390625 
L 16.3125 67.671875 
L 4.984375 67.671875 
L 4.984375 72.90625 
L 35.5 72.90625 
L 35.5 67.671875 
L 26.21875 67.671875 
L 26.21875 2 
Q 26.21875 -10.0625 21.375 -15.421875 
Q 16.546875 -20.796875 5.8125 -20.796875 
Q 2.34375 -20.796875 -1.234375 -19.96875 
Q -4.828125 -19.140625 -8.40625 -17.484375 
z
" id="DejaVuSerif-74"/>
       <path d="M 24.703125 5.171875 
L 33.796875 5.171875 
Q 48 5.171875 55.59375 13.28125 
Q 63.1875 21.390625 63.1875 36.53125 
Q 63.1875 51.65625 55.609375 59.65625 
Q 48.046875 67.671875 33.796875 67.671875 
L 24.703125 67.671875 
z
M 5.515625 0 
L 5.515625 5.171875 
L 14.796875 5.171875 
L 14.796875 67.671875 
L 5.515625 67.671875 
L 5.515625 72.90625 
L 34.515625 72.90625 
Q 53.375 72.90625 63.890625 63.28125 
Q 74.421875 53.65625 74.421875 36.53125 
Q 74.421875 19.34375 63.875 9.671875 
Q 53.328125 0 34.515625 0 
z
" id="DejaVuSerif-68"/>
      </defs>
      <use xlink:href="#DejaVuSerif-77"/>
      <use x="102.392578" xlink:href="#DejaVuSerif-74"/>
      <use x="142.480469" xlink:href="#DejaVuSerif-68"/>
     </g>
    </g>
   </g>
   <g id="matplotlib.axis_6">
    <g id="ytick_8">
     <g id="line2d_42">
      <g>
       <use style="stroke:#000000;stroke-width:0.8;" x="57.6" xlink:href="#mf5f595251b" y="200.664377"/>
      </g>
     </g>
     <g id="text_32">
      <!-- 16.4 -->
      <g transform="translate(28.334375 204.463596)scale(0.1 -0.1)">
       <use xlink:href="#DejaVuSerif-49"/>
       <use x="63.623047" xlink:href="#DejaVuSerif-54"/>
       <use x="127.246094" xlink:href="#DejaVuSerif-46"/>
       <use x="159.033203" xlink:href="#DejaVuSerif-52"/>
      </g>
     </g>
    </g>
    <g id="ytick_9">
     <g id="line2d_43">
      <g>
       <use style="stroke:#000000;stroke-width:0.8;" x="57.6" xlink:href="#mf5f595251b" y="223.584471"/>
      </g>
     </g>
     <g id="text_33">
      <!-- 16.6 -->
      <g transform="translate(28.334375 227.38369)scale(0.1 -0.1)">
       <use xlink:href="#DejaVuSerif-49"/>
       <use x="63.623047" xlink:href="#DejaVuSerif-54"/>
       <use x="127.246094" xlink:href="#DejaVuSerif-46"/>
       <use x="159.033203" xlink:href="#DejaVuSerif-54"/>
      </g>
     </g>
    </g>
    <g id="ytick_10">
     <g id="line2d_44">
      <g>
       <use style="stroke:#000000;stroke-width:0.8;" x="57.6" xlink:href="#mf5f595251b" y="246.504565"/>
      </g>
     </g>
     <g id="text_34">
      <!-- 16.8 -->
      <g transform="translate(28.334375 250.303784)scale(0.1 -0.1)">
       <use xlink:href="#DejaVuSerif-49"/>
       <use x="63.623047" xlink:href="#DejaVuSerif-54"/>
       <use x="127.246094" xlink:href="#DejaVuSerif-46"/>
       <use x="159.033203" xlink:href="#DejaVuSerif-56"/>
      </g>
     </g>
    </g>
    <g id="ytick_11">
     <g id="line2d_45">
      <g>
       <use style="stroke:#000000;stroke-width:0.8;" x="57.6" xlink:href="#mf5f595251b" y="269.424659"/>
      </g>
     </g>
     <g id="text_35">
      <!-- 17.0 -->
      <g transform="translate(28.334375 273.223878)scale(0.1 -0.1)">
       <use xlink:href="#DejaVuSerif-49"/>
       <use x="63.623047" xlink:href="#DejaVuSerif-55"/>
       <use x="127.246094" xlink:href="#DejaVuSerif-46"/>
       <use x="159.033203" xlink:href="#DejaVuSerif-48"/>
      </g>
     </g>
    </g>
    <g id="ytick_12">
     <g id="line2d_46">
      <g>
       <use style="stroke:#000000;stroke-width:0.8;" x="57.6" xlink:href="#mf5f595251b" y="292.344753"/>
      </g>
     </g>
     <g id="text_36">
      <!-- 17.2 -->
      <g transform="translate(28.334375 296.143972)scale(0.1 -0.1)">
       <use xlink:href="#DejaVuSerif-49"/>
       <use x="63.623047" xlink:href="#DejaVuSerif-55"/>
       <use x="127.246094" xlink:href="#DejaVuSerif-46"/>
       <use x="159.033203" xlink:href="#DejaVuSerif-50"/>
      </g>
     </g>
    </g>
    <g id="text_37">
     <!-- Mag -->
     <g transform="translate(22.1125 264.576991)rotate(-90)scale(0.1 -0.1)">
      <use xlink:href="#DejaVuSerif-77"/>
      <use x="102.392578" xlink:href="#DejaVuSerif-97"/>
      <use x="162.011719" xlink:href="#DejaVuSerif-103"/>
     </g>
    </g>
   </g>
   <g id="LineCollection_5">
    <path clip-path="url(#p427ede0280)" d="M 73.832727 277.895035 
L 73.832727 282.144163 
" style="fill:none;stroke:#1f77b4;stroke-width:0.5;"/>
    <path clip-path="url(#p427ede0280)" d="M 73.833119 281.056551 
L 73.833119 285.346479 
" style="fill:none;stroke:#1f77b4;stroke-width:0.5;"/>
    <path clip-path="url(#p427ede0280)" d="M 94.910293 271.3191 
L 94.910293 275.486631 
" style="fill:none;stroke:#1f77b4;stroke-width:0.5;"/>
    <path clip-path="url(#p427ede0280)" d="M 94.910684 270.782007 
L 94.910684 274.943064 
" style="fill:none;stroke:#1f77b4;stroke-width:0.5;"/>
    <path clip-path="url(#p427ede0280)" d="M 96.675449 262.84863 
L 96.675449 266.917249 
" style="fill:none;stroke:#1f77b4;stroke-width:0.5;"/>
    <path clip-path="url(#p427ede0280)" d="M 99.185169 251.044817 
L 99.185169 254.986434 
" style="fill:none;stroke:#1f77b4;stroke-width:0.5;"/>
    <path clip-path="url(#p427ede0280)" d="M 99.18789 248.616669 
L 99.18789 252.533633 
" style="fill:none;stroke:#1f77b4;stroke-width:0.5;"/>
    <path clip-path="url(#p427ede0280)" d="M 121.144305 205.113773 
L 121.144305 208.662335 
" style="fill:none;stroke:#1f77b4;stroke-width:0.5;"/>
    <path clip-path="url(#p427ede0280)" d="M 121.988998 223.408415 
L 121.988998 227.096203 
" style="fill:none;stroke:#1f77b4;stroke-width:0.5;"/>
    <path clip-path="url(#p427ede0280)" d="M 121.98938 225.73609 
L 121.98938 229.443127 
" style="fill:none;stroke:#1f77b4;stroke-width:0.5;"/>
    <path clip-path="url(#p427ede0280)" d="M 123.69785 239.62121 
L 123.69785 243.45096 
" style="fill:none;stroke:#1f77b4;stroke-width:0.5;"/>
    <path clip-path="url(#p427ede0280)" d="M 123.698242 242.352402 
L 123.698242 246.207961 
" style="fill:none;stroke:#1f77b4;stroke-width:0.5;"/>
    <path clip-path="url(#p427ede0280)" d="M 125.362202 280.745345 
L 125.362202 285.03121 
" style="fill:none;stroke:#1f77b4;stroke-width:0.5;"/>
    <path clip-path="url(#p427ede0280)" d="M 125.362594 283.747447 
L 125.362594 288.072931 
" style="fill:none;stroke:#1f77b4;stroke-width:0.5;"/>
    <path clip-path="url(#p427ede0280)" d="M 126.199487 297.218335 
L 126.199487 301.733888 
" style="fill:none;stroke:#1f77b4;stroke-width:0.5;"/>
    <path clip-path="url(#p427ede0280)" d="M 126.199878 298.117863 
L 126.199878 302.646857 
" style="fill:none;stroke:#1f77b4;stroke-width:0.5;"/>
    <path clip-path="url(#p427ede0280)" d="M 127.090237 221.362261 
L 127.090237 225.033426 
" style="fill:none;stroke:#1f77b4;stroke-width:0.5;"/>
    <path clip-path="url(#p427ede0280)" d="M 127.090618 222.575724 
L 127.090618 226.256713 
" style="fill:none;stroke:#1f77b4;stroke-width:0.5;"/>
    <path clip-path="url(#p427ede0280)" d="M 127.899364 232.402695 
L 127.899364 236.166923 
" style="fill:none;stroke:#1f77b4;stroke-width:0.5;"/>
    <path clip-path="url(#p427ede0280)" d="M 127.899756 232.767645 
L 127.899756 236.535095 
" style="fill:none;stroke:#1f77b4;stroke-width:0.5;"/>
    <path clip-path="url(#p427ede0280)" d="M 128.744146 219.227356 
L 128.744146 222.881471 
" style="fill:none;stroke:#1f77b4;stroke-width:0.5;"/>
    <path clip-path="url(#p427ede0280)" d="M 128.744527 217.960635 
L 128.744527 221.604772 
" style="fill:none;stroke:#1f77b4;stroke-width:0.5;"/>
    <path clip-path="url(#p427ede0280)" d="M 136.360585 264.643925 
L 136.360585 268.732946 
" style="fill:none;stroke:#1f77b4;stroke-width:0.5;"/>
    <path clip-path="url(#p427ede0280)" d="M 142.231315 290.7226 
L 142.231315 295.143922 
" style="fill:none;stroke:#1f77b4;stroke-width:0.5;"/>
    <path clip-path="url(#p427ede0280)" d="M 143.073052 231.329358 
L 143.073052 235.084166 
" style="fill:none;stroke:#1f77b4;stroke-width:0.5;"/>
    <path clip-path="url(#p427ede0280)" d="M 143.918832 207.089722 
L 143.918832 210.652341 
" style="fill:none;stroke:#1f77b4;stroke-width:0.5;"/>
    <path clip-path="url(#p427ede0280)" d="M 144.76286 280.002622 
L 144.76286 284.278833 
" style="fill:none;stroke:#1f77b4;stroke-width:0.5;"/>
    <path clip-path="url(#p427ede0280)" d="M 145.612006 258.348889 
L 145.612006 262.367656 
" style="fill:none;stroke:#1f77b4;stroke-width:0.5;"/>
    <path clip-path="url(#p427ede0280)" d="M 155.771705 273.867753 
L 155.771705 278.066395 
" style="fill:none;stroke:#1f77b4;stroke-width:0.5;"/>
    <path clip-path="url(#p427ede0280)" d="M 163.21203 213.109017 
L 163.21203 216.715878 
" style="fill:none;stroke:#1f77b4;stroke-width:0.5;"/>
    <path clip-path="url(#p427ede0280)" d="M 164.180987 219.202541 
L 164.180987 222.856459 
" style="fill:none;stroke:#1f77b4;stroke-width:0.5;"/>
    <path clip-path="url(#p427ede0280)" d="M 165.042171 231.122387 
L 165.042171 234.87539 
" style="fill:none;stroke:#1f77b4;stroke-width:0.5;"/>
    <path clip-path="url(#p427ede0280)" d="M 170.943837 203.904 
L 170.943837 207.444068 
" style="fill:none;stroke:#1f77b4;stroke-width:0.5;"/>
    <path clip-path="url(#p427ede0280)" d="M 173.496775 242.704158 
L 173.496775 246.563084 
" style="fill:none;stroke:#1f77b4;stroke-width:0.5;"/>
    <path clip-path="url(#p427ede0280)" d="M 207.146958 258.012347 
L 207.146958 262.027458 
" style="fill:none;stroke:#1f77b4;stroke-width:0.5;"/>
    <path clip-path="url(#p427ede0280)" d="M 210.529274 214.850424 
L 210.529274 218.470496 
" style="fill:none;stroke:#1f77b4;stroke-width:0.5;"/>
    <path clip-path="url(#p427ede0280)" d="M 218.978819 279.896854 
L 218.978819 284.171696 
" style="fill:none;stroke:#1f77b4;stroke-width:0.5;"/>
    <path clip-path="url(#p427ede0280)" d="M 346.082599 246.02775 
L 346.082599 249.918958 
" style="fill:none;stroke:#1f77b4;stroke-width:0.5;"/>
    <path clip-path="url(#p427ede0280)" d="M 379.139631 226.957444 
L 379.139631 230.674728 
" style="fill:none;stroke:#1f77b4;stroke-width:0.5;"/>
    <path clip-path="url(#p427ede0280)" d="M 397.677773 254.804118 
L 397.677773 258.784873 
" style="fill:none;stroke:#1f77b4;stroke-width:0.5;"/>
    <path clip-path="url(#p427ede0280)" d="M 397.678155 260.685175 
L 397.678155 264.729599 
" style="fill:none;stroke:#1f77b4;stroke-width:0.5;"/>
    <path clip-path="url(#p427ede0280)" d="M 398.486891 273.512547 
L 398.486891 277.706815 
" style="fill:none;stroke:#1f77b4;stroke-width:0.5;"/>
    <path clip-path="url(#p427ede0280)" d="M 398.487273 270.510409 
L 398.487273 274.668202 
" style="fill:none;stroke:#1f77b4;stroke-width:0.5;"/>
   </g>
   <g id="line2d_47">
    <path clip-path="url(#p427ede0280)" d="M 73.832727 280.019599 
L 73.833119 283.201515 
L 94.910293 273.402866 
L 94.910684 272.862536 
L 96.675449 264.882939 
L 99.185169 253.015625 
L 99.18789 250.575151 
L 121.144305 206.888054 
L 121.988998 225.252309 
L 121.98938 227.589609 
L 123.69785 241.536085 
L 123.698242 244.280182 
L 125.362202 282.888278 
L 125.362594 285.910189 
L 126.199487 299.476111 
L 126.199878 300.38236 
L 127.090237 223.197844 
L 127.090618 224.416219 
L 127.899364 234.284809 
L 127.899756 234.65137 
L 128.744146 221.054414 
L 128.744527 219.782704 
L 136.360585 266.688435 
L 142.231315 292.933261 
L 143.073052 233.206762 
L 143.918832 208.871032 
L 144.76286 282.140727 
L 145.612006 260.358272 
L 155.771705 275.967074 
L 163.21203 214.912447 
L 164.180987 221.0295 
L 165.042171 232.998888 
L 170.943837 205.674034 
L 173.496775 244.633621 
L 207.146958 260.019903 
L 210.529274 216.66046 
L 218.978819 282.034275 
L 346.082599 247.973354 
L 379.139631 228.816086 
L 397.677773 256.794496 
L 397.678155 262.707387 
L 398.486891 275.609681 
L 398.487273 272.589305 
" style="fill:none;"/>
   </g>
   <g id="patch_14">
    <path d="M 57.6 307.584 
L 57.6 198.966857 
" style="fill:none;stroke:#000000;stroke-linecap:square;stroke-linejoin:miter;stroke-width:0.8;"/>
   </g>
   <g id="patch_15">
    <path d="M 414.72 307.584 
L 414.72 198.966857 
" style="fill:none;stroke:#000000;stroke-linecap:square;stroke-linejoin:miter;stroke-width:0.8;"/>
   </g>
   <g id="patch_16">
    <path d="M 57.6 307.584 
L 414.72 307.584 
" style="fill:none;stroke:#000000;stroke-linecap:square;stroke-linejoin:miter;stroke-width:0.8;"/>
   </g>
   <g id="patch_17">
    <path d="M 57.6 198.966857 
L 414.72 198.966857 
" style="fill:none;stroke:#000000;stroke-linecap:square;stroke-linejoin:miter;stroke-width:0.8;"/>
   </g>
   <g id="text_38">
    <!-- Light Curve -->
    <g transform="translate(206.000625 192.966857)scale(0.1 -0.1)">
     <use xlink:href="#DejaVuSerif-76"/>
     <use x="66.40625" xlink:href="#DejaVuSerif-105"/>
     <use x="98.388672" xlink:href="#DejaVuSerif-103"/>
     <use x="162.402344" xlink:href="#DejaVuSerif-104"/>
     <use x="226.806641" xlink:href="#DejaVuSerif-116"/>
     <use x="266.992188" xlink:href="#DejaVuSerif-32"/>
     <use x="298.779297" xlink:href="#DejaVuSerif-67"/>
     <use x="375.292969" xlink:href="#DejaVuSerif-117"/>
     <use x="439.697266" xlink:href="#DejaVuSerif-114"/>
     <use x="487.5" xlink:href="#DejaVuSerif-118"/>
     <use x="543.994141" xlink:href="#DejaVuSerif-101"/>
    </g>
   </g>
  </g>
 </g>
 <defs>
  <clipPath id="p7e06dba720">
   <rect height="108.617143" width="148.8" x="265.92" y="41.472"/>
  </clipPath>
  <clipPath id="pc40344a639">
   <rect height="108.617143" width="148.8" x="57.6" y="41.472"/>
  </clipPath>
  <clipPath id="p427ede0280">
   <rect height="108.617143" width="357.12" x="57.6" y="198.966857"/>
  </clipPath>
 </defs>
</svg>
