<?xml version="1.0" encoding="utf-8" standalone="no"?>
<!DOCTYPE svg PUBLIC "-//W3C//DTD SVG 1.1//EN"
  "http://www.w3.org/Graphics/SVG/1.1/DTD/svg11.dtd">
<!-- Created with matplotlib (https://matplotlib.org/) -->
<svg height="345.6pt" version="1.1" viewBox="0 0 460.8 345.6" width="460.8pt" xmlns="http://www.w3.org/2000/svg" xmlns:xlink="http://www.w3.org/1999/xlink">
 <metadata>
  <rdf:RDF xmlns:cc="http://creativecommons.org/ns#" xmlns:dc="http://purl.org/dc/elements/1.1/" xmlns:rdf="http://www.w3.org/1999/02/22-rdf-syntax-ns#">
   <cc:Work>
    <dc:type rdf:resource="http://purl.org/dc/dcmitype/StillImage"/>
    <dc:date>2021-02-24T00:30:51.193435</dc:date>
    <dc:format>image/svg+xml</dc:format>
    <dc:creator>
     <cc:Agent>
      <dc:title>Matplotlib v3.3.3, https://matplotlib.org/</dc:title>
     </cc:Agent>
    </dc:creator>
   </cc:Work>
  </rdf:RDF>
 </metadata>
 <defs>
  <style type="text/css">*{stroke-linecap:butt;stroke-linejoin:round;}</style>
 </defs>
 <g id="figure_1">
  <g id="patch_1">
   <path d="M 0 345.6 
L 460.8 345.6 
L 460.8 0 
L 0 0 
z
" style="fill:#ffffff;"/>
  </g>
  <g id="axes_1">
   <g id="patch_2">
    <path d="M 265.92 150.089143 
L 414.72 150.089143 
L 414.72 41.472 
L 265.92 41.472 
z
" style="fill:#ffffff;"/>
   </g>
   <g id="matplotlib.axis_1">
    <g id="xtick_1">
     <g id="line2d_1">
      <defs>
       <path d="M 0 0 
L 0 3.5 
" id="m02c1c02843" style="stroke:#000000;stroke-width:0.8;"/>
      </defs>
      <g>
       <use style="stroke:#000000;stroke-width:0.8;" x="326.985138" xlink:href="#m02c1c02843" y="150.089143"/>
      </g>
     </g>
     <g id="text_1">
      <!-- $\mathdefault{10^{1}}$ -->
      <g transform="translate(318.185138 164.68758)scale(0.1 -0.1)">
       <defs>
        <path d="M 14.203125 0 
L 14.203125 5.171875 
L 26.90625 5.171875 
L 26.90625 65.828125 
L 12.203125 56.296875 
L 12.203125 62.703125 
L 29.984375 74.21875 
L 36.71875 74.21875 
L 36.71875 5.171875 
L 49.421875 5.171875 
L 49.421875 0 
z
" id="DejaVuSerif-49"/>
        <path d="M 31.78125 3.421875 
Q 39.265625 3.421875 42.96875 11.625 
Q 46.6875 19.828125 46.6875 36.375 
Q 46.6875 52.984375 42.96875 61.1875 
Q 39.265625 69.390625 31.78125 69.390625 
Q 24.3125 69.390625 20.59375 61.1875 
Q 16.890625 52.984375 16.890625 36.375 
Q 16.890625 19.828125 20.59375 11.625 
Q 24.3125 3.421875 31.78125 3.421875 
z
M 31.78125 -1.421875 
Q 19.921875 -1.421875 13.25 8.53125 
Q 6.59375 18.5 6.59375 36.375 
Q 6.59375 54.296875 13.25 64.25 
Q 19.921875 74.21875 31.78125 74.21875 
Q 43.703125 74.21875 50.34375 64.25 
Q 56.984375 54.296875 56.984375 36.375 
Q 56.984375 18.5 50.34375 8.53125 
Q 43.703125 -1.421875 31.78125 -1.421875 
z
" id="DejaVuSerif-48"/>
       </defs>
       <use transform="translate(0 0.7125)" xlink:href="#DejaVuSerif-49"/>
       <use transform="translate(63.623047 0.7125)" xlink:href="#DejaVuSerif-48"/>
       <use transform="translate(128.154453 37.046875)scale(0.7)" xlink:href="#DejaVuSerif-49"/>
      </g>
     </g>
    </g>
    <g id="xtick_2">
     <g id="line2d_2">
      <g>
       <use style="stroke:#000000;stroke-width:0.8;" x="400.12039" xlink:href="#m02c1c02843" y="150.089143"/>
      </g>
     </g>
     <g id="text_2">
      <!-- $\mathdefault{10^{2}}$ -->
      <g transform="translate(391.32039 164.68758)scale(0.1 -0.1)">
       <defs>
        <path d="M 12.796875 55.515625 
L 7.328125 55.515625 
L 7.328125 68.5 
Q 12.546875 71.296875 17.84375 72.75 
Q 23.140625 74.21875 28.21875 74.21875 
Q 39.59375 74.21875 46.1875 68.703125 
Q 52.78125 63.1875 52.78125 53.71875 
Q 52.78125 43.015625 37.84375 28.125 
Q 36.671875 27 36.078125 26.421875 
L 17.671875 8.015625 
L 48.09375 8.015625 
L 48.09375 17 
L 53.8125 17 
L 53.8125 0 
L 6.78125 0 
L 6.78125 5.328125 
L 28.90625 27.390625 
Q 36.234375 34.71875 39.359375 40.84375 
Q 42.484375 46.96875 42.484375 53.71875 
Q 42.484375 61.078125 38.640625 65.234375 
Q 34.8125 69.390625 28.078125 69.390625 
Q 21.09375 69.390625 17.28125 65.921875 
Q 13.484375 62.453125 12.796875 55.515625 
z
" id="DejaVuSerif-50"/>
       </defs>
       <use transform="translate(0 0.7125)" xlink:href="#DejaVuSerif-49"/>
       <use transform="translate(63.623047 0.7125)" xlink:href="#DejaVuSerif-48"/>
       <use transform="translate(128.154453 37.046875)scale(0.7)" xlink:href="#DejaVuSerif-50"/>
      </g>
     </g>
    </g>
    <g id="xtick_3">
     <g id="line2d_3">
      <defs>
       <path d="M 0 0 
L 0 2 
" id="mf8aaee9b63" style="stroke:#000000;stroke-width:0.6;"/>
      </defs>
      <g>
       <use style="stroke:#000000;stroke-width:0.6;" x="275.86579" xlink:href="#mf8aaee9b63" y="150.089143"/>
      </g>
     </g>
    </g>
    <g id="xtick_4">
     <g id="line2d_4">
      <g>
       <use style="stroke:#000000;stroke-width:0.6;" x="288.744269" xlink:href="#mf8aaee9b63" y="150.089143"/>
      </g>
     </g>
    </g>
    <g id="xtick_5">
     <g id="line2d_5">
      <g>
       <use style="stroke:#000000;stroke-width:0.6;" x="297.881695" xlink:href="#mf8aaee9b63" y="150.089143"/>
      </g>
     </g>
    </g>
    <g id="xtick_6">
     <g id="line2d_6">
      <g>
       <use style="stroke:#000000;stroke-width:0.6;" x="304.969233" xlink:href="#mf8aaee9b63" y="150.089143"/>
      </g>
     </g>
    </g>
    <g id="xtick_7">
     <g id="line2d_7">
      <g>
       <use style="stroke:#000000;stroke-width:0.6;" x="310.760174" xlink:href="#mf8aaee9b63" y="150.089143"/>
      </g>
     </g>
    </g>
    <g id="xtick_8">
     <g id="line2d_8">
      <g>
       <use style="stroke:#000000;stroke-width:0.6;" x="315.656344" xlink:href="#mf8aaee9b63" y="150.089143"/>
      </g>
     </g>
    </g>
    <g id="xtick_9">
     <g id="line2d_9">
      <g>
       <use style="stroke:#000000;stroke-width:0.6;" x="319.8976" xlink:href="#mf8aaee9b63" y="150.089143"/>
      </g>
     </g>
    </g>
    <g id="xtick_10">
     <g id="line2d_10">
      <g>
       <use style="stroke:#000000;stroke-width:0.6;" x="323.638652" xlink:href="#mf8aaee9b63" y="150.089143"/>
      </g>
     </g>
    </g>
    <g id="xtick_11">
     <g id="line2d_11">
      <g>
       <use style="stroke:#000000;stroke-width:0.6;" x="349.001043" xlink:href="#mf8aaee9b63" y="150.089143"/>
      </g>
     </g>
    </g>
    <g id="xtick_12">
     <g id="line2d_12">
      <g>
       <use style="stroke:#000000;stroke-width:0.6;" x="361.879521" xlink:href="#mf8aaee9b63" y="150.089143"/>
      </g>
     </g>
    </g>
    <g id="xtick_13">
     <g id="line2d_13">
      <g>
       <use style="stroke:#000000;stroke-width:0.6;" x="371.016947" xlink:href="#mf8aaee9b63" y="150.089143"/>
      </g>
     </g>
    </g>
    <g id="xtick_14">
     <g id="line2d_14">
      <g>
       <use style="stroke:#000000;stroke-width:0.6;" x="378.104486" xlink:href="#mf8aaee9b63" y="150.089143"/>
      </g>
     </g>
    </g>
    <g id="xtick_15">
     <g id="line2d_15">
      <g>
       <use style="stroke:#000000;stroke-width:0.6;" x="383.895426" xlink:href="#mf8aaee9b63" y="150.089143"/>
      </g>
     </g>
    </g>
    <g id="xtick_16">
     <g id="line2d_16">
      <g>
       <use style="stroke:#000000;stroke-width:0.6;" x="388.791597" xlink:href="#mf8aaee9b63" y="150.089143"/>
      </g>
     </g>
    </g>
    <g id="xtick_17">
     <g id="line2d_17">
      <g>
       <use style="stroke:#000000;stroke-width:0.6;" x="393.032852" xlink:href="#mf8aaee9b63" y="150.089143"/>
      </g>
     </g>
    </g>
    <g id="xtick_18">
     <g id="line2d_18">
      <g>
       <use style="stroke:#000000;stroke-width:0.6;" x="396.773905" xlink:href="#mf8aaee9b63" y="150.089143"/>
      </g>
     </g>
    </g>
    <g id="text_3">
     <!-- Period d -->
     <g transform="translate(319.231719 178.365705)scale(0.1 -0.1)">
      <defs>
       <path d="M 24.703125 37.109375 
L 37.59375 37.109375 
Q 44.875 37.109375 48.671875 41.03125 
Q 52.484375 44.96875 52.484375 52.390625 
Q 52.484375 59.859375 48.671875 63.765625 
Q 44.875 67.671875 37.59375 67.671875 
L 24.703125 67.671875 
z
M 5.515625 0 
L 5.515625 5.171875 
L 14.796875 5.171875 
L 14.796875 67.671875 
L 5.515625 67.671875 
L 5.515625 72.90625 
L 39.984375 72.90625 
Q 50.921875 72.90625 57.3125 67.359375 
Q 63.71875 61.8125 63.71875 52.390625 
Q 63.71875 43.015625 57.3125 37.453125 
Q 50.921875 31.890625 39.984375 31.890625 
L 24.703125 31.890625 
L 24.703125 5.171875 
L 35.984375 5.171875 
L 35.984375 0 
z
" id="DejaVuSerif-80"/>
       <path d="M 54.203125 25 
L 15.484375 25 
L 15.484375 24.609375 
Q 15.484375 14.109375 19.4375 8.765625 
Q 23.390625 3.421875 31.109375 3.421875 
Q 37.015625 3.421875 40.796875 6.515625 
Q 44.578125 9.625 46.09375 15.71875 
L 53.328125 15.71875 
Q 51.171875 7.171875 45.375 2.875 
Q 39.59375 -1.421875 30.171875 -1.421875 
Q 18.796875 -1.421875 11.890625 6.078125 
Q 4.984375 13.578125 4.984375 25.984375 
Q 4.984375 38.28125 11.765625 45.796875 
Q 18.5625 53.328125 29.59375 53.328125 
Q 41.359375 53.328125 47.65625 46.0625 
Q 53.953125 38.8125 54.203125 25 
z
M 43.609375 30.171875 
Q 43.3125 39.265625 39.765625 43.875 
Q 36.234375 48.484375 29.59375 48.484375 
Q 23.390625 48.484375 19.828125 43.84375 
Q 16.265625 39.203125 15.484375 30.171875 
z
" id="DejaVuSerif-101"/>
       <path d="M 47.796875 52 
L 47.796875 39.015625 
L 42.625 39.015625 
Q 42.390625 42.875 40.484375 44.78125 
Q 38.578125 46.6875 34.90625 46.6875 
Q 28.265625 46.6875 24.71875 42.09375 
Q 21.1875 37.5 21.1875 28.90625 
L 21.1875 5.171875 
L 31.59375 5.171875 
L 31.59375 0 
L 4.109375 0 
L 4.109375 5.171875 
L 12.203125 5.171875 
L 12.203125 46.78125 
L 3.609375 46.78125 
L 3.609375 51.90625 
L 21.1875 51.90625 
L 21.1875 42.671875 
Q 23.828125 48.09375 27.96875 50.703125 
Q 32.125 53.328125 38.09375 53.328125 
Q 40.28125 53.328125 42.703125 52.984375 
Q 45.125 52.640625 47.796875 52 
z
" id="DejaVuSerif-114"/>
       <path d="M 9.71875 68.015625 
Q 9.71875 70.265625 11.34375 71.921875 
Q 12.984375 73.578125 15.28125 73.578125 
Q 17.53125 73.578125 19.15625 71.921875 
Q 20.796875 70.265625 20.796875 68.015625 
Q 20.796875 65.71875 19.1875 64.109375 
Q 17.578125 62.5 15.28125 62.5 
Q 12.984375 62.5 11.34375 64.109375 
Q 9.71875 65.71875 9.71875 68.015625 
z
M 21.1875 5.171875 
L 29.6875 5.171875 
L 29.6875 0 
L 3.609375 0 
L 3.609375 5.171875 
L 12.203125 5.171875 
L 12.203125 46.6875 
L 3.609375 46.6875 
L 3.609375 51.90625 
L 21.1875 51.90625 
z
" id="DejaVuSerif-105"/>
       <path d="M 30.078125 3.421875 
Q 37.3125 3.421875 40.984375 9.125 
Q 44.671875 14.84375 44.671875 25.984375 
Q 44.671875 37.109375 40.984375 42.796875 
Q 37.3125 48.484375 30.078125 48.484375 
Q 22.859375 48.484375 19.171875 42.796875 
Q 15.484375 37.109375 15.484375 25.984375 
Q 15.484375 14.84375 19.1875 9.125 
Q 22.90625 3.421875 30.078125 3.421875 
z
M 30.078125 -1.421875 
Q 18.75 -1.421875 11.859375 6.078125 
Q 4.984375 13.578125 4.984375 25.984375 
Q 4.984375 38.375 11.84375 45.84375 
Q 18.703125 53.328125 30.078125 53.328125 
Q 41.453125 53.328125 48.3125 45.84375 
Q 55.171875 38.375 55.171875 25.984375 
Q 55.171875 13.578125 48.3125 6.078125 
Q 41.453125 -1.421875 30.078125 -1.421875 
z
" id="DejaVuSerif-111"/>
       <path d="M 52.484375 5.171875 
L 61.078125 5.171875 
L 61.078125 0 
L 43.5 0 
L 43.5 8.109375 
Q 40.875 3.21875 36.796875 0.890625 
Q 32.71875 -1.421875 26.703125 -1.421875 
Q 17.140625 -1.421875 11.0625 6.171875 
Q 4.984375 13.765625 4.984375 25.984375 
Q 4.984375 38.1875 11.03125 45.75 
Q 17.09375 53.328125 26.703125 53.328125 
Q 32.71875 53.328125 36.796875 51 
Q 40.875 48.6875 43.5 43.796875 
L 43.5 70.796875 
L 35.015625 70.796875 
L 35.015625 75.984375 
L 52.484375 75.984375 
z
M 43.5 23.390625 
L 43.5 28.515625 
Q 43.5 37.84375 39.90625 42.765625 
Q 36.328125 47.703125 29.5 47.703125 
Q 22.5625 47.703125 19.015625 42.234375 
Q 15.484375 36.765625 15.484375 25.984375 
Q 15.484375 15.234375 19.015625 9.71875 
Q 22.5625 4.203125 29.5 4.203125 
Q 36.328125 4.203125 39.90625 9.109375 
Q 43.5 14.015625 43.5 23.390625 
z
" id="DejaVuSerif-100"/>
       <path id="DejaVuSerif-32"/>
      </defs>
      <use xlink:href="#DejaVuSerif-80"/>
      <use x="62.785156" xlink:href="#DejaVuSerif-101"/>
      <use x="121.964844" xlink:href="#DejaVuSerif-114"/>
      <use x="169.767578" xlink:href="#DejaVuSerif-105"/>
      <use x="201.75" xlink:href="#DejaVuSerif-111"/>
      <use x="261.955078" xlink:href="#DejaVuSerif-100"/>
      <use x="325.96875" xlink:href="#DejaVuSerif-32"/>
      <use x="357.755859" xlink:href="#DejaVuSerif-100"/>
     </g>
    </g>
   </g>
   <g id="matplotlib.axis_2">
    <g id="ytick_1">
     <g id="line2d_19">
      <defs>
       <path d="M 0 0 
L -3.5 0 
" id="me4aa91b8e0" style="stroke:#000000;stroke-width:0.8;"/>
      </defs>
      <g>
       <use style="stroke:#000000;stroke-width:0.8;" x="265.92" xlink:href="#me4aa91b8e0" y="145.15543"/>
      </g>
     </g>
     <g id="text_4">
      <!-- 0.0 -->
      <g transform="translate(243.016875 148.954648)scale(0.1 -0.1)">
       <defs>
        <path d="M 9.421875 5.078125 
Q 9.421875 7.8125 11.28125 9.71875 
Q 13.140625 11.625 15.921875 11.625 
Q 18.609375 11.625 20.5 9.71875 
Q 22.40625 7.8125 22.40625 5.078125 
Q 22.40625 2.390625 20.5 0.484375 
Q 18.609375 -1.421875 15.921875 -1.421875 
Q 13.140625 -1.421875 11.28125 0.453125 
Q 9.421875 2.34375 9.421875 5.078125 
z
" id="DejaVuSerif-46"/>
       </defs>
       <use xlink:href="#DejaVuSerif-48"/>
       <use x="63.623047" xlink:href="#DejaVuSerif-46"/>
       <use x="95.410156" xlink:href="#DejaVuSerif-48"/>
      </g>
     </g>
    </g>
    <g id="ytick_2">
     <g id="line2d_20">
      <g>
       <use style="stroke:#000000;stroke-width:0.8;" x="265.92" xlink:href="#me4aa91b8e0" y="102.854351"/>
      </g>
     </g>
     <g id="text_5">
      <!-- 0.2 -->
      <g transform="translate(243.016875 106.653569)scale(0.1 -0.1)">
       <use xlink:href="#DejaVuSerif-48"/>
       <use x="63.623047" xlink:href="#DejaVuSerif-46"/>
       <use x="95.410156" xlink:href="#DejaVuSerif-50"/>
      </g>
     </g>
    </g>
    <g id="ytick_3">
     <g id="line2d_21">
      <g>
       <use style="stroke:#000000;stroke-width:0.8;" x="265.92" xlink:href="#me4aa91b8e0" y="60.553272"/>
      </g>
     </g>
     <g id="text_6">
      <!-- 0.4 -->
      <g transform="translate(243.016875 64.352491)scale(0.1 -0.1)">
       <defs>
        <path d="M 34.90625 24.703125 
L 34.90625 63.484375 
L 10.015625 24.703125 
z
M 56.390625 0 
L 23.1875 0 
L 23.1875 5.171875 
L 34.90625 5.171875 
L 34.90625 19.484375 
L 3.078125 19.484375 
L 3.078125 24.8125 
L 35.015625 74.21875 
L 44.671875 74.21875 
L 44.671875 24.703125 
L 58.59375 24.703125 
L 58.59375 19.484375 
L 44.671875 19.484375 
L 44.671875 5.171875 
L 56.390625 5.171875 
z
" id="DejaVuSerif-52"/>
       </defs>
       <use xlink:href="#DejaVuSerif-48"/>
       <use x="63.623047" xlink:href="#DejaVuSerif-46"/>
       <use x="95.410156" xlink:href="#DejaVuSerif-52"/>
      </g>
     </g>
    </g>
    <g id="text_7">
     <!-- Power -->
     <g transform="translate(236.937188 111.583696)rotate(-90)scale(0.1 -0.1)">
      <defs>
       <path d="M 48 51.90625 
L 61.28125 11.375 
L 73 46.6875 
L 65.484375 46.6875 
L 65.484375 51.90625 
L 84.28125 51.90625 
L 84.28125 46.6875 
L 78.515625 46.6875 
L 63.09375 0 
L 55.609375 0 
L 42.828125 38.8125 
L 29.984375 0 
L 22.796875 0 
L 7.421875 46.6875 
L 1.609375 46.6875 
L 1.609375 51.90625 
L 25.09375 51.90625 
L 25.09375 46.6875 
L 16.703125 46.6875 
L 28.328125 11.375 
L 41.703125 51.90625 
z
" id="DejaVuSerif-119"/>
      </defs>
      <use xlink:href="#DejaVuSerif-80"/>
      <use x="63.285156" xlink:href="#DejaVuSerif-111"/>
      <use x="123.490234" xlink:href="#DejaVuSerif-119"/>
      <use x="209.085938" xlink:href="#DejaVuSerif-101"/>
      <use x="268.265625" xlink:href="#DejaVuSerif-114"/>
     </g>
    </g>
   </g>
   <g id="LineCollection_1">
    <path clip-path="url(#p037cf3bedf)" d="M 272.695273 46.409143 
L 407.956364 46.409143 
" style="fill:none;stroke:#808080;stroke-dasharray:5.55,2.4;stroke-dashoffset:0;stroke-width:1.5;"/>
   </g>
   <g id="LineCollection_2">
    <path clip-path="url(#p037cf3bedf)" d="M 272.695273 60.307001 
L 407.956364 60.307001 
" style="fill:none;stroke:#a9a9a9;stroke-dasharray:5.55,2.4;stroke-dashoffset:0;stroke-width:1.5;"/>
   </g>
   <g id="LineCollection_3">
    <path clip-path="url(#p037cf3bedf)" d="M 272.695273 71.249643 
L 407.956364 71.249643 
" style="fill:none;stroke:#c0c0c0;stroke-dasharray:5.55,2.4;stroke-dashoffset:0;stroke-width:1.5;"/>
   </g>
   <g id="LineCollection_4">
    <path clip-path="url(#p037cf3bedf)" d="M 272.695273 76.418412 
L 407.956364 76.418412 
" style="fill:none;stroke:#d3d3d3;stroke-dasharray:5.55,2.4;stroke-dashoffset:0;stroke-width:1.5;"/>
   </g>
   <g id="line2d_22">
    <path clip-path="url(#p037cf3bedf)" d="M 407.956364 95.593716 
L 405.906476 90.339497 
L 403.980902 96.775355 
L 402.165423 121.016826 
L 400.448127 119.05602 
L 398.818938 95.893918 
L 397.269253 82.908854 
L 395.791673 81.299175 
L 394.379786 91.796402 
L 393.027997 118.098433 
L 391.731399 120.75376 
L 390.485662 99.56843 
L 389.286945 83.715696 
L 388.131827 77.614307 
L 387.017248 84.577697 
L 385.940459 125.486405 
L 384.898981 137.227873 
L 383.890571 121.263381 
L 382.913194 107.867261 
L 381.964998 105.804744 
L 381.044289 114.510614 
L 380.149518 140.511326 
L 379.279266 144.913721 
L 377.607183 139.281231 
L 376.803033 139.61998 
L 376.01874 141.878549 
L 375.253348 142.215103 
L 374.505967 140.821165 
L 373.775768 141.895859 
L 373.06198 144.949156 
L 372.363881 143.795161 
L 371.680796 139.097019 
L 371.012092 132.093702 
L 370.357178 133.802468 
L 369.086519 144.692187 
L 368.469757 143.862216 
L 367.864744 137.192566 
L 367.27104 125.994988 
L 366.68823 124.324936 
L 365.001343 143.741066 
L 364.458386 143.60356 
L 363.399547 116.85447 
L 362.883076 118.376351 
L 362.374869 125.801977 
L 361.874666 136.986631 
L 361.382219 145.085654 
L 360.89729 133.226974 
L 360.419653 113.965326 
L 359.949093 107.746484 
L 359.485402 114.025209 
L 359.028384 130.204942 
L 358.577848 140.680008 
L 357.695507 95.297137 
L 357.263361 94.707929 
L 356.837016 102.927986 
L 356.001119 138.29772 
L 355.186658 101.464759 
L 354.787128 98.857391 
L 354.392561 106.709238 
L 353.617834 138.841248 
L 353.237443 123.787311 
L 352.861555 96.239922 
L 352.490062 89.778956 
L 352.122865 100.514074 
L 351.400965 139.756622 
L 351.046076 114.820388 
L 350.695108 74.958086 
L 350.347976 72.633729 
L 350.004597 84.761085 
L 349.32878 137.550924 
L 348.996188 135.303741 
L 348.667042 106.784423 
L 348.341273 95.427776 
L 348.018811 101.927349 
L 347.383545 139.284487 
L 347.070614 145.086885 
L 346.453852 133.059358 
L 346.149905 133.053945 
L 345.848839 134.815956 
L 345.5506 137.427685 
L 345.255135 143.145139 
L 344.962394 144.732951 
L 344.384882 137.2617 
L 344.100017 135.751302 
L 343.817685 138.364784 
L 343.537839 143.897314 
L 343.260438 143.09683 
L 342.985439 135.041838 
L 342.7128 131.63629 
L 342.442481 132.932686 
L 341.908649 144.856894 
L 341.645061 140.83317 
L 341.383642 133.248692 
L 341.124357 131.31701 
L 340.867171 135.07369 
L 340.612052 142.450915 
L 340.358965 144.002957 
L 339.858762 133.401239 
L 339.611584 135.194993 
L 339.122924 145.03463 
L 338.641669 129.794283 
L 338.403748 129.704816 
L 337.933188 143.009986 
L 337.700497 141.805029 
L 337.469498 131.616557 
L 337.240166 127.565603 
L 336.561943 144.057021 
L 336.33905 134.96471 
L 336.117709 117.38377 
L 335.8979 112.178543 
L 335.462794 141.42913 
L 335.247456 143.895426 
L 335.033568 130.017265 
L 334.821111 102.754608 
L 334.610066 95.016855 
L 334.192135 138.202365 
L 333.985215 145.026717 
L 333.779633 133.934521 
L 333.575374 113.589139 
L 333.372419 111.623939 
L 332.771223 143.437801 
L 332.376656 128.163516 
L 332.181196 127.412663 
L 331.601929 141.846247 
L 331.033038 133.489733 
L 330.290028 143.115726 
L 330.10696 137.826176 
L 329.924941 126.899414 
L 329.743959 124.355273 
L 329.20712 145.051824 
L 329.030171 132.305105 
L 328.854202 110.208633 
L 328.679203 104.768533 
L 328.505163 114.768677 
L 328.159918 143.173645 
L 327.648986 82.343691 
L 327.480486 90.45624 
L 327.146144 138.104561 
L 326.980283 129.278243 
L 326.651138 85.69559 
L 326.487835 96.528637 
L 326.163728 139.15548 
L 326.002906 140.339856 
L 325.683685 128.688398 
L 325.52527 130.576676 
L 325.054709 144.597698 
L 324.899393 142.955397 
L 324.591019 132.657807 
L 324.437948 132.060652 
L 324.28561 135.483482 
L 323.983111 143.911577 
L 323.534695 116.255875 
L 323.386619 117.747161 
L 322.946489 141.211075 
L 322.512374 109.497571 
L 322.084113 143.666602 
L 321.942633 136.429617 
L 321.80178 123.396247 
L 321.661549 123.336615 
L 321.244533 144.818874 
L 321.106736 143.251559 
L 320.832922 138.858531 
L 320.426576 134.754178 
L 320.158539 143.560167 
L 320.025364 140.79269 
L 319.760677 120.79666 
L 319.629156 121.414304 
L 319.367737 143.601203 
L 319.23783 138.639551 
L 318.979599 113.75591 
L 318.851267 117.835857 
L 318.596147 143.545983 
L 318.217269 118.593543 
L 317.967171 142.447295 
L 317.842857 140.369041 
L 317.595679 118.831812 
L 317.472807 122.152285 
L 317.228481 145.152 
L 316.86548 123.417045 
L 316.506581 144.683459 
L 316.269548 130.553051 
L 316.151692 132.807374 
L 315.917283 139.740964 
L 315.684592 136.145514 
L 315.453593 140.541558 
L 315.33872 138.918641 
L 315.110214 130.428019 
L 314.88334 139.335375 
L 314.770508 142.875141 
L 314.658075 139.394755 
L 314.546039 132.341661 
L 314.434396 132.341244 
L 314.101804 144.747679 
L 313.772659 135.901655 
L 313.44689 144.72738 
L 313.231552 139.177613 
L 313.017664 144.706693 
L 312.911257 143.900528 
L 312.699508 133.755535 
L 312.594161 135.996594 
L 312.384508 144.75466 
L 312.072602 125.723967 
L 311.763728 144.413656 
L 311.559469 128.110191 
L 311.45783 129.827674 
L 311.255522 142.262103 
L 311.054494 134.16382 
L 310.954456 135.795865 
L 310.755319 143.760092 
L 310.557423 131.331253 
L 310.458935 131.405787 
L 310.262871 144.980665 
L 309.971026 128.244087 
L 309.681838 143.724458 
L 309.490499 123.045688 
L 309.39526 125.160549 
L 309.111244 138.987195 
L 308.923301 132.182292 
L 308.829745 135.488252 
L 308.458253 122.96727 
L 308.274123 142.654968 
L 308.182457 140.227496 
L 307.999915 114.758016 
L 307.909036 119.459497 
L 307.637949 143.454149 
L 307.4585 124.731312 
L 307.369155 126.904649 
L 307.191215 144.056204 
L 307.102617 142.455506 
L 306.92616 128.285868 
L 306.838298 128.796993 
L 306.663299 144.935173 
L 306.576159 141.491759 
L 306.402595 126.465491 
L 306.316167 129.587 
L 306.144013 144.058648 
L 305.88752 136.341296 
L 305.717668 141.645161 
L 305.54872 136.17278 
L 305.29697 144.132233 
L 305.130239 136.274984 
L 305.0472 137.938813 
L 304.881772 144.896034 
L 304.7172 135.800959 
L 304.635233 136.006996 
L 304.471931 144.530143 
L 304.228541 133.534375 
L 304.147823 134.944631 
L 303.987002 143.540805 
L 303.82699 139.353971 
L 303.747285 139.648264 
L 303.66778 138.348307 
L 303.430453 126.009631 
L 303.273213 144.312524 
L 303.194885 141.128348 
L 302.961051 110.879861 
L 302.806113 143.816454 
L 302.728927 141.417404 
L 302.575114 114.589752 
L 302.498486 119.668791 
L 302.345783 144.191483 
L 302.269706 141.445396 
L 302.118096 125.944568 
L 302.042561 126.451342 
L 301.892029 143.97783 
L 301.81703 142.43477 
L 301.66756 128.123367 
L 301.593088 128.327871 
L 301.51879 137.913928 
L 301.444666 136.946081 
L 301.296935 131.124814 
L 301.223326 132.957319 
L 301.076618 141.711231 
L 300.857818 115.148819 
L 300.640516 144.79288 
L 300.568411 137.807909 
L 300.42469 120.330021 
L 300.210321 144.415809 
L 300.139185 142.820623 
L 299.997389 135.479459 
L 299.715682 144.961235 
L 299.645644 143.913838 
L 299.436452 128.757442 
L 299.297752 143.700309 
L 299.228629 141.687125 
L 299.022156 121.371936 
L 298.88525 143.300499 
L 298.817017 140.750299 
L 298.68099 121.876847 
L 298.613195 124.243154 
L 298.478036 144.703153 
L 298.27637 122.142484 
L 298.209432 129.131926 
L 298.075977 142.120268 
L 297.94308 128.831723 
L 297.87684 129.972055 
L 297.744772 144.053824 
L 297.678944 141.323615 
L 297.547695 129.921838 
L 297.482273 132.151329 
L 297.351832 144.727019 
L 297.157171 127.444126 
L 297.092547 130.450659 
L 296.963694 142.885372 
L 296.77139 126.934955 
L 296.707546 128.387721 
L 296.580242 140.840605 
L 296.516781 138.890259 
L 296.327155 128.853108 
L 296.201364 140.587373 
L 296.138655 138.829288 
L 296.076069 138.486987 
L 295.951266 133.177653 
L 295.764977 144.099974 
L 295.703123 140.981166 
L 295.579774 123.742169 
L 295.518279 125.398699 
L 295.395645 144.668151 
L 295.334505 138.918178 
L 295.212576 105.448583 
L 295.151788 109.814071 
L 295.030557 143.916079 
L 294.970115 140.786355 
L 294.849576 110.80943 
L 294.789477 114.304308 
L 294.669619 144.057857 
L 294.609859 142.060681 
L 294.490676 125.144817 
L 294.431252 131.929728 
L 294.371939 142.009091 
L 294.312736 141.635051 
L 294.194661 138.311858 
L 294.077023 144.936703 
L 294.018367 143.396954 
L 293.901379 135.833144 
L 293.843046 137.051552 
L 293.7267 142.812101 
L 293.552978 132.362398 
L 293.3802 144.09208 
L 293.208357 132.071411 
L 293.151282 133.354961 
L 292.98067 144.297348 
L 292.810969 129.539557 
L 292.64217 145.107394 
L 292.586103 142.272351 
L 292.474264 129.988701 
L 292.30724 145.056862 
L 292.25176 142.04683 
L 292.14109 132.979388 
L 292.0859 134.260569 
L 291.975805 144.920446 
L 291.920901 141.198571 
L 291.811376 122.475403 
L 291.756754 124.760516 
L 291.647793 145.058919 
L 291.593452 139.008654 
L 291.485048 108.330435 
L 291.430985 116.237303 
L 291.323133 145.078589 
L 291.269345 137.198751 
L 291.16204 110.287487 
L 291.108523 118.240962 
L 291.001759 144.315759 
L 290.948511 141.068253 
L 290.842283 125.572498 
L 290.630886 141.546163 
L 290.578256 140.028043 
L 290.525713 141.264352 
L 290.473257 142.49583 
L 290.316406 139.657133 
L 290.212268 143.473528 
L 290.108469 139.899162 
L 290.056697 140.276526 
L 290.005009 142.141618 
L 289.953405 141.720574 
L 289.850448 136.261322 
L 289.799094 137.873138 
L 289.696636 143.984971 
L 289.594506 130.862292 
L 289.543564 130.966732 
L 289.391227 144.280849 
L 289.239617 127.915015 
L 289.088727 142.615088 
L 289.03859 139.034157 
L 288.938551 133.02777 
L 288.88865 135.181772 
L 288.789081 141.191287 
L 288.689824 134.83926 
L 288.640312 136.487865 
L 288.541518 144.643406 
L 288.492236 143.762357 
L 288.393901 137.11747 
L 288.344847 139.159201 
L 288.246966 143.847871 
L 288.149386 136.940488 
L 288.100709 138.666922 
L 288.003576 143.510997 
L 287.955121 141.283534 
L 287.858433 134.531739 
L 287.713949 144.40365 
L 287.665934 141.48492 
L 287.57012 134.935363 
L 287.522321 138.170231 
L 287.379355 144.644176 
L 287.23703 129.921797 
L 287.189729 130.352768 
L 287.095339 143.951892 
L 287.048249 137.765116 
L 286.954278 99.744575 
L 286.907396 103.942942 
L 286.81384 140.646209 
L 286.767166 139.297683 
L 286.627551 103.486166 
L 286.488548 142.395454 
L 286.396216 109.107947 
L 286.35015 110.204441 
L 286.212353 144.795147 
L 286.166553 137.796263 
L 286.07515 125.86313 
L 286.029548 131.702167 
L 285.938538 144.765623 
L 285.893131 144.504981 
L 285.802512 137.956028 
L 285.757298 139.3182 
L 285.667065 144.873506 
L 285.622044 144.687842 
L 285.487363 140.694206 
L 285.397892 144.359386 
L 285.35325 144.128644 
L 285.17531 140.372497 
L 284.998361 144.373686 
L 284.822393 142.428195 
L 284.647394 144.94029 
L 284.516774 140.927675 
L 284.473354 141.700382 
L 284.429992 142.490192 
L 284.343447 133.812068 
L 284.257136 124.477211 
L 284.17106 140.857742 
L 284.128109 136.367354 
L 284.042381 112.440479 
L 283.999603 116.680057 
L 283.914221 141.455391 
L 283.871615 136.78446 
L 283.786576 111.76728 
L 283.744141 117.539818 
L 283.659442 143.551626 
L 283.617177 141.969764 
L 283.532815 124.340145 
L 283.490718 130.536201 
L 283.406691 145.146472 
L 283.36476 141.422287 
L 283.322885 135.624067 
L 283.281065 135.712564 
L 283.19759 144.515111 
L 283.155935 144.359479 
L 283.031296 136.175755 
L 282.989858 138.203161 
L 282.907143 145.126288 
L 282.865867 142.414675 
L 282.783475 126.762953 
L 282.742358 129.768434 
L 282.619328 144.830073 
L 282.496773 123.673201 
L 282.456026 127.265829 
L 282.374689 144.509395 
L 282.334098 141.661291 
L 282.253072 120.654971 
L 282.212636 122.347094 
L 282.091637 143.237616 
L 282.051406 138.309517 
L 281.971097 131.159535 
L 281.931018 135.688068 
L 281.851013 141.328047 
L 281.811085 138.236512 
L 281.771208 135.440476 
L 281.731381 137.33293 
L 281.691603 138.57875 
L 281.651876 138.046073 
L 281.572569 130.14035 
L 281.53299 132.055829 
L 281.45398 138.700365 
L 281.414548 136.342 
L 281.335831 130.536748 
L 281.296546 134.443062 
L 281.21812 142.931229 
L 281.17898 141.219839 
L 281.139888 138.297138 
L 281.100844 139.153621 
L 281.0229 144.601557 
L 280.945147 142.936315 
L 280.906341 142.645483 
L 280.828872 144.353088 
L 280.790209 143.558397 
L 280.751592 142.495265 
L 280.713022 142.747372 
L 280.674499 144.407747 
L 280.636023 144.184654 
L 280.520872 139.316849 
L 280.482582 141.732234 
L 280.444337 144.714357 
L 280.367985 142.828268 
L 280.215831 135.753361 
L 280.177906 137.268715 
L 280.102191 145.011613 
L 280.064401 142.682158 
L 279.951301 115.420374 
L 279.913691 120.723191 
L 279.838602 141.167899 
L 279.801125 137.622369 
L 279.726302 118.652244 
L 279.688957 121.017474 
L 279.577183 140.787891 
L 279.540013 136.275394 
L 279.502886 132.4448 
L 279.465802 133.801809 
L 279.391764 143.456071 
L 279.35481 142.698645 
L 279.28103 136.88009 
L 279.244204 140.248165 
L 279.17068 144.627803 
L 279.133982 141.688884 
L 279.097326 140.079638 
L 279.060713 142.928487 
L 279.024141 145.131098 
L 278.987612 143.269217 
L 278.878276 123.069943 
L 278.841914 132.522115 
L 278.769314 139.75858 
L 278.69688 122.407309 
L 278.624611 129.081888 
L 278.552506 139.45741 
L 278.480565 135.806661 
L 278.408785 138.20699 
L 278.265712 144.688752 
L 278.194416 144.513664 
L 278.12328 144.968709 
L 278.087772 144.526889 
L 278.016874 142.921854 
L 277.981484 143.016016 
L 277.910823 144.661731 
L 277.805125 139.373215 
L 277.76997 140.669212 
L 277.699778 144.39446 
L 277.664739 143.390835 
L 277.594778 140.464368 
L 277.559856 142.971881 
L 277.524971 143.372873 
L 277.420547 136.994891 
L 277.385815 137.772903 
L 277.351122 141.098537 
L 277.316466 137.594994 
L 277.281847 133.820896 
L 277.212724 134.04429 
L 277.14375 143.082514 
L 277.10932 140.17274 
L 277.006251 131.835564 
L 276.971969 136.904793 
L 276.937724 144.009609 
L 276.903516 139.328961 
L 276.801112 123.336255 
L 276.767051 131.04065 
L 276.733026 141.810661 
L 276.665086 133.862212 
L 276.59729 120.523333 
L 276.563446 130.489136 
L 276.495867 143.584326 
L 276.462131 140.960841 
L 276.428431 137.566245 
L 276.361138 141.769994 
L 276.293988 144.749333 
L 276.260466 143.079396 
L 276.226979 142.856826 
L 276.160111 145.009653 
L 276.093383 143.973397 
L 276.060072 144.004995 
L 276.026796 144.280527 
L 275.993554 143.86748 
L 275.894038 139.319656 
L 275.860935 141.53567 
L 275.827867 143.103166 
L 275.794833 142.773224 
L 275.761833 137.134894 
L 275.695936 141.331662 
L 275.597347 145.006888 
L 275.564551 144.025055 
L 275.53179 143.910048 
L 275.466368 145.105701 
L 275.433708 144.423816 
L 275.335928 139.288332 
L 275.303401 139.438751 
L 275.238448 143.719027 
L 275.206021 141.923281 
L 275.141266 134.619136 
L 275.108938 136.683023 
L 275.04438 142.731502 
L 275.012151 141.066157 
L 274.94779 129.850392 
L 274.915658 133.131979 
L 274.819457 143.16428 
L 274.787455 138.052726 
L 274.755485 135.304718 
L 274.691641 137.510041 
L 274.627926 143.590352 
L 274.596116 140.271844 
L 274.532591 135.427677 
L 274.500876 135.657371 
L 274.469193 139.745226 
L 274.437542 138.577846 
L 274.405922 132.308779 
L 274.311251 133.262783 
L 274.279756 139.679581 
L 274.21686 132.166125 
L 274.091442 144.916658 
L 274.060164 143.121116 
L 274.028918 141.44285 
L 273.966516 143.440339 
L 273.935362 145.148918 
L 273.904238 143.439227 
L 273.84208 140.845743 
L 273.811048 141.556607 
L 273.749072 144.945941 
L 273.687218 142.993738 
L 273.594662 144.790351 
L 273.533107 140.570291 
L 273.471671 142.36229 
L 273.410354 143.495005 
L 273.288074 134.203462 
L 273.257577 135.388893 
L 273.22711 138.809365 
L 273.166263 133.301066 
L 273.105532 125.962501 
L 273.07521 130.051514 
L 272.984417 139.58029 
L 272.954211 138.923342 
L 272.924033 136.434673 
L 272.893884 139.831958 
L 272.803607 145.11649 
L 272.743565 144.900174 
L 272.713587 144.861742 
L 272.683636 143.943951 
L 272.683636 143.943951 
" style="fill:none;stroke:#1f77b4;stroke-linecap:square;stroke-width:1.5;"/>
   </g>
   <g id="patch_3">
    <path d="M 265.92 150.089143 
L 265.92 41.472 
" style="fill:none;stroke:#000000;stroke-linecap:square;stroke-linejoin:miter;stroke-width:0.8;"/>
   </g>
   <g id="patch_4">
    <path d="M 414.72 150.089143 
L 414.72 41.472 
" style="fill:none;stroke:#000000;stroke-linecap:square;stroke-linejoin:miter;stroke-width:0.8;"/>
   </g>
   <g id="patch_5">
    <path d="M 265.92 150.089143 
L 414.72 150.089143 
" style="fill:none;stroke:#000000;stroke-linecap:square;stroke-linejoin:miter;stroke-width:0.8;"/>
   </g>
   <g id="patch_6">
    <path d="M 265.92 41.472 
L 414.72 41.472 
" style="fill:none;stroke:#000000;stroke-linecap:square;stroke-linejoin:miter;stroke-width:0.8;"/>
   </g>
   <g id="text_8">
    <!-- Periodogram -->
    <g transform="translate(307.698125 35.472)scale(0.1 -0.1)">
     <defs>
      <path d="M 52.484375 46.6875 
L 52.484375 1.125 
Q 52.484375 -10.0625 46.328125 -16.140625 
Q 40.1875 -22.21875 28.8125 -22.21875 
Q 23.6875 -22.21875 19 -21.28125 
Q 14.3125 -20.359375 10.015625 -18.5 
L 10.015625 -7.625 
L 14.703125 -7.625 
Q 15.578125 -12.703125 18.84375 -15.046875 
Q 22.125 -17.390625 28.21875 -17.390625 
Q 36.140625 -17.390625 39.8125 -12.921875 
Q 43.5 -8.453125 43.5 1.125 
L 43.5 8.109375 
Q 40.875 3.21875 36.796875 0.890625 
Q 32.71875 -1.421875 26.703125 -1.421875 
Q 17.140625 -1.421875 11.0625 6.171875 
Q 4.984375 13.765625 4.984375 25.984375 
Q 4.984375 38.1875 11.03125 45.75 
Q 17.09375 53.328125 26.703125 53.328125 
Q 32.71875 53.328125 36.796875 51 
Q 40.875 48.6875 43.5 43.796875 
L 43.5 51.90625 
L 61.078125 51.90625 
L 61.078125 46.6875 
z
M 43.5 28.515625 
Q 43.5 37.84375 39.90625 42.765625 
Q 36.328125 47.703125 29.5 47.703125 
Q 22.5625 47.703125 19.015625 42.234375 
Q 15.484375 36.765625 15.484375 25.984375 
Q 15.484375 15.234375 19.015625 9.71875 
Q 22.5625 4.203125 29.5 4.203125 
Q 36.328125 4.203125 39.90625 9.109375 
Q 43.5 14.015625 43.5 23.390625 
z
" id="DejaVuSerif-103"/>
      <path d="M 39.796875 16.3125 
L 39.796875 27.296875 
L 28.21875 27.296875 
Q 21.53125 27.296875 18.25 24.40625 
Q 14.984375 21.53125 14.984375 15.578125 
Q 14.984375 10.15625 18.296875 6.984375 
Q 21.625 3.8125 27.296875 3.8125 
Q 32.90625 3.8125 36.34375 7.28125 
Q 39.796875 10.75 39.796875 16.3125 
z
M 48.78125 32.421875 
L 48.78125 5.171875 
L 56.78125 5.171875 
L 56.78125 0 
L 39.796875 0 
L 39.796875 5.609375 
Q 36.8125 2 32.90625 0.28125 
Q 29 -1.421875 23.78125 -1.421875 
Q 15.140625 -1.421875 10.0625 3.171875 
Q 4.984375 7.765625 4.984375 15.578125 
Q 4.984375 23.640625 10.796875 28.078125 
Q 16.609375 32.515625 27.203125 32.515625 
L 39.796875 32.515625 
L 39.796875 36.078125 
Q 39.796875 42 36.203125 45.234375 
Q 32.625 48.484375 26.125 48.484375 
Q 20.75 48.484375 17.578125 46.046875 
Q 14.40625 43.609375 13.625 38.8125 
L 8.984375 38.8125 
L 8.984375 49.3125 
Q 13.671875 51.3125 18.09375 52.3125 
Q 22.515625 53.328125 26.703125 53.328125 
Q 37.5 53.328125 43.140625 47.96875 
Q 48.78125 42.625 48.78125 32.421875 
z
" id="DejaVuSerif-97"/>
      <path d="M 51.8125 41.796875 
Q 54.390625 47.515625 58.421875 50.421875 
Q 62.453125 53.328125 67.828125 53.328125 
Q 75.984375 53.328125 79.984375 48.265625 
Q 83.984375 43.21875 83.984375 33.015625 
L 83.984375 5.171875 
L 92.09375 5.171875 
L 92.09375 0 
L 67.1875 0 
L 67.1875 5.171875 
L 75 5.171875 
L 75 31.984375 
Q 75 39.9375 72.65625 43.3125 
Q 70.3125 46.6875 64.890625 46.6875 
Q 58.890625 46.6875 55.734375 42.140625 
Q 52.59375 37.59375 52.59375 28.90625 
L 52.59375 5.171875 
L 60.40625 5.171875 
L 60.40625 0 
L 35.796875 0 
L 35.796875 5.171875 
L 43.609375 5.171875 
L 43.609375 32.328125 
Q 43.609375 40.09375 41.265625 43.390625 
Q 38.921875 46.6875 33.5 46.6875 
Q 27.484375 46.6875 24.328125 42.140625 
Q 21.1875 37.59375 21.1875 28.90625 
L 21.1875 5.171875 
L 29 5.171875 
L 29 0 
L 4.109375 0 
L 4.109375 5.171875 
L 12.203125 5.171875 
L 12.203125 46.78125 
L 3.609375 46.78125 
L 3.609375 51.90625 
L 21.1875 51.90625 
L 21.1875 42.671875 
Q 23.6875 47.859375 27.53125 50.59375 
Q 31.390625 53.328125 36.28125 53.328125 
Q 42.328125 53.328125 46.375 50.3125 
Q 50.4375 47.3125 51.8125 41.796875 
z
" id="DejaVuSerif-109"/>
     </defs>
     <use xlink:href="#DejaVuSerif-80"/>
     <use x="62.785156" xlink:href="#DejaVuSerif-101"/>
     <use x="121.964844" xlink:href="#DejaVuSerif-114"/>
     <use x="169.767578" xlink:href="#DejaVuSerif-105"/>
     <use x="201.75" xlink:href="#DejaVuSerif-111"/>
     <use x="261.955078" xlink:href="#DejaVuSerif-100"/>
     <use x="325.96875" xlink:href="#DejaVuSerif-111"/>
     <use x="386.173828" xlink:href="#DejaVuSerif-103"/>
     <use x="450.1875" xlink:href="#DejaVuSerif-114"/>
     <use x="497.990234" xlink:href="#DejaVuSerif-97"/>
     <use x="557.609375" xlink:href="#DejaVuSerif-109"/>
    </g>
   </g>
   <g id="legend_1">
    <g id="patch_7">
     <path d="M 419.648125 108.123071 
L 454.431875 108.123071 
Q 455.231875 108.123071 455.231875 107.323071 
L 455.231875 84.238071 
Q 455.231875 83.438071 454.431875 83.438071 
L 419.648125 83.438071 
Q 418.848125 83.438071 418.848125 84.238071 
L 418.848125 107.323071 
Q 418.848125 108.123071 419.648125 108.123071 
z
" style="fill:#ffffff;opacity:0.8;stroke:#cccccc;stroke-linejoin:miter;"/>
    </g>
    <g id="line2d_23">
     <path d="M 420.448125 86.677446 
L 428.448125 86.677446 
" style="fill:none;stroke:#808080;stroke-dasharray:5.55,2.4;stroke-dashoffset:0;stroke-width:1.5;"/>
    </g>
    <g id="text_9">
     <!-- 99.9% FAP -->
     <g transform="translate(431.648125 88.077446)scale(0.04 -0.04)">
      <defs>
       <path d="M 46.78125 32.671875 
Q 43.5 29 39.25 27.1875 
Q 35.015625 25.390625 29.6875 25.390625 
Q 18.84375 25.390625 12.5625 31.9375 
Q 6.296875 38.484375 6.296875 49.8125 
Q 6.296875 60.890625 13.109375 67.546875 
Q 19.921875 74.21875 31.296875 74.21875 
Q 43.65625 74.21875 50.265625 65.015625 
Q 56.890625 55.8125 56.890625 38.71875 
Q 56.890625 19.578125 49.015625 9.078125 
Q 41.15625 -1.421875 26.90625 -1.421875 
Q 23.046875 -1.421875 18.796875 -0.6875 
Q 14.546875 0.046875 10.109375 1.515625 
L 10.109375 13.625 
L 15.578125 13.625 
Q 16.21875 8.6875 19.390625 6.046875 
Q 22.5625 3.421875 27.875 3.421875 
Q 37.359375 3.421875 41.984375 10.5625 
Q 46.625 17.71875 46.78125 32.671875 
z
M 30.90625 69.390625 
Q 23.96875 69.390625 20.28125 64.328125 
Q 16.609375 59.28125 16.609375 49.8125 
Q 16.609375 40.328125 20.28125 35.25 
Q 23.96875 30.171875 30.90625 30.171875 
Q 37.84375 30.171875 41.53125 35.078125 
Q 45.21875 39.984375 45.21875 49.21875 
Q 45.21875 58.9375 41.5 64.15625 
Q 37.796875 69.390625 30.90625 69.390625 
z
" id="DejaVuSerif-57"/>
       <path d="M 22.40625 69.671875 
Q 18.109375 69.671875 15.6875 65.625 
Q 13.28125 61.578125 13.28125 54.296875 
Q 13.28125 47.125 15.75 43.015625 
Q 18.21875 38.921875 22.40625 38.921875 
Q 26.5625 38.921875 28.96875 43 
Q 31.390625 47.078125 31.390625 54.296875 
Q 31.390625 61.53125 28.96875 65.59375 
Q 26.5625 69.671875 22.40625 69.671875 
z
M 72.703125 33.890625 
Q 68.453125 33.890625 66.03125 29.78125 
Q 63.625 25.6875 63.625 18.40625 
Q 63.625 11.234375 66.0625 7.15625 
Q 68.5 3.078125 72.703125 3.078125 
Q 76.90625 3.078125 79.296875 7.15625 
Q 81.6875 11.234375 81.6875 18.40625 
Q 81.6875 25.640625 79.265625 29.765625 
Q 76.859375 33.890625 72.703125 33.890625 
z
M 72.703125 38.28125 
Q 80.421875 38.28125 84.953125 32.90625 
Q 89.5 27.546875 89.5 18.40625 
Q 89.5 9.28125 84.9375 3.921875 
Q 80.375 -1.421875 72.703125 -1.421875 
Q 64.890625 -1.421875 60.34375 3.921875 
Q 55.8125 9.28125 55.8125 18.40625 
Q 55.8125 27.59375 60.375 32.9375 
Q 64.9375 38.28125 72.703125 38.28125 
z
M 66.609375 74.21875 
L 74.03125 74.21875 
L 28.421875 -1.421875 
L 21 -1.421875 
z
M 22.3125 74.21875 
Q 30.03125 74.21875 34.609375 68.875 
Q 39.203125 63.53125 39.203125 54.390625 
Q 39.203125 45.171875 34.640625 39.84375 
Q 30.078125 34.515625 22.3125 34.515625 
Q 14.546875 34.515625 10.03125 39.859375 
Q 5.515625 45.21875 5.515625 54.390625 
Q 5.515625 63.484375 10.046875 68.84375 
Q 14.59375 74.21875 22.3125 74.21875 
z
" id="DejaVuSerif-37"/>
       <path d="M 5.515625 0 
L 5.515625 5.171875 
L 14.796875 5.171875 
L 14.796875 67.671875 
L 5.515625 67.671875 
L 5.515625 72.90625 
L 65.1875 72.90625 
L 65.1875 56.6875 
L 59.1875 56.6875 
L 59.1875 66.890625 
L 24.703125 66.890625 
L 24.703125 42.484375 
L 49.609375 42.484375 
L 49.609375 51.609375 
L 55.609375 51.609375 
L 55.609375 27.390625 
L 49.609375 27.390625 
L 49.609375 36.53125 
L 24.703125 36.53125 
L 24.703125 5.171875 
L 36.375 5.171875 
L 36.375 0 
z
" id="DejaVuSerif-70"/>
       <path d="M 20.015625 26.421875 
L 46.78125 26.421875 
L 33.40625 61.078125 
z
M -0.59375 0 
L -0.59375 5.171875 
L 5.8125 5.171875 
L 31.78125 72.90625 
L 39.984375 72.90625 
L 66.015625 5.171875 
L 73.1875 5.171875 
L 73.1875 0 
L 46.6875 0 
L 46.6875 5.171875 
L 54.78125 5.171875 
L 48.6875 21.1875 
L 18.015625 21.1875 
L 11.921875 5.171875 
L 19.921875 5.171875 
L 19.921875 0 
z
" id="DejaVuSerif-65"/>
      </defs>
      <use xlink:href="#DejaVuSerif-57"/>
      <use x="63.623047" xlink:href="#DejaVuSerif-57"/>
      <use x="127.246094" xlink:href="#DejaVuSerif-46"/>
      <use x="159.033203" xlink:href="#DejaVuSerif-57"/>
      <use x="222.65625" xlink:href="#DejaVuSerif-37"/>
      <use x="317.675781" xlink:href="#DejaVuSerif-32"/>
      <use x="349.462891" xlink:href="#DejaVuSerif-70"/>
      <use x="410.097656" xlink:href="#DejaVuSerif-65"/>
      <use x="482.314453" xlink:href="#DejaVuSerif-80"/>
     </g>
    </g>
    <g id="line2d_24">
     <path d="M 420.448125 92.548696 
L 428.448125 92.548696 
" style="fill:none;stroke:#a9a9a9;stroke-dasharray:5.55,2.4;stroke-dashoffset:0;stroke-width:1.5;"/>
    </g>
    <g id="text_10">
     <!-- 99.0% FAP -->
     <g transform="translate(431.648125 93.948696)scale(0.04 -0.04)">
      <use xlink:href="#DejaVuSerif-57"/>
      <use x="63.623047" xlink:href="#DejaVuSerif-57"/>
      <use x="127.246094" xlink:href="#DejaVuSerif-46"/>
      <use x="159.033203" xlink:href="#DejaVuSerif-48"/>
      <use x="222.65625" xlink:href="#DejaVuSerif-37"/>
      <use x="317.675781" xlink:href="#DejaVuSerif-32"/>
      <use x="349.462891" xlink:href="#DejaVuSerif-70"/>
      <use x="410.097656" xlink:href="#DejaVuSerif-65"/>
      <use x="482.314453" xlink:href="#DejaVuSerif-80"/>
     </g>
    </g>
    <g id="line2d_25">
     <path d="M 420.448125 98.419946 
L 428.448125 98.419946 
" style="fill:none;stroke:#c0c0c0;stroke-dasharray:5.55,2.4;stroke-dashoffset:0;stroke-width:1.5;"/>
    </g>
    <g id="text_11">
     <!-- 95.0% FAP -->
     <g transform="translate(431.648125 99.819946)scale(0.04 -0.04)">
      <defs>
       <path d="M 50.296875 72.90625 
L 50.296875 64.890625 
L 16.890625 64.890625 
L 16.890625 44 
Q 19.4375 45.75 22.828125 46.625 
Q 26.21875 47.515625 30.421875 47.515625 
Q 42.234375 47.515625 49.0625 40.96875 
Q 55.90625 34.421875 55.90625 23.09375 
Q 55.90625 11.53125 49 5.046875 
Q 42.09375 -1.421875 29.59375 -1.421875 
Q 24.5625 -1.421875 19.28125 -0.1875 
Q 14.015625 1.03125 8.5 3.515625 
L 8.5 17.671875 
L 14.015625 17.671875 
Q 14.453125 10.75 18.421875 7.078125 
Q 22.40625 3.421875 29.59375 3.421875 
Q 37.3125 3.421875 41.453125 8.5 
Q 45.609375 13.578125 45.609375 23.09375 
Q 45.609375 32.5625 41.484375 37.609375 
Q 37.359375 42.671875 29.59375 42.671875 
Q 25.203125 42.671875 21.84375 41.109375 
Q 18.5 39.546875 15.921875 36.28125 
L 11.71875 36.28125 
L 11.71875 72.90625 
z
" id="DejaVuSerif-53"/>
      </defs>
      <use xlink:href="#DejaVuSerif-57"/>
      <use x="63.623047" xlink:href="#DejaVuSerif-53"/>
      <use x="127.246094" xlink:href="#DejaVuSerif-46"/>
      <use x="159.033203" xlink:href="#DejaVuSerif-48"/>
      <use x="222.65625" xlink:href="#DejaVuSerif-37"/>
      <use x="317.675781" xlink:href="#DejaVuSerif-32"/>
      <use x="349.462891" xlink:href="#DejaVuSerif-70"/>
      <use x="410.097656" xlink:href="#DejaVuSerif-65"/>
      <use x="482.314453" xlink:href="#DejaVuSerif-80"/>
     </g>
    </g>
    <g id="line2d_26">
     <path d="M 420.448125 104.291196 
L 428.448125 104.291196 
" style="fill:none;stroke:#d3d3d3;stroke-dasharray:5.55,2.4;stroke-dashoffset:0;stroke-width:1.5;"/>
    </g>
    <g id="text_12">
     <!-- 90.0% FAP -->
     <g transform="translate(431.648125 105.691196)scale(0.04 -0.04)">
      <use xlink:href="#DejaVuSerif-57"/>
      <use x="63.623047" xlink:href="#DejaVuSerif-48"/>
      <use x="127.246094" xlink:href="#DejaVuSerif-46"/>
      <use x="159.033203" xlink:href="#DejaVuSerif-48"/>
      <use x="222.65625" xlink:href="#DejaVuSerif-37"/>
      <use x="317.675781" xlink:href="#DejaVuSerif-32"/>
      <use x="349.462891" xlink:href="#DejaVuSerif-70"/>
      <use x="410.097656" xlink:href="#DejaVuSerif-65"/>
      <use x="482.314453" xlink:href="#DejaVuSerif-80"/>
     </g>
    </g>
   </g>
  </g>
  <g id="axes_2">
   <g id="patch_8">
    <path d="M 57.6 150.089143 
L 206.4 150.089143 
L 206.4 41.472 
L 57.6 41.472 
z
" style="fill:#ffffff;"/>
   </g>
   <g id="PathCollection_1">
    <defs>
     <path d="M 0 0.707107 
C 0.187527 0.707107 0.367398 0.632602 0.5 0.5 
C 0.632602 0.367398 0.707107 0.187527 0.707107 0 
C 0.707107 -0.187527 0.632602 -0.367398 0.5 -0.5 
C 0.367398 -0.632602 0.187527 -0.707107 0 -0.707107 
C -0.187527 -0.707107 -0.367398 -0.632602 -0.5 -0.5 
C -0.632602 -0.367398 -0.707107 -0.187527 -0.707107 0 
C -0.707107 0.187527 -0.632602 0.367398 -0.5 0.5 
C -0.367398 0.632602 -0.187527 0.707107 0 0.707107 
z
" id="m5629e802a0" style="stroke:#1f77b4;"/>
    </defs>
    <g clip-path="url(#p93a896d97b)">
     <use style="fill:#1f77b4;stroke:#1f77b4;" x="103.506767" xlink:href="#m5629e802a0" y="92.567273"/>
     <use style="fill:#1f77b4;stroke:#1f77b4;" x="103.50829" xlink:href="#m5629e802a0" y="132.594588"/>
     <use style="fill:#1f77b4;stroke:#1f77b4;" x="116.867699" xlink:href="#m5629e802a0" y="92.826285"/>
     <use style="fill:#1f77b4;stroke:#1f77b4;" x="116.869223" xlink:href="#m5629e802a0" y="104.162764"/>
     <use style="fill:#1f77b4;stroke:#1f77b4;" x="123.736937" xlink:href="#m5629e802a0" y="46.409143"/>
     <use style="fill:#1f77b4;stroke:#1f77b4;" x="64.839704" xlink:href="#m5629e802a0" y="78.400942"/>
     <use style="fill:#1f77b4;stroke:#1f77b4;" x="64.850292" xlink:href="#m5629e802a0" y="145.152"/>
     <use style="fill:#1f77b4;stroke:#1f77b4;" x="81.631333" xlink:href="#m5629e802a0" y="91.016443"/>
     <use style="fill:#1f77b4;stroke:#1f77b4;" x="84.91852" xlink:href="#m5629e802a0" y="115.667671"/>
     <use style="fill:#1f77b4;stroke:#1f77b4;" x="84.920005" xlink:href="#m5629e802a0" y="119.019794"/>
     <use style="fill:#1f77b4;stroke:#1f77b4;" x="91.568647" xlink:href="#m5629e802a0" y="104.237366"/>
     <use style="fill:#1f77b4;stroke:#1f77b4;" x="91.570171" xlink:href="#m5629e802a0" y="136.264874"/>
     <use style="fill:#1f77b4;stroke:#1f77b4;" x="98.045597" xlink:href="#m5629e802a0" y="120.518374"/>
     <use style="fill:#1f77b4;stroke:#1f77b4;" x="98.04712" xlink:href="#m5629e802a0" y="118.467682"/>
     <use style="fill:#1f77b4;stroke:#1f77b4;" x="101.303952" xlink:href="#m5629e802a0" y="135.476662"/>
     <use style="fill:#1f77b4;stroke:#1f77b4;" x="101.305476" xlink:href="#m5629e802a0" y="130.761304"/>
     <use style="fill:#1f77b4;stroke:#1f77b4;" x="104.770373" xlink:href="#m5629e802a0" y="121.364676"/>
     <use style="fill:#1f77b4;stroke:#1f77b4;" x="104.771859" xlink:href="#m5629e802a0" y="83.13122"/>
     <use style="fill:#1f77b4;stroke:#1f77b4;" x="107.919155" xlink:href="#m5629e802a0" y="127.667103"/>
     <use style="fill:#1f77b4;stroke:#1f77b4;" x="107.920678" xlink:href="#m5629e802a0" y="87.008827"/>
     <use style="fill:#1f77b4;stroke:#1f77b4;" x="111.206684" xlink:href="#m5629e802a0" y="114.815502"/>
     <use style="fill:#1f77b4;stroke:#1f77b4;" x="111.20817" xlink:href="#m5629e802a0" y="115.546156"/>
     <use style="fill:#1f77b4;stroke:#1f77b4;" x="72.182633" xlink:href="#m5629e802a0" y="122.472112"/>
     <use style="fill:#1f77b4;stroke:#1f77b4;" x="95.029019" xlink:href="#m5629e802a0" y="111.283776"/>
     <use style="fill:#1f77b4;stroke:#1f77b4;" x="98.304704" xlink:href="#m5629e802a0" y="136.76102"/>
     <use style="fill:#1f77b4;stroke:#1f77b4;" x="101.596118" xlink:href="#m5629e802a0" y="118.203333"/>
     <use style="fill:#1f77b4;stroke:#1f77b4;" x="104.880715" xlink:href="#m5629e802a0" y="134.140082"/>
     <use style="fill:#1f77b4;stroke:#1f77b4;" x="108.185232" xlink:href="#m5629e802a0" y="128.819301"/>
     <use style="fill:#1f77b4;stroke:#1f77b4;" x="79.058466" xlink:href="#m5629e802a0" y="61.195286"/>
     <use style="fill:#1f77b4;stroke:#1f77b4;" x="108.01305" xlink:href="#m5629e802a0" y="82.346221"/>
     <use style="fill:#1f77b4;stroke:#1f77b4;" x="111.783818" xlink:href="#m5629e802a0" y="91.784928"/>
     <use style="fill:#1f77b4;stroke:#1f77b4;" x="115.13518" xlink:href="#m5629e802a0" y="85.894992"/>
     <use style="fill:#1f77b4;stroke:#1f77b4;" x="69.437959" xlink:href="#m5629e802a0" y="76.910324"/>
     <use style="fill:#1f77b4;stroke:#1f77b4;" x="79.372912" xlink:href="#m5629e802a0" y="101.262557"/>
     <use style="fill:#1f77b4;stroke:#1f77b4;" x="72.997132" xlink:href="#m5629e802a0" y="104.18942"/>
     <use style="fill:#1f77b4;stroke:#1f77b4;" x="86.159668" xlink:href="#m5629e802a0" y="112.922005"/>
     <use style="fill:#1f77b4;stroke:#1f77b4;" x="119.041707" xlink:href="#m5629e802a0" y="101.346771"/>
     <use style="fill:#1f77b4;stroke:#1f77b4;" x="64.363636" xlink:href="#m5629e802a0" y="74.947562"/>
     <use style="fill:#1f77b4;stroke:#1f77b4;" x="124.34356" xlink:href="#m5629e802a0" y="67.448147"/>
     <use style="fill:#1f77b4;stroke:#1f77b4;" x="124.615502" xlink:href="#m5629e802a0" y="117.6427"/>
     <use style="fill:#1f77b4;stroke:#1f77b4;" x="124.616988" xlink:href="#m5629e802a0" y="104.418563"/>
     <use style="fill:#1f77b4;stroke:#1f77b4;" x="127.822137" xlink:href="#m5629e802a0" y="66.913107"/>
     <use style="fill:#1f77b4;stroke:#1f77b4;" x="127.823622" xlink:href="#m5629e802a0" y="83.74835"/>
     <use style="fill:#1f77b4;stroke:#1f77b4;" x="130.97088" xlink:href="#m5629e802a0" y="62.886268"/>
     <use style="fill:#1f77b4;stroke:#1f77b4;" x="130.972366" xlink:href="#m5629e802a0" y="57.477054"/>
    </g>
   </g>
   <g id="PathCollection_2">
    <g clip-path="url(#p93a896d97b)">
     <use style="fill:#1f77b4;stroke:#1f77b4;" x="172.170765" xlink:href="#m5629e802a0" y="92.567273"/>
     <use style="fill:#1f77b4;stroke:#1f77b4;" x="172.172288" xlink:href="#m5629e802a0" y="132.594588"/>
     <use style="fill:#1f77b4;stroke:#1f77b4;" x="185.531697" xlink:href="#m5629e802a0" y="92.826285"/>
     <use style="fill:#1f77b4;stroke:#1f77b4;" x="185.533221" xlink:href="#m5629e802a0" y="104.162764"/>
     <use style="fill:#1f77b4;stroke:#1f77b4;" x="192.400935" xlink:href="#m5629e802a0" y="46.409143"/>
     <use style="fill:#1f77b4;stroke:#1f77b4;" x="133.503702" xlink:href="#m5629e802a0" y="78.400942"/>
     <use style="fill:#1f77b4;stroke:#1f77b4;" x="133.51429" xlink:href="#m5629e802a0" y="145.152"/>
     <use style="fill:#1f77b4;stroke:#1f77b4;" x="150.29533" xlink:href="#m5629e802a0" y="91.016443"/>
     <use style="fill:#1f77b4;stroke:#1f77b4;" x="153.582517" xlink:href="#m5629e802a0" y="115.667671"/>
     <use style="fill:#1f77b4;stroke:#1f77b4;" x="153.584003" xlink:href="#m5629e802a0" y="119.019794"/>
     <use style="fill:#1f77b4;stroke:#1f77b4;" x="160.232645" xlink:href="#m5629e802a0" y="104.237366"/>
     <use style="fill:#1f77b4;stroke:#1f77b4;" x="160.234168" xlink:href="#m5629e802a0" y="136.264874"/>
     <use style="fill:#1f77b4;stroke:#1f77b4;" x="166.709594" xlink:href="#m5629e802a0" y="120.518374"/>
     <use style="fill:#1f77b4;stroke:#1f77b4;" x="166.711118" xlink:href="#m5629e802a0" y="118.467682"/>
     <use style="fill:#1f77b4;stroke:#1f77b4;" x="169.96795" xlink:href="#m5629e802a0" y="135.476662"/>
     <use style="fill:#1f77b4;stroke:#1f77b4;" x="169.969473" xlink:href="#m5629e802a0" y="130.761304"/>
     <use style="fill:#1f77b4;stroke:#1f77b4;" x="173.434371" xlink:href="#m5629e802a0" y="121.364676"/>
     <use style="fill:#1f77b4;stroke:#1f77b4;" x="173.435856" xlink:href="#m5629e802a0" y="83.13122"/>
     <use style="fill:#1f77b4;stroke:#1f77b4;" x="176.583153" xlink:href="#m5629e802a0" y="127.667103"/>
     <use style="fill:#1f77b4;stroke:#1f77b4;" x="176.584676" xlink:href="#m5629e802a0" y="87.008827"/>
     <use style="fill:#1f77b4;stroke:#1f77b4;" x="179.870682" xlink:href="#m5629e802a0" y="114.815502"/>
     <use style="fill:#1f77b4;stroke:#1f77b4;" x="179.872168" xlink:href="#m5629e802a0" y="115.546156"/>
     <use style="fill:#1f77b4;stroke:#1f77b4;" x="140.846631" xlink:href="#m5629e802a0" y="122.472112"/>
     <use style="fill:#1f77b4;stroke:#1f77b4;" x="163.693016" xlink:href="#m5629e802a0" y="111.283776"/>
     <use style="fill:#1f77b4;stroke:#1f77b4;" x="166.968701" xlink:href="#m5629e802a0" y="136.76102"/>
     <use style="fill:#1f77b4;stroke:#1f77b4;" x="170.260116" xlink:href="#m5629e802a0" y="118.203333"/>
     <use style="fill:#1f77b4;stroke:#1f77b4;" x="173.544713" xlink:href="#m5629e802a0" y="134.140082"/>
     <use style="fill:#1f77b4;stroke:#1f77b4;" x="176.849229" xlink:href="#m5629e802a0" y="128.819301"/>
     <use style="fill:#1f77b4;stroke:#1f77b4;" x="147.722464" xlink:href="#m5629e802a0" y="61.195286"/>
     <use style="fill:#1f77b4;stroke:#1f77b4;" x="176.677048" xlink:href="#m5629e802a0" y="82.346221"/>
     <use style="fill:#1f77b4;stroke:#1f77b4;" x="180.447816" xlink:href="#m5629e802a0" y="91.784928"/>
     <use style="fill:#1f77b4;stroke:#1f77b4;" x="183.799178" xlink:href="#m5629e802a0" y="85.894992"/>
     <use style="fill:#1f77b4;stroke:#1f77b4;" x="138.101957" xlink:href="#m5629e802a0" y="76.910324"/>
     <use style="fill:#1f77b4;stroke:#1f77b4;" x="148.03691" xlink:href="#m5629e802a0" y="101.262557"/>
     <use style="fill:#1f77b4;stroke:#1f77b4;" x="141.66113" xlink:href="#m5629e802a0" y="104.18942"/>
     <use style="fill:#1f77b4;stroke:#1f77b4;" x="154.823665" xlink:href="#m5629e802a0" y="112.922005"/>
     <use style="fill:#1f77b4;stroke:#1f77b4;" x="187.705705" xlink:href="#m5629e802a0" y="101.346771"/>
     <use style="fill:#1f77b4;stroke:#1f77b4;" x="133.027634" xlink:href="#m5629e802a0" y="74.947562"/>
     <use style="fill:#1f77b4;stroke:#1f77b4;" x="193.007558" xlink:href="#m5629e802a0" y="67.448147"/>
     <use style="fill:#1f77b4;stroke:#1f77b4;" x="193.2795" xlink:href="#m5629e802a0" y="117.6427"/>
     <use style="fill:#1f77b4;stroke:#1f77b4;" x="193.280986" xlink:href="#m5629e802a0" y="104.418563"/>
     <use style="fill:#1f77b4;stroke:#1f77b4;" x="196.486135" xlink:href="#m5629e802a0" y="66.913107"/>
     <use style="fill:#1f77b4;stroke:#1f77b4;" x="196.48762" xlink:href="#m5629e802a0" y="83.74835"/>
     <use style="fill:#1f77b4;stroke:#1f77b4;" x="199.634878" xlink:href="#m5629e802a0" y="62.886268"/>
     <use style="fill:#1f77b4;stroke:#1f77b4;" x="199.636364" xlink:href="#m5629e802a0" y="57.477054"/>
    </g>
   </g>
   <g id="matplotlib.axis_3">
    <g id="xtick_19">
     <g id="line2d_27">
      <g>
       <use style="stroke:#000000;stroke-width:0.8;" x="62.361958" xlink:href="#m02c1c02843" y="150.089143"/>
      </g>
     </g>
     <g id="text_13">
      <!-- 0 -->
      <g transform="translate(59.180708 164.68758)scale(0.1 -0.1)">
       <use xlink:href="#DejaVuSerif-48"/>
      </g>
     </g>
    </g>
    <g id="xtick_20">
     <g id="line2d_28">
      <g>
       <use style="stroke:#000000;stroke-width:0.8;" x="131.025956" xlink:href="#m02c1c02843" y="150.089143"/>
      </g>
     </g>
     <g id="text_14">
      <!-- 1 -->
      <g transform="translate(127.844706 164.68758)scale(0.1 -0.1)">
       <use xlink:href="#DejaVuSerif-49"/>
      </g>
     </g>
    </g>
    <g id="xtick_21">
     <g id="line2d_29">
      <g>
       <use style="stroke:#000000;stroke-width:0.8;" x="199.689954" xlink:href="#m02c1c02843" y="150.089143"/>
      </g>
     </g>
     <g id="text_15">
      <!-- 2 -->
      <g transform="translate(196.508704 164.68758)scale(0.1 -0.1)">
       <use xlink:href="#DejaVuSerif-50"/>
      </g>
     </g>
    </g>
    <g id="text_16">
     <!-- Phase (P = 20.866 d) -->
     <g transform="translate(78.401562 178.365705)scale(0.1 -0.1)">
      <defs>
       <path d="M 4.109375 0 
L 4.109375 5.171875 
L 12.203125 5.171875 
L 12.203125 70.796875 
L 3.609375 70.796875 
L 3.609375 75.984375 
L 21.1875 75.984375 
L 21.1875 42.671875 
Q 23.6875 47.953125 27.65625 50.640625 
Q 31.640625 53.328125 36.921875 53.328125 
Q 45.515625 53.328125 49.5625 48.390625 
Q 53.609375 43.453125 53.609375 33.015625 
L 53.609375 5.171875 
L 61.625 5.171875 
L 61.625 0 
L 36.8125 0 
L 36.8125 5.171875 
L 44.578125 5.171875 
L 44.578125 30.171875 
Q 44.578125 39.703125 42.25 43.1875 
Q 39.9375 46.6875 33.984375 46.6875 
Q 27.734375 46.6875 24.453125 42.140625 
Q 21.1875 37.59375 21.1875 28.90625 
L 21.1875 5.171875 
L 29 5.171875 
L 29 0 
z
" id="DejaVuSerif-104"/>
       <path d="M 5.609375 2.875 
L 5.609375 14.984375 
L 10.796875 14.984375 
Q 10.984375 9.1875 14.421875 6.296875 
Q 17.875 3.421875 24.609375 3.421875 
Q 30.671875 3.421875 33.84375 5.6875 
Q 37.015625 7.953125 37.015625 12.3125 
Q 37.015625 15.71875 34.6875 17.8125 
Q 32.375 19.921875 24.90625 22.3125 
L 18.40625 24.515625 
Q 11.71875 26.65625 8.71875 29.875 
Q 5.71875 33.109375 5.71875 38.09375 
Q 5.71875 45.21875 10.9375 49.265625 
Q 16.15625 53.328125 25.390625 53.328125 
Q 29.5 53.328125 34.03125 52.25 
Q 38.578125 51.171875 43.40625 49.125 
L 43.40625 37.796875 
L 38.234375 37.796875 
Q 38.03125 42.828125 34.703125 45.65625 
Q 31.390625 48.484375 25.6875 48.484375 
Q 20.015625 48.484375 17.109375 46.484375 
Q 14.203125 44.484375 14.203125 40.484375 
Q 14.203125 37.203125 16.40625 35.21875 
Q 18.609375 33.25 25.203125 31.203125 
L 32.328125 29 
Q 39.703125 26.703125 42.9375 23.265625 
Q 46.1875 19.828125 46.1875 14.40625 
Q 46.1875 7.03125 40.546875 2.796875 
Q 34.90625 -1.421875 25 -1.421875 
Q 19.96875 -1.421875 15.1875 -0.34375 
Q 10.40625 0.734375 5.609375 2.875 
z
" id="DejaVuSerif-115"/>
       <path d="M 31.890625 -15.578125 
Q 20.015625 -10.25 13.953125 1.296875 
Q 7.90625 12.84375 7.90625 30.171875 
Q 7.90625 47.5625 13.953125 59.109375 
Q 20.015625 70.65625 31.890625 75.984375 
L 31.890625 71.1875 
Q 24.359375 66.015625 21.09375 56.609375 
Q 17.828125 47.21875 17.828125 30.171875 
Q 17.828125 13.1875 21.09375 3.78125 
Q 24.359375 -5.609375 31.890625 -10.796875 
z
" id="DejaVuSerif-40"/>
       <path d="M 10.59375 45.21875 
L 73.1875 45.21875 
L 73.1875 37.40625 
L 10.59375 37.40625 
z
M 10.59375 25.296875 
L 73.1875 25.296875 
L 73.1875 17.484375 
L 10.59375 17.484375 
z
" id="DejaVuSerif-61"/>
       <path d="M 46.578125 19.921875 
Q 46.578125 27.734375 42.6875 32.046875 
Q 38.8125 36.375 31.78125 36.375 
Q 24.75 36.375 20.875 32.046875 
Q 17 27.734375 17 19.921875 
Q 17 12.0625 20.875 7.734375 
Q 24.75 3.421875 31.78125 3.421875 
Q 38.8125 3.421875 42.6875 7.734375 
Q 46.578125 12.0625 46.578125 19.921875 
z
M 44.578125 55.328125 
Q 44.578125 61.96875 41.203125 65.671875 
Q 37.84375 69.390625 31.78125 69.390625 
Q 25.78125 69.390625 22.390625 65.671875 
Q 19 61.96875 19 55.328125 
Q 19 48.640625 22.390625 44.921875 
Q 25.78125 41.21875 31.78125 41.21875 
Q 37.84375 41.21875 41.203125 44.921875 
Q 44.578125 48.640625 44.578125 55.328125 
z
M 39.3125 38.8125 
Q 47.609375 37.703125 52.25 32.6875 
Q 56.890625 27.6875 56.890625 19.921875 
Q 56.890625 9.671875 50.390625 4.125 
Q 43.890625 -1.421875 31.78125 -1.421875 
Q 19.734375 -1.421875 13.203125 4.125 
Q 6.6875 9.671875 6.6875 19.921875 
Q 6.6875 27.6875 11.328125 32.6875 
Q 15.96875 37.703125 24.3125 38.8125 
Q 16.9375 40.140625 13 44.40625 
Q 9.078125 48.6875 9.078125 55.328125 
Q 9.078125 64.109375 15.125 69.15625 
Q 21.1875 74.21875 31.78125 74.21875 
Q 42.390625 74.21875 48.4375 69.15625 
Q 54.5 64.109375 54.5 55.328125 
Q 54.5 48.6875 50.5625 44.40625 
Q 46.625 40.140625 39.3125 38.8125 
z
" id="DejaVuSerif-56"/>
       <path d="M 32.71875 3.421875 
Q 39.59375 3.421875 43.296875 8.46875 
Q 47.015625 13.53125 47.015625 23 
Q 47.015625 32.46875 43.296875 37.515625 
Q 39.59375 42.578125 32.71875 42.578125 
Q 25.734375 42.578125 22.0625 37.6875 
Q 18.40625 32.8125 18.40625 23.578125 
Q 18.40625 13.875 22.109375 8.640625 
Q 25.828125 3.421875 32.71875 3.421875 
z
M 16.796875 40.140625 
Q 20.125 43.796875 24.3125 45.59375 
Q 28.515625 47.40625 33.796875 47.40625 
Q 44.671875 47.40625 51 40.859375 
Q 57.328125 34.328125 57.328125 23 
Q 57.328125 11.921875 50.515625 5.25 
Q 43.703125 -1.421875 32.328125 -1.421875 
Q 19.96875 -1.421875 13.328125 7.78125 
Q 6.6875 17 6.6875 34.078125 
Q 6.6875 53.21875 14.546875 63.71875 
Q 22.40625 74.21875 36.71875 74.21875 
Q 40.578125 74.21875 44.828125 73.484375 
Q 49.078125 72.75 53.515625 71.296875 
L 53.515625 59.28125 
L 48 59.28125 
Q 47.40625 64.203125 44.234375 66.796875 
Q 41.0625 69.390625 35.6875 69.390625 
Q 26.21875 69.390625 21.578125 62.203125 
Q 16.9375 55.03125 16.796875 40.140625 
z
" id="DejaVuSerif-54"/>
       <path d="M 7.078125 -15.578125 
L 7.078125 -10.796875 
Q 14.59375 -5.609375 17.890625 3.78125 
Q 21.1875 13.1875 21.1875 30.171875 
Q 21.1875 47.21875 17.890625 56.609375 
Q 14.59375 66.015625 7.078125 71.1875 
L 7.078125 75.984375 
Q 19 70.65625 25.046875 59.109375 
Q 31.109375 47.5625 31.109375 30.171875 
Q 31.109375 12.84375 25.046875 1.296875 
Q 19 -10.25 7.078125 -15.578125 
z
" id="DejaVuSerif-41"/>
      </defs>
      <use xlink:href="#DejaVuSerif-80"/>
      <use x="67.285156" xlink:href="#DejaVuSerif-104"/>
      <use x="131.689453" xlink:href="#DejaVuSerif-97"/>
      <use x="191.308594" xlink:href="#DejaVuSerif-115"/>
      <use x="242.626953" xlink:href="#DejaVuSerif-101"/>
      <use x="301.806641" xlink:href="#DejaVuSerif-32"/>
      <use x="333.59375" xlink:href="#DejaVuSerif-40"/>
      <use x="372.607422" xlink:href="#DejaVuSerif-80"/>
      <use x="439.892578" xlink:href="#DejaVuSerif-32"/>
      <use x="471.679688" xlink:href="#DejaVuSerif-61"/>
      <use x="555.46875" xlink:href="#DejaVuSerif-32"/>
      <use x="587.255859" xlink:href="#DejaVuSerif-50"/>
      <use x="650.878906" xlink:href="#DejaVuSerif-48"/>
      <use x="714.501953" xlink:href="#DejaVuSerif-46"/>
      <use x="746.289062" xlink:href="#DejaVuSerif-56"/>
      <use x="809.912109" xlink:href="#DejaVuSerif-54"/>
      <use x="873.535156" xlink:href="#DejaVuSerif-54"/>
      <use x="937.158203" xlink:href="#DejaVuSerif-32"/>
      <use x="968.945312" xlink:href="#DejaVuSerif-100"/>
      <use x="1032.958984" xlink:href="#DejaVuSerif-41"/>
     </g>
    </g>
   </g>
   <g id="matplotlib.axis_4">
    <g id="ytick_4">
     <g id="line2d_30">
      <g>
       <use style="stroke:#000000;stroke-width:0.8;" x="57.6" xlink:href="#me4aa91b8e0" y="66.291702"/>
      </g>
     </g>
     <g id="text_17">
      <!-- 16.5 -->
      <g transform="translate(28.334375 70.090921)scale(0.1 -0.1)">
       <use xlink:href="#DejaVuSerif-49"/>
       <use x="63.623047" xlink:href="#DejaVuSerif-54"/>
       <use x="127.246094" xlink:href="#DejaVuSerif-46"/>
       <use x="159.033203" xlink:href="#DejaVuSerif-53"/>
      </g>
     </g>
    </g>
    <g id="ytick_5">
     <g id="line2d_31">
      <g>
       <use style="stroke:#000000;stroke-width:0.8;" x="57.6" xlink:href="#me4aa91b8e0" y="94.232577"/>
      </g>
     </g>
     <g id="text_18">
      <!-- 16.6 -->
      <g transform="translate(28.334375 98.031796)scale(0.1 -0.1)">
       <use xlink:href="#DejaVuSerif-49"/>
       <use x="63.623047" xlink:href="#DejaVuSerif-54"/>
       <use x="127.246094" xlink:href="#DejaVuSerif-46"/>
       <use x="159.033203" xlink:href="#DejaVuSerif-54"/>
      </g>
     </g>
    </g>
    <g id="ytick_6">
     <g id="line2d_32">
      <g>
       <use style="stroke:#000000;stroke-width:0.8;" x="57.6" xlink:href="#me4aa91b8e0" y="122.173452"/>
      </g>
     </g>
     <g id="text_19">
      <!-- 16.7 -->
      <g transform="translate(28.334375 125.972671)scale(0.1 -0.1)">
       <defs>
        <path d="M 56.390625 67.921875 
L 27.875 0 
L 20.609375 0 
L 47.796875 64.890625 
L 14.109375 64.890625 
L 14.109375 55.90625 
L 8.40625 55.90625 
L 8.40625 72.90625 
L 56.390625 72.90625 
z
" id="DejaVuSerif-55"/>
       </defs>
       <use xlink:href="#DejaVuSerif-49"/>
       <use x="63.623047" xlink:href="#DejaVuSerif-54"/>
       <use x="127.246094" xlink:href="#DejaVuSerif-46"/>
       <use x="159.033203" xlink:href="#DejaVuSerif-55"/>
      </g>
     </g>
    </g>
    <g id="text_20">
     <!-- Mag -->
     <g transform="translate(22.1125 107.082134)rotate(-90)scale(0.1 -0.1)">
      <defs>
       <path d="M 5.515625 0 
L 5.515625 5.171875 
L 14.796875 5.171875 
L 14.796875 67.671875 
L 4.984375 67.671875 
L 4.984375 72.90625 
L 26.21875 72.90625 
L 51.8125 21 
L 77.390625 72.90625 
L 97.3125 72.90625 
L 97.3125 67.671875 
L 87.59375 67.671875 
L 87.59375 5.171875 
L 96.921875 5.171875 
L 96.921875 0 
L 68.40625 0 
L 68.40625 5.171875 
L 77.6875 5.171875 
L 77.6875 61.53125 
L 52.6875 10.6875 
L 45.796875 10.6875 
L 20.796875 61.53125 
L 20.796875 5.171875 
L 30.078125 5.171875 
L 30.078125 0 
z
" id="DejaVuSerif-77"/>
      </defs>
      <use xlink:href="#DejaVuSerif-77"/>
      <use x="102.392578" xlink:href="#DejaVuSerif-97"/>
      <use x="162.011719" xlink:href="#DejaVuSerif-103"/>
     </g>
    </g>
   </g>
   <g id="patch_9">
    <path d="M 57.6 150.089143 
L 57.6 41.472 
" style="fill:none;stroke:#000000;stroke-linecap:square;stroke-linejoin:miter;stroke-width:0.8;"/>
   </g>
   <g id="patch_10">
    <path d="M 206.4 150.089143 
L 206.4 41.472 
" style="fill:none;stroke:#000000;stroke-linecap:square;stroke-linejoin:miter;stroke-width:0.8;"/>
   </g>
   <g id="patch_11">
    <path d="M 57.6 150.089143 
L 206.4 150.089143 
" style="fill:none;stroke:#000000;stroke-linecap:square;stroke-linejoin:miter;stroke-width:0.8;"/>
   </g>
   <g id="patch_12">
    <path d="M 57.6 41.472 
L 206.4 41.472 
" style="fill:none;stroke:#000000;stroke-linecap:square;stroke-linejoin:miter;stroke-width:0.8;"/>
   </g>
   <g id="text_21">
    <!-- Folded Light Curve -->
    <g transform="translate(83.086719 35.472)scale(0.1 -0.1)">
     <defs>
      <path d="M 20.515625 5.171875 
L 29 5.171875 
L 29 0 
L 2.875 0 
L 2.875 5.171875 
L 11.53125 5.171875 
L 11.53125 70.796875 
L 2.875 70.796875 
L 2.875 75.984375 
L 20.515625 75.984375 
z
" id="DejaVuSerif-108"/>
      <path d="M 5.515625 0 
L 5.515625 5.171875 
L 14.796875 5.171875 
L 14.796875 67.671875 
L 5.515625 67.671875 
L 5.515625 72.90625 
L 33.984375 72.90625 
L 33.984375 67.671875 
L 24.703125 67.671875 
L 24.703125 6 
L 58.015625 6 
L 58.015625 18.21875 
L 64.015625 18.21875 
L 64.015625 0 
z
" id="DejaVuSerif-76"/>
      <path d="M 10.796875 46.6875 
L 2.875 46.6875 
L 2.875 51.90625 
L 10.796875 51.90625 
L 10.796875 68.015625 
L 19.828125 68.015625 
L 19.828125 51.90625 
L 36.71875 51.90625 
L 36.71875 46.6875 
L 19.828125 46.6875 
L 19.828125 13.71875 
Q 19.828125 7.125 21.09375 5.265625 
Q 22.359375 3.421875 25.78125 3.421875 
Q 29.296875 3.421875 30.90625 5.484375 
Q 32.515625 7.5625 32.625 12.203125 
L 39.40625 12.203125 
Q 39.015625 5.125 35.546875 1.84375 
Q 32.078125 -1.421875 25 -1.421875 
Q 17.234375 -1.421875 14.015625 2.015625 
Q 10.796875 5.46875 10.796875 13.71875 
z
" id="DejaVuSerif-116"/>
      <path d="M 70.515625 19.28125 
Q 67.28125 9.078125 59.6875 3.828125 
Q 52.09375 -1.421875 40.484375 -1.421875 
Q 33.34375 -1.421875 27.234375 1.015625 
Q 21.140625 3.46875 16.40625 8.203125 
Q 10.9375 13.671875 8.265625 20.625 
Q 5.609375 27.59375 5.609375 36.375 
Q 5.609375 53.375 15.421875 63.796875 
Q 25.25 74.21875 41.3125 74.21875 
Q 47.265625 74.21875 54 72.65625 
Q 60.75 71.09375 68.5 67.921875 
L 68.5 51.125 
L 62.984375 51.125 
Q 61.1875 60.296875 55.734375 64.640625 
Q 50.296875 69 40.484375 69 
Q 28.8125 69 22.796875 60.71875 
Q 16.796875 52.4375 16.796875 36.375 
Q 16.796875 20.359375 22.796875 12.078125 
Q 28.8125 3.8125 40.484375 3.8125 
Q 48.640625 3.8125 53.90625 7.6875 
Q 59.1875 11.578125 61.53125 19.28125 
z
" id="DejaVuSerif-67"/>
      <path d="M 35.40625 51.90625 
L 52.203125 51.90625 
L 52.203125 5.171875 
L 60.6875 5.171875 
L 60.6875 0 
L 43.21875 0 
L 43.21875 9.1875 
Q 40.71875 4 36.765625 1.28125 
Q 32.8125 -1.421875 27.59375 -1.421875 
Q 18.953125 -1.421875 14.875 3.484375 
Q 10.796875 8.40625 10.796875 18.890625 
L 10.796875 46.6875 
L 2.6875 46.6875 
L 2.6875 51.90625 
L 19.828125 51.90625 
L 19.828125 21.6875 
Q 19.828125 12.203125 22.140625 8.6875 
Q 24.46875 5.171875 30.421875 5.171875 
Q 36.671875 5.171875 39.9375 9.765625 
Q 43.21875 14.359375 43.21875 23.09375 
L 43.21875 46.6875 
L 35.40625 46.6875 
z
" id="DejaVuSerif-117"/>
      <path d="M 24.703125 0 
L 5.609375 46.6875 
L -0.296875 46.6875 
L -0.296875 51.90625 
L 23.578125 51.90625 
L 23.578125 46.6875 
L 15.28125 46.6875 
L 29.890625 10.984375 
L 44.484375 46.6875 
L 36.71875 46.6875 
L 36.71875 51.90625 
L 56.203125 51.90625 
L 56.203125 46.6875 
L 50.390625 46.6875 
L 31.296875 0 
z
" id="DejaVuSerif-118"/>
     </defs>
     <use xlink:href="#DejaVuSerif-70"/>
     <use x="63.884766" xlink:href="#DejaVuSerif-111"/>
     <use x="124.089844" xlink:href="#DejaVuSerif-108"/>
     <use x="156.072266" xlink:href="#DejaVuSerif-100"/>
     <use x="220.085938" xlink:href="#DejaVuSerif-101"/>
     <use x="279.265625" xlink:href="#DejaVuSerif-100"/>
     <use x="343.279297" xlink:href="#DejaVuSerif-32"/>
     <use x="375.066406" xlink:href="#DejaVuSerif-76"/>
     <use x="441.472656" xlink:href="#DejaVuSerif-105"/>
     <use x="473.455078" xlink:href="#DejaVuSerif-103"/>
     <use x="537.46875" xlink:href="#DejaVuSerif-104"/>
     <use x="601.873047" xlink:href="#DejaVuSerif-116"/>
     <use x="642.058594" xlink:href="#DejaVuSerif-32"/>
     <use x="673.845703" xlink:href="#DejaVuSerif-67"/>
     <use x="750.359375" xlink:href="#DejaVuSerif-117"/>
     <use x="814.763672" xlink:href="#DejaVuSerif-114"/>
     <use x="862.566406" xlink:href="#DejaVuSerif-118"/>
     <use x="919.060547" xlink:href="#DejaVuSerif-101"/>
    </g>
   </g>
  </g>
  <g id="axes_3">
   <g id="patch_13">
    <path d="M 57.6 307.584 
L 414.72 307.584 
L 414.72 198.966857 
L 57.6 198.966857 
z
" style="fill:#ffffff;"/>
   </g>
   <g id="PathCollection_3">
    <g clip-path="url(#p4ce8556f10)">
     <use style="fill:#1f77b4;stroke:#1f77b4;" x="73.832727" xlink:href="#m5629e802a0" y="250.23137"/>
     <use style="fill:#1f77b4;stroke:#1f77b4;" x="73.833119" xlink:href="#m5629e802a0" y="286.366914"/>
     <use style="fill:#1f77b4;stroke:#1f77b4;" x="94.910293" xlink:href="#m5629e802a0" y="250.465199"/>
     <use style="fill:#1f77b4;stroke:#1f77b4;" x="94.910684" xlink:href="#m5629e802a0" y="260.699456"/>
     <use style="fill:#1f77b4;stroke:#1f77b4;" x="96.675449" xlink:href="#m5629e802a0" y="208.561098"/>
     <use style="fill:#1f77b4;stroke:#1f77b4;" x="99.185169" xlink:href="#m5629e802a0" y="237.442402"/>
     <use style="fill:#1f77b4;stroke:#1f77b4;" x="99.18789" xlink:href="#m5629e802a0" y="297.703395"/>
     <use style="fill:#1f77b4;stroke:#1f77b4;" x="121.144305" xlink:href="#m5629e802a0" y="248.831324"/>
     <use style="fill:#1f77b4;stroke:#1f77b4;" x="121.988998" xlink:href="#m5629e802a0" y="271.085765"/>
     <use style="fill:#1f77b4;stroke:#1f77b4;" x="121.98938" xlink:href="#m5629e802a0" y="274.111968"/>
     <use style="fill:#1f77b4;stroke:#1f77b4;" x="123.69785" xlink:href="#m5629e802a0" y="260.766805"/>
     <use style="fill:#1f77b4;stroke:#1f77b4;" x="123.698242" xlink:href="#m5629e802a0" y="289.680345"/>
     <use style="fill:#1f77b4;stroke:#1f77b4;" x="125.362202" xlink:href="#m5629e802a0" y="275.464845"/>
     <use style="fill:#1f77b4;stroke:#1f77b4;" x="125.362594" xlink:href="#m5629e802a0" y="273.613537"/>
     <use style="fill:#1f77b4;stroke:#1f77b4;" x="126.199487" xlink:href="#m5629e802a0" y="288.968769"/>
     <use style="fill:#1f77b4;stroke:#1f77b4;" x="126.199878" xlink:href="#m5629e802a0" y="284.711876"/>
     <use style="fill:#1f77b4;stroke:#1f77b4;" x="127.090237" xlink:href="#m5629e802a0" y="276.228862"/>
     <use style="fill:#1f77b4;stroke:#1f77b4;" x="127.090618" xlink:href="#m5629e802a0" y="241.712765"/>
     <use style="fill:#1f77b4;stroke:#1f77b4;" x="127.899364" xlink:href="#m5629e802a0" y="281.918518"/>
     <use style="fill:#1f77b4;stroke:#1f77b4;" x="127.899756" xlink:href="#m5629e802a0" y="245.21336"/>
     <use style="fill:#1f77b4;stroke:#1f77b4;" x="128.744146" xlink:href="#m5629e802a0" y="270.316451"/>
     <use style="fill:#1f77b4;stroke:#1f77b4;" x="128.744527" xlink:href="#m5629e802a0" y="270.976065"/>
     <use style="fill:#1f77b4;stroke:#1f77b4;" x="136.360585" xlink:href="#m5629e802a0" y="277.228625"/>
     <use style="fill:#1f77b4;stroke:#1f77b4;" x="142.231315" xlink:href="#m5629e802a0" y="267.128107"/>
     <use style="fill:#1f77b4;stroke:#1f77b4;" x="143.073052" xlink:href="#m5629e802a0" y="290.128252"/>
     <use style="fill:#1f77b4;stroke:#1f77b4;" x="143.918832" xlink:href="#m5629e802a0" y="273.37489"/>
     <use style="fill:#1f77b4;stroke:#1f77b4;" x="144.76286" xlink:href="#m5629e802a0" y="287.762143"/>
     <use style="fill:#1f77b4;stroke:#1f77b4;" x="145.612006" xlink:href="#m5629e802a0" y="282.95869"/>
     <use style="fill:#1f77b4;stroke:#1f77b4;" x="155.771705" xlink:href="#m5629e802a0" y="221.909616"/>
     <use style="fill:#1f77b4;stroke:#1f77b4;" x="163.21203" xlink:href="#m5629e802a0" y="241.00409"/>
     <use style="fill:#1f77b4;stroke:#1f77b4;" x="164.180987" xlink:href="#m5629e802a0" y="249.525091"/>
     <use style="fill:#1f77b4;stroke:#1f77b4;" x="165.042171" xlink:href="#m5629e802a0" y="244.207821"/>
     <use style="fill:#1f77b4;stroke:#1f77b4;" x="170.943837" xlink:href="#m5629e802a0" y="236.096713"/>
     <use style="fill:#1f77b4;stroke:#1f77b4;" x="173.496775" xlink:href="#m5629e802a0" y="258.08123"/>
     <use style="fill:#1f77b4;stroke:#1f77b4;" x="207.146958" xlink:href="#m5629e802a0" y="260.72352"/>
     <use style="fill:#1f77b4;stroke:#1f77b4;" x="210.529274" xlink:href="#m5629e802a0" y="268.607054"/>
     <use style="fill:#1f77b4;stroke:#1f77b4;" x="218.978819" xlink:href="#m5629e802a0" y="258.157256"/>
     <use style="fill:#1f77b4;stroke:#1f77b4;" x="346.082599" xlink:href="#m5629e802a0" y="234.324786"/>
     <use style="fill:#1f77b4;stroke:#1f77b4;" x="379.139631" xlink:href="#m5629e802a0" y="227.554524"/>
     <use style="fill:#1f77b4;stroke:#1f77b4;" x="396.853779" xlink:href="#m5629e802a0" y="272.868766"/>
     <use style="fill:#1f77b4;stroke:#1f77b4;" x="396.854161" xlink:href="#m5629e802a0" y="260.930384"/>
     <use style="fill:#1f77b4;stroke:#1f77b4;" x="397.677773" xlink:href="#m5629e802a0" y="227.071505"/>
     <use style="fill:#1f77b4;stroke:#1f77b4;" x="397.678155" xlink:href="#m5629e802a0" y="242.269893"/>
     <use style="fill:#1f77b4;stroke:#1f77b4;" x="398.486891" xlink:href="#m5629e802a0" y="223.436187"/>
     <use style="fill:#1f77b4;stroke:#1f77b4;" x="398.487273" xlink:href="#m5629e802a0" y="218.552899"/>
    </g>
   </g>
   <g id="matplotlib.axis_5">
    <g id="xtick_22">
     <g id="line2d_33">
      <g>
       <use style="stroke:#000000;stroke-width:0.8;" x="97.996351" xlink:href="#m02c1c02843" y="307.584"/>
      </g>
     </g>
     <g id="text_22">
      <!-- 58300 -->
      <g transform="translate(82.090101 322.182437)scale(0.1 -0.1)">
       <defs>
        <path d="M 9.71875 69.828125 
Q 15.4375 71.96875 20.671875 73.09375 
Q 25.921875 74.21875 30.515625 74.21875 
Q 41.21875 74.21875 47.21875 69.59375 
Q 53.21875 64.984375 53.21875 56.78125 
Q 53.21875 50.203125 49.0625 45.78125 
Q 44.921875 41.359375 37.3125 39.796875 
Q 46.296875 38.53125 51.25 33.28125 
Q 56.203125 28.03125 56.203125 19.671875 
Q 56.203125 9.46875 49.34375 4.015625 
Q 42.484375 -1.421875 29.59375 -1.421875 
Q 23.875 -1.421875 18.421875 -0.1875 
Q 12.984375 1.03125 7.625 3.515625 
L 7.625 17.671875 
L 13.09375 17.671875 
Q 13.578125 10.640625 17.828125 7.03125 
Q 22.078125 3.421875 29.78125 3.421875 
Q 37.25 3.421875 41.578125 7.734375 
Q 45.90625 12.0625 45.90625 19.578125 
Q 45.90625 28.171875 41.453125 32.59375 
Q 37.015625 37.015625 28.421875 37.015625 
L 23.78125 37.015625 
L 23.78125 42 
L 26.21875 42 
Q 34.765625 42 39.03125 45.53125 
Q 43.3125 49.078125 43.3125 56.203125 
Q 43.3125 62.59375 39.796875 65.984375 
Q 36.28125 69.390625 29.6875 69.390625 
Q 23.09375 69.390625 19.453125 66.265625 
Q 15.828125 63.140625 15.1875 56.984375 
L 9.71875 56.984375 
z
" id="DejaVuSerif-51"/>
       </defs>
       <use xlink:href="#DejaVuSerif-53"/>
       <use x="63.623047" xlink:href="#DejaVuSerif-56"/>
       <use x="127.246094" xlink:href="#DejaVuSerif-51"/>
       <use x="190.869141" xlink:href="#DejaVuSerif-48"/>
       <use x="254.492188" xlink:href="#DejaVuSerif-48"/>
      </g>
     </g>
    </g>
    <g id="xtick_23">
     <g id="line2d_34">
      <g>
       <use style="stroke:#000000;stroke-width:0.8;" x="140.27554" xlink:href="#m02c1c02843" y="307.584"/>
      </g>
     </g>
     <g id="text_23">
      <!-- 58350 -->
      <g transform="translate(124.36929 322.182437)scale(0.1 -0.1)">
       <use xlink:href="#DejaVuSerif-53"/>
       <use x="63.623047" xlink:href="#DejaVuSerif-56"/>
       <use x="127.246094" xlink:href="#DejaVuSerif-51"/>
       <use x="190.869141" xlink:href="#DejaVuSerif-53"/>
       <use x="254.492188" xlink:href="#DejaVuSerif-48"/>
      </g>
     </g>
    </g>
    <g id="xtick_24">
     <g id="line2d_35">
      <g>
       <use style="stroke:#000000;stroke-width:0.8;" x="182.55473" xlink:href="#m02c1c02843" y="307.584"/>
      </g>
     </g>
     <g id="text_24">
      <!-- 58400 -->
      <g transform="translate(166.64848 322.182437)scale(0.1 -0.1)">
       <use xlink:href="#DejaVuSerif-53"/>
       <use x="63.623047" xlink:href="#DejaVuSerif-56"/>
       <use x="127.246094" xlink:href="#DejaVuSerif-52"/>
       <use x="190.869141" xlink:href="#DejaVuSerif-48"/>
       <use x="254.492188" xlink:href="#DejaVuSerif-48"/>
      </g>
     </g>
    </g>
    <g id="xtick_25">
     <g id="line2d_36">
      <g>
       <use style="stroke:#000000;stroke-width:0.8;" x="224.833919" xlink:href="#m02c1c02843" y="307.584"/>
      </g>
     </g>
     <g id="text_25">
      <!-- 58450 -->
      <g transform="translate(208.927669 322.182437)scale(0.1 -0.1)">
       <use xlink:href="#DejaVuSerif-53"/>
       <use x="63.623047" xlink:href="#DejaVuSerif-56"/>
       <use x="127.246094" xlink:href="#DejaVuSerif-52"/>
       <use x="190.869141" xlink:href="#DejaVuSerif-53"/>
       <use x="254.492188" xlink:href="#DejaVuSerif-48"/>
      </g>
     </g>
    </g>
    <g id="xtick_26">
     <g id="line2d_37">
      <g>
       <use style="stroke:#000000;stroke-width:0.8;" x="267.113108" xlink:href="#m02c1c02843" y="307.584"/>
      </g>
     </g>
     <g id="text_26">
      <!-- 58500 -->
      <g transform="translate(251.206858 322.182437)scale(0.1 -0.1)">
       <use xlink:href="#DejaVuSerif-53"/>
       <use x="63.623047" xlink:href="#DejaVuSerif-56"/>
       <use x="127.246094" xlink:href="#DejaVuSerif-53"/>
       <use x="190.869141" xlink:href="#DejaVuSerif-48"/>
       <use x="254.492188" xlink:href="#DejaVuSerif-48"/>
      </g>
     </g>
    </g>
    <g id="xtick_27">
     <g id="line2d_38">
      <g>
       <use style="stroke:#000000;stroke-width:0.8;" x="309.392298" xlink:href="#m02c1c02843" y="307.584"/>
      </g>
     </g>
     <g id="text_27">
      <!-- 58550 -->
      <g transform="translate(293.486048 322.182437)scale(0.1 -0.1)">
       <use xlink:href="#DejaVuSerif-53"/>
       <use x="63.623047" xlink:href="#DejaVuSerif-56"/>
       <use x="127.246094" xlink:href="#DejaVuSerif-53"/>
       <use x="190.869141" xlink:href="#DejaVuSerif-53"/>
       <use x="254.492188" xlink:href="#DejaVuSerif-48"/>
      </g>
     </g>
    </g>
    <g id="xtick_28">
     <g id="line2d_39">
      <g>
       <use style="stroke:#000000;stroke-width:0.8;" x="351.671487" xlink:href="#m02c1c02843" y="307.584"/>
      </g>
     </g>
     <g id="text_28">
      <!-- 58600 -->
      <g transform="translate(335.765237 322.182437)scale(0.1 -0.1)">
       <use xlink:href="#DejaVuSerif-53"/>
       <use x="63.623047" xlink:href="#DejaVuSerif-56"/>
       <use x="127.246094" xlink:href="#DejaVuSerif-54"/>
       <use x="190.869141" xlink:href="#DejaVuSerif-48"/>
       <use x="254.492188" xlink:href="#DejaVuSerif-48"/>
      </g>
     </g>
    </g>
    <g id="xtick_29">
     <g id="line2d_40">
      <g>
       <use style="stroke:#000000;stroke-width:0.8;" x="393.950677" xlink:href="#m02c1c02843" y="307.584"/>
      </g>
     </g>
     <g id="text_29">
      <!-- 58650 -->
      <g transform="translate(378.044427 322.182437)scale(0.1 -0.1)">
       <use xlink:href="#DejaVuSerif-53"/>
       <use x="63.623047" xlink:href="#DejaVuSerif-56"/>
       <use x="127.246094" xlink:href="#DejaVuSerif-54"/>
       <use x="190.869141" xlink:href="#DejaVuSerif-53"/>
       <use x="254.492188" xlink:href="#DejaVuSerif-48"/>
      </g>
     </g>
    </g>
    <g id="text_30">
     <!-- MJD -->
     <g transform="translate(225.027187 335.860562)scale(0.1 -0.1)">
      <defs>
       <path d="M -8.40625 -17.484375 
L -8.40625 -6 
L -2.828125 -6 
Q -2.6875 -10.84375 -0.53125 -13.203125 
Q 1.609375 -15.578125 5.90625 -15.578125 
Q 11.71875 -15.578125 14.015625 -11.90625 
Q 16.3125 -8.25 16.3125 2.390625 
L 16.3125 67.671875 
L 4.984375 67.671875 
L 4.984375 72.90625 
L 35.5 72.90625 
L 35.5 67.671875 
L 26.21875 67.671875 
L 26.21875 2 
Q 26.21875 -10.0625 21.375 -15.421875 
Q 16.546875 -20.796875 5.8125 -20.796875 
Q 2.34375 -20.796875 -1.234375 -19.96875 
Q -4.828125 -19.140625 -8.40625 -17.484375 
z
" id="DejaVuSerif-74"/>
       <path d="M 24.703125 5.171875 
L 33.796875 5.171875 
Q 48 5.171875 55.59375 13.28125 
Q 63.1875 21.390625 63.1875 36.53125 
Q 63.1875 51.65625 55.609375 59.65625 
Q 48.046875 67.671875 33.796875 67.671875 
L 24.703125 67.671875 
z
M 5.515625 0 
L 5.515625 5.171875 
L 14.796875 5.171875 
L 14.796875 67.671875 
L 5.515625 67.671875 
L 5.515625 72.90625 
L 34.515625 72.90625 
Q 53.375 72.90625 63.890625 63.28125 
Q 74.421875 53.65625 74.421875 36.53125 
Q 74.421875 19.34375 63.875 9.671875 
Q 53.328125 0 34.515625 0 
z
" id="DejaVuSerif-68"/>
      </defs>
      <use xlink:href="#DejaVuSerif-77"/>
      <use x="102.392578" xlink:href="#DejaVuSerif-74"/>
      <use x="142.480469" xlink:href="#DejaVuSerif-68"/>
     </g>
    </g>
   </g>
   <g id="matplotlib.axis_6">
    <g id="ytick_7">
     <g id="line2d_41">
      <g>
       <use style="stroke:#000000;stroke-width:0.8;" x="57.6" xlink:href="#me4aa91b8e0" y="201.286275"/>
      </g>
     </g>
     <g id="text_31">
      <!-- 16.4 -->
      <g transform="translate(28.334375 205.085493)scale(0.1 -0.1)">
       <use xlink:href="#DejaVuSerif-49"/>
       <use x="63.623047" xlink:href="#DejaVuSerif-54"/>
       <use x="127.246094" xlink:href="#DejaVuSerif-46"/>
       <use x="159.033203" xlink:href="#DejaVuSerif-52"/>
      </g>
     </g>
    </g>
    <g id="ytick_8">
     <g id="line2d_42">
      <g>
       <use style="stroke:#000000;stroke-width:0.8;" x="57.6" xlink:href="#me4aa91b8e0" y="226.510517"/>
      </g>
     </g>
     <g id="text_32">
      <!-- 16.5 -->
      <g transform="translate(28.334375 230.309736)scale(0.1 -0.1)">
       <use xlink:href="#DejaVuSerif-49"/>
       <use x="63.623047" xlink:href="#DejaVuSerif-54"/>
       <use x="127.246094" xlink:href="#DejaVuSerif-46"/>
       <use x="159.033203" xlink:href="#DejaVuSerif-53"/>
      </g>
     </g>
    </g>
    <g id="ytick_9">
     <g id="line2d_43">
      <g>
       <use style="stroke:#000000;stroke-width:0.8;" x="57.6" xlink:href="#me4aa91b8e0" y="251.73476"/>
      </g>
     </g>
     <g id="text_33">
      <!-- 16.6 -->
      <g transform="translate(28.334375 255.533979)scale(0.1 -0.1)">
       <use xlink:href="#DejaVuSerif-49"/>
       <use x="63.623047" xlink:href="#DejaVuSerif-54"/>
       <use x="127.246094" xlink:href="#DejaVuSerif-46"/>
       <use x="159.033203" xlink:href="#DejaVuSerif-54"/>
      </g>
     </g>
    </g>
    <g id="ytick_10">
     <g id="line2d_44">
      <g>
       <use style="stroke:#000000;stroke-width:0.8;" x="57.6" xlink:href="#me4aa91b8e0" y="276.959003"/>
      </g>
     </g>
     <g id="text_34">
      <!-- 16.7 -->
      <g transform="translate(28.334375 280.758222)scale(0.1 -0.1)">
       <use xlink:href="#DejaVuSerif-49"/>
       <use x="63.623047" xlink:href="#DejaVuSerif-54"/>
       <use x="127.246094" xlink:href="#DejaVuSerif-46"/>
       <use x="159.033203" xlink:href="#DejaVuSerif-55"/>
      </g>
     </g>
    </g>
    <g id="ytick_11">
     <g id="line2d_45">
      <g>
       <use style="stroke:#000000;stroke-width:0.8;" x="57.6" xlink:href="#me4aa91b8e0" y="302.183246"/>
      </g>
     </g>
     <g id="text_35">
      <!-- 16.8 -->
      <g transform="translate(28.334375 305.982465)scale(0.1 -0.1)">
       <use xlink:href="#DejaVuSerif-49"/>
       <use x="63.623047" xlink:href="#DejaVuSerif-54"/>
       <use x="127.246094" xlink:href="#DejaVuSerif-46"/>
       <use x="159.033203" xlink:href="#DejaVuSerif-56"/>
      </g>
     </g>
    </g>
    <g id="text_36">
     <!-- Mag -->
     <g transform="translate(22.1125 264.576991)rotate(-90)scale(0.1 -0.1)">
      <use xlink:href="#DejaVuSerif-77"/>
      <use x="102.392578" xlink:href="#DejaVuSerif-97"/>
      <use x="162.011719" xlink:href="#DejaVuSerif-103"/>
     </g>
    </g>
   </g>
   <g id="LineCollection_5">
    <path clip-path="url(#p4ce8556f10)" d="M 73.832727 245.457148 
L 73.832727 255.005592 
" style="fill:none;stroke:#1f77b4;stroke-width:0.5;"/>
    <path clip-path="url(#p4ce8556f10)" d="M 73.833119 281.467661 
L 73.833119 291.266167 
" style="fill:none;stroke:#1f77b4;stroke-width:0.5;"/>
    <path clip-path="url(#p4ce8556f10)" d="M 94.910293 245.690242 
L 94.910293 255.240155 
" style="fill:none;stroke:#1f77b4;stroke-width:0.5;"/>
    <path clip-path="url(#p4ce8556f10)" d="M 94.910684 255.891396 
L 94.910684 265.507516 
" style="fill:none;stroke:#1f77b4;stroke-width:0.5;"/>
    <path clip-path="url(#p4ce8556f10)" d="M 96.675449 203.904 
L 96.675449 213.218195 
" style="fill:none;stroke:#1f77b4;stroke-width:0.5;"/>
    <path clip-path="url(#p4ce8556f10)" d="M 99.185169 232.707032 
L 99.185169 242.177771 
" style="fill:none;stroke:#1f77b4;stroke-width:0.5;"/>
    <path clip-path="url(#p4ce8556f10)" d="M 99.18789 292.759933 
L 99.18789 302.646857 
" style="fill:none;stroke:#1f77b4;stroke-width:0.5;"/>
    <path clip-path="url(#p4ce8556f10)" d="M 121.144305 244.061487 
L 121.144305 253.601161 
" style="fill:none;stroke:#1f77b4;stroke-width:0.5;"/>
    <path clip-path="url(#p4ce8556f10)" d="M 121.988998 266.242247 
L 121.988998 275.929283 
" style="fill:none;stroke:#1f77b4;stroke-width:0.5;"/>
    <path clip-path="url(#p4ce8556f10)" d="M 121.98938 269.257755 
L 121.98938 278.966181 
" style="fill:none;stroke:#1f77b4;stroke-width:0.5;"/>
    <path clip-path="url(#p4ce8556f10)" d="M 123.69785 255.958521 
L 123.69785 265.575089 
" style="fill:none;stroke:#1f77b4;stroke-width:0.5;"/>
    <path clip-path="url(#p4ce8556f10)" d="M 123.698242 284.768429 
L 123.698242 294.592262 
" style="fill:none;stroke:#1f77b4;stroke-width:0.5;"/>
    <path clip-path="url(#p4ce8556f10)" d="M 125.362202 270.605795 
L 125.362202 280.323895 
" style="fill:none;stroke:#1f77b4;stroke-width:0.5;"/>
    <path clip-path="url(#p4ce8556f10)" d="M 125.362594 268.761096 
L 125.362594 278.465978 
" style="fill:none;stroke:#1f77b4;stroke-width:0.5;"/>
    <path clip-path="url(#p4ce8556f10)" d="M 126.199487 284.059592 
L 126.199487 293.877947 
" style="fill:none;stroke:#1f77b4;stroke-width:0.5;"/>
    <path clip-path="url(#p4ce8556f10)" d="M 126.199878 279.81887 
L 126.199878 289.604882 
" style="fill:none;stroke:#1f77b4;stroke-width:0.5;"/>
    <path clip-path="url(#p4ce8556f10)" d="M 127.090237 271.367068 
L 127.090237 281.090656 
" style="fill:none;stroke:#1f77b4;stroke-width:0.5;"/>
    <path clip-path="url(#p4ce8556f10)" d="M 127.090618 236.96472 
L 127.090618 246.46081 
" style="fill:none;stroke:#1f77b4;stroke-width:0.5;"/>
    <path clip-path="url(#p4ce8556f10)" d="M 127.899364 277.035939 
L 127.899364 286.801097 
" style="fill:none;stroke:#1f77b4;stroke-width:0.5;"/>
    <path clip-path="url(#p4ce8556f10)" d="M 127.899756 240.454703 
L 127.899756 249.972017 
" style="fill:none;stroke:#1f77b4;stroke-width:0.5;"/>
    <path clip-path="url(#p4ce8556f10)" d="M 128.744146 265.475625 
L 128.744146 275.157277 
" style="fill:none;stroke:#1f77b4;stroke-width:0.5;"/>
    <path clip-path="url(#p4ce8556f10)" d="M 128.744527 266.13293 
L 128.744527 275.8192 
" style="fill:none;stroke:#1f77b4;stroke-width:0.5;"/>
    <path clip-path="url(#p4ce8556f10)" d="M 136.360585 272.363222 
L 136.360585 282.094028 
" style="fill:none;stroke:#1f77b4;stroke-width:0.5;"/>
    <path clip-path="url(#p4ce8556f10)" d="M 142.231315 262.298325 
L 142.231315 271.957888 
" style="fill:none;stroke:#1f77b4;stroke-width:0.5;"/>
    <path clip-path="url(#p4ce8556f10)" d="M 143.073052 285.214608 
L 143.073052 295.041896 
" style="fill:none;stroke:#1f77b4;stroke-width:0.5;"/>
    <path clip-path="url(#p4ce8556f10)" d="M 143.918832 268.523297 
L 143.918832 278.226484 
" style="fill:none;stroke:#1f77b4;stroke-width:0.5;"/>
    <path clip-path="url(#p4ce8556f10)" d="M 144.76286 282.857582 
L 144.76286 292.666703 
" style="fill:none;stroke:#1f77b4;stroke-width:0.5;"/>
    <path clip-path="url(#p4ce8556f10)" d="M 145.612006 278.072246 
L 145.612006 287.845134 
" style="fill:none;stroke:#1f77b4;stroke-width:0.5;"/>
    <path clip-path="url(#p4ce8556f10)" d="M 155.771705 217.217918 
L 155.771705 226.601313 
" style="fill:none;stroke:#1f77b4;stroke-width:0.5;"/>
    <path clip-path="url(#p4ce8556f10)" d="M 163.21203 236.25817 
L 163.21203 245.75001 
" style="fill:none;stroke:#1f77b4;stroke-width:0.5;"/>
    <path clip-path="url(#p4ce8556f10)" d="M 164.180987 244.753086 
L 164.180987 254.297097 
" style="fill:none;stroke:#1f77b4;stroke-width:0.5;"/>
    <path clip-path="url(#p4ce8556f10)" d="M 165.042171 239.452233 
L 165.042171 248.963409 
" style="fill:none;stroke:#1f77b4;stroke-width:0.5;"/>
    <path clip-path="url(#p4ce8556f10)" d="M 170.943837 231.365278 
L 170.943837 240.828149 
" style="fill:none;stroke:#1f77b4;stroke-width:0.5;"/>
    <path clip-path="url(#p4ce8556f10)" d="M 173.496775 253.281811 
L 173.496775 262.88065 
" style="fill:none;stroke:#1f77b4;stroke-width:0.5;"/>
    <path clip-path="url(#p4ce8556f10)" d="M 207.146958 255.91538 
L 207.146958 265.53166 
" style="fill:none;stroke:#1f77b4;stroke-width:0.5;"/>
    <path clip-path="url(#p4ce8556f10)" d="M 210.529274 263.772173 
L 210.529274 273.441936 
" style="fill:none;stroke:#1f77b4;stroke-width:0.5;"/>
    <path clip-path="url(#p4ce8556f10)" d="M 218.978819 253.357587 
L 218.978819 262.956925 
" style="fill:none;stroke:#1f77b4;stroke-width:0.5;"/>
    <path clip-path="url(#p4ce8556f10)" d="M 346.082599 229.598486 
L 346.082599 239.051087 
" style="fill:none;stroke:#1f77b4;stroke-width:0.5;"/>
    <path clip-path="url(#p4ce8556f10)" d="M 379.139631 222.84739 
L 379.139631 232.261658 
" style="fill:none;stroke:#1f77b4;stroke-width:0.5;"/>
    <path clip-path="url(#p4ce8556f10)" d="M 396.853779 268.018966 
L 396.853779 277.718566 
" style="fill:none;stroke:#1f77b4;stroke-width:0.5;"/>
    <path clip-path="url(#p4ce8556f10)" d="M 396.854161 256.121556 
L 396.854161 265.739212 
" style="fill:none;stroke:#1f77b4;stroke-width:0.5;"/>
    <path clip-path="url(#p4ce8556f10)" d="M 397.677773 222.365711 
L 397.677773 231.777299 
" style="fill:none;stroke:#1f77b4;stroke-width:0.5;"/>
    <path clip-path="url(#p4ce8556f10)" d="M 397.678155 237.520172 
L 397.678155 247.019613 
" style="fill:none;stroke:#1f77b4;stroke-width:0.5;"/>
    <path clip-path="url(#p4ce8556f10)" d="M 398.486891 218.740364 
L 398.486891 228.132009 
" style="fill:none;stroke:#1f77b4;stroke-width:0.5;"/>
    <path clip-path="url(#p4ce8556f10)" d="M 398.487273 213.870153 
L 398.487273 223.235646 
" style="fill:none;stroke:#1f77b4;stroke-width:0.5;"/>
   </g>
   <g id="line2d_46">
    <path clip-path="url(#p4ce8556f10)" d="M 73.832727 250.23137 
L 73.833119 286.366914 
L 94.910293 250.465199 
L 94.910684 260.699456 
L 96.675449 208.561098 
L 99.185169 237.442402 
L 99.18789 297.703395 
L 121.144305 248.831324 
L 121.988998 271.085765 
L 121.98938 274.111968 
L 123.69785 260.766805 
L 123.698242 289.680345 
L 125.362202 275.464845 
L 125.362594 273.613537 
L 126.199487 288.968769 
L 126.199878 284.711876 
L 127.090237 276.228862 
L 127.090618 241.712765 
L 127.899364 281.918518 
L 127.899756 245.21336 
L 128.744146 270.316451 
L 128.744527 270.976065 
L 136.360585 277.228625 
L 142.231315 267.128107 
L 143.073052 290.128252 
L 143.918832 273.37489 
L 144.76286 287.762143 
L 145.612006 282.95869 
L 155.771705 221.909616 
L 163.21203 241.00409 
L 164.180987 249.525091 
L 165.042171 244.207821 
L 170.943837 236.096713 
L 173.496775 258.08123 
L 207.146958 260.72352 
L 210.529274 268.607054 
L 218.978819 258.157256 
L 346.082599 234.324786 
L 379.139631 227.554524 
L 396.853779 272.868766 
L 396.854161 260.930384 
L 397.677773 227.071505 
L 397.678155 242.269893 
L 398.486891 223.436187 
L 398.487273 218.552899 
" style="fill:none;"/>
   </g>
   <g id="patch_14">
    <path d="M 57.6 307.584 
L 57.6 198.966857 
" style="fill:none;stroke:#000000;stroke-linecap:square;stroke-linejoin:miter;stroke-width:0.8;"/>
   </g>
   <g id="patch_15">
    <path d="M 414.72 307.584 
L 414.72 198.966857 
" style="fill:none;stroke:#000000;stroke-linecap:square;stroke-linejoin:miter;stroke-width:0.8;"/>
   </g>
   <g id="patch_16">
    <path d="M 57.6 307.584 
L 414.72 307.584 
" style="fill:none;stroke:#000000;stroke-linecap:square;stroke-linejoin:miter;stroke-width:0.8;"/>
   </g>
   <g id="patch_17">
    <path d="M 57.6 198.966857 
L 414.72 198.966857 
" style="fill:none;stroke:#000000;stroke-linecap:square;stroke-linejoin:miter;stroke-width:0.8;"/>
   </g>
   <g id="text_37">
    <!-- Light Curve -->
    <g transform="translate(206.000625 192.966857)scale(0.1 -0.1)">
     <use xlink:href="#DejaVuSerif-76"/>
     <use x="66.40625" xlink:href="#DejaVuSerif-105"/>
     <use x="98.388672" xlink:href="#DejaVuSerif-103"/>
     <use x="162.402344" xlink:href="#DejaVuSerif-104"/>
     <use x="226.806641" xlink:href="#DejaVuSerif-116"/>
     <use x="266.992188" xlink:href="#DejaVuSerif-32"/>
     <use x="298.779297" xlink:href="#DejaVuSerif-67"/>
     <use x="375.292969" xlink:href="#DejaVuSerif-117"/>
     <use x="439.697266" xlink:href="#DejaVuSerif-114"/>
     <use x="487.5" xlink:href="#DejaVuSerif-118"/>
     <use x="543.994141" xlink:href="#DejaVuSerif-101"/>
    </g>
   </g>
  </g>
 </g>
 <defs>
  <clipPath id="p037cf3bedf">
   <rect height="108.617143" width="148.8" x="265.92" y="41.472"/>
  </clipPath>
  <clipPath id="p93a896d97b">
   <rect height="108.617143" width="148.8" x="57.6" y="41.472"/>
  </clipPath>
  <clipPath id="p4ce8556f10">
   <rect height="108.617143" width="357.12" x="57.6" y="198.966857"/>
  </clipPath>
 </defs>
</svg>
