<?xml version="1.0" encoding="utf-8" standalone="no"?>
<!DOCTYPE svg PUBLIC "-//W3C//DTD SVG 1.1//EN"
  "http://www.w3.org/Graphics/SVG/1.1/DTD/svg11.dtd">
<!-- Created with matplotlib (https://matplotlib.org/) -->
<svg height="345.6pt" version="1.1" viewBox="0 0 460.8 345.6" width="460.8pt" xmlns="http://www.w3.org/2000/svg" xmlns:xlink="http://www.w3.org/1999/xlink">
 <metadata>
  <rdf:RDF xmlns:cc="http://creativecommons.org/ns#" xmlns:dc="http://purl.org/dc/elements/1.1/" xmlns:rdf="http://www.w3.org/1999/02/22-rdf-syntax-ns#">
   <cc:Work>
    <dc:type rdf:resource="http://purl.org/dc/dcmitype/StillImage"/>
    <dc:date>2021-02-24T00:22:10.942490</dc:date>
    <dc:format>image/svg+xml</dc:format>
    <dc:creator>
     <cc:Agent>
      <dc:title>Matplotlib v3.3.3, https://matplotlib.org/</dc:title>
     </cc:Agent>
    </dc:creator>
   </cc:Work>
  </rdf:RDF>
 </metadata>
 <defs>
  <style type="text/css">*{stroke-linecap:butt;stroke-linejoin:round;}</style>
 </defs>
 <g id="figure_1">
  <g id="patch_1">
   <path d="M 0 345.6 
L 460.8 345.6 
L 460.8 0 
L 0 0 
z
" style="fill:#ffffff;"/>
  </g>
  <g id="axes_1">
   <g id="patch_2">
    <path d="M 265.92 150.089143 
L 414.72 150.089143 
L 414.72 41.472 
L 265.92 41.472 
z
" style="fill:#ffffff;"/>
   </g>
   <g id="matplotlib.axis_1">
    <g id="xtick_1">
     <g id="line2d_1">
      <defs>
       <path d="M 0 0 
L 0 3.5 
" id="m3952984995" style="stroke:#000000;stroke-width:0.8;"/>
      </defs>
      <g>
       <use style="stroke:#000000;stroke-width:0.8;" x="326.985138" xlink:href="#m3952984995" y="150.089143"/>
      </g>
     </g>
     <g id="text_1">
      <!-- $\mathdefault{10^{1}}$ -->
      <g transform="translate(318.185138 164.68758)scale(0.1 -0.1)">
       <defs>
        <path d="M 14.203125 0 
L 14.203125 5.171875 
L 26.90625 5.171875 
L 26.90625 65.828125 
L 12.203125 56.296875 
L 12.203125 62.703125 
L 29.984375 74.21875 
L 36.71875 74.21875 
L 36.71875 5.171875 
L 49.421875 5.171875 
L 49.421875 0 
z
" id="DejaVuSerif-49"/>
        <path d="M 31.78125 3.421875 
Q 39.265625 3.421875 42.96875 11.625 
Q 46.6875 19.828125 46.6875 36.375 
Q 46.6875 52.984375 42.96875 61.1875 
Q 39.265625 69.390625 31.78125 69.390625 
Q 24.3125 69.390625 20.59375 61.1875 
Q 16.890625 52.984375 16.890625 36.375 
Q 16.890625 19.828125 20.59375 11.625 
Q 24.3125 3.421875 31.78125 3.421875 
z
M 31.78125 -1.421875 
Q 19.921875 -1.421875 13.25 8.53125 
Q 6.59375 18.5 6.59375 36.375 
Q 6.59375 54.296875 13.25 64.25 
Q 19.921875 74.21875 31.78125 74.21875 
Q 43.703125 74.21875 50.34375 64.25 
Q 56.984375 54.296875 56.984375 36.375 
Q 56.984375 18.5 50.34375 8.53125 
Q 43.703125 -1.421875 31.78125 -1.421875 
z
" id="DejaVuSerif-48"/>
       </defs>
       <use transform="translate(0 0.7125)" xlink:href="#DejaVuSerif-49"/>
       <use transform="translate(63.623047 0.7125)" xlink:href="#DejaVuSerif-48"/>
       <use transform="translate(128.154453 37.046875)scale(0.7)" xlink:href="#DejaVuSerif-49"/>
      </g>
     </g>
    </g>
    <g id="xtick_2">
     <g id="line2d_2">
      <g>
       <use style="stroke:#000000;stroke-width:0.8;" x="400.12039" xlink:href="#m3952984995" y="150.089143"/>
      </g>
     </g>
     <g id="text_2">
      <!-- $\mathdefault{10^{2}}$ -->
      <g transform="translate(391.32039 164.68758)scale(0.1 -0.1)">
       <defs>
        <path d="M 12.796875 55.515625 
L 7.328125 55.515625 
L 7.328125 68.5 
Q 12.546875 71.296875 17.84375 72.75 
Q 23.140625 74.21875 28.21875 74.21875 
Q 39.59375 74.21875 46.1875 68.703125 
Q 52.78125 63.1875 52.78125 53.71875 
Q 52.78125 43.015625 37.84375 28.125 
Q 36.671875 27 36.078125 26.421875 
L 17.671875 8.015625 
L 48.09375 8.015625 
L 48.09375 17 
L 53.8125 17 
L 53.8125 0 
L 6.78125 0 
L 6.78125 5.328125 
L 28.90625 27.390625 
Q 36.234375 34.71875 39.359375 40.84375 
Q 42.484375 46.96875 42.484375 53.71875 
Q 42.484375 61.078125 38.640625 65.234375 
Q 34.8125 69.390625 28.078125 69.390625 
Q 21.09375 69.390625 17.28125 65.921875 
Q 13.484375 62.453125 12.796875 55.515625 
z
" id="DejaVuSerif-50"/>
       </defs>
       <use transform="translate(0 0.7125)" xlink:href="#DejaVuSerif-49"/>
       <use transform="translate(63.623047 0.7125)" xlink:href="#DejaVuSerif-48"/>
       <use transform="translate(128.154453 37.046875)scale(0.7)" xlink:href="#DejaVuSerif-50"/>
      </g>
     </g>
    </g>
    <g id="xtick_3">
     <g id="line2d_3">
      <defs>
       <path d="M 0 0 
L 0 2 
" id="mdf10aa5840" style="stroke:#000000;stroke-width:0.6;"/>
      </defs>
      <g>
       <use style="stroke:#000000;stroke-width:0.6;" x="275.86579" xlink:href="#mdf10aa5840" y="150.089143"/>
      </g>
     </g>
    </g>
    <g id="xtick_4">
     <g id="line2d_4">
      <g>
       <use style="stroke:#000000;stroke-width:0.6;" x="288.744269" xlink:href="#mdf10aa5840" y="150.089143"/>
      </g>
     </g>
    </g>
    <g id="xtick_5">
     <g id="line2d_5">
      <g>
       <use style="stroke:#000000;stroke-width:0.6;" x="297.881695" xlink:href="#mdf10aa5840" y="150.089143"/>
      </g>
     </g>
    </g>
    <g id="xtick_6">
     <g id="line2d_6">
      <g>
       <use style="stroke:#000000;stroke-width:0.6;" x="304.969233" xlink:href="#mdf10aa5840" y="150.089143"/>
      </g>
     </g>
    </g>
    <g id="xtick_7">
     <g id="line2d_7">
      <g>
       <use style="stroke:#000000;stroke-width:0.6;" x="310.760174" xlink:href="#mdf10aa5840" y="150.089143"/>
      </g>
     </g>
    </g>
    <g id="xtick_8">
     <g id="line2d_8">
      <g>
       <use style="stroke:#000000;stroke-width:0.6;" x="315.656344" xlink:href="#mdf10aa5840" y="150.089143"/>
      </g>
     </g>
    </g>
    <g id="xtick_9">
     <g id="line2d_9">
      <g>
       <use style="stroke:#000000;stroke-width:0.6;" x="319.8976" xlink:href="#mdf10aa5840" y="150.089143"/>
      </g>
     </g>
    </g>
    <g id="xtick_10">
     <g id="line2d_10">
      <g>
       <use style="stroke:#000000;stroke-width:0.6;" x="323.638652" xlink:href="#mdf10aa5840" y="150.089143"/>
      </g>
     </g>
    </g>
    <g id="xtick_11">
     <g id="line2d_11">
      <g>
       <use style="stroke:#000000;stroke-width:0.6;" x="349.001043" xlink:href="#mdf10aa5840" y="150.089143"/>
      </g>
     </g>
    </g>
    <g id="xtick_12">
     <g id="line2d_12">
      <g>
       <use style="stroke:#000000;stroke-width:0.6;" x="361.879521" xlink:href="#mdf10aa5840" y="150.089143"/>
      </g>
     </g>
    </g>
    <g id="xtick_13">
     <g id="line2d_13">
      <g>
       <use style="stroke:#000000;stroke-width:0.6;" x="371.016947" xlink:href="#mdf10aa5840" y="150.089143"/>
      </g>
     </g>
    </g>
    <g id="xtick_14">
     <g id="line2d_14">
      <g>
       <use style="stroke:#000000;stroke-width:0.6;" x="378.104486" xlink:href="#mdf10aa5840" y="150.089143"/>
      </g>
     </g>
    </g>
    <g id="xtick_15">
     <g id="line2d_15">
      <g>
       <use style="stroke:#000000;stroke-width:0.6;" x="383.895426" xlink:href="#mdf10aa5840" y="150.089143"/>
      </g>
     </g>
    </g>
    <g id="xtick_16">
     <g id="line2d_16">
      <g>
       <use style="stroke:#000000;stroke-width:0.6;" x="388.791597" xlink:href="#mdf10aa5840" y="150.089143"/>
      </g>
     </g>
    </g>
    <g id="xtick_17">
     <g id="line2d_17">
      <g>
       <use style="stroke:#000000;stroke-width:0.6;" x="393.032852" xlink:href="#mdf10aa5840" y="150.089143"/>
      </g>
     </g>
    </g>
    <g id="xtick_18">
     <g id="line2d_18">
      <g>
       <use style="stroke:#000000;stroke-width:0.6;" x="396.773905" xlink:href="#mdf10aa5840" y="150.089143"/>
      </g>
     </g>
    </g>
    <g id="text_3">
     <!-- Period d -->
     <g transform="translate(319.231719 178.365705)scale(0.1 -0.1)">
      <defs>
       <path d="M 24.703125 37.109375 
L 37.59375 37.109375 
Q 44.875 37.109375 48.671875 41.03125 
Q 52.484375 44.96875 52.484375 52.390625 
Q 52.484375 59.859375 48.671875 63.765625 
Q 44.875 67.671875 37.59375 67.671875 
L 24.703125 67.671875 
z
M 5.515625 0 
L 5.515625 5.171875 
L 14.796875 5.171875 
L 14.796875 67.671875 
L 5.515625 67.671875 
L 5.515625 72.90625 
L 39.984375 72.90625 
Q 50.921875 72.90625 57.3125 67.359375 
Q 63.71875 61.8125 63.71875 52.390625 
Q 63.71875 43.015625 57.3125 37.453125 
Q 50.921875 31.890625 39.984375 31.890625 
L 24.703125 31.890625 
L 24.703125 5.171875 
L 35.984375 5.171875 
L 35.984375 0 
z
" id="DejaVuSerif-80"/>
       <path d="M 54.203125 25 
L 15.484375 25 
L 15.484375 24.609375 
Q 15.484375 14.109375 19.4375 8.765625 
Q 23.390625 3.421875 31.109375 3.421875 
Q 37.015625 3.421875 40.796875 6.515625 
Q 44.578125 9.625 46.09375 15.71875 
L 53.328125 15.71875 
Q 51.171875 7.171875 45.375 2.875 
Q 39.59375 -1.421875 30.171875 -1.421875 
Q 18.796875 -1.421875 11.890625 6.078125 
Q 4.984375 13.578125 4.984375 25.984375 
Q 4.984375 38.28125 11.765625 45.796875 
Q 18.5625 53.328125 29.59375 53.328125 
Q 41.359375 53.328125 47.65625 46.0625 
Q 53.953125 38.8125 54.203125 25 
z
M 43.609375 30.171875 
Q 43.3125 39.265625 39.765625 43.875 
Q 36.234375 48.484375 29.59375 48.484375 
Q 23.390625 48.484375 19.828125 43.84375 
Q 16.265625 39.203125 15.484375 30.171875 
z
" id="DejaVuSerif-101"/>
       <path d="M 47.796875 52 
L 47.796875 39.015625 
L 42.625 39.015625 
Q 42.390625 42.875 40.484375 44.78125 
Q 38.578125 46.6875 34.90625 46.6875 
Q 28.265625 46.6875 24.71875 42.09375 
Q 21.1875 37.5 21.1875 28.90625 
L 21.1875 5.171875 
L 31.59375 5.171875 
L 31.59375 0 
L 4.109375 0 
L 4.109375 5.171875 
L 12.203125 5.171875 
L 12.203125 46.78125 
L 3.609375 46.78125 
L 3.609375 51.90625 
L 21.1875 51.90625 
L 21.1875 42.671875 
Q 23.828125 48.09375 27.96875 50.703125 
Q 32.125 53.328125 38.09375 53.328125 
Q 40.28125 53.328125 42.703125 52.984375 
Q 45.125 52.640625 47.796875 52 
z
" id="DejaVuSerif-114"/>
       <path d="M 9.71875 68.015625 
Q 9.71875 70.265625 11.34375 71.921875 
Q 12.984375 73.578125 15.28125 73.578125 
Q 17.53125 73.578125 19.15625 71.921875 
Q 20.796875 70.265625 20.796875 68.015625 
Q 20.796875 65.71875 19.1875 64.109375 
Q 17.578125 62.5 15.28125 62.5 
Q 12.984375 62.5 11.34375 64.109375 
Q 9.71875 65.71875 9.71875 68.015625 
z
M 21.1875 5.171875 
L 29.6875 5.171875 
L 29.6875 0 
L 3.609375 0 
L 3.609375 5.171875 
L 12.203125 5.171875 
L 12.203125 46.6875 
L 3.609375 46.6875 
L 3.609375 51.90625 
L 21.1875 51.90625 
z
" id="DejaVuSerif-105"/>
       <path d="M 30.078125 3.421875 
Q 37.3125 3.421875 40.984375 9.125 
Q 44.671875 14.84375 44.671875 25.984375 
Q 44.671875 37.109375 40.984375 42.796875 
Q 37.3125 48.484375 30.078125 48.484375 
Q 22.859375 48.484375 19.171875 42.796875 
Q 15.484375 37.109375 15.484375 25.984375 
Q 15.484375 14.84375 19.1875 9.125 
Q 22.90625 3.421875 30.078125 3.421875 
z
M 30.078125 -1.421875 
Q 18.75 -1.421875 11.859375 6.078125 
Q 4.984375 13.578125 4.984375 25.984375 
Q 4.984375 38.375 11.84375 45.84375 
Q 18.703125 53.328125 30.078125 53.328125 
Q 41.453125 53.328125 48.3125 45.84375 
Q 55.171875 38.375 55.171875 25.984375 
Q 55.171875 13.578125 48.3125 6.078125 
Q 41.453125 -1.421875 30.078125 -1.421875 
z
" id="DejaVuSerif-111"/>
       <path d="M 52.484375 5.171875 
L 61.078125 5.171875 
L 61.078125 0 
L 43.5 0 
L 43.5 8.109375 
Q 40.875 3.21875 36.796875 0.890625 
Q 32.71875 -1.421875 26.703125 -1.421875 
Q 17.140625 -1.421875 11.0625 6.171875 
Q 4.984375 13.765625 4.984375 25.984375 
Q 4.984375 38.1875 11.03125 45.75 
Q 17.09375 53.328125 26.703125 53.328125 
Q 32.71875 53.328125 36.796875 51 
Q 40.875 48.6875 43.5 43.796875 
L 43.5 70.796875 
L 35.015625 70.796875 
L 35.015625 75.984375 
L 52.484375 75.984375 
z
M 43.5 23.390625 
L 43.5 28.515625 
Q 43.5 37.84375 39.90625 42.765625 
Q 36.328125 47.703125 29.5 47.703125 
Q 22.5625 47.703125 19.015625 42.234375 
Q 15.484375 36.765625 15.484375 25.984375 
Q 15.484375 15.234375 19.015625 9.71875 
Q 22.5625 4.203125 29.5 4.203125 
Q 36.328125 4.203125 39.90625 9.109375 
Q 43.5 14.015625 43.5 23.390625 
z
" id="DejaVuSerif-100"/>
       <path id="DejaVuSerif-32"/>
      </defs>
      <use xlink:href="#DejaVuSerif-80"/>
      <use x="62.785156" xlink:href="#DejaVuSerif-101"/>
      <use x="121.964844" xlink:href="#DejaVuSerif-114"/>
      <use x="169.767578" xlink:href="#DejaVuSerif-105"/>
      <use x="201.75" xlink:href="#DejaVuSerif-111"/>
      <use x="261.955078" xlink:href="#DejaVuSerif-100"/>
      <use x="325.96875" xlink:href="#DejaVuSerif-32"/>
      <use x="357.755859" xlink:href="#DejaVuSerif-100"/>
     </g>
    </g>
   </g>
   <g id="matplotlib.axis_2">
    <g id="ytick_1">
     <g id="line2d_19">
      <defs>
       <path d="M 0 0 
L -3.5 0 
" id="mdbe64e7f2c" style="stroke:#000000;stroke-width:0.8;"/>
      </defs>
      <g>
       <use style="stroke:#000000;stroke-width:0.8;" x="265.92" xlink:href="#mdbe64e7f2c" y="145.176422"/>
      </g>
     </g>
     <g id="text_4">
      <!-- 0.0 -->
      <g transform="translate(243.016875 148.975641)scale(0.1 -0.1)">
       <defs>
        <path d="M 9.421875 5.078125 
Q 9.421875 7.8125 11.28125 9.71875 
Q 13.140625 11.625 15.921875 11.625 
Q 18.609375 11.625 20.5 9.71875 
Q 22.40625 7.8125 22.40625 5.078125 
Q 22.40625 2.390625 20.5 0.484375 
Q 18.609375 -1.421875 15.921875 -1.421875 
Q 13.140625 -1.421875 11.28125 0.453125 
Q 9.421875 2.34375 9.421875 5.078125 
z
" id="DejaVuSerif-46"/>
       </defs>
       <use xlink:href="#DejaVuSerif-48"/>
       <use x="63.623047" xlink:href="#DejaVuSerif-46"/>
       <use x="95.410156" xlink:href="#DejaVuSerif-48"/>
      </g>
     </g>
    </g>
    <g id="ytick_2">
     <g id="line2d_20">
      <g>
       <use style="stroke:#000000;stroke-width:0.8;" x="265.92" xlink:href="#mdbe64e7f2c" y="102.139215"/>
      </g>
     </g>
     <g id="text_5">
      <!-- 0.2 -->
      <g transform="translate(243.016875 105.938434)scale(0.1 -0.1)">
       <use xlink:href="#DejaVuSerif-48"/>
       <use x="63.623047" xlink:href="#DejaVuSerif-46"/>
       <use x="95.410156" xlink:href="#DejaVuSerif-50"/>
      </g>
     </g>
    </g>
    <g id="ytick_3">
     <g id="line2d_21">
      <g>
       <use style="stroke:#000000;stroke-width:0.8;" x="265.92" xlink:href="#mdbe64e7f2c" y="59.102007"/>
      </g>
     </g>
     <g id="text_6">
      <!-- 0.4 -->
      <g transform="translate(243.016875 62.901226)scale(0.1 -0.1)">
       <defs>
        <path d="M 34.90625 24.703125 
L 34.90625 63.484375 
L 10.015625 24.703125 
z
M 56.390625 0 
L 23.1875 0 
L 23.1875 5.171875 
L 34.90625 5.171875 
L 34.90625 19.484375 
L 3.078125 19.484375 
L 3.078125 24.8125 
L 35.015625 74.21875 
L 44.671875 74.21875 
L 44.671875 24.703125 
L 58.59375 24.703125 
L 58.59375 19.484375 
L 44.671875 19.484375 
L 44.671875 5.171875 
L 56.390625 5.171875 
z
" id="DejaVuSerif-52"/>
       </defs>
       <use xlink:href="#DejaVuSerif-48"/>
       <use x="63.623047" xlink:href="#DejaVuSerif-46"/>
       <use x="95.410156" xlink:href="#DejaVuSerif-52"/>
      </g>
     </g>
    </g>
    <g id="text_7">
     <!-- Power -->
     <g transform="translate(236.937188 111.583696)rotate(-90)scale(0.1 -0.1)">
      <defs>
       <path d="M 48 51.90625 
L 61.28125 11.375 
L 73 46.6875 
L 65.484375 46.6875 
L 65.484375 51.90625 
L 84.28125 51.90625 
L 84.28125 46.6875 
L 78.515625 46.6875 
L 63.09375 0 
L 55.609375 0 
L 42.828125 38.8125 
L 29.984375 0 
L 22.796875 0 
L 7.421875 46.6875 
L 1.609375 46.6875 
L 1.609375 51.90625 
L 25.09375 51.90625 
L 25.09375 46.6875 
L 16.703125 46.6875 
L 28.328125 11.375 
L 41.703125 51.90625 
z
" id="DejaVuSerif-119"/>
      </defs>
      <use xlink:href="#DejaVuSerif-80"/>
      <use x="63.285156" xlink:href="#DejaVuSerif-111"/>
      <use x="123.490234" xlink:href="#DejaVuSerif-119"/>
      <use x="209.085938" xlink:href="#DejaVuSerif-101"/>
      <use x="268.265625" xlink:href="#DejaVuSerif-114"/>
     </g>
    </g>
   </g>
   <g id="LineCollection_1">
    <path clip-path="url(#pae15030773)" d="M 272.695273 46.409143 
L 407.956364 46.409143 
" style="fill:none;stroke:#808080;stroke-dasharray:5.55,2.4;stroke-dashoffset:0;stroke-width:1.5;"/>
   </g>
   <g id="LineCollection_2">
    <path clip-path="url(#pae15030773)" d="M 272.695273 60.399987 
L 407.956364 60.399987 
" style="fill:none;stroke:#a9a9a9;stroke-dasharray:5.55,2.4;stroke-dashoffset:0;stroke-width:1.5;"/>
   </g>
   <g id="LineCollection_3">
    <path clip-path="url(#pae15030773)" d="M 272.695273 71.390192 
L 407.956364 71.390192 
" style="fill:none;stroke:#c0c0c0;stroke-dasharray:5.55,2.4;stroke-dashoffset:0;stroke-width:1.5;"/>
   </g>
   <g id="LineCollection_4">
    <path clip-path="url(#pae15030773)" d="M 272.695273 76.574161 
L 407.956364 76.574161 
" style="fill:none;stroke:#d3d3d3;stroke-dasharray:5.55,2.4;stroke-dashoffset:0;stroke-width:1.5;"/>
   </g>
   <g id="line2d_22">
    <path clip-path="url(#pae15030773)" d="M 407.956364 142.252195 
L 405.906476 144.96759 
L 403.980902 140.909025 
L 402.165423 136.324431 
L 400.448127 132.815171 
L 398.818938 132.748773 
L 397.269253 136.761589 
L 395.791673 140.97709 
L 394.379786 143.66929 
L 393.027997 144.319069 
L 391.731399 135.504915 
L 390.485662 126.17688 
L 389.286945 122.130627 
L 388.131827 122.598594 
L 387.017248 130.642055 
L 385.940459 142.454208 
L 384.898981 135.519689 
L 383.890571 127.291229 
L 382.913194 122.760146 
L 381.964998 122.79002 
L 381.044289 132.927369 
L 380.149518 139.096776 
L 379.279266 129.216778 
L 378.432223 121.875442 
L 377.607183 117.707625 
L 376.803033 118.764213 
L 375.253348 138.209983 
L 374.505967 136.320508 
L 373.775768 132.680679 
L 373.06198 130.787213 
L 372.363881 130.0055 
L 371.680796 129.024024 
L 371.012092 134.673177 
L 370.357178 141.828888 
L 369.715495 138.333855 
L 369.086519 132.454461 
L 368.469757 135.721366 
L 367.864744 142.382714 
L 367.27104 144.701332 
L 366.115922 125.193661 
L 365.553744 122.681417 
L 365.001343 125.56466 
L 364.458386 133.390932 
L 363.924554 129.24183 
L 363.399547 108.323582 
L 362.883076 100.894958 
L 362.374869 105.729685 
L 361.874666 118.097749 
L 361.382219 137.089831 
L 360.89729 143.785827 
L 360.419653 135.51007 
L 359.949093 132.150287 
L 359.485402 136.345036 
L 359.028384 143.515791 
L 358.577848 143.532173 
L 357.695507 132.114149 
L 357.263361 132.369881 
L 356.837016 137.269154 
L 356.416318 139.930892 
L 356.001119 140.419211 
L 355.591278 143.920295 
L 355.186658 144.328256 
L 354.787128 131.965264 
L 354.392561 108.170687 
L 354.002836 99.745712 
L 353.617834 105.977322 
L 352.861555 141.389269 
L 352.490062 139.327761 
L 352.122865 125.854299 
L 351.759864 121.856875 
L 351.046076 140.421887 
L 350.347976 118.590518 
L 350.004597 114.797856 
L 349.664891 122.69549 
L 349.32878 138.475883 
L 348.996188 137.381969 
L 348.667042 116.826789 
L 348.341273 105.154034 
L 348.018811 105.844286 
L 347.69959 119.690123 
L 347.383545 140.070059 
L 347.070614 144.482686 
L 346.453852 132.735855 
L 346.149905 135.211234 
L 345.848839 142.702245 
L 345.5506 145.081337 
L 345.255135 141.201972 
L 344.672325 128.50867 
L 344.384882 126.166874 
L 344.100017 129.314548 
L 343.817685 136.916574 
L 343.537839 139.463864 
L 342.985439 120.435317 
L 342.7128 117.016218 
L 342.442481 121.843989 
L 341.908649 143.489487 
L 341.645061 141.319411 
L 341.383642 136.661827 
L 341.124357 135.336138 
L 340.612052 143.448641 
L 339.858762 113.556512 
L 339.611584 113.866799 
L 339.122924 136.701822 
L 338.641669 129.868997 
L 338.403748 131.033896 
L 337.700497 142.535558 
L 337.469498 144.054173 
L 337.240166 144.751165 
L 337.012479 142.430272 
L 336.786412 138.197089 
L 336.561943 137.280511 
L 336.117709 143.588688 
L 335.8979 140.398751 
L 335.462794 121.999815 
L 335.247456 124.283213 
L 334.821111 137.091512 
L 334.192135 104.310804 
L 333.985215 112.45599 
L 333.575374 144.715235 
L 333.170754 133.724315 
L 332.97036 135.352992 
L 332.771223 142.428292 
L 332.573327 143.530994 
L 332.181196 127.440119 
L 331.986931 126.678514 
L 331.601929 143.895548 
L 331.411165 144.16822 
L 331.033038 137.167979 
L 330.84565 138.895638 
L 330.659361 142.31354 
L 330.474157 141.4977 
L 330.290028 139.300377 
L 329.743959 141.731301 
L 329.564002 142.180019 
L 329.20712 143.372639 
L 329.030171 139.917662 
L 328.679203 128.578822 
L 328.505163 132.131081 
L 328.159918 145.126794 
L 327.818385 129.508389 
L 327.648986 129.721202 
L 327.312875 144.685376 
L 327.146144 139.404808 
L 326.815284 112.668522 
L 326.651138 116.485779 
L 326.325368 141.568503 
L 326.163728 139.199682 
L 325.842895 125.999259 
L 325.683685 128.585213 
L 325.36764 143.805054 
L 325.21079 144.840188 
L 325.054709 144.860946 
L 324.899393 144.760056 
L 324.437948 140.160883 
L 324.134 143.758115 
L 323.683465 127.100377 
L 323.534695 128.455983 
L 323.386619 133.427733 
L 323.23923 128.459179 
L 322.946489 113.974288 
L 322.801124 115.361194 
L 322.512374 138.723428 
L 322.368978 137.885063 
L 322.226226 132.345268 
L 322.084113 132.29144 
L 321.80178 143.576091 
L 321.661549 141.124476 
L 321.382931 129.677412 
L 321.244533 131.321261 
L 320.969534 141.667153 
L 320.832922 140.508616 
L 320.561448 137.312566 
L 320.426576 137.808639 
L 320.158539 142.227528 
L 320.025364 144.641953 
L 319.892745 144.253775 
L 319.629156 138.447015 
L 319.498178 140.25051 
L 319.367737 143.805132 
L 319.23783 143.031161 
L 318.979599 130.120326 
L 318.851267 131.091561 
L 318.596147 144.342681 
L 318.469351 139.390305 
L 318.217269 127.619531 
L 317.842857 142.437767 
L 317.595679 127.851334 
L 317.350409 140.290739 
L 317.228481 139.217539 
L 316.86548 111.130062 
L 316.506581 144.255239 
L 316.387844 143.398731 
L 316.269548 141.623358 
L 316.151692 141.946027 
L 316.034272 141.553273 
L 315.800725 137.637882 
L 315.453593 144.41021 
L 315.224262 139.530774 
L 314.996574 144.790354 
L 314.88334 137.137683 
L 314.658075 107.017801 
L 314.546039 108.375374 
L 314.212282 134.518269 
L 313.99171 116.308001 
L 313.881996 121.968795 
L 313.663698 144.190317 
L 313.555109 143.357533 
L 313.339038 132.695488 
L 313.124428 138.70614 
L 313.017664 138.677304 
L 312.699508 130.021875 
L 312.594161 130.660473 
L 312.384508 134.905686 
L 312.176231 130.267939 
L 312.072602 130.47291 
L 311.763728 143.129762 
L 311.661434 142.262896 
L 311.45783 138.644784 
L 311.356515 140.168026 
L 311.255522 139.661054 
L 310.954456 115.657712 
L 310.557423 134.539669 
L 310.458935 133.279205 
L 310.360752 135.86615 
L 310.165291 143.670073 
L 309.874337 133.358189 
L 309.681838 137.749098 
L 309.490499 131.442522 
L 309.39526 132.126028 
L 309.111244 142.861298 
L 308.923301 144.836824 
L 308.829745 144.778927 
L 308.550719 133.407129 
L 308.274123 144.090776 
L 308.091055 128.016334 
L 307.999915 129.942704 
L 307.818416 140.694906 
L 307.548098 102.877706 
L 307.4585 105.915944 
L 307.191215 136.994518 
L 307.014266 126.662956 
L 306.838298 138.819237 
L 306.750678 143.808035 
L 306.663299 142.73721 
L 306.489258 133.017238 
L 306.402595 133.488149 
L 306.229973 138.722765 
L 306.144013 136.966822 
L 305.972788 114.256257 
L 305.88752 114.717863 
L 305.633082 133.765484 
L 305.464581 121.125379 
L 305.380665 121.771924 
L 305.213495 136.588083 
L 305.130239 136.08123 
L 304.964378 118.984533 
L 304.881772 119.885205 
L 304.635233 134.848294 
L 304.471931 130.622899 
L 304.147823 143.694509 
L 304.067311 142.535149 
L 303.987002 141.827778 
L 303.82699 143.129263 
L 303.66778 144.850372 
L 303.588474 144.432219 
L 303.351736 141.99277 
L 303.273213 142.009073 
L 303.038805 134.147448 
L 302.961051 134.210775 
L 302.728927 144.578378 
L 302.575114 144.070956 
L 302.498486 144.772036 
L 302.422043 144.512201 
L 302.19381 136.608157 
L 302.118096 137.814584 
L 301.967206 141.410213 
L 301.81703 141.04798 
L 301.593088 145.152 
L 301.51879 144.681436 
L 301.370714 142.416644 
L 301.296935 142.501437 
L 301.149887 144.440843 
L 301.076618 143.493168 
L 300.930584 129.658763 
L 300.785219 118.892998 
L 300.568411 138.582116 
L 300.42469 129.627614 
L 300.281617 140.083433 
L 300.210321 144.634708 
L 300.068208 127.016784 
L 299.926728 117.789186 
L 299.785875 128.007622 
L 299.715682 125.729128 
L 299.57576 118.06523 
L 299.367026 144.266685 
L 299.297752 143.42246 
L 299.159655 139.702677 
L 299.090831 140.258186 
L 298.88525 130.304843 
L 298.817017 132.113857 
L 298.613195 143.16314 
L 298.545543 142.646928 
L 298.410672 143.736231 
L 298.34345 142.497294 
L 298.142634 129.458526 
L 298.075977 129.812835 
L 297.87684 142.500568 
L 297.810738 142.442775 
L 297.547695 136.033078 
L 297.482273 136.251596 
L 297.157171 144.886635 
L 297.092547 144.8287 
L 297.028056 144.390957 
L 296.77139 136.273404 
L 296.707546 137.407433 
L 296.453447 144.557282 
L 296.327155 145.133787 
L 296.201364 142.017693 
L 296.076069 137.683801 
L 295.826952 144.480355 
L 295.703123 141.719646 
L 295.518279 125.626076 
L 295.334505 109.264966 
L 295.273482 108.861469 
L 295.091115 119.452772 
L 294.909788 136.653992 
L 294.849576 134.372474 
L 294.729491 124.342024 
L 294.669619 125.51632 
L 294.609859 125.594581 
L 294.550212 122.440597 
L 294.431252 102.397166 
L 294.371939 106.142017 
L 294.194661 139.919109 
L 294.135787 138.487223 
L 294.018367 133.897871 
L 293.901379 139.732836 
L 293.843046 143.46067 
L 293.78482 142.958638 
L 293.552978 122.786122 
L 293.437688 134.83374 
L 293.3802 133.234845 
L 293.208357 119.690282 
L 293.037439 141.978302 
L 292.924002 136.030203 
L 292.867435 136.68281 
L 292.754603 141.836931 
L 292.586103 133.810367 
L 292.418492 144.601759 
L 292.362817 144.088173 
L 292.14109 134.140438 
L 292.0859 137.716733 
L 292.030805 141.526208 
L 291.975805 138.538212 
L 291.811376 102.328893 
L 291.756754 107.077307 
L 291.702227 111.658714 
L 291.647793 108.242905 
L 291.539204 67.826627 
L 291.485048 72.480059 
L 291.323133 110.338657 
L 291.269345 109.203666 
L 291.215647 101.670267 
L 291.16204 107.875134 
L 291.001759 125.00503 
L 290.895353 114.973085 
L 290.842283 115.553721 
L 290.789302 116.306849 
L 290.578256 128.582449 
L 290.473257 134.803491 
L 290.420887 134.241978 
L 290.316406 132.946631 
L 290.264294 133.502988 
L 290.212268 135.001728 
L 290.160326 133.132585 
L 289.953405 100.385304 
L 289.901885 101.591713 
L 289.799094 102.848307 
L 289.747824 100.421898 
L 289.696636 103.085364 
L 289.441925 137.012469 
L 289.34061 144.009658 
L 289.290073 142.911778 
L 289.189241 132.139663 
L 289.138944 132.531231 
L 288.988531 144.678083 
L 288.88865 139.713428 
L 288.739414 121.52461 
L 288.689824 127.096988 
L 288.590876 140.98435 
L 288.44303 115.19035 
L 288.344847 133.919397 
L 288.295869 123.003632 
L 288.149386 67.029601 
L 288.052105 95.171991 
L 288.003576 87.398574 
L 287.90674 62.789133 
L 287.858433 73.6312 
L 287.713949 129.214996 
L 287.665934 121.326593 
L 287.617991 120.915809 
L 287.522321 134.821234 
L 287.474594 130.801549 
L 287.379355 97.944352 
L 287.331842 99.745866 
L 287.189729 128.439637 
L 287.048249 96.134217 
L 287.001229 103.985887 
L 286.907396 137.541657 
L 286.860584 135.772493 
L 286.767166 113.703579 
L 286.720559 115.721739 
L 286.627551 122.298685 
L 286.488548 93.544214 
L 286.442348 102.155261 
L 286.258219 132.526901 
L 286.120819 145.020408 
L 286.07515 144.743428 
L 285.847789 142.22801 
L 285.802512 143.248801 
L 285.757298 143.857416 
L 285.487363 122.465734 
L 285.397892 96.006888 
L 285.35325 104.347031 
L 285.264156 122.033672 
L 285.219702 114.59937 
L 285.13098 98.876715 
L 285.042506 118.354706 
L 284.998361 108.438065 
L 284.910255 74.924583 
L 284.866294 83.014332 
L 284.778553 117.934391 
L 284.734773 114.874247 
L 284.691053 104.841305 
L 284.647394 108.827389 
L 284.516774 144.841324 
L 284.473354 137.616174 
L 284.429992 131.267554 
L 284.38669 132.567546 
L 284.300262 144.798506 
L 284.257136 139.525017 
L 284.128109 113.842509 
L 284.085216 118.275307 
L 283.999603 142.938317 
L 283.956883 136.329107 
L 283.871615 116.248431 
L 283.829067 125.055105 
L 283.744141 144.21293 
L 283.701763 135.479394 
L 283.617177 125.041654 
L 283.532815 143.075388 
L 283.490718 139.865199 
L 283.406691 132.46837 
L 283.322885 145.03459 
L 283.281065 141.319149 
L 283.19759 133.945896 
L 283.114334 142.605583 
L 282.989858 120.280448 
L 282.948474 127.336856 
L 282.865867 144.449602 
L 282.824644 139.328983 
L 282.783475 135.876287 
L 282.742358 138.561174 
L 282.701295 143.899786 
L 282.660285 139.67201 
L 282.578424 119.768088 
L 282.537572 122.211657 
L 282.456026 135.460838 
L 282.415331 128.722551 
L 282.334098 121.361272 
L 282.253072 131.993015 
L 282.172252 114.979836 
L 282.131919 116.511232 
L 281.811085 144.712035 
L 281.771208 140.817603 
L 281.731381 138.970845 
L 281.691603 141.3755 
L 281.651876 144.626934 
L 281.612198 143.938997 
L 281.49346 127.894994 
L 281.45398 130.199367 
L 281.335831 143.578088 
L 281.257309 128.871903 
L 281.21812 129.525748 
L 281.139888 145.067964 
L 281.100844 139.867495 
L 281.0229 125.523526 
L 280.984 129.558831 
L 280.945147 139.140739 
L 280.906341 137.290135 
L 280.828872 113.752082 
L 280.790209 120.680146 
L 280.713022 145.059211 
L 280.674499 137.361697 
L 280.636023 126.683067 
L 280.597593 127.42864 
L 280.520872 142.530139 
L 280.406138 86.68709 
L 280.367985 94.708256 
L 280.291817 142.269789 
L 280.215831 123.982882 
L 280.177906 125.855232 
L 280.102191 144.10379 
L 280.064401 134.539867 
L 279.988957 120.654992 
L 279.951301 128.914858 
L 279.913691 141.808708 
L 279.838602 131.191188 
L 279.801125 129.920266 
L 279.688957 143.585969 
L 279.651655 136.283508 
L 279.614397 131.365101 
L 279.577183 134.471589 
L 279.540013 142.180072 
L 279.502886 139.089877 
L 279.428761 123.382521 
L 279.391764 125.685545 
L 279.28103 144.449804 
L 279.244204 143.443045 
L 279.17068 144.803811 
L 279.024141 125.678467 
L 278.987612 130.39838 
L 278.914679 142.707488 
L 278.878276 140.073848 
L 278.769314 131.555201 
L 278.660725 144.173579 
L 278.588538 140.798127 
L 278.516515 143.59664 
L 278.408785 109.860787 
L 278.337168 125.75817 
L 278.30142 132.440782 
L 278.230044 102.314577 
L 278.194416 108.067997 
L 278.12328 141.532763 
L 278.087772 138.900314 
L 278.016874 112.669462 
L 277.981484 117.974684 
L 277.910823 136.811749 
L 277.875551 116.837892 
L 277.840319 104.233213 
L 277.76997 116.2489 
L 277.699778 144.718332 
L 277.62974 137.699752 
L 277.559856 143.942387 
L 277.524971 139.638485 
L 277.455317 124.68816 
L 277.420547 130.665824 
L 277.351122 144.539833 
L 277.316466 141.453258 
L 277.10932 119.480284 
L 277.074927 129.779381 
L 277.04057 144.624035 
L 276.971969 134.603208 
L 276.937724 120.910092 
L 276.869345 135.724484 
L 276.83521 139.670543 
L 276.767051 139.004538 
L 276.733026 137.696451 
L 276.699038 138.188748 
L 276.59729 143.063316 
L 276.529639 133.33857 
L 276.495867 127.422978 
L 276.462131 131.123164 
L 276.394767 144.033801 
L 276.361138 138.186444 
L 276.293988 129.869734 
L 276.260466 136.10492 
L 276.226979 144.306507 
L 276.193527 140.56761 
L 276.12673 122.931815 
L 276.093383 124.011862 
L 276.060072 137.556301 
L 275.993554 122.206942 
L 275.894038 105.960522 
L 275.860935 140.073248 
L 275.794833 123.218499 
L 275.761833 117.630454 
L 275.695936 139.015647 
L 275.663039 123.039462 
L 275.630176 113.095333 
L 275.564551 120.168769 
L 275.499062 140.941377 
L 275.433708 132.130876 
L 275.335928 143.707288 
L 275.303401 136.358047 
L 275.270908 130.222277 
L 275.238448 132.455799 
L 275.173627 144.888921 
L 275.108938 138.423594 
L 275.04438 126.205685 
L 275.012151 132.45775 
L 274.915658 143.673573 
L 274.883559 139.087417 
L 274.851492 134.502919 
L 274.787455 139.409455 
L 274.755485 141.111608 
L 274.723547 138.529283 
L 274.659767 118.516686 
L 274.627926 127.750103 
L 274.564337 145.128949 
L 274.532591 139.750883 
L 274.469193 132.711826 
L 274.437542 138.012072 
L 274.405922 139.709623 
L 274.342776 131.577896 
L 274.311251 138.308924 
L 274.279756 144.894476 
L 274.248293 139.597635 
L 274.185459 116.747107 
L 274.154089 126.086595 
L 274.12275 141.592487 
L 274.060164 131.533377 
L 274.028918 127.169781 
L 273.997702 130.906491 
L 273.966516 141.373965 
L 273.935362 132.333102 
L 273.84208 86.545405 
L 273.811048 102.42199 
L 273.749072 138.108182 
L 273.687218 116.480596 
L 273.594662 142.008687 
L 273.563869 126.249508 
L 273.502374 99.019603 
L 273.471671 113.068605 
L 273.440998 132.570202 
L 273.349155 121.052718 
L 273.257577 145.11657 
L 273.135883 144.696629 
L 273.07521 137.25722 
L 272.984417 129.055375 
L 272.954211 131.222004 
L 272.893884 142.907596 
L 272.863763 136.057161 
L 272.833671 128.839274 
L 272.773572 134.760114 
L 272.713587 143.619998 
L 272.683636 142.050181 
" style="fill:none;stroke:#1f77b4;stroke-linecap:square;stroke-width:1.5;"/>
   </g>
   <g id="patch_3">
    <path d="M 265.92 150.089143 
L 265.92 41.472 
" style="fill:none;stroke:#000000;stroke-linecap:square;stroke-linejoin:miter;stroke-width:0.8;"/>
   </g>
   <g id="patch_4">
    <path d="M 414.72 150.089143 
L 414.72 41.472 
" style="fill:none;stroke:#000000;stroke-linecap:square;stroke-linejoin:miter;stroke-width:0.8;"/>
   </g>
   <g id="patch_5">
    <path d="M 265.92 150.089143 
L 414.72 150.089143 
" style="fill:none;stroke:#000000;stroke-linecap:square;stroke-linejoin:miter;stroke-width:0.8;"/>
   </g>
   <g id="patch_6">
    <path d="M 265.92 41.472 
L 414.72 41.472 
" style="fill:none;stroke:#000000;stroke-linecap:square;stroke-linejoin:miter;stroke-width:0.8;"/>
   </g>
   <g id="text_8">
    <!-- Periodogram -->
    <g transform="translate(307.698125 35.472)scale(0.1 -0.1)">
     <defs>
      <path d="M 52.484375 46.6875 
L 52.484375 1.125 
Q 52.484375 -10.0625 46.328125 -16.140625 
Q 40.1875 -22.21875 28.8125 -22.21875 
Q 23.6875 -22.21875 19 -21.28125 
Q 14.3125 -20.359375 10.015625 -18.5 
L 10.015625 -7.625 
L 14.703125 -7.625 
Q 15.578125 -12.703125 18.84375 -15.046875 
Q 22.125 -17.390625 28.21875 -17.390625 
Q 36.140625 -17.390625 39.8125 -12.921875 
Q 43.5 -8.453125 43.5 1.125 
L 43.5 8.109375 
Q 40.875 3.21875 36.796875 0.890625 
Q 32.71875 -1.421875 26.703125 -1.421875 
Q 17.140625 -1.421875 11.0625 6.171875 
Q 4.984375 13.765625 4.984375 25.984375 
Q 4.984375 38.1875 11.03125 45.75 
Q 17.09375 53.328125 26.703125 53.328125 
Q 32.71875 53.328125 36.796875 51 
Q 40.875 48.6875 43.5 43.796875 
L 43.5 51.90625 
L 61.078125 51.90625 
L 61.078125 46.6875 
z
M 43.5 28.515625 
Q 43.5 37.84375 39.90625 42.765625 
Q 36.328125 47.703125 29.5 47.703125 
Q 22.5625 47.703125 19.015625 42.234375 
Q 15.484375 36.765625 15.484375 25.984375 
Q 15.484375 15.234375 19.015625 9.71875 
Q 22.5625 4.203125 29.5 4.203125 
Q 36.328125 4.203125 39.90625 9.109375 
Q 43.5 14.015625 43.5 23.390625 
z
" id="DejaVuSerif-103"/>
      <path d="M 39.796875 16.3125 
L 39.796875 27.296875 
L 28.21875 27.296875 
Q 21.53125 27.296875 18.25 24.40625 
Q 14.984375 21.53125 14.984375 15.578125 
Q 14.984375 10.15625 18.296875 6.984375 
Q 21.625 3.8125 27.296875 3.8125 
Q 32.90625 3.8125 36.34375 7.28125 
Q 39.796875 10.75 39.796875 16.3125 
z
M 48.78125 32.421875 
L 48.78125 5.171875 
L 56.78125 5.171875 
L 56.78125 0 
L 39.796875 0 
L 39.796875 5.609375 
Q 36.8125 2 32.90625 0.28125 
Q 29 -1.421875 23.78125 -1.421875 
Q 15.140625 -1.421875 10.0625 3.171875 
Q 4.984375 7.765625 4.984375 15.578125 
Q 4.984375 23.640625 10.796875 28.078125 
Q 16.609375 32.515625 27.203125 32.515625 
L 39.796875 32.515625 
L 39.796875 36.078125 
Q 39.796875 42 36.203125 45.234375 
Q 32.625 48.484375 26.125 48.484375 
Q 20.75 48.484375 17.578125 46.046875 
Q 14.40625 43.609375 13.625 38.8125 
L 8.984375 38.8125 
L 8.984375 49.3125 
Q 13.671875 51.3125 18.09375 52.3125 
Q 22.515625 53.328125 26.703125 53.328125 
Q 37.5 53.328125 43.140625 47.96875 
Q 48.78125 42.625 48.78125 32.421875 
z
" id="DejaVuSerif-97"/>
      <path d="M 51.8125 41.796875 
Q 54.390625 47.515625 58.421875 50.421875 
Q 62.453125 53.328125 67.828125 53.328125 
Q 75.984375 53.328125 79.984375 48.265625 
Q 83.984375 43.21875 83.984375 33.015625 
L 83.984375 5.171875 
L 92.09375 5.171875 
L 92.09375 0 
L 67.1875 0 
L 67.1875 5.171875 
L 75 5.171875 
L 75 31.984375 
Q 75 39.9375 72.65625 43.3125 
Q 70.3125 46.6875 64.890625 46.6875 
Q 58.890625 46.6875 55.734375 42.140625 
Q 52.59375 37.59375 52.59375 28.90625 
L 52.59375 5.171875 
L 60.40625 5.171875 
L 60.40625 0 
L 35.796875 0 
L 35.796875 5.171875 
L 43.609375 5.171875 
L 43.609375 32.328125 
Q 43.609375 40.09375 41.265625 43.390625 
Q 38.921875 46.6875 33.5 46.6875 
Q 27.484375 46.6875 24.328125 42.140625 
Q 21.1875 37.59375 21.1875 28.90625 
L 21.1875 5.171875 
L 29 5.171875 
L 29 0 
L 4.109375 0 
L 4.109375 5.171875 
L 12.203125 5.171875 
L 12.203125 46.78125 
L 3.609375 46.78125 
L 3.609375 51.90625 
L 21.1875 51.90625 
L 21.1875 42.671875 
Q 23.6875 47.859375 27.53125 50.59375 
Q 31.390625 53.328125 36.28125 53.328125 
Q 42.328125 53.328125 46.375 50.3125 
Q 50.4375 47.3125 51.8125 41.796875 
z
" id="DejaVuSerif-109"/>
     </defs>
     <use xlink:href="#DejaVuSerif-80"/>
     <use x="62.785156" xlink:href="#DejaVuSerif-101"/>
     <use x="121.964844" xlink:href="#DejaVuSerif-114"/>
     <use x="169.767578" xlink:href="#DejaVuSerif-105"/>
     <use x="201.75" xlink:href="#DejaVuSerif-111"/>
     <use x="261.955078" xlink:href="#DejaVuSerif-100"/>
     <use x="325.96875" xlink:href="#DejaVuSerif-111"/>
     <use x="386.173828" xlink:href="#DejaVuSerif-103"/>
     <use x="450.1875" xlink:href="#DejaVuSerif-114"/>
     <use x="497.990234" xlink:href="#DejaVuSerif-97"/>
     <use x="557.609375" xlink:href="#DejaVuSerif-109"/>
    </g>
   </g>
   <g id="legend_1">
    <g id="patch_7">
     <path d="M 419.648125 108.123071 
L 454.431875 108.123071 
Q 455.231875 108.123071 455.231875 107.323071 
L 455.231875 84.238071 
Q 455.231875 83.438071 454.431875 83.438071 
L 419.648125 83.438071 
Q 418.848125 83.438071 418.848125 84.238071 
L 418.848125 107.323071 
Q 418.848125 108.123071 419.648125 108.123071 
z
" style="fill:#ffffff;opacity:0.8;stroke:#cccccc;stroke-linejoin:miter;"/>
    </g>
    <g id="line2d_23">
     <path d="M 420.448125 86.677446 
L 428.448125 86.677446 
" style="fill:none;stroke:#808080;stroke-dasharray:5.55,2.4;stroke-dashoffset:0;stroke-width:1.5;"/>
    </g>
    <g id="text_9">
     <!-- 99.9% FAP -->
     <g transform="translate(431.648125 88.077446)scale(0.04 -0.04)">
      <defs>
       <path d="M 46.78125 32.671875 
Q 43.5 29 39.25 27.1875 
Q 35.015625 25.390625 29.6875 25.390625 
Q 18.84375 25.390625 12.5625 31.9375 
Q 6.296875 38.484375 6.296875 49.8125 
Q 6.296875 60.890625 13.109375 67.546875 
Q 19.921875 74.21875 31.296875 74.21875 
Q 43.65625 74.21875 50.265625 65.015625 
Q 56.890625 55.8125 56.890625 38.71875 
Q 56.890625 19.578125 49.015625 9.078125 
Q 41.15625 -1.421875 26.90625 -1.421875 
Q 23.046875 -1.421875 18.796875 -0.6875 
Q 14.546875 0.046875 10.109375 1.515625 
L 10.109375 13.625 
L 15.578125 13.625 
Q 16.21875 8.6875 19.390625 6.046875 
Q 22.5625 3.421875 27.875 3.421875 
Q 37.359375 3.421875 41.984375 10.5625 
Q 46.625 17.71875 46.78125 32.671875 
z
M 30.90625 69.390625 
Q 23.96875 69.390625 20.28125 64.328125 
Q 16.609375 59.28125 16.609375 49.8125 
Q 16.609375 40.328125 20.28125 35.25 
Q 23.96875 30.171875 30.90625 30.171875 
Q 37.84375 30.171875 41.53125 35.078125 
Q 45.21875 39.984375 45.21875 49.21875 
Q 45.21875 58.9375 41.5 64.15625 
Q 37.796875 69.390625 30.90625 69.390625 
z
" id="DejaVuSerif-57"/>
       <path d="M 22.40625 69.671875 
Q 18.109375 69.671875 15.6875 65.625 
Q 13.28125 61.578125 13.28125 54.296875 
Q 13.28125 47.125 15.75 43.015625 
Q 18.21875 38.921875 22.40625 38.921875 
Q 26.5625 38.921875 28.96875 43 
Q 31.390625 47.078125 31.390625 54.296875 
Q 31.390625 61.53125 28.96875 65.59375 
Q 26.5625 69.671875 22.40625 69.671875 
z
M 72.703125 33.890625 
Q 68.453125 33.890625 66.03125 29.78125 
Q 63.625 25.6875 63.625 18.40625 
Q 63.625 11.234375 66.0625 7.15625 
Q 68.5 3.078125 72.703125 3.078125 
Q 76.90625 3.078125 79.296875 7.15625 
Q 81.6875 11.234375 81.6875 18.40625 
Q 81.6875 25.640625 79.265625 29.765625 
Q 76.859375 33.890625 72.703125 33.890625 
z
M 72.703125 38.28125 
Q 80.421875 38.28125 84.953125 32.90625 
Q 89.5 27.546875 89.5 18.40625 
Q 89.5 9.28125 84.9375 3.921875 
Q 80.375 -1.421875 72.703125 -1.421875 
Q 64.890625 -1.421875 60.34375 3.921875 
Q 55.8125 9.28125 55.8125 18.40625 
Q 55.8125 27.59375 60.375 32.9375 
Q 64.9375 38.28125 72.703125 38.28125 
z
M 66.609375 74.21875 
L 74.03125 74.21875 
L 28.421875 -1.421875 
L 21 -1.421875 
z
M 22.3125 74.21875 
Q 30.03125 74.21875 34.609375 68.875 
Q 39.203125 63.53125 39.203125 54.390625 
Q 39.203125 45.171875 34.640625 39.84375 
Q 30.078125 34.515625 22.3125 34.515625 
Q 14.546875 34.515625 10.03125 39.859375 
Q 5.515625 45.21875 5.515625 54.390625 
Q 5.515625 63.484375 10.046875 68.84375 
Q 14.59375 74.21875 22.3125 74.21875 
z
" id="DejaVuSerif-37"/>
       <path d="M 5.515625 0 
L 5.515625 5.171875 
L 14.796875 5.171875 
L 14.796875 67.671875 
L 5.515625 67.671875 
L 5.515625 72.90625 
L 65.1875 72.90625 
L 65.1875 56.6875 
L 59.1875 56.6875 
L 59.1875 66.890625 
L 24.703125 66.890625 
L 24.703125 42.484375 
L 49.609375 42.484375 
L 49.609375 51.609375 
L 55.609375 51.609375 
L 55.609375 27.390625 
L 49.609375 27.390625 
L 49.609375 36.53125 
L 24.703125 36.53125 
L 24.703125 5.171875 
L 36.375 5.171875 
L 36.375 0 
z
" id="DejaVuSerif-70"/>
       <path d="M 20.015625 26.421875 
L 46.78125 26.421875 
L 33.40625 61.078125 
z
M -0.59375 0 
L -0.59375 5.171875 
L 5.8125 5.171875 
L 31.78125 72.90625 
L 39.984375 72.90625 
L 66.015625 5.171875 
L 73.1875 5.171875 
L 73.1875 0 
L 46.6875 0 
L 46.6875 5.171875 
L 54.78125 5.171875 
L 48.6875 21.1875 
L 18.015625 21.1875 
L 11.921875 5.171875 
L 19.921875 5.171875 
L 19.921875 0 
z
" id="DejaVuSerif-65"/>
      </defs>
      <use xlink:href="#DejaVuSerif-57"/>
      <use x="63.623047" xlink:href="#DejaVuSerif-57"/>
      <use x="127.246094" xlink:href="#DejaVuSerif-46"/>
      <use x="159.033203" xlink:href="#DejaVuSerif-57"/>
      <use x="222.65625" xlink:href="#DejaVuSerif-37"/>
      <use x="317.675781" xlink:href="#DejaVuSerif-32"/>
      <use x="349.462891" xlink:href="#DejaVuSerif-70"/>
      <use x="410.097656" xlink:href="#DejaVuSerif-65"/>
      <use x="482.314453" xlink:href="#DejaVuSerif-80"/>
     </g>
    </g>
    <g id="line2d_24">
     <path d="M 420.448125 92.548696 
L 428.448125 92.548696 
" style="fill:none;stroke:#a9a9a9;stroke-dasharray:5.55,2.4;stroke-dashoffset:0;stroke-width:1.5;"/>
    </g>
    <g id="text_10">
     <!-- 99.0% FAP -->
     <g transform="translate(431.648125 93.948696)scale(0.04 -0.04)">
      <use xlink:href="#DejaVuSerif-57"/>
      <use x="63.623047" xlink:href="#DejaVuSerif-57"/>
      <use x="127.246094" xlink:href="#DejaVuSerif-46"/>
      <use x="159.033203" xlink:href="#DejaVuSerif-48"/>
      <use x="222.65625" xlink:href="#DejaVuSerif-37"/>
      <use x="317.675781" xlink:href="#DejaVuSerif-32"/>
      <use x="349.462891" xlink:href="#DejaVuSerif-70"/>
      <use x="410.097656" xlink:href="#DejaVuSerif-65"/>
      <use x="482.314453" xlink:href="#DejaVuSerif-80"/>
     </g>
    </g>
    <g id="line2d_25">
     <path d="M 420.448125 98.419946 
L 428.448125 98.419946 
" style="fill:none;stroke:#c0c0c0;stroke-dasharray:5.55,2.4;stroke-dashoffset:0;stroke-width:1.5;"/>
    </g>
    <g id="text_11">
     <!-- 95.0% FAP -->
     <g transform="translate(431.648125 99.819946)scale(0.04 -0.04)">
      <defs>
       <path d="M 50.296875 72.90625 
L 50.296875 64.890625 
L 16.890625 64.890625 
L 16.890625 44 
Q 19.4375 45.75 22.828125 46.625 
Q 26.21875 47.515625 30.421875 47.515625 
Q 42.234375 47.515625 49.0625 40.96875 
Q 55.90625 34.421875 55.90625 23.09375 
Q 55.90625 11.53125 49 5.046875 
Q 42.09375 -1.421875 29.59375 -1.421875 
Q 24.5625 -1.421875 19.28125 -0.1875 
Q 14.015625 1.03125 8.5 3.515625 
L 8.5 17.671875 
L 14.015625 17.671875 
Q 14.453125 10.75 18.421875 7.078125 
Q 22.40625 3.421875 29.59375 3.421875 
Q 37.3125 3.421875 41.453125 8.5 
Q 45.609375 13.578125 45.609375 23.09375 
Q 45.609375 32.5625 41.484375 37.609375 
Q 37.359375 42.671875 29.59375 42.671875 
Q 25.203125 42.671875 21.84375 41.109375 
Q 18.5 39.546875 15.921875 36.28125 
L 11.71875 36.28125 
L 11.71875 72.90625 
z
" id="DejaVuSerif-53"/>
      </defs>
      <use xlink:href="#DejaVuSerif-57"/>
      <use x="63.623047" xlink:href="#DejaVuSerif-53"/>
      <use x="127.246094" xlink:href="#DejaVuSerif-46"/>
      <use x="159.033203" xlink:href="#DejaVuSerif-48"/>
      <use x="222.65625" xlink:href="#DejaVuSerif-37"/>
      <use x="317.675781" xlink:href="#DejaVuSerif-32"/>
      <use x="349.462891" xlink:href="#DejaVuSerif-70"/>
      <use x="410.097656" xlink:href="#DejaVuSerif-65"/>
      <use x="482.314453" xlink:href="#DejaVuSerif-80"/>
     </g>
    </g>
    <g id="line2d_26">
     <path d="M 420.448125 104.291196 
L 428.448125 104.291196 
" style="fill:none;stroke:#d3d3d3;stroke-dasharray:5.55,2.4;stroke-dashoffset:0;stroke-width:1.5;"/>
    </g>
    <g id="text_12">
     <!-- 90.0% FAP -->
     <g transform="translate(431.648125 105.691196)scale(0.04 -0.04)">
      <use xlink:href="#DejaVuSerif-57"/>
      <use x="63.623047" xlink:href="#DejaVuSerif-48"/>
      <use x="127.246094" xlink:href="#DejaVuSerif-46"/>
      <use x="159.033203" xlink:href="#DejaVuSerif-48"/>
      <use x="222.65625" xlink:href="#DejaVuSerif-37"/>
      <use x="317.675781" xlink:href="#DejaVuSerif-32"/>
      <use x="349.462891" xlink:href="#DejaVuSerif-70"/>
      <use x="410.097656" xlink:href="#DejaVuSerif-65"/>
      <use x="482.314453" xlink:href="#DejaVuSerif-80"/>
     </g>
    </g>
   </g>
  </g>
  <g id="axes_2">
   <g id="patch_8">
    <path d="M 57.6 150.089143 
L 206.4 150.089143 
L 206.4 41.472 
L 57.6 41.472 
z
" style="fill:#ffffff;"/>
   </g>
   <g id="PathCollection_1">
    <defs>
     <path d="M 0 0.707107 
C 0.187527 0.707107 0.367398 0.632602 0.5 0.5 
C 0.632602 0.367398 0.707107 0.187527 0.707107 0 
C 0.707107 -0.187527 0.632602 -0.367398 0.5 -0.5 
C 0.367398 -0.632602 0.187527 -0.707107 0 -0.707107 
C -0.187527 -0.707107 -0.367398 -0.632602 -0.5 -0.5 
C -0.632602 -0.367398 -0.707107 -0.187527 -0.707107 0 
C -0.707107 0.187527 -0.632602 0.367398 -0.5 0.5 
C -0.367398 0.632602 -0.187527 0.707107 0 0.707107 
z
" id="mab53a768e5" style="stroke:#1f77b4;"/>
    </defs>
    <g clip-path="url(#p9965f7dbcc)">
     <use style="fill:#1f77b4;stroke:#1f77b4;" x="117.592" xlink:href="#mab53a768e5" y="46.409143"/>
     <use style="fill:#1f77b4;stroke:#1f77b4;" x="117.602879" xlink:href="#mab53a768e5" y="48.42838"/>
     <use style="fill:#1f77b4;stroke:#1f77b4;" x="85.383803" xlink:href="#mab53a768e5" y="75.771295"/>
     <use style="fill:#1f77b4;stroke:#1f77b4;" x="85.394682" xlink:href="#mab53a768e5" y="77.486115"/>
     <use style="fill:#1f77b4;stroke:#1f77b4;" x="65.776822" xlink:href="#mab53a768e5" y="75.1744"/>
     <use style="fill:#1f77b4;stroke:#1f77b4;" x="66.860169" xlink:href="#mab53a768e5" y="57.052603"/>
     <use style="fill:#1f77b4;stroke:#1f77b4;" x="66.935772" xlink:href="#mab53a768e5" y="55.441325"/>
     <use style="fill:#1f77b4;stroke:#1f77b4;" x="90.103401" xlink:href="#mab53a768e5" y="145.152"/>
     <use style="fill:#1f77b4;stroke:#1f77b4;" x="127.807541" xlink:href="#mab53a768e5" y="53.958477"/>
     <use style="fill:#1f77b4;stroke:#1f77b4;" x="82.622262" xlink:href="#mab53a768e5" y="114.925708"/>
     <use style="fill:#1f77b4;stroke:#1f77b4;" x="82.632869" xlink:href="#mab53a768e5" y="118.112814"/>
     <use style="fill:#1f77b4;stroke:#1f77b4;" x="130.108734" xlink:href="#mab53a768e5" y="56.287145"/>
     <use style="fill:#1f77b4;stroke:#1f77b4;" x="130.119611" xlink:href="#mab53a768e5" y="59.051725"/>
     <use style="fill:#1f77b4;stroke:#1f77b4;" x="107.700543" xlink:href="#mab53a768e5" y="70.197224"/>
     <use style="fill:#1f77b4;stroke:#1f77b4;" x="107.711423" xlink:href="#mab53a768e5" y="65.736572"/>
     <use style="fill:#1f77b4;stroke:#1f77b4;" x="130.967438" xlink:href="#mab53a768e5" y="57.295656"/>
     <use style="fill:#1f77b4;stroke:#1f77b4;" x="130.978315" xlink:href="#mab53a768e5" y="57.752103"/>
     <use style="fill:#1f77b4;stroke:#1f77b4;" x="87.06201" xlink:href="#mab53a768e5" y="97.314127"/>
     <use style="fill:#1f77b4;stroke:#1f77b4;" x="87.072616" xlink:href="#mab53a768e5" y="98.236735"/>
     <use style="fill:#1f77b4;stroke:#1f77b4;" x="109.546469" xlink:href="#mab53a768e5" y="79.957019"/>
     <use style="fill:#1f77b4;stroke:#1f77b4;" x="109.557349" xlink:href="#mab53a768e5" y="80.94772"/>
     <use style="fill:#1f77b4;stroke:#1f77b4;" x="64.363636" xlink:href="#mab53a768e5" y="66.119216"/>
     <use style="fill:#1f77b4;stroke:#1f77b4;" x="64.374243" xlink:href="#mab53a768e5" y="66.264007"/>
     <use style="fill:#1f77b4;stroke:#1f77b4;" x="70.039027" xlink:href="#mab53a768e5" y="92.641878"/>
     <use style="fill:#1f77b4;stroke:#1f77b4;" x="95.861788" xlink:href="#mab53a768e5" y="77.342521"/>
     <use style="fill:#1f77b4;stroke:#1f77b4;" x="119.252425" xlink:href="#mab53a768e5" y="87.371445"/>
     <use style="fill:#1f77b4;stroke:#1f77b4;" x="74.097333" xlink:href="#mab53a768e5" y="100.16376"/>
     <use style="fill:#1f77b4;stroke:#1f77b4;" x="97.551608" xlink:href="#mab53a768e5" y="105.068929"/>
     <use style="fill:#1f77b4;stroke:#1f77b4;" x="121.148121" xlink:href="#mab53a768e5" y="97.185108"/>
     <use style="fill:#1f77b4;stroke:#1f77b4;" x="128.838872" xlink:href="#mab53a768e5" y="86.889092"/>
     <use style="fill:#1f77b4;stroke:#1f77b4;" x="129.620305" xlink:href="#mab53a768e5" y="82.951444"/>
     <use style="fill:#1f77b4;stroke:#1f77b4;" x="87.888128" xlink:href="#mab53a768e5" y="86.491284"/>
     <use style="fill:#1f77b4;stroke:#1f77b4;" x="111.819153" xlink:href="#mab53a768e5" y="79.002974"/>
     <use style="fill:#1f77b4;stroke:#1f77b4;" x="69.843536" xlink:href="#mab53a768e5" y="65.564936"/>
     <use style="fill:#1f77b4;stroke:#1f77b4;" x="72.127864" xlink:href="#mab53a768e5" y="57.07144"/>
     <use style="fill:#1f77b4;stroke:#1f77b4;" x="114.661837" xlink:href="#mab53a768e5" y="77.276475"/>
     <use style="fill:#1f77b4;stroke:#1f77b4;" x="71.335264" xlink:href="#mab53a768e5" y="56.184031"/>
     <use style="fill:#1f77b4;stroke:#1f77b4;" x="100.161422" xlink:href="#mab53a768e5" y="143.966492"/>
     <use style="fill:#1f77b4;stroke:#1f77b4;" x="130.626202" xlink:href="#mab53a768e5" y="101.728088"/>
     <use style="fill:#1f77b4;stroke:#1f77b4;" x="88.019322" xlink:href="#mab53a768e5" y="115.783378"/>
     <use style="fill:#1f77b4;stroke:#1f77b4;" x="99.662856" xlink:href="#mab53a768e5" y="112.714819"/>
     <use style="fill:#1f77b4;stroke:#1f77b4;" x="99.673462" xlink:href="#mab53a768e5" y="112.506956"/>
     <use style="fill:#1f77b4;stroke:#1f77b4;" x="122.560425" xlink:href="#mab53a768e5" y="81.160774"/>
     <use style="fill:#1f77b4;stroke:#1f77b4;" x="122.571032" xlink:href="#mab53a768e5" y="83.180351"/>
     <use style="fill:#1f77b4;stroke:#1f77b4;" x="76.386563" xlink:href="#mab53a768e5" y="105.563132"/>
     <use style="fill:#1f77b4;stroke:#1f77b4;" x="76.39717" xlink:href="#mab53a768e5" y="103.907192"/>
    </g>
   </g>
   <g id="PathCollection_2">
    <g clip-path="url(#p9965f7dbcc)">
     <use style="fill:#1f77b4;stroke:#1f77b4;" x="186.250049" xlink:href="#mab53a768e5" y="46.409143"/>
     <use style="fill:#1f77b4;stroke:#1f77b4;" x="186.260928" xlink:href="#mab53a768e5" y="48.42838"/>
     <use style="fill:#1f77b4;stroke:#1f77b4;" x="154.041852" xlink:href="#mab53a768e5" y="75.771295"/>
     <use style="fill:#1f77b4;stroke:#1f77b4;" x="154.052731" xlink:href="#mab53a768e5" y="77.486115"/>
     <use style="fill:#1f77b4;stroke:#1f77b4;" x="134.434871" xlink:href="#mab53a768e5" y="75.1744"/>
     <use style="fill:#1f77b4;stroke:#1f77b4;" x="135.518218" xlink:href="#mab53a768e5" y="57.052603"/>
     <use style="fill:#1f77b4;stroke:#1f77b4;" x="135.593821" xlink:href="#mab53a768e5" y="55.441325"/>
     <use style="fill:#1f77b4;stroke:#1f77b4;" x="158.76145" xlink:href="#mab53a768e5" y="145.152"/>
     <use style="fill:#1f77b4;stroke:#1f77b4;" x="196.46559" xlink:href="#mab53a768e5" y="53.958477"/>
     <use style="fill:#1f77b4;stroke:#1f77b4;" x="151.280311" xlink:href="#mab53a768e5" y="114.925708"/>
     <use style="fill:#1f77b4;stroke:#1f77b4;" x="151.290918" xlink:href="#mab53a768e5" y="118.112814"/>
     <use style="fill:#1f77b4;stroke:#1f77b4;" x="198.766783" xlink:href="#mab53a768e5" y="56.287145"/>
     <use style="fill:#1f77b4;stroke:#1f77b4;" x="198.77766" xlink:href="#mab53a768e5" y="59.051725"/>
     <use style="fill:#1f77b4;stroke:#1f77b4;" x="176.358592" xlink:href="#mab53a768e5" y="70.197224"/>
     <use style="fill:#1f77b4;stroke:#1f77b4;" x="176.369472" xlink:href="#mab53a768e5" y="65.736572"/>
     <use style="fill:#1f77b4;stroke:#1f77b4;" x="199.625487" xlink:href="#mab53a768e5" y="57.295656"/>
     <use style="fill:#1f77b4;stroke:#1f77b4;" x="199.636364" xlink:href="#mab53a768e5" y="57.752103"/>
     <use style="fill:#1f77b4;stroke:#1f77b4;" x="155.720059" xlink:href="#mab53a768e5" y="97.314127"/>
     <use style="fill:#1f77b4;stroke:#1f77b4;" x="155.730665" xlink:href="#mab53a768e5" y="98.236735"/>
     <use style="fill:#1f77b4;stroke:#1f77b4;" x="178.204518" xlink:href="#mab53a768e5" y="79.957019"/>
     <use style="fill:#1f77b4;stroke:#1f77b4;" x="178.215398" xlink:href="#mab53a768e5" y="80.94772"/>
     <use style="fill:#1f77b4;stroke:#1f77b4;" x="133.021685" xlink:href="#mab53a768e5" y="66.119216"/>
     <use style="fill:#1f77b4;stroke:#1f77b4;" x="133.032292" xlink:href="#mab53a768e5" y="66.264007"/>
     <use style="fill:#1f77b4;stroke:#1f77b4;" x="138.697076" xlink:href="#mab53a768e5" y="92.641878"/>
     <use style="fill:#1f77b4;stroke:#1f77b4;" x="164.519837" xlink:href="#mab53a768e5" y="77.342521"/>
     <use style="fill:#1f77b4;stroke:#1f77b4;" x="187.910474" xlink:href="#mab53a768e5" y="87.371445"/>
     <use style="fill:#1f77b4;stroke:#1f77b4;" x="142.755382" xlink:href="#mab53a768e5" y="100.16376"/>
     <use style="fill:#1f77b4;stroke:#1f77b4;" x="166.209658" xlink:href="#mab53a768e5" y="105.068929"/>
     <use style="fill:#1f77b4;stroke:#1f77b4;" x="189.80617" xlink:href="#mab53a768e5" y="97.185108"/>
     <use style="fill:#1f77b4;stroke:#1f77b4;" x="197.496921" xlink:href="#mab53a768e5" y="86.889092"/>
     <use style="fill:#1f77b4;stroke:#1f77b4;" x="198.278355" xlink:href="#mab53a768e5" y="82.951444"/>
     <use style="fill:#1f77b4;stroke:#1f77b4;" x="156.546177" xlink:href="#mab53a768e5" y="86.491284"/>
     <use style="fill:#1f77b4;stroke:#1f77b4;" x="180.477202" xlink:href="#mab53a768e5" y="79.002974"/>
     <use style="fill:#1f77b4;stroke:#1f77b4;" x="138.501585" xlink:href="#mab53a768e5" y="65.564936"/>
     <use style="fill:#1f77b4;stroke:#1f77b4;" x="140.785914" xlink:href="#mab53a768e5" y="57.07144"/>
     <use style="fill:#1f77b4;stroke:#1f77b4;" x="183.319886" xlink:href="#mab53a768e5" y="77.276475"/>
     <use style="fill:#1f77b4;stroke:#1f77b4;" x="139.993313" xlink:href="#mab53a768e5" y="56.184031"/>
     <use style="fill:#1f77b4;stroke:#1f77b4;" x="168.819472" xlink:href="#mab53a768e5" y="143.966492"/>
     <use style="fill:#1f77b4;stroke:#1f77b4;" x="199.284251" xlink:href="#mab53a768e5" y="101.728088"/>
     <use style="fill:#1f77b4;stroke:#1f77b4;" x="156.677371" xlink:href="#mab53a768e5" y="115.783378"/>
     <use style="fill:#1f77b4;stroke:#1f77b4;" x="168.320905" xlink:href="#mab53a768e5" y="112.714819"/>
     <use style="fill:#1f77b4;stroke:#1f77b4;" x="168.331512" xlink:href="#mab53a768e5" y="112.506956"/>
     <use style="fill:#1f77b4;stroke:#1f77b4;" x="191.218474" xlink:href="#mab53a768e5" y="81.160774"/>
     <use style="fill:#1f77b4;stroke:#1f77b4;" x="191.229081" xlink:href="#mab53a768e5" y="83.180351"/>
     <use style="fill:#1f77b4;stroke:#1f77b4;" x="145.044612" xlink:href="#mab53a768e5" y="105.563132"/>
     <use style="fill:#1f77b4;stroke:#1f77b4;" x="145.055219" xlink:href="#mab53a768e5" y="103.907192"/>
    </g>
   </g>
   <g id="matplotlib.axis_3">
    <g id="xtick_19">
     <g id="line2d_27">
      <g>
       <use style="stroke:#000000;stroke-width:0.8;" x="62.600462" xlink:href="#m3952984995" y="150.089143"/>
      </g>
     </g>
     <g id="text_13">
      <!-- 0 -->
      <g transform="translate(59.419212 164.68758)scale(0.1 -0.1)">
       <use xlink:href="#DejaVuSerif-48"/>
      </g>
     </g>
    </g>
    <g id="xtick_20">
     <g id="line2d_28">
      <g>
       <use style="stroke:#000000;stroke-width:0.8;" x="131.258511" xlink:href="#m3952984995" y="150.089143"/>
      </g>
     </g>
     <g id="text_14">
      <!-- 1 -->
      <g transform="translate(128.077261 164.68758)scale(0.1 -0.1)">
       <use xlink:href="#DejaVuSerif-49"/>
      </g>
     </g>
    </g>
    <g id="xtick_21">
     <g id="line2d_29">
      <g>
       <use style="stroke:#000000;stroke-width:0.8;" x="199.91656" xlink:href="#m3952984995" y="150.089143"/>
      </g>
     </g>
     <g id="text_15">
      <!-- 2 -->
      <g transform="translate(196.73531 164.68758)scale(0.1 -0.1)">
       <use xlink:href="#DejaVuSerif-50"/>
      </g>
     </g>
    </g>
    <g id="text_16">
     <!-- Phase (P = 2.922 d) -->
     <g transform="translate(81.582812 178.365705)scale(0.1 -0.1)">
      <defs>
       <path d="M 4.109375 0 
L 4.109375 5.171875 
L 12.203125 5.171875 
L 12.203125 70.796875 
L 3.609375 70.796875 
L 3.609375 75.984375 
L 21.1875 75.984375 
L 21.1875 42.671875 
Q 23.6875 47.953125 27.65625 50.640625 
Q 31.640625 53.328125 36.921875 53.328125 
Q 45.515625 53.328125 49.5625 48.390625 
Q 53.609375 43.453125 53.609375 33.015625 
L 53.609375 5.171875 
L 61.625 5.171875 
L 61.625 0 
L 36.8125 0 
L 36.8125 5.171875 
L 44.578125 5.171875 
L 44.578125 30.171875 
Q 44.578125 39.703125 42.25 43.1875 
Q 39.9375 46.6875 33.984375 46.6875 
Q 27.734375 46.6875 24.453125 42.140625 
Q 21.1875 37.59375 21.1875 28.90625 
L 21.1875 5.171875 
L 29 5.171875 
L 29 0 
z
" id="DejaVuSerif-104"/>
       <path d="M 5.609375 2.875 
L 5.609375 14.984375 
L 10.796875 14.984375 
Q 10.984375 9.1875 14.421875 6.296875 
Q 17.875 3.421875 24.609375 3.421875 
Q 30.671875 3.421875 33.84375 5.6875 
Q 37.015625 7.953125 37.015625 12.3125 
Q 37.015625 15.71875 34.6875 17.8125 
Q 32.375 19.921875 24.90625 22.3125 
L 18.40625 24.515625 
Q 11.71875 26.65625 8.71875 29.875 
Q 5.71875 33.109375 5.71875 38.09375 
Q 5.71875 45.21875 10.9375 49.265625 
Q 16.15625 53.328125 25.390625 53.328125 
Q 29.5 53.328125 34.03125 52.25 
Q 38.578125 51.171875 43.40625 49.125 
L 43.40625 37.796875 
L 38.234375 37.796875 
Q 38.03125 42.828125 34.703125 45.65625 
Q 31.390625 48.484375 25.6875 48.484375 
Q 20.015625 48.484375 17.109375 46.484375 
Q 14.203125 44.484375 14.203125 40.484375 
Q 14.203125 37.203125 16.40625 35.21875 
Q 18.609375 33.25 25.203125 31.203125 
L 32.328125 29 
Q 39.703125 26.703125 42.9375 23.265625 
Q 46.1875 19.828125 46.1875 14.40625 
Q 46.1875 7.03125 40.546875 2.796875 
Q 34.90625 -1.421875 25 -1.421875 
Q 19.96875 -1.421875 15.1875 -0.34375 
Q 10.40625 0.734375 5.609375 2.875 
z
" id="DejaVuSerif-115"/>
       <path d="M 31.890625 -15.578125 
Q 20.015625 -10.25 13.953125 1.296875 
Q 7.90625 12.84375 7.90625 30.171875 
Q 7.90625 47.5625 13.953125 59.109375 
Q 20.015625 70.65625 31.890625 75.984375 
L 31.890625 71.1875 
Q 24.359375 66.015625 21.09375 56.609375 
Q 17.828125 47.21875 17.828125 30.171875 
Q 17.828125 13.1875 21.09375 3.78125 
Q 24.359375 -5.609375 31.890625 -10.796875 
z
" id="DejaVuSerif-40"/>
       <path d="M 10.59375 45.21875 
L 73.1875 45.21875 
L 73.1875 37.40625 
L 10.59375 37.40625 
z
M 10.59375 25.296875 
L 73.1875 25.296875 
L 73.1875 17.484375 
L 10.59375 17.484375 
z
" id="DejaVuSerif-61"/>
       <path d="M 7.078125 -15.578125 
L 7.078125 -10.796875 
Q 14.59375 -5.609375 17.890625 3.78125 
Q 21.1875 13.1875 21.1875 30.171875 
Q 21.1875 47.21875 17.890625 56.609375 
Q 14.59375 66.015625 7.078125 71.1875 
L 7.078125 75.984375 
Q 19 70.65625 25.046875 59.109375 
Q 31.109375 47.5625 31.109375 30.171875 
Q 31.109375 12.84375 25.046875 1.296875 
Q 19 -10.25 7.078125 -15.578125 
z
" id="DejaVuSerif-41"/>
      </defs>
      <use xlink:href="#DejaVuSerif-80"/>
      <use x="67.285156" xlink:href="#DejaVuSerif-104"/>
      <use x="131.689453" xlink:href="#DejaVuSerif-97"/>
      <use x="191.308594" xlink:href="#DejaVuSerif-115"/>
      <use x="242.626953" xlink:href="#DejaVuSerif-101"/>
      <use x="301.806641" xlink:href="#DejaVuSerif-32"/>
      <use x="333.59375" xlink:href="#DejaVuSerif-40"/>
      <use x="372.607422" xlink:href="#DejaVuSerif-80"/>
      <use x="439.892578" xlink:href="#DejaVuSerif-32"/>
      <use x="471.679688" xlink:href="#DejaVuSerif-61"/>
      <use x="555.46875" xlink:href="#DejaVuSerif-32"/>
      <use x="587.255859" xlink:href="#DejaVuSerif-50"/>
      <use x="650.878906" xlink:href="#DejaVuSerif-46"/>
      <use x="682.666016" xlink:href="#DejaVuSerif-57"/>
      <use x="746.289062" xlink:href="#DejaVuSerif-50"/>
      <use x="809.912109" xlink:href="#DejaVuSerif-50"/>
      <use x="873.535156" xlink:href="#DejaVuSerif-32"/>
      <use x="905.322266" xlink:href="#DejaVuSerif-100"/>
      <use x="969.335938" xlink:href="#DejaVuSerif-41"/>
     </g>
    </g>
   </g>
   <g id="matplotlib.axis_4">
    <g id="ytick_4">
     <g id="line2d_30">
      <g>
       <use style="stroke:#000000;stroke-width:0.8;" x="57.6" xlink:href="#mdbe64e7f2c" y="45.608236"/>
      </g>
     </g>
     <g id="text_17">
      <!-- 14.25 -->
      <g transform="translate(21.971875 49.407455)scale(0.1 -0.1)">
       <use xlink:href="#DejaVuSerif-49"/>
       <use x="63.623047" xlink:href="#DejaVuSerif-52"/>
       <use x="127.246094" xlink:href="#DejaVuSerif-46"/>
       <use x="159.033203" xlink:href="#DejaVuSerif-50"/>
       <use x="222.65625" xlink:href="#DejaVuSerif-53"/>
      </g>
     </g>
    </g>
    <g id="ytick_5">
     <g id="line2d_31">
      <g>
       <use style="stroke:#000000;stroke-width:0.8;" x="57.6" xlink:href="#mdbe64e7f2c" y="67.948489"/>
      </g>
     </g>
     <g id="text_18">
      <!-- 14.50 -->
      <g transform="translate(21.971875 71.747708)scale(0.1 -0.1)">
       <use xlink:href="#DejaVuSerif-49"/>
       <use x="63.623047" xlink:href="#DejaVuSerif-52"/>
       <use x="127.246094" xlink:href="#DejaVuSerif-46"/>
       <use x="159.033203" xlink:href="#DejaVuSerif-53"/>
       <use x="222.65625" xlink:href="#DejaVuSerif-48"/>
      </g>
     </g>
    </g>
    <g id="ytick_6">
     <g id="line2d_32">
      <g>
       <use style="stroke:#000000;stroke-width:0.8;" x="57.6" xlink:href="#mdbe64e7f2c" y="90.288743"/>
      </g>
     </g>
     <g id="text_19">
      <!-- 14.75 -->
      <g transform="translate(21.971875 94.087962)scale(0.1 -0.1)">
       <defs>
        <path d="M 56.390625 67.921875 
L 27.875 0 
L 20.609375 0 
L 47.796875 64.890625 
L 14.109375 64.890625 
L 14.109375 55.90625 
L 8.40625 55.90625 
L 8.40625 72.90625 
L 56.390625 72.90625 
z
" id="DejaVuSerif-55"/>
       </defs>
       <use xlink:href="#DejaVuSerif-49"/>
       <use x="63.623047" xlink:href="#DejaVuSerif-52"/>
       <use x="127.246094" xlink:href="#DejaVuSerif-46"/>
       <use x="159.033203" xlink:href="#DejaVuSerif-55"/>
       <use x="222.65625" xlink:href="#DejaVuSerif-53"/>
      </g>
     </g>
    </g>
    <g id="ytick_7">
     <g id="line2d_33">
      <g>
       <use style="stroke:#000000;stroke-width:0.8;" x="57.6" xlink:href="#mdbe64e7f2c" y="112.628996"/>
      </g>
     </g>
     <g id="text_20">
      <!-- 15.00 -->
      <g transform="translate(21.971875 116.428215)scale(0.1 -0.1)">
       <use xlink:href="#DejaVuSerif-49"/>
       <use x="63.623047" xlink:href="#DejaVuSerif-53"/>
       <use x="127.246094" xlink:href="#DejaVuSerif-46"/>
       <use x="159.033203" xlink:href="#DejaVuSerif-48"/>
       <use x="222.65625" xlink:href="#DejaVuSerif-48"/>
      </g>
     </g>
    </g>
    <g id="ytick_8">
     <g id="line2d_34">
      <g>
       <use style="stroke:#000000;stroke-width:0.8;" x="57.6" xlink:href="#mdbe64e7f2c" y="134.96925"/>
      </g>
     </g>
     <g id="text_21">
      <!-- 15.25 -->
      <g transform="translate(21.971875 138.768469)scale(0.1 -0.1)">
       <use xlink:href="#DejaVuSerif-49"/>
       <use x="63.623047" xlink:href="#DejaVuSerif-53"/>
       <use x="127.246094" xlink:href="#DejaVuSerif-46"/>
       <use x="159.033203" xlink:href="#DejaVuSerif-50"/>
       <use x="222.65625" xlink:href="#DejaVuSerif-53"/>
      </g>
     </g>
    </g>
    <g id="text_22">
     <!-- Mag -->
     <g transform="translate(15.75 107.082134)rotate(-90)scale(0.1 -0.1)">
      <defs>
       <path d="M 5.515625 0 
L 5.515625 5.171875 
L 14.796875 5.171875 
L 14.796875 67.671875 
L 4.984375 67.671875 
L 4.984375 72.90625 
L 26.21875 72.90625 
L 51.8125 21 
L 77.390625 72.90625 
L 97.3125 72.90625 
L 97.3125 67.671875 
L 87.59375 67.671875 
L 87.59375 5.171875 
L 96.921875 5.171875 
L 96.921875 0 
L 68.40625 0 
L 68.40625 5.171875 
L 77.6875 5.171875 
L 77.6875 61.53125 
L 52.6875 10.6875 
L 45.796875 10.6875 
L 20.796875 61.53125 
L 20.796875 5.171875 
L 30.078125 5.171875 
L 30.078125 0 
z
" id="DejaVuSerif-77"/>
      </defs>
      <use xlink:href="#DejaVuSerif-77"/>
      <use x="102.392578" xlink:href="#DejaVuSerif-97"/>
      <use x="162.011719" xlink:href="#DejaVuSerif-103"/>
     </g>
    </g>
   </g>
   <g id="patch_9">
    <path d="M 57.6 150.089143 
L 57.6 41.472 
" style="fill:none;stroke:#000000;stroke-linecap:square;stroke-linejoin:miter;stroke-width:0.8;"/>
   </g>
   <g id="patch_10">
    <path d="M 206.4 150.089143 
L 206.4 41.472 
" style="fill:none;stroke:#000000;stroke-linecap:square;stroke-linejoin:miter;stroke-width:0.8;"/>
   </g>
   <g id="patch_11">
    <path d="M 57.6 150.089143 
L 206.4 150.089143 
" style="fill:none;stroke:#000000;stroke-linecap:square;stroke-linejoin:miter;stroke-width:0.8;"/>
   </g>
   <g id="patch_12">
    <path d="M 57.6 41.472 
L 206.4 41.472 
" style="fill:none;stroke:#000000;stroke-linecap:square;stroke-linejoin:miter;stroke-width:0.8;"/>
   </g>
   <g id="text_23">
    <!-- Folded Light Curve -->
    <g transform="translate(83.086719 35.472)scale(0.1 -0.1)">
     <defs>
      <path d="M 20.515625 5.171875 
L 29 5.171875 
L 29 0 
L 2.875 0 
L 2.875 5.171875 
L 11.53125 5.171875 
L 11.53125 70.796875 
L 2.875 70.796875 
L 2.875 75.984375 
L 20.515625 75.984375 
z
" id="DejaVuSerif-108"/>
      <path d="M 5.515625 0 
L 5.515625 5.171875 
L 14.796875 5.171875 
L 14.796875 67.671875 
L 5.515625 67.671875 
L 5.515625 72.90625 
L 33.984375 72.90625 
L 33.984375 67.671875 
L 24.703125 67.671875 
L 24.703125 6 
L 58.015625 6 
L 58.015625 18.21875 
L 64.015625 18.21875 
L 64.015625 0 
z
" id="DejaVuSerif-76"/>
      <path d="M 10.796875 46.6875 
L 2.875 46.6875 
L 2.875 51.90625 
L 10.796875 51.90625 
L 10.796875 68.015625 
L 19.828125 68.015625 
L 19.828125 51.90625 
L 36.71875 51.90625 
L 36.71875 46.6875 
L 19.828125 46.6875 
L 19.828125 13.71875 
Q 19.828125 7.125 21.09375 5.265625 
Q 22.359375 3.421875 25.78125 3.421875 
Q 29.296875 3.421875 30.90625 5.484375 
Q 32.515625 7.5625 32.625 12.203125 
L 39.40625 12.203125 
Q 39.015625 5.125 35.546875 1.84375 
Q 32.078125 -1.421875 25 -1.421875 
Q 17.234375 -1.421875 14.015625 2.015625 
Q 10.796875 5.46875 10.796875 13.71875 
z
" id="DejaVuSerif-116"/>
      <path d="M 70.515625 19.28125 
Q 67.28125 9.078125 59.6875 3.828125 
Q 52.09375 -1.421875 40.484375 -1.421875 
Q 33.34375 -1.421875 27.234375 1.015625 
Q 21.140625 3.46875 16.40625 8.203125 
Q 10.9375 13.671875 8.265625 20.625 
Q 5.609375 27.59375 5.609375 36.375 
Q 5.609375 53.375 15.421875 63.796875 
Q 25.25 74.21875 41.3125 74.21875 
Q 47.265625 74.21875 54 72.65625 
Q 60.75 71.09375 68.5 67.921875 
L 68.5 51.125 
L 62.984375 51.125 
Q 61.1875 60.296875 55.734375 64.640625 
Q 50.296875 69 40.484375 69 
Q 28.8125 69 22.796875 60.71875 
Q 16.796875 52.4375 16.796875 36.375 
Q 16.796875 20.359375 22.796875 12.078125 
Q 28.8125 3.8125 40.484375 3.8125 
Q 48.640625 3.8125 53.90625 7.6875 
Q 59.1875 11.578125 61.53125 19.28125 
z
" id="DejaVuSerif-67"/>
      <path d="M 35.40625 51.90625 
L 52.203125 51.90625 
L 52.203125 5.171875 
L 60.6875 5.171875 
L 60.6875 0 
L 43.21875 0 
L 43.21875 9.1875 
Q 40.71875 4 36.765625 1.28125 
Q 32.8125 -1.421875 27.59375 -1.421875 
Q 18.953125 -1.421875 14.875 3.484375 
Q 10.796875 8.40625 10.796875 18.890625 
L 10.796875 46.6875 
L 2.6875 46.6875 
L 2.6875 51.90625 
L 19.828125 51.90625 
L 19.828125 21.6875 
Q 19.828125 12.203125 22.140625 8.6875 
Q 24.46875 5.171875 30.421875 5.171875 
Q 36.671875 5.171875 39.9375 9.765625 
Q 43.21875 14.359375 43.21875 23.09375 
L 43.21875 46.6875 
L 35.40625 46.6875 
z
" id="DejaVuSerif-117"/>
      <path d="M 24.703125 0 
L 5.609375 46.6875 
L -0.296875 46.6875 
L -0.296875 51.90625 
L 23.578125 51.90625 
L 23.578125 46.6875 
L 15.28125 46.6875 
L 29.890625 10.984375 
L 44.484375 46.6875 
L 36.71875 46.6875 
L 36.71875 51.90625 
L 56.203125 51.90625 
L 56.203125 46.6875 
L 50.390625 46.6875 
L 31.296875 0 
z
" id="DejaVuSerif-118"/>
     </defs>
     <use xlink:href="#DejaVuSerif-70"/>
     <use x="63.884766" xlink:href="#DejaVuSerif-111"/>
     <use x="124.089844" xlink:href="#DejaVuSerif-108"/>
     <use x="156.072266" xlink:href="#DejaVuSerif-100"/>
     <use x="220.085938" xlink:href="#DejaVuSerif-101"/>
     <use x="279.265625" xlink:href="#DejaVuSerif-100"/>
     <use x="343.279297" xlink:href="#DejaVuSerif-32"/>
     <use x="375.066406" xlink:href="#DejaVuSerif-76"/>
     <use x="441.472656" xlink:href="#DejaVuSerif-105"/>
     <use x="473.455078" xlink:href="#DejaVuSerif-103"/>
     <use x="537.46875" xlink:href="#DejaVuSerif-104"/>
     <use x="601.873047" xlink:href="#DejaVuSerif-116"/>
     <use x="642.058594" xlink:href="#DejaVuSerif-32"/>
     <use x="673.845703" xlink:href="#DejaVuSerif-67"/>
     <use x="750.359375" xlink:href="#DejaVuSerif-117"/>
     <use x="814.763672" xlink:href="#DejaVuSerif-114"/>
     <use x="862.566406" xlink:href="#DejaVuSerif-118"/>
     <use x="919.060547" xlink:href="#DejaVuSerif-101"/>
    </g>
   </g>
  </g>
  <g id="axes_3">
   <g id="patch_13">
    <path d="M 57.6 307.584 
L 414.72 307.584 
L 414.72 198.966857 
L 57.6 198.966857 
z
" style="fill:#ffffff;"/>
   </g>
   <g id="PathCollection_3">
    <g clip-path="url(#p17e45849cd)">
     <use style="fill:#1f77b4;stroke:#1f77b4;" x="73.832727" xlink:href="#mab53a768e5" y="205.011127"/>
     <use style="fill:#1f77b4;stroke:#1f77b4;" x="73.833119" xlink:href="#mab53a768e5" y="206.983632"/>
     <use style="fill:#1f77b4;stroke:#1f77b4;" x="94.910293" xlink:href="#mab53a768e5" y="233.693725"/>
     <use style="fill:#1f77b4;stroke:#1f77b4;" x="94.910684" xlink:href="#mab53a768e5" y="235.368857"/>
     <use style="fill:#1f77b4;stroke:#1f77b4;" x="96.675449" xlink:href="#mab53a768e5" y="233.110643"/>
     <use style="fill:#1f77b4;stroke:#1f77b4;" x="99.185169" xlink:href="#mab53a768e5" y="215.408256"/>
     <use style="fill:#1f77b4;stroke:#1f77b4;" x="99.18789" xlink:href="#mab53a768e5" y="213.83427"/>
     <use style="fill:#1f77b4;stroke:#1f77b4;" x="100.021602" xlink:href="#mab53a768e5" y="301.468688"/>
     <use style="fill:#1f77b4;stroke:#1f77b4;" x="121.144305" xlink:href="#mab53a768e5" y="212.385741"/>
     <use style="fill:#1f77b4;stroke:#1f77b4;" x="121.988998" xlink:href="#mab53a768e5" y="271.941951"/>
     <use style="fill:#1f77b4;stroke:#1f77b4;" x="121.98938" xlink:href="#mab53a768e5" y="275.055294"/>
     <use style="fill:#1f77b4;stroke:#1f77b4;" x="123.69785" xlink:href="#mab53a768e5" y="214.660514"/>
     <use style="fill:#1f77b4;stroke:#1f77b4;" x="123.698242" xlink:href="#mab53a768e5" y="217.36111"/>
     <use style="fill:#1f77b4;stroke:#1f77b4;" x="125.362202" xlink:href="#mab53a768e5" y="228.248659"/>
     <use style="fill:#1f77b4;stroke:#1f77b4;" x="125.362594" xlink:href="#mab53a768e5" y="223.891244"/>
     <use style="fill:#1f77b4;stroke:#1f77b4;" x="126.199487" xlink:href="#mab53a768e5" y="215.645684"/>
     <use style="fill:#1f77b4;stroke:#1f77b4;" x="126.199878" xlink:href="#mab53a768e5" y="216.091567"/>
     <use style="fill:#1f77b4;stroke:#1f77b4;" x="127.090237" xlink:href="#mab53a768e5" y="254.737971"/>
     <use style="fill:#1f77b4;stroke:#1f77b4;" x="127.090618" xlink:href="#mab53a768e5" y="255.639226"/>
     <use style="fill:#1f77b4;stroke:#1f77b4;" x="127.899364" xlink:href="#mab53a768e5" y="237.782574"/>
     <use style="fill:#1f77b4;stroke:#1f77b4;" x="127.899756" xlink:href="#mab53a768e5" y="238.750346"/>
     <use style="fill:#1f77b4;stroke:#1f77b4;" x="128.744146" xlink:href="#mab53a768e5" y="224.265032"/>
     <use style="fill:#1f77b4;stroke:#1f77b4;" x="128.744527" xlink:href="#mab53a768e5" y="224.406473"/>
     <use style="fill:#1f77b4;stroke:#1f77b4;" x="136.360585" xlink:href="#mab53a768e5" y="250.173855"/>
     <use style="fill:#1f77b4;stroke:#1f77b4;" x="142.231315" xlink:href="#mab53a768e5" y="235.228586"/>
     <use style="fill:#1f77b4;stroke:#1f77b4;" x="143.073052" xlink:href="#mab53a768e5" y="245.025402"/>
     <use style="fill:#1f77b4;stroke:#1f77b4;" x="143.918832" xlink:href="#mab53a768e5" y="257.521652"/>
     <use style="fill:#1f77b4;stroke:#1f77b4;" x="144.76286" xlink:href="#mab53a768e5" y="262.313297"/>
     <use style="fill:#1f77b4;stroke:#1f77b4;" x="145.612006" xlink:href="#mab53a768e5" y="254.611937"/>
     <use style="fill:#1f77b4;stroke:#1f77b4;" x="155.771705" xlink:href="#mab53a768e5" y="244.554212"/>
     <use style="fill:#1f77b4;stroke:#1f77b4;" x="163.21203" xlink:href="#mab53a768e5" y="240.707696"/>
     <use style="fill:#1f77b4;stroke:#1f77b4;" x="164.180987" xlink:href="#mab53a768e5" y="244.165611"/>
     <use style="fill:#1f77b4;stroke:#1f77b4;" x="165.042171" xlink:href="#mab53a768e5" y="236.850609"/>
     <use style="fill:#1f77b4;stroke:#1f77b4;" x="170.943837" xlink:href="#mab53a768e5" y="223.723581"/>
     <use style="fill:#1f77b4;stroke:#1f77b4;" x="173.496775" xlink:href="#mab53a768e5" y="215.426657"/>
     <use style="fill:#1f77b4;stroke:#1f77b4;" x="207.146958" xlink:href="#mab53a768e5" y="235.164068"/>
     <use style="fill:#1f77b4;stroke:#1f77b4;" x="210.529274" xlink:href="#mab53a768e5" y="214.559787"/>
     <use style="fill:#1f77b4;stroke:#1f77b4;" x="218.978819" xlink:href="#mab53a768e5" y="300.310617"/>
     <use style="fill:#1f77b4;stroke:#1f77b4;" x="346.082599" xlink:href="#mab53a768e5" y="259.049775"/>
     <use style="fill:#1f77b4;stroke:#1f77b4;" x="379.139631" xlink:href="#mab53a768e5" y="272.77977"/>
     <use style="fill:#1f77b4;stroke:#1f77b4;" x="396.853779" xlink:href="#mab53a768e5" y="269.78223"/>
     <use style="fill:#1f77b4;stroke:#1f77b4;" x="396.854161" xlink:href="#mab53a768e5" y="269.579178"/>
     <use style="fill:#1f77b4;stroke:#1f77b4;" x="397.677773" xlink:href="#mab53a768e5" y="238.95847"/>
     <use style="fill:#1f77b4;stroke:#1f77b4;" x="397.678155" xlink:href="#mab53a768e5" y="240.931306"/>
     <use style="fill:#1f77b4;stroke:#1f77b4;" x="398.486891" xlink:href="#mab53a768e5" y="262.796061"/>
     <use style="fill:#1f77b4;stroke:#1f77b4;" x="398.487273" xlink:href="#mab53a768e5" y="261.178446"/>
    </g>
   </g>
   <g id="matplotlib.axis_5">
    <g id="xtick_22">
     <g id="line2d_35">
      <g>
       <use style="stroke:#000000;stroke-width:0.8;" x="97.996351" xlink:href="#m3952984995" y="307.584"/>
      </g>
     </g>
     <g id="text_24">
      <!-- 58300 -->
      <g transform="translate(82.090101 322.182437)scale(0.1 -0.1)">
       <defs>
        <path d="M 46.578125 19.921875 
Q 46.578125 27.734375 42.6875 32.046875 
Q 38.8125 36.375 31.78125 36.375 
Q 24.75 36.375 20.875 32.046875 
Q 17 27.734375 17 19.921875 
Q 17 12.0625 20.875 7.734375 
Q 24.75 3.421875 31.78125 3.421875 
Q 38.8125 3.421875 42.6875 7.734375 
Q 46.578125 12.0625 46.578125 19.921875 
z
M 44.578125 55.328125 
Q 44.578125 61.96875 41.203125 65.671875 
Q 37.84375 69.390625 31.78125 69.390625 
Q 25.78125 69.390625 22.390625 65.671875 
Q 19 61.96875 19 55.328125 
Q 19 48.640625 22.390625 44.921875 
Q 25.78125 41.21875 31.78125 41.21875 
Q 37.84375 41.21875 41.203125 44.921875 
Q 44.578125 48.640625 44.578125 55.328125 
z
M 39.3125 38.8125 
Q 47.609375 37.703125 52.25 32.6875 
Q 56.890625 27.6875 56.890625 19.921875 
Q 56.890625 9.671875 50.390625 4.125 
Q 43.890625 -1.421875 31.78125 -1.421875 
Q 19.734375 -1.421875 13.203125 4.125 
Q 6.6875 9.671875 6.6875 19.921875 
Q 6.6875 27.6875 11.328125 32.6875 
Q 15.96875 37.703125 24.3125 38.8125 
Q 16.9375 40.140625 13 44.40625 
Q 9.078125 48.6875 9.078125 55.328125 
Q 9.078125 64.109375 15.125 69.15625 
Q 21.1875 74.21875 31.78125 74.21875 
Q 42.390625 74.21875 48.4375 69.15625 
Q 54.5 64.109375 54.5 55.328125 
Q 54.5 48.6875 50.5625 44.40625 
Q 46.625 40.140625 39.3125 38.8125 
z
" id="DejaVuSerif-56"/>
        <path d="M 9.71875 69.828125 
Q 15.4375 71.96875 20.671875 73.09375 
Q 25.921875 74.21875 30.515625 74.21875 
Q 41.21875 74.21875 47.21875 69.59375 
Q 53.21875 64.984375 53.21875 56.78125 
Q 53.21875 50.203125 49.0625 45.78125 
Q 44.921875 41.359375 37.3125 39.796875 
Q 46.296875 38.53125 51.25 33.28125 
Q 56.203125 28.03125 56.203125 19.671875 
Q 56.203125 9.46875 49.34375 4.015625 
Q 42.484375 -1.421875 29.59375 -1.421875 
Q 23.875 -1.421875 18.421875 -0.1875 
Q 12.984375 1.03125 7.625 3.515625 
L 7.625 17.671875 
L 13.09375 17.671875 
Q 13.578125 10.640625 17.828125 7.03125 
Q 22.078125 3.421875 29.78125 3.421875 
Q 37.25 3.421875 41.578125 7.734375 
Q 45.90625 12.0625 45.90625 19.578125 
Q 45.90625 28.171875 41.453125 32.59375 
Q 37.015625 37.015625 28.421875 37.015625 
L 23.78125 37.015625 
L 23.78125 42 
L 26.21875 42 
Q 34.765625 42 39.03125 45.53125 
Q 43.3125 49.078125 43.3125 56.203125 
Q 43.3125 62.59375 39.796875 65.984375 
Q 36.28125 69.390625 29.6875 69.390625 
Q 23.09375 69.390625 19.453125 66.265625 
Q 15.828125 63.140625 15.1875 56.984375 
L 9.71875 56.984375 
z
" id="DejaVuSerif-51"/>
       </defs>
       <use xlink:href="#DejaVuSerif-53"/>
       <use x="63.623047" xlink:href="#DejaVuSerif-56"/>
       <use x="127.246094" xlink:href="#DejaVuSerif-51"/>
       <use x="190.869141" xlink:href="#DejaVuSerif-48"/>
       <use x="254.492188" xlink:href="#DejaVuSerif-48"/>
      </g>
     </g>
    </g>
    <g id="xtick_23">
     <g id="line2d_36">
      <g>
       <use style="stroke:#000000;stroke-width:0.8;" x="140.27554" xlink:href="#m3952984995" y="307.584"/>
      </g>
     </g>
     <g id="text_25">
      <!-- 58350 -->
      <g transform="translate(124.36929 322.182437)scale(0.1 -0.1)">
       <use xlink:href="#DejaVuSerif-53"/>
       <use x="63.623047" xlink:href="#DejaVuSerif-56"/>
       <use x="127.246094" xlink:href="#DejaVuSerif-51"/>
       <use x="190.869141" xlink:href="#DejaVuSerif-53"/>
       <use x="254.492188" xlink:href="#DejaVuSerif-48"/>
      </g>
     </g>
    </g>
    <g id="xtick_24">
     <g id="line2d_37">
      <g>
       <use style="stroke:#000000;stroke-width:0.8;" x="182.55473" xlink:href="#m3952984995" y="307.584"/>
      </g>
     </g>
     <g id="text_26">
      <!-- 58400 -->
      <g transform="translate(166.64848 322.182437)scale(0.1 -0.1)">
       <use xlink:href="#DejaVuSerif-53"/>
       <use x="63.623047" xlink:href="#DejaVuSerif-56"/>
       <use x="127.246094" xlink:href="#DejaVuSerif-52"/>
       <use x="190.869141" xlink:href="#DejaVuSerif-48"/>
       <use x="254.492188" xlink:href="#DejaVuSerif-48"/>
      </g>
     </g>
    </g>
    <g id="xtick_25">
     <g id="line2d_38">
      <g>
       <use style="stroke:#000000;stroke-width:0.8;" x="224.833919" xlink:href="#m3952984995" y="307.584"/>
      </g>
     </g>
     <g id="text_27">
      <!-- 58450 -->
      <g transform="translate(208.927669 322.182437)scale(0.1 -0.1)">
       <use xlink:href="#DejaVuSerif-53"/>
       <use x="63.623047" xlink:href="#DejaVuSerif-56"/>
       <use x="127.246094" xlink:href="#DejaVuSerif-52"/>
       <use x="190.869141" xlink:href="#DejaVuSerif-53"/>
       <use x="254.492188" xlink:href="#DejaVuSerif-48"/>
      </g>
     </g>
    </g>
    <g id="xtick_26">
     <g id="line2d_39">
      <g>
       <use style="stroke:#000000;stroke-width:0.8;" x="267.113108" xlink:href="#m3952984995" y="307.584"/>
      </g>
     </g>
     <g id="text_28">
      <!-- 58500 -->
      <g transform="translate(251.206858 322.182437)scale(0.1 -0.1)">
       <use xlink:href="#DejaVuSerif-53"/>
       <use x="63.623047" xlink:href="#DejaVuSerif-56"/>
       <use x="127.246094" xlink:href="#DejaVuSerif-53"/>
       <use x="190.869141" xlink:href="#DejaVuSerif-48"/>
       <use x="254.492188" xlink:href="#DejaVuSerif-48"/>
      </g>
     </g>
    </g>
    <g id="xtick_27">
     <g id="line2d_40">
      <g>
       <use style="stroke:#000000;stroke-width:0.8;" x="309.392298" xlink:href="#m3952984995" y="307.584"/>
      </g>
     </g>
     <g id="text_29">
      <!-- 58550 -->
      <g transform="translate(293.486048 322.182437)scale(0.1 -0.1)">
       <use xlink:href="#DejaVuSerif-53"/>
       <use x="63.623047" xlink:href="#DejaVuSerif-56"/>
       <use x="127.246094" xlink:href="#DejaVuSerif-53"/>
       <use x="190.869141" xlink:href="#DejaVuSerif-53"/>
       <use x="254.492188" xlink:href="#DejaVuSerif-48"/>
      </g>
     </g>
    </g>
    <g id="xtick_28">
     <g id="line2d_41">
      <g>
       <use style="stroke:#000000;stroke-width:0.8;" x="351.671487" xlink:href="#m3952984995" y="307.584"/>
      </g>
     </g>
     <g id="text_30">
      <!-- 58600 -->
      <g transform="translate(335.765237 322.182437)scale(0.1 -0.1)">
       <defs>
        <path d="M 32.71875 3.421875 
Q 39.59375 3.421875 43.296875 8.46875 
Q 47.015625 13.53125 47.015625 23 
Q 47.015625 32.46875 43.296875 37.515625 
Q 39.59375 42.578125 32.71875 42.578125 
Q 25.734375 42.578125 22.0625 37.6875 
Q 18.40625 32.8125 18.40625 23.578125 
Q 18.40625 13.875 22.109375 8.640625 
Q 25.828125 3.421875 32.71875 3.421875 
z
M 16.796875 40.140625 
Q 20.125 43.796875 24.3125 45.59375 
Q 28.515625 47.40625 33.796875 47.40625 
Q 44.671875 47.40625 51 40.859375 
Q 57.328125 34.328125 57.328125 23 
Q 57.328125 11.921875 50.515625 5.25 
Q 43.703125 -1.421875 32.328125 -1.421875 
Q 19.96875 -1.421875 13.328125 7.78125 
Q 6.6875 17 6.6875 34.078125 
Q 6.6875 53.21875 14.546875 63.71875 
Q 22.40625 74.21875 36.71875 74.21875 
Q 40.578125 74.21875 44.828125 73.484375 
Q 49.078125 72.75 53.515625 71.296875 
L 53.515625 59.28125 
L 48 59.28125 
Q 47.40625 64.203125 44.234375 66.796875 
Q 41.0625 69.390625 35.6875 69.390625 
Q 26.21875 69.390625 21.578125 62.203125 
Q 16.9375 55.03125 16.796875 40.140625 
z
" id="DejaVuSerif-54"/>
       </defs>
       <use xlink:href="#DejaVuSerif-53"/>
       <use x="63.623047" xlink:href="#DejaVuSerif-56"/>
       <use x="127.246094" xlink:href="#DejaVuSerif-54"/>
       <use x="190.869141" xlink:href="#DejaVuSerif-48"/>
       <use x="254.492188" xlink:href="#DejaVuSerif-48"/>
      </g>
     </g>
    </g>
    <g id="xtick_29">
     <g id="line2d_42">
      <g>
       <use style="stroke:#000000;stroke-width:0.8;" x="393.950677" xlink:href="#m3952984995" y="307.584"/>
      </g>
     </g>
     <g id="text_31">
      <!-- 58650 -->
      <g transform="translate(378.044427 322.182437)scale(0.1 -0.1)">
       <use xlink:href="#DejaVuSerif-53"/>
       <use x="63.623047" xlink:href="#DejaVuSerif-56"/>
       <use x="127.246094" xlink:href="#DejaVuSerif-54"/>
       <use x="190.869141" xlink:href="#DejaVuSerif-53"/>
       <use x="254.492188" xlink:href="#DejaVuSerif-48"/>
      </g>
     </g>
    </g>
    <g id="text_32">
     <!-- MJD -->
     <g transform="translate(225.027187 335.860562)scale(0.1 -0.1)">
      <defs>
       <path d="M -8.40625 -17.484375 
L -8.40625 -6 
L -2.828125 -6 
Q -2.6875 -10.84375 -0.53125 -13.203125 
Q 1.609375 -15.578125 5.90625 -15.578125 
Q 11.71875 -15.578125 14.015625 -11.90625 
Q 16.3125 -8.25 16.3125 2.390625 
L 16.3125 67.671875 
L 4.984375 67.671875 
L 4.984375 72.90625 
L 35.5 72.90625 
L 35.5 67.671875 
L 26.21875 67.671875 
L 26.21875 2 
Q 26.21875 -10.0625 21.375 -15.421875 
Q 16.546875 -20.796875 5.8125 -20.796875 
Q 2.34375 -20.796875 -1.234375 -19.96875 
Q -4.828125 -19.140625 -8.40625 -17.484375 
z
" id="DejaVuSerif-74"/>
       <path d="M 24.703125 5.171875 
L 33.796875 5.171875 
Q 48 5.171875 55.59375 13.28125 
Q 63.1875 21.390625 63.1875 36.53125 
Q 63.1875 51.65625 55.609375 59.65625 
Q 48.046875 67.671875 33.796875 67.671875 
L 24.703125 67.671875 
z
M 5.515625 0 
L 5.515625 5.171875 
L 14.796875 5.171875 
L 14.796875 67.671875 
L 5.515625 67.671875 
L 5.515625 72.90625 
L 34.515625 72.90625 
Q 53.375 72.90625 63.890625 63.28125 
Q 74.421875 53.65625 74.421875 36.53125 
Q 74.421875 19.34375 63.875 9.671875 
Q 53.328125 0 34.515625 0 
z
" id="DejaVuSerif-68"/>
      </defs>
      <use xlink:href="#DejaVuSerif-77"/>
      <use x="102.392578" xlink:href="#DejaVuSerif-74"/>
      <use x="142.480469" xlink:href="#DejaVuSerif-68"/>
     </g>
    </g>
   </g>
   <g id="matplotlib.axis_6">
    <g id="ytick_9">
     <g id="line2d_43">
      <g>
       <use style="stroke:#000000;stroke-width:0.8;" x="57.6" xlink:href="#mdbe64e7f2c" y="204.228756"/>
      </g>
     </g>
     <g id="text_33">
      <!-- 14.25 -->
      <g transform="translate(21.971875 208.027975)scale(0.1 -0.1)">
       <use xlink:href="#DejaVuSerif-49"/>
       <use x="63.623047" xlink:href="#DejaVuSerif-52"/>
       <use x="127.246094" xlink:href="#DejaVuSerif-46"/>
       <use x="159.033203" xlink:href="#DejaVuSerif-50"/>
       <use x="222.65625" xlink:href="#DejaVuSerif-53"/>
      </g>
     </g>
    </g>
    <g id="ytick_10">
     <g id="line2d_44">
      <g>
       <use style="stroke:#000000;stroke-width:0.8;" x="57.6" xlink:href="#mdbe64e7f2c" y="226.051969"/>
      </g>
     </g>
     <g id="text_34">
      <!-- 14.50 -->
      <g transform="translate(21.971875 229.851188)scale(0.1 -0.1)">
       <use xlink:href="#DejaVuSerif-49"/>
       <use x="63.623047" xlink:href="#DejaVuSerif-52"/>
       <use x="127.246094" xlink:href="#DejaVuSerif-46"/>
       <use x="159.033203" xlink:href="#DejaVuSerif-53"/>
       <use x="222.65625" xlink:href="#DejaVuSerif-48"/>
      </g>
     </g>
    </g>
    <g id="ytick_11">
     <g id="line2d_45">
      <g>
       <use style="stroke:#000000;stroke-width:0.8;" x="57.6" xlink:href="#mdbe64e7f2c" y="247.875181"/>
      </g>
     </g>
     <g id="text_35">
      <!-- 14.75 -->
      <g transform="translate(21.971875 251.6744)scale(0.1 -0.1)">
       <use xlink:href="#DejaVuSerif-49"/>
       <use x="63.623047" xlink:href="#DejaVuSerif-52"/>
       <use x="127.246094" xlink:href="#DejaVuSerif-46"/>
       <use x="159.033203" xlink:href="#DejaVuSerif-55"/>
       <use x="222.65625" xlink:href="#DejaVuSerif-53"/>
      </g>
     </g>
    </g>
    <g id="ytick_12">
     <g id="line2d_46">
      <g>
       <use style="stroke:#000000;stroke-width:0.8;" x="57.6" xlink:href="#mdbe64e7f2c" y="269.698394"/>
      </g>
     </g>
     <g id="text_36">
      <!-- 15.00 -->
      <g transform="translate(21.971875 273.497613)scale(0.1 -0.1)">
       <use xlink:href="#DejaVuSerif-49"/>
       <use x="63.623047" xlink:href="#DejaVuSerif-53"/>
       <use x="127.246094" xlink:href="#DejaVuSerif-46"/>
       <use x="159.033203" xlink:href="#DejaVuSerif-48"/>
       <use x="222.65625" xlink:href="#DejaVuSerif-48"/>
      </g>
     </g>
    </g>
    <g id="ytick_13">
     <g id="line2d_47">
      <g>
       <use style="stroke:#000000;stroke-width:0.8;" x="57.6" xlink:href="#mdbe64e7f2c" y="291.521606"/>
      </g>
     </g>
     <g id="text_37">
      <!-- 15.25 -->
      <g transform="translate(21.971875 295.320825)scale(0.1 -0.1)">
       <use xlink:href="#DejaVuSerif-49"/>
       <use x="63.623047" xlink:href="#DejaVuSerif-53"/>
       <use x="127.246094" xlink:href="#DejaVuSerif-46"/>
       <use x="159.033203" xlink:href="#DejaVuSerif-50"/>
       <use x="222.65625" xlink:href="#DejaVuSerif-53"/>
      </g>
     </g>
    </g>
    <g id="text_38">
     <!-- Mag -->
     <g transform="translate(15.75 264.576991)rotate(-90)scale(0.1 -0.1)">
      <use xlink:href="#DejaVuSerif-77"/>
      <use x="102.392578" xlink:href="#DejaVuSerif-97"/>
      <use x="162.011719" xlink:href="#DejaVuSerif-103"/>
     </g>
    </g>
   </g>
   <g id="LineCollection_5">
    <path clip-path="url(#p17e45849cd)" d="M 73.832727 203.904 
L 73.832727 206.118255 
" style="fill:none;stroke:#1f77b4;stroke-width:0.5;"/>
    <path clip-path="url(#p17e45849cd)" d="M 73.833119 205.875786 
L 73.833119 208.091477 
" style="fill:none;stroke:#1f77b4;stroke-width:0.5;"/>
    <path clip-path="url(#p17e45849cd)" d="M 94.910293 232.57384 
L 94.910293 234.813609 
" style="fill:none;stroke:#1f77b4;stroke-width:0.5;"/>
    <path clip-path="url(#p17e45849cd)" d="M 94.910684 234.248057 
L 94.910684 236.489657 
" style="fill:none;stroke:#1f77b4;stroke-width:0.5;"/>
    <path clip-path="url(#p17e45849cd)" d="M 96.675449 231.991073 
L 96.675449 234.230214 
" style="fill:none;stroke:#1f77b4;stroke-width:0.5;"/>
    <path clip-path="url(#p17e45849cd)" d="M 99.185169 214.297097 
L 99.185169 216.519415 
" style="fill:none;stroke:#1f77b4;stroke-width:0.5;"/>
    <path clip-path="url(#p17e45849cd)" d="M 99.18789 212.723761 
L 99.18789 214.944778 
" style="fill:none;stroke:#1f77b4;stroke-width:0.5;"/>
    <path clip-path="url(#p17e45849cd)" d="M 100.021602 300.290518 
L 100.021602 302.646857 
" style="fill:none;stroke:#1f77b4;stroke-width:0.5;"/>
    <path clip-path="url(#p17e45849cd)" d="M 121.144305 211.275818 
L 121.144305 213.495663 
" style="fill:none;stroke:#1f77b4;stroke-width:0.5;"/>
    <path clip-path="url(#p17e45849cd)" d="M 121.988998 270.795241 
L 121.988998 273.088661 
" style="fill:none;stroke:#1f77b4;stroke-width:0.5;"/>
    <path clip-path="url(#p17e45849cd)" d="M 121.98938 273.905774 
L 121.98938 276.204815 
" style="fill:none;stroke:#1f77b4;stroke-width:0.5;"/>
    <path clip-path="url(#p17e45849cd)" d="M 123.69785 213.549666 
L 123.69785 215.771362 
" style="fill:none;stroke:#1f77b4;stroke-width:0.5;"/>
    <path clip-path="url(#p17e45849cd)" d="M 123.698242 216.249123 
L 123.698242 218.473097 
" style="fill:none;stroke:#1f77b4;stroke-width:0.5;"/>
    <path clip-path="url(#p17e45849cd)" d="M 125.362202 227.131609 
L 125.362202 229.365708 
" style="fill:none;stroke:#1f77b4;stroke-width:0.5;"/>
    <path clip-path="url(#p17e45849cd)" d="M 125.362594 222.776314 
L 125.362594 225.006174 
" style="fill:none;stroke:#1f77b4;stroke-width:0.5;"/>
    <path clip-path="url(#p17e45849cd)" d="M 126.199487 214.534425 
L 126.199487 216.756942 
" style="fill:none;stroke:#1f77b4;stroke-width:0.5;"/>
    <path clip-path="url(#p17e45849cd)" d="M 126.199878 214.980121 
L 126.199878 217.203013 
" style="fill:none;stroke:#1f77b4;stroke-width:0.5;"/>
    <path clip-path="url(#p17e45849cd)" d="M 127.090237 253.604967 
L 127.090237 255.870974 
" style="fill:none;stroke:#1f77b4;stroke-width:0.5;"/>
    <path clip-path="url(#p17e45849cd)" d="M 127.090618 254.505576 
L 127.090618 256.772876 
" style="fill:none;stroke:#1f77b4;stroke-width:0.5;"/>
    <path clip-path="url(#p17e45849cd)" d="M 127.899364 236.660419 
L 127.899364 238.90473 
" style="fill:none;stroke:#1f77b4;stroke-width:0.5;"/>
    <path clip-path="url(#p17e45849cd)" d="M 127.899756 237.627635 
L 127.899756 239.873058 
" style="fill:none;stroke:#1f77b4;stroke-width:0.5;"/>
    <path clip-path="url(#p17e45849cd)" d="M 128.744146 223.149925 
L 128.744146 225.380139 
" style="fill:none;stroke:#1f77b4;stroke-width:0.5;"/>
    <path clip-path="url(#p17e45849cd)" d="M 128.744527 223.291298 
L 128.744527 225.521647 
" style="fill:none;stroke:#1f77b4;stroke-width:0.5;"/>
    <path clip-path="url(#p17e45849cd)" d="M 136.360585 249.044012 
L 136.360585 251.303698 
" style="fill:none;stroke:#1f77b4;stroke-width:0.5;"/>
    <path clip-path="url(#p17e45849cd)" d="M 142.231315 234.107864 
L 142.231315 236.349308 
" style="fill:none;stroke:#1f77b4;stroke-width:0.5;"/>
    <path clip-path="url(#p17e45849cd)" d="M 143.073052 243.898906 
L 143.073052 246.151897 
" style="fill:none;stroke:#1f77b4;stroke-width:0.5;"/>
    <path clip-path="url(#p17e45849cd)" d="M 143.918832 256.386628 
L 143.918832 258.656677 
" style="fill:none;stroke:#1f77b4;stroke-width:0.5;"/>
    <path clip-path="url(#p17e45849cd)" d="M 144.76286 261.174622 
L 144.76286 263.451971 
" style="fill:none;stroke:#1f77b4;stroke-width:0.5;"/>
    <path clip-path="url(#p17e45849cd)" d="M 145.612006 253.479023 
L 145.612006 255.744851 
" style="fill:none;stroke:#1f77b4;stroke-width:0.5;"/>
    <path clip-path="url(#p17e45849cd)" d="M 155.771705 243.428011 
L 155.771705 245.680413 
" style="fill:none;stroke:#1f77b4;stroke-width:0.5;"/>
    <path clip-path="url(#p17e45849cd)" d="M 163.21203 239.583838 
L 163.21203 241.831555 
" style="fill:none;stroke:#1f77b4;stroke-width:0.5;"/>
    <path clip-path="url(#p17e45849cd)" d="M 164.180987 243.039652 
L 164.180987 245.291569 
" style="fill:none;stroke:#1f77b4;stroke-width:0.5;"/>
    <path clip-path="url(#p17e45849cd)" d="M 165.042171 235.728983 
L 165.042171 237.972236 
" style="fill:none;stroke:#1f77b4;stroke-width:0.5;"/>
    <path clip-path="url(#p17e45849cd)" d="M 170.943837 222.608729 
L 170.943837 224.838432 
" style="fill:none;stroke:#1f77b4;stroke-width:0.5;"/>
    <path clip-path="url(#p17e45849cd)" d="M 173.496775 214.31549 
L 173.496775 216.537824 
" style="fill:none;stroke:#1f77b4;stroke-width:0.5;"/>
    <path clip-path="url(#p17e45849cd)" d="M 207.146958 234.043381 
L 207.146958 236.284755 
" style="fill:none;stroke:#1f77b4;stroke-width:0.5;"/>
    <path clip-path="url(#p17e45849cd)" d="M 210.529274 213.44898 
L 210.529274 215.670593 
" style="fill:none;stroke:#1f77b4;stroke-width:0.5;"/>
    <path clip-path="url(#p17e45849cd)" d="M 218.978819 299.133902 
L 218.978819 301.487332 
" style="fill:none;stroke:#1f77b4;stroke-width:0.5;"/>
    <path clip-path="url(#p17e45849cd)" d="M 346.082599 257.91361 
L 346.082599 260.185939 
" style="fill:none;stroke:#1f77b4;stroke-width:0.5;"/>
    <path clip-path="url(#p17e45849cd)" d="M 379.139631 271.632315 
L 379.139631 273.927226 
" style="fill:none;stroke:#1f77b4;stroke-width:0.5;"/>
    <path clip-path="url(#p17e45849cd)" d="M 396.853779 268.637407 
L 396.853779 270.927052 
" style="fill:none;stroke:#1f77b4;stroke-width:0.5;"/>
    <path clip-path="url(#p17e45849cd)" d="M 396.854161 268.43453 
L 396.854161 270.723826 
" style="fill:none;stroke:#1f77b4;stroke-width:0.5;"/>
    <path clip-path="url(#p17e45849cd)" d="M 397.677773 237.835638 
L 397.677773 240.081302 
" style="fill:none;stroke:#1f77b4;stroke-width:0.5;"/>
    <path clip-path="url(#p17e45849cd)" d="M 397.678155 239.807315 
L 397.678155 242.055297 
" style="fill:none;stroke:#1f77b4;stroke-width:0.5;"/>
    <path clip-path="url(#p17e45849cd)" d="M 398.486891 261.657006 
L 398.486891 263.935116 
" style="fill:none;stroke:#1f77b4;stroke-width:0.5;"/>
    <path clip-path="url(#p17e45849cd)" d="M 398.487273 260.040656 
L 398.487273 262.316236 
" style="fill:none;stroke:#1f77b4;stroke-width:0.5;"/>
   </g>
   <g id="line2d_48">
    <path clip-path="url(#p17e45849cd)" d="M 73.832727 205.011127 
L 73.833119 206.983632 
L 94.910293 233.693725 
L 94.910684 235.368857 
L 96.675449 233.110643 
L 99.185169 215.408256 
L 99.18789 213.83427 
L 100.021602 301.468688 
L 121.144305 212.385741 
L 121.988998 271.941951 
L 121.98938 275.055294 
L 123.69785 214.660514 
L 123.698242 217.36111 
L 125.362202 228.248659 
L 125.362594 223.891244 
L 126.199487 215.645684 
L 126.199878 216.091567 
L 127.090237 254.737971 
L 127.090618 255.639226 
L 127.899364 237.782574 
L 127.899756 238.750346 
L 128.744146 224.265032 
L 128.744527 224.406473 
L 136.360585 250.173855 
L 142.231315 235.228586 
L 143.073052 245.025402 
L 143.918832 257.521652 
L 144.76286 262.313297 
L 145.612006 254.611937 
L 155.771705 244.554212 
L 163.21203 240.707696 
L 164.180987 244.165611 
L 165.042171 236.850609 
L 170.943837 223.723581 
L 173.496775 215.426657 
L 207.146958 235.164068 
L 210.529274 214.559787 
L 218.978819 300.310617 
L 346.082599 259.049775 
L 379.139631 272.77977 
L 396.853779 269.78223 
L 396.854161 269.579178 
L 397.677773 238.95847 
L 397.678155 240.931306 
L 398.486891 262.796061 
L 398.487273 261.178446 
" style="fill:none;"/>
   </g>
   <g id="patch_14">
    <path d="M 57.6 307.584 
L 57.6 198.966857 
" style="fill:none;stroke:#000000;stroke-linecap:square;stroke-linejoin:miter;stroke-width:0.8;"/>
   </g>
   <g id="patch_15">
    <path d="M 414.72 307.584 
L 414.72 198.966857 
" style="fill:none;stroke:#000000;stroke-linecap:square;stroke-linejoin:miter;stroke-width:0.8;"/>
   </g>
   <g id="patch_16">
    <path d="M 57.6 307.584 
L 414.72 307.584 
" style="fill:none;stroke:#000000;stroke-linecap:square;stroke-linejoin:miter;stroke-width:0.8;"/>
   </g>
   <g id="patch_17">
    <path d="M 57.6 198.966857 
L 414.72 198.966857 
" style="fill:none;stroke:#000000;stroke-linecap:square;stroke-linejoin:miter;stroke-width:0.8;"/>
   </g>
   <g id="text_39">
    <!-- Light Curve -->
    <g transform="translate(206.000625 192.966857)scale(0.1 -0.1)">
     <use xlink:href="#DejaVuSerif-76"/>
     <use x="66.40625" xlink:href="#DejaVuSerif-105"/>
     <use x="98.388672" xlink:href="#DejaVuSerif-103"/>
     <use x="162.402344" xlink:href="#DejaVuSerif-104"/>
     <use x="226.806641" xlink:href="#DejaVuSerif-116"/>
     <use x="266.992188" xlink:href="#DejaVuSerif-32"/>
     <use x="298.779297" xlink:href="#DejaVuSerif-67"/>
     <use x="375.292969" xlink:href="#DejaVuSerif-117"/>
     <use x="439.697266" xlink:href="#DejaVuSerif-114"/>
     <use x="487.5" xlink:href="#DejaVuSerif-118"/>
     <use x="543.994141" xlink:href="#DejaVuSerif-101"/>
    </g>
   </g>
  </g>
 </g>
 <defs>
  <clipPath id="pae15030773">
   <rect height="108.617143" width="148.8" x="265.92" y="41.472"/>
  </clipPath>
  <clipPath id="p9965f7dbcc">
   <rect height="108.617143" width="148.8" x="57.6" y="41.472"/>
  </clipPath>
  <clipPath id="p17e45849cd">
   <rect height="108.617143" width="357.12" x="57.6" y="198.966857"/>
  </clipPath>
 </defs>
</svg>
