<?xml version="1.0" encoding="utf-8" standalone="no"?>
<!DOCTYPE svg PUBLIC "-//W3C//DTD SVG 1.1//EN"
  "http://www.w3.org/Graphics/SVG/1.1/DTD/svg11.dtd">
<!-- Created with matplotlib (https://matplotlib.org/) -->
<svg height="345.6pt" version="1.1" viewBox="0 0 460.8 345.6" width="460.8pt" xmlns="http://www.w3.org/2000/svg" xmlns:xlink="http://www.w3.org/1999/xlink">
 <metadata>
  <rdf:RDF xmlns:cc="http://creativecommons.org/ns#" xmlns:dc="http://purl.org/dc/elements/1.1/" xmlns:rdf="http://www.w3.org/1999/02/22-rdf-syntax-ns#">
   <cc:Work>
    <dc:type rdf:resource="http://purl.org/dc/dcmitype/StillImage"/>
    <dc:date>2021-02-24T00:22:05.793289</dc:date>
    <dc:format>image/svg+xml</dc:format>
    <dc:creator>
     <cc:Agent>
      <dc:title>Matplotlib v3.3.3, https://matplotlib.org/</dc:title>
     </cc:Agent>
    </dc:creator>
   </cc:Work>
  </rdf:RDF>
 </metadata>
 <defs>
  <style type="text/css">*{stroke-linecap:butt;stroke-linejoin:round;}</style>
 </defs>
 <g id="figure_1">
  <g id="patch_1">
   <path d="M 0 345.6 
L 460.8 345.6 
L 460.8 0 
L 0 0 
z
" style="fill:#ffffff;"/>
  </g>
  <g id="axes_1">
   <g id="patch_2">
    <path d="M 265.92 150.089143 
L 414.72 150.089143 
L 414.72 41.472 
L 265.92 41.472 
z
" style="fill:#ffffff;"/>
   </g>
   <g id="matplotlib.axis_1">
    <g id="xtick_1">
     <g id="line2d_1">
      <defs>
       <path d="M 0 0 
L 0 3.5 
" id="md4d46b8aed" style="stroke:#000000;stroke-width:0.8;"/>
      </defs>
      <g>
       <use style="stroke:#000000;stroke-width:0.8;" x="326.985138" xlink:href="#md4d46b8aed" y="150.089143"/>
      </g>
     </g>
     <g id="text_1">
      <!-- $\mathdefault{10^{1}}$ -->
      <g transform="translate(318.185138 164.68758)scale(0.1 -0.1)">
       <defs>
        <path d="M 14.203125 0 
L 14.203125 5.171875 
L 26.90625 5.171875 
L 26.90625 65.828125 
L 12.203125 56.296875 
L 12.203125 62.703125 
L 29.984375 74.21875 
L 36.71875 74.21875 
L 36.71875 5.171875 
L 49.421875 5.171875 
L 49.421875 0 
z
" id="DejaVuSerif-49"/>
        <path d="M 31.78125 3.421875 
Q 39.265625 3.421875 42.96875 11.625 
Q 46.6875 19.828125 46.6875 36.375 
Q 46.6875 52.984375 42.96875 61.1875 
Q 39.265625 69.390625 31.78125 69.390625 
Q 24.3125 69.390625 20.59375 61.1875 
Q 16.890625 52.984375 16.890625 36.375 
Q 16.890625 19.828125 20.59375 11.625 
Q 24.3125 3.421875 31.78125 3.421875 
z
M 31.78125 -1.421875 
Q 19.921875 -1.421875 13.25 8.53125 
Q 6.59375 18.5 6.59375 36.375 
Q 6.59375 54.296875 13.25 64.25 
Q 19.921875 74.21875 31.78125 74.21875 
Q 43.703125 74.21875 50.34375 64.25 
Q 56.984375 54.296875 56.984375 36.375 
Q 56.984375 18.5 50.34375 8.53125 
Q 43.703125 -1.421875 31.78125 -1.421875 
z
" id="DejaVuSerif-48"/>
       </defs>
       <use transform="translate(0 0.7125)" xlink:href="#DejaVuSerif-49"/>
       <use transform="translate(63.623047 0.7125)" xlink:href="#DejaVuSerif-48"/>
       <use transform="translate(128.154453 37.046875)scale(0.7)" xlink:href="#DejaVuSerif-49"/>
      </g>
     </g>
    </g>
    <g id="xtick_2">
     <g id="line2d_2">
      <g>
       <use style="stroke:#000000;stroke-width:0.8;" x="400.12039" xlink:href="#md4d46b8aed" y="150.089143"/>
      </g>
     </g>
     <g id="text_2">
      <!-- $\mathdefault{10^{2}}$ -->
      <g transform="translate(391.32039 164.68758)scale(0.1 -0.1)">
       <defs>
        <path d="M 12.796875 55.515625 
L 7.328125 55.515625 
L 7.328125 68.5 
Q 12.546875 71.296875 17.84375 72.75 
Q 23.140625 74.21875 28.21875 74.21875 
Q 39.59375 74.21875 46.1875 68.703125 
Q 52.78125 63.1875 52.78125 53.71875 
Q 52.78125 43.015625 37.84375 28.125 
Q 36.671875 27 36.078125 26.421875 
L 17.671875 8.015625 
L 48.09375 8.015625 
L 48.09375 17 
L 53.8125 17 
L 53.8125 0 
L 6.78125 0 
L 6.78125 5.328125 
L 28.90625 27.390625 
Q 36.234375 34.71875 39.359375 40.84375 
Q 42.484375 46.96875 42.484375 53.71875 
Q 42.484375 61.078125 38.640625 65.234375 
Q 34.8125 69.390625 28.078125 69.390625 
Q 21.09375 69.390625 17.28125 65.921875 
Q 13.484375 62.453125 12.796875 55.515625 
z
" id="DejaVuSerif-50"/>
       </defs>
       <use transform="translate(0 0.7125)" xlink:href="#DejaVuSerif-49"/>
       <use transform="translate(63.623047 0.7125)" xlink:href="#DejaVuSerif-48"/>
       <use transform="translate(128.154453 37.046875)scale(0.7)" xlink:href="#DejaVuSerif-50"/>
      </g>
     </g>
    </g>
    <g id="xtick_3">
     <g id="line2d_3">
      <defs>
       <path d="M 0 0 
L 0 2 
" id="m50d5e5e3e1" style="stroke:#000000;stroke-width:0.6;"/>
      </defs>
      <g>
       <use style="stroke:#000000;stroke-width:0.6;" x="275.86579" xlink:href="#m50d5e5e3e1" y="150.089143"/>
      </g>
     </g>
    </g>
    <g id="xtick_4">
     <g id="line2d_4">
      <g>
       <use style="stroke:#000000;stroke-width:0.6;" x="288.744269" xlink:href="#m50d5e5e3e1" y="150.089143"/>
      </g>
     </g>
    </g>
    <g id="xtick_5">
     <g id="line2d_5">
      <g>
       <use style="stroke:#000000;stroke-width:0.6;" x="297.881695" xlink:href="#m50d5e5e3e1" y="150.089143"/>
      </g>
     </g>
    </g>
    <g id="xtick_6">
     <g id="line2d_6">
      <g>
       <use style="stroke:#000000;stroke-width:0.6;" x="304.969233" xlink:href="#m50d5e5e3e1" y="150.089143"/>
      </g>
     </g>
    </g>
    <g id="xtick_7">
     <g id="line2d_7">
      <g>
       <use style="stroke:#000000;stroke-width:0.6;" x="310.760174" xlink:href="#m50d5e5e3e1" y="150.089143"/>
      </g>
     </g>
    </g>
    <g id="xtick_8">
     <g id="line2d_8">
      <g>
       <use style="stroke:#000000;stroke-width:0.6;" x="315.656344" xlink:href="#m50d5e5e3e1" y="150.089143"/>
      </g>
     </g>
    </g>
    <g id="xtick_9">
     <g id="line2d_9">
      <g>
       <use style="stroke:#000000;stroke-width:0.6;" x="319.8976" xlink:href="#m50d5e5e3e1" y="150.089143"/>
      </g>
     </g>
    </g>
    <g id="xtick_10">
     <g id="line2d_10">
      <g>
       <use style="stroke:#000000;stroke-width:0.6;" x="323.638652" xlink:href="#m50d5e5e3e1" y="150.089143"/>
      </g>
     </g>
    </g>
    <g id="xtick_11">
     <g id="line2d_11">
      <g>
       <use style="stroke:#000000;stroke-width:0.6;" x="349.001043" xlink:href="#m50d5e5e3e1" y="150.089143"/>
      </g>
     </g>
    </g>
    <g id="xtick_12">
     <g id="line2d_12">
      <g>
       <use style="stroke:#000000;stroke-width:0.6;" x="361.879521" xlink:href="#m50d5e5e3e1" y="150.089143"/>
      </g>
     </g>
    </g>
    <g id="xtick_13">
     <g id="line2d_13">
      <g>
       <use style="stroke:#000000;stroke-width:0.6;" x="371.016947" xlink:href="#m50d5e5e3e1" y="150.089143"/>
      </g>
     </g>
    </g>
    <g id="xtick_14">
     <g id="line2d_14">
      <g>
       <use style="stroke:#000000;stroke-width:0.6;" x="378.104486" xlink:href="#m50d5e5e3e1" y="150.089143"/>
      </g>
     </g>
    </g>
    <g id="xtick_15">
     <g id="line2d_15">
      <g>
       <use style="stroke:#000000;stroke-width:0.6;" x="383.895426" xlink:href="#m50d5e5e3e1" y="150.089143"/>
      </g>
     </g>
    </g>
    <g id="xtick_16">
     <g id="line2d_16">
      <g>
       <use style="stroke:#000000;stroke-width:0.6;" x="388.791597" xlink:href="#m50d5e5e3e1" y="150.089143"/>
      </g>
     </g>
    </g>
    <g id="xtick_17">
     <g id="line2d_17">
      <g>
       <use style="stroke:#000000;stroke-width:0.6;" x="393.032852" xlink:href="#m50d5e5e3e1" y="150.089143"/>
      </g>
     </g>
    </g>
    <g id="xtick_18">
     <g id="line2d_18">
      <g>
       <use style="stroke:#000000;stroke-width:0.6;" x="396.773905" xlink:href="#m50d5e5e3e1" y="150.089143"/>
      </g>
     </g>
    </g>
    <g id="text_3">
     <!-- Period d -->
     <g transform="translate(319.231719 178.365705)scale(0.1 -0.1)">
      <defs>
       <path d="M 24.703125 37.109375 
L 37.59375 37.109375 
Q 44.875 37.109375 48.671875 41.03125 
Q 52.484375 44.96875 52.484375 52.390625 
Q 52.484375 59.859375 48.671875 63.765625 
Q 44.875 67.671875 37.59375 67.671875 
L 24.703125 67.671875 
z
M 5.515625 0 
L 5.515625 5.171875 
L 14.796875 5.171875 
L 14.796875 67.671875 
L 5.515625 67.671875 
L 5.515625 72.90625 
L 39.984375 72.90625 
Q 50.921875 72.90625 57.3125 67.359375 
Q 63.71875 61.8125 63.71875 52.390625 
Q 63.71875 43.015625 57.3125 37.453125 
Q 50.921875 31.890625 39.984375 31.890625 
L 24.703125 31.890625 
L 24.703125 5.171875 
L 35.984375 5.171875 
L 35.984375 0 
z
" id="DejaVuSerif-80"/>
       <path d="M 54.203125 25 
L 15.484375 25 
L 15.484375 24.609375 
Q 15.484375 14.109375 19.4375 8.765625 
Q 23.390625 3.421875 31.109375 3.421875 
Q 37.015625 3.421875 40.796875 6.515625 
Q 44.578125 9.625 46.09375 15.71875 
L 53.328125 15.71875 
Q 51.171875 7.171875 45.375 2.875 
Q 39.59375 -1.421875 30.171875 -1.421875 
Q 18.796875 -1.421875 11.890625 6.078125 
Q 4.984375 13.578125 4.984375 25.984375 
Q 4.984375 38.28125 11.765625 45.796875 
Q 18.5625 53.328125 29.59375 53.328125 
Q 41.359375 53.328125 47.65625 46.0625 
Q 53.953125 38.8125 54.203125 25 
z
M 43.609375 30.171875 
Q 43.3125 39.265625 39.765625 43.875 
Q 36.234375 48.484375 29.59375 48.484375 
Q 23.390625 48.484375 19.828125 43.84375 
Q 16.265625 39.203125 15.484375 30.171875 
z
" id="DejaVuSerif-101"/>
       <path d="M 47.796875 52 
L 47.796875 39.015625 
L 42.625 39.015625 
Q 42.390625 42.875 40.484375 44.78125 
Q 38.578125 46.6875 34.90625 46.6875 
Q 28.265625 46.6875 24.71875 42.09375 
Q 21.1875 37.5 21.1875 28.90625 
L 21.1875 5.171875 
L 31.59375 5.171875 
L 31.59375 0 
L 4.109375 0 
L 4.109375 5.171875 
L 12.203125 5.171875 
L 12.203125 46.78125 
L 3.609375 46.78125 
L 3.609375 51.90625 
L 21.1875 51.90625 
L 21.1875 42.671875 
Q 23.828125 48.09375 27.96875 50.703125 
Q 32.125 53.328125 38.09375 53.328125 
Q 40.28125 53.328125 42.703125 52.984375 
Q 45.125 52.640625 47.796875 52 
z
" id="DejaVuSerif-114"/>
       <path d="M 9.71875 68.015625 
Q 9.71875 70.265625 11.34375 71.921875 
Q 12.984375 73.578125 15.28125 73.578125 
Q 17.53125 73.578125 19.15625 71.921875 
Q 20.796875 70.265625 20.796875 68.015625 
Q 20.796875 65.71875 19.1875 64.109375 
Q 17.578125 62.5 15.28125 62.5 
Q 12.984375 62.5 11.34375 64.109375 
Q 9.71875 65.71875 9.71875 68.015625 
z
M 21.1875 5.171875 
L 29.6875 5.171875 
L 29.6875 0 
L 3.609375 0 
L 3.609375 5.171875 
L 12.203125 5.171875 
L 12.203125 46.6875 
L 3.609375 46.6875 
L 3.609375 51.90625 
L 21.1875 51.90625 
z
" id="DejaVuSerif-105"/>
       <path d="M 30.078125 3.421875 
Q 37.3125 3.421875 40.984375 9.125 
Q 44.671875 14.84375 44.671875 25.984375 
Q 44.671875 37.109375 40.984375 42.796875 
Q 37.3125 48.484375 30.078125 48.484375 
Q 22.859375 48.484375 19.171875 42.796875 
Q 15.484375 37.109375 15.484375 25.984375 
Q 15.484375 14.84375 19.1875 9.125 
Q 22.90625 3.421875 30.078125 3.421875 
z
M 30.078125 -1.421875 
Q 18.75 -1.421875 11.859375 6.078125 
Q 4.984375 13.578125 4.984375 25.984375 
Q 4.984375 38.375 11.84375 45.84375 
Q 18.703125 53.328125 30.078125 53.328125 
Q 41.453125 53.328125 48.3125 45.84375 
Q 55.171875 38.375 55.171875 25.984375 
Q 55.171875 13.578125 48.3125 6.078125 
Q 41.453125 -1.421875 30.078125 -1.421875 
z
" id="DejaVuSerif-111"/>
       <path d="M 52.484375 5.171875 
L 61.078125 5.171875 
L 61.078125 0 
L 43.5 0 
L 43.5 8.109375 
Q 40.875 3.21875 36.796875 0.890625 
Q 32.71875 -1.421875 26.703125 -1.421875 
Q 17.140625 -1.421875 11.0625 6.171875 
Q 4.984375 13.765625 4.984375 25.984375 
Q 4.984375 38.1875 11.03125 45.75 
Q 17.09375 53.328125 26.703125 53.328125 
Q 32.71875 53.328125 36.796875 51 
Q 40.875 48.6875 43.5 43.796875 
L 43.5 70.796875 
L 35.015625 70.796875 
L 35.015625 75.984375 
L 52.484375 75.984375 
z
M 43.5 23.390625 
L 43.5 28.515625 
Q 43.5 37.84375 39.90625 42.765625 
Q 36.328125 47.703125 29.5 47.703125 
Q 22.5625 47.703125 19.015625 42.234375 
Q 15.484375 36.765625 15.484375 25.984375 
Q 15.484375 15.234375 19.015625 9.71875 
Q 22.5625 4.203125 29.5 4.203125 
Q 36.328125 4.203125 39.90625 9.109375 
Q 43.5 14.015625 43.5 23.390625 
z
" id="DejaVuSerif-100"/>
       <path id="DejaVuSerif-32"/>
      </defs>
      <use xlink:href="#DejaVuSerif-80"/>
      <use x="62.785156" xlink:href="#DejaVuSerif-101"/>
      <use x="121.964844" xlink:href="#DejaVuSerif-114"/>
      <use x="169.767578" xlink:href="#DejaVuSerif-105"/>
      <use x="201.75" xlink:href="#DejaVuSerif-111"/>
      <use x="261.955078" xlink:href="#DejaVuSerif-100"/>
      <use x="325.96875" xlink:href="#DejaVuSerif-32"/>
      <use x="357.755859" xlink:href="#DejaVuSerif-100"/>
     </g>
    </g>
   </g>
   <g id="matplotlib.axis_2">
    <g id="ytick_1">
     <g id="line2d_19">
      <defs>
       <path d="M 0 0 
L -3.5 0 
" id="m7c0ed6cb8c" style="stroke:#000000;stroke-width:0.8;"/>
      </defs>
      <g>
       <use style="stroke:#000000;stroke-width:0.8;" x="265.92" xlink:href="#m7c0ed6cb8c" y="145.155725"/>
      </g>
     </g>
     <g id="text_4">
      <!-- 0.0 -->
      <g transform="translate(243.016875 148.954943)scale(0.1 -0.1)">
       <defs>
        <path d="M 9.421875 5.078125 
Q 9.421875 7.8125 11.28125 9.71875 
Q 13.140625 11.625 15.921875 11.625 
Q 18.609375 11.625 20.5 9.71875 
Q 22.40625 7.8125 22.40625 5.078125 
Q 22.40625 2.390625 20.5 0.484375 
Q 18.609375 -1.421875 15.921875 -1.421875 
Q 13.140625 -1.421875 11.28125 0.453125 
Q 9.421875 2.34375 9.421875 5.078125 
z
" id="DejaVuSerif-46"/>
       </defs>
       <use xlink:href="#DejaVuSerif-48"/>
       <use x="63.623047" xlink:href="#DejaVuSerif-46"/>
       <use x="95.410156" xlink:href="#DejaVuSerif-48"/>
      </g>
     </g>
    </g>
    <g id="ytick_2">
     <g id="line2d_20">
      <g>
       <use style="stroke:#000000;stroke-width:0.8;" x="265.92" xlink:href="#m7c0ed6cb8c" y="113.514128"/>
      </g>
     </g>
     <g id="text_5">
      <!-- 0.2 -->
      <g transform="translate(243.016875 117.313347)scale(0.1 -0.1)">
       <use xlink:href="#DejaVuSerif-48"/>
       <use x="63.623047" xlink:href="#DejaVuSerif-46"/>
       <use x="95.410156" xlink:href="#DejaVuSerif-50"/>
      </g>
     </g>
    </g>
    <g id="ytick_3">
     <g id="line2d_21">
      <g>
       <use style="stroke:#000000;stroke-width:0.8;" x="265.92" xlink:href="#m7c0ed6cb8c" y="81.872532"/>
      </g>
     </g>
     <g id="text_6">
      <!-- 0.4 -->
      <g transform="translate(243.016875 85.671751)scale(0.1 -0.1)">
       <defs>
        <path d="M 34.90625 24.703125 
L 34.90625 63.484375 
L 10.015625 24.703125 
z
M 56.390625 0 
L 23.1875 0 
L 23.1875 5.171875 
L 34.90625 5.171875 
L 34.90625 19.484375 
L 3.078125 19.484375 
L 3.078125 24.8125 
L 35.015625 74.21875 
L 44.671875 74.21875 
L 44.671875 24.703125 
L 58.59375 24.703125 
L 58.59375 19.484375 
L 44.671875 19.484375 
L 44.671875 5.171875 
L 56.390625 5.171875 
z
" id="DejaVuSerif-52"/>
       </defs>
       <use xlink:href="#DejaVuSerif-48"/>
       <use x="63.623047" xlink:href="#DejaVuSerif-46"/>
       <use x="95.410156" xlink:href="#DejaVuSerif-52"/>
      </g>
     </g>
    </g>
    <g id="ytick_4">
     <g id="line2d_22">
      <g>
       <use style="stroke:#000000;stroke-width:0.8;" x="265.92" xlink:href="#m7c0ed6cb8c" y="50.230936"/>
      </g>
     </g>
     <g id="text_7">
      <!-- 0.6 -->
      <g transform="translate(243.016875 54.030155)scale(0.1 -0.1)">
       <defs>
        <path d="M 32.71875 3.421875 
Q 39.59375 3.421875 43.296875 8.46875 
Q 47.015625 13.53125 47.015625 23 
Q 47.015625 32.46875 43.296875 37.515625 
Q 39.59375 42.578125 32.71875 42.578125 
Q 25.734375 42.578125 22.0625 37.6875 
Q 18.40625 32.8125 18.40625 23.578125 
Q 18.40625 13.875 22.109375 8.640625 
Q 25.828125 3.421875 32.71875 3.421875 
z
M 16.796875 40.140625 
Q 20.125 43.796875 24.3125 45.59375 
Q 28.515625 47.40625 33.796875 47.40625 
Q 44.671875 47.40625 51 40.859375 
Q 57.328125 34.328125 57.328125 23 
Q 57.328125 11.921875 50.515625 5.25 
Q 43.703125 -1.421875 32.328125 -1.421875 
Q 19.96875 -1.421875 13.328125 7.78125 
Q 6.6875 17 6.6875 34.078125 
Q 6.6875 53.21875 14.546875 63.71875 
Q 22.40625 74.21875 36.71875 74.21875 
Q 40.578125 74.21875 44.828125 73.484375 
Q 49.078125 72.75 53.515625 71.296875 
L 53.515625 59.28125 
L 48 59.28125 
Q 47.40625 64.203125 44.234375 66.796875 
Q 41.0625 69.390625 35.6875 69.390625 
Q 26.21875 69.390625 21.578125 62.203125 
Q 16.9375 55.03125 16.796875 40.140625 
z
" id="DejaVuSerif-54"/>
       </defs>
       <use xlink:href="#DejaVuSerif-48"/>
       <use x="63.623047" xlink:href="#DejaVuSerif-46"/>
       <use x="95.410156" xlink:href="#DejaVuSerif-54"/>
      </g>
     </g>
    </g>
    <g id="text_8">
     <!-- Power -->
     <g transform="translate(236.937188 111.583696)rotate(-90)scale(0.1 -0.1)">
      <defs>
       <path d="M 48 51.90625 
L 61.28125 11.375 
L 73 46.6875 
L 65.484375 46.6875 
L 65.484375 51.90625 
L 84.28125 51.90625 
L 84.28125 46.6875 
L 78.515625 46.6875 
L 63.09375 0 
L 55.609375 0 
L 42.828125 38.8125 
L 29.984375 0 
L 22.796875 0 
L 7.421875 46.6875 
L 1.609375 46.6875 
L 1.609375 51.90625 
L 25.09375 51.90625 
L 25.09375 46.6875 
L 16.703125 46.6875 
L 28.328125 11.375 
L 41.703125 51.90625 
z
" id="DejaVuSerif-119"/>
      </defs>
      <use xlink:href="#DejaVuSerif-80"/>
      <use x="63.285156" xlink:href="#DejaVuSerif-111"/>
      <use x="123.490234" xlink:href="#DejaVuSerif-119"/>
      <use x="209.085938" xlink:href="#DejaVuSerif-101"/>
      <use x="268.265625" xlink:href="#DejaVuSerif-114"/>
     </g>
    </g>
   </g>
   <g id="LineCollection_1">
    <path clip-path="url(#p71a8ed14ba)" d="M 272.695273 71.323412 
L 407.956364 71.323412 
" style="fill:none;stroke:#808080;stroke-dasharray:5.55,2.4;stroke-dashoffset:0;stroke-width:1.5;"/>
   </g>
   <g id="LineCollection_2">
    <path clip-path="url(#p71a8ed14ba)" d="M 272.695273 81.723233 
L 407.956364 81.723233 
" style="fill:none;stroke:#a9a9a9;stroke-dasharray:5.55,2.4;stroke-dashoffset:0;stroke-width:1.5;"/>
   </g>
   <g id="LineCollection_3">
    <path clip-path="url(#p71a8ed14ba)" d="M 272.695273 89.911794 
L 407.956364 89.911794 
" style="fill:none;stroke:#c0c0c0;stroke-dasharray:5.55,2.4;stroke-dashoffset:0;stroke-width:1.5;"/>
   </g>
   <g id="LineCollection_4">
    <path clip-path="url(#p71a8ed14ba)" d="M 272.695273 93.779732 
L 407.956364 93.779732 
" style="fill:none;stroke:#d3d3d3;stroke-dasharray:5.55,2.4;stroke-dashoffset:0;stroke-width:1.5;"/>
   </g>
   <g id="line2d_23">
    <path clip-path="url(#p71a8ed14ba)" d="M 407.956364 139.501352 
L 405.906476 140.703704 
L 403.980902 142.859511 
L 402.165423 144.309681 
L 400.448127 141.023715 
L 398.818938 136.307679 
L 397.269253 135.081727 
L 395.791673 139.587685 
L 394.379786 144.776536 
L 393.027997 139.837257 
L 391.731399 124.431199 
L 390.485662 119.311886 
L 389.286945 122.584749 
L 388.131827 130.674262 
L 387.017248 141.51061 
L 385.940459 132.815484 
L 384.898981 114.268921 
L 383.890571 108.443083 
L 382.913194 107.652303 
L 381.964998 111.963398 
L 381.044289 129.978561 
L 380.149518 143.041474 
L 379.279266 132.925847 
L 378.432223 126.508253 
L 377.607183 126.435484 
L 376.803033 133.084702 
L 376.01874 143.368252 
L 375.253348 142.686351 
L 374.505967 133.362347 
L 373.775768 126.418391 
L 373.06198 129.923616 
L 372.363881 140.228285 
L 371.680796 144.726516 
L 371.012092 141.995965 
L 370.357178 137.864697 
L 369.715495 138.090631 
L 369.086519 139.485265 
L 368.469757 139.582745 
L 367.864744 140.816475 
L 367.27104 144.093911 
L 366.68823 144.468841 
L 366.115922 141.946367 
L 365.001343 133.42609 
L 364.458386 133.291393 
L 363.924554 139.218129 
L 363.399547 140.176794 
L 362.883076 136.943165 
L 362.374869 134.527839 
L 361.874666 134.1633 
L 361.382219 137.906619 
L 360.89729 143.779543 
L 360.419653 143.17293 
L 359.949093 136.681296 
L 359.485402 128.722904 
L 359.028384 125.706521 
L 358.577848 127.134912 
L 358.133614 131.407636 
L 357.695507 141.635656 
L 357.263361 145.102379 
L 356.837016 144.418541 
L 356.001119 140.038008 
L 355.591278 140.934576 
L 355.186658 142.637934 
L 354.787128 142.583824 
L 354.392561 142.947776 
L 354.002836 143.838087 
L 353.617834 143.414688 
L 352.861555 137.931541 
L 352.490062 136.851302 
L 352.122865 137.240838 
L 351.400965 143.084396 
L 350.695108 132.018404 
L 350.347976 131.784374 
L 350.004597 134.673675 
L 349.664891 141.774186 
L 349.32878 144.532511 
L 348.667042 128.756394 
L 348.341273 125.465687 
L 348.018811 127.730374 
L 347.383545 142.561167 
L 346.760736 133.327937 
L 346.453852 132.003962 
L 346.149905 136.38099 
L 345.848839 143.01512 
L 345.5506 145.062541 
L 345.255135 144.634138 
L 344.962394 144.714002 
L 344.672325 145.060835 
L 344.384882 142.998263 
L 343.817685 134.74451 
L 343.537839 136.221147 
L 342.985439 144.936562 
L 342.7128 144.338527 
L 342.174444 134.637264 
L 341.908649 135.264826 
L 341.645061 134.410026 
L 341.383642 132.897679 
L 341.124357 135.208736 
L 340.612052 143.305649 
L 340.358965 141.729223 
L 339.858762 130.837951 
L 339.611584 130.337613 
L 339.366314 134.164508 
L 339.122924 139.787328 
L 338.881385 141.812587 
L 338.641669 138.773757 
L 338.403748 133.768981 
L 338.167597 132.674736 
L 337.700497 140.302451 
L 337.240166 144.122217 
L 337.012479 142.937866 
L 336.33905 134.50136 
L 336.117709 135.896872 
L 335.8979 141.907264 
L 335.679602 144.427903 
L 335.462794 140.460518 
L 335.033568 126.985784 
L 334.821111 129.180827 
L 334.400413 143.479956 
L 334.192135 144.903853 
L 333.575374 125.528726 
L 333.372419 125.049378 
L 333.170754 131.436719 
L 332.97036 141.768509 
L 332.771223 144.656249 
L 332.181196 118.266291 
L 331.601929 145.087486 
L 331.411165 140.068779 
L 331.221539 129.979932 
L 331.033038 129.218449 
L 330.474157 145.08574 
L 330.290028 142.649274 
L 330.10696 138.715736 
L 329.924941 140.040242 
L 329.743959 143.059061 
L 329.564002 142.633827 
L 329.20712 138.744712 
L 329.030171 139.447828 
L 328.854202 142.575133 
L 328.679203 143.686416 
L 328.159918 135.084045 
L 327.988693 134.607419 
L 327.818385 137.16924 
L 327.480486 145.067509 
L 327.312875 142.077912 
L 326.980283 130.780756 
L 326.815284 132.847263 
L 326.487835 144.968642 
L 326.325368 142.449446 
L 326.002906 128.901459 
L 325.842895 132.685904 
L 325.52527 144.622958 
L 325.36764 143.029998 
L 325.21079 139.562932 
L 325.054709 139.034869 
L 324.744831 145.142996 
L 324.28561 138.703709 
L 323.983111 144.756817 
L 323.832934 139.541536 
L 323.534695 124.187803 
L 323.386619 126.771188 
L 322.946489 144.027734 
L 322.656421 129.153167 
L 322.512374 126.380927 
L 322.368978 126.516792 
L 322.084113 141.77705 
L 321.942633 139.617289 
L 321.521934 120.53748 
L 321.244533 143.671704 
L 321.106736 143.097056 
L 320.696895 111.322679 
L 320.292275 141.624919 
L 319.892745 122.586666 
L 319.629156 140.419428 
L 319.498178 136.062986 
L 319.23783 111.61613 
L 319.108452 114.343429 
L 318.851267 137.589422 
L 318.723451 132.611882 
L 318.34306 87.18945 
L 317.967171 137.966697 
L 317.842857 128.210252 
L 317.595679 96.093536 
L 317.228481 143.138129 
L 317.107019 141.518148 
L 316.86548 122.511427 
L 316.506581 143.447745 
L 316.151692 136.895716 
L 315.917283 142.963013 
L 315.684592 140.195972 
L 315.568882 141.247444 
L 315.453593 143.693425 
L 315.33872 142.979115 
L 314.996574 127.319177 
L 314.658075 144.289992 
L 314.546039 142.794058 
L 314.101804 114.348766 
L 313.772659 143.452734 
L 313.44689 121.906193 
L 313.124428 145.131564 
L 313.017664 141.606929 
L 312.911257 137.02712 
L 312.805206 137.962825 
L 312.594161 144.396332 
L 312.384508 131.201173 
L 312.280199 131.710848 
L 312.072602 144.950085 
L 311.96931 139.556559 
L 311.763728 113.079679 
L 311.45783 143.692523 
L 311.154849 79.885861 
L 311.054494 80.648602 
L 310.755319 132.562967 
L 310.458935 46.409143 
L 310.165291 134.56667 
L 310.06801 132.507966 
L 309.874337 99.367072 
L 309.586025 143.265066 
L 309.490499 142.124211 
L 309.300305 129.97411 
L 309.017133 145.024046 
L 308.829745 137.742012 
L 308.736464 138.215986 
L 308.550719 139.583429 
L 308.366055 143.333724 
L 308.274123 142.485751 
L 308.091055 135.784509 
L 307.818416 142.693966 
L 307.548098 120.495017 
L 307.369155 140.062514 
L 307.28006 139.099803 
L 307.102617 110.280998 
L 307.014266 110.378323 
L 306.750678 135.881581 
L 306.576159 131.312425 
L 306.316167 142.29347 
L 306.229973 139.743907 
L 306.144013 137.298054 
L 305.88752 144.709296 
L 305.717668 129.997929 
L 305.633082 131.148015 
L 305.464581 143.801193 
L 305.380665 143.185156 
L 305.130239 124.864487 
L 304.964378 143.585281 
L 304.881772 143.579121 
L 304.635233 115.1756 
L 304.390593 144.208462 
L 304.147823 120.412246 
L 303.906895 144.027855 
L 303.747285 130.750821 
L 303.66778 132.587719 
L 303.509365 144.2519 
L 303.430453 144.043299 
L 303.194885 130.3323 
L 303.116749 129.860814 
L 302.883488 142.936749 
L 302.651927 112.501432 
L 302.422043 145.152 
L 302.19381 93.396807 
L 302.118096 103.426878 
L 301.967206 138.72169 
L 301.892029 135.268551 
L 301.66756 102.085017 
L 301.444666 142.773198 
L 301.296935 136.392998 
L 301.149887 144.356192 
L 301.076618 144.013777 
L 300.930584 139.808496 
L 300.785219 144.872436 
L 300.712785 143.674624 
L 300.568411 136.077498 
L 300.353073 142.140681 
L 300.281617 141.353939 
L 300.139185 137.144843 
L 299.926728 143.994166 
L 299.856223 143.725792 
L 299.645644 133.836231 
L 299.367026 144.060294 
L 299.159655 138.328108 
L 299.090831 139.543379 
L 298.953629 143.47407 
L 298.88525 143.109008 
L 298.68099 126.928026 
L 298.613195 130.421739 
L 298.410672 144.49634 
L 298.209432 134.70408 
L 298.075977 129.041583 
L 297.94308 134.117133 
L 297.810738 144.006408 
L 297.613251 124.251323 
L 297.482273 142.157724 
L 297.416986 140.557328 
L 297.221925 101.323497 
L 297.028056 131.79264 
L 296.899463 103.370507 
L 296.835362 106.558297 
L 296.64383 143.789284 
L 296.580242 141.579254 
L 296.390238 119.539407 
L 296.138655 140.449455 
L 296.013606 131.045865 
L 295.951266 133.567017 
L 295.826952 140.291896 
L 295.764977 138.488588 
L 295.641389 126.613071 
L 295.579774 129.003193 
L 295.456903 143.711976 
L 295.395645 142.914113 
L 295.273482 138.396349 
L 295.091115 144.326372 
L 294.970115 139.828383 
L 294.909788 140.678933 
L 294.789477 144.48603 
L 294.550212 132.318276 
L 294.490676 136.142733 
L 294.371939 144.63121 
L 294.194661 129.762771 
L 294.135787 134.15146 
L 294.018367 144.205695 
L 293.959819 143.148943 
L 293.901379 139.612704 
L 293.843046 139.737561 
L 293.7267 144.160581 
L 293.668687 143.606414 
L 293.552978 139.472357 
L 293.437688 144.659844 
L 293.3802 144.269182 
L 293.265535 140.692995 
L 293.151282 144.27466 
L 293.094309 142.831764 
L 292.98067 134.113588 
L 292.924002 136.526349 
L 292.810969 145.045523 
L 292.754603 142.612416 
L 292.586103 127.465431 
L 292.530134 129.054582 
L 292.418492 144.277247 
L 292.362817 140.116948 
L 292.196377 112.466756 
L 292.030805 143.809612 
L 291.866091 108.248825 
L 291.702227 143.61967 
L 291.647793 136.785309 
L 291.539204 124.505293 
L 291.377013 143.940688 
L 291.323133 137.636683 
L 291.215647 131.557661 
L 291.055096 144.641606 
L 290.895353 122.39973 
L 290.842283 127.267577 
L 290.683604 144.195648 
L 290.578256 129.061146 
L 290.525713 130.874031 
L 290.420887 140.846625 
L 290.368604 140.367221 
L 290.264294 126.940516 
L 290.212268 131.597912 
L 290.108469 144.449925 
L 290.056697 139.849551 
L 289.953405 122.11182 
L 289.901885 123.442528 
L 289.747824 139.929977 
L 289.64553 136.551975 
L 289.543564 143.020696 
L 289.492704 142.416562 
L 289.391227 135.189416 
L 289.34061 136.665434 
L 289.239617 144.102439 
L 289.189241 141.0774 
L 289.088727 125.067963 
L 289.03859 127.099936 
L 288.88865 144.982694 
L 288.789081 139.018533 
L 288.739414 140.994095 
L 288.689824 144.550278 
L 288.640312 144.004474 
L 288.492236 125.802986 
L 288.393901 133.812659 
L 288.344847 131.090653 
L 288.246966 118.599625 
L 288.198139 121.773137 
L 288.100709 137.44656 
L 288.052105 135.768361 
L 287.955121 124.056857 
L 287.90674 128.785987 
L 287.810198 144.94276 
L 287.762037 142.098308 
L 287.617991 112.849814 
L 287.57012 116.885093 
L 287.474594 143.889471 
L 287.426939 137.524301 
L 287.284401 92.876336 
L 287.142499 142.606241 
L 287.095339 134.265079 
L 287.001229 116.436154 
L 286.954278 125.853271 
L 286.860584 142.905877 
L 286.767166 120.681416 
L 286.720559 120.91547 
L 286.627551 138.087446 
L 286.581149 132.872425 
L 286.488548 117.902514 
L 286.35015 142.414599 
L 286.304151 138.18616 
L 286.212353 126.546308 
L 286.166553 132.028741 
L 286.07515 144.928276 
L 286.029548 137.593771 
L 285.938538 114.958193 
L 285.893131 122.671979 
L 285.802512 144.536167 
L 285.757298 142.102543 
L 285.667065 126.024853 
L 285.622044 130.266913 
L 285.487363 144.65513 
L 285.397892 140.529601 
L 285.35325 142.20113 
L 285.264156 143.973724 
L 285.17531 141.352359 
L 285.13098 141.867916 
L 285.042506 143.066702 
L 284.866294 139.991975 
L 284.822393 141.16429 
L 284.734773 145.140137 
L 284.691053 143.305753 
L 284.603794 135.36352 
L 284.560255 137.768914 
L 284.473354 144.934648 
L 284.343447 126.53944 
L 284.300262 132.524665 
L 284.214069 138.577445 
L 284.085216 121.962798 
L 283.999603 135.797324 
L 283.956883 134.636287 
L 283.871615 125.728436 
L 283.829067 129.649971 
L 283.786576 135.844879 
L 283.744141 133.316672 
L 283.617177 115.070429 
L 283.490718 140.723651 
L 283.448677 132.159075 
L 283.36476 114.916005 
L 283.322885 121.366212 
L 283.239301 143.398175 
L 283.19759 143.366222 
L 283.114334 132.460219 
L 283.072788 133.913513 
L 282.948474 140.928425 
L 282.865867 138.563287 
L 282.824644 140.165295 
L 282.742358 143.133613 
L 282.701295 143.006905 
L 282.660285 141.3972 
L 282.619328 142.24452 
L 282.537572 145.006572 
L 282.496773 144.57962 
L 282.415331 142.53378 
L 282.374689 143.304792 
L 282.253072 145.070897 
L 282.212636 144.516223 
L 282.131919 136.685646 
L 282.091637 130.974891 
L 282.051406 134.197721 
L 281.971097 144.411222 
L 281.931018 142.930674 
L 281.851013 128.097654 
L 281.811085 130.277351 
L 281.691603 144.616414 
L 281.651876 140.258916 
L 281.612198 137.578741 
L 281.572569 139.204287 
L 281.49346 145.001339 
L 281.45398 143.867182 
L 281.375165 140.837994 
L 281.335831 141.005308 
L 281.296546 141.827208 
L 281.257309 141.437973 
L 281.17898 137.30669 
L 281.0229 124.234849 
L 280.906341 139.222255 
L 280.867583 136.047388 
L 280.790209 131.356463 
L 280.751592 134.144131 
L 280.636023 144.514471 
L 280.597593 143.639109 
L 280.444337 142.952701 
L 280.367985 143.412795 
L 280.102191 145.100664 
L 280.064401 144.875458 
L 279.951301 138.208323 
L 279.913691 138.27292 
L 279.838602 144.807047 
L 279.801125 143.896259 
L 279.688957 130.195609 
L 279.651655 134.170529 
L 279.502886 142.730349 
L 279.465802 144.165486 
L 279.428761 143.574001 
L 279.317898 131.122389 
L 279.28103 134.511113 
L 279.097326 145.145876 
L 279.024141 138.058264 
L 278.951125 130.447624 
L 278.914679 131.422954 
L 278.841914 140.44507 
L 278.769314 136.381316 
L 278.733077 138.233908 
L 278.660725 138.159506 
L 278.552506 128.931934 
L 278.480565 133.290799 
L 278.444655 133.727655 
L 278.372957 124.670324 
L 278.337168 127.812204 
L 278.194416 144.813985 
L 278.158828 143.726103 
L 278.12328 143.738266 
L 278.052303 145.134773 
L 278.016874 144.286749 
L 277.840319 133.5821 
L 277.805125 135.021707 
L 277.699778 138.617231 
L 277.594778 124.26918 
L 277.524971 129.874688 
L 277.455317 143.610411 
L 277.420547 140.234231 
L 277.316466 131.737538 
L 277.212724 144.083082 
L 277.178218 141.900877 
L 277.074927 134.110771 
L 277.04057 138.560935 
L 276.971969 145.042549 
L 276.903516 144.919658 
L 276.869345 144.784794 
L 276.83521 145.104556 
L 276.801112 144.630528 
L 276.529639 126.854778 
L 276.495867 127.968336 
L 276.428431 135.275948 
L 276.394767 132.794552 
L 276.327545 118.032347 
L 276.293988 120.286024 
L 276.193527 140.177023 
L 276.160111 134.405349 
L 276.093383 125.724874 
L 276.060072 130.903979 
L 275.960348 143.83499 
L 275.927176 140.459561 
L 275.894038 138.454159 
L 275.860935 127.428235 
L 275.794833 129.330846 
L 275.761833 144.048863 
L 275.695936 139.812981 
L 275.630176 136.11232 
L 275.597347 137.141579 
L 275.564551 141.601383 
L 275.499062 138.043126 
L 275.433708 126.468453 
L 275.368488 133.649343 
L 275.303401 133.781752 
L 275.238448 129.959027 
L 275.206021 132.235251 
L 275.141266 129.610056 
L 275.108938 131.538728 
L 274.979954 141.517667 
L 274.851492 139.354894 
L 274.819457 138.64097 
L 274.755485 144.347744 
L 274.691641 143.451503 
L 274.659767 143.533504 
L 274.627926 143.424715 
L 274.564337 145.07589 
L 274.469193 135.018673 
L 274.405922 137.077905 
L 274.311251 143.720709 
L 274.279756 140.465028 
L 274.21686 138.59408 
L 274.185459 140.458164 
L 274.12275 144.772664 
L 274.091442 142.414475 
L 274.028918 131.968657 
L 273.966516 138.181396 
L 273.873144 142.821534 
L 273.84208 141.417871 
L 273.780045 138.060931 
L 273.71813 140.188453 
L 273.656336 144.741764 
L 273.594662 143.065376 
L 273.288074 118.706635 
L 273.257577 121.906711 
L 273.135883 142.195821 
L 273.105532 138.807344 
L 273.07521 138.623174 
L 272.984417 144.922762 
L 272.954211 143.791243 
L 272.893884 139.477768 
L 272.833671 141.203726 
L 272.803607 141.445992 
L 272.773572 140.384843 
L 272.743565 140.799053 
L 272.683636 145.012941 
L 272.683636 145.012941 
" style="fill:none;stroke:#1f77b4;stroke-linecap:square;stroke-width:1.5;"/>
   </g>
   <g id="patch_3">
    <path d="M 265.92 150.089143 
L 265.92 41.472 
" style="fill:none;stroke:#000000;stroke-linecap:square;stroke-linejoin:miter;stroke-width:0.8;"/>
   </g>
   <g id="patch_4">
    <path d="M 414.72 150.089143 
L 414.72 41.472 
" style="fill:none;stroke:#000000;stroke-linecap:square;stroke-linejoin:miter;stroke-width:0.8;"/>
   </g>
   <g id="patch_5">
    <path d="M 265.92 150.089143 
L 414.72 150.089143 
" style="fill:none;stroke:#000000;stroke-linecap:square;stroke-linejoin:miter;stroke-width:0.8;"/>
   </g>
   <g id="patch_6">
    <path d="M 265.92 41.472 
L 414.72 41.472 
" style="fill:none;stroke:#000000;stroke-linecap:square;stroke-linejoin:miter;stroke-width:0.8;"/>
   </g>
   <g id="text_9">
    <!-- Periodogram -->
    <g transform="translate(307.698125 35.472)scale(0.1 -0.1)">
     <defs>
      <path d="M 52.484375 46.6875 
L 52.484375 1.125 
Q 52.484375 -10.0625 46.328125 -16.140625 
Q 40.1875 -22.21875 28.8125 -22.21875 
Q 23.6875 -22.21875 19 -21.28125 
Q 14.3125 -20.359375 10.015625 -18.5 
L 10.015625 -7.625 
L 14.703125 -7.625 
Q 15.578125 -12.703125 18.84375 -15.046875 
Q 22.125 -17.390625 28.21875 -17.390625 
Q 36.140625 -17.390625 39.8125 -12.921875 
Q 43.5 -8.453125 43.5 1.125 
L 43.5 8.109375 
Q 40.875 3.21875 36.796875 0.890625 
Q 32.71875 -1.421875 26.703125 -1.421875 
Q 17.140625 -1.421875 11.0625 6.171875 
Q 4.984375 13.765625 4.984375 25.984375 
Q 4.984375 38.1875 11.03125 45.75 
Q 17.09375 53.328125 26.703125 53.328125 
Q 32.71875 53.328125 36.796875 51 
Q 40.875 48.6875 43.5 43.796875 
L 43.5 51.90625 
L 61.078125 51.90625 
L 61.078125 46.6875 
z
M 43.5 28.515625 
Q 43.5 37.84375 39.90625 42.765625 
Q 36.328125 47.703125 29.5 47.703125 
Q 22.5625 47.703125 19.015625 42.234375 
Q 15.484375 36.765625 15.484375 25.984375 
Q 15.484375 15.234375 19.015625 9.71875 
Q 22.5625 4.203125 29.5 4.203125 
Q 36.328125 4.203125 39.90625 9.109375 
Q 43.5 14.015625 43.5 23.390625 
z
" id="DejaVuSerif-103"/>
      <path d="M 39.796875 16.3125 
L 39.796875 27.296875 
L 28.21875 27.296875 
Q 21.53125 27.296875 18.25 24.40625 
Q 14.984375 21.53125 14.984375 15.578125 
Q 14.984375 10.15625 18.296875 6.984375 
Q 21.625 3.8125 27.296875 3.8125 
Q 32.90625 3.8125 36.34375 7.28125 
Q 39.796875 10.75 39.796875 16.3125 
z
M 48.78125 32.421875 
L 48.78125 5.171875 
L 56.78125 5.171875 
L 56.78125 0 
L 39.796875 0 
L 39.796875 5.609375 
Q 36.8125 2 32.90625 0.28125 
Q 29 -1.421875 23.78125 -1.421875 
Q 15.140625 -1.421875 10.0625 3.171875 
Q 4.984375 7.765625 4.984375 15.578125 
Q 4.984375 23.640625 10.796875 28.078125 
Q 16.609375 32.515625 27.203125 32.515625 
L 39.796875 32.515625 
L 39.796875 36.078125 
Q 39.796875 42 36.203125 45.234375 
Q 32.625 48.484375 26.125 48.484375 
Q 20.75 48.484375 17.578125 46.046875 
Q 14.40625 43.609375 13.625 38.8125 
L 8.984375 38.8125 
L 8.984375 49.3125 
Q 13.671875 51.3125 18.09375 52.3125 
Q 22.515625 53.328125 26.703125 53.328125 
Q 37.5 53.328125 43.140625 47.96875 
Q 48.78125 42.625 48.78125 32.421875 
z
" id="DejaVuSerif-97"/>
      <path d="M 51.8125 41.796875 
Q 54.390625 47.515625 58.421875 50.421875 
Q 62.453125 53.328125 67.828125 53.328125 
Q 75.984375 53.328125 79.984375 48.265625 
Q 83.984375 43.21875 83.984375 33.015625 
L 83.984375 5.171875 
L 92.09375 5.171875 
L 92.09375 0 
L 67.1875 0 
L 67.1875 5.171875 
L 75 5.171875 
L 75 31.984375 
Q 75 39.9375 72.65625 43.3125 
Q 70.3125 46.6875 64.890625 46.6875 
Q 58.890625 46.6875 55.734375 42.140625 
Q 52.59375 37.59375 52.59375 28.90625 
L 52.59375 5.171875 
L 60.40625 5.171875 
L 60.40625 0 
L 35.796875 0 
L 35.796875 5.171875 
L 43.609375 5.171875 
L 43.609375 32.328125 
Q 43.609375 40.09375 41.265625 43.390625 
Q 38.921875 46.6875 33.5 46.6875 
Q 27.484375 46.6875 24.328125 42.140625 
Q 21.1875 37.59375 21.1875 28.90625 
L 21.1875 5.171875 
L 29 5.171875 
L 29 0 
L 4.109375 0 
L 4.109375 5.171875 
L 12.203125 5.171875 
L 12.203125 46.78125 
L 3.609375 46.78125 
L 3.609375 51.90625 
L 21.1875 51.90625 
L 21.1875 42.671875 
Q 23.6875 47.859375 27.53125 50.59375 
Q 31.390625 53.328125 36.28125 53.328125 
Q 42.328125 53.328125 46.375 50.3125 
Q 50.4375 47.3125 51.8125 41.796875 
z
" id="DejaVuSerif-109"/>
     </defs>
     <use xlink:href="#DejaVuSerif-80"/>
     <use x="62.785156" xlink:href="#DejaVuSerif-101"/>
     <use x="121.964844" xlink:href="#DejaVuSerif-114"/>
     <use x="169.767578" xlink:href="#DejaVuSerif-105"/>
     <use x="201.75" xlink:href="#DejaVuSerif-111"/>
     <use x="261.955078" xlink:href="#DejaVuSerif-100"/>
     <use x="325.96875" xlink:href="#DejaVuSerif-111"/>
     <use x="386.173828" xlink:href="#DejaVuSerif-103"/>
     <use x="450.1875" xlink:href="#DejaVuSerif-114"/>
     <use x="497.990234" xlink:href="#DejaVuSerif-97"/>
     <use x="557.609375" xlink:href="#DejaVuSerif-109"/>
    </g>
   </g>
   <g id="legend_1">
    <g id="patch_7">
     <path d="M 419.648125 108.123071 
L 454.431875 108.123071 
Q 455.231875 108.123071 455.231875 107.323071 
L 455.231875 84.238071 
Q 455.231875 83.438071 454.431875 83.438071 
L 419.648125 83.438071 
Q 418.848125 83.438071 418.848125 84.238071 
L 418.848125 107.323071 
Q 418.848125 108.123071 419.648125 108.123071 
z
" style="fill:#ffffff;opacity:0.8;stroke:#cccccc;stroke-linejoin:miter;"/>
    </g>
    <g id="line2d_24">
     <path d="M 420.448125 86.677446 
L 428.448125 86.677446 
" style="fill:none;stroke:#808080;stroke-dasharray:5.55,2.4;stroke-dashoffset:0;stroke-width:1.5;"/>
    </g>
    <g id="text_10">
     <!-- 99.9% FAP -->
     <g transform="translate(431.648125 88.077446)scale(0.04 -0.04)">
      <defs>
       <path d="M 46.78125 32.671875 
Q 43.5 29 39.25 27.1875 
Q 35.015625 25.390625 29.6875 25.390625 
Q 18.84375 25.390625 12.5625 31.9375 
Q 6.296875 38.484375 6.296875 49.8125 
Q 6.296875 60.890625 13.109375 67.546875 
Q 19.921875 74.21875 31.296875 74.21875 
Q 43.65625 74.21875 50.265625 65.015625 
Q 56.890625 55.8125 56.890625 38.71875 
Q 56.890625 19.578125 49.015625 9.078125 
Q 41.15625 -1.421875 26.90625 -1.421875 
Q 23.046875 -1.421875 18.796875 -0.6875 
Q 14.546875 0.046875 10.109375 1.515625 
L 10.109375 13.625 
L 15.578125 13.625 
Q 16.21875 8.6875 19.390625 6.046875 
Q 22.5625 3.421875 27.875 3.421875 
Q 37.359375 3.421875 41.984375 10.5625 
Q 46.625 17.71875 46.78125 32.671875 
z
M 30.90625 69.390625 
Q 23.96875 69.390625 20.28125 64.328125 
Q 16.609375 59.28125 16.609375 49.8125 
Q 16.609375 40.328125 20.28125 35.25 
Q 23.96875 30.171875 30.90625 30.171875 
Q 37.84375 30.171875 41.53125 35.078125 
Q 45.21875 39.984375 45.21875 49.21875 
Q 45.21875 58.9375 41.5 64.15625 
Q 37.796875 69.390625 30.90625 69.390625 
z
" id="DejaVuSerif-57"/>
       <path d="M 22.40625 69.671875 
Q 18.109375 69.671875 15.6875 65.625 
Q 13.28125 61.578125 13.28125 54.296875 
Q 13.28125 47.125 15.75 43.015625 
Q 18.21875 38.921875 22.40625 38.921875 
Q 26.5625 38.921875 28.96875 43 
Q 31.390625 47.078125 31.390625 54.296875 
Q 31.390625 61.53125 28.96875 65.59375 
Q 26.5625 69.671875 22.40625 69.671875 
z
M 72.703125 33.890625 
Q 68.453125 33.890625 66.03125 29.78125 
Q 63.625 25.6875 63.625 18.40625 
Q 63.625 11.234375 66.0625 7.15625 
Q 68.5 3.078125 72.703125 3.078125 
Q 76.90625 3.078125 79.296875 7.15625 
Q 81.6875 11.234375 81.6875 18.40625 
Q 81.6875 25.640625 79.265625 29.765625 
Q 76.859375 33.890625 72.703125 33.890625 
z
M 72.703125 38.28125 
Q 80.421875 38.28125 84.953125 32.90625 
Q 89.5 27.546875 89.5 18.40625 
Q 89.5 9.28125 84.9375 3.921875 
Q 80.375 -1.421875 72.703125 -1.421875 
Q 64.890625 -1.421875 60.34375 3.921875 
Q 55.8125 9.28125 55.8125 18.40625 
Q 55.8125 27.59375 60.375 32.9375 
Q 64.9375 38.28125 72.703125 38.28125 
z
M 66.609375 74.21875 
L 74.03125 74.21875 
L 28.421875 -1.421875 
L 21 -1.421875 
z
M 22.3125 74.21875 
Q 30.03125 74.21875 34.609375 68.875 
Q 39.203125 63.53125 39.203125 54.390625 
Q 39.203125 45.171875 34.640625 39.84375 
Q 30.078125 34.515625 22.3125 34.515625 
Q 14.546875 34.515625 10.03125 39.859375 
Q 5.515625 45.21875 5.515625 54.390625 
Q 5.515625 63.484375 10.046875 68.84375 
Q 14.59375 74.21875 22.3125 74.21875 
z
" id="DejaVuSerif-37"/>
       <path d="M 5.515625 0 
L 5.515625 5.171875 
L 14.796875 5.171875 
L 14.796875 67.671875 
L 5.515625 67.671875 
L 5.515625 72.90625 
L 65.1875 72.90625 
L 65.1875 56.6875 
L 59.1875 56.6875 
L 59.1875 66.890625 
L 24.703125 66.890625 
L 24.703125 42.484375 
L 49.609375 42.484375 
L 49.609375 51.609375 
L 55.609375 51.609375 
L 55.609375 27.390625 
L 49.609375 27.390625 
L 49.609375 36.53125 
L 24.703125 36.53125 
L 24.703125 5.171875 
L 36.375 5.171875 
L 36.375 0 
z
" id="DejaVuSerif-70"/>
       <path d="M 20.015625 26.421875 
L 46.78125 26.421875 
L 33.40625 61.078125 
z
M -0.59375 0 
L -0.59375 5.171875 
L 5.8125 5.171875 
L 31.78125 72.90625 
L 39.984375 72.90625 
L 66.015625 5.171875 
L 73.1875 5.171875 
L 73.1875 0 
L 46.6875 0 
L 46.6875 5.171875 
L 54.78125 5.171875 
L 48.6875 21.1875 
L 18.015625 21.1875 
L 11.921875 5.171875 
L 19.921875 5.171875 
L 19.921875 0 
z
" id="DejaVuSerif-65"/>
      </defs>
      <use xlink:href="#DejaVuSerif-57"/>
      <use x="63.623047" xlink:href="#DejaVuSerif-57"/>
      <use x="127.246094" xlink:href="#DejaVuSerif-46"/>
      <use x="159.033203" xlink:href="#DejaVuSerif-57"/>
      <use x="222.65625" xlink:href="#DejaVuSerif-37"/>
      <use x="317.675781" xlink:href="#DejaVuSerif-32"/>
      <use x="349.462891" xlink:href="#DejaVuSerif-70"/>
      <use x="410.097656" xlink:href="#DejaVuSerif-65"/>
      <use x="482.314453" xlink:href="#DejaVuSerif-80"/>
     </g>
    </g>
    <g id="line2d_25">
     <path d="M 420.448125 92.548696 
L 428.448125 92.548696 
" style="fill:none;stroke:#a9a9a9;stroke-dasharray:5.55,2.4;stroke-dashoffset:0;stroke-width:1.5;"/>
    </g>
    <g id="text_11">
     <!-- 99.0% FAP -->
     <g transform="translate(431.648125 93.948696)scale(0.04 -0.04)">
      <use xlink:href="#DejaVuSerif-57"/>
      <use x="63.623047" xlink:href="#DejaVuSerif-57"/>
      <use x="127.246094" xlink:href="#DejaVuSerif-46"/>
      <use x="159.033203" xlink:href="#DejaVuSerif-48"/>
      <use x="222.65625" xlink:href="#DejaVuSerif-37"/>
      <use x="317.675781" xlink:href="#DejaVuSerif-32"/>
      <use x="349.462891" xlink:href="#DejaVuSerif-70"/>
      <use x="410.097656" xlink:href="#DejaVuSerif-65"/>
      <use x="482.314453" xlink:href="#DejaVuSerif-80"/>
     </g>
    </g>
    <g id="line2d_26">
     <path d="M 420.448125 98.419946 
L 428.448125 98.419946 
" style="fill:none;stroke:#c0c0c0;stroke-dasharray:5.55,2.4;stroke-dashoffset:0;stroke-width:1.5;"/>
    </g>
    <g id="text_12">
     <!-- 95.0% FAP -->
     <g transform="translate(431.648125 99.819946)scale(0.04 -0.04)">
      <defs>
       <path d="M 50.296875 72.90625 
L 50.296875 64.890625 
L 16.890625 64.890625 
L 16.890625 44 
Q 19.4375 45.75 22.828125 46.625 
Q 26.21875 47.515625 30.421875 47.515625 
Q 42.234375 47.515625 49.0625 40.96875 
Q 55.90625 34.421875 55.90625 23.09375 
Q 55.90625 11.53125 49 5.046875 
Q 42.09375 -1.421875 29.59375 -1.421875 
Q 24.5625 -1.421875 19.28125 -0.1875 
Q 14.015625 1.03125 8.5 3.515625 
L 8.5 17.671875 
L 14.015625 17.671875 
Q 14.453125 10.75 18.421875 7.078125 
Q 22.40625 3.421875 29.59375 3.421875 
Q 37.3125 3.421875 41.453125 8.5 
Q 45.609375 13.578125 45.609375 23.09375 
Q 45.609375 32.5625 41.484375 37.609375 
Q 37.359375 42.671875 29.59375 42.671875 
Q 25.203125 42.671875 21.84375 41.109375 
Q 18.5 39.546875 15.921875 36.28125 
L 11.71875 36.28125 
L 11.71875 72.90625 
z
" id="DejaVuSerif-53"/>
      </defs>
      <use xlink:href="#DejaVuSerif-57"/>
      <use x="63.623047" xlink:href="#DejaVuSerif-53"/>
      <use x="127.246094" xlink:href="#DejaVuSerif-46"/>
      <use x="159.033203" xlink:href="#DejaVuSerif-48"/>
      <use x="222.65625" xlink:href="#DejaVuSerif-37"/>
      <use x="317.675781" xlink:href="#DejaVuSerif-32"/>
      <use x="349.462891" xlink:href="#DejaVuSerif-70"/>
      <use x="410.097656" xlink:href="#DejaVuSerif-65"/>
      <use x="482.314453" xlink:href="#DejaVuSerif-80"/>
     </g>
    </g>
    <g id="line2d_27">
     <path d="M 420.448125 104.291196 
L 428.448125 104.291196 
" style="fill:none;stroke:#d3d3d3;stroke-dasharray:5.55,2.4;stroke-dashoffset:0;stroke-width:1.5;"/>
    </g>
    <g id="text_13">
     <!-- 90.0% FAP -->
     <g transform="translate(431.648125 105.691196)scale(0.04 -0.04)">
      <use xlink:href="#DejaVuSerif-57"/>
      <use x="63.623047" xlink:href="#DejaVuSerif-48"/>
      <use x="127.246094" xlink:href="#DejaVuSerif-46"/>
      <use x="159.033203" xlink:href="#DejaVuSerif-48"/>
      <use x="222.65625" xlink:href="#DejaVuSerif-37"/>
      <use x="317.675781" xlink:href="#DejaVuSerif-32"/>
      <use x="349.462891" xlink:href="#DejaVuSerif-70"/>
      <use x="410.097656" xlink:href="#DejaVuSerif-65"/>
      <use x="482.314453" xlink:href="#DejaVuSerif-80"/>
     </g>
    </g>
   </g>
  </g>
  <g id="axes_2">
   <g id="patch_8">
    <path d="M 57.6 150.089143 
L 206.4 150.089143 
L 206.4 41.472 
L 57.6 41.472 
z
" style="fill:#ffffff;"/>
   </g>
   <g id="PathCollection_1">
    <defs>
     <path d="M 0 0.707107 
C 0.187527 0.707107 0.367398 0.632602 0.5 0.5 
C 0.632602 0.367398 0.707107 0.187527 0.707107 0 
C 0.707107 -0.187527 0.632602 -0.367398 0.5 -0.5 
C 0.367398 -0.632602 0.187527 -0.707107 0 -0.707107 
C -0.187527 -0.707107 -0.367398 -0.632602 -0.5 -0.5 
C -0.632602 -0.367398 -0.707107 -0.187527 -0.707107 0 
C -0.707107 0.187527 -0.632602 0.367398 -0.5 0.5 
C -0.367398 0.632602 -0.187527 0.707107 0 0.707107 
z
" id="md660ff6e87" style="stroke:#1f77b4;"/>
    </defs>
    <g clip-path="url(#p00cb54934f)">
     <use style="fill:#1f77b4;stroke:#1f77b4;" x="93.155461" xlink:href="#md660ff6e87" y="108.148696"/>
     <use style="fill:#1f77b4;stroke:#1f77b4;" x="93.160829" xlink:href="#md660ff6e87" y="120.940605"/>
     <use style="fill:#1f77b4;stroke:#1f77b4;" x="106.525648" xlink:href="#md660ff6e87" y="84.547189"/>
     <use style="fill:#1f77b4;stroke:#1f77b4;" x="106.531016" xlink:href="#md660ff6e87" y="79.872206"/>
     <use style="fill:#1f77b4;stroke:#1f77b4;" x="130.728352" xlink:href="#md660ff6e87" y="99.259438"/>
     <use style="fill:#1f77b4;stroke:#1f77b4;" x="96.232034" xlink:href="#md660ff6e87" y="98.836446"/>
     <use style="fill:#1f77b4;stroke:#1f77b4;" x="96.269338" xlink:href="#md660ff6e87" y="64.974941"/>
     <use style="fill:#1f77b4;stroke:#1f77b4;" x="121.68975" xlink:href="#md660ff6e87" y="94.890339"/>
     <use style="fill:#1f77b4;stroke:#1f77b4;" x="64.363636" xlink:href="#md660ff6e87" y="124.541329"/>
     <use style="fill:#1f77b4;stroke:#1f77b4;" x="64.36887" xlink:href="#md660ff6e87" y="131.757628"/>
     <use style="fill:#1f77b4;stroke:#1f77b4;" x="87.794339" xlink:href="#md660ff6e87" y="134.508707"/>
     <use style="fill:#1f77b4;stroke:#1f77b4;" x="87.799706" xlink:href="#md660ff6e87" y="128.387356"/>
     <use style="fill:#1f77b4;stroke:#1f77b4;" x="110.614874" xlink:href="#md660ff6e87" y="87.590788"/>
     <use style="fill:#1f77b4;stroke:#1f77b4;" x="110.620242" xlink:href="#md660ff6e87" y="54.952821"/>
     <use style="fill:#1f77b4;stroke:#1f77b4;" x="122.09519" xlink:href="#md660ff6e87" y="92.554728"/>
     <use style="fill:#1f77b4;stroke:#1f77b4;" x="122.100557" xlink:href="#md660ff6e87" y="95.386881"/>
     <use style="fill:#1f77b4;stroke:#1f77b4;" x="65.400579" xlink:href="#md660ff6e87" y="124.324142"/>
     <use style="fill:#1f77b4;stroke:#1f77b4;" x="65.405812" xlink:href="#md660ff6e87" y="118.623901"/>
     <use style="fill:#1f77b4;stroke:#1f77b4;" x="76.494827" xlink:href="#md660ff6e87" y="97.038954"/>
     <use style="fill:#1f77b4;stroke:#1f77b4;" x="76.500195" xlink:href="#md660ff6e87" y="103.598344"/>
     <use style="fill:#1f77b4;stroke:#1f77b4;" x="88.077932" xlink:href="#md660ff6e87" y="124.103291"/>
     <use style="fill:#1f77b4;stroke:#1f77b4;" x="88.083166" xlink:href="#md660ff6e87" y="114.51921"/>
     <use style="fill:#1f77b4;stroke:#1f77b4;" x="123.601715" xlink:href="#md660ff6e87" y="103.806028"/>
     <use style="fill:#1f77b4;stroke:#1f77b4;" x="66.281419" xlink:href="#md660ff6e87" y="101.447749"/>
     <use style="fill:#1f77b4;stroke:#1f77b4;" x="77.822792" xlink:href="#md660ff6e87" y="113.567602"/>
     <use style="fill:#1f77b4;stroke:#1f77b4;" x="89.419585" xlink:href="#md660ff6e87" y="112.744288"/>
     <use style="fill:#1f77b4;stroke:#1f77b4;" x="100.992358" xlink:href="#md660ff6e87" y="58.313689"/>
     <use style="fill:#1f77b4;stroke:#1f77b4;" x="112.635314" xlink:href="#md660ff6e87" y="86.261626"/>
     <use style="fill:#1f77b4;stroke:#1f77b4;" x="114.12265" xlink:href="#md660ff6e87" y="104.927506"/>
     <use style="fill:#1f77b4;stroke:#1f77b4;" x="78.323652" xlink:href="#md660ff6e87" y="133.92525"/>
     <use style="fill:#1f77b4;stroke:#1f77b4;" x="91.609374" xlink:href="#md660ff6e87" y="100.165707"/>
     <use style="fill:#1f77b4;stroke:#1f77b4;" x="103.417384" xlink:href="#md660ff6e87" y="77.851884"/>
     <use style="fill:#1f77b4;stroke:#1f77b4;" x="115.429278" xlink:href="#md660ff6e87" y="81.074955"/>
     <use style="fill:#1f77b4;stroke:#1f77b4;" x="81.525547" xlink:href="#md660ff6e87" y="145.152"/>
     <use style="fill:#1f77b4;stroke:#1f77b4;" x="129.46748" xlink:href="#md660ff6e87" y="87.360534"/>
     <use style="fill:#1f77b4;stroke:#1f77b4;" x="106.935637" xlink:href="#md660ff6e87" y="76.500053"/>
     <use style="fill:#1f77b4;stroke:#1f77b4;" x="84.974424" xlink:href="#md660ff6e87" y="131.447982"/>
     <use style="fill:#1f77b4;stroke:#1f77b4;" x="105.040684" xlink:href="#md660ff6e87" y="52.39636"/>
     <use style="fill:#1f77b4;stroke:#1f77b4;" x="75.941685" xlink:href="#md660ff6e87" y="140.386341"/>
     <use style="fill:#1f77b4;stroke:#1f77b4;" x="112.102837" xlink:href="#md660ff6e87" y="46.409143"/>
     <use style="fill:#1f77b4;stroke:#1f77b4;" x="112.108071" xlink:href="#md660ff6e87" y="72.608589"/>
     <use style="fill:#1f77b4;stroke:#1f77b4;" x="123.400921" xlink:href="#md660ff6e87" y="87.74185"/>
     <use style="fill:#1f77b4;stroke:#1f77b4;" x="123.406155" xlink:href="#md660ff6e87" y="71.466324"/>
     <use style="fill:#1f77b4;stroke:#1f77b4;" x="65.587023" xlink:href="#md660ff6e87" y="120.194801"/>
     <use style="fill:#1f77b4;stroke:#1f77b4;" x="65.592256" xlink:href="#md660ff6e87" y="109.572296"/>
    </g>
   </g>
   <g id="PathCollection_2">
    <g clip-path="url(#p00cb54934f)">
     <use style="fill:#1f77b4;stroke:#1f77b4;" x="162.063473" xlink:href="#md660ff6e87" y="108.148696"/>
     <use style="fill:#1f77b4;stroke:#1f77b4;" x="162.068841" xlink:href="#md660ff6e87" y="120.940605"/>
     <use style="fill:#1f77b4;stroke:#1f77b4;" x="175.43366" xlink:href="#md660ff6e87" y="84.547189"/>
     <use style="fill:#1f77b4;stroke:#1f77b4;" x="175.439028" xlink:href="#md660ff6e87" y="79.872206"/>
     <use style="fill:#1f77b4;stroke:#1f77b4;" x="199.636364" xlink:href="#md660ff6e87" y="99.259438"/>
     <use style="fill:#1f77b4;stroke:#1f77b4;" x="165.140046" xlink:href="#md660ff6e87" y="98.836446"/>
     <use style="fill:#1f77b4;stroke:#1f77b4;" x="165.17735" xlink:href="#md660ff6e87" y="64.974941"/>
     <use style="fill:#1f77b4;stroke:#1f77b4;" x="190.597762" xlink:href="#md660ff6e87" y="94.890339"/>
     <use style="fill:#1f77b4;stroke:#1f77b4;" x="133.271648" xlink:href="#md660ff6e87" y="124.541329"/>
     <use style="fill:#1f77b4;stroke:#1f77b4;" x="133.276882" xlink:href="#md660ff6e87" y="131.757628"/>
     <use style="fill:#1f77b4;stroke:#1f77b4;" x="156.702351" xlink:href="#md660ff6e87" y="134.508707"/>
     <use style="fill:#1f77b4;stroke:#1f77b4;" x="156.707718" xlink:href="#md660ff6e87" y="128.387356"/>
     <use style="fill:#1f77b4;stroke:#1f77b4;" x="179.522886" xlink:href="#md660ff6e87" y="87.590788"/>
     <use style="fill:#1f77b4;stroke:#1f77b4;" x="179.528254" xlink:href="#md660ff6e87" y="54.952821"/>
     <use style="fill:#1f77b4;stroke:#1f77b4;" x="191.003202" xlink:href="#md660ff6e87" y="92.554728"/>
     <use style="fill:#1f77b4;stroke:#1f77b4;" x="191.008569" xlink:href="#md660ff6e87" y="95.386881"/>
     <use style="fill:#1f77b4;stroke:#1f77b4;" x="134.308591" xlink:href="#md660ff6e87" y="124.324142"/>
     <use style="fill:#1f77b4;stroke:#1f77b4;" x="134.313824" xlink:href="#md660ff6e87" y="118.623901"/>
     <use style="fill:#1f77b4;stroke:#1f77b4;" x="145.402839" xlink:href="#md660ff6e87" y="97.038954"/>
     <use style="fill:#1f77b4;stroke:#1f77b4;" x="145.408207" xlink:href="#md660ff6e87" y="103.598344"/>
     <use style="fill:#1f77b4;stroke:#1f77b4;" x="156.985944" xlink:href="#md660ff6e87" y="124.103291"/>
     <use style="fill:#1f77b4;stroke:#1f77b4;" x="156.991178" xlink:href="#md660ff6e87" y="114.51921"/>
     <use style="fill:#1f77b4;stroke:#1f77b4;" x="192.509727" xlink:href="#md660ff6e87" y="103.806028"/>
     <use style="fill:#1f77b4;stroke:#1f77b4;" x="135.189431" xlink:href="#md660ff6e87" y="101.447749"/>
     <use style="fill:#1f77b4;stroke:#1f77b4;" x="146.730804" xlink:href="#md660ff6e87" y="113.567602"/>
     <use style="fill:#1f77b4;stroke:#1f77b4;" x="158.327597" xlink:href="#md660ff6e87" y="112.744288"/>
     <use style="fill:#1f77b4;stroke:#1f77b4;" x="169.90037" xlink:href="#md660ff6e87" y="58.313689"/>
     <use style="fill:#1f77b4;stroke:#1f77b4;" x="181.543326" xlink:href="#md660ff6e87" y="86.261626"/>
     <use style="fill:#1f77b4;stroke:#1f77b4;" x="183.030662" xlink:href="#md660ff6e87" y="104.927506"/>
     <use style="fill:#1f77b4;stroke:#1f77b4;" x="147.231663" xlink:href="#md660ff6e87" y="133.92525"/>
     <use style="fill:#1f77b4;stroke:#1f77b4;" x="160.517386" xlink:href="#md660ff6e87" y="100.165707"/>
     <use style="fill:#1f77b4;stroke:#1f77b4;" x="172.325396" xlink:href="#md660ff6e87" y="77.851884"/>
     <use style="fill:#1f77b4;stroke:#1f77b4;" x="184.33729" xlink:href="#md660ff6e87" y="81.074955"/>
     <use style="fill:#1f77b4;stroke:#1f77b4;" x="150.433559" xlink:href="#md660ff6e87" y="145.152"/>
     <use style="fill:#1f77b4;stroke:#1f77b4;" x="198.375492" xlink:href="#md660ff6e87" y="87.360534"/>
     <use style="fill:#1f77b4;stroke:#1f77b4;" x="175.843649" xlink:href="#md660ff6e87" y="76.500053"/>
     <use style="fill:#1f77b4;stroke:#1f77b4;" x="153.882436" xlink:href="#md660ff6e87" y="131.447982"/>
     <use style="fill:#1f77b4;stroke:#1f77b4;" x="173.948696" xlink:href="#md660ff6e87" y="52.39636"/>
     <use style="fill:#1f77b4;stroke:#1f77b4;" x="144.849697" xlink:href="#md660ff6e87" y="140.386341"/>
     <use style="fill:#1f77b4;stroke:#1f77b4;" x="181.010849" xlink:href="#md660ff6e87" y="46.409143"/>
     <use style="fill:#1f77b4;stroke:#1f77b4;" x="181.016083" xlink:href="#md660ff6e87" y="72.608589"/>
     <use style="fill:#1f77b4;stroke:#1f77b4;" x="192.308933" xlink:href="#md660ff6e87" y="87.74185"/>
     <use style="fill:#1f77b4;stroke:#1f77b4;" x="192.314167" xlink:href="#md660ff6e87" y="71.466324"/>
     <use style="fill:#1f77b4;stroke:#1f77b4;" x="134.495035" xlink:href="#md660ff6e87" y="120.194801"/>
     <use style="fill:#1f77b4;stroke:#1f77b4;" x="134.500268" xlink:href="#md660ff6e87" y="109.572296"/>
    </g>
   </g>
   <g id="matplotlib.axis_3">
    <g id="xtick_19">
     <g id="line2d_28">
      <g>
       <use style="stroke:#000000;stroke-width:0.8;" x="62.036073" xlink:href="#md4d46b8aed" y="150.089143"/>
      </g>
     </g>
     <g id="text_14">
      <!-- 0 -->
      <g transform="translate(58.854823 164.68758)scale(0.1 -0.1)">
       <use xlink:href="#DejaVuSerif-48"/>
      </g>
     </g>
    </g>
    <g id="xtick_20">
     <g id="line2d_29">
      <g>
       <use style="stroke:#000000;stroke-width:0.8;" x="130.944085" xlink:href="#md4d46b8aed" y="150.089143"/>
      </g>
     </g>
     <g id="text_15">
      <!-- 1 -->
      <g transform="translate(127.762835 164.68758)scale(0.1 -0.1)">
       <use xlink:href="#DejaVuSerif-49"/>
      </g>
     </g>
    </g>
    <g id="xtick_21">
     <g id="line2d_30">
      <g>
       <use style="stroke:#000000;stroke-width:0.8;" x="199.852097" xlink:href="#md4d46b8aed" y="150.089143"/>
      </g>
     </g>
     <g id="text_16">
      <!-- 2 -->
      <g transform="translate(196.670847 164.68758)scale(0.1 -0.1)">
       <use xlink:href="#DejaVuSerif-50"/>
      </g>
     </g>
    </g>
    <g id="text_17">
     <!-- Phase (P = 5.943 d) -->
     <g transform="translate(81.582812 178.365705)scale(0.1 -0.1)">
      <defs>
       <path d="M 4.109375 0 
L 4.109375 5.171875 
L 12.203125 5.171875 
L 12.203125 70.796875 
L 3.609375 70.796875 
L 3.609375 75.984375 
L 21.1875 75.984375 
L 21.1875 42.671875 
Q 23.6875 47.953125 27.65625 50.640625 
Q 31.640625 53.328125 36.921875 53.328125 
Q 45.515625 53.328125 49.5625 48.390625 
Q 53.609375 43.453125 53.609375 33.015625 
L 53.609375 5.171875 
L 61.625 5.171875 
L 61.625 0 
L 36.8125 0 
L 36.8125 5.171875 
L 44.578125 5.171875 
L 44.578125 30.171875 
Q 44.578125 39.703125 42.25 43.1875 
Q 39.9375 46.6875 33.984375 46.6875 
Q 27.734375 46.6875 24.453125 42.140625 
Q 21.1875 37.59375 21.1875 28.90625 
L 21.1875 5.171875 
L 29 5.171875 
L 29 0 
z
" id="DejaVuSerif-104"/>
       <path d="M 5.609375 2.875 
L 5.609375 14.984375 
L 10.796875 14.984375 
Q 10.984375 9.1875 14.421875 6.296875 
Q 17.875 3.421875 24.609375 3.421875 
Q 30.671875 3.421875 33.84375 5.6875 
Q 37.015625 7.953125 37.015625 12.3125 
Q 37.015625 15.71875 34.6875 17.8125 
Q 32.375 19.921875 24.90625 22.3125 
L 18.40625 24.515625 
Q 11.71875 26.65625 8.71875 29.875 
Q 5.71875 33.109375 5.71875 38.09375 
Q 5.71875 45.21875 10.9375 49.265625 
Q 16.15625 53.328125 25.390625 53.328125 
Q 29.5 53.328125 34.03125 52.25 
Q 38.578125 51.171875 43.40625 49.125 
L 43.40625 37.796875 
L 38.234375 37.796875 
Q 38.03125 42.828125 34.703125 45.65625 
Q 31.390625 48.484375 25.6875 48.484375 
Q 20.015625 48.484375 17.109375 46.484375 
Q 14.203125 44.484375 14.203125 40.484375 
Q 14.203125 37.203125 16.40625 35.21875 
Q 18.609375 33.25 25.203125 31.203125 
L 32.328125 29 
Q 39.703125 26.703125 42.9375 23.265625 
Q 46.1875 19.828125 46.1875 14.40625 
Q 46.1875 7.03125 40.546875 2.796875 
Q 34.90625 -1.421875 25 -1.421875 
Q 19.96875 -1.421875 15.1875 -0.34375 
Q 10.40625 0.734375 5.609375 2.875 
z
" id="DejaVuSerif-115"/>
       <path d="M 31.890625 -15.578125 
Q 20.015625 -10.25 13.953125 1.296875 
Q 7.90625 12.84375 7.90625 30.171875 
Q 7.90625 47.5625 13.953125 59.109375 
Q 20.015625 70.65625 31.890625 75.984375 
L 31.890625 71.1875 
Q 24.359375 66.015625 21.09375 56.609375 
Q 17.828125 47.21875 17.828125 30.171875 
Q 17.828125 13.1875 21.09375 3.78125 
Q 24.359375 -5.609375 31.890625 -10.796875 
z
" id="DejaVuSerif-40"/>
       <path d="M 10.59375 45.21875 
L 73.1875 45.21875 
L 73.1875 37.40625 
L 10.59375 37.40625 
z
M 10.59375 25.296875 
L 73.1875 25.296875 
L 73.1875 17.484375 
L 10.59375 17.484375 
z
" id="DejaVuSerif-61"/>
       <path d="M 9.71875 69.828125 
Q 15.4375 71.96875 20.671875 73.09375 
Q 25.921875 74.21875 30.515625 74.21875 
Q 41.21875 74.21875 47.21875 69.59375 
Q 53.21875 64.984375 53.21875 56.78125 
Q 53.21875 50.203125 49.0625 45.78125 
Q 44.921875 41.359375 37.3125 39.796875 
Q 46.296875 38.53125 51.25 33.28125 
Q 56.203125 28.03125 56.203125 19.671875 
Q 56.203125 9.46875 49.34375 4.015625 
Q 42.484375 -1.421875 29.59375 -1.421875 
Q 23.875 -1.421875 18.421875 -0.1875 
Q 12.984375 1.03125 7.625 3.515625 
L 7.625 17.671875 
L 13.09375 17.671875 
Q 13.578125 10.640625 17.828125 7.03125 
Q 22.078125 3.421875 29.78125 3.421875 
Q 37.25 3.421875 41.578125 7.734375 
Q 45.90625 12.0625 45.90625 19.578125 
Q 45.90625 28.171875 41.453125 32.59375 
Q 37.015625 37.015625 28.421875 37.015625 
L 23.78125 37.015625 
L 23.78125 42 
L 26.21875 42 
Q 34.765625 42 39.03125 45.53125 
Q 43.3125 49.078125 43.3125 56.203125 
Q 43.3125 62.59375 39.796875 65.984375 
Q 36.28125 69.390625 29.6875 69.390625 
Q 23.09375 69.390625 19.453125 66.265625 
Q 15.828125 63.140625 15.1875 56.984375 
L 9.71875 56.984375 
z
" id="DejaVuSerif-51"/>
       <path d="M 7.078125 -15.578125 
L 7.078125 -10.796875 
Q 14.59375 -5.609375 17.890625 3.78125 
Q 21.1875 13.1875 21.1875 30.171875 
Q 21.1875 47.21875 17.890625 56.609375 
Q 14.59375 66.015625 7.078125 71.1875 
L 7.078125 75.984375 
Q 19 70.65625 25.046875 59.109375 
Q 31.109375 47.5625 31.109375 30.171875 
Q 31.109375 12.84375 25.046875 1.296875 
Q 19 -10.25 7.078125 -15.578125 
z
" id="DejaVuSerif-41"/>
      </defs>
      <use xlink:href="#DejaVuSerif-80"/>
      <use x="67.285156" xlink:href="#DejaVuSerif-104"/>
      <use x="131.689453" xlink:href="#DejaVuSerif-97"/>
      <use x="191.308594" xlink:href="#DejaVuSerif-115"/>
      <use x="242.626953" xlink:href="#DejaVuSerif-101"/>
      <use x="301.806641" xlink:href="#DejaVuSerif-32"/>
      <use x="333.59375" xlink:href="#DejaVuSerif-40"/>
      <use x="372.607422" xlink:href="#DejaVuSerif-80"/>
      <use x="439.892578" xlink:href="#DejaVuSerif-32"/>
      <use x="471.679688" xlink:href="#DejaVuSerif-61"/>
      <use x="555.46875" xlink:href="#DejaVuSerif-32"/>
      <use x="587.255859" xlink:href="#DejaVuSerif-53"/>
      <use x="650.878906" xlink:href="#DejaVuSerif-46"/>
      <use x="682.666016" xlink:href="#DejaVuSerif-57"/>
      <use x="746.289062" xlink:href="#DejaVuSerif-52"/>
      <use x="809.912109" xlink:href="#DejaVuSerif-51"/>
      <use x="873.535156" xlink:href="#DejaVuSerif-32"/>
      <use x="905.322266" xlink:href="#DejaVuSerif-100"/>
      <use x="969.335938" xlink:href="#DejaVuSerif-41"/>
     </g>
    </g>
   </g>
   <g id="matplotlib.axis_4">
    <g id="ytick_5">
     <g id="line2d_31">
      <g>
       <use style="stroke:#000000;stroke-width:0.8;" x="57.6" xlink:href="#m7c0ed6cb8c" y="49.911569"/>
      </g>
     </g>
     <g id="text_18">
      <!-- 16.625 -->
      <g transform="translate(15.609375 53.710788)scale(0.1 -0.1)">
       <use xlink:href="#DejaVuSerif-49"/>
       <use x="63.623047" xlink:href="#DejaVuSerif-54"/>
       <use x="127.246094" xlink:href="#DejaVuSerif-46"/>
       <use x="159.033203" xlink:href="#DejaVuSerif-54"/>
       <use x="222.65625" xlink:href="#DejaVuSerif-50"/>
       <use x="286.279297" xlink:href="#DejaVuSerif-53"/>
      </g>
     </g>
    </g>
    <g id="ytick_6">
     <g id="line2d_32">
      <g>
       <use style="stroke:#000000;stroke-width:0.8;" x="57.6" xlink:href="#m7c0ed6cb8c" y="74.6595"/>
      </g>
     </g>
     <g id="text_19">
      <!-- 16.650 -->
      <g transform="translate(15.609375 78.458718)scale(0.1 -0.1)">
       <use xlink:href="#DejaVuSerif-49"/>
       <use x="63.623047" xlink:href="#DejaVuSerif-54"/>
       <use x="127.246094" xlink:href="#DejaVuSerif-46"/>
       <use x="159.033203" xlink:href="#DejaVuSerif-54"/>
       <use x="222.65625" xlink:href="#DejaVuSerif-53"/>
       <use x="286.279297" xlink:href="#DejaVuSerif-48"/>
      </g>
     </g>
    </g>
    <g id="ytick_7">
     <g id="line2d_33">
      <g>
       <use style="stroke:#000000;stroke-width:0.8;" x="57.6" xlink:href="#m7c0ed6cb8c" y="99.40743"/>
      </g>
     </g>
     <g id="text_20">
      <!-- 16.675 -->
      <g transform="translate(15.609375 103.206649)scale(0.1 -0.1)">
       <defs>
        <path d="M 56.390625 67.921875 
L 27.875 0 
L 20.609375 0 
L 47.796875 64.890625 
L 14.109375 64.890625 
L 14.109375 55.90625 
L 8.40625 55.90625 
L 8.40625 72.90625 
L 56.390625 72.90625 
z
" id="DejaVuSerif-55"/>
       </defs>
       <use xlink:href="#DejaVuSerif-49"/>
       <use x="63.623047" xlink:href="#DejaVuSerif-54"/>
       <use x="127.246094" xlink:href="#DejaVuSerif-46"/>
       <use x="159.033203" xlink:href="#DejaVuSerif-54"/>
       <use x="222.65625" xlink:href="#DejaVuSerif-55"/>
       <use x="286.279297" xlink:href="#DejaVuSerif-53"/>
      </g>
     </g>
    </g>
    <g id="ytick_8">
     <g id="line2d_34">
      <g>
       <use style="stroke:#000000;stroke-width:0.8;" x="57.6" xlink:href="#m7c0ed6cb8c" y="124.155361"/>
      </g>
     </g>
     <g id="text_21">
      <!-- 16.700 -->
      <g transform="translate(15.609375 127.954579)scale(0.1 -0.1)">
       <use xlink:href="#DejaVuSerif-49"/>
       <use x="63.623047" xlink:href="#DejaVuSerif-54"/>
       <use x="127.246094" xlink:href="#DejaVuSerif-46"/>
       <use x="159.033203" xlink:href="#DejaVuSerif-55"/>
       <use x="222.65625" xlink:href="#DejaVuSerif-48"/>
       <use x="286.279297" xlink:href="#DejaVuSerif-48"/>
      </g>
     </g>
    </g>
    <g id="ytick_9">
     <g id="line2d_35">
      <g>
       <use style="stroke:#000000;stroke-width:0.8;" x="57.6" xlink:href="#m7c0ed6cb8c" y="148.903291"/>
      </g>
     </g>
     <g id="text_22">
      <!-- 16.725 -->
      <g transform="translate(15.609375 152.70251)scale(0.1 -0.1)">
       <use xlink:href="#DejaVuSerif-49"/>
       <use x="63.623047" xlink:href="#DejaVuSerif-54"/>
       <use x="127.246094" xlink:href="#DejaVuSerif-46"/>
       <use x="159.033203" xlink:href="#DejaVuSerif-55"/>
       <use x="222.65625" xlink:href="#DejaVuSerif-50"/>
       <use x="286.279297" xlink:href="#DejaVuSerif-53"/>
      </g>
     </g>
    </g>
    <g id="text_23">
     <!-- Mag -->
     <g transform="translate(9.3875 107.082134)rotate(-90)scale(0.1 -0.1)">
      <defs>
       <path d="M 5.515625 0 
L 5.515625 5.171875 
L 14.796875 5.171875 
L 14.796875 67.671875 
L 4.984375 67.671875 
L 4.984375 72.90625 
L 26.21875 72.90625 
L 51.8125 21 
L 77.390625 72.90625 
L 97.3125 72.90625 
L 97.3125 67.671875 
L 87.59375 67.671875 
L 87.59375 5.171875 
L 96.921875 5.171875 
L 96.921875 0 
L 68.40625 0 
L 68.40625 5.171875 
L 77.6875 5.171875 
L 77.6875 61.53125 
L 52.6875 10.6875 
L 45.796875 10.6875 
L 20.796875 61.53125 
L 20.796875 5.171875 
L 30.078125 5.171875 
L 30.078125 0 
z
" id="DejaVuSerif-77"/>
      </defs>
      <use xlink:href="#DejaVuSerif-77"/>
      <use x="102.392578" xlink:href="#DejaVuSerif-97"/>
      <use x="162.011719" xlink:href="#DejaVuSerif-103"/>
     </g>
    </g>
   </g>
   <g id="patch_9">
    <path d="M 57.6 150.089143 
L 57.6 41.472 
" style="fill:none;stroke:#000000;stroke-linecap:square;stroke-linejoin:miter;stroke-width:0.8;"/>
   </g>
   <g id="patch_10">
    <path d="M 206.4 150.089143 
L 206.4 41.472 
" style="fill:none;stroke:#000000;stroke-linecap:square;stroke-linejoin:miter;stroke-width:0.8;"/>
   </g>
   <g id="patch_11">
    <path d="M 57.6 150.089143 
L 206.4 150.089143 
" style="fill:none;stroke:#000000;stroke-linecap:square;stroke-linejoin:miter;stroke-width:0.8;"/>
   </g>
   <g id="patch_12">
    <path d="M 57.6 41.472 
L 206.4 41.472 
" style="fill:none;stroke:#000000;stroke-linecap:square;stroke-linejoin:miter;stroke-width:0.8;"/>
   </g>
   <g id="text_24">
    <!-- Folded Light Curve -->
    <g transform="translate(83.086719 35.472)scale(0.1 -0.1)">
     <defs>
      <path d="M 20.515625 5.171875 
L 29 5.171875 
L 29 0 
L 2.875 0 
L 2.875 5.171875 
L 11.53125 5.171875 
L 11.53125 70.796875 
L 2.875 70.796875 
L 2.875 75.984375 
L 20.515625 75.984375 
z
" id="DejaVuSerif-108"/>
      <path d="M 5.515625 0 
L 5.515625 5.171875 
L 14.796875 5.171875 
L 14.796875 67.671875 
L 5.515625 67.671875 
L 5.515625 72.90625 
L 33.984375 72.90625 
L 33.984375 67.671875 
L 24.703125 67.671875 
L 24.703125 6 
L 58.015625 6 
L 58.015625 18.21875 
L 64.015625 18.21875 
L 64.015625 0 
z
" id="DejaVuSerif-76"/>
      <path d="M 10.796875 46.6875 
L 2.875 46.6875 
L 2.875 51.90625 
L 10.796875 51.90625 
L 10.796875 68.015625 
L 19.828125 68.015625 
L 19.828125 51.90625 
L 36.71875 51.90625 
L 36.71875 46.6875 
L 19.828125 46.6875 
L 19.828125 13.71875 
Q 19.828125 7.125 21.09375 5.265625 
Q 22.359375 3.421875 25.78125 3.421875 
Q 29.296875 3.421875 30.90625 5.484375 
Q 32.515625 7.5625 32.625 12.203125 
L 39.40625 12.203125 
Q 39.015625 5.125 35.546875 1.84375 
Q 32.078125 -1.421875 25 -1.421875 
Q 17.234375 -1.421875 14.015625 2.015625 
Q 10.796875 5.46875 10.796875 13.71875 
z
" id="DejaVuSerif-116"/>
      <path d="M 70.515625 19.28125 
Q 67.28125 9.078125 59.6875 3.828125 
Q 52.09375 -1.421875 40.484375 -1.421875 
Q 33.34375 -1.421875 27.234375 1.015625 
Q 21.140625 3.46875 16.40625 8.203125 
Q 10.9375 13.671875 8.265625 20.625 
Q 5.609375 27.59375 5.609375 36.375 
Q 5.609375 53.375 15.421875 63.796875 
Q 25.25 74.21875 41.3125 74.21875 
Q 47.265625 74.21875 54 72.65625 
Q 60.75 71.09375 68.5 67.921875 
L 68.5 51.125 
L 62.984375 51.125 
Q 61.1875 60.296875 55.734375 64.640625 
Q 50.296875 69 40.484375 69 
Q 28.8125 69 22.796875 60.71875 
Q 16.796875 52.4375 16.796875 36.375 
Q 16.796875 20.359375 22.796875 12.078125 
Q 28.8125 3.8125 40.484375 3.8125 
Q 48.640625 3.8125 53.90625 7.6875 
Q 59.1875 11.578125 61.53125 19.28125 
z
" id="DejaVuSerif-67"/>
      <path d="M 35.40625 51.90625 
L 52.203125 51.90625 
L 52.203125 5.171875 
L 60.6875 5.171875 
L 60.6875 0 
L 43.21875 0 
L 43.21875 9.1875 
Q 40.71875 4 36.765625 1.28125 
Q 32.8125 -1.421875 27.59375 -1.421875 
Q 18.953125 -1.421875 14.875 3.484375 
Q 10.796875 8.40625 10.796875 18.890625 
L 10.796875 46.6875 
L 2.6875 46.6875 
L 2.6875 51.90625 
L 19.828125 51.90625 
L 19.828125 21.6875 
Q 19.828125 12.203125 22.140625 8.6875 
Q 24.46875 5.171875 30.421875 5.171875 
Q 36.671875 5.171875 39.9375 9.765625 
Q 43.21875 14.359375 43.21875 23.09375 
L 43.21875 46.6875 
L 35.40625 46.6875 
z
" id="DejaVuSerif-117"/>
      <path d="M 24.703125 0 
L 5.609375 46.6875 
L -0.296875 46.6875 
L -0.296875 51.90625 
L 23.578125 51.90625 
L 23.578125 46.6875 
L 15.28125 46.6875 
L 29.890625 10.984375 
L 44.484375 46.6875 
L 36.71875 46.6875 
L 36.71875 51.90625 
L 56.203125 51.90625 
L 56.203125 46.6875 
L 50.390625 46.6875 
L 31.296875 0 
z
" id="DejaVuSerif-118"/>
     </defs>
     <use xlink:href="#DejaVuSerif-70"/>
     <use x="63.884766" xlink:href="#DejaVuSerif-111"/>
     <use x="124.089844" xlink:href="#DejaVuSerif-108"/>
     <use x="156.072266" xlink:href="#DejaVuSerif-100"/>
     <use x="220.085938" xlink:href="#DejaVuSerif-101"/>
     <use x="279.265625" xlink:href="#DejaVuSerif-100"/>
     <use x="343.279297" xlink:href="#DejaVuSerif-32"/>
     <use x="375.066406" xlink:href="#DejaVuSerif-76"/>
     <use x="441.472656" xlink:href="#DejaVuSerif-105"/>
     <use x="473.455078" xlink:href="#DejaVuSerif-103"/>
     <use x="537.46875" xlink:href="#DejaVuSerif-104"/>
     <use x="601.873047" xlink:href="#DejaVuSerif-116"/>
     <use x="642.058594" xlink:href="#DejaVuSerif-32"/>
     <use x="673.845703" xlink:href="#DejaVuSerif-67"/>
     <use x="750.359375" xlink:href="#DejaVuSerif-117"/>
     <use x="814.763672" xlink:href="#DejaVuSerif-114"/>
     <use x="862.566406" xlink:href="#DejaVuSerif-118"/>
     <use x="919.060547" xlink:href="#DejaVuSerif-101"/>
    </g>
   </g>
  </g>
  <g id="axes_3">
   <g id="patch_13">
    <path d="M 57.6 307.584 
L 414.72 307.584 
L 414.72 198.966857 
L 57.6 198.966857 
z
" style="fill:#ffffff;"/>
   </g>
   <g id="PathCollection_3">
    <g clip-path="url(#p8382f7d9f5)">
     <use style="fill:#1f77b4;stroke:#1f77b4;" x="73.832727" xlink:href="#md660ff6e87" y="262.189272"/>
     <use style="fill:#1f77b4;stroke:#1f77b4;" x="73.833119" xlink:href="#md660ff6e87" y="271.583526"/>
     <use style="fill:#1f77b4;stroke:#1f77b4;" x="94.910293" xlink:href="#md660ff6e87" y="244.856552"/>
     <use style="fill:#1f77b4;stroke:#1f77b4;" x="94.910684" xlink:href="#md660ff6e87" y="241.423289"/>
     <use style="fill:#1f77b4;stroke:#1f77b4;" x="96.675449" xlink:href="#md660ff6e87" y="255.661086"/>
     <use style="fill:#1f77b4;stroke:#1f77b4;" x="99.185169" xlink:href="#md660ff6e87" y="255.350445"/>
     <use style="fill:#1f77b4;stroke:#1f77b4;" x="99.18789" xlink:href="#md660ff6e87" y="230.482881"/>
     <use style="fill:#1f77b4;stroke:#1f77b4;" x="121.144305" xlink:href="#md660ff6e87" y="252.452462"/>
     <use style="fill:#1f77b4;stroke:#1f77b4;" x="121.988998" xlink:href="#md660ff6e87" y="274.227864"/>
     <use style="fill:#1f77b4;stroke:#1f77b4;" x="121.98938" xlink:href="#md660ff6e87" y="279.527445"/>
     <use style="fill:#1f77b4;stroke:#1f77b4;" x="123.69785" xlink:href="#md660ff6e87" y="281.547811"/>
     <use style="fill:#1f77b4;stroke:#1f77b4;" x="123.698242" xlink:href="#md660ff6e87" y="277.052349"/>
     <use style="fill:#1f77b4;stroke:#1f77b4;" x="125.362202" xlink:href="#md660ff6e87" y="247.091742"/>
     <use style="fill:#1f77b4;stroke:#1f77b4;" x="125.362594" xlink:href="#md660ff6e87" y="223.122732"/>
     <use style="fill:#1f77b4;stroke:#1f77b4;" x="126.199487" xlink:href="#md660ff6e87" y="250.737212"/>
     <use style="fill:#1f77b4;stroke:#1f77b4;" x="126.199878" xlink:href="#md660ff6e87" y="252.817118"/>
     <use style="fill:#1f77b4;stroke:#1f77b4;" x="127.090237" xlink:href="#md660ff6e87" y="274.068364"/>
     <use style="fill:#1f77b4;stroke:#1f77b4;" x="127.090618" xlink:href="#md660ff6e87" y="269.882162"/>
     <use style="fill:#1f77b4;stroke:#1f77b4;" x="127.899364" xlink:href="#md660ff6e87" y="254.030384"/>
     <use style="fill:#1f77b4;stroke:#1f77b4;" x="127.899756" xlink:href="#md660ff6e87" y="258.847537"/>
     <use style="fill:#1f77b4;stroke:#1f77b4;" x="128.744146" xlink:href="#md660ff6e87" y="273.906173"/>
     <use style="fill:#1f77b4;stroke:#1f77b4;" x="128.744527" xlink:href="#md660ff6e87" y="266.867716"/>
     <use style="fill:#1f77b4;stroke:#1f77b4;" x="136.360585" xlink:href="#md660ff6e87" y="259.000058"/>
     <use style="fill:#1f77b4;stroke:#1f77b4;" x="142.231315" xlink:href="#md660ff6e87" y="257.26816"/>
     <use style="fill:#1f77b4;stroke:#1f77b4;" x="143.073052" xlink:href="#md660ff6e87" y="266.168864"/>
     <use style="fill:#1f77b4;stroke:#1f77b4;" x="143.918832" xlink:href="#md660ff6e87" y="265.56423"/>
     <use style="fill:#1f77b4;stroke:#1f77b4;" x="144.76286" xlink:href="#md660ff6e87" y="225.590922"/>
     <use style="fill:#1f77b4;stroke:#1f77b4;" x="145.612006" xlink:href="#md660ff6e87" y="246.115618"/>
     <use style="fill:#1f77b4;stroke:#1f77b4;" x="155.771705" xlink:href="#md660ff6e87" y="259.82366"/>
     <use style="fill:#1f77b4;stroke:#1f77b4;" x="163.21203" xlink:href="#md660ff6e87" y="281.119325"/>
     <use style="fill:#1f77b4;stroke:#1f77b4;" x="164.180987" xlink:href="#md660ff6e87" y="256.326641"/>
     <use style="fill:#1f77b4;stroke:#1f77b4;" x="165.042171" xlink:href="#md660ff6e87" y="239.939584"/>
     <use style="fill:#1f77b4;stroke:#1f77b4;" x="170.943837" xlink:href="#md660ff6e87" y="242.306576"/>
     <use style="fill:#1f77b4;stroke:#1f77b4;" x="173.496775" xlink:href="#md660ff6e87" y="289.364143"/>
     <use style="fill:#1f77b4;stroke:#1f77b4;" x="207.146958" xlink:href="#md660ff6e87" y="246.922645"/>
     <use style="fill:#1f77b4;stroke:#1f77b4;" x="210.529274" xlink:href="#md660ff6e87" y="238.946812"/>
     <use style="fill:#1f77b4;stroke:#1f77b4;" x="218.978819" xlink:href="#md660ff6e87" y="279.300043"/>
     <use style="fill:#1f77b4;stroke:#1f77b4;" x="346.082599" xlink:href="#md660ff6e87" y="221.245292"/>
     <use style="fill:#1f77b4;stroke:#1f77b4;" x="379.139631" xlink:href="#md660ff6e87" y="285.864288"/>
     <use style="fill:#1f77b4;stroke:#1f77b4;" x="396.853779" xlink:href="#md660ff6e87" y="216.848337"/>
     <use style="fill:#1f77b4;stroke:#1f77b4;" x="396.854161" xlink:href="#md660ff6e87" y="236.088959"/>
     <use style="fill:#1f77b4;stroke:#1f77b4;" x="397.677773" xlink:href="#md660ff6e87" y="247.20268"/>
     <use style="fill:#1f77b4;stroke:#1f77b4;" x="397.678155" xlink:href="#md660ff6e87" y="235.25009"/>
     <use style="fill:#1f77b4;stroke:#1f77b4;" x="398.486891" xlink:href="#md660ff6e87" y="271.035815"/>
     <use style="fill:#1f77b4;stroke:#1f77b4;" x="398.487273" xlink:href="#md660ff6e87" y="263.23475"/>
    </g>
   </g>
   <g id="matplotlib.axis_5">
    <g id="xtick_22">
     <g id="line2d_36">
      <g>
       <use style="stroke:#000000;stroke-width:0.8;" x="97.996351" xlink:href="#md4d46b8aed" y="307.584"/>
      </g>
     </g>
     <g id="text_25">
      <!-- 58300 -->
      <g transform="translate(82.090101 322.182437)scale(0.1 -0.1)">
       <defs>
        <path d="M 46.578125 19.921875 
Q 46.578125 27.734375 42.6875 32.046875 
Q 38.8125 36.375 31.78125 36.375 
Q 24.75 36.375 20.875 32.046875 
Q 17 27.734375 17 19.921875 
Q 17 12.0625 20.875 7.734375 
Q 24.75 3.421875 31.78125 3.421875 
Q 38.8125 3.421875 42.6875 7.734375 
Q 46.578125 12.0625 46.578125 19.921875 
z
M 44.578125 55.328125 
Q 44.578125 61.96875 41.203125 65.671875 
Q 37.84375 69.390625 31.78125 69.390625 
Q 25.78125 69.390625 22.390625 65.671875 
Q 19 61.96875 19 55.328125 
Q 19 48.640625 22.390625 44.921875 
Q 25.78125 41.21875 31.78125 41.21875 
Q 37.84375 41.21875 41.203125 44.921875 
Q 44.578125 48.640625 44.578125 55.328125 
z
M 39.3125 38.8125 
Q 47.609375 37.703125 52.25 32.6875 
Q 56.890625 27.6875 56.890625 19.921875 
Q 56.890625 9.671875 50.390625 4.125 
Q 43.890625 -1.421875 31.78125 -1.421875 
Q 19.734375 -1.421875 13.203125 4.125 
Q 6.6875 9.671875 6.6875 19.921875 
Q 6.6875 27.6875 11.328125 32.6875 
Q 15.96875 37.703125 24.3125 38.8125 
Q 16.9375 40.140625 13 44.40625 
Q 9.078125 48.6875 9.078125 55.328125 
Q 9.078125 64.109375 15.125 69.15625 
Q 21.1875 74.21875 31.78125 74.21875 
Q 42.390625 74.21875 48.4375 69.15625 
Q 54.5 64.109375 54.5 55.328125 
Q 54.5 48.6875 50.5625 44.40625 
Q 46.625 40.140625 39.3125 38.8125 
z
" id="DejaVuSerif-56"/>
       </defs>
       <use xlink:href="#DejaVuSerif-53"/>
       <use x="63.623047" xlink:href="#DejaVuSerif-56"/>
       <use x="127.246094" xlink:href="#DejaVuSerif-51"/>
       <use x="190.869141" xlink:href="#DejaVuSerif-48"/>
       <use x="254.492188" xlink:href="#DejaVuSerif-48"/>
      </g>
     </g>
    </g>
    <g id="xtick_23">
     <g id="line2d_37">
      <g>
       <use style="stroke:#000000;stroke-width:0.8;" x="140.27554" xlink:href="#md4d46b8aed" y="307.584"/>
      </g>
     </g>
     <g id="text_26">
      <!-- 58350 -->
      <g transform="translate(124.36929 322.182437)scale(0.1 -0.1)">
       <use xlink:href="#DejaVuSerif-53"/>
       <use x="63.623047" xlink:href="#DejaVuSerif-56"/>
       <use x="127.246094" xlink:href="#DejaVuSerif-51"/>
       <use x="190.869141" xlink:href="#DejaVuSerif-53"/>
       <use x="254.492188" xlink:href="#DejaVuSerif-48"/>
      </g>
     </g>
    </g>
    <g id="xtick_24">
     <g id="line2d_38">
      <g>
       <use style="stroke:#000000;stroke-width:0.8;" x="182.55473" xlink:href="#md4d46b8aed" y="307.584"/>
      </g>
     </g>
     <g id="text_27">
      <!-- 58400 -->
      <g transform="translate(166.64848 322.182437)scale(0.1 -0.1)">
       <use xlink:href="#DejaVuSerif-53"/>
       <use x="63.623047" xlink:href="#DejaVuSerif-56"/>
       <use x="127.246094" xlink:href="#DejaVuSerif-52"/>
       <use x="190.869141" xlink:href="#DejaVuSerif-48"/>
       <use x="254.492188" xlink:href="#DejaVuSerif-48"/>
      </g>
     </g>
    </g>
    <g id="xtick_25">
     <g id="line2d_39">
      <g>
       <use style="stroke:#000000;stroke-width:0.8;" x="224.833919" xlink:href="#md4d46b8aed" y="307.584"/>
      </g>
     </g>
     <g id="text_28">
      <!-- 58450 -->
      <g transform="translate(208.927669 322.182437)scale(0.1 -0.1)">
       <use xlink:href="#DejaVuSerif-53"/>
       <use x="63.623047" xlink:href="#DejaVuSerif-56"/>
       <use x="127.246094" xlink:href="#DejaVuSerif-52"/>
       <use x="190.869141" xlink:href="#DejaVuSerif-53"/>
       <use x="254.492188" xlink:href="#DejaVuSerif-48"/>
      </g>
     </g>
    </g>
    <g id="xtick_26">
     <g id="line2d_40">
      <g>
       <use style="stroke:#000000;stroke-width:0.8;" x="267.113108" xlink:href="#md4d46b8aed" y="307.584"/>
      </g>
     </g>
     <g id="text_29">
      <!-- 58500 -->
      <g transform="translate(251.206858 322.182437)scale(0.1 -0.1)">
       <use xlink:href="#DejaVuSerif-53"/>
       <use x="63.623047" xlink:href="#DejaVuSerif-56"/>
       <use x="127.246094" xlink:href="#DejaVuSerif-53"/>
       <use x="190.869141" xlink:href="#DejaVuSerif-48"/>
       <use x="254.492188" xlink:href="#DejaVuSerif-48"/>
      </g>
     </g>
    </g>
    <g id="xtick_27">
     <g id="line2d_41">
      <g>
       <use style="stroke:#000000;stroke-width:0.8;" x="309.392298" xlink:href="#md4d46b8aed" y="307.584"/>
      </g>
     </g>
     <g id="text_30">
      <!-- 58550 -->
      <g transform="translate(293.486048 322.182437)scale(0.1 -0.1)">
       <use xlink:href="#DejaVuSerif-53"/>
       <use x="63.623047" xlink:href="#DejaVuSerif-56"/>
       <use x="127.246094" xlink:href="#DejaVuSerif-53"/>
       <use x="190.869141" xlink:href="#DejaVuSerif-53"/>
       <use x="254.492188" xlink:href="#DejaVuSerif-48"/>
      </g>
     </g>
    </g>
    <g id="xtick_28">
     <g id="line2d_42">
      <g>
       <use style="stroke:#000000;stroke-width:0.8;" x="351.671487" xlink:href="#md4d46b8aed" y="307.584"/>
      </g>
     </g>
     <g id="text_31">
      <!-- 58600 -->
      <g transform="translate(335.765237 322.182437)scale(0.1 -0.1)">
       <use xlink:href="#DejaVuSerif-53"/>
       <use x="63.623047" xlink:href="#DejaVuSerif-56"/>
       <use x="127.246094" xlink:href="#DejaVuSerif-54"/>
       <use x="190.869141" xlink:href="#DejaVuSerif-48"/>
       <use x="254.492188" xlink:href="#DejaVuSerif-48"/>
      </g>
     </g>
    </g>
    <g id="xtick_29">
     <g id="line2d_43">
      <g>
       <use style="stroke:#000000;stroke-width:0.8;" x="393.950677" xlink:href="#md4d46b8aed" y="307.584"/>
      </g>
     </g>
     <g id="text_32">
      <!-- 58650 -->
      <g transform="translate(378.044427 322.182437)scale(0.1 -0.1)">
       <use xlink:href="#DejaVuSerif-53"/>
       <use x="63.623047" xlink:href="#DejaVuSerif-56"/>
       <use x="127.246094" xlink:href="#DejaVuSerif-54"/>
       <use x="190.869141" xlink:href="#DejaVuSerif-53"/>
       <use x="254.492188" xlink:href="#DejaVuSerif-48"/>
      </g>
     </g>
    </g>
    <g id="text_33">
     <!-- MJD -->
     <g transform="translate(225.027187 335.860562)scale(0.1 -0.1)">
      <defs>
       <path d="M -8.40625 -17.484375 
L -8.40625 -6 
L -2.828125 -6 
Q -2.6875 -10.84375 -0.53125 -13.203125 
Q 1.609375 -15.578125 5.90625 -15.578125 
Q 11.71875 -15.578125 14.015625 -11.90625 
Q 16.3125 -8.25 16.3125 2.390625 
L 16.3125 67.671875 
L 4.984375 67.671875 
L 4.984375 72.90625 
L 35.5 72.90625 
L 35.5 67.671875 
L 26.21875 67.671875 
L 26.21875 2 
Q 26.21875 -10.0625 21.375 -15.421875 
Q 16.546875 -20.796875 5.8125 -20.796875 
Q 2.34375 -20.796875 -1.234375 -19.96875 
Q -4.828125 -19.140625 -8.40625 -17.484375 
z
" id="DejaVuSerif-74"/>
       <path d="M 24.703125 5.171875 
L 33.796875 5.171875 
Q 48 5.171875 55.59375 13.28125 
Q 63.1875 21.390625 63.1875 36.53125 
Q 63.1875 51.65625 55.609375 59.65625 
Q 48.046875 67.671875 33.796875 67.671875 
L 24.703125 67.671875 
z
M 5.515625 0 
L 5.515625 5.171875 
L 14.796875 5.171875 
L 14.796875 67.671875 
L 5.515625 67.671875 
L 5.515625 72.90625 
L 34.515625 72.90625 
Q 53.375 72.90625 63.890625 63.28125 
Q 74.421875 53.65625 74.421875 36.53125 
Q 74.421875 19.34375 63.875 9.671875 
Q 53.328125 0 34.515625 0 
z
" id="DejaVuSerif-68"/>
      </defs>
      <use xlink:href="#DejaVuSerif-77"/>
      <use x="102.392578" xlink:href="#DejaVuSerif-74"/>
      <use x="142.480469" xlink:href="#DejaVuSerif-68"/>
     </g>
    </g>
   </g>
   <g id="matplotlib.axis_6">
    <g id="ytick_10">
     <g id="line2d_44">
      <g>
       <use style="stroke:#000000;stroke-width:0.8;" x="57.6" xlink:href="#m7c0ed6cb8c" y="201.245843"/>
      </g>
     </g>
     <g id="text_34">
      <!-- 16.60 -->
      <g transform="translate(21.971875 205.045061)scale(0.1 -0.1)">
       <use xlink:href="#DejaVuSerif-49"/>
       <use x="63.623047" xlink:href="#DejaVuSerif-54"/>
       <use x="127.246094" xlink:href="#DejaVuSerif-46"/>
       <use x="159.033203" xlink:href="#DejaVuSerif-54"/>
       <use x="222.65625" xlink:href="#DejaVuSerif-48"/>
      </g>
     </g>
    </g>
    <g id="ytick_11">
     <g id="line2d_45">
      <g>
       <use style="stroke:#000000;stroke-width:0.8;" x="57.6" xlink:href="#m7c0ed6cb8c" y="237.595128"/>
      </g>
     </g>
     <g id="text_35">
      <!-- 16.65 -->
      <g transform="translate(21.971875 241.394346)scale(0.1 -0.1)">
       <use xlink:href="#DejaVuSerif-49"/>
       <use x="63.623047" xlink:href="#DejaVuSerif-54"/>
       <use x="127.246094" xlink:href="#DejaVuSerif-46"/>
       <use x="159.033203" xlink:href="#DejaVuSerif-54"/>
       <use x="222.65625" xlink:href="#DejaVuSerif-53"/>
      </g>
     </g>
    </g>
    <g id="ytick_12">
     <g id="line2d_46">
      <g>
       <use style="stroke:#000000;stroke-width:0.8;" x="57.6" xlink:href="#m7c0ed6cb8c" y="273.944413"/>
      </g>
     </g>
     <g id="text_36">
      <!-- 16.70 -->
      <g transform="translate(21.971875 277.743631)scale(0.1 -0.1)">
       <use xlink:href="#DejaVuSerif-49"/>
       <use x="63.623047" xlink:href="#DejaVuSerif-54"/>
       <use x="127.246094" xlink:href="#DejaVuSerif-46"/>
       <use x="159.033203" xlink:href="#DejaVuSerif-55"/>
       <use x="222.65625" xlink:href="#DejaVuSerif-48"/>
      </g>
     </g>
    </g>
    <g id="text_37">
     <!-- Mag -->
     <g transform="translate(15.75 264.576991)rotate(-90)scale(0.1 -0.1)">
      <use xlink:href="#DejaVuSerif-77"/>
      <use x="102.392578" xlink:href="#DejaVuSerif-97"/>
      <use x="162.011719" xlink:href="#DejaVuSerif-103"/>
     </g>
    </g>
   </g>
   <g id="LineCollection_5">
    <path clip-path="url(#p8382f7d9f5)" d="M 73.832727 249.036643 
L 73.832727 275.3419 
" style="fill:none;stroke:#1f77b4;stroke-width:0.5;"/>
    <path clip-path="url(#p8382f7d9f5)" d="M 73.833119 258.386381 
L 73.833119 284.780672 
" style="fill:none;stroke:#1f77b4;stroke-width:0.5;"/>
    <path clip-path="url(#p8382f7d9f5)" d="M 94.910293 231.784815 
L 94.910293 257.928288 
" style="fill:none;stroke:#1f77b4;stroke-width:0.5;"/>
    <path clip-path="url(#p8382f7d9f5)" d="M 94.910684 228.367386 
L 94.910684 254.479192 
" style="fill:none;stroke:#1f77b4;stroke-width:0.5;"/>
    <path clip-path="url(#p8382f7d9f5)" d="M 96.675449 242.539108 
L 96.675449 268.783064 
" style="fill:none;stroke:#1f77b4;stroke-width:0.5;"/>
    <path clip-path="url(#p8382f7d9f5)" d="M 99.185169 242.229922 
L 99.185169 268.470967 
" style="fill:none;stroke:#1f77b4;stroke-width:0.5;"/>
    <path clip-path="url(#p8382f7d9f5)" d="M 99.18789 217.477029 
L 99.18789 243.488733 
" style="fill:none;stroke:#1f77b4;stroke-width:0.5;"/>
    <path clip-path="url(#p8382f7d9f5)" d="M 121.144305 239.345471 
L 121.144305 265.559452 
" style="fill:none;stroke:#1f77b4;stroke-width:0.5;"/>
    <path clip-path="url(#p8382f7d9f5)" d="M 121.988998 261.0181 
L 121.988998 287.437628 
" style="fill:none;stroke:#1f77b4;stroke-width:0.5;"/>
    <path clip-path="url(#p8382f7d9f5)" d="M 121.98938 266.29228 
L 121.98938 292.762609 
" style="fill:none;stroke:#1f77b4;stroke-width:0.5;"/>
    <path clip-path="url(#p8382f7d9f5)" d="M 123.69785 268.302925 
L 123.69785 294.792696 
" style="fill:none;stroke:#1f77b4;stroke-width:0.5;"/>
    <path clip-path="url(#p8382f7d9f5)" d="M 123.698242 263.829068 
L 123.698242 290.27563 
" style="fill:none;stroke:#1f77b4;stroke-width:0.5;"/>
    <path clip-path="url(#p8382f7d9f5)" d="M 125.362202 234.00966 
L 125.362202 260.173824 
" style="fill:none;stroke:#1f77b4;stroke-width:0.5;"/>
    <path clip-path="url(#p8382f7d9f5)" d="M 125.362594 210.150205 
L 125.362594 236.09526 
" style="fill:none;stroke:#1f77b4;stroke-width:0.5;"/>
    <path clip-path="url(#p8382f7d9f5)" d="M 126.199487 237.638207 
L 126.199487 263.836216 
" style="fill:none;stroke:#1f77b4;stroke-width:0.5;"/>
    <path clip-path="url(#p8382f7d9f5)" d="M 126.199878 239.708425 
L 126.199878 265.925811 
" style="fill:none;stroke:#1f77b4;stroke-width:0.5;"/>
    <path clip-path="url(#p8382f7d9f5)" d="M 127.090237 260.859362 
L 127.090237 287.277365 
" style="fill:none;stroke:#1f77b4;stroke-width:0.5;"/>
    <path clip-path="url(#p8382f7d9f5)" d="M 127.090618 256.693113 
L 127.090618 283.071211 
" style="fill:none;stroke:#1f77b4;stroke-width:0.5;"/>
    <path clip-path="url(#p8382f7d9f5)" d="M 127.899364 240.91603 
L 127.899364 267.144739 
" style="fill:none;stroke:#1f77b4;stroke-width:0.5;"/>
    <path clip-path="url(#p8382f7d9f5)" d="M 127.899756 245.710627 
L 127.899756 271.984447 
" style="fill:none;stroke:#1f77b4;stroke-width:0.5;"/>
    <path clip-path="url(#p8382f7d9f5)" d="M 128.744146 260.697949 
L 128.744146 287.114398 
" style="fill:none;stroke:#1f77b4;stroke-width:0.5;"/>
    <path clip-path="url(#p8382f7d9f5)" d="M 128.744527 253.692973 
L 128.744527 280.042458 
" style="fill:none;stroke:#1f77b4;stroke-width:0.5;"/>
    <path clip-path="url(#p8382f7d9f5)" d="M 136.360585 245.862433 
L 136.360585 272.137683 
" style="fill:none;stroke:#1f77b4;stroke-width:0.5;"/>
    <path clip-path="url(#p8382f7d9f5)" d="M 142.231315 244.138659 
L 142.231315 270.397662 
" style="fill:none;stroke:#1f77b4;stroke-width:0.5;"/>
    <path clip-path="url(#p8382f7d9f5)" d="M 143.073052 252.997435 
L 143.073052 279.340293 
" style="fill:none;stroke:#1f77b4;stroke-width:0.5;"/>
    <path clip-path="url(#p8382f7d9f5)" d="M 143.918832 252.39566 
L 143.918832 278.732801 
" style="fill:none;stroke:#1f77b4;stroke-width:0.5;"/>
    <path clip-path="url(#p8382f7d9f5)" d="M 144.76286 212.607252 
L 144.76286 238.574592 
" style="fill:none;stroke:#1f77b4;stroke-width:0.5;"/>
    <path clip-path="url(#p8382f7d9f5)" d="M 145.612006 233.038059 
L 145.612006 259.193177 
" style="fill:none;stroke:#1f77b4;stroke-width:0.5;"/>
    <path clip-path="url(#p8382f7d9f5)" d="M 155.771705 246.682163 
L 155.771705 272.965158 
" style="fill:none;stroke:#1f77b4;stroke-width:0.5;"/>
    <path clip-path="url(#p8382f7d9f5)" d="M 163.21203 267.876502 
L 163.21203 294.362149 
" style="fill:none;stroke:#1f77b4;stroke-width:0.5;"/>
    <path clip-path="url(#p8382f7d9f5)" d="M 164.180987 243.201548 
L 164.180987 269.451734 
" style="fill:none;stroke:#1f77b4;stroke-width:0.5;"/>
    <path clip-path="url(#p8382f7d9f5)" d="M 165.042171 226.890504 
L 165.042171 252.988663 
" style="fill:none;stroke:#1f77b4;stroke-width:0.5;"/>
    <path clip-path="url(#p8382f7d9f5)" d="M 170.943837 229.246607 
L 170.943837 255.366546 
" style="fill:none;stroke:#1f77b4;stroke-width:0.5;"/>
    <path clip-path="url(#p8382f7d9f5)" d="M 173.496775 276.081428 
L 173.496775 302.646857 
" style="fill:none;stroke:#1f77b4;stroke-width:0.5;"/>
    <path clip-path="url(#p8382f7d9f5)" d="M 207.146958 233.84135 
L 207.146958 260.00394 
" style="fill:none;stroke:#1f77b4;stroke-width:0.5;"/>
    <path clip-path="url(#p8382f7d9f5)" d="M 210.529274 225.902296 
L 210.529274 251.991328 
" style="fill:none;stroke:#1f77b4;stroke-width:0.5;"/>
    <path clip-path="url(#p8382f7d9f5)" d="M 218.978819 266.065976 
L 218.978819 292.534111 
" style="fill:none;stroke:#1f77b4;stroke-width:0.5;"/>
    <path clip-path="url(#p8382f7d9f5)" d="M 346.082599 208.281221 
L 346.082599 234.209363 
" style="fill:none;stroke:#1f77b4;stroke-width:0.5;"/>
    <path clip-path="url(#p8382f7d9f5)" d="M 379.139631 272.59855 
L 379.139631 299.130026 
" style="fill:none;stroke:#1f77b4;stroke-width:0.5;"/>
    <path clip-path="url(#p8382f7d9f5)" d="M 396.853779 203.904 
L 396.853779 229.792674 
" style="fill:none;stroke:#1f77b4;stroke-width:0.5;"/>
    <path clip-path="url(#p8382f7d9f5)" d="M 396.854161 223.057537 
L 396.854161 249.12038 
" style="fill:none;stroke:#1f77b4;stroke-width:0.5;"/>
    <path clip-path="url(#p8382f7d9f5)" d="M 397.677773 234.120083 
L 397.677773 260.285276 
" style="fill:none;stroke:#1f77b4;stroke-width:0.5;"/>
    <path clip-path="url(#p8382f7d9f5)" d="M 397.678155 222.222504 
L 397.678155 248.277675 
" style="fill:none;stroke:#1f77b4;stroke-width:0.5;"/>
    <path clip-path="url(#p8382f7d9f5)" d="M 398.486891 257.841278 
L 398.486891 284.230353 
" style="fill:none;stroke:#1f77b4;stroke-width:0.5;"/>
    <path clip-path="url(#p8382f7d9f5)" d="M 398.487273 250.077187 
L 398.487273 276.392313 
" style="fill:none;stroke:#1f77b4;stroke-width:0.5;"/>
   </g>
   <g id="line2d_47">
    <path clip-path="url(#p8382f7d9f5)" d="M 73.832727 262.189272 
L 73.833119 271.583526 
L 94.910293 244.856552 
L 94.910684 241.423289 
L 96.675449 255.661086 
L 99.185169 255.350445 
L 99.18789 230.482881 
L 121.144305 252.452462 
L 121.988998 274.227864 
L 121.98938 279.527445 
L 123.69785 281.547811 
L 123.698242 277.052349 
L 125.362202 247.091742 
L 125.362594 223.122732 
L 126.199487 250.737212 
L 126.199878 252.817118 
L 127.090237 274.068364 
L 127.090618 269.882162 
L 127.899364 254.030384 
L 127.899756 258.847537 
L 128.744146 273.906173 
L 128.744527 266.867716 
L 136.360585 259.000058 
L 142.231315 257.26816 
L 143.073052 266.168864 
L 143.918832 265.56423 
L 144.76286 225.590922 
L 145.612006 246.115618 
L 155.771705 259.82366 
L 163.21203 281.119325 
L 164.180987 256.326641 
L 165.042171 239.939584 
L 170.943837 242.306576 
L 173.496775 289.364143 
L 207.146958 246.922645 
L 210.529274 238.946812 
L 218.978819 279.300043 
L 346.082599 221.245292 
L 379.139631 285.864288 
L 396.853779 216.848337 
L 396.854161 236.088959 
L 397.677773 247.20268 
L 397.678155 235.25009 
L 398.486891 271.035815 
L 398.487273 263.23475 
" style="fill:none;"/>
   </g>
   <g id="patch_14">
    <path d="M 57.6 307.584 
L 57.6 198.966857 
" style="fill:none;stroke:#000000;stroke-linecap:square;stroke-linejoin:miter;stroke-width:0.8;"/>
   </g>
   <g id="patch_15">
    <path d="M 414.72 307.584 
L 414.72 198.966857 
" style="fill:none;stroke:#000000;stroke-linecap:square;stroke-linejoin:miter;stroke-width:0.8;"/>
   </g>
   <g id="patch_16">
    <path d="M 57.6 307.584 
L 414.72 307.584 
" style="fill:none;stroke:#000000;stroke-linecap:square;stroke-linejoin:miter;stroke-width:0.8;"/>
   </g>
   <g id="patch_17">
    <path d="M 57.6 198.966857 
L 414.72 198.966857 
" style="fill:none;stroke:#000000;stroke-linecap:square;stroke-linejoin:miter;stroke-width:0.8;"/>
   </g>
   <g id="text_38">
    <!-- Light Curve -->
    <g transform="translate(206.000625 192.966857)scale(0.1 -0.1)">
     <use xlink:href="#DejaVuSerif-76"/>
     <use x="66.40625" xlink:href="#DejaVuSerif-105"/>
     <use x="98.388672" xlink:href="#DejaVuSerif-103"/>
     <use x="162.402344" xlink:href="#DejaVuSerif-104"/>
     <use x="226.806641" xlink:href="#DejaVuSerif-116"/>
     <use x="266.992188" xlink:href="#DejaVuSerif-32"/>
     <use x="298.779297" xlink:href="#DejaVuSerif-67"/>
     <use x="375.292969" xlink:href="#DejaVuSerif-117"/>
     <use x="439.697266" xlink:href="#DejaVuSerif-114"/>
     <use x="487.5" xlink:href="#DejaVuSerif-118"/>
     <use x="543.994141" xlink:href="#DejaVuSerif-101"/>
    </g>
   </g>
  </g>
 </g>
 <defs>
  <clipPath id="p71a8ed14ba">
   <rect height="108.617143" width="148.8" x="265.92" y="41.472"/>
  </clipPath>
  <clipPath id="p00cb54934f">
   <rect height="108.617143" width="148.8" x="57.6" y="41.472"/>
  </clipPath>
  <clipPath id="p8382f7d9f5">
   <rect height="108.617143" width="357.12" x="57.6" y="198.966857"/>
  </clipPath>
 </defs>
</svg>
