<?xml version="1.0" encoding="utf-8" standalone="no"?>
<!DOCTYPE svg PUBLIC "-//W3C//DTD SVG 1.1//EN"
  "http://www.w3.org/Graphics/SVG/1.1/DTD/svg11.dtd">
<!-- Created with matplotlib (https://matplotlib.org/) -->
<svg height="345.6pt" version="1.1" viewBox="0 0 460.8 345.6" width="460.8pt" xmlns="http://www.w3.org/2000/svg" xmlns:xlink="http://www.w3.org/1999/xlink">
 <metadata>
  <rdf:RDF xmlns:cc="http://creativecommons.org/ns#" xmlns:dc="http://purl.org/dc/elements/1.1/" xmlns:rdf="http://www.w3.org/1999/02/22-rdf-syntax-ns#">
   <cc:Work>
    <dc:type rdf:resource="http://purl.org/dc/dcmitype/StillImage"/>
    <dc:date>2021-02-24T00:24:32.707405</dc:date>
    <dc:format>image/svg+xml</dc:format>
    <dc:creator>
     <cc:Agent>
      <dc:title>Matplotlib v3.3.3, https://matplotlib.org/</dc:title>
     </cc:Agent>
    </dc:creator>
   </cc:Work>
  </rdf:RDF>
 </metadata>
 <defs>
  <style type="text/css">*{stroke-linecap:butt;stroke-linejoin:round;}</style>
 </defs>
 <g id="figure_1">
  <g id="patch_1">
   <path d="M 0 345.6 
L 460.8 345.6 
L 460.8 0 
L 0 0 
z
" style="fill:#ffffff;"/>
  </g>
  <g id="axes_1">
   <g id="patch_2">
    <path d="M 265.92 150.089143 
L 414.72 150.089143 
L 414.72 41.472 
L 265.92 41.472 
z
" style="fill:#ffffff;"/>
   </g>
   <g id="matplotlib.axis_1">
    <g id="xtick_1">
     <g id="line2d_1">
      <defs>
       <path d="M 0 0 
L 0 3.5 
" id="md188969bba" style="stroke:#000000;stroke-width:0.8;"/>
      </defs>
      <g>
       <use style="stroke:#000000;stroke-width:0.8;" x="326.985138" xlink:href="#md188969bba" y="150.089143"/>
      </g>
     </g>
     <g id="text_1">
      <!-- $\mathdefault{10^{1}}$ -->
      <g transform="translate(318.185138 164.68758)scale(0.1 -0.1)">
       <defs>
        <path d="M 14.203125 0 
L 14.203125 5.171875 
L 26.90625 5.171875 
L 26.90625 65.828125 
L 12.203125 56.296875 
L 12.203125 62.703125 
L 29.984375 74.21875 
L 36.71875 74.21875 
L 36.71875 5.171875 
L 49.421875 5.171875 
L 49.421875 0 
z
" id="DejaVuSerif-49"/>
        <path d="M 31.78125 3.421875 
Q 39.265625 3.421875 42.96875 11.625 
Q 46.6875 19.828125 46.6875 36.375 
Q 46.6875 52.984375 42.96875 61.1875 
Q 39.265625 69.390625 31.78125 69.390625 
Q 24.3125 69.390625 20.59375 61.1875 
Q 16.890625 52.984375 16.890625 36.375 
Q 16.890625 19.828125 20.59375 11.625 
Q 24.3125 3.421875 31.78125 3.421875 
z
M 31.78125 -1.421875 
Q 19.921875 -1.421875 13.25 8.53125 
Q 6.59375 18.5 6.59375 36.375 
Q 6.59375 54.296875 13.25 64.25 
Q 19.921875 74.21875 31.78125 74.21875 
Q 43.703125 74.21875 50.34375 64.25 
Q 56.984375 54.296875 56.984375 36.375 
Q 56.984375 18.5 50.34375 8.53125 
Q 43.703125 -1.421875 31.78125 -1.421875 
z
" id="DejaVuSerif-48"/>
       </defs>
       <use transform="translate(0 0.7125)" xlink:href="#DejaVuSerif-49"/>
       <use transform="translate(63.623047 0.7125)" xlink:href="#DejaVuSerif-48"/>
       <use transform="translate(128.154453 37.046875)scale(0.7)" xlink:href="#DejaVuSerif-49"/>
      </g>
     </g>
    </g>
    <g id="xtick_2">
     <g id="line2d_2">
      <g>
       <use style="stroke:#000000;stroke-width:0.8;" x="400.12039" xlink:href="#md188969bba" y="150.089143"/>
      </g>
     </g>
     <g id="text_2">
      <!-- $\mathdefault{10^{2}}$ -->
      <g transform="translate(391.32039 164.68758)scale(0.1 -0.1)">
       <defs>
        <path d="M 12.796875 55.515625 
L 7.328125 55.515625 
L 7.328125 68.5 
Q 12.546875 71.296875 17.84375 72.75 
Q 23.140625 74.21875 28.21875 74.21875 
Q 39.59375 74.21875 46.1875 68.703125 
Q 52.78125 63.1875 52.78125 53.71875 
Q 52.78125 43.015625 37.84375 28.125 
Q 36.671875 27 36.078125 26.421875 
L 17.671875 8.015625 
L 48.09375 8.015625 
L 48.09375 17 
L 53.8125 17 
L 53.8125 0 
L 6.78125 0 
L 6.78125 5.328125 
L 28.90625 27.390625 
Q 36.234375 34.71875 39.359375 40.84375 
Q 42.484375 46.96875 42.484375 53.71875 
Q 42.484375 61.078125 38.640625 65.234375 
Q 34.8125 69.390625 28.078125 69.390625 
Q 21.09375 69.390625 17.28125 65.921875 
Q 13.484375 62.453125 12.796875 55.515625 
z
" id="DejaVuSerif-50"/>
       </defs>
       <use transform="translate(0 0.7125)" xlink:href="#DejaVuSerif-49"/>
       <use transform="translate(63.623047 0.7125)" xlink:href="#DejaVuSerif-48"/>
       <use transform="translate(128.154453 37.046875)scale(0.7)" xlink:href="#DejaVuSerif-50"/>
      </g>
     </g>
    </g>
    <g id="xtick_3">
     <g id="line2d_3">
      <defs>
       <path d="M 0 0 
L 0 2 
" id="m240276382b" style="stroke:#000000;stroke-width:0.6;"/>
      </defs>
      <g>
       <use style="stroke:#000000;stroke-width:0.6;" x="275.86579" xlink:href="#m240276382b" y="150.089143"/>
      </g>
     </g>
    </g>
    <g id="xtick_4">
     <g id="line2d_4">
      <g>
       <use style="stroke:#000000;stroke-width:0.6;" x="288.744269" xlink:href="#m240276382b" y="150.089143"/>
      </g>
     </g>
    </g>
    <g id="xtick_5">
     <g id="line2d_5">
      <g>
       <use style="stroke:#000000;stroke-width:0.6;" x="297.881695" xlink:href="#m240276382b" y="150.089143"/>
      </g>
     </g>
    </g>
    <g id="xtick_6">
     <g id="line2d_6">
      <g>
       <use style="stroke:#000000;stroke-width:0.6;" x="304.969233" xlink:href="#m240276382b" y="150.089143"/>
      </g>
     </g>
    </g>
    <g id="xtick_7">
     <g id="line2d_7">
      <g>
       <use style="stroke:#000000;stroke-width:0.6;" x="310.760174" xlink:href="#m240276382b" y="150.089143"/>
      </g>
     </g>
    </g>
    <g id="xtick_8">
     <g id="line2d_8">
      <g>
       <use style="stroke:#000000;stroke-width:0.6;" x="315.656344" xlink:href="#m240276382b" y="150.089143"/>
      </g>
     </g>
    </g>
    <g id="xtick_9">
     <g id="line2d_9">
      <g>
       <use style="stroke:#000000;stroke-width:0.6;" x="319.8976" xlink:href="#m240276382b" y="150.089143"/>
      </g>
     </g>
    </g>
    <g id="xtick_10">
     <g id="line2d_10">
      <g>
       <use style="stroke:#000000;stroke-width:0.6;" x="323.638652" xlink:href="#m240276382b" y="150.089143"/>
      </g>
     </g>
    </g>
    <g id="xtick_11">
     <g id="line2d_11">
      <g>
       <use style="stroke:#000000;stroke-width:0.6;" x="349.001043" xlink:href="#m240276382b" y="150.089143"/>
      </g>
     </g>
    </g>
    <g id="xtick_12">
     <g id="line2d_12">
      <g>
       <use style="stroke:#000000;stroke-width:0.6;" x="361.879521" xlink:href="#m240276382b" y="150.089143"/>
      </g>
     </g>
    </g>
    <g id="xtick_13">
     <g id="line2d_13">
      <g>
       <use style="stroke:#000000;stroke-width:0.6;" x="371.016947" xlink:href="#m240276382b" y="150.089143"/>
      </g>
     </g>
    </g>
    <g id="xtick_14">
     <g id="line2d_14">
      <g>
       <use style="stroke:#000000;stroke-width:0.6;" x="378.104486" xlink:href="#m240276382b" y="150.089143"/>
      </g>
     </g>
    </g>
    <g id="xtick_15">
     <g id="line2d_15">
      <g>
       <use style="stroke:#000000;stroke-width:0.6;" x="383.895426" xlink:href="#m240276382b" y="150.089143"/>
      </g>
     </g>
    </g>
    <g id="xtick_16">
     <g id="line2d_16">
      <g>
       <use style="stroke:#000000;stroke-width:0.6;" x="388.791597" xlink:href="#m240276382b" y="150.089143"/>
      </g>
     </g>
    </g>
    <g id="xtick_17">
     <g id="line2d_17">
      <g>
       <use style="stroke:#000000;stroke-width:0.6;" x="393.032852" xlink:href="#m240276382b" y="150.089143"/>
      </g>
     </g>
    </g>
    <g id="xtick_18">
     <g id="line2d_18">
      <g>
       <use style="stroke:#000000;stroke-width:0.6;" x="396.773905" xlink:href="#m240276382b" y="150.089143"/>
      </g>
     </g>
    </g>
    <g id="text_3">
     <!-- Period d -->
     <g transform="translate(319.231719 178.365705)scale(0.1 -0.1)">
      <defs>
       <path d="M 24.703125 37.109375 
L 37.59375 37.109375 
Q 44.875 37.109375 48.671875 41.03125 
Q 52.484375 44.96875 52.484375 52.390625 
Q 52.484375 59.859375 48.671875 63.765625 
Q 44.875 67.671875 37.59375 67.671875 
L 24.703125 67.671875 
z
M 5.515625 0 
L 5.515625 5.171875 
L 14.796875 5.171875 
L 14.796875 67.671875 
L 5.515625 67.671875 
L 5.515625 72.90625 
L 39.984375 72.90625 
Q 50.921875 72.90625 57.3125 67.359375 
Q 63.71875 61.8125 63.71875 52.390625 
Q 63.71875 43.015625 57.3125 37.453125 
Q 50.921875 31.890625 39.984375 31.890625 
L 24.703125 31.890625 
L 24.703125 5.171875 
L 35.984375 5.171875 
L 35.984375 0 
z
" id="DejaVuSerif-80"/>
       <path d="M 54.203125 25 
L 15.484375 25 
L 15.484375 24.609375 
Q 15.484375 14.109375 19.4375 8.765625 
Q 23.390625 3.421875 31.109375 3.421875 
Q 37.015625 3.421875 40.796875 6.515625 
Q 44.578125 9.625 46.09375 15.71875 
L 53.328125 15.71875 
Q 51.171875 7.171875 45.375 2.875 
Q 39.59375 -1.421875 30.171875 -1.421875 
Q 18.796875 -1.421875 11.890625 6.078125 
Q 4.984375 13.578125 4.984375 25.984375 
Q 4.984375 38.28125 11.765625 45.796875 
Q 18.5625 53.328125 29.59375 53.328125 
Q 41.359375 53.328125 47.65625 46.0625 
Q 53.953125 38.8125 54.203125 25 
z
M 43.609375 30.171875 
Q 43.3125 39.265625 39.765625 43.875 
Q 36.234375 48.484375 29.59375 48.484375 
Q 23.390625 48.484375 19.828125 43.84375 
Q 16.265625 39.203125 15.484375 30.171875 
z
" id="DejaVuSerif-101"/>
       <path d="M 47.796875 52 
L 47.796875 39.015625 
L 42.625 39.015625 
Q 42.390625 42.875 40.484375 44.78125 
Q 38.578125 46.6875 34.90625 46.6875 
Q 28.265625 46.6875 24.71875 42.09375 
Q 21.1875 37.5 21.1875 28.90625 
L 21.1875 5.171875 
L 31.59375 5.171875 
L 31.59375 0 
L 4.109375 0 
L 4.109375 5.171875 
L 12.203125 5.171875 
L 12.203125 46.78125 
L 3.609375 46.78125 
L 3.609375 51.90625 
L 21.1875 51.90625 
L 21.1875 42.671875 
Q 23.828125 48.09375 27.96875 50.703125 
Q 32.125 53.328125 38.09375 53.328125 
Q 40.28125 53.328125 42.703125 52.984375 
Q 45.125 52.640625 47.796875 52 
z
" id="DejaVuSerif-114"/>
       <path d="M 9.71875 68.015625 
Q 9.71875 70.265625 11.34375 71.921875 
Q 12.984375 73.578125 15.28125 73.578125 
Q 17.53125 73.578125 19.15625 71.921875 
Q 20.796875 70.265625 20.796875 68.015625 
Q 20.796875 65.71875 19.1875 64.109375 
Q 17.578125 62.5 15.28125 62.5 
Q 12.984375 62.5 11.34375 64.109375 
Q 9.71875 65.71875 9.71875 68.015625 
z
M 21.1875 5.171875 
L 29.6875 5.171875 
L 29.6875 0 
L 3.609375 0 
L 3.609375 5.171875 
L 12.203125 5.171875 
L 12.203125 46.6875 
L 3.609375 46.6875 
L 3.609375 51.90625 
L 21.1875 51.90625 
z
" id="DejaVuSerif-105"/>
       <path d="M 30.078125 3.421875 
Q 37.3125 3.421875 40.984375 9.125 
Q 44.671875 14.84375 44.671875 25.984375 
Q 44.671875 37.109375 40.984375 42.796875 
Q 37.3125 48.484375 30.078125 48.484375 
Q 22.859375 48.484375 19.171875 42.796875 
Q 15.484375 37.109375 15.484375 25.984375 
Q 15.484375 14.84375 19.1875 9.125 
Q 22.90625 3.421875 30.078125 3.421875 
z
M 30.078125 -1.421875 
Q 18.75 -1.421875 11.859375 6.078125 
Q 4.984375 13.578125 4.984375 25.984375 
Q 4.984375 38.375 11.84375 45.84375 
Q 18.703125 53.328125 30.078125 53.328125 
Q 41.453125 53.328125 48.3125 45.84375 
Q 55.171875 38.375 55.171875 25.984375 
Q 55.171875 13.578125 48.3125 6.078125 
Q 41.453125 -1.421875 30.078125 -1.421875 
z
" id="DejaVuSerif-111"/>
       <path d="M 52.484375 5.171875 
L 61.078125 5.171875 
L 61.078125 0 
L 43.5 0 
L 43.5 8.109375 
Q 40.875 3.21875 36.796875 0.890625 
Q 32.71875 -1.421875 26.703125 -1.421875 
Q 17.140625 -1.421875 11.0625 6.171875 
Q 4.984375 13.765625 4.984375 25.984375 
Q 4.984375 38.1875 11.03125 45.75 
Q 17.09375 53.328125 26.703125 53.328125 
Q 32.71875 53.328125 36.796875 51 
Q 40.875 48.6875 43.5 43.796875 
L 43.5 70.796875 
L 35.015625 70.796875 
L 35.015625 75.984375 
L 52.484375 75.984375 
z
M 43.5 23.390625 
L 43.5 28.515625 
Q 43.5 37.84375 39.90625 42.765625 
Q 36.328125 47.703125 29.5 47.703125 
Q 22.5625 47.703125 19.015625 42.234375 
Q 15.484375 36.765625 15.484375 25.984375 
Q 15.484375 15.234375 19.015625 9.71875 
Q 22.5625 4.203125 29.5 4.203125 
Q 36.328125 4.203125 39.90625 9.109375 
Q 43.5 14.015625 43.5 23.390625 
z
" id="DejaVuSerif-100"/>
       <path id="DejaVuSerif-32"/>
      </defs>
      <use xlink:href="#DejaVuSerif-80"/>
      <use x="62.785156" xlink:href="#DejaVuSerif-101"/>
      <use x="121.964844" xlink:href="#DejaVuSerif-114"/>
      <use x="169.767578" xlink:href="#DejaVuSerif-105"/>
      <use x="201.75" xlink:href="#DejaVuSerif-111"/>
      <use x="261.955078" xlink:href="#DejaVuSerif-100"/>
      <use x="325.96875" xlink:href="#DejaVuSerif-32"/>
      <use x="357.755859" xlink:href="#DejaVuSerif-100"/>
     </g>
    </g>
   </g>
   <g id="matplotlib.axis_2">
    <g id="ytick_1">
     <g id="line2d_19">
      <defs>
       <path d="M 0 0 
L -3.5 0 
" id="m1414c93768" style="stroke:#000000;stroke-width:0.8;"/>
      </defs>
      <g>
       <use style="stroke:#000000;stroke-width:0.8;" x="265.92" xlink:href="#m1414c93768" y="145.160989"/>
      </g>
     </g>
     <g id="text_4">
      <!-- 0.0 -->
      <g transform="translate(243.016875 148.960207)scale(0.1 -0.1)">
       <defs>
        <path d="M 9.421875 5.078125 
Q 9.421875 7.8125 11.28125 9.71875 
Q 13.140625 11.625 15.921875 11.625 
Q 18.609375 11.625 20.5 9.71875 
Q 22.40625 7.8125 22.40625 5.078125 
Q 22.40625 2.390625 20.5 0.484375 
Q 18.609375 -1.421875 15.921875 -1.421875 
Q 13.140625 -1.421875 11.28125 0.453125 
Q 9.421875 2.34375 9.421875 5.078125 
z
" id="DejaVuSerif-46"/>
       </defs>
       <use xlink:href="#DejaVuSerif-48"/>
       <use x="63.623047" xlink:href="#DejaVuSerif-46"/>
       <use x="95.410156" xlink:href="#DejaVuSerif-48"/>
      </g>
     </g>
    </g>
    <g id="ytick_2">
     <g id="line2d_20">
      <g>
       <use style="stroke:#000000;stroke-width:0.8;" x="265.92" xlink:href="#m1414c93768" y="103.801489"/>
      </g>
     </g>
     <g id="text_5">
      <!-- 0.2 -->
      <g transform="translate(243.016875 107.600708)scale(0.1 -0.1)">
       <use xlink:href="#DejaVuSerif-48"/>
       <use x="63.623047" xlink:href="#DejaVuSerif-46"/>
       <use x="95.410156" xlink:href="#DejaVuSerif-50"/>
      </g>
     </g>
    </g>
    <g id="ytick_3">
     <g id="line2d_21">
      <g>
       <use style="stroke:#000000;stroke-width:0.8;" x="265.92" xlink:href="#m1414c93768" y="62.441989"/>
      </g>
     </g>
     <g id="text_6">
      <!-- 0.4 -->
      <g transform="translate(243.016875 66.241208)scale(0.1 -0.1)">
       <defs>
        <path d="M 34.90625 24.703125 
L 34.90625 63.484375 
L 10.015625 24.703125 
z
M 56.390625 0 
L 23.1875 0 
L 23.1875 5.171875 
L 34.90625 5.171875 
L 34.90625 19.484375 
L 3.078125 19.484375 
L 3.078125 24.8125 
L 35.015625 74.21875 
L 44.671875 74.21875 
L 44.671875 24.703125 
L 58.59375 24.703125 
L 58.59375 19.484375 
L 44.671875 19.484375 
L 44.671875 5.171875 
L 56.390625 5.171875 
z
" id="DejaVuSerif-52"/>
       </defs>
       <use xlink:href="#DejaVuSerif-48"/>
       <use x="63.623047" xlink:href="#DejaVuSerif-46"/>
       <use x="95.410156" xlink:href="#DejaVuSerif-52"/>
      </g>
     </g>
    </g>
    <g id="text_7">
     <!-- Power -->
     <g transform="translate(236.937188 111.583696)rotate(-90)scale(0.1 -0.1)">
      <defs>
       <path d="M 48 51.90625 
L 61.28125 11.375 
L 73 46.6875 
L 65.484375 46.6875 
L 65.484375 51.90625 
L 84.28125 51.90625 
L 84.28125 46.6875 
L 78.515625 46.6875 
L 63.09375 0 
L 55.609375 0 
L 42.828125 38.8125 
L 29.984375 0 
L 22.796875 0 
L 7.421875 46.6875 
L 1.609375 46.6875 
L 1.609375 51.90625 
L 25.09375 51.90625 
L 25.09375 46.6875 
L 16.703125 46.6875 
L 28.328125 11.375 
L 41.703125 51.90625 
z
" id="DejaVuSerif-119"/>
      </defs>
      <use xlink:href="#DejaVuSerif-80"/>
      <use x="63.285156" xlink:href="#DejaVuSerif-111"/>
      <use x="123.490234" xlink:href="#DejaVuSerif-119"/>
      <use x="209.085938" xlink:href="#DejaVuSerif-101"/>
      <use x="268.265625" xlink:href="#DejaVuSerif-114"/>
     </g>
    </g>
   </g>
   <g id="LineCollection_1">
    <path clip-path="url(#pbe502cf5e4)" d="M 272.695273 47.347656 
L 407.956364 47.347656 
" style="fill:none;stroke:#808080;stroke-dasharray:5.55,2.4;stroke-dashoffset:0;stroke-width:1.5;"/>
   </g>
   <g id="LineCollection_2">
    <path clip-path="url(#pbe502cf5e4)" d="M 272.695273 61.137153 
L 407.956364 61.137153 
" style="fill:none;stroke:#a9a9a9;stroke-dasharray:5.55,2.4;stroke-dashoffset:0;stroke-width:1.5;"/>
   </g>
   <g id="LineCollection_3">
    <path clip-path="url(#pbe502cf5e4)" d="M 272.695273 72.023001 
L 407.956364 72.023001 
" style="fill:none;stroke:#c0c0c0;stroke-dasharray:5.55,2.4;stroke-dashoffset:0;stroke-width:1.5;"/>
   </g>
   <g id="LineCollection_4">
    <path clip-path="url(#pbe502cf5e4)" d="M 272.695273 77.173384 
L 407.956364 77.173384 
" style="fill:none;stroke:#d3d3d3;stroke-dasharray:5.55,2.4;stroke-dashoffset:0;stroke-width:1.5;"/>
   </g>
   <g id="line2d_22">
    <path clip-path="url(#pbe502cf5e4)" d="M 407.956364 116.933095 
L 405.906476 123.074025 
L 403.980902 134.370838 
L 402.165423 143.683082 
L 398.818938 121.835342 
L 397.269253 120.762487 
L 395.791673 127.195342 
L 394.379786 135.951006 
L 393.027997 125.537936 
L 391.731399 93.855429 
L 390.485662 80.453123 
L 389.286945 83.223249 
L 388.131827 95.82651 
L 387.017248 117.37075 
L 385.940459 126.260625 
L 384.898981 103.290175 
L 383.890571 85.525528 
L 382.913194 79.971757 
L 381.964998 84.450154 
L 380.149518 135.10312 
L 379.279266 116.616572 
L 378.432223 95.009607 
L 377.607183 89.073392 
L 376.803033 93.912534 
L 376.01874 118.51366 
L 375.253348 132.265763 
L 374.505967 108.927122 
L 373.775768 91.956499 
L 373.06198 86.03992 
L 372.363881 82.645324 
L 371.680796 86.614613 
L 371.012092 119.87935 
L 370.357178 124.594977 
L 369.086519 75.780774 
L 368.469757 73.468541 
L 367.864744 80.042975 
L 367.27104 112.372939 
L 366.68823 131.539903 
L 366.115922 114.28371 
L 365.553744 92.032319 
L 365.001343 80.938876 
L 364.458386 85.476443 
L 363.924554 118.75019 
L 363.399547 136.13292 
L 362.883076 120.673939 
L 362.374869 99.033501 
L 361.874666 86.693157 
L 361.382219 93.471745 
L 360.89729 124.376158 
L 360.419653 137.654929 
L 359.949093 126.073577 
L 359.485402 111.838822 
L 359.028384 105.036869 
L 358.577848 111.673911 
L 358.133614 133.945183 
L 357.695507 139.252599 
L 356.837016 120.075028 
L 356.416318 114.374929 
L 356.001119 120.073972 
L 355.591278 136.365145 
L 355.186658 135.463653 
L 354.787128 124.966811 
L 354.392561 117.753239 
L 354.002836 113.841241 
L 353.617834 119.95897 
L 353.237443 135.187985 
L 352.861555 131.592602 
L 352.490062 121.816075 
L 352.122865 118.168173 
L 351.759864 119.345548 
L 351.046076 137.085338 
L 350.347976 118.800137 
L 350.004597 117.523436 
L 349.664891 120.13995 
L 348.996188 140.496088 
L 348.667042 135.393406 
L 348.341273 127.16823 
L 348.018811 127.69685 
L 347.070614 144.798262 
L 346.760736 142.830494 
L 346.453852 138.470874 
L 346.149905 137.769874 
L 345.848839 139.997538 
L 345.5506 144.056733 
L 345.255135 143.550054 
L 344.672325 126.194817 
L 344.384882 124.203682 
L 344.100017 128.914254 
L 343.817685 138.507195 
L 343.537839 139.719185 
L 342.985439 102.537447 
L 342.7128 100.190788 
L 342.442481 114.138214 
L 342.174444 134.831693 
L 341.908649 135.707868 
L 341.383642 93.722431 
L 341.124357 85.656873 
L 340.867171 93.772184 
L 340.612052 121.399328 
L 340.358965 121.08652 
L 339.858762 57.377522 
L 339.611584 46.409143 
L 339.366314 50.830362 
L 338.881385 115.965869 
L 338.403748 70.820995 
L 338.167597 65.972212 
L 337.933188 76.062469 
L 337.469498 132.629214 
L 337.240166 127.64721 
L 336.786412 100.440131 
L 336.561943 101.333474 
L 336.117709 136.748878 
L 335.8979 128.153998 
L 335.462794 94.848693 
L 335.247456 97.037719 
L 334.610066 132.986319 
L 333.985215 99.353118 
L 333.779633 108.422576 
L 333.575374 132.437419 
L 333.372419 143.19948 
L 333.170754 138.464986 
L 332.97036 130.065423 
L 332.771223 127.138168 
L 332.181196 144.136853 
L 331.601929 123.881321 
L 331.411165 129.459855 
L 331.221539 138.615029 
L 331.033038 138.866305 
L 330.474157 121.894829 
L 330.290028 125.665392 
L 330.10696 137.375187 
L 329.924941 140.348829 
L 329.564002 131.628787 
L 329.38506 132.335962 
L 329.030171 141.740939 
L 328.505163 122.044052 
L 328.332072 125.261559 
L 327.988693 139.360245 
L 327.648986 120.841438 
L 327.480486 120.439273 
L 326.980283 145.099554 
L 326.651138 135.918421 
L 326.487835 137.110955 
L 326.163728 144.401852 
L 326.002906 143.523117 
L 325.683685 135.0186 
L 325.52527 137.21568 
L 325.21079 144.397456 
L 325.054709 144.401375 
L 324.591019 133.442551 
L 324.134 144.726367 
L 323.683465 125.185625 
L 323.534695 129.021145 
L 323.23923 144.311874 
L 322.946489 117.587928 
L 322.801124 106.595252 
L 322.656421 108.704852 
L 322.368978 141.903949 
L 322.226226 138.651341 
L 321.942633 116.068812 
L 321.80178 118.572142 
L 321.382931 144.105806 
L 320.969534 118.308997 
L 320.832922 122.643326 
L 320.561448 143.248366 
L 320.426576 137.000547 
L 320.158539 119.200804 
L 320.025364 122.889548 
L 319.760677 142.119325 
L 319.629156 143.486784 
L 319.23783 131.212508 
L 318.723451 144.576158 
L 318.34306 140.19798 
L 318.091974 144.698079 
L 317.967171 143.132753 
L 317.719027 131.528441 
L 317.595679 132.239507 
L 317.350409 141.627379 
L 317.107019 128.422785 
L 316.98602 122.236628 
L 316.86548 124.538688 
L 316.625764 140.352706 
L 316.506581 138.271989 
L 316.269548 132.832631 
L 316.034272 140.744128 
L 315.917283 140.574321 
L 315.568882 125.234369 
L 315.224262 139.758431 
L 314.88334 120.274717 
L 314.770508 121.486582 
L 314.434396 142.512613 
L 314.101804 127.156426 
L 313.772659 144.895678 
L 313.663698 143.866688 
L 313.44689 137.868183 
L 313.339038 139.548741 
L 313.124428 144.236447 
L 312.805206 138.522444 
L 312.594161 143.396409 
L 312.384508 140.89569 
L 312.072602 144.188591 
L 311.96931 140.23974 
L 311.763728 124.337563 
L 311.45783 143.885064 
L 311.356515 140.153295 
L 311.054494 113.591893 
L 310.755319 140.275148 
L 310.458935 106.968565 
L 310.165291 136.161493 
L 309.874337 105.449848 
L 309.586025 135.326491 
L 309.300305 118.946074 
L 309.017133 140.352611 
L 308.923301 137.426724 
L 308.736464 127.633726 
L 308.643456 130.377069 
L 308.458253 140.280298 
L 308.366055 137.087326 
L 308.091055 122.771208 
L 307.909036 137.173327 
L 307.818416 134.683855 
L 307.637949 123.712229 
L 307.369155 134.601959 
L 307.102617 117.35565 
L 307.014266 118.839768 
L 306.92616 122.140762 
L 306.838298 120.500959 
L 306.576159 102.05134 
L 306.316167 121.136296 
L 306.229973 117.898902 
L 306.058285 106.511589 
L 305.802481 137.659229 
L 305.54872 116.906338 
L 305.29697 135.841489 
L 305.0472 111.698041 
L 304.799379 141.16544 
L 304.7172 139.401637 
L 304.553477 133.062595 
L 304.390593 144.150249 
L 304.309464 143.400296 
L 304.147823 131.673641 
L 304.067311 132.415013 
L 303.906895 140.082997 
L 303.747285 120.360959 
L 303.588474 109.059191 
L 303.351736 135.679802 
L 303.116749 109.747086 
L 302.883488 141.693899 
L 302.806113 135.076575 
L 302.651927 112.992903 
L 302.422043 131.604744 
L 302.19381 95.39253 
L 302.118096 101.671511 
L 301.892029 128.955623 
L 301.742207 116.048769 
L 301.66756 120.83075 
L 301.444666 141.904712 
L 301.296935 134.587726 
L 301.149887 137.457228 
L 301.076618 136.269123 
L 300.857818 119.068175 
L 300.640516 129.267024 
L 300.568411 126.454252 
L 300.42469 120.342226 
L 300.281617 127.3051 
L 300.139185 133.504952 
L 299.997389 127.337177 
L 299.785875 130.909502 
L 299.715682 129.422086 
L 299.57576 120.129627 
L 299.297752 130.256652 
L 299.228629 127.478144 
L 299.159655 128.86308 
L 298.953629 142.794633 
L 298.88525 142.662431 
L 298.748931 139.070424 
L 298.545543 144.74339 
L 298.478036 144.11352 
L 298.34345 142.047503 
L 298.209432 145.029755 
L 298.075977 140.104399 
L 298.009459 137.195648 
L 297.94308 138.458155 
L 297.810738 144.682058 
L 297.613251 134.240394 
L 297.547695 135.240411 
L 297.416986 144.206982 
L 297.351832 143.143722 
L 297.221925 136.995562 
L 297.157171 138.001534 
L 297.028056 144.748289 
L 296.963694 143.979494 
L 296.77139 137.633251 
L 296.580242 144.42908 
L 296.453447 134.331485 
L 296.390238 128.4165 
L 296.327155 130.069704 
L 296.138655 143.838795 
L 296.013606 137.669385 
L 295.951266 138.049922 
L 295.764977 144.892833 
L 295.641389 141.691046 
L 295.579774 141.753436 
L 295.456903 144.382812 
L 295.334505 139.603444 
L 295.273482 136.823002 
L 295.212576 136.882664 
L 295.030557 143.72807 
L 294.970115 143.610235 
L 294.909788 143.361064 
L 294.789477 144.554382 
L 294.729491 145.096087 
L 294.669619 144.811085 
L 294.371939 139.980803 
L 294.135787 130.382931 
L 294.077023 130.651436 
L 293.959819 132.977985 
L 293.843046 127.227113 
L 293.78482 128.897314 
L 293.495281 140.396312 
L 293.322816 144.229786 
L 293.265535 144.12015 
L 293.094309 140.133532 
L 292.98067 141.551386 
L 292.867435 136.984238 
L 292.754603 132.109655 
L 292.64217 139.33023 
L 292.530134 144.058155 
L 292.418492 142.396291 
L 292.30724 144.220172 
L 292.14109 138.496887 
L 292.0859 139.1386 
L 291.975805 143.299036 
L 291.920901 141.95011 
L 291.756754 134.58839 
L 291.539204 143.625639 
L 291.485048 141.852699 
L 291.377013 137.300795 
L 291.323133 138.353313 
L 291.215647 144.400926 
L 291.16204 141.976061 
L 291.055096 134.721241 
L 291.001759 135.509337 
L 290.895353 140.925296 
L 290.736409 124.878339 
L 290.683604 127.106231 
L 290.525713 142.699173 
L 290.420887 138.704214 
L 290.264294 145.139918 
L 290.212268 143.785072 
L 290.108469 139.289031 
L 290.056697 140.552393 
L 289.953405 143.573163 
L 289.901885 142.574935 
L 289.747824 136.54695 
L 289.594506 140.983696 
L 289.441925 137.056187 
L 289.391227 137.983612 
L 289.290073 138.7747 
L 289.138944 135.289041 
L 289.088727 137.124264 
L 288.938551 138.701346 
L 288.789081 141.152544 
L 288.689824 143.133614 
L 288.640312 142.815312 
L 288.590876 142.389951 
L 288.541518 142.419535 
L 288.44303 142.746181 
L 288.295869 140.638451 
L 288.246966 141.133472 
L 288.198139 141.888853 
L 288.149386 141.685236 
L 288.052105 140.05152 
L 287.90674 144.090583 
L 287.858433 142.325189 
L 287.762037 136.927355 
L 287.713949 137.933794 
L 287.665934 140.386999 
L 287.617991 139.002143 
L 287.474594 125.175415 
L 287.426939 126.385589 
L 287.331842 140.266692 
L 287.284401 139.796811 
L 287.189729 135.038445 
L 287.142499 136.842986 
L 287.001229 144.760078 
L 286.860584 140.162192 
L 286.720559 144.455325 
L 286.581149 134.849353 
L 286.488548 138.802756 
L 286.396216 144.108092 
L 286.35015 142.632445 
L 286.258219 139.763827 
L 286.120819 144.127456 
L 286.07515 143.251081 
L 286.029548 142.801159 
L 285.938538 144.978577 
L 285.893131 144.359061 
L 285.757298 132.701924 
L 285.71215 136.029815 
L 285.622044 143.885314 
L 285.577087 142.981548 
L 285.487363 136.76714 
L 285.442596 137.875025 
L 285.35325 143.242002 
L 285.308672 141.476908 
L 285.17531 128.997754 
L 285.13098 130.29688 
L 285.086713 132.023205 
L 285.042506 131.085215 
L 284.954278 124.374595 
L 284.910255 125.237325 
L 284.603794 142.119255 
L 284.560255 143.199749 
L 284.516774 142.63512 
L 284.473354 141.90244 
L 284.429992 142.110401 
L 284.343447 143.904235 
L 284.300262 143.488163 
L 284.257136 142.40861 
L 284.214069 142.614448 
L 284.042381 144.908786 
L 283.914221 143.752595 
L 283.871615 144.150399 
L 283.829067 143.995918 
L 283.744141 139.143757 
L 283.701763 135.58382 
L 283.659442 136.272672 
L 283.617177 138.05876 
L 283.574968 137.566356 
L 283.490718 128.68603 
L 283.448677 122.357931 
L 283.406691 125.661811 
L 283.322885 136.748404 
L 283.281065 135.497333 
L 283.19759 123.406062 
L 283.155935 126.813571 
L 283.072788 140.835782 
L 283.031296 139.809278 
L 282.948474 125.955394 
L 282.907143 126.785149 
L 282.783475 142.778866 
L 282.742358 140.737102 
L 282.660285 134.048223 
L 282.619328 137.57464 
L 282.537572 145.101547 
L 282.496773 143.554996 
L 282.415331 140.827291 
L 282.334098 144.680973 
L 282.212636 130.630201 
L 282.131919 136.726328 
L 282.051406 143.712139 
L 282.011226 140.610887 
L 281.971097 137.235772 
L 281.931018 137.991198 
L 281.811085 144.340351 
L 281.771208 144.261475 
L 281.691603 143.46515 
L 281.651876 143.743792 
L 281.572569 144.954815 
L 281.53299 144.079001 
L 281.414548 135.7063 
L 281.375165 137.379376 
L 281.296546 143.047554 
L 281.257309 141.087332 
L 281.21812 138.469626 
L 281.17898 138.611561 
L 281.061848 145.152 
L 281.0229 144.114308 
L 280.828872 131.422301 
L 280.713022 126.496497 
L 280.674499 129.722536 
L 280.636023 127.395879 
L 280.597593 122.416175 
L 280.559209 125.365551 
L 280.444337 140.570969 
L 280.367985 136.012138 
L 280.215831 140.637118 
L 280.102191 130.196353 
L 280.064401 133.012783 
L 279.988957 137.623254 
L 279.951301 135.814957 
L 279.913691 130.189371 
L 279.876124 130.814729 
L 279.726302 144.422883 
L 279.651655 139.737308 
L 279.614397 142.205488 
L 279.577183 144.67362 
L 279.502886 142.250743 
L 279.428761 137.766994 
L 279.391764 139.97104 
L 279.317898 144.978806 
L 279.28103 141.488131 
L 279.207421 132.863718 
L 279.17068 134.431498 
L 279.097326 144.261266 
L 279.060713 143.296495 
L 278.951125 129.347581 
L 278.914679 134.162942 
L 278.878276 142.162753 
L 278.841914 140.052918 
L 278.733077 125.954236 
L 278.69688 130.639208 
L 278.660725 138.806431 
L 278.624611 134.076244 
L 278.552506 122.414318 
L 278.516515 124.13887 
L 278.444655 138.353861 
L 278.408785 135.60718 
L 278.337168 122.781566 
L 278.30142 126.324871 
L 278.230044 142.62937 
L 278.158828 137.896859 
L 278.12328 136.850289 
L 278.087772 138.91177 
L 278.016874 145.091669 
L 277.981484 143.544317 
L 277.910823 140.544362 
L 277.875551 141.492858 
L 277.805125 144.735465 
L 277.76997 143.419396 
L 277.664739 136.904729 
L 277.62974 137.011553 
L 277.559856 140.947974 
L 277.524971 138.497646 
L 277.455317 136.941021 
L 277.420547 137.001787 
L 277.385815 140.794154 
L 277.351122 139.479687 
L 277.247267 134.665377 
L 277.212724 135.186676 
L 277.178218 135.020061 
L 277.10932 122.252588 
L 277.04057 124.918058 
L 276.971969 131.282794 
L 276.937724 129.374087 
L 276.869345 111.72672 
L 276.83521 118.910442 
L 276.733026 139.735439 
L 276.665086 133.842053 
L 276.563446 142.812948 
L 276.529639 137.468364 
L 276.462131 132.755227 
L 276.428431 135.806997 
L 276.361138 141.046124 
L 276.327545 135.925106 
L 276.293988 133.498871 
L 276.260466 135.029127 
L 276.193527 144.17917 
L 276.12673 140.936692 
L 276.093383 140.538476 
L 276.026796 144.951113 
L 275.993554 143.535806 
L 275.927176 124.694479 
L 275.894038 125.712816 
L 275.761833 141.323087 
L 275.728868 142.045915 
L 275.630176 119.426789 
L 275.597347 122.737539 
L 275.53179 144.307403 
L 275.466368 141.22314 
L 275.433708 140.855947 
L 275.368488 144.891386 
L 275.270908 132.109549 
L 275.238448 134.79484 
L 275.206021 139.821374 
L 275.173627 139.409954 
L 275.108938 127.043303 
L 275.076643 128.118683 
L 274.979954 141.941662 
L 274.94779 135.886717 
L 274.883559 129.190042 
L 274.851492 136.208446 
L 274.819457 139.398201 
L 274.787455 131.848135 
L 274.691641 117.729957 
L 274.659767 121.194947 
L 274.596116 129.786373 
L 274.532591 125.247009 
L 274.500876 123.447161 
L 274.469193 125.080898 
L 274.311251 139.671174 
L 274.248293 143.199352 
L 274.185459 140.870653 
L 274.154089 140.835476 
L 274.060164 144.224862 
L 274.028918 142.377527 
L 273.966516 139.161422 
L 273.904238 140.768286 
L 273.84208 144.39594 
L 273.811048 141.422356 
L 273.749072 137.889853 
L 273.71813 140.357898 
L 273.687218 143.781783 
L 273.656336 142.455068 
L 273.594662 131.310135 
L 273.533107 135.871446 
L 273.502374 139.733214 
L 273.471671 132.048275 
L 273.410354 120.671964 
L 273.37974 122.419236 
L 273.3186 137.69367 
L 273.288074 131.281826 
L 273.22711 119.116578 
L 273.196672 121.859114 
L 273.135883 140.387975 
L 273.07521 129.784551 
L 273.044917 128.707987 
L 272.924033 144.049668 
L 272.863763 138.073094 
L 272.773572 144.46873 
L 272.713587 140.910404 
L 272.683636 137.858977 
L 272.683636 137.858977 
" style="fill:none;stroke:#1f77b4;stroke-linecap:square;stroke-width:1.5;"/>
   </g>
   <g id="patch_3">
    <path d="M 265.92 150.089143 
L 265.92 41.472 
" style="fill:none;stroke:#000000;stroke-linecap:square;stroke-linejoin:miter;stroke-width:0.8;"/>
   </g>
   <g id="patch_4">
    <path d="M 414.72 150.089143 
L 414.72 41.472 
" style="fill:none;stroke:#000000;stroke-linecap:square;stroke-linejoin:miter;stroke-width:0.8;"/>
   </g>
   <g id="patch_5">
    <path d="M 265.92 150.089143 
L 414.72 150.089143 
" style="fill:none;stroke:#000000;stroke-linecap:square;stroke-linejoin:miter;stroke-width:0.8;"/>
   </g>
   <g id="patch_6">
    <path d="M 265.92 41.472 
L 414.72 41.472 
" style="fill:none;stroke:#000000;stroke-linecap:square;stroke-linejoin:miter;stroke-width:0.8;"/>
   </g>
   <g id="text_8">
    <!-- Periodogram -->
    <g transform="translate(307.698125 35.472)scale(0.1 -0.1)">
     <defs>
      <path d="M 52.484375 46.6875 
L 52.484375 1.125 
Q 52.484375 -10.0625 46.328125 -16.140625 
Q 40.1875 -22.21875 28.8125 -22.21875 
Q 23.6875 -22.21875 19 -21.28125 
Q 14.3125 -20.359375 10.015625 -18.5 
L 10.015625 -7.625 
L 14.703125 -7.625 
Q 15.578125 -12.703125 18.84375 -15.046875 
Q 22.125 -17.390625 28.21875 -17.390625 
Q 36.140625 -17.390625 39.8125 -12.921875 
Q 43.5 -8.453125 43.5 1.125 
L 43.5 8.109375 
Q 40.875 3.21875 36.796875 0.890625 
Q 32.71875 -1.421875 26.703125 -1.421875 
Q 17.140625 -1.421875 11.0625 6.171875 
Q 4.984375 13.765625 4.984375 25.984375 
Q 4.984375 38.1875 11.03125 45.75 
Q 17.09375 53.328125 26.703125 53.328125 
Q 32.71875 53.328125 36.796875 51 
Q 40.875 48.6875 43.5 43.796875 
L 43.5 51.90625 
L 61.078125 51.90625 
L 61.078125 46.6875 
z
M 43.5 28.515625 
Q 43.5 37.84375 39.90625 42.765625 
Q 36.328125 47.703125 29.5 47.703125 
Q 22.5625 47.703125 19.015625 42.234375 
Q 15.484375 36.765625 15.484375 25.984375 
Q 15.484375 15.234375 19.015625 9.71875 
Q 22.5625 4.203125 29.5 4.203125 
Q 36.328125 4.203125 39.90625 9.109375 
Q 43.5 14.015625 43.5 23.390625 
z
" id="DejaVuSerif-103"/>
      <path d="M 39.796875 16.3125 
L 39.796875 27.296875 
L 28.21875 27.296875 
Q 21.53125 27.296875 18.25 24.40625 
Q 14.984375 21.53125 14.984375 15.578125 
Q 14.984375 10.15625 18.296875 6.984375 
Q 21.625 3.8125 27.296875 3.8125 
Q 32.90625 3.8125 36.34375 7.28125 
Q 39.796875 10.75 39.796875 16.3125 
z
M 48.78125 32.421875 
L 48.78125 5.171875 
L 56.78125 5.171875 
L 56.78125 0 
L 39.796875 0 
L 39.796875 5.609375 
Q 36.8125 2 32.90625 0.28125 
Q 29 -1.421875 23.78125 -1.421875 
Q 15.140625 -1.421875 10.0625 3.171875 
Q 4.984375 7.765625 4.984375 15.578125 
Q 4.984375 23.640625 10.796875 28.078125 
Q 16.609375 32.515625 27.203125 32.515625 
L 39.796875 32.515625 
L 39.796875 36.078125 
Q 39.796875 42 36.203125 45.234375 
Q 32.625 48.484375 26.125 48.484375 
Q 20.75 48.484375 17.578125 46.046875 
Q 14.40625 43.609375 13.625 38.8125 
L 8.984375 38.8125 
L 8.984375 49.3125 
Q 13.671875 51.3125 18.09375 52.3125 
Q 22.515625 53.328125 26.703125 53.328125 
Q 37.5 53.328125 43.140625 47.96875 
Q 48.78125 42.625 48.78125 32.421875 
z
" id="DejaVuSerif-97"/>
      <path d="M 51.8125 41.796875 
Q 54.390625 47.515625 58.421875 50.421875 
Q 62.453125 53.328125 67.828125 53.328125 
Q 75.984375 53.328125 79.984375 48.265625 
Q 83.984375 43.21875 83.984375 33.015625 
L 83.984375 5.171875 
L 92.09375 5.171875 
L 92.09375 0 
L 67.1875 0 
L 67.1875 5.171875 
L 75 5.171875 
L 75 31.984375 
Q 75 39.9375 72.65625 43.3125 
Q 70.3125 46.6875 64.890625 46.6875 
Q 58.890625 46.6875 55.734375 42.140625 
Q 52.59375 37.59375 52.59375 28.90625 
L 52.59375 5.171875 
L 60.40625 5.171875 
L 60.40625 0 
L 35.796875 0 
L 35.796875 5.171875 
L 43.609375 5.171875 
L 43.609375 32.328125 
Q 43.609375 40.09375 41.265625 43.390625 
Q 38.921875 46.6875 33.5 46.6875 
Q 27.484375 46.6875 24.328125 42.140625 
Q 21.1875 37.59375 21.1875 28.90625 
L 21.1875 5.171875 
L 29 5.171875 
L 29 0 
L 4.109375 0 
L 4.109375 5.171875 
L 12.203125 5.171875 
L 12.203125 46.78125 
L 3.609375 46.78125 
L 3.609375 51.90625 
L 21.1875 51.90625 
L 21.1875 42.671875 
Q 23.6875 47.859375 27.53125 50.59375 
Q 31.390625 53.328125 36.28125 53.328125 
Q 42.328125 53.328125 46.375 50.3125 
Q 50.4375 47.3125 51.8125 41.796875 
z
" id="DejaVuSerif-109"/>
     </defs>
     <use xlink:href="#DejaVuSerif-80"/>
     <use x="62.785156" xlink:href="#DejaVuSerif-101"/>
     <use x="121.964844" xlink:href="#DejaVuSerif-114"/>
     <use x="169.767578" xlink:href="#DejaVuSerif-105"/>
     <use x="201.75" xlink:href="#DejaVuSerif-111"/>
     <use x="261.955078" xlink:href="#DejaVuSerif-100"/>
     <use x="325.96875" xlink:href="#DejaVuSerif-111"/>
     <use x="386.173828" xlink:href="#DejaVuSerif-103"/>
     <use x="450.1875" xlink:href="#DejaVuSerif-114"/>
     <use x="497.990234" xlink:href="#DejaVuSerif-97"/>
     <use x="557.609375" xlink:href="#DejaVuSerif-109"/>
    </g>
   </g>
   <g id="legend_1">
    <g id="patch_7">
     <path d="M 419.648125 108.123071 
L 454.431875 108.123071 
Q 455.231875 108.123071 455.231875 107.323071 
L 455.231875 84.238071 
Q 455.231875 83.438071 454.431875 83.438071 
L 419.648125 83.438071 
Q 418.848125 83.438071 418.848125 84.238071 
L 418.848125 107.323071 
Q 418.848125 108.123071 419.648125 108.123071 
z
" style="fill:#ffffff;opacity:0.8;stroke:#cccccc;stroke-linejoin:miter;"/>
    </g>
    <g id="line2d_23">
     <path d="M 420.448125 86.677446 
L 428.448125 86.677446 
" style="fill:none;stroke:#808080;stroke-dasharray:5.55,2.4;stroke-dashoffset:0;stroke-width:1.5;"/>
    </g>
    <g id="text_9">
     <!-- 99.9% FAP -->
     <g transform="translate(431.648125 88.077446)scale(0.04 -0.04)">
      <defs>
       <path d="M 46.78125 32.671875 
Q 43.5 29 39.25 27.1875 
Q 35.015625 25.390625 29.6875 25.390625 
Q 18.84375 25.390625 12.5625 31.9375 
Q 6.296875 38.484375 6.296875 49.8125 
Q 6.296875 60.890625 13.109375 67.546875 
Q 19.921875 74.21875 31.296875 74.21875 
Q 43.65625 74.21875 50.265625 65.015625 
Q 56.890625 55.8125 56.890625 38.71875 
Q 56.890625 19.578125 49.015625 9.078125 
Q 41.15625 -1.421875 26.90625 -1.421875 
Q 23.046875 -1.421875 18.796875 -0.6875 
Q 14.546875 0.046875 10.109375 1.515625 
L 10.109375 13.625 
L 15.578125 13.625 
Q 16.21875 8.6875 19.390625 6.046875 
Q 22.5625 3.421875 27.875 3.421875 
Q 37.359375 3.421875 41.984375 10.5625 
Q 46.625 17.71875 46.78125 32.671875 
z
M 30.90625 69.390625 
Q 23.96875 69.390625 20.28125 64.328125 
Q 16.609375 59.28125 16.609375 49.8125 
Q 16.609375 40.328125 20.28125 35.25 
Q 23.96875 30.171875 30.90625 30.171875 
Q 37.84375 30.171875 41.53125 35.078125 
Q 45.21875 39.984375 45.21875 49.21875 
Q 45.21875 58.9375 41.5 64.15625 
Q 37.796875 69.390625 30.90625 69.390625 
z
" id="DejaVuSerif-57"/>
       <path d="M 22.40625 69.671875 
Q 18.109375 69.671875 15.6875 65.625 
Q 13.28125 61.578125 13.28125 54.296875 
Q 13.28125 47.125 15.75 43.015625 
Q 18.21875 38.921875 22.40625 38.921875 
Q 26.5625 38.921875 28.96875 43 
Q 31.390625 47.078125 31.390625 54.296875 
Q 31.390625 61.53125 28.96875 65.59375 
Q 26.5625 69.671875 22.40625 69.671875 
z
M 72.703125 33.890625 
Q 68.453125 33.890625 66.03125 29.78125 
Q 63.625 25.6875 63.625 18.40625 
Q 63.625 11.234375 66.0625 7.15625 
Q 68.5 3.078125 72.703125 3.078125 
Q 76.90625 3.078125 79.296875 7.15625 
Q 81.6875 11.234375 81.6875 18.40625 
Q 81.6875 25.640625 79.265625 29.765625 
Q 76.859375 33.890625 72.703125 33.890625 
z
M 72.703125 38.28125 
Q 80.421875 38.28125 84.953125 32.90625 
Q 89.5 27.546875 89.5 18.40625 
Q 89.5 9.28125 84.9375 3.921875 
Q 80.375 -1.421875 72.703125 -1.421875 
Q 64.890625 -1.421875 60.34375 3.921875 
Q 55.8125 9.28125 55.8125 18.40625 
Q 55.8125 27.59375 60.375 32.9375 
Q 64.9375 38.28125 72.703125 38.28125 
z
M 66.609375 74.21875 
L 74.03125 74.21875 
L 28.421875 -1.421875 
L 21 -1.421875 
z
M 22.3125 74.21875 
Q 30.03125 74.21875 34.609375 68.875 
Q 39.203125 63.53125 39.203125 54.390625 
Q 39.203125 45.171875 34.640625 39.84375 
Q 30.078125 34.515625 22.3125 34.515625 
Q 14.546875 34.515625 10.03125 39.859375 
Q 5.515625 45.21875 5.515625 54.390625 
Q 5.515625 63.484375 10.046875 68.84375 
Q 14.59375 74.21875 22.3125 74.21875 
z
" id="DejaVuSerif-37"/>
       <path d="M 5.515625 0 
L 5.515625 5.171875 
L 14.796875 5.171875 
L 14.796875 67.671875 
L 5.515625 67.671875 
L 5.515625 72.90625 
L 65.1875 72.90625 
L 65.1875 56.6875 
L 59.1875 56.6875 
L 59.1875 66.890625 
L 24.703125 66.890625 
L 24.703125 42.484375 
L 49.609375 42.484375 
L 49.609375 51.609375 
L 55.609375 51.609375 
L 55.609375 27.390625 
L 49.609375 27.390625 
L 49.609375 36.53125 
L 24.703125 36.53125 
L 24.703125 5.171875 
L 36.375 5.171875 
L 36.375 0 
z
" id="DejaVuSerif-70"/>
       <path d="M 20.015625 26.421875 
L 46.78125 26.421875 
L 33.40625 61.078125 
z
M -0.59375 0 
L -0.59375 5.171875 
L 5.8125 5.171875 
L 31.78125 72.90625 
L 39.984375 72.90625 
L 66.015625 5.171875 
L 73.1875 5.171875 
L 73.1875 0 
L 46.6875 0 
L 46.6875 5.171875 
L 54.78125 5.171875 
L 48.6875 21.1875 
L 18.015625 21.1875 
L 11.921875 5.171875 
L 19.921875 5.171875 
L 19.921875 0 
z
" id="DejaVuSerif-65"/>
      </defs>
      <use xlink:href="#DejaVuSerif-57"/>
      <use x="63.623047" xlink:href="#DejaVuSerif-57"/>
      <use x="127.246094" xlink:href="#DejaVuSerif-46"/>
      <use x="159.033203" xlink:href="#DejaVuSerif-57"/>
      <use x="222.65625" xlink:href="#DejaVuSerif-37"/>
      <use x="317.675781" xlink:href="#DejaVuSerif-32"/>
      <use x="349.462891" xlink:href="#DejaVuSerif-70"/>
      <use x="410.097656" xlink:href="#DejaVuSerif-65"/>
      <use x="482.314453" xlink:href="#DejaVuSerif-80"/>
     </g>
    </g>
    <g id="line2d_24">
     <path d="M 420.448125 92.548696 
L 428.448125 92.548696 
" style="fill:none;stroke:#a9a9a9;stroke-dasharray:5.55,2.4;stroke-dashoffset:0;stroke-width:1.5;"/>
    </g>
    <g id="text_10">
     <!-- 99.0% FAP -->
     <g transform="translate(431.648125 93.948696)scale(0.04 -0.04)">
      <use xlink:href="#DejaVuSerif-57"/>
      <use x="63.623047" xlink:href="#DejaVuSerif-57"/>
      <use x="127.246094" xlink:href="#DejaVuSerif-46"/>
      <use x="159.033203" xlink:href="#DejaVuSerif-48"/>
      <use x="222.65625" xlink:href="#DejaVuSerif-37"/>
      <use x="317.675781" xlink:href="#DejaVuSerif-32"/>
      <use x="349.462891" xlink:href="#DejaVuSerif-70"/>
      <use x="410.097656" xlink:href="#DejaVuSerif-65"/>
      <use x="482.314453" xlink:href="#DejaVuSerif-80"/>
     </g>
    </g>
    <g id="line2d_25">
     <path d="M 420.448125 98.419946 
L 428.448125 98.419946 
" style="fill:none;stroke:#c0c0c0;stroke-dasharray:5.55,2.4;stroke-dashoffset:0;stroke-width:1.5;"/>
    </g>
    <g id="text_11">
     <!-- 95.0% FAP -->
     <g transform="translate(431.648125 99.819946)scale(0.04 -0.04)">
      <defs>
       <path d="M 50.296875 72.90625 
L 50.296875 64.890625 
L 16.890625 64.890625 
L 16.890625 44 
Q 19.4375 45.75 22.828125 46.625 
Q 26.21875 47.515625 30.421875 47.515625 
Q 42.234375 47.515625 49.0625 40.96875 
Q 55.90625 34.421875 55.90625 23.09375 
Q 55.90625 11.53125 49 5.046875 
Q 42.09375 -1.421875 29.59375 -1.421875 
Q 24.5625 -1.421875 19.28125 -0.1875 
Q 14.015625 1.03125 8.5 3.515625 
L 8.5 17.671875 
L 14.015625 17.671875 
Q 14.453125 10.75 18.421875 7.078125 
Q 22.40625 3.421875 29.59375 3.421875 
Q 37.3125 3.421875 41.453125 8.5 
Q 45.609375 13.578125 45.609375 23.09375 
Q 45.609375 32.5625 41.484375 37.609375 
Q 37.359375 42.671875 29.59375 42.671875 
Q 25.203125 42.671875 21.84375 41.109375 
Q 18.5 39.546875 15.921875 36.28125 
L 11.71875 36.28125 
L 11.71875 72.90625 
z
" id="DejaVuSerif-53"/>
      </defs>
      <use xlink:href="#DejaVuSerif-57"/>
      <use x="63.623047" xlink:href="#DejaVuSerif-53"/>
      <use x="127.246094" xlink:href="#DejaVuSerif-46"/>
      <use x="159.033203" xlink:href="#DejaVuSerif-48"/>
      <use x="222.65625" xlink:href="#DejaVuSerif-37"/>
      <use x="317.675781" xlink:href="#DejaVuSerif-32"/>
      <use x="349.462891" xlink:href="#DejaVuSerif-70"/>
      <use x="410.097656" xlink:href="#DejaVuSerif-65"/>
      <use x="482.314453" xlink:href="#DejaVuSerif-80"/>
     </g>
    </g>
    <g id="line2d_26">
     <path d="M 420.448125 104.291196 
L 428.448125 104.291196 
" style="fill:none;stroke:#d3d3d3;stroke-dasharray:5.55,2.4;stroke-dashoffset:0;stroke-width:1.5;"/>
    </g>
    <g id="text_12">
     <!-- 90.0% FAP -->
     <g transform="translate(431.648125 105.691196)scale(0.04 -0.04)">
      <use xlink:href="#DejaVuSerif-57"/>
      <use x="63.623047" xlink:href="#DejaVuSerif-48"/>
      <use x="127.246094" xlink:href="#DejaVuSerif-46"/>
      <use x="159.033203" xlink:href="#DejaVuSerif-48"/>
      <use x="222.65625" xlink:href="#DejaVuSerif-37"/>
      <use x="317.675781" xlink:href="#DejaVuSerif-32"/>
      <use x="349.462891" xlink:href="#DejaVuSerif-70"/>
      <use x="410.097656" xlink:href="#DejaVuSerif-65"/>
      <use x="482.314453" xlink:href="#DejaVuSerif-80"/>
     </g>
    </g>
   </g>
  </g>
  <g id="axes_2">
   <g id="patch_8">
    <path d="M 57.6 150.089143 
L 206.4 150.089143 
L 206.4 41.472 
L 57.6 41.472 
z
" style="fill:#ffffff;"/>
   </g>
   <g id="PathCollection_1">
    <defs>
     <path d="M 0 0.707107 
C 0.187527 0.707107 0.367398 0.632602 0.5 0.5 
C 0.632602 0.367398 0.707107 0.187527 0.707107 0 
C 0.707107 -0.187527 0.632602 -0.367398 0.5 -0.5 
C 0.367398 -0.632602 0.187527 -0.707107 0 -0.707107 
C -0.187527 -0.707107 -0.367398 -0.632602 -0.5 -0.5 
C -0.632602 -0.367398 -0.707107 -0.187527 -0.707107 0 
C -0.707107 0.187527 -0.632602 0.367398 -0.5 0.5 
C -0.367398 0.632602 -0.187527 0.707107 0 0.707107 
z
" id="mb8c1060217" style="stroke:#1f77b4;"/>
    </defs>
    <g clip-path="url(#p5af7322b36)">
     <use style="fill:#1f77b4;stroke:#1f77b4;" x="112.764097" xlink:href="#mb8c1060217" y="68.239704"/>
     <use style="fill:#1f77b4;stroke:#1f77b4;" x="112.766238" xlink:href="#mb8c1060217" y="66.275005"/>
     <use style="fill:#1f77b4;stroke:#1f77b4;" x="90.401264" xlink:href="#mb8c1060217" y="84.455358"/>
     <use style="fill:#1f77b4;stroke:#1f77b4;" x="90.403405" xlink:href="#mb8c1060217" y="82.350768"/>
     <use style="fill:#1f77b4;stroke:#1f77b4;" x="100.053873" xlink:href="#mb8c1060217" y="83.399801"/>
     <use style="fill:#1f77b4;stroke:#1f77b4;" x="113.778067" xlink:href="#mb8c1060217" y="70.725524"/>
     <use style="fill:#1f77b4;stroke:#1f77b4;" x="113.792944" xlink:href="#mb8c1060217" y="74.096685"/>
     <use style="fill:#1f77b4;stroke:#1f77b4;" x="96.236025" xlink:href="#mb8c1060217" y="88.955058"/>
     <use style="fill:#1f77b4;stroke:#1f77b4;" x="100.857247" xlink:href="#mb8c1060217" y="122.433258"/>
     <use style="fill:#1f77b4;stroke:#1f77b4;" x="110.199876" xlink:href="#mb8c1060217" y="54.574648"/>
     <use style="fill:#1f77b4;stroke:#1f77b4;" x="110.202016" xlink:href="#mb8c1060217" y="61.173692"/>
     <use style="fill:#1f77b4;stroke:#1f77b4;" x="119.301242" xlink:href="#mb8c1060217" y="58.555359"/>
     <use style="fill:#1f77b4;stroke:#1f77b4;" x="119.303383" xlink:href="#mb8c1060217" y="54.815718"/>
     <use style="fill:#1f77b4;stroke:#1f77b4;" x="123.879863" xlink:href="#mb8c1060217" y="84.716832"/>
     <use style="fill:#1f77b4;stroke:#1f77b4;" x="123.882003" xlink:href="#mb8c1060217" y="83.609129"/>
     <use style="fill:#1f77b4;stroke:#1f77b4;" x="128.750855" xlink:href="#mb8c1060217" y="56.301961"/>
     <use style="fill:#1f77b4;stroke:#1f77b4;" x="128.752942" xlink:href="#mb8c1060217" y="53.470905"/>
     <use style="fill:#1f77b4;stroke:#1f77b4;" x="64.363636" xlink:href="#mb8c1060217" y="49.66182"/>
     <use style="fill:#1f77b4;stroke:#1f77b4;" x="64.365777" xlink:href="#mb8c1060217" y="46.409143"/>
     <use style="fill:#1f77b4;stroke:#1f77b4;" x="68.983252" xlink:href="#mb8c1060217" y="55.080031"/>
     <use style="fill:#1f77b4;stroke:#1f77b4;" x="68.985339" xlink:href="#mb8c1060217" y="55.720194"/>
     <use style="fill:#1f77b4;stroke:#1f77b4;" x="110.633111" xlink:href="#mb8c1060217" y="59.356233"/>
     <use style="fill:#1f77b4;stroke:#1f77b4;" x="73.924838" xlink:href="#mb8c1060217" y="69.837209"/>
     <use style="fill:#1f77b4;stroke:#1f77b4;" x="78.527809" xlink:href="#mb8c1060217" y="69.167422"/>
     <use style="fill:#1f77b4;stroke:#1f77b4;" x="83.152884" xlink:href="#mb8c1060217" y="145.152"/>
     <use style="fill:#1f77b4;stroke:#1f77b4;" x="87.768378" xlink:href="#mb8c1060217" y="111.185283"/>
     <use style="fill:#1f77b4;stroke:#1f77b4;" x="92.411863" xlink:href="#mb8c1060217" y="99.213948"/>
     <use style="fill:#1f77b4;stroke:#1f77b4;" x="79.157459" xlink:href="#mb8c1060217" y="84.463858"/>
     <use style="fill:#1f77b4;stroke:#1f77b4;" x="119.844252" xlink:href="#mb8c1060217" y="60.919299"/>
     <use style="fill:#1f77b4;stroke:#1f77b4;" x="125.142911" xlink:href="#mb8c1060217" y="51.983666"/>
     <use style="fill:#1f77b4;stroke:#1f77b4;" x="129.852223" xlink:href="#mb8c1060217" y="87.476602"/>
     <use style="fill:#1f77b4;stroke:#1f77b4;" x="93.313122" xlink:href="#mb8c1060217" y="71.519034"/>
     <use style="fill:#1f77b4;stroke:#1f77b4;" x="107.273654" xlink:href="#mb8c1060217" y="80.553014"/>
     <use style="fill:#1f77b4;stroke:#1f77b4;" x="84.851259" xlink:href="#mb8c1060217" y="105.640942"/>
     <use style="fill:#1f77b4;stroke:#1f77b4;" x="103.347167" xlink:href="#mb8c1060217" y="84.881519"/>
     <use style="fill:#1f77b4;stroke:#1f77b4;" x="80.740929" xlink:href="#mb8c1060217" y="135.653169"/>
     <use style="fill:#1f77b4;stroke:#1f77b4;" x="87.678627" xlink:href="#mb8c1060217" y="78.587461"/>
     <use style="fill:#1f77b4;stroke:#1f77b4;" x="130.824498" xlink:href="#mb8c1060217" y="56.587391"/>
     <use style="fill:#1f77b4;stroke:#1f77b4;" x="90.069101" xlink:href="#mb8c1060217" y="113.476657"/>
     <use style="fill:#1f77b4;stroke:#1f77b4;" x="90.071188" xlink:href="#mb8c1060217" y="110.397583"/>
     <use style="fill:#1f77b4;stroke:#1f77b4;" x="94.575043" xlink:href="#mb8c1060217" y="82.063072"/>
     <use style="fill:#1f77b4;stroke:#1f77b4;" x="94.57713" xlink:href="#mb8c1060217" y="84.765442"/>
     <use style="fill:#1f77b4;stroke:#1f77b4;" x="98.999637" xlink:href="#mb8c1060217" y="82.490793"/>
     <use style="fill:#1f77b4;stroke:#1f77b4;" x="99.001724" xlink:href="#mb8c1060217" y="83.202101"/>
    </g>
   </g>
   <g id="PathCollection_2">
    <g clip-path="url(#p5af7322b36)">
     <use style="fill:#1f77b4;stroke:#1f77b4;" x="181.575963" xlink:href="#mb8c1060217" y="68.239704"/>
     <use style="fill:#1f77b4;stroke:#1f77b4;" x="181.578104" xlink:href="#mb8c1060217" y="66.275005"/>
     <use style="fill:#1f77b4;stroke:#1f77b4;" x="159.21313" xlink:href="#mb8c1060217" y="84.455358"/>
     <use style="fill:#1f77b4;stroke:#1f77b4;" x="159.215271" xlink:href="#mb8c1060217" y="82.350768"/>
     <use style="fill:#1f77b4;stroke:#1f77b4;" x="168.865738" xlink:href="#mb8c1060217" y="83.399801"/>
     <use style="fill:#1f77b4;stroke:#1f77b4;" x="182.589932" xlink:href="#mb8c1060217" y="70.725524"/>
     <use style="fill:#1f77b4;stroke:#1f77b4;" x="182.60481" xlink:href="#mb8c1060217" y="74.096685"/>
     <use style="fill:#1f77b4;stroke:#1f77b4;" x="165.047891" xlink:href="#mb8c1060217" y="88.955058"/>
     <use style="fill:#1f77b4;stroke:#1f77b4;" x="169.669112" xlink:href="#mb8c1060217" y="122.433258"/>
     <use style="fill:#1f77b4;stroke:#1f77b4;" x="179.011741" xlink:href="#mb8c1060217" y="54.574648"/>
     <use style="fill:#1f77b4;stroke:#1f77b4;" x="179.013882" xlink:href="#mb8c1060217" y="61.173692"/>
     <use style="fill:#1f77b4;stroke:#1f77b4;" x="188.113108" xlink:href="#mb8c1060217" y="58.555359"/>
     <use style="fill:#1f77b4;stroke:#1f77b4;" x="188.115249" xlink:href="#mb8c1060217" y="54.815718"/>
     <use style="fill:#1f77b4;stroke:#1f77b4;" x="192.691729" xlink:href="#mb8c1060217" y="84.716832"/>
     <use style="fill:#1f77b4;stroke:#1f77b4;" x="192.693869" xlink:href="#mb8c1060217" y="83.609129"/>
     <use style="fill:#1f77b4;stroke:#1f77b4;" x="197.562721" xlink:href="#mb8c1060217" y="56.301961"/>
     <use style="fill:#1f77b4;stroke:#1f77b4;" x="197.564808" xlink:href="#mb8c1060217" y="53.470905"/>
     <use style="fill:#1f77b4;stroke:#1f77b4;" x="133.175502" xlink:href="#mb8c1060217" y="49.66182"/>
     <use style="fill:#1f77b4;stroke:#1f77b4;" x="133.177643" xlink:href="#mb8c1060217" y="46.409143"/>
     <use style="fill:#1f77b4;stroke:#1f77b4;" x="137.795118" xlink:href="#mb8c1060217" y="55.080031"/>
     <use style="fill:#1f77b4;stroke:#1f77b4;" x="137.797205" xlink:href="#mb8c1060217" y="55.720194"/>
     <use style="fill:#1f77b4;stroke:#1f77b4;" x="179.444977" xlink:href="#mb8c1060217" y="59.356233"/>
     <use style="fill:#1f77b4;stroke:#1f77b4;" x="142.736704" xlink:href="#mb8c1060217" y="69.837209"/>
     <use style="fill:#1f77b4;stroke:#1f77b4;" x="147.339675" xlink:href="#mb8c1060217" y="69.167422"/>
     <use style="fill:#1f77b4;stroke:#1f77b4;" x="151.96475" xlink:href="#mb8c1060217" y="145.152"/>
     <use style="fill:#1f77b4;stroke:#1f77b4;" x="156.580244" xlink:href="#mb8c1060217" y="111.185283"/>
     <use style="fill:#1f77b4;stroke:#1f77b4;" x="161.223729" xlink:href="#mb8c1060217" y="99.213948"/>
     <use style="fill:#1f77b4;stroke:#1f77b4;" x="147.969325" xlink:href="#mb8c1060217" y="84.463858"/>
     <use style="fill:#1f77b4;stroke:#1f77b4;" x="188.656117" xlink:href="#mb8c1060217" y="60.919299"/>
     <use style="fill:#1f77b4;stroke:#1f77b4;" x="193.954777" xlink:href="#mb8c1060217" y="51.983666"/>
     <use style="fill:#1f77b4;stroke:#1f77b4;" x="198.664089" xlink:href="#mb8c1060217" y="87.476602"/>
     <use style="fill:#1f77b4;stroke:#1f77b4;" x="162.124988" xlink:href="#mb8c1060217" y="71.519034"/>
     <use style="fill:#1f77b4;stroke:#1f77b4;" x="176.08552" xlink:href="#mb8c1060217" y="80.553014"/>
     <use style="fill:#1f77b4;stroke:#1f77b4;" x="153.663124" xlink:href="#mb8c1060217" y="105.640942"/>
     <use style="fill:#1f77b4;stroke:#1f77b4;" x="172.159033" xlink:href="#mb8c1060217" y="84.881519"/>
     <use style="fill:#1f77b4;stroke:#1f77b4;" x="149.552795" xlink:href="#mb8c1060217" y="135.653169"/>
     <use style="fill:#1f77b4;stroke:#1f77b4;" x="156.490493" xlink:href="#mb8c1060217" y="78.587461"/>
     <use style="fill:#1f77b4;stroke:#1f77b4;" x="199.636364" xlink:href="#mb8c1060217" y="56.587391"/>
     <use style="fill:#1f77b4;stroke:#1f77b4;" x="158.880966" xlink:href="#mb8c1060217" y="113.476657"/>
     <use style="fill:#1f77b4;stroke:#1f77b4;" x="158.883054" xlink:href="#mb8c1060217" y="110.397583"/>
     <use style="fill:#1f77b4;stroke:#1f77b4;" x="163.386908" xlink:href="#mb8c1060217" y="82.063072"/>
     <use style="fill:#1f77b4;stroke:#1f77b4;" x="163.388996" xlink:href="#mb8c1060217" y="84.765442"/>
     <use style="fill:#1f77b4;stroke:#1f77b4;" x="167.811502" xlink:href="#mb8c1060217" y="82.490793"/>
     <use style="fill:#1f77b4;stroke:#1f77b4;" x="167.81359" xlink:href="#mb8c1060217" y="83.202101"/>
    </g>
   </g>
   <g id="matplotlib.axis_3">
    <g id="xtick_19">
     <g id="line2d_27">
      <g>
       <use style="stroke:#000000;stroke-width:0.8;" x="63.92314" xlink:href="#md188969bba" y="150.089143"/>
      </g>
     </g>
     <g id="text_13">
      <!-- 0 -->
      <g transform="translate(60.74189 164.68758)scale(0.1 -0.1)">
       <use xlink:href="#DejaVuSerif-48"/>
      </g>
     </g>
    </g>
    <g id="xtick_20">
     <g id="line2d_28">
      <g>
       <use style="stroke:#000000;stroke-width:0.8;" x="132.735006" xlink:href="#md188969bba" y="150.089143"/>
      </g>
     </g>
     <g id="text_14">
      <!-- 1 -->
      <g transform="translate(129.553756 164.68758)scale(0.1 -0.1)">
       <use xlink:href="#DejaVuSerif-49"/>
      </g>
     </g>
    </g>
    <g id="xtick_21">
     <g id="line2d_29">
      <g>
       <use style="stroke:#000000;stroke-width:0.8;" x="201.546872" xlink:href="#md188969bba" y="150.089143"/>
      </g>
     </g>
     <g id="text_15">
      <!-- 2 -->
      <g transform="translate(198.365622 164.68758)scale(0.1 -0.1)">
       <use xlink:href="#DejaVuSerif-50"/>
      </g>
     </g>
    </g>
    <g id="text_16">
     <!-- Phase (P = 14.881 d) -->
     <g transform="translate(78.401562 178.365705)scale(0.1 -0.1)">
      <defs>
       <path d="M 4.109375 0 
L 4.109375 5.171875 
L 12.203125 5.171875 
L 12.203125 70.796875 
L 3.609375 70.796875 
L 3.609375 75.984375 
L 21.1875 75.984375 
L 21.1875 42.671875 
Q 23.6875 47.953125 27.65625 50.640625 
Q 31.640625 53.328125 36.921875 53.328125 
Q 45.515625 53.328125 49.5625 48.390625 
Q 53.609375 43.453125 53.609375 33.015625 
L 53.609375 5.171875 
L 61.625 5.171875 
L 61.625 0 
L 36.8125 0 
L 36.8125 5.171875 
L 44.578125 5.171875 
L 44.578125 30.171875 
Q 44.578125 39.703125 42.25 43.1875 
Q 39.9375 46.6875 33.984375 46.6875 
Q 27.734375 46.6875 24.453125 42.140625 
Q 21.1875 37.59375 21.1875 28.90625 
L 21.1875 5.171875 
L 29 5.171875 
L 29 0 
z
" id="DejaVuSerif-104"/>
       <path d="M 5.609375 2.875 
L 5.609375 14.984375 
L 10.796875 14.984375 
Q 10.984375 9.1875 14.421875 6.296875 
Q 17.875 3.421875 24.609375 3.421875 
Q 30.671875 3.421875 33.84375 5.6875 
Q 37.015625 7.953125 37.015625 12.3125 
Q 37.015625 15.71875 34.6875 17.8125 
Q 32.375 19.921875 24.90625 22.3125 
L 18.40625 24.515625 
Q 11.71875 26.65625 8.71875 29.875 
Q 5.71875 33.109375 5.71875 38.09375 
Q 5.71875 45.21875 10.9375 49.265625 
Q 16.15625 53.328125 25.390625 53.328125 
Q 29.5 53.328125 34.03125 52.25 
Q 38.578125 51.171875 43.40625 49.125 
L 43.40625 37.796875 
L 38.234375 37.796875 
Q 38.03125 42.828125 34.703125 45.65625 
Q 31.390625 48.484375 25.6875 48.484375 
Q 20.015625 48.484375 17.109375 46.484375 
Q 14.203125 44.484375 14.203125 40.484375 
Q 14.203125 37.203125 16.40625 35.21875 
Q 18.609375 33.25 25.203125 31.203125 
L 32.328125 29 
Q 39.703125 26.703125 42.9375 23.265625 
Q 46.1875 19.828125 46.1875 14.40625 
Q 46.1875 7.03125 40.546875 2.796875 
Q 34.90625 -1.421875 25 -1.421875 
Q 19.96875 -1.421875 15.1875 -0.34375 
Q 10.40625 0.734375 5.609375 2.875 
z
" id="DejaVuSerif-115"/>
       <path d="M 31.890625 -15.578125 
Q 20.015625 -10.25 13.953125 1.296875 
Q 7.90625 12.84375 7.90625 30.171875 
Q 7.90625 47.5625 13.953125 59.109375 
Q 20.015625 70.65625 31.890625 75.984375 
L 31.890625 71.1875 
Q 24.359375 66.015625 21.09375 56.609375 
Q 17.828125 47.21875 17.828125 30.171875 
Q 17.828125 13.1875 21.09375 3.78125 
Q 24.359375 -5.609375 31.890625 -10.796875 
z
" id="DejaVuSerif-40"/>
       <path d="M 10.59375 45.21875 
L 73.1875 45.21875 
L 73.1875 37.40625 
L 10.59375 37.40625 
z
M 10.59375 25.296875 
L 73.1875 25.296875 
L 73.1875 17.484375 
L 10.59375 17.484375 
z
" id="DejaVuSerif-61"/>
       <path d="M 46.578125 19.921875 
Q 46.578125 27.734375 42.6875 32.046875 
Q 38.8125 36.375 31.78125 36.375 
Q 24.75 36.375 20.875 32.046875 
Q 17 27.734375 17 19.921875 
Q 17 12.0625 20.875 7.734375 
Q 24.75 3.421875 31.78125 3.421875 
Q 38.8125 3.421875 42.6875 7.734375 
Q 46.578125 12.0625 46.578125 19.921875 
z
M 44.578125 55.328125 
Q 44.578125 61.96875 41.203125 65.671875 
Q 37.84375 69.390625 31.78125 69.390625 
Q 25.78125 69.390625 22.390625 65.671875 
Q 19 61.96875 19 55.328125 
Q 19 48.640625 22.390625 44.921875 
Q 25.78125 41.21875 31.78125 41.21875 
Q 37.84375 41.21875 41.203125 44.921875 
Q 44.578125 48.640625 44.578125 55.328125 
z
M 39.3125 38.8125 
Q 47.609375 37.703125 52.25 32.6875 
Q 56.890625 27.6875 56.890625 19.921875 
Q 56.890625 9.671875 50.390625 4.125 
Q 43.890625 -1.421875 31.78125 -1.421875 
Q 19.734375 -1.421875 13.203125 4.125 
Q 6.6875 9.671875 6.6875 19.921875 
Q 6.6875 27.6875 11.328125 32.6875 
Q 15.96875 37.703125 24.3125 38.8125 
Q 16.9375 40.140625 13 44.40625 
Q 9.078125 48.6875 9.078125 55.328125 
Q 9.078125 64.109375 15.125 69.15625 
Q 21.1875 74.21875 31.78125 74.21875 
Q 42.390625 74.21875 48.4375 69.15625 
Q 54.5 64.109375 54.5 55.328125 
Q 54.5 48.6875 50.5625 44.40625 
Q 46.625 40.140625 39.3125 38.8125 
z
" id="DejaVuSerif-56"/>
       <path d="M 7.078125 -15.578125 
L 7.078125 -10.796875 
Q 14.59375 -5.609375 17.890625 3.78125 
Q 21.1875 13.1875 21.1875 30.171875 
Q 21.1875 47.21875 17.890625 56.609375 
Q 14.59375 66.015625 7.078125 71.1875 
L 7.078125 75.984375 
Q 19 70.65625 25.046875 59.109375 
Q 31.109375 47.5625 31.109375 30.171875 
Q 31.109375 12.84375 25.046875 1.296875 
Q 19 -10.25 7.078125 -15.578125 
z
" id="DejaVuSerif-41"/>
      </defs>
      <use xlink:href="#DejaVuSerif-80"/>
      <use x="67.285156" xlink:href="#DejaVuSerif-104"/>
      <use x="131.689453" xlink:href="#DejaVuSerif-97"/>
      <use x="191.308594" xlink:href="#DejaVuSerif-115"/>
      <use x="242.626953" xlink:href="#DejaVuSerif-101"/>
      <use x="301.806641" xlink:href="#DejaVuSerif-32"/>
      <use x="333.59375" xlink:href="#DejaVuSerif-40"/>
      <use x="372.607422" xlink:href="#DejaVuSerif-80"/>
      <use x="439.892578" xlink:href="#DejaVuSerif-32"/>
      <use x="471.679688" xlink:href="#DejaVuSerif-61"/>
      <use x="555.46875" xlink:href="#DejaVuSerif-32"/>
      <use x="587.255859" xlink:href="#DejaVuSerif-49"/>
      <use x="650.878906" xlink:href="#DejaVuSerif-52"/>
      <use x="714.501953" xlink:href="#DejaVuSerif-46"/>
      <use x="746.289062" xlink:href="#DejaVuSerif-56"/>
      <use x="809.912109" xlink:href="#DejaVuSerif-56"/>
      <use x="873.535156" xlink:href="#DejaVuSerif-49"/>
      <use x="937.158203" xlink:href="#DejaVuSerif-32"/>
      <use x="968.945312" xlink:href="#DejaVuSerif-100"/>
      <use x="1032.958984" xlink:href="#DejaVuSerif-41"/>
     </g>
    </g>
   </g>
   <g id="matplotlib.axis_4">
    <g id="ytick_4">
     <g id="line2d_30">
      <g>
       <use style="stroke:#000000;stroke-width:0.8;" x="57.6" xlink:href="#m1414c93768" y="78.37927"/>
      </g>
     </g>
     <g id="text_17">
      <!-- 18.5 -->
      <g transform="translate(28.334375 82.178489)scale(0.1 -0.1)">
       <use xlink:href="#DejaVuSerif-49"/>
       <use x="63.623047" xlink:href="#DejaVuSerif-56"/>
       <use x="127.246094" xlink:href="#DejaVuSerif-46"/>
       <use x="159.033203" xlink:href="#DejaVuSerif-53"/>
      </g>
     </g>
    </g>
    <g id="ytick_5">
     <g id="line2d_31">
      <g>
       <use style="stroke:#000000;stroke-width:0.8;" x="57.6" xlink:href="#m1414c93768" y="115.53107"/>
      </g>
     </g>
     <g id="text_18">
      <!-- 19.0 -->
      <g transform="translate(28.334375 119.330289)scale(0.1 -0.1)">
       <use xlink:href="#DejaVuSerif-49"/>
       <use x="63.623047" xlink:href="#DejaVuSerif-57"/>
       <use x="127.246094" xlink:href="#DejaVuSerif-46"/>
       <use x="159.033203" xlink:href="#DejaVuSerif-48"/>
      </g>
     </g>
    </g>
    <g id="text_19">
     <!-- Mag -->
     <g transform="translate(22.1125 107.082134)rotate(-90)scale(0.1 -0.1)">
      <defs>
       <path d="M 5.515625 0 
L 5.515625 5.171875 
L 14.796875 5.171875 
L 14.796875 67.671875 
L 4.984375 67.671875 
L 4.984375 72.90625 
L 26.21875 72.90625 
L 51.8125 21 
L 77.390625 72.90625 
L 97.3125 72.90625 
L 97.3125 67.671875 
L 87.59375 67.671875 
L 87.59375 5.171875 
L 96.921875 5.171875 
L 96.921875 0 
L 68.40625 0 
L 68.40625 5.171875 
L 77.6875 5.171875 
L 77.6875 61.53125 
L 52.6875 10.6875 
L 45.796875 10.6875 
L 20.796875 61.53125 
L 20.796875 5.171875 
L 30.078125 5.171875 
L 30.078125 0 
z
" id="DejaVuSerif-77"/>
      </defs>
      <use xlink:href="#DejaVuSerif-77"/>
      <use x="102.392578" xlink:href="#DejaVuSerif-97"/>
      <use x="162.011719" xlink:href="#DejaVuSerif-103"/>
     </g>
    </g>
   </g>
   <g id="patch_9">
    <path d="M 57.6 150.089143 
L 57.6 41.472 
" style="fill:none;stroke:#000000;stroke-linecap:square;stroke-linejoin:miter;stroke-width:0.8;"/>
   </g>
   <g id="patch_10">
    <path d="M 206.4 150.089143 
L 206.4 41.472 
" style="fill:none;stroke:#000000;stroke-linecap:square;stroke-linejoin:miter;stroke-width:0.8;"/>
   </g>
   <g id="patch_11">
    <path d="M 57.6 150.089143 
L 206.4 150.089143 
" style="fill:none;stroke:#000000;stroke-linecap:square;stroke-linejoin:miter;stroke-width:0.8;"/>
   </g>
   <g id="patch_12">
    <path d="M 57.6 41.472 
L 206.4 41.472 
" style="fill:none;stroke:#000000;stroke-linecap:square;stroke-linejoin:miter;stroke-width:0.8;"/>
   </g>
   <g id="text_20">
    <!-- Folded Light Curve -->
    <g transform="translate(83.086719 35.472)scale(0.1 -0.1)">
     <defs>
      <path d="M 20.515625 5.171875 
L 29 5.171875 
L 29 0 
L 2.875 0 
L 2.875 5.171875 
L 11.53125 5.171875 
L 11.53125 70.796875 
L 2.875 70.796875 
L 2.875 75.984375 
L 20.515625 75.984375 
z
" id="DejaVuSerif-108"/>
      <path d="M 5.515625 0 
L 5.515625 5.171875 
L 14.796875 5.171875 
L 14.796875 67.671875 
L 5.515625 67.671875 
L 5.515625 72.90625 
L 33.984375 72.90625 
L 33.984375 67.671875 
L 24.703125 67.671875 
L 24.703125 6 
L 58.015625 6 
L 58.015625 18.21875 
L 64.015625 18.21875 
L 64.015625 0 
z
" id="DejaVuSerif-76"/>
      <path d="M 10.796875 46.6875 
L 2.875 46.6875 
L 2.875 51.90625 
L 10.796875 51.90625 
L 10.796875 68.015625 
L 19.828125 68.015625 
L 19.828125 51.90625 
L 36.71875 51.90625 
L 36.71875 46.6875 
L 19.828125 46.6875 
L 19.828125 13.71875 
Q 19.828125 7.125 21.09375 5.265625 
Q 22.359375 3.421875 25.78125 3.421875 
Q 29.296875 3.421875 30.90625 5.484375 
Q 32.515625 7.5625 32.625 12.203125 
L 39.40625 12.203125 
Q 39.015625 5.125 35.546875 1.84375 
Q 32.078125 -1.421875 25 -1.421875 
Q 17.234375 -1.421875 14.015625 2.015625 
Q 10.796875 5.46875 10.796875 13.71875 
z
" id="DejaVuSerif-116"/>
      <path d="M 70.515625 19.28125 
Q 67.28125 9.078125 59.6875 3.828125 
Q 52.09375 -1.421875 40.484375 -1.421875 
Q 33.34375 -1.421875 27.234375 1.015625 
Q 21.140625 3.46875 16.40625 8.203125 
Q 10.9375 13.671875 8.265625 20.625 
Q 5.609375 27.59375 5.609375 36.375 
Q 5.609375 53.375 15.421875 63.796875 
Q 25.25 74.21875 41.3125 74.21875 
Q 47.265625 74.21875 54 72.65625 
Q 60.75 71.09375 68.5 67.921875 
L 68.5 51.125 
L 62.984375 51.125 
Q 61.1875 60.296875 55.734375 64.640625 
Q 50.296875 69 40.484375 69 
Q 28.8125 69 22.796875 60.71875 
Q 16.796875 52.4375 16.796875 36.375 
Q 16.796875 20.359375 22.796875 12.078125 
Q 28.8125 3.8125 40.484375 3.8125 
Q 48.640625 3.8125 53.90625 7.6875 
Q 59.1875 11.578125 61.53125 19.28125 
z
" id="DejaVuSerif-67"/>
      <path d="M 35.40625 51.90625 
L 52.203125 51.90625 
L 52.203125 5.171875 
L 60.6875 5.171875 
L 60.6875 0 
L 43.21875 0 
L 43.21875 9.1875 
Q 40.71875 4 36.765625 1.28125 
Q 32.8125 -1.421875 27.59375 -1.421875 
Q 18.953125 -1.421875 14.875 3.484375 
Q 10.796875 8.40625 10.796875 18.890625 
L 10.796875 46.6875 
L 2.6875 46.6875 
L 2.6875 51.90625 
L 19.828125 51.90625 
L 19.828125 21.6875 
Q 19.828125 12.203125 22.140625 8.6875 
Q 24.46875 5.171875 30.421875 5.171875 
Q 36.671875 5.171875 39.9375 9.765625 
Q 43.21875 14.359375 43.21875 23.09375 
L 43.21875 46.6875 
L 35.40625 46.6875 
z
" id="DejaVuSerif-117"/>
      <path d="M 24.703125 0 
L 5.609375 46.6875 
L -0.296875 46.6875 
L -0.296875 51.90625 
L 23.578125 51.90625 
L 23.578125 46.6875 
L 15.28125 46.6875 
L 29.890625 10.984375 
L 44.484375 46.6875 
L 36.71875 46.6875 
L 36.71875 51.90625 
L 56.203125 51.90625 
L 56.203125 46.6875 
L 50.390625 46.6875 
L 31.296875 0 
z
" id="DejaVuSerif-118"/>
     </defs>
     <use xlink:href="#DejaVuSerif-70"/>
     <use x="63.884766" xlink:href="#DejaVuSerif-111"/>
     <use x="124.089844" xlink:href="#DejaVuSerif-108"/>
     <use x="156.072266" xlink:href="#DejaVuSerif-100"/>
     <use x="220.085938" xlink:href="#DejaVuSerif-101"/>
     <use x="279.265625" xlink:href="#DejaVuSerif-100"/>
     <use x="343.279297" xlink:href="#DejaVuSerif-32"/>
     <use x="375.066406" xlink:href="#DejaVuSerif-76"/>
     <use x="441.472656" xlink:href="#DejaVuSerif-105"/>
     <use x="473.455078" xlink:href="#DejaVuSerif-103"/>
     <use x="537.46875" xlink:href="#DejaVuSerif-104"/>
     <use x="601.873047" xlink:href="#DejaVuSerif-116"/>
     <use x="642.058594" xlink:href="#DejaVuSerif-32"/>
     <use x="673.845703" xlink:href="#DejaVuSerif-67"/>
     <use x="750.359375" xlink:href="#DejaVuSerif-117"/>
     <use x="814.763672" xlink:href="#DejaVuSerif-114"/>
     <use x="862.566406" xlink:href="#DejaVuSerif-118"/>
     <use x="919.060547" xlink:href="#DejaVuSerif-101"/>
    </g>
   </g>
  </g>
  <g id="axes_3">
   <g id="patch_13">
    <path d="M 57.6 307.584 
L 414.72 307.584 
L 414.72 198.966857 
L 57.6 198.966857 
z
" style="fill:#ffffff;"/>
   </g>
   <g id="PathCollection_3">
    <g clip-path="url(#p354af102de)">
     <use style="fill:#1f77b4;stroke:#1f77b4;" x="73.832727" xlink:href="#mb8c1060217" y="226.312862"/>
     <use style="fill:#1f77b4;stroke:#1f77b4;" x="73.833119" xlink:href="#mb8c1060217" y="224.488793"/>
     <use style="fill:#1f77b4;stroke:#1f77b4;" x="94.910293" xlink:href="#mb8c1060217" y="241.367825"/>
     <use style="fill:#1f77b4;stroke:#1f77b4;" x="94.910684" xlink:href="#mb8c1060217" y="239.413878"/>
     <use style="fill:#1f77b4;stroke:#1f77b4;" x="96.675449" xlink:href="#mb8c1060217" y="240.387823"/>
     <use style="fill:#1f77b4;stroke:#1f77b4;" x="99.185169" xlink:href="#mb8c1060217" y="228.62075"/>
     <use style="fill:#1f77b4;stroke:#1f77b4;" x="99.18789" xlink:href="#mb8c1060217" y="231.75061"/>
     <use style="fill:#1f77b4;stroke:#1f77b4;" x="121.144305" xlink:href="#mb8c1060217" y="245.545444"/>
     <use style="fill:#1f77b4;stroke:#1f77b4;" x="121.98938" xlink:href="#mb8c1060217" y="276.627328"/>
     <use style="fill:#1f77b4;stroke:#1f77b4;" x="123.69785" xlink:href="#mb8c1060217" y="213.625928"/>
     <use style="fill:#1f77b4;stroke:#1f77b4;" x="123.698242" xlink:href="#mb8c1060217" y="219.752623"/>
     <use style="fill:#1f77b4;stroke:#1f77b4;" x="125.362202" xlink:href="#mb8c1060217" y="217.321707"/>
     <use style="fill:#1f77b4;stroke:#1f77b4;" x="125.362594" xlink:href="#mb8c1060217" y="213.849743"/>
     <use style="fill:#1f77b4;stroke:#1f77b4;" x="126.199487" xlink:href="#mb8c1060217" y="241.610584"/>
     <use style="fill:#1f77b4;stroke:#1f77b4;" x="126.199878" xlink:href="#mb8c1060217" y="240.582168"/>
     <use style="fill:#1f77b4;stroke:#1f77b4;" x="127.090237" xlink:href="#mb8c1060217" y="215.229603"/>
     <use style="fill:#1f77b4;stroke:#1f77b4;" x="127.090618" xlink:href="#mb8c1060217" y="212.60119"/>
     <use style="fill:#1f77b4;stroke:#1f77b4;" x="127.899364" xlink:href="#mb8c1060217" y="209.064753"/>
     <use style="fill:#1f77b4;stroke:#1f77b4;" x="127.899756" xlink:href="#mb8c1060217" y="206.044897"/>
     <use style="fill:#1f77b4;stroke:#1f77b4;" x="128.744146" xlink:href="#mb8c1060217" y="214.095137"/>
     <use style="fill:#1f77b4;stroke:#1f77b4;" x="128.744527" xlink:href="#mb8c1060217" y="214.689478"/>
     <use style="fill:#1f77b4;stroke:#1f77b4;" x="136.360585" xlink:href="#mb8c1060217" y="218.065255"/>
     <use style="fill:#1f77b4;stroke:#1f77b4;" x="142.231315" xlink:href="#mb8c1060217" y="227.79602"/>
     <use style="fill:#1f77b4;stroke:#1f77b4;" x="143.073052" xlink:href="#mb8c1060217" y="227.174175"/>
     <use style="fill:#1f77b4;stroke:#1f77b4;" x="143.918832" xlink:href="#mb8c1060217" y="297.719899"/>
     <use style="fill:#1f77b4;stroke:#1f77b4;" x="144.76286" xlink:href="#mb8c1060217" y="266.184465"/>
     <use style="fill:#1f77b4;stroke:#1f77b4;" x="145.612006" xlink:href="#mb8c1060217" y="255.070019"/>
     <use style="fill:#1f77b4;stroke:#1f77b4;" x="155.771705" xlink:href="#mb8c1060217" y="241.375717"/>
     <use style="fill:#1f77b4;stroke:#1f77b4;" x="163.21203" xlink:href="#mb8c1060217" y="219.516439"/>
     <use style="fill:#1f77b4;stroke:#1f77b4;" x="164.180987" xlink:href="#mb8c1060217" y="211.220405"/>
     <use style="fill:#1f77b4;stroke:#1f77b4;" x="165.042171" xlink:href="#mb8c1060217" y="244.172813"/>
     <use style="fill:#1f77b4;stroke:#1f77b4;" x="170.943837" xlink:href="#mb8c1060217" y="229.357463"/>
     <use style="fill:#1f77b4;stroke:#1f77b4;" x="173.496775" xlink:href="#mb8c1060217" y="237.744805"/>
     <use style="fill:#1f77b4;stroke:#1f77b4;" x="207.146958" xlink:href="#mb8c1060217" y="261.036979"/>
     <use style="fill:#1f77b4;stroke:#1f77b4;" x="210.529274" xlink:href="#mb8c1060217" y="241.763482"/>
     <use style="fill:#1f77b4;stroke:#1f77b4;" x="218.978819" xlink:href="#mb8c1060217" y="288.900979"/>
     <use style="fill:#1f77b4;stroke:#1f77b4;" x="346.082599" xlink:href="#mb8c1060217" y="235.919943"/>
     <use style="fill:#1f77b4;stroke:#1f77b4;" x="379.139631" xlink:href="#mb8c1060217" y="215.494603"/>
     <use style="fill:#1f77b4;stroke:#1f77b4;" x="396.853779" xlink:href="#mb8c1060217" y="268.311827"/>
     <use style="fill:#1f77b4;stroke:#1f77b4;" x="396.854161" xlink:href="#mb8c1060217" y="265.453148"/>
     <use style="fill:#1f77b4;stroke:#1f77b4;" x="397.677773" xlink:href="#mb8c1060217" y="239.146775"/>
     <use style="fill:#1f77b4;stroke:#1f77b4;" x="397.678155" xlink:href="#mb8c1060217" y="241.655714"/>
     <use style="fill:#1f77b4;stroke:#1f77b4;" x="398.486891" xlink:href="#mb8c1060217" y="239.543881"/>
     <use style="fill:#1f77b4;stroke:#1f77b4;" x="398.487273" xlink:href="#mb8c1060217" y="240.204275"/>
    </g>
   </g>
   <g id="matplotlib.axis_5">
    <g id="xtick_22">
     <g id="line2d_32">
      <g>
       <use style="stroke:#000000;stroke-width:0.8;" x="97.996351" xlink:href="#md188969bba" y="307.584"/>
      </g>
     </g>
     <g id="text_21">
      <!-- 58300 -->
      <g transform="translate(82.090101 322.182437)scale(0.1 -0.1)">
       <defs>
        <path d="M 9.71875 69.828125 
Q 15.4375 71.96875 20.671875 73.09375 
Q 25.921875 74.21875 30.515625 74.21875 
Q 41.21875 74.21875 47.21875 69.59375 
Q 53.21875 64.984375 53.21875 56.78125 
Q 53.21875 50.203125 49.0625 45.78125 
Q 44.921875 41.359375 37.3125 39.796875 
Q 46.296875 38.53125 51.25 33.28125 
Q 56.203125 28.03125 56.203125 19.671875 
Q 56.203125 9.46875 49.34375 4.015625 
Q 42.484375 -1.421875 29.59375 -1.421875 
Q 23.875 -1.421875 18.421875 -0.1875 
Q 12.984375 1.03125 7.625 3.515625 
L 7.625 17.671875 
L 13.09375 17.671875 
Q 13.578125 10.640625 17.828125 7.03125 
Q 22.078125 3.421875 29.78125 3.421875 
Q 37.25 3.421875 41.578125 7.734375 
Q 45.90625 12.0625 45.90625 19.578125 
Q 45.90625 28.171875 41.453125 32.59375 
Q 37.015625 37.015625 28.421875 37.015625 
L 23.78125 37.015625 
L 23.78125 42 
L 26.21875 42 
Q 34.765625 42 39.03125 45.53125 
Q 43.3125 49.078125 43.3125 56.203125 
Q 43.3125 62.59375 39.796875 65.984375 
Q 36.28125 69.390625 29.6875 69.390625 
Q 23.09375 69.390625 19.453125 66.265625 
Q 15.828125 63.140625 15.1875 56.984375 
L 9.71875 56.984375 
z
" id="DejaVuSerif-51"/>
       </defs>
       <use xlink:href="#DejaVuSerif-53"/>
       <use x="63.623047" xlink:href="#DejaVuSerif-56"/>
       <use x="127.246094" xlink:href="#DejaVuSerif-51"/>
       <use x="190.869141" xlink:href="#DejaVuSerif-48"/>
       <use x="254.492188" xlink:href="#DejaVuSerif-48"/>
      </g>
     </g>
    </g>
    <g id="xtick_23">
     <g id="line2d_33">
      <g>
       <use style="stroke:#000000;stroke-width:0.8;" x="140.27554" xlink:href="#md188969bba" y="307.584"/>
      </g>
     </g>
     <g id="text_22">
      <!-- 58350 -->
      <g transform="translate(124.36929 322.182437)scale(0.1 -0.1)">
       <use xlink:href="#DejaVuSerif-53"/>
       <use x="63.623047" xlink:href="#DejaVuSerif-56"/>
       <use x="127.246094" xlink:href="#DejaVuSerif-51"/>
       <use x="190.869141" xlink:href="#DejaVuSerif-53"/>
       <use x="254.492188" xlink:href="#DejaVuSerif-48"/>
      </g>
     </g>
    </g>
    <g id="xtick_24">
     <g id="line2d_34">
      <g>
       <use style="stroke:#000000;stroke-width:0.8;" x="182.55473" xlink:href="#md188969bba" y="307.584"/>
      </g>
     </g>
     <g id="text_23">
      <!-- 58400 -->
      <g transform="translate(166.64848 322.182437)scale(0.1 -0.1)">
       <use xlink:href="#DejaVuSerif-53"/>
       <use x="63.623047" xlink:href="#DejaVuSerif-56"/>
       <use x="127.246094" xlink:href="#DejaVuSerif-52"/>
       <use x="190.869141" xlink:href="#DejaVuSerif-48"/>
       <use x="254.492188" xlink:href="#DejaVuSerif-48"/>
      </g>
     </g>
    </g>
    <g id="xtick_25">
     <g id="line2d_35">
      <g>
       <use style="stroke:#000000;stroke-width:0.8;" x="224.833919" xlink:href="#md188969bba" y="307.584"/>
      </g>
     </g>
     <g id="text_24">
      <!-- 58450 -->
      <g transform="translate(208.927669 322.182437)scale(0.1 -0.1)">
       <use xlink:href="#DejaVuSerif-53"/>
       <use x="63.623047" xlink:href="#DejaVuSerif-56"/>
       <use x="127.246094" xlink:href="#DejaVuSerif-52"/>
       <use x="190.869141" xlink:href="#DejaVuSerif-53"/>
       <use x="254.492188" xlink:href="#DejaVuSerif-48"/>
      </g>
     </g>
    </g>
    <g id="xtick_26">
     <g id="line2d_36">
      <g>
       <use style="stroke:#000000;stroke-width:0.8;" x="267.113108" xlink:href="#md188969bba" y="307.584"/>
      </g>
     </g>
     <g id="text_25">
      <!-- 58500 -->
      <g transform="translate(251.206858 322.182437)scale(0.1 -0.1)">
       <use xlink:href="#DejaVuSerif-53"/>
       <use x="63.623047" xlink:href="#DejaVuSerif-56"/>
       <use x="127.246094" xlink:href="#DejaVuSerif-53"/>
       <use x="190.869141" xlink:href="#DejaVuSerif-48"/>
       <use x="254.492188" xlink:href="#DejaVuSerif-48"/>
      </g>
     </g>
    </g>
    <g id="xtick_27">
     <g id="line2d_37">
      <g>
       <use style="stroke:#000000;stroke-width:0.8;" x="309.392298" xlink:href="#md188969bba" y="307.584"/>
      </g>
     </g>
     <g id="text_26">
      <!-- 58550 -->
      <g transform="translate(293.486048 322.182437)scale(0.1 -0.1)">
       <use xlink:href="#DejaVuSerif-53"/>
       <use x="63.623047" xlink:href="#DejaVuSerif-56"/>
       <use x="127.246094" xlink:href="#DejaVuSerif-53"/>
       <use x="190.869141" xlink:href="#DejaVuSerif-53"/>
       <use x="254.492188" xlink:href="#DejaVuSerif-48"/>
      </g>
     </g>
    </g>
    <g id="xtick_28">
     <g id="line2d_38">
      <g>
       <use style="stroke:#000000;stroke-width:0.8;" x="351.671487" xlink:href="#md188969bba" y="307.584"/>
      </g>
     </g>
     <g id="text_27">
      <!-- 58600 -->
      <g transform="translate(335.765237 322.182437)scale(0.1 -0.1)">
       <defs>
        <path d="M 32.71875 3.421875 
Q 39.59375 3.421875 43.296875 8.46875 
Q 47.015625 13.53125 47.015625 23 
Q 47.015625 32.46875 43.296875 37.515625 
Q 39.59375 42.578125 32.71875 42.578125 
Q 25.734375 42.578125 22.0625 37.6875 
Q 18.40625 32.8125 18.40625 23.578125 
Q 18.40625 13.875 22.109375 8.640625 
Q 25.828125 3.421875 32.71875 3.421875 
z
M 16.796875 40.140625 
Q 20.125 43.796875 24.3125 45.59375 
Q 28.515625 47.40625 33.796875 47.40625 
Q 44.671875 47.40625 51 40.859375 
Q 57.328125 34.328125 57.328125 23 
Q 57.328125 11.921875 50.515625 5.25 
Q 43.703125 -1.421875 32.328125 -1.421875 
Q 19.96875 -1.421875 13.328125 7.78125 
Q 6.6875 17 6.6875 34.078125 
Q 6.6875 53.21875 14.546875 63.71875 
Q 22.40625 74.21875 36.71875 74.21875 
Q 40.578125 74.21875 44.828125 73.484375 
Q 49.078125 72.75 53.515625 71.296875 
L 53.515625 59.28125 
L 48 59.28125 
Q 47.40625 64.203125 44.234375 66.796875 
Q 41.0625 69.390625 35.6875 69.390625 
Q 26.21875 69.390625 21.578125 62.203125 
Q 16.9375 55.03125 16.796875 40.140625 
z
" id="DejaVuSerif-54"/>
       </defs>
       <use xlink:href="#DejaVuSerif-53"/>
       <use x="63.623047" xlink:href="#DejaVuSerif-56"/>
       <use x="127.246094" xlink:href="#DejaVuSerif-54"/>
       <use x="190.869141" xlink:href="#DejaVuSerif-48"/>
       <use x="254.492188" xlink:href="#DejaVuSerif-48"/>
      </g>
     </g>
    </g>
    <g id="xtick_29">
     <g id="line2d_39">
      <g>
       <use style="stroke:#000000;stroke-width:0.8;" x="393.950677" xlink:href="#md188969bba" y="307.584"/>
      </g>
     </g>
     <g id="text_28">
      <!-- 58650 -->
      <g transform="translate(378.044427 322.182437)scale(0.1 -0.1)">
       <use xlink:href="#DejaVuSerif-53"/>
       <use x="63.623047" xlink:href="#DejaVuSerif-56"/>
       <use x="127.246094" xlink:href="#DejaVuSerif-54"/>
       <use x="190.869141" xlink:href="#DejaVuSerif-53"/>
       <use x="254.492188" xlink:href="#DejaVuSerif-48"/>
      </g>
     </g>
    </g>
    <g id="text_29">
     <!-- MJD -->
     <g transform="translate(225.027187 335.860562)scale(0.1 -0.1)">
      <defs>
       <path d="M -8.40625 -17.484375 
L -8.40625 -6 
L -2.828125 -6 
Q -2.6875 -10.84375 -0.53125 -13.203125 
Q 1.609375 -15.578125 5.90625 -15.578125 
Q 11.71875 -15.578125 14.015625 -11.90625 
Q 16.3125 -8.25 16.3125 2.390625 
L 16.3125 67.671875 
L 4.984375 67.671875 
L 4.984375 72.90625 
L 35.5 72.90625 
L 35.5 67.671875 
L 26.21875 67.671875 
L 26.21875 2 
Q 26.21875 -10.0625 21.375 -15.421875 
Q 16.546875 -20.796875 5.8125 -20.796875 
Q 2.34375 -20.796875 -1.234375 -19.96875 
Q -4.828125 -19.140625 -8.40625 -17.484375 
z
" id="DejaVuSerif-74"/>
       <path d="M 24.703125 5.171875 
L 33.796875 5.171875 
Q 48 5.171875 55.59375 13.28125 
Q 63.1875 21.390625 63.1875 36.53125 
Q 63.1875 51.65625 55.609375 59.65625 
Q 48.046875 67.671875 33.796875 67.671875 
L 24.703125 67.671875 
z
M 5.515625 0 
L 5.515625 5.171875 
L 14.796875 5.171875 
L 14.796875 67.671875 
L 5.515625 67.671875 
L 5.515625 72.90625 
L 34.515625 72.90625 
Q 53.375 72.90625 63.890625 63.28125 
Q 74.421875 53.65625 74.421875 36.53125 
Q 74.421875 19.34375 63.875 9.671875 
Q 53.328125 0 34.515625 0 
z
" id="DejaVuSerif-68"/>
      </defs>
      <use xlink:href="#DejaVuSerif-77"/>
      <use x="102.392578" xlink:href="#DejaVuSerif-74"/>
      <use x="142.480469" xlink:href="#DejaVuSerif-68"/>
     </g>
    </g>
   </g>
   <g id="matplotlib.axis_6">
    <g id="ytick_6">
     <g id="line2d_40">
      <g>
       <use style="stroke:#000000;stroke-width:0.8;" x="57.6" xlink:href="#m1414c93768" y="201.23412"/>
      </g>
     </g>
     <g id="text_30">
      <!-- 18.0 -->
      <g transform="translate(28.334375 205.033338)scale(0.1 -0.1)">
       <use xlink:href="#DejaVuSerif-49"/>
       <use x="63.623047" xlink:href="#DejaVuSerif-56"/>
       <use x="127.246094" xlink:href="#DejaVuSerif-46"/>
       <use x="159.033203" xlink:href="#DejaVuSerif-48"/>
      </g>
     </g>
    </g>
    <g id="ytick_7">
     <g id="line2d_41">
      <g>
       <use style="stroke:#000000;stroke-width:0.8;" x="57.6" xlink:href="#m1414c93768" y="235.726654"/>
      </g>
     </g>
     <g id="text_31">
      <!-- 18.5 -->
      <g transform="translate(28.334375 239.525873)scale(0.1 -0.1)">
       <use xlink:href="#DejaVuSerif-49"/>
       <use x="63.623047" xlink:href="#DejaVuSerif-56"/>
       <use x="127.246094" xlink:href="#DejaVuSerif-46"/>
       <use x="159.033203" xlink:href="#DejaVuSerif-53"/>
      </g>
     </g>
    </g>
    <g id="ytick_8">
     <g id="line2d_42">
      <g>
       <use style="stroke:#000000;stroke-width:0.8;" x="57.6" xlink:href="#m1414c93768" y="270.219188"/>
      </g>
     </g>
     <g id="text_32">
      <!-- 19.0 -->
      <g transform="translate(28.334375 274.018407)scale(0.1 -0.1)">
       <use xlink:href="#DejaVuSerif-49"/>
       <use x="63.623047" xlink:href="#DejaVuSerif-57"/>
       <use x="127.246094" xlink:href="#DejaVuSerif-46"/>
       <use x="159.033203" xlink:href="#DejaVuSerif-48"/>
      </g>
     </g>
    </g>
    <g id="ytick_9">
     <g id="line2d_43">
      <g>
       <use style="stroke:#000000;stroke-width:0.8;" x="57.6" xlink:href="#m1414c93768" y="304.711722"/>
      </g>
     </g>
     <g id="text_33">
      <!-- 19.5 -->
      <g transform="translate(28.334375 308.510941)scale(0.1 -0.1)">
       <use xlink:href="#DejaVuSerif-49"/>
       <use x="63.623047" xlink:href="#DejaVuSerif-57"/>
       <use x="127.246094" xlink:href="#DejaVuSerif-46"/>
       <use x="159.033203" xlink:href="#DejaVuSerif-53"/>
      </g>
     </g>
    </g>
    <g id="text_34">
     <!-- Mag -->
     <g transform="translate(22.1125 264.576991)rotate(-90)scale(0.1 -0.1)">
      <use xlink:href="#DejaVuSerif-77"/>
      <use x="102.392578" xlink:href="#DejaVuSerif-97"/>
      <use x="162.011719" xlink:href="#DejaVuSerif-103"/>
     </g>
    </g>
   </g>
   <g id="LineCollection_5">
    <path clip-path="url(#p354af102de)" d="M 73.832727 223.800712 
L 73.832727 228.825012 
" style="fill:none;stroke:#1f77b4;stroke-width:0.5;"/>
    <path clip-path="url(#p354af102de)" d="M 73.833119 222.014356 
L 73.833119 226.96323 
" style="fill:none;stroke:#1f77b4;stroke-width:0.5;"/>
    <path clip-path="url(#p354af102de)" d="M 94.910293 238.50735 
L 94.910293 244.2283 
" style="fill:none;stroke:#1f77b4;stroke-width:0.5;"/>
    <path clip-path="url(#p354af102de)" d="M 94.910684 236.602555 
L 94.910684 242.225201 
" style="fill:none;stroke:#1f77b4;stroke-width:0.5;"/>
    <path clip-path="url(#p354af102de)" d="M 96.675449 237.552155 
L 96.675449 243.223491 
" style="fill:none;stroke:#1f77b4;stroke-width:0.5;"/>
    <path clip-path="url(#p354af102de)" d="M 99.185169 226.059561 
L 99.185169 231.18194 
" style="fill:none;stroke:#1f77b4;stroke-width:0.5;"/>
    <path clip-path="url(#p354af102de)" d="M 99.18789 229.120482 
L 99.18789 234.380737 
" style="fill:none;stroke:#1f77b4;stroke-width:0.5;"/>
    <path clip-path="url(#p354af102de)" d="M 121.144305 242.575652 
L 121.144305 248.515235 
" style="fill:none;stroke:#1f77b4;stroke-width:0.5;"/>
    <path clip-path="url(#p354af102de)" d="M 121.98938 272.638359 
L 121.98938 280.616297 
" style="fill:none;stroke:#1f77b4;stroke-width:0.5;"/>
    <path clip-path="url(#p354af102de)" d="M 123.69785 211.357958 
L 123.69785 215.893899 
" style="fill:none;stroke:#1f77b4;stroke-width:0.5;"/>
    <path clip-path="url(#p354af102de)" d="M 123.698242 217.371924 
L 123.698242 222.133322 
" style="fill:none;stroke:#1f77b4;stroke-width:0.5;"/>
    <path clip-path="url(#p354af102de)" d="M 125.362202 214.986855 
L 125.362202 219.656558 
" style="fill:none;stroke:#1f77b4;stroke-width:0.5;"/>
    <path clip-path="url(#p354af102de)" d="M 125.362594 211.577817 
L 125.362594 216.12167 
" style="fill:none;stroke:#1f77b4;stroke-width:0.5;"/>
    <path clip-path="url(#p354af102de)" d="M 126.199487 238.743915 
L 126.199487 244.477252 
" style="fill:none;stroke:#1f77b4;stroke-width:0.5;"/>
    <path clip-path="url(#p354af102de)" d="M 126.199878 237.741606 
L 126.199878 243.42273 
" style="fill:none;stroke:#1f77b4;stroke-width:0.5;"/>
    <path clip-path="url(#p354af102de)" d="M 127.090237 212.933023 
L 127.090237 217.526184 
" style="fill:none;stroke:#1f77b4;stroke-width:0.5;"/>
    <path clip-path="url(#p354af102de)" d="M 127.090618 210.351175 
L 127.090618 214.851204 
" style="fill:none;stroke:#1f77b4;stroke-width:0.5;"/>
    <path clip-path="url(#p354af102de)" d="M 127.899364 206.874815 
L 127.899364 211.25469 
" style="fill:none;stroke:#1f77b4;stroke-width:0.5;"/>
    <path clip-path="url(#p354af102de)" d="M 127.899756 203.904 
L 127.899756 208.185794 
" style="fill:none;stroke:#1f77b4;stroke-width:0.5;"/>
    <path clip-path="url(#p354af102de)" d="M 128.744146 211.818859 
L 128.744146 216.371415 
" style="fill:none;stroke:#1f77b4;stroke-width:0.5;"/>
    <path clip-path="url(#p354af102de)" d="M 128.744527 212.402603 
L 128.744527 216.976353 
" style="fill:none;stroke:#1f77b4;stroke-width:0.5;"/>
    <path clip-path="url(#p354af102de)" d="M 136.360585 215.716539 
L 136.360585 220.413972 
" style="fill:none;stroke:#1f77b4;stroke-width:0.5;"/>
    <path clip-path="url(#p354af102de)" d="M 142.231315 225.252528 
L 142.231315 230.339513 
" style="fill:none;stroke:#1f77b4;stroke-width:0.5;"/>
    <path clip-path="url(#p354af102de)" d="M 143.073052 224.643898 
L 143.073052 229.704452 
" style="fill:none;stroke:#1f77b4;stroke-width:0.5;"/>
    <path clip-path="url(#p354af102de)" d="M 143.918832 292.792942 
L 143.918832 302.646857 
" style="fill:none;stroke:#1f77b4;stroke-width:0.5;"/>
    <path clip-path="url(#p354af102de)" d="M 144.76286 262.581784 
L 144.76286 269.787147 
" style="fill:none;stroke:#1f77b4;stroke-width:0.5;"/>
    <path clip-path="url(#p354af102de)" d="M 145.612006 251.828242 
L 145.612006 258.311795 
" style="fill:none;stroke:#1f77b4;stroke-width:0.5;"/>
    <path clip-path="url(#p354af102de)" d="M 155.771705 238.515041 
L 155.771705 244.236393 
" style="fill:none;stroke:#1f77b4;stroke-width:0.5;"/>
    <path clip-path="url(#p354af102de)" d="M 163.21203 217.14026 
L 163.21203 221.892618 
" style="fill:none;stroke:#1f77b4;stroke-width:0.5;"/>
    <path clip-path="url(#p354af102de)" d="M 164.180987 208.994194 
L 164.180987 213.446616 
" style="fill:none;stroke:#1f77b4;stroke-width:0.5;"/>
    <path clip-path="url(#p354af102de)" d="M 165.042171 241.239585 
L 165.042171 247.106041 
" style="fill:none;stroke:#1f77b4;stroke-width:0.5;"/>
    <path clip-path="url(#p354af102de)" d="M 170.943837 226.780301 
L 170.943837 231.934624 
" style="fill:none;stroke:#1f77b4;stroke-width:0.5;"/>
    <path clip-path="url(#p354af102de)" d="M 173.496775 234.974498 
L 173.496775 240.515113 
" style="fill:none;stroke:#1f77b4;stroke-width:0.5;"/>
    <path clip-path="url(#p354af102de)" d="M 207.146958 257.607574 
L 207.146958 264.466384 
" style="fill:none;stroke:#1f77b4;stroke-width:0.5;"/>
    <path clip-path="url(#p354af102de)" d="M 210.529274 238.892903 
L 210.529274 244.634061 
" style="fill:none;stroke:#1f77b4;stroke-width:0.5;"/>
    <path clip-path="url(#p354af102de)" d="M 218.978819 284.393427 
L 218.978819 293.408531 
" style="fill:none;stroke:#1f77b4;stroke-width:0.5;"/>
    <path clip-path="url(#p354af102de)" d="M 346.082599 233.193478 
L 346.082599 238.646409 
" style="fill:none;stroke:#1f77b4;stroke-width:0.5;"/>
    <path clip-path="url(#p354af102de)" d="M 379.139631 213.193233 
L 379.139631 217.795972 
" style="fill:none;stroke:#1f77b4;stroke-width:0.5;"/>
    <path clip-path="url(#p354af102de)" d="M 396.853779 264.634313 
L 396.853779 271.989341 
" style="fill:none;stroke:#1f77b4;stroke-width:0.5;"/>
    <path clip-path="url(#p354af102de)" d="M 396.854161 261.87575 
L 396.854161 269.030545 
" style="fill:none;stroke:#1f77b4;stroke-width:0.5;"/>
    <path clip-path="url(#p354af102de)" d="M 397.677773 236.342075 
L 397.677773 241.951475 
" style="fill:none;stroke:#1f77b4;stroke-width:0.5;"/>
    <path clip-path="url(#p354af102de)" d="M 397.678155 238.787891 
L 397.678155 244.523536 
" style="fill:none;stroke:#1f77b4;stroke-width:0.5;"/>
    <path clip-path="url(#p354af102de)" d="M 398.486891 236.729325 
L 398.486891 242.358436 
" style="fill:none;stroke:#1f77b4;stroke-width:0.5;"/>
    <path clip-path="url(#p354af102de)" d="M 398.487273 237.373218 
L 398.487273 243.035331 
" style="fill:none;stroke:#1f77b4;stroke-width:0.5;"/>
   </g>
   <g id="line2d_44">
    <path clip-path="url(#p354af102de)" d="M 73.832727 226.312862 
L 73.833119 224.488793 
L 94.910293 241.367825 
L 94.910684 239.413878 
L 96.675449 240.387823 
L 99.185169 228.62075 
L 99.18789 231.75061 
L 121.144305 245.545444 
L 121.98938 276.627328 
L 123.69785 213.625928 
L 123.698242 219.752623 
L 125.362202 217.321707 
L 125.362594 213.849743 
L 126.199487 241.610584 
L 126.199878 240.582168 
L 127.090237 215.229603 
L 127.090618 212.60119 
L 127.899364 209.064753 
L 127.899756 206.044897 
L 128.744146 214.095137 
L 128.744527 214.689478 
L 136.360585 218.065255 
L 142.231315 227.79602 
L 143.073052 227.174175 
L 143.918832 297.719899 
L 144.76286 266.184465 
L 145.612006 255.070019 
L 155.771705 241.375717 
L 163.21203 219.516439 
L 164.180987 211.220405 
L 165.042171 244.172813 
L 170.943837 229.357463 
L 173.496775 237.744805 
L 207.146958 261.036979 
L 210.529274 241.763482 
L 218.978819 288.900979 
L 346.082599 235.919943 
L 379.139631 215.494603 
L 396.853779 268.311827 
L 396.854161 265.453148 
L 397.677773 239.146775 
L 397.678155 241.655714 
L 398.486891 239.543881 
L 398.487273 240.204275 
" style="fill:none;"/>
   </g>
   <g id="patch_14">
    <path d="M 57.6 307.584 
L 57.6 198.966857 
" style="fill:none;stroke:#000000;stroke-linecap:square;stroke-linejoin:miter;stroke-width:0.8;"/>
   </g>
   <g id="patch_15">
    <path d="M 414.72 307.584 
L 414.72 198.966857 
" style="fill:none;stroke:#000000;stroke-linecap:square;stroke-linejoin:miter;stroke-width:0.8;"/>
   </g>
   <g id="patch_16">
    <path d="M 57.6 307.584 
L 414.72 307.584 
" style="fill:none;stroke:#000000;stroke-linecap:square;stroke-linejoin:miter;stroke-width:0.8;"/>
   </g>
   <g id="patch_17">
    <path d="M 57.6 198.966857 
L 414.72 198.966857 
" style="fill:none;stroke:#000000;stroke-linecap:square;stroke-linejoin:miter;stroke-width:0.8;"/>
   </g>
   <g id="text_35">
    <!-- Light Curve -->
    <g transform="translate(206.000625 192.966857)scale(0.1 -0.1)">
     <use xlink:href="#DejaVuSerif-76"/>
     <use x="66.40625" xlink:href="#DejaVuSerif-105"/>
     <use x="98.388672" xlink:href="#DejaVuSerif-103"/>
     <use x="162.402344" xlink:href="#DejaVuSerif-104"/>
     <use x="226.806641" xlink:href="#DejaVuSerif-116"/>
     <use x="266.992188" xlink:href="#DejaVuSerif-32"/>
     <use x="298.779297" xlink:href="#DejaVuSerif-67"/>
     <use x="375.292969" xlink:href="#DejaVuSerif-117"/>
     <use x="439.697266" xlink:href="#DejaVuSerif-114"/>
     <use x="487.5" xlink:href="#DejaVuSerif-118"/>
     <use x="543.994141" xlink:href="#DejaVuSerif-101"/>
    </g>
   </g>
  </g>
 </g>
 <defs>
  <clipPath id="pbe502cf5e4">
   <rect height="108.617143" width="148.8" x="265.92" y="41.472"/>
  </clipPath>
  <clipPath id="p5af7322b36">
   <rect height="108.617143" width="148.8" x="57.6" y="41.472"/>
  </clipPath>
  <clipPath id="p354af102de">
   <rect height="108.617143" width="357.12" x="57.6" y="198.966857"/>
  </clipPath>
 </defs>
</svg>
