<?xml version="1.0" encoding="utf-8" standalone="no"?>
<!DOCTYPE svg PUBLIC "-//W3C//DTD SVG 1.1//EN"
  "http://www.w3.org/Graphics/SVG/1.1/DTD/svg11.dtd">
<!-- Created with matplotlib (https://matplotlib.org/) -->
<svg height="345.6pt" version="1.1" viewBox="0 0 460.8 345.6" width="460.8pt" xmlns="http://www.w3.org/2000/svg" xmlns:xlink="http://www.w3.org/1999/xlink">
 <metadata>
  <rdf:RDF xmlns:cc="http://creativecommons.org/ns#" xmlns:dc="http://purl.org/dc/elements/1.1/" xmlns:rdf="http://www.w3.org/1999/02/22-rdf-syntax-ns#">
   <cc:Work>
    <dc:type rdf:resource="http://purl.org/dc/dcmitype/StillImage"/>
    <dc:date>2021-02-24T00:31:20.620022</dc:date>
    <dc:format>image/svg+xml</dc:format>
    <dc:creator>
     <cc:Agent>
      <dc:title>Matplotlib v3.3.3, https://matplotlib.org/</dc:title>
     </cc:Agent>
    </dc:creator>
   </cc:Work>
  </rdf:RDF>
 </metadata>
 <defs>
  <style type="text/css">*{stroke-linecap:butt;stroke-linejoin:round;}</style>
 </defs>
 <g id="figure_1">
  <g id="patch_1">
   <path d="M 0 345.6 
L 460.8 345.6 
L 460.8 0 
L 0 0 
z
" style="fill:#ffffff;"/>
  </g>
  <g id="axes_1">
   <g id="patch_2">
    <path d="M 265.92 150.089143 
L 414.72 150.089143 
L 414.72 41.472 
L 265.92 41.472 
z
" style="fill:#ffffff;"/>
   </g>
   <g id="matplotlib.axis_1">
    <g id="xtick_1">
     <g id="line2d_1">
      <defs>
       <path d="M 0 0 
L 0 3.5 
" id="mb4f57e9068" style="stroke:#000000;stroke-width:0.8;"/>
      </defs>
      <g>
       <use style="stroke:#000000;stroke-width:0.8;" x="326.985138" xlink:href="#mb4f57e9068" y="150.089143"/>
      </g>
     </g>
     <g id="text_1">
      <!-- $\mathdefault{10^{1}}$ -->
      <g transform="translate(318.185138 164.68758)scale(0.1 -0.1)">
       <defs>
        <path d="M 14.203125 0 
L 14.203125 5.171875 
L 26.90625 5.171875 
L 26.90625 65.828125 
L 12.203125 56.296875 
L 12.203125 62.703125 
L 29.984375 74.21875 
L 36.71875 74.21875 
L 36.71875 5.171875 
L 49.421875 5.171875 
L 49.421875 0 
z
" id="DejaVuSerif-49"/>
        <path d="M 31.78125 3.421875 
Q 39.265625 3.421875 42.96875 11.625 
Q 46.6875 19.828125 46.6875 36.375 
Q 46.6875 52.984375 42.96875 61.1875 
Q 39.265625 69.390625 31.78125 69.390625 
Q 24.3125 69.390625 20.59375 61.1875 
Q 16.890625 52.984375 16.890625 36.375 
Q 16.890625 19.828125 20.59375 11.625 
Q 24.3125 3.421875 31.78125 3.421875 
z
M 31.78125 -1.421875 
Q 19.921875 -1.421875 13.25 8.53125 
Q 6.59375 18.5 6.59375 36.375 
Q 6.59375 54.296875 13.25 64.25 
Q 19.921875 74.21875 31.78125 74.21875 
Q 43.703125 74.21875 50.34375 64.25 
Q 56.984375 54.296875 56.984375 36.375 
Q 56.984375 18.5 50.34375 8.53125 
Q 43.703125 -1.421875 31.78125 -1.421875 
z
" id="DejaVuSerif-48"/>
       </defs>
       <use transform="translate(0 0.7125)" xlink:href="#DejaVuSerif-49"/>
       <use transform="translate(63.623047 0.7125)" xlink:href="#DejaVuSerif-48"/>
       <use transform="translate(128.154453 37.046875)scale(0.7)" xlink:href="#DejaVuSerif-49"/>
      </g>
     </g>
    </g>
    <g id="xtick_2">
     <g id="line2d_2">
      <g>
       <use style="stroke:#000000;stroke-width:0.8;" x="400.12039" xlink:href="#mb4f57e9068" y="150.089143"/>
      </g>
     </g>
     <g id="text_2">
      <!-- $\mathdefault{10^{2}}$ -->
      <g transform="translate(391.32039 164.68758)scale(0.1 -0.1)">
       <defs>
        <path d="M 12.796875 55.515625 
L 7.328125 55.515625 
L 7.328125 68.5 
Q 12.546875 71.296875 17.84375 72.75 
Q 23.140625 74.21875 28.21875 74.21875 
Q 39.59375 74.21875 46.1875 68.703125 
Q 52.78125 63.1875 52.78125 53.71875 
Q 52.78125 43.015625 37.84375 28.125 
Q 36.671875 27 36.078125 26.421875 
L 17.671875 8.015625 
L 48.09375 8.015625 
L 48.09375 17 
L 53.8125 17 
L 53.8125 0 
L 6.78125 0 
L 6.78125 5.328125 
L 28.90625 27.390625 
Q 36.234375 34.71875 39.359375 40.84375 
Q 42.484375 46.96875 42.484375 53.71875 
Q 42.484375 61.078125 38.640625 65.234375 
Q 34.8125 69.390625 28.078125 69.390625 
Q 21.09375 69.390625 17.28125 65.921875 
Q 13.484375 62.453125 12.796875 55.515625 
z
" id="DejaVuSerif-50"/>
       </defs>
       <use transform="translate(0 0.7125)" xlink:href="#DejaVuSerif-49"/>
       <use transform="translate(63.623047 0.7125)" xlink:href="#DejaVuSerif-48"/>
       <use transform="translate(128.154453 37.046875)scale(0.7)" xlink:href="#DejaVuSerif-50"/>
      </g>
     </g>
    </g>
    <g id="xtick_3">
     <g id="line2d_3">
      <defs>
       <path d="M 0 0 
L 0 2 
" id="mdd14b944b5" style="stroke:#000000;stroke-width:0.6;"/>
      </defs>
      <g>
       <use style="stroke:#000000;stroke-width:0.6;" x="275.86579" xlink:href="#mdd14b944b5" y="150.089143"/>
      </g>
     </g>
    </g>
    <g id="xtick_4">
     <g id="line2d_4">
      <g>
       <use style="stroke:#000000;stroke-width:0.6;" x="288.744269" xlink:href="#mdd14b944b5" y="150.089143"/>
      </g>
     </g>
    </g>
    <g id="xtick_5">
     <g id="line2d_5">
      <g>
       <use style="stroke:#000000;stroke-width:0.6;" x="297.881695" xlink:href="#mdd14b944b5" y="150.089143"/>
      </g>
     </g>
    </g>
    <g id="xtick_6">
     <g id="line2d_6">
      <g>
       <use style="stroke:#000000;stroke-width:0.6;" x="304.969233" xlink:href="#mdd14b944b5" y="150.089143"/>
      </g>
     </g>
    </g>
    <g id="xtick_7">
     <g id="line2d_7">
      <g>
       <use style="stroke:#000000;stroke-width:0.6;" x="310.760174" xlink:href="#mdd14b944b5" y="150.089143"/>
      </g>
     </g>
    </g>
    <g id="xtick_8">
     <g id="line2d_8">
      <g>
       <use style="stroke:#000000;stroke-width:0.6;" x="315.656344" xlink:href="#mdd14b944b5" y="150.089143"/>
      </g>
     </g>
    </g>
    <g id="xtick_9">
     <g id="line2d_9">
      <g>
       <use style="stroke:#000000;stroke-width:0.6;" x="319.8976" xlink:href="#mdd14b944b5" y="150.089143"/>
      </g>
     </g>
    </g>
    <g id="xtick_10">
     <g id="line2d_10">
      <g>
       <use style="stroke:#000000;stroke-width:0.6;" x="323.638652" xlink:href="#mdd14b944b5" y="150.089143"/>
      </g>
     </g>
    </g>
    <g id="xtick_11">
     <g id="line2d_11">
      <g>
       <use style="stroke:#000000;stroke-width:0.6;" x="349.001043" xlink:href="#mdd14b944b5" y="150.089143"/>
      </g>
     </g>
    </g>
    <g id="xtick_12">
     <g id="line2d_12">
      <g>
       <use style="stroke:#000000;stroke-width:0.6;" x="361.879521" xlink:href="#mdd14b944b5" y="150.089143"/>
      </g>
     </g>
    </g>
    <g id="xtick_13">
     <g id="line2d_13">
      <g>
       <use style="stroke:#000000;stroke-width:0.6;" x="371.016947" xlink:href="#mdd14b944b5" y="150.089143"/>
      </g>
     </g>
    </g>
    <g id="xtick_14">
     <g id="line2d_14">
      <g>
       <use style="stroke:#000000;stroke-width:0.6;" x="378.104486" xlink:href="#mdd14b944b5" y="150.089143"/>
      </g>
     </g>
    </g>
    <g id="xtick_15">
     <g id="line2d_15">
      <g>
       <use style="stroke:#000000;stroke-width:0.6;" x="383.895426" xlink:href="#mdd14b944b5" y="150.089143"/>
      </g>
     </g>
    </g>
    <g id="xtick_16">
     <g id="line2d_16">
      <g>
       <use style="stroke:#000000;stroke-width:0.6;" x="388.791597" xlink:href="#mdd14b944b5" y="150.089143"/>
      </g>
     </g>
    </g>
    <g id="xtick_17">
     <g id="line2d_17">
      <g>
       <use style="stroke:#000000;stroke-width:0.6;" x="393.032852" xlink:href="#mdd14b944b5" y="150.089143"/>
      </g>
     </g>
    </g>
    <g id="xtick_18">
     <g id="line2d_18">
      <g>
       <use style="stroke:#000000;stroke-width:0.6;" x="396.773905" xlink:href="#mdd14b944b5" y="150.089143"/>
      </g>
     </g>
    </g>
    <g id="text_3">
     <!-- Period d -->
     <g transform="translate(319.231719 178.365705)scale(0.1 -0.1)">
      <defs>
       <path d="M 24.703125 37.109375 
L 37.59375 37.109375 
Q 44.875 37.109375 48.671875 41.03125 
Q 52.484375 44.96875 52.484375 52.390625 
Q 52.484375 59.859375 48.671875 63.765625 
Q 44.875 67.671875 37.59375 67.671875 
L 24.703125 67.671875 
z
M 5.515625 0 
L 5.515625 5.171875 
L 14.796875 5.171875 
L 14.796875 67.671875 
L 5.515625 67.671875 
L 5.515625 72.90625 
L 39.984375 72.90625 
Q 50.921875 72.90625 57.3125 67.359375 
Q 63.71875 61.8125 63.71875 52.390625 
Q 63.71875 43.015625 57.3125 37.453125 
Q 50.921875 31.890625 39.984375 31.890625 
L 24.703125 31.890625 
L 24.703125 5.171875 
L 35.984375 5.171875 
L 35.984375 0 
z
" id="DejaVuSerif-80"/>
       <path d="M 54.203125 25 
L 15.484375 25 
L 15.484375 24.609375 
Q 15.484375 14.109375 19.4375 8.765625 
Q 23.390625 3.421875 31.109375 3.421875 
Q 37.015625 3.421875 40.796875 6.515625 
Q 44.578125 9.625 46.09375 15.71875 
L 53.328125 15.71875 
Q 51.171875 7.171875 45.375 2.875 
Q 39.59375 -1.421875 30.171875 -1.421875 
Q 18.796875 -1.421875 11.890625 6.078125 
Q 4.984375 13.578125 4.984375 25.984375 
Q 4.984375 38.28125 11.765625 45.796875 
Q 18.5625 53.328125 29.59375 53.328125 
Q 41.359375 53.328125 47.65625 46.0625 
Q 53.953125 38.8125 54.203125 25 
z
M 43.609375 30.171875 
Q 43.3125 39.265625 39.765625 43.875 
Q 36.234375 48.484375 29.59375 48.484375 
Q 23.390625 48.484375 19.828125 43.84375 
Q 16.265625 39.203125 15.484375 30.171875 
z
" id="DejaVuSerif-101"/>
       <path d="M 47.796875 52 
L 47.796875 39.015625 
L 42.625 39.015625 
Q 42.390625 42.875 40.484375 44.78125 
Q 38.578125 46.6875 34.90625 46.6875 
Q 28.265625 46.6875 24.71875 42.09375 
Q 21.1875 37.5 21.1875 28.90625 
L 21.1875 5.171875 
L 31.59375 5.171875 
L 31.59375 0 
L 4.109375 0 
L 4.109375 5.171875 
L 12.203125 5.171875 
L 12.203125 46.78125 
L 3.609375 46.78125 
L 3.609375 51.90625 
L 21.1875 51.90625 
L 21.1875 42.671875 
Q 23.828125 48.09375 27.96875 50.703125 
Q 32.125 53.328125 38.09375 53.328125 
Q 40.28125 53.328125 42.703125 52.984375 
Q 45.125 52.640625 47.796875 52 
z
" id="DejaVuSerif-114"/>
       <path d="M 9.71875 68.015625 
Q 9.71875 70.265625 11.34375 71.921875 
Q 12.984375 73.578125 15.28125 73.578125 
Q 17.53125 73.578125 19.15625 71.921875 
Q 20.796875 70.265625 20.796875 68.015625 
Q 20.796875 65.71875 19.1875 64.109375 
Q 17.578125 62.5 15.28125 62.5 
Q 12.984375 62.5 11.34375 64.109375 
Q 9.71875 65.71875 9.71875 68.015625 
z
M 21.1875 5.171875 
L 29.6875 5.171875 
L 29.6875 0 
L 3.609375 0 
L 3.609375 5.171875 
L 12.203125 5.171875 
L 12.203125 46.6875 
L 3.609375 46.6875 
L 3.609375 51.90625 
L 21.1875 51.90625 
z
" id="DejaVuSerif-105"/>
       <path d="M 30.078125 3.421875 
Q 37.3125 3.421875 40.984375 9.125 
Q 44.671875 14.84375 44.671875 25.984375 
Q 44.671875 37.109375 40.984375 42.796875 
Q 37.3125 48.484375 30.078125 48.484375 
Q 22.859375 48.484375 19.171875 42.796875 
Q 15.484375 37.109375 15.484375 25.984375 
Q 15.484375 14.84375 19.1875 9.125 
Q 22.90625 3.421875 30.078125 3.421875 
z
M 30.078125 -1.421875 
Q 18.75 -1.421875 11.859375 6.078125 
Q 4.984375 13.578125 4.984375 25.984375 
Q 4.984375 38.375 11.84375 45.84375 
Q 18.703125 53.328125 30.078125 53.328125 
Q 41.453125 53.328125 48.3125 45.84375 
Q 55.171875 38.375 55.171875 25.984375 
Q 55.171875 13.578125 48.3125 6.078125 
Q 41.453125 -1.421875 30.078125 -1.421875 
z
" id="DejaVuSerif-111"/>
       <path d="M 52.484375 5.171875 
L 61.078125 5.171875 
L 61.078125 0 
L 43.5 0 
L 43.5 8.109375 
Q 40.875 3.21875 36.796875 0.890625 
Q 32.71875 -1.421875 26.703125 -1.421875 
Q 17.140625 -1.421875 11.0625 6.171875 
Q 4.984375 13.765625 4.984375 25.984375 
Q 4.984375 38.1875 11.03125 45.75 
Q 17.09375 53.328125 26.703125 53.328125 
Q 32.71875 53.328125 36.796875 51 
Q 40.875 48.6875 43.5 43.796875 
L 43.5 70.796875 
L 35.015625 70.796875 
L 35.015625 75.984375 
L 52.484375 75.984375 
z
M 43.5 23.390625 
L 43.5 28.515625 
Q 43.5 37.84375 39.90625 42.765625 
Q 36.328125 47.703125 29.5 47.703125 
Q 22.5625 47.703125 19.015625 42.234375 
Q 15.484375 36.765625 15.484375 25.984375 
Q 15.484375 15.234375 19.015625 9.71875 
Q 22.5625 4.203125 29.5 4.203125 
Q 36.328125 4.203125 39.90625 9.109375 
Q 43.5 14.015625 43.5 23.390625 
z
" id="DejaVuSerif-100"/>
       <path id="DejaVuSerif-32"/>
      </defs>
      <use xlink:href="#DejaVuSerif-80"/>
      <use x="62.785156" xlink:href="#DejaVuSerif-101"/>
      <use x="121.964844" xlink:href="#DejaVuSerif-114"/>
      <use x="169.767578" xlink:href="#DejaVuSerif-105"/>
      <use x="201.75" xlink:href="#DejaVuSerif-111"/>
      <use x="261.955078" xlink:href="#DejaVuSerif-100"/>
      <use x="325.96875" xlink:href="#DejaVuSerif-32"/>
      <use x="357.755859" xlink:href="#DejaVuSerif-100"/>
     </g>
    </g>
   </g>
   <g id="matplotlib.axis_2">
    <g id="ytick_1">
     <g id="line2d_19">
      <defs>
       <path d="M 0 0 
L -3.5 0 
" id="mee4019a208" style="stroke:#000000;stroke-width:0.8;"/>
      </defs>
      <g>
       <use style="stroke:#000000;stroke-width:0.8;" x="265.92" xlink:href="#mee4019a208" y="145.171509"/>
      </g>
     </g>
     <g id="text_4">
      <!-- 0.0 -->
      <g transform="translate(243.016875 148.970728)scale(0.1 -0.1)">
       <defs>
        <path d="M 9.421875 5.078125 
Q 9.421875 7.8125 11.28125 9.71875 
Q 13.140625 11.625 15.921875 11.625 
Q 18.609375 11.625 20.5 9.71875 
Q 22.40625 7.8125 22.40625 5.078125 
Q 22.40625 2.390625 20.5 0.484375 
Q 18.609375 -1.421875 15.921875 -1.421875 
Q 13.140625 -1.421875 11.28125 0.453125 
Q 9.421875 2.34375 9.421875 5.078125 
z
" id="DejaVuSerif-46"/>
       </defs>
       <use xlink:href="#DejaVuSerif-48"/>
       <use x="63.623047" xlink:href="#DejaVuSerif-46"/>
       <use x="95.410156" xlink:href="#DejaVuSerif-48"/>
      </g>
     </g>
    </g>
    <g id="ytick_2">
     <g id="line2d_20">
      <g>
       <use style="stroke:#000000;stroke-width:0.8;" x="265.92" xlink:href="#mee4019a208" y="102.840604"/>
      </g>
     </g>
     <g id="text_5">
      <!-- 0.2 -->
      <g transform="translate(243.016875 106.639823)scale(0.1 -0.1)">
       <use xlink:href="#DejaVuSerif-48"/>
       <use x="63.623047" xlink:href="#DejaVuSerif-46"/>
       <use x="95.410156" xlink:href="#DejaVuSerif-50"/>
      </g>
     </g>
    </g>
    <g id="ytick_3">
     <g id="line2d_21">
      <g>
       <use style="stroke:#000000;stroke-width:0.8;" x="265.92" xlink:href="#mee4019a208" y="60.509699"/>
      </g>
     </g>
     <g id="text_6">
      <!-- 0.4 -->
      <g transform="translate(243.016875 64.308918)scale(0.1 -0.1)">
       <defs>
        <path d="M 34.90625 24.703125 
L 34.90625 63.484375 
L 10.015625 24.703125 
z
M 56.390625 0 
L 23.1875 0 
L 23.1875 5.171875 
L 34.90625 5.171875 
L 34.90625 19.484375 
L 3.078125 19.484375 
L 3.078125 24.8125 
L 35.015625 74.21875 
L 44.671875 74.21875 
L 44.671875 24.703125 
L 58.59375 24.703125 
L 58.59375 19.484375 
L 44.671875 19.484375 
L 44.671875 5.171875 
L 56.390625 5.171875 
z
" id="DejaVuSerif-52"/>
       </defs>
       <use xlink:href="#DejaVuSerif-48"/>
       <use x="63.623047" xlink:href="#DejaVuSerif-46"/>
       <use x="95.410156" xlink:href="#DejaVuSerif-52"/>
      </g>
     </g>
    </g>
    <g id="text_7">
     <!-- Power -->
     <g transform="translate(236.937188 111.583696)rotate(-90)scale(0.1 -0.1)">
      <defs>
       <path d="M 48 51.90625 
L 61.28125 11.375 
L 73 46.6875 
L 65.484375 46.6875 
L 65.484375 51.90625 
L 84.28125 51.90625 
L 84.28125 46.6875 
L 78.515625 46.6875 
L 63.09375 0 
L 55.609375 0 
L 42.828125 38.8125 
L 29.984375 0 
L 22.796875 0 
L 7.421875 46.6875 
L 1.609375 46.6875 
L 1.609375 51.90625 
L 25.09375 51.90625 
L 25.09375 46.6875 
L 16.703125 46.6875 
L 28.328125 11.375 
L 41.703125 51.90625 
z
" id="DejaVuSerif-119"/>
      </defs>
      <use xlink:href="#DejaVuSerif-80"/>
      <use x="63.285156" xlink:href="#DejaVuSerif-111"/>
      <use x="123.490234" xlink:href="#DejaVuSerif-119"/>
      <use x="209.085938" xlink:href="#DejaVuSerif-101"/>
      <use x="268.265625" xlink:href="#DejaVuSerif-114"/>
     </g>
    </g>
   </g>
   <g id="LineCollection_1">
    <path clip-path="url(#p96c840b47a)" d="M 272.695273 46.409143 
L 407.956364 46.409143 
" style="fill:none;stroke:#808080;stroke-dasharray:5.55,2.4;stroke-dashoffset:0;stroke-width:1.5;"/>
   </g>
   <g id="LineCollection_2">
    <path clip-path="url(#p96c840b47a)" d="M 272.695273 60.323916 
L 407.956364 60.323916 
" style="fill:none;stroke:#a9a9a9;stroke-dasharray:5.55,2.4;stroke-dashoffset:0;stroke-width:1.5;"/>
   </g>
   <g id="LineCollection_3">
    <path clip-path="url(#p96c840b47a)" d="M 272.695273 71.280118 
L 407.956364 71.280118 
" style="fill:none;stroke:#c0c0c0;stroke-dasharray:5.55,2.4;stroke-dashoffset:0;stroke-width:1.5;"/>
   </g>
   <g id="LineCollection_4">
    <path clip-path="url(#p96c840b47a)" d="M 272.695273 76.455402 
L 407.956364 76.455402 
" style="fill:none;stroke:#d3d3d3;stroke-dasharray:5.55,2.4;stroke-dashoffset:0;stroke-width:1.5;"/>
   </g>
   <g id="line2d_22">
    <path clip-path="url(#p96c840b47a)" d="M 407.956364 130.321019 
L 405.906476 116.777336 
L 403.980902 96.921847 
L 402.165423 87.9456 
L 400.448127 84.005001 
L 398.818938 97.560398 
L 397.269253 121.280853 
L 395.791673 125.022664 
L 394.379786 117.40708 
L 393.027997 105.210107 
L 391.731399 95.036769 
L 390.485662 99.463582 
L 389.286945 112.567157 
L 388.131827 121.889363 
L 385.940459 133.88014 
L 384.898981 128.352139 
L 383.890571 118.564634 
L 382.913194 118.891234 
L 381.964998 117.471848 
L 381.044289 111.416058 
L 380.149518 127.974415 
L 379.279266 138.807092 
L 378.432223 141.058476 
L 377.607183 138.246037 
L 376.803033 130.796869 
L 376.01874 128.924625 
L 375.253348 134.9709 
L 374.505967 139.976789 
L 373.775768 140.408125 
L 373.06198 122.455295 
L 372.363881 112.145368 
L 371.680796 111.220243 
L 371.012092 104.277619 
L 370.357178 118.440989 
L 369.715495 129.620395 
L 368.469757 102.768521 
L 367.864744 96.097283 
L 367.27104 81.912616 
L 366.68823 96.734089 
L 366.115922 117.764191 
L 365.553744 122.666203 
L 365.001343 124.478867 
L 364.458386 125.669522 
L 363.924554 117.844317 
L 363.399547 118.302672 
L 362.883076 122.521556 
L 362.374869 121.407964 
L 361.874666 115.827605 
L 361.382219 116.678426 
L 360.89729 126.33236 
L 360.419653 128.629789 
L 359.949093 124.944424 
L 359.485402 116.747315 
L 359.028384 95.40705 
L 358.577848 84.592169 
L 356.837016 127.454181 
L 356.416318 111.306691 
L 356.001119 90.937447 
L 355.591278 92.00503 
L 355.186658 96.774797 
L 354.787128 110.12188 
L 354.392561 135.233528 
L 354.002836 138.261335 
L 353.237443 123.012471 
L 352.861555 120.681208 
L 352.490062 129.036187 
L 352.122865 140.777657 
L 351.759864 143.412462 
L 351.400965 139.457756 
L 351.046076 130.068146 
L 350.695108 127.93178 
L 350.347976 133.235396 
L 350.004597 135.544181 
L 349.664891 135.171599 
L 349.32878 137.021125 
L 348.996188 135.746287 
L 348.667042 130.684154 
L 348.341273 129.451494 
L 348.018811 122.089836 
L 347.69959 106.712845 
L 347.383545 104.757481 
L 346.760736 127.453194 
L 346.453852 134.705553 
L 346.149905 126.874227 
L 345.848839 112.329158 
L 345.5506 109.317364 
L 345.255135 113.440215 
L 344.384882 143.506787 
L 344.100017 140.617861 
L 343.537839 133.002466 
L 342.985439 138.926859 
L 342.442481 133.127833 
L 341.645061 143.628484 
L 341.383642 139.559472 
L 340.867171 121.671994 
L 340.612052 123.361023 
L 340.358965 126.08003 
L 339.858762 141.255923 
L 339.611584 140.2581 
L 338.881385 131.598741 
L 338.403748 143.012643 
L 338.167597 144.323896 
L 337.700497 140.8018 
L 337.469498 142.016693 
L 337.240166 144.111146 
L 337.012479 143.747518 
L 336.33905 118.787451 
L 336.117709 114.704053 
L 335.8979 119.583288 
L 335.679602 131.900878 
L 335.462794 132.77897 
L 334.821111 108.036108 
L 334.610066 112.327936 
L 334.192135 131.166038 
L 333.985215 135.666736 
L 333.779633 137.594251 
L 332.771223 123.812473 
L 332.573327 128.400191 
L 332.181196 140.736499 
L 331.986931 140.849486 
L 331.411165 126.731752 
L 330.659361 145.055108 
L 330.290028 140.744937 
L 330.10696 140.370956 
L 329.924941 139.3278 
L 329.564002 135.632391 
L 329.38506 137.306259 
L 329.030171 145.152 
L 328.854202 142.428247 
L 328.505163 130.232403 
L 328.332072 132.290079 
L 327.988693 141.416109 
L 327.818385 140.95104 
L 327.480486 127.959489 
L 327.146144 124.540368 
L 326.980283 126.539308 
L 326.815284 131.708899 
L 326.651138 133.108105 
L 326.487835 130.709654 
L 326.002906 113.529057 
L 325.842895 117.354029 
L 325.52527 135.206073 
L 325.36764 133.224115 
L 325.054709 120.886147 
L 324.899393 120.241684 
L 324.744831 125.45293 
L 324.437948 141.550764 
L 324.28561 144.33625 
L 324.134 143.187459 
L 323.832934 132.568607 
L 323.534695 121.757543 
L 323.386619 122.41708 
L 322.946489 139.287975 
L 322.801124 136.217285 
L 322.512374 121.939246 
L 322.368978 120.957743 
L 322.226226 122.696673 
L 321.80178 142.129797 
L 321.661549 141.290661 
L 321.382931 131.529002 
L 321.244533 125.928669 
L 321.106736 125.053554 
L 320.561448 143.587068 
L 320.292275 135.003513 
L 320.158539 135.375869 
L 319.760677 143.354829 
L 319.498178 142.023749 
L 319.23783 144.343917 
L 319.108452 143.55844 
L 318.596147 126.3434 
L 318.469351 127.35449 
L 318.217269 135.748084 
L 318.091974 134.607055 
L 317.719027 122.438953 
L 317.595679 126.997709 
L 317.350409 142.610726 
L 317.228481 142.183649 
L 316.98602 130.902468 
L 316.86548 132.447033 
L 316.625764 144.672578 
L 316.506581 142.932034 
L 316.269548 129.088179 
L 316.151692 128.278173 
L 315.800725 145.079513 
L 315.684592 143.678459 
L 315.224262 131.788925 
L 315.110214 132.856658 
L 314.770508 140.371907 
L 314.546039 130.413556 
L 314.323145 120.645493 
L 314.212282 119.090897 
L 314.101804 120.009525 
L 313.772659 128.285261 
L 313.339038 105.323101 
L 313.231552 107.8989 
L 312.911257 127.902088 
L 312.489162 84.209646 
L 312.384508 91.361269 
L 312.176231 121.786081 
L 312.072602 121.951569 
L 311.763728 100.038223 
L 311.559469 120.471912 
L 311.356515 137.225167 
L 311.054494 129.40489 
L 310.656216 144.519477 
L 310.458935 143.917435 
L 310.360752 144.341733 
L 310.262871 143.269689 
L 310.06801 133.984539 
L 309.971026 134.415722 
L 309.681838 144.556131 
L 309.39526 129.662379 
L 309.111244 144.874514 
L 309.017133 142.995555 
L 308.829745 135.180984 
L 308.736464 136.565914 
L 308.550719 144.119372 
L 308.458253 144.065796 
L 308.182457 137.219814 
L 308.091055 137.997971 
L 307.818416 144.871766 
L 307.728054 144.590151 
L 307.369155 138.442583 
L 307.28006 139.582463 
L 307.102617 145.05349 
L 306.92616 138.968836 
L 306.750678 134.82673 
L 306.576159 144.641104 
L 306.489258 143.654141 
L 306.229973 131.111133 
L 306.058285 142.528447 
L 305.972788 141.773669 
L 305.717668 116.533222 
L 305.633082 117.6751 
L 305.464581 131.191877 
L 305.380665 128.830402 
L 305.130239 101.925103 
L 304.881772 127.204987 
L 304.7172 138.531776 
L 304.309464 125.061152 
L 304.228541 125.317742 
L 304.067311 136.402821 
L 303.987002 133.760941 
L 303.66778 96.861279 
L 303.430453 126.464887 
L 303.194885 101.882524 
L 303.116749 101.946742 
L 302.806113 139.322413 
L 302.575114 130.12545 
L 302.498486 131.347413 
L 302.269706 143.830645 
L 302.118096 131.798889 
L 301.967206 119.403526 
L 301.742207 138.966889 
L 301.51879 99.151705 
L 301.444666 107.783615 
L 301.223326 137.606333 
L 301.003517 120.713248 
L 300.712785 143.652196 
L 300.640516 142.957002 
L 300.568411 142.021901 
L 300.496469 142.495266 
L 300.353073 144.964762 
L 300.281617 144.062491 
L 300.068208 136.398662 
L 299.856223 144.235631 
L 299.645644 132.530125 
L 299.57576 134.180616 
L 299.436452 143.650571 
L 299.297752 141.882069 
L 299.159655 144.849403 
L 299.090831 142.991238 
L 298.88525 126.260441 
L 298.817017 128.150164 
L 298.68099 140.672365 
L 298.545543 127.398621 
L 298.410672 111.279375 
L 298.27637 125.581257 
L 298.142634 134.229063 
L 297.94308 117.562136 
L 297.87684 118.837384 
L 297.744772 130.011631 
L 297.678944 136.740163 
L 297.613251 136.470294 
L 297.416986 111.061187 
L 297.351832 114.525075 
L 297.157171 138.49003 
L 296.963694 118.167605 
L 296.899463 120.495577 
L 296.707546 139.531915 
L 296.516781 125.564671 
L 296.453447 127.341873 
L 296.264197 144.335082 
L 296.076069 139.713305 
L 295.889049 143.821969 
L 295.764977 141.5576 
L 295.641389 144.956015 
L 295.518279 135.357518 
L 295.456903 129.180365 
L 295.395645 129.424788 
L 295.273482 141.967475 
L 295.212576 140.89933 
L 295.030557 115.781188 
L 294.849576 140.006896 
L 294.789477 138.994288 
L 294.669619 128.550797 
L 294.609859 129.865566 
L 294.371939 144.623872 
L 294.253644 143.228804 
L 294.018367 141.170097 
L 293.78482 145.064113 
L 293.7267 144.787256 
L 293.552978 139.404896 
L 293.437688 135.792358 
L 293.3802 136.904438 
L 293.265535 143.836359 
L 293.208357 143.45101 
L 293.037439 122.543377 
L 292.98067 123.328747 
L 292.810969 141.023293 
L 292.64217 124.262085 
L 292.586103 126.908738 
L 292.418492 142.958723 
L 292.30724 135.712008 
L 292.25176 136.077695 
L 292.14109 144.409463 
L 292.0859 144.093212 
L 291.920901 134.542754 
L 291.756754 143.754183 
L 291.593452 132.774027 
L 291.430985 145.08387 
L 291.377013 143.562586 
L 291.269345 140.476362 
L 291.108523 145.101941 
L 291.055096 143.288735 
L 290.948511 138.007178 
L 290.895353 139.102897 
L 290.736409 145.106588 
L 290.578256 139.068043 
L 290.525713 139.848489 
L 290.316406 144.734557 
L 290.264294 143.908143 
L 290.108469 135.890977 
L 290.056697 137.102982 
L 289.901885 144.746581 
L 289.64553 139.674896 
L 289.594506 139.825556 
L 289.492704 141.792218 
L 289.391227 144.28608 
L 289.189241 127.701759 
L 289.138944 130.418215 
L 289.03859 135.257618 
L 288.838826 113.072268 
L 288.789081 114.64519 
L 288.640312 133.575535 
L 288.492236 118.475667 
L 288.344847 142.89415 
L 288.295869 141.591912 
L 288.198139 130.795698 
L 288.149386 133.02162 
L 288.003576 144.9283 
L 287.858433 141.180207 
L 287.810198 141.706488 
L 287.617991 143.994586 
L 287.57012 144.969168 
L 287.522321 143.852625 
L 287.379355 137.142869 
L 287.23703 144.996828 
L 287.189729 144.265547 
L 287.048249 135.294996 
L 287.001229 137.698016 
L 286.860584 145.012679 
L 286.81384 144.534828 
L 286.627551 138.602793 
L 286.488548 144.959625 
L 286.442348 144.24121 
L 286.35015 140.289453 
L 286.304151 140.638594 
L 286.166553 144.918187 
L 286.029548 135.837711 
L 285.984011 137.530837 
L 285.938538 140.850592 
L 285.893131 140.692032 
L 285.757298 106.658677 
L 285.667065 117.573367 
L 285.577087 133.284945 
L 285.442596 101.793544 
L 285.397892 104.749562 
L 285.264156 138.475053 
L 285.219702 131.372726 
L 285.13098 122.413426 
L 284.954278 145.036201 
L 284.866294 142.264152 
L 284.778553 139.630477 
L 284.734773 140.092766 
L 284.603794 145.02541 
L 284.560255 144.881025 
L 284.429992 140.030522 
L 284.38669 140.874673 
L 284.300262 144.830324 
L 284.257136 144.248025 
L 284.128109 137.559631 
L 284.085216 137.938463 
L 283.956883 144.903445 
L 283.914221 143.233915 
L 283.786576 137.010512 
L 283.744141 139.107516 
L 283.617177 144.854769 
L 283.448677 127.162301 
L 283.36476 135.175811 
L 283.322885 141.405874 
L 283.281065 139.820965 
L 283.155935 123.560411 
L 283.114334 129.233848 
L 283.031296 143.542241 
L 282.989858 139.869551 
L 282.907143 127.712581 
L 282.865867 130.331984 
L 282.783475 144.330715 
L 282.742358 141.463606 
L 282.660285 129.781367 
L 282.619328 130.603002 
L 282.537572 142.232671 
L 282.496773 140.285355 
L 282.374689 121.951736 
L 282.334098 127.38274 
L 282.212636 138.772515 
L 282.172252 134.273357 
L 282.051406 128.975632 
L 282.011226 129.736922 
L 281.89099 141.246819 
L 281.851013 139.99761 
L 281.731381 122.563235 
L 281.691603 125.838243 
L 281.572569 141.445407 
L 281.53299 135.201947 
L 281.414548 120.244273 
L 281.296546 144.380109 
L 281.21812 139.702239 
L 281.139888 133.325666 
L 281.100844 136.80386 
L 280.945147 144.970449 
L 280.790209 135.681186 
L 280.713022 143.594877 
L 280.674499 142.063488 
L 280.559209 117.155531 
L 280.482582 127.063865 
L 280.444337 133.694806 
L 280.406138 132.755609 
L 280.253801 107.30113 
L 280.177906 131.750173 
L 280.102191 123.128363 
L 280.026656 107.751643 
L 279.988957 119.870469 
L 279.876124 142.872617 
L 279.838602 140.530053 
L 279.801125 137.786189 
L 279.726302 139.492113 
L 279.651655 144.007564 
L 279.614397 143.092649 
L 279.577183 140.78964 
L 279.502886 142.903011 
L 279.391764 144.230293 
L 279.244204 136.305214 
L 279.207421 137.340467 
L 279.133982 144.395923 
L 279.097326 143.131824 
L 278.987612 129.733322 
L 278.951125 131.889194 
L 278.841914 144.127921 
L 278.805593 141.76154 
L 278.733077 135.502493 
L 278.69688 138.533169 
L 278.516515 144.176271 
L 278.444655 139.484406 
L 278.337168 128.285645 
L 278.30142 134.348276 
L 278.230044 140.380037 
L 278.194416 135.477578 
L 278.12328 125.211771 
L 278.087772 127.393457 
L 278.016874 140.685321 
L 277.981484 135.972349 
L 277.875551 114.524639 
L 277.840319 123.377009 
L 277.76997 135.254068 
L 277.734855 127.110376 
L 277.664739 107.306925 
L 277.62974 117.836901 
L 277.524971 141.026233 
L 277.490125 133.76692 
L 277.455317 129.161443 
L 277.385815 130.412441 
L 277.247267 144.53839 
L 277.212724 142.943758 
L 277.14375 134.721443 
L 277.074927 136.739672 
L 276.971969 144.742472 
L 276.937724 142.022384 
L 276.83521 139.623661 
L 276.801112 139.813012 
L 276.733026 144.968516 
L 276.665086 143.58474 
L 276.563446 142.146335 
L 276.529639 142.752908 
L 276.428431 145.081761 
L 276.394767 144.225908 
L 276.293988 133.740369 
L 276.260466 135.759298 
L 276.193527 144.044372 
L 276.160111 140.582606 
L 276.093383 121.932514 
L 276.026796 132.673375 
L 275.993554 139.188981 
L 275.960348 138.898693 
L 275.827867 122.490905 
L 275.761833 135.271056 
L 275.728868 124.446677 
L 275.663039 104.23613 
L 275.630176 113.676929 
L 275.53179 140.109331 
L 275.499062 138.60432 
L 275.433708 128.81856 
L 275.401081 135.093691 
L 275.270908 145.138048 
L 275.238448 144.983848 
L 275.141266 142.293554 
L 275.076643 136.76885 
L 275.04438 139.745295 
L 274.979954 145.022937 
L 274.915658 143.596749 
L 274.851492 142.052584 
L 274.819457 143.528515 
L 274.787455 144.257685 
L 274.723547 137.484017 
L 274.659767 139.864802 
L 274.564337 144.775342 
L 274.532591 141.128337 
L 274.469193 134.938022 
L 274.405922 136.231723 
L 274.342776 139.41252 
L 274.311251 143.313514 
L 274.279756 138.861911 
L 274.154089 104.561919 
L 274.12275 118.617469 
L 274.091442 129.76689 
L 274.028918 121.143128 
L 273.966516 94.7368 
L 273.935362 104.466017 
L 273.84208 134.583589 
L 273.780045 123.131714 
L 273.749072 123.323255 
L 273.71813 125.181299 
L 273.625484 143.021544 
L 273.594662 139.571793 
L 273.563869 135.056656 
L 273.502374 139.931814 
L 273.440998 144.706463 
L 273.410354 142.957459 
L 273.3186 138.506722 
L 273.288074 140.200232 
L 273.166263 145.111762 
L 273.135883 143.347259 
L 273.044917 131.802484 
L 273.014653 134.189562 
L 272.954211 142.788698 
L 272.924033 142.70544 
L 272.803607 127.837908 
L 272.713587 144.545771 
L 272.683636 142.644702 
" style="fill:none;stroke:#1f77b4;stroke-linecap:square;stroke-width:1.5;"/>
   </g>
   <g id="patch_3">
    <path d="M 265.92 150.089143 
L 265.92 41.472 
" style="fill:none;stroke:#000000;stroke-linecap:square;stroke-linejoin:miter;stroke-width:0.8;"/>
   </g>
   <g id="patch_4">
    <path d="M 414.72 150.089143 
L 414.72 41.472 
" style="fill:none;stroke:#000000;stroke-linecap:square;stroke-linejoin:miter;stroke-width:0.8;"/>
   </g>
   <g id="patch_5">
    <path d="M 265.92 150.089143 
L 414.72 150.089143 
" style="fill:none;stroke:#000000;stroke-linecap:square;stroke-linejoin:miter;stroke-width:0.8;"/>
   </g>
   <g id="patch_6">
    <path d="M 265.92 41.472 
L 414.72 41.472 
" style="fill:none;stroke:#000000;stroke-linecap:square;stroke-linejoin:miter;stroke-width:0.8;"/>
   </g>
   <g id="text_8">
    <!-- Periodogram -->
    <g transform="translate(307.698125 35.472)scale(0.1 -0.1)">
     <defs>
      <path d="M 52.484375 46.6875 
L 52.484375 1.125 
Q 52.484375 -10.0625 46.328125 -16.140625 
Q 40.1875 -22.21875 28.8125 -22.21875 
Q 23.6875 -22.21875 19 -21.28125 
Q 14.3125 -20.359375 10.015625 -18.5 
L 10.015625 -7.625 
L 14.703125 -7.625 
Q 15.578125 -12.703125 18.84375 -15.046875 
Q 22.125 -17.390625 28.21875 -17.390625 
Q 36.140625 -17.390625 39.8125 -12.921875 
Q 43.5 -8.453125 43.5 1.125 
L 43.5 8.109375 
Q 40.875 3.21875 36.796875 0.890625 
Q 32.71875 -1.421875 26.703125 -1.421875 
Q 17.140625 -1.421875 11.0625 6.171875 
Q 4.984375 13.765625 4.984375 25.984375 
Q 4.984375 38.1875 11.03125 45.75 
Q 17.09375 53.328125 26.703125 53.328125 
Q 32.71875 53.328125 36.796875 51 
Q 40.875 48.6875 43.5 43.796875 
L 43.5 51.90625 
L 61.078125 51.90625 
L 61.078125 46.6875 
z
M 43.5 28.515625 
Q 43.5 37.84375 39.90625 42.765625 
Q 36.328125 47.703125 29.5 47.703125 
Q 22.5625 47.703125 19.015625 42.234375 
Q 15.484375 36.765625 15.484375 25.984375 
Q 15.484375 15.234375 19.015625 9.71875 
Q 22.5625 4.203125 29.5 4.203125 
Q 36.328125 4.203125 39.90625 9.109375 
Q 43.5 14.015625 43.5 23.390625 
z
" id="DejaVuSerif-103"/>
      <path d="M 39.796875 16.3125 
L 39.796875 27.296875 
L 28.21875 27.296875 
Q 21.53125 27.296875 18.25 24.40625 
Q 14.984375 21.53125 14.984375 15.578125 
Q 14.984375 10.15625 18.296875 6.984375 
Q 21.625 3.8125 27.296875 3.8125 
Q 32.90625 3.8125 36.34375 7.28125 
Q 39.796875 10.75 39.796875 16.3125 
z
M 48.78125 32.421875 
L 48.78125 5.171875 
L 56.78125 5.171875 
L 56.78125 0 
L 39.796875 0 
L 39.796875 5.609375 
Q 36.8125 2 32.90625 0.28125 
Q 29 -1.421875 23.78125 -1.421875 
Q 15.140625 -1.421875 10.0625 3.171875 
Q 4.984375 7.765625 4.984375 15.578125 
Q 4.984375 23.640625 10.796875 28.078125 
Q 16.609375 32.515625 27.203125 32.515625 
L 39.796875 32.515625 
L 39.796875 36.078125 
Q 39.796875 42 36.203125 45.234375 
Q 32.625 48.484375 26.125 48.484375 
Q 20.75 48.484375 17.578125 46.046875 
Q 14.40625 43.609375 13.625 38.8125 
L 8.984375 38.8125 
L 8.984375 49.3125 
Q 13.671875 51.3125 18.09375 52.3125 
Q 22.515625 53.328125 26.703125 53.328125 
Q 37.5 53.328125 43.140625 47.96875 
Q 48.78125 42.625 48.78125 32.421875 
z
" id="DejaVuSerif-97"/>
      <path d="M 51.8125 41.796875 
Q 54.390625 47.515625 58.421875 50.421875 
Q 62.453125 53.328125 67.828125 53.328125 
Q 75.984375 53.328125 79.984375 48.265625 
Q 83.984375 43.21875 83.984375 33.015625 
L 83.984375 5.171875 
L 92.09375 5.171875 
L 92.09375 0 
L 67.1875 0 
L 67.1875 5.171875 
L 75 5.171875 
L 75 31.984375 
Q 75 39.9375 72.65625 43.3125 
Q 70.3125 46.6875 64.890625 46.6875 
Q 58.890625 46.6875 55.734375 42.140625 
Q 52.59375 37.59375 52.59375 28.90625 
L 52.59375 5.171875 
L 60.40625 5.171875 
L 60.40625 0 
L 35.796875 0 
L 35.796875 5.171875 
L 43.609375 5.171875 
L 43.609375 32.328125 
Q 43.609375 40.09375 41.265625 43.390625 
Q 38.921875 46.6875 33.5 46.6875 
Q 27.484375 46.6875 24.328125 42.140625 
Q 21.1875 37.59375 21.1875 28.90625 
L 21.1875 5.171875 
L 29 5.171875 
L 29 0 
L 4.109375 0 
L 4.109375 5.171875 
L 12.203125 5.171875 
L 12.203125 46.78125 
L 3.609375 46.78125 
L 3.609375 51.90625 
L 21.1875 51.90625 
L 21.1875 42.671875 
Q 23.6875 47.859375 27.53125 50.59375 
Q 31.390625 53.328125 36.28125 53.328125 
Q 42.328125 53.328125 46.375 50.3125 
Q 50.4375 47.3125 51.8125 41.796875 
z
" id="DejaVuSerif-109"/>
     </defs>
     <use xlink:href="#DejaVuSerif-80"/>
     <use x="62.785156" xlink:href="#DejaVuSerif-101"/>
     <use x="121.964844" xlink:href="#DejaVuSerif-114"/>
     <use x="169.767578" xlink:href="#DejaVuSerif-105"/>
     <use x="201.75" xlink:href="#DejaVuSerif-111"/>
     <use x="261.955078" xlink:href="#DejaVuSerif-100"/>
     <use x="325.96875" xlink:href="#DejaVuSerif-111"/>
     <use x="386.173828" xlink:href="#DejaVuSerif-103"/>
     <use x="450.1875" xlink:href="#DejaVuSerif-114"/>
     <use x="497.990234" xlink:href="#DejaVuSerif-97"/>
     <use x="557.609375" xlink:href="#DejaVuSerif-109"/>
    </g>
   </g>
   <g id="legend_1">
    <g id="patch_7">
     <path d="M 419.648125 108.123071 
L 454.431875 108.123071 
Q 455.231875 108.123071 455.231875 107.323071 
L 455.231875 84.238071 
Q 455.231875 83.438071 454.431875 83.438071 
L 419.648125 83.438071 
Q 418.848125 83.438071 418.848125 84.238071 
L 418.848125 107.323071 
Q 418.848125 108.123071 419.648125 108.123071 
z
" style="fill:#ffffff;opacity:0.8;stroke:#cccccc;stroke-linejoin:miter;"/>
    </g>
    <g id="line2d_23">
     <path d="M 420.448125 86.677446 
L 428.448125 86.677446 
" style="fill:none;stroke:#808080;stroke-dasharray:5.55,2.4;stroke-dashoffset:0;stroke-width:1.5;"/>
    </g>
    <g id="text_9">
     <!-- 99.9% FAP -->
     <g transform="translate(431.648125 88.077446)scale(0.04 -0.04)">
      <defs>
       <path d="M 46.78125 32.671875 
Q 43.5 29 39.25 27.1875 
Q 35.015625 25.390625 29.6875 25.390625 
Q 18.84375 25.390625 12.5625 31.9375 
Q 6.296875 38.484375 6.296875 49.8125 
Q 6.296875 60.890625 13.109375 67.546875 
Q 19.921875 74.21875 31.296875 74.21875 
Q 43.65625 74.21875 50.265625 65.015625 
Q 56.890625 55.8125 56.890625 38.71875 
Q 56.890625 19.578125 49.015625 9.078125 
Q 41.15625 -1.421875 26.90625 -1.421875 
Q 23.046875 -1.421875 18.796875 -0.6875 
Q 14.546875 0.046875 10.109375 1.515625 
L 10.109375 13.625 
L 15.578125 13.625 
Q 16.21875 8.6875 19.390625 6.046875 
Q 22.5625 3.421875 27.875 3.421875 
Q 37.359375 3.421875 41.984375 10.5625 
Q 46.625 17.71875 46.78125 32.671875 
z
M 30.90625 69.390625 
Q 23.96875 69.390625 20.28125 64.328125 
Q 16.609375 59.28125 16.609375 49.8125 
Q 16.609375 40.328125 20.28125 35.25 
Q 23.96875 30.171875 30.90625 30.171875 
Q 37.84375 30.171875 41.53125 35.078125 
Q 45.21875 39.984375 45.21875 49.21875 
Q 45.21875 58.9375 41.5 64.15625 
Q 37.796875 69.390625 30.90625 69.390625 
z
" id="DejaVuSerif-57"/>
       <path d="M 22.40625 69.671875 
Q 18.109375 69.671875 15.6875 65.625 
Q 13.28125 61.578125 13.28125 54.296875 
Q 13.28125 47.125 15.75 43.015625 
Q 18.21875 38.921875 22.40625 38.921875 
Q 26.5625 38.921875 28.96875 43 
Q 31.390625 47.078125 31.390625 54.296875 
Q 31.390625 61.53125 28.96875 65.59375 
Q 26.5625 69.671875 22.40625 69.671875 
z
M 72.703125 33.890625 
Q 68.453125 33.890625 66.03125 29.78125 
Q 63.625 25.6875 63.625 18.40625 
Q 63.625 11.234375 66.0625 7.15625 
Q 68.5 3.078125 72.703125 3.078125 
Q 76.90625 3.078125 79.296875 7.15625 
Q 81.6875 11.234375 81.6875 18.40625 
Q 81.6875 25.640625 79.265625 29.765625 
Q 76.859375 33.890625 72.703125 33.890625 
z
M 72.703125 38.28125 
Q 80.421875 38.28125 84.953125 32.90625 
Q 89.5 27.546875 89.5 18.40625 
Q 89.5 9.28125 84.9375 3.921875 
Q 80.375 -1.421875 72.703125 -1.421875 
Q 64.890625 -1.421875 60.34375 3.921875 
Q 55.8125 9.28125 55.8125 18.40625 
Q 55.8125 27.59375 60.375 32.9375 
Q 64.9375 38.28125 72.703125 38.28125 
z
M 66.609375 74.21875 
L 74.03125 74.21875 
L 28.421875 -1.421875 
L 21 -1.421875 
z
M 22.3125 74.21875 
Q 30.03125 74.21875 34.609375 68.875 
Q 39.203125 63.53125 39.203125 54.390625 
Q 39.203125 45.171875 34.640625 39.84375 
Q 30.078125 34.515625 22.3125 34.515625 
Q 14.546875 34.515625 10.03125 39.859375 
Q 5.515625 45.21875 5.515625 54.390625 
Q 5.515625 63.484375 10.046875 68.84375 
Q 14.59375 74.21875 22.3125 74.21875 
z
" id="DejaVuSerif-37"/>
       <path d="M 5.515625 0 
L 5.515625 5.171875 
L 14.796875 5.171875 
L 14.796875 67.671875 
L 5.515625 67.671875 
L 5.515625 72.90625 
L 65.1875 72.90625 
L 65.1875 56.6875 
L 59.1875 56.6875 
L 59.1875 66.890625 
L 24.703125 66.890625 
L 24.703125 42.484375 
L 49.609375 42.484375 
L 49.609375 51.609375 
L 55.609375 51.609375 
L 55.609375 27.390625 
L 49.609375 27.390625 
L 49.609375 36.53125 
L 24.703125 36.53125 
L 24.703125 5.171875 
L 36.375 5.171875 
L 36.375 0 
z
" id="DejaVuSerif-70"/>
       <path d="M 20.015625 26.421875 
L 46.78125 26.421875 
L 33.40625 61.078125 
z
M -0.59375 0 
L -0.59375 5.171875 
L 5.8125 5.171875 
L 31.78125 72.90625 
L 39.984375 72.90625 
L 66.015625 5.171875 
L 73.1875 5.171875 
L 73.1875 0 
L 46.6875 0 
L 46.6875 5.171875 
L 54.78125 5.171875 
L 48.6875 21.1875 
L 18.015625 21.1875 
L 11.921875 5.171875 
L 19.921875 5.171875 
L 19.921875 0 
z
" id="DejaVuSerif-65"/>
      </defs>
      <use xlink:href="#DejaVuSerif-57"/>
      <use x="63.623047" xlink:href="#DejaVuSerif-57"/>
      <use x="127.246094" xlink:href="#DejaVuSerif-46"/>
      <use x="159.033203" xlink:href="#DejaVuSerif-57"/>
      <use x="222.65625" xlink:href="#DejaVuSerif-37"/>
      <use x="317.675781" xlink:href="#DejaVuSerif-32"/>
      <use x="349.462891" xlink:href="#DejaVuSerif-70"/>
      <use x="410.097656" xlink:href="#DejaVuSerif-65"/>
      <use x="482.314453" xlink:href="#DejaVuSerif-80"/>
     </g>
    </g>
    <g id="line2d_24">
     <path d="M 420.448125 92.548696 
L 428.448125 92.548696 
" style="fill:none;stroke:#a9a9a9;stroke-dasharray:5.55,2.4;stroke-dashoffset:0;stroke-width:1.5;"/>
    </g>
    <g id="text_10">
     <!-- 99.0% FAP -->
     <g transform="translate(431.648125 93.948696)scale(0.04 -0.04)">
      <use xlink:href="#DejaVuSerif-57"/>
      <use x="63.623047" xlink:href="#DejaVuSerif-57"/>
      <use x="127.246094" xlink:href="#DejaVuSerif-46"/>
      <use x="159.033203" xlink:href="#DejaVuSerif-48"/>
      <use x="222.65625" xlink:href="#DejaVuSerif-37"/>
      <use x="317.675781" xlink:href="#DejaVuSerif-32"/>
      <use x="349.462891" xlink:href="#DejaVuSerif-70"/>
      <use x="410.097656" xlink:href="#DejaVuSerif-65"/>
      <use x="482.314453" xlink:href="#DejaVuSerif-80"/>
     </g>
    </g>
    <g id="line2d_25">
     <path d="M 420.448125 98.419946 
L 428.448125 98.419946 
" style="fill:none;stroke:#c0c0c0;stroke-dasharray:5.55,2.4;stroke-dashoffset:0;stroke-width:1.5;"/>
    </g>
    <g id="text_11">
     <!-- 95.0% FAP -->
     <g transform="translate(431.648125 99.819946)scale(0.04 -0.04)">
      <defs>
       <path d="M 50.296875 72.90625 
L 50.296875 64.890625 
L 16.890625 64.890625 
L 16.890625 44 
Q 19.4375 45.75 22.828125 46.625 
Q 26.21875 47.515625 30.421875 47.515625 
Q 42.234375 47.515625 49.0625 40.96875 
Q 55.90625 34.421875 55.90625 23.09375 
Q 55.90625 11.53125 49 5.046875 
Q 42.09375 -1.421875 29.59375 -1.421875 
Q 24.5625 -1.421875 19.28125 -0.1875 
Q 14.015625 1.03125 8.5 3.515625 
L 8.5 17.671875 
L 14.015625 17.671875 
Q 14.453125 10.75 18.421875 7.078125 
Q 22.40625 3.421875 29.59375 3.421875 
Q 37.3125 3.421875 41.453125 8.5 
Q 45.609375 13.578125 45.609375 23.09375 
Q 45.609375 32.5625 41.484375 37.609375 
Q 37.359375 42.671875 29.59375 42.671875 
Q 25.203125 42.671875 21.84375 41.109375 
Q 18.5 39.546875 15.921875 36.28125 
L 11.71875 36.28125 
L 11.71875 72.90625 
z
" id="DejaVuSerif-53"/>
      </defs>
      <use xlink:href="#DejaVuSerif-57"/>
      <use x="63.623047" xlink:href="#DejaVuSerif-53"/>
      <use x="127.246094" xlink:href="#DejaVuSerif-46"/>
      <use x="159.033203" xlink:href="#DejaVuSerif-48"/>
      <use x="222.65625" xlink:href="#DejaVuSerif-37"/>
      <use x="317.675781" xlink:href="#DejaVuSerif-32"/>
      <use x="349.462891" xlink:href="#DejaVuSerif-70"/>
      <use x="410.097656" xlink:href="#DejaVuSerif-65"/>
      <use x="482.314453" xlink:href="#DejaVuSerif-80"/>
     </g>
    </g>
    <g id="line2d_26">
     <path d="M 420.448125 104.291196 
L 428.448125 104.291196 
" style="fill:none;stroke:#d3d3d3;stroke-dasharray:5.55,2.4;stroke-dashoffset:0;stroke-width:1.5;"/>
    </g>
    <g id="text_12">
     <!-- 90.0% FAP -->
     <g transform="translate(431.648125 105.691196)scale(0.04 -0.04)">
      <use xlink:href="#DejaVuSerif-57"/>
      <use x="63.623047" xlink:href="#DejaVuSerif-48"/>
      <use x="127.246094" xlink:href="#DejaVuSerif-46"/>
      <use x="159.033203" xlink:href="#DejaVuSerif-48"/>
      <use x="222.65625" xlink:href="#DejaVuSerif-37"/>
      <use x="317.675781" xlink:href="#DejaVuSerif-32"/>
      <use x="349.462891" xlink:href="#DejaVuSerif-70"/>
      <use x="410.097656" xlink:href="#DejaVuSerif-65"/>
      <use x="482.314453" xlink:href="#DejaVuSerif-80"/>
     </g>
    </g>
   </g>
  </g>
  <g id="axes_2">
   <g id="patch_8">
    <path d="M 57.6 150.089143 
L 206.4 150.089143 
L 206.4 41.472 
L 57.6 41.472 
z
" style="fill:#ffffff;"/>
   </g>
   <g id="PathCollection_1">
    <defs>
     <path d="M 0 0.707107 
C 0.187527 0.707107 0.367398 0.632602 0.5 0.5 
C 0.632602 0.367398 0.707107 0.187527 0.707107 0 
C 0.707107 -0.187527 0.632602 -0.367398 0.5 -0.5 
C 0.367398 -0.632602 0.187527 -0.707107 0 -0.707107 
C -0.187527 -0.707107 -0.367398 -0.632602 -0.5 -0.5 
C -0.632602 -0.367398 -0.707107 -0.187527 -0.707107 0 
C -0.707107 0.187527 -0.632602 0.367398 -0.5 0.5 
C -0.367398 0.632602 -0.187527 0.707107 0 0.707107 
z
" id="m2150724a85" style="stroke:#1f77b4;"/>
    </defs>
    <g clip-path="url(#p71bb089763)">
     <use style="fill:#1f77b4;stroke:#1f77b4;" x="66.294654" xlink:href="#m2150724a85" y="98.57267"/>
     <use style="fill:#1f77b4;stroke:#1f77b4;" x="66.295596" xlink:href="#m2150724a85" y="102.759702"/>
     <use style="fill:#1f77b4;stroke:#1f77b4;" x="117.011601" xlink:href="#m2150724a85" y="79.229359"/>
     <use style="fill:#1f77b4;stroke:#1f77b4;" x="117.012543" xlink:href="#m2150724a85" y="71.739051"/>
     <use style="fill:#1f77b4;stroke:#1f77b4;" x="121.258929" xlink:href="#m2150724a85" y="80.738865"/>
     <use style="fill:#1f77b4;stroke:#1f77b4;" x="127.297831" xlink:href="#m2150724a85" y="105.272005"/>
     <use style="fill:#1f77b4;stroke:#1f77b4;" x="127.304377" xlink:href="#m2150724a85" y="115.348384"/>
     <use style="fill:#1f77b4;stroke:#1f77b4;" x="107.804031" xlink:href="#m2150724a85" y="50.102744"/>
     <use style="fill:#1f77b4;stroke:#1f77b4;" x="109.836536" xlink:href="#m2150724a85" y="67.079355"/>
     <use style="fill:#1f77b4;stroke:#1f77b4;" x="109.837454" xlink:href="#m2150724a85" y="95.348775"/>
     <use style="fill:#1f77b4;stroke:#1f77b4;" x="113.948386" xlink:href="#m2150724a85" y="58.487734"/>
     <use style="fill:#1f77b4;stroke:#1f77b4;" x="113.949327" xlink:href="#m2150724a85" y="46.409143"/>
     <use style="fill:#1f77b4;stroke:#1f77b4;" x="117.953157" xlink:href="#m2150724a85" y="54.016319"/>
     <use style="fill:#1f77b4;stroke:#1f77b4;" x="117.954099" xlink:href="#m2150724a85" y="66.436339"/>
     <use style="fill:#1f77b4;stroke:#1f77b4;" x="119.967835" xlink:href="#m2150724a85" y="90.02077"/>
     <use style="fill:#1f77b4;stroke:#1f77b4;" x="119.968777" xlink:href="#m2150724a85" y="87.856113"/>
     <use style="fill:#1f77b4;stroke:#1f77b4;" x="122.111163" xlink:href="#m2150724a85" y="58.062879"/>
     <use style="fill:#1f77b4;stroke:#1f77b4;" x="122.112081" xlink:href="#m2150724a85" y="66.962487"/>
     <use style="fill:#1f77b4;stroke:#1f77b4;" x="124.05809" xlink:href="#m2150724a85" y="52.262753"/>
     <use style="fill:#1f77b4;stroke:#1f77b4;" x="124.059032" xlink:href="#m2150724a85" y="55.335251"/>
     <use style="fill:#1f77b4;stroke:#1f77b4;" x="126.090807" xlink:href="#m2150724a85" y="63.326414"/>
     <use style="fill:#1f77b4;stroke:#1f77b4;" x="126.091726" xlink:href="#m2150724a85" y="47.375116"/>
     <use style="fill:#1f77b4;stroke:#1f77b4;" x="72.085537" xlink:href="#m2150724a85" y="85.636825"/>
     <use style="fill:#1f77b4;stroke:#1f77b4;" x="86.211717" xlink:href="#m2150724a85" y="126.934752"/>
     <use style="fill:#1f77b4;stroke:#1f77b4;" x="88.237111" xlink:href="#m2150724a85" y="86.108342"/>
     <use style="fill:#1f77b4;stroke:#1f77b4;" x="90.27223" xlink:href="#m2150724a85" y="48.992255"/>
     <use style="fill:#1f77b4;stroke:#1f77b4;" x="92.303133" xlink:href="#m2150724a85" y="53.647906"/>
     <use style="fill:#1f77b4;stroke:#1f77b4;" x="94.346354" xlink:href="#m2150724a85" y="57.226934"/>
     <use style="fill:#1f77b4;stroke:#1f77b4;" x="118.792674" xlink:href="#m2150724a85" y="65.342511"/>
     <use style="fill:#1f77b4;stroke:#1f77b4;" x="64.363636" xlink:href="#m2150724a85" y="131.574828"/>
     <use style="fill:#1f77b4;stroke:#1f77b4;" x="66.695145" xlink:href="#m2150724a85" y="100.937621"/>
     <use style="fill:#1f77b4;stroke:#1f77b4;" x="68.767331" xlink:href="#m2150724a85" y="90.630404"/>
     <use style="fill:#1f77b4;stroke:#1f77b4;" x="82.96795" xlink:href="#m2150724a85" y="88.498043"/>
     <use style="fill:#1f77b4;stroke:#1f77b4;" x="89.110844" xlink:href="#m2150724a85" y="66.643574"/>
     <use style="fill:#1f77b4;stroke:#1f77b4;" x="97.748103" xlink:href="#m2150724a85" y="79.762449"/>
     <use style="fill:#1f77b4;stroke:#1f77b4;" x="105.886648" xlink:href="#m2150724a85" y="82.535593"/>
     <use style="fill:#1f77b4;stroke:#1f77b4;" x="126.217987" xlink:href="#m2150724a85" y="80.166598"/>
     <use style="fill:#1f77b4;stroke:#1f77b4;" x="70.395832" xlink:href="#m2150724a85" y="145.152"/>
     <use style="fill:#1f77b4;stroke:#1f77b4;" x="77.605846" xlink:href="#m2150724a85" y="66.292427"/>
     <use style="fill:#1f77b4;stroke:#1f77b4;" x="120.229722" xlink:href="#m2150724a85" y="68.884775"/>
     <use style="fill:#1f77b4;stroke:#1f77b4;" x="120.23064" xlink:href="#m2150724a85" y="81.783133"/>
     <use style="fill:#1f77b4;stroke:#1f77b4;" x="122.21242" xlink:href="#m2150724a85" y="75.893786"/>
     <use style="fill:#1f77b4;stroke:#1f77b4;" x="122.213339" xlink:href="#m2150724a85" y="69.982044"/>
     <use style="fill:#1f77b4;stroke:#1f77b4;" x="124.159324" xlink:href="#m2150724a85" y="83.879818"/>
     <use style="fill:#1f77b4;stroke:#1f77b4;" x="124.160243" xlink:href="#m2150724a85" y="72.859319"/>
    </g>
   </g>
   <g id="PathCollection_2">
    <g clip-path="url(#p71bb089763)">
     <use style="fill:#1f77b4;stroke:#1f77b4;" x="138.62664" xlink:href="#m2150724a85" y="98.57267"/>
     <use style="fill:#1f77b4;stroke:#1f77b4;" x="138.627582" xlink:href="#m2150724a85" y="102.759702"/>
     <use style="fill:#1f77b4;stroke:#1f77b4;" x="189.343588" xlink:href="#m2150724a85" y="79.229359"/>
     <use style="fill:#1f77b4;stroke:#1f77b4;" x="189.34453" xlink:href="#m2150724a85" y="71.739051"/>
     <use style="fill:#1f77b4;stroke:#1f77b4;" x="193.590915" xlink:href="#m2150724a85" y="80.738865"/>
     <use style="fill:#1f77b4;stroke:#1f77b4;" x="199.629817" xlink:href="#m2150724a85" y="105.272005"/>
     <use style="fill:#1f77b4;stroke:#1f77b4;" x="199.636364" xlink:href="#m2150724a85" y="115.348384"/>
     <use style="fill:#1f77b4;stroke:#1f77b4;" x="180.136017" xlink:href="#m2150724a85" y="50.102744"/>
     <use style="fill:#1f77b4;stroke:#1f77b4;" x="182.168522" xlink:href="#m2150724a85" y="67.079355"/>
     <use style="fill:#1f77b4;stroke:#1f77b4;" x="182.169441" xlink:href="#m2150724a85" y="95.348775"/>
     <use style="fill:#1f77b4;stroke:#1f77b4;" x="186.280372" xlink:href="#m2150724a85" y="58.487734"/>
     <use style="fill:#1f77b4;stroke:#1f77b4;" x="186.281314" xlink:href="#m2150724a85" y="46.409143"/>
     <use style="fill:#1f77b4;stroke:#1f77b4;" x="190.285143" xlink:href="#m2150724a85" y="54.016319"/>
     <use style="fill:#1f77b4;stroke:#1f77b4;" x="190.286085" xlink:href="#m2150724a85" y="66.436339"/>
     <use style="fill:#1f77b4;stroke:#1f77b4;" x="192.299822" xlink:href="#m2150724a85" y="90.02077"/>
     <use style="fill:#1f77b4;stroke:#1f77b4;" x="192.300763" xlink:href="#m2150724a85" y="87.856113"/>
     <use style="fill:#1f77b4;stroke:#1f77b4;" x="194.443149" xlink:href="#m2150724a85" y="58.062879"/>
     <use style="fill:#1f77b4;stroke:#1f77b4;" x="194.444067" xlink:href="#m2150724a85" y="66.962487"/>
     <use style="fill:#1f77b4;stroke:#1f77b4;" x="196.390076" xlink:href="#m2150724a85" y="52.262753"/>
     <use style="fill:#1f77b4;stroke:#1f77b4;" x="196.391019" xlink:href="#m2150724a85" y="55.335251"/>
     <use style="fill:#1f77b4;stroke:#1f77b4;" x="198.422794" xlink:href="#m2150724a85" y="63.326414"/>
     <use style="fill:#1f77b4;stroke:#1f77b4;" x="198.423712" xlink:href="#m2150724a85" y="47.375116"/>
     <use style="fill:#1f77b4;stroke:#1f77b4;" x="144.417523" xlink:href="#m2150724a85" y="85.636825"/>
     <use style="fill:#1f77b4;stroke:#1f77b4;" x="158.543703" xlink:href="#m2150724a85" y="126.934752"/>
     <use style="fill:#1f77b4;stroke:#1f77b4;" x="160.569097" xlink:href="#m2150724a85" y="86.108342"/>
     <use style="fill:#1f77b4;stroke:#1f77b4;" x="162.604216" xlink:href="#m2150724a85" y="48.992255"/>
     <use style="fill:#1f77b4;stroke:#1f77b4;" x="164.63512" xlink:href="#m2150724a85" y="53.647906"/>
     <use style="fill:#1f77b4;stroke:#1f77b4;" x="166.67834" xlink:href="#m2150724a85" y="57.226934"/>
     <use style="fill:#1f77b4;stroke:#1f77b4;" x="191.12466" xlink:href="#m2150724a85" y="65.342511"/>
     <use style="fill:#1f77b4;stroke:#1f77b4;" x="136.695623" xlink:href="#m2150724a85" y="131.574828"/>
     <use style="fill:#1f77b4;stroke:#1f77b4;" x="139.027131" xlink:href="#m2150724a85" y="100.937621"/>
     <use style="fill:#1f77b4;stroke:#1f77b4;" x="141.099317" xlink:href="#m2150724a85" y="90.630404"/>
     <use style="fill:#1f77b4;stroke:#1f77b4;" x="155.299936" xlink:href="#m2150724a85" y="88.498043"/>
     <use style="fill:#1f77b4;stroke:#1f77b4;" x="161.442831" xlink:href="#m2150724a85" y="66.643574"/>
     <use style="fill:#1f77b4;stroke:#1f77b4;" x="170.080089" xlink:href="#m2150724a85" y="79.762449"/>
     <use style="fill:#1f77b4;stroke:#1f77b4;" x="178.218635" xlink:href="#m2150724a85" y="82.535593"/>
     <use style="fill:#1f77b4;stroke:#1f77b4;" x="198.549973" xlink:href="#m2150724a85" y="80.166598"/>
     <use style="fill:#1f77b4;stroke:#1f77b4;" x="142.727818" xlink:href="#m2150724a85" y="145.152"/>
     <use style="fill:#1f77b4;stroke:#1f77b4;" x="149.937832" xlink:href="#m2150724a85" y="66.292427"/>
     <use style="fill:#1f77b4;stroke:#1f77b4;" x="192.561708" xlink:href="#m2150724a85" y="68.884775"/>
     <use style="fill:#1f77b4;stroke:#1f77b4;" x="192.562626" xlink:href="#m2150724a85" y="81.783133"/>
     <use style="fill:#1f77b4;stroke:#1f77b4;" x="194.544406" xlink:href="#m2150724a85" y="75.893786"/>
     <use style="fill:#1f77b4;stroke:#1f77b4;" x="194.545325" xlink:href="#m2150724a85" y="69.982044"/>
     <use style="fill:#1f77b4;stroke:#1f77b4;" x="196.49131" xlink:href="#m2150724a85" y="83.879818"/>
     <use style="fill:#1f77b4;stroke:#1f77b4;" x="196.492229" xlink:href="#m2150724a85" y="72.859319"/>
    </g>
   </g>
   <g id="matplotlib.axis_3">
    <g id="xtick_19">
     <g id="line2d_27">
      <g>
       <use style="stroke:#000000;stroke-width:0.8;" x="128.910682" xlink:href="#mb4f57e9068" y="150.089143"/>
      </g>
     </g>
     <g id="text_13">
      <!-- 1 -->
      <g transform="translate(125.729432 164.68758)scale(0.1 -0.1)">
       <use xlink:href="#DejaVuSerif-49"/>
      </g>
     </g>
    </g>
    <g id="xtick_20">
     <g id="line2d_28">
      <g>
       <use style="stroke:#000000;stroke-width:0.8;" x="201.242668" xlink:href="#mb4f57e9068" y="150.089143"/>
      </g>
     </g>
     <g id="text_14">
      <!-- 2 -->
      <g transform="translate(198.061418 164.68758)scale(0.1 -0.1)">
       <use xlink:href="#DejaVuSerif-50"/>
      </g>
     </g>
    </g>
    <g id="text_15">
     <!-- Phase (P = 35.55 d) -->
     <g transform="translate(81.582812 178.365705)scale(0.1 -0.1)">
      <defs>
       <path d="M 4.109375 0 
L 4.109375 5.171875 
L 12.203125 5.171875 
L 12.203125 70.796875 
L 3.609375 70.796875 
L 3.609375 75.984375 
L 21.1875 75.984375 
L 21.1875 42.671875 
Q 23.6875 47.953125 27.65625 50.640625 
Q 31.640625 53.328125 36.921875 53.328125 
Q 45.515625 53.328125 49.5625 48.390625 
Q 53.609375 43.453125 53.609375 33.015625 
L 53.609375 5.171875 
L 61.625 5.171875 
L 61.625 0 
L 36.8125 0 
L 36.8125 5.171875 
L 44.578125 5.171875 
L 44.578125 30.171875 
Q 44.578125 39.703125 42.25 43.1875 
Q 39.9375 46.6875 33.984375 46.6875 
Q 27.734375 46.6875 24.453125 42.140625 
Q 21.1875 37.59375 21.1875 28.90625 
L 21.1875 5.171875 
L 29 5.171875 
L 29 0 
z
" id="DejaVuSerif-104"/>
       <path d="M 5.609375 2.875 
L 5.609375 14.984375 
L 10.796875 14.984375 
Q 10.984375 9.1875 14.421875 6.296875 
Q 17.875 3.421875 24.609375 3.421875 
Q 30.671875 3.421875 33.84375 5.6875 
Q 37.015625 7.953125 37.015625 12.3125 
Q 37.015625 15.71875 34.6875 17.8125 
Q 32.375 19.921875 24.90625 22.3125 
L 18.40625 24.515625 
Q 11.71875 26.65625 8.71875 29.875 
Q 5.71875 33.109375 5.71875 38.09375 
Q 5.71875 45.21875 10.9375 49.265625 
Q 16.15625 53.328125 25.390625 53.328125 
Q 29.5 53.328125 34.03125 52.25 
Q 38.578125 51.171875 43.40625 49.125 
L 43.40625 37.796875 
L 38.234375 37.796875 
Q 38.03125 42.828125 34.703125 45.65625 
Q 31.390625 48.484375 25.6875 48.484375 
Q 20.015625 48.484375 17.109375 46.484375 
Q 14.203125 44.484375 14.203125 40.484375 
Q 14.203125 37.203125 16.40625 35.21875 
Q 18.609375 33.25 25.203125 31.203125 
L 32.328125 29 
Q 39.703125 26.703125 42.9375 23.265625 
Q 46.1875 19.828125 46.1875 14.40625 
Q 46.1875 7.03125 40.546875 2.796875 
Q 34.90625 -1.421875 25 -1.421875 
Q 19.96875 -1.421875 15.1875 -0.34375 
Q 10.40625 0.734375 5.609375 2.875 
z
" id="DejaVuSerif-115"/>
       <path d="M 31.890625 -15.578125 
Q 20.015625 -10.25 13.953125 1.296875 
Q 7.90625 12.84375 7.90625 30.171875 
Q 7.90625 47.5625 13.953125 59.109375 
Q 20.015625 70.65625 31.890625 75.984375 
L 31.890625 71.1875 
Q 24.359375 66.015625 21.09375 56.609375 
Q 17.828125 47.21875 17.828125 30.171875 
Q 17.828125 13.1875 21.09375 3.78125 
Q 24.359375 -5.609375 31.890625 -10.796875 
z
" id="DejaVuSerif-40"/>
       <path d="M 10.59375 45.21875 
L 73.1875 45.21875 
L 73.1875 37.40625 
L 10.59375 37.40625 
z
M 10.59375 25.296875 
L 73.1875 25.296875 
L 73.1875 17.484375 
L 10.59375 17.484375 
z
" id="DejaVuSerif-61"/>
       <path d="M 9.71875 69.828125 
Q 15.4375 71.96875 20.671875 73.09375 
Q 25.921875 74.21875 30.515625 74.21875 
Q 41.21875 74.21875 47.21875 69.59375 
Q 53.21875 64.984375 53.21875 56.78125 
Q 53.21875 50.203125 49.0625 45.78125 
Q 44.921875 41.359375 37.3125 39.796875 
Q 46.296875 38.53125 51.25 33.28125 
Q 56.203125 28.03125 56.203125 19.671875 
Q 56.203125 9.46875 49.34375 4.015625 
Q 42.484375 -1.421875 29.59375 -1.421875 
Q 23.875 -1.421875 18.421875 -0.1875 
Q 12.984375 1.03125 7.625 3.515625 
L 7.625 17.671875 
L 13.09375 17.671875 
Q 13.578125 10.640625 17.828125 7.03125 
Q 22.078125 3.421875 29.78125 3.421875 
Q 37.25 3.421875 41.578125 7.734375 
Q 45.90625 12.0625 45.90625 19.578125 
Q 45.90625 28.171875 41.453125 32.59375 
Q 37.015625 37.015625 28.421875 37.015625 
L 23.78125 37.015625 
L 23.78125 42 
L 26.21875 42 
Q 34.765625 42 39.03125 45.53125 
Q 43.3125 49.078125 43.3125 56.203125 
Q 43.3125 62.59375 39.796875 65.984375 
Q 36.28125 69.390625 29.6875 69.390625 
Q 23.09375 69.390625 19.453125 66.265625 
Q 15.828125 63.140625 15.1875 56.984375 
L 9.71875 56.984375 
z
" id="DejaVuSerif-51"/>
       <path d="M 7.078125 -15.578125 
L 7.078125 -10.796875 
Q 14.59375 -5.609375 17.890625 3.78125 
Q 21.1875 13.1875 21.1875 30.171875 
Q 21.1875 47.21875 17.890625 56.609375 
Q 14.59375 66.015625 7.078125 71.1875 
L 7.078125 75.984375 
Q 19 70.65625 25.046875 59.109375 
Q 31.109375 47.5625 31.109375 30.171875 
Q 31.109375 12.84375 25.046875 1.296875 
Q 19 -10.25 7.078125 -15.578125 
z
" id="DejaVuSerif-41"/>
      </defs>
      <use xlink:href="#DejaVuSerif-80"/>
      <use x="67.285156" xlink:href="#DejaVuSerif-104"/>
      <use x="131.689453" xlink:href="#DejaVuSerif-97"/>
      <use x="191.308594" xlink:href="#DejaVuSerif-115"/>
      <use x="242.626953" xlink:href="#DejaVuSerif-101"/>
      <use x="301.806641" xlink:href="#DejaVuSerif-32"/>
      <use x="333.59375" xlink:href="#DejaVuSerif-40"/>
      <use x="372.607422" xlink:href="#DejaVuSerif-80"/>
      <use x="439.892578" xlink:href="#DejaVuSerif-32"/>
      <use x="471.679688" xlink:href="#DejaVuSerif-61"/>
      <use x="555.46875" xlink:href="#DejaVuSerif-32"/>
      <use x="587.255859" xlink:href="#DejaVuSerif-51"/>
      <use x="650.878906" xlink:href="#DejaVuSerif-53"/>
      <use x="714.501953" xlink:href="#DejaVuSerif-46"/>
      <use x="746.289062" xlink:href="#DejaVuSerif-53"/>
      <use x="809.912109" xlink:href="#DejaVuSerif-53"/>
      <use x="873.535156" xlink:href="#DejaVuSerif-32"/>
      <use x="905.322266" xlink:href="#DejaVuSerif-100"/>
      <use x="969.335938" xlink:href="#DejaVuSerif-41"/>
     </g>
    </g>
   </g>
   <g id="matplotlib.axis_4">
    <g id="ytick_4">
     <g id="line2d_29">
      <g>
       <use style="stroke:#000000;stroke-width:0.8;" x="57.6" xlink:href="#mee4019a208" y="70.746999"/>
      </g>
     </g>
     <g id="text_16">
      <!-- 13.80 -->
      <g transform="translate(21.971875 74.546218)scale(0.1 -0.1)">
       <defs>
        <path d="M 46.578125 19.921875 
Q 46.578125 27.734375 42.6875 32.046875 
Q 38.8125 36.375 31.78125 36.375 
Q 24.75 36.375 20.875 32.046875 
Q 17 27.734375 17 19.921875 
Q 17 12.0625 20.875 7.734375 
Q 24.75 3.421875 31.78125 3.421875 
Q 38.8125 3.421875 42.6875 7.734375 
Q 46.578125 12.0625 46.578125 19.921875 
z
M 44.578125 55.328125 
Q 44.578125 61.96875 41.203125 65.671875 
Q 37.84375 69.390625 31.78125 69.390625 
Q 25.78125 69.390625 22.390625 65.671875 
Q 19 61.96875 19 55.328125 
Q 19 48.640625 22.390625 44.921875 
Q 25.78125 41.21875 31.78125 41.21875 
Q 37.84375 41.21875 41.203125 44.921875 
Q 44.578125 48.640625 44.578125 55.328125 
z
M 39.3125 38.8125 
Q 47.609375 37.703125 52.25 32.6875 
Q 56.890625 27.6875 56.890625 19.921875 
Q 56.890625 9.671875 50.390625 4.125 
Q 43.890625 -1.421875 31.78125 -1.421875 
Q 19.734375 -1.421875 13.203125 4.125 
Q 6.6875 9.671875 6.6875 19.921875 
Q 6.6875 27.6875 11.328125 32.6875 
Q 15.96875 37.703125 24.3125 38.8125 
Q 16.9375 40.140625 13 44.40625 
Q 9.078125 48.6875 9.078125 55.328125 
Q 9.078125 64.109375 15.125 69.15625 
Q 21.1875 74.21875 31.78125 74.21875 
Q 42.390625 74.21875 48.4375 69.15625 
Q 54.5 64.109375 54.5 55.328125 
Q 54.5 48.6875 50.5625 44.40625 
Q 46.625 40.140625 39.3125 38.8125 
z
" id="DejaVuSerif-56"/>
       </defs>
       <use xlink:href="#DejaVuSerif-49"/>
       <use x="63.623047" xlink:href="#DejaVuSerif-51"/>
       <use x="127.246094" xlink:href="#DejaVuSerif-46"/>
       <use x="159.033203" xlink:href="#DejaVuSerif-56"/>
       <use x="222.65625" xlink:href="#DejaVuSerif-48"/>
      </g>
     </g>
    </g>
    <g id="ytick_5">
     <g id="line2d_30">
      <g>
       <use style="stroke:#000000;stroke-width:0.8;" x="57.6" xlink:href="#mee4019a208" y="100.929894"/>
      </g>
     </g>
     <g id="text_17">
      <!-- 13.85 -->
      <g transform="translate(21.971875 104.729113)scale(0.1 -0.1)">
       <use xlink:href="#DejaVuSerif-49"/>
       <use x="63.623047" xlink:href="#DejaVuSerif-51"/>
       <use x="127.246094" xlink:href="#DejaVuSerif-46"/>
       <use x="159.033203" xlink:href="#DejaVuSerif-56"/>
       <use x="222.65625" xlink:href="#DejaVuSerif-53"/>
      </g>
     </g>
    </g>
    <g id="ytick_6">
     <g id="line2d_31">
      <g>
       <use style="stroke:#000000;stroke-width:0.8;" x="57.6" xlink:href="#mee4019a208" y="131.112789"/>
      </g>
     </g>
     <g id="text_18">
      <!-- 13.90 -->
      <g transform="translate(21.971875 134.912007)scale(0.1 -0.1)">
       <use xlink:href="#DejaVuSerif-49"/>
       <use x="63.623047" xlink:href="#DejaVuSerif-51"/>
       <use x="127.246094" xlink:href="#DejaVuSerif-46"/>
       <use x="159.033203" xlink:href="#DejaVuSerif-57"/>
       <use x="222.65625" xlink:href="#DejaVuSerif-48"/>
      </g>
     </g>
    </g>
    <g id="text_19">
     <!-- Mag -->
     <g transform="translate(15.75 107.082134)rotate(-90)scale(0.1 -0.1)">
      <defs>
       <path d="M 5.515625 0 
L 5.515625 5.171875 
L 14.796875 5.171875 
L 14.796875 67.671875 
L 4.984375 67.671875 
L 4.984375 72.90625 
L 26.21875 72.90625 
L 51.8125 21 
L 77.390625 72.90625 
L 97.3125 72.90625 
L 97.3125 67.671875 
L 87.59375 67.671875 
L 87.59375 5.171875 
L 96.921875 5.171875 
L 96.921875 0 
L 68.40625 0 
L 68.40625 5.171875 
L 77.6875 5.171875 
L 77.6875 61.53125 
L 52.6875 10.6875 
L 45.796875 10.6875 
L 20.796875 61.53125 
L 20.796875 5.171875 
L 30.078125 5.171875 
L 30.078125 0 
z
" id="DejaVuSerif-77"/>
      </defs>
      <use xlink:href="#DejaVuSerif-77"/>
      <use x="102.392578" xlink:href="#DejaVuSerif-97"/>
      <use x="162.011719" xlink:href="#DejaVuSerif-103"/>
     </g>
    </g>
   </g>
   <g id="patch_9">
    <path d="M 57.6 150.089143 
L 57.6 41.472 
" style="fill:none;stroke:#000000;stroke-linecap:square;stroke-linejoin:miter;stroke-width:0.8;"/>
   </g>
   <g id="patch_10">
    <path d="M 206.4 150.089143 
L 206.4 41.472 
" style="fill:none;stroke:#000000;stroke-linecap:square;stroke-linejoin:miter;stroke-width:0.8;"/>
   </g>
   <g id="patch_11">
    <path d="M 57.6 150.089143 
L 206.4 150.089143 
" style="fill:none;stroke:#000000;stroke-linecap:square;stroke-linejoin:miter;stroke-width:0.8;"/>
   </g>
   <g id="patch_12">
    <path d="M 57.6 41.472 
L 206.4 41.472 
" style="fill:none;stroke:#000000;stroke-linecap:square;stroke-linejoin:miter;stroke-width:0.8;"/>
   </g>
   <g id="text_20">
    <!-- Folded Light Curve -->
    <g transform="translate(83.086719 35.472)scale(0.1 -0.1)">
     <defs>
      <path d="M 20.515625 5.171875 
L 29 5.171875 
L 29 0 
L 2.875 0 
L 2.875 5.171875 
L 11.53125 5.171875 
L 11.53125 70.796875 
L 2.875 70.796875 
L 2.875 75.984375 
L 20.515625 75.984375 
z
" id="DejaVuSerif-108"/>
      <path d="M 5.515625 0 
L 5.515625 5.171875 
L 14.796875 5.171875 
L 14.796875 67.671875 
L 5.515625 67.671875 
L 5.515625 72.90625 
L 33.984375 72.90625 
L 33.984375 67.671875 
L 24.703125 67.671875 
L 24.703125 6 
L 58.015625 6 
L 58.015625 18.21875 
L 64.015625 18.21875 
L 64.015625 0 
z
" id="DejaVuSerif-76"/>
      <path d="M 10.796875 46.6875 
L 2.875 46.6875 
L 2.875 51.90625 
L 10.796875 51.90625 
L 10.796875 68.015625 
L 19.828125 68.015625 
L 19.828125 51.90625 
L 36.71875 51.90625 
L 36.71875 46.6875 
L 19.828125 46.6875 
L 19.828125 13.71875 
Q 19.828125 7.125 21.09375 5.265625 
Q 22.359375 3.421875 25.78125 3.421875 
Q 29.296875 3.421875 30.90625 5.484375 
Q 32.515625 7.5625 32.625 12.203125 
L 39.40625 12.203125 
Q 39.015625 5.125 35.546875 1.84375 
Q 32.078125 -1.421875 25 -1.421875 
Q 17.234375 -1.421875 14.015625 2.015625 
Q 10.796875 5.46875 10.796875 13.71875 
z
" id="DejaVuSerif-116"/>
      <path d="M 70.515625 19.28125 
Q 67.28125 9.078125 59.6875 3.828125 
Q 52.09375 -1.421875 40.484375 -1.421875 
Q 33.34375 -1.421875 27.234375 1.015625 
Q 21.140625 3.46875 16.40625 8.203125 
Q 10.9375 13.671875 8.265625 20.625 
Q 5.609375 27.59375 5.609375 36.375 
Q 5.609375 53.375 15.421875 63.796875 
Q 25.25 74.21875 41.3125 74.21875 
Q 47.265625 74.21875 54 72.65625 
Q 60.75 71.09375 68.5 67.921875 
L 68.5 51.125 
L 62.984375 51.125 
Q 61.1875 60.296875 55.734375 64.640625 
Q 50.296875 69 40.484375 69 
Q 28.8125 69 22.796875 60.71875 
Q 16.796875 52.4375 16.796875 36.375 
Q 16.796875 20.359375 22.796875 12.078125 
Q 28.8125 3.8125 40.484375 3.8125 
Q 48.640625 3.8125 53.90625 7.6875 
Q 59.1875 11.578125 61.53125 19.28125 
z
" id="DejaVuSerif-67"/>
      <path d="M 35.40625 51.90625 
L 52.203125 51.90625 
L 52.203125 5.171875 
L 60.6875 5.171875 
L 60.6875 0 
L 43.21875 0 
L 43.21875 9.1875 
Q 40.71875 4 36.765625 1.28125 
Q 32.8125 -1.421875 27.59375 -1.421875 
Q 18.953125 -1.421875 14.875 3.484375 
Q 10.796875 8.40625 10.796875 18.890625 
L 10.796875 46.6875 
L 2.6875 46.6875 
L 2.6875 51.90625 
L 19.828125 51.90625 
L 19.828125 21.6875 
Q 19.828125 12.203125 22.140625 8.6875 
Q 24.46875 5.171875 30.421875 5.171875 
Q 36.671875 5.171875 39.9375 9.765625 
Q 43.21875 14.359375 43.21875 23.09375 
L 43.21875 46.6875 
L 35.40625 46.6875 
z
" id="DejaVuSerif-117"/>
      <path d="M 24.703125 0 
L 5.609375 46.6875 
L -0.296875 46.6875 
L -0.296875 51.90625 
L 23.578125 51.90625 
L 23.578125 46.6875 
L 15.28125 46.6875 
L 29.890625 10.984375 
L 44.484375 46.6875 
L 36.71875 46.6875 
L 36.71875 51.90625 
L 56.203125 51.90625 
L 56.203125 46.6875 
L 50.390625 46.6875 
L 31.296875 0 
z
" id="DejaVuSerif-118"/>
     </defs>
     <use xlink:href="#DejaVuSerif-70"/>
     <use x="63.884766" xlink:href="#DejaVuSerif-111"/>
     <use x="124.089844" xlink:href="#DejaVuSerif-108"/>
     <use x="156.072266" xlink:href="#DejaVuSerif-100"/>
     <use x="220.085938" xlink:href="#DejaVuSerif-101"/>
     <use x="279.265625" xlink:href="#DejaVuSerif-100"/>
     <use x="343.279297" xlink:href="#DejaVuSerif-32"/>
     <use x="375.066406" xlink:href="#DejaVuSerif-76"/>
     <use x="441.472656" xlink:href="#DejaVuSerif-105"/>
     <use x="473.455078" xlink:href="#DejaVuSerif-103"/>
     <use x="537.46875" xlink:href="#DejaVuSerif-104"/>
     <use x="601.873047" xlink:href="#DejaVuSerif-116"/>
     <use x="642.058594" xlink:href="#DejaVuSerif-32"/>
     <use x="673.845703" xlink:href="#DejaVuSerif-67"/>
     <use x="750.359375" xlink:href="#DejaVuSerif-117"/>
     <use x="814.763672" xlink:href="#DejaVuSerif-114"/>
     <use x="862.566406" xlink:href="#DejaVuSerif-118"/>
     <use x="919.060547" xlink:href="#DejaVuSerif-101"/>
    </g>
   </g>
  </g>
  <g id="axes_3">
   <g id="patch_13">
    <path d="M 57.6 307.584 
L 414.72 307.584 
L 414.72 198.966857 
L 57.6 198.966857 
z
" style="fill:#ffffff;"/>
   </g>
   <g id="PathCollection_3">
    <g clip-path="url(#p72e94d4d28)">
     <use style="fill:#1f77b4;stroke:#1f77b4;" x="73.832727" xlink:href="#m2150724a85" y="255.694588"/>
     <use style="fill:#1f77b4;stroke:#1f77b4;" x="73.833119" xlink:href="#m2150724a85" y="259.338673"/>
     <use style="fill:#1f77b4;stroke:#1f77b4;" x="94.910293" xlink:href="#m2150724a85" y="238.859589"/>
     <use style="fill:#1f77b4;stroke:#1f77b4;" x="94.910684" xlink:href="#m2150724a85" y="232.340575"/>
     <use style="fill:#1f77b4;stroke:#1f77b4;" x="96.675449" xlink:href="#m2150724a85" y="240.173353"/>
     <use style="fill:#1f77b4;stroke:#1f77b4;" x="99.185169" xlink:href="#m2150724a85" y="261.525198"/>
     <use style="fill:#1f77b4;stroke:#1f77b4;" x="99.18789" xlink:href="#m2150724a85" y="270.294938"/>
     <use style="fill:#1f77b4;stroke:#1f77b4;" x="121.144305" xlink:href="#m2150724a85" y="213.509921"/>
     <use style="fill:#1f77b4;stroke:#1f77b4;" x="121.988998" xlink:href="#m2150724a85" y="228.285118"/>
     <use style="fill:#1f77b4;stroke:#1f77b4;" x="121.98938" xlink:href="#m2150724a85" y="252.888746"/>
     <use style="fill:#1f77b4;stroke:#1f77b4;" x="123.69785" xlink:href="#m2150724a85" y="220.807601"/>
     <use style="fill:#1f77b4;stroke:#1f77b4;" x="123.698242" xlink:href="#m2150724a85" y="210.295282"/>
     <use style="fill:#1f77b4;stroke:#1f77b4;" x="125.362202" xlink:href="#m2150724a85" y="216.916009"/>
     <use style="fill:#1f77b4;stroke:#1f77b4;" x="125.362594" xlink:href="#m2150724a85" y="227.725483"/>
     <use style="fill:#1f77b4;stroke:#1f77b4;" x="126.199487" xlink:href="#m2150724a85" y="248.251641"/>
     <use style="fill:#1f77b4;stroke:#1f77b4;" x="126.199878" xlink:href="#m2150724a85" y="246.367683"/>
     <use style="fill:#1f77b4;stroke:#1f77b4;" x="127.090237" xlink:href="#m2150724a85" y="220.437839"/>
     <use style="fill:#1f77b4;stroke:#1f77b4;" x="127.090618" xlink:href="#m2150724a85" y="228.183404"/>
     <use style="fill:#1f77b4;stroke:#1f77b4;" x="127.899364" xlink:href="#m2150724a85" y="215.389834"/>
     <use style="fill:#1f77b4;stroke:#1f77b4;" x="127.899756" xlink:href="#m2150724a85" y="218.063911"/>
     <use style="fill:#1f77b4;stroke:#1f77b4;" x="128.744146" xlink:href="#m2150724a85" y="225.018833"/>
     <use style="fill:#1f77b4;stroke:#1f77b4;" x="128.744527" xlink:href="#m2150724a85" y="211.135994"/>
     <use style="fill:#1f77b4;stroke:#1f77b4;" x="136.360585" xlink:href="#m2150724a85" y="244.436178"/>
     <use style="fill:#1f77b4;stroke:#1f77b4;" x="142.231315" xlink:href="#m2150724a85" y="280.378863"/>
     <use style="fill:#1f77b4;stroke:#1f77b4;" x="143.073052" xlink:href="#m2150724a85" y="244.846552"/>
     <use style="fill:#1f77b4;stroke:#1f77b4;" x="143.918832" xlink:href="#m2150724a85" y="212.543433"/>
     <use style="fill:#1f77b4;stroke:#1f77b4;" x="144.76286" xlink:href="#m2150724a85" y="216.59537"/>
     <use style="fill:#1f77b4;stroke:#1f77b4;" x="145.612006" xlink:href="#m2150724a85" y="219.710293"/>
     <use style="fill:#1f77b4;stroke:#1f77b4;" x="155.771705" xlink:href="#m2150724a85" y="226.773496"/>
     <use style="fill:#1f77b4;stroke:#1f77b4;" x="163.21203" xlink:href="#m2150724a85" y="284.417245"/>
     <use style="fill:#1f77b4;stroke:#1f77b4;" x="164.180987" xlink:href="#m2150724a85" y="257.752868"/>
     <use style="fill:#1f77b4;stroke:#1f77b4;" x="165.042171" xlink:href="#m2150724a85" y="248.782222"/>
     <use style="fill:#1f77b4;stroke:#1f77b4;" x="170.943837" xlink:href="#m2150724a85" y="246.926372"/>
     <use style="fill:#1f77b4;stroke:#1f77b4;" x="173.496775" xlink:href="#m2150724a85" y="227.905846"/>
     <use style="fill:#1f77b4;stroke:#1f77b4;" x="207.146958" xlink:href="#m2150724a85" y="239.323552"/>
     <use style="fill:#1f77b4;stroke:#1f77b4;" x="210.529274" xlink:href="#m2150724a85" y="241.737093"/>
     <use style="fill:#1f77b4;stroke:#1f77b4;" x="218.978819" xlink:href="#m2150724a85" y="239.675293"/>
     <use style="fill:#1f77b4;stroke:#1f77b4;" x="346.082599" xlink:href="#m2150724a85" y="296.233819"/>
     <use style="fill:#1f77b4;stroke:#1f77b4;" x="379.139631" xlink:href="#m2150724a85" y="227.600233"/>
     <use style="fill:#1f77b4;stroke:#1f77b4;" x="396.853779" xlink:href="#m2150724a85" y="229.856423"/>
     <use style="fill:#1f77b4;stroke:#1f77b4;" x="396.854161" xlink:href="#m2150724a85" y="241.082207"/>
     <use style="fill:#1f77b4;stroke:#1f77b4;" x="397.677773" xlink:href="#m2150724a85" y="235.956552"/>
     <use style="fill:#1f77b4;stroke:#1f77b4;" x="397.678155" xlink:href="#m2150724a85" y="230.811405"/>
     <use style="fill:#1f77b4;stroke:#1f77b4;" x="398.486891" xlink:href="#m2150724a85" y="242.907008"/>
     <use style="fill:#1f77b4;stroke:#1f77b4;" x="398.487273" xlink:href="#m2150724a85" y="233.315574"/>
    </g>
   </g>
   <g id="matplotlib.axis_5">
    <g id="xtick_21">
     <g id="line2d_32">
      <g>
       <use style="stroke:#000000;stroke-width:0.8;" x="97.996351" xlink:href="#mb4f57e9068" y="307.584"/>
      </g>
     </g>
     <g id="text_21">
      <!-- 58300 -->
      <g transform="translate(82.090101 322.182437)scale(0.1 -0.1)">
       <use xlink:href="#DejaVuSerif-53"/>
       <use x="63.623047" xlink:href="#DejaVuSerif-56"/>
       <use x="127.246094" xlink:href="#DejaVuSerif-51"/>
       <use x="190.869141" xlink:href="#DejaVuSerif-48"/>
       <use x="254.492188" xlink:href="#DejaVuSerif-48"/>
      </g>
     </g>
    </g>
    <g id="xtick_22">
     <g id="line2d_33">
      <g>
       <use style="stroke:#000000;stroke-width:0.8;" x="140.27554" xlink:href="#mb4f57e9068" y="307.584"/>
      </g>
     </g>
     <g id="text_22">
      <!-- 58350 -->
      <g transform="translate(124.36929 322.182437)scale(0.1 -0.1)">
       <use xlink:href="#DejaVuSerif-53"/>
       <use x="63.623047" xlink:href="#DejaVuSerif-56"/>
       <use x="127.246094" xlink:href="#DejaVuSerif-51"/>
       <use x="190.869141" xlink:href="#DejaVuSerif-53"/>
       <use x="254.492188" xlink:href="#DejaVuSerif-48"/>
      </g>
     </g>
    </g>
    <g id="xtick_23">
     <g id="line2d_34">
      <g>
       <use style="stroke:#000000;stroke-width:0.8;" x="182.55473" xlink:href="#mb4f57e9068" y="307.584"/>
      </g>
     </g>
     <g id="text_23">
      <!-- 58400 -->
      <g transform="translate(166.64848 322.182437)scale(0.1 -0.1)">
       <use xlink:href="#DejaVuSerif-53"/>
       <use x="63.623047" xlink:href="#DejaVuSerif-56"/>
       <use x="127.246094" xlink:href="#DejaVuSerif-52"/>
       <use x="190.869141" xlink:href="#DejaVuSerif-48"/>
       <use x="254.492188" xlink:href="#DejaVuSerif-48"/>
      </g>
     </g>
    </g>
    <g id="xtick_24">
     <g id="line2d_35">
      <g>
       <use style="stroke:#000000;stroke-width:0.8;" x="224.833919" xlink:href="#mb4f57e9068" y="307.584"/>
      </g>
     </g>
     <g id="text_24">
      <!-- 58450 -->
      <g transform="translate(208.927669 322.182437)scale(0.1 -0.1)">
       <use xlink:href="#DejaVuSerif-53"/>
       <use x="63.623047" xlink:href="#DejaVuSerif-56"/>
       <use x="127.246094" xlink:href="#DejaVuSerif-52"/>
       <use x="190.869141" xlink:href="#DejaVuSerif-53"/>
       <use x="254.492188" xlink:href="#DejaVuSerif-48"/>
      </g>
     </g>
    </g>
    <g id="xtick_25">
     <g id="line2d_36">
      <g>
       <use style="stroke:#000000;stroke-width:0.8;" x="267.113108" xlink:href="#mb4f57e9068" y="307.584"/>
      </g>
     </g>
     <g id="text_25">
      <!-- 58500 -->
      <g transform="translate(251.206858 322.182437)scale(0.1 -0.1)">
       <use xlink:href="#DejaVuSerif-53"/>
       <use x="63.623047" xlink:href="#DejaVuSerif-56"/>
       <use x="127.246094" xlink:href="#DejaVuSerif-53"/>
       <use x="190.869141" xlink:href="#DejaVuSerif-48"/>
       <use x="254.492188" xlink:href="#DejaVuSerif-48"/>
      </g>
     </g>
    </g>
    <g id="xtick_26">
     <g id="line2d_37">
      <g>
       <use style="stroke:#000000;stroke-width:0.8;" x="309.392298" xlink:href="#mb4f57e9068" y="307.584"/>
      </g>
     </g>
     <g id="text_26">
      <!-- 58550 -->
      <g transform="translate(293.486048 322.182437)scale(0.1 -0.1)">
       <use xlink:href="#DejaVuSerif-53"/>
       <use x="63.623047" xlink:href="#DejaVuSerif-56"/>
       <use x="127.246094" xlink:href="#DejaVuSerif-53"/>
       <use x="190.869141" xlink:href="#DejaVuSerif-53"/>
       <use x="254.492188" xlink:href="#DejaVuSerif-48"/>
      </g>
     </g>
    </g>
    <g id="xtick_27">
     <g id="line2d_38">
      <g>
       <use style="stroke:#000000;stroke-width:0.8;" x="351.671487" xlink:href="#mb4f57e9068" y="307.584"/>
      </g>
     </g>
     <g id="text_27">
      <!-- 58600 -->
      <g transform="translate(335.765237 322.182437)scale(0.1 -0.1)">
       <defs>
        <path d="M 32.71875 3.421875 
Q 39.59375 3.421875 43.296875 8.46875 
Q 47.015625 13.53125 47.015625 23 
Q 47.015625 32.46875 43.296875 37.515625 
Q 39.59375 42.578125 32.71875 42.578125 
Q 25.734375 42.578125 22.0625 37.6875 
Q 18.40625 32.8125 18.40625 23.578125 
Q 18.40625 13.875 22.109375 8.640625 
Q 25.828125 3.421875 32.71875 3.421875 
z
M 16.796875 40.140625 
Q 20.125 43.796875 24.3125 45.59375 
Q 28.515625 47.40625 33.796875 47.40625 
Q 44.671875 47.40625 51 40.859375 
Q 57.328125 34.328125 57.328125 23 
Q 57.328125 11.921875 50.515625 5.25 
Q 43.703125 -1.421875 32.328125 -1.421875 
Q 19.96875 -1.421875 13.328125 7.78125 
Q 6.6875 17 6.6875 34.078125 
Q 6.6875 53.21875 14.546875 63.71875 
Q 22.40625 74.21875 36.71875 74.21875 
Q 40.578125 74.21875 44.828125 73.484375 
Q 49.078125 72.75 53.515625 71.296875 
L 53.515625 59.28125 
L 48 59.28125 
Q 47.40625 64.203125 44.234375 66.796875 
Q 41.0625 69.390625 35.6875 69.390625 
Q 26.21875 69.390625 21.578125 62.203125 
Q 16.9375 55.03125 16.796875 40.140625 
z
" id="DejaVuSerif-54"/>
       </defs>
       <use xlink:href="#DejaVuSerif-53"/>
       <use x="63.623047" xlink:href="#DejaVuSerif-56"/>
       <use x="127.246094" xlink:href="#DejaVuSerif-54"/>
       <use x="190.869141" xlink:href="#DejaVuSerif-48"/>
       <use x="254.492188" xlink:href="#DejaVuSerif-48"/>
      </g>
     </g>
    </g>
    <g id="xtick_28">
     <g id="line2d_39">
      <g>
       <use style="stroke:#000000;stroke-width:0.8;" x="393.950677" xlink:href="#mb4f57e9068" y="307.584"/>
      </g>
     </g>
     <g id="text_28">
      <!-- 58650 -->
      <g transform="translate(378.044427 322.182437)scale(0.1 -0.1)">
       <use xlink:href="#DejaVuSerif-53"/>
       <use x="63.623047" xlink:href="#DejaVuSerif-56"/>
       <use x="127.246094" xlink:href="#DejaVuSerif-54"/>
       <use x="190.869141" xlink:href="#DejaVuSerif-53"/>
       <use x="254.492188" xlink:href="#DejaVuSerif-48"/>
      </g>
     </g>
    </g>
    <g id="text_29">
     <!-- MJD -->
     <g transform="translate(225.027187 335.860562)scale(0.1 -0.1)">
      <defs>
       <path d="M -8.40625 -17.484375 
L -8.40625 -6 
L -2.828125 -6 
Q -2.6875 -10.84375 -0.53125 -13.203125 
Q 1.609375 -15.578125 5.90625 -15.578125 
Q 11.71875 -15.578125 14.015625 -11.90625 
Q 16.3125 -8.25 16.3125 2.390625 
L 16.3125 67.671875 
L 4.984375 67.671875 
L 4.984375 72.90625 
L 35.5 72.90625 
L 35.5 67.671875 
L 26.21875 67.671875 
L 26.21875 2 
Q 26.21875 -10.0625 21.375 -15.421875 
Q 16.546875 -20.796875 5.8125 -20.796875 
Q 2.34375 -20.796875 -1.234375 -19.96875 
Q -4.828125 -19.140625 -8.40625 -17.484375 
z
" id="DejaVuSerif-74"/>
       <path d="M 24.703125 5.171875 
L 33.796875 5.171875 
Q 48 5.171875 55.59375 13.28125 
Q 63.1875 21.390625 63.1875 36.53125 
Q 63.1875 51.65625 55.609375 59.65625 
Q 48.046875 67.671875 33.796875 67.671875 
L 24.703125 67.671875 
z
M 5.515625 0 
L 5.515625 5.171875 
L 14.796875 5.171875 
L 14.796875 67.671875 
L 5.515625 67.671875 
L 5.515625 72.90625 
L 34.515625 72.90625 
Q 53.375 72.90625 63.890625 63.28125 
Q 74.421875 53.65625 74.421875 36.53125 
Q 74.421875 19.34375 63.875 9.671875 
Q 53.328125 0 34.515625 0 
z
" id="DejaVuSerif-68"/>
      </defs>
      <use xlink:href="#DejaVuSerif-77"/>
      <use x="102.392578" xlink:href="#DejaVuSerif-74"/>
      <use x="142.480469" xlink:href="#DejaVuSerif-68"/>
     </g>
    </g>
   </g>
   <g id="matplotlib.axis_6">
    <g id="ytick_7">
     <g id="line2d_40">
      <g>
       <use style="stroke:#000000;stroke-width:0.8;" x="57.6" xlink:href="#mee4019a208" y="205.208189"/>
      </g>
     </g>
     <g id="text_30">
      <!-- 13.75 -->
      <g transform="translate(21.971875 209.007408)scale(0.1 -0.1)">
       <defs>
        <path d="M 56.390625 67.921875 
L 27.875 0 
L 20.609375 0 
L 47.796875 64.890625 
L 14.109375 64.890625 
L 14.109375 55.90625 
L 8.40625 55.90625 
L 8.40625 72.90625 
L 56.390625 72.90625 
z
" id="DejaVuSerif-55"/>
       </defs>
       <use xlink:href="#DejaVuSerif-49"/>
       <use x="63.623047" xlink:href="#DejaVuSerif-51"/>
       <use x="127.246094" xlink:href="#DejaVuSerif-46"/>
       <use x="159.033203" xlink:href="#DejaVuSerif-55"/>
       <use x="222.65625" xlink:href="#DejaVuSerif-53"/>
      </g>
     </g>
    </g>
    <g id="ytick_8">
     <g id="line2d_41">
      <g>
       <use style="stroke:#000000;stroke-width:0.8;" x="57.6" xlink:href="#mee4019a208" y="231.477166"/>
      </g>
     </g>
     <g id="text_31">
      <!-- 13.80 -->
      <g transform="translate(21.971875 235.276385)scale(0.1 -0.1)">
       <use xlink:href="#DejaVuSerif-49"/>
       <use x="63.623047" xlink:href="#DejaVuSerif-51"/>
       <use x="127.246094" xlink:href="#DejaVuSerif-46"/>
       <use x="159.033203" xlink:href="#DejaVuSerif-56"/>
       <use x="222.65625" xlink:href="#DejaVuSerif-48"/>
      </g>
     </g>
    </g>
    <g id="ytick_9">
     <g id="line2d_42">
      <g>
       <use style="stroke:#000000;stroke-width:0.8;" x="57.6" xlink:href="#mee4019a208" y="257.746143"/>
      </g>
     </g>
     <g id="text_32">
      <!-- 13.85 -->
      <g transform="translate(21.971875 261.545362)scale(0.1 -0.1)">
       <use xlink:href="#DejaVuSerif-49"/>
       <use x="63.623047" xlink:href="#DejaVuSerif-51"/>
       <use x="127.246094" xlink:href="#DejaVuSerif-46"/>
       <use x="159.033203" xlink:href="#DejaVuSerif-56"/>
       <use x="222.65625" xlink:href="#DejaVuSerif-53"/>
      </g>
     </g>
    </g>
    <g id="ytick_10">
     <g id="line2d_43">
      <g>
       <use style="stroke:#000000;stroke-width:0.8;" x="57.6" xlink:href="#mee4019a208" y="284.01512"/>
      </g>
     </g>
     <g id="text_33">
      <!-- 13.90 -->
      <g transform="translate(21.971875 287.814338)scale(0.1 -0.1)">
       <use xlink:href="#DejaVuSerif-49"/>
       <use x="63.623047" xlink:href="#DejaVuSerif-51"/>
       <use x="127.246094" xlink:href="#DejaVuSerif-46"/>
       <use x="159.033203" xlink:href="#DejaVuSerif-57"/>
       <use x="222.65625" xlink:href="#DejaVuSerif-48"/>
      </g>
     </g>
    </g>
    <g id="text_34">
     <!-- Mag -->
     <g transform="translate(15.75 264.576991)rotate(-90)scale(0.1 -0.1)">
      <use xlink:href="#DejaVuSerif-77"/>
      <use x="102.392578" xlink:href="#DejaVuSerif-97"/>
      <use x="162.011719" xlink:href="#DejaVuSerif-103"/>
     </g>
    </g>
   </g>
   <g id="LineCollection_5">
    <path clip-path="url(#p72e94d4d28)" d="M 73.832727 249.292324 
L 73.832727 262.096852 
" style="fill:none;stroke:#1f77b4;stroke-width:0.5;"/>
    <path clip-path="url(#p72e94d4d28)" d="M 73.833119 252.93548 
L 73.833119 265.741867 
" style="fill:none;stroke:#1f77b4;stroke-width:0.5;"/>
    <path clip-path="url(#p72e94d4d28)" d="M 94.910293 232.461527 
L 94.910293 245.257651 
" style="fill:none;stroke:#1f77b4;stroke-width:0.5;"/>
    <path clip-path="url(#p72e94d4d28)" d="M 94.910684 225.944099 
L 94.910684 238.737051 
" style="fill:none;stroke:#1f77b4;stroke-width:0.5;"/>
    <path clip-path="url(#p72e94d4d28)" d="M 96.675449 233.774969 
L 96.675449 246.571737 
" style="fill:none;stroke:#1f77b4;stroke-width:0.5;"/>
    <path clip-path="url(#p72e94d4d28)" d="M 99.185169 255.121443 
L 99.185169 267.928953 
" style="fill:none;stroke:#1f77b4;stroke-width:0.5;"/>
    <path clip-path="url(#p72e94d4d28)" d="M 99.18789 263.888903 
L 99.18789 276.700973 
" style="fill:none;stroke:#1f77b4;stroke-width:0.5;"/>
    <path clip-path="url(#p72e94d4d28)" d="M 121.144305 207.117899 
L 121.144305 219.901944 
" style="fill:none;stroke:#1f77b4;stroke-width:0.5;"/>
    <path clip-path="url(#p72e94d4d28)" d="M 121.988998 221.889616 
L 121.988998 234.680619 
" style="fill:none;stroke:#1f77b4;stroke-width:0.5;"/>
    <path clip-path="url(#p72e94d4d28)" d="M 121.98938 246.487194 
L 121.98938 259.290299 
" style="fill:none;stroke:#1f77b4;stroke-width:0.5;"/>
    <path clip-path="url(#p72e94d4d28)" d="M 123.69785 214.413874 
L 123.69785 227.201328 
" style="fill:none;stroke:#1f77b4;stroke-width:0.5;"/>
    <path clip-path="url(#p72e94d4d28)" d="M 123.698242 203.904 
L 123.698242 216.686563 
" style="fill:none;stroke:#1f77b4;stroke-width:0.5;"/>
    <path clip-path="url(#p72e94d4d28)" d="M 125.362202 210.523194 
L 125.362202 223.308824 
" style="fill:none;stroke:#1f77b4;stroke-width:0.5;"/>
    <path clip-path="url(#p72e94d4d28)" d="M 125.362594 221.330116 
L 125.362594 234.120851 
" style="fill:none;stroke:#1f77b4;stroke-width:0.5;"/>
    <path clip-path="url(#p72e94d4d28)" d="M 126.199487 241.851255 
L 126.199487 254.652028 
" style="fill:none;stroke:#1f77b4;stroke-width:0.5;"/>
    <path clip-path="url(#p72e94d4d28)" d="M 126.199878 239.967767 
L 126.199878 252.767599 
" style="fill:none;stroke:#1f77b4;stroke-width:0.5;"/>
    <path clip-path="url(#p72e94d4d28)" d="M 127.090237 214.044199 
L 127.090237 226.831479 
" style="fill:none;stroke:#1f77b4;stroke-width:0.5;"/>
    <path clip-path="url(#p72e94d4d28)" d="M 127.090618 221.787927 
L 127.090618 234.578881 
" style="fill:none;stroke:#1f77b4;stroke-width:0.5;"/>
    <path clip-path="url(#p72e94d4d28)" d="M 127.899364 208.997375 
L 127.899364 221.782294 
" style="fill:none;stroke:#1f77b4;stroke-width:0.5;"/>
    <path clip-path="url(#p72e94d4d28)" d="M 127.899756 211.670828 
L 127.899756 224.456994 
" style="fill:none;stroke:#1f77b4;stroke-width:0.5;"/>
    <path clip-path="url(#p72e94d4d28)" d="M 128.744146 218.62411 
L 128.744146 231.413556 
" style="fill:none;stroke:#1f77b4;stroke-width:0.5;"/>
    <path clip-path="url(#p72e94d4d28)" d="M 128.744527 204.744519 
L 128.744527 217.527469 
" style="fill:none;stroke:#1f77b4;stroke-width:0.5;"/>
    <path clip-path="url(#p72e94d4d28)" d="M 136.360585 238.036741 
L 136.360585 250.835614 
" style="fill:none;stroke:#1f77b4;stroke-width:0.5;"/>
    <path clip-path="url(#p72e94d4d28)" d="M 142.231315 273.970152 
L 142.231315 286.787574 
" style="fill:none;stroke:#1f77b4;stroke-width:0.5;"/>
    <path clip-path="url(#p72e94d4d28)" d="M 143.073052 238.447014 
L 143.073052 251.24609 
" style="fill:none;stroke:#1f77b4;stroke-width:0.5;"/>
    <path clip-path="url(#p72e94d4d28)" d="M 143.918832 206.151634 
L 143.918832 218.935232 
" style="fill:none;stroke:#1f77b4;stroke-width:0.5;"/>
    <path clip-path="url(#p72e94d4d28)" d="M 144.76286 210.20263 
L 144.76286 222.98811 
" style="fill:none;stroke:#1f77b4;stroke-width:0.5;"/>
    <path clip-path="url(#p72e94d4d28)" d="M 145.612006 213.316824 
L 145.612006 226.103762 
" style="fill:none;stroke:#1f77b4;stroke-width:0.5;"/>
    <path clip-path="url(#p72e94d4d28)" d="M 155.771705 220.378355 
L 155.771705 233.168636 
" style="fill:none;stroke:#1f77b4;stroke-width:0.5;"/>
    <path clip-path="url(#p72e94d4d28)" d="M 163.21203 278.007447 
L 163.21203 290.827044 
" style="fill:none;stroke:#1f77b4;stroke-width:0.5;"/>
    <path clip-path="url(#p72e94d4d28)" d="M 164.180987 251.35008 
L 164.180987 264.155656 
" style="fill:none;stroke:#1f77b4;stroke-width:0.5;"/>
    <path clip-path="url(#p72e94d4d28)" d="M 165.042171 242.381703 
L 165.042171 255.182741 
" style="fill:none;stroke:#1f77b4;stroke-width:0.5;"/>
    <path clip-path="url(#p72e94d4d28)" d="M 170.943837 240.526316 
L 170.943837 253.326427 
" style="fill:none;stroke:#1f77b4;stroke-width:0.5;"/>
    <path clip-path="url(#p72e94d4d28)" d="M 173.496775 221.510436 
L 173.496775 234.301256 
" style="fill:none;stroke:#1f77b4;stroke-width:0.5;"/>
    <path clip-path="url(#p72e94d4d28)" d="M 207.146958 232.925376 
L 207.146958 245.721727 
" style="fill:none;stroke:#1f77b4;stroke-width:0.5;"/>
    <path clip-path="url(#p72e94d4d28)" d="M 210.529274 235.338324 
L 210.529274 248.135862 
" style="fill:none;stroke:#1f77b4;stroke-width:0.5;"/>
    <path clip-path="url(#p72e94d4d28)" d="M 218.978819 233.277031 
L 218.978819 246.073556 
" style="fill:none;stroke:#1f77b4;stroke-width:0.5;"/>
    <path clip-path="url(#p72e94d4d28)" d="M 346.082599 289.820781 
L 346.082599 302.646857 
" style="fill:none;stroke:#1f77b4;stroke-width:0.5;"/>
    <path clip-path="url(#p72e94d4d28)" d="M 379.139631 221.204895 
L 379.139631 233.995571 
" style="fill:none;stroke:#1f77b4;stroke-width:0.5;"/>
    <path clip-path="url(#p72e94d4d28)" d="M 396.853779 223.460545 
L 396.853779 236.252301 
" style="fill:none;stroke:#1f77b4;stroke-width:0.5;"/>
    <path clip-path="url(#p72e94d4d28)" d="M 396.854161 234.6836 
L 396.854161 247.480814 
" style="fill:none;stroke:#1f77b4;stroke-width:0.5;"/>
    <path clip-path="url(#p72e94d4d28)" d="M 397.677773 229.559199 
L 397.677773 242.353905 
" style="fill:none;stroke:#1f77b4;stroke-width:0.5;"/>
    <path clip-path="url(#p72e94d4d28)" d="M 397.678155 224.415298 
L 397.678155 237.207513 
" style="fill:none;stroke:#1f77b4;stroke-width:0.5;"/>
    <path clip-path="url(#p72e94d4d28)" d="M 398.486891 236.50795 
L 398.486891 249.306065 
" style="fill:none;stroke:#1f77b4;stroke-width:0.5;"/>
    <path clip-path="url(#p72e94d4d28)" d="M 398.487273 226.918862 
L 398.487273 239.712286 
" style="fill:none;stroke:#1f77b4;stroke-width:0.5;"/>
   </g>
   <g id="line2d_44">
    <path clip-path="url(#p72e94d4d28)" d="M 73.832727 255.694588 
L 73.833119 259.338673 
L 94.910293 238.859589 
L 94.910684 232.340575 
L 96.675449 240.173353 
L 99.185169 261.525198 
L 99.18789 270.294938 
L 121.144305 213.509921 
L 121.988998 228.285118 
L 121.98938 252.888746 
L 123.69785 220.807601 
L 123.698242 210.295282 
L 125.362202 216.916009 
L 125.362594 227.725483 
L 126.199487 248.251641 
L 126.199878 246.367683 
L 127.090237 220.437839 
L 127.090618 228.183404 
L 127.899364 215.389834 
L 127.899756 218.063911 
L 128.744146 225.018833 
L 128.744527 211.135994 
L 136.360585 244.436178 
L 142.231315 280.378863 
L 143.073052 244.846552 
L 143.918832 212.543433 
L 144.76286 216.59537 
L 145.612006 219.710293 
L 155.771705 226.773496 
L 163.21203 284.417245 
L 164.180987 257.752868 
L 165.042171 248.782222 
L 170.943837 246.926372 
L 173.496775 227.905846 
L 207.146958 239.323552 
L 210.529274 241.737093 
L 218.978819 239.675293 
L 346.082599 296.233819 
L 379.139631 227.600233 
L 396.853779 229.856423 
L 396.854161 241.082207 
L 397.677773 235.956552 
L 397.678155 230.811405 
L 398.486891 242.907008 
L 398.487273 233.315574 
" style="fill:none;"/>
   </g>
   <g id="patch_14">
    <path d="M 57.6 307.584 
L 57.6 198.966857 
" style="fill:none;stroke:#000000;stroke-linecap:square;stroke-linejoin:miter;stroke-width:0.8;"/>
   </g>
   <g id="patch_15">
    <path d="M 414.72 307.584 
L 414.72 198.966857 
" style="fill:none;stroke:#000000;stroke-linecap:square;stroke-linejoin:miter;stroke-width:0.8;"/>
   </g>
   <g id="patch_16">
    <path d="M 57.6 307.584 
L 414.72 307.584 
" style="fill:none;stroke:#000000;stroke-linecap:square;stroke-linejoin:miter;stroke-width:0.8;"/>
   </g>
   <g id="patch_17">
    <path d="M 57.6 198.966857 
L 414.72 198.966857 
" style="fill:none;stroke:#000000;stroke-linecap:square;stroke-linejoin:miter;stroke-width:0.8;"/>
   </g>
   <g id="text_35">
    <!-- Light Curve -->
    <g transform="translate(206.000625 192.966857)scale(0.1 -0.1)">
     <use xlink:href="#DejaVuSerif-76"/>
     <use x="66.40625" xlink:href="#DejaVuSerif-105"/>
     <use x="98.388672" xlink:href="#DejaVuSerif-103"/>
     <use x="162.402344" xlink:href="#DejaVuSerif-104"/>
     <use x="226.806641" xlink:href="#DejaVuSerif-116"/>
     <use x="266.992188" xlink:href="#DejaVuSerif-32"/>
     <use x="298.779297" xlink:href="#DejaVuSerif-67"/>
     <use x="375.292969" xlink:href="#DejaVuSerif-117"/>
     <use x="439.697266" xlink:href="#DejaVuSerif-114"/>
     <use x="487.5" xlink:href="#DejaVuSerif-118"/>
     <use x="543.994141" xlink:href="#DejaVuSerif-101"/>
    </g>
   </g>
  </g>
 </g>
 <defs>
  <clipPath id="p96c840b47a">
   <rect height="108.617143" width="148.8" x="265.92" y="41.472"/>
  </clipPath>
  <clipPath id="p71bb089763">
   <rect height="108.617143" width="148.8" x="57.6" y="41.472"/>
  </clipPath>
  <clipPath id="p72e94d4d28">
   <rect height="108.617143" width="357.12" x="57.6" y="198.966857"/>
  </clipPath>
 </defs>
</svg>
