<?xml version="1.0" encoding="utf-8" standalone="no"?>
<!DOCTYPE svg PUBLIC "-//W3C//DTD SVG 1.1//EN"
  "http://www.w3.org/Graphics/SVG/1.1/DTD/svg11.dtd">
<!-- Created with matplotlib (https://matplotlib.org/) -->
<svg height="345.6pt" version="1.1" viewBox="0 0 460.8 345.6" width="460.8pt" xmlns="http://www.w3.org/2000/svg" xmlns:xlink="http://www.w3.org/1999/xlink">
 <metadata>
  <rdf:RDF xmlns:cc="http://creativecommons.org/ns#" xmlns:dc="http://purl.org/dc/elements/1.1/" xmlns:rdf="http://www.w3.org/1999/02/22-rdf-syntax-ns#">
   <cc:Work>
    <dc:type rdf:resource="http://purl.org/dc/dcmitype/StillImage"/>
    <dc:date>2021-02-24T00:29:16.882458</dc:date>
    <dc:format>image/svg+xml</dc:format>
    <dc:creator>
     <cc:Agent>
      <dc:title>Matplotlib v3.3.3, https://matplotlib.org/</dc:title>
     </cc:Agent>
    </dc:creator>
   </cc:Work>
  </rdf:RDF>
 </metadata>
 <defs>
  <style type="text/css">*{stroke-linecap:butt;stroke-linejoin:round;}</style>
 </defs>
 <g id="figure_1">
  <g id="patch_1">
   <path d="M 0 345.6 
L 460.8 345.6 
L 460.8 0 
L 0 0 
z
" style="fill:#ffffff;"/>
  </g>
  <g id="axes_1">
   <g id="patch_2">
    <path d="M 265.92 150.089143 
L 414.72 150.089143 
L 414.72 41.472 
L 265.92 41.472 
z
" style="fill:#ffffff;"/>
   </g>
   <g id="matplotlib.axis_1">
    <g id="xtick_1">
     <g id="line2d_1">
      <defs>
       <path d="M 0 0 
L 0 3.5 
" id="m5952f60f5f" style="stroke:#000000;stroke-width:0.8;"/>
      </defs>
      <g>
       <use style="stroke:#000000;stroke-width:0.8;" x="326.985138" xlink:href="#m5952f60f5f" y="150.089143"/>
      </g>
     </g>
     <g id="text_1">
      <!-- $\mathdefault{10^{1}}$ -->
      <g transform="translate(318.185138 164.68758)scale(0.1 -0.1)">
       <defs>
        <path d="M 14.203125 0 
L 14.203125 5.171875 
L 26.90625 5.171875 
L 26.90625 65.828125 
L 12.203125 56.296875 
L 12.203125 62.703125 
L 29.984375 74.21875 
L 36.71875 74.21875 
L 36.71875 5.171875 
L 49.421875 5.171875 
L 49.421875 0 
z
" id="DejaVuSerif-49"/>
        <path d="M 31.78125 3.421875 
Q 39.265625 3.421875 42.96875 11.625 
Q 46.6875 19.828125 46.6875 36.375 
Q 46.6875 52.984375 42.96875 61.1875 
Q 39.265625 69.390625 31.78125 69.390625 
Q 24.3125 69.390625 20.59375 61.1875 
Q 16.890625 52.984375 16.890625 36.375 
Q 16.890625 19.828125 20.59375 11.625 
Q 24.3125 3.421875 31.78125 3.421875 
z
M 31.78125 -1.421875 
Q 19.921875 -1.421875 13.25 8.53125 
Q 6.59375 18.5 6.59375 36.375 
Q 6.59375 54.296875 13.25 64.25 
Q 19.921875 74.21875 31.78125 74.21875 
Q 43.703125 74.21875 50.34375 64.25 
Q 56.984375 54.296875 56.984375 36.375 
Q 56.984375 18.5 50.34375 8.53125 
Q 43.703125 -1.421875 31.78125 -1.421875 
z
" id="DejaVuSerif-48"/>
       </defs>
       <use transform="translate(0 0.7125)" xlink:href="#DejaVuSerif-49"/>
       <use transform="translate(63.623047 0.7125)" xlink:href="#DejaVuSerif-48"/>
       <use transform="translate(128.154453 37.046875)scale(0.7)" xlink:href="#DejaVuSerif-49"/>
      </g>
     </g>
    </g>
    <g id="xtick_2">
     <g id="line2d_2">
      <g>
       <use style="stroke:#000000;stroke-width:0.8;" x="400.12039" xlink:href="#m5952f60f5f" y="150.089143"/>
      </g>
     </g>
     <g id="text_2">
      <!-- $\mathdefault{10^{2}}$ -->
      <g transform="translate(391.32039 164.68758)scale(0.1 -0.1)">
       <defs>
        <path d="M 12.796875 55.515625 
L 7.328125 55.515625 
L 7.328125 68.5 
Q 12.546875 71.296875 17.84375 72.75 
Q 23.140625 74.21875 28.21875 74.21875 
Q 39.59375 74.21875 46.1875 68.703125 
Q 52.78125 63.1875 52.78125 53.71875 
Q 52.78125 43.015625 37.84375 28.125 
Q 36.671875 27 36.078125 26.421875 
L 17.671875 8.015625 
L 48.09375 8.015625 
L 48.09375 17 
L 53.8125 17 
L 53.8125 0 
L 6.78125 0 
L 6.78125 5.328125 
L 28.90625 27.390625 
Q 36.234375 34.71875 39.359375 40.84375 
Q 42.484375 46.96875 42.484375 53.71875 
Q 42.484375 61.078125 38.640625 65.234375 
Q 34.8125 69.390625 28.078125 69.390625 
Q 21.09375 69.390625 17.28125 65.921875 
Q 13.484375 62.453125 12.796875 55.515625 
z
" id="DejaVuSerif-50"/>
       </defs>
       <use transform="translate(0 0.7125)" xlink:href="#DejaVuSerif-49"/>
       <use transform="translate(63.623047 0.7125)" xlink:href="#DejaVuSerif-48"/>
       <use transform="translate(128.154453 37.046875)scale(0.7)" xlink:href="#DejaVuSerif-50"/>
      </g>
     </g>
    </g>
    <g id="xtick_3">
     <g id="line2d_3">
      <defs>
       <path d="M 0 0 
L 0 2 
" id="me7c3d8eb68" style="stroke:#000000;stroke-width:0.6;"/>
      </defs>
      <g>
       <use style="stroke:#000000;stroke-width:0.6;" x="275.86579" xlink:href="#me7c3d8eb68" y="150.089143"/>
      </g>
     </g>
    </g>
    <g id="xtick_4">
     <g id="line2d_4">
      <g>
       <use style="stroke:#000000;stroke-width:0.6;" x="288.744269" xlink:href="#me7c3d8eb68" y="150.089143"/>
      </g>
     </g>
    </g>
    <g id="xtick_5">
     <g id="line2d_5">
      <g>
       <use style="stroke:#000000;stroke-width:0.6;" x="297.881695" xlink:href="#me7c3d8eb68" y="150.089143"/>
      </g>
     </g>
    </g>
    <g id="xtick_6">
     <g id="line2d_6">
      <g>
       <use style="stroke:#000000;stroke-width:0.6;" x="304.969233" xlink:href="#me7c3d8eb68" y="150.089143"/>
      </g>
     </g>
    </g>
    <g id="xtick_7">
     <g id="line2d_7">
      <g>
       <use style="stroke:#000000;stroke-width:0.6;" x="310.760174" xlink:href="#me7c3d8eb68" y="150.089143"/>
      </g>
     </g>
    </g>
    <g id="xtick_8">
     <g id="line2d_8">
      <g>
       <use style="stroke:#000000;stroke-width:0.6;" x="315.656344" xlink:href="#me7c3d8eb68" y="150.089143"/>
      </g>
     </g>
    </g>
    <g id="xtick_9">
     <g id="line2d_9">
      <g>
       <use style="stroke:#000000;stroke-width:0.6;" x="319.8976" xlink:href="#me7c3d8eb68" y="150.089143"/>
      </g>
     </g>
    </g>
    <g id="xtick_10">
     <g id="line2d_10">
      <g>
       <use style="stroke:#000000;stroke-width:0.6;" x="323.638652" xlink:href="#me7c3d8eb68" y="150.089143"/>
      </g>
     </g>
    </g>
    <g id="xtick_11">
     <g id="line2d_11">
      <g>
       <use style="stroke:#000000;stroke-width:0.6;" x="349.001043" xlink:href="#me7c3d8eb68" y="150.089143"/>
      </g>
     </g>
    </g>
    <g id="xtick_12">
     <g id="line2d_12">
      <g>
       <use style="stroke:#000000;stroke-width:0.6;" x="361.879521" xlink:href="#me7c3d8eb68" y="150.089143"/>
      </g>
     </g>
    </g>
    <g id="xtick_13">
     <g id="line2d_13">
      <g>
       <use style="stroke:#000000;stroke-width:0.6;" x="371.016947" xlink:href="#me7c3d8eb68" y="150.089143"/>
      </g>
     </g>
    </g>
    <g id="xtick_14">
     <g id="line2d_14">
      <g>
       <use style="stroke:#000000;stroke-width:0.6;" x="378.104486" xlink:href="#me7c3d8eb68" y="150.089143"/>
      </g>
     </g>
    </g>
    <g id="xtick_15">
     <g id="line2d_15">
      <g>
       <use style="stroke:#000000;stroke-width:0.6;" x="383.895426" xlink:href="#me7c3d8eb68" y="150.089143"/>
      </g>
     </g>
    </g>
    <g id="xtick_16">
     <g id="line2d_16">
      <g>
       <use style="stroke:#000000;stroke-width:0.6;" x="388.791597" xlink:href="#me7c3d8eb68" y="150.089143"/>
      </g>
     </g>
    </g>
    <g id="xtick_17">
     <g id="line2d_17">
      <g>
       <use style="stroke:#000000;stroke-width:0.6;" x="393.032852" xlink:href="#me7c3d8eb68" y="150.089143"/>
      </g>
     </g>
    </g>
    <g id="xtick_18">
     <g id="line2d_18">
      <g>
       <use style="stroke:#000000;stroke-width:0.6;" x="396.773905" xlink:href="#me7c3d8eb68" y="150.089143"/>
      </g>
     </g>
    </g>
    <g id="text_3">
     <!-- Period d -->
     <g transform="translate(319.231719 178.365705)scale(0.1 -0.1)">
      <defs>
       <path d="M 24.703125 37.109375 
L 37.59375 37.109375 
Q 44.875 37.109375 48.671875 41.03125 
Q 52.484375 44.96875 52.484375 52.390625 
Q 52.484375 59.859375 48.671875 63.765625 
Q 44.875 67.671875 37.59375 67.671875 
L 24.703125 67.671875 
z
M 5.515625 0 
L 5.515625 5.171875 
L 14.796875 5.171875 
L 14.796875 67.671875 
L 5.515625 67.671875 
L 5.515625 72.90625 
L 39.984375 72.90625 
Q 50.921875 72.90625 57.3125 67.359375 
Q 63.71875 61.8125 63.71875 52.390625 
Q 63.71875 43.015625 57.3125 37.453125 
Q 50.921875 31.890625 39.984375 31.890625 
L 24.703125 31.890625 
L 24.703125 5.171875 
L 35.984375 5.171875 
L 35.984375 0 
z
" id="DejaVuSerif-80"/>
       <path d="M 54.203125 25 
L 15.484375 25 
L 15.484375 24.609375 
Q 15.484375 14.109375 19.4375 8.765625 
Q 23.390625 3.421875 31.109375 3.421875 
Q 37.015625 3.421875 40.796875 6.515625 
Q 44.578125 9.625 46.09375 15.71875 
L 53.328125 15.71875 
Q 51.171875 7.171875 45.375 2.875 
Q 39.59375 -1.421875 30.171875 -1.421875 
Q 18.796875 -1.421875 11.890625 6.078125 
Q 4.984375 13.578125 4.984375 25.984375 
Q 4.984375 38.28125 11.765625 45.796875 
Q 18.5625 53.328125 29.59375 53.328125 
Q 41.359375 53.328125 47.65625 46.0625 
Q 53.953125 38.8125 54.203125 25 
z
M 43.609375 30.171875 
Q 43.3125 39.265625 39.765625 43.875 
Q 36.234375 48.484375 29.59375 48.484375 
Q 23.390625 48.484375 19.828125 43.84375 
Q 16.265625 39.203125 15.484375 30.171875 
z
" id="DejaVuSerif-101"/>
       <path d="M 47.796875 52 
L 47.796875 39.015625 
L 42.625 39.015625 
Q 42.390625 42.875 40.484375 44.78125 
Q 38.578125 46.6875 34.90625 46.6875 
Q 28.265625 46.6875 24.71875 42.09375 
Q 21.1875 37.5 21.1875 28.90625 
L 21.1875 5.171875 
L 31.59375 5.171875 
L 31.59375 0 
L 4.109375 0 
L 4.109375 5.171875 
L 12.203125 5.171875 
L 12.203125 46.78125 
L 3.609375 46.78125 
L 3.609375 51.90625 
L 21.1875 51.90625 
L 21.1875 42.671875 
Q 23.828125 48.09375 27.96875 50.703125 
Q 32.125 53.328125 38.09375 53.328125 
Q 40.28125 53.328125 42.703125 52.984375 
Q 45.125 52.640625 47.796875 52 
z
" id="DejaVuSerif-114"/>
       <path d="M 9.71875 68.015625 
Q 9.71875 70.265625 11.34375 71.921875 
Q 12.984375 73.578125 15.28125 73.578125 
Q 17.53125 73.578125 19.15625 71.921875 
Q 20.796875 70.265625 20.796875 68.015625 
Q 20.796875 65.71875 19.1875 64.109375 
Q 17.578125 62.5 15.28125 62.5 
Q 12.984375 62.5 11.34375 64.109375 
Q 9.71875 65.71875 9.71875 68.015625 
z
M 21.1875 5.171875 
L 29.6875 5.171875 
L 29.6875 0 
L 3.609375 0 
L 3.609375 5.171875 
L 12.203125 5.171875 
L 12.203125 46.6875 
L 3.609375 46.6875 
L 3.609375 51.90625 
L 21.1875 51.90625 
z
" id="DejaVuSerif-105"/>
       <path d="M 30.078125 3.421875 
Q 37.3125 3.421875 40.984375 9.125 
Q 44.671875 14.84375 44.671875 25.984375 
Q 44.671875 37.109375 40.984375 42.796875 
Q 37.3125 48.484375 30.078125 48.484375 
Q 22.859375 48.484375 19.171875 42.796875 
Q 15.484375 37.109375 15.484375 25.984375 
Q 15.484375 14.84375 19.1875 9.125 
Q 22.90625 3.421875 30.078125 3.421875 
z
M 30.078125 -1.421875 
Q 18.75 -1.421875 11.859375 6.078125 
Q 4.984375 13.578125 4.984375 25.984375 
Q 4.984375 38.375 11.84375 45.84375 
Q 18.703125 53.328125 30.078125 53.328125 
Q 41.453125 53.328125 48.3125 45.84375 
Q 55.171875 38.375 55.171875 25.984375 
Q 55.171875 13.578125 48.3125 6.078125 
Q 41.453125 -1.421875 30.078125 -1.421875 
z
" id="DejaVuSerif-111"/>
       <path d="M 52.484375 5.171875 
L 61.078125 5.171875 
L 61.078125 0 
L 43.5 0 
L 43.5 8.109375 
Q 40.875 3.21875 36.796875 0.890625 
Q 32.71875 -1.421875 26.703125 -1.421875 
Q 17.140625 -1.421875 11.0625 6.171875 
Q 4.984375 13.765625 4.984375 25.984375 
Q 4.984375 38.1875 11.03125 45.75 
Q 17.09375 53.328125 26.703125 53.328125 
Q 32.71875 53.328125 36.796875 51 
Q 40.875 48.6875 43.5 43.796875 
L 43.5 70.796875 
L 35.015625 70.796875 
L 35.015625 75.984375 
L 52.484375 75.984375 
z
M 43.5 23.390625 
L 43.5 28.515625 
Q 43.5 37.84375 39.90625 42.765625 
Q 36.328125 47.703125 29.5 47.703125 
Q 22.5625 47.703125 19.015625 42.234375 
Q 15.484375 36.765625 15.484375 25.984375 
Q 15.484375 15.234375 19.015625 9.71875 
Q 22.5625 4.203125 29.5 4.203125 
Q 36.328125 4.203125 39.90625 9.109375 
Q 43.5 14.015625 43.5 23.390625 
z
" id="DejaVuSerif-100"/>
       <path id="DejaVuSerif-32"/>
      </defs>
      <use xlink:href="#DejaVuSerif-80"/>
      <use x="62.785156" xlink:href="#DejaVuSerif-101"/>
      <use x="121.964844" xlink:href="#DejaVuSerif-114"/>
      <use x="169.767578" xlink:href="#DejaVuSerif-105"/>
      <use x="201.75" xlink:href="#DejaVuSerif-111"/>
      <use x="261.955078" xlink:href="#DejaVuSerif-100"/>
      <use x="325.96875" xlink:href="#DejaVuSerif-32"/>
      <use x="357.755859" xlink:href="#DejaVuSerif-100"/>
     </g>
    </g>
   </g>
   <g id="matplotlib.axis_2">
    <g id="ytick_1">
     <g id="line2d_19">
      <defs>
       <path d="M 0 0 
L -3.5 0 
" id="m7690d43963" style="stroke:#000000;stroke-width:0.8;"/>
      </defs>
      <g>
       <use style="stroke:#000000;stroke-width:0.8;" x="265.92" xlink:href="#m7690d43963" y="145.159932"/>
      </g>
     </g>
     <g id="text_4">
      <!-- 0.0 -->
      <g transform="translate(243.016875 148.959151)scale(0.1 -0.1)">
       <defs>
        <path d="M 9.421875 5.078125 
Q 9.421875 7.8125 11.28125 9.71875 
Q 13.140625 11.625 15.921875 11.625 
Q 18.609375 11.625 20.5 9.71875 
Q 22.40625 7.8125 22.40625 5.078125 
Q 22.40625 2.390625 20.5 0.484375 
Q 18.609375 -1.421875 15.921875 -1.421875 
Q 13.140625 -1.421875 11.28125 0.453125 
Q 9.421875 2.34375 9.421875 5.078125 
z
" id="DejaVuSerif-46"/>
       </defs>
       <use xlink:href="#DejaVuSerif-48"/>
       <use x="63.623047" xlink:href="#DejaVuSerif-46"/>
       <use x="95.410156" xlink:href="#DejaVuSerif-48"/>
      </g>
     </g>
    </g>
    <g id="ytick_2">
     <g id="line2d_20">
      <g>
       <use style="stroke:#000000;stroke-width:0.8;" x="265.92" xlink:href="#m7690d43963" y="102.82255"/>
      </g>
     </g>
     <g id="text_5">
      <!-- 0.2 -->
      <g transform="translate(243.016875 106.621769)scale(0.1 -0.1)">
       <use xlink:href="#DejaVuSerif-48"/>
       <use x="63.623047" xlink:href="#DejaVuSerif-46"/>
       <use x="95.410156" xlink:href="#DejaVuSerif-50"/>
      </g>
     </g>
    </g>
    <g id="ytick_3">
     <g id="line2d_21">
      <g>
       <use style="stroke:#000000;stroke-width:0.8;" x="265.92" xlink:href="#m7690d43963" y="60.485168"/>
      </g>
     </g>
     <g id="text_6">
      <!-- 0.4 -->
      <g transform="translate(243.016875 64.284386)scale(0.1 -0.1)">
       <defs>
        <path d="M 34.90625 24.703125 
L 34.90625 63.484375 
L 10.015625 24.703125 
z
M 56.390625 0 
L 23.1875 0 
L 23.1875 5.171875 
L 34.90625 5.171875 
L 34.90625 19.484375 
L 3.078125 19.484375 
L 3.078125 24.8125 
L 35.015625 74.21875 
L 44.671875 74.21875 
L 44.671875 24.703125 
L 58.59375 24.703125 
L 58.59375 19.484375 
L 44.671875 19.484375 
L 44.671875 5.171875 
L 56.390625 5.171875 
z
" id="DejaVuSerif-52"/>
       </defs>
       <use xlink:href="#DejaVuSerif-48"/>
       <use x="63.623047" xlink:href="#DejaVuSerif-46"/>
       <use x="95.410156" xlink:href="#DejaVuSerif-52"/>
      </g>
     </g>
    </g>
    <g id="text_7">
     <!-- Power -->
     <g transform="translate(236.937188 111.583696)rotate(-90)scale(0.1 -0.1)">
      <defs>
       <path d="M 48 51.90625 
L 61.28125 11.375 
L 73 46.6875 
L 65.484375 46.6875 
L 65.484375 51.90625 
L 84.28125 51.90625 
L 84.28125 46.6875 
L 78.515625 46.6875 
L 63.09375 0 
L 55.609375 0 
L 42.828125 38.8125 
L 29.984375 0 
L 22.796875 0 
L 7.421875 46.6875 
L 1.609375 46.6875 
L 1.609375 51.90625 
L 25.09375 51.90625 
L 25.09375 46.6875 
L 16.703125 46.6875 
L 28.328125 11.375 
L 41.703125 51.90625 
z
" id="DejaVuSerif-119"/>
      </defs>
      <use xlink:href="#DejaVuSerif-80"/>
      <use x="63.285156" xlink:href="#DejaVuSerif-111"/>
      <use x="123.490234" xlink:href="#DejaVuSerif-119"/>
      <use x="209.085938" xlink:href="#DejaVuSerif-101"/>
      <use x="268.265625" xlink:href="#DejaVuSerif-114"/>
     </g>
    </g>
   </g>
   <g id="LineCollection_1">
    <path clip-path="url(#p75dba23d94)" d="M 272.695273 46.409143 
L 407.956364 46.409143 
" style="fill:none;stroke:#808080;stroke-dasharray:5.55,2.4;stroke-dashoffset:0;stroke-width:1.5;"/>
   </g>
   <g id="LineCollection_2">
    <path clip-path="url(#p75dba23d94)" d="M 272.695273 60.329593 
L 407.956364 60.329593 
" style="fill:none;stroke:#a9a9a9;stroke-dasharray:5.55,2.4;stroke-dashoffset:0;stroke-width:1.5;"/>
   </g>
   <g id="LineCollection_3">
    <path clip-path="url(#p75dba23d94)" d="M 272.695273 71.290384 
L 407.956364 71.290384 
" style="fill:none;stroke:#c0c0c0;stroke-dasharray:5.55,2.4;stroke-dashoffset:0;stroke-width:1.5;"/>
   </g>
   <g id="LineCollection_4">
    <path clip-path="url(#p75dba23d94)" d="M 272.695273 76.467891 
L 407.956364 76.467891 
" style="fill:none;stroke:#d3d3d3;stroke-dasharray:5.55,2.4;stroke-dashoffset:0;stroke-width:1.5;"/>
   </g>
   <g id="line2d_22">
    <path clip-path="url(#p75dba23d94)" d="M 407.956364 107.925339 
L 405.906476 111.684815 
L 403.980902 125.397756 
L 402.165423 142.298442 
L 400.448127 127.040077 
L 398.818938 100.66405 
L 397.269253 83.214763 
L 395.791673 82.234341 
L 394.379786 101.582929 
L 393.027997 133.647363 
L 391.731399 129.928531 
L 390.485662 99.896776 
L 389.286945 73.68168 
L 388.131827 67.949478 
L 387.017248 91.293057 
L 385.940459 139.255384 
L 384.898981 138.899485 
L 382.913194 95.712551 
L 381.964998 98.160791 
L 381.044289 125.218033 
L 380.149518 143.728641 
L 378.432223 122.803294 
L 377.607183 114.304998 
L 376.803033 118.69898 
L 376.01874 133.800304 
L 375.253348 142.670579 
L 374.505967 137.143813 
L 373.775768 133.417096 
L 372.363881 121.70005 
L 371.680796 126.466711 
L 371.012092 138.768021 
L 370.357178 139.266555 
L 369.715495 137.734264 
L 369.086519 128.88606 
L 368.469757 122.191885 
L 367.864744 131.080458 
L 367.27104 142.339729 
L 366.68823 134.385935 
L 366.115922 119.463916 
L 365.553744 109.303417 
L 365.001343 109.194546 
L 363.924554 144.888616 
L 363.399547 130.058167 
L 362.883076 108.069743 
L 362.374869 95.530314 
L 361.874666 98.990054 
L 360.89729 144.302597 
L 360.419653 136.803992 
L 359.949093 121.962537 
L 359.485402 118.793998 
L 359.028384 127.070445 
L 358.577848 137.70697 
L 358.133614 141.894215 
L 357.695507 123.868502 
L 357.263361 111.735168 
L 356.837016 113.74689 
L 356.001119 142.362837 
L 355.591278 139.023993 
L 354.787128 105.740674 
L 354.392561 99.6637 
L 354.002836 106.553251 
L 353.617834 128.893818 
L 353.237443 140.711197 
L 352.490062 96.468962 
L 352.122865 92.850618 
L 351.759864 106.983546 
L 351.400965 132.605901 
L 351.046076 136.850364 
L 350.695108 98.417855 
L 350.347976 80.128465 
L 350.004597 83.929195 
L 349.664891 100.613446 
L 349.32878 128.647389 
L 348.996188 131.818899 
L 348.667042 85.916863 
L 348.341273 62.111944 
L 348.018811 74.292904 
L 347.070614 142.190581 
L 346.453852 107.678641 
L 346.149905 102.245635 
L 345.848839 105.281419 
L 345.5506 120.827246 
L 345.255135 142.428424 
L 344.962394 139.851676 
L 344.672325 122.072622 
L 344.384882 111.706236 
L 344.100017 116.260944 
L 343.537839 145.034306 
L 342.985439 86.574888 
L 342.7128 83.890282 
L 341.908649 138.398583 
L 341.383642 71.350334 
L 341.124357 70.562637 
L 340.867171 89.374797 
L 340.612052 125.45591 
L 340.358965 141.802814 
L 339.858762 86.444325 
L 339.611584 84.236635 
L 339.366314 104.309279 
L 339.122924 133.890596 
L 338.881385 144.389841 
L 338.403748 108.266812 
L 338.167597 107.327399 
L 337.933188 117.210126 
L 337.469498 145.044813 
L 337.240166 136.858067 
L 336.786412 107.715425 
L 336.561943 110.235444 
L 336.117709 142.298276 
L 335.8979 141.186187 
L 335.462794 109.071977 
L 335.247456 108.197351 
L 334.821111 143.096069 
L 334.610066 138.680282 
L 334.192135 122.000057 
L 333.985215 124.340038 
L 333.779633 138.857582 
L 333.575374 140.527944 
L 333.170754 117.254812 
L 332.97036 118.398384 
L 332.573327 143.321786 
L 332.376656 141.422484 
L 331.986931 119.023598 
L 331.793847 122.235128 
L 331.221539 143.014027 
L 330.84565 132.761287 
L 330.659361 132.875333 
L 330.474157 135.706405 
L 330.290028 141.366552 
L 330.10696 137.956493 
L 329.924941 124.57957 
L 329.743959 120.754298 
L 329.20712 144.589865 
L 328.679203 99.85988 
L 328.159918 143.717231 
L 327.818385 100.250334 
L 327.648986 99.158221 
L 327.312875 140.579183 
L 327.146144 140.276406 
L 326.815284 89.735839 
L 326.651138 88.462316 
L 326.325368 139.444914 
L 326.163728 143.244656 
L 325.683685 97.816133 
L 325.52527 106.139937 
L 325.054709 142.258502 
L 324.591019 84.965172 
L 324.134 144.570773 
L 323.983111 129.72096 
L 323.832934 102.565483 
L 323.683465 97.321924 
L 323.23923 142.258968 
L 322.946489 100.027317 
L 322.801124 103.995118 
L 322.512374 143.787538 
L 322.368978 138.706297 
L 322.084113 110.361424 
L 321.80178 136.882766 
L 321.661549 139.715513 
L 321.521934 135.982884 
L 321.382931 127.284128 
L 321.244533 128.405471 
L 320.969534 140.771244 
L 320.832922 139.927948 
L 320.426576 123.121295 
L 320.292275 127.233333 
L 320.025364 143.535004 
L 319.892745 141.00284 
L 319.498178 119.680504 
L 318.979599 141.822906 
L 318.596147 125.621033 
L 318.469351 117.539339 
L 318.34306 121.458944 
L 318.091974 144.467268 
L 317.967171 139.516015 
L 317.719027 114.024643 
L 317.350409 144.493408 
L 316.98602 126.836607 
L 316.745396 141.386266 
L 316.625764 140.72864 
L 316.387844 134.175469 
L 316.269548 134.56765 
L 316.151692 136.557974 
L 315.917283 129.998314 
L 315.684592 141.745807 
L 315.568882 140.213501 
L 315.33872 111.206095 
L 315.224262 115.303032 
L 314.996574 144.626036 
L 314.88334 136.332718 
L 314.658075 108.306405 
L 314.546039 118.165917 
L 314.323145 140.962624 
L 314.101804 113.144314 
L 313.99171 120.178966 
L 313.772659 144.553969 
L 313.44689 104.639089 
L 313.124428 144.734982 
L 312.805206 117.617146 
L 312.384508 139.827981 
L 312.280199 140.732379 
L 312.072602 130.007003 
L 311.866353 111.040878 
L 311.559469 142.918184 
L 311.255522 116.893818 
L 311.154849 121.223354 
L 310.954456 144.147423 
L 310.854731 139.373255 
L 310.557423 106.673822 
L 310.360752 142.496546 
L 310.262871 138.793727 
L 310.06801 93.596021 
L 309.971026 100.559952 
L 309.681838 144.428377 
L 309.39526 124.600054 
L 309.205634 126.889089 
L 308.923301 143.746786 
L 308.829745 136.453561 
L 308.643456 114.980223 
L 308.366055 142.770506 
L 308.182457 109.113693 
L 308.091055 115.375026 
L 307.909036 144.354893 
L 307.637949 95.312534 
L 307.548098 107.152486 
L 307.369155 141.847837 
L 307.102617 109.704028 
L 306.92616 144.851024 
L 306.663299 111.80443 
L 306.576159 119.794926 
L 306.402595 144.555025 
L 306.144013 116.157572 
L 306.058285 117.397955 
L 305.88752 137.314575 
L 305.717668 141.931842 
L 305.464581 118.953322 
L 305.380665 119.425045 
L 305.130239 142.875723 
L 304.964378 126.654972 
L 304.881772 129.298207 
L 304.635233 140.462893 
L 304.471931 133.240705 
L 304.309464 136.425947 
L 304.228541 142.64482 
L 303.987002 121.445952 
L 303.906895 122.356619 
L 303.747285 144.537814 
L 303.66778 139.210732 
L 303.509365 114.593913 
L 303.430453 119.30201 
L 303.273213 143.967839 
L 303.038805 125.92628 
L 302.883488 140.959855 
L 302.806113 139.549509 
L 302.651927 130.976476 
L 302.498486 142.161233 
L 302.345783 126.514479 
L 302.269706 130.798567 
L 302.118096 144.335207 
L 301.892029 107.436006 
L 301.742207 137.846345 
L 301.66756 137.769955 
L 301.444666 102.876341 
L 301.223326 144.293497 
L 301.003517 127.956754 
L 300.640516 143.509519 
L 300.568411 141.490752 
L 300.42469 121.056933 
L 300.353073 122.311521 
L 300.210321 144.750818 
L 300.139185 139.165475 
L 299.997389 118.299263 
L 299.785875 144.67059 
L 299.645644 116.675042 
L 299.57576 116.829932 
L 299.367026 144.981229 
L 299.297752 139.548864 
L 299.159655 120.874869 
L 299.090831 122.061852 
L 298.953629 142.369531 
L 298.88525 139.142558 
L 298.748931 125.015912 
L 298.545543 143.393742 
L 298.34345 111.107624 
L 298.142634 145.116855 
L 298.075977 139.139013 
L 297.87684 121.876645 
L 297.744772 134.506759 
L 297.613251 144.407239 
L 297.416986 106.169374 
L 297.221925 143.922543 
L 297.028056 105.264255 
L 296.899463 142.631555 
L 296.835362 136.448905 
L 296.707546 98.905515 
L 296.64383 100.566491 
L 296.516781 143.923147 
L 296.453447 137.979468 
L 296.327155 114.854577 
L 296.201364 143.734748 
L 296.138655 141.392067 
L 296.013606 125.446595 
L 295.951266 128.441968 
L 295.826952 144.100609 
L 295.641389 125.040907 
L 295.456903 144.615797 
L 295.395645 143.921193 
L 295.212576 123.946804 
L 295.151788 126.401474 
L 294.970115 143.843569 
L 294.849576 127.353453 
L 294.789477 127.578119 
L 294.609859 141.449198 
L 294.490676 131.341201 
L 294.431252 135.870418 
L 294.371939 140.04871 
L 294.312736 138.52642 
L 294.253644 138.55601 
L 294.194661 137.077737 
L 294.135787 138.236631 
L 294.077023 140.467637 
L 294.018367 139.812551 
L 293.959819 139.205923 
L 293.843046 135.300671 
L 293.668687 143.552756 
L 293.495281 115.422613 
L 293.437688 119.474364 
L 293.322816 142.102681 
L 293.151282 80.142199 
L 293.094309 81.808988 
L 292.98067 134.072047 
L 292.924002 120.839996 
L 292.810969 71.013336 
L 292.754603 80.45342 
L 292.64217 139.886762 
L 292.586103 134.466527 
L 292.474264 96.938548 
L 292.30724 144.972417 
L 292.25176 138.686265 
L 292.14109 122.709118 
L 291.975805 144.211929 
L 291.920901 144.177825 
L 291.756754 118.489068 
L 291.702227 123.952567 
L 291.593452 143.834082 
L 291.430985 110.975321 
L 291.377013 122.195178 
L 291.269345 143.585949 
L 291.108523 112.191322 
L 291.001759 140.062718 
L 290.948511 138.611094 
L 290.842283 109.237141 
L 290.789302 113.769656 
L 290.630886 143.846032 
L 290.473257 133.502439 
L 290.316406 143.590816 
L 290.264294 141.887059 
L 290.212268 140.596075 
L 290.160326 140.941382 
L 290.108469 143.719799 
L 290.056697 143.407398 
L 289.901885 124.078766 
L 289.850448 131.730052 
L 289.747824 144.92605 
L 289.594506 123.373759 
L 289.441925 143.634503 
L 289.34061 132.026932 
L 289.290073 134.438334 
L 289.189241 143.876548 
L 289.138944 141.499586 
L 289.03859 132.774072 
L 288.988531 135.964949 
L 288.789081 144.322131 
L 288.739414 142.676044 
L 288.640312 130.894573 
L 288.590876 132.35885 
L 288.492236 144.376097 
L 288.44303 142.861343 
L 288.344847 135.887554 
L 288.246966 143.975191 
L 288.100709 116.634153 
L 288.052105 127.283204 
L 288.003576 139.595394 
L 287.955121 137.99693 
L 287.858433 97.060046 
L 287.810198 97.525415 
L 287.665934 138.481254 
L 287.57012 108.948715 
L 287.522321 111.829118 
L 287.379355 142.928905 
L 287.284401 130.804691 
L 287.23703 131.920627 
L 287.095339 144.894629 
L 287.048249 141.492657 
L 286.954278 124.9303 
L 286.907396 126.543986 
L 286.81384 143.352124 
L 286.767166 142.780964 
L 286.627551 128.042376 
L 286.488548 144.558652 
L 286.396216 133.476732 
L 286.35015 134.883795 
L 286.258219 144.554733 
L 286.212353 144.035953 
L 286.120819 133.092338 
L 286.07515 133.959318 
L 285.984011 143.725259 
L 285.938538 143.495292 
L 285.802512 120.953596 
L 285.757298 128.464674 
L 285.667065 140.274853 
L 285.532193 119.250983 
L 285.397892 144.536508 
L 285.35325 138.418231 
L 285.308672 133.338793 
L 285.264156 136.449352 
L 285.17531 142.999057 
L 285.13098 139.535853 
L 285.086713 136.036961 
L 285.042506 137.989962 
L 284.954278 143.594239 
L 284.866294 134.871887 
L 284.822393 136.609339 
L 284.734773 144.669308 
L 284.603794 129.906473 
L 284.473354 144.118638 
L 284.429992 139.482074 
L 284.38669 136.000827 
L 284.343447 138.469901 
L 284.300262 141.053281 
L 284.257136 139.082733 
L 284.214069 139.220181 
L 284.128109 144.556657 
L 284.085216 141.544708 
L 283.999603 120.782967 
L 283.956883 122.034974 
L 283.829067 142.724783 
L 283.786576 136.693589 
L 283.744141 129.84606 
L 283.701763 129.984015 
L 283.574968 144.434537 
L 283.532815 140.834604 
L 283.490718 139.112598 
L 283.448677 141.284741 
L 283.36476 144.852845 
L 283.322885 143.282397 
L 283.239301 141.386844 
L 283.19759 141.999922 
L 283.114334 144.885052 
L 283.072788 144.572067 
L 282.989858 143.082867 
L 282.948474 144.169441 
L 282.907143 144.976477 
L 282.824644 137.770173 
L 282.783475 132.97039 
L 282.742358 135.662399 
L 282.660285 142.4107 
L 282.619328 137.930455 
L 282.537572 123.712661 
L 282.496773 128.618295 
L 282.374689 144.034588 
L 282.334098 141.45801 
L 282.212636 134.429972 
L 282.091637 143.907512 
L 282.051406 143.696022 
L 281.971097 131.919093 
L 281.931018 132.488647 
L 281.851013 142.996461 
L 281.811085 141.588794 
L 281.731381 129.964896 
L 281.691603 134.087438 
L 281.612198 141.992221 
L 281.572569 136.715338 
L 281.49346 125.440379 
L 281.45398 134.818189 
L 281.375165 144.209495 
L 281.335831 140.066635 
L 281.296546 135.203033 
L 281.257309 136.938981 
L 281.17898 143.971601 
L 281.139888 140.837205 
L 281.100844 140.048737 
L 280.984 144.564873 
L 280.945147 142.22412 
L 280.906341 140.585109 
L 280.867583 142.374867 
L 280.828872 144.485198 
L 280.790209 143.864817 
L 280.713022 140.698309 
L 280.674499 142.202842 
L 280.597593 144.336507 
L 280.482582 137.138678 
L 280.444337 140.32317 
L 280.367985 144.438031 
L 280.329878 143.485129 
L 280.215831 134.211705 
L 280.177906 137.110195 
L 280.102191 143.82275 
L 280.064401 143.389219 
L 279.988957 137.15071 
L 279.951301 137.679968 
L 279.838602 145.152 
L 279.801125 144.246677 
L 279.763691 143.380825 
L 279.688957 144.078272 
L 279.651655 143.926614 
L 279.540013 145.125119 
L 279.28103 135.895581 
L 279.244204 132.794298 
L 279.207421 136.817466 
L 279.133982 142.715099 
L 279.097326 142.620367 
L 279.024141 140.610089 
L 278.951125 144.321564 
L 278.914679 141.558577 
L 278.878276 138.283276 
L 278.841914 140.268672 
L 278.769314 142.759533 
L 278.733077 140.807127 
L 278.660725 130.727806 
L 278.624611 136.568014 
L 278.516515 145.016181 
L 278.480565 144.779436 
L 278.444655 145.057338 
L 278.408785 144.681472 
L 278.30142 140.197539 
L 278.265712 142.37864 
L 278.230044 143.683859 
L 278.194416 143.198723 
L 278.12328 139.547857 
L 278.087772 141.4687 
L 278.016874 145.053999 
L 277.981484 143.702047 
L 277.910823 141.220998 
L 277.875551 143.484676 
L 277.805125 145.058245 
L 277.76997 144.569017 
L 277.664739 139.229556 
L 277.594778 140.315672 
L 277.524971 142.825153 
L 277.490125 141.620465 
L 277.420547 134.600737 
L 277.385815 136.776632 
L 277.281847 144.839845 
L 277.212724 144.837216 
L 277.178218 145.147886 
L 277.14375 144.912311 
L 277.074927 141.57987 
L 276.971969 142.351199 
L 276.937724 142.922954 
L 276.903516 142.516971 
L 276.869345 140.90359 
L 276.801112 142.710214 
L 276.733026 143.214747 
L 276.699038 142.812323 
L 276.63117 139.384042 
L 276.59729 135.85283 
L 276.529639 138.236785 
L 276.462131 140.79085 
L 276.428431 139.901491 
L 276.394767 138.32905 
L 276.327545 140.305856 
L 276.293988 140.494244 
L 276.12673 143.18107 
L 275.993554 139.53993 
L 275.960348 137.818574 
L 275.927176 140.706899 
L 275.894038 142.156077 
L 275.761833 136.27582 
L 275.597347 144.78862 
L 275.53179 143.638746 
L 275.433708 135.389404 
L 275.335928 137.037416 
L 275.303401 138.288521 
L 275.270908 136.300822 
L 275.238448 135.749182 
L 275.108938 139.740354 
L 275.076643 138.34353 
L 275.04438 139.995023 
L 274.883559 143.002585 
L 274.755485 144.272096 
L 274.659767 142.267328 
L 274.627926 139.686929 
L 274.564337 141.915766 
L 274.469193 145.053323 
L 274.374333 144.95019 
L 274.342776 144.890648 
L 274.21686 139.200585 
L 274.185459 139.777915 
L 274.091442 143.078307 
L 274.028918 142.638534 
L 273.935362 138.968707 
L 273.904238 141.254888 
L 273.71813 144.013308 
L 273.687218 144.240364 
L 273.656336 143.953716 
L 273.594662 141.871936 
L 273.533107 142.597368 
L 273.502374 142.62075 
L 273.440998 141.701114 
L 273.349155 145.144656 
L 273.3186 144.201206 
L 273.135883 135.363442 
L 273.105532 136.472236 
L 273.014653 144.686089 
L 272.954211 144.419649 
L 272.924033 144.710668 
L 272.893884 144.426681 
L 272.743565 132.752795 
L 272.683636 135.64748 
" style="fill:none;stroke:#1f77b4;stroke-linecap:square;stroke-width:1.5;"/>
   </g>
   <g id="patch_3">
    <path d="M 265.92 150.089143 
L 265.92 41.472 
" style="fill:none;stroke:#000000;stroke-linecap:square;stroke-linejoin:miter;stroke-width:0.8;"/>
   </g>
   <g id="patch_4">
    <path d="M 414.72 150.089143 
L 414.72 41.472 
" style="fill:none;stroke:#000000;stroke-linecap:square;stroke-linejoin:miter;stroke-width:0.8;"/>
   </g>
   <g id="patch_5">
    <path d="M 265.92 150.089143 
L 414.72 150.089143 
" style="fill:none;stroke:#000000;stroke-linecap:square;stroke-linejoin:miter;stroke-width:0.8;"/>
   </g>
   <g id="patch_6">
    <path d="M 265.92 41.472 
L 414.72 41.472 
" style="fill:none;stroke:#000000;stroke-linecap:square;stroke-linejoin:miter;stroke-width:0.8;"/>
   </g>
   <g id="text_8">
    <!-- Periodogram -->
    <g transform="translate(307.698125 35.472)scale(0.1 -0.1)">
     <defs>
      <path d="M 52.484375 46.6875 
L 52.484375 1.125 
Q 52.484375 -10.0625 46.328125 -16.140625 
Q 40.1875 -22.21875 28.8125 -22.21875 
Q 23.6875 -22.21875 19 -21.28125 
Q 14.3125 -20.359375 10.015625 -18.5 
L 10.015625 -7.625 
L 14.703125 -7.625 
Q 15.578125 -12.703125 18.84375 -15.046875 
Q 22.125 -17.390625 28.21875 -17.390625 
Q 36.140625 -17.390625 39.8125 -12.921875 
Q 43.5 -8.453125 43.5 1.125 
L 43.5 8.109375 
Q 40.875 3.21875 36.796875 0.890625 
Q 32.71875 -1.421875 26.703125 -1.421875 
Q 17.140625 -1.421875 11.0625 6.171875 
Q 4.984375 13.765625 4.984375 25.984375 
Q 4.984375 38.1875 11.03125 45.75 
Q 17.09375 53.328125 26.703125 53.328125 
Q 32.71875 53.328125 36.796875 51 
Q 40.875 48.6875 43.5 43.796875 
L 43.5 51.90625 
L 61.078125 51.90625 
L 61.078125 46.6875 
z
M 43.5 28.515625 
Q 43.5 37.84375 39.90625 42.765625 
Q 36.328125 47.703125 29.5 47.703125 
Q 22.5625 47.703125 19.015625 42.234375 
Q 15.484375 36.765625 15.484375 25.984375 
Q 15.484375 15.234375 19.015625 9.71875 
Q 22.5625 4.203125 29.5 4.203125 
Q 36.328125 4.203125 39.90625 9.109375 
Q 43.5 14.015625 43.5 23.390625 
z
" id="DejaVuSerif-103"/>
      <path d="M 39.796875 16.3125 
L 39.796875 27.296875 
L 28.21875 27.296875 
Q 21.53125 27.296875 18.25 24.40625 
Q 14.984375 21.53125 14.984375 15.578125 
Q 14.984375 10.15625 18.296875 6.984375 
Q 21.625 3.8125 27.296875 3.8125 
Q 32.90625 3.8125 36.34375 7.28125 
Q 39.796875 10.75 39.796875 16.3125 
z
M 48.78125 32.421875 
L 48.78125 5.171875 
L 56.78125 5.171875 
L 56.78125 0 
L 39.796875 0 
L 39.796875 5.609375 
Q 36.8125 2 32.90625 0.28125 
Q 29 -1.421875 23.78125 -1.421875 
Q 15.140625 -1.421875 10.0625 3.171875 
Q 4.984375 7.765625 4.984375 15.578125 
Q 4.984375 23.640625 10.796875 28.078125 
Q 16.609375 32.515625 27.203125 32.515625 
L 39.796875 32.515625 
L 39.796875 36.078125 
Q 39.796875 42 36.203125 45.234375 
Q 32.625 48.484375 26.125 48.484375 
Q 20.75 48.484375 17.578125 46.046875 
Q 14.40625 43.609375 13.625 38.8125 
L 8.984375 38.8125 
L 8.984375 49.3125 
Q 13.671875 51.3125 18.09375 52.3125 
Q 22.515625 53.328125 26.703125 53.328125 
Q 37.5 53.328125 43.140625 47.96875 
Q 48.78125 42.625 48.78125 32.421875 
z
" id="DejaVuSerif-97"/>
      <path d="M 51.8125 41.796875 
Q 54.390625 47.515625 58.421875 50.421875 
Q 62.453125 53.328125 67.828125 53.328125 
Q 75.984375 53.328125 79.984375 48.265625 
Q 83.984375 43.21875 83.984375 33.015625 
L 83.984375 5.171875 
L 92.09375 5.171875 
L 92.09375 0 
L 67.1875 0 
L 67.1875 5.171875 
L 75 5.171875 
L 75 31.984375 
Q 75 39.9375 72.65625 43.3125 
Q 70.3125 46.6875 64.890625 46.6875 
Q 58.890625 46.6875 55.734375 42.140625 
Q 52.59375 37.59375 52.59375 28.90625 
L 52.59375 5.171875 
L 60.40625 5.171875 
L 60.40625 0 
L 35.796875 0 
L 35.796875 5.171875 
L 43.609375 5.171875 
L 43.609375 32.328125 
Q 43.609375 40.09375 41.265625 43.390625 
Q 38.921875 46.6875 33.5 46.6875 
Q 27.484375 46.6875 24.328125 42.140625 
Q 21.1875 37.59375 21.1875 28.90625 
L 21.1875 5.171875 
L 29 5.171875 
L 29 0 
L 4.109375 0 
L 4.109375 5.171875 
L 12.203125 5.171875 
L 12.203125 46.78125 
L 3.609375 46.78125 
L 3.609375 51.90625 
L 21.1875 51.90625 
L 21.1875 42.671875 
Q 23.6875 47.859375 27.53125 50.59375 
Q 31.390625 53.328125 36.28125 53.328125 
Q 42.328125 53.328125 46.375 50.3125 
Q 50.4375 47.3125 51.8125 41.796875 
z
" id="DejaVuSerif-109"/>
     </defs>
     <use xlink:href="#DejaVuSerif-80"/>
     <use x="62.785156" xlink:href="#DejaVuSerif-101"/>
     <use x="121.964844" xlink:href="#DejaVuSerif-114"/>
     <use x="169.767578" xlink:href="#DejaVuSerif-105"/>
     <use x="201.75" xlink:href="#DejaVuSerif-111"/>
     <use x="261.955078" xlink:href="#DejaVuSerif-100"/>
     <use x="325.96875" xlink:href="#DejaVuSerif-111"/>
     <use x="386.173828" xlink:href="#DejaVuSerif-103"/>
     <use x="450.1875" xlink:href="#DejaVuSerif-114"/>
     <use x="497.990234" xlink:href="#DejaVuSerif-97"/>
     <use x="557.609375" xlink:href="#DejaVuSerif-109"/>
    </g>
   </g>
   <g id="legend_1">
    <g id="patch_7">
     <path d="M 419.648125 108.123071 
L 454.431875 108.123071 
Q 455.231875 108.123071 455.231875 107.323071 
L 455.231875 84.238071 
Q 455.231875 83.438071 454.431875 83.438071 
L 419.648125 83.438071 
Q 418.848125 83.438071 418.848125 84.238071 
L 418.848125 107.323071 
Q 418.848125 108.123071 419.648125 108.123071 
z
" style="fill:#ffffff;opacity:0.8;stroke:#cccccc;stroke-linejoin:miter;"/>
    </g>
    <g id="line2d_23">
     <path d="M 420.448125 86.677446 
L 428.448125 86.677446 
" style="fill:none;stroke:#808080;stroke-dasharray:5.55,2.4;stroke-dashoffset:0;stroke-width:1.5;"/>
    </g>
    <g id="text_9">
     <!-- 99.9% FAP -->
     <g transform="translate(431.648125 88.077446)scale(0.04 -0.04)">
      <defs>
       <path d="M 46.78125 32.671875 
Q 43.5 29 39.25 27.1875 
Q 35.015625 25.390625 29.6875 25.390625 
Q 18.84375 25.390625 12.5625 31.9375 
Q 6.296875 38.484375 6.296875 49.8125 
Q 6.296875 60.890625 13.109375 67.546875 
Q 19.921875 74.21875 31.296875 74.21875 
Q 43.65625 74.21875 50.265625 65.015625 
Q 56.890625 55.8125 56.890625 38.71875 
Q 56.890625 19.578125 49.015625 9.078125 
Q 41.15625 -1.421875 26.90625 -1.421875 
Q 23.046875 -1.421875 18.796875 -0.6875 
Q 14.546875 0.046875 10.109375 1.515625 
L 10.109375 13.625 
L 15.578125 13.625 
Q 16.21875 8.6875 19.390625 6.046875 
Q 22.5625 3.421875 27.875 3.421875 
Q 37.359375 3.421875 41.984375 10.5625 
Q 46.625 17.71875 46.78125 32.671875 
z
M 30.90625 69.390625 
Q 23.96875 69.390625 20.28125 64.328125 
Q 16.609375 59.28125 16.609375 49.8125 
Q 16.609375 40.328125 20.28125 35.25 
Q 23.96875 30.171875 30.90625 30.171875 
Q 37.84375 30.171875 41.53125 35.078125 
Q 45.21875 39.984375 45.21875 49.21875 
Q 45.21875 58.9375 41.5 64.15625 
Q 37.796875 69.390625 30.90625 69.390625 
z
" id="DejaVuSerif-57"/>
       <path d="M 22.40625 69.671875 
Q 18.109375 69.671875 15.6875 65.625 
Q 13.28125 61.578125 13.28125 54.296875 
Q 13.28125 47.125 15.75 43.015625 
Q 18.21875 38.921875 22.40625 38.921875 
Q 26.5625 38.921875 28.96875 43 
Q 31.390625 47.078125 31.390625 54.296875 
Q 31.390625 61.53125 28.96875 65.59375 
Q 26.5625 69.671875 22.40625 69.671875 
z
M 72.703125 33.890625 
Q 68.453125 33.890625 66.03125 29.78125 
Q 63.625 25.6875 63.625 18.40625 
Q 63.625 11.234375 66.0625 7.15625 
Q 68.5 3.078125 72.703125 3.078125 
Q 76.90625 3.078125 79.296875 7.15625 
Q 81.6875 11.234375 81.6875 18.40625 
Q 81.6875 25.640625 79.265625 29.765625 
Q 76.859375 33.890625 72.703125 33.890625 
z
M 72.703125 38.28125 
Q 80.421875 38.28125 84.953125 32.90625 
Q 89.5 27.546875 89.5 18.40625 
Q 89.5 9.28125 84.9375 3.921875 
Q 80.375 -1.421875 72.703125 -1.421875 
Q 64.890625 -1.421875 60.34375 3.921875 
Q 55.8125 9.28125 55.8125 18.40625 
Q 55.8125 27.59375 60.375 32.9375 
Q 64.9375 38.28125 72.703125 38.28125 
z
M 66.609375 74.21875 
L 74.03125 74.21875 
L 28.421875 -1.421875 
L 21 -1.421875 
z
M 22.3125 74.21875 
Q 30.03125 74.21875 34.609375 68.875 
Q 39.203125 63.53125 39.203125 54.390625 
Q 39.203125 45.171875 34.640625 39.84375 
Q 30.078125 34.515625 22.3125 34.515625 
Q 14.546875 34.515625 10.03125 39.859375 
Q 5.515625 45.21875 5.515625 54.390625 
Q 5.515625 63.484375 10.046875 68.84375 
Q 14.59375 74.21875 22.3125 74.21875 
z
" id="DejaVuSerif-37"/>
       <path d="M 5.515625 0 
L 5.515625 5.171875 
L 14.796875 5.171875 
L 14.796875 67.671875 
L 5.515625 67.671875 
L 5.515625 72.90625 
L 65.1875 72.90625 
L 65.1875 56.6875 
L 59.1875 56.6875 
L 59.1875 66.890625 
L 24.703125 66.890625 
L 24.703125 42.484375 
L 49.609375 42.484375 
L 49.609375 51.609375 
L 55.609375 51.609375 
L 55.609375 27.390625 
L 49.609375 27.390625 
L 49.609375 36.53125 
L 24.703125 36.53125 
L 24.703125 5.171875 
L 36.375 5.171875 
L 36.375 0 
z
" id="DejaVuSerif-70"/>
       <path d="M 20.015625 26.421875 
L 46.78125 26.421875 
L 33.40625 61.078125 
z
M -0.59375 0 
L -0.59375 5.171875 
L 5.8125 5.171875 
L 31.78125 72.90625 
L 39.984375 72.90625 
L 66.015625 5.171875 
L 73.1875 5.171875 
L 73.1875 0 
L 46.6875 0 
L 46.6875 5.171875 
L 54.78125 5.171875 
L 48.6875 21.1875 
L 18.015625 21.1875 
L 11.921875 5.171875 
L 19.921875 5.171875 
L 19.921875 0 
z
" id="DejaVuSerif-65"/>
      </defs>
      <use xlink:href="#DejaVuSerif-57"/>
      <use x="63.623047" xlink:href="#DejaVuSerif-57"/>
      <use x="127.246094" xlink:href="#DejaVuSerif-46"/>
      <use x="159.033203" xlink:href="#DejaVuSerif-57"/>
      <use x="222.65625" xlink:href="#DejaVuSerif-37"/>
      <use x="317.675781" xlink:href="#DejaVuSerif-32"/>
      <use x="349.462891" xlink:href="#DejaVuSerif-70"/>
      <use x="410.097656" xlink:href="#DejaVuSerif-65"/>
      <use x="482.314453" xlink:href="#DejaVuSerif-80"/>
     </g>
    </g>
    <g id="line2d_24">
     <path d="M 420.448125 92.548696 
L 428.448125 92.548696 
" style="fill:none;stroke:#a9a9a9;stroke-dasharray:5.55,2.4;stroke-dashoffset:0;stroke-width:1.5;"/>
    </g>
    <g id="text_10">
     <!-- 99.0% FAP -->
     <g transform="translate(431.648125 93.948696)scale(0.04 -0.04)">
      <use xlink:href="#DejaVuSerif-57"/>
      <use x="63.623047" xlink:href="#DejaVuSerif-57"/>
      <use x="127.246094" xlink:href="#DejaVuSerif-46"/>
      <use x="159.033203" xlink:href="#DejaVuSerif-48"/>
      <use x="222.65625" xlink:href="#DejaVuSerif-37"/>
      <use x="317.675781" xlink:href="#DejaVuSerif-32"/>
      <use x="349.462891" xlink:href="#DejaVuSerif-70"/>
      <use x="410.097656" xlink:href="#DejaVuSerif-65"/>
      <use x="482.314453" xlink:href="#DejaVuSerif-80"/>
     </g>
    </g>
    <g id="line2d_25">
     <path d="M 420.448125 98.419946 
L 428.448125 98.419946 
" style="fill:none;stroke:#c0c0c0;stroke-dasharray:5.55,2.4;stroke-dashoffset:0;stroke-width:1.5;"/>
    </g>
    <g id="text_11">
     <!-- 95.0% FAP -->
     <g transform="translate(431.648125 99.819946)scale(0.04 -0.04)">
      <defs>
       <path d="M 50.296875 72.90625 
L 50.296875 64.890625 
L 16.890625 64.890625 
L 16.890625 44 
Q 19.4375 45.75 22.828125 46.625 
Q 26.21875 47.515625 30.421875 47.515625 
Q 42.234375 47.515625 49.0625 40.96875 
Q 55.90625 34.421875 55.90625 23.09375 
Q 55.90625 11.53125 49 5.046875 
Q 42.09375 -1.421875 29.59375 -1.421875 
Q 24.5625 -1.421875 19.28125 -0.1875 
Q 14.015625 1.03125 8.5 3.515625 
L 8.5 17.671875 
L 14.015625 17.671875 
Q 14.453125 10.75 18.421875 7.078125 
Q 22.40625 3.421875 29.59375 3.421875 
Q 37.3125 3.421875 41.453125 8.5 
Q 45.609375 13.578125 45.609375 23.09375 
Q 45.609375 32.5625 41.484375 37.609375 
Q 37.359375 42.671875 29.59375 42.671875 
Q 25.203125 42.671875 21.84375 41.109375 
Q 18.5 39.546875 15.921875 36.28125 
L 11.71875 36.28125 
L 11.71875 72.90625 
z
" id="DejaVuSerif-53"/>
      </defs>
      <use xlink:href="#DejaVuSerif-57"/>
      <use x="63.623047" xlink:href="#DejaVuSerif-53"/>
      <use x="127.246094" xlink:href="#DejaVuSerif-46"/>
      <use x="159.033203" xlink:href="#DejaVuSerif-48"/>
      <use x="222.65625" xlink:href="#DejaVuSerif-37"/>
      <use x="317.675781" xlink:href="#DejaVuSerif-32"/>
      <use x="349.462891" xlink:href="#DejaVuSerif-70"/>
      <use x="410.097656" xlink:href="#DejaVuSerif-65"/>
      <use x="482.314453" xlink:href="#DejaVuSerif-80"/>
     </g>
    </g>
    <g id="line2d_26">
     <path d="M 420.448125 104.291196 
L 428.448125 104.291196 
" style="fill:none;stroke:#d3d3d3;stroke-dasharray:5.55,2.4;stroke-dashoffset:0;stroke-width:1.5;"/>
    </g>
    <g id="text_12">
     <!-- 90.0% FAP -->
     <g transform="translate(431.648125 105.691196)scale(0.04 -0.04)">
      <use xlink:href="#DejaVuSerif-57"/>
      <use x="63.623047" xlink:href="#DejaVuSerif-48"/>
      <use x="127.246094" xlink:href="#DejaVuSerif-46"/>
      <use x="159.033203" xlink:href="#DejaVuSerif-48"/>
      <use x="222.65625" xlink:href="#DejaVuSerif-37"/>
      <use x="317.675781" xlink:href="#DejaVuSerif-32"/>
      <use x="349.462891" xlink:href="#DejaVuSerif-70"/>
      <use x="410.097656" xlink:href="#DejaVuSerif-65"/>
      <use x="482.314453" xlink:href="#DejaVuSerif-80"/>
     </g>
    </g>
   </g>
  </g>
  <g id="axes_2">
   <g id="patch_8">
    <path d="M 57.6 150.089143 
L 206.4 150.089143 
L 206.4 41.472 
L 57.6 41.472 
z
" style="fill:#ffffff;"/>
   </g>
   <g id="PathCollection_1">
    <defs>
     <path d="M 0 0.707107 
C 0.187527 0.707107 0.367398 0.632602 0.5 0.5 
C 0.632602 0.367398 0.707107 0.187527 0.707107 0 
C 0.707107 -0.187527 0.632602 -0.367398 0.5 -0.5 
C 0.367398 -0.632602 0.187527 -0.707107 0 -0.707107 
C -0.187527 -0.707107 -0.367398 -0.632602 -0.5 -0.5 
C -0.632602 -0.367398 -0.707107 -0.187527 -0.707107 0 
C -0.707107 0.187527 -0.632602 0.367398 -0.5 0.5 
C -0.367398 0.632602 -0.187527 0.707107 0 0.707107 
z
" id="m0373b2b1da" style="stroke:#1f77b4;"/>
    </defs>
    <g clip-path="url(#pd49d776629)">
     <use style="fill:#1f77b4;stroke:#1f77b4;" x="113.149932" xlink:href="#m0373b2b1da" y="77.710983"/>
     <use style="fill:#1f77b4;stroke:#1f77b4;" x="113.151538" xlink:href="#m0373b2b1da" y="67.839733"/>
     <use style="fill:#1f77b4;stroke:#1f77b4;" x="131.669826" xlink:href="#m0373b2b1da" y="112.131193"/>
     <use style="fill:#1f77b4;stroke:#1f77b4;" x="131.671433" xlink:href="#m0373b2b1da" y="108.942691"/>
     <use style="fill:#1f77b4;stroke:#1f77b4;" x="70.947631" xlink:href="#m0373b2b1da" y="68.703517"/>
     <use style="fill:#1f77b4;stroke:#1f77b4;" x="81.245438" xlink:href="#m0373b2b1da" y="96.260137"/>
     <use style="fill:#1f77b4;stroke:#1f77b4;" x="81.256601" xlink:href="#m0373b2b1da" y="98.74335"/>
     <use style="fill:#1f77b4;stroke:#1f77b4;" x="103.382564" xlink:href="#m0373b2b1da" y="111.884408"/>
     <use style="fill:#1f77b4;stroke:#1f77b4;" x="106.848483" xlink:href="#m0373b2b1da" y="108.050898"/>
     <use style="fill:#1f77b4;stroke:#1f77b4;" x="106.850049" xlink:href="#m0373b2b1da" y="91.191306"/>
     <use style="fill:#1f77b4;stroke:#1f77b4;" x="113.860194" xlink:href="#m0373b2b1da" y="63.840818"/>
     <use style="fill:#1f77b4;stroke:#1f77b4;" x="113.8618" xlink:href="#m0373b2b1da" y="105.563421"/>
     <use style="fill:#1f77b4;stroke:#1f77b4;" x="120.689311" xlink:href="#m0373b2b1da" y="67.127461"/>
     <use style="fill:#1f77b4;stroke:#1f77b4;" x="120.690918" xlink:href="#m0373b2b1da" y="77.882049"/>
     <use style="fill:#1f77b4;stroke:#1f77b4;" x="124.124832" xlink:href="#m0373b2b1da" y="53.13394"/>
     <use style="fill:#1f77b4;stroke:#1f77b4;" x="124.126438" xlink:href="#m0373b2b1da" y="79.620717"/>
     <use style="fill:#1f77b4;stroke:#1f77b4;" x="127.77973" xlink:href="#m0373b2b1da" y="93.451626"/>
     <use style="fill:#1f77b4;stroke:#1f77b4;" x="127.781296" xlink:href="#m0373b2b1da" y="79.421569"/>
     <use style="fill:#1f77b4;stroke:#1f77b4;" x="131.099719" xlink:href="#m0373b2b1da" y="88.315456"/>
     <use style="fill:#1f77b4;stroke:#1f77b4;" x="131.101325" xlink:href="#m0373b2b1da" y="65.704239"/>
     <use style="fill:#1f77b4;stroke:#1f77b4;" x="66.601068" xlink:href="#m0373b2b1da" y="55.25679"/>
     <use style="fill:#1f77b4;stroke:#1f77b4;" x="66.602635" xlink:href="#m0373b2b1da" y="71.85416"/>
     <use style="fill:#1f77b4;stroke:#1f77b4;" x="97.852611" xlink:href="#m0373b2b1da" y="97.027104"/>
     <use style="fill:#1f77b4;stroke:#1f77b4;" x="121.94121" xlink:href="#m0373b2b1da" y="62.135745"/>
     <use style="fill:#1f77b4;stroke:#1f77b4;" x="125.395002" xlink:href="#m0373b2b1da" y="46.409143"/>
     <use style="fill:#1f77b4;stroke:#1f77b4;" x="128.865379" xlink:href="#m0373b2b1da" y="107.058172"/>
     <use style="fill:#1f77b4;stroke:#1f77b4;" x="64.363636" xlink:href="#m0373b2b1da" y="94.752816"/>
     <use style="fill:#1f77b4;stroke:#1f77b4;" x="67.847827" xlink:href="#m0373b2b1da" y="94.065758"/>
     <use style="fill:#1f77b4;stroke:#1f77b4;" x="109.534795" xlink:href="#m0373b2b1da" y="116.685356"/>
     <use style="fill:#1f77b4;stroke:#1f77b4;" x="72.098779" xlink:href="#m0373b2b1da" y="86.432407"/>
     <use style="fill:#1f77b4;stroke:#1f77b4;" x="76.074573" xlink:href="#m0373b2b1da" y="100.229647"/>
     <use style="fill:#1f77b4;stroke:#1f77b4;" x="79.608157" xlink:href="#m0373b2b1da" y="94.312543"/>
     <use style="fill:#1f77b4;stroke:#1f77b4;" x="103.823693" xlink:href="#m0373b2b1da" y="130.360637"/>
     <use style="fill:#1f77b4;stroke:#1f77b4;" x="114.298834" xlink:href="#m0373b2b1da" y="87.677506"/>
     <use style="fill:#1f77b4;stroke:#1f77b4;" x="116.441379" xlink:href="#m0373b2b1da" y="60.230274"/>
     <use style="fill:#1f77b4;stroke:#1f77b4;" x="130.319593" xlink:href="#m0373b2b1da" y="89.149761"/>
     <use style="fill:#1f77b4;stroke:#1f77b4;" x="97.024577" xlink:href="#m0373b2b1da" y="99.758499"/>
     <use style="fill:#1f77b4;stroke:#1f77b4;" x="74.833491" xlink:href="#m0373b2b1da" y="101.971109"/>
     <use style="fill:#1f77b4;stroke:#1f77b4;" x="74.542234" xlink:href="#m0373b2b1da" y="81.276683"/>
     <use style="fill:#1f77b4;stroke:#1f77b4;" x="79.261458" xlink:href="#m0373b2b1da" y="86.170185"/>
     <use style="fill:#1f77b4;stroke:#1f77b4;" x="79.263024" xlink:href="#m0373b2b1da" y="87.326993"/>
     <use style="fill:#1f77b4;stroke:#1f77b4;" x="82.642445" xlink:href="#m0373b2b1da" y="129.795538"/>
     <use style="fill:#1f77b4;stroke:#1f77b4;" x="82.644011" xlink:href="#m0373b2b1da" y="138.138442"/>
     <use style="fill:#1f77b4;stroke:#1f77b4;" x="85.962393" xlink:href="#m0373b2b1da" y="131.537074"/>
     <use style="fill:#1f77b4;stroke:#1f77b4;" x="85.963959" xlink:href="#m0373b2b1da" y="145.152"/>
    </g>
   </g>
   <g id="PathCollection_2">
    <g clip-path="url(#pd49d776629)">
     <use style="fill:#1f77b4;stroke:#1f77b4;" x="181.114863" xlink:href="#m0373b2b1da" y="77.710983"/>
     <use style="fill:#1f77b4;stroke:#1f77b4;" x="181.116469" xlink:href="#m0373b2b1da" y="67.839733"/>
     <use style="fill:#1f77b4;stroke:#1f77b4;" x="199.634757" xlink:href="#m0373b2b1da" y="112.131193"/>
     <use style="fill:#1f77b4;stroke:#1f77b4;" x="199.636364" xlink:href="#m0373b2b1da" y="108.942691"/>
     <use style="fill:#1f77b4;stroke:#1f77b4;" x="138.912561" xlink:href="#m0373b2b1da" y="68.703517"/>
     <use style="fill:#1f77b4;stroke:#1f77b4;" x="149.210369" xlink:href="#m0373b2b1da" y="96.260137"/>
     <use style="fill:#1f77b4;stroke:#1f77b4;" x="149.221532" xlink:href="#m0373b2b1da" y="98.74335"/>
     <use style="fill:#1f77b4;stroke:#1f77b4;" x="171.347494" xlink:href="#m0373b2b1da" y="111.884408"/>
     <use style="fill:#1f77b4;stroke:#1f77b4;" x="174.813414" xlink:href="#m0373b2b1da" y="108.050898"/>
     <use style="fill:#1f77b4;stroke:#1f77b4;" x="174.81498" xlink:href="#m0373b2b1da" y="91.191306"/>
     <use style="fill:#1f77b4;stroke:#1f77b4;" x="181.825125" xlink:href="#m0373b2b1da" y="63.840818"/>
     <use style="fill:#1f77b4;stroke:#1f77b4;" x="181.826731" xlink:href="#m0373b2b1da" y="105.563421"/>
     <use style="fill:#1f77b4;stroke:#1f77b4;" x="188.654242" xlink:href="#m0373b2b1da" y="67.127461"/>
     <use style="fill:#1f77b4;stroke:#1f77b4;" x="188.655848" xlink:href="#m0373b2b1da" y="77.882049"/>
     <use style="fill:#1f77b4;stroke:#1f77b4;" x="192.089762" xlink:href="#m0373b2b1da" y="53.13394"/>
     <use style="fill:#1f77b4;stroke:#1f77b4;" x="192.091368" xlink:href="#m0373b2b1da" y="79.620717"/>
     <use style="fill:#1f77b4;stroke:#1f77b4;" x="195.744661" xlink:href="#m0373b2b1da" y="93.451626"/>
     <use style="fill:#1f77b4;stroke:#1f77b4;" x="195.746227" xlink:href="#m0373b2b1da" y="79.421569"/>
     <use style="fill:#1f77b4;stroke:#1f77b4;" x="199.064649" xlink:href="#m0373b2b1da" y="88.315456"/>
     <use style="fill:#1f77b4;stroke:#1f77b4;" x="199.066256" xlink:href="#m0373b2b1da" y="65.704239"/>
     <use style="fill:#1f77b4;stroke:#1f77b4;" x="134.565999" xlink:href="#m0373b2b1da" y="55.25679"/>
     <use style="fill:#1f77b4;stroke:#1f77b4;" x="134.567565" xlink:href="#m0373b2b1da" y="71.85416"/>
     <use style="fill:#1f77b4;stroke:#1f77b4;" x="165.817541" xlink:href="#m0373b2b1da" y="97.027104"/>
     <use style="fill:#1f77b4;stroke:#1f77b4;" x="189.906141" xlink:href="#m0373b2b1da" y="62.135745"/>
     <use style="fill:#1f77b4;stroke:#1f77b4;" x="193.359933" xlink:href="#m0373b2b1da" y="46.409143"/>
     <use style="fill:#1f77b4;stroke:#1f77b4;" x="196.830309" xlink:href="#m0373b2b1da" y="107.058172"/>
     <use style="fill:#1f77b4;stroke:#1f77b4;" x="132.328567" xlink:href="#m0373b2b1da" y="94.752816"/>
     <use style="fill:#1f77b4;stroke:#1f77b4;" x="135.812758" xlink:href="#m0373b2b1da" y="94.065758"/>
     <use style="fill:#1f77b4;stroke:#1f77b4;" x="177.499726" xlink:href="#m0373b2b1da" y="116.685356"/>
     <use style="fill:#1f77b4;stroke:#1f77b4;" x="140.06371" xlink:href="#m0373b2b1da" y="86.432407"/>
     <use style="fill:#1f77b4;stroke:#1f77b4;" x="144.039504" xlink:href="#m0373b2b1da" y="100.229647"/>
     <use style="fill:#1f77b4;stroke:#1f77b4;" x="147.573088" xlink:href="#m0373b2b1da" y="94.312543"/>
     <use style="fill:#1f77b4;stroke:#1f77b4;" x="171.788624" xlink:href="#m0373b2b1da" y="130.360637"/>
     <use style="fill:#1f77b4;stroke:#1f77b4;" x="182.263765" xlink:href="#m0373b2b1da" y="87.677506"/>
     <use style="fill:#1f77b4;stroke:#1f77b4;" x="184.406309" xlink:href="#m0373b2b1da" y="60.230274"/>
     <use style="fill:#1f77b4;stroke:#1f77b4;" x="198.284523" xlink:href="#m0373b2b1da" y="89.149761"/>
     <use style="fill:#1f77b4;stroke:#1f77b4;" x="164.989508" xlink:href="#m0373b2b1da" y="99.758499"/>
     <use style="fill:#1f77b4;stroke:#1f77b4;" x="142.798422" xlink:href="#m0373b2b1da" y="101.971109"/>
     <use style="fill:#1f77b4;stroke:#1f77b4;" x="142.507165" xlink:href="#m0373b2b1da" y="81.276683"/>
     <use style="fill:#1f77b4;stroke:#1f77b4;" x="147.226389" xlink:href="#m0373b2b1da" y="86.170185"/>
     <use style="fill:#1f77b4;stroke:#1f77b4;" x="147.227955" xlink:href="#m0373b2b1da" y="87.326993"/>
     <use style="fill:#1f77b4;stroke:#1f77b4;" x="150.607376" xlink:href="#m0373b2b1da" y="129.795538"/>
     <use style="fill:#1f77b4;stroke:#1f77b4;" x="150.608942" xlink:href="#m0373b2b1da" y="138.138442"/>
     <use style="fill:#1f77b4;stroke:#1f77b4;" x="153.927324" xlink:href="#m0373b2b1da" y="131.537074"/>
     <use style="fill:#1f77b4;stroke:#1f77b4;" x="153.92889" xlink:href="#m0373b2b1da" y="145.152"/>
    </g>
   </g>
   <g id="matplotlib.axis_3">
    <g id="xtick_19">
     <g id="line2d_27">
      <g>
       <use style="stroke:#000000;stroke-width:0.8;" x="63.857986" xlink:href="#m5952f60f5f" y="150.089143"/>
      </g>
     </g>
     <g id="text_13">
      <!-- 0 -->
      <g transform="translate(60.676736 164.68758)scale(0.1 -0.1)">
       <use xlink:href="#DejaVuSerif-48"/>
      </g>
     </g>
    </g>
    <g id="xtick_20">
     <g id="line2d_28">
      <g>
       <use style="stroke:#000000;stroke-width:0.8;" x="131.822917" xlink:href="#m5952f60f5f" y="150.089143"/>
      </g>
     </g>
     <g id="text_14">
      <!-- 1 -->
      <g transform="translate(128.641667 164.68758)scale(0.1 -0.1)">
       <use xlink:href="#DejaVuSerif-49"/>
      </g>
     </g>
    </g>
    <g id="xtick_21">
     <g id="line2d_29">
      <g>
       <use style="stroke:#000000;stroke-width:0.8;" x="199.787848" xlink:href="#m5952f60f5f" y="150.089143"/>
      </g>
     </g>
     <g id="text_15">
      <!-- 2 -->
      <g transform="translate(196.606598 164.68758)scale(0.1 -0.1)">
       <use xlink:href="#DejaVuSerif-50"/>
      </g>
     </g>
    </g>
    <g id="text_16">
     <!-- Phase (P = 19.589 d) -->
     <g transform="translate(78.401562 178.365705)scale(0.1 -0.1)">
      <defs>
       <path d="M 4.109375 0 
L 4.109375 5.171875 
L 12.203125 5.171875 
L 12.203125 70.796875 
L 3.609375 70.796875 
L 3.609375 75.984375 
L 21.1875 75.984375 
L 21.1875 42.671875 
Q 23.6875 47.953125 27.65625 50.640625 
Q 31.640625 53.328125 36.921875 53.328125 
Q 45.515625 53.328125 49.5625 48.390625 
Q 53.609375 43.453125 53.609375 33.015625 
L 53.609375 5.171875 
L 61.625 5.171875 
L 61.625 0 
L 36.8125 0 
L 36.8125 5.171875 
L 44.578125 5.171875 
L 44.578125 30.171875 
Q 44.578125 39.703125 42.25 43.1875 
Q 39.9375 46.6875 33.984375 46.6875 
Q 27.734375 46.6875 24.453125 42.140625 
Q 21.1875 37.59375 21.1875 28.90625 
L 21.1875 5.171875 
L 29 5.171875 
L 29 0 
z
" id="DejaVuSerif-104"/>
       <path d="M 5.609375 2.875 
L 5.609375 14.984375 
L 10.796875 14.984375 
Q 10.984375 9.1875 14.421875 6.296875 
Q 17.875 3.421875 24.609375 3.421875 
Q 30.671875 3.421875 33.84375 5.6875 
Q 37.015625 7.953125 37.015625 12.3125 
Q 37.015625 15.71875 34.6875 17.8125 
Q 32.375 19.921875 24.90625 22.3125 
L 18.40625 24.515625 
Q 11.71875 26.65625 8.71875 29.875 
Q 5.71875 33.109375 5.71875 38.09375 
Q 5.71875 45.21875 10.9375 49.265625 
Q 16.15625 53.328125 25.390625 53.328125 
Q 29.5 53.328125 34.03125 52.25 
Q 38.578125 51.171875 43.40625 49.125 
L 43.40625 37.796875 
L 38.234375 37.796875 
Q 38.03125 42.828125 34.703125 45.65625 
Q 31.390625 48.484375 25.6875 48.484375 
Q 20.015625 48.484375 17.109375 46.484375 
Q 14.203125 44.484375 14.203125 40.484375 
Q 14.203125 37.203125 16.40625 35.21875 
Q 18.609375 33.25 25.203125 31.203125 
L 32.328125 29 
Q 39.703125 26.703125 42.9375 23.265625 
Q 46.1875 19.828125 46.1875 14.40625 
Q 46.1875 7.03125 40.546875 2.796875 
Q 34.90625 -1.421875 25 -1.421875 
Q 19.96875 -1.421875 15.1875 -0.34375 
Q 10.40625 0.734375 5.609375 2.875 
z
" id="DejaVuSerif-115"/>
       <path d="M 31.890625 -15.578125 
Q 20.015625 -10.25 13.953125 1.296875 
Q 7.90625 12.84375 7.90625 30.171875 
Q 7.90625 47.5625 13.953125 59.109375 
Q 20.015625 70.65625 31.890625 75.984375 
L 31.890625 71.1875 
Q 24.359375 66.015625 21.09375 56.609375 
Q 17.828125 47.21875 17.828125 30.171875 
Q 17.828125 13.1875 21.09375 3.78125 
Q 24.359375 -5.609375 31.890625 -10.796875 
z
" id="DejaVuSerif-40"/>
       <path d="M 10.59375 45.21875 
L 73.1875 45.21875 
L 73.1875 37.40625 
L 10.59375 37.40625 
z
M 10.59375 25.296875 
L 73.1875 25.296875 
L 73.1875 17.484375 
L 10.59375 17.484375 
z
" id="DejaVuSerif-61"/>
       <path d="M 46.578125 19.921875 
Q 46.578125 27.734375 42.6875 32.046875 
Q 38.8125 36.375 31.78125 36.375 
Q 24.75 36.375 20.875 32.046875 
Q 17 27.734375 17 19.921875 
Q 17 12.0625 20.875 7.734375 
Q 24.75 3.421875 31.78125 3.421875 
Q 38.8125 3.421875 42.6875 7.734375 
Q 46.578125 12.0625 46.578125 19.921875 
z
M 44.578125 55.328125 
Q 44.578125 61.96875 41.203125 65.671875 
Q 37.84375 69.390625 31.78125 69.390625 
Q 25.78125 69.390625 22.390625 65.671875 
Q 19 61.96875 19 55.328125 
Q 19 48.640625 22.390625 44.921875 
Q 25.78125 41.21875 31.78125 41.21875 
Q 37.84375 41.21875 41.203125 44.921875 
Q 44.578125 48.640625 44.578125 55.328125 
z
M 39.3125 38.8125 
Q 47.609375 37.703125 52.25 32.6875 
Q 56.890625 27.6875 56.890625 19.921875 
Q 56.890625 9.671875 50.390625 4.125 
Q 43.890625 -1.421875 31.78125 -1.421875 
Q 19.734375 -1.421875 13.203125 4.125 
Q 6.6875 9.671875 6.6875 19.921875 
Q 6.6875 27.6875 11.328125 32.6875 
Q 15.96875 37.703125 24.3125 38.8125 
Q 16.9375 40.140625 13 44.40625 
Q 9.078125 48.6875 9.078125 55.328125 
Q 9.078125 64.109375 15.125 69.15625 
Q 21.1875 74.21875 31.78125 74.21875 
Q 42.390625 74.21875 48.4375 69.15625 
Q 54.5 64.109375 54.5 55.328125 
Q 54.5 48.6875 50.5625 44.40625 
Q 46.625 40.140625 39.3125 38.8125 
z
" id="DejaVuSerif-56"/>
       <path d="M 7.078125 -15.578125 
L 7.078125 -10.796875 
Q 14.59375 -5.609375 17.890625 3.78125 
Q 21.1875 13.1875 21.1875 30.171875 
Q 21.1875 47.21875 17.890625 56.609375 
Q 14.59375 66.015625 7.078125 71.1875 
L 7.078125 75.984375 
Q 19 70.65625 25.046875 59.109375 
Q 31.109375 47.5625 31.109375 30.171875 
Q 31.109375 12.84375 25.046875 1.296875 
Q 19 -10.25 7.078125 -15.578125 
z
" id="DejaVuSerif-41"/>
      </defs>
      <use xlink:href="#DejaVuSerif-80"/>
      <use x="67.285156" xlink:href="#DejaVuSerif-104"/>
      <use x="131.689453" xlink:href="#DejaVuSerif-97"/>
      <use x="191.308594" xlink:href="#DejaVuSerif-115"/>
      <use x="242.626953" xlink:href="#DejaVuSerif-101"/>
      <use x="301.806641" xlink:href="#DejaVuSerif-32"/>
      <use x="333.59375" xlink:href="#DejaVuSerif-40"/>
      <use x="372.607422" xlink:href="#DejaVuSerif-80"/>
      <use x="439.892578" xlink:href="#DejaVuSerif-32"/>
      <use x="471.679688" xlink:href="#DejaVuSerif-61"/>
      <use x="555.46875" xlink:href="#DejaVuSerif-32"/>
      <use x="587.255859" xlink:href="#DejaVuSerif-49"/>
      <use x="650.878906" xlink:href="#DejaVuSerif-57"/>
      <use x="714.501953" xlink:href="#DejaVuSerif-46"/>
      <use x="746.289062" xlink:href="#DejaVuSerif-53"/>
      <use x="809.912109" xlink:href="#DejaVuSerif-56"/>
      <use x="873.535156" xlink:href="#DejaVuSerif-57"/>
      <use x="937.158203" xlink:href="#DejaVuSerif-32"/>
      <use x="968.945312" xlink:href="#DejaVuSerif-100"/>
      <use x="1032.958984" xlink:href="#DejaVuSerif-41"/>
     </g>
    </g>
   </g>
   <g id="matplotlib.axis_4">
    <g id="ytick_4">
     <g id="line2d_30">
      <g>
       <use style="stroke:#000000;stroke-width:0.8;" x="57.6" xlink:href="#m7690d43963" y="47.977333"/>
      </g>
     </g>
     <g id="text_17">
      <!-- 16.80 -->
      <g transform="translate(21.971875 51.776552)scale(0.1 -0.1)">
       <defs>
        <path d="M 32.71875 3.421875 
Q 39.59375 3.421875 43.296875 8.46875 
Q 47.015625 13.53125 47.015625 23 
Q 47.015625 32.46875 43.296875 37.515625 
Q 39.59375 42.578125 32.71875 42.578125 
Q 25.734375 42.578125 22.0625 37.6875 
Q 18.40625 32.8125 18.40625 23.578125 
Q 18.40625 13.875 22.109375 8.640625 
Q 25.828125 3.421875 32.71875 3.421875 
z
M 16.796875 40.140625 
Q 20.125 43.796875 24.3125 45.59375 
Q 28.515625 47.40625 33.796875 47.40625 
Q 44.671875 47.40625 51 40.859375 
Q 57.328125 34.328125 57.328125 23 
Q 57.328125 11.921875 50.515625 5.25 
Q 43.703125 -1.421875 32.328125 -1.421875 
Q 19.96875 -1.421875 13.328125 7.78125 
Q 6.6875 17 6.6875 34.078125 
Q 6.6875 53.21875 14.546875 63.71875 
Q 22.40625 74.21875 36.71875 74.21875 
Q 40.578125 74.21875 44.828125 73.484375 
Q 49.078125 72.75 53.515625 71.296875 
L 53.515625 59.28125 
L 48 59.28125 
Q 47.40625 64.203125 44.234375 66.796875 
Q 41.0625 69.390625 35.6875 69.390625 
Q 26.21875 69.390625 21.578125 62.203125 
Q 16.9375 55.03125 16.796875 40.140625 
z
" id="DejaVuSerif-54"/>
       </defs>
       <use xlink:href="#DejaVuSerif-49"/>
       <use x="63.623047" xlink:href="#DejaVuSerif-54"/>
       <use x="127.246094" xlink:href="#DejaVuSerif-46"/>
       <use x="159.033203" xlink:href="#DejaVuSerif-56"/>
       <use x="222.65625" xlink:href="#DejaVuSerif-48"/>
      </g>
     </g>
    </g>
    <g id="ytick_5">
     <g id="line2d_31">
      <g>
       <use style="stroke:#000000;stroke-width:0.8;" x="57.6" xlink:href="#m7690d43963" y="84.734098"/>
      </g>
     </g>
     <g id="text_18">
      <!-- 16.85 -->
      <g transform="translate(21.971875 88.533317)scale(0.1 -0.1)">
       <use xlink:href="#DejaVuSerif-49"/>
       <use x="63.623047" xlink:href="#DejaVuSerif-54"/>
       <use x="127.246094" xlink:href="#DejaVuSerif-46"/>
       <use x="159.033203" xlink:href="#DejaVuSerif-56"/>
       <use x="222.65625" xlink:href="#DejaVuSerif-53"/>
      </g>
     </g>
    </g>
    <g id="ytick_6">
     <g id="line2d_32">
      <g>
       <use style="stroke:#000000;stroke-width:0.8;" x="57.6" xlink:href="#m7690d43963" y="121.490862"/>
      </g>
     </g>
     <g id="text_19">
      <!-- 16.90 -->
      <g transform="translate(21.971875 125.290081)scale(0.1 -0.1)">
       <use xlink:href="#DejaVuSerif-49"/>
       <use x="63.623047" xlink:href="#DejaVuSerif-54"/>
       <use x="127.246094" xlink:href="#DejaVuSerif-46"/>
       <use x="159.033203" xlink:href="#DejaVuSerif-57"/>
       <use x="222.65625" xlink:href="#DejaVuSerif-48"/>
      </g>
     </g>
    </g>
    <g id="text_20">
     <!-- Mag -->
     <g transform="translate(15.75 107.082134)rotate(-90)scale(0.1 -0.1)">
      <defs>
       <path d="M 5.515625 0 
L 5.515625 5.171875 
L 14.796875 5.171875 
L 14.796875 67.671875 
L 4.984375 67.671875 
L 4.984375 72.90625 
L 26.21875 72.90625 
L 51.8125 21 
L 77.390625 72.90625 
L 97.3125 72.90625 
L 97.3125 67.671875 
L 87.59375 67.671875 
L 87.59375 5.171875 
L 96.921875 5.171875 
L 96.921875 0 
L 68.40625 0 
L 68.40625 5.171875 
L 77.6875 5.171875 
L 77.6875 61.53125 
L 52.6875 10.6875 
L 45.796875 10.6875 
L 20.796875 61.53125 
L 20.796875 5.171875 
L 30.078125 5.171875 
L 30.078125 0 
z
" id="DejaVuSerif-77"/>
      </defs>
      <use xlink:href="#DejaVuSerif-77"/>
      <use x="102.392578" xlink:href="#DejaVuSerif-97"/>
      <use x="162.011719" xlink:href="#DejaVuSerif-103"/>
     </g>
    </g>
   </g>
   <g id="patch_9">
    <path d="M 57.6 150.089143 
L 57.6 41.472 
" style="fill:none;stroke:#000000;stroke-linecap:square;stroke-linejoin:miter;stroke-width:0.8;"/>
   </g>
   <g id="patch_10">
    <path d="M 206.4 150.089143 
L 206.4 41.472 
" style="fill:none;stroke:#000000;stroke-linecap:square;stroke-linejoin:miter;stroke-width:0.8;"/>
   </g>
   <g id="patch_11">
    <path d="M 57.6 150.089143 
L 206.4 150.089143 
" style="fill:none;stroke:#000000;stroke-linecap:square;stroke-linejoin:miter;stroke-width:0.8;"/>
   </g>
   <g id="patch_12">
    <path d="M 57.6 41.472 
L 206.4 41.472 
" style="fill:none;stroke:#000000;stroke-linecap:square;stroke-linejoin:miter;stroke-width:0.8;"/>
   </g>
   <g id="text_21">
    <!-- Folded Light Curve -->
    <g transform="translate(83.086719 35.472)scale(0.1 -0.1)">
     <defs>
      <path d="M 20.515625 5.171875 
L 29 5.171875 
L 29 0 
L 2.875 0 
L 2.875 5.171875 
L 11.53125 5.171875 
L 11.53125 70.796875 
L 2.875 70.796875 
L 2.875 75.984375 
L 20.515625 75.984375 
z
" id="DejaVuSerif-108"/>
      <path d="M 5.515625 0 
L 5.515625 5.171875 
L 14.796875 5.171875 
L 14.796875 67.671875 
L 5.515625 67.671875 
L 5.515625 72.90625 
L 33.984375 72.90625 
L 33.984375 67.671875 
L 24.703125 67.671875 
L 24.703125 6 
L 58.015625 6 
L 58.015625 18.21875 
L 64.015625 18.21875 
L 64.015625 0 
z
" id="DejaVuSerif-76"/>
      <path d="M 10.796875 46.6875 
L 2.875 46.6875 
L 2.875 51.90625 
L 10.796875 51.90625 
L 10.796875 68.015625 
L 19.828125 68.015625 
L 19.828125 51.90625 
L 36.71875 51.90625 
L 36.71875 46.6875 
L 19.828125 46.6875 
L 19.828125 13.71875 
Q 19.828125 7.125 21.09375 5.265625 
Q 22.359375 3.421875 25.78125 3.421875 
Q 29.296875 3.421875 30.90625 5.484375 
Q 32.515625 7.5625 32.625 12.203125 
L 39.40625 12.203125 
Q 39.015625 5.125 35.546875 1.84375 
Q 32.078125 -1.421875 25 -1.421875 
Q 17.234375 -1.421875 14.015625 2.015625 
Q 10.796875 5.46875 10.796875 13.71875 
z
" id="DejaVuSerif-116"/>
      <path d="M 70.515625 19.28125 
Q 67.28125 9.078125 59.6875 3.828125 
Q 52.09375 -1.421875 40.484375 -1.421875 
Q 33.34375 -1.421875 27.234375 1.015625 
Q 21.140625 3.46875 16.40625 8.203125 
Q 10.9375 13.671875 8.265625 20.625 
Q 5.609375 27.59375 5.609375 36.375 
Q 5.609375 53.375 15.421875 63.796875 
Q 25.25 74.21875 41.3125 74.21875 
Q 47.265625 74.21875 54 72.65625 
Q 60.75 71.09375 68.5 67.921875 
L 68.5 51.125 
L 62.984375 51.125 
Q 61.1875 60.296875 55.734375 64.640625 
Q 50.296875 69 40.484375 69 
Q 28.8125 69 22.796875 60.71875 
Q 16.796875 52.4375 16.796875 36.375 
Q 16.796875 20.359375 22.796875 12.078125 
Q 28.8125 3.8125 40.484375 3.8125 
Q 48.640625 3.8125 53.90625 7.6875 
Q 59.1875 11.578125 61.53125 19.28125 
z
" id="DejaVuSerif-67"/>
      <path d="M 35.40625 51.90625 
L 52.203125 51.90625 
L 52.203125 5.171875 
L 60.6875 5.171875 
L 60.6875 0 
L 43.21875 0 
L 43.21875 9.1875 
Q 40.71875 4 36.765625 1.28125 
Q 32.8125 -1.421875 27.59375 -1.421875 
Q 18.953125 -1.421875 14.875 3.484375 
Q 10.796875 8.40625 10.796875 18.890625 
L 10.796875 46.6875 
L 2.6875 46.6875 
L 2.6875 51.90625 
L 19.828125 51.90625 
L 19.828125 21.6875 
Q 19.828125 12.203125 22.140625 8.6875 
Q 24.46875 5.171875 30.421875 5.171875 
Q 36.671875 5.171875 39.9375 9.765625 
Q 43.21875 14.359375 43.21875 23.09375 
L 43.21875 46.6875 
L 35.40625 46.6875 
z
" id="DejaVuSerif-117"/>
      <path d="M 24.703125 0 
L 5.609375 46.6875 
L -0.296875 46.6875 
L -0.296875 51.90625 
L 23.578125 51.90625 
L 23.578125 46.6875 
L 15.28125 46.6875 
L 29.890625 10.984375 
L 44.484375 46.6875 
L 36.71875 46.6875 
L 36.71875 51.90625 
L 56.203125 51.90625 
L 56.203125 46.6875 
L 50.390625 46.6875 
L 31.296875 0 
z
" id="DejaVuSerif-118"/>
     </defs>
     <use xlink:href="#DejaVuSerif-70"/>
     <use x="63.884766" xlink:href="#DejaVuSerif-111"/>
     <use x="124.089844" xlink:href="#DejaVuSerif-108"/>
     <use x="156.072266" xlink:href="#DejaVuSerif-100"/>
     <use x="220.085938" xlink:href="#DejaVuSerif-101"/>
     <use x="279.265625" xlink:href="#DejaVuSerif-100"/>
     <use x="343.279297" xlink:href="#DejaVuSerif-32"/>
     <use x="375.066406" xlink:href="#DejaVuSerif-76"/>
     <use x="441.472656" xlink:href="#DejaVuSerif-105"/>
     <use x="473.455078" xlink:href="#DejaVuSerif-103"/>
     <use x="537.46875" xlink:href="#DejaVuSerif-104"/>
     <use x="601.873047" xlink:href="#DejaVuSerif-116"/>
     <use x="642.058594" xlink:href="#DejaVuSerif-32"/>
     <use x="673.845703" xlink:href="#DejaVuSerif-67"/>
     <use x="750.359375" xlink:href="#DejaVuSerif-117"/>
     <use x="814.763672" xlink:href="#DejaVuSerif-114"/>
     <use x="862.566406" xlink:href="#DejaVuSerif-118"/>
     <use x="919.060547" xlink:href="#DejaVuSerif-101"/>
    </g>
   </g>
  </g>
  <g id="axes_3">
   <g id="patch_13">
    <path d="M 57.6 307.584 
L 414.72 307.584 
L 414.72 198.966857 
L 57.6 198.966857 
z
" style="fill:#ffffff;"/>
   </g>
   <g id="PathCollection_3">
    <g clip-path="url(#p5949c8dadb)">
     <use style="fill:#1f77b4;stroke:#1f77b4;" x="73.832727" xlink:href="#m0373b2b1da" y="239.176585"/>
     <use style="fill:#1f77b4;stroke:#1f77b4;" x="73.833119" xlink:href="#m0373b2b1da" y="231.566925"/>
     <use style="fill:#1f77b4;stroke:#1f77b4;" x="94.910293" xlink:href="#m0373b2b1da" y="265.710823"/>
     <use style="fill:#1f77b4;stroke:#1f77b4;" x="94.910684" xlink:href="#m0373b2b1da" y="263.252834"/>
     <use style="fill:#1f77b4;stroke:#1f77b4;" x="96.675449" xlink:href="#m0373b2b1da" y="232.232809"/>
     <use style="fill:#1f77b4;stroke:#1f77b4;" x="99.185169" xlink:href="#m0373b2b1da" y="253.475965"/>
     <use style="fill:#1f77b4;stroke:#1f77b4;" x="99.18789" xlink:href="#m0373b2b1da" y="255.390252"/>
     <use style="fill:#1f77b4;stroke:#1f77b4;" x="121.144305" xlink:href="#m0373b2b1da" y="265.520578"/>
     <use style="fill:#1f77b4;stroke:#1f77b4;" x="121.988998" xlink:href="#m0373b2b1da" y="262.565359"/>
     <use style="fill:#1f77b4;stroke:#1f77b4;" x="121.98938" xlink:href="#m0373b2b1da" y="249.568447"/>
     <use style="fill:#1f77b4;stroke:#1f77b4;" x="123.69785" xlink:href="#m0373b2b1da" y="228.484197"/>
     <use style="fill:#1f77b4;stroke:#1f77b4;" x="123.698242" xlink:href="#m0373b2b1da" y="260.647785"/>
     <use style="fill:#1f77b4;stroke:#1f77b4;" x="125.362202" xlink:href="#m0373b2b1da" y="231.017841"/>
     <use style="fill:#1f77b4;stroke:#1f77b4;" x="125.362594" xlink:href="#m0373b2b1da" y="239.308458"/>
     <use style="fill:#1f77b4;stroke:#1f77b4;" x="126.199487" xlink:href="#m0373b2b1da" y="220.230359"/>
     <use style="fill:#1f77b4;stroke:#1f77b4;" x="126.199878" xlink:href="#m0373b2b1da" y="240.648783"/>
     <use style="fill:#1f77b4;stroke:#1f77b4;" x="127.090237" xlink:href="#m0373b2b1da" y="251.310909"/>
     <use style="fill:#1f77b4;stroke:#1f77b4;" x="127.090618" xlink:href="#m0373b2b1da" y="240.495261"/>
     <use style="fill:#1f77b4;stroke:#1f77b4;" x="127.899364" xlink:href="#m0373b2b1da" y="247.351481"/>
     <use style="fill:#1f77b4;stroke:#1f77b4;" x="127.899756" xlink:href="#m0373b2b1da" y="229.920692"/>
     <use style="fill:#1f77b4;stroke:#1f77b4;" x="128.744146" xlink:href="#m0373b2b1da" y="221.866845"/>
     <use style="fill:#1f77b4;stroke:#1f77b4;" x="128.744527" xlink:href="#m0373b2b1da" y="234.661612"/>
     <use style="fill:#1f77b4;stroke:#1f77b4;" x="136.360585" xlink:href="#m0373b2b1da" y="254.067213"/>
     <use style="fill:#1f77b4;stroke:#1f77b4;" x="142.231315" xlink:href="#m0373b2b1da" y="227.169771"/>
     <use style="fill:#1f77b4;stroke:#1f77b4;" x="143.073052" xlink:href="#m0373b2b1da" y="215.046272"/>
     <use style="fill:#1f77b4;stroke:#1f77b4;" x="143.918832" xlink:href="#m0373b2b1da" y="261.800075"/>
     <use style="fill:#1f77b4;stroke:#1f77b4;" x="144.76286" xlink:href="#m0373b2b1da" y="252.313984"/>
     <use style="fill:#1f77b4;stroke:#1f77b4;" x="145.612006" xlink:href="#m0373b2b1da" y="251.784338"/>
     <use style="fill:#1f77b4;stroke:#1f77b4;" x="155.771705" xlink:href="#m0373b2b1da" y="269.221587"/>
     <use style="fill:#1f77b4;stroke:#1f77b4;" x="163.21203" xlink:href="#m0373b2b1da" y="245.899855"/>
     <use style="fill:#1f77b4;stroke:#1f77b4;" x="164.180987" xlink:href="#m0373b2b1da" y="256.536025"/>
     <use style="fill:#1f77b4;stroke:#1f77b4;" x="165.042171" xlink:href="#m0373b2b1da" y="251.974582"/>
     <use style="fill:#1f77b4;stroke:#1f77b4;" x="170.943837" xlink:href="#m0373b2b1da" y="279.763741"/>
     <use style="fill:#1f77b4;stroke:#1f77b4;" x="173.496775" xlink:href="#m0373b2b1da" y="246.85969"/>
     <use style="fill:#1f77b4;stroke:#1f77b4;" x="207.146958" xlink:href="#m0373b2b1da" y="225.700861"/>
     <use style="fill:#1f77b4;stroke:#1f77b4;" x="210.529274" xlink:href="#m0373b2b1da" y="247.994639"/>
     <use style="fill:#1f77b4;stroke:#1f77b4;" x="218.978819" xlink:href="#m0373b2b1da" y="256.172821"/>
     <use style="fill:#1f77b4;stroke:#1f77b4;" x="346.082599" xlink:href="#m0373b2b1da" y="257.878503"/>
     <use style="fill:#1f77b4;stroke:#1f77b4;" x="379.139631" xlink:href="#m0373b2b1da" y="241.925352"/>
     <use style="fill:#1f77b4;stroke:#1f77b4;" x="396.853779" xlink:href="#m0373b2b1da" y="245.697709"/>
     <use style="fill:#1f77b4;stroke:#1f77b4;" x="396.854161" xlink:href="#m0373b2b1da" y="246.589483"/>
     <use style="fill:#1f77b4;stroke:#1f77b4;" x="397.677773" xlink:href="#m0373b2b1da" y="279.328111"/>
     <use style="fill:#1f77b4;stroke:#1f77b4;" x="397.678155" xlink:href="#m0373b2b1da" y="285.759582"/>
     <use style="fill:#1f77b4;stroke:#1f77b4;" x="398.486891" xlink:href="#m0373b2b1da" y="280.670646"/>
     <use style="fill:#1f77b4;stroke:#1f77b4;" x="398.487273" xlink:href="#m0373b2b1da" y="291.166273"/>
    </g>
   </g>
   <g id="matplotlib.axis_5">
    <g id="xtick_22">
     <g id="line2d_33">
      <g>
       <use style="stroke:#000000;stroke-width:0.8;" x="97.996351" xlink:href="#m5952f60f5f" y="307.584"/>
      </g>
     </g>
     <g id="text_22">
      <!-- 58300 -->
      <g transform="translate(82.090101 322.182437)scale(0.1 -0.1)">
       <defs>
        <path d="M 9.71875 69.828125 
Q 15.4375 71.96875 20.671875 73.09375 
Q 25.921875 74.21875 30.515625 74.21875 
Q 41.21875 74.21875 47.21875 69.59375 
Q 53.21875 64.984375 53.21875 56.78125 
Q 53.21875 50.203125 49.0625 45.78125 
Q 44.921875 41.359375 37.3125 39.796875 
Q 46.296875 38.53125 51.25 33.28125 
Q 56.203125 28.03125 56.203125 19.671875 
Q 56.203125 9.46875 49.34375 4.015625 
Q 42.484375 -1.421875 29.59375 -1.421875 
Q 23.875 -1.421875 18.421875 -0.1875 
Q 12.984375 1.03125 7.625 3.515625 
L 7.625 17.671875 
L 13.09375 17.671875 
Q 13.578125 10.640625 17.828125 7.03125 
Q 22.078125 3.421875 29.78125 3.421875 
Q 37.25 3.421875 41.578125 7.734375 
Q 45.90625 12.0625 45.90625 19.578125 
Q 45.90625 28.171875 41.453125 32.59375 
Q 37.015625 37.015625 28.421875 37.015625 
L 23.78125 37.015625 
L 23.78125 42 
L 26.21875 42 
Q 34.765625 42 39.03125 45.53125 
Q 43.3125 49.078125 43.3125 56.203125 
Q 43.3125 62.59375 39.796875 65.984375 
Q 36.28125 69.390625 29.6875 69.390625 
Q 23.09375 69.390625 19.453125 66.265625 
Q 15.828125 63.140625 15.1875 56.984375 
L 9.71875 56.984375 
z
" id="DejaVuSerif-51"/>
       </defs>
       <use xlink:href="#DejaVuSerif-53"/>
       <use x="63.623047" xlink:href="#DejaVuSerif-56"/>
       <use x="127.246094" xlink:href="#DejaVuSerif-51"/>
       <use x="190.869141" xlink:href="#DejaVuSerif-48"/>
       <use x="254.492188" xlink:href="#DejaVuSerif-48"/>
      </g>
     </g>
    </g>
    <g id="xtick_23">
     <g id="line2d_34">
      <g>
       <use style="stroke:#000000;stroke-width:0.8;" x="140.27554" xlink:href="#m5952f60f5f" y="307.584"/>
      </g>
     </g>
     <g id="text_23">
      <!-- 58350 -->
      <g transform="translate(124.36929 322.182437)scale(0.1 -0.1)">
       <use xlink:href="#DejaVuSerif-53"/>
       <use x="63.623047" xlink:href="#DejaVuSerif-56"/>
       <use x="127.246094" xlink:href="#DejaVuSerif-51"/>
       <use x="190.869141" xlink:href="#DejaVuSerif-53"/>
       <use x="254.492188" xlink:href="#DejaVuSerif-48"/>
      </g>
     </g>
    </g>
    <g id="xtick_24">
     <g id="line2d_35">
      <g>
       <use style="stroke:#000000;stroke-width:0.8;" x="182.55473" xlink:href="#m5952f60f5f" y="307.584"/>
      </g>
     </g>
     <g id="text_24">
      <!-- 58400 -->
      <g transform="translate(166.64848 322.182437)scale(0.1 -0.1)">
       <use xlink:href="#DejaVuSerif-53"/>
       <use x="63.623047" xlink:href="#DejaVuSerif-56"/>
       <use x="127.246094" xlink:href="#DejaVuSerif-52"/>
       <use x="190.869141" xlink:href="#DejaVuSerif-48"/>
       <use x="254.492188" xlink:href="#DejaVuSerif-48"/>
      </g>
     </g>
    </g>
    <g id="xtick_25">
     <g id="line2d_36">
      <g>
       <use style="stroke:#000000;stroke-width:0.8;" x="224.833919" xlink:href="#m5952f60f5f" y="307.584"/>
      </g>
     </g>
     <g id="text_25">
      <!-- 58450 -->
      <g transform="translate(208.927669 322.182437)scale(0.1 -0.1)">
       <use xlink:href="#DejaVuSerif-53"/>
       <use x="63.623047" xlink:href="#DejaVuSerif-56"/>
       <use x="127.246094" xlink:href="#DejaVuSerif-52"/>
       <use x="190.869141" xlink:href="#DejaVuSerif-53"/>
       <use x="254.492188" xlink:href="#DejaVuSerif-48"/>
      </g>
     </g>
    </g>
    <g id="xtick_26">
     <g id="line2d_37">
      <g>
       <use style="stroke:#000000;stroke-width:0.8;" x="267.113108" xlink:href="#m5952f60f5f" y="307.584"/>
      </g>
     </g>
     <g id="text_26">
      <!-- 58500 -->
      <g transform="translate(251.206858 322.182437)scale(0.1 -0.1)">
       <use xlink:href="#DejaVuSerif-53"/>
       <use x="63.623047" xlink:href="#DejaVuSerif-56"/>
       <use x="127.246094" xlink:href="#DejaVuSerif-53"/>
       <use x="190.869141" xlink:href="#DejaVuSerif-48"/>
       <use x="254.492188" xlink:href="#DejaVuSerif-48"/>
      </g>
     </g>
    </g>
    <g id="xtick_27">
     <g id="line2d_38">
      <g>
       <use style="stroke:#000000;stroke-width:0.8;" x="309.392298" xlink:href="#m5952f60f5f" y="307.584"/>
      </g>
     </g>
     <g id="text_27">
      <!-- 58550 -->
      <g transform="translate(293.486048 322.182437)scale(0.1 -0.1)">
       <use xlink:href="#DejaVuSerif-53"/>
       <use x="63.623047" xlink:href="#DejaVuSerif-56"/>
       <use x="127.246094" xlink:href="#DejaVuSerif-53"/>
       <use x="190.869141" xlink:href="#DejaVuSerif-53"/>
       <use x="254.492188" xlink:href="#DejaVuSerif-48"/>
      </g>
     </g>
    </g>
    <g id="xtick_28">
     <g id="line2d_39">
      <g>
       <use style="stroke:#000000;stroke-width:0.8;" x="351.671487" xlink:href="#m5952f60f5f" y="307.584"/>
      </g>
     </g>
     <g id="text_28">
      <!-- 58600 -->
      <g transform="translate(335.765237 322.182437)scale(0.1 -0.1)">
       <use xlink:href="#DejaVuSerif-53"/>
       <use x="63.623047" xlink:href="#DejaVuSerif-56"/>
       <use x="127.246094" xlink:href="#DejaVuSerif-54"/>
       <use x="190.869141" xlink:href="#DejaVuSerif-48"/>
       <use x="254.492188" xlink:href="#DejaVuSerif-48"/>
      </g>
     </g>
    </g>
    <g id="xtick_29">
     <g id="line2d_40">
      <g>
       <use style="stroke:#000000;stroke-width:0.8;" x="393.950677" xlink:href="#m5952f60f5f" y="307.584"/>
      </g>
     </g>
     <g id="text_29">
      <!-- 58650 -->
      <g transform="translate(378.044427 322.182437)scale(0.1 -0.1)">
       <use xlink:href="#DejaVuSerif-53"/>
       <use x="63.623047" xlink:href="#DejaVuSerif-56"/>
       <use x="127.246094" xlink:href="#DejaVuSerif-54"/>
       <use x="190.869141" xlink:href="#DejaVuSerif-53"/>
       <use x="254.492188" xlink:href="#DejaVuSerif-48"/>
      </g>
     </g>
    </g>
    <g id="text_30">
     <!-- MJD -->
     <g transform="translate(225.027187 335.860562)scale(0.1 -0.1)">
      <defs>
       <path d="M -8.40625 -17.484375 
L -8.40625 -6 
L -2.828125 -6 
Q -2.6875 -10.84375 -0.53125 -13.203125 
Q 1.609375 -15.578125 5.90625 -15.578125 
Q 11.71875 -15.578125 14.015625 -11.90625 
Q 16.3125 -8.25 16.3125 2.390625 
L 16.3125 67.671875 
L 4.984375 67.671875 
L 4.984375 72.90625 
L 35.5 72.90625 
L 35.5 67.671875 
L 26.21875 67.671875 
L 26.21875 2 
Q 26.21875 -10.0625 21.375 -15.421875 
Q 16.546875 -20.796875 5.8125 -20.796875 
Q 2.34375 -20.796875 -1.234375 -19.96875 
Q -4.828125 -19.140625 -8.40625 -17.484375 
z
" id="DejaVuSerif-74"/>
       <path d="M 24.703125 5.171875 
L 33.796875 5.171875 
Q 48 5.171875 55.59375 13.28125 
Q 63.1875 21.390625 63.1875 36.53125 
Q 63.1875 51.65625 55.609375 59.65625 
Q 48.046875 67.671875 33.796875 67.671875 
L 24.703125 67.671875 
z
M 5.515625 0 
L 5.515625 5.171875 
L 14.796875 5.171875 
L 14.796875 67.671875 
L 5.515625 67.671875 
L 5.515625 72.90625 
L 34.515625 72.90625 
Q 53.375 72.90625 63.890625 63.28125 
Q 74.421875 53.65625 74.421875 36.53125 
Q 74.421875 19.34375 63.875 9.671875 
Q 53.328125 0 34.515625 0 
z
" id="DejaVuSerif-68"/>
      </defs>
      <use xlink:href="#DejaVuSerif-77"/>
      <use x="102.392578" xlink:href="#DejaVuSerif-74"/>
      <use x="142.480469" xlink:href="#DejaVuSerif-68"/>
     </g>
    </g>
   </g>
   <g id="matplotlib.axis_6">
    <g id="ytick_7">
     <g id="line2d_41">
      <g>
       <use style="stroke:#000000;stroke-width:0.8;" x="57.6" xlink:href="#m7690d43963" y="216.255176"/>
      </g>
     </g>
     <g id="text_31">
      <!-- 16.80 -->
      <g transform="translate(21.971875 220.054395)scale(0.1 -0.1)">
       <use xlink:href="#DejaVuSerif-49"/>
       <use x="63.623047" xlink:href="#DejaVuSerif-54"/>
       <use x="127.246094" xlink:href="#DejaVuSerif-46"/>
       <use x="159.033203" xlink:href="#DejaVuSerif-56"/>
       <use x="222.65625" xlink:href="#DejaVuSerif-48"/>
      </g>
     </g>
    </g>
    <g id="ytick_8">
     <g id="line2d_42">
      <g>
       <use style="stroke:#000000;stroke-width:0.8;" x="57.6" xlink:href="#m7690d43963" y="244.590643"/>
      </g>
     </g>
     <g id="text_32">
      <!-- 16.85 -->
      <g transform="translate(21.971875 248.389861)scale(0.1 -0.1)">
       <use xlink:href="#DejaVuSerif-49"/>
       <use x="63.623047" xlink:href="#DejaVuSerif-54"/>
       <use x="127.246094" xlink:href="#DejaVuSerif-46"/>
       <use x="159.033203" xlink:href="#DejaVuSerif-56"/>
       <use x="222.65625" xlink:href="#DejaVuSerif-53"/>
      </g>
     </g>
    </g>
    <g id="ytick_9">
     <g id="line2d_43">
      <g>
       <use style="stroke:#000000;stroke-width:0.8;" x="57.6" xlink:href="#m7690d43963" y="272.926109"/>
      </g>
     </g>
     <g id="text_33">
      <!-- 16.90 -->
      <g transform="translate(21.971875 276.725328)scale(0.1 -0.1)">
       <use xlink:href="#DejaVuSerif-49"/>
       <use x="63.623047" xlink:href="#DejaVuSerif-54"/>
       <use x="127.246094" xlink:href="#DejaVuSerif-46"/>
       <use x="159.033203" xlink:href="#DejaVuSerif-57"/>
       <use x="222.65625" xlink:href="#DejaVuSerif-48"/>
      </g>
     </g>
    </g>
    <g id="ytick_10">
     <g id="line2d_44">
      <g>
       <use style="stroke:#000000;stroke-width:0.8;" x="57.6" xlink:href="#m7690d43963" y="301.261576"/>
      </g>
     </g>
     <g id="text_34">
      <!-- 16.95 -->
      <g transform="translate(21.971875 305.060795)scale(0.1 -0.1)">
       <use xlink:href="#DejaVuSerif-49"/>
       <use x="63.623047" xlink:href="#DejaVuSerif-54"/>
       <use x="127.246094" xlink:href="#DejaVuSerif-46"/>
       <use x="159.033203" xlink:href="#DejaVuSerif-57"/>
       <use x="222.65625" xlink:href="#DejaVuSerif-53"/>
      </g>
     </g>
    </g>
    <g id="text_35">
     <!-- Mag -->
     <g transform="translate(15.75 264.576991)rotate(-90)scale(0.1 -0.1)">
      <use xlink:href="#DejaVuSerif-77"/>
      <use x="102.392578" xlink:href="#DejaVuSerif-97"/>
      <use x="162.011719" xlink:href="#DejaVuSerif-103"/>
     </g>
    </g>
   </g>
   <g id="LineCollection_5">
    <path clip-path="url(#p5949c8dadb)" d="M 73.832727 227.932987 
L 73.832727 250.420183 
" style="fill:none;stroke:#1f77b4;stroke-width:0.5;"/>
    <path clip-path="url(#p5949c8dadb)" d="M 73.833119 220.355856 
L 73.833119 242.777994 
" style="fill:none;stroke:#1f77b4;stroke-width:0.5;"/>
    <path clip-path="url(#p5949c8dadb)" d="M 94.910293 254.349548 
L 94.910293 277.072097 
" style="fill:none;stroke:#1f77b4;stroke-width:0.5;"/>
    <path clip-path="url(#p5949c8dadb)" d="M 94.910684 251.902741 
L 94.910684 274.602927 
" style="fill:none;stroke:#1f77b4;stroke-width:0.5;"/>
    <path clip-path="url(#p5949c8dadb)" d="M 96.675449 221.018917 
L 96.675449 243.446701 
" style="fill:none;stroke:#1f77b4;stroke-width:0.5;"/>
    <path clip-path="url(#p5949c8dadb)" d="M 99.185169 242.169782 
L 99.185169 264.782148 
" style="fill:none;stroke:#1f77b4;stroke-width:0.5;"/>
    <path clip-path="url(#p5949c8dadb)" d="M 99.18789 244.075542 
L 99.18789 266.704962 
" style="fill:none;stroke:#1f77b4;stroke-width:0.5;"/>
    <path clip-path="url(#p5949c8dadb)" d="M 121.144305 254.160169 
L 121.144305 276.880988 
" style="fill:none;stroke:#1f77b4;stroke-width:0.5;"/>
    <path clip-path="url(#p5949c8dadb)" d="M 121.988998 251.218386 
L 121.988998 273.912333 
" style="fill:none;stroke:#1f77b4;stroke-width:0.5;"/>
    <path clip-path="url(#p5949c8dadb)" d="M 121.98938 238.279558 
L 121.98938 260.857337 
" style="fill:none;stroke:#1f77b4;stroke-width:0.5;"/>
    <path clip-path="url(#p5949c8dadb)" d="M 123.69785 217.286156 
L 123.69785 239.682238 
" style="fill:none;stroke:#1f77b4;stroke-width:0.5;"/>
    <path clip-path="url(#p5949c8dadb)" d="M 123.698242 249.309483 
L 123.698242 271.986087 
" style="fill:none;stroke:#1f77b4;stroke-width:0.5;"/>
    <path clip-path="url(#p5949c8dadb)" d="M 125.362202 219.809098 
L 125.362202 242.226583 
" style="fill:none;stroke:#1f77b4;stroke-width:0.5;"/>
    <path clip-path="url(#p5949c8dadb)" d="M 125.362594 228.064294 
L 125.362594 250.552623 
" style="fill:none;stroke:#1f77b4;stroke-width:0.5;"/>
    <path clip-path="url(#p5949c8dadb)" d="M 126.199487 209.066765 
L 126.199487 231.393952 
" style="fill:none;stroke:#1f77b4;stroke-width:0.5;"/>
    <path clip-path="url(#p5949c8dadb)" d="M 126.199878 229.398831 
L 126.199878 251.898734 
" style="fill:none;stroke:#1f77b4;stroke-width:0.5;"/>
    <path clip-path="url(#p5949c8dadb)" d="M 127.090237 240.014328 
L 127.090237 262.607489 
" style="fill:none;stroke:#1f77b4;stroke-width:0.5;"/>
    <path clip-path="url(#p5949c8dadb)" d="M 127.090618 229.245973 
L 127.090618 251.744549 
" style="fill:none;stroke:#1f77b4;stroke-width:0.5;"/>
    <path clip-path="url(#p5949c8dadb)" d="M 127.899364 236.07234 
L 127.899364 258.630621 
" style="fill:none;stroke:#1f77b4;stroke-width:0.5;"/>
    <path clip-path="url(#p5949c8dadb)" d="M 127.899756 218.716589 
L 127.899756 241.124794 
" style="fill:none;stroke:#1f77b4;stroke-width:0.5;"/>
    <path clip-path="url(#p5949c8dadb)" d="M 128.744146 210.696472 
L 128.744146 233.037218 
" style="fill:none;stroke:#1f77b4;stroke-width:0.5;"/>
    <path clip-path="url(#p5949c8dadb)" d="M 128.744527 223.437381 
L 128.744527 245.885843 
" style="fill:none;stroke:#1f77b4;stroke-width:0.5;"/>
    <path clip-path="url(#p5949c8dadb)" d="M 136.360585 242.7584 
L 136.360585 265.376025 
" style="fill:none;stroke:#1f77b4;stroke-width:0.5;"/>
    <path clip-path="url(#p5949c8dadb)" d="M 142.231315 215.977256 
L 142.231315 238.362286 
" style="fill:none;stroke:#1f77b4;stroke-width:0.5;"/>
    <path clip-path="url(#p5949c8dadb)" d="M 143.073052 203.904 
L 143.073052 226.188543 
" style="fill:none;stroke:#1f77b4;stroke-width:0.5;"/>
    <path clip-path="url(#p5949c8dadb)" d="M 143.918832 250.456564 
L 143.918832 273.143586 
" style="fill:none;stroke:#1f77b4;stroke-width:0.5;"/>
    <path clip-path="url(#p5949c8dadb)" d="M 144.76286 241.012959 
L 144.76286 263.61501 
" style="fill:none;stroke:#1f77b4;stroke-width:0.5;"/>
    <path clip-path="url(#p5949c8dadb)" d="M 145.612006 240.48566 
L 145.612006 263.083015 
" style="fill:none;stroke:#1f77b4;stroke-width:0.5;"/>
    <path clip-path="url(#p5949c8dadb)" d="M 155.771705 257.844237 
L 155.771705 280.598937 
" style="fill:none;stroke:#1f77b4;stroke-width:0.5;"/>
    <path clip-path="url(#p5949c8dadb)" d="M 163.21203 234.62707 
L 163.21203 257.172639 
" style="fill:none;stroke:#1f77b4;stroke-width:0.5;"/>
    <path clip-path="url(#p5949c8dadb)" d="M 164.180987 245.216196 
L 164.180987 267.855855 
" style="fill:none;stroke:#1f77b4;stroke-width:0.5;"/>
    <path clip-path="url(#p5949c8dadb)" d="M 165.042171 240.67506 
L 165.042171 263.274104 
" style="fill:none;stroke:#1f77b4;stroke-width:0.5;"/>
    <path clip-path="url(#p5949c8dadb)" d="M 170.943837 268.337392 
L 170.943837 291.19009 
" style="fill:none;stroke:#1f77b4;stroke-width:0.5;"/>
    <path clip-path="url(#p5949c8dadb)" d="M 173.496775 235.582708 
L 173.496775 258.136673 
" style="fill:none;stroke:#1f77b4;stroke-width:0.5;"/>
    <path clip-path="url(#p5949c8dadb)" d="M 207.146958 214.514506 
L 207.146958 236.887215 
" style="fill:none;stroke:#1f77b4;stroke-width:0.5;"/>
    <path clip-path="url(#p5949c8dadb)" d="M 210.529274 236.712676 
L 210.529274 259.276602 
" style="fill:none;stroke:#1f77b4;stroke-width:0.5;"/>
    <path clip-path="url(#p5949c8dadb)" d="M 218.978819 244.854618 
L 218.978819 267.491024 
" style="fill:none;stroke:#1f77b4;stroke-width:0.5;"/>
    <path clip-path="url(#p5949c8dadb)" d="M 346.082599 246.55266 
L 346.082599 269.204346 
" style="fill:none;stroke:#1f77b4;stroke-width:0.5;"/>
    <path clip-path="url(#p5949c8dadb)" d="M 379.139631 230.669876 
L 379.139631 253.180828 
" style="fill:none;stroke:#1f77b4;stroke-width:0.5;"/>
    <path clip-path="url(#p5949c8dadb)" d="M 396.853779 234.425812 
L 396.853779 256.969607 
" style="fill:none;stroke:#1f77b4;stroke-width:0.5;"/>
    <path clip-path="url(#p5949c8dadb)" d="M 396.854161 235.313682 
L 396.854161 257.865284 
" style="fill:none;stroke:#1f77b4;stroke-width:0.5;"/>
    <path clip-path="url(#p5949c8dadb)" d="M 397.677773 267.903809 
L 397.677773 290.752413 
" style="fill:none;stroke:#1f77b4;stroke-width:0.5;"/>
    <path clip-path="url(#p5949c8dadb)" d="M 397.678155 274.304877 
L 397.678155 297.214287 
" style="fill:none;stroke:#1f77b4;stroke-width:0.5;"/>
    <path clip-path="url(#p5949c8dadb)" d="M 398.486891 269.240031 
L 398.486891 292.10126 
" style="fill:none;stroke:#1f77b4;stroke-width:0.5;"/>
    <path clip-path="url(#p5949c8dadb)" d="M 398.487273 279.685688 
L 398.487273 302.646857 
" style="fill:none;stroke:#1f77b4;stroke-width:0.5;"/>
   </g>
   <g id="line2d_45">
    <path clip-path="url(#p5949c8dadb)" d="M 73.832727 239.176585 
L 73.833119 231.566925 
L 94.910293 265.710823 
L 94.910684 263.252834 
L 96.675449 232.232809 
L 99.185169 253.475965 
L 99.18789 255.390252 
L 121.144305 265.520578 
L 121.988998 262.565359 
L 121.98938 249.568447 
L 123.69785 228.484197 
L 123.698242 260.647785 
L 125.362202 231.017841 
L 125.362594 239.308458 
L 126.199487 220.230359 
L 126.199878 240.648783 
L 127.090237 251.310909 
L 127.090618 240.495261 
L 127.899364 247.351481 
L 127.899756 229.920692 
L 128.744146 221.866845 
L 128.744527 234.661612 
L 136.360585 254.067213 
L 142.231315 227.169771 
L 143.073052 215.046272 
L 143.918832 261.800075 
L 144.76286 252.313984 
L 145.612006 251.784338 
L 155.771705 269.221587 
L 163.21203 245.899855 
L 164.180987 256.536025 
L 165.042171 251.974582 
L 170.943837 279.763741 
L 173.496775 246.85969 
L 207.146958 225.700861 
L 210.529274 247.994639 
L 218.978819 256.172821 
L 346.082599 257.878503 
L 379.139631 241.925352 
L 396.853779 245.697709 
L 396.854161 246.589483 
L 397.677773 279.328111 
L 397.678155 285.759582 
L 398.486891 280.670646 
L 398.487273 291.166273 
" style="fill:none;"/>
   </g>
   <g id="patch_14">
    <path d="M 57.6 307.584 
L 57.6 198.966857 
" style="fill:none;stroke:#000000;stroke-linecap:square;stroke-linejoin:miter;stroke-width:0.8;"/>
   </g>
   <g id="patch_15">
    <path d="M 414.72 307.584 
L 414.72 198.966857 
" style="fill:none;stroke:#000000;stroke-linecap:square;stroke-linejoin:miter;stroke-width:0.8;"/>
   </g>
   <g id="patch_16">
    <path d="M 57.6 307.584 
L 414.72 307.584 
" style="fill:none;stroke:#000000;stroke-linecap:square;stroke-linejoin:miter;stroke-width:0.8;"/>
   </g>
   <g id="patch_17">
    <path d="M 57.6 198.966857 
L 414.72 198.966857 
" style="fill:none;stroke:#000000;stroke-linecap:square;stroke-linejoin:miter;stroke-width:0.8;"/>
   </g>
   <g id="text_36">
    <!-- Light Curve -->
    <g transform="translate(206.000625 192.966857)scale(0.1 -0.1)">
     <use xlink:href="#DejaVuSerif-76"/>
     <use x="66.40625" xlink:href="#DejaVuSerif-105"/>
     <use x="98.388672" xlink:href="#DejaVuSerif-103"/>
     <use x="162.402344" xlink:href="#DejaVuSerif-104"/>
     <use x="226.806641" xlink:href="#DejaVuSerif-116"/>
     <use x="266.992188" xlink:href="#DejaVuSerif-32"/>
     <use x="298.779297" xlink:href="#DejaVuSerif-67"/>
     <use x="375.292969" xlink:href="#DejaVuSerif-117"/>
     <use x="439.697266" xlink:href="#DejaVuSerif-114"/>
     <use x="487.5" xlink:href="#DejaVuSerif-118"/>
     <use x="543.994141" xlink:href="#DejaVuSerif-101"/>
    </g>
   </g>
  </g>
 </g>
 <defs>
  <clipPath id="p75dba23d94">
   <rect height="108.617143" width="148.8" x="265.92" y="41.472"/>
  </clipPath>
  <clipPath id="pd49d776629">
   <rect height="108.617143" width="148.8" x="57.6" y="41.472"/>
  </clipPath>
  <clipPath id="p5949c8dadb">
   <rect height="108.617143" width="357.12" x="57.6" y="198.966857"/>
  </clipPath>
 </defs>
</svg>
