<?xml version="1.0" encoding="utf-8" standalone="no"?>
<!DOCTYPE svg PUBLIC "-//W3C//DTD SVG 1.1//EN"
  "http://www.w3.org/Graphics/SVG/1.1/DTD/svg11.dtd">
<!-- Created with matplotlib (https://matplotlib.org/) -->
<svg height="345.6pt" version="1.1" viewBox="0 0 460.8 345.6" width="460.8pt" xmlns="http://www.w3.org/2000/svg" xmlns:xlink="http://www.w3.org/1999/xlink">
 <metadata>
  <rdf:RDF xmlns:cc="http://creativecommons.org/ns#" xmlns:dc="http://purl.org/dc/elements/1.1/" xmlns:rdf="http://www.w3.org/1999/02/22-rdf-syntax-ns#">
   <cc:Work>
    <dc:type rdf:resource="http://purl.org/dc/dcmitype/StillImage"/>
    <dc:date>2021-02-24T00:29:12.205361</dc:date>
    <dc:format>image/svg+xml</dc:format>
    <dc:creator>
     <cc:Agent>
      <dc:title>Matplotlib v3.3.3, https://matplotlib.org/</dc:title>
     </cc:Agent>
    </dc:creator>
   </cc:Work>
  </rdf:RDF>
 </metadata>
 <defs>
  <style type="text/css">*{stroke-linecap:butt;stroke-linejoin:round;}</style>
 </defs>
 <g id="figure_1">
  <g id="patch_1">
   <path d="M 0 345.6 
L 460.8 345.6 
L 460.8 0 
L 0 0 
z
" style="fill:#ffffff;"/>
  </g>
  <g id="axes_1">
   <g id="patch_2">
    <path d="M 265.92 150.089143 
L 414.72 150.089143 
L 414.72 41.472 
L 265.92 41.472 
z
" style="fill:#ffffff;"/>
   </g>
   <g id="matplotlib.axis_1">
    <g id="xtick_1">
     <g id="line2d_1">
      <defs>
       <path d="M 0 0 
L 0 3.5 
" id="mb0f005b034" style="stroke:#000000;stroke-width:0.8;"/>
      </defs>
      <g>
       <use style="stroke:#000000;stroke-width:0.8;" x="326.985138" xlink:href="#mb0f005b034" y="150.089143"/>
      </g>
     </g>
     <g id="text_1">
      <!-- $\mathdefault{10^{1}}$ -->
      <g transform="translate(318.185138 164.68758)scale(0.1 -0.1)">
       <defs>
        <path d="M 14.203125 0 
L 14.203125 5.171875 
L 26.90625 5.171875 
L 26.90625 65.828125 
L 12.203125 56.296875 
L 12.203125 62.703125 
L 29.984375 74.21875 
L 36.71875 74.21875 
L 36.71875 5.171875 
L 49.421875 5.171875 
L 49.421875 0 
z
" id="DejaVuSerif-49"/>
        <path d="M 31.78125 3.421875 
Q 39.265625 3.421875 42.96875 11.625 
Q 46.6875 19.828125 46.6875 36.375 
Q 46.6875 52.984375 42.96875 61.1875 
Q 39.265625 69.390625 31.78125 69.390625 
Q 24.3125 69.390625 20.59375 61.1875 
Q 16.890625 52.984375 16.890625 36.375 
Q 16.890625 19.828125 20.59375 11.625 
Q 24.3125 3.421875 31.78125 3.421875 
z
M 31.78125 -1.421875 
Q 19.921875 -1.421875 13.25 8.53125 
Q 6.59375 18.5 6.59375 36.375 
Q 6.59375 54.296875 13.25 64.25 
Q 19.921875 74.21875 31.78125 74.21875 
Q 43.703125 74.21875 50.34375 64.25 
Q 56.984375 54.296875 56.984375 36.375 
Q 56.984375 18.5 50.34375 8.53125 
Q 43.703125 -1.421875 31.78125 -1.421875 
z
" id="DejaVuSerif-48"/>
       </defs>
       <use transform="translate(0 0.7125)" xlink:href="#DejaVuSerif-49"/>
       <use transform="translate(63.623047 0.7125)" xlink:href="#DejaVuSerif-48"/>
       <use transform="translate(128.154453 37.046875)scale(0.7)" xlink:href="#DejaVuSerif-49"/>
      </g>
     </g>
    </g>
    <g id="xtick_2">
     <g id="line2d_2">
      <g>
       <use style="stroke:#000000;stroke-width:0.8;" x="400.12039" xlink:href="#mb0f005b034" y="150.089143"/>
      </g>
     </g>
     <g id="text_2">
      <!-- $\mathdefault{10^{2}}$ -->
      <g transform="translate(391.32039 164.68758)scale(0.1 -0.1)">
       <defs>
        <path d="M 12.796875 55.515625 
L 7.328125 55.515625 
L 7.328125 68.5 
Q 12.546875 71.296875 17.84375 72.75 
Q 23.140625 74.21875 28.21875 74.21875 
Q 39.59375 74.21875 46.1875 68.703125 
Q 52.78125 63.1875 52.78125 53.71875 
Q 52.78125 43.015625 37.84375 28.125 
Q 36.671875 27 36.078125 26.421875 
L 17.671875 8.015625 
L 48.09375 8.015625 
L 48.09375 17 
L 53.8125 17 
L 53.8125 0 
L 6.78125 0 
L 6.78125 5.328125 
L 28.90625 27.390625 
Q 36.234375 34.71875 39.359375 40.84375 
Q 42.484375 46.96875 42.484375 53.71875 
Q 42.484375 61.078125 38.640625 65.234375 
Q 34.8125 69.390625 28.078125 69.390625 
Q 21.09375 69.390625 17.28125 65.921875 
Q 13.484375 62.453125 12.796875 55.515625 
z
" id="DejaVuSerif-50"/>
       </defs>
       <use transform="translate(0 0.7125)" xlink:href="#DejaVuSerif-49"/>
       <use transform="translate(63.623047 0.7125)" xlink:href="#DejaVuSerif-48"/>
       <use transform="translate(128.154453 37.046875)scale(0.7)" xlink:href="#DejaVuSerif-50"/>
      </g>
     </g>
    </g>
    <g id="xtick_3">
     <g id="line2d_3">
      <defs>
       <path d="M 0 0 
L 0 2 
" id="m2a4442abdb" style="stroke:#000000;stroke-width:0.6;"/>
      </defs>
      <g>
       <use style="stroke:#000000;stroke-width:0.6;" x="275.86579" xlink:href="#m2a4442abdb" y="150.089143"/>
      </g>
     </g>
    </g>
    <g id="xtick_4">
     <g id="line2d_4">
      <g>
       <use style="stroke:#000000;stroke-width:0.6;" x="288.744269" xlink:href="#m2a4442abdb" y="150.089143"/>
      </g>
     </g>
    </g>
    <g id="xtick_5">
     <g id="line2d_5">
      <g>
       <use style="stroke:#000000;stroke-width:0.6;" x="297.881695" xlink:href="#m2a4442abdb" y="150.089143"/>
      </g>
     </g>
    </g>
    <g id="xtick_6">
     <g id="line2d_6">
      <g>
       <use style="stroke:#000000;stroke-width:0.6;" x="304.969233" xlink:href="#m2a4442abdb" y="150.089143"/>
      </g>
     </g>
    </g>
    <g id="xtick_7">
     <g id="line2d_7">
      <g>
       <use style="stroke:#000000;stroke-width:0.6;" x="310.760174" xlink:href="#m2a4442abdb" y="150.089143"/>
      </g>
     </g>
    </g>
    <g id="xtick_8">
     <g id="line2d_8">
      <g>
       <use style="stroke:#000000;stroke-width:0.6;" x="315.656344" xlink:href="#m2a4442abdb" y="150.089143"/>
      </g>
     </g>
    </g>
    <g id="xtick_9">
     <g id="line2d_9">
      <g>
       <use style="stroke:#000000;stroke-width:0.6;" x="319.8976" xlink:href="#m2a4442abdb" y="150.089143"/>
      </g>
     </g>
    </g>
    <g id="xtick_10">
     <g id="line2d_10">
      <g>
       <use style="stroke:#000000;stroke-width:0.6;" x="323.638652" xlink:href="#m2a4442abdb" y="150.089143"/>
      </g>
     </g>
    </g>
    <g id="xtick_11">
     <g id="line2d_11">
      <g>
       <use style="stroke:#000000;stroke-width:0.6;" x="349.001043" xlink:href="#m2a4442abdb" y="150.089143"/>
      </g>
     </g>
    </g>
    <g id="xtick_12">
     <g id="line2d_12">
      <g>
       <use style="stroke:#000000;stroke-width:0.6;" x="361.879521" xlink:href="#m2a4442abdb" y="150.089143"/>
      </g>
     </g>
    </g>
    <g id="xtick_13">
     <g id="line2d_13">
      <g>
       <use style="stroke:#000000;stroke-width:0.6;" x="371.016947" xlink:href="#m2a4442abdb" y="150.089143"/>
      </g>
     </g>
    </g>
    <g id="xtick_14">
     <g id="line2d_14">
      <g>
       <use style="stroke:#000000;stroke-width:0.6;" x="378.104486" xlink:href="#m2a4442abdb" y="150.089143"/>
      </g>
     </g>
    </g>
    <g id="xtick_15">
     <g id="line2d_15">
      <g>
       <use style="stroke:#000000;stroke-width:0.6;" x="383.895426" xlink:href="#m2a4442abdb" y="150.089143"/>
      </g>
     </g>
    </g>
    <g id="xtick_16">
     <g id="line2d_16">
      <g>
       <use style="stroke:#000000;stroke-width:0.6;" x="388.791597" xlink:href="#m2a4442abdb" y="150.089143"/>
      </g>
     </g>
    </g>
    <g id="xtick_17">
     <g id="line2d_17">
      <g>
       <use style="stroke:#000000;stroke-width:0.6;" x="393.032852" xlink:href="#m2a4442abdb" y="150.089143"/>
      </g>
     </g>
    </g>
    <g id="xtick_18">
     <g id="line2d_18">
      <g>
       <use style="stroke:#000000;stroke-width:0.6;" x="396.773905" xlink:href="#m2a4442abdb" y="150.089143"/>
      </g>
     </g>
    </g>
    <g id="text_3">
     <!-- Period d -->
     <g transform="translate(319.231719 178.365705)scale(0.1 -0.1)">
      <defs>
       <path d="M 24.703125 37.109375 
L 37.59375 37.109375 
Q 44.875 37.109375 48.671875 41.03125 
Q 52.484375 44.96875 52.484375 52.390625 
Q 52.484375 59.859375 48.671875 63.765625 
Q 44.875 67.671875 37.59375 67.671875 
L 24.703125 67.671875 
z
M 5.515625 0 
L 5.515625 5.171875 
L 14.796875 5.171875 
L 14.796875 67.671875 
L 5.515625 67.671875 
L 5.515625 72.90625 
L 39.984375 72.90625 
Q 50.921875 72.90625 57.3125 67.359375 
Q 63.71875 61.8125 63.71875 52.390625 
Q 63.71875 43.015625 57.3125 37.453125 
Q 50.921875 31.890625 39.984375 31.890625 
L 24.703125 31.890625 
L 24.703125 5.171875 
L 35.984375 5.171875 
L 35.984375 0 
z
" id="DejaVuSerif-80"/>
       <path d="M 54.203125 25 
L 15.484375 25 
L 15.484375 24.609375 
Q 15.484375 14.109375 19.4375 8.765625 
Q 23.390625 3.421875 31.109375 3.421875 
Q 37.015625 3.421875 40.796875 6.515625 
Q 44.578125 9.625 46.09375 15.71875 
L 53.328125 15.71875 
Q 51.171875 7.171875 45.375 2.875 
Q 39.59375 -1.421875 30.171875 -1.421875 
Q 18.796875 -1.421875 11.890625 6.078125 
Q 4.984375 13.578125 4.984375 25.984375 
Q 4.984375 38.28125 11.765625 45.796875 
Q 18.5625 53.328125 29.59375 53.328125 
Q 41.359375 53.328125 47.65625 46.0625 
Q 53.953125 38.8125 54.203125 25 
z
M 43.609375 30.171875 
Q 43.3125 39.265625 39.765625 43.875 
Q 36.234375 48.484375 29.59375 48.484375 
Q 23.390625 48.484375 19.828125 43.84375 
Q 16.265625 39.203125 15.484375 30.171875 
z
" id="DejaVuSerif-101"/>
       <path d="M 47.796875 52 
L 47.796875 39.015625 
L 42.625 39.015625 
Q 42.390625 42.875 40.484375 44.78125 
Q 38.578125 46.6875 34.90625 46.6875 
Q 28.265625 46.6875 24.71875 42.09375 
Q 21.1875 37.5 21.1875 28.90625 
L 21.1875 5.171875 
L 31.59375 5.171875 
L 31.59375 0 
L 4.109375 0 
L 4.109375 5.171875 
L 12.203125 5.171875 
L 12.203125 46.78125 
L 3.609375 46.78125 
L 3.609375 51.90625 
L 21.1875 51.90625 
L 21.1875 42.671875 
Q 23.828125 48.09375 27.96875 50.703125 
Q 32.125 53.328125 38.09375 53.328125 
Q 40.28125 53.328125 42.703125 52.984375 
Q 45.125 52.640625 47.796875 52 
z
" id="DejaVuSerif-114"/>
       <path d="M 9.71875 68.015625 
Q 9.71875 70.265625 11.34375 71.921875 
Q 12.984375 73.578125 15.28125 73.578125 
Q 17.53125 73.578125 19.15625 71.921875 
Q 20.796875 70.265625 20.796875 68.015625 
Q 20.796875 65.71875 19.1875 64.109375 
Q 17.578125 62.5 15.28125 62.5 
Q 12.984375 62.5 11.34375 64.109375 
Q 9.71875 65.71875 9.71875 68.015625 
z
M 21.1875 5.171875 
L 29.6875 5.171875 
L 29.6875 0 
L 3.609375 0 
L 3.609375 5.171875 
L 12.203125 5.171875 
L 12.203125 46.6875 
L 3.609375 46.6875 
L 3.609375 51.90625 
L 21.1875 51.90625 
z
" id="DejaVuSerif-105"/>
       <path d="M 30.078125 3.421875 
Q 37.3125 3.421875 40.984375 9.125 
Q 44.671875 14.84375 44.671875 25.984375 
Q 44.671875 37.109375 40.984375 42.796875 
Q 37.3125 48.484375 30.078125 48.484375 
Q 22.859375 48.484375 19.171875 42.796875 
Q 15.484375 37.109375 15.484375 25.984375 
Q 15.484375 14.84375 19.1875 9.125 
Q 22.90625 3.421875 30.078125 3.421875 
z
M 30.078125 -1.421875 
Q 18.75 -1.421875 11.859375 6.078125 
Q 4.984375 13.578125 4.984375 25.984375 
Q 4.984375 38.375 11.84375 45.84375 
Q 18.703125 53.328125 30.078125 53.328125 
Q 41.453125 53.328125 48.3125 45.84375 
Q 55.171875 38.375 55.171875 25.984375 
Q 55.171875 13.578125 48.3125 6.078125 
Q 41.453125 -1.421875 30.078125 -1.421875 
z
" id="DejaVuSerif-111"/>
       <path d="M 52.484375 5.171875 
L 61.078125 5.171875 
L 61.078125 0 
L 43.5 0 
L 43.5 8.109375 
Q 40.875 3.21875 36.796875 0.890625 
Q 32.71875 -1.421875 26.703125 -1.421875 
Q 17.140625 -1.421875 11.0625 6.171875 
Q 4.984375 13.765625 4.984375 25.984375 
Q 4.984375 38.1875 11.03125 45.75 
Q 17.09375 53.328125 26.703125 53.328125 
Q 32.71875 53.328125 36.796875 51 
Q 40.875 48.6875 43.5 43.796875 
L 43.5 70.796875 
L 35.015625 70.796875 
L 35.015625 75.984375 
L 52.484375 75.984375 
z
M 43.5 23.390625 
L 43.5 28.515625 
Q 43.5 37.84375 39.90625 42.765625 
Q 36.328125 47.703125 29.5 47.703125 
Q 22.5625 47.703125 19.015625 42.234375 
Q 15.484375 36.765625 15.484375 25.984375 
Q 15.484375 15.234375 19.015625 9.71875 
Q 22.5625 4.203125 29.5 4.203125 
Q 36.328125 4.203125 39.90625 9.109375 
Q 43.5 14.015625 43.5 23.390625 
z
" id="DejaVuSerif-100"/>
       <path id="DejaVuSerif-32"/>
      </defs>
      <use xlink:href="#DejaVuSerif-80"/>
      <use x="62.785156" xlink:href="#DejaVuSerif-101"/>
      <use x="121.964844" xlink:href="#DejaVuSerif-114"/>
      <use x="169.767578" xlink:href="#DejaVuSerif-105"/>
      <use x="201.75" xlink:href="#DejaVuSerif-111"/>
      <use x="261.955078" xlink:href="#DejaVuSerif-100"/>
      <use x="325.96875" xlink:href="#DejaVuSerif-32"/>
      <use x="357.755859" xlink:href="#DejaVuSerif-100"/>
     </g>
    </g>
   </g>
   <g id="matplotlib.axis_2">
    <g id="ytick_1">
     <g id="line2d_19">
      <defs>
       <path d="M 0 0 
L -3.5 0 
" id="m559a9e64e8" style="stroke:#000000;stroke-width:0.8;"/>
      </defs>
      <g>
       <use style="stroke:#000000;stroke-width:0.8;" x="265.92" xlink:href="#m559a9e64e8" y="145.167472"/>
      </g>
     </g>
     <g id="text_4">
      <!-- 0.0 -->
      <g transform="translate(243.016875 148.96669)scale(0.1 -0.1)">
       <defs>
        <path d="M 9.421875 5.078125 
Q 9.421875 7.8125 11.28125 9.71875 
Q 13.140625 11.625 15.921875 11.625 
Q 18.609375 11.625 20.5 9.71875 
Q 22.40625 7.8125 22.40625 5.078125 
Q 22.40625 2.390625 20.5 0.484375 
Q 18.609375 -1.421875 15.921875 -1.421875 
Q 13.140625 -1.421875 11.28125 0.453125 
Q 9.421875 2.34375 9.421875 5.078125 
z
" id="DejaVuSerif-46"/>
       </defs>
       <use xlink:href="#DejaVuSerif-48"/>
       <use x="63.623047" xlink:href="#DejaVuSerif-46"/>
       <use x="95.410156" xlink:href="#DejaVuSerif-48"/>
      </g>
     </g>
    </g>
    <g id="ytick_2">
     <g id="line2d_20">
      <g>
       <use style="stroke:#000000;stroke-width:0.8;" x="265.92" xlink:href="#m559a9e64e8" y="102.779377"/>
      </g>
     </g>
     <g id="text_5">
      <!-- 0.2 -->
      <g transform="translate(243.016875 106.578596)scale(0.1 -0.1)">
       <use xlink:href="#DejaVuSerif-48"/>
       <use x="63.623047" xlink:href="#DejaVuSerif-46"/>
       <use x="95.410156" xlink:href="#DejaVuSerif-50"/>
      </g>
     </g>
    </g>
    <g id="ytick_3">
     <g id="line2d_21">
      <g>
       <use style="stroke:#000000;stroke-width:0.8;" x="265.92" xlink:href="#m559a9e64e8" y="60.391283"/>
      </g>
     </g>
     <g id="text_6">
      <!-- 0.4 -->
      <g transform="translate(243.016875 64.190502)scale(0.1 -0.1)">
       <defs>
        <path d="M 34.90625 24.703125 
L 34.90625 63.484375 
L 10.015625 24.703125 
z
M 56.390625 0 
L 23.1875 0 
L 23.1875 5.171875 
L 34.90625 5.171875 
L 34.90625 19.484375 
L 3.078125 19.484375 
L 3.078125 24.8125 
L 35.015625 74.21875 
L 44.671875 74.21875 
L 44.671875 24.703125 
L 58.59375 24.703125 
L 58.59375 19.484375 
L 44.671875 19.484375 
L 44.671875 5.171875 
L 56.390625 5.171875 
z
" id="DejaVuSerif-52"/>
       </defs>
       <use xlink:href="#DejaVuSerif-48"/>
       <use x="63.623047" xlink:href="#DejaVuSerif-46"/>
       <use x="95.410156" xlink:href="#DejaVuSerif-52"/>
      </g>
     </g>
    </g>
    <g id="text_7">
     <!-- Power -->
     <g transform="translate(236.937188 111.583696)rotate(-90)scale(0.1 -0.1)">
      <defs>
       <path d="M 48 51.90625 
L 61.28125 11.375 
L 73 46.6875 
L 65.484375 46.6875 
L 65.484375 51.90625 
L 84.28125 51.90625 
L 84.28125 46.6875 
L 78.515625 46.6875 
L 63.09375 0 
L 55.609375 0 
L 42.828125 38.8125 
L 29.984375 0 
L 22.796875 0 
L 7.421875 46.6875 
L 1.609375 46.6875 
L 1.609375 51.90625 
L 25.09375 51.90625 
L 25.09375 46.6875 
L 16.703125 46.6875 
L 28.328125 11.375 
L 41.703125 51.90625 
z
" id="DejaVuSerif-119"/>
      </defs>
      <use xlink:href="#DejaVuSerif-80"/>
      <use x="63.285156" xlink:href="#DejaVuSerif-111"/>
      <use x="123.490234" xlink:href="#DejaVuSerif-119"/>
      <use x="209.085938" xlink:href="#DejaVuSerif-101"/>
      <use x="268.265625" xlink:href="#DejaVuSerif-114"/>
     </g>
    </g>
   </g>
   <g id="LineCollection_1">
    <path clip-path="url(#pdf69eacf1c)" d="M 272.695273 46.409143 
L 407.956364 46.409143 
" style="fill:none;stroke:#808080;stroke-dasharray:5.55,2.4;stroke-dashoffset:0;stroke-width:1.5;"/>
   </g>
   <g id="LineCollection_2">
    <path clip-path="url(#pdf69eacf1c)" d="M 272.695273 60.360989 
L 407.956364 60.360989 
" style="fill:none;stroke:#a9a9a9;stroke-dasharray:5.55,2.4;stroke-dashoffset:0;stroke-width:1.5;"/>
   </g>
   <g id="LineCollection_3">
    <path clip-path="url(#pdf69eacf1c)" d="M 272.695273 71.347003 
L 407.956364 71.347003 
" style="fill:none;stroke:#c0c0c0;stroke-dasharray:5.55,2.4;stroke-dashoffset:0;stroke-width:1.5;"/>
   </g>
   <g id="LineCollection_4">
    <path clip-path="url(#pdf69eacf1c)" d="M 272.695273 76.536651 
L 407.956364 76.536651 
" style="fill:none;stroke:#d3d3d3;stroke-dasharray:5.55,2.4;stroke-dashoffset:0;stroke-width:1.5;"/>
   </g>
   <g id="line2d_22">
    <path clip-path="url(#pdf69eacf1c)" d="M 407.956364 108.626717 
L 405.906476 124.376044 
L 403.980902 135.927577 
L 402.165423 129.441558 
L 400.448127 119.068169 
L 398.818938 118.44879 
L 397.269253 121.373325 
L 395.791673 127.9974 
L 394.379786 136.039143 
L 393.027997 141.099782 
L 391.731399 137.337866 
L 390.485662 132.598654 
L 389.286945 130.658482 
L 388.131827 131.69975 
L 387.017248 136.948988 
L 385.940459 141.037487 
L 384.898981 135.210015 
L 383.890571 130.469789 
L 382.913194 127.915785 
L 381.964998 126.583562 
L 381.044289 130.773047 
L 380.149518 136.875984 
L 379.279266 130.767269 
L 378.432223 126.145799 
L 377.607183 127.864829 
L 376.803033 131.184622 
L 376.01874 138.958177 
L 375.253348 142.420476 
L 374.505967 138.000427 
L 373.775768 136.311312 
L 373.06198 137.228782 
L 372.363881 140.116211 
L 371.680796 143.802137 
L 371.012092 141.018984 
L 370.357178 134.009587 
L 369.715495 132.570621 
L 369.086519 132.97616 
L 368.469757 135.266977 
L 367.864744 139.134714 
L 367.27104 134.908348 
L 366.68823 123.459307 
L 366.115922 120.23311 
L 365.553744 121.036027 
L 365.001343 124.5104 
L 364.458386 132.465646 
L 363.924554 128.053977 
L 363.399547 118.020121 
L 362.883076 118.5026 
L 362.374869 121.714672 
L 361.874666 127.09911 
L 361.382219 136.589144 
L 360.89729 135.416192 
L 360.419653 129.080786 
L 359.949093 129.76418 
L 359.485402 134.869477 
L 359.028384 141.32858 
L 358.577848 144.490058 
L 358.133614 144.329157 
L 357.695507 142.364814 
L 357.263361 142.553675 
L 356.837016 143.366396 
L 356.416318 141.447256 
L 356.001119 140.603272 
L 354.787128 143.97105 
L 354.002836 139.278299 
L 353.617834 141.016548 
L 353.237443 144.296253 
L 352.861555 144.7249 
L 352.122865 136.841784 
L 351.759864 136.360772 
L 351.046076 144.791469 
L 350.695108 142.39863 
L 350.347976 138.97749 
L 350.004597 138.773557 
L 349.664891 142.111482 
L 349.32878 143.662764 
L 348.341273 115.060846 
L 348.018811 114.137974 
L 347.69959 119.930817 
L 347.383545 129.714419 
L 347.070614 122.863852 
L 346.760736 113.025094 
L 346.453852 114.690794 
L 346.149905 122.824154 
L 345.848839 136.194386 
L 345.5506 143.985608 
L 345.255135 142.543657 
L 344.962394 138.661568 
L 344.672325 138.414039 
L 344.100017 145.00394 
L 343.817685 143.331754 
L 343.260438 134.261474 
L 342.985439 131.692379 
L 342.7128 132.458081 
L 342.442481 138.374075 
L 342.174444 141.389093 
L 341.645061 132.346036 
L 341.383642 131.856808 
L 341.124357 135.06363 
L 340.612052 144.897134 
L 340.358965 144.525461 
L 340.107879 143.458431 
L 339.858762 143.939213 
L 339.611584 145.075604 
L 339.366314 144.193654 
L 338.881385 137.130004 
L 338.641669 136.471796 
L 338.403748 138.186511 
L 337.933188 144.310553 
L 337.700497 143.636693 
L 336.786412 128.864134 
L 336.561943 128.553604 
L 336.33905 131.221434 
L 336.117709 135.732769 
L 335.8979 131.362267 
L 335.679602 119.633731 
L 335.462794 114.88014 
L 335.247456 119.243247 
L 334.821111 139.933406 
L 334.610066 141.333464 
L 334.400413 136.556892 
L 334.192135 134.645174 
L 333.985215 137.819959 
L 333.779633 143.576852 
L 333.575374 142.901196 
L 333.170754 133.490357 
L 332.97036 134.978528 
L 332.573327 144.051278 
L 332.376656 144.80632 
L 332.181196 144.589206 
L 331.986931 144.724162 
L 331.793847 141.574029 
L 331.411165 121.774639 
L 331.221539 120.080299 
L 331.033038 125.578778 
L 330.84565 134.964972 
L 330.659361 137.059068 
L 330.290028 113.401182 
L 330.10696 113.160625 
L 329.924941 120.923903 
L 329.564002 142.982181 
L 329.38506 141.85395 
L 329.030171 133.433903 
L 328.854202 135.861228 
L 328.505163 143.984146 
L 328.332072 143.810061 
L 328.159918 143.371018 
L 327.988693 142.086764 
L 327.818385 141.924843 
L 327.648986 142.958635 
L 327.480486 143.183928 
L 327.312875 144.111507 
L 327.146144 144.376933 
L 326.815284 141.049631 
L 326.651138 138.998454 
L 326.487835 139.320123 
L 326.163728 144.294639 
L 326.002906 144.624009 
L 325.36764 130.311017 
L 325.054709 141.681822 
L 324.899393 138.960896 
L 324.591019 127.418715 
L 324.437948 130.178421 
L 324.134 143.944962 
L 323.983111 142.541453 
L 323.832934 139.112677 
L 323.683465 138.847342 
L 323.386619 144.203205 
L 322.946489 131.246548 
L 322.801124 133.295853 
L 322.656421 138.273136 
L 322.512374 138.817433 
L 322.226226 125.159356 
L 322.084113 127.168086 
L 321.661549 145.002546 
L 321.106736 140.936666 
L 320.969534 140.703472 
L 320.696895 144.737687 
L 320.561448 143.998003 
L 320.292275 132.028233 
L 320.158539 133.600424 
L 320.025364 138.278209 
L 319.892745 138.752418 
L 319.498178 96.018204 
L 319.367737 100.770968 
L 319.108452 123.131991 
L 318.723451 101.97205 
L 318.469351 129.625705 
L 318.34306 141.759661 
L 318.217269 142.766246 
L 317.967171 136.69143 
L 317.719027 144.788352 
L 317.595679 142.772169 
L 317.350409 125.749554 
L 317.228481 124.131458 
L 316.86548 139.963665 
L 316.506581 119.586154 
L 316.151692 144.99634 
L 315.917283 136.681869 
L 315.800725 137.444535 
L 315.568882 143.22288 
L 315.224262 113.657018 
L 315.110214 117.169123 
L 314.88334 135.291441 
L 314.770508 134.204198 
L 314.546039 122.317234 
L 314.323145 136.626867 
L 314.101804 144.721375 
L 313.99171 145.064951 
L 313.663698 143.375225 
L 313.555109 144.102017 
L 313.44689 143.182467 
L 313.124428 130.085197 
L 313.017664 131.510396 
L 312.911257 134.798291 
L 312.805206 129.429339 
L 312.489162 97.657969 
L 312.176231 123.562763 
L 311.96931 112.129907 
L 311.866353 114.914888 
L 311.661434 132.683043 
L 311.45783 108.810623 
L 311.356515 100.126758 
L 311.054494 117.475478 
L 310.755319 90.947323 
L 310.360752 134.781674 
L 310.06801 121.599911 
L 309.777942 144.236201 
L 309.586025 134.668991 
L 309.490499 135.900247 
L 309.300305 144.617999 
L 309.017133 126.879606 
L 308.736464 142.786636 
L 308.458253 128.115956 
L 308.274123 143.248073 
L 308.182457 140.562546 
L 307.999915 121.285328 
L 307.909036 125.284799 
L 307.728054 141.595836 
L 307.637949 136.965596 
L 307.4585 113.800473 
L 307.28006 128.8671 
L 307.102617 137.662246 
L 306.838298 105.222161 
L 306.663299 123.793234 
L 306.576159 130.170401 
L 306.489258 125.040083 
L 306.316167 101.50899 
L 306.058285 135.397199 
L 305.802481 114.869293 
L 305.633082 133.932459 
L 305.54872 128.512294 
L 305.380665 104.012086 
L 305.29697 108.996393 
L 305.130239 129.820639 
L 305.0472 127.495809 
L 304.881772 116.342308 
L 304.635233 141.034994 
L 304.553477 138.819839 
L 304.309464 127.233164 
L 304.147823 135.694883 
L 303.987002 108.545005 
L 303.82699 88.881845 
L 303.66778 108.053236 
L 303.588474 104.910613 
L 303.430453 78.734788 
L 303.351736 84.594785 
L 303.116749 126.030901 
L 302.961051 115.919325 
L 302.728927 140.140817 
L 302.498486 114.909766 
L 302.269706 139.345278 
L 302.042561 123.086855 
L 301.967206 125.413382 
L 301.81703 144.492233 
L 301.742207 143.51105 
L 301.593088 132.92531 
L 301.444666 144.388748 
L 301.370714 143.242625 
L 301.149887 115.237235 
L 301.003517 134.842421 
L 300.930584 132.734889 
L 300.712785 111.653357 
L 300.496469 141.724307 
L 300.353073 128.5931 
L 300.281617 130.263017 
L 300.139185 144.422613 
L 299.997389 130.488226 
L 299.926728 125.382327 
L 299.856223 128.096621 
L 299.715682 141.537847 
L 299.645644 139.994624 
L 299.436452 112.976717 
L 299.228629 138.034258 
L 299.022156 110.550076 
L 298.88525 131.676822 
L 298.817017 128.694192 
L 298.68099 105.798013 
L 298.613195 107.08475 
L 298.478036 125.601843 
L 298.27637 104.413586 
L 298.075977 135.693294 
L 298.009459 132.054299 
L 297.87684 123.944193 
L 297.678944 142.594251 
L 297.547695 135.815412 
L 297.351832 145.074641 
L 297.286812 143.596563 
L 297.157171 138.019693 
L 296.963694 144.755572 
L 296.835362 132.093344 
L 296.77139 124.644735 
L 296.707546 128.023375 
L 296.580242 140.026059 
L 296.390238 121.045195 
L 296.327155 124.377244 
L 296.201364 141.166746 
L 296.138655 137.636403 
L 296.013606 120.574777 
L 295.951266 122.500471 
L 295.826952 140.642807 
L 295.641389 110.350894 
L 295.579774 111.527104 
L 295.456903 136.084579 
L 295.395645 134.660067 
L 295.212576 107.052271 
L 295.030557 141.486477 
L 294.970115 135.785181 
L 294.909788 125.955898 
L 294.849576 126.198134 
L 294.729491 141.918644 
L 294.550212 104.186721 
L 294.490676 112.462204 
L 294.371939 125.275856 
L 294.194661 93.70589 
L 294.018367 135.342611 
L 293.959819 130.020096 
L 293.843046 114.975114 
L 293.7267 136.975916 
L 293.668687 133.342459 
L 293.552978 110.108512 
L 293.495281 113.020406 
L 293.322816 137.784635 
L 293.151282 123.601357 
L 293.094309 127.070361 
L 292.924002 143.150458 
L 292.810969 137.995876 
L 292.754603 138.162635 
L 292.64217 145.144629 
L 292.474264 136.602243 
L 292.362817 143.039001 
L 292.30724 140.805361 
L 292.14109 125.431241 
L 292.030805 143.49221 
L 291.975805 142.386297 
L 291.866091 133.069062 
L 291.702227 143.38247 
L 291.539204 119.382917 
L 291.430985 136.088335 
L 291.377013 134.670734 
L 291.215647 99.466604 
L 291.16204 108.297862 
L 291.055096 132.379168 
L 290.895353 106.092801 
L 290.842283 116.905924 
L 290.736409 135.374908 
L 290.578256 108.997986 
L 290.473257 133.980719 
L 290.420887 128.783968 
L 290.316406 101.176666 
L 290.264294 101.245469 
L 290.160326 135.010661 
L 290.108469 131.429031 
L 290.005009 107.540118 
L 289.953405 115.730795 
L 289.799094 142.492302 
L 289.696636 130.482717 
L 289.64553 132.384919 
L 289.492704 144.623549 
L 289.34061 126.595857 
L 289.290073 130.378996 
L 289.189241 139.481153 
L 289.03859 110.718376 
L 288.988531 117.98056 
L 288.88865 136.242096 
L 288.838826 132.311971 
L 288.739414 121.654845 
L 288.640312 142.735053 
L 288.590876 142.325976 
L 288.492236 126.043229 
L 288.44303 127.411767 
L 288.344847 136.044102 
L 288.198139 105.572457 
L 288.149386 111.780361 
L 288.052105 129.826066 
L 288.003576 126.496652 
L 287.90674 111.859475 
L 287.858433 115.467451 
L 287.762037 138.229208 
L 287.713949 136.22483 
L 287.617991 121.522628 
L 287.57012 126.830645 
L 287.522321 132.869317 
L 287.474594 130.648351 
L 287.331842 96.643556 
L 287.189729 132.492748 
L 287.142499 128.162604 
L 287.048249 120.077312 
L 286.907396 143.063398 
L 286.860584 142.245845 
L 286.81384 142.701666 
L 286.720559 144.871099 
L 286.534815 130.38098 
L 286.488548 133.472642 
L 286.396216 143.569994 
L 286.35015 143.023999 
L 286.212353 121.963811 
L 286.166553 128.794867 
L 286.07515 144.836655 
L 286.029548 140.8011 
L 285.938538 132.713663 
L 285.847789 142.334546 
L 285.71215 96.990301 
L 285.622044 110.899557 
L 285.532193 127.879785 
L 285.442596 99.750218 
L 285.397892 105.711156 
L 285.264156 144.672586 
L 285.219702 143.688171 
L 285.13098 140.737617 
L 285.042506 143.649649 
L 284.910255 136.862378 
L 284.866294 137.670581 
L 284.778553 144.491897 
L 284.734773 141.965077 
L 284.647394 130.619541 
L 284.603794 133.161188 
L 284.516774 144.61289 
L 284.473354 143.443388 
L 284.38669 137.821723 
L 284.343447 140.451021 
L 284.300262 144.398665 
L 284.257136 141.940698 
L 284.128109 128.820822 
L 283.999603 139.229607 
L 283.871615 124.601278 
L 283.744141 143.386285 
L 283.701763 141.36861 
L 283.617177 133.370549 
L 283.574968 134.958875 
L 283.448677 144.751962 
L 283.406691 141.334075 
L 283.36476 138.662632 
L 283.322885 140.05343 
L 283.239301 144.990977 
L 283.114334 133.944949 
L 283.031296 144.263939 
L 282.989858 142.062346 
L 282.907143 129.143581 
L 282.865867 131.494624 
L 282.783475 145.152 
L 282.742358 141.842101 
L 282.701295 138.382941 
L 282.660285 138.628824 
L 282.578424 145.107007 
L 282.537572 140.543325 
L 282.456026 133.013637 
L 282.415331 135.823621 
L 282.334098 145.09269 
L 282.293559 143.975059 
L 282.131919 136.344613 
L 282.091637 136.675618 
L 281.971097 144.795015 
L 281.931018 140.832086 
L 281.851013 132.93856 
L 281.811085 135.373522 
L 281.651876 143.262416 
L 281.612198 144.59941 
L 281.572569 144.471266 
L 281.45398 131.297839 
L 281.414548 133.014853 
L 281.296546 145.04444 
L 281.257309 143.303012 
L 281.100844 138.503934 
L 281.061848 138.945804 
L 280.945147 145.130827 
L 280.906341 144.503583 
L 280.751592 139.000177 
L 280.713022 139.310918 
L 280.597593 144.924777 
L 280.559209 144.51198 
L 280.367985 126.594156 
L 280.329878 129.457248 
L 280.291817 135.921374 
L 280.253801 131.380887 
L 280.177906 105.222359 
L 280.140026 110.12669 
L 280.026656 138.117614 
L 279.988957 129.950537 
L 279.951301 126.392499 
L 279.913691 129.768095 
L 279.838602 140.421873 
L 279.726302 110.748569 
L 279.688957 117.527654 
L 279.614397 139.946811 
L 279.577183 133.919707 
L 279.540013 124.672983 
L 279.502886 128.606494 
L 279.35481 141.65832 
L 279.28103 144.582965 
L 279.17068 132.117049 
L 279.133982 135.577783 
L 279.060713 143.902067 
L 278.987612 143.434711 
L 278.951125 143.783913 
L 278.914679 143.707718 
L 278.805593 130.379802 
L 278.769314 136.235203 
L 278.733077 144.122744 
L 278.660725 136.819796 
L 278.624611 131.054274 
L 278.588538 131.71804 
L 278.516515 144.650846 
L 278.480565 139.935495 
L 278.408785 126.92163 
L 278.372957 130.567579 
L 278.30142 143.336287 
L 278.265712 137.346659 
L 278.194416 125.926241 
L 278.158828 128.168126 
L 278.087772 143.556144 
L 278.016874 135.792672 
L 277.981484 130.958217 
L 277.946134 132.06242 
L 277.875551 144.972872 
L 277.840319 141.721623 
L 277.76997 133.268997 
L 277.734855 137.796075 
L 277.699778 144.054105 
L 277.664739 139.45642 
L 277.594778 126.828589 
L 277.559856 127.174538 
L 277.524971 135.207252 
L 277.490125 134.188769 
L 277.385815 113.644905 
L 277.351122 118.932355 
L 277.281847 133.294574 
L 277.247267 122.804896 
L 277.212724 121.191981 
L 277.10932 142.814939 
L 277.04057 131.661311 
L 277.006251 132.575479 
L 276.869345 144.994964 
L 276.83521 141.961226 
L 276.733026 122.192984 
L 276.665086 132.681142 
L 276.63117 136.604417 
L 276.529639 105.183831 
L 276.495867 111.557857 
L 276.428431 141.204966 
L 276.361138 128.290914 
L 276.260466 143.237124 
L 276.226979 132.051939 
L 276.160111 115.595746 
L 276.12673 120.226577 
L 276.060072 139.275059 
L 276.026796 129.392674 
L 275.927176 120.344081 
L 275.894038 123.779529 
L 275.860935 144.34659 
L 275.794833 134.602343 
L 275.728868 137.578576 
L 275.695936 143.408903 
L 275.663039 136.334546 
L 275.564551 116.442283 
L 275.53179 124.505207 
L 275.499062 137.046749 
L 275.433708 120.300431 
L 275.401081 118.374577 
L 275.368488 122.924611 
L 275.303401 143.514209 
L 275.238448 131.840314 
L 275.206021 129.419335 
L 275.173627 133.953858 
L 275.141266 142.091183 
L 275.108938 140.531164 
L 275.012151 116.420288 
L 274.979954 128.463512 
L 274.915658 143.411304 
L 274.851492 135.793575 
L 274.819457 136.687398 
L 274.787455 135.71124 
L 274.755485 133.233705 
L 274.723547 136.810957 
L 274.691641 143.638318 
L 274.659767 141.425502 
L 274.564337 124.143369 
L 274.532591 132.191051 
L 274.500876 140.428591 
L 274.469193 133.318109 
L 274.374333 120.619102 
L 274.311251 135.340999 
L 274.279756 123.48433 
L 274.248293 118.339669 
L 274.21686 121.648756 
L 274.12275 138.938148 
L 274.091442 130.401153 
L 274.060164 130.256279 
L 273.966516 144.889762 
L 273.935362 139.575284 
L 273.904238 135.222152 
L 273.84208 141.9266 
L 273.811048 145.099777 
L 273.780045 142.245764 
L 273.71813 133.419751 
L 273.687218 135.947246 
L 273.625484 144.36718 
L 273.594662 139.932699 
L 273.502374 125.264725 
L 273.471671 132.814446 
L 273.440998 142.550867 
L 273.37974 134.049634 
L 273.349155 131.341361 
L 273.3186 134.083628 
L 273.257577 144.765847 
L 273.196672 137.683274 
L 273.166263 136.408518 
L 273.135883 139.666215 
L 273.07521 144.585494 
L 273.044917 141.268178 
L 272.984417 136.605474 
L 272.954211 139.391944 
L 272.803607 144.624672 
L 272.713587 133.289174 
L 272.683636 134.364747 
" style="fill:none;stroke:#1f77b4;stroke-linecap:square;stroke-width:1.5;"/>
   </g>
   <g id="patch_3">
    <path d="M 265.92 150.089143 
L 265.92 41.472 
" style="fill:none;stroke:#000000;stroke-linecap:square;stroke-linejoin:miter;stroke-width:0.8;"/>
   </g>
   <g id="patch_4">
    <path d="M 414.72 150.089143 
L 414.72 41.472 
" style="fill:none;stroke:#000000;stroke-linecap:square;stroke-linejoin:miter;stroke-width:0.8;"/>
   </g>
   <g id="patch_5">
    <path d="M 265.92 150.089143 
L 414.72 150.089143 
" style="fill:none;stroke:#000000;stroke-linecap:square;stroke-linejoin:miter;stroke-width:0.8;"/>
   </g>
   <g id="patch_6">
    <path d="M 265.92 41.472 
L 414.72 41.472 
" style="fill:none;stroke:#000000;stroke-linecap:square;stroke-linejoin:miter;stroke-width:0.8;"/>
   </g>
   <g id="text_8">
    <!-- Periodogram -->
    <g transform="translate(307.698125 35.472)scale(0.1 -0.1)">
     <defs>
      <path d="M 52.484375 46.6875 
L 52.484375 1.125 
Q 52.484375 -10.0625 46.328125 -16.140625 
Q 40.1875 -22.21875 28.8125 -22.21875 
Q 23.6875 -22.21875 19 -21.28125 
Q 14.3125 -20.359375 10.015625 -18.5 
L 10.015625 -7.625 
L 14.703125 -7.625 
Q 15.578125 -12.703125 18.84375 -15.046875 
Q 22.125 -17.390625 28.21875 -17.390625 
Q 36.140625 -17.390625 39.8125 -12.921875 
Q 43.5 -8.453125 43.5 1.125 
L 43.5 8.109375 
Q 40.875 3.21875 36.796875 0.890625 
Q 32.71875 -1.421875 26.703125 -1.421875 
Q 17.140625 -1.421875 11.0625 6.171875 
Q 4.984375 13.765625 4.984375 25.984375 
Q 4.984375 38.1875 11.03125 45.75 
Q 17.09375 53.328125 26.703125 53.328125 
Q 32.71875 53.328125 36.796875 51 
Q 40.875 48.6875 43.5 43.796875 
L 43.5 51.90625 
L 61.078125 51.90625 
L 61.078125 46.6875 
z
M 43.5 28.515625 
Q 43.5 37.84375 39.90625 42.765625 
Q 36.328125 47.703125 29.5 47.703125 
Q 22.5625 47.703125 19.015625 42.234375 
Q 15.484375 36.765625 15.484375 25.984375 
Q 15.484375 15.234375 19.015625 9.71875 
Q 22.5625 4.203125 29.5 4.203125 
Q 36.328125 4.203125 39.90625 9.109375 
Q 43.5 14.015625 43.5 23.390625 
z
" id="DejaVuSerif-103"/>
      <path d="M 39.796875 16.3125 
L 39.796875 27.296875 
L 28.21875 27.296875 
Q 21.53125 27.296875 18.25 24.40625 
Q 14.984375 21.53125 14.984375 15.578125 
Q 14.984375 10.15625 18.296875 6.984375 
Q 21.625 3.8125 27.296875 3.8125 
Q 32.90625 3.8125 36.34375 7.28125 
Q 39.796875 10.75 39.796875 16.3125 
z
M 48.78125 32.421875 
L 48.78125 5.171875 
L 56.78125 5.171875 
L 56.78125 0 
L 39.796875 0 
L 39.796875 5.609375 
Q 36.8125 2 32.90625 0.28125 
Q 29 -1.421875 23.78125 -1.421875 
Q 15.140625 -1.421875 10.0625 3.171875 
Q 4.984375 7.765625 4.984375 15.578125 
Q 4.984375 23.640625 10.796875 28.078125 
Q 16.609375 32.515625 27.203125 32.515625 
L 39.796875 32.515625 
L 39.796875 36.078125 
Q 39.796875 42 36.203125 45.234375 
Q 32.625 48.484375 26.125 48.484375 
Q 20.75 48.484375 17.578125 46.046875 
Q 14.40625 43.609375 13.625 38.8125 
L 8.984375 38.8125 
L 8.984375 49.3125 
Q 13.671875 51.3125 18.09375 52.3125 
Q 22.515625 53.328125 26.703125 53.328125 
Q 37.5 53.328125 43.140625 47.96875 
Q 48.78125 42.625 48.78125 32.421875 
z
" id="DejaVuSerif-97"/>
      <path d="M 51.8125 41.796875 
Q 54.390625 47.515625 58.421875 50.421875 
Q 62.453125 53.328125 67.828125 53.328125 
Q 75.984375 53.328125 79.984375 48.265625 
Q 83.984375 43.21875 83.984375 33.015625 
L 83.984375 5.171875 
L 92.09375 5.171875 
L 92.09375 0 
L 67.1875 0 
L 67.1875 5.171875 
L 75 5.171875 
L 75 31.984375 
Q 75 39.9375 72.65625 43.3125 
Q 70.3125 46.6875 64.890625 46.6875 
Q 58.890625 46.6875 55.734375 42.140625 
Q 52.59375 37.59375 52.59375 28.90625 
L 52.59375 5.171875 
L 60.40625 5.171875 
L 60.40625 0 
L 35.796875 0 
L 35.796875 5.171875 
L 43.609375 5.171875 
L 43.609375 32.328125 
Q 43.609375 40.09375 41.265625 43.390625 
Q 38.921875 46.6875 33.5 46.6875 
Q 27.484375 46.6875 24.328125 42.140625 
Q 21.1875 37.59375 21.1875 28.90625 
L 21.1875 5.171875 
L 29 5.171875 
L 29 0 
L 4.109375 0 
L 4.109375 5.171875 
L 12.203125 5.171875 
L 12.203125 46.78125 
L 3.609375 46.78125 
L 3.609375 51.90625 
L 21.1875 51.90625 
L 21.1875 42.671875 
Q 23.6875 47.859375 27.53125 50.59375 
Q 31.390625 53.328125 36.28125 53.328125 
Q 42.328125 53.328125 46.375 50.3125 
Q 50.4375 47.3125 51.8125 41.796875 
z
" id="DejaVuSerif-109"/>
     </defs>
     <use xlink:href="#DejaVuSerif-80"/>
     <use x="62.785156" xlink:href="#DejaVuSerif-101"/>
     <use x="121.964844" xlink:href="#DejaVuSerif-114"/>
     <use x="169.767578" xlink:href="#DejaVuSerif-105"/>
     <use x="201.75" xlink:href="#DejaVuSerif-111"/>
     <use x="261.955078" xlink:href="#DejaVuSerif-100"/>
     <use x="325.96875" xlink:href="#DejaVuSerif-111"/>
     <use x="386.173828" xlink:href="#DejaVuSerif-103"/>
     <use x="450.1875" xlink:href="#DejaVuSerif-114"/>
     <use x="497.990234" xlink:href="#DejaVuSerif-97"/>
     <use x="557.609375" xlink:href="#DejaVuSerif-109"/>
    </g>
   </g>
   <g id="legend_1">
    <g id="patch_7">
     <path d="M 419.648125 108.123071 
L 454.431875 108.123071 
Q 455.231875 108.123071 455.231875 107.323071 
L 455.231875 84.238071 
Q 455.231875 83.438071 454.431875 83.438071 
L 419.648125 83.438071 
Q 418.848125 83.438071 418.848125 84.238071 
L 418.848125 107.323071 
Q 418.848125 108.123071 419.648125 108.123071 
z
" style="fill:#ffffff;opacity:0.8;stroke:#cccccc;stroke-linejoin:miter;"/>
    </g>
    <g id="line2d_23">
     <path d="M 420.448125 86.677446 
L 428.448125 86.677446 
" style="fill:none;stroke:#808080;stroke-dasharray:5.55,2.4;stroke-dashoffset:0;stroke-width:1.5;"/>
    </g>
    <g id="text_9">
     <!-- 99.9% FAP -->
     <g transform="translate(431.648125 88.077446)scale(0.04 -0.04)">
      <defs>
       <path d="M 46.78125 32.671875 
Q 43.5 29 39.25 27.1875 
Q 35.015625 25.390625 29.6875 25.390625 
Q 18.84375 25.390625 12.5625 31.9375 
Q 6.296875 38.484375 6.296875 49.8125 
Q 6.296875 60.890625 13.109375 67.546875 
Q 19.921875 74.21875 31.296875 74.21875 
Q 43.65625 74.21875 50.265625 65.015625 
Q 56.890625 55.8125 56.890625 38.71875 
Q 56.890625 19.578125 49.015625 9.078125 
Q 41.15625 -1.421875 26.90625 -1.421875 
Q 23.046875 -1.421875 18.796875 -0.6875 
Q 14.546875 0.046875 10.109375 1.515625 
L 10.109375 13.625 
L 15.578125 13.625 
Q 16.21875 8.6875 19.390625 6.046875 
Q 22.5625 3.421875 27.875 3.421875 
Q 37.359375 3.421875 41.984375 10.5625 
Q 46.625 17.71875 46.78125 32.671875 
z
M 30.90625 69.390625 
Q 23.96875 69.390625 20.28125 64.328125 
Q 16.609375 59.28125 16.609375 49.8125 
Q 16.609375 40.328125 20.28125 35.25 
Q 23.96875 30.171875 30.90625 30.171875 
Q 37.84375 30.171875 41.53125 35.078125 
Q 45.21875 39.984375 45.21875 49.21875 
Q 45.21875 58.9375 41.5 64.15625 
Q 37.796875 69.390625 30.90625 69.390625 
z
" id="DejaVuSerif-57"/>
       <path d="M 22.40625 69.671875 
Q 18.109375 69.671875 15.6875 65.625 
Q 13.28125 61.578125 13.28125 54.296875 
Q 13.28125 47.125 15.75 43.015625 
Q 18.21875 38.921875 22.40625 38.921875 
Q 26.5625 38.921875 28.96875 43 
Q 31.390625 47.078125 31.390625 54.296875 
Q 31.390625 61.53125 28.96875 65.59375 
Q 26.5625 69.671875 22.40625 69.671875 
z
M 72.703125 33.890625 
Q 68.453125 33.890625 66.03125 29.78125 
Q 63.625 25.6875 63.625 18.40625 
Q 63.625 11.234375 66.0625 7.15625 
Q 68.5 3.078125 72.703125 3.078125 
Q 76.90625 3.078125 79.296875 7.15625 
Q 81.6875 11.234375 81.6875 18.40625 
Q 81.6875 25.640625 79.265625 29.765625 
Q 76.859375 33.890625 72.703125 33.890625 
z
M 72.703125 38.28125 
Q 80.421875 38.28125 84.953125 32.90625 
Q 89.5 27.546875 89.5 18.40625 
Q 89.5 9.28125 84.9375 3.921875 
Q 80.375 -1.421875 72.703125 -1.421875 
Q 64.890625 -1.421875 60.34375 3.921875 
Q 55.8125 9.28125 55.8125 18.40625 
Q 55.8125 27.59375 60.375 32.9375 
Q 64.9375 38.28125 72.703125 38.28125 
z
M 66.609375 74.21875 
L 74.03125 74.21875 
L 28.421875 -1.421875 
L 21 -1.421875 
z
M 22.3125 74.21875 
Q 30.03125 74.21875 34.609375 68.875 
Q 39.203125 63.53125 39.203125 54.390625 
Q 39.203125 45.171875 34.640625 39.84375 
Q 30.078125 34.515625 22.3125 34.515625 
Q 14.546875 34.515625 10.03125 39.859375 
Q 5.515625 45.21875 5.515625 54.390625 
Q 5.515625 63.484375 10.046875 68.84375 
Q 14.59375 74.21875 22.3125 74.21875 
z
" id="DejaVuSerif-37"/>
       <path d="M 5.515625 0 
L 5.515625 5.171875 
L 14.796875 5.171875 
L 14.796875 67.671875 
L 5.515625 67.671875 
L 5.515625 72.90625 
L 65.1875 72.90625 
L 65.1875 56.6875 
L 59.1875 56.6875 
L 59.1875 66.890625 
L 24.703125 66.890625 
L 24.703125 42.484375 
L 49.609375 42.484375 
L 49.609375 51.609375 
L 55.609375 51.609375 
L 55.609375 27.390625 
L 49.609375 27.390625 
L 49.609375 36.53125 
L 24.703125 36.53125 
L 24.703125 5.171875 
L 36.375 5.171875 
L 36.375 0 
z
" id="DejaVuSerif-70"/>
       <path d="M 20.015625 26.421875 
L 46.78125 26.421875 
L 33.40625 61.078125 
z
M -0.59375 0 
L -0.59375 5.171875 
L 5.8125 5.171875 
L 31.78125 72.90625 
L 39.984375 72.90625 
L 66.015625 5.171875 
L 73.1875 5.171875 
L 73.1875 0 
L 46.6875 0 
L 46.6875 5.171875 
L 54.78125 5.171875 
L 48.6875 21.1875 
L 18.015625 21.1875 
L 11.921875 5.171875 
L 19.921875 5.171875 
L 19.921875 0 
z
" id="DejaVuSerif-65"/>
      </defs>
      <use xlink:href="#DejaVuSerif-57"/>
      <use x="63.623047" xlink:href="#DejaVuSerif-57"/>
      <use x="127.246094" xlink:href="#DejaVuSerif-46"/>
      <use x="159.033203" xlink:href="#DejaVuSerif-57"/>
      <use x="222.65625" xlink:href="#DejaVuSerif-37"/>
      <use x="317.675781" xlink:href="#DejaVuSerif-32"/>
      <use x="349.462891" xlink:href="#DejaVuSerif-70"/>
      <use x="410.097656" xlink:href="#DejaVuSerif-65"/>
      <use x="482.314453" xlink:href="#DejaVuSerif-80"/>
     </g>
    </g>
    <g id="line2d_24">
     <path d="M 420.448125 92.548696 
L 428.448125 92.548696 
" style="fill:none;stroke:#a9a9a9;stroke-dasharray:5.55,2.4;stroke-dashoffset:0;stroke-width:1.5;"/>
    </g>
    <g id="text_10">
     <!-- 99.0% FAP -->
     <g transform="translate(431.648125 93.948696)scale(0.04 -0.04)">
      <use xlink:href="#DejaVuSerif-57"/>
      <use x="63.623047" xlink:href="#DejaVuSerif-57"/>
      <use x="127.246094" xlink:href="#DejaVuSerif-46"/>
      <use x="159.033203" xlink:href="#DejaVuSerif-48"/>
      <use x="222.65625" xlink:href="#DejaVuSerif-37"/>
      <use x="317.675781" xlink:href="#DejaVuSerif-32"/>
      <use x="349.462891" xlink:href="#DejaVuSerif-70"/>
      <use x="410.097656" xlink:href="#DejaVuSerif-65"/>
      <use x="482.314453" xlink:href="#DejaVuSerif-80"/>
     </g>
    </g>
    <g id="line2d_25">
     <path d="M 420.448125 98.419946 
L 428.448125 98.419946 
" style="fill:none;stroke:#c0c0c0;stroke-dasharray:5.55,2.4;stroke-dashoffset:0;stroke-width:1.5;"/>
    </g>
    <g id="text_11">
     <!-- 95.0% FAP -->
     <g transform="translate(431.648125 99.819946)scale(0.04 -0.04)">
      <defs>
       <path d="M 50.296875 72.90625 
L 50.296875 64.890625 
L 16.890625 64.890625 
L 16.890625 44 
Q 19.4375 45.75 22.828125 46.625 
Q 26.21875 47.515625 30.421875 47.515625 
Q 42.234375 47.515625 49.0625 40.96875 
Q 55.90625 34.421875 55.90625 23.09375 
Q 55.90625 11.53125 49 5.046875 
Q 42.09375 -1.421875 29.59375 -1.421875 
Q 24.5625 -1.421875 19.28125 -0.1875 
Q 14.015625 1.03125 8.5 3.515625 
L 8.5 17.671875 
L 14.015625 17.671875 
Q 14.453125 10.75 18.421875 7.078125 
Q 22.40625 3.421875 29.59375 3.421875 
Q 37.3125 3.421875 41.453125 8.5 
Q 45.609375 13.578125 45.609375 23.09375 
Q 45.609375 32.5625 41.484375 37.609375 
Q 37.359375 42.671875 29.59375 42.671875 
Q 25.203125 42.671875 21.84375 41.109375 
Q 18.5 39.546875 15.921875 36.28125 
L 11.71875 36.28125 
L 11.71875 72.90625 
z
" id="DejaVuSerif-53"/>
      </defs>
      <use xlink:href="#DejaVuSerif-57"/>
      <use x="63.623047" xlink:href="#DejaVuSerif-53"/>
      <use x="127.246094" xlink:href="#DejaVuSerif-46"/>
      <use x="159.033203" xlink:href="#DejaVuSerif-48"/>
      <use x="222.65625" xlink:href="#DejaVuSerif-37"/>
      <use x="317.675781" xlink:href="#DejaVuSerif-32"/>
      <use x="349.462891" xlink:href="#DejaVuSerif-70"/>
      <use x="410.097656" xlink:href="#DejaVuSerif-65"/>
      <use x="482.314453" xlink:href="#DejaVuSerif-80"/>
     </g>
    </g>
    <g id="line2d_26">
     <path d="M 420.448125 104.291196 
L 428.448125 104.291196 
" style="fill:none;stroke:#d3d3d3;stroke-dasharray:5.55,2.4;stroke-dashoffset:0;stroke-width:1.5;"/>
    </g>
    <g id="text_12">
     <!-- 90.0% FAP -->
     <g transform="translate(431.648125 105.691196)scale(0.04 -0.04)">
      <use xlink:href="#DejaVuSerif-57"/>
      <use x="63.623047" xlink:href="#DejaVuSerif-48"/>
      <use x="127.246094" xlink:href="#DejaVuSerif-46"/>
      <use x="159.033203" xlink:href="#DejaVuSerif-48"/>
      <use x="222.65625" xlink:href="#DejaVuSerif-37"/>
      <use x="317.675781" xlink:href="#DejaVuSerif-32"/>
      <use x="349.462891" xlink:href="#DejaVuSerif-70"/>
      <use x="410.097656" xlink:href="#DejaVuSerif-65"/>
      <use x="482.314453" xlink:href="#DejaVuSerif-80"/>
     </g>
    </g>
   </g>
  </g>
  <g id="axes_2">
   <g id="patch_8">
    <path d="M 57.6 150.089143 
L 206.4 150.089143 
L 206.4 41.472 
L 57.6 41.472 
z
" style="fill:#ffffff;"/>
   </g>
   <g id="PathCollection_1">
    <defs>
     <path d="M 0 0.707107 
C 0.187527 0.707107 0.367398 0.632602 0.5 0.5 
C 0.632602 0.367398 0.707107 0.187527 0.707107 0 
C 0.707107 -0.187527 0.632602 -0.367398 0.5 -0.5 
C 0.367398 -0.632602 0.187527 -0.707107 0 -0.707107 
C -0.187527 -0.707107 -0.367398 -0.632602 -0.5 -0.5 
C -0.632602 -0.367398 -0.707107 -0.187527 -0.707107 0 
C -0.707107 0.187527 -0.632602 0.367398 -0.5 0.5 
C -0.367398 0.632602 -0.187527 0.707107 0 0.707107 
z
" id="m0955debade" style="stroke:#1f77b4;"/>
    </defs>
    <g clip-path="url(#p286377304f)">
     <use style="fill:#1f77b4;stroke:#1f77b4;" x="117.720277" xlink:href="#m0955debade" y="68.565888"/>
     <use style="fill:#1f77b4;stroke:#1f77b4;" x="117.726943" xlink:href="#m0955debade" y="81.207964"/>
     <use style="fill:#1f77b4;stroke:#1f77b4;" x="65.109864" xlink:href="#m0955debade" y="54.10834"/>
     <use style="fill:#1f77b4;stroke:#1f77b4;" x="65.116529" xlink:href="#m0955debade" y="100.116646"/>
     <use style="fill:#1f77b4;stroke:#1f77b4;" x="95.160863" xlink:href="#m0955debade" y="80.206137"/>
     <use style="fill:#1f77b4;stroke:#1f77b4;" x="69.3133" xlink:href="#m0955debade" y="98.143826"/>
     <use style="fill:#1f77b4;stroke:#1f77b4;" x="69.359618" xlink:href="#m0955debade" y="106.807141"/>
     <use style="fill:#1f77b4;stroke:#1f77b4;" x="100.285656" xlink:href="#m0955debade" y="103.714486"/>
     <use style="fill:#1f77b4;stroke:#1f77b4;" x="114.666182" xlink:href="#m0955debade" y="60.155964"/>
     <use style="fill:#1f77b4;stroke:#1f77b4;" x="114.67268" xlink:href="#m0955debade" y="46.409143"/>
     <use style="fill:#1f77b4;stroke:#1f77b4;" x="75.184203" xlink:href="#m0955debade" y="134.371285"/>
     <use style="fill:#1f77b4;stroke:#1f77b4;" x="75.190866" xlink:href="#m0955debade" y="120.073716"/>
     <use style="fill:#1f77b4;stroke:#1f77b4;" x="103.519048" xlink:href="#m0955debade" y="69.750948"/>
     <use style="fill:#1f77b4;stroke:#1f77b4;" x="103.525713" xlink:href="#m0955debade" y="60.752928"/>
     <use style="fill:#1f77b4;stroke:#1f77b4;" x="117.773445" xlink:href="#m0955debade" y="80.419877"/>
     <use style="fill:#1f77b4;stroke:#1f77b4;" x="117.780109" xlink:href="#m0955debade" y="82.670031"/>
     <use style="fill:#1f77b4;stroke:#1f77b4;" x="64.363636" xlink:href="#m0955debade" y="67.36541"/>
     <use style="fill:#1f77b4;stroke:#1f77b4;" x="64.370135" xlink:href="#m0955debade" y="75.766792"/>
     <use style="fill:#1f77b4;stroke:#1f77b4;" x="78.138677" xlink:href="#m0955debade" y="80.858822"/>
     <use style="fill:#1f77b4;stroke:#1f77b4;" x="78.145342" xlink:href="#m0955debade" y="105.472586"/>
     <use style="fill:#1f77b4;stroke:#1f77b4;" x="92.520702" xlink:href="#m0955debade" y="87.898115"/>
     <use style="fill:#1f77b4;stroke:#1f77b4;" x="92.5272" xlink:href="#m0955debade" y="95.914967"/>
     <use style="fill:#1f77b4;stroke:#1f77b4;" x="85.03833" xlink:href="#m0955debade" y="110.162057"/>
     <use style="fill:#1f77b4;stroke:#1f77b4;" x="116.41046" xlink:href="#m0955debade" y="94.183748"/>
     <use style="fill:#1f77b4;stroke:#1f77b4;" x="130.740667" xlink:href="#m0955debade" y="84.555987"/>
     <use style="fill:#1f77b4;stroke:#1f77b4;" x="76.565256" xlink:href="#m0955debade" y="107.517851"/>
     <use style="fill:#1f77b4;stroke:#1f77b4;" x="90.934451" xlink:href="#m0955debade" y="111.639541"/>
     <use style="fill:#1f77b4;stroke:#1f77b4;" x="105.390788" xlink:href="#m0955debade" y="117.124317"/>
     <use style="fill:#1f77b4;stroke:#1f77b4;" x="72.631849" xlink:href="#m0955debade" y="120.297941"/>
     <use style="fill:#1f77b4;stroke:#1f77b4;" x="130.72564" xlink:href="#m0955debade" y="97.963532"/>
     <use style="fill:#1f77b4;stroke:#1f77b4;" x="78.647267" xlink:href="#m0955debade" y="94.981665"/>
     <use style="fill:#1f77b4;stroke:#1f77b4;" x="93.308542" xlink:href="#m0955debade" y="145.152"/>
     <use style="fill:#1f77b4;stroke:#1f77b4;" x="125.207347" xlink:href="#m0955debade" y="90.201395"/>
     <use style="fill:#1f77b4;stroke:#1f77b4;" x="100.095562" xlink:href="#m0955debade" y="88.958293"/>
     <use style="fill:#1f77b4;stroke:#1f77b4;" x="124.379504" xlink:href="#m0955debade" y="56.18999"/>
     <use style="fill:#1f77b4;stroke:#1f77b4;" x="113.387489" xlink:href="#m0955debade" y="108.045001"/>
     <use style="fill:#1f77b4;stroke:#1f77b4;" x="120.088369" xlink:href="#m0955debade" y="68.345255"/>
     <use style="fill:#1f77b4;stroke:#1f77b4;" x="89.591865" xlink:href="#m0955debade" y="86.233445"/>
     <use style="fill:#1f77b4;stroke:#1f77b4;" x="103.777663" xlink:href="#m0955debade" y="102.007518"/>
     <use style="fill:#1f77b4;stroke:#1f77b4;" x="131.055433" xlink:href="#m0955debade" y="86.304909"/>
     <use style="fill:#1f77b4;stroke:#1f77b4;" x="131.061932" xlink:href="#m0955debade" y="81.933747"/>
     <use style="fill:#1f77b4;stroke:#1f77b4;" x="76.509133" xlink:href="#m0955debade" y="141.721358"/>
     <use style="fill:#1f77b4;stroke:#1f77b4;" x="76.515631" xlink:href="#m0955debade" y="136.627351"/>
     <use style="fill:#1f77b4;stroke:#1f77b4;" x="90.284006" xlink:href="#m0955debade" y="110.528231"/>
     <use style="fill:#1f77b4;stroke:#1f77b4;" x="90.290505" xlink:href="#m0955debade" y="77.965161"/>
    </g>
   </g>
   <g id="PathCollection_2">
    <g clip-path="url(#p286377304f)">
     <use style="fill:#1f77b4;stroke:#1f77b4;" x="186.29471" xlink:href="#m0955debade" y="68.565888"/>
     <use style="fill:#1f77b4;stroke:#1f77b4;" x="186.301375" xlink:href="#m0955debade" y="81.207964"/>
     <use style="fill:#1f77b4;stroke:#1f77b4;" x="133.684296" xlink:href="#m0955debade" y="54.10834"/>
     <use style="fill:#1f77b4;stroke:#1f77b4;" x="133.690962" xlink:href="#m0955debade" y="100.116646"/>
     <use style="fill:#1f77b4;stroke:#1f77b4;" x="163.735295" xlink:href="#m0955debade" y="80.206137"/>
     <use style="fill:#1f77b4;stroke:#1f77b4;" x="137.887732" xlink:href="#m0955debade" y="98.143826"/>
     <use style="fill:#1f77b4;stroke:#1f77b4;" x="137.93405" xlink:href="#m0955debade" y="106.807141"/>
     <use style="fill:#1f77b4;stroke:#1f77b4;" x="168.860088" xlink:href="#m0955debade" y="103.714486"/>
     <use style="fill:#1f77b4;stroke:#1f77b4;" x="183.240614" xlink:href="#m0955debade" y="60.155964"/>
     <use style="fill:#1f77b4;stroke:#1f77b4;" x="183.247112" xlink:href="#m0955debade" y="46.409143"/>
     <use style="fill:#1f77b4;stroke:#1f77b4;" x="143.758635" xlink:href="#m0955debade" y="134.371285"/>
     <use style="fill:#1f77b4;stroke:#1f77b4;" x="143.765299" xlink:href="#m0955debade" y="120.073716"/>
     <use style="fill:#1f77b4;stroke:#1f77b4;" x="172.09348" xlink:href="#m0955debade" y="69.750948"/>
     <use style="fill:#1f77b4;stroke:#1f77b4;" x="172.100145" xlink:href="#m0955debade" y="60.752928"/>
     <use style="fill:#1f77b4;stroke:#1f77b4;" x="186.347877" xlink:href="#m0955debade" y="80.419877"/>
     <use style="fill:#1f77b4;stroke:#1f77b4;" x="186.354541" xlink:href="#m0955debade" y="82.670031"/>
     <use style="fill:#1f77b4;stroke:#1f77b4;" x="132.938068" xlink:href="#m0955debade" y="67.36541"/>
     <use style="fill:#1f77b4;stroke:#1f77b4;" x="132.944567" xlink:href="#m0955debade" y="75.766792"/>
     <use style="fill:#1f77b4;stroke:#1f77b4;" x="146.713109" xlink:href="#m0955debade" y="80.858822"/>
     <use style="fill:#1f77b4;stroke:#1f77b4;" x="146.719775" xlink:href="#m0955debade" y="105.472586"/>
     <use style="fill:#1f77b4;stroke:#1f77b4;" x="161.095134" xlink:href="#m0955debade" y="87.898115"/>
     <use style="fill:#1f77b4;stroke:#1f77b4;" x="161.101632" xlink:href="#m0955debade" y="95.914967"/>
     <use style="fill:#1f77b4;stroke:#1f77b4;" x="153.612762" xlink:href="#m0955debade" y="110.162057"/>
     <use style="fill:#1f77b4;stroke:#1f77b4;" x="184.984892" xlink:href="#m0955debade" y="94.183748"/>
     <use style="fill:#1f77b4;stroke:#1f77b4;" x="199.3151" xlink:href="#m0955debade" y="84.555987"/>
     <use style="fill:#1f77b4;stroke:#1f77b4;" x="145.139688" xlink:href="#m0955debade" y="107.517851"/>
     <use style="fill:#1f77b4;stroke:#1f77b4;" x="159.508883" xlink:href="#m0955debade" y="111.639541"/>
     <use style="fill:#1f77b4;stroke:#1f77b4;" x="173.96522" xlink:href="#m0955debade" y="117.124317"/>
     <use style="fill:#1f77b4;stroke:#1f77b4;" x="141.206281" xlink:href="#m0955debade" y="120.297941"/>
     <use style="fill:#1f77b4;stroke:#1f77b4;" x="199.300072" xlink:href="#m0955debade" y="97.963532"/>
     <use style="fill:#1f77b4;stroke:#1f77b4;" x="147.221699" xlink:href="#m0955debade" y="94.981665"/>
     <use style="fill:#1f77b4;stroke:#1f77b4;" x="161.882974" xlink:href="#m0955debade" y="145.152"/>
     <use style="fill:#1f77b4;stroke:#1f77b4;" x="193.781779" xlink:href="#m0955debade" y="90.201395"/>
     <use style="fill:#1f77b4;stroke:#1f77b4;" x="168.669994" xlink:href="#m0955debade" y="88.958293"/>
     <use style="fill:#1f77b4;stroke:#1f77b4;" x="192.953936" xlink:href="#m0955debade" y="56.18999"/>
     <use style="fill:#1f77b4;stroke:#1f77b4;" x="181.961921" xlink:href="#m0955debade" y="108.045001"/>
     <use style="fill:#1f77b4;stroke:#1f77b4;" x="188.662802" xlink:href="#m0955debade" y="68.345255"/>
     <use style="fill:#1f77b4;stroke:#1f77b4;" x="158.166297" xlink:href="#m0955debade" y="86.233445"/>
     <use style="fill:#1f77b4;stroke:#1f77b4;" x="172.352096" xlink:href="#m0955debade" y="102.007518"/>
     <use style="fill:#1f77b4;stroke:#1f77b4;" x="199.629865" xlink:href="#m0955debade" y="86.304909"/>
     <use style="fill:#1f77b4;stroke:#1f77b4;" x="199.636364" xlink:href="#m0955debade" y="81.933747"/>
     <use style="fill:#1f77b4;stroke:#1f77b4;" x="145.083565" xlink:href="#m0955debade" y="141.721358"/>
     <use style="fill:#1f77b4;stroke:#1f77b4;" x="145.090063" xlink:href="#m0955debade" y="136.627351"/>
     <use style="fill:#1f77b4;stroke:#1f77b4;" x="158.858439" xlink:href="#m0955debade" y="110.528231"/>
     <use style="fill:#1f77b4;stroke:#1f77b4;" x="158.864937" xlink:href="#m0955debade" y="77.965161"/>
    </g>
   </g>
   <g id="matplotlib.axis_3">
    <g id="xtick_19">
     <g id="line2d_27">
      <g>
       <use style="stroke:#000000;stroke-width:0.8;" x="62.946099" xlink:href="#mb0f005b034" y="150.089143"/>
      </g>
     </g>
     <g id="text_13">
      <!-- 0 -->
      <g transform="translate(59.764849 164.68758)scale(0.1 -0.1)">
       <use xlink:href="#DejaVuSerif-48"/>
      </g>
     </g>
    </g>
    <g id="xtick_20">
     <g id="line2d_28">
      <g>
       <use style="stroke:#000000;stroke-width:0.8;" x="131.520531" xlink:href="#mb0f005b034" y="150.089143"/>
      </g>
     </g>
     <g id="text_14">
      <!-- 1 -->
      <g transform="translate(128.339281 164.68758)scale(0.1 -0.1)">
       <use xlink:href="#DejaVuSerif-49"/>
      </g>
     </g>
    </g>
    <g id="xtick_21">
     <g id="line2d_29">
      <g>
       <use style="stroke:#000000;stroke-width:0.8;" x="200.094964" xlink:href="#mb0f005b034" y="150.089143"/>
      </g>
     </g>
     <g id="text_15">
      <!-- 2 -->
      <g transform="translate(196.913714 164.68758)scale(0.1 -0.1)">
       <use xlink:href="#DejaVuSerif-50"/>
      </g>
     </g>
    </g>
    <g id="text_16">
     <!-- Phase (P = 4.764 d) -->
     <g transform="translate(81.582812 178.365705)scale(0.1 -0.1)">
      <defs>
       <path d="M 4.109375 0 
L 4.109375 5.171875 
L 12.203125 5.171875 
L 12.203125 70.796875 
L 3.609375 70.796875 
L 3.609375 75.984375 
L 21.1875 75.984375 
L 21.1875 42.671875 
Q 23.6875 47.953125 27.65625 50.640625 
Q 31.640625 53.328125 36.921875 53.328125 
Q 45.515625 53.328125 49.5625 48.390625 
Q 53.609375 43.453125 53.609375 33.015625 
L 53.609375 5.171875 
L 61.625 5.171875 
L 61.625 0 
L 36.8125 0 
L 36.8125 5.171875 
L 44.578125 5.171875 
L 44.578125 30.171875 
Q 44.578125 39.703125 42.25 43.1875 
Q 39.9375 46.6875 33.984375 46.6875 
Q 27.734375 46.6875 24.453125 42.140625 
Q 21.1875 37.59375 21.1875 28.90625 
L 21.1875 5.171875 
L 29 5.171875 
L 29 0 
z
" id="DejaVuSerif-104"/>
       <path d="M 5.609375 2.875 
L 5.609375 14.984375 
L 10.796875 14.984375 
Q 10.984375 9.1875 14.421875 6.296875 
Q 17.875 3.421875 24.609375 3.421875 
Q 30.671875 3.421875 33.84375 5.6875 
Q 37.015625 7.953125 37.015625 12.3125 
Q 37.015625 15.71875 34.6875 17.8125 
Q 32.375 19.921875 24.90625 22.3125 
L 18.40625 24.515625 
Q 11.71875 26.65625 8.71875 29.875 
Q 5.71875 33.109375 5.71875 38.09375 
Q 5.71875 45.21875 10.9375 49.265625 
Q 16.15625 53.328125 25.390625 53.328125 
Q 29.5 53.328125 34.03125 52.25 
Q 38.578125 51.171875 43.40625 49.125 
L 43.40625 37.796875 
L 38.234375 37.796875 
Q 38.03125 42.828125 34.703125 45.65625 
Q 31.390625 48.484375 25.6875 48.484375 
Q 20.015625 48.484375 17.109375 46.484375 
Q 14.203125 44.484375 14.203125 40.484375 
Q 14.203125 37.203125 16.40625 35.21875 
Q 18.609375 33.25 25.203125 31.203125 
L 32.328125 29 
Q 39.703125 26.703125 42.9375 23.265625 
Q 46.1875 19.828125 46.1875 14.40625 
Q 46.1875 7.03125 40.546875 2.796875 
Q 34.90625 -1.421875 25 -1.421875 
Q 19.96875 -1.421875 15.1875 -0.34375 
Q 10.40625 0.734375 5.609375 2.875 
z
" id="DejaVuSerif-115"/>
       <path d="M 31.890625 -15.578125 
Q 20.015625 -10.25 13.953125 1.296875 
Q 7.90625 12.84375 7.90625 30.171875 
Q 7.90625 47.5625 13.953125 59.109375 
Q 20.015625 70.65625 31.890625 75.984375 
L 31.890625 71.1875 
Q 24.359375 66.015625 21.09375 56.609375 
Q 17.828125 47.21875 17.828125 30.171875 
Q 17.828125 13.1875 21.09375 3.78125 
Q 24.359375 -5.609375 31.890625 -10.796875 
z
" id="DejaVuSerif-40"/>
       <path d="M 10.59375 45.21875 
L 73.1875 45.21875 
L 73.1875 37.40625 
L 10.59375 37.40625 
z
M 10.59375 25.296875 
L 73.1875 25.296875 
L 73.1875 17.484375 
L 10.59375 17.484375 
z
" id="DejaVuSerif-61"/>
       <path d="M 56.390625 67.921875 
L 27.875 0 
L 20.609375 0 
L 47.796875 64.890625 
L 14.109375 64.890625 
L 14.109375 55.90625 
L 8.40625 55.90625 
L 8.40625 72.90625 
L 56.390625 72.90625 
z
" id="DejaVuSerif-55"/>
       <path d="M 32.71875 3.421875 
Q 39.59375 3.421875 43.296875 8.46875 
Q 47.015625 13.53125 47.015625 23 
Q 47.015625 32.46875 43.296875 37.515625 
Q 39.59375 42.578125 32.71875 42.578125 
Q 25.734375 42.578125 22.0625 37.6875 
Q 18.40625 32.8125 18.40625 23.578125 
Q 18.40625 13.875 22.109375 8.640625 
Q 25.828125 3.421875 32.71875 3.421875 
z
M 16.796875 40.140625 
Q 20.125 43.796875 24.3125 45.59375 
Q 28.515625 47.40625 33.796875 47.40625 
Q 44.671875 47.40625 51 40.859375 
Q 57.328125 34.328125 57.328125 23 
Q 57.328125 11.921875 50.515625 5.25 
Q 43.703125 -1.421875 32.328125 -1.421875 
Q 19.96875 -1.421875 13.328125 7.78125 
Q 6.6875 17 6.6875 34.078125 
Q 6.6875 53.21875 14.546875 63.71875 
Q 22.40625 74.21875 36.71875 74.21875 
Q 40.578125 74.21875 44.828125 73.484375 
Q 49.078125 72.75 53.515625 71.296875 
L 53.515625 59.28125 
L 48 59.28125 
Q 47.40625 64.203125 44.234375 66.796875 
Q 41.0625 69.390625 35.6875 69.390625 
Q 26.21875 69.390625 21.578125 62.203125 
Q 16.9375 55.03125 16.796875 40.140625 
z
" id="DejaVuSerif-54"/>
       <path d="M 7.078125 -15.578125 
L 7.078125 -10.796875 
Q 14.59375 -5.609375 17.890625 3.78125 
Q 21.1875 13.1875 21.1875 30.171875 
Q 21.1875 47.21875 17.890625 56.609375 
Q 14.59375 66.015625 7.078125 71.1875 
L 7.078125 75.984375 
Q 19 70.65625 25.046875 59.109375 
Q 31.109375 47.5625 31.109375 30.171875 
Q 31.109375 12.84375 25.046875 1.296875 
Q 19 -10.25 7.078125 -15.578125 
z
" id="DejaVuSerif-41"/>
      </defs>
      <use xlink:href="#DejaVuSerif-80"/>
      <use x="67.285156" xlink:href="#DejaVuSerif-104"/>
      <use x="131.689453" xlink:href="#DejaVuSerif-97"/>
      <use x="191.308594" xlink:href="#DejaVuSerif-115"/>
      <use x="242.626953" xlink:href="#DejaVuSerif-101"/>
      <use x="301.806641" xlink:href="#DejaVuSerif-32"/>
      <use x="333.59375" xlink:href="#DejaVuSerif-40"/>
      <use x="372.607422" xlink:href="#DejaVuSerif-80"/>
      <use x="439.892578" xlink:href="#DejaVuSerif-32"/>
      <use x="471.679688" xlink:href="#DejaVuSerif-61"/>
      <use x="555.46875" xlink:href="#DejaVuSerif-32"/>
      <use x="587.255859" xlink:href="#DejaVuSerif-52"/>
      <use x="650.878906" xlink:href="#DejaVuSerif-46"/>
      <use x="682.666016" xlink:href="#DejaVuSerif-55"/>
      <use x="746.289062" xlink:href="#DejaVuSerif-54"/>
      <use x="809.912109" xlink:href="#DejaVuSerif-52"/>
      <use x="873.535156" xlink:href="#DejaVuSerif-32"/>
      <use x="905.322266" xlink:href="#DejaVuSerif-100"/>
      <use x="969.335938" xlink:href="#DejaVuSerif-41"/>
     </g>
    </g>
   </g>
   <g id="matplotlib.axis_4">
    <g id="ytick_4">
     <g id="line2d_30">
      <g>
       <use style="stroke:#000000;stroke-width:0.8;" x="57.6" xlink:href="#m559a9e64e8" y="47.961306"/>
      </g>
     </g>
     <g id="text_17">
      <!-- 18.6 -->
      <g transform="translate(28.334375 51.760524)scale(0.1 -0.1)">
       <defs>
        <path d="M 46.578125 19.921875 
Q 46.578125 27.734375 42.6875 32.046875 
Q 38.8125 36.375 31.78125 36.375 
Q 24.75 36.375 20.875 32.046875 
Q 17 27.734375 17 19.921875 
Q 17 12.0625 20.875 7.734375 
Q 24.75 3.421875 31.78125 3.421875 
Q 38.8125 3.421875 42.6875 7.734375 
Q 46.578125 12.0625 46.578125 19.921875 
z
M 44.578125 55.328125 
Q 44.578125 61.96875 41.203125 65.671875 
Q 37.84375 69.390625 31.78125 69.390625 
Q 25.78125 69.390625 22.390625 65.671875 
Q 19 61.96875 19 55.328125 
Q 19 48.640625 22.390625 44.921875 
Q 25.78125 41.21875 31.78125 41.21875 
Q 37.84375 41.21875 41.203125 44.921875 
Q 44.578125 48.640625 44.578125 55.328125 
z
M 39.3125 38.8125 
Q 47.609375 37.703125 52.25 32.6875 
Q 56.890625 27.6875 56.890625 19.921875 
Q 56.890625 9.671875 50.390625 4.125 
Q 43.890625 -1.421875 31.78125 -1.421875 
Q 19.734375 -1.421875 13.203125 4.125 
Q 6.6875 9.671875 6.6875 19.921875 
Q 6.6875 27.6875 11.328125 32.6875 
Q 15.96875 37.703125 24.3125 38.8125 
Q 16.9375 40.140625 13 44.40625 
Q 9.078125 48.6875 9.078125 55.328125 
Q 9.078125 64.109375 15.125 69.15625 
Q 21.1875 74.21875 31.78125 74.21875 
Q 42.390625 74.21875 48.4375 69.15625 
Q 54.5 64.109375 54.5 55.328125 
Q 54.5 48.6875 50.5625 44.40625 
Q 46.625 40.140625 39.3125 38.8125 
z
" id="DejaVuSerif-56"/>
       </defs>
       <use xlink:href="#DejaVuSerif-49"/>
       <use x="63.623047" xlink:href="#DejaVuSerif-56"/>
       <use x="127.246094" xlink:href="#DejaVuSerif-46"/>
       <use x="159.033203" xlink:href="#DejaVuSerif-54"/>
      </g>
     </g>
    </g>
    <g id="ytick_5">
     <g id="line2d_31">
      <g>
       <use style="stroke:#000000;stroke-width:0.8;" x="57.6" xlink:href="#m559a9e64e8" y="82.335791"/>
      </g>
     </g>
     <g id="text_18">
      <!-- 18.8 -->
      <g transform="translate(28.334375 86.135009)scale(0.1 -0.1)">
       <use xlink:href="#DejaVuSerif-49"/>
       <use x="63.623047" xlink:href="#DejaVuSerif-56"/>
       <use x="127.246094" xlink:href="#DejaVuSerif-46"/>
       <use x="159.033203" xlink:href="#DejaVuSerif-56"/>
      </g>
     </g>
    </g>
    <g id="ytick_6">
     <g id="line2d_32">
      <g>
       <use style="stroke:#000000;stroke-width:0.8;" x="57.6" xlink:href="#m559a9e64e8" y="116.710276"/>
      </g>
     </g>
     <g id="text_19">
      <!-- 19.0 -->
      <g transform="translate(28.334375 120.509495)scale(0.1 -0.1)">
       <use xlink:href="#DejaVuSerif-49"/>
       <use x="63.623047" xlink:href="#DejaVuSerif-57"/>
       <use x="127.246094" xlink:href="#DejaVuSerif-46"/>
       <use x="159.033203" xlink:href="#DejaVuSerif-48"/>
      </g>
     </g>
    </g>
    <g id="text_20">
     <!-- Mag -->
     <g transform="translate(22.1125 107.082134)rotate(-90)scale(0.1 -0.1)">
      <defs>
       <path d="M 5.515625 0 
L 5.515625 5.171875 
L 14.796875 5.171875 
L 14.796875 67.671875 
L 4.984375 67.671875 
L 4.984375 72.90625 
L 26.21875 72.90625 
L 51.8125 21 
L 77.390625 72.90625 
L 97.3125 72.90625 
L 97.3125 67.671875 
L 87.59375 67.671875 
L 87.59375 5.171875 
L 96.921875 5.171875 
L 96.921875 0 
L 68.40625 0 
L 68.40625 5.171875 
L 77.6875 5.171875 
L 77.6875 61.53125 
L 52.6875 10.6875 
L 45.796875 10.6875 
L 20.796875 61.53125 
L 20.796875 5.171875 
L 30.078125 5.171875 
L 30.078125 0 
z
" id="DejaVuSerif-77"/>
      </defs>
      <use xlink:href="#DejaVuSerif-77"/>
      <use x="102.392578" xlink:href="#DejaVuSerif-97"/>
      <use x="162.011719" xlink:href="#DejaVuSerif-103"/>
     </g>
    </g>
   </g>
   <g id="patch_9">
    <path d="M 57.6 150.089143 
L 57.6 41.472 
" style="fill:none;stroke:#000000;stroke-linecap:square;stroke-linejoin:miter;stroke-width:0.8;"/>
   </g>
   <g id="patch_10">
    <path d="M 206.4 150.089143 
L 206.4 41.472 
" style="fill:none;stroke:#000000;stroke-linecap:square;stroke-linejoin:miter;stroke-width:0.8;"/>
   </g>
   <g id="patch_11">
    <path d="M 57.6 150.089143 
L 206.4 150.089143 
" style="fill:none;stroke:#000000;stroke-linecap:square;stroke-linejoin:miter;stroke-width:0.8;"/>
   </g>
   <g id="patch_12">
    <path d="M 57.6 41.472 
L 206.4 41.472 
" style="fill:none;stroke:#000000;stroke-linecap:square;stroke-linejoin:miter;stroke-width:0.8;"/>
   </g>
   <g id="text_21">
    <!-- Folded Light Curve -->
    <g transform="translate(83.086719 35.472)scale(0.1 -0.1)">
     <defs>
      <path d="M 20.515625 5.171875 
L 29 5.171875 
L 29 0 
L 2.875 0 
L 2.875 5.171875 
L 11.53125 5.171875 
L 11.53125 70.796875 
L 2.875 70.796875 
L 2.875 75.984375 
L 20.515625 75.984375 
z
" id="DejaVuSerif-108"/>
      <path d="M 5.515625 0 
L 5.515625 5.171875 
L 14.796875 5.171875 
L 14.796875 67.671875 
L 5.515625 67.671875 
L 5.515625 72.90625 
L 33.984375 72.90625 
L 33.984375 67.671875 
L 24.703125 67.671875 
L 24.703125 6 
L 58.015625 6 
L 58.015625 18.21875 
L 64.015625 18.21875 
L 64.015625 0 
z
" id="DejaVuSerif-76"/>
      <path d="M 10.796875 46.6875 
L 2.875 46.6875 
L 2.875 51.90625 
L 10.796875 51.90625 
L 10.796875 68.015625 
L 19.828125 68.015625 
L 19.828125 51.90625 
L 36.71875 51.90625 
L 36.71875 46.6875 
L 19.828125 46.6875 
L 19.828125 13.71875 
Q 19.828125 7.125 21.09375 5.265625 
Q 22.359375 3.421875 25.78125 3.421875 
Q 29.296875 3.421875 30.90625 5.484375 
Q 32.515625 7.5625 32.625 12.203125 
L 39.40625 12.203125 
Q 39.015625 5.125 35.546875 1.84375 
Q 32.078125 -1.421875 25 -1.421875 
Q 17.234375 -1.421875 14.015625 2.015625 
Q 10.796875 5.46875 10.796875 13.71875 
z
" id="DejaVuSerif-116"/>
      <path d="M 70.515625 19.28125 
Q 67.28125 9.078125 59.6875 3.828125 
Q 52.09375 -1.421875 40.484375 -1.421875 
Q 33.34375 -1.421875 27.234375 1.015625 
Q 21.140625 3.46875 16.40625 8.203125 
Q 10.9375 13.671875 8.265625 20.625 
Q 5.609375 27.59375 5.609375 36.375 
Q 5.609375 53.375 15.421875 63.796875 
Q 25.25 74.21875 41.3125 74.21875 
Q 47.265625 74.21875 54 72.65625 
Q 60.75 71.09375 68.5 67.921875 
L 68.5 51.125 
L 62.984375 51.125 
Q 61.1875 60.296875 55.734375 64.640625 
Q 50.296875 69 40.484375 69 
Q 28.8125 69 22.796875 60.71875 
Q 16.796875 52.4375 16.796875 36.375 
Q 16.796875 20.359375 22.796875 12.078125 
Q 28.8125 3.8125 40.484375 3.8125 
Q 48.640625 3.8125 53.90625 7.6875 
Q 59.1875 11.578125 61.53125 19.28125 
z
" id="DejaVuSerif-67"/>
      <path d="M 35.40625 51.90625 
L 52.203125 51.90625 
L 52.203125 5.171875 
L 60.6875 5.171875 
L 60.6875 0 
L 43.21875 0 
L 43.21875 9.1875 
Q 40.71875 4 36.765625 1.28125 
Q 32.8125 -1.421875 27.59375 -1.421875 
Q 18.953125 -1.421875 14.875 3.484375 
Q 10.796875 8.40625 10.796875 18.890625 
L 10.796875 46.6875 
L 2.6875 46.6875 
L 2.6875 51.90625 
L 19.828125 51.90625 
L 19.828125 21.6875 
Q 19.828125 12.203125 22.140625 8.6875 
Q 24.46875 5.171875 30.421875 5.171875 
Q 36.671875 5.171875 39.9375 9.765625 
Q 43.21875 14.359375 43.21875 23.09375 
L 43.21875 46.6875 
L 35.40625 46.6875 
z
" id="DejaVuSerif-117"/>
      <path d="M 24.703125 0 
L 5.609375 46.6875 
L -0.296875 46.6875 
L -0.296875 51.90625 
L 23.578125 51.90625 
L 23.578125 46.6875 
L 15.28125 46.6875 
L 29.890625 10.984375 
L 44.484375 46.6875 
L 36.71875 46.6875 
L 36.71875 51.90625 
L 56.203125 51.90625 
L 56.203125 46.6875 
L 50.390625 46.6875 
L 31.296875 0 
z
" id="DejaVuSerif-118"/>
     </defs>
     <use xlink:href="#DejaVuSerif-70"/>
     <use x="63.884766" xlink:href="#DejaVuSerif-111"/>
     <use x="124.089844" xlink:href="#DejaVuSerif-108"/>
     <use x="156.072266" xlink:href="#DejaVuSerif-100"/>
     <use x="220.085938" xlink:href="#DejaVuSerif-101"/>
     <use x="279.265625" xlink:href="#DejaVuSerif-100"/>
     <use x="343.279297" xlink:href="#DejaVuSerif-32"/>
     <use x="375.066406" xlink:href="#DejaVuSerif-76"/>
     <use x="441.472656" xlink:href="#DejaVuSerif-105"/>
     <use x="473.455078" xlink:href="#DejaVuSerif-103"/>
     <use x="537.46875" xlink:href="#DejaVuSerif-104"/>
     <use x="601.873047" xlink:href="#DejaVuSerif-116"/>
     <use x="642.058594" xlink:href="#DejaVuSerif-32"/>
     <use x="673.845703" xlink:href="#DejaVuSerif-67"/>
     <use x="750.359375" xlink:href="#DejaVuSerif-117"/>
     <use x="814.763672" xlink:href="#DejaVuSerif-114"/>
     <use x="862.566406" xlink:href="#DejaVuSerif-118"/>
     <use x="919.060547" xlink:href="#DejaVuSerif-101"/>
    </g>
   </g>
  </g>
  <g id="axes_3">
   <g id="patch_13">
    <path d="M 57.6 307.584 
L 414.72 307.584 
L 414.72 198.966857 
L 57.6 198.966857 
z
" style="fill:#ffffff;"/>
   </g>
   <g id="PathCollection_3">
    <g clip-path="url(#pbe17e8c21d)">
     <use style="fill:#1f77b4;stroke:#1f77b4;" x="73.832727" xlink:href="#m0955debade" y="228.789569"/>
     <use style="fill:#1f77b4;stroke:#1f77b4;" x="73.833119" xlink:href="#m0955debade" y="239.518207"/>
     <use style="fill:#1f77b4;stroke:#1f77b4;" x="94.910293" xlink:href="#m0955debade" y="216.52024"/>
     <use style="fill:#1f77b4;stroke:#1f77b4;" x="94.910684" xlink:href="#m0955debade" y="255.56497"/>
     <use style="fill:#1f77b4;stroke:#1f77b4;" x="96.675449" xlink:href="#m0955debade" y="238.668011"/>
     <use style="fill:#1f77b4;stroke:#1f77b4;" x="99.185169" xlink:href="#m0955debade" y="253.890746"/>
     <use style="fill:#1f77b4;stroke:#1f77b4;" x="99.18789" xlink:href="#m0955debade" y="261.242827"/>
     <use style="fill:#1f77b4;stroke:#1f77b4;" x="121.144305" xlink:href="#m0955debade" y="258.61826"/>
     <use style="fill:#1f77b4;stroke:#1f77b4;" x="121.988998" xlink:href="#m0955debade" y="221.652527"/>
     <use style="fill:#1f77b4;stroke:#1f77b4;" x="121.98938" xlink:href="#m0955debade" y="209.986353"/>
     <use style="fill:#1f77b4;stroke:#1f77b4;" x="123.69785" xlink:href="#m0955debade" y="284.635006"/>
     <use style="fill:#1f77b4;stroke:#1f77b4;" x="123.698242" xlink:href="#m0955debade" y="272.501443"/>
     <use style="fill:#1f77b4;stroke:#1f77b4;" x="125.362202" xlink:href="#m0955debade" y="229.795265"/>
     <use style="fill:#1f77b4;stroke:#1f77b4;" x="125.362594" xlink:href="#m0955debade" y="222.159138"/>
     <use style="fill:#1f77b4;stroke:#1f77b4;" x="126.199487" xlink:href="#m0955debade" y="238.849401"/>
     <use style="fill:#1f77b4;stroke:#1f77b4;" x="126.199878" xlink:href="#m0955debade" y="240.758983"/>
     <use style="fill:#1f77b4;stroke:#1f77b4;" x="127.090237" xlink:href="#m0955debade" y="227.770789"/>
     <use style="fill:#1f77b4;stroke:#1f77b4;" x="127.090618" xlink:href="#m0955debade" y="234.900582"/>
     <use style="fill:#1f77b4;stroke:#1f77b4;" x="127.899364" xlink:href="#m0955debade" y="239.221909"/>
     <use style="fill:#1f77b4;stroke:#1f77b4;" x="127.899756" xlink:href="#m0955debade" y="260.110263"/>
     <use style="fill:#1f77b4;stroke:#1f77b4;" x="128.744146" xlink:href="#m0955debade" y="245.195772"/>
     <use style="fill:#1f77b4;stroke:#1f77b4;" x="128.744527" xlink:href="#m0955debade" y="251.999235"/>
     <use style="fill:#1f77b4;stroke:#1f77b4;" x="136.360585" xlink:href="#m0955debade" y="264.08996"/>
     <use style="fill:#1f77b4;stroke:#1f77b4;" x="142.231315" xlink:href="#m0955debade" y="250.530044"/>
     <use style="fill:#1f77b4;stroke:#1f77b4;" x="143.073052" xlink:href="#m0955debade" y="242.359491"/>
     <use style="fill:#1f77b4;stroke:#1f77b4;" x="143.918832" xlink:href="#m0955debade" y="261.845967"/>
     <use style="fill:#1f77b4;stroke:#1f77b4;" x="144.76286" xlink:href="#m0955debade" y="265.34382"/>
     <use style="fill:#1f77b4;stroke:#1f77b4;" x="145.612006" xlink:href="#m0955debade" y="269.998449"/>
     <use style="fill:#1f77b4;stroke:#1f77b4;" x="155.771705" xlink:href="#m0955debade" y="272.69173"/>
     <use style="fill:#1f77b4;stroke:#1f77b4;" x="163.21203" xlink:href="#m0955debade" y="253.73774"/>
     <use style="fill:#1f77b4;stroke:#1f77b4;" x="164.180987" xlink:href="#m0955debade" y="251.207193"/>
     <use style="fill:#1f77b4;stroke:#1f77b4;" x="165.042171" xlink:href="#m0955debade" y="293.784009"/>
     <use style="fill:#1f77b4;stroke:#1f77b4;" x="170.943837" xlink:href="#m0955debade" y="247.150439"/>
     <use style="fill:#1f77b4;stroke:#1f77b4;" x="173.496775" xlink:href="#m0955debade" y="246.095487"/>
     <use style="fill:#1f77b4;stroke:#1f77b4;" x="207.146958" xlink:href="#m0955debade" y="218.286822"/>
     <use style="fill:#1f77b4;stroke:#1f77b4;" x="210.529274" xlink:href="#m0955debade" y="262.293331"/>
     <use style="fill:#1f77b4;stroke:#1f77b4;" x="218.978819" xlink:href="#m0955debade" y="228.60233"/>
     <use style="fill:#1f77b4;stroke:#1f77b4;" x="346.082599" xlink:href="#m0955debade" y="243.783057"/>
     <use style="fill:#1f77b4;stroke:#1f77b4;" x="379.139631" xlink:href="#m0955debade" y="257.169649"/>
     <use style="fill:#1f77b4;stroke:#1f77b4;" x="396.853779" xlink:href="#m0955debade" y="243.843705"/>
     <use style="fill:#1f77b4;stroke:#1f77b4;" x="396.854161" xlink:href="#m0955debade" y="240.134139"/>
     <use style="fill:#1f77b4;stroke:#1f77b4;" x="397.677773" xlink:href="#m0955debade" y="290.872611"/>
     <use style="fill:#1f77b4;stroke:#1f77b4;" x="397.678155" xlink:href="#m0955debade" y="286.549606"/>
     <use style="fill:#1f77b4;stroke:#1f77b4;" x="398.486891" xlink:href="#m0955debade" y="264.400712"/>
     <use style="fill:#1f77b4;stroke:#1f77b4;" x="398.487273" xlink:href="#m0955debade" y="236.766217"/>
    </g>
   </g>
   <g id="matplotlib.axis_5">
    <g id="xtick_22">
     <g id="line2d_33">
      <g>
       <use style="stroke:#000000;stroke-width:0.8;" x="97.996351" xlink:href="#mb0f005b034" y="307.584"/>
      </g>
     </g>
     <g id="text_22">
      <!-- 58300 -->
      <g transform="translate(82.090101 322.182437)scale(0.1 -0.1)">
       <defs>
        <path d="M 9.71875 69.828125 
Q 15.4375 71.96875 20.671875 73.09375 
Q 25.921875 74.21875 30.515625 74.21875 
Q 41.21875 74.21875 47.21875 69.59375 
Q 53.21875 64.984375 53.21875 56.78125 
Q 53.21875 50.203125 49.0625 45.78125 
Q 44.921875 41.359375 37.3125 39.796875 
Q 46.296875 38.53125 51.25 33.28125 
Q 56.203125 28.03125 56.203125 19.671875 
Q 56.203125 9.46875 49.34375 4.015625 
Q 42.484375 -1.421875 29.59375 -1.421875 
Q 23.875 -1.421875 18.421875 -0.1875 
Q 12.984375 1.03125 7.625 3.515625 
L 7.625 17.671875 
L 13.09375 17.671875 
Q 13.578125 10.640625 17.828125 7.03125 
Q 22.078125 3.421875 29.78125 3.421875 
Q 37.25 3.421875 41.578125 7.734375 
Q 45.90625 12.0625 45.90625 19.578125 
Q 45.90625 28.171875 41.453125 32.59375 
Q 37.015625 37.015625 28.421875 37.015625 
L 23.78125 37.015625 
L 23.78125 42 
L 26.21875 42 
Q 34.765625 42 39.03125 45.53125 
Q 43.3125 49.078125 43.3125 56.203125 
Q 43.3125 62.59375 39.796875 65.984375 
Q 36.28125 69.390625 29.6875 69.390625 
Q 23.09375 69.390625 19.453125 66.265625 
Q 15.828125 63.140625 15.1875 56.984375 
L 9.71875 56.984375 
z
" id="DejaVuSerif-51"/>
       </defs>
       <use xlink:href="#DejaVuSerif-53"/>
       <use x="63.623047" xlink:href="#DejaVuSerif-56"/>
       <use x="127.246094" xlink:href="#DejaVuSerif-51"/>
       <use x="190.869141" xlink:href="#DejaVuSerif-48"/>
       <use x="254.492188" xlink:href="#DejaVuSerif-48"/>
      </g>
     </g>
    </g>
    <g id="xtick_23">
     <g id="line2d_34">
      <g>
       <use style="stroke:#000000;stroke-width:0.8;" x="140.27554" xlink:href="#mb0f005b034" y="307.584"/>
      </g>
     </g>
     <g id="text_23">
      <!-- 58350 -->
      <g transform="translate(124.36929 322.182437)scale(0.1 -0.1)">
       <use xlink:href="#DejaVuSerif-53"/>
       <use x="63.623047" xlink:href="#DejaVuSerif-56"/>
       <use x="127.246094" xlink:href="#DejaVuSerif-51"/>
       <use x="190.869141" xlink:href="#DejaVuSerif-53"/>
       <use x="254.492188" xlink:href="#DejaVuSerif-48"/>
      </g>
     </g>
    </g>
    <g id="xtick_24">
     <g id="line2d_35">
      <g>
       <use style="stroke:#000000;stroke-width:0.8;" x="182.55473" xlink:href="#mb0f005b034" y="307.584"/>
      </g>
     </g>
     <g id="text_24">
      <!-- 58400 -->
      <g transform="translate(166.64848 322.182437)scale(0.1 -0.1)">
       <use xlink:href="#DejaVuSerif-53"/>
       <use x="63.623047" xlink:href="#DejaVuSerif-56"/>
       <use x="127.246094" xlink:href="#DejaVuSerif-52"/>
       <use x="190.869141" xlink:href="#DejaVuSerif-48"/>
       <use x="254.492188" xlink:href="#DejaVuSerif-48"/>
      </g>
     </g>
    </g>
    <g id="xtick_25">
     <g id="line2d_36">
      <g>
       <use style="stroke:#000000;stroke-width:0.8;" x="224.833919" xlink:href="#mb0f005b034" y="307.584"/>
      </g>
     </g>
     <g id="text_25">
      <!-- 58450 -->
      <g transform="translate(208.927669 322.182437)scale(0.1 -0.1)">
       <use xlink:href="#DejaVuSerif-53"/>
       <use x="63.623047" xlink:href="#DejaVuSerif-56"/>
       <use x="127.246094" xlink:href="#DejaVuSerif-52"/>
       <use x="190.869141" xlink:href="#DejaVuSerif-53"/>
       <use x="254.492188" xlink:href="#DejaVuSerif-48"/>
      </g>
     </g>
    </g>
    <g id="xtick_26">
     <g id="line2d_37">
      <g>
       <use style="stroke:#000000;stroke-width:0.8;" x="267.113108" xlink:href="#mb0f005b034" y="307.584"/>
      </g>
     </g>
     <g id="text_26">
      <!-- 58500 -->
      <g transform="translate(251.206858 322.182437)scale(0.1 -0.1)">
       <use xlink:href="#DejaVuSerif-53"/>
       <use x="63.623047" xlink:href="#DejaVuSerif-56"/>
       <use x="127.246094" xlink:href="#DejaVuSerif-53"/>
       <use x="190.869141" xlink:href="#DejaVuSerif-48"/>
       <use x="254.492188" xlink:href="#DejaVuSerif-48"/>
      </g>
     </g>
    </g>
    <g id="xtick_27">
     <g id="line2d_38">
      <g>
       <use style="stroke:#000000;stroke-width:0.8;" x="309.392298" xlink:href="#mb0f005b034" y="307.584"/>
      </g>
     </g>
     <g id="text_27">
      <!-- 58550 -->
      <g transform="translate(293.486048 322.182437)scale(0.1 -0.1)">
       <use xlink:href="#DejaVuSerif-53"/>
       <use x="63.623047" xlink:href="#DejaVuSerif-56"/>
       <use x="127.246094" xlink:href="#DejaVuSerif-53"/>
       <use x="190.869141" xlink:href="#DejaVuSerif-53"/>
       <use x="254.492188" xlink:href="#DejaVuSerif-48"/>
      </g>
     </g>
    </g>
    <g id="xtick_28">
     <g id="line2d_39">
      <g>
       <use style="stroke:#000000;stroke-width:0.8;" x="351.671487" xlink:href="#mb0f005b034" y="307.584"/>
      </g>
     </g>
     <g id="text_28">
      <!-- 58600 -->
      <g transform="translate(335.765237 322.182437)scale(0.1 -0.1)">
       <use xlink:href="#DejaVuSerif-53"/>
       <use x="63.623047" xlink:href="#DejaVuSerif-56"/>
       <use x="127.246094" xlink:href="#DejaVuSerif-54"/>
       <use x="190.869141" xlink:href="#DejaVuSerif-48"/>
       <use x="254.492188" xlink:href="#DejaVuSerif-48"/>
      </g>
     </g>
    </g>
    <g id="xtick_29">
     <g id="line2d_40">
      <g>
       <use style="stroke:#000000;stroke-width:0.8;" x="393.950677" xlink:href="#mb0f005b034" y="307.584"/>
      </g>
     </g>
     <g id="text_29">
      <!-- 58650 -->
      <g transform="translate(378.044427 322.182437)scale(0.1 -0.1)">
       <use xlink:href="#DejaVuSerif-53"/>
       <use x="63.623047" xlink:href="#DejaVuSerif-56"/>
       <use x="127.246094" xlink:href="#DejaVuSerif-54"/>
       <use x="190.869141" xlink:href="#DejaVuSerif-53"/>
       <use x="254.492188" xlink:href="#DejaVuSerif-48"/>
      </g>
     </g>
    </g>
    <g id="text_30">
     <!-- MJD -->
     <g transform="translate(225.027187 335.860562)scale(0.1 -0.1)">
      <defs>
       <path d="M -8.40625 -17.484375 
L -8.40625 -6 
L -2.828125 -6 
Q -2.6875 -10.84375 -0.53125 -13.203125 
Q 1.609375 -15.578125 5.90625 -15.578125 
Q 11.71875 -15.578125 14.015625 -11.90625 
Q 16.3125 -8.25 16.3125 2.390625 
L 16.3125 67.671875 
L 4.984375 67.671875 
L 4.984375 72.90625 
L 35.5 72.90625 
L 35.5 67.671875 
L 26.21875 67.671875 
L 26.21875 2 
Q 26.21875 -10.0625 21.375 -15.421875 
Q 16.546875 -20.796875 5.8125 -20.796875 
Q 2.34375 -20.796875 -1.234375 -19.96875 
Q -4.828125 -19.140625 -8.40625 -17.484375 
z
" id="DejaVuSerif-74"/>
       <path d="M 24.703125 5.171875 
L 33.796875 5.171875 
Q 48 5.171875 55.59375 13.28125 
Q 63.1875 21.390625 63.1875 36.53125 
Q 63.1875 51.65625 55.609375 59.65625 
Q 48.046875 67.671875 33.796875 67.671875 
L 24.703125 67.671875 
z
M 5.515625 0 
L 5.515625 5.171875 
L 14.796875 5.171875 
L 14.796875 67.671875 
L 5.515625 67.671875 
L 5.515625 72.90625 
L 34.515625 72.90625 
Q 53.375 72.90625 63.890625 63.28125 
Q 74.421875 53.65625 74.421875 36.53125 
Q 74.421875 19.34375 63.875 9.671875 
Q 53.328125 0 34.515625 0 
z
" id="DejaVuSerif-68"/>
      </defs>
      <use xlink:href="#DejaVuSerif-77"/>
      <use x="102.392578" xlink:href="#DejaVuSerif-74"/>
      <use x="142.480469" xlink:href="#DejaVuSerif-68"/>
     </g>
    </g>
   </g>
   <g id="matplotlib.axis_6">
    <g id="ytick_7">
     <g id="line2d_41">
      <g>
       <use style="stroke:#000000;stroke-width:0.8;" x="57.6" xlink:href="#m559a9e64e8" y="211.303588"/>
      </g>
     </g>
     <g id="text_31">
      <!-- 18.6 -->
      <g transform="translate(28.334375 215.102807)scale(0.1 -0.1)">
       <use xlink:href="#DejaVuSerif-49"/>
       <use x="63.623047" xlink:href="#DejaVuSerif-56"/>
       <use x="127.246094" xlink:href="#DejaVuSerif-46"/>
       <use x="159.033203" xlink:href="#DejaVuSerif-54"/>
      </g>
     </g>
    </g>
    <g id="ytick_8">
     <g id="line2d_42">
      <g>
       <use style="stroke:#000000;stroke-width:0.8;" x="57.6" xlink:href="#m559a9e64e8" y="240.475332"/>
      </g>
     </g>
     <g id="text_32">
      <!-- 18.8 -->
      <g transform="translate(28.334375 244.27455)scale(0.1 -0.1)">
       <use xlink:href="#DejaVuSerif-49"/>
       <use x="63.623047" xlink:href="#DejaVuSerif-56"/>
       <use x="127.246094" xlink:href="#DejaVuSerif-46"/>
       <use x="159.033203" xlink:href="#DejaVuSerif-56"/>
      </g>
     </g>
    </g>
    <g id="ytick_9">
     <g id="line2d_43">
      <g>
       <use style="stroke:#000000;stroke-width:0.8;" x="57.6" xlink:href="#m559a9e64e8" y="269.647075"/>
      </g>
     </g>
     <g id="text_33">
      <!-- 19.0 -->
      <g transform="translate(28.334375 273.446294)scale(0.1 -0.1)">
       <use xlink:href="#DejaVuSerif-49"/>
       <use x="63.623047" xlink:href="#DejaVuSerif-57"/>
       <use x="127.246094" xlink:href="#DejaVuSerif-46"/>
       <use x="159.033203" xlink:href="#DejaVuSerif-48"/>
      </g>
     </g>
    </g>
    <g id="ytick_10">
     <g id="line2d_44">
      <g>
       <use style="stroke:#000000;stroke-width:0.8;" x="57.6" xlink:href="#m559a9e64e8" y="298.818818"/>
      </g>
     </g>
     <g id="text_34">
      <!-- 19.2 -->
      <g transform="translate(28.334375 302.618037)scale(0.1 -0.1)">
       <use xlink:href="#DejaVuSerif-49"/>
       <use x="63.623047" xlink:href="#DejaVuSerif-57"/>
       <use x="127.246094" xlink:href="#DejaVuSerif-46"/>
       <use x="159.033203" xlink:href="#DejaVuSerif-50"/>
      </g>
     </g>
    </g>
    <g id="text_35">
     <!-- Mag -->
     <g transform="translate(22.1125 264.576991)rotate(-90)scale(0.1 -0.1)">
      <use xlink:href="#DejaVuSerif-77"/>
      <use x="102.392578" xlink:href="#DejaVuSerif-97"/>
      <use x="162.011719" xlink:href="#DejaVuSerif-103"/>
     </g>
    </g>
   </g>
   <g id="LineCollection_5">
    <path clip-path="url(#pbe17e8c21d)" d="M 73.832727 222.19588 
L 73.832727 235.383257 
" style="fill:none;stroke:#1f77b4;stroke-width:0.5;"/>
    <path clip-path="url(#pbe17e8c21d)" d="M 73.833119 232.606005 
L 73.833119 246.430408 
" style="fill:none;stroke:#1f77b4;stroke-width:0.5;"/>
    <path clip-path="url(#pbe17e8c21d)" d="M 94.910293 210.266721 
L 94.910293 222.773758 
" style="fill:none;stroke:#1f77b4;stroke-width:0.5;"/>
    <path clip-path="url(#pbe17e8c21d)" d="M 94.910684 248.137369 
L 94.910684 262.992572 
" style="fill:none;stroke:#1f77b4;stroke-width:0.5;"/>
    <path clip-path="url(#pbe17e8c21d)" d="M 96.675449 231.781795 
L 96.675449 245.554226 
" style="fill:none;stroke:#1f77b4;stroke-width:0.5;"/>
    <path clip-path="url(#pbe17e8c21d)" d="M 99.185169 246.51919 
L 99.185169 261.262301 
" style="fill:none;stroke:#1f77b4;stroke-width:0.5;"/>
    <path clip-path="url(#pbe17e8c21d)" d="M 99.18789 253.621092 
L 99.18789 268.864562 
" style="fill:none;stroke:#1f77b4;stroke-width:0.5;"/>
    <path clip-path="url(#pbe17e8c21d)" d="M 121.144305 251.087049 
L 121.144305 266.149471 
" style="fill:none;stroke:#1f77b4;stroke-width:0.5;"/>
    <path clip-path="url(#pbe17e8c21d)" d="M 121.988998 215.259749 
L 121.988998 228.045305 
" style="fill:none;stroke:#1f77b4;stroke-width:0.5;"/>
    <path clip-path="url(#pbe17e8c21d)" d="M 121.98938 203.904 
L 121.98938 216.068706 
" style="fill:none;stroke:#1f77b4;stroke-width:0.5;"/>
    <path clip-path="url(#pbe17e8c21d)" d="M 123.69785 276.144111 
L 123.69785 293.125901 
" style="fill:none;stroke:#1f77b4;stroke-width:0.5;"/>
    <path clip-path="url(#pbe17e8c21d)" d="M 123.698242 264.475654 
L 123.698242 280.527231 
" style="fill:none;stroke:#1f77b4;stroke-width:0.5;"/>
    <path clip-path="url(#pbe17e8c21d)" d="M 125.362202 223.172572 
L 125.362202 236.417958 
" style="fill:none;stroke:#1f77b4;stroke-width:0.5;"/>
    <path clip-path="url(#pbe17e8c21d)" d="M 125.362594 215.752382 
L 125.362594 228.565894 
" style="fill:none;stroke:#1f77b4;stroke-width:0.5;"/>
    <path clip-path="url(#pbe17e8c21d)" d="M 126.199487 231.957653 
L 126.199487 245.741149 
" style="fill:none;stroke:#1f77b4;stroke-width:0.5;"/>
    <path clip-path="url(#pbe17e8c21d)" d="M 126.199878 233.808629 
L 126.199878 247.709338 
" style="fill:none;stroke:#1f77b4;stroke-width:0.5;"/>
    <path clip-path="url(#pbe17e8c21d)" d="M 127.090237 221.206306 
L 127.090237 234.335273 
" style="fill:none;stroke:#1f77b4;stroke-width:0.5;"/>
    <path clip-path="url(#pbe17e8c21d)" d="M 127.090618 228.127949 
L 127.090618 241.673215 
" style="fill:none;stroke:#1f77b4;stroke-width:0.5;"/>
    <path clip-path="url(#pbe17e8c21d)" d="M 127.899364 232.318778 
L 127.899364 246.125041 
" style="fill:none;stroke:#1f77b4;stroke-width:0.5;"/>
    <path clip-path="url(#pbe17e8c21d)" d="M 127.899756 252.527762 
L 127.899756 267.692764 
" style="fill:none;stroke:#1f77b4;stroke-width:0.5;"/>
    <path clip-path="url(#pbe17e8c21d)" d="M 128.744146 238.106701 
L 128.744146 252.284843 
" style="fill:none;stroke:#1f77b4;stroke-width:0.5;"/>
    <path clip-path="url(#pbe17e8c21d)" d="M 128.744527 244.690352 
L 128.744527 259.308118 
" style="fill:none;stroke:#1f77b4;stroke-width:0.5;"/>
    <path clip-path="url(#pbe17e8c21d)" d="M 136.360585 256.368478 
L 136.360585 271.811442 
" style="fill:none;stroke:#1f77b4;stroke-width:0.5;"/>
    <path clip-path="url(#pbe17e8c21d)" d="M 142.231315 243.269363 
L 142.231315 257.790725 
" style="fill:none;stroke:#1f77b4;stroke-width:0.5;"/>
    <path clip-path="url(#pbe17e8c21d)" d="M 143.073052 235.359514 
L 143.073052 249.359468 
" style="fill:none;stroke:#1f77b4;stroke-width:0.5;"/>
    <path clip-path="url(#pbe17e8c21d)" d="M 143.918832 254.203236 
L 143.918832 269.488699 
" style="fill:none;stroke:#1f77b4;stroke-width:0.5;"/>
    <path clip-path="url(#pbe17e8c21d)" d="M 144.76286 257.577886 
L 144.76286 273.109754 
" style="fill:none;stroke:#1f77b4;stroke-width:0.5;"/>
    <path clip-path="url(#pbe17e8c21d)" d="M 145.612006 262.06473 
L 145.612006 277.932167 
" style="fill:none;stroke:#1f77b4;stroke-width:0.5;"/>
    <path clip-path="url(#pbe17e8c21d)" d="M 155.771705 264.658884 
L 155.771705 280.724576 
" style="fill:none;stroke:#1f77b4;stroke-width:0.5;"/>
    <path clip-path="url(#pbe17e8c21d)" d="M 163.21203 246.371279 
L 163.21203 261.104201 
" style="fill:none;stroke:#1f77b4;stroke-width:0.5;"/>
    <path clip-path="url(#pbe17e8c21d)" d="M 164.180987 243.924347 
L 164.180987 258.490039 
" style="fill:none;stroke:#1f77b4;stroke-width:0.5;"/>
    <path clip-path="url(#pbe17e8c21d)" d="M 165.042171 284.921161 
L 165.042171 302.646857 
" style="fill:none;stroke:#1f77b4;stroke-width:0.5;"/>
    <path clip-path="url(#pbe17e8c21d)" d="M 170.943837 239.999102 
L 170.943837 254.301776 
" style="fill:none;stroke:#1f77b4;stroke-width:0.5;"/>
    <path clip-path="url(#pbe17e8c21d)" d="M 173.496775 238.977841 
L 173.496775 253.213132 
" style="fill:none;stroke:#1f77b4;stroke-width:0.5;"/>
    <path clip-path="url(#pbe17e8c21d)" d="M 207.146958 211.985854 
L 207.146958 224.587791 
" style="fill:none;stroke:#1f77b4;stroke-width:0.5;"/>
    <path clip-path="url(#pbe17e8c21d)" d="M 210.529274 254.634978 
L 210.529274 269.951684 
" style="fill:none;stroke:#1f77b4;stroke-width:0.5;"/>
    <path clip-path="url(#pbe17e8c21d)" d="M 218.978819 222.014024 
L 218.978819 235.190636 
" style="fill:none;stroke:#1f77b4;stroke-width:0.5;"/>
    <path clip-path="url(#pbe17e8c21d)" d="M 346.082599 236.738544 
L 346.082599 250.827571 
" style="fill:none;stroke:#1f77b4;stroke-width:0.5;"/>
    <path clip-path="url(#pbe17e8c21d)" d="M 379.139631 249.687827 
L 379.139631 264.651472 
" style="fill:none;stroke:#1f77b4;stroke-width:0.5;"/>
    <path clip-path="url(#pbe17e8c21d)" d="M 396.853779 236.79729 
L 396.853779 250.89012 
" style="fill:none;stroke:#1f77b4;stroke-width:0.5;"/>
    <path clip-path="url(#pbe17e8c21d)" d="M 396.854161 233.203035 
L 396.854161 247.065243 
" style="fill:none;stroke:#1f77b4;stroke-width:0.5;"/>
    <path clip-path="url(#pbe17e8c21d)" d="M 397.677773 282.130158 
L 397.677773 299.615064 
" style="fill:none;stroke:#1f77b4;stroke-width:0.5;"/>
    <path clip-path="url(#pbe17e8c21d)" d="M 397.678155 277.982414 
L 397.678155 295.116798 
" style="fill:none;stroke:#1f77b4;stroke-width:0.5;"/>
    <path clip-path="url(#pbe17e8c21d)" d="M 398.486891 256.668239 
L 398.486891 272.133185 
" style="fill:none;stroke:#1f77b4;stroke-width:0.5;"/>
    <path clip-path="url(#pbe17e8c21d)" d="M 398.487273 229.937656 
L 398.487273 243.594779 
" style="fill:none;stroke:#1f77b4;stroke-width:0.5;"/>
   </g>
   <g id="line2d_45">
    <path clip-path="url(#pbe17e8c21d)" d="M 73.832727 228.789569 
L 73.833119 239.518207 
L 94.910293 216.52024 
L 94.910684 255.56497 
L 96.675449 238.668011 
L 99.185169 253.890746 
L 99.18789 261.242827 
L 121.144305 258.61826 
L 121.988998 221.652527 
L 121.98938 209.986353 
L 123.69785 284.635006 
L 123.698242 272.501443 
L 125.362202 229.795265 
L 125.362594 222.159138 
L 126.199487 238.849401 
L 126.199878 240.758983 
L 127.090237 227.770789 
L 127.090618 234.900582 
L 127.899364 239.221909 
L 127.899756 260.110263 
L 128.744146 245.195772 
L 128.744527 251.999235 
L 136.360585 264.08996 
L 142.231315 250.530044 
L 143.073052 242.359491 
L 143.918832 261.845967 
L 144.76286 265.34382 
L 145.612006 269.998449 
L 155.771705 272.69173 
L 163.21203 253.73774 
L 164.180987 251.207193 
L 165.042171 293.784009 
L 170.943837 247.150439 
L 173.496775 246.095487 
L 207.146958 218.286822 
L 210.529274 262.293331 
L 218.978819 228.60233 
L 346.082599 243.783057 
L 379.139631 257.169649 
L 396.853779 243.843705 
L 396.854161 240.134139 
L 397.677773 290.872611 
L 397.678155 286.549606 
L 398.486891 264.400712 
L 398.487273 236.766217 
" style="fill:none;"/>
   </g>
   <g id="patch_14">
    <path d="M 57.6 307.584 
L 57.6 198.966857 
" style="fill:none;stroke:#000000;stroke-linecap:square;stroke-linejoin:miter;stroke-width:0.8;"/>
   </g>
   <g id="patch_15">
    <path d="M 414.72 307.584 
L 414.72 198.966857 
" style="fill:none;stroke:#000000;stroke-linecap:square;stroke-linejoin:miter;stroke-width:0.8;"/>
   </g>
   <g id="patch_16">
    <path d="M 57.6 307.584 
L 414.72 307.584 
" style="fill:none;stroke:#000000;stroke-linecap:square;stroke-linejoin:miter;stroke-width:0.8;"/>
   </g>
   <g id="patch_17">
    <path d="M 57.6 198.966857 
L 414.72 198.966857 
" style="fill:none;stroke:#000000;stroke-linecap:square;stroke-linejoin:miter;stroke-width:0.8;"/>
   </g>
   <g id="text_36">
    <!-- Light Curve -->
    <g transform="translate(206.000625 192.966857)scale(0.1 -0.1)">
     <use xlink:href="#DejaVuSerif-76"/>
     <use x="66.40625" xlink:href="#DejaVuSerif-105"/>
     <use x="98.388672" xlink:href="#DejaVuSerif-103"/>
     <use x="162.402344" xlink:href="#DejaVuSerif-104"/>
     <use x="226.806641" xlink:href="#DejaVuSerif-116"/>
     <use x="266.992188" xlink:href="#DejaVuSerif-32"/>
     <use x="298.779297" xlink:href="#DejaVuSerif-67"/>
     <use x="375.292969" xlink:href="#DejaVuSerif-117"/>
     <use x="439.697266" xlink:href="#DejaVuSerif-114"/>
     <use x="487.5" xlink:href="#DejaVuSerif-118"/>
     <use x="543.994141" xlink:href="#DejaVuSerif-101"/>
    </g>
   </g>
  </g>
 </g>
 <defs>
  <clipPath id="pdf69eacf1c">
   <rect height="108.617143" width="148.8" x="265.92" y="41.472"/>
  </clipPath>
  <clipPath id="p286377304f">
   <rect height="108.617143" width="148.8" x="57.6" y="41.472"/>
  </clipPath>
  <clipPath id="pbe17e8c21d">
   <rect height="108.617143" width="357.12" x="57.6" y="198.966857"/>
  </clipPath>
 </defs>
</svg>
