<?xml version="1.0" encoding="utf-8" standalone="no"?>
<!DOCTYPE svg PUBLIC "-//W3C//DTD SVG 1.1//EN"
  "http://www.w3.org/Graphics/SVG/1.1/DTD/svg11.dtd">
<!-- Created with matplotlib (https://matplotlib.org/) -->
<svg height="345.6pt" version="1.1" viewBox="0 0 460.8 345.6" width="460.8pt" xmlns="http://www.w3.org/2000/svg" xmlns:xlink="http://www.w3.org/1999/xlink">
 <metadata>
  <rdf:RDF xmlns:cc="http://creativecommons.org/ns#" xmlns:dc="http://purl.org/dc/elements/1.1/" xmlns:rdf="http://www.w3.org/1999/02/22-rdf-syntax-ns#">
   <cc:Work>
    <dc:type rdf:resource="http://purl.org/dc/dcmitype/StillImage"/>
    <dc:date>2021-02-24T00:27:50.092321</dc:date>
    <dc:format>image/svg+xml</dc:format>
    <dc:creator>
     <cc:Agent>
      <dc:title>Matplotlib v3.3.3, https://matplotlib.org/</dc:title>
     </cc:Agent>
    </dc:creator>
   </cc:Work>
  </rdf:RDF>
 </metadata>
 <defs>
  <style type="text/css">*{stroke-linecap:butt;stroke-linejoin:round;}</style>
 </defs>
 <g id="figure_1">
  <g id="patch_1">
   <path d="M 0 345.6 
L 460.8 345.6 
L 460.8 0 
L 0 0 
z
" style="fill:#ffffff;"/>
  </g>
  <g id="axes_1">
   <g id="patch_2">
    <path d="M 265.92 150.089143 
L 414.72 150.089143 
L 414.72 41.472 
L 265.92 41.472 
z
" style="fill:#ffffff;"/>
   </g>
   <g id="matplotlib.axis_1">
    <g id="xtick_1">
     <g id="line2d_1">
      <defs>
       <path d="M 0 0 
L 0 3.5 
" id="mfdf1b5561e" style="stroke:#000000;stroke-width:0.8;"/>
      </defs>
      <g>
       <use style="stroke:#000000;stroke-width:0.8;" x="326.985138" xlink:href="#mfdf1b5561e" y="150.089143"/>
      </g>
     </g>
     <g id="text_1">
      <!-- $\mathdefault{10^{1}}$ -->
      <g transform="translate(318.185138 164.68758)scale(0.1 -0.1)">
       <defs>
        <path d="M 14.203125 0 
L 14.203125 5.171875 
L 26.90625 5.171875 
L 26.90625 65.828125 
L 12.203125 56.296875 
L 12.203125 62.703125 
L 29.984375 74.21875 
L 36.71875 74.21875 
L 36.71875 5.171875 
L 49.421875 5.171875 
L 49.421875 0 
z
" id="DejaVuSerif-49"/>
        <path d="M 31.78125 3.421875 
Q 39.265625 3.421875 42.96875 11.625 
Q 46.6875 19.828125 46.6875 36.375 
Q 46.6875 52.984375 42.96875 61.1875 
Q 39.265625 69.390625 31.78125 69.390625 
Q 24.3125 69.390625 20.59375 61.1875 
Q 16.890625 52.984375 16.890625 36.375 
Q 16.890625 19.828125 20.59375 11.625 
Q 24.3125 3.421875 31.78125 3.421875 
z
M 31.78125 -1.421875 
Q 19.921875 -1.421875 13.25 8.53125 
Q 6.59375 18.5 6.59375 36.375 
Q 6.59375 54.296875 13.25 64.25 
Q 19.921875 74.21875 31.78125 74.21875 
Q 43.703125 74.21875 50.34375 64.25 
Q 56.984375 54.296875 56.984375 36.375 
Q 56.984375 18.5 50.34375 8.53125 
Q 43.703125 -1.421875 31.78125 -1.421875 
z
" id="DejaVuSerif-48"/>
       </defs>
       <use transform="translate(0 0.7125)" xlink:href="#DejaVuSerif-49"/>
       <use transform="translate(63.623047 0.7125)" xlink:href="#DejaVuSerif-48"/>
       <use transform="translate(128.154453 37.046875)scale(0.7)" xlink:href="#DejaVuSerif-49"/>
      </g>
     </g>
    </g>
    <g id="xtick_2">
     <g id="line2d_2">
      <g>
       <use style="stroke:#000000;stroke-width:0.8;" x="400.12039" xlink:href="#mfdf1b5561e" y="150.089143"/>
      </g>
     </g>
     <g id="text_2">
      <!-- $\mathdefault{10^{2}}$ -->
      <g transform="translate(391.32039 164.68758)scale(0.1 -0.1)">
       <defs>
        <path d="M 12.796875 55.515625 
L 7.328125 55.515625 
L 7.328125 68.5 
Q 12.546875 71.296875 17.84375 72.75 
Q 23.140625 74.21875 28.21875 74.21875 
Q 39.59375 74.21875 46.1875 68.703125 
Q 52.78125 63.1875 52.78125 53.71875 
Q 52.78125 43.015625 37.84375 28.125 
Q 36.671875 27 36.078125 26.421875 
L 17.671875 8.015625 
L 48.09375 8.015625 
L 48.09375 17 
L 53.8125 17 
L 53.8125 0 
L 6.78125 0 
L 6.78125 5.328125 
L 28.90625 27.390625 
Q 36.234375 34.71875 39.359375 40.84375 
Q 42.484375 46.96875 42.484375 53.71875 
Q 42.484375 61.078125 38.640625 65.234375 
Q 34.8125 69.390625 28.078125 69.390625 
Q 21.09375 69.390625 17.28125 65.921875 
Q 13.484375 62.453125 12.796875 55.515625 
z
" id="DejaVuSerif-50"/>
       </defs>
       <use transform="translate(0 0.7125)" xlink:href="#DejaVuSerif-49"/>
       <use transform="translate(63.623047 0.7125)" xlink:href="#DejaVuSerif-48"/>
       <use transform="translate(128.154453 37.046875)scale(0.7)" xlink:href="#DejaVuSerif-50"/>
      </g>
     </g>
    </g>
    <g id="xtick_3">
     <g id="line2d_3">
      <defs>
       <path d="M 0 0 
L 0 2 
" id="md1ed3ebb03" style="stroke:#000000;stroke-width:0.6;"/>
      </defs>
      <g>
       <use style="stroke:#000000;stroke-width:0.6;" x="275.86579" xlink:href="#md1ed3ebb03" y="150.089143"/>
      </g>
     </g>
    </g>
    <g id="xtick_4">
     <g id="line2d_4">
      <g>
       <use style="stroke:#000000;stroke-width:0.6;" x="288.744269" xlink:href="#md1ed3ebb03" y="150.089143"/>
      </g>
     </g>
    </g>
    <g id="xtick_5">
     <g id="line2d_5">
      <g>
       <use style="stroke:#000000;stroke-width:0.6;" x="297.881695" xlink:href="#md1ed3ebb03" y="150.089143"/>
      </g>
     </g>
    </g>
    <g id="xtick_6">
     <g id="line2d_6">
      <g>
       <use style="stroke:#000000;stroke-width:0.6;" x="304.969233" xlink:href="#md1ed3ebb03" y="150.089143"/>
      </g>
     </g>
    </g>
    <g id="xtick_7">
     <g id="line2d_7">
      <g>
       <use style="stroke:#000000;stroke-width:0.6;" x="310.760174" xlink:href="#md1ed3ebb03" y="150.089143"/>
      </g>
     </g>
    </g>
    <g id="xtick_8">
     <g id="line2d_8">
      <g>
       <use style="stroke:#000000;stroke-width:0.6;" x="315.656344" xlink:href="#md1ed3ebb03" y="150.089143"/>
      </g>
     </g>
    </g>
    <g id="xtick_9">
     <g id="line2d_9">
      <g>
       <use style="stroke:#000000;stroke-width:0.6;" x="319.8976" xlink:href="#md1ed3ebb03" y="150.089143"/>
      </g>
     </g>
    </g>
    <g id="xtick_10">
     <g id="line2d_10">
      <g>
       <use style="stroke:#000000;stroke-width:0.6;" x="323.638652" xlink:href="#md1ed3ebb03" y="150.089143"/>
      </g>
     </g>
    </g>
    <g id="xtick_11">
     <g id="line2d_11">
      <g>
       <use style="stroke:#000000;stroke-width:0.6;" x="349.001043" xlink:href="#md1ed3ebb03" y="150.089143"/>
      </g>
     </g>
    </g>
    <g id="xtick_12">
     <g id="line2d_12">
      <g>
       <use style="stroke:#000000;stroke-width:0.6;" x="361.879521" xlink:href="#md1ed3ebb03" y="150.089143"/>
      </g>
     </g>
    </g>
    <g id="xtick_13">
     <g id="line2d_13">
      <g>
       <use style="stroke:#000000;stroke-width:0.6;" x="371.016947" xlink:href="#md1ed3ebb03" y="150.089143"/>
      </g>
     </g>
    </g>
    <g id="xtick_14">
     <g id="line2d_14">
      <g>
       <use style="stroke:#000000;stroke-width:0.6;" x="378.104486" xlink:href="#md1ed3ebb03" y="150.089143"/>
      </g>
     </g>
    </g>
    <g id="xtick_15">
     <g id="line2d_15">
      <g>
       <use style="stroke:#000000;stroke-width:0.6;" x="383.895426" xlink:href="#md1ed3ebb03" y="150.089143"/>
      </g>
     </g>
    </g>
    <g id="xtick_16">
     <g id="line2d_16">
      <g>
       <use style="stroke:#000000;stroke-width:0.6;" x="388.791597" xlink:href="#md1ed3ebb03" y="150.089143"/>
      </g>
     </g>
    </g>
    <g id="xtick_17">
     <g id="line2d_17">
      <g>
       <use style="stroke:#000000;stroke-width:0.6;" x="393.032852" xlink:href="#md1ed3ebb03" y="150.089143"/>
      </g>
     </g>
    </g>
    <g id="xtick_18">
     <g id="line2d_18">
      <g>
       <use style="stroke:#000000;stroke-width:0.6;" x="396.773905" xlink:href="#md1ed3ebb03" y="150.089143"/>
      </g>
     </g>
    </g>
    <g id="text_3">
     <!-- Period d -->
     <g transform="translate(319.231719 178.365705)scale(0.1 -0.1)">
      <defs>
       <path d="M 24.703125 37.109375 
L 37.59375 37.109375 
Q 44.875 37.109375 48.671875 41.03125 
Q 52.484375 44.96875 52.484375 52.390625 
Q 52.484375 59.859375 48.671875 63.765625 
Q 44.875 67.671875 37.59375 67.671875 
L 24.703125 67.671875 
z
M 5.515625 0 
L 5.515625 5.171875 
L 14.796875 5.171875 
L 14.796875 67.671875 
L 5.515625 67.671875 
L 5.515625 72.90625 
L 39.984375 72.90625 
Q 50.921875 72.90625 57.3125 67.359375 
Q 63.71875 61.8125 63.71875 52.390625 
Q 63.71875 43.015625 57.3125 37.453125 
Q 50.921875 31.890625 39.984375 31.890625 
L 24.703125 31.890625 
L 24.703125 5.171875 
L 35.984375 5.171875 
L 35.984375 0 
z
" id="DejaVuSerif-80"/>
       <path d="M 54.203125 25 
L 15.484375 25 
L 15.484375 24.609375 
Q 15.484375 14.109375 19.4375 8.765625 
Q 23.390625 3.421875 31.109375 3.421875 
Q 37.015625 3.421875 40.796875 6.515625 
Q 44.578125 9.625 46.09375 15.71875 
L 53.328125 15.71875 
Q 51.171875 7.171875 45.375 2.875 
Q 39.59375 -1.421875 30.171875 -1.421875 
Q 18.796875 -1.421875 11.890625 6.078125 
Q 4.984375 13.578125 4.984375 25.984375 
Q 4.984375 38.28125 11.765625 45.796875 
Q 18.5625 53.328125 29.59375 53.328125 
Q 41.359375 53.328125 47.65625 46.0625 
Q 53.953125 38.8125 54.203125 25 
z
M 43.609375 30.171875 
Q 43.3125 39.265625 39.765625 43.875 
Q 36.234375 48.484375 29.59375 48.484375 
Q 23.390625 48.484375 19.828125 43.84375 
Q 16.265625 39.203125 15.484375 30.171875 
z
" id="DejaVuSerif-101"/>
       <path d="M 47.796875 52 
L 47.796875 39.015625 
L 42.625 39.015625 
Q 42.390625 42.875 40.484375 44.78125 
Q 38.578125 46.6875 34.90625 46.6875 
Q 28.265625 46.6875 24.71875 42.09375 
Q 21.1875 37.5 21.1875 28.90625 
L 21.1875 5.171875 
L 31.59375 5.171875 
L 31.59375 0 
L 4.109375 0 
L 4.109375 5.171875 
L 12.203125 5.171875 
L 12.203125 46.78125 
L 3.609375 46.78125 
L 3.609375 51.90625 
L 21.1875 51.90625 
L 21.1875 42.671875 
Q 23.828125 48.09375 27.96875 50.703125 
Q 32.125 53.328125 38.09375 53.328125 
Q 40.28125 53.328125 42.703125 52.984375 
Q 45.125 52.640625 47.796875 52 
z
" id="DejaVuSerif-114"/>
       <path d="M 9.71875 68.015625 
Q 9.71875 70.265625 11.34375 71.921875 
Q 12.984375 73.578125 15.28125 73.578125 
Q 17.53125 73.578125 19.15625 71.921875 
Q 20.796875 70.265625 20.796875 68.015625 
Q 20.796875 65.71875 19.1875 64.109375 
Q 17.578125 62.5 15.28125 62.5 
Q 12.984375 62.5 11.34375 64.109375 
Q 9.71875 65.71875 9.71875 68.015625 
z
M 21.1875 5.171875 
L 29.6875 5.171875 
L 29.6875 0 
L 3.609375 0 
L 3.609375 5.171875 
L 12.203125 5.171875 
L 12.203125 46.6875 
L 3.609375 46.6875 
L 3.609375 51.90625 
L 21.1875 51.90625 
z
" id="DejaVuSerif-105"/>
       <path d="M 30.078125 3.421875 
Q 37.3125 3.421875 40.984375 9.125 
Q 44.671875 14.84375 44.671875 25.984375 
Q 44.671875 37.109375 40.984375 42.796875 
Q 37.3125 48.484375 30.078125 48.484375 
Q 22.859375 48.484375 19.171875 42.796875 
Q 15.484375 37.109375 15.484375 25.984375 
Q 15.484375 14.84375 19.1875 9.125 
Q 22.90625 3.421875 30.078125 3.421875 
z
M 30.078125 -1.421875 
Q 18.75 -1.421875 11.859375 6.078125 
Q 4.984375 13.578125 4.984375 25.984375 
Q 4.984375 38.375 11.84375 45.84375 
Q 18.703125 53.328125 30.078125 53.328125 
Q 41.453125 53.328125 48.3125 45.84375 
Q 55.171875 38.375 55.171875 25.984375 
Q 55.171875 13.578125 48.3125 6.078125 
Q 41.453125 -1.421875 30.078125 -1.421875 
z
" id="DejaVuSerif-111"/>
       <path d="M 52.484375 5.171875 
L 61.078125 5.171875 
L 61.078125 0 
L 43.5 0 
L 43.5 8.109375 
Q 40.875 3.21875 36.796875 0.890625 
Q 32.71875 -1.421875 26.703125 -1.421875 
Q 17.140625 -1.421875 11.0625 6.171875 
Q 4.984375 13.765625 4.984375 25.984375 
Q 4.984375 38.1875 11.03125 45.75 
Q 17.09375 53.328125 26.703125 53.328125 
Q 32.71875 53.328125 36.796875 51 
Q 40.875 48.6875 43.5 43.796875 
L 43.5 70.796875 
L 35.015625 70.796875 
L 35.015625 75.984375 
L 52.484375 75.984375 
z
M 43.5 23.390625 
L 43.5 28.515625 
Q 43.5 37.84375 39.90625 42.765625 
Q 36.328125 47.703125 29.5 47.703125 
Q 22.5625 47.703125 19.015625 42.234375 
Q 15.484375 36.765625 15.484375 25.984375 
Q 15.484375 15.234375 19.015625 9.71875 
Q 22.5625 4.203125 29.5 4.203125 
Q 36.328125 4.203125 39.90625 9.109375 
Q 43.5 14.015625 43.5 23.390625 
z
" id="DejaVuSerif-100"/>
       <path id="DejaVuSerif-32"/>
      </defs>
      <use xlink:href="#DejaVuSerif-80"/>
      <use x="62.785156" xlink:href="#DejaVuSerif-101"/>
      <use x="121.964844" xlink:href="#DejaVuSerif-114"/>
      <use x="169.767578" xlink:href="#DejaVuSerif-105"/>
      <use x="201.75" xlink:href="#DejaVuSerif-111"/>
      <use x="261.955078" xlink:href="#DejaVuSerif-100"/>
      <use x="325.96875" xlink:href="#DejaVuSerif-32"/>
      <use x="357.755859" xlink:href="#DejaVuSerif-100"/>
     </g>
    </g>
   </g>
   <g id="matplotlib.axis_2">
    <g id="ytick_1">
     <g id="line2d_19">
      <defs>
       <path d="M 0 0 
L -3.5 0 
" id="m668d89d74e" style="stroke:#000000;stroke-width:0.8;"/>
      </defs>
      <g>
       <use style="stroke:#000000;stroke-width:0.8;" x="265.92" xlink:href="#m668d89d74e" y="145.165007"/>
      </g>
     </g>
     <g id="text_4">
      <!-- 0.0 -->
      <g transform="translate(243.016875 148.964226)scale(0.1 -0.1)">
       <defs>
        <path d="M 9.421875 5.078125 
Q 9.421875 7.8125 11.28125 9.71875 
Q 13.140625 11.625 15.921875 11.625 
Q 18.609375 11.625 20.5 9.71875 
Q 22.40625 7.8125 22.40625 5.078125 
Q 22.40625 2.390625 20.5 0.484375 
Q 18.609375 -1.421875 15.921875 -1.421875 
Q 13.140625 -1.421875 11.28125 0.453125 
Q 9.421875 2.34375 9.421875 5.078125 
z
" id="DejaVuSerif-46"/>
       </defs>
       <use xlink:href="#DejaVuSerif-48"/>
       <use x="63.623047" xlink:href="#DejaVuSerif-46"/>
       <use x="95.410156" xlink:href="#DejaVuSerif-48"/>
      </g>
     </g>
    </g>
    <g id="ytick_2">
     <g id="line2d_20">
      <g>
       <use style="stroke:#000000;stroke-width:0.8;" x="265.92" xlink:href="#m668d89d74e" y="111.136835"/>
      </g>
     </g>
     <g id="text_5">
      <!-- 0.2 -->
      <g transform="translate(243.016875 114.936054)scale(0.1 -0.1)">
       <use xlink:href="#DejaVuSerif-48"/>
       <use x="63.623047" xlink:href="#DejaVuSerif-46"/>
       <use x="95.410156" xlink:href="#DejaVuSerif-50"/>
      </g>
     </g>
    </g>
    <g id="ytick_3">
     <g id="line2d_21">
      <g>
       <use style="stroke:#000000;stroke-width:0.8;" x="265.92" xlink:href="#m668d89d74e" y="77.108663"/>
      </g>
     </g>
     <g id="text_6">
      <!-- 0.4 -->
      <g transform="translate(243.016875 80.907882)scale(0.1 -0.1)">
       <defs>
        <path d="M 34.90625 24.703125 
L 34.90625 63.484375 
L 10.015625 24.703125 
z
M 56.390625 0 
L 23.1875 0 
L 23.1875 5.171875 
L 34.90625 5.171875 
L 34.90625 19.484375 
L 3.078125 19.484375 
L 3.078125 24.8125 
L 35.015625 74.21875 
L 44.671875 74.21875 
L 44.671875 24.703125 
L 58.59375 24.703125 
L 58.59375 19.484375 
L 44.671875 19.484375 
L 44.671875 5.171875 
L 56.390625 5.171875 
z
" id="DejaVuSerif-52"/>
       </defs>
       <use xlink:href="#DejaVuSerif-48"/>
       <use x="63.623047" xlink:href="#DejaVuSerif-46"/>
       <use x="95.410156" xlink:href="#DejaVuSerif-52"/>
      </g>
     </g>
    </g>
    <g id="ytick_4">
     <g id="line2d_22">
      <g>
       <use style="stroke:#000000;stroke-width:0.8;" x="265.92" xlink:href="#m668d89d74e" y="43.080491"/>
      </g>
     </g>
     <g id="text_7">
      <!-- 0.6 -->
      <g transform="translate(243.016875 46.87971)scale(0.1 -0.1)">
       <defs>
        <path d="M 32.71875 3.421875 
Q 39.59375 3.421875 43.296875 8.46875 
Q 47.015625 13.53125 47.015625 23 
Q 47.015625 32.46875 43.296875 37.515625 
Q 39.59375 42.578125 32.71875 42.578125 
Q 25.734375 42.578125 22.0625 37.6875 
Q 18.40625 32.8125 18.40625 23.578125 
Q 18.40625 13.875 22.109375 8.640625 
Q 25.828125 3.421875 32.71875 3.421875 
z
M 16.796875 40.140625 
Q 20.125 43.796875 24.3125 45.59375 
Q 28.515625 47.40625 33.796875 47.40625 
Q 44.671875 47.40625 51 40.859375 
Q 57.328125 34.328125 57.328125 23 
Q 57.328125 11.921875 50.515625 5.25 
Q 43.703125 -1.421875 32.328125 -1.421875 
Q 19.96875 -1.421875 13.328125 7.78125 
Q 6.6875 17 6.6875 34.078125 
Q 6.6875 53.21875 14.546875 63.71875 
Q 22.40625 74.21875 36.71875 74.21875 
Q 40.578125 74.21875 44.828125 73.484375 
Q 49.078125 72.75 53.515625 71.296875 
L 53.515625 59.28125 
L 48 59.28125 
Q 47.40625 64.203125 44.234375 66.796875 
Q 41.0625 69.390625 35.6875 69.390625 
Q 26.21875 69.390625 21.578125 62.203125 
Q 16.9375 55.03125 16.796875 40.140625 
z
" id="DejaVuSerif-54"/>
       </defs>
       <use xlink:href="#DejaVuSerif-48"/>
       <use x="63.623047" xlink:href="#DejaVuSerif-46"/>
       <use x="95.410156" xlink:href="#DejaVuSerif-54"/>
      </g>
     </g>
    </g>
    <g id="text_8">
     <!-- Power -->
     <g transform="translate(236.937188 111.583696)rotate(-90)scale(0.1 -0.1)">
      <defs>
       <path d="M 48 51.90625 
L 61.28125 11.375 
L 73 46.6875 
L 65.484375 46.6875 
L 65.484375 51.90625 
L 84.28125 51.90625 
L 84.28125 46.6875 
L 78.515625 46.6875 
L 63.09375 0 
L 55.609375 0 
L 42.828125 38.8125 
L 29.984375 0 
L 22.796875 0 
L 7.421875 46.6875 
L 1.609375 46.6875 
L 1.609375 51.90625 
L 25.09375 51.90625 
L 25.09375 46.6875 
L 16.703125 46.6875 
L 28.328125 11.375 
L 41.703125 51.90625 
z
" id="DejaVuSerif-119"/>
      </defs>
      <use xlink:href="#DejaVuSerif-80"/>
      <use x="63.285156" xlink:href="#DejaVuSerif-111"/>
      <use x="123.490234" xlink:href="#DejaVuSerif-119"/>
      <use x="209.085938" xlink:href="#DejaVuSerif-101"/>
      <use x="268.265625" xlink:href="#DejaVuSerif-114"/>
     </g>
    </g>
   </g>
   <g id="LineCollection_1">
    <path clip-path="url(#pbd19528a41)" d="M 272.695273 65.819189 
L 407.956364 65.819189 
" style="fill:none;stroke:#808080;stroke-dasharray:5.55,2.4;stroke-dashoffset:0;stroke-width:1.5;"/>
   </g>
   <g id="LineCollection_2">
    <path clip-path="url(#pbd19528a41)" d="M 272.695273 77.010772 
L 407.956364 77.010772 
" style="fill:none;stroke:#a9a9a9;stroke-dasharray:5.55,2.4;stroke-dashoffset:0;stroke-width:1.5;"/>
   </g>
   <g id="LineCollection_3">
    <path clip-path="url(#pbd19528a41)" d="M 272.695273 85.822995 
L 407.956364 85.822995 
" style="fill:none;stroke:#c0c0c0;stroke-dasharray:5.55,2.4;stroke-dashoffset:0;stroke-width:1.5;"/>
   </g>
   <g id="LineCollection_4">
    <path clip-path="url(#pbd19528a41)" d="M 272.695273 89.98564 
L 407.956364 89.98564 
" style="fill:none;stroke:#d3d3d3;stroke-dasharray:5.55,2.4;stroke-dashoffset:0;stroke-width:1.5;"/>
   </g>
   <g id="line2d_23">
    <path clip-path="url(#pbd19528a41)" d="M 407.956364 126.000083 
L 405.906476 137.500188 
L 403.980902 141.133133 
L 402.165423 141.209162 
L 400.448127 136.576739 
L 398.818938 136.009839 
L 397.269253 132.29738 
L 395.791673 121.231195 
L 394.379786 120.101187 
L 393.027997 134.532354 
L 391.731399 144.819295 
L 390.485662 140.497128 
L 388.131827 109.453526 
L 387.017248 112.049132 
L 385.940459 134.340374 
L 384.898981 142.87629 
L 383.890571 143.051684 
L 382.913194 133.133215 
L 381.964998 128.720026 
L 381.044289 133.228689 
L 380.149518 123.740051 
L 379.279266 116.976859 
L 377.607183 142.727568 
L 376.803033 143.208997 
L 376.01874 135.612048 
L 375.253348 119.99818 
L 374.505967 112.116062 
L 373.775768 118.049236 
L 373.06198 134.078002 
L 372.363881 141.390137 
L 371.680796 143.917773 
L 371.012092 136.747772 
L 370.357178 122.402116 
L 369.715495 119.274435 
L 369.086519 119.075968 
L 368.469757 122.147384 
L 367.864744 134.731218 
L 367.27104 143.217699 
L 366.115922 101.693644 
L 365.553744 96.998841 
L 365.001343 106.968894 
L 364.458386 130.927765 
L 363.924554 138.548581 
L 363.399547 113.371114 
L 362.883076 100.565295 
L 362.374869 103.940704 
L 361.382219 142.842487 
L 360.89729 135.59524 
L 360.419653 117.342522 
L 359.949093 114.357381 
L 359.485402 126.434751 
L 359.028384 143.356102 
L 358.577848 138.952322 
L 358.133614 127.663525 
L 357.695507 122.024239 
L 357.263361 127.95356 
L 356.837016 142.457819 
L 356.416318 140.928854 
L 356.001119 127.199256 
L 355.591278 119.517585 
L 355.186658 123.032603 
L 354.787128 136.713942 
L 354.392561 142.475386 
L 354.002836 136.132838 
L 353.617834 135.224774 
L 353.237443 138.78098 
L 352.861555 141.068925 
L 352.490062 135.547958 
L 352.122865 123.33278 
L 351.759864 118.002772 
L 351.400965 126.828478 
L 351.046076 143.760217 
L 350.695108 136.978697 
L 350.347976 120.848425 
L 350.004597 114.435068 
L 349.664891 119.273223 
L 348.996188 145.096846 
L 348.341273 119.451972 
L 348.018811 121.202906 
L 347.383545 140.381996 
L 347.070614 142.82419 
L 346.453852 131.199541 
L 346.149905 132.534439 
L 345.848839 133.066772 
L 345.5506 135.26677 
L 345.255135 140.973212 
L 344.962394 140.273571 
L 344.384882 132.870202 
L 344.100017 131.503979 
L 343.817685 134.234071 
L 343.537839 141.197462 
L 343.260438 140.432274 
L 342.985439 128.980446 
L 342.7128 126.514154 
L 342.174444 140.629069 
L 341.908649 143.677537 
L 341.383642 127.131812 
L 341.124357 129.123581 
L 340.612052 142.606181 
L 340.358965 140.04935 
L 340.107879 135.691826 
L 339.858762 137.687009 
L 339.611584 141.341552 
L 339.366314 138.26346 
L 339.122924 128.723661 
L 338.881385 124.094804 
L 338.641669 129.886131 
L 338.403748 141.60019 
L 338.167597 142.215411 
L 337.700497 106.367345 
L 337.469498 110.041436 
L 337.012479 142.920797 
L 336.786412 139.465328 
L 336.561943 122.089202 
L 336.33905 118.430888 
L 335.8979 141.308343 
L 335.679602 141.880717 
L 335.247456 130.233087 
L 334.821111 144.506757 
L 334.400413 122.677543 
L 334.192135 121.530377 
L 333.985215 129.849774 
L 333.779633 142.884389 
L 333.575374 138.051034 
L 333.170754 108.688404 
L 332.97036 112.884101 
L 332.573327 144.042547 
L 332.376656 138.689065 
L 332.181196 125.607416 
L 331.986931 121.510811 
L 331.411165 139.960279 
L 331.221539 141.70086 
L 330.84565 140.722264 
L 330.659361 135.831944 
L 330.474157 126.919009 
L 330.290028 126.561439 
L 329.924941 143.074182 
L 329.743959 142.188352 
L 329.38506 131.304238 
L 329.20712 133.857204 
L 329.030171 140.226803 
L 328.854202 140.495282 
L 328.505163 134.258859 
L 328.332072 136.844381 
L 328.159918 142.646627 
L 327.988693 141.459444 
L 327.648986 133.750343 
L 327.480486 133.897198 
L 327.146144 141.633317 
L 326.980283 140.142125 
L 326.815284 139.835415 
L 326.487835 137.556207 
L 326.163728 129.802134 
L 325.842895 144.948522 
L 325.683685 139.671154 
L 325.36764 111.413592 
L 325.21079 116.612492 
L 324.899393 144.103779 
L 324.437948 115.864305 
L 323.983111 143.976835 
L 323.683465 129.606348 
L 323.386619 143.964056 
L 322.946489 127.228801 
L 322.656421 143.602228 
L 322.512374 139.441794 
L 322.226226 112.10555 
L 322.084113 117.210169 
L 321.80178 144.992545 
L 321.382931 125.988328 
L 321.106736 141.300133 
L 320.969534 141.399912 
L 320.832922 140.06492 
L 320.561448 141.45966 
L 320.292275 128.782066 
L 320.158539 130.785805 
L 319.892745 144.936258 
L 319.760677 140.788056 
L 319.498178 121.258789 
L 319.108452 145.065963 
L 318.851267 130.712586 
L 318.723451 131.159077 
L 318.469351 144.320416 
L 318.091974 133.250075 
L 317.842857 144.667175 
L 317.719027 142.916535 
L 317.472807 130.762401 
L 317.350409 132.414243 
L 316.98602 144.805781 
L 316.86548 142.448334 
L 316.506581 121.404965 
L 316.269548 141.397472 
L 316.151692 140.95139 
L 315.917283 109.352538 
L 315.800725 113.310072 
L 315.568882 139.889485 
L 315.453593 135.436995 
L 315.224262 110.145768 
L 315.110214 117.780662 
L 314.88334 144.250228 
L 314.770508 140.31462 
L 314.546039 130.915691 
L 314.323145 141.784196 
L 314.212282 138.827106 
L 314.101804 138.880186 
L 313.881996 144.527813 
L 313.555109 129.060459 
L 313.339038 144.317564 
L 313.231552 142.160024 
L 313.017664 128.99461 
L 312.699508 144.631274 
L 312.489162 131.728744 
L 312.176231 143.623879 
L 311.96931 137.345944 
L 311.866353 139.60978 
L 311.763728 144.762394 
L 311.661434 141.748526 
L 311.45783 127.825361 
L 311.154849 144.213908 
L 310.854731 128.027428 
L 310.656216 144.639369 
L 310.557423 143.423488 
L 310.360752 133.172235 
L 310.06801 143.98025 
L 309.971026 142.996227 
L 309.777942 137.766485 
L 309.681838 138.306173 
L 309.490499 142.079893 
L 309.39526 144.902549 
L 309.300305 143.005648 
L 309.111244 131.313152 
L 309.017133 133.541945 
L 308.829745 144.58303 
L 308.550719 128.559962 
L 308.366055 143.012604 
L 308.274123 141.526446 
L 308.091055 125.412466 
L 307.999915 129.339711 
L 307.818416 144.788017 
L 307.548098 134.698956 
L 307.369155 143.960299 
L 307.191215 141.119834 
L 307.014266 144.434253 
L 306.92616 143.106244 
L 306.750678 136.250084 
L 306.576159 144.62374 
L 306.489258 143.595836 
L 306.316167 137.031175 
L 306.144013 145.144156 
L 305.88752 131.752035 
L 305.717668 143.019828 
L 305.633082 139.945326 
L 305.464581 124.96288 
L 305.380665 128.74415 
L 305.213495 142.347664 
L 304.964378 125.532718 
L 304.7172 144.029791 
L 304.553477 136.857945 
L 304.390593 143.316519 
L 304.309464 142.641139 
L 304.228541 142.512899 
L 304.067311 144.43608 
L 303.987002 143.923697 
L 303.82699 139.278849 
L 303.588474 143.992489 
L 303.509365 142.7726 
L 303.430453 142.781818 
L 303.351736 144.646839 
L 303.273213 144.457687 
L 303.116749 134.43026 
L 303.038805 134.680709 
L 302.883488 142.685915 
L 302.728927 131.605113 
L 302.651927 126.43515 
L 302.422043 143.3128 
L 302.345783 139.824089 
L 302.19381 134.823811 
L 302.042561 144.983943 
L 301.967206 144.330161 
L 301.81703 142.031466 
L 301.742207 143.869684 
L 301.66756 143.439338 
L 301.593088 140.310225 
L 301.51879 140.457662 
L 301.370714 144.999825 
L 301.149887 135.893134 
L 301.003517 144.352249 
L 300.930584 143.812673 
L 300.785219 139.469588 
L 300.640516 144.852809 
L 300.42469 134.537595 
L 300.353073 138.406925 
L 300.281617 142.897724 
L 300.210321 141.499759 
L 300.068208 131.347997 
L 299.856223 144.644209 
L 299.785875 141.949017 
L 299.715682 138.468525 
L 299.645644 138.612416 
L 299.50603 144.881463 
L 299.297752 139.053505 
L 299.159655 144.878898 
L 299.090831 144.613684 
L 298.953629 142.577126 
L 298.613195 145.1437 
L 298.545543 143.651952 
L 298.410672 136.621184 
L 298.27637 141.704025 
L 298.209432 141.618 
L 298.009459 126.150695 
L 297.810738 141.236696 
L 297.678944 135.184357 
L 297.482273 145.142317 
L 297.416986 143.729054 
L 297.351832 142.727518 
L 297.221925 144.852026 
L 297.028056 136.536882 
L 296.963694 138.464394 
L 296.835362 143.885702 
L 296.707546 141.471956 
L 296.580242 144.191923 
L 296.516781 144.142751 
L 296.453447 143.395022 
L 296.390238 143.843611 
L 296.327155 144.646559 
L 296.201364 136.662637 
L 296.138655 132.592321 
L 296.076069 132.805629 
L 295.951266 140.076722 
L 295.764977 127.63416 
L 295.579774 140.973885 
L 295.518279 138.341326 
L 295.456903 136.091834 
L 295.395645 137.85776 
L 295.273482 144.931606 
L 295.212576 144.858008 
L 295.151788 144.26782 
L 295.091115 144.694189 
L 295.030557 145.152 
L 294.849576 140.757471 
L 294.789477 142.308543 
L 294.669619 145.109262 
L 294.550212 144.081216 
L 294.490676 144.453456 
L 294.431252 143.458454 
L 294.312736 139.182786 
L 294.194661 143.589316 
L 294.135787 141.831929 
L 294.018367 135.390983 
L 293.959819 136.788176 
L 293.843046 144.026643 
L 293.78482 142.741807 
L 293.7267 140.726877 
L 293.668687 141.529231 
L 293.552978 145.134075 
L 293.437688 140.995639 
L 293.3802 141.321624 
L 293.322816 143.019892 
L 293.265535 141.432411 
L 293.151282 129.367402 
L 293.094309 129.920771 
L 292.98067 137.299594 
L 292.924002 134.489118 
L 292.810969 125.96141 
L 292.586103 143.687448 
L 292.474264 142.238022 
L 292.30724 133.578849 
L 292.196377 138.626166 
L 292.030805 121.319917 
L 291.975805 123.731114 
L 291.811376 136.46501 
L 291.702227 132.476158 
L 291.539204 144.88883 
L 291.485048 143.755024 
L 291.430985 143.074048 
L 291.323133 145.143716 
L 291.16204 139.657414 
L 291.108523 141.767025 
L 291.001759 144.659787 
L 290.789302 139.424199 
L 290.736409 140.046798 
L 290.630886 143.103793 
L 290.525713 129.511482 
L 290.473257 121.344468 
L 290.420887 123.367554 
L 290.316406 134.029388 
L 290.264294 132.14536 
L 290.160326 119.570324 
L 290.108469 122.53593 
L 289.953405 142.17292 
L 289.901885 140.809994 
L 289.850448 140.085219 
L 289.747824 141.336695 
L 289.64553 139.138476 
L 289.543564 141.813511 
L 289.391227 122.110843 
L 289.34061 127.808574 
L 289.239617 138.745371 
L 289.138944 126.046387 
L 289.088727 128.466067 
L 288.988531 143.929686 
L 288.938551 142.693739 
L 288.88865 138.990032 
L 288.838826 139.396341 
L 288.739414 145.029776 
L 288.640312 136.760738 
L 288.590876 137.182813 
L 288.492236 143.568259 
L 288.344847 133.415772 
L 288.198139 144.237995 
L 288.100709 140.698172 
L 288.003576 144.979196 
L 287.858433 138.134729 
L 287.762037 144.835902 
L 287.713949 142.927036 
L 287.617991 136.500618 
L 287.57012 138.955631 
L 287.426939 144.76912 
L 287.379355 144.617696 
L 287.284401 141.205245 
L 287.23703 138.184786 
L 287.189729 138.368171 
L 287.095339 144.686898 
L 287.048249 143.995537 
L 286.954278 138.558167 
L 286.907396 139.742263 
L 286.81384 144.764721 
L 286.767166 144.681082 
L 286.674021 143.403277 
L 286.534815 134.953625 
L 286.488548 138.078794 
L 286.442348 141.997742 
L 286.396216 138.691175 
L 286.258219 114.144652 
L 286.166553 135.471248 
L 286.120819 130.131123 
L 286.029548 110.327238 
L 285.984011 116.085622 
L 285.893131 142.074874 
L 285.847789 137.421178 
L 285.757298 129.906199 
L 285.667065 143.983304 
L 285.622044 139.977746 
L 285.532193 130.928848 
L 285.487363 136.298521 
L 285.397892 144.597366 
L 285.35325 141.805614 
L 285.308672 140.474636 
L 285.264156 141.442942 
L 285.219702 142.383245 
L 285.13098 139.798711 
L 285.042506 145.088447 
L 284.910255 125.725412 
L 284.866294 128.390691 
L 284.778553 141.871982 
L 284.734773 133.329188 
L 284.647394 120.308563 
L 284.516774 141.833566 
L 284.473354 134.516759 
L 284.429992 128.440308 
L 284.38669 132.112778 
L 284.300262 144.92266 
L 284.257136 143.692554 
L 284.17106 139.330725 
L 284.085216 144.628489 
L 284.042381 143.414515 
L 283.956883 134.146549 
L 283.914221 135.744208 
L 283.829067 144.10859 
L 283.786576 142.242347 
L 283.659442 117.751133 
L 283.617177 124.15472 
L 283.574968 135.816476 
L 283.532815 133.721725 
L 283.406691 101.372387 
L 283.281065 134.997116 
L 283.239301 121.528983 
L 283.19759 112.918227 
L 283.155935 117.535736 
L 283.072788 142.610401 
L 283.031296 136.534276 
L 282.948474 126.66108 
L 282.865867 144.363275 
L 282.824644 140.737423 
L 282.742358 128.254404 
L 282.701295 132.597078 
L 282.619328 144.967588 
L 282.578424 141.494143 
L 282.456026 130.75636 
L 282.415331 131.224846 
L 282.334098 141.779468 
L 282.293559 132.817569 
L 282.172252 79.008127 
L 282.131919 86.149786 
L 282.091637 112.854942 
L 282.051406 105.196503 
L 281.931018 46.409143 
L 281.89099 64.367611 
L 281.811085 101.524602 
L 281.771208 76.859662 
L 281.731381 65.268875 
L 281.691603 68.63669 
L 281.572569 129.198004 
L 281.53299 116.534918 
L 281.49346 111.088813 
L 281.45398 113.692581 
L 281.335831 143.097547 
L 281.296546 136.1151 
L 281.21812 121.744711 
L 281.17898 130.337541 
L 281.139888 143.406237 
L 281.061848 134.352998 
L 281.0229 126.014124 
L 280.984 126.387566 
L 280.906341 143.10657 
L 280.867583 129.818338 
L 280.790209 108.232267 
L 280.751592 116.954562 
L 280.674499 136.73409 
L 280.636023 122.998073 
L 280.559209 111.043597 
L 280.444337 142.788621 
L 280.406138 135.489146 
L 280.367985 130.674435 
L 280.329878 131.312092 
L 280.177906 144.504185 
L 280.064401 126.455144 
L 280.026656 131.096295 
L 279.951301 142.62371 
L 279.838602 104.690544 
L 279.801125 118.862444 
L 279.763691 138.989533 
L 279.726302 132.622279 
L 279.651655 101.795187 
L 279.614397 105.724523 
L 279.540013 134.211836 
L 279.502886 110.173179 
L 279.428761 85.28609 
L 279.391764 101.425599 
L 279.35481 126.332961 
L 279.317898 119.672029 
L 279.244204 88.370763 
L 279.207421 89.378171 
L 279.133982 136.370336 
L 279.060713 117.610877 
L 279.024141 115.105394 
L 278.878276 142.943254 
L 278.841914 132.70806 
L 278.769314 124.768755 
L 278.733077 131.446573 
L 278.660725 144.226876 
L 278.624611 130.945727 
L 278.552506 118.118382 
L 278.516515 125.457433 
L 278.444655 143.498494 
L 278.408785 131.23487 
L 278.337168 117.987948 
L 278.30142 127.276894 
L 278.230044 143.877731 
L 278.194416 135.806132 
L 278.158828 128.72908 
L 278.12328 129.30155 
L 278.052303 144.272967 
L 277.981484 136.982006 
L 277.946134 131.746264 
L 277.875551 133.230438 
L 277.805125 144.97242 
L 277.76997 137.81936 
L 277.664739 117.123639 
L 277.594778 142.334015 
L 277.559856 129.184877 
L 277.490125 109.975318 
L 277.455317 116.319474 
L 277.420547 135.195724 
L 277.385815 134.231579 
L 277.316466 101.642199 
L 277.281847 103.776888 
L 277.212724 140.048269 
L 277.178218 126.404409 
L 277.10932 99.530799 
L 277.074927 108.415182 
L 277.006251 144.325154 
L 276.971969 135.275665 
L 276.937724 126.052072 
L 276.903516 129.358516 
L 276.83521 142.867294 
L 276.801112 138.336445 
L 276.733026 136.672969 
L 276.665086 141.960303 
L 276.63117 137.856232 
L 276.563446 143.137496 
L 276.529639 140.395999 
L 276.462131 130.712771 
L 276.428431 131.026471 
L 276.361138 143.282374 
L 276.260466 113.513217 
L 276.226979 124.046274 
L 276.193527 140.495596 
L 276.160111 137.413111 
L 276.093383 108.344488 
L 276.060072 111.844178 
L 275.993554 141.569459 
L 275.960348 133.863431 
L 275.894038 117.673285 
L 275.827867 118.820009 
L 275.794833 112.160095 
L 275.761833 143.358888 
L 275.695936 123.750578 
L 275.630176 108.751212 
L 275.597347 119.746668 
L 275.564551 140.139088 
L 275.499062 117.145439 
L 275.466368 110.906891 
L 275.433708 115.060578 
L 275.368488 144.063521 
L 275.303401 124.735503 
L 275.270908 124.381635 
L 275.173627 144.400799 
L 275.108938 135.740268 
L 274.915658 144.616387 
L 274.819457 126.512314 
L 274.787455 136.239877 
L 274.755485 144.197311 
L 274.723547 139.17579 
L 274.659767 110.936818 
L 274.627926 118.256404 
L 274.564337 140.028824 
L 274.532591 117.299127 
L 274.469193 97.2394 
L 274.437542 109.825359 
L 274.405922 138.424931 
L 274.342776 111.523597 
L 274.311251 105.071688 
L 274.279756 109.708742 
L 274.21686 142.048552 
L 274.154089 118.668184 
L 274.12275 120.512985 
L 274.060164 141.946905 
L 273.997702 130.772373 
L 273.966516 127.521604 
L 273.904238 131.236424 
L 273.84208 145.115552 
L 273.811048 141.782479 
L 273.749072 125.109627 
L 273.687218 134.575924 
L 273.656336 143.949199 
L 273.594662 130.709372 
L 273.563869 123.83994 
L 273.533107 126.383709 
L 273.471671 145.065565 
L 273.440998 135.412301 
L 273.37974 119.009016 
L 273.349155 124.114343 
L 273.288074 144.085682 
L 273.257577 134.609056 
L 273.196672 122.384908 
L 273.166263 128.22021 
L 273.105532 145.021097 
L 273.07521 139.192711 
L 272.984417 122.440568 
L 272.954211 128.818776 
L 272.924033 142.557782 
L 272.893884 135.652185 
L 272.803607 96.929355 
L 272.773572 107.58636 
L 272.743565 128.881266 
L 272.713587 114.45086 
L 272.683636 80.013608 
L 272.683636 80.013608 
" style="fill:none;stroke:#1f77b4;stroke-linecap:square;stroke-width:1.5;"/>
   </g>
   <g id="patch_3">
    <path d="M 265.92 150.089143 
L 265.92 41.472 
" style="fill:none;stroke:#000000;stroke-linecap:square;stroke-linejoin:miter;stroke-width:0.8;"/>
   </g>
   <g id="patch_4">
    <path d="M 414.72 150.089143 
L 414.72 41.472 
" style="fill:none;stroke:#000000;stroke-linecap:square;stroke-linejoin:miter;stroke-width:0.8;"/>
   </g>
   <g id="patch_5">
    <path d="M 265.92 150.089143 
L 414.72 150.089143 
" style="fill:none;stroke:#000000;stroke-linecap:square;stroke-linejoin:miter;stroke-width:0.8;"/>
   </g>
   <g id="patch_6">
    <path d="M 265.92 41.472 
L 414.72 41.472 
" style="fill:none;stroke:#000000;stroke-linecap:square;stroke-linejoin:miter;stroke-width:0.8;"/>
   </g>
   <g id="text_9">
    <!-- Periodogram -->
    <g transform="translate(307.698125 35.472)scale(0.1 -0.1)">
     <defs>
      <path d="M 52.484375 46.6875 
L 52.484375 1.125 
Q 52.484375 -10.0625 46.328125 -16.140625 
Q 40.1875 -22.21875 28.8125 -22.21875 
Q 23.6875 -22.21875 19 -21.28125 
Q 14.3125 -20.359375 10.015625 -18.5 
L 10.015625 -7.625 
L 14.703125 -7.625 
Q 15.578125 -12.703125 18.84375 -15.046875 
Q 22.125 -17.390625 28.21875 -17.390625 
Q 36.140625 -17.390625 39.8125 -12.921875 
Q 43.5 -8.453125 43.5 1.125 
L 43.5 8.109375 
Q 40.875 3.21875 36.796875 0.890625 
Q 32.71875 -1.421875 26.703125 -1.421875 
Q 17.140625 -1.421875 11.0625 6.171875 
Q 4.984375 13.765625 4.984375 25.984375 
Q 4.984375 38.1875 11.03125 45.75 
Q 17.09375 53.328125 26.703125 53.328125 
Q 32.71875 53.328125 36.796875 51 
Q 40.875 48.6875 43.5 43.796875 
L 43.5 51.90625 
L 61.078125 51.90625 
L 61.078125 46.6875 
z
M 43.5 28.515625 
Q 43.5 37.84375 39.90625 42.765625 
Q 36.328125 47.703125 29.5 47.703125 
Q 22.5625 47.703125 19.015625 42.234375 
Q 15.484375 36.765625 15.484375 25.984375 
Q 15.484375 15.234375 19.015625 9.71875 
Q 22.5625 4.203125 29.5 4.203125 
Q 36.328125 4.203125 39.90625 9.109375 
Q 43.5 14.015625 43.5 23.390625 
z
" id="DejaVuSerif-103"/>
      <path d="M 39.796875 16.3125 
L 39.796875 27.296875 
L 28.21875 27.296875 
Q 21.53125 27.296875 18.25 24.40625 
Q 14.984375 21.53125 14.984375 15.578125 
Q 14.984375 10.15625 18.296875 6.984375 
Q 21.625 3.8125 27.296875 3.8125 
Q 32.90625 3.8125 36.34375 7.28125 
Q 39.796875 10.75 39.796875 16.3125 
z
M 48.78125 32.421875 
L 48.78125 5.171875 
L 56.78125 5.171875 
L 56.78125 0 
L 39.796875 0 
L 39.796875 5.609375 
Q 36.8125 2 32.90625 0.28125 
Q 29 -1.421875 23.78125 -1.421875 
Q 15.140625 -1.421875 10.0625 3.171875 
Q 4.984375 7.765625 4.984375 15.578125 
Q 4.984375 23.640625 10.796875 28.078125 
Q 16.609375 32.515625 27.203125 32.515625 
L 39.796875 32.515625 
L 39.796875 36.078125 
Q 39.796875 42 36.203125 45.234375 
Q 32.625 48.484375 26.125 48.484375 
Q 20.75 48.484375 17.578125 46.046875 
Q 14.40625 43.609375 13.625 38.8125 
L 8.984375 38.8125 
L 8.984375 49.3125 
Q 13.671875 51.3125 18.09375 52.3125 
Q 22.515625 53.328125 26.703125 53.328125 
Q 37.5 53.328125 43.140625 47.96875 
Q 48.78125 42.625 48.78125 32.421875 
z
" id="DejaVuSerif-97"/>
      <path d="M 51.8125 41.796875 
Q 54.390625 47.515625 58.421875 50.421875 
Q 62.453125 53.328125 67.828125 53.328125 
Q 75.984375 53.328125 79.984375 48.265625 
Q 83.984375 43.21875 83.984375 33.015625 
L 83.984375 5.171875 
L 92.09375 5.171875 
L 92.09375 0 
L 67.1875 0 
L 67.1875 5.171875 
L 75 5.171875 
L 75 31.984375 
Q 75 39.9375 72.65625 43.3125 
Q 70.3125 46.6875 64.890625 46.6875 
Q 58.890625 46.6875 55.734375 42.140625 
Q 52.59375 37.59375 52.59375 28.90625 
L 52.59375 5.171875 
L 60.40625 5.171875 
L 60.40625 0 
L 35.796875 0 
L 35.796875 5.171875 
L 43.609375 5.171875 
L 43.609375 32.328125 
Q 43.609375 40.09375 41.265625 43.390625 
Q 38.921875 46.6875 33.5 46.6875 
Q 27.484375 46.6875 24.328125 42.140625 
Q 21.1875 37.59375 21.1875 28.90625 
L 21.1875 5.171875 
L 29 5.171875 
L 29 0 
L 4.109375 0 
L 4.109375 5.171875 
L 12.203125 5.171875 
L 12.203125 46.78125 
L 3.609375 46.78125 
L 3.609375 51.90625 
L 21.1875 51.90625 
L 21.1875 42.671875 
Q 23.6875 47.859375 27.53125 50.59375 
Q 31.390625 53.328125 36.28125 53.328125 
Q 42.328125 53.328125 46.375 50.3125 
Q 50.4375 47.3125 51.8125 41.796875 
z
" id="DejaVuSerif-109"/>
     </defs>
     <use xlink:href="#DejaVuSerif-80"/>
     <use x="62.785156" xlink:href="#DejaVuSerif-101"/>
     <use x="121.964844" xlink:href="#DejaVuSerif-114"/>
     <use x="169.767578" xlink:href="#DejaVuSerif-105"/>
     <use x="201.75" xlink:href="#DejaVuSerif-111"/>
     <use x="261.955078" xlink:href="#DejaVuSerif-100"/>
     <use x="325.96875" xlink:href="#DejaVuSerif-111"/>
     <use x="386.173828" xlink:href="#DejaVuSerif-103"/>
     <use x="450.1875" xlink:href="#DejaVuSerif-114"/>
     <use x="497.990234" xlink:href="#DejaVuSerif-97"/>
     <use x="557.609375" xlink:href="#DejaVuSerif-109"/>
    </g>
   </g>
   <g id="legend_1">
    <g id="patch_7">
     <path d="M 419.648125 108.123071 
L 454.431875 108.123071 
Q 455.231875 108.123071 455.231875 107.323071 
L 455.231875 84.238071 
Q 455.231875 83.438071 454.431875 83.438071 
L 419.648125 83.438071 
Q 418.848125 83.438071 418.848125 84.238071 
L 418.848125 107.323071 
Q 418.848125 108.123071 419.648125 108.123071 
z
" style="fill:#ffffff;opacity:0.8;stroke:#cccccc;stroke-linejoin:miter;"/>
    </g>
    <g id="line2d_24">
     <path d="M 420.448125 86.677446 
L 428.448125 86.677446 
" style="fill:none;stroke:#808080;stroke-dasharray:5.55,2.4;stroke-dashoffset:0;stroke-width:1.5;"/>
    </g>
    <g id="text_10">
     <!-- 99.9% FAP -->
     <g transform="translate(431.648125 88.077446)scale(0.04 -0.04)">
      <defs>
       <path d="M 46.78125 32.671875 
Q 43.5 29 39.25 27.1875 
Q 35.015625 25.390625 29.6875 25.390625 
Q 18.84375 25.390625 12.5625 31.9375 
Q 6.296875 38.484375 6.296875 49.8125 
Q 6.296875 60.890625 13.109375 67.546875 
Q 19.921875 74.21875 31.296875 74.21875 
Q 43.65625 74.21875 50.265625 65.015625 
Q 56.890625 55.8125 56.890625 38.71875 
Q 56.890625 19.578125 49.015625 9.078125 
Q 41.15625 -1.421875 26.90625 -1.421875 
Q 23.046875 -1.421875 18.796875 -0.6875 
Q 14.546875 0.046875 10.109375 1.515625 
L 10.109375 13.625 
L 15.578125 13.625 
Q 16.21875 8.6875 19.390625 6.046875 
Q 22.5625 3.421875 27.875 3.421875 
Q 37.359375 3.421875 41.984375 10.5625 
Q 46.625 17.71875 46.78125 32.671875 
z
M 30.90625 69.390625 
Q 23.96875 69.390625 20.28125 64.328125 
Q 16.609375 59.28125 16.609375 49.8125 
Q 16.609375 40.328125 20.28125 35.25 
Q 23.96875 30.171875 30.90625 30.171875 
Q 37.84375 30.171875 41.53125 35.078125 
Q 45.21875 39.984375 45.21875 49.21875 
Q 45.21875 58.9375 41.5 64.15625 
Q 37.796875 69.390625 30.90625 69.390625 
z
" id="DejaVuSerif-57"/>
       <path d="M 22.40625 69.671875 
Q 18.109375 69.671875 15.6875 65.625 
Q 13.28125 61.578125 13.28125 54.296875 
Q 13.28125 47.125 15.75 43.015625 
Q 18.21875 38.921875 22.40625 38.921875 
Q 26.5625 38.921875 28.96875 43 
Q 31.390625 47.078125 31.390625 54.296875 
Q 31.390625 61.53125 28.96875 65.59375 
Q 26.5625 69.671875 22.40625 69.671875 
z
M 72.703125 33.890625 
Q 68.453125 33.890625 66.03125 29.78125 
Q 63.625 25.6875 63.625 18.40625 
Q 63.625 11.234375 66.0625 7.15625 
Q 68.5 3.078125 72.703125 3.078125 
Q 76.90625 3.078125 79.296875 7.15625 
Q 81.6875 11.234375 81.6875 18.40625 
Q 81.6875 25.640625 79.265625 29.765625 
Q 76.859375 33.890625 72.703125 33.890625 
z
M 72.703125 38.28125 
Q 80.421875 38.28125 84.953125 32.90625 
Q 89.5 27.546875 89.5 18.40625 
Q 89.5 9.28125 84.9375 3.921875 
Q 80.375 -1.421875 72.703125 -1.421875 
Q 64.890625 -1.421875 60.34375 3.921875 
Q 55.8125 9.28125 55.8125 18.40625 
Q 55.8125 27.59375 60.375 32.9375 
Q 64.9375 38.28125 72.703125 38.28125 
z
M 66.609375 74.21875 
L 74.03125 74.21875 
L 28.421875 -1.421875 
L 21 -1.421875 
z
M 22.3125 74.21875 
Q 30.03125 74.21875 34.609375 68.875 
Q 39.203125 63.53125 39.203125 54.390625 
Q 39.203125 45.171875 34.640625 39.84375 
Q 30.078125 34.515625 22.3125 34.515625 
Q 14.546875 34.515625 10.03125 39.859375 
Q 5.515625 45.21875 5.515625 54.390625 
Q 5.515625 63.484375 10.046875 68.84375 
Q 14.59375 74.21875 22.3125 74.21875 
z
" id="DejaVuSerif-37"/>
       <path d="M 5.515625 0 
L 5.515625 5.171875 
L 14.796875 5.171875 
L 14.796875 67.671875 
L 5.515625 67.671875 
L 5.515625 72.90625 
L 65.1875 72.90625 
L 65.1875 56.6875 
L 59.1875 56.6875 
L 59.1875 66.890625 
L 24.703125 66.890625 
L 24.703125 42.484375 
L 49.609375 42.484375 
L 49.609375 51.609375 
L 55.609375 51.609375 
L 55.609375 27.390625 
L 49.609375 27.390625 
L 49.609375 36.53125 
L 24.703125 36.53125 
L 24.703125 5.171875 
L 36.375 5.171875 
L 36.375 0 
z
" id="DejaVuSerif-70"/>
       <path d="M 20.015625 26.421875 
L 46.78125 26.421875 
L 33.40625 61.078125 
z
M -0.59375 0 
L -0.59375 5.171875 
L 5.8125 5.171875 
L 31.78125 72.90625 
L 39.984375 72.90625 
L 66.015625 5.171875 
L 73.1875 5.171875 
L 73.1875 0 
L 46.6875 0 
L 46.6875 5.171875 
L 54.78125 5.171875 
L 48.6875 21.1875 
L 18.015625 21.1875 
L 11.921875 5.171875 
L 19.921875 5.171875 
L 19.921875 0 
z
" id="DejaVuSerif-65"/>
      </defs>
      <use xlink:href="#DejaVuSerif-57"/>
      <use x="63.623047" xlink:href="#DejaVuSerif-57"/>
      <use x="127.246094" xlink:href="#DejaVuSerif-46"/>
      <use x="159.033203" xlink:href="#DejaVuSerif-57"/>
      <use x="222.65625" xlink:href="#DejaVuSerif-37"/>
      <use x="317.675781" xlink:href="#DejaVuSerif-32"/>
      <use x="349.462891" xlink:href="#DejaVuSerif-70"/>
      <use x="410.097656" xlink:href="#DejaVuSerif-65"/>
      <use x="482.314453" xlink:href="#DejaVuSerif-80"/>
     </g>
    </g>
    <g id="line2d_25">
     <path d="M 420.448125 92.548696 
L 428.448125 92.548696 
" style="fill:none;stroke:#a9a9a9;stroke-dasharray:5.55,2.4;stroke-dashoffset:0;stroke-width:1.5;"/>
    </g>
    <g id="text_11">
     <!-- 99.0% FAP -->
     <g transform="translate(431.648125 93.948696)scale(0.04 -0.04)">
      <use xlink:href="#DejaVuSerif-57"/>
      <use x="63.623047" xlink:href="#DejaVuSerif-57"/>
      <use x="127.246094" xlink:href="#DejaVuSerif-46"/>
      <use x="159.033203" xlink:href="#DejaVuSerif-48"/>
      <use x="222.65625" xlink:href="#DejaVuSerif-37"/>
      <use x="317.675781" xlink:href="#DejaVuSerif-32"/>
      <use x="349.462891" xlink:href="#DejaVuSerif-70"/>
      <use x="410.097656" xlink:href="#DejaVuSerif-65"/>
      <use x="482.314453" xlink:href="#DejaVuSerif-80"/>
     </g>
    </g>
    <g id="line2d_26">
     <path d="M 420.448125 98.419946 
L 428.448125 98.419946 
" style="fill:none;stroke:#c0c0c0;stroke-dasharray:5.55,2.4;stroke-dashoffset:0;stroke-width:1.5;"/>
    </g>
    <g id="text_12">
     <!-- 95.0% FAP -->
     <g transform="translate(431.648125 99.819946)scale(0.04 -0.04)">
      <defs>
       <path d="M 50.296875 72.90625 
L 50.296875 64.890625 
L 16.890625 64.890625 
L 16.890625 44 
Q 19.4375 45.75 22.828125 46.625 
Q 26.21875 47.515625 30.421875 47.515625 
Q 42.234375 47.515625 49.0625 40.96875 
Q 55.90625 34.421875 55.90625 23.09375 
Q 55.90625 11.53125 49 5.046875 
Q 42.09375 -1.421875 29.59375 -1.421875 
Q 24.5625 -1.421875 19.28125 -0.1875 
Q 14.015625 1.03125 8.5 3.515625 
L 8.5 17.671875 
L 14.015625 17.671875 
Q 14.453125 10.75 18.421875 7.078125 
Q 22.40625 3.421875 29.59375 3.421875 
Q 37.3125 3.421875 41.453125 8.5 
Q 45.609375 13.578125 45.609375 23.09375 
Q 45.609375 32.5625 41.484375 37.609375 
Q 37.359375 42.671875 29.59375 42.671875 
Q 25.203125 42.671875 21.84375 41.109375 
Q 18.5 39.546875 15.921875 36.28125 
L 11.71875 36.28125 
L 11.71875 72.90625 
z
" id="DejaVuSerif-53"/>
      </defs>
      <use xlink:href="#DejaVuSerif-57"/>
      <use x="63.623047" xlink:href="#DejaVuSerif-53"/>
      <use x="127.246094" xlink:href="#DejaVuSerif-46"/>
      <use x="159.033203" xlink:href="#DejaVuSerif-48"/>
      <use x="222.65625" xlink:href="#DejaVuSerif-37"/>
      <use x="317.675781" xlink:href="#DejaVuSerif-32"/>
      <use x="349.462891" xlink:href="#DejaVuSerif-70"/>
      <use x="410.097656" xlink:href="#DejaVuSerif-65"/>
      <use x="482.314453" xlink:href="#DejaVuSerif-80"/>
     </g>
    </g>
    <g id="line2d_27">
     <path d="M 420.448125 104.291196 
L 428.448125 104.291196 
" style="fill:none;stroke:#d3d3d3;stroke-dasharray:5.55,2.4;stroke-dashoffset:0;stroke-width:1.5;"/>
    </g>
    <g id="text_13">
     <!-- 90.0% FAP -->
     <g transform="translate(431.648125 105.691196)scale(0.04 -0.04)">
      <use xlink:href="#DejaVuSerif-57"/>
      <use x="63.623047" xlink:href="#DejaVuSerif-48"/>
      <use x="127.246094" xlink:href="#DejaVuSerif-46"/>
      <use x="159.033203" xlink:href="#DejaVuSerif-48"/>
      <use x="222.65625" xlink:href="#DejaVuSerif-37"/>
      <use x="317.675781" xlink:href="#DejaVuSerif-32"/>
      <use x="349.462891" xlink:href="#DejaVuSerif-70"/>
      <use x="410.097656" xlink:href="#DejaVuSerif-65"/>
      <use x="482.314453" xlink:href="#DejaVuSerif-80"/>
     </g>
    </g>
   </g>
  </g>
  <g id="axes_2">
   <g id="patch_8">
    <path d="M 57.6 150.089143 
L 206.4 150.089143 
L 206.4 41.472 
L 57.6 41.472 
z
" style="fill:#ffffff;"/>
   </g>
   <g id="PathCollection_1">
    <defs>
     <path d="M 0 0.707107 
C 0.187527 0.707107 0.367398 0.632602 0.5 0.5 
C 0.632602 0.367398 0.707107 0.187527 0.707107 0 
C 0.707107 -0.187527 0.632602 -0.367398 0.5 -0.5 
C 0.367398 -0.632602 0.187527 -0.707107 0 -0.707107 
C -0.187527 -0.707107 -0.367398 -0.632602 -0.5 -0.5 
C -0.632602 -0.367398 -0.707107 -0.187527 -0.707107 0 
C -0.707107 0.187527 -0.632602 0.367398 -0.5 0.5 
C -0.367398 0.632602 -0.187527 0.707107 0 0.707107 
z
" id="m06f9bf3395" style="stroke:#1f77b4;"/>
    </defs>
    <g clip-path="url(#p6339a7a347)">
     <use style="fill:#1f77b4;stroke:#1f77b4;" x="131.402707" xlink:href="#m06f9bf3395" y="47.742348"/>
     <use style="fill:#1f77b4;stroke:#1f77b4;" x="131.415755" xlink:href="#m06f9bf3395" y="59.509069"/>
     <use style="fill:#1f77b4;stroke:#1f77b4;" x="83.429762" xlink:href="#m06f9bf3395" y="72.889725"/>
     <use style="fill:#1f77b4;stroke:#1f77b4;" x="83.44281" xlink:href="#m06f9bf3395" y="76.531195"/>
     <use style="fill:#1f77b4;stroke:#1f77b4;" x="74.036657" xlink:href="#m06f9bf3395" y="46.409143"/>
     <use style="fill:#1f77b4;stroke:#1f77b4;" x="89.457697" xlink:href="#m06f9bf3395" y="84.690962"/>
     <use style="fill:#1f77b4;stroke:#1f77b4;" x="89.548369" xlink:href="#m06f9bf3395" y="83.801423"/>
     <use style="fill:#1f77b4;stroke:#1f77b4;" x="70.864906" xlink:href="#m06f9bf3395" y="47.424071"/>
     <use style="fill:#1f77b4;stroke:#1f77b4;" x="99.016066" xlink:href="#m06f9bf3395" y="91.705962"/>
     <use style="fill:#1f77b4;stroke:#1f77b4;" x="99.028787" xlink:href="#m06f9bf3395" y="103.605551"/>
     <use style="fill:#1f77b4;stroke:#1f77b4;" x="87.746522" xlink:href="#m06f9bf3395" y="92.416073"/>
     <use style="fill:#1f77b4;stroke:#1f77b4;" x="87.759567" xlink:href="#m06f9bf3395" y="96.274517"/>
     <use style="fill:#1f77b4;stroke:#1f77b4;" x="74.993895" xlink:href="#m06f9bf3395" y="68.216797"/>
     <use style="fill:#1f77b4;stroke:#1f77b4;" x="75.006942" xlink:href="#m06f9bf3395" y="65.843948"/>
     <use style="fill:#1f77b4;stroke:#1f77b4;" x="102.898145" xlink:href="#m06f9bf3395" y="103.626567"/>
     <use style="fill:#1f77b4;stroke:#1f77b4;" x="102.91119" xlink:href="#m06f9bf3395" y="101.622292"/>
     <use style="fill:#1f77b4;stroke:#1f77b4;" x="64.363636" xlink:href="#m06f9bf3395" y="57.801307"/>
     <use style="fill:#1f77b4;stroke:#1f77b4;" x="64.376357" xlink:href="#m06f9bf3395" y="61.033665"/>
     <use style="fill:#1f77b4;stroke:#1f77b4;" x="91.329504" xlink:href="#m06f9bf3395" y="98.267535"/>
     <use style="fill:#1f77b4;stroke:#1f77b4;" x="91.342552" xlink:href="#m06f9bf3395" y="108.340741"/>
     <use style="fill:#1f77b4;stroke:#1f77b4;" x="119.483598" xlink:href="#m06f9bf3395" y="71.231474"/>
     <use style="fill:#1f77b4;stroke:#1f77b4;" x="119.496319" xlink:href="#m06f9bf3395" y="80.77923"/>
     <use style="fill:#1f77b4;stroke:#1f77b4;" x="100.43486" xlink:href="#m06f9bf3395" y="106.675012"/>
     <use style="fill:#1f77b4;stroke:#1f77b4;" x="91.427321" xlink:href="#m06f9bf3395" y="106.241145"/>
     <use style="fill:#1f77b4;stroke:#1f77b4;" x="119.479978" xlink:href="#m06f9bf3395" y="87.517238"/>
     <use style="fill:#1f77b4;stroke:#1f77b4;" x="79.446733" xlink:href="#m06f9bf3395" y="70.527345"/>
     <use style="fill:#1f77b4;stroke:#1f77b4;" x="107.575712" xlink:href="#m06f9bf3395" y="92.777918"/>
     <use style="fill:#1f77b4;stroke:#1f77b4;" x="67.654669" xlink:href="#m06f9bf3395" y="60.643326"/>
     <use style="fill:#1f77b4;stroke:#1f77b4;" x="65.144744" xlink:href="#m06f9bf3395" y="66.81456"/>
     <use style="fill:#1f77b4;stroke:#1f77b4;" x="108.447236" xlink:href="#m06f9bf3395" y="99.26066"/>
     <use style="fill:#1f77b4;stroke:#1f77b4;" x="72.519131" xlink:href="#m06f9bf3395" y="84.597135"/>
     <use style="fill:#1f77b4;stroke:#1f77b4;" x="101.219882" xlink:href="#m06f9bf3395" y="116.938901"/>
     <use style="fill:#1f77b4;stroke:#1f77b4;" x="93.243356" xlink:href="#m06f9bf3395" y="130.276029"/>
     <use style="fill:#1f77b4;stroke:#1f77b4;" x="110.104747" xlink:href="#m06f9bf3395" y="123.104113"/>
     <use style="fill:#1f77b4;stroke:#1f77b4;" x="71.816797" xlink:href="#m06f9bf3395" y="89.741438"/>
     <use style="fill:#1f77b4;stroke:#1f77b4;" x="116.318894" xlink:href="#m06f9bf3395" y="100.061646"/>
     <use style="fill:#1f77b4;stroke:#1f77b4;" x="125.035134" xlink:href="#m06f9bf3395" y="87.314552"/>
     <use style="fill:#1f77b4;stroke:#1f77b4;" x="131.355456" xlink:href="#m06f9bf3395" y="85.173631"/>
     <use style="fill:#1f77b4;stroke:#1f77b4;" x="73.299493" xlink:href="#m06f9bf3395" y="87.197426"/>
     <use style="fill:#1f77b4;stroke:#1f77b4;" x="117.895495" xlink:href="#m06f9bf3395" y="119.893519"/>
     <use style="fill:#1f77b4;stroke:#1f77b4;" x="117.908216" xlink:href="#m06f9bf3395" y="111.456013"/>
     <use style="fill:#1f77b4;stroke:#1f77b4;" x="77.136202" xlink:href="#m06f9bf3395" y="94.135878"/>
     <use style="fill:#1f77b4;stroke:#1f77b4;" x="77.148923" xlink:href="#m06f9bf3395" y="101.023993"/>
     <use style="fill:#1f77b4;stroke:#1f77b4;" x="104.101743" xlink:href="#m06f9bf3395" y="145.152"/>
     <use style="fill:#1f77b4;stroke:#1f77b4;" x="104.114464" xlink:href="#m06f9bf3395" y="138.961993"/>
    </g>
   </g>
   <g id="PathCollection_2">
    <g clip-path="url(#p6339a7a347)">
     <use style="fill:#1f77b4;stroke:#1f77b4;" x="199.623316" xlink:href="#m06f9bf3395" y="47.742348"/>
     <use style="fill:#1f77b4;stroke:#1f77b4;" x="199.636364" xlink:href="#m06f9bf3395" y="59.509069"/>
     <use style="fill:#1f77b4;stroke:#1f77b4;" x="151.650371" xlink:href="#m06f9bf3395" y="72.889725"/>
     <use style="fill:#1f77b4;stroke:#1f77b4;" x="151.663418" xlink:href="#m06f9bf3395" y="76.531195"/>
     <use style="fill:#1f77b4;stroke:#1f77b4;" x="142.257265" xlink:href="#m06f9bf3395" y="46.409143"/>
     <use style="fill:#1f77b4;stroke:#1f77b4;" x="157.678305" xlink:href="#m06f9bf3395" y="84.690962"/>
     <use style="fill:#1f77b4;stroke:#1f77b4;" x="157.768977" xlink:href="#m06f9bf3395" y="83.801423"/>
     <use style="fill:#1f77b4;stroke:#1f77b4;" x="139.085515" xlink:href="#m06f9bf3395" y="47.424071"/>
     <use style="fill:#1f77b4;stroke:#1f77b4;" x="167.236674" xlink:href="#m06f9bf3395" y="91.705962"/>
     <use style="fill:#1f77b4;stroke:#1f77b4;" x="167.249395" xlink:href="#m06f9bf3395" y="103.605551"/>
     <use style="fill:#1f77b4;stroke:#1f77b4;" x="155.967131" xlink:href="#m06f9bf3395" y="92.416073"/>
     <use style="fill:#1f77b4;stroke:#1f77b4;" x="155.980176" xlink:href="#m06f9bf3395" y="96.274517"/>
     <use style="fill:#1f77b4;stroke:#1f77b4;" x="143.214503" xlink:href="#m06f9bf3395" y="68.216797"/>
     <use style="fill:#1f77b4;stroke:#1f77b4;" x="143.227551" xlink:href="#m06f9bf3395" y="65.843948"/>
     <use style="fill:#1f77b4;stroke:#1f77b4;" x="171.118754" xlink:href="#m06f9bf3395" y="103.626567"/>
     <use style="fill:#1f77b4;stroke:#1f77b4;" x="171.131799" xlink:href="#m06f9bf3395" y="101.622292"/>
     <use style="fill:#1f77b4;stroke:#1f77b4;" x="132.584245" xlink:href="#m06f9bf3395" y="57.801307"/>
     <use style="fill:#1f77b4;stroke:#1f77b4;" x="132.596966" xlink:href="#m06f9bf3395" y="61.033665"/>
     <use style="fill:#1f77b4;stroke:#1f77b4;" x="159.550113" xlink:href="#m06f9bf3395" y="98.267535"/>
     <use style="fill:#1f77b4;stroke:#1f77b4;" x="159.563161" xlink:href="#m06f9bf3395" y="108.340741"/>
     <use style="fill:#1f77b4;stroke:#1f77b4;" x="187.704206" xlink:href="#m06f9bf3395" y="71.231474"/>
     <use style="fill:#1f77b4;stroke:#1f77b4;" x="187.716927" xlink:href="#m06f9bf3395" y="80.77923"/>
     <use style="fill:#1f77b4;stroke:#1f77b4;" x="168.655468" xlink:href="#m06f9bf3395" y="106.675012"/>
     <use style="fill:#1f77b4;stroke:#1f77b4;" x="159.64793" xlink:href="#m06f9bf3395" y="106.241145"/>
     <use style="fill:#1f77b4;stroke:#1f77b4;" x="187.700586" xlink:href="#m06f9bf3395" y="87.517238"/>
     <use style="fill:#1f77b4;stroke:#1f77b4;" x="147.667342" xlink:href="#m06f9bf3395" y="70.527345"/>
     <use style="fill:#1f77b4;stroke:#1f77b4;" x="175.79632" xlink:href="#m06f9bf3395" y="92.777918"/>
     <use style="fill:#1f77b4;stroke:#1f77b4;" x="135.875277" xlink:href="#m06f9bf3395" y="60.643326"/>
     <use style="fill:#1f77b4;stroke:#1f77b4;" x="133.365353" xlink:href="#m06f9bf3395" y="66.81456"/>
     <use style="fill:#1f77b4;stroke:#1f77b4;" x="176.667844" xlink:href="#m06f9bf3395" y="99.26066"/>
     <use style="fill:#1f77b4;stroke:#1f77b4;" x="140.739739" xlink:href="#m06f9bf3395" y="84.597135"/>
     <use style="fill:#1f77b4;stroke:#1f77b4;" x="169.44049" xlink:href="#m06f9bf3395" y="116.938901"/>
     <use style="fill:#1f77b4;stroke:#1f77b4;" x="161.463965" xlink:href="#m06f9bf3395" y="130.276029"/>
     <use style="fill:#1f77b4;stroke:#1f77b4;" x="178.325356" xlink:href="#m06f9bf3395" y="123.104113"/>
     <use style="fill:#1f77b4;stroke:#1f77b4;" x="140.037406" xlink:href="#m06f9bf3395" y="89.741438"/>
     <use style="fill:#1f77b4;stroke:#1f77b4;" x="184.539503" xlink:href="#m06f9bf3395" y="100.061646"/>
     <use style="fill:#1f77b4;stroke:#1f77b4;" x="193.255743" xlink:href="#m06f9bf3395" y="87.314552"/>
     <use style="fill:#1f77b4;stroke:#1f77b4;" x="199.576065" xlink:href="#m06f9bf3395" y="85.173631"/>
     <use style="fill:#1f77b4;stroke:#1f77b4;" x="141.520101" xlink:href="#m06f9bf3395" y="87.197426"/>
     <use style="fill:#1f77b4;stroke:#1f77b4;" x="186.116104" xlink:href="#m06f9bf3395" y="119.893519"/>
     <use style="fill:#1f77b4;stroke:#1f77b4;" x="186.128824" xlink:href="#m06f9bf3395" y="111.456013"/>
     <use style="fill:#1f77b4;stroke:#1f77b4;" x="145.35681" xlink:href="#m06f9bf3395" y="94.135878"/>
     <use style="fill:#1f77b4;stroke:#1f77b4;" x="145.369531" xlink:href="#m06f9bf3395" y="101.023993"/>
     <use style="fill:#1f77b4;stroke:#1f77b4;" x="172.322352" xlink:href="#m06f9bf3395" y="145.152"/>
     <use style="fill:#1f77b4;stroke:#1f77b4;" x="172.335072" xlink:href="#m06f9bf3395" y="138.961993"/>
    </g>
   </g>
   <g id="matplotlib.axis_3">
    <g id="xtick_19">
     <g id="line2d_28">
      <g>
       <use style="stroke:#000000;stroke-width:0.8;" x="63.789346" xlink:href="#mfdf1b5561e" y="150.089143"/>
      </g>
     </g>
     <g id="text_14">
      <!-- 0 -->
      <g transform="translate(60.608096 164.68758)scale(0.1 -0.1)">
       <use xlink:href="#DejaVuSerif-48"/>
      </g>
     </g>
    </g>
    <g id="xtick_20">
     <g id="line2d_29">
      <g>
       <use style="stroke:#000000;stroke-width:0.8;" x="132.009955" xlink:href="#mfdf1b5561e" y="150.089143"/>
      </g>
     </g>
     <g id="text_15">
      <!-- 1 -->
      <g transform="translate(128.828705 164.68758)scale(0.1 -0.1)">
       <use xlink:href="#DejaVuSerif-49"/>
      </g>
     </g>
    </g>
    <g id="xtick_21">
     <g id="line2d_30">
      <g>
       <use style="stroke:#000000;stroke-width:0.8;" x="200.230563" xlink:href="#mfdf1b5561e" y="150.089143"/>
      </g>
     </g>
     <g id="text_16">
      <!-- 2 -->
      <g transform="translate(197.049313 164.68758)scale(0.1 -0.1)">
       <use xlink:href="#DejaVuSerif-50"/>
      </g>
     </g>
    </g>
    <g id="text_17">
     <!-- Phase (P = 2.421 d) -->
     <g transform="translate(81.582812 178.365705)scale(0.1 -0.1)">
      <defs>
       <path d="M 4.109375 0 
L 4.109375 5.171875 
L 12.203125 5.171875 
L 12.203125 70.796875 
L 3.609375 70.796875 
L 3.609375 75.984375 
L 21.1875 75.984375 
L 21.1875 42.671875 
Q 23.6875 47.953125 27.65625 50.640625 
Q 31.640625 53.328125 36.921875 53.328125 
Q 45.515625 53.328125 49.5625 48.390625 
Q 53.609375 43.453125 53.609375 33.015625 
L 53.609375 5.171875 
L 61.625 5.171875 
L 61.625 0 
L 36.8125 0 
L 36.8125 5.171875 
L 44.578125 5.171875 
L 44.578125 30.171875 
Q 44.578125 39.703125 42.25 43.1875 
Q 39.9375 46.6875 33.984375 46.6875 
Q 27.734375 46.6875 24.453125 42.140625 
Q 21.1875 37.59375 21.1875 28.90625 
L 21.1875 5.171875 
L 29 5.171875 
L 29 0 
z
" id="DejaVuSerif-104"/>
       <path d="M 5.609375 2.875 
L 5.609375 14.984375 
L 10.796875 14.984375 
Q 10.984375 9.1875 14.421875 6.296875 
Q 17.875 3.421875 24.609375 3.421875 
Q 30.671875 3.421875 33.84375 5.6875 
Q 37.015625 7.953125 37.015625 12.3125 
Q 37.015625 15.71875 34.6875 17.8125 
Q 32.375 19.921875 24.90625 22.3125 
L 18.40625 24.515625 
Q 11.71875 26.65625 8.71875 29.875 
Q 5.71875 33.109375 5.71875 38.09375 
Q 5.71875 45.21875 10.9375 49.265625 
Q 16.15625 53.328125 25.390625 53.328125 
Q 29.5 53.328125 34.03125 52.25 
Q 38.578125 51.171875 43.40625 49.125 
L 43.40625 37.796875 
L 38.234375 37.796875 
Q 38.03125 42.828125 34.703125 45.65625 
Q 31.390625 48.484375 25.6875 48.484375 
Q 20.015625 48.484375 17.109375 46.484375 
Q 14.203125 44.484375 14.203125 40.484375 
Q 14.203125 37.203125 16.40625 35.21875 
Q 18.609375 33.25 25.203125 31.203125 
L 32.328125 29 
Q 39.703125 26.703125 42.9375 23.265625 
Q 46.1875 19.828125 46.1875 14.40625 
Q 46.1875 7.03125 40.546875 2.796875 
Q 34.90625 -1.421875 25 -1.421875 
Q 19.96875 -1.421875 15.1875 -0.34375 
Q 10.40625 0.734375 5.609375 2.875 
z
" id="DejaVuSerif-115"/>
       <path d="M 31.890625 -15.578125 
Q 20.015625 -10.25 13.953125 1.296875 
Q 7.90625 12.84375 7.90625 30.171875 
Q 7.90625 47.5625 13.953125 59.109375 
Q 20.015625 70.65625 31.890625 75.984375 
L 31.890625 71.1875 
Q 24.359375 66.015625 21.09375 56.609375 
Q 17.828125 47.21875 17.828125 30.171875 
Q 17.828125 13.1875 21.09375 3.78125 
Q 24.359375 -5.609375 31.890625 -10.796875 
z
" id="DejaVuSerif-40"/>
       <path d="M 10.59375 45.21875 
L 73.1875 45.21875 
L 73.1875 37.40625 
L 10.59375 37.40625 
z
M 10.59375 25.296875 
L 73.1875 25.296875 
L 73.1875 17.484375 
L 10.59375 17.484375 
z
" id="DejaVuSerif-61"/>
       <path d="M 7.078125 -15.578125 
L 7.078125 -10.796875 
Q 14.59375 -5.609375 17.890625 3.78125 
Q 21.1875 13.1875 21.1875 30.171875 
Q 21.1875 47.21875 17.890625 56.609375 
Q 14.59375 66.015625 7.078125 71.1875 
L 7.078125 75.984375 
Q 19 70.65625 25.046875 59.109375 
Q 31.109375 47.5625 31.109375 30.171875 
Q 31.109375 12.84375 25.046875 1.296875 
Q 19 -10.25 7.078125 -15.578125 
z
" id="DejaVuSerif-41"/>
      </defs>
      <use xlink:href="#DejaVuSerif-80"/>
      <use x="67.285156" xlink:href="#DejaVuSerif-104"/>
      <use x="131.689453" xlink:href="#DejaVuSerif-97"/>
      <use x="191.308594" xlink:href="#DejaVuSerif-115"/>
      <use x="242.626953" xlink:href="#DejaVuSerif-101"/>
      <use x="301.806641" xlink:href="#DejaVuSerif-32"/>
      <use x="333.59375" xlink:href="#DejaVuSerif-40"/>
      <use x="372.607422" xlink:href="#DejaVuSerif-80"/>
      <use x="439.892578" xlink:href="#DejaVuSerif-32"/>
      <use x="471.679688" xlink:href="#DejaVuSerif-61"/>
      <use x="555.46875" xlink:href="#DejaVuSerif-32"/>
      <use x="587.255859" xlink:href="#DejaVuSerif-50"/>
      <use x="650.878906" xlink:href="#DejaVuSerif-46"/>
      <use x="682.666016" xlink:href="#DejaVuSerif-52"/>
      <use x="746.289062" xlink:href="#DejaVuSerif-50"/>
      <use x="809.912109" xlink:href="#DejaVuSerif-49"/>
      <use x="873.535156" xlink:href="#DejaVuSerif-32"/>
      <use x="905.322266" xlink:href="#DejaVuSerif-100"/>
      <use x="969.335938" xlink:href="#DejaVuSerif-41"/>
     </g>
    </g>
   </g>
   <g id="matplotlib.axis_4">
    <g id="ytick_5">
     <g id="line2d_31">
      <g>
       <use style="stroke:#000000;stroke-width:0.8;" x="57.6" xlink:href="#m668d89d74e" y="77.023192"/>
      </g>
     </g>
     <g id="text_18">
      <!-- 16.8 -->
      <g transform="translate(28.334375 80.822411)scale(0.1 -0.1)">
       <defs>
        <path d="M 46.578125 19.921875 
Q 46.578125 27.734375 42.6875 32.046875 
Q 38.8125 36.375 31.78125 36.375 
Q 24.75 36.375 20.875 32.046875 
Q 17 27.734375 17 19.921875 
Q 17 12.0625 20.875 7.734375 
Q 24.75 3.421875 31.78125 3.421875 
Q 38.8125 3.421875 42.6875 7.734375 
Q 46.578125 12.0625 46.578125 19.921875 
z
M 44.578125 55.328125 
Q 44.578125 61.96875 41.203125 65.671875 
Q 37.84375 69.390625 31.78125 69.390625 
Q 25.78125 69.390625 22.390625 65.671875 
Q 19 61.96875 19 55.328125 
Q 19 48.640625 22.390625 44.921875 
Q 25.78125 41.21875 31.78125 41.21875 
Q 37.84375 41.21875 41.203125 44.921875 
Q 44.578125 48.640625 44.578125 55.328125 
z
M 39.3125 38.8125 
Q 47.609375 37.703125 52.25 32.6875 
Q 56.890625 27.6875 56.890625 19.921875 
Q 56.890625 9.671875 50.390625 4.125 
Q 43.890625 -1.421875 31.78125 -1.421875 
Q 19.734375 -1.421875 13.203125 4.125 
Q 6.6875 9.671875 6.6875 19.921875 
Q 6.6875 27.6875 11.328125 32.6875 
Q 15.96875 37.703125 24.3125 38.8125 
Q 16.9375 40.140625 13 44.40625 
Q 9.078125 48.6875 9.078125 55.328125 
Q 9.078125 64.109375 15.125 69.15625 
Q 21.1875 74.21875 31.78125 74.21875 
Q 42.390625 74.21875 48.4375 69.15625 
Q 54.5 64.109375 54.5 55.328125 
Q 54.5 48.6875 50.5625 44.40625 
Q 46.625 40.140625 39.3125 38.8125 
z
" id="DejaVuSerif-56"/>
       </defs>
       <use xlink:href="#DejaVuSerif-49"/>
       <use x="63.623047" xlink:href="#DejaVuSerif-54"/>
       <use x="127.246094" xlink:href="#DejaVuSerif-46"/>
       <use x="159.033203" xlink:href="#DejaVuSerif-56"/>
      </g>
     </g>
    </g>
    <g id="ytick_6">
     <g id="line2d_32">
      <g>
       <use style="stroke:#000000;stroke-width:0.8;" x="57.6" xlink:href="#m668d89d74e" y="116.379801"/>
      </g>
     </g>
     <g id="text_19">
      <!-- 16.9 -->
      <g transform="translate(28.334375 120.179019)scale(0.1 -0.1)">
       <use xlink:href="#DejaVuSerif-49"/>
       <use x="63.623047" xlink:href="#DejaVuSerif-54"/>
       <use x="127.246094" xlink:href="#DejaVuSerif-46"/>
       <use x="159.033203" xlink:href="#DejaVuSerif-57"/>
      </g>
     </g>
    </g>
    <g id="text_20">
     <!-- Mag -->
     <g transform="translate(22.1125 107.082134)rotate(-90)scale(0.1 -0.1)">
      <defs>
       <path d="M 5.515625 0 
L 5.515625 5.171875 
L 14.796875 5.171875 
L 14.796875 67.671875 
L 4.984375 67.671875 
L 4.984375 72.90625 
L 26.21875 72.90625 
L 51.8125 21 
L 77.390625 72.90625 
L 97.3125 72.90625 
L 97.3125 67.671875 
L 87.59375 67.671875 
L 87.59375 5.171875 
L 96.921875 5.171875 
L 96.921875 0 
L 68.40625 0 
L 68.40625 5.171875 
L 77.6875 5.171875 
L 77.6875 61.53125 
L 52.6875 10.6875 
L 45.796875 10.6875 
L 20.796875 61.53125 
L 20.796875 5.171875 
L 30.078125 5.171875 
L 30.078125 0 
z
" id="DejaVuSerif-77"/>
      </defs>
      <use xlink:href="#DejaVuSerif-77"/>
      <use x="102.392578" xlink:href="#DejaVuSerif-97"/>
      <use x="162.011719" xlink:href="#DejaVuSerif-103"/>
     </g>
    </g>
   </g>
   <g id="patch_9">
    <path d="M 57.6 150.089143 
L 57.6 41.472 
" style="fill:none;stroke:#000000;stroke-linecap:square;stroke-linejoin:miter;stroke-width:0.8;"/>
   </g>
   <g id="patch_10">
    <path d="M 206.4 150.089143 
L 206.4 41.472 
" style="fill:none;stroke:#000000;stroke-linecap:square;stroke-linejoin:miter;stroke-width:0.8;"/>
   </g>
   <g id="patch_11">
    <path d="M 57.6 150.089143 
L 206.4 150.089143 
" style="fill:none;stroke:#000000;stroke-linecap:square;stroke-linejoin:miter;stroke-width:0.8;"/>
   </g>
   <g id="patch_12">
    <path d="M 57.6 41.472 
L 206.4 41.472 
" style="fill:none;stroke:#000000;stroke-linecap:square;stroke-linejoin:miter;stroke-width:0.8;"/>
   </g>
   <g id="text_21">
    <!-- Folded Light Curve -->
    <g transform="translate(83.086719 35.472)scale(0.1 -0.1)">
     <defs>
      <path d="M 20.515625 5.171875 
L 29 5.171875 
L 29 0 
L 2.875 0 
L 2.875 5.171875 
L 11.53125 5.171875 
L 11.53125 70.796875 
L 2.875 70.796875 
L 2.875 75.984375 
L 20.515625 75.984375 
z
" id="DejaVuSerif-108"/>
      <path d="M 5.515625 0 
L 5.515625 5.171875 
L 14.796875 5.171875 
L 14.796875 67.671875 
L 5.515625 67.671875 
L 5.515625 72.90625 
L 33.984375 72.90625 
L 33.984375 67.671875 
L 24.703125 67.671875 
L 24.703125 6 
L 58.015625 6 
L 58.015625 18.21875 
L 64.015625 18.21875 
L 64.015625 0 
z
" id="DejaVuSerif-76"/>
      <path d="M 10.796875 46.6875 
L 2.875 46.6875 
L 2.875 51.90625 
L 10.796875 51.90625 
L 10.796875 68.015625 
L 19.828125 68.015625 
L 19.828125 51.90625 
L 36.71875 51.90625 
L 36.71875 46.6875 
L 19.828125 46.6875 
L 19.828125 13.71875 
Q 19.828125 7.125 21.09375 5.265625 
Q 22.359375 3.421875 25.78125 3.421875 
Q 29.296875 3.421875 30.90625 5.484375 
Q 32.515625 7.5625 32.625 12.203125 
L 39.40625 12.203125 
Q 39.015625 5.125 35.546875 1.84375 
Q 32.078125 -1.421875 25 -1.421875 
Q 17.234375 -1.421875 14.015625 2.015625 
Q 10.796875 5.46875 10.796875 13.71875 
z
" id="DejaVuSerif-116"/>
      <path d="M 70.515625 19.28125 
Q 67.28125 9.078125 59.6875 3.828125 
Q 52.09375 -1.421875 40.484375 -1.421875 
Q 33.34375 -1.421875 27.234375 1.015625 
Q 21.140625 3.46875 16.40625 8.203125 
Q 10.9375 13.671875 8.265625 20.625 
Q 5.609375 27.59375 5.609375 36.375 
Q 5.609375 53.375 15.421875 63.796875 
Q 25.25 74.21875 41.3125 74.21875 
Q 47.265625 74.21875 54 72.65625 
Q 60.75 71.09375 68.5 67.921875 
L 68.5 51.125 
L 62.984375 51.125 
Q 61.1875 60.296875 55.734375 64.640625 
Q 50.296875 69 40.484375 69 
Q 28.8125 69 22.796875 60.71875 
Q 16.796875 52.4375 16.796875 36.375 
Q 16.796875 20.359375 22.796875 12.078125 
Q 28.8125 3.8125 40.484375 3.8125 
Q 48.640625 3.8125 53.90625 7.6875 
Q 59.1875 11.578125 61.53125 19.28125 
z
" id="DejaVuSerif-67"/>
      <path d="M 35.40625 51.90625 
L 52.203125 51.90625 
L 52.203125 5.171875 
L 60.6875 5.171875 
L 60.6875 0 
L 43.21875 0 
L 43.21875 9.1875 
Q 40.71875 4 36.765625 1.28125 
Q 32.8125 -1.421875 27.59375 -1.421875 
Q 18.953125 -1.421875 14.875 3.484375 
Q 10.796875 8.40625 10.796875 18.890625 
L 10.796875 46.6875 
L 2.6875 46.6875 
L 2.6875 51.90625 
L 19.828125 51.90625 
L 19.828125 21.6875 
Q 19.828125 12.203125 22.140625 8.6875 
Q 24.46875 5.171875 30.421875 5.171875 
Q 36.671875 5.171875 39.9375 9.765625 
Q 43.21875 14.359375 43.21875 23.09375 
L 43.21875 46.6875 
L 35.40625 46.6875 
z
" id="DejaVuSerif-117"/>
      <path d="M 24.703125 0 
L 5.609375 46.6875 
L -0.296875 46.6875 
L -0.296875 51.90625 
L 23.578125 51.90625 
L 23.578125 46.6875 
L 15.28125 46.6875 
L 29.890625 10.984375 
L 44.484375 46.6875 
L 36.71875 46.6875 
L 36.71875 51.90625 
L 56.203125 51.90625 
L 56.203125 46.6875 
L 50.390625 46.6875 
L 31.296875 0 
z
" id="DejaVuSerif-118"/>
     </defs>
     <use xlink:href="#DejaVuSerif-70"/>
     <use x="63.884766" xlink:href="#DejaVuSerif-111"/>
     <use x="124.089844" xlink:href="#DejaVuSerif-108"/>
     <use x="156.072266" xlink:href="#DejaVuSerif-100"/>
     <use x="220.085938" xlink:href="#DejaVuSerif-101"/>
     <use x="279.265625" xlink:href="#DejaVuSerif-100"/>
     <use x="343.279297" xlink:href="#DejaVuSerif-32"/>
     <use x="375.066406" xlink:href="#DejaVuSerif-76"/>
     <use x="441.472656" xlink:href="#DejaVuSerif-105"/>
     <use x="473.455078" xlink:href="#DejaVuSerif-103"/>
     <use x="537.46875" xlink:href="#DejaVuSerif-104"/>
     <use x="601.873047" xlink:href="#DejaVuSerif-116"/>
     <use x="642.058594" xlink:href="#DejaVuSerif-32"/>
     <use x="673.845703" xlink:href="#DejaVuSerif-67"/>
     <use x="750.359375" xlink:href="#DejaVuSerif-117"/>
     <use x="814.763672" xlink:href="#DejaVuSerif-114"/>
     <use x="862.566406" xlink:href="#DejaVuSerif-118"/>
     <use x="919.060547" xlink:href="#DejaVuSerif-101"/>
    </g>
   </g>
  </g>
  <g id="axes_3">
   <g id="patch_13">
    <path d="M 57.6 307.584 
L 414.72 307.584 
L 414.72 198.966857 
L 57.6 198.966857 
z
" style="fill:#ffffff;"/>
   </g>
   <g id="PathCollection_3">
    <g clip-path="url(#p95bb65a183)">
     <use style="fill:#1f77b4;stroke:#1f77b4;" x="73.832727" xlink:href="#m06f9bf3395" y="211.310794"/>
     <use style="fill:#1f77b4;stroke:#1f77b4;" x="73.833119" xlink:href="#m06f9bf3395" y="221.53296"/>
     <use style="fill:#1f77b4;stroke:#1f77b4;" x="94.910293" xlink:href="#m06f9bf3395" y="233.15721"/>
     <use style="fill:#1f77b4;stroke:#1f77b4;" x="94.910684" xlink:href="#m06f9bf3395" y="236.320683"/>
     <use style="fill:#1f77b4;stroke:#1f77b4;" x="96.675449" xlink:href="#m06f9bf3395" y="210.152592"/>
     <use style="fill:#1f77b4;stroke:#1f77b4;" x="99.185169" xlink:href="#m06f9bf3395" y="243.409361"/>
     <use style="fill:#1f77b4;stroke:#1f77b4;" x="99.18789" xlink:href="#m06f9bf3395" y="242.636588"/>
     <use style="fill:#1f77b4;stroke:#1f77b4;" x="121.144305" xlink:href="#m06f9bf3395" y="211.034296"/>
     <use style="fill:#1f77b4;stroke:#1f77b4;" x="121.988998" xlink:href="#m06f9bf3395" y="249.50354"/>
     <use style="fill:#1f77b4;stroke:#1f77b4;" x="121.98938" xlink:href="#m06f9bf3395" y="259.841133"/>
     <use style="fill:#1f77b4;stroke:#1f77b4;" x="123.69785" xlink:href="#m06f9bf3395" y="250.120438"/>
     <use style="fill:#1f77b4;stroke:#1f77b4;" x="123.698242" xlink:href="#m06f9bf3395" y="253.472404"/>
     <use style="fill:#1f77b4;stroke:#1f77b4;" x="125.362202" xlink:href="#m06f9bf3395" y="229.097672"/>
     <use style="fill:#1f77b4;stroke:#1f77b4;" x="125.362594" xlink:href="#m06f9bf3395" y="227.036294"/>
     <use style="fill:#1f77b4;stroke:#1f77b4;" x="126.199487" xlink:href="#m06f9bf3395" y="259.859391"/>
     <use style="fill:#1f77b4;stroke:#1f77b4;" x="126.199878" xlink:href="#m06f9bf3395" y="258.118206"/>
     <use style="fill:#1f77b4;stroke:#1f77b4;" x="127.090237" xlink:href="#m06f9bf3395" y="220.049367"/>
     <use style="fill:#1f77b4;stroke:#1f77b4;" x="127.090618" xlink:href="#m06f9bf3395" y="222.857431"/>
     <use style="fill:#1f77b4;stroke:#1f77b4;" x="127.899364" xlink:href="#m06f9bf3395" y="255.20381"/>
     <use style="fill:#1f77b4;stroke:#1f77b4;" x="127.899756" xlink:href="#m06f9bf3395" y="263.95476"/>
     <use style="fill:#1f77b4;stroke:#1f77b4;" x="128.744146" xlink:href="#m06f9bf3395" y="231.716628"/>
     <use style="fill:#1f77b4;stroke:#1f77b4;" x="128.744527" xlink:href="#m06f9bf3395" y="240.011101"/>
     <use style="fill:#1f77b4;stroke:#1f77b4;" x="136.360585" xlink:href="#m06f9bf3395" y="262.507682"/>
     <use style="fill:#1f77b4;stroke:#1f77b4;" x="142.231315" xlink:href="#m06f9bf3395" y="262.130766"/>
     <use style="fill:#1f77b4;stroke:#1f77b4;" x="143.073052" xlink:href="#m06f9bf3395" y="245.864647"/>
     <use style="fill:#1f77b4;stroke:#1f77b4;" x="143.918832" xlink:href="#m06f9bf3395" y="231.104926"/>
     <use style="fill:#1f77b4;stroke:#1f77b4;" x="144.76286" xlink:href="#m06f9bf3395" y="250.434786"/>
     <use style="fill:#1f77b4;stroke:#1f77b4;" x="145.612006" xlink:href="#m06f9bf3395" y="222.51833"/>
     <use style="fill:#1f77b4;stroke:#1f77b4;" x="155.771705" xlink:href="#m06f9bf3395" y="227.879499"/>
     <use style="fill:#1f77b4;stroke:#1f77b4;" x="163.21203" xlink:href="#m06f9bf3395" y="256.066573"/>
     <use style="fill:#1f77b4;stroke:#1f77b4;" x="164.180987" xlink:href="#m06f9bf3395" y="243.327851"/>
     <use style="fill:#1f77b4;stroke:#1f77b4;" x="165.042171" xlink:href="#m06f9bf3395" y="271.424285"/>
     <use style="fill:#1f77b4;stroke:#1f77b4;" x="170.943837" xlink:href="#m06f9bf3395" y="283.01072"/>
     <use style="fill:#1f77b4;stroke:#1f77b4;" x="173.496775" xlink:href="#m06f9bf3395" y="276.780223"/>
     <use style="fill:#1f77b4;stroke:#1f77b4;" x="207.146958" xlink:href="#m06f9bf3395" y="247.796888"/>
     <use style="fill:#1f77b4;stroke:#1f77b4;" x="210.529274" xlink:href="#m06f9bf3395" y="256.762417"/>
     <use style="fill:#1f77b4;stroke:#1f77b4;" x="218.978819" xlink:href="#m06f9bf3395" y="245.688566"/>
     <use style="fill:#1f77b4;stroke:#1f77b4;" x="346.082599" xlink:href="#m06f9bf3395" y="243.828673"/>
     <use style="fill:#1f77b4;stroke:#1f77b4;" x="379.139631" xlink:href="#m06f9bf3395" y="245.586815"/>
     <use style="fill:#1f77b4;stroke:#1f77b4;" x="396.853779" xlink:href="#m06f9bf3395" y="273.991067"/>
     <use style="fill:#1f77b4;stroke:#1f77b4;" x="396.854161" xlink:href="#m06f9bf3395" y="266.661107"/>
     <use style="fill:#1f77b4;stroke:#1f77b4;" x="397.677773" xlink:href="#m06f9bf3395" y="251.614494"/>
     <use style="fill:#1f77b4;stroke:#1f77b4;" x="397.678155" xlink:href="#m06f9bf3395" y="257.598443"/>
     <use style="fill:#1f77b4;stroke:#1f77b4;" x="398.486891" xlink:href="#m06f9bf3395" y="295.934002"/>
     <use style="fill:#1f77b4;stroke:#1f77b4;" x="398.487273" xlink:href="#m06f9bf3395" y="290.556524"/>
    </g>
   </g>
   <g id="matplotlib.axis_5">
    <g id="xtick_22">
     <g id="line2d_33">
      <g>
       <use style="stroke:#000000;stroke-width:0.8;" x="97.996351" xlink:href="#mfdf1b5561e" y="307.584"/>
      </g>
     </g>
     <g id="text_22">
      <!-- 58300 -->
      <g transform="translate(82.090101 322.182437)scale(0.1 -0.1)">
       <defs>
        <path d="M 9.71875 69.828125 
Q 15.4375 71.96875 20.671875 73.09375 
Q 25.921875 74.21875 30.515625 74.21875 
Q 41.21875 74.21875 47.21875 69.59375 
Q 53.21875 64.984375 53.21875 56.78125 
Q 53.21875 50.203125 49.0625 45.78125 
Q 44.921875 41.359375 37.3125 39.796875 
Q 46.296875 38.53125 51.25 33.28125 
Q 56.203125 28.03125 56.203125 19.671875 
Q 56.203125 9.46875 49.34375 4.015625 
Q 42.484375 -1.421875 29.59375 -1.421875 
Q 23.875 -1.421875 18.421875 -0.1875 
Q 12.984375 1.03125 7.625 3.515625 
L 7.625 17.671875 
L 13.09375 17.671875 
Q 13.578125 10.640625 17.828125 7.03125 
Q 22.078125 3.421875 29.78125 3.421875 
Q 37.25 3.421875 41.578125 7.734375 
Q 45.90625 12.0625 45.90625 19.578125 
Q 45.90625 28.171875 41.453125 32.59375 
Q 37.015625 37.015625 28.421875 37.015625 
L 23.78125 37.015625 
L 23.78125 42 
L 26.21875 42 
Q 34.765625 42 39.03125 45.53125 
Q 43.3125 49.078125 43.3125 56.203125 
Q 43.3125 62.59375 39.796875 65.984375 
Q 36.28125 69.390625 29.6875 69.390625 
Q 23.09375 69.390625 19.453125 66.265625 
Q 15.828125 63.140625 15.1875 56.984375 
L 9.71875 56.984375 
z
" id="DejaVuSerif-51"/>
       </defs>
       <use xlink:href="#DejaVuSerif-53"/>
       <use x="63.623047" xlink:href="#DejaVuSerif-56"/>
       <use x="127.246094" xlink:href="#DejaVuSerif-51"/>
       <use x="190.869141" xlink:href="#DejaVuSerif-48"/>
       <use x="254.492188" xlink:href="#DejaVuSerif-48"/>
      </g>
     </g>
    </g>
    <g id="xtick_23">
     <g id="line2d_34">
      <g>
       <use style="stroke:#000000;stroke-width:0.8;" x="140.27554" xlink:href="#mfdf1b5561e" y="307.584"/>
      </g>
     </g>
     <g id="text_23">
      <!-- 58350 -->
      <g transform="translate(124.36929 322.182437)scale(0.1 -0.1)">
       <use xlink:href="#DejaVuSerif-53"/>
       <use x="63.623047" xlink:href="#DejaVuSerif-56"/>
       <use x="127.246094" xlink:href="#DejaVuSerif-51"/>
       <use x="190.869141" xlink:href="#DejaVuSerif-53"/>
       <use x="254.492188" xlink:href="#DejaVuSerif-48"/>
      </g>
     </g>
    </g>
    <g id="xtick_24">
     <g id="line2d_35">
      <g>
       <use style="stroke:#000000;stroke-width:0.8;" x="182.55473" xlink:href="#mfdf1b5561e" y="307.584"/>
      </g>
     </g>
     <g id="text_24">
      <!-- 58400 -->
      <g transform="translate(166.64848 322.182437)scale(0.1 -0.1)">
       <use xlink:href="#DejaVuSerif-53"/>
       <use x="63.623047" xlink:href="#DejaVuSerif-56"/>
       <use x="127.246094" xlink:href="#DejaVuSerif-52"/>
       <use x="190.869141" xlink:href="#DejaVuSerif-48"/>
       <use x="254.492188" xlink:href="#DejaVuSerif-48"/>
      </g>
     </g>
    </g>
    <g id="xtick_25">
     <g id="line2d_36">
      <g>
       <use style="stroke:#000000;stroke-width:0.8;" x="224.833919" xlink:href="#mfdf1b5561e" y="307.584"/>
      </g>
     </g>
     <g id="text_25">
      <!-- 58450 -->
      <g transform="translate(208.927669 322.182437)scale(0.1 -0.1)">
       <use xlink:href="#DejaVuSerif-53"/>
       <use x="63.623047" xlink:href="#DejaVuSerif-56"/>
       <use x="127.246094" xlink:href="#DejaVuSerif-52"/>
       <use x="190.869141" xlink:href="#DejaVuSerif-53"/>
       <use x="254.492188" xlink:href="#DejaVuSerif-48"/>
      </g>
     </g>
    </g>
    <g id="xtick_26">
     <g id="line2d_37">
      <g>
       <use style="stroke:#000000;stroke-width:0.8;" x="267.113108" xlink:href="#mfdf1b5561e" y="307.584"/>
      </g>
     </g>
     <g id="text_26">
      <!-- 58500 -->
      <g transform="translate(251.206858 322.182437)scale(0.1 -0.1)">
       <use xlink:href="#DejaVuSerif-53"/>
       <use x="63.623047" xlink:href="#DejaVuSerif-56"/>
       <use x="127.246094" xlink:href="#DejaVuSerif-53"/>
       <use x="190.869141" xlink:href="#DejaVuSerif-48"/>
       <use x="254.492188" xlink:href="#DejaVuSerif-48"/>
      </g>
     </g>
    </g>
    <g id="xtick_27">
     <g id="line2d_38">
      <g>
       <use style="stroke:#000000;stroke-width:0.8;" x="309.392298" xlink:href="#mfdf1b5561e" y="307.584"/>
      </g>
     </g>
     <g id="text_27">
      <!-- 58550 -->
      <g transform="translate(293.486048 322.182437)scale(0.1 -0.1)">
       <use xlink:href="#DejaVuSerif-53"/>
       <use x="63.623047" xlink:href="#DejaVuSerif-56"/>
       <use x="127.246094" xlink:href="#DejaVuSerif-53"/>
       <use x="190.869141" xlink:href="#DejaVuSerif-53"/>
       <use x="254.492188" xlink:href="#DejaVuSerif-48"/>
      </g>
     </g>
    </g>
    <g id="xtick_28">
     <g id="line2d_39">
      <g>
       <use style="stroke:#000000;stroke-width:0.8;" x="351.671487" xlink:href="#mfdf1b5561e" y="307.584"/>
      </g>
     </g>
     <g id="text_28">
      <!-- 58600 -->
      <g transform="translate(335.765237 322.182437)scale(0.1 -0.1)">
       <use xlink:href="#DejaVuSerif-53"/>
       <use x="63.623047" xlink:href="#DejaVuSerif-56"/>
       <use x="127.246094" xlink:href="#DejaVuSerif-54"/>
       <use x="190.869141" xlink:href="#DejaVuSerif-48"/>
       <use x="254.492188" xlink:href="#DejaVuSerif-48"/>
      </g>
     </g>
    </g>
    <g id="xtick_29">
     <g id="line2d_40">
      <g>
       <use style="stroke:#000000;stroke-width:0.8;" x="393.950677" xlink:href="#mfdf1b5561e" y="307.584"/>
      </g>
     </g>
     <g id="text_29">
      <!-- 58650 -->
      <g transform="translate(378.044427 322.182437)scale(0.1 -0.1)">
       <use xlink:href="#DejaVuSerif-53"/>
       <use x="63.623047" xlink:href="#DejaVuSerif-56"/>
       <use x="127.246094" xlink:href="#DejaVuSerif-54"/>
       <use x="190.869141" xlink:href="#DejaVuSerif-53"/>
       <use x="254.492188" xlink:href="#DejaVuSerif-48"/>
      </g>
     </g>
    </g>
    <g id="text_30">
     <!-- MJD -->
     <g transform="translate(225.027187 335.860562)scale(0.1 -0.1)">
      <defs>
       <path d="M -8.40625 -17.484375 
L -8.40625 -6 
L -2.828125 -6 
Q -2.6875 -10.84375 -0.53125 -13.203125 
Q 1.609375 -15.578125 5.90625 -15.578125 
Q 11.71875 -15.578125 14.015625 -11.90625 
Q 16.3125 -8.25 16.3125 2.390625 
L 16.3125 67.671875 
L 4.984375 67.671875 
L 4.984375 72.90625 
L 35.5 72.90625 
L 35.5 67.671875 
L 26.21875 67.671875 
L 26.21875 2 
Q 26.21875 -10.0625 21.375 -15.421875 
Q 16.546875 -20.796875 5.8125 -20.796875 
Q 2.34375 -20.796875 -1.234375 -19.96875 
Q -4.828125 -19.140625 -8.40625 -17.484375 
z
" id="DejaVuSerif-74"/>
       <path d="M 24.703125 5.171875 
L 33.796875 5.171875 
Q 48 5.171875 55.59375 13.28125 
Q 63.1875 21.390625 63.1875 36.53125 
Q 63.1875 51.65625 55.609375 59.65625 
Q 48.046875 67.671875 33.796875 67.671875 
L 24.703125 67.671875 
z
M 5.515625 0 
L 5.515625 5.171875 
L 14.796875 5.171875 
L 14.796875 67.671875 
L 5.515625 67.671875 
L 5.515625 72.90625 
L 34.515625 72.90625 
Q 53.375 72.90625 63.890625 63.28125 
Q 74.421875 53.65625 74.421875 36.53125 
Q 74.421875 19.34375 63.875 9.671875 
Q 53.328125 0 34.515625 0 
z
" id="DejaVuSerif-68"/>
      </defs>
      <use xlink:href="#DejaVuSerif-77"/>
      <use x="102.392578" xlink:href="#DejaVuSerif-74"/>
      <use x="142.480469" xlink:href="#DejaVuSerif-68"/>
     </g>
    </g>
   </g>
   <g id="matplotlib.axis_6">
    <g id="ytick_7">
     <g id="line2d_41">
      <g>
       <use style="stroke:#000000;stroke-width:0.8;" x="57.6" xlink:href="#m668d89d74e" y="202.557622"/>
      </g>
     </g>
     <g id="text_31">
      <!-- 16.7 -->
      <g transform="translate(28.334375 206.356841)scale(0.1 -0.1)">
       <defs>
        <path d="M 56.390625 67.921875 
L 27.875 0 
L 20.609375 0 
L 47.796875 64.890625 
L 14.109375 64.890625 
L 14.109375 55.90625 
L 8.40625 55.90625 
L 8.40625 72.90625 
L 56.390625 72.90625 
z
" id="DejaVuSerif-55"/>
       </defs>
       <use xlink:href="#DejaVuSerif-49"/>
       <use x="63.623047" xlink:href="#DejaVuSerif-54"/>
       <use x="127.246094" xlink:href="#DejaVuSerif-46"/>
       <use x="159.033203" xlink:href="#DejaVuSerif-55"/>
      </g>
     </g>
    </g>
    <g id="ytick_8">
     <g id="line2d_42">
      <g>
       <use style="stroke:#000000;stroke-width:0.8;" x="57.6" xlink:href="#m668d89d74e" y="236.748099"/>
      </g>
     </g>
     <g id="text_32">
      <!-- 16.8 -->
      <g transform="translate(28.334375 240.547317)scale(0.1 -0.1)">
       <use xlink:href="#DejaVuSerif-49"/>
       <use x="63.623047" xlink:href="#DejaVuSerif-54"/>
       <use x="127.246094" xlink:href="#DejaVuSerif-46"/>
       <use x="159.033203" xlink:href="#DejaVuSerif-56"/>
      </g>
     </g>
    </g>
    <g id="ytick_9">
     <g id="line2d_43">
      <g>
       <use style="stroke:#000000;stroke-width:0.8;" x="57.6" xlink:href="#m668d89d74e" y="270.938575"/>
      </g>
     </g>
     <g id="text_33">
      <!-- 16.9 -->
      <g transform="translate(28.334375 274.737794)scale(0.1 -0.1)">
       <use xlink:href="#DejaVuSerif-49"/>
       <use x="63.623047" xlink:href="#DejaVuSerif-54"/>
       <use x="127.246094" xlink:href="#DejaVuSerif-46"/>
       <use x="159.033203" xlink:href="#DejaVuSerif-57"/>
      </g>
     </g>
    </g>
    <g id="ytick_10">
     <g id="line2d_44">
      <g>
       <use style="stroke:#000000;stroke-width:0.8;" x="57.6" xlink:href="#m668d89d74e" y="305.129052"/>
      </g>
     </g>
     <g id="text_34">
      <!-- 17.0 -->
      <g transform="translate(28.334375 308.928271)scale(0.1 -0.1)">
       <use xlink:href="#DejaVuSerif-49"/>
       <use x="63.623047" xlink:href="#DejaVuSerif-55"/>
       <use x="127.246094" xlink:href="#DejaVuSerif-46"/>
       <use x="159.033203" xlink:href="#DejaVuSerif-48"/>
      </g>
     </g>
    </g>
    <g id="text_35">
     <!-- Mag -->
     <g transform="translate(22.1125 264.576991)rotate(-90)scale(0.1 -0.1)">
      <use xlink:href="#DejaVuSerif-77"/>
      <use x="102.392578" xlink:href="#DejaVuSerif-97"/>
      <use x="162.011719" xlink:href="#DejaVuSerif-103"/>
     </g>
    </g>
   </g>
   <g id="LineCollection_5">
    <path clip-path="url(#p95bb65a183)" d="M 73.832727 205.05656 
L 73.832727 217.565028 
" style="fill:none;stroke:#1f77b4;stroke-width:0.5;"/>
    <path clip-path="url(#p95bb65a183)" d="M 73.833119 215.228226 
L 73.833119 227.837695 
" style="fill:none;stroke:#1f77b4;stroke-width:0.5;"/>
    <path clip-path="url(#p95bb65a183)" d="M 94.910293 226.793501 
L 94.910293 239.520918 
" style="fill:none;stroke:#1f77b4;stroke-width:0.5;"/>
    <path clip-path="url(#p95bb65a183)" d="M 94.910684 229.940634 
L 94.910684 242.700733 
" style="fill:none;stroke:#1f77b4;stroke-width:0.5;"/>
    <path clip-path="url(#p95bb65a183)" d="M 96.675449 203.904 
L 96.675449 216.401184 
" style="fill:none;stroke:#1f77b4;stroke-width:0.5;"/>
    <path clip-path="url(#p95bb65a183)" d="M 99.185169 236.992234 
L 99.185169 249.826487 
" style="fill:none;stroke:#1f77b4;stroke-width:0.5;"/>
    <path clip-path="url(#p95bb65a183)" d="M 99.18789 236.223535 
L 99.18789 249.04964 
" style="fill:none;stroke:#1f77b4;stroke-width:0.5;"/>
    <path clip-path="url(#p95bb65a183)" d="M 121.144305 204.78141 
L 121.144305 217.287182 
" style="fill:none;stroke:#1f77b4;stroke-width:0.5;"/>
    <path clip-path="url(#p95bb65a183)" d="M 121.988998 243.054021 
L 121.988998 255.953058 
" style="fill:none;stroke:#1f77b4;stroke-width:0.5;"/>
    <path clip-path="url(#p95bb65a183)" d="M 121.98938 253.335552 
L 121.98938 266.346714 
" style="fill:none;stroke:#1f77b4;stroke-width:0.5;"/>
    <path clip-path="url(#p95bb65a183)" d="M 123.69785 243.667613 
L 123.69785 256.573264 
" style="fill:none;stroke:#1f77b4;stroke-width:0.5;"/>
    <path clip-path="url(#p95bb65a183)" d="M 123.698242 247.001529 
L 123.698242 259.943279 
" style="fill:none;stroke:#1f77b4;stroke-width:0.5;"/>
    <path clip-path="url(#p95bb65a183)" d="M 125.362202 222.754749 
L 125.362202 235.440595 
" style="fill:none;stroke:#1f77b4;stroke-width:0.5;"/>
    <path clip-path="url(#p95bb65a183)" d="M 125.362594 220.703846 
L 125.362594 233.368742 
" style="fill:none;stroke:#1f77b4;stroke-width:0.5;"/>
    <path clip-path="url(#p95bb65a183)" d="M 126.199487 253.35371 
L 126.199487 266.365071 
" style="fill:none;stroke:#1f77b4;stroke-width:0.5;"/>
    <path clip-path="url(#p95bb65a183)" d="M 126.199878 251.622068 
L 126.199878 264.614344 
" style="fill:none;stroke:#1f77b4;stroke-width:0.5;"/>
    <path clip-path="url(#p95bb65a183)" d="M 127.090237 213.752041 
L 127.090237 226.346694 
" style="fill:none;stroke:#1f77b4;stroke-width:0.5;"/>
    <path clip-path="url(#p95bb65a183)" d="M 127.090618 216.54606 
L 127.090618 229.168802 
" style="fill:none;stroke:#1f77b4;stroke-width:0.5;"/>
    <path clip-path="url(#p95bb65a183)" d="M 127.899364 248.723552 
L 127.899364 261.684068 
" style="fill:none;stroke:#1f77b4;stroke-width:0.5;"/>
    <path clip-path="url(#p95bb65a183)" d="M 127.899756 257.426472 
L 127.899756 270.483048 
" style="fill:none;stroke:#1f77b4;stroke-width:0.5;"/>
    <path clip-path="url(#p95bb65a183)" d="M 128.744146 225.360319 
L 128.744146 238.072937 
" style="fill:none;stroke:#1f77b4;stroke-width:0.5;"/>
    <path clip-path="url(#p95bb65a183)" d="M 128.744527 233.61183 
L 128.744527 246.410371 
" style="fill:none;stroke:#1f77b4;stroke-width:0.5;"/>
    <path clip-path="url(#p95bb65a183)" d="M 136.360585 255.987407 
L 136.360585 269.027958 
" style="fill:none;stroke:#1f77b4;stroke-width:0.5;"/>
    <path clip-path="url(#p95bb65a183)" d="M 142.231315 255.612574 
L 142.231315 268.648959 
" style="fill:none;stroke:#1f77b4;stroke-width:0.5;"/>
    <path clip-path="url(#p95bb65a183)" d="M 143.073052 239.434529 
L 143.073052 252.294765 
" style="fill:none;stroke:#1f77b4;stroke-width:0.5;"/>
    <path clip-path="url(#p95bb65a183)" d="M 143.918832 224.751751 
L 143.918832 237.458101 
" style="fill:none;stroke:#1f77b4;stroke-width:0.5;"/>
    <path clip-path="url(#p95bb65a183)" d="M 144.76286 243.980275 
L 144.76286 256.889296 
" style="fill:none;stroke:#1f77b4;stroke-width:0.5;"/>
    <path clip-path="url(#p95bb65a183)" d="M 145.612006 216.208661 
L 145.612006 228.827999 
" style="fill:none;stroke:#1f77b4;stroke-width:0.5;"/>
    <path clip-path="url(#p95bb65a183)" d="M 155.771705 221.542772 
L 155.771705 234.216226 
" style="fill:none;stroke:#1f77b4;stroke-width:0.5;"/>
    <path clip-path="url(#p95bb65a183)" d="M 163.21203 249.581627 
L 163.21203 262.551518 
" style="fill:none;stroke:#1f77b4;stroke-width:0.5;"/>
    <path clip-path="url(#p95bb65a183)" d="M 164.180987 236.911154 
L 164.180987 249.744547 
" style="fill:none;stroke:#1f77b4;stroke-width:0.5;"/>
    <path clip-path="url(#p95bb65a183)" d="M 165.042171 264.854177 
L 165.042171 277.994394 
" style="fill:none;stroke:#1f77b4;stroke-width:0.5;"/>
    <path clip-path="url(#p95bb65a183)" d="M 170.943837 276.374201 
L 170.943837 289.647238 
" style="fill:none;stroke:#1f77b4;stroke-width:0.5;"/>
    <path clip-path="url(#p95bb65a183)" d="M 173.496775 270.179652 
L 173.496775 283.380795 
" style="fill:none;stroke:#1f77b4;stroke-width:0.5;"/>
    <path clip-path="url(#p95bb65a183)" d="M 207.146958 241.356489 
L 207.146958 254.237287 
" style="fill:none;stroke:#1f77b4;stroke-width:0.5;"/>
    <path clip-path="url(#p95bb65a183)" d="M 210.529274 250.27368 
L 210.529274 263.251154 
" style="fill:none;stroke:#1f77b4;stroke-width:0.5;"/>
    <path clip-path="url(#p95bb65a183)" d="M 218.978819 239.259382 
L 218.978819 252.11775 
" style="fill:none;stroke:#1f77b4;stroke-width:0.5;"/>
    <path clip-path="url(#p95bb65a183)" d="M 346.082599 237.409333 
L 346.082599 250.248012 
" style="fill:none;stroke:#1f77b4;stroke-width:0.5;"/>
    <path clip-path="url(#p95bb65a183)" d="M 379.139631 239.158172 
L 379.139631 252.015459 
" style="fill:none;stroke:#1f77b4;stroke-width:0.5;"/>
    <path clip-path="url(#p95bb65a183)" d="M 396.853779 267.406409 
L 396.853779 280.575725 
" style="fill:none;stroke:#1f77b4;stroke-width:0.5;"/>
    <path clip-path="url(#p95bb65a183)" d="M 396.854161 260.117755 
L 396.854161 273.20446 
" style="fill:none;stroke:#1f77b4;stroke-width:0.5;"/>
    <path clip-path="url(#p95bb65a183)" d="M 397.677773 245.153643 
L 397.677773 258.075345 
" style="fill:none;stroke:#1f77b4;stroke-width:0.5;"/>
    <path clip-path="url(#p95bb65a183)" d="M 397.678155 251.105144 
L 397.678155 264.091741 
" style="fill:none;stroke:#1f77b4;stroke-width:0.5;"/>
    <path clip-path="url(#p95bb65a183)" d="M 398.486891 289.221146 
L 398.486891 302.646857 
" style="fill:none;stroke:#1f77b4;stroke-width:0.5;"/>
    <path clip-path="url(#p95bb65a183)" d="M 398.487273 283.875729 
L 398.487273 297.237318 
" style="fill:none;stroke:#1f77b4;stroke-width:0.5;"/>
   </g>
   <g id="line2d_45">
    <path clip-path="url(#p95bb65a183)" d="M 73.832727 211.310794 
L 73.833119 221.53296 
L 94.910293 233.15721 
L 94.910684 236.320683 
L 96.675449 210.152592 
L 99.185169 243.409361 
L 99.18789 242.636588 
L 121.144305 211.034296 
L 121.988998 249.50354 
L 121.98938 259.841133 
L 123.69785 250.120438 
L 123.698242 253.472404 
L 125.362202 229.097672 
L 125.362594 227.036294 
L 126.199487 259.859391 
L 126.199878 258.118206 
L 127.090237 220.049367 
L 127.090618 222.857431 
L 127.899364 255.20381 
L 127.899756 263.95476 
L 128.744146 231.716628 
L 128.744527 240.011101 
L 136.360585 262.507682 
L 142.231315 262.130766 
L 143.073052 245.864647 
L 143.918832 231.104926 
L 144.76286 250.434786 
L 145.612006 222.51833 
L 155.771705 227.879499 
L 163.21203 256.066573 
L 164.180987 243.327851 
L 165.042171 271.424285 
L 170.943837 283.01072 
L 173.496775 276.780223 
L 207.146958 247.796888 
L 210.529274 256.762417 
L 218.978819 245.688566 
L 346.082599 243.828673 
L 379.139631 245.586815 
L 396.853779 273.991067 
L 396.854161 266.661107 
L 397.677773 251.614494 
L 397.678155 257.598443 
L 398.486891 295.934002 
L 398.487273 290.556524 
" style="fill:none;"/>
   </g>
   <g id="patch_14">
    <path d="M 57.6 307.584 
L 57.6 198.966857 
" style="fill:none;stroke:#000000;stroke-linecap:square;stroke-linejoin:miter;stroke-width:0.8;"/>
   </g>
   <g id="patch_15">
    <path d="M 414.72 307.584 
L 414.72 198.966857 
" style="fill:none;stroke:#000000;stroke-linecap:square;stroke-linejoin:miter;stroke-width:0.8;"/>
   </g>
   <g id="patch_16">
    <path d="M 57.6 307.584 
L 414.72 307.584 
" style="fill:none;stroke:#000000;stroke-linecap:square;stroke-linejoin:miter;stroke-width:0.8;"/>
   </g>
   <g id="patch_17">
    <path d="M 57.6 198.966857 
L 414.72 198.966857 
" style="fill:none;stroke:#000000;stroke-linecap:square;stroke-linejoin:miter;stroke-width:0.8;"/>
   </g>
   <g id="text_36">
    <!-- Light Curve -->
    <g transform="translate(206.000625 192.966857)scale(0.1 -0.1)">
     <use xlink:href="#DejaVuSerif-76"/>
     <use x="66.40625" xlink:href="#DejaVuSerif-105"/>
     <use x="98.388672" xlink:href="#DejaVuSerif-103"/>
     <use x="162.402344" xlink:href="#DejaVuSerif-104"/>
     <use x="226.806641" xlink:href="#DejaVuSerif-116"/>
     <use x="266.992188" xlink:href="#DejaVuSerif-32"/>
     <use x="298.779297" xlink:href="#DejaVuSerif-67"/>
     <use x="375.292969" xlink:href="#DejaVuSerif-117"/>
     <use x="439.697266" xlink:href="#DejaVuSerif-114"/>
     <use x="487.5" xlink:href="#DejaVuSerif-118"/>
     <use x="543.994141" xlink:href="#DejaVuSerif-101"/>
    </g>
   </g>
  </g>
 </g>
 <defs>
  <clipPath id="pbd19528a41">
   <rect height="108.617143" width="148.8" x="265.92" y="41.472"/>
  </clipPath>
  <clipPath id="p6339a7a347">
   <rect height="108.617143" width="148.8" x="57.6" y="41.472"/>
  </clipPath>
  <clipPath id="p95bb65a183">
   <rect height="108.617143" width="357.12" x="57.6" y="198.966857"/>
  </clipPath>
 </defs>
</svg>
