<?xml version="1.0" encoding="utf-8" standalone="no"?>
<!DOCTYPE svg PUBLIC "-//W3C//DTD SVG 1.1//EN"
  "http://www.w3.org/Graphics/SVG/1.1/DTD/svg11.dtd">
<!-- Created with matplotlib (https://matplotlib.org/) -->
<svg height="345.6pt" version="1.1" viewBox="0 0 460.8 345.6" width="460.8pt" xmlns="http://www.w3.org/2000/svg" xmlns:xlink="http://www.w3.org/1999/xlink">
 <metadata>
  <rdf:RDF xmlns:cc="http://creativecommons.org/ns#" xmlns:dc="http://purl.org/dc/elements/1.1/" xmlns:rdf="http://www.w3.org/1999/02/22-rdf-syntax-ns#">
   <cc:Work>
    <dc:type rdf:resource="http://purl.org/dc/dcmitype/StillImage"/>
    <dc:date>2021-02-24T00:29:14.711104</dc:date>
    <dc:format>image/svg+xml</dc:format>
    <dc:creator>
     <cc:Agent>
      <dc:title>Matplotlib v3.3.3, https://matplotlib.org/</dc:title>
     </cc:Agent>
    </dc:creator>
   </cc:Work>
  </rdf:RDF>
 </metadata>
 <defs>
  <style type="text/css">*{stroke-linecap:butt;stroke-linejoin:round;}</style>
 </defs>
 <g id="figure_1">
  <g id="patch_1">
   <path d="M 0 345.6 
L 460.8 345.6 
L 460.8 0 
L 0 0 
z
" style="fill:#ffffff;"/>
  </g>
  <g id="axes_1">
   <g id="patch_2">
    <path d="M 265.92 150.089143 
L 414.72 150.089143 
L 414.72 41.472 
L 265.92 41.472 
z
" style="fill:#ffffff;"/>
   </g>
   <g id="matplotlib.axis_1">
    <g id="xtick_1">
     <g id="line2d_1">
      <defs>
       <path d="M 0 0 
L 0 3.5 
" id="mafb000b4af" style="stroke:#000000;stroke-width:0.8;"/>
      </defs>
      <g>
       <use style="stroke:#000000;stroke-width:0.8;" x="326.985138" xlink:href="#mafb000b4af" y="150.089143"/>
      </g>
     </g>
     <g id="text_1">
      <!-- $\mathdefault{10^{1}}$ -->
      <g transform="translate(318.185138 164.68758)scale(0.1 -0.1)">
       <defs>
        <path d="M 14.203125 0 
L 14.203125 5.171875 
L 26.90625 5.171875 
L 26.90625 65.828125 
L 12.203125 56.296875 
L 12.203125 62.703125 
L 29.984375 74.21875 
L 36.71875 74.21875 
L 36.71875 5.171875 
L 49.421875 5.171875 
L 49.421875 0 
z
" id="DejaVuSerif-49"/>
        <path d="M 31.78125 3.421875 
Q 39.265625 3.421875 42.96875 11.625 
Q 46.6875 19.828125 46.6875 36.375 
Q 46.6875 52.984375 42.96875 61.1875 
Q 39.265625 69.390625 31.78125 69.390625 
Q 24.3125 69.390625 20.59375 61.1875 
Q 16.890625 52.984375 16.890625 36.375 
Q 16.890625 19.828125 20.59375 11.625 
Q 24.3125 3.421875 31.78125 3.421875 
z
M 31.78125 -1.421875 
Q 19.921875 -1.421875 13.25 8.53125 
Q 6.59375 18.5 6.59375 36.375 
Q 6.59375 54.296875 13.25 64.25 
Q 19.921875 74.21875 31.78125 74.21875 
Q 43.703125 74.21875 50.34375 64.25 
Q 56.984375 54.296875 56.984375 36.375 
Q 56.984375 18.5 50.34375 8.53125 
Q 43.703125 -1.421875 31.78125 -1.421875 
z
" id="DejaVuSerif-48"/>
       </defs>
       <use transform="translate(0 0.7125)" xlink:href="#DejaVuSerif-49"/>
       <use transform="translate(63.623047 0.7125)" xlink:href="#DejaVuSerif-48"/>
       <use transform="translate(128.154453 37.046875)scale(0.7)" xlink:href="#DejaVuSerif-49"/>
      </g>
     </g>
    </g>
    <g id="xtick_2">
     <g id="line2d_2">
      <g>
       <use style="stroke:#000000;stroke-width:0.8;" x="400.12039" xlink:href="#mafb000b4af" y="150.089143"/>
      </g>
     </g>
     <g id="text_2">
      <!-- $\mathdefault{10^{2}}$ -->
      <g transform="translate(391.32039 164.68758)scale(0.1 -0.1)">
       <defs>
        <path d="M 12.796875 55.515625 
L 7.328125 55.515625 
L 7.328125 68.5 
Q 12.546875 71.296875 17.84375 72.75 
Q 23.140625 74.21875 28.21875 74.21875 
Q 39.59375 74.21875 46.1875 68.703125 
Q 52.78125 63.1875 52.78125 53.71875 
Q 52.78125 43.015625 37.84375 28.125 
Q 36.671875 27 36.078125 26.421875 
L 17.671875 8.015625 
L 48.09375 8.015625 
L 48.09375 17 
L 53.8125 17 
L 53.8125 0 
L 6.78125 0 
L 6.78125 5.328125 
L 28.90625 27.390625 
Q 36.234375 34.71875 39.359375 40.84375 
Q 42.484375 46.96875 42.484375 53.71875 
Q 42.484375 61.078125 38.640625 65.234375 
Q 34.8125 69.390625 28.078125 69.390625 
Q 21.09375 69.390625 17.28125 65.921875 
Q 13.484375 62.453125 12.796875 55.515625 
z
" id="DejaVuSerif-50"/>
       </defs>
       <use transform="translate(0 0.7125)" xlink:href="#DejaVuSerif-49"/>
       <use transform="translate(63.623047 0.7125)" xlink:href="#DejaVuSerif-48"/>
       <use transform="translate(128.154453 37.046875)scale(0.7)" xlink:href="#DejaVuSerif-50"/>
      </g>
     </g>
    </g>
    <g id="xtick_3">
     <g id="line2d_3">
      <defs>
       <path d="M 0 0 
L 0 2 
" id="m6c4e80df13" style="stroke:#000000;stroke-width:0.6;"/>
      </defs>
      <g>
       <use style="stroke:#000000;stroke-width:0.6;" x="275.86579" xlink:href="#m6c4e80df13" y="150.089143"/>
      </g>
     </g>
    </g>
    <g id="xtick_4">
     <g id="line2d_4">
      <g>
       <use style="stroke:#000000;stroke-width:0.6;" x="288.744269" xlink:href="#m6c4e80df13" y="150.089143"/>
      </g>
     </g>
    </g>
    <g id="xtick_5">
     <g id="line2d_5">
      <g>
       <use style="stroke:#000000;stroke-width:0.6;" x="297.881695" xlink:href="#m6c4e80df13" y="150.089143"/>
      </g>
     </g>
    </g>
    <g id="xtick_6">
     <g id="line2d_6">
      <g>
       <use style="stroke:#000000;stroke-width:0.6;" x="304.969233" xlink:href="#m6c4e80df13" y="150.089143"/>
      </g>
     </g>
    </g>
    <g id="xtick_7">
     <g id="line2d_7">
      <g>
       <use style="stroke:#000000;stroke-width:0.6;" x="310.760174" xlink:href="#m6c4e80df13" y="150.089143"/>
      </g>
     </g>
    </g>
    <g id="xtick_8">
     <g id="line2d_8">
      <g>
       <use style="stroke:#000000;stroke-width:0.6;" x="315.656344" xlink:href="#m6c4e80df13" y="150.089143"/>
      </g>
     </g>
    </g>
    <g id="xtick_9">
     <g id="line2d_9">
      <g>
       <use style="stroke:#000000;stroke-width:0.6;" x="319.8976" xlink:href="#m6c4e80df13" y="150.089143"/>
      </g>
     </g>
    </g>
    <g id="xtick_10">
     <g id="line2d_10">
      <g>
       <use style="stroke:#000000;stroke-width:0.6;" x="323.638652" xlink:href="#m6c4e80df13" y="150.089143"/>
      </g>
     </g>
    </g>
    <g id="xtick_11">
     <g id="line2d_11">
      <g>
       <use style="stroke:#000000;stroke-width:0.6;" x="349.001043" xlink:href="#m6c4e80df13" y="150.089143"/>
      </g>
     </g>
    </g>
    <g id="xtick_12">
     <g id="line2d_12">
      <g>
       <use style="stroke:#000000;stroke-width:0.6;" x="361.879521" xlink:href="#m6c4e80df13" y="150.089143"/>
      </g>
     </g>
    </g>
    <g id="xtick_13">
     <g id="line2d_13">
      <g>
       <use style="stroke:#000000;stroke-width:0.6;" x="371.016947" xlink:href="#m6c4e80df13" y="150.089143"/>
      </g>
     </g>
    </g>
    <g id="xtick_14">
     <g id="line2d_14">
      <g>
       <use style="stroke:#000000;stroke-width:0.6;" x="378.104486" xlink:href="#m6c4e80df13" y="150.089143"/>
      </g>
     </g>
    </g>
    <g id="xtick_15">
     <g id="line2d_15">
      <g>
       <use style="stroke:#000000;stroke-width:0.6;" x="383.895426" xlink:href="#m6c4e80df13" y="150.089143"/>
      </g>
     </g>
    </g>
    <g id="xtick_16">
     <g id="line2d_16">
      <g>
       <use style="stroke:#000000;stroke-width:0.6;" x="388.791597" xlink:href="#m6c4e80df13" y="150.089143"/>
      </g>
     </g>
    </g>
    <g id="xtick_17">
     <g id="line2d_17">
      <g>
       <use style="stroke:#000000;stroke-width:0.6;" x="393.032852" xlink:href="#m6c4e80df13" y="150.089143"/>
      </g>
     </g>
    </g>
    <g id="xtick_18">
     <g id="line2d_18">
      <g>
       <use style="stroke:#000000;stroke-width:0.6;" x="396.773905" xlink:href="#m6c4e80df13" y="150.089143"/>
      </g>
     </g>
    </g>
    <g id="text_3">
     <!-- Period d -->
     <g transform="translate(319.231719 178.365705)scale(0.1 -0.1)">
      <defs>
       <path d="M 24.703125 37.109375 
L 37.59375 37.109375 
Q 44.875 37.109375 48.671875 41.03125 
Q 52.484375 44.96875 52.484375 52.390625 
Q 52.484375 59.859375 48.671875 63.765625 
Q 44.875 67.671875 37.59375 67.671875 
L 24.703125 67.671875 
z
M 5.515625 0 
L 5.515625 5.171875 
L 14.796875 5.171875 
L 14.796875 67.671875 
L 5.515625 67.671875 
L 5.515625 72.90625 
L 39.984375 72.90625 
Q 50.921875 72.90625 57.3125 67.359375 
Q 63.71875 61.8125 63.71875 52.390625 
Q 63.71875 43.015625 57.3125 37.453125 
Q 50.921875 31.890625 39.984375 31.890625 
L 24.703125 31.890625 
L 24.703125 5.171875 
L 35.984375 5.171875 
L 35.984375 0 
z
" id="DejaVuSerif-80"/>
       <path d="M 54.203125 25 
L 15.484375 25 
L 15.484375 24.609375 
Q 15.484375 14.109375 19.4375 8.765625 
Q 23.390625 3.421875 31.109375 3.421875 
Q 37.015625 3.421875 40.796875 6.515625 
Q 44.578125 9.625 46.09375 15.71875 
L 53.328125 15.71875 
Q 51.171875 7.171875 45.375 2.875 
Q 39.59375 -1.421875 30.171875 -1.421875 
Q 18.796875 -1.421875 11.890625 6.078125 
Q 4.984375 13.578125 4.984375 25.984375 
Q 4.984375 38.28125 11.765625 45.796875 
Q 18.5625 53.328125 29.59375 53.328125 
Q 41.359375 53.328125 47.65625 46.0625 
Q 53.953125 38.8125 54.203125 25 
z
M 43.609375 30.171875 
Q 43.3125 39.265625 39.765625 43.875 
Q 36.234375 48.484375 29.59375 48.484375 
Q 23.390625 48.484375 19.828125 43.84375 
Q 16.265625 39.203125 15.484375 30.171875 
z
" id="DejaVuSerif-101"/>
       <path d="M 47.796875 52 
L 47.796875 39.015625 
L 42.625 39.015625 
Q 42.390625 42.875 40.484375 44.78125 
Q 38.578125 46.6875 34.90625 46.6875 
Q 28.265625 46.6875 24.71875 42.09375 
Q 21.1875 37.5 21.1875 28.90625 
L 21.1875 5.171875 
L 31.59375 5.171875 
L 31.59375 0 
L 4.109375 0 
L 4.109375 5.171875 
L 12.203125 5.171875 
L 12.203125 46.78125 
L 3.609375 46.78125 
L 3.609375 51.90625 
L 21.1875 51.90625 
L 21.1875 42.671875 
Q 23.828125 48.09375 27.96875 50.703125 
Q 32.125 53.328125 38.09375 53.328125 
Q 40.28125 53.328125 42.703125 52.984375 
Q 45.125 52.640625 47.796875 52 
z
" id="DejaVuSerif-114"/>
       <path d="M 9.71875 68.015625 
Q 9.71875 70.265625 11.34375 71.921875 
Q 12.984375 73.578125 15.28125 73.578125 
Q 17.53125 73.578125 19.15625 71.921875 
Q 20.796875 70.265625 20.796875 68.015625 
Q 20.796875 65.71875 19.1875 64.109375 
Q 17.578125 62.5 15.28125 62.5 
Q 12.984375 62.5 11.34375 64.109375 
Q 9.71875 65.71875 9.71875 68.015625 
z
M 21.1875 5.171875 
L 29.6875 5.171875 
L 29.6875 0 
L 3.609375 0 
L 3.609375 5.171875 
L 12.203125 5.171875 
L 12.203125 46.6875 
L 3.609375 46.6875 
L 3.609375 51.90625 
L 21.1875 51.90625 
z
" id="DejaVuSerif-105"/>
       <path d="M 30.078125 3.421875 
Q 37.3125 3.421875 40.984375 9.125 
Q 44.671875 14.84375 44.671875 25.984375 
Q 44.671875 37.109375 40.984375 42.796875 
Q 37.3125 48.484375 30.078125 48.484375 
Q 22.859375 48.484375 19.171875 42.796875 
Q 15.484375 37.109375 15.484375 25.984375 
Q 15.484375 14.84375 19.1875 9.125 
Q 22.90625 3.421875 30.078125 3.421875 
z
M 30.078125 -1.421875 
Q 18.75 -1.421875 11.859375 6.078125 
Q 4.984375 13.578125 4.984375 25.984375 
Q 4.984375 38.375 11.84375 45.84375 
Q 18.703125 53.328125 30.078125 53.328125 
Q 41.453125 53.328125 48.3125 45.84375 
Q 55.171875 38.375 55.171875 25.984375 
Q 55.171875 13.578125 48.3125 6.078125 
Q 41.453125 -1.421875 30.078125 -1.421875 
z
" id="DejaVuSerif-111"/>
       <path d="M 52.484375 5.171875 
L 61.078125 5.171875 
L 61.078125 0 
L 43.5 0 
L 43.5 8.109375 
Q 40.875 3.21875 36.796875 0.890625 
Q 32.71875 -1.421875 26.703125 -1.421875 
Q 17.140625 -1.421875 11.0625 6.171875 
Q 4.984375 13.765625 4.984375 25.984375 
Q 4.984375 38.1875 11.03125 45.75 
Q 17.09375 53.328125 26.703125 53.328125 
Q 32.71875 53.328125 36.796875 51 
Q 40.875 48.6875 43.5 43.796875 
L 43.5 70.796875 
L 35.015625 70.796875 
L 35.015625 75.984375 
L 52.484375 75.984375 
z
M 43.5 23.390625 
L 43.5 28.515625 
Q 43.5 37.84375 39.90625 42.765625 
Q 36.328125 47.703125 29.5 47.703125 
Q 22.5625 47.703125 19.015625 42.234375 
Q 15.484375 36.765625 15.484375 25.984375 
Q 15.484375 15.234375 19.015625 9.71875 
Q 22.5625 4.203125 29.5 4.203125 
Q 36.328125 4.203125 39.90625 9.109375 
Q 43.5 14.015625 43.5 23.390625 
z
" id="DejaVuSerif-100"/>
       <path id="DejaVuSerif-32"/>
      </defs>
      <use xlink:href="#DejaVuSerif-80"/>
      <use x="62.785156" xlink:href="#DejaVuSerif-101"/>
      <use x="121.964844" xlink:href="#DejaVuSerif-114"/>
      <use x="169.767578" xlink:href="#DejaVuSerif-105"/>
      <use x="201.75" xlink:href="#DejaVuSerif-111"/>
      <use x="261.955078" xlink:href="#DejaVuSerif-100"/>
      <use x="325.96875" xlink:href="#DejaVuSerif-32"/>
      <use x="357.755859" xlink:href="#DejaVuSerif-100"/>
     </g>
    </g>
   </g>
   <g id="matplotlib.axis_2">
    <g id="ytick_1">
     <g id="line2d_19">
      <defs>
       <path d="M 0 0 
L -3.5 0 
" id="m18489f8190" style="stroke:#000000;stroke-width:0.8;"/>
      </defs>
      <g>
       <use style="stroke:#000000;stroke-width:0.8;" x="265.92" xlink:href="#m18489f8190" y="145.154093"/>
      </g>
     </g>
     <g id="text_4">
      <!-- 0.0 -->
      <g transform="translate(243.016875 148.953311)scale(0.1 -0.1)">
       <defs>
        <path d="M 9.421875 5.078125 
Q 9.421875 7.8125 11.28125 9.71875 
Q 13.140625 11.625 15.921875 11.625 
Q 18.609375 11.625 20.5 9.71875 
Q 22.40625 7.8125 22.40625 5.078125 
Q 22.40625 2.390625 20.5 0.484375 
Q 18.609375 -1.421875 15.921875 -1.421875 
Q 13.140625 -1.421875 11.28125 0.453125 
Q 9.421875 2.34375 9.421875 5.078125 
z
" id="DejaVuSerif-46"/>
       </defs>
       <use xlink:href="#DejaVuSerif-48"/>
       <use x="63.623047" xlink:href="#DejaVuSerif-46"/>
       <use x="95.410156" xlink:href="#DejaVuSerif-48"/>
      </g>
     </g>
    </g>
    <g id="ytick_2">
     <g id="line2d_20">
      <g>
       <use style="stroke:#000000;stroke-width:0.8;" x="265.92" xlink:href="#m18489f8190" y="102.806867"/>
      </g>
     </g>
     <g id="text_5">
      <!-- 0.2 -->
      <g transform="translate(243.016875 106.606086)scale(0.1 -0.1)">
       <use xlink:href="#DejaVuSerif-48"/>
       <use x="63.623047" xlink:href="#DejaVuSerif-46"/>
       <use x="95.410156" xlink:href="#DejaVuSerif-50"/>
      </g>
     </g>
    </g>
    <g id="ytick_3">
     <g id="line2d_21">
      <g>
       <use style="stroke:#000000;stroke-width:0.8;" x="265.92" xlink:href="#m18489f8190" y="60.459642"/>
      </g>
     </g>
     <g id="text_6">
      <!-- 0.4 -->
      <g transform="translate(243.016875 64.258861)scale(0.1 -0.1)">
       <defs>
        <path d="M 34.90625 24.703125 
L 34.90625 63.484375 
L 10.015625 24.703125 
z
M 56.390625 0 
L 23.1875 0 
L 23.1875 5.171875 
L 34.90625 5.171875 
L 34.90625 19.484375 
L 3.078125 19.484375 
L 3.078125 24.8125 
L 35.015625 74.21875 
L 44.671875 74.21875 
L 44.671875 24.703125 
L 58.59375 24.703125 
L 58.59375 19.484375 
L 44.671875 19.484375 
L 44.671875 5.171875 
L 56.390625 5.171875 
z
" id="DejaVuSerif-52"/>
       </defs>
       <use xlink:href="#DejaVuSerif-48"/>
       <use x="63.623047" xlink:href="#DejaVuSerif-46"/>
       <use x="95.410156" xlink:href="#DejaVuSerif-52"/>
      </g>
     </g>
    </g>
    <g id="text_7">
     <!-- Power -->
     <g transform="translate(236.937188 111.583696)rotate(-90)scale(0.1 -0.1)">
      <defs>
       <path d="M 48 51.90625 
L 61.28125 11.375 
L 73 46.6875 
L 65.484375 46.6875 
L 65.484375 51.90625 
L 84.28125 51.90625 
L 84.28125 46.6875 
L 78.515625 46.6875 
L 63.09375 0 
L 55.609375 0 
L 42.828125 38.8125 
L 29.984375 0 
L 22.796875 0 
L 7.421875 46.6875 
L 1.609375 46.6875 
L 1.609375 51.90625 
L 25.09375 51.90625 
L 25.09375 46.6875 
L 16.703125 46.6875 
L 28.328125 11.375 
L 41.703125 51.90625 
z
" id="DejaVuSerif-119"/>
      </defs>
      <use xlink:href="#DejaVuSerif-80"/>
      <use x="63.285156" xlink:href="#DejaVuSerif-111"/>
      <use x="123.490234" xlink:href="#DejaVuSerif-119"/>
      <use x="209.085938" xlink:href="#DejaVuSerif-101"/>
      <use x="268.265625" xlink:href="#DejaVuSerif-114"/>
     </g>
    </g>
   </g>
   <g id="LineCollection_1">
    <path clip-path="url(#p8a04fe883e)" d="M 272.695273 46.409143 
L 407.956364 46.409143 
" style="fill:none;stroke:#808080;stroke-dasharray:5.55,2.4;stroke-dashoffset:0;stroke-width:1.5;"/>
   </g>
   <g id="LineCollection_2">
    <path clip-path="url(#p8a04fe883e)" d="M 272.695273 60.336657 
L 407.956364 60.336657 
" style="fill:none;stroke:#a9a9a9;stroke-dasharray:5.55,2.4;stroke-dashoffset:0;stroke-width:1.5;"/>
   </g>
   <g id="LineCollection_3">
    <path clip-path="url(#p8a04fe883e)" d="M 272.695273 71.303141 
L 407.956364 71.303141 
" style="fill:none;stroke:#c0c0c0;stroke-dasharray:5.55,2.4;stroke-dashoffset:0;stroke-width:1.5;"/>
   </g>
   <g id="LineCollection_4">
    <path clip-path="url(#p8a04fe883e)" d="M 272.695273 76.483395 
L 407.956364 76.483395 
" style="fill:none;stroke:#d3d3d3;stroke-dasharray:5.55,2.4;stroke-dashoffset:0;stroke-width:1.5;"/>
   </g>
   <g id="line2d_22">
    <path clip-path="url(#p8a04fe883e)" d="M 407.956364 109.436041 
L 405.906476 118.398296 
L 403.980902 134.317175 
L 402.165423 141.679632 
L 400.448127 119.174121 
L 398.818938 104.068216 
L 397.269253 103.936476 
L 395.791673 115.480771 
L 394.379786 135.575229 
L 393.027997 143.076348 
L 391.731399 119.208207 
L 390.485662 102.138575 
L 389.286945 92.190778 
L 388.131827 92.282647 
L 387.017248 116.354031 
L 385.940459 143.847684 
L 384.898981 134.974041 
L 383.890571 121.248273 
L 382.913194 96.829783 
L 381.964998 93.999177 
L 381.044289 120.402689 
L 380.149518 139.156525 
L 379.279266 131.571918 
L 378.432223 125.530537 
L 377.607183 111.763098 
L 376.803033 110.80014 
L 375.253348 143.376826 
L 374.505967 136.923505 
L 373.775768 128.02156 
L 373.06198 122.511485 
L 372.363881 120.39336 
L 371.680796 129.009498 
L 371.012092 142.261303 
L 370.357178 135.896143 
L 369.715495 133.04138 
L 369.086519 132.770741 
L 368.469757 132.024545 
L 367.864744 136.64907 
L 367.27104 133.392464 
L 366.68823 119.090459 
L 366.115922 115.504874 
L 365.553744 122.767516 
L 364.458386 140.591424 
L 363.924554 136.733318 
L 363.399547 116.780246 
L 362.883076 107.158781 
L 362.374869 109.25668 
L 361.874666 119.678681 
L 361.382219 136.315613 
L 360.89729 142.189315 
L 359.949093 111.076067 
L 359.485402 105.5787 
L 359.028384 121.57181 
L 358.577848 142.164748 
L 358.133614 136.467018 
L 357.263361 88.06977 
L 356.837016 76.581627 
L 356.416318 97.498472 
L 356.001119 125.273772 
L 355.591278 113.607666 
L 355.186658 93.191875 
L 354.787128 88.541371 
L 354.392561 90.747306 
L 354.002836 102.664008 
L 353.617834 125.197568 
L 353.237443 121.015609 
L 352.861555 97.133763 
L 352.490062 90.847393 
L 352.122865 100.699214 
L 351.400965 138.406299 
L 351.046076 127.088126 
L 350.695108 93.479853 
L 350.347976 86.274763 
L 350.004597 94.121604 
L 349.664891 109.758421 
L 349.32878 132.34918 
L 348.996188 138.295808 
L 348.341273 79.266065 
L 348.018811 83.283162 
L 347.69959 99.935289 
L 347.070614 140.166435 
L 346.760736 128.251696 
L 346.453852 109.545964 
L 346.149905 104.719921 
L 345.848839 111.294903 
L 345.255135 144.380264 
L 344.962394 133.952062 
L 344.672325 118.605766 
L 344.384882 116.769109 
L 343.817685 141.248826 
L 343.537839 142.374632 
L 342.985439 90.643167 
L 342.7128 100.645577 
L 342.174444 141.023667 
L 341.908649 140.754128 
L 341.383642 86.67835 
L 341.124357 87.466155 
L 340.867171 103.865492 
L 340.612052 132.247809 
L 340.358965 144.171402 
L 339.611584 81.277069 
L 339.366314 92.893186 
L 338.881385 144.425254 
L 338.641669 135.035107 
L 338.403748 115.250015 
L 338.167597 107.994076 
L 337.933188 113.384174 
L 337.469498 142.649579 
L 337.240166 141.601399 
L 336.786412 128.71181 
L 336.561943 128.692113 
L 335.8979 140.856815 
L 335.679602 139.340397 
L 335.462794 136.116853 
L 335.247456 126.080968 
L 335.033568 122.213241 
L 334.400413 139.658357 
L 334.192135 141.701886 
L 333.779633 122.1821 
L 333.575374 120.090656 
L 333.372419 121.17376 
L 332.771223 141.189626 
L 332.573327 140.963183 
L 332.376656 137.581204 
L 331.986931 125.040757 
L 331.793847 125.849462 
L 331.411165 142.927386 
L 331.221539 144.386675 
L 330.84565 134.223009 
L 330.659361 137.062863 
L 330.474157 142.992737 
L 330.290028 144.594318 
L 329.924941 124.030404 
L 329.743959 126.383377 
L 329.38506 143.842087 
L 329.20712 136.575297 
L 328.854202 97.718119 
L 328.679203 109.456074 
L 328.332072 143.501648 
L 328.159918 139.413368 
L 327.818385 106.582759 
L 327.648986 112.477864 
L 327.312875 143.869263 
L 327.146144 137.345875 
L 326.815284 93.520622 
L 326.651138 91.752911 
L 326.325368 138.031867 
L 326.163728 139.193846 
L 325.683685 83.980055 
L 325.21079 142.19236 
L 325.054709 134.014709 
L 324.744831 95.453038 
L 324.591019 99.749737 
L 324.134 144.369606 
L 323.983111 135.981683 
L 323.683465 105.591472 
L 323.534695 113.98741 
L 323.23923 137.254859 
L 323.092522 136.027391 
L 322.801124 98.458755 
L 322.512374 126.518656 
L 322.368978 139.35442 
L 322.226226 139.402103 
L 321.942633 119.694405 
L 321.80178 121.605341 
L 321.661549 125.740444 
L 321.521934 133.935232 
L 321.382931 134.291285 
L 321.244533 132.269842 
L 320.969534 143.138843 
L 320.832922 141.620366 
L 320.561448 119.403646 
L 320.426576 120.275526 
L 320.025364 143.629262 
L 319.760677 124.554324 
L 319.629156 124.763191 
L 319.367737 139.569412 
L 319.23783 139.945805 
L 319.108452 137.097561 
L 318.979599 137.365771 
L 318.851267 138.290386 
L 318.723451 137.755991 
L 318.596147 136.034403 
L 318.34306 129.601535 
L 318.091974 140.592292 
L 317.967171 141.478795 
L 317.719027 135.282398 
L 317.350409 143.098635 
L 317.228481 142.298671 
L 317.107019 139.516391 
L 316.98602 139.52947 
L 316.625764 144.039596 
L 316.506581 142.832552 
L 316.269548 135.473604 
L 316.151692 136.006465 
L 315.800725 141.050661 
L 315.684592 139.150425 
L 315.33872 125.046681 
L 315.224262 127.840831 
L 314.996574 139.697083 
L 314.88334 137.034461 
L 314.546039 115.888775 
L 314.323145 139.941617 
L 314.212282 137.705957 
L 313.99171 124.399443 
L 313.881996 126.803564 
L 313.663698 142.61532 
L 313.555109 138.606813 
L 313.339038 122.716703 
L 313.017664 144.555961 
L 312.699508 120.898969 
L 312.594161 122.95088 
L 312.280199 140.818115 
L 312.176231 138.641498 
L 312.072602 134.049783 
L 311.866353 98.721599 
L 311.763728 105.382755 
L 311.45783 143.375688 
L 311.154849 102.17272 
L 311.054494 111.9646 
L 310.854731 144.842348 
L 310.557423 107.15557 
L 310.262871 144.156039 
L 310.165291 139.759473 
L 309.971026 120.569917 
L 309.777942 131.908138 
L 309.586025 143.809488 
L 309.39526 130.029632 
L 309.205634 122.138059 
L 308.923301 144.386971 
L 308.736464 129.60035 
L 308.643456 129.864158 
L 308.458253 141.586607 
L 308.366055 139.5723 
L 308.182457 125.754592 
L 307.909036 145.132186 
L 307.637949 124.484988 
L 307.548098 125.087584 
L 307.369155 144.008142 
L 307.28006 142.162613 
L 307.102617 127.231641 
L 307.014266 131.953455 
L 306.838298 144.364372 
L 306.576159 118.59387 
L 306.316167 143.977989 
L 306.058285 107.475655 
L 305.717668 140.788158 
L 305.633082 140.101272 
L 305.380665 113.542437 
L 305.29697 114.067095 
L 305.0472 143.154417 
L 304.799379 130.245512 
L 304.7172 131.617907 
L 304.635233 138.950282 
L 304.553477 137.99801 
L 304.471931 135.799712 
L 304.228541 142.232024 
L 304.067311 129.193465 
L 303.987002 130.1112 
L 303.747285 141.165438 
L 303.588474 120.999524 
L 303.509365 122.736372 
L 303.273213 141.571807 
L 303.038805 125.415022 
L 302.961051 125.654041 
L 302.651927 143.708815 
L 302.575114 139.384078 
L 302.345783 120.23404 
L 302.118096 141.964896 
L 301.892029 124.663576 
L 301.66756 139.607184 
L 301.444666 119.188678 
L 301.370714 123.25132 
L 301.223326 142.74019 
L 301.076618 123.278825 
L 301.003517 113.032923 
L 300.930584 114.346883 
L 300.712785 145.144062 
L 300.568411 132.367062 
L 300.496469 125.521894 
L 300.42469 127.238617 
L 300.210321 145.142746 
L 299.997389 129.756221 
L 299.926728 134.915046 
L 299.785875 144.8076 
L 299.645644 128.148171 
L 299.57576 128.531117 
L 299.367026 144.481887 
L 299.228629 129.266193 
L 299.159655 129.871753 
L 299.022156 138.364916 
L 298.817017 124.383771 
L 298.68099 142.083612 
L 298.613195 138.963586 
L 298.410672 112.246779 
L 298.209432 140.566923 
L 298.142634 140.034457 
L 298.009459 132.439386 
L 297.613251 142.7688 
L 297.547695 141.879836 
L 297.416986 137.161242 
L 297.286812 143.061139 
L 297.092547 131.273536 
L 297.028056 135.667615 
L 296.899463 144.087297 
L 296.707546 126.590471 
L 296.580242 138.610263 
L 296.516781 143.681259 
L 296.453447 140.437532 
L 296.327155 133.651877 
L 296.264197 135.383586 
L 296.138655 143.677543 
L 295.951266 133.985505 
L 295.764977 144.034297 
L 295.641389 139.671626 
L 295.579774 140.588765 
L 295.456903 145.109688 
L 295.395645 144.247856 
L 295.212576 142.135021 
L 295.030557 140.554789 
L 294.909788 143.123591 
L 294.729491 135.017887 
L 294.550212 142.985963 
L 294.431252 133.007771 
L 294.371939 134.527898 
L 294.253644 142.849039 
L 294.194661 142.737566 
L 294.077023 139.254407 
L 293.959819 143.632447 
L 293.901379 141.249378 
L 293.843046 137.356317 
L 293.78482 138.219015 
L 293.668687 144.99143 
L 293.495281 127.994401 
L 293.437688 132.826744 
L 293.322816 143.522875 
L 293.151282 117.096744 
L 292.98067 144.226391 
L 292.810969 110.214228 
L 292.754603 114.537151 
L 292.64217 144.109639 
L 292.586103 141.37993 
L 292.474264 120.95667 
L 292.418492 122.528543 
L 292.30724 143.459529 
L 292.25176 143.322069 
L 292.14109 129.781597 
L 292.0859 132.153364 
L 291.920901 144.52976 
L 291.756754 129.275466 
L 291.702227 131.373282 
L 291.593452 143.118317 
L 291.539204 141.330009 
L 291.430985 126.589327 
L 291.377013 126.734338 
L 291.215647 144.980478 
L 291.16204 140.880426 
L 291.055096 132.528191 
L 290.895353 144.471915 
L 290.789302 133.245121 
L 290.736409 133.317824 
L 290.578256 143.927723 
L 290.525713 142.708463 
L 290.473257 141.986055 
L 290.368604 144.834893 
L 290.316406 144.708755 
L 290.264294 143.582984 
L 290.212268 143.779415 
L 290.160326 144.537415 
L 290.108469 142.640169 
L 289.953405 125.921201 
L 289.901885 130.464555 
L 289.799094 144.967888 
L 289.747824 141.899939 
L 289.64553 129.245919 
L 289.594506 131.76451 
L 289.441925 138.33051 
L 289.290073 142.540919 
L 289.138944 134.799138 
L 288.988531 142.829215 
L 288.88865 138.564362 
L 288.838826 139.136066 
L 288.739414 144.921547 
L 288.689824 143.552963 
L 288.541518 134.104746 
L 288.492236 135.930577 
L 288.393901 144.559221 
L 288.344847 144.321822 
L 288.149386 114.182828 
L 288.100709 121.074198 
L 288.003576 144.478041 
L 287.955121 137.966017 
L 287.810198 104.697106 
L 287.665934 142.311742 
L 287.617991 132.054999 
L 287.522321 100.153661 
L 287.474594 110.112323 
L 287.379355 136.607436 
L 287.331842 134.157341 
L 287.23703 117.149861 
L 287.189729 120.641911 
L 287.095339 134.256072 
L 287.048249 133.690829 
L 286.954278 129.597683 
L 286.81384 142.105046 
L 286.767166 139.714461 
L 286.674021 136.430368 
L 286.534815 145.058912 
L 286.488548 144.425309 
L 286.396216 139.625215 
L 286.35015 139.683062 
L 286.212353 144.77572 
L 286.07515 137.703732 
L 286.029548 139.708464 
L 285.984011 141.41168 
L 285.938538 140.460878 
L 285.847789 134.956086 
L 285.802512 136.290721 
L 285.71215 139.211418 
L 285.577087 128.900213 
L 285.442596 145.148293 
L 285.397892 142.778845 
L 285.308672 136.914542 
L 285.264156 139.220796 
L 285.219702 140.121513 
L 285.17531 139.512651 
L 285.086713 137.63713 
L 285.042506 137.773413 
L 284.954278 140.447753 
L 284.910255 139.515536 
L 284.822393 140.225296 
L 284.734773 143.293127 
L 284.603794 133.745705 
L 284.560255 135.024778 
L 284.473354 143.813967 
L 284.429992 141.714499 
L 284.343447 129.549954 
L 284.300262 131.613371 
L 284.17106 144.179082 
L 284.128109 142.393683 
L 284.042381 132.041558 
L 283.999603 133.379538 
L 283.829067 143.813486 
L 283.701763 140.715391 
L 283.659442 139.16164 
L 283.574968 140.030791 
L 283.490718 139.168561 
L 283.36476 144.79715 
L 283.322885 144.161958 
L 283.239301 141.493589 
L 283.19759 142.801366 
L 283.114334 145.083428 
L 283.072788 143.365691 
L 282.824644 130.668476 
L 282.742358 134.208138 
L 282.701295 133.664225 
L 282.578424 123.127157 
L 282.537572 127.615789 
L 282.415331 143.762803 
L 282.374689 143.526262 
L 282.293559 140.173794 
L 282.253072 140.580186 
L 282.131919 145.094724 
L 282.091637 144.789313 
L 282.011226 143.783984 
L 281.971097 144.208247 
L 281.931018 144.821702 
L 281.89099 144.744056 
L 281.771208 141.678202 
L 281.731381 142.604553 
L 281.651876 145.075499 
L 281.612198 144.811739 
L 281.45398 134.643892 
L 281.414548 136.435105 
L 281.296546 144.394254 
L 281.257309 140.180236 
L 281.17898 128.768239 
L 281.139888 128.877229 
L 281.0229 144.251511 
L 280.984 139.086736 
L 280.906341 131.234867 
L 280.867583 135.472663 
L 280.790209 144.68572 
L 280.751592 140.416255 
L 280.674499 127.584576 
L 280.636023 128.243545 
L 280.559209 137.558453 
L 280.520872 134.813788 
L 280.444337 125.420092 
L 280.406138 129.180626 
L 280.329878 135.860409 
L 280.291817 133.913361 
L 280.215831 121.661055 
L 280.177906 128.319098 
L 280.064401 140.878142 
L 279.988957 130.915604 
L 279.951301 132.861195 
L 279.801125 144.210925 
L 279.688957 136.214072 
L 279.651655 137.801002 
L 279.577183 143.866961 
L 279.540013 143.333579 
L 279.428761 136.528006 
L 279.391764 138.22316 
L 279.244204 144.490028 
L 279.207421 143.499312 
L 279.133982 142.932087 
L 279.060713 145.124887 
L 279.024141 144.444738 
L 278.914679 134.226906 
L 278.878276 135.793705 
L 278.769314 143.738458 
L 278.733077 141.930562 
L 278.660725 136.150992 
L 278.624611 139.173048 
L 278.480565 145.152 
L 278.408785 144.662518 
L 278.337168 143.304349 
L 278.30142 143.372604 
L 278.230044 144.748527 
L 278.194416 144.215183 
L 278.12328 140.315768 
L 278.087772 140.517989 
L 278.016874 145.092057 
L 277.981484 143.968779 
L 277.910823 132.693402 
L 277.875551 135.161024 
L 277.76997 144.574142 
L 277.699778 128.354861 
L 277.62974 132.556224 
L 277.490125 144.640793 
L 277.455317 141.426024 
L 277.385815 133.308516 
L 277.351122 134.533583 
L 277.247267 145.077217 
L 277.178218 142.045212 
L 277.14375 141.858287 
L 277.074927 143.545824 
L 276.937724 130.482559 
L 276.903516 135.249865 
L 276.869345 134.469294 
L 276.83521 130.312276 
L 276.767051 132.980788 
L 276.665086 136.657249 
L 276.563446 129.149219 
L 276.529639 129.320328 
L 276.462131 139.268291 
L 276.394767 135.27978 
L 276.293988 127.51723 
L 276.260466 132.266192 
L 276.160111 140.663755 
L 276.12673 138.546981 
L 276.060072 126.540731 
L 276.026796 131.656563 
L 275.894038 144.805198 
L 275.860935 139.238676 
L 275.761833 141.995158 
L 275.794833 139.153452 
L 275.728868 140.238389 
L 275.695936 136.257728 
L 275.663039 138.080146 
L 275.597347 144.76478 
L 275.564551 143.897748 
L 275.466368 126.861424 
L 275.368488 136.388491 
L 275.303401 137.438557 
L 275.238448 127.916466 
L 275.173627 132.474078 
L 275.108938 134.547989 
L 275.076643 133.992293 
L 275.04438 131.718998 
L 275.012151 133.485455 
L 274.915658 138.208462 
L 274.883559 136.207592 
L 274.819457 131.542158 
L 274.787455 137.344838 
L 274.723547 142.426193 
L 274.691641 139.667441 
L 274.627926 131.909468 
L 274.596116 136.862049 
L 274.532591 144.953913 
L 274.469193 141.898735 
L 274.405922 143.154334 
L 274.342776 144.537846 
L 274.248293 135.951533 
L 274.185459 137.928286 
L 274.091442 143.781478 
L 274.060164 140.789295 
L 273.966516 126.894742 
L 273.935362 131.026628 
L 273.84208 141.70735 
L 273.811048 140.822981 
L 273.780045 139.614656 
L 273.749072 141.724153 
L 273.687218 144.272575 
L 273.625484 143.312519 
L 273.533107 144.617452 
L 273.502374 144.117896 
L 273.440998 142.800995 
L 273.410354 142.952475 
L 273.257577 144.652592 
L 273.22711 145.107883 
L 273.196672 144.784544 
L 273.105532 135.33691 
L 273.044917 140.118825 
L 272.984417 144.594837 
L 272.954211 143.934211 
L 272.893884 140.606678 
L 272.863763 141.671282 
L 272.773572 144.498549 
L 272.743565 143.251702 
L 272.683636 141.385976 
L 272.683636 141.385976 
" style="fill:none;stroke:#1f77b4;stroke-linecap:square;stroke-width:1.5;"/>
   </g>
   <g id="patch_3">
    <path d="M 265.92 150.089143 
L 265.92 41.472 
" style="fill:none;stroke:#000000;stroke-linecap:square;stroke-linejoin:miter;stroke-width:0.8;"/>
   </g>
   <g id="patch_4">
    <path d="M 414.72 150.089143 
L 414.72 41.472 
" style="fill:none;stroke:#000000;stroke-linecap:square;stroke-linejoin:miter;stroke-width:0.8;"/>
   </g>
   <g id="patch_5">
    <path d="M 265.92 150.089143 
L 414.72 150.089143 
" style="fill:none;stroke:#000000;stroke-linecap:square;stroke-linejoin:miter;stroke-width:0.8;"/>
   </g>
   <g id="patch_6">
    <path d="M 265.92 41.472 
L 414.72 41.472 
" style="fill:none;stroke:#000000;stroke-linecap:square;stroke-linejoin:miter;stroke-width:0.8;"/>
   </g>
   <g id="text_8">
    <!-- Periodogram -->
    <g transform="translate(307.698125 35.472)scale(0.1 -0.1)">
     <defs>
      <path d="M 52.484375 46.6875 
L 52.484375 1.125 
Q 52.484375 -10.0625 46.328125 -16.140625 
Q 40.1875 -22.21875 28.8125 -22.21875 
Q 23.6875 -22.21875 19 -21.28125 
Q 14.3125 -20.359375 10.015625 -18.5 
L 10.015625 -7.625 
L 14.703125 -7.625 
Q 15.578125 -12.703125 18.84375 -15.046875 
Q 22.125 -17.390625 28.21875 -17.390625 
Q 36.140625 -17.390625 39.8125 -12.921875 
Q 43.5 -8.453125 43.5 1.125 
L 43.5 8.109375 
Q 40.875 3.21875 36.796875 0.890625 
Q 32.71875 -1.421875 26.703125 -1.421875 
Q 17.140625 -1.421875 11.0625 6.171875 
Q 4.984375 13.765625 4.984375 25.984375 
Q 4.984375 38.1875 11.03125 45.75 
Q 17.09375 53.328125 26.703125 53.328125 
Q 32.71875 53.328125 36.796875 51 
Q 40.875 48.6875 43.5 43.796875 
L 43.5 51.90625 
L 61.078125 51.90625 
L 61.078125 46.6875 
z
M 43.5 28.515625 
Q 43.5 37.84375 39.90625 42.765625 
Q 36.328125 47.703125 29.5 47.703125 
Q 22.5625 47.703125 19.015625 42.234375 
Q 15.484375 36.765625 15.484375 25.984375 
Q 15.484375 15.234375 19.015625 9.71875 
Q 22.5625 4.203125 29.5 4.203125 
Q 36.328125 4.203125 39.90625 9.109375 
Q 43.5 14.015625 43.5 23.390625 
z
" id="DejaVuSerif-103"/>
      <path d="M 39.796875 16.3125 
L 39.796875 27.296875 
L 28.21875 27.296875 
Q 21.53125 27.296875 18.25 24.40625 
Q 14.984375 21.53125 14.984375 15.578125 
Q 14.984375 10.15625 18.296875 6.984375 
Q 21.625 3.8125 27.296875 3.8125 
Q 32.90625 3.8125 36.34375 7.28125 
Q 39.796875 10.75 39.796875 16.3125 
z
M 48.78125 32.421875 
L 48.78125 5.171875 
L 56.78125 5.171875 
L 56.78125 0 
L 39.796875 0 
L 39.796875 5.609375 
Q 36.8125 2 32.90625 0.28125 
Q 29 -1.421875 23.78125 -1.421875 
Q 15.140625 -1.421875 10.0625 3.171875 
Q 4.984375 7.765625 4.984375 15.578125 
Q 4.984375 23.640625 10.796875 28.078125 
Q 16.609375 32.515625 27.203125 32.515625 
L 39.796875 32.515625 
L 39.796875 36.078125 
Q 39.796875 42 36.203125 45.234375 
Q 32.625 48.484375 26.125 48.484375 
Q 20.75 48.484375 17.578125 46.046875 
Q 14.40625 43.609375 13.625 38.8125 
L 8.984375 38.8125 
L 8.984375 49.3125 
Q 13.671875 51.3125 18.09375 52.3125 
Q 22.515625 53.328125 26.703125 53.328125 
Q 37.5 53.328125 43.140625 47.96875 
Q 48.78125 42.625 48.78125 32.421875 
z
" id="DejaVuSerif-97"/>
      <path d="M 51.8125 41.796875 
Q 54.390625 47.515625 58.421875 50.421875 
Q 62.453125 53.328125 67.828125 53.328125 
Q 75.984375 53.328125 79.984375 48.265625 
Q 83.984375 43.21875 83.984375 33.015625 
L 83.984375 5.171875 
L 92.09375 5.171875 
L 92.09375 0 
L 67.1875 0 
L 67.1875 5.171875 
L 75 5.171875 
L 75 31.984375 
Q 75 39.9375 72.65625 43.3125 
Q 70.3125 46.6875 64.890625 46.6875 
Q 58.890625 46.6875 55.734375 42.140625 
Q 52.59375 37.59375 52.59375 28.90625 
L 52.59375 5.171875 
L 60.40625 5.171875 
L 60.40625 0 
L 35.796875 0 
L 35.796875 5.171875 
L 43.609375 5.171875 
L 43.609375 32.328125 
Q 43.609375 40.09375 41.265625 43.390625 
Q 38.921875 46.6875 33.5 46.6875 
Q 27.484375 46.6875 24.328125 42.140625 
Q 21.1875 37.59375 21.1875 28.90625 
L 21.1875 5.171875 
L 29 5.171875 
L 29 0 
L 4.109375 0 
L 4.109375 5.171875 
L 12.203125 5.171875 
L 12.203125 46.78125 
L 3.609375 46.78125 
L 3.609375 51.90625 
L 21.1875 51.90625 
L 21.1875 42.671875 
Q 23.6875 47.859375 27.53125 50.59375 
Q 31.390625 53.328125 36.28125 53.328125 
Q 42.328125 53.328125 46.375 50.3125 
Q 50.4375 47.3125 51.8125 41.796875 
z
" id="DejaVuSerif-109"/>
     </defs>
     <use xlink:href="#DejaVuSerif-80"/>
     <use x="62.785156" xlink:href="#DejaVuSerif-101"/>
     <use x="121.964844" xlink:href="#DejaVuSerif-114"/>
     <use x="169.767578" xlink:href="#DejaVuSerif-105"/>
     <use x="201.75" xlink:href="#DejaVuSerif-111"/>
     <use x="261.955078" xlink:href="#DejaVuSerif-100"/>
     <use x="325.96875" xlink:href="#DejaVuSerif-111"/>
     <use x="386.173828" xlink:href="#DejaVuSerif-103"/>
     <use x="450.1875" xlink:href="#DejaVuSerif-114"/>
     <use x="497.990234" xlink:href="#DejaVuSerif-97"/>
     <use x="557.609375" xlink:href="#DejaVuSerif-109"/>
    </g>
   </g>
   <g id="legend_1">
    <g id="patch_7">
     <path d="M 419.648125 108.123071 
L 454.431875 108.123071 
Q 455.231875 108.123071 455.231875 107.323071 
L 455.231875 84.238071 
Q 455.231875 83.438071 454.431875 83.438071 
L 419.648125 83.438071 
Q 418.848125 83.438071 418.848125 84.238071 
L 418.848125 107.323071 
Q 418.848125 108.123071 419.648125 108.123071 
z
" style="fill:#ffffff;opacity:0.8;stroke:#cccccc;stroke-linejoin:miter;"/>
    </g>
    <g id="line2d_23">
     <path d="M 420.448125 86.677446 
L 428.448125 86.677446 
" style="fill:none;stroke:#808080;stroke-dasharray:5.55,2.4;stroke-dashoffset:0;stroke-width:1.5;"/>
    </g>
    <g id="text_9">
     <!-- 99.9% FAP -->
     <g transform="translate(431.648125 88.077446)scale(0.04 -0.04)">
      <defs>
       <path d="M 46.78125 32.671875 
Q 43.5 29 39.25 27.1875 
Q 35.015625 25.390625 29.6875 25.390625 
Q 18.84375 25.390625 12.5625 31.9375 
Q 6.296875 38.484375 6.296875 49.8125 
Q 6.296875 60.890625 13.109375 67.546875 
Q 19.921875 74.21875 31.296875 74.21875 
Q 43.65625 74.21875 50.265625 65.015625 
Q 56.890625 55.8125 56.890625 38.71875 
Q 56.890625 19.578125 49.015625 9.078125 
Q 41.15625 -1.421875 26.90625 -1.421875 
Q 23.046875 -1.421875 18.796875 -0.6875 
Q 14.546875 0.046875 10.109375 1.515625 
L 10.109375 13.625 
L 15.578125 13.625 
Q 16.21875 8.6875 19.390625 6.046875 
Q 22.5625 3.421875 27.875 3.421875 
Q 37.359375 3.421875 41.984375 10.5625 
Q 46.625 17.71875 46.78125 32.671875 
z
M 30.90625 69.390625 
Q 23.96875 69.390625 20.28125 64.328125 
Q 16.609375 59.28125 16.609375 49.8125 
Q 16.609375 40.328125 20.28125 35.25 
Q 23.96875 30.171875 30.90625 30.171875 
Q 37.84375 30.171875 41.53125 35.078125 
Q 45.21875 39.984375 45.21875 49.21875 
Q 45.21875 58.9375 41.5 64.15625 
Q 37.796875 69.390625 30.90625 69.390625 
z
" id="DejaVuSerif-57"/>
       <path d="M 22.40625 69.671875 
Q 18.109375 69.671875 15.6875 65.625 
Q 13.28125 61.578125 13.28125 54.296875 
Q 13.28125 47.125 15.75 43.015625 
Q 18.21875 38.921875 22.40625 38.921875 
Q 26.5625 38.921875 28.96875 43 
Q 31.390625 47.078125 31.390625 54.296875 
Q 31.390625 61.53125 28.96875 65.59375 
Q 26.5625 69.671875 22.40625 69.671875 
z
M 72.703125 33.890625 
Q 68.453125 33.890625 66.03125 29.78125 
Q 63.625 25.6875 63.625 18.40625 
Q 63.625 11.234375 66.0625 7.15625 
Q 68.5 3.078125 72.703125 3.078125 
Q 76.90625 3.078125 79.296875 7.15625 
Q 81.6875 11.234375 81.6875 18.40625 
Q 81.6875 25.640625 79.265625 29.765625 
Q 76.859375 33.890625 72.703125 33.890625 
z
M 72.703125 38.28125 
Q 80.421875 38.28125 84.953125 32.90625 
Q 89.5 27.546875 89.5 18.40625 
Q 89.5 9.28125 84.9375 3.921875 
Q 80.375 -1.421875 72.703125 -1.421875 
Q 64.890625 -1.421875 60.34375 3.921875 
Q 55.8125 9.28125 55.8125 18.40625 
Q 55.8125 27.59375 60.375 32.9375 
Q 64.9375 38.28125 72.703125 38.28125 
z
M 66.609375 74.21875 
L 74.03125 74.21875 
L 28.421875 -1.421875 
L 21 -1.421875 
z
M 22.3125 74.21875 
Q 30.03125 74.21875 34.609375 68.875 
Q 39.203125 63.53125 39.203125 54.390625 
Q 39.203125 45.171875 34.640625 39.84375 
Q 30.078125 34.515625 22.3125 34.515625 
Q 14.546875 34.515625 10.03125 39.859375 
Q 5.515625 45.21875 5.515625 54.390625 
Q 5.515625 63.484375 10.046875 68.84375 
Q 14.59375 74.21875 22.3125 74.21875 
z
" id="DejaVuSerif-37"/>
       <path d="M 5.515625 0 
L 5.515625 5.171875 
L 14.796875 5.171875 
L 14.796875 67.671875 
L 5.515625 67.671875 
L 5.515625 72.90625 
L 65.1875 72.90625 
L 65.1875 56.6875 
L 59.1875 56.6875 
L 59.1875 66.890625 
L 24.703125 66.890625 
L 24.703125 42.484375 
L 49.609375 42.484375 
L 49.609375 51.609375 
L 55.609375 51.609375 
L 55.609375 27.390625 
L 49.609375 27.390625 
L 49.609375 36.53125 
L 24.703125 36.53125 
L 24.703125 5.171875 
L 36.375 5.171875 
L 36.375 0 
z
" id="DejaVuSerif-70"/>
       <path d="M 20.015625 26.421875 
L 46.78125 26.421875 
L 33.40625 61.078125 
z
M -0.59375 0 
L -0.59375 5.171875 
L 5.8125 5.171875 
L 31.78125 72.90625 
L 39.984375 72.90625 
L 66.015625 5.171875 
L 73.1875 5.171875 
L 73.1875 0 
L 46.6875 0 
L 46.6875 5.171875 
L 54.78125 5.171875 
L 48.6875 21.1875 
L 18.015625 21.1875 
L 11.921875 5.171875 
L 19.921875 5.171875 
L 19.921875 0 
z
" id="DejaVuSerif-65"/>
      </defs>
      <use xlink:href="#DejaVuSerif-57"/>
      <use x="63.623047" xlink:href="#DejaVuSerif-57"/>
      <use x="127.246094" xlink:href="#DejaVuSerif-46"/>
      <use x="159.033203" xlink:href="#DejaVuSerif-57"/>
      <use x="222.65625" xlink:href="#DejaVuSerif-37"/>
      <use x="317.675781" xlink:href="#DejaVuSerif-32"/>
      <use x="349.462891" xlink:href="#DejaVuSerif-70"/>
      <use x="410.097656" xlink:href="#DejaVuSerif-65"/>
      <use x="482.314453" xlink:href="#DejaVuSerif-80"/>
     </g>
    </g>
    <g id="line2d_24">
     <path d="M 420.448125 92.548696 
L 428.448125 92.548696 
" style="fill:none;stroke:#a9a9a9;stroke-dasharray:5.55,2.4;stroke-dashoffset:0;stroke-width:1.5;"/>
    </g>
    <g id="text_10">
     <!-- 99.0% FAP -->
     <g transform="translate(431.648125 93.948696)scale(0.04 -0.04)">
      <use xlink:href="#DejaVuSerif-57"/>
      <use x="63.623047" xlink:href="#DejaVuSerif-57"/>
      <use x="127.246094" xlink:href="#DejaVuSerif-46"/>
      <use x="159.033203" xlink:href="#DejaVuSerif-48"/>
      <use x="222.65625" xlink:href="#DejaVuSerif-37"/>
      <use x="317.675781" xlink:href="#DejaVuSerif-32"/>
      <use x="349.462891" xlink:href="#DejaVuSerif-70"/>
      <use x="410.097656" xlink:href="#DejaVuSerif-65"/>
      <use x="482.314453" xlink:href="#DejaVuSerif-80"/>
     </g>
    </g>
    <g id="line2d_25">
     <path d="M 420.448125 98.419946 
L 428.448125 98.419946 
" style="fill:none;stroke:#c0c0c0;stroke-dasharray:5.55,2.4;stroke-dashoffset:0;stroke-width:1.5;"/>
    </g>
    <g id="text_11">
     <!-- 95.0% FAP -->
     <g transform="translate(431.648125 99.819946)scale(0.04 -0.04)">
      <defs>
       <path d="M 50.296875 72.90625 
L 50.296875 64.890625 
L 16.890625 64.890625 
L 16.890625 44 
Q 19.4375 45.75 22.828125 46.625 
Q 26.21875 47.515625 30.421875 47.515625 
Q 42.234375 47.515625 49.0625 40.96875 
Q 55.90625 34.421875 55.90625 23.09375 
Q 55.90625 11.53125 49 5.046875 
Q 42.09375 -1.421875 29.59375 -1.421875 
Q 24.5625 -1.421875 19.28125 -0.1875 
Q 14.015625 1.03125 8.5 3.515625 
L 8.5 17.671875 
L 14.015625 17.671875 
Q 14.453125 10.75 18.421875 7.078125 
Q 22.40625 3.421875 29.59375 3.421875 
Q 37.3125 3.421875 41.453125 8.5 
Q 45.609375 13.578125 45.609375 23.09375 
Q 45.609375 32.5625 41.484375 37.609375 
Q 37.359375 42.671875 29.59375 42.671875 
Q 25.203125 42.671875 21.84375 41.109375 
Q 18.5 39.546875 15.921875 36.28125 
L 11.71875 36.28125 
L 11.71875 72.90625 
z
" id="DejaVuSerif-53"/>
      </defs>
      <use xlink:href="#DejaVuSerif-57"/>
      <use x="63.623047" xlink:href="#DejaVuSerif-53"/>
      <use x="127.246094" xlink:href="#DejaVuSerif-46"/>
      <use x="159.033203" xlink:href="#DejaVuSerif-48"/>
      <use x="222.65625" xlink:href="#DejaVuSerif-37"/>
      <use x="317.675781" xlink:href="#DejaVuSerif-32"/>
      <use x="349.462891" xlink:href="#DejaVuSerif-70"/>
      <use x="410.097656" xlink:href="#DejaVuSerif-65"/>
      <use x="482.314453" xlink:href="#DejaVuSerif-80"/>
     </g>
    </g>
    <g id="line2d_26">
     <path d="M 420.448125 104.291196 
L 428.448125 104.291196 
" style="fill:none;stroke:#d3d3d3;stroke-dasharray:5.55,2.4;stroke-dashoffset:0;stroke-width:1.5;"/>
    </g>
    <g id="text_12">
     <!-- 90.0% FAP -->
     <g transform="translate(431.648125 105.691196)scale(0.04 -0.04)">
      <use xlink:href="#DejaVuSerif-57"/>
      <use x="63.623047" xlink:href="#DejaVuSerif-48"/>
      <use x="127.246094" xlink:href="#DejaVuSerif-46"/>
      <use x="159.033203" xlink:href="#DejaVuSerif-48"/>
      <use x="222.65625" xlink:href="#DejaVuSerif-37"/>
      <use x="317.675781" xlink:href="#DejaVuSerif-32"/>
      <use x="349.462891" xlink:href="#DejaVuSerif-70"/>
      <use x="410.097656" xlink:href="#DejaVuSerif-65"/>
      <use x="482.314453" xlink:href="#DejaVuSerif-80"/>
     </g>
    </g>
   </g>
  </g>
  <g id="axes_2">
   <g id="patch_8">
    <path d="M 57.6 150.089143 
L 206.4 150.089143 
L 206.4 41.472 
L 57.6 41.472 
z
" style="fill:#ffffff;"/>
   </g>
   <g id="PathCollection_1">
    <defs>
     <path d="M 0 0.707107 
C 0.187527 0.707107 0.367398 0.632602 0.5 0.5 
C 0.632602 0.367398 0.707107 0.187527 0.707107 0 
C 0.707107 -0.187527 0.632602 -0.367398 0.5 -0.5 
C 0.367398 -0.632602 0.187527 -0.707107 0 -0.707107 
C -0.187527 -0.707107 -0.367398 -0.632602 -0.5 -0.5 
C -0.632602 -0.367398 -0.707107 -0.187527 -0.707107 0 
C -0.707107 0.187527 -0.632602 0.367398 -0.5 0.5 
C -0.367398 0.632602 -0.187527 0.707107 0 0.707107 
z
" id="ma5ae36cb65" style="stroke:#1f77b4;"/>
    </defs>
    <g clip-path="url(#pf7a2350afd)">
     <use style="fill:#1f77b4;stroke:#1f77b4;" x="101.609097" xlink:href="#ma5ae36cb65" y="108.055839"/>
     <use style="fill:#1f77b4;stroke:#1f77b4;" x="101.610347" xlink:href="#ma5ae36cb65" y="86.966312"/>
     <use style="fill:#1f77b4;stroke:#1f77b4;" x="99.802977" xlink:href="#ma5ae36cb65" y="108.785489"/>
     <use style="fill:#1f77b4;stroke:#1f77b4;" x="99.804226" xlink:href="#ma5ae36cb65" y="107.911861"/>
     <use style="fill:#1f77b4;stroke:#1f77b4;" x="105.434931" xlink:href="#ma5ae36cb65" y="82.845203"/>
     <use style="fill:#1f77b4;stroke:#1f77b4;" x="113.442512" xlink:href="#ma5ae36cb65" y="86.560531"/>
     <use style="fill:#1f77b4;stroke:#1f77b4;" x="113.451192" xlink:href="#ma5ae36cb65" y="89.419602"/>
     <use style="fill:#1f77b4;stroke:#1f77b4;" x="114.449152" xlink:href="#ma5ae36cb65" y="95.869932"/>
     <use style="fill:#1f77b4;stroke:#1f77b4;" x="117.144253" xlink:href="#ma5ae36cb65" y="76.413481"/>
     <use style="fill:#1f77b4;stroke:#1f77b4;" x="117.145471" xlink:href="#ma5ae36cb65" y="116.072168"/>
     <use style="fill:#1f77b4;stroke:#1f77b4;" x="122.596563" xlink:href="#ma5ae36cb65" y="55.421999"/>
     <use style="fill:#1f77b4;stroke:#1f77b4;" x="122.597812" xlink:href="#ma5ae36cb65" y="98.868036"/>
     <use style="fill:#1f77b4;stroke:#1f77b4;" x="127.906888" xlink:href="#ma5ae36cb65" y="65.246416"/>
     <use style="fill:#1f77b4;stroke:#1f77b4;" x="127.908137" xlink:href="#ma5ae36cb65" y="67.631458"/>
     <use style="fill:#1f77b4;stroke:#1f77b4;" x="130.57835" xlink:href="#ma5ae36cb65" y="90.553797"/>
     <use style="fill:#1f77b4;stroke:#1f77b4;" x="130.579599" xlink:href="#ma5ae36cb65" y="71.776119"/>
     <use style="fill:#1f77b4;stroke:#1f77b4;" x="64.363636" xlink:href="#ma5ae36cb65" y="84.766106"/>
     <use style="fill:#1f77b4;stroke:#1f77b4;" x="64.364854" xlink:href="#ma5ae36cb65" y="78.189234"/>
     <use style="fill:#1f77b4;stroke:#1f77b4;" x="66.945261" xlink:href="#ma5ae36cb65" y="91.395155"/>
     <use style="fill:#1f77b4;stroke:#1f77b4;" x="66.94651" xlink:href="#ma5ae36cb65" y="64.228809"/>
     <use style="fill:#1f77b4;stroke:#1f77b4;" x="69.640643" xlink:href="#ma5ae36cb65" y="77.145603"/>
     <use style="fill:#1f77b4;stroke:#1f77b4;" x="69.641861" xlink:href="#ma5ae36cb65" y="80.797628"/>
     <use style="fill:#1f77b4;stroke:#1f77b4;" x="93.941858" xlink:href="#ma5ae36cb65" y="121.554597"/>
     <use style="fill:#1f77b4;stroke:#1f77b4;" x="112.673165" xlink:href="#ma5ae36cb65" y="58.078798"/>
     <use style="fill:#1f77b4;stroke:#1f77b4;" x="115.358835" xlink:href="#ma5ae36cb65" y="46.409143"/>
     <use style="fill:#1f77b4;stroke:#1f77b4;" x="118.057402" xlink:href="#ma5ae36cb65" y="99.922792"/>
     <use style="fill:#1f77b4;stroke:#1f77b4;" x="120.750379" xlink:href="#ma5ae36cb65" y="71.426225"/>
     <use style="fill:#1f77b4;stroke:#1f77b4;" x="123.459688" xlink:href="#ma5ae36cb65" y="103.238521"/>
     <use style="fill:#1f77b4;stroke:#1f77b4;" x="86.81873" xlink:href="#ma5ae36cb65" y="132.794919"/>
     <use style="fill:#1f77b4;stroke:#1f77b4;" x="110.55803" xlink:href="#ma5ae36cb65" y="96.484165"/>
     <use style="fill:#1f77b4;stroke:#1f77b4;" x="113.64961" xlink:href="#ma5ae36cb65" y="94.931763"/>
     <use style="fill:#1f77b4;stroke:#1f77b4;" x="116.397327" xlink:href="#ma5ae36cb65" y="66.204362"/>
     <use style="fill:#1f77b4;stroke:#1f77b4;" x="66.170575" xlink:href="#ma5ae36cb65" y="128.671338"/>
     <use style="fill:#1f77b4;stroke:#1f77b4;" x="74.31605" xlink:href="#ma5ae36cb65" y="80.375712"/>
     <use style="fill:#1f77b4;stroke:#1f77b4;" x="112.624458" xlink:href="#ma5ae36cb65" y="69.296739"/>
     <use style="fill:#1f77b4;stroke:#1f77b4;" x="123.416165" xlink:href="#ma5ae36cb65" y="103.430904"/>
     <use style="fill:#1f77b4;stroke:#1f77b4;" x="81.318744" xlink:href="#ma5ae36cb65" y="111.944878"/>
     <use style="fill:#1f77b4;stroke:#1f77b4;" x="72.518875" xlink:href="#ma5ae36cb65" y="127.391929"/>
     <use style="fill:#1f77b4;stroke:#1f77b4;" x="108.934758" xlink:href="#ma5ae36cb65" y="56.274483"/>
     <use style="fill:#1f77b4;stroke:#1f77b4;" x="96.397229" xlink:href="#ma5ae36cb65" y="96.547469"/>
     <use style="fill:#1f77b4;stroke:#1f77b4;" x="96.398447" xlink:href="#ma5ae36cb65" y="94.322475"/>
     <use style="fill:#1f77b4;stroke:#1f77b4;" x="99.026286" xlink:href="#ma5ae36cb65" y="145.152"/>
     <use style="fill:#1f77b4;stroke:#1f77b4;" x="99.027504" xlink:href="#ma5ae36cb65" y="137.586083"/>
     <use style="fill:#1f77b4;stroke:#1f77b4;" x="101.60788" xlink:href="#ma5ae36cb65" y="143.6009"/>
     <use style="fill:#1f77b4;stroke:#1f77b4;" x="101.609097" xlink:href="#ma5ae36cb65" y="117.972056"/>
    </g>
   </g>
   <g id="PathCollection_2">
    <g clip-path="url(#pf7a2350afd)">
     <use style="fill:#1f77b4;stroke:#1f77b4;" x="170.665862" xlink:href="#ma5ae36cb65" y="108.055839"/>
     <use style="fill:#1f77b4;stroke:#1f77b4;" x="170.667111" xlink:href="#ma5ae36cb65" y="86.966312"/>
     <use style="fill:#1f77b4;stroke:#1f77b4;" x="168.859742" xlink:href="#ma5ae36cb65" y="108.785489"/>
     <use style="fill:#1f77b4;stroke:#1f77b4;" x="168.860991" xlink:href="#ma5ae36cb65" y="107.911861"/>
     <use style="fill:#1f77b4;stroke:#1f77b4;" x="174.491696" xlink:href="#ma5ae36cb65" y="82.845203"/>
     <use style="fill:#1f77b4;stroke:#1f77b4;" x="182.499276" xlink:href="#ma5ae36cb65" y="86.560531"/>
     <use style="fill:#1f77b4;stroke:#1f77b4;" x="182.507957" xlink:href="#ma5ae36cb65" y="89.419602"/>
     <use style="fill:#1f77b4;stroke:#1f77b4;" x="183.505917" xlink:href="#ma5ae36cb65" y="95.869932"/>
     <use style="fill:#1f77b4;stroke:#1f77b4;" x="186.201017" xlink:href="#ma5ae36cb65" y="76.413481"/>
     <use style="fill:#1f77b4;stroke:#1f77b4;" x="186.202235" xlink:href="#ma5ae36cb65" y="116.072168"/>
     <use style="fill:#1f77b4;stroke:#1f77b4;" x="191.653328" xlink:href="#ma5ae36cb65" y="55.421999"/>
     <use style="fill:#1f77b4;stroke:#1f77b4;" x="191.654577" xlink:href="#ma5ae36cb65" y="98.868036"/>
     <use style="fill:#1f77b4;stroke:#1f77b4;" x="196.963652" xlink:href="#ma5ae36cb65" y="65.246416"/>
     <use style="fill:#1f77b4;stroke:#1f77b4;" x="196.964901" xlink:href="#ma5ae36cb65" y="67.631458"/>
     <use style="fill:#1f77b4;stroke:#1f77b4;" x="199.635115" xlink:href="#ma5ae36cb65" y="90.553797"/>
     <use style="fill:#1f77b4;stroke:#1f77b4;" x="199.636364" xlink:href="#ma5ae36cb65" y="71.776119"/>
     <use style="fill:#1f77b4;stroke:#1f77b4;" x="133.420401" xlink:href="#ma5ae36cb65" y="84.766106"/>
     <use style="fill:#1f77b4;stroke:#1f77b4;" x="133.421619" xlink:href="#ma5ae36cb65" y="78.189234"/>
     <use style="fill:#1f77b4;stroke:#1f77b4;" x="136.002026" xlink:href="#ma5ae36cb65" y="91.395155"/>
     <use style="fill:#1f77b4;stroke:#1f77b4;" x="136.003275" xlink:href="#ma5ae36cb65" y="64.228809"/>
     <use style="fill:#1f77b4;stroke:#1f77b4;" x="138.697407" xlink:href="#ma5ae36cb65" y="77.145603"/>
     <use style="fill:#1f77b4;stroke:#1f77b4;" x="138.698625" xlink:href="#ma5ae36cb65" y="80.797628"/>
     <use style="fill:#1f77b4;stroke:#1f77b4;" x="162.998622" xlink:href="#ma5ae36cb65" y="121.554597"/>
     <use style="fill:#1f77b4;stroke:#1f77b4;" x="181.729929" xlink:href="#ma5ae36cb65" y="58.078798"/>
     <use style="fill:#1f77b4;stroke:#1f77b4;" x="184.4156" xlink:href="#ma5ae36cb65" y="46.409143"/>
     <use style="fill:#1f77b4;stroke:#1f77b4;" x="187.114167" xlink:href="#ma5ae36cb65" y="99.922792"/>
     <use style="fill:#1f77b4;stroke:#1f77b4;" x="189.807144" xlink:href="#ma5ae36cb65" y="71.426225"/>
     <use style="fill:#1f77b4;stroke:#1f77b4;" x="192.516453" xlink:href="#ma5ae36cb65" y="103.238521"/>
     <use style="fill:#1f77b4;stroke:#1f77b4;" x="155.875495" xlink:href="#ma5ae36cb65" y="132.794919"/>
     <use style="fill:#1f77b4;stroke:#1f77b4;" x="179.614795" xlink:href="#ma5ae36cb65" y="96.484165"/>
     <use style="fill:#1f77b4;stroke:#1f77b4;" x="182.706374" xlink:href="#ma5ae36cb65" y="94.931763"/>
     <use style="fill:#1f77b4;stroke:#1f77b4;" x="185.454091" xlink:href="#ma5ae36cb65" y="66.204362"/>
     <use style="fill:#1f77b4;stroke:#1f77b4;" x="135.22734" xlink:href="#ma5ae36cb65" y="128.671338"/>
     <use style="fill:#1f77b4;stroke:#1f77b4;" x="143.372814" xlink:href="#ma5ae36cb65" y="80.375712"/>
     <use style="fill:#1f77b4;stroke:#1f77b4;" x="181.681223" xlink:href="#ma5ae36cb65" y="69.296739"/>
     <use style="fill:#1f77b4;stroke:#1f77b4;" x="192.472929" xlink:href="#ma5ae36cb65" y="103.430904"/>
     <use style="fill:#1f77b4;stroke:#1f77b4;" x="150.375509" xlink:href="#ma5ae36cb65" y="111.944878"/>
     <use style="fill:#1f77b4;stroke:#1f77b4;" x="141.575639" xlink:href="#ma5ae36cb65" y="127.391929"/>
     <use style="fill:#1f77b4;stroke:#1f77b4;" x="177.991523" xlink:href="#ma5ae36cb65" y="56.274483"/>
     <use style="fill:#1f77b4;stroke:#1f77b4;" x="165.453993" xlink:href="#ma5ae36cb65" y="96.547469"/>
     <use style="fill:#1f77b4;stroke:#1f77b4;" x="165.455211" xlink:href="#ma5ae36cb65" y="94.322475"/>
     <use style="fill:#1f77b4;stroke:#1f77b4;" x="168.083051" xlink:href="#ma5ae36cb65" y="145.152"/>
     <use style="fill:#1f77b4;stroke:#1f77b4;" x="168.084269" xlink:href="#ma5ae36cb65" y="137.586083"/>
     <use style="fill:#1f77b4;stroke:#1f77b4;" x="170.664644" xlink:href="#ma5ae36cb65" y="143.6009"/>
     <use style="fill:#1f77b4;stroke:#1f77b4;" x="170.665862" xlink:href="#ma5ae36cb65" y="117.972056"/>
    </g>
   </g>
   <g id="matplotlib.axis_3">
    <g id="xtick_19">
     <g id="line2d_27">
      <g>
       <use style="stroke:#000000;stroke-width:0.8;" x="61.870334" xlink:href="#mafb000b4af" y="150.089143"/>
      </g>
     </g>
     <g id="text_13">
      <!-- 0 -->
      <g transform="translate(58.689084 164.68758)scale(0.1 -0.1)">
       <use xlink:href="#DejaVuSerif-48"/>
      </g>
     </g>
    </g>
    <g id="xtick_20">
     <g id="line2d_28">
      <g>
       <use style="stroke:#000000;stroke-width:0.8;" x="130.927098" xlink:href="#mafb000b4af" y="150.089143"/>
      </g>
     </g>
     <g id="text_14">
      <!-- 1 -->
      <g transform="translate(127.745848 164.68758)scale(0.1 -0.1)">
       <use xlink:href="#DejaVuSerif-49"/>
      </g>
     </g>
    </g>
    <g id="xtick_21">
     <g id="line2d_29">
      <g>
       <use style="stroke:#000000;stroke-width:0.8;" x="199.983863" xlink:href="#mafb000b4af" y="150.089143"/>
      </g>
     </g>
     <g id="text_15">
      <!-- 2 -->
      <g transform="translate(196.802613 164.68758)scale(0.1 -0.1)">
       <use xlink:href="#DejaVuSerif-50"/>
      </g>
     </g>
    </g>
    <g id="text_16">
     <!-- Phase (P = 25.596 d) -->
     <g transform="translate(78.401562 178.365705)scale(0.1 -0.1)">
      <defs>
       <path d="M 4.109375 0 
L 4.109375 5.171875 
L 12.203125 5.171875 
L 12.203125 70.796875 
L 3.609375 70.796875 
L 3.609375 75.984375 
L 21.1875 75.984375 
L 21.1875 42.671875 
Q 23.6875 47.953125 27.65625 50.640625 
Q 31.640625 53.328125 36.921875 53.328125 
Q 45.515625 53.328125 49.5625 48.390625 
Q 53.609375 43.453125 53.609375 33.015625 
L 53.609375 5.171875 
L 61.625 5.171875 
L 61.625 0 
L 36.8125 0 
L 36.8125 5.171875 
L 44.578125 5.171875 
L 44.578125 30.171875 
Q 44.578125 39.703125 42.25 43.1875 
Q 39.9375 46.6875 33.984375 46.6875 
Q 27.734375 46.6875 24.453125 42.140625 
Q 21.1875 37.59375 21.1875 28.90625 
L 21.1875 5.171875 
L 29 5.171875 
L 29 0 
z
" id="DejaVuSerif-104"/>
       <path d="M 5.609375 2.875 
L 5.609375 14.984375 
L 10.796875 14.984375 
Q 10.984375 9.1875 14.421875 6.296875 
Q 17.875 3.421875 24.609375 3.421875 
Q 30.671875 3.421875 33.84375 5.6875 
Q 37.015625 7.953125 37.015625 12.3125 
Q 37.015625 15.71875 34.6875 17.8125 
Q 32.375 19.921875 24.90625 22.3125 
L 18.40625 24.515625 
Q 11.71875 26.65625 8.71875 29.875 
Q 5.71875 33.109375 5.71875 38.09375 
Q 5.71875 45.21875 10.9375 49.265625 
Q 16.15625 53.328125 25.390625 53.328125 
Q 29.5 53.328125 34.03125 52.25 
Q 38.578125 51.171875 43.40625 49.125 
L 43.40625 37.796875 
L 38.234375 37.796875 
Q 38.03125 42.828125 34.703125 45.65625 
Q 31.390625 48.484375 25.6875 48.484375 
Q 20.015625 48.484375 17.109375 46.484375 
Q 14.203125 44.484375 14.203125 40.484375 
Q 14.203125 37.203125 16.40625 35.21875 
Q 18.609375 33.25 25.203125 31.203125 
L 32.328125 29 
Q 39.703125 26.703125 42.9375 23.265625 
Q 46.1875 19.828125 46.1875 14.40625 
Q 46.1875 7.03125 40.546875 2.796875 
Q 34.90625 -1.421875 25 -1.421875 
Q 19.96875 -1.421875 15.1875 -0.34375 
Q 10.40625 0.734375 5.609375 2.875 
z
" id="DejaVuSerif-115"/>
       <path d="M 31.890625 -15.578125 
Q 20.015625 -10.25 13.953125 1.296875 
Q 7.90625 12.84375 7.90625 30.171875 
Q 7.90625 47.5625 13.953125 59.109375 
Q 20.015625 70.65625 31.890625 75.984375 
L 31.890625 71.1875 
Q 24.359375 66.015625 21.09375 56.609375 
Q 17.828125 47.21875 17.828125 30.171875 
Q 17.828125 13.1875 21.09375 3.78125 
Q 24.359375 -5.609375 31.890625 -10.796875 
z
" id="DejaVuSerif-40"/>
       <path d="M 10.59375 45.21875 
L 73.1875 45.21875 
L 73.1875 37.40625 
L 10.59375 37.40625 
z
M 10.59375 25.296875 
L 73.1875 25.296875 
L 73.1875 17.484375 
L 10.59375 17.484375 
z
" id="DejaVuSerif-61"/>
       <path d="M 32.71875 3.421875 
Q 39.59375 3.421875 43.296875 8.46875 
Q 47.015625 13.53125 47.015625 23 
Q 47.015625 32.46875 43.296875 37.515625 
Q 39.59375 42.578125 32.71875 42.578125 
Q 25.734375 42.578125 22.0625 37.6875 
Q 18.40625 32.8125 18.40625 23.578125 
Q 18.40625 13.875 22.109375 8.640625 
Q 25.828125 3.421875 32.71875 3.421875 
z
M 16.796875 40.140625 
Q 20.125 43.796875 24.3125 45.59375 
Q 28.515625 47.40625 33.796875 47.40625 
Q 44.671875 47.40625 51 40.859375 
Q 57.328125 34.328125 57.328125 23 
Q 57.328125 11.921875 50.515625 5.25 
Q 43.703125 -1.421875 32.328125 -1.421875 
Q 19.96875 -1.421875 13.328125 7.78125 
Q 6.6875 17 6.6875 34.078125 
Q 6.6875 53.21875 14.546875 63.71875 
Q 22.40625 74.21875 36.71875 74.21875 
Q 40.578125 74.21875 44.828125 73.484375 
Q 49.078125 72.75 53.515625 71.296875 
L 53.515625 59.28125 
L 48 59.28125 
Q 47.40625 64.203125 44.234375 66.796875 
Q 41.0625 69.390625 35.6875 69.390625 
Q 26.21875 69.390625 21.578125 62.203125 
Q 16.9375 55.03125 16.796875 40.140625 
z
" id="DejaVuSerif-54"/>
       <path d="M 7.078125 -15.578125 
L 7.078125 -10.796875 
Q 14.59375 -5.609375 17.890625 3.78125 
Q 21.1875 13.1875 21.1875 30.171875 
Q 21.1875 47.21875 17.890625 56.609375 
Q 14.59375 66.015625 7.078125 71.1875 
L 7.078125 75.984375 
Q 19 70.65625 25.046875 59.109375 
Q 31.109375 47.5625 31.109375 30.171875 
Q 31.109375 12.84375 25.046875 1.296875 
Q 19 -10.25 7.078125 -15.578125 
z
" id="DejaVuSerif-41"/>
      </defs>
      <use xlink:href="#DejaVuSerif-80"/>
      <use x="67.285156" xlink:href="#DejaVuSerif-104"/>
      <use x="131.689453" xlink:href="#DejaVuSerif-97"/>
      <use x="191.308594" xlink:href="#DejaVuSerif-115"/>
      <use x="242.626953" xlink:href="#DejaVuSerif-101"/>
      <use x="301.806641" xlink:href="#DejaVuSerif-32"/>
      <use x="333.59375" xlink:href="#DejaVuSerif-40"/>
      <use x="372.607422" xlink:href="#DejaVuSerif-80"/>
      <use x="439.892578" xlink:href="#DejaVuSerif-32"/>
      <use x="471.679688" xlink:href="#DejaVuSerif-61"/>
      <use x="555.46875" xlink:href="#DejaVuSerif-32"/>
      <use x="587.255859" xlink:href="#DejaVuSerif-50"/>
      <use x="650.878906" xlink:href="#DejaVuSerif-53"/>
      <use x="714.501953" xlink:href="#DejaVuSerif-46"/>
      <use x="746.289062" xlink:href="#DejaVuSerif-53"/>
      <use x="809.912109" xlink:href="#DejaVuSerif-57"/>
      <use x="873.535156" xlink:href="#DejaVuSerif-54"/>
      <use x="937.158203" xlink:href="#DejaVuSerif-32"/>
      <use x="968.945312" xlink:href="#DejaVuSerif-100"/>
      <use x="1032.958984" xlink:href="#DejaVuSerif-41"/>
     </g>
    </g>
   </g>
   <g id="matplotlib.axis_4">
    <g id="ytick_4">
     <g id="line2d_30">
      <g>
       <use style="stroke:#000000;stroke-width:0.8;" x="57.6" xlink:href="#m18489f8190" y="42.862581"/>
      </g>
     </g>
     <g id="text_17">
      <!-- 17.50 -->
      <g transform="translate(21.971875 46.661799)scale(0.1 -0.1)">
       <defs>
        <path d="M 56.390625 67.921875 
L 27.875 0 
L 20.609375 0 
L 47.796875 64.890625 
L 14.109375 64.890625 
L 14.109375 55.90625 
L 8.40625 55.90625 
L 8.40625 72.90625 
L 56.390625 72.90625 
z
" id="DejaVuSerif-55"/>
       </defs>
       <use xlink:href="#DejaVuSerif-49"/>
       <use x="63.623047" xlink:href="#DejaVuSerif-55"/>
       <use x="127.246094" xlink:href="#DejaVuSerif-46"/>
       <use x="159.033203" xlink:href="#DejaVuSerif-53"/>
       <use x="222.65625" xlink:href="#DejaVuSerif-48"/>
      </g>
     </g>
    </g>
    <g id="ytick_5">
     <g id="line2d_31">
      <g>
       <use style="stroke:#000000;stroke-width:0.8;" x="57.6" xlink:href="#m18489f8190" y="75.392686"/>
      </g>
     </g>
     <g id="text_18">
      <!-- 17.55 -->
      <g transform="translate(21.971875 79.191905)scale(0.1 -0.1)">
       <use xlink:href="#DejaVuSerif-49"/>
       <use x="63.623047" xlink:href="#DejaVuSerif-55"/>
       <use x="127.246094" xlink:href="#DejaVuSerif-46"/>
       <use x="159.033203" xlink:href="#DejaVuSerif-53"/>
       <use x="222.65625" xlink:href="#DejaVuSerif-53"/>
      </g>
     </g>
    </g>
    <g id="ytick_6">
     <g id="line2d_32">
      <g>
       <use style="stroke:#000000;stroke-width:0.8;" x="57.6" xlink:href="#m18489f8190" y="107.922791"/>
      </g>
     </g>
     <g id="text_19">
      <!-- 17.60 -->
      <g transform="translate(21.971875 111.72201)scale(0.1 -0.1)">
       <use xlink:href="#DejaVuSerif-49"/>
       <use x="63.623047" xlink:href="#DejaVuSerif-55"/>
       <use x="127.246094" xlink:href="#DejaVuSerif-46"/>
       <use x="159.033203" xlink:href="#DejaVuSerif-54"/>
       <use x="222.65625" xlink:href="#DejaVuSerif-48"/>
      </g>
     </g>
    </g>
    <g id="ytick_7">
     <g id="line2d_33">
      <g>
       <use style="stroke:#000000;stroke-width:0.8;" x="57.6" xlink:href="#m18489f8190" y="140.452896"/>
      </g>
     </g>
     <g id="text_20">
      <!-- 17.65 -->
      <g transform="translate(21.971875 144.252115)scale(0.1 -0.1)">
       <use xlink:href="#DejaVuSerif-49"/>
       <use x="63.623047" xlink:href="#DejaVuSerif-55"/>
       <use x="127.246094" xlink:href="#DejaVuSerif-46"/>
       <use x="159.033203" xlink:href="#DejaVuSerif-54"/>
       <use x="222.65625" xlink:href="#DejaVuSerif-53"/>
      </g>
     </g>
    </g>
    <g id="text_21">
     <!-- Mag -->
     <g transform="translate(15.75 107.082134)rotate(-90)scale(0.1 -0.1)">
      <defs>
       <path d="M 5.515625 0 
L 5.515625 5.171875 
L 14.796875 5.171875 
L 14.796875 67.671875 
L 4.984375 67.671875 
L 4.984375 72.90625 
L 26.21875 72.90625 
L 51.8125 21 
L 77.390625 72.90625 
L 97.3125 72.90625 
L 97.3125 67.671875 
L 87.59375 67.671875 
L 87.59375 5.171875 
L 96.921875 5.171875 
L 96.921875 0 
L 68.40625 0 
L 68.40625 5.171875 
L 77.6875 5.171875 
L 77.6875 61.53125 
L 52.6875 10.6875 
L 45.796875 10.6875 
L 20.796875 61.53125 
L 20.796875 5.171875 
L 30.078125 5.171875 
L 30.078125 0 
z
" id="DejaVuSerif-77"/>
      </defs>
      <use xlink:href="#DejaVuSerif-77"/>
      <use x="102.392578" xlink:href="#DejaVuSerif-97"/>
      <use x="162.011719" xlink:href="#DejaVuSerif-103"/>
     </g>
    </g>
   </g>
   <g id="patch_9">
    <path d="M 57.6 150.089143 
L 57.6 41.472 
" style="fill:none;stroke:#000000;stroke-linecap:square;stroke-linejoin:miter;stroke-width:0.8;"/>
   </g>
   <g id="patch_10">
    <path d="M 206.4 150.089143 
L 206.4 41.472 
" style="fill:none;stroke:#000000;stroke-linecap:square;stroke-linejoin:miter;stroke-width:0.8;"/>
   </g>
   <g id="patch_11">
    <path d="M 57.6 150.089143 
L 206.4 150.089143 
" style="fill:none;stroke:#000000;stroke-linecap:square;stroke-linejoin:miter;stroke-width:0.8;"/>
   </g>
   <g id="patch_12">
    <path d="M 57.6 41.472 
L 206.4 41.472 
" style="fill:none;stroke:#000000;stroke-linecap:square;stroke-linejoin:miter;stroke-width:0.8;"/>
   </g>
   <g id="text_22">
    <!-- Folded Light Curve -->
    <g transform="translate(83.086719 35.472)scale(0.1 -0.1)">
     <defs>
      <path d="M 20.515625 5.171875 
L 29 5.171875 
L 29 0 
L 2.875 0 
L 2.875 5.171875 
L 11.53125 5.171875 
L 11.53125 70.796875 
L 2.875 70.796875 
L 2.875 75.984375 
L 20.515625 75.984375 
z
" id="DejaVuSerif-108"/>
      <path d="M 5.515625 0 
L 5.515625 5.171875 
L 14.796875 5.171875 
L 14.796875 67.671875 
L 5.515625 67.671875 
L 5.515625 72.90625 
L 33.984375 72.90625 
L 33.984375 67.671875 
L 24.703125 67.671875 
L 24.703125 6 
L 58.015625 6 
L 58.015625 18.21875 
L 64.015625 18.21875 
L 64.015625 0 
z
" id="DejaVuSerif-76"/>
      <path d="M 10.796875 46.6875 
L 2.875 46.6875 
L 2.875 51.90625 
L 10.796875 51.90625 
L 10.796875 68.015625 
L 19.828125 68.015625 
L 19.828125 51.90625 
L 36.71875 51.90625 
L 36.71875 46.6875 
L 19.828125 46.6875 
L 19.828125 13.71875 
Q 19.828125 7.125 21.09375 5.265625 
Q 22.359375 3.421875 25.78125 3.421875 
Q 29.296875 3.421875 30.90625 5.484375 
Q 32.515625 7.5625 32.625 12.203125 
L 39.40625 12.203125 
Q 39.015625 5.125 35.546875 1.84375 
Q 32.078125 -1.421875 25 -1.421875 
Q 17.234375 -1.421875 14.015625 2.015625 
Q 10.796875 5.46875 10.796875 13.71875 
z
" id="DejaVuSerif-116"/>
      <path d="M 70.515625 19.28125 
Q 67.28125 9.078125 59.6875 3.828125 
Q 52.09375 -1.421875 40.484375 -1.421875 
Q 33.34375 -1.421875 27.234375 1.015625 
Q 21.140625 3.46875 16.40625 8.203125 
Q 10.9375 13.671875 8.265625 20.625 
Q 5.609375 27.59375 5.609375 36.375 
Q 5.609375 53.375 15.421875 63.796875 
Q 25.25 74.21875 41.3125 74.21875 
Q 47.265625 74.21875 54 72.65625 
Q 60.75 71.09375 68.5 67.921875 
L 68.5 51.125 
L 62.984375 51.125 
Q 61.1875 60.296875 55.734375 64.640625 
Q 50.296875 69 40.484375 69 
Q 28.8125 69 22.796875 60.71875 
Q 16.796875 52.4375 16.796875 36.375 
Q 16.796875 20.359375 22.796875 12.078125 
Q 28.8125 3.8125 40.484375 3.8125 
Q 48.640625 3.8125 53.90625 7.6875 
Q 59.1875 11.578125 61.53125 19.28125 
z
" id="DejaVuSerif-67"/>
      <path d="M 35.40625 51.90625 
L 52.203125 51.90625 
L 52.203125 5.171875 
L 60.6875 5.171875 
L 60.6875 0 
L 43.21875 0 
L 43.21875 9.1875 
Q 40.71875 4 36.765625 1.28125 
Q 32.8125 -1.421875 27.59375 -1.421875 
Q 18.953125 -1.421875 14.875 3.484375 
Q 10.796875 8.40625 10.796875 18.890625 
L 10.796875 46.6875 
L 2.6875 46.6875 
L 2.6875 51.90625 
L 19.828125 51.90625 
L 19.828125 21.6875 
Q 19.828125 12.203125 22.140625 8.6875 
Q 24.46875 5.171875 30.421875 5.171875 
Q 36.671875 5.171875 39.9375 9.765625 
Q 43.21875 14.359375 43.21875 23.09375 
L 43.21875 46.6875 
L 35.40625 46.6875 
z
" id="DejaVuSerif-117"/>
      <path d="M 24.703125 0 
L 5.609375 46.6875 
L -0.296875 46.6875 
L -0.296875 51.90625 
L 23.578125 51.90625 
L 23.578125 46.6875 
L 15.28125 46.6875 
L 29.890625 10.984375 
L 44.484375 46.6875 
L 36.71875 46.6875 
L 36.71875 51.90625 
L 56.203125 51.90625 
L 56.203125 46.6875 
L 50.390625 46.6875 
L 31.296875 0 
z
" id="DejaVuSerif-118"/>
     </defs>
     <use xlink:href="#DejaVuSerif-70"/>
     <use x="63.884766" xlink:href="#DejaVuSerif-111"/>
     <use x="124.089844" xlink:href="#DejaVuSerif-108"/>
     <use x="156.072266" xlink:href="#DejaVuSerif-100"/>
     <use x="220.085938" xlink:href="#DejaVuSerif-101"/>
     <use x="279.265625" xlink:href="#DejaVuSerif-100"/>
     <use x="343.279297" xlink:href="#DejaVuSerif-32"/>
     <use x="375.066406" xlink:href="#DejaVuSerif-76"/>
     <use x="441.472656" xlink:href="#DejaVuSerif-105"/>
     <use x="473.455078" xlink:href="#DejaVuSerif-103"/>
     <use x="537.46875" xlink:href="#DejaVuSerif-104"/>
     <use x="601.873047" xlink:href="#DejaVuSerif-116"/>
     <use x="642.058594" xlink:href="#DejaVuSerif-32"/>
     <use x="673.845703" xlink:href="#DejaVuSerif-67"/>
     <use x="750.359375" xlink:href="#DejaVuSerif-117"/>
     <use x="814.763672" xlink:href="#DejaVuSerif-114"/>
     <use x="862.566406" xlink:href="#DejaVuSerif-118"/>
     <use x="919.060547" xlink:href="#DejaVuSerif-101"/>
    </g>
   </g>
  </g>
  <g id="axes_3">
   <g id="patch_13">
    <path d="M 57.6 307.584 
L 414.72 307.584 
L 414.72 198.966857 
L 57.6 198.966857 
z
" style="fill:#ffffff;"/>
   </g>
   <g id="PathCollection_3">
    <g clip-path="url(#p715081cc4c)">
     <use style="fill:#1f77b4;stroke:#1f77b4;" x="73.832727" xlink:href="#ma5ae36cb65" y="262.154252"/>
     <use style="fill:#1f77b4;stroke:#1f77b4;" x="73.833119" xlink:href="#ma5ae36cb65" y="246.272456"/>
     <use style="fill:#1f77b4;stroke:#1f77b4;" x="94.910293" xlink:href="#ma5ae36cb65" y="262.703727"/>
     <use style="fill:#1f77b4;stroke:#1f77b4;" x="94.910684" xlink:href="#ma5ae36cb65" y="262.045827"/>
     <use style="fill:#1f77b4;stroke:#1f77b4;" x="96.675449" xlink:href="#ma5ae36cb65" y="243.168991"/>
     <use style="fill:#1f77b4;stroke:#1f77b4;" x="99.185169" xlink:href="#ma5ae36cb65" y="245.966877"/>
     <use style="fill:#1f77b4;stroke:#1f77b4;" x="99.18789" xlink:href="#ma5ae36cb65" y="248.119945"/>
     <use style="fill:#1f77b4;stroke:#1f77b4;" x="121.144305" xlink:href="#ma5ae36cb65" y="252.977465"/>
     <use style="fill:#1f77b4;stroke:#1f77b4;" x="121.988998" xlink:href="#ma5ae36cb65" y="238.325482"/>
     <use style="fill:#1f77b4;stroke:#1f77b4;" x="121.98938" xlink:href="#ma5ae36cb65" y="268.191073"/>
     <use style="fill:#1f77b4;stroke:#1f77b4;" x="123.69785" xlink:href="#ma5ae36cb65" y="222.517521"/>
     <use style="fill:#1f77b4;stroke:#1f77b4;" x="123.698242" xlink:href="#ma5ae36cb65" y="255.235235"/>
     <use style="fill:#1f77b4;stroke:#1f77b4;" x="125.362202" xlink:href="#ma5ae36cb65" y="229.915951"/>
     <use style="fill:#1f77b4;stroke:#1f77b4;" x="125.362594" xlink:href="#ma5ae36cb65" y="231.712044"/>
     <use style="fill:#1f77b4;stroke:#1f77b4;" x="126.199487" xlink:href="#ma5ae36cb65" y="248.974067"/>
     <use style="fill:#1f77b4;stroke:#1f77b4;" x="126.199878" xlink:href="#ma5ae36cb65" y="234.833245"/>
     <use style="fill:#1f77b4;stroke:#1f77b4;" x="127.090237" xlink:href="#ma5ae36cb65" y="244.615557"/>
     <use style="fill:#1f77b4;stroke:#1f77b4;" x="127.090618" xlink:href="#ma5ae36cb65" y="239.662741"/>
     <use style="fill:#1f77b4;stroke:#1f77b4;" x="127.899364" xlink:href="#ma5ae36cb65" y="249.607666"/>
     <use style="fill:#1f77b4;stroke:#1f77b4;" x="127.899756" xlink:href="#ma5ae36cb65" y="229.149626"/>
     <use style="fill:#1f77b4;stroke:#1f77b4;" x="128.744146" xlink:href="#ma5ae36cb65" y="238.876819"/>
     <use style="fill:#1f77b4;stroke:#1f77b4;" x="128.744527" xlink:href="#ma5ae36cb65" y="241.627033"/>
     <use style="fill:#1f77b4;stroke:#1f77b4;" x="136.360585" xlink:href="#ma5ae36cb65" y="272.319702"/>
     <use style="fill:#1f77b4;stroke:#1f77b4;" x="142.231315" xlink:href="#ma5ae36cb65" y="224.518264"/>
     <use style="fill:#1f77b4;stroke:#1f77b4;" x="143.073052" xlink:href="#ma5ae36cb65" y="215.73025"/>
     <use style="fill:#1f77b4;stroke:#1f77b4;" x="143.918832" xlink:href="#ma5ae36cb65" y="256.029535"/>
     <use style="fill:#1f77b4;stroke:#1f77b4;" x="144.76286" xlink:href="#ma5ae36cb65" y="234.569752"/>
     <use style="fill:#1f77b4;stroke:#1f77b4;" x="145.612006" xlink:href="#ma5ae36cb65" y="258.526496"/>
     <use style="fill:#1f77b4;stroke:#1f77b4;" x="155.771705" xlink:href="#ma5ae36cb65" y="280.784401"/>
     <use style="fill:#1f77b4;stroke:#1f77b4;" x="163.21203" xlink:href="#ma5ae36cb65" y="253.440023"/>
     <use style="fill:#1f77b4;stroke:#1f77b4;" x="164.180987" xlink:href="#ma5ae36cb65" y="252.270963"/>
     <use style="fill:#1f77b4;stroke:#1f77b4;" x="165.042171" xlink:href="#ma5ae36cb65" y="230.637347"/>
     <use style="fill:#1f77b4;stroke:#1f77b4;" x="170.943837" xlink:href="#ma5ae36cb65" y="277.679074"/>
     <use style="fill:#1f77b4;stroke:#1f77b4;" x="173.496775" xlink:href="#ma5ae36cb65" y="241.309303"/>
     <use style="fill:#1f77b4;stroke:#1f77b4;" x="207.146958" xlink:href="#ma5ae36cb65" y="232.96611"/>
     <use style="fill:#1f77b4;stroke:#1f77b4;" x="210.529274" xlink:href="#ma5ae36cb65" y="258.671373"/>
     <use style="fill:#1f77b4;stroke:#1f77b4;" x="218.978819" xlink:href="#ma5ae36cb65" y="265.082954"/>
     <use style="fill:#1f77b4;stroke:#1f77b4;" x="346.082599" xlink:href="#ma5ae36cb65" y="276.715595"/>
     <use style="fill:#1f77b4;stroke:#1f77b4;" x="379.139631" xlink:href="#ma5ae36cb65" y="223.159497"/>
     <use style="fill:#1f77b4;stroke:#1f77b4;" x="396.853779" xlink:href="#ma5ae36cb65" y="253.487695"/>
     <use style="fill:#1f77b4;stroke:#1f77b4;" x="396.854161" xlink:href="#ma5ae36cb65" y="251.812129"/>
     <use style="fill:#1f77b4;stroke:#1f77b4;" x="397.677773" xlink:href="#ma5ae36cb65" y="290.090093"/>
     <use style="fill:#1f77b4;stroke:#1f77b4;" x="397.678155" xlink:href="#ma5ae36cb65" y="284.392462"/>
     <use style="fill:#1f77b4;stroke:#1f77b4;" x="398.486891" xlink:href="#ma5ae36cb65" y="288.922013"/>
     <use style="fill:#1f77b4;stroke:#1f77b4;" x="398.487273" xlink:href="#ma5ae36cb65" y="269.621814"/>
    </g>
   </g>
   <g id="matplotlib.axis_5">
    <g id="xtick_22">
     <g id="line2d_34">
      <g>
       <use style="stroke:#000000;stroke-width:0.8;" x="97.996351" xlink:href="#mafb000b4af" y="307.584"/>
      </g>
     </g>
     <g id="text_23">
      <!-- 58300 -->
      <g transform="translate(82.090101 322.182437)scale(0.1 -0.1)">
       <defs>
        <path d="M 46.578125 19.921875 
Q 46.578125 27.734375 42.6875 32.046875 
Q 38.8125 36.375 31.78125 36.375 
Q 24.75 36.375 20.875 32.046875 
Q 17 27.734375 17 19.921875 
Q 17 12.0625 20.875 7.734375 
Q 24.75 3.421875 31.78125 3.421875 
Q 38.8125 3.421875 42.6875 7.734375 
Q 46.578125 12.0625 46.578125 19.921875 
z
M 44.578125 55.328125 
Q 44.578125 61.96875 41.203125 65.671875 
Q 37.84375 69.390625 31.78125 69.390625 
Q 25.78125 69.390625 22.390625 65.671875 
Q 19 61.96875 19 55.328125 
Q 19 48.640625 22.390625 44.921875 
Q 25.78125 41.21875 31.78125 41.21875 
Q 37.84375 41.21875 41.203125 44.921875 
Q 44.578125 48.640625 44.578125 55.328125 
z
M 39.3125 38.8125 
Q 47.609375 37.703125 52.25 32.6875 
Q 56.890625 27.6875 56.890625 19.921875 
Q 56.890625 9.671875 50.390625 4.125 
Q 43.890625 -1.421875 31.78125 -1.421875 
Q 19.734375 -1.421875 13.203125 4.125 
Q 6.6875 9.671875 6.6875 19.921875 
Q 6.6875 27.6875 11.328125 32.6875 
Q 15.96875 37.703125 24.3125 38.8125 
Q 16.9375 40.140625 13 44.40625 
Q 9.078125 48.6875 9.078125 55.328125 
Q 9.078125 64.109375 15.125 69.15625 
Q 21.1875 74.21875 31.78125 74.21875 
Q 42.390625 74.21875 48.4375 69.15625 
Q 54.5 64.109375 54.5 55.328125 
Q 54.5 48.6875 50.5625 44.40625 
Q 46.625 40.140625 39.3125 38.8125 
z
" id="DejaVuSerif-56"/>
        <path d="M 9.71875 69.828125 
Q 15.4375 71.96875 20.671875 73.09375 
Q 25.921875 74.21875 30.515625 74.21875 
Q 41.21875 74.21875 47.21875 69.59375 
Q 53.21875 64.984375 53.21875 56.78125 
Q 53.21875 50.203125 49.0625 45.78125 
Q 44.921875 41.359375 37.3125 39.796875 
Q 46.296875 38.53125 51.25 33.28125 
Q 56.203125 28.03125 56.203125 19.671875 
Q 56.203125 9.46875 49.34375 4.015625 
Q 42.484375 -1.421875 29.59375 -1.421875 
Q 23.875 -1.421875 18.421875 -0.1875 
Q 12.984375 1.03125 7.625 3.515625 
L 7.625 17.671875 
L 13.09375 17.671875 
Q 13.578125 10.640625 17.828125 7.03125 
Q 22.078125 3.421875 29.78125 3.421875 
Q 37.25 3.421875 41.578125 7.734375 
Q 45.90625 12.0625 45.90625 19.578125 
Q 45.90625 28.171875 41.453125 32.59375 
Q 37.015625 37.015625 28.421875 37.015625 
L 23.78125 37.015625 
L 23.78125 42 
L 26.21875 42 
Q 34.765625 42 39.03125 45.53125 
Q 43.3125 49.078125 43.3125 56.203125 
Q 43.3125 62.59375 39.796875 65.984375 
Q 36.28125 69.390625 29.6875 69.390625 
Q 23.09375 69.390625 19.453125 66.265625 
Q 15.828125 63.140625 15.1875 56.984375 
L 9.71875 56.984375 
z
" id="DejaVuSerif-51"/>
       </defs>
       <use xlink:href="#DejaVuSerif-53"/>
       <use x="63.623047" xlink:href="#DejaVuSerif-56"/>
       <use x="127.246094" xlink:href="#DejaVuSerif-51"/>
       <use x="190.869141" xlink:href="#DejaVuSerif-48"/>
       <use x="254.492188" xlink:href="#DejaVuSerif-48"/>
      </g>
     </g>
    </g>
    <g id="xtick_23">
     <g id="line2d_35">
      <g>
       <use style="stroke:#000000;stroke-width:0.8;" x="140.27554" xlink:href="#mafb000b4af" y="307.584"/>
      </g>
     </g>
     <g id="text_24">
      <!-- 58350 -->
      <g transform="translate(124.36929 322.182437)scale(0.1 -0.1)">
       <use xlink:href="#DejaVuSerif-53"/>
       <use x="63.623047" xlink:href="#DejaVuSerif-56"/>
       <use x="127.246094" xlink:href="#DejaVuSerif-51"/>
       <use x="190.869141" xlink:href="#DejaVuSerif-53"/>
       <use x="254.492188" xlink:href="#DejaVuSerif-48"/>
      </g>
     </g>
    </g>
    <g id="xtick_24">
     <g id="line2d_36">
      <g>
       <use style="stroke:#000000;stroke-width:0.8;" x="182.55473" xlink:href="#mafb000b4af" y="307.584"/>
      </g>
     </g>
     <g id="text_25">
      <!-- 58400 -->
      <g transform="translate(166.64848 322.182437)scale(0.1 -0.1)">
       <use xlink:href="#DejaVuSerif-53"/>
       <use x="63.623047" xlink:href="#DejaVuSerif-56"/>
       <use x="127.246094" xlink:href="#DejaVuSerif-52"/>
       <use x="190.869141" xlink:href="#DejaVuSerif-48"/>
       <use x="254.492188" xlink:href="#DejaVuSerif-48"/>
      </g>
     </g>
    </g>
    <g id="xtick_25">
     <g id="line2d_37">
      <g>
       <use style="stroke:#000000;stroke-width:0.8;" x="224.833919" xlink:href="#mafb000b4af" y="307.584"/>
      </g>
     </g>
     <g id="text_26">
      <!-- 58450 -->
      <g transform="translate(208.927669 322.182437)scale(0.1 -0.1)">
       <use xlink:href="#DejaVuSerif-53"/>
       <use x="63.623047" xlink:href="#DejaVuSerif-56"/>
       <use x="127.246094" xlink:href="#DejaVuSerif-52"/>
       <use x="190.869141" xlink:href="#DejaVuSerif-53"/>
       <use x="254.492188" xlink:href="#DejaVuSerif-48"/>
      </g>
     </g>
    </g>
    <g id="xtick_26">
     <g id="line2d_38">
      <g>
       <use style="stroke:#000000;stroke-width:0.8;" x="267.113108" xlink:href="#mafb000b4af" y="307.584"/>
      </g>
     </g>
     <g id="text_27">
      <!-- 58500 -->
      <g transform="translate(251.206858 322.182437)scale(0.1 -0.1)">
       <use xlink:href="#DejaVuSerif-53"/>
       <use x="63.623047" xlink:href="#DejaVuSerif-56"/>
       <use x="127.246094" xlink:href="#DejaVuSerif-53"/>
       <use x="190.869141" xlink:href="#DejaVuSerif-48"/>
       <use x="254.492188" xlink:href="#DejaVuSerif-48"/>
      </g>
     </g>
    </g>
    <g id="xtick_27">
     <g id="line2d_39">
      <g>
       <use style="stroke:#000000;stroke-width:0.8;" x="309.392298" xlink:href="#mafb000b4af" y="307.584"/>
      </g>
     </g>
     <g id="text_28">
      <!-- 58550 -->
      <g transform="translate(293.486048 322.182437)scale(0.1 -0.1)">
       <use xlink:href="#DejaVuSerif-53"/>
       <use x="63.623047" xlink:href="#DejaVuSerif-56"/>
       <use x="127.246094" xlink:href="#DejaVuSerif-53"/>
       <use x="190.869141" xlink:href="#DejaVuSerif-53"/>
       <use x="254.492188" xlink:href="#DejaVuSerif-48"/>
      </g>
     </g>
    </g>
    <g id="xtick_28">
     <g id="line2d_40">
      <g>
       <use style="stroke:#000000;stroke-width:0.8;" x="351.671487" xlink:href="#mafb000b4af" y="307.584"/>
      </g>
     </g>
     <g id="text_29">
      <!-- 58600 -->
      <g transform="translate(335.765237 322.182437)scale(0.1 -0.1)">
       <use xlink:href="#DejaVuSerif-53"/>
       <use x="63.623047" xlink:href="#DejaVuSerif-56"/>
       <use x="127.246094" xlink:href="#DejaVuSerif-54"/>
       <use x="190.869141" xlink:href="#DejaVuSerif-48"/>
       <use x="254.492188" xlink:href="#DejaVuSerif-48"/>
      </g>
     </g>
    </g>
    <g id="xtick_29">
     <g id="line2d_41">
      <g>
       <use style="stroke:#000000;stroke-width:0.8;" x="393.950677" xlink:href="#mafb000b4af" y="307.584"/>
      </g>
     </g>
     <g id="text_30">
      <!-- 58650 -->
      <g transform="translate(378.044427 322.182437)scale(0.1 -0.1)">
       <use xlink:href="#DejaVuSerif-53"/>
       <use x="63.623047" xlink:href="#DejaVuSerif-56"/>
       <use x="127.246094" xlink:href="#DejaVuSerif-54"/>
       <use x="190.869141" xlink:href="#DejaVuSerif-53"/>
       <use x="254.492188" xlink:href="#DejaVuSerif-48"/>
      </g>
     </g>
    </g>
    <g id="text_31">
     <!-- MJD -->
     <g transform="translate(225.027187 335.860562)scale(0.1 -0.1)">
      <defs>
       <path d="M -8.40625 -17.484375 
L -8.40625 -6 
L -2.828125 -6 
Q -2.6875 -10.84375 -0.53125 -13.203125 
Q 1.609375 -15.578125 5.90625 -15.578125 
Q 11.71875 -15.578125 14.015625 -11.90625 
Q 16.3125 -8.25 16.3125 2.390625 
L 16.3125 67.671875 
L 4.984375 67.671875 
L 4.984375 72.90625 
L 35.5 72.90625 
L 35.5 67.671875 
L 26.21875 67.671875 
L 26.21875 2 
Q 26.21875 -10.0625 21.375 -15.421875 
Q 16.546875 -20.796875 5.8125 -20.796875 
Q 2.34375 -20.796875 -1.234375 -19.96875 
Q -4.828125 -19.140625 -8.40625 -17.484375 
z
" id="DejaVuSerif-74"/>
       <path d="M 24.703125 5.171875 
L 33.796875 5.171875 
Q 48 5.171875 55.59375 13.28125 
Q 63.1875 21.390625 63.1875 36.53125 
Q 63.1875 51.65625 55.609375 59.65625 
Q 48.046875 67.671875 33.796875 67.671875 
L 24.703125 67.671875 
z
M 5.515625 0 
L 5.515625 5.171875 
L 14.796875 5.171875 
L 14.796875 67.671875 
L 5.515625 67.671875 
L 5.515625 72.90625 
L 34.515625 72.90625 
Q 53.375 72.90625 63.890625 63.28125 
Q 74.421875 53.65625 74.421875 36.53125 
Q 74.421875 19.34375 63.875 9.671875 
Q 53.328125 0 34.515625 0 
z
" id="DejaVuSerif-68"/>
      </defs>
      <use xlink:href="#DejaVuSerif-77"/>
      <use x="102.392578" xlink:href="#DejaVuSerif-74"/>
      <use x="142.480469" xlink:href="#DejaVuSerif-68"/>
     </g>
    </g>
   </g>
   <g id="matplotlib.axis_6">
    <g id="ytick_8">
     <g id="line2d_42">
      <g>
       <use style="stroke:#000000;stroke-width:0.8;" x="57.6" xlink:href="#m18489f8190" y="213.059456"/>
      </g>
     </g>
     <g id="text_32">
      <!-- 17.50 -->
      <g transform="translate(21.971875 216.858675)scale(0.1 -0.1)">
       <use xlink:href="#DejaVuSerif-49"/>
       <use x="63.623047" xlink:href="#DejaVuSerif-55"/>
       <use x="127.246094" xlink:href="#DejaVuSerif-46"/>
       <use x="159.033203" xlink:href="#DejaVuSerif-53"/>
       <use x="222.65625" xlink:href="#DejaVuSerif-48"/>
      </g>
     </g>
    </g>
    <g id="ytick_9">
     <g id="line2d_43">
      <g>
       <use style="stroke:#000000;stroke-width:0.8;" x="57.6" xlink:href="#m18489f8190" y="237.556757"/>
      </g>
     </g>
     <g id="text_33">
      <!-- 17.55 -->
      <g transform="translate(21.971875 241.355976)scale(0.1 -0.1)">
       <use xlink:href="#DejaVuSerif-49"/>
       <use x="63.623047" xlink:href="#DejaVuSerif-55"/>
       <use x="127.246094" xlink:href="#DejaVuSerif-46"/>
       <use x="159.033203" xlink:href="#DejaVuSerif-53"/>
       <use x="222.65625" xlink:href="#DejaVuSerif-53"/>
      </g>
     </g>
    </g>
    <g id="ytick_10">
     <g id="line2d_44">
      <g>
       <use style="stroke:#000000;stroke-width:0.8;" x="57.6" xlink:href="#m18489f8190" y="262.054059"/>
      </g>
     </g>
     <g id="text_34">
      <!-- 17.60 -->
      <g transform="translate(21.971875 265.853277)scale(0.1 -0.1)">
       <use xlink:href="#DejaVuSerif-49"/>
       <use x="63.623047" xlink:href="#DejaVuSerif-55"/>
       <use x="127.246094" xlink:href="#DejaVuSerif-46"/>
       <use x="159.033203" xlink:href="#DejaVuSerif-54"/>
       <use x="222.65625" xlink:href="#DejaVuSerif-48"/>
      </g>
     </g>
    </g>
    <g id="ytick_11">
     <g id="line2d_45">
      <g>
       <use style="stroke:#000000;stroke-width:0.8;" x="57.6" xlink:href="#m18489f8190" y="286.55136"/>
      </g>
     </g>
     <g id="text_35">
      <!-- 17.65 -->
      <g transform="translate(21.971875 290.350579)scale(0.1 -0.1)">
       <use xlink:href="#DejaVuSerif-49"/>
       <use x="63.623047" xlink:href="#DejaVuSerif-55"/>
       <use x="127.246094" xlink:href="#DejaVuSerif-46"/>
       <use x="159.033203" xlink:href="#DejaVuSerif-54"/>
       <use x="222.65625" xlink:href="#DejaVuSerif-53"/>
      </g>
     </g>
    </g>
    <g id="text_36">
     <!-- Mag -->
     <g transform="translate(15.75 264.576991)rotate(-90)scale(0.1 -0.1)">
      <use xlink:href="#DejaVuSerif-77"/>
      <use x="102.392578" xlink:href="#DejaVuSerif-97"/>
      <use x="162.011719" xlink:href="#DejaVuSerif-103"/>
     </g>
    </g>
   </g>
   <g id="LineCollection_5">
    <path clip-path="url(#p715081cc4c)" d="M 73.832727 249.885341 
L 73.832727 274.423164 
" style="fill:none;stroke:#1f77b4;stroke-width:0.5;"/>
    <path clip-path="url(#p715081cc4c)" d="M 73.833119 234.15987 
L 73.833119 258.385043 
" style="fill:none;stroke:#1f77b4;stroke-width:0.5;"/>
    <path clip-path="url(#p715081cc4c)" d="M 94.910293 250.429313 
L 94.910293 274.978141 
" style="fill:none;stroke:#1f77b4;stroke-width:0.5;"/>
    <path clip-path="url(#p715081cc4c)" d="M 94.910684 249.778004 
L 94.910684 274.313651 
" style="fill:none;stroke:#1f77b4;stroke-width:0.5;"/>
    <path clip-path="url(#p715081cc4c)" d="M 96.675449 231.086349 
L 96.675449 255.251632 
" style="fill:none;stroke:#1f77b4;stroke-width:0.5;"/>
    <path clip-path="url(#p715081cc4c)" d="M 99.185169 233.857245 
L 99.185169 258.076508 
" style="fill:none;stroke:#1f77b4;stroke-width:0.5;"/>
    <path clip-path="url(#p715081cc4c)" d="M 99.18789 235.98944 
L 99.18789 260.250449 
" style="fill:none;stroke:#1f77b4;stroke-width:0.5;"/>
    <path clip-path="url(#p715081cc4c)" d="M 121.144305 240.799514 
L 121.144305 265.155417 
" style="fill:none;stroke:#1f77b4;stroke-width:0.5;"/>
    <path clip-path="url(#p715081cc4c)" d="M 121.988998 226.289188 
L 121.988998 250.361777 
" style="fill:none;stroke:#1f77b4;stroke-width:0.5;"/>
    <path clip-path="url(#p715081cc4c)" d="M 121.98938 255.861367 
L 121.98938 280.52078 
" style="fill:none;stroke:#1f77b4;stroke-width:0.5;"/>
    <path clip-path="url(#p715081cc4c)" d="M 123.69785 210.629227 
L 123.69785 234.405815 
" style="fill:none;stroke:#1f77b4;stroke-width:0.5;"/>
    <path clip-path="url(#p715081cc4c)" d="M 123.698242 243.035071 
L 123.698242 267.435398 
" style="fill:none;stroke:#1f77b4;stroke-width:0.5;"/>
    <path clip-path="url(#p715081cc4c)" d="M 125.362202 217.959003 
L 125.362202 241.872899 
" style="fill:none;stroke:#1f77b4;stroke-width:0.5;"/>
    <path clip-path="url(#p715081cc4c)" d="M 125.362594 219.738269 
L 125.362594 243.685819 
" style="fill:none;stroke:#1f77b4;stroke-width:0.5;"/>
    <path clip-path="url(#p715081cc4c)" d="M 126.199487 236.835258 
L 126.199487 261.112876 
" style="fill:none;stroke:#1f77b4;stroke-width:0.5;"/>
    <path clip-path="url(#p715081cc4c)" d="M 126.199878 222.830072 
L 126.199878 246.836419 
" style="fill:none;stroke:#1f77b4;stroke-width:0.5;"/>
    <path clip-path="url(#p715081cc4c)" d="M 127.090237 232.518982 
L 127.090237 256.712132 
" style="fill:none;stroke:#1f77b4;stroke-width:0.5;"/>
    <path clip-path="url(#p715081cc4c)" d="M 127.090618 227.613695 
L 127.090618 251.711787 
" style="fill:none;stroke:#1f77b4;stroke-width:0.5;"/>
    <path clip-path="url(#p715081cc4c)" d="M 127.899364 237.462683 
L 127.899364 261.752648 
" style="fill:none;stroke:#1f77b4;stroke-width:0.5;"/>
    <path clip-path="url(#p715081cc4c)" d="M 127.899756 217.199839 
L 127.899756 241.099414 
" style="fill:none;stroke:#1f77b4;stroke-width:0.5;"/>
    <path clip-path="url(#p715081cc4c)" d="M 128.744146 226.835272 
L 128.744146 250.918365 
" style="fill:none;stroke:#1f77b4;stroke-width:0.5;"/>
    <path clip-path="url(#p715081cc4c)" d="M 128.744527 229.559198 
L 128.744527 253.694867 
" style="fill:none;stroke:#1f77b4;stroke-width:0.5;"/>
    <path clip-path="url(#p715081cc4c)" d="M 136.360585 259.947973 
L 136.360585 284.691431 
" style="fill:none;stroke:#1f77b4;stroke-width:0.5;"/>
    <path clip-path="url(#p715081cc4c)" d="M 142.231315 212.611514 
L 142.231315 236.425015 
" style="fill:none;stroke:#1f77b4;stroke-width:0.5;"/>
    <path clip-path="url(#p715081cc4c)" d="M 143.073052 203.904 
L 143.073052 227.556499 
" style="fill:none;stroke:#1f77b4;stroke-width:0.5;"/>
    <path clip-path="url(#p715081cc4c)" d="M 143.918832 243.821529 
L 143.918832 268.237541 
" style="fill:none;stroke:#1f77b4;stroke-width:0.5;"/>
    <path clip-path="url(#p715081cc4c)" d="M 144.76286 222.569066 
L 144.76286 246.570438 
" style="fill:none;stroke:#1f77b4;stroke-width:0.5;"/>
    <path clip-path="url(#p715081cc4c)" d="M 145.612006 246.293751 
L 145.612006 270.759241 
" style="fill:none;stroke:#1f77b4;stroke-width:0.5;"/>
    <path clip-path="url(#p715081cc4c)" d="M 155.771705 268.325387 
L 155.771705 293.243415 
" style="fill:none;stroke:#1f77b4;stroke-width:0.5;"/>
    <path clip-path="url(#p715081cc4c)" d="M 163.21203 241.257529 
L 163.21203 265.622517 
" style="fill:none;stroke:#1f77b4;stroke-width:0.5;"/>
    <path clip-path="url(#p715081cc4c)" d="M 164.180987 240.099945 
L 164.180987 264.441981 
" style="fill:none;stroke:#1f77b4;stroke-width:0.5;"/>
    <path clip-path="url(#p715081cc4c)" d="M 165.042171 218.67365 
L 165.042171 242.601045 
" style="fill:none;stroke:#1f77b4;stroke-width:0.5;"/>
    <path clip-path="url(#p715081cc4c)" d="M 170.943837 265.252256 
L 170.943837 290.105892 
" style="fill:none;stroke:#1f77b4;stroke-width:0.5;"/>
    <path clip-path="url(#p715081cc4c)" d="M 173.496775 229.244512 
L 173.496775 253.374094 
" style="fill:none;stroke:#1f77b4;stroke-width:0.5;"/>
    <path clip-path="url(#p715081cc4c)" d="M 207.146958 220.980548 
L 207.146958 244.951672 
" style="fill:none;stroke:#1f77b4;stroke-width:0.5;"/>
    <path clip-path="url(#p715081cc4c)" d="M 210.529274 246.437189 
L 210.529274 270.905558 
" style="fill:none;stroke:#1f77b4;stroke-width:0.5;"/>
    <path clip-path="url(#p715081cc4c)" d="M 218.978819 252.784645 
L 218.978819 277.381263 
" style="fill:none;stroke:#1f77b4;stroke-width:0.5;"/>
    <path clip-path="url(#p715081cc4c)" d="M 346.082599 264.298729 
L 346.082599 289.132461 
" style="fill:none;stroke:#1f77b4;stroke-width:0.5;"/>
    <path clip-path="url(#p715081cc4c)" d="M 379.139631 211.265289 
L 379.139631 235.053705 
" style="fill:none;stroke:#1f77b4;stroke-width:0.5;"/>
    <path clip-path="url(#p715081cc4c)" d="M 396.853779 241.304736 
L 396.853779 265.670655 
" style="fill:none;stroke:#1f77b4;stroke-width:0.5;"/>
    <path clip-path="url(#p715081cc4c)" d="M 396.854161 239.645603 
L 396.854161 263.978654 
" style="fill:none;stroke:#1f77b4;stroke-width:0.5;"/>
    <path clip-path="url(#p715081cc4c)" d="M 397.677773 277.533329 
L 397.677773 302.646857 
" style="fill:none;stroke:#1f77b4;stroke-width:0.5;"/>
    <path clip-path="url(#p715081cc4c)" d="M 397.678155 271.895769 
L 397.678155 296.889154 
" style="fill:none;stroke:#1f77b4;stroke-width:0.5;"/>
    <path clip-path="url(#p715081cc4c)" d="M 398.486891 276.377622 
L 398.486891 301.466404 
" style="fill:none;stroke:#1f77b4;stroke-width:0.5;"/>
    <path clip-path="url(#p715081cc4c)" d="M 398.487273 257.27759 
L 398.487273 281.966038 
" style="fill:none;stroke:#1f77b4;stroke-width:0.5;"/>
   </g>
   <g id="line2d_46">
    <path clip-path="url(#p715081cc4c)" d="M 73.832727 262.154252 
L 73.833119 246.272456 
L 94.910293 262.703727 
L 94.910684 262.045827 
L 96.675449 243.168991 
L 99.185169 245.966877 
L 99.18789 248.119945 
L 121.144305 252.977465 
L 121.988998 238.325482 
L 121.98938 268.191073 
L 123.69785 222.517521 
L 123.698242 255.235235 
L 125.362202 229.915951 
L 125.362594 231.712044 
L 126.199487 248.974067 
L 126.199878 234.833245 
L 127.090237 244.615557 
L 127.090618 239.662741 
L 127.899364 249.607666 
L 127.899756 229.149626 
L 128.744146 238.876819 
L 128.744527 241.627033 
L 136.360585 272.319702 
L 142.231315 224.518264 
L 143.073052 215.73025 
L 143.918832 256.029535 
L 144.76286 234.569752 
L 145.612006 258.526496 
L 155.771705 280.784401 
L 163.21203 253.440023 
L 164.180987 252.270963 
L 165.042171 230.637347 
L 170.943837 277.679074 
L 173.496775 241.309303 
L 207.146958 232.96611 
L 210.529274 258.671373 
L 218.978819 265.082954 
L 346.082599 276.715595 
L 379.139631 223.159497 
L 396.853779 253.487695 
L 396.854161 251.812129 
L 397.677773 290.090093 
L 397.678155 284.392462 
L 398.486891 288.922013 
L 398.487273 269.621814 
" style="fill:none;"/>
   </g>
   <g id="patch_14">
    <path d="M 57.6 307.584 
L 57.6 198.966857 
" style="fill:none;stroke:#000000;stroke-linecap:square;stroke-linejoin:miter;stroke-width:0.8;"/>
   </g>
   <g id="patch_15">
    <path d="M 414.72 307.584 
L 414.72 198.966857 
" style="fill:none;stroke:#000000;stroke-linecap:square;stroke-linejoin:miter;stroke-width:0.8;"/>
   </g>
   <g id="patch_16">
    <path d="M 57.6 307.584 
L 414.72 307.584 
" style="fill:none;stroke:#000000;stroke-linecap:square;stroke-linejoin:miter;stroke-width:0.8;"/>
   </g>
   <g id="patch_17">
    <path d="M 57.6 198.966857 
L 414.72 198.966857 
" style="fill:none;stroke:#000000;stroke-linecap:square;stroke-linejoin:miter;stroke-width:0.8;"/>
   </g>
   <g id="text_37">
    <!-- Light Curve -->
    <g transform="translate(206.000625 192.966857)scale(0.1 -0.1)">
     <use xlink:href="#DejaVuSerif-76"/>
     <use x="66.40625" xlink:href="#DejaVuSerif-105"/>
     <use x="98.388672" xlink:href="#DejaVuSerif-103"/>
     <use x="162.402344" xlink:href="#DejaVuSerif-104"/>
     <use x="226.806641" xlink:href="#DejaVuSerif-116"/>
     <use x="266.992188" xlink:href="#DejaVuSerif-32"/>
     <use x="298.779297" xlink:href="#DejaVuSerif-67"/>
     <use x="375.292969" xlink:href="#DejaVuSerif-117"/>
     <use x="439.697266" xlink:href="#DejaVuSerif-114"/>
     <use x="487.5" xlink:href="#DejaVuSerif-118"/>
     <use x="543.994141" xlink:href="#DejaVuSerif-101"/>
    </g>
   </g>
  </g>
 </g>
 <defs>
  <clipPath id="p8a04fe883e">
   <rect height="108.617143" width="148.8" x="265.92" y="41.472"/>
  </clipPath>
  <clipPath id="pf7a2350afd">
   <rect height="108.617143" width="148.8" x="57.6" y="41.472"/>
  </clipPath>
  <clipPath id="p715081cc4c">
   <rect height="108.617143" width="357.12" x="57.6" y="198.966857"/>
  </clipPath>
 </defs>
</svg>
