<?xml version="1.0" encoding="utf-8" standalone="no"?>
<!DOCTYPE svg PUBLIC "-//W3C//DTD SVG 1.1//EN"
  "http://www.w3.org/Graphics/SVG/1.1/DTD/svg11.dtd">
<!-- Created with matplotlib (https://matplotlib.org/) -->
<svg height="345.6pt" version="1.1" viewBox="0 0 460.8 345.6" width="460.8pt" xmlns="http://www.w3.org/2000/svg" xmlns:xlink="http://www.w3.org/1999/xlink">
 <metadata>
  <rdf:RDF xmlns:cc="http://creativecommons.org/ns#" xmlns:dc="http://purl.org/dc/elements/1.1/" xmlns:rdf="http://www.w3.org/1999/02/22-rdf-syntax-ns#">
   <cc:Work>
    <dc:type rdf:resource="http://purl.org/dc/dcmitype/StillImage"/>
    <dc:date>2021-02-24T00:29:11.205097</dc:date>
    <dc:format>image/svg+xml</dc:format>
    <dc:creator>
     <cc:Agent>
      <dc:title>Matplotlib v3.3.3, https://matplotlib.org/</dc:title>
     </cc:Agent>
    </dc:creator>
   </cc:Work>
  </rdf:RDF>
 </metadata>
 <defs>
  <style type="text/css">*{stroke-linecap:butt;stroke-linejoin:round;}</style>
 </defs>
 <g id="figure_1">
  <g id="patch_1">
   <path d="M 0 345.6 
L 460.8 345.6 
L 460.8 0 
L 0 0 
z
" style="fill:#ffffff;"/>
  </g>
  <g id="axes_1">
   <g id="patch_2">
    <path d="M 265.92 150.089143 
L 414.72 150.089143 
L 414.72 41.472 
L 265.92 41.472 
z
" style="fill:#ffffff;"/>
   </g>
   <g id="matplotlib.axis_1">
    <g id="xtick_1">
     <g id="line2d_1">
      <defs>
       <path d="M 0 0 
L 0 3.5 
" id="me552d3c333" style="stroke:#000000;stroke-width:0.8;"/>
      </defs>
      <g>
       <use style="stroke:#000000;stroke-width:0.8;" x="326.985138" xlink:href="#me552d3c333" y="150.089143"/>
      </g>
     </g>
     <g id="text_1">
      <!-- $\mathdefault{10^{1}}$ -->
      <g transform="translate(318.185138 164.68758)scale(0.1 -0.1)">
       <defs>
        <path d="M 14.203125 0 
L 14.203125 5.171875 
L 26.90625 5.171875 
L 26.90625 65.828125 
L 12.203125 56.296875 
L 12.203125 62.703125 
L 29.984375 74.21875 
L 36.71875 74.21875 
L 36.71875 5.171875 
L 49.421875 5.171875 
L 49.421875 0 
z
" id="DejaVuSerif-49"/>
        <path d="M 31.78125 3.421875 
Q 39.265625 3.421875 42.96875 11.625 
Q 46.6875 19.828125 46.6875 36.375 
Q 46.6875 52.984375 42.96875 61.1875 
Q 39.265625 69.390625 31.78125 69.390625 
Q 24.3125 69.390625 20.59375 61.1875 
Q 16.890625 52.984375 16.890625 36.375 
Q 16.890625 19.828125 20.59375 11.625 
Q 24.3125 3.421875 31.78125 3.421875 
z
M 31.78125 -1.421875 
Q 19.921875 -1.421875 13.25 8.53125 
Q 6.59375 18.5 6.59375 36.375 
Q 6.59375 54.296875 13.25 64.25 
Q 19.921875 74.21875 31.78125 74.21875 
Q 43.703125 74.21875 50.34375 64.25 
Q 56.984375 54.296875 56.984375 36.375 
Q 56.984375 18.5 50.34375 8.53125 
Q 43.703125 -1.421875 31.78125 -1.421875 
z
" id="DejaVuSerif-48"/>
       </defs>
       <use transform="translate(0 0.7125)" xlink:href="#DejaVuSerif-49"/>
       <use transform="translate(63.623047 0.7125)" xlink:href="#DejaVuSerif-48"/>
       <use transform="translate(128.154453 37.046875)scale(0.7)" xlink:href="#DejaVuSerif-49"/>
      </g>
     </g>
    </g>
    <g id="xtick_2">
     <g id="line2d_2">
      <g>
       <use style="stroke:#000000;stroke-width:0.8;" x="400.12039" xlink:href="#me552d3c333" y="150.089143"/>
      </g>
     </g>
     <g id="text_2">
      <!-- $\mathdefault{10^{2}}$ -->
      <g transform="translate(391.32039 164.68758)scale(0.1 -0.1)">
       <defs>
        <path d="M 12.796875 55.515625 
L 7.328125 55.515625 
L 7.328125 68.5 
Q 12.546875 71.296875 17.84375 72.75 
Q 23.140625 74.21875 28.21875 74.21875 
Q 39.59375 74.21875 46.1875 68.703125 
Q 52.78125 63.1875 52.78125 53.71875 
Q 52.78125 43.015625 37.84375 28.125 
Q 36.671875 27 36.078125 26.421875 
L 17.671875 8.015625 
L 48.09375 8.015625 
L 48.09375 17 
L 53.8125 17 
L 53.8125 0 
L 6.78125 0 
L 6.78125 5.328125 
L 28.90625 27.390625 
Q 36.234375 34.71875 39.359375 40.84375 
Q 42.484375 46.96875 42.484375 53.71875 
Q 42.484375 61.078125 38.640625 65.234375 
Q 34.8125 69.390625 28.078125 69.390625 
Q 21.09375 69.390625 17.28125 65.921875 
Q 13.484375 62.453125 12.796875 55.515625 
z
" id="DejaVuSerif-50"/>
       </defs>
       <use transform="translate(0 0.7125)" xlink:href="#DejaVuSerif-49"/>
       <use transform="translate(63.623047 0.7125)" xlink:href="#DejaVuSerif-48"/>
       <use transform="translate(128.154453 37.046875)scale(0.7)" xlink:href="#DejaVuSerif-50"/>
      </g>
     </g>
    </g>
    <g id="xtick_3">
     <g id="line2d_3">
      <defs>
       <path d="M 0 0 
L 0 2 
" id="m031adc86b5" style="stroke:#000000;stroke-width:0.6;"/>
      </defs>
      <g>
       <use style="stroke:#000000;stroke-width:0.6;" x="275.86579" xlink:href="#m031adc86b5" y="150.089143"/>
      </g>
     </g>
    </g>
    <g id="xtick_4">
     <g id="line2d_4">
      <g>
       <use style="stroke:#000000;stroke-width:0.6;" x="288.744269" xlink:href="#m031adc86b5" y="150.089143"/>
      </g>
     </g>
    </g>
    <g id="xtick_5">
     <g id="line2d_5">
      <g>
       <use style="stroke:#000000;stroke-width:0.6;" x="297.881695" xlink:href="#m031adc86b5" y="150.089143"/>
      </g>
     </g>
    </g>
    <g id="xtick_6">
     <g id="line2d_6">
      <g>
       <use style="stroke:#000000;stroke-width:0.6;" x="304.969233" xlink:href="#m031adc86b5" y="150.089143"/>
      </g>
     </g>
    </g>
    <g id="xtick_7">
     <g id="line2d_7">
      <g>
       <use style="stroke:#000000;stroke-width:0.6;" x="310.760174" xlink:href="#m031adc86b5" y="150.089143"/>
      </g>
     </g>
    </g>
    <g id="xtick_8">
     <g id="line2d_8">
      <g>
       <use style="stroke:#000000;stroke-width:0.6;" x="315.656344" xlink:href="#m031adc86b5" y="150.089143"/>
      </g>
     </g>
    </g>
    <g id="xtick_9">
     <g id="line2d_9">
      <g>
       <use style="stroke:#000000;stroke-width:0.6;" x="319.8976" xlink:href="#m031adc86b5" y="150.089143"/>
      </g>
     </g>
    </g>
    <g id="xtick_10">
     <g id="line2d_10">
      <g>
       <use style="stroke:#000000;stroke-width:0.6;" x="323.638652" xlink:href="#m031adc86b5" y="150.089143"/>
      </g>
     </g>
    </g>
    <g id="xtick_11">
     <g id="line2d_11">
      <g>
       <use style="stroke:#000000;stroke-width:0.6;" x="349.001043" xlink:href="#m031adc86b5" y="150.089143"/>
      </g>
     </g>
    </g>
    <g id="xtick_12">
     <g id="line2d_12">
      <g>
       <use style="stroke:#000000;stroke-width:0.6;" x="361.879521" xlink:href="#m031adc86b5" y="150.089143"/>
      </g>
     </g>
    </g>
    <g id="xtick_13">
     <g id="line2d_13">
      <g>
       <use style="stroke:#000000;stroke-width:0.6;" x="371.016947" xlink:href="#m031adc86b5" y="150.089143"/>
      </g>
     </g>
    </g>
    <g id="xtick_14">
     <g id="line2d_14">
      <g>
       <use style="stroke:#000000;stroke-width:0.6;" x="378.104486" xlink:href="#m031adc86b5" y="150.089143"/>
      </g>
     </g>
    </g>
    <g id="xtick_15">
     <g id="line2d_15">
      <g>
       <use style="stroke:#000000;stroke-width:0.6;" x="383.895426" xlink:href="#m031adc86b5" y="150.089143"/>
      </g>
     </g>
    </g>
    <g id="xtick_16">
     <g id="line2d_16">
      <g>
       <use style="stroke:#000000;stroke-width:0.6;" x="388.791597" xlink:href="#m031adc86b5" y="150.089143"/>
      </g>
     </g>
    </g>
    <g id="xtick_17">
     <g id="line2d_17">
      <g>
       <use style="stroke:#000000;stroke-width:0.6;" x="393.032852" xlink:href="#m031adc86b5" y="150.089143"/>
      </g>
     </g>
    </g>
    <g id="xtick_18">
     <g id="line2d_18">
      <g>
       <use style="stroke:#000000;stroke-width:0.6;" x="396.773905" xlink:href="#m031adc86b5" y="150.089143"/>
      </g>
     </g>
    </g>
    <g id="text_3">
     <!-- Period d -->
     <g transform="translate(319.231719 178.365705)scale(0.1 -0.1)">
      <defs>
       <path d="M 24.703125 37.109375 
L 37.59375 37.109375 
Q 44.875 37.109375 48.671875 41.03125 
Q 52.484375 44.96875 52.484375 52.390625 
Q 52.484375 59.859375 48.671875 63.765625 
Q 44.875 67.671875 37.59375 67.671875 
L 24.703125 67.671875 
z
M 5.515625 0 
L 5.515625 5.171875 
L 14.796875 5.171875 
L 14.796875 67.671875 
L 5.515625 67.671875 
L 5.515625 72.90625 
L 39.984375 72.90625 
Q 50.921875 72.90625 57.3125 67.359375 
Q 63.71875 61.8125 63.71875 52.390625 
Q 63.71875 43.015625 57.3125 37.453125 
Q 50.921875 31.890625 39.984375 31.890625 
L 24.703125 31.890625 
L 24.703125 5.171875 
L 35.984375 5.171875 
L 35.984375 0 
z
" id="DejaVuSerif-80"/>
       <path d="M 54.203125 25 
L 15.484375 25 
L 15.484375 24.609375 
Q 15.484375 14.109375 19.4375 8.765625 
Q 23.390625 3.421875 31.109375 3.421875 
Q 37.015625 3.421875 40.796875 6.515625 
Q 44.578125 9.625 46.09375 15.71875 
L 53.328125 15.71875 
Q 51.171875 7.171875 45.375 2.875 
Q 39.59375 -1.421875 30.171875 -1.421875 
Q 18.796875 -1.421875 11.890625 6.078125 
Q 4.984375 13.578125 4.984375 25.984375 
Q 4.984375 38.28125 11.765625 45.796875 
Q 18.5625 53.328125 29.59375 53.328125 
Q 41.359375 53.328125 47.65625 46.0625 
Q 53.953125 38.8125 54.203125 25 
z
M 43.609375 30.171875 
Q 43.3125 39.265625 39.765625 43.875 
Q 36.234375 48.484375 29.59375 48.484375 
Q 23.390625 48.484375 19.828125 43.84375 
Q 16.265625 39.203125 15.484375 30.171875 
z
" id="DejaVuSerif-101"/>
       <path d="M 47.796875 52 
L 47.796875 39.015625 
L 42.625 39.015625 
Q 42.390625 42.875 40.484375 44.78125 
Q 38.578125 46.6875 34.90625 46.6875 
Q 28.265625 46.6875 24.71875 42.09375 
Q 21.1875 37.5 21.1875 28.90625 
L 21.1875 5.171875 
L 31.59375 5.171875 
L 31.59375 0 
L 4.109375 0 
L 4.109375 5.171875 
L 12.203125 5.171875 
L 12.203125 46.78125 
L 3.609375 46.78125 
L 3.609375 51.90625 
L 21.1875 51.90625 
L 21.1875 42.671875 
Q 23.828125 48.09375 27.96875 50.703125 
Q 32.125 53.328125 38.09375 53.328125 
Q 40.28125 53.328125 42.703125 52.984375 
Q 45.125 52.640625 47.796875 52 
z
" id="DejaVuSerif-114"/>
       <path d="M 9.71875 68.015625 
Q 9.71875 70.265625 11.34375 71.921875 
Q 12.984375 73.578125 15.28125 73.578125 
Q 17.53125 73.578125 19.15625 71.921875 
Q 20.796875 70.265625 20.796875 68.015625 
Q 20.796875 65.71875 19.1875 64.109375 
Q 17.578125 62.5 15.28125 62.5 
Q 12.984375 62.5 11.34375 64.109375 
Q 9.71875 65.71875 9.71875 68.015625 
z
M 21.1875 5.171875 
L 29.6875 5.171875 
L 29.6875 0 
L 3.609375 0 
L 3.609375 5.171875 
L 12.203125 5.171875 
L 12.203125 46.6875 
L 3.609375 46.6875 
L 3.609375 51.90625 
L 21.1875 51.90625 
z
" id="DejaVuSerif-105"/>
       <path d="M 30.078125 3.421875 
Q 37.3125 3.421875 40.984375 9.125 
Q 44.671875 14.84375 44.671875 25.984375 
Q 44.671875 37.109375 40.984375 42.796875 
Q 37.3125 48.484375 30.078125 48.484375 
Q 22.859375 48.484375 19.171875 42.796875 
Q 15.484375 37.109375 15.484375 25.984375 
Q 15.484375 14.84375 19.1875 9.125 
Q 22.90625 3.421875 30.078125 3.421875 
z
M 30.078125 -1.421875 
Q 18.75 -1.421875 11.859375 6.078125 
Q 4.984375 13.578125 4.984375 25.984375 
Q 4.984375 38.375 11.84375 45.84375 
Q 18.703125 53.328125 30.078125 53.328125 
Q 41.453125 53.328125 48.3125 45.84375 
Q 55.171875 38.375 55.171875 25.984375 
Q 55.171875 13.578125 48.3125 6.078125 
Q 41.453125 -1.421875 30.078125 -1.421875 
z
" id="DejaVuSerif-111"/>
       <path d="M 52.484375 5.171875 
L 61.078125 5.171875 
L 61.078125 0 
L 43.5 0 
L 43.5 8.109375 
Q 40.875 3.21875 36.796875 0.890625 
Q 32.71875 -1.421875 26.703125 -1.421875 
Q 17.140625 -1.421875 11.0625 6.171875 
Q 4.984375 13.765625 4.984375 25.984375 
Q 4.984375 38.1875 11.03125 45.75 
Q 17.09375 53.328125 26.703125 53.328125 
Q 32.71875 53.328125 36.796875 51 
Q 40.875 48.6875 43.5 43.796875 
L 43.5 70.796875 
L 35.015625 70.796875 
L 35.015625 75.984375 
L 52.484375 75.984375 
z
M 43.5 23.390625 
L 43.5 28.515625 
Q 43.5 37.84375 39.90625 42.765625 
Q 36.328125 47.703125 29.5 47.703125 
Q 22.5625 47.703125 19.015625 42.234375 
Q 15.484375 36.765625 15.484375 25.984375 
Q 15.484375 15.234375 19.015625 9.71875 
Q 22.5625 4.203125 29.5 4.203125 
Q 36.328125 4.203125 39.90625 9.109375 
Q 43.5 14.015625 43.5 23.390625 
z
" id="DejaVuSerif-100"/>
       <path id="DejaVuSerif-32"/>
      </defs>
      <use xlink:href="#DejaVuSerif-80"/>
      <use x="62.785156" xlink:href="#DejaVuSerif-101"/>
      <use x="121.964844" xlink:href="#DejaVuSerif-114"/>
      <use x="169.767578" xlink:href="#DejaVuSerif-105"/>
      <use x="201.75" xlink:href="#DejaVuSerif-111"/>
      <use x="261.955078" xlink:href="#DejaVuSerif-100"/>
      <use x="325.96875" xlink:href="#DejaVuSerif-32"/>
      <use x="357.755859" xlink:href="#DejaVuSerif-100"/>
     </g>
    </g>
   </g>
   <g id="matplotlib.axis_2">
    <g id="ytick_1">
     <g id="line2d_19">
      <defs>
       <path d="M 0 0 
L -3.5 0 
" id="m1d5a9142a7" style="stroke:#000000;stroke-width:0.8;"/>
      </defs>
      <g>
       <use style="stroke:#000000;stroke-width:0.8;" x="265.92" xlink:href="#m1d5a9142a7" y="145.20435"/>
      </g>
     </g>
     <g id="text_4">
      <!-- 0.0 -->
      <g transform="translate(243.016875 149.003569)scale(0.1 -0.1)">
       <defs>
        <path d="M 9.421875 5.078125 
Q 9.421875 7.8125 11.28125 9.71875 
Q 13.140625 11.625 15.921875 11.625 
Q 18.609375 11.625 20.5 9.71875 
Q 22.40625 7.8125 22.40625 5.078125 
Q 22.40625 2.390625 20.5 0.484375 
Q 18.609375 -1.421875 15.921875 -1.421875 
Q 13.140625 -1.421875 11.28125 0.453125 
Q 9.421875 2.34375 9.421875 5.078125 
z
" id="DejaVuSerif-46"/>
       </defs>
       <use xlink:href="#DejaVuSerif-48"/>
       <use x="63.623047" xlink:href="#DejaVuSerif-46"/>
       <use x="95.410156" xlink:href="#DejaVuSerif-48"/>
      </g>
     </g>
    </g>
    <g id="ytick_2">
     <g id="line2d_20">
      <g>
       <use style="stroke:#000000;stroke-width:0.8;" x="265.92" xlink:href="#m1d5a9142a7" y="102.864477"/>
      </g>
     </g>
     <g id="text_5">
      <!-- 0.2 -->
      <g transform="translate(243.016875 106.663696)scale(0.1 -0.1)">
       <use xlink:href="#DejaVuSerif-48"/>
       <use x="63.623047" xlink:href="#DejaVuSerif-46"/>
       <use x="95.410156" xlink:href="#DejaVuSerif-50"/>
      </g>
     </g>
    </g>
    <g id="ytick_3">
     <g id="line2d_21">
      <g>
       <use style="stroke:#000000;stroke-width:0.8;" x="265.92" xlink:href="#m1d5a9142a7" y="60.524605"/>
      </g>
     </g>
     <g id="text_6">
      <!-- 0.4 -->
      <g transform="translate(243.016875 64.323823)scale(0.1 -0.1)">
       <defs>
        <path d="M 34.90625 24.703125 
L 34.90625 63.484375 
L 10.015625 24.703125 
z
M 56.390625 0 
L 23.1875 0 
L 23.1875 5.171875 
L 34.90625 5.171875 
L 34.90625 19.484375 
L 3.078125 19.484375 
L 3.078125 24.8125 
L 35.015625 74.21875 
L 44.671875 74.21875 
L 44.671875 24.703125 
L 58.59375 24.703125 
L 58.59375 19.484375 
L 44.671875 19.484375 
L 44.671875 5.171875 
L 56.390625 5.171875 
z
" id="DejaVuSerif-52"/>
       </defs>
       <use xlink:href="#DejaVuSerif-48"/>
       <use x="63.623047" xlink:href="#DejaVuSerif-46"/>
       <use x="95.410156" xlink:href="#DejaVuSerif-52"/>
      </g>
     </g>
    </g>
    <g id="text_7">
     <!-- Power -->
     <g transform="translate(236.937188 111.583696)rotate(-90)scale(0.1 -0.1)">
      <defs>
       <path d="M 48 51.90625 
L 61.28125 11.375 
L 73 46.6875 
L 65.484375 46.6875 
L 65.484375 51.90625 
L 84.28125 51.90625 
L 84.28125 46.6875 
L 78.515625 46.6875 
L 63.09375 0 
L 55.609375 0 
L 42.828125 38.8125 
L 29.984375 0 
L 22.796875 0 
L 7.421875 46.6875 
L 1.609375 46.6875 
L 1.609375 51.90625 
L 25.09375 51.90625 
L 25.09375 46.6875 
L 16.703125 46.6875 
L 28.328125 11.375 
L 41.703125 51.90625 
z
" id="DejaVuSerif-119"/>
      </defs>
      <use xlink:href="#DejaVuSerif-80"/>
      <use x="63.285156" xlink:href="#DejaVuSerif-111"/>
      <use x="123.490234" xlink:href="#DejaVuSerif-119"/>
      <use x="209.085938" xlink:href="#DejaVuSerif-101"/>
      <use x="268.265625" xlink:href="#DejaVuSerif-114"/>
     </g>
    </g>
   </g>
   <g id="LineCollection_1">
    <path clip-path="url(#p246508e499)" d="M 272.695273 46.409143 
L 407.956364 46.409143 
" style="fill:none;stroke:#808080;stroke-dasharray:5.55,2.4;stroke-dashoffset:0;stroke-width:1.5;"/>
   </g>
   <g id="LineCollection_2">
    <path clip-path="url(#p246508e499)" d="M 272.695273 60.32528 
L 407.956364 60.32528 
" style="fill:none;stroke:#a9a9a9;stroke-dasharray:5.55,2.4;stroke-dashoffset:0;stroke-width:1.5;"/>
   </g>
   <g id="LineCollection_3">
    <path clip-path="url(#p246508e499)" d="M 272.695273 71.282502 
L 407.956364 71.282502 
" style="fill:none;stroke:#c0c0c0;stroke-dasharray:5.55,2.4;stroke-dashoffset:0;stroke-width:1.5;"/>
   </g>
   <g id="LineCollection_4">
    <path clip-path="url(#p246508e499)" d="M 272.695273 76.458243 
L 407.956364 76.458243 
" style="fill:none;stroke:#d3d3d3;stroke-dasharray:5.55,2.4;stroke-dashoffset:0;stroke-width:1.5;"/>
   </g>
   <g id="line2d_22">
    <path clip-path="url(#p246508e499)" d="M 407.956364 106.863385 
L 405.906476 99.714663 
L 403.980902 114.037874 
L 402.165423 138.776026 
L 400.448127 136.224974 
L 398.818938 122.970013 
L 397.269253 109.063941 
L 395.791673 102.183368 
L 394.379786 119.904722 
L 393.027997 142.20112 
L 391.731399 125.00089 
L 390.485662 105.484086 
L 389.286945 95.710944 
L 388.131827 93.102222 
L 385.940459 143.341868 
L 384.898981 119.058151 
L 383.890571 99.41045 
L 382.913194 72.556927 
L 381.964998 73.565014 
L 381.044289 116.606403 
L 380.149518 140.271196 
L 377.607183 84.854579 
L 376.803033 90.898249 
L 376.01874 118.157613 
L 375.253348 133.421498 
L 374.505967 121.426046 
L 373.775768 117.393828 
L 373.06198 115.804823 
L 372.363881 104.741716 
L 371.680796 109.123916 
L 371.012092 124.730192 
L 370.357178 118.318761 
L 369.715495 123.746482 
L 369.086519 128.028072 
L 368.469757 110.622642 
L 367.864744 105.01841 
L 367.27104 113.065741 
L 366.68823 116.126391 
L 366.115922 121.950623 
L 365.553744 130.044692 
L 365.001343 123.815255 
L 364.458386 115.19554 
L 363.924554 118.039282 
L 363.399547 113.598349 
L 362.883076 114.208348 
L 362.374869 123.951578 
L 361.874666 129.51721 
L 361.382219 129.867719 
L 360.89729 128.215128 
L 359.949093 114.387668 
L 359.485402 115.598635 
L 359.028384 125.416263 
L 358.577848 127.040801 
L 358.133614 137.059316 
L 357.695507 132.281502 
L 357.263361 117.933376 
L 356.837016 113.687882 
L 356.416318 116.664047 
L 356.001119 127.876694 
L 355.591278 143.139342 
L 355.186658 137.237 
L 354.392561 112.48218 
L 354.002836 109.699596 
L 353.237443 145.152 
L 352.861555 134.163564 
L 352.490062 116.087042 
L 352.122865 106.782341 
L 351.759864 112.11582 
L 351.400965 132.313006 
L 351.046076 143.685108 
L 350.347976 100.492235 
L 350.004597 101.13975 
L 349.664891 116.106429 
L 349.32878 138.921564 
L 348.996188 141.884865 
L 348.667042 113.018408 
L 348.341273 95.11973 
L 348.018811 103.941754 
L 347.383545 141.128154 
L 347.070614 140.189058 
L 346.760736 122.371262 
L 346.453852 112.811746 
L 345.255135 136.64987 
L 344.672325 123.747506 
L 344.384882 121.744919 
L 344.100017 117.644498 
L 343.817685 115.692221 
L 343.260438 134.788672 
L 342.985439 122.094192 
L 342.442481 114.847385 
L 342.174444 107.106532 
L 341.908649 123.664431 
L 341.645061 133.040892 
L 341.124357 112.453995 
L 340.867171 107.534539 
L 340.612052 118.232008 
L 340.358965 134.285836 
L 340.107879 132.662732 
L 339.611584 96.143802 
L 339.366314 91.884266 
L 338.881385 135.978312 
L 338.641669 137.732412 
L 337.933188 82.636116 
L 337.700497 94.390088 
L 337.469498 128.241552 
L 337.240166 143.033189 
L 337.012479 125.954798 
L 336.561943 84.572138 
L 336.33905 94.451393 
L 335.8979 142.22261 
L 335.247456 104.695319 
L 335.033568 108.462056 
L 334.821111 129.724191 
L 334.610066 133.74507 
L 334.400413 126.070925 
L 334.192135 129.024613 
L 333.985215 128.980641 
L 333.779633 131.053026 
L 333.575374 129.782299 
L 333.372419 118.853497 
L 333.170754 117.478965 
L 332.771223 141.123197 
L 332.573327 139.553188 
L 332.181196 116.228641 
L 331.986931 115.629704 
L 331.601929 141.538024 
L 331.411165 141.135833 
L 331.033038 128.798148 
L 330.84565 128.387498 
L 330.659361 133.602849 
L 330.290028 133.618313 
L 330.10696 139.966779 
L 329.924941 141.764827 
L 329.38506 121.937723 
L 329.20712 125.40958 
L 328.854202 144.160258 
L 328.679203 135.418022 
L 328.505163 120.777119 
L 328.332072 117.302467 
L 327.988693 140.260931 
L 327.818385 141.409782 
L 327.480486 119.11449 
L 326.980283 140.30385 
L 326.815284 131.147188 
L 326.651138 115.005179 
L 326.487835 115.291444 
L 326.002906 141.923838 
L 325.683685 98.860693 
L 325.52527 94.095272 
L 325.36764 107.118218 
L 325.054709 144.019293 
L 324.591019 60.89481 
L 324.437948 80.591889 
L 324.134 144.84742 
L 323.983111 128.978943 
L 323.683465 62.954462 
L 323.534695 71.430355 
L 323.23923 138.074039 
L 323.092522 142.938712 
L 322.801124 94.526339 
L 322.656421 93.710584 
L 322.368978 115.830309 
L 322.226226 136.915695 
L 322.084113 141.121309 
L 321.942633 129.214591 
L 321.661549 84.592049 
L 321.521934 98.165976 
L 321.244533 142.550158 
L 321.106736 134.413919 
L 320.832922 100.489286 
L 320.696895 109.695636 
L 320.426576 141.931718 
L 320.158539 114.96291 
L 320.025364 116.214619 
L 319.760677 142.122121 
L 319.629156 137.172428 
L 319.367737 109.470664 
L 319.23783 118.675733 
L 318.979599 144.853702 
L 318.596147 110.25085 
L 318.217269 145.051278 
L 317.842857 123.037564 
L 317.719027 126.072697 
L 317.472807 143.957131 
L 317.350409 142.449832 
L 317.107019 131.382339 
L 316.98602 133.24562 
L 316.745396 141.287558 
L 316.506581 138.49203 
L 316.269548 139.982596 
L 316.151692 138.70236 
L 315.917283 132.807374 
L 315.568882 142.437569 
L 315.224262 127.482058 
L 315.110214 130.900836 
L 314.88334 141.172455 
L 314.658075 129.892071 
L 314.546039 123.498896 
L 314.212282 136.131495 
L 314.101804 136.788558 
L 313.99171 133.443805 
L 313.772659 120.958776 
L 313.663698 122.172019 
L 313.44689 140.723336 
L 313.339038 136.117332 
L 313.124428 102.440033 
L 313.017664 108.23734 
L 312.805206 144.243382 
L 312.699508 133.323115 
L 312.489162 83.532891 
L 312.384508 93.058635 
L 312.176231 145.030947 
L 312.072602 133.643291 
L 311.866353 69.209091 
L 311.763728 77.245074 
L 311.559469 143.306122 
L 311.45783 139.008868 
L 311.255522 94.134121 
L 311.154849 97.310189 
L 310.854731 145.042295 
L 310.557423 101.36329 
L 310.458935 110.14526 
L 310.262871 142.1085 
L 310.165291 143.16642 
L 309.971026 117.464696 
L 309.586025 142.576636 
L 309.39526 132.298893 
L 309.111244 140.333579 
L 309.017133 139.552519 
L 308.923301 136.009189 
L 308.829745 137.407785 
L 308.643456 142.007106 
L 308.550719 141.803802 
L 308.366055 138.753198 
L 307.999915 143.955006 
L 307.909036 143.373029 
L 307.728054 135.125333 
L 307.637949 136.251981 
L 307.369155 144.283492 
L 307.102617 134.207764 
L 307.014266 134.992187 
L 306.838298 144.562281 
L 306.750678 143.357013 
L 306.489258 129.841236 
L 306.402595 131.15642 
L 306.144013 144.922729 
L 305.802481 114.740968 
L 305.633082 143.782514 
L 305.54872 142.917856 
L 305.29697 114.071856 
L 305.0472 143.961326 
L 304.964378 141.783912 
L 304.7172 108.123739 
L 304.635233 118.97596 
L 304.471931 143.848848 
L 304.390593 140.125648 
L 304.228541 113.072102 
L 303.906895 140.884465 
L 303.747285 134.06108 
L 303.66778 135.007444 
L 303.430453 128.649269 
L 303.194885 143.666604 
L 302.961051 124.139218 
L 302.728927 143.815381 
L 302.651927 141.941785 
L 302.498486 134.232999 
L 302.422043 138.209079 
L 302.345783 137.783428 
L 302.269706 137.017832 
L 302.118096 140.125967 
L 302.042561 144.295294 
L 301.967206 144.098668 
L 301.742207 123.786269 
L 301.66756 129.788552 
L 301.51879 142.718595 
L 301.296935 120.660084 
L 301.223326 126.917002 
L 301.076618 138.673408 
L 301.003517 135.99001 
L 300.857818 120.100329 
L 300.785219 122.186968 
L 300.640516 135.139776 
L 300.568411 133.492879 
L 300.42469 120.796994 
L 300.281617 132.747725 
L 300.210321 138.532549 
L 300.139185 137.997999 
L 299.997389 125.733778 
L 299.926728 127.323864 
L 299.715682 143.592758 
L 299.50603 128.693361 
L 299.436452 128.813552 
L 299.297752 144.469805 
L 299.228629 140.207032 
L 299.090831 118.563751 
L 299.022156 122.624474 
L 298.88525 143.6384 
L 298.68099 114.745818 
L 298.613195 122.216875 
L 298.478036 143.438267 
L 298.27637 116.512354 
L 298.075977 143.354857 
L 297.94308 118.205589 
L 297.87684 122.248894 
L 297.744772 144.858553 
L 297.678944 141.035039 
L 297.547695 121.736466 
L 297.351832 145.041664 
L 297.157171 127.04154 
L 296.963694 145.064781 
L 296.77139 125.000542 
L 296.707546 130.602743 
L 296.580242 144.810432 
L 296.516781 142.811485 
L 296.390238 128.321457 
L 296.138655 144.435377 
L 296.013606 136.10059 
L 295.951266 136.844709 
L 295.764977 144.597612 
L 295.579774 137.277483 
L 295.395645 141.648534 
L 295.091115 131.415587 
L 295.030557 129.675517 
L 294.729491 109.96491 
L 294.609859 102.803109 
L 294.550212 103.116667 
L 294.490676 108.063758 
L 294.431252 106.380173 
L 294.253644 89.621029 
L 294.194661 94.251671 
L 294.077023 115.787183 
L 294.018367 111.653569 
L 293.901379 103.62081 
L 293.843046 106.044759 
L 293.7267 134.954437 
L 293.668687 132.887706 
L 293.552978 125.277099 
L 293.3802 143.827638 
L 293.322816 139.525249 
L 293.208357 129.061171 
L 293.037439 144.457937 
L 292.98067 141.217318 
L 292.867435 128.788763 
L 292.810969 129.85206 
L 292.64217 142.575278 
L 292.474264 122.098125 
L 292.418492 123.369373 
L 292.30724 140.501465 
L 292.25176 139.138596 
L 292.14109 117.068179 
L 292.0859 118.857113 
L 291.920901 142.436571 
L 291.756754 130.880539 
L 291.593452 144.471461 
L 291.539204 140.553316 
L 291.430985 136.328206 
L 291.323133 142.741723 
L 291.269345 140.252838 
L 291.108523 121.664603 
L 291.001759 127.645548 
L 290.948511 123.676356 
L 290.789302 97.332445 
L 290.630886 111.689787 
L 290.578256 104.430287 
L 290.420887 90.912342 
L 290.264294 114.170901 
L 290.212268 111.679172 
L 290.160326 111.303143 
L 290.056697 122.011967 
L 289.901885 137.926295 
L 289.799094 135.427034 
L 289.747824 136.266946 
L 289.594506 143.272662 
L 289.543564 143.191697 
L 289.391227 137.2294 
L 289.239617 143.215422 
L 289.189241 140.89071 
L 289.088727 134.25233 
L 289.03859 134.63216 
L 288.938551 141.52049 
L 288.88865 138.786064 
L 288.789081 129.971051 
L 288.739414 130.193364 
L 288.640312 138.700922 
L 288.590876 137.649453 
L 288.492236 128.394349 
L 288.44303 128.657614 
L 288.295869 138.845617 
L 288.246966 135.858724 
L 288.149386 128.086417 
L 288.100709 129.873119 
L 288.003576 138.893519 
L 287.955121 136.434468 
L 287.858433 127.612457 
L 287.810198 128.048335 
L 287.713949 137.793786 
L 287.665934 136.329284 
L 287.57012 129.902577 
L 287.522321 130.922667 
L 287.426939 139.95969 
L 287.379355 139.670243 
L 287.284401 133.494619 
L 287.23703 134.752171 
L 287.142499 142.781002 
L 287.095339 142.231799 
L 287.001229 135.281603 
L 286.954278 136.129134 
L 286.860584 144.408137 
L 286.81384 143.393691 
L 286.720559 137.207365 
L 286.674021 138.096207 
L 286.534815 145.068665 
L 286.35015 137.979391 
L 286.304151 139.987216 
L 286.212353 144.601708 
L 286.029548 126.826071 
L 285.984011 132.161171 
L 285.893131 140.842097 
L 285.757298 121.453235 
L 285.71215 126.02615 
L 285.622044 141.944801 
L 285.577087 138.1171 
L 285.487363 129.46022 
L 285.442596 132.528502 
L 285.35325 143.876398 
L 285.308672 142.852891 
L 285.219702 133.9147 
L 285.17531 135.649902 
L 285.086713 144.397552 
L 285.042506 143.134928 
L 284.954278 134.33692 
L 284.910255 136.089911 
L 284.822393 143.385561 
L 284.778553 140.949944 
L 284.691053 133.239607 
L 284.647394 135.210294 
L 284.560255 142.427419 
L 284.516774 142.10489 
L 284.429992 138.153092 
L 284.38669 139.244419 
L 284.214069 144.932268 
L 284.128109 144.87399 
L 283.999603 142.390089 
L 283.914221 139.764495 
L 283.829067 140.607054 
L 283.786576 140.739329 
L 283.744141 140.560003 
L 283.659442 137.250642 
L 283.617177 138.100824 
L 283.490718 144.579374 
L 283.448677 144.537463 
L 283.281065 141.603475 
L 283.239301 142.041361 
L 283.114334 145.035071 
L 282.989858 135.380773 
L 282.907143 140.028991 
L 282.824644 144.776376 
L 282.701295 134.257474 
L 282.660285 135.010869 
L 282.537572 144.909449 
L 282.496773 140.7105 
L 282.415331 129.905734 
L 282.374689 132.929776 
L 282.293559 144.410795 
L 282.253072 144.166857 
L 282.172252 136.474709 
L 282.131919 137.452565 
L 281.931018 143.89394 
L 281.89099 143.637893 
L 281.771208 134.527234 
L 281.731381 137.488641 
L 281.651876 144.860476 
L 281.612198 142.69006 
L 281.53299 139.073004 
L 281.49346 140.927609 
L 281.296546 144.870828 
L 281.257309 143.503046 
L 281.17898 132.575542 
L 281.139888 134.917074 
L 281.061848 144.06577 
L 281.0229 141.987642 
L 280.945147 132.700815 
L 280.906341 133.100064 
L 280.828872 143.153188 
L 280.790209 142.031486 
L 280.713022 137.992953 
L 280.674499 139.250263 
L 280.597593 144.116848 
L 280.559209 143.293898 
L 280.482582 142.061977 
L 280.444337 142.889704 
L 280.406138 144.3479 
L 280.367985 144.321954 
L 280.291817 142.227562 
L 280.253801 142.894738 
L 280.177906 144.399706 
L 280.102191 138.723891 
L 280.026656 141.639889 
L 279.988957 143.996737 
L 279.951301 143.611885 
L 279.876124 134.752183 
L 279.838602 137.144902 
L 279.726302 144.805972 
L 279.651655 136.814937 
L 279.614397 139.12816 
L 279.577183 142.588474 
L 279.502886 140.780658 
L 279.391764 143.180788 
L 279.35481 142.083621 
L 279.28103 138.641446 
L 279.244204 139.760553 
L 279.17068 141.804318 
L 279.097326 141.375416 
L 279.024141 140.67095 
L 278.951125 131.44315 
L 278.914679 133.908856 
L 278.841914 144.844025 
L 278.805593 140.539566 
L 278.69688 121.027782 
L 278.624611 144.85015 
L 278.588538 139.593973 
L 278.516515 119.506847 
L 278.480565 120.629577 
L 278.408785 144.510175 
L 278.337168 131.981784 
L 278.30142 127.320703 
L 278.265712 131.087527 
L 278.194416 144.721285 
L 278.158828 142.809777 
L 278.087772 134.866818 
L 278.052303 136.368412 
L 277.981484 145.11958 
L 277.946134 141.012188 
L 277.840319 130.430676 
L 277.76997 143.400519 
L 277.734855 139.1325 
L 277.62974 125.757853 
L 277.559856 141.41116 
L 277.490125 135.629487 
L 277.455317 133.597345 
L 277.420547 133.868666 
L 277.351122 144.067476 
L 277.281847 142.077856 
L 277.178218 145.06479 
L 277.04057 144.239749 
L 276.971969 143.568558 
L 276.937724 142.458793 
L 276.903516 143.718038 
L 276.869345 144.649907 
L 276.801112 144.629926 
L 276.665086 136.532869 
L 276.63117 138.236351 
L 276.563446 143.658259 
L 276.462131 114.444806 
L 276.428431 120.162841 
L 276.361138 142.217365 
L 276.327545 133.394452 
L 276.260466 111.369814 
L 276.226979 117.307359 
L 276.160111 143.651155 
L 276.093383 132.420289 
L 276.026796 122.952582 
L 275.993554 130.758517 
L 275.960348 143.25178 
L 275.894038 139.988915 
L 275.728868 117.07598 
L 275.663039 134.310707 
L 275.597347 145.060565 
L 275.564551 135.799401 
L 275.499062 110.932292 
L 275.466368 113.034429 
L 275.401081 143.243227 
L 275.368488 135.773059 
L 275.303401 110.815071 
L 275.270908 112.923211 
L 275.173627 142.549565 
L 275.141266 131.569625 
L 275.108938 124.524176 
L 275.04438 134.511288 
L 274.979954 144.432154 
L 274.915658 142.550379 
L 274.883559 141.869093 
L 274.819457 137.365131 
L 274.787455 141.750091 
L 274.723547 144.490181 
L 274.659767 142.856743 
L 274.596116 144.111116 
L 274.564337 143.638142 
L 274.500876 142.823674 
L 274.469193 143.650533 
L 274.437542 144.907997 
L 274.405922 142.324256 
L 274.311251 135.757805 
L 274.279756 139.526468 
L 274.248293 141.160369 
L 274.185459 129.016885 
L 274.12275 133.655313 
L 274.060164 140.059507 
L 274.028918 131.047376 
L 273.997702 128.571746 
L 273.966516 132.906842 
L 273.873144 143.996758 
L 273.84208 137.27821 
L 273.811048 134.548359 
L 273.780045 136.37089 
L 273.71813 144.362603 
L 273.656336 138.66518 
L 273.625484 134.970751 
L 273.594662 136.076402 
L 273.533107 145.040037 
L 273.502374 141.52093 
L 273.440998 125.493633 
L 273.37974 137.534349 
L 273.349155 144.882238 
L 273.3186 138.292644 
L 273.257577 119.547813 
L 273.22711 125.074532 
L 273.166263 144.092844 
L 273.105532 131.403419 
L 273.07521 125.87382 
L 273.044917 128.823303 
L 272.954211 142.63045 
L 272.924033 140.391518 
L 272.893884 136.857588 
L 272.803607 138.390203 
L 272.713587 141.677144 
L 272.683636 139.974438 
" style="fill:none;stroke:#1f77b4;stroke-linecap:square;stroke-width:1.5;"/>
   </g>
   <g id="patch_3">
    <path d="M 265.92 150.089143 
L 265.92 41.472 
" style="fill:none;stroke:#000000;stroke-linecap:square;stroke-linejoin:miter;stroke-width:0.8;"/>
   </g>
   <g id="patch_4">
    <path d="M 414.72 150.089143 
L 414.72 41.472 
" style="fill:none;stroke:#000000;stroke-linecap:square;stroke-linejoin:miter;stroke-width:0.8;"/>
   </g>
   <g id="patch_5">
    <path d="M 265.92 150.089143 
L 414.72 150.089143 
" style="fill:none;stroke:#000000;stroke-linecap:square;stroke-linejoin:miter;stroke-width:0.8;"/>
   </g>
   <g id="patch_6">
    <path d="M 265.92 41.472 
L 414.72 41.472 
" style="fill:none;stroke:#000000;stroke-linecap:square;stroke-linejoin:miter;stroke-width:0.8;"/>
   </g>
   <g id="text_8">
    <!-- Periodogram -->
    <g transform="translate(307.698125 35.472)scale(0.1 -0.1)">
     <defs>
      <path d="M 52.484375 46.6875 
L 52.484375 1.125 
Q 52.484375 -10.0625 46.328125 -16.140625 
Q 40.1875 -22.21875 28.8125 -22.21875 
Q 23.6875 -22.21875 19 -21.28125 
Q 14.3125 -20.359375 10.015625 -18.5 
L 10.015625 -7.625 
L 14.703125 -7.625 
Q 15.578125 -12.703125 18.84375 -15.046875 
Q 22.125 -17.390625 28.21875 -17.390625 
Q 36.140625 -17.390625 39.8125 -12.921875 
Q 43.5 -8.453125 43.5 1.125 
L 43.5 8.109375 
Q 40.875 3.21875 36.796875 0.890625 
Q 32.71875 -1.421875 26.703125 -1.421875 
Q 17.140625 -1.421875 11.0625 6.171875 
Q 4.984375 13.765625 4.984375 25.984375 
Q 4.984375 38.1875 11.03125 45.75 
Q 17.09375 53.328125 26.703125 53.328125 
Q 32.71875 53.328125 36.796875 51 
Q 40.875 48.6875 43.5 43.796875 
L 43.5 51.90625 
L 61.078125 51.90625 
L 61.078125 46.6875 
z
M 43.5 28.515625 
Q 43.5 37.84375 39.90625 42.765625 
Q 36.328125 47.703125 29.5 47.703125 
Q 22.5625 47.703125 19.015625 42.234375 
Q 15.484375 36.765625 15.484375 25.984375 
Q 15.484375 15.234375 19.015625 9.71875 
Q 22.5625 4.203125 29.5 4.203125 
Q 36.328125 4.203125 39.90625 9.109375 
Q 43.5 14.015625 43.5 23.390625 
z
" id="DejaVuSerif-103"/>
      <path d="M 39.796875 16.3125 
L 39.796875 27.296875 
L 28.21875 27.296875 
Q 21.53125 27.296875 18.25 24.40625 
Q 14.984375 21.53125 14.984375 15.578125 
Q 14.984375 10.15625 18.296875 6.984375 
Q 21.625 3.8125 27.296875 3.8125 
Q 32.90625 3.8125 36.34375 7.28125 
Q 39.796875 10.75 39.796875 16.3125 
z
M 48.78125 32.421875 
L 48.78125 5.171875 
L 56.78125 5.171875 
L 56.78125 0 
L 39.796875 0 
L 39.796875 5.609375 
Q 36.8125 2 32.90625 0.28125 
Q 29 -1.421875 23.78125 -1.421875 
Q 15.140625 -1.421875 10.0625 3.171875 
Q 4.984375 7.765625 4.984375 15.578125 
Q 4.984375 23.640625 10.796875 28.078125 
Q 16.609375 32.515625 27.203125 32.515625 
L 39.796875 32.515625 
L 39.796875 36.078125 
Q 39.796875 42 36.203125 45.234375 
Q 32.625 48.484375 26.125 48.484375 
Q 20.75 48.484375 17.578125 46.046875 
Q 14.40625 43.609375 13.625 38.8125 
L 8.984375 38.8125 
L 8.984375 49.3125 
Q 13.671875 51.3125 18.09375 52.3125 
Q 22.515625 53.328125 26.703125 53.328125 
Q 37.5 53.328125 43.140625 47.96875 
Q 48.78125 42.625 48.78125 32.421875 
z
" id="DejaVuSerif-97"/>
      <path d="M 51.8125 41.796875 
Q 54.390625 47.515625 58.421875 50.421875 
Q 62.453125 53.328125 67.828125 53.328125 
Q 75.984375 53.328125 79.984375 48.265625 
Q 83.984375 43.21875 83.984375 33.015625 
L 83.984375 5.171875 
L 92.09375 5.171875 
L 92.09375 0 
L 67.1875 0 
L 67.1875 5.171875 
L 75 5.171875 
L 75 31.984375 
Q 75 39.9375 72.65625 43.3125 
Q 70.3125 46.6875 64.890625 46.6875 
Q 58.890625 46.6875 55.734375 42.140625 
Q 52.59375 37.59375 52.59375 28.90625 
L 52.59375 5.171875 
L 60.40625 5.171875 
L 60.40625 0 
L 35.796875 0 
L 35.796875 5.171875 
L 43.609375 5.171875 
L 43.609375 32.328125 
Q 43.609375 40.09375 41.265625 43.390625 
Q 38.921875 46.6875 33.5 46.6875 
Q 27.484375 46.6875 24.328125 42.140625 
Q 21.1875 37.59375 21.1875 28.90625 
L 21.1875 5.171875 
L 29 5.171875 
L 29 0 
L 4.109375 0 
L 4.109375 5.171875 
L 12.203125 5.171875 
L 12.203125 46.78125 
L 3.609375 46.78125 
L 3.609375 51.90625 
L 21.1875 51.90625 
L 21.1875 42.671875 
Q 23.6875 47.859375 27.53125 50.59375 
Q 31.390625 53.328125 36.28125 53.328125 
Q 42.328125 53.328125 46.375 50.3125 
Q 50.4375 47.3125 51.8125 41.796875 
z
" id="DejaVuSerif-109"/>
     </defs>
     <use xlink:href="#DejaVuSerif-80"/>
     <use x="62.785156" xlink:href="#DejaVuSerif-101"/>
     <use x="121.964844" xlink:href="#DejaVuSerif-114"/>
     <use x="169.767578" xlink:href="#DejaVuSerif-105"/>
     <use x="201.75" xlink:href="#DejaVuSerif-111"/>
     <use x="261.955078" xlink:href="#DejaVuSerif-100"/>
     <use x="325.96875" xlink:href="#DejaVuSerif-111"/>
     <use x="386.173828" xlink:href="#DejaVuSerif-103"/>
     <use x="450.1875" xlink:href="#DejaVuSerif-114"/>
     <use x="497.990234" xlink:href="#DejaVuSerif-97"/>
     <use x="557.609375" xlink:href="#DejaVuSerif-109"/>
    </g>
   </g>
   <g id="legend_1">
    <g id="patch_7">
     <path d="M 419.648125 108.123071 
L 454.431875 108.123071 
Q 455.231875 108.123071 455.231875 107.323071 
L 455.231875 84.238071 
Q 455.231875 83.438071 454.431875 83.438071 
L 419.648125 83.438071 
Q 418.848125 83.438071 418.848125 84.238071 
L 418.848125 107.323071 
Q 418.848125 108.123071 419.648125 108.123071 
z
" style="fill:#ffffff;opacity:0.8;stroke:#cccccc;stroke-linejoin:miter;"/>
    </g>
    <g id="line2d_23">
     <path d="M 420.448125 86.677446 
L 428.448125 86.677446 
" style="fill:none;stroke:#808080;stroke-dasharray:5.55,2.4;stroke-dashoffset:0;stroke-width:1.5;"/>
    </g>
    <g id="text_9">
     <!-- 99.9% FAP -->
     <g transform="translate(431.648125 88.077446)scale(0.04 -0.04)">
      <defs>
       <path d="M 46.78125 32.671875 
Q 43.5 29 39.25 27.1875 
Q 35.015625 25.390625 29.6875 25.390625 
Q 18.84375 25.390625 12.5625 31.9375 
Q 6.296875 38.484375 6.296875 49.8125 
Q 6.296875 60.890625 13.109375 67.546875 
Q 19.921875 74.21875 31.296875 74.21875 
Q 43.65625 74.21875 50.265625 65.015625 
Q 56.890625 55.8125 56.890625 38.71875 
Q 56.890625 19.578125 49.015625 9.078125 
Q 41.15625 -1.421875 26.90625 -1.421875 
Q 23.046875 -1.421875 18.796875 -0.6875 
Q 14.546875 0.046875 10.109375 1.515625 
L 10.109375 13.625 
L 15.578125 13.625 
Q 16.21875 8.6875 19.390625 6.046875 
Q 22.5625 3.421875 27.875 3.421875 
Q 37.359375 3.421875 41.984375 10.5625 
Q 46.625 17.71875 46.78125 32.671875 
z
M 30.90625 69.390625 
Q 23.96875 69.390625 20.28125 64.328125 
Q 16.609375 59.28125 16.609375 49.8125 
Q 16.609375 40.328125 20.28125 35.25 
Q 23.96875 30.171875 30.90625 30.171875 
Q 37.84375 30.171875 41.53125 35.078125 
Q 45.21875 39.984375 45.21875 49.21875 
Q 45.21875 58.9375 41.5 64.15625 
Q 37.796875 69.390625 30.90625 69.390625 
z
" id="DejaVuSerif-57"/>
       <path d="M 22.40625 69.671875 
Q 18.109375 69.671875 15.6875 65.625 
Q 13.28125 61.578125 13.28125 54.296875 
Q 13.28125 47.125 15.75 43.015625 
Q 18.21875 38.921875 22.40625 38.921875 
Q 26.5625 38.921875 28.96875 43 
Q 31.390625 47.078125 31.390625 54.296875 
Q 31.390625 61.53125 28.96875 65.59375 
Q 26.5625 69.671875 22.40625 69.671875 
z
M 72.703125 33.890625 
Q 68.453125 33.890625 66.03125 29.78125 
Q 63.625 25.6875 63.625 18.40625 
Q 63.625 11.234375 66.0625 7.15625 
Q 68.5 3.078125 72.703125 3.078125 
Q 76.90625 3.078125 79.296875 7.15625 
Q 81.6875 11.234375 81.6875 18.40625 
Q 81.6875 25.640625 79.265625 29.765625 
Q 76.859375 33.890625 72.703125 33.890625 
z
M 72.703125 38.28125 
Q 80.421875 38.28125 84.953125 32.90625 
Q 89.5 27.546875 89.5 18.40625 
Q 89.5 9.28125 84.9375 3.921875 
Q 80.375 -1.421875 72.703125 -1.421875 
Q 64.890625 -1.421875 60.34375 3.921875 
Q 55.8125 9.28125 55.8125 18.40625 
Q 55.8125 27.59375 60.375 32.9375 
Q 64.9375 38.28125 72.703125 38.28125 
z
M 66.609375 74.21875 
L 74.03125 74.21875 
L 28.421875 -1.421875 
L 21 -1.421875 
z
M 22.3125 74.21875 
Q 30.03125 74.21875 34.609375 68.875 
Q 39.203125 63.53125 39.203125 54.390625 
Q 39.203125 45.171875 34.640625 39.84375 
Q 30.078125 34.515625 22.3125 34.515625 
Q 14.546875 34.515625 10.03125 39.859375 
Q 5.515625 45.21875 5.515625 54.390625 
Q 5.515625 63.484375 10.046875 68.84375 
Q 14.59375 74.21875 22.3125 74.21875 
z
" id="DejaVuSerif-37"/>
       <path d="M 5.515625 0 
L 5.515625 5.171875 
L 14.796875 5.171875 
L 14.796875 67.671875 
L 5.515625 67.671875 
L 5.515625 72.90625 
L 65.1875 72.90625 
L 65.1875 56.6875 
L 59.1875 56.6875 
L 59.1875 66.890625 
L 24.703125 66.890625 
L 24.703125 42.484375 
L 49.609375 42.484375 
L 49.609375 51.609375 
L 55.609375 51.609375 
L 55.609375 27.390625 
L 49.609375 27.390625 
L 49.609375 36.53125 
L 24.703125 36.53125 
L 24.703125 5.171875 
L 36.375 5.171875 
L 36.375 0 
z
" id="DejaVuSerif-70"/>
       <path d="M 20.015625 26.421875 
L 46.78125 26.421875 
L 33.40625 61.078125 
z
M -0.59375 0 
L -0.59375 5.171875 
L 5.8125 5.171875 
L 31.78125 72.90625 
L 39.984375 72.90625 
L 66.015625 5.171875 
L 73.1875 5.171875 
L 73.1875 0 
L 46.6875 0 
L 46.6875 5.171875 
L 54.78125 5.171875 
L 48.6875 21.1875 
L 18.015625 21.1875 
L 11.921875 5.171875 
L 19.921875 5.171875 
L 19.921875 0 
z
" id="DejaVuSerif-65"/>
      </defs>
      <use xlink:href="#DejaVuSerif-57"/>
      <use x="63.623047" xlink:href="#DejaVuSerif-57"/>
      <use x="127.246094" xlink:href="#DejaVuSerif-46"/>
      <use x="159.033203" xlink:href="#DejaVuSerif-57"/>
      <use x="222.65625" xlink:href="#DejaVuSerif-37"/>
      <use x="317.675781" xlink:href="#DejaVuSerif-32"/>
      <use x="349.462891" xlink:href="#DejaVuSerif-70"/>
      <use x="410.097656" xlink:href="#DejaVuSerif-65"/>
      <use x="482.314453" xlink:href="#DejaVuSerif-80"/>
     </g>
    </g>
    <g id="line2d_24">
     <path d="M 420.448125 92.548696 
L 428.448125 92.548696 
" style="fill:none;stroke:#a9a9a9;stroke-dasharray:5.55,2.4;stroke-dashoffset:0;stroke-width:1.5;"/>
    </g>
    <g id="text_10">
     <!-- 99.0% FAP -->
     <g transform="translate(431.648125 93.948696)scale(0.04 -0.04)">
      <use xlink:href="#DejaVuSerif-57"/>
      <use x="63.623047" xlink:href="#DejaVuSerif-57"/>
      <use x="127.246094" xlink:href="#DejaVuSerif-46"/>
      <use x="159.033203" xlink:href="#DejaVuSerif-48"/>
      <use x="222.65625" xlink:href="#DejaVuSerif-37"/>
      <use x="317.675781" xlink:href="#DejaVuSerif-32"/>
      <use x="349.462891" xlink:href="#DejaVuSerif-70"/>
      <use x="410.097656" xlink:href="#DejaVuSerif-65"/>
      <use x="482.314453" xlink:href="#DejaVuSerif-80"/>
     </g>
    </g>
    <g id="line2d_25">
     <path d="M 420.448125 98.419946 
L 428.448125 98.419946 
" style="fill:none;stroke:#c0c0c0;stroke-dasharray:5.55,2.4;stroke-dashoffset:0;stroke-width:1.5;"/>
    </g>
    <g id="text_11">
     <!-- 95.0% FAP -->
     <g transform="translate(431.648125 99.819946)scale(0.04 -0.04)">
      <defs>
       <path d="M 50.296875 72.90625 
L 50.296875 64.890625 
L 16.890625 64.890625 
L 16.890625 44 
Q 19.4375 45.75 22.828125 46.625 
Q 26.21875 47.515625 30.421875 47.515625 
Q 42.234375 47.515625 49.0625 40.96875 
Q 55.90625 34.421875 55.90625 23.09375 
Q 55.90625 11.53125 49 5.046875 
Q 42.09375 -1.421875 29.59375 -1.421875 
Q 24.5625 -1.421875 19.28125 -0.1875 
Q 14.015625 1.03125 8.5 3.515625 
L 8.5 17.671875 
L 14.015625 17.671875 
Q 14.453125 10.75 18.421875 7.078125 
Q 22.40625 3.421875 29.59375 3.421875 
Q 37.3125 3.421875 41.453125 8.5 
Q 45.609375 13.578125 45.609375 23.09375 
Q 45.609375 32.5625 41.484375 37.609375 
Q 37.359375 42.671875 29.59375 42.671875 
Q 25.203125 42.671875 21.84375 41.109375 
Q 18.5 39.546875 15.921875 36.28125 
L 11.71875 36.28125 
L 11.71875 72.90625 
z
" id="DejaVuSerif-53"/>
      </defs>
      <use xlink:href="#DejaVuSerif-57"/>
      <use x="63.623047" xlink:href="#DejaVuSerif-53"/>
      <use x="127.246094" xlink:href="#DejaVuSerif-46"/>
      <use x="159.033203" xlink:href="#DejaVuSerif-48"/>
      <use x="222.65625" xlink:href="#DejaVuSerif-37"/>
      <use x="317.675781" xlink:href="#DejaVuSerif-32"/>
      <use x="349.462891" xlink:href="#DejaVuSerif-70"/>
      <use x="410.097656" xlink:href="#DejaVuSerif-65"/>
      <use x="482.314453" xlink:href="#DejaVuSerif-80"/>
     </g>
    </g>
    <g id="line2d_26">
     <path d="M 420.448125 104.291196 
L 428.448125 104.291196 
" style="fill:none;stroke:#d3d3d3;stroke-dasharray:5.55,2.4;stroke-dashoffset:0;stroke-width:1.5;"/>
    </g>
    <g id="text_12">
     <!-- 90.0% FAP -->
     <g transform="translate(431.648125 105.691196)scale(0.04 -0.04)">
      <use xlink:href="#DejaVuSerif-57"/>
      <use x="63.623047" xlink:href="#DejaVuSerif-48"/>
      <use x="127.246094" xlink:href="#DejaVuSerif-46"/>
      <use x="159.033203" xlink:href="#DejaVuSerif-48"/>
      <use x="222.65625" xlink:href="#DejaVuSerif-37"/>
      <use x="317.675781" xlink:href="#DejaVuSerif-32"/>
      <use x="349.462891" xlink:href="#DejaVuSerif-70"/>
      <use x="410.097656" xlink:href="#DejaVuSerif-65"/>
      <use x="482.314453" xlink:href="#DejaVuSerif-80"/>
     </g>
    </g>
   </g>
  </g>
  <g id="axes_2">
   <g id="patch_8">
    <path d="M 57.6 150.089143 
L 206.4 150.089143 
L 206.4 41.472 
L 57.6 41.472 
z
" style="fill:#ffffff;"/>
   </g>
   <g id="PathCollection_1">
    <defs>
     <path d="M 0 0.707107 
C 0.187527 0.707107 0.367398 0.632602 0.5 0.5 
C 0.632602 0.367398 0.707107 0.187527 0.707107 0 
C 0.707107 -0.187527 0.632602 -0.367398 0.5 -0.5 
C 0.367398 -0.632602 0.187527 -0.707107 0 -0.707107 
C -0.187527 -0.707107 -0.367398 -0.632602 -0.5 -0.5 
C -0.632602 -0.367398 -0.707107 -0.187527 -0.707107 0 
C -0.707107 0.187527 -0.632602 0.367398 -0.5 0.5 
C -0.367398 0.632602 -0.187527 0.707107 0 0.707107 
z
" id="m28cdc8fcf9" style="stroke:#1f77b4;"/>
    </defs>
    <g clip-path="url(#p699c7848c8)">
     <use style="fill:#1f77b4;stroke:#1f77b4;" x="86.676726" xlink:href="#m28cdc8fcf9" y="96.570365"/>
     <use style="fill:#1f77b4;stroke:#1f77b4;" x="86.680184" xlink:href="#m28cdc8fcf9" y="77.959341"/>
     <use style="fill:#1f77b4;stroke:#1f77b4;" x="65.055987" xlink:href="#m28cdc8fcf9" y="88.901015"/>
     <use style="fill:#1f77b4;stroke:#1f77b4;" x="65.059445" xlink:href="#m28cdc8fcf9" y="89.315496"/>
     <use style="fill:#1f77b4;stroke:#1f77b4;" x="80.645046" xlink:href="#m28cdc8fcf9" y="117.862362"/>
     <use style="fill:#1f77b4;stroke:#1f77b4;" x="102.809756" xlink:href="#m28cdc8fcf9" y="116.244655"/>
     <use style="fill:#1f77b4;stroke:#1f77b4;" x="102.833783" xlink:href="#m28cdc8fcf9" y="122.175017"/>
     <use style="fill:#1f77b4;stroke:#1f77b4;" x="88.974643" xlink:href="#m28cdc8fcf9" y="117.755692"/>
     <use style="fill:#1f77b4;stroke:#1f77b4;" x="96.43459" xlink:href="#m28cdc8fcf9" y="64.411153"/>
     <use style="fill:#1f77b4;stroke:#1f77b4;" x="96.437961" xlink:href="#m28cdc8fcf9" y="80.85613"/>
     <use style="fill:#1f77b4;stroke:#1f77b4;" x="111.5264" xlink:href="#m28cdc8fcf9" y="95.821454"/>
     <use style="fill:#1f77b4;stroke:#1f77b4;" x="111.529857" xlink:href="#m28cdc8fcf9" y="134.903456"/>
     <use style="fill:#1f77b4;stroke:#1f77b4;" x="126.225198" xlink:href="#m28cdc8fcf9" y="73.744842"/>
     <use style="fill:#1f77b4;stroke:#1f77b4;" x="126.228655" xlink:href="#m28cdc8fcf9" y="72.247655"/>
     <use style="fill:#1f77b4;stroke:#1f77b4;" x="64.363636" xlink:href="#m28cdc8fcf9" y="107.915529"/>
     <use style="fill:#1f77b4;stroke:#1f77b4;" x="64.367093" xlink:href="#m28cdc8fcf9" y="118.075002"/>
     <use style="fill:#1f77b4;stroke:#1f77b4;" x="72.230337" xlink:href="#m28cdc8fcf9" y="83.311755"/>
     <use style="fill:#1f77b4;stroke:#1f77b4;" x="72.233708" xlink:href="#m28cdc8fcf9" y="83.236025"/>
     <use style="fill:#1f77b4;stroke:#1f77b4;" x="79.376186" xlink:href="#m28cdc8fcf9" y="80.471954"/>
     <use style="fill:#1f77b4;stroke:#1f77b4;" x="79.379644" xlink:href="#m28cdc8fcf9" y="54.681853"/>
     <use style="fill:#1f77b4;stroke:#1f77b4;" x="86.836911" xlink:href="#m28cdc8fcf9" y="90.558746"/>
     <use style="fill:#1f77b4;stroke:#1f77b4;" x="86.840282" xlink:href="#m28cdc8fcf9" y="90.318216"/>
     <use style="fill:#1f77b4;stroke:#1f77b4;" x="84.845769" xlink:href="#m28cdc8fcf9" y="91.531162"/>
     <use style="fill:#1f77b4;stroke:#1f77b4;" x="67.437312" xlink:href="#m28cdc8fcf9" y="93.491812"/>
     <use style="fill:#1f77b4;stroke:#1f77b4;" x="74.871156" xlink:href="#m28cdc8fcf9" y="53.668841"/>
     <use style="fill:#1f77b4;stroke:#1f77b4;" x="82.340697" xlink:href="#m28cdc8fcf9" y="70.439099"/>
     <use style="fill:#1f77b4;stroke:#1f77b4;" x="89.794767" xlink:href="#m28cdc8fcf9" y="115.299431"/>
     <use style="fill:#1f77b4;stroke:#1f77b4;" x="97.294041" xlink:href="#m28cdc8fcf9" y="102.60314"/>
     <use style="fill:#1f77b4;stroke:#1f77b4;" x="117.763815" xlink:href="#m28cdc8fcf9" y="117.434603"/>
     <use style="fill:#1f77b4;stroke:#1f77b4;" x="114.217311" xlink:href="#m28cdc8fcf9" y="104.844918"/>
     <use style="fill:#1f77b4;stroke:#1f77b4;" x="122.774698" xlink:href="#m28cdc8fcf9" y="95.147701"/>
     <use style="fill:#1f77b4;stroke:#1f77b4;" x="130.380285" xlink:href="#m28cdc8fcf9" y="60.906112"/>
     <use style="fill:#1f77b4;stroke:#1f77b4;" x="113.245042" xlink:href="#m28cdc8fcf9" y="109.821669"/>
     <use style="fill:#1f77b4;stroke:#1f77b4;" x="66.535361" xlink:href="#m28cdc8fcf9" y="56.595236"/>
     <use style="fill:#1f77b4;stroke:#1f77b4;" x="86.694196" xlink:href="#m28cdc8fcf9" y="102.260831"/>
     <use style="fill:#1f77b4;stroke:#1f77b4;" x="116.565273" xlink:href="#m28cdc8fcf9" y="98.266215"/>
     <use style="fill:#1f77b4;stroke:#1f77b4;" x="121.931742" xlink:href="#m28cdc8fcf9" y="97.660949"/>
     <use style="fill:#1f77b4;stroke:#1f77b4;" x="67.101328" xlink:href="#m28cdc8fcf9" y="97.117436"/>
     <use style="fill:#1f77b4;stroke:#1f77b4;" x="82.021717" xlink:href="#m28cdc8fcf9" y="46.409143"/>
     <use style="fill:#1f77b4;stroke:#1f77b4;" x="99.952882" xlink:href="#m28cdc8fcf9" y="138.467899"/>
     <use style="fill:#1f77b4;stroke:#1f77b4;" x="99.956253" xlink:href="#m28cdc8fcf9" y="145.152"/>
     <use style="fill:#1f77b4;stroke:#1f77b4;" x="107.230024" xlink:href="#m28cdc8fcf9" y="143.742741"/>
     <use style="fill:#1f77b4;stroke:#1f77b4;" x="107.233395" xlink:href="#m28cdc8fcf9" y="126.282338"/>
     <use style="fill:#1f77b4;stroke:#1f77b4;" x="114.375787" xlink:href="#m28cdc8fcf9" y="134.005563"/>
     <use style="fill:#1f77b4;stroke:#1f77b4;" x="114.379158" xlink:href="#m28cdc8fcf9" y="142.581827"/>
    </g>
   </g>
   <g id="PathCollection_2">
    <g clip-path="url(#p699c7848c8)">
     <use style="fill:#1f77b4;stroke:#1f77b4;" x="155.932805" xlink:href="#m28cdc8fcf9" y="96.570365"/>
     <use style="fill:#1f77b4;stroke:#1f77b4;" x="155.936262" xlink:href="#m28cdc8fcf9" y="77.959341"/>
     <use style="fill:#1f77b4;stroke:#1f77b4;" x="134.312066" xlink:href="#m28cdc8fcf9" y="88.901015"/>
     <use style="fill:#1f77b4;stroke:#1f77b4;" x="134.315524" xlink:href="#m28cdc8fcf9" y="89.315496"/>
     <use style="fill:#1f77b4;stroke:#1f77b4;" x="149.901124" xlink:href="#m28cdc8fcf9" y="117.862362"/>
     <use style="fill:#1f77b4;stroke:#1f77b4;" x="172.065834" xlink:href="#m28cdc8fcf9" y="116.244655"/>
     <use style="fill:#1f77b4;stroke:#1f77b4;" x="172.089862" xlink:href="#m28cdc8fcf9" y="122.175017"/>
     <use style="fill:#1f77b4;stroke:#1f77b4;" x="158.230721" xlink:href="#m28cdc8fcf9" y="117.755692"/>
     <use style="fill:#1f77b4;stroke:#1f77b4;" x="165.690669" xlink:href="#m28cdc8fcf9" y="64.411153"/>
     <use style="fill:#1f77b4;stroke:#1f77b4;" x="165.69404" xlink:href="#m28cdc8fcf9" y="80.85613"/>
     <use style="fill:#1f77b4;stroke:#1f77b4;" x="180.782478" xlink:href="#m28cdc8fcf9" y="95.821454"/>
     <use style="fill:#1f77b4;stroke:#1f77b4;" x="180.785935" xlink:href="#m28cdc8fcf9" y="134.903456"/>
     <use style="fill:#1f77b4;stroke:#1f77b4;" x="195.481276" xlink:href="#m28cdc8fcf9" y="73.744842"/>
     <use style="fill:#1f77b4;stroke:#1f77b4;" x="195.484734" xlink:href="#m28cdc8fcf9" y="72.247655"/>
     <use style="fill:#1f77b4;stroke:#1f77b4;" x="133.619715" xlink:href="#m28cdc8fcf9" y="107.915529"/>
     <use style="fill:#1f77b4;stroke:#1f77b4;" x="133.623172" xlink:href="#m28cdc8fcf9" y="118.075002"/>
     <use style="fill:#1f77b4;stroke:#1f77b4;" x="141.486415" xlink:href="#m28cdc8fcf9" y="83.311755"/>
     <use style="fill:#1f77b4;stroke:#1f77b4;" x="141.489786" xlink:href="#m28cdc8fcf9" y="83.236025"/>
     <use style="fill:#1f77b4;stroke:#1f77b4;" x="148.632265" xlink:href="#m28cdc8fcf9" y="80.471954"/>
     <use style="fill:#1f77b4;stroke:#1f77b4;" x="148.635723" xlink:href="#m28cdc8fcf9" y="54.681853"/>
     <use style="fill:#1f77b4;stroke:#1f77b4;" x="156.09299" xlink:href="#m28cdc8fcf9" y="90.558746"/>
     <use style="fill:#1f77b4;stroke:#1f77b4;" x="156.096361" xlink:href="#m28cdc8fcf9" y="90.318216"/>
     <use style="fill:#1f77b4;stroke:#1f77b4;" x="154.101848" xlink:href="#m28cdc8fcf9" y="91.531162"/>
     <use style="fill:#1f77b4;stroke:#1f77b4;" x="136.693391" xlink:href="#m28cdc8fcf9" y="93.491812"/>
     <use style="fill:#1f77b4;stroke:#1f77b4;" x="144.127235" xlink:href="#m28cdc8fcf9" y="53.668841"/>
     <use style="fill:#1f77b4;stroke:#1f77b4;" x="151.596776" xlink:href="#m28cdc8fcf9" y="70.439099"/>
     <use style="fill:#1f77b4;stroke:#1f77b4;" x="159.050846" xlink:href="#m28cdc8fcf9" y="115.299431"/>
     <use style="fill:#1f77b4;stroke:#1f77b4;" x="166.55012" xlink:href="#m28cdc8fcf9" y="102.60314"/>
     <use style="fill:#1f77b4;stroke:#1f77b4;" x="187.019894" xlink:href="#m28cdc8fcf9" y="117.434603"/>
     <use style="fill:#1f77b4;stroke:#1f77b4;" x="183.47339" xlink:href="#m28cdc8fcf9" y="104.844918"/>
     <use style="fill:#1f77b4;stroke:#1f77b4;" x="192.030777" xlink:href="#m28cdc8fcf9" y="95.147701"/>
     <use style="fill:#1f77b4;stroke:#1f77b4;" x="199.636364" xlink:href="#m28cdc8fcf9" y="60.906112"/>
     <use style="fill:#1f77b4;stroke:#1f77b4;" x="182.501121" xlink:href="#m28cdc8fcf9" y="109.821669"/>
     <use style="fill:#1f77b4;stroke:#1f77b4;" x="135.791439" xlink:href="#m28cdc8fcf9" y="56.595236"/>
     <use style="fill:#1f77b4;stroke:#1f77b4;" x="155.950275" xlink:href="#m28cdc8fcf9" y="102.260831"/>
     <use style="fill:#1f77b4;stroke:#1f77b4;" x="185.821351" xlink:href="#m28cdc8fcf9" y="98.266215"/>
     <use style="fill:#1f77b4;stroke:#1f77b4;" x="191.18782" xlink:href="#m28cdc8fcf9" y="97.660949"/>
     <use style="fill:#1f77b4;stroke:#1f77b4;" x="136.357406" xlink:href="#m28cdc8fcf9" y="97.117436"/>
     <use style="fill:#1f77b4;stroke:#1f77b4;" x="151.277796" xlink:href="#m28cdc8fcf9" y="46.409143"/>
     <use style="fill:#1f77b4;stroke:#1f77b4;" x="169.208961" xlink:href="#m28cdc8fcf9" y="138.467899"/>
     <use style="fill:#1f77b4;stroke:#1f77b4;" x="169.212332" xlink:href="#m28cdc8fcf9" y="145.152"/>
     <use style="fill:#1f77b4;stroke:#1f77b4;" x="176.486102" xlink:href="#m28cdc8fcf9" y="143.742741"/>
     <use style="fill:#1f77b4;stroke:#1f77b4;" x="176.489473" xlink:href="#m28cdc8fcf9" y="126.282338"/>
     <use style="fill:#1f77b4;stroke:#1f77b4;" x="183.631865" xlink:href="#m28cdc8fcf9" y="134.005563"/>
     <use style="fill:#1f77b4;stroke:#1f77b4;" x="183.635236" xlink:href="#m28cdc8fcf9" y="142.581827"/>
    </g>
   </g>
   <g id="matplotlib.axis_3">
    <g id="xtick_19">
     <g id="line2d_27">
      <g>
       <use style="stroke:#000000;stroke-width:0.8;" x="62.558716" xlink:href="#me552d3c333" y="150.089143"/>
      </g>
     </g>
     <g id="text_13">
      <!-- 0 -->
      <g transform="translate(59.377466 164.68758)scale(0.1 -0.1)">
       <use xlink:href="#DejaVuSerif-48"/>
      </g>
     </g>
    </g>
    <g id="xtick_20">
     <g id="line2d_28">
      <g>
       <use style="stroke:#000000;stroke-width:0.8;" x="131.814795" xlink:href="#me552d3c333" y="150.089143"/>
      </g>
     </g>
     <g id="text_14">
      <!-- 1 -->
      <g transform="translate(128.633545 164.68758)scale(0.1 -0.1)">
       <use xlink:href="#DejaVuSerif-49"/>
      </g>
     </g>
    </g>
    <g id="xtick_21">
     <g id="line2d_29">
      <g>
       <use style="stroke:#000000;stroke-width:0.8;" x="201.070874" xlink:href="#me552d3c333" y="150.089143"/>
      </g>
     </g>
     <g id="text_15">
      <!-- 2 -->
      <g transform="translate(197.889624 164.68758)scale(0.1 -0.1)">
       <use xlink:href="#DejaVuSerif-50"/>
      </g>
     </g>
    </g>
    <g id="text_16">
     <!-- Phase (P = 9.274 d) -->
     <g transform="translate(81.582812 178.365705)scale(0.1 -0.1)">
      <defs>
       <path d="M 4.109375 0 
L 4.109375 5.171875 
L 12.203125 5.171875 
L 12.203125 70.796875 
L 3.609375 70.796875 
L 3.609375 75.984375 
L 21.1875 75.984375 
L 21.1875 42.671875 
Q 23.6875 47.953125 27.65625 50.640625 
Q 31.640625 53.328125 36.921875 53.328125 
Q 45.515625 53.328125 49.5625 48.390625 
Q 53.609375 43.453125 53.609375 33.015625 
L 53.609375 5.171875 
L 61.625 5.171875 
L 61.625 0 
L 36.8125 0 
L 36.8125 5.171875 
L 44.578125 5.171875 
L 44.578125 30.171875 
Q 44.578125 39.703125 42.25 43.1875 
Q 39.9375 46.6875 33.984375 46.6875 
Q 27.734375 46.6875 24.453125 42.140625 
Q 21.1875 37.59375 21.1875 28.90625 
L 21.1875 5.171875 
L 29 5.171875 
L 29 0 
z
" id="DejaVuSerif-104"/>
       <path d="M 5.609375 2.875 
L 5.609375 14.984375 
L 10.796875 14.984375 
Q 10.984375 9.1875 14.421875 6.296875 
Q 17.875 3.421875 24.609375 3.421875 
Q 30.671875 3.421875 33.84375 5.6875 
Q 37.015625 7.953125 37.015625 12.3125 
Q 37.015625 15.71875 34.6875 17.8125 
Q 32.375 19.921875 24.90625 22.3125 
L 18.40625 24.515625 
Q 11.71875 26.65625 8.71875 29.875 
Q 5.71875 33.109375 5.71875 38.09375 
Q 5.71875 45.21875 10.9375 49.265625 
Q 16.15625 53.328125 25.390625 53.328125 
Q 29.5 53.328125 34.03125 52.25 
Q 38.578125 51.171875 43.40625 49.125 
L 43.40625 37.796875 
L 38.234375 37.796875 
Q 38.03125 42.828125 34.703125 45.65625 
Q 31.390625 48.484375 25.6875 48.484375 
Q 20.015625 48.484375 17.109375 46.484375 
Q 14.203125 44.484375 14.203125 40.484375 
Q 14.203125 37.203125 16.40625 35.21875 
Q 18.609375 33.25 25.203125 31.203125 
L 32.328125 29 
Q 39.703125 26.703125 42.9375 23.265625 
Q 46.1875 19.828125 46.1875 14.40625 
Q 46.1875 7.03125 40.546875 2.796875 
Q 34.90625 -1.421875 25 -1.421875 
Q 19.96875 -1.421875 15.1875 -0.34375 
Q 10.40625 0.734375 5.609375 2.875 
z
" id="DejaVuSerif-115"/>
       <path d="M 31.890625 -15.578125 
Q 20.015625 -10.25 13.953125 1.296875 
Q 7.90625 12.84375 7.90625 30.171875 
Q 7.90625 47.5625 13.953125 59.109375 
Q 20.015625 70.65625 31.890625 75.984375 
L 31.890625 71.1875 
Q 24.359375 66.015625 21.09375 56.609375 
Q 17.828125 47.21875 17.828125 30.171875 
Q 17.828125 13.1875 21.09375 3.78125 
Q 24.359375 -5.609375 31.890625 -10.796875 
z
" id="DejaVuSerif-40"/>
       <path d="M 10.59375 45.21875 
L 73.1875 45.21875 
L 73.1875 37.40625 
L 10.59375 37.40625 
z
M 10.59375 25.296875 
L 73.1875 25.296875 
L 73.1875 17.484375 
L 10.59375 17.484375 
z
" id="DejaVuSerif-61"/>
       <path d="M 56.390625 67.921875 
L 27.875 0 
L 20.609375 0 
L 47.796875 64.890625 
L 14.109375 64.890625 
L 14.109375 55.90625 
L 8.40625 55.90625 
L 8.40625 72.90625 
L 56.390625 72.90625 
z
" id="DejaVuSerif-55"/>
       <path d="M 7.078125 -15.578125 
L 7.078125 -10.796875 
Q 14.59375 -5.609375 17.890625 3.78125 
Q 21.1875 13.1875 21.1875 30.171875 
Q 21.1875 47.21875 17.890625 56.609375 
Q 14.59375 66.015625 7.078125 71.1875 
L 7.078125 75.984375 
Q 19 70.65625 25.046875 59.109375 
Q 31.109375 47.5625 31.109375 30.171875 
Q 31.109375 12.84375 25.046875 1.296875 
Q 19 -10.25 7.078125 -15.578125 
z
" id="DejaVuSerif-41"/>
      </defs>
      <use xlink:href="#DejaVuSerif-80"/>
      <use x="67.285156" xlink:href="#DejaVuSerif-104"/>
      <use x="131.689453" xlink:href="#DejaVuSerif-97"/>
      <use x="191.308594" xlink:href="#DejaVuSerif-115"/>
      <use x="242.626953" xlink:href="#DejaVuSerif-101"/>
      <use x="301.806641" xlink:href="#DejaVuSerif-32"/>
      <use x="333.59375" xlink:href="#DejaVuSerif-40"/>
      <use x="372.607422" xlink:href="#DejaVuSerif-80"/>
      <use x="439.892578" xlink:href="#DejaVuSerif-32"/>
      <use x="471.679688" xlink:href="#DejaVuSerif-61"/>
      <use x="555.46875" xlink:href="#DejaVuSerif-32"/>
      <use x="587.255859" xlink:href="#DejaVuSerif-57"/>
      <use x="650.878906" xlink:href="#DejaVuSerif-46"/>
      <use x="682.666016" xlink:href="#DejaVuSerif-50"/>
      <use x="746.289062" xlink:href="#DejaVuSerif-55"/>
      <use x="809.912109" xlink:href="#DejaVuSerif-52"/>
      <use x="873.535156" xlink:href="#DejaVuSerif-32"/>
      <use x="905.322266" xlink:href="#DejaVuSerif-100"/>
      <use x="969.335938" xlink:href="#DejaVuSerif-41"/>
     </g>
    </g>
   </g>
   <g id="matplotlib.axis_4">
    <g id="ytick_4">
     <g id="line2d_30">
      <g>
       <use style="stroke:#000000;stroke-width:0.8;" x="57.6" xlink:href="#m1d5a9142a7" y="43.999387"/>
      </g>
     </g>
     <g id="text_17">
      <!-- 13.30 -->
      <g transform="translate(21.971875 47.798606)scale(0.1 -0.1)">
       <defs>
        <path d="M 9.71875 69.828125 
Q 15.4375 71.96875 20.671875 73.09375 
Q 25.921875 74.21875 30.515625 74.21875 
Q 41.21875 74.21875 47.21875 69.59375 
Q 53.21875 64.984375 53.21875 56.78125 
Q 53.21875 50.203125 49.0625 45.78125 
Q 44.921875 41.359375 37.3125 39.796875 
Q 46.296875 38.53125 51.25 33.28125 
Q 56.203125 28.03125 56.203125 19.671875 
Q 56.203125 9.46875 49.34375 4.015625 
Q 42.484375 -1.421875 29.59375 -1.421875 
Q 23.875 -1.421875 18.421875 -0.1875 
Q 12.984375 1.03125 7.625 3.515625 
L 7.625 17.671875 
L 13.09375 17.671875 
Q 13.578125 10.640625 17.828125 7.03125 
Q 22.078125 3.421875 29.78125 3.421875 
Q 37.25 3.421875 41.578125 7.734375 
Q 45.90625 12.0625 45.90625 19.578125 
Q 45.90625 28.171875 41.453125 32.59375 
Q 37.015625 37.015625 28.421875 37.015625 
L 23.78125 37.015625 
L 23.78125 42 
L 26.21875 42 
Q 34.765625 42 39.03125 45.53125 
Q 43.3125 49.078125 43.3125 56.203125 
Q 43.3125 62.59375 39.796875 65.984375 
Q 36.28125 69.390625 29.6875 69.390625 
Q 23.09375 69.390625 19.453125 66.265625 
Q 15.828125 63.140625 15.1875 56.984375 
L 9.71875 56.984375 
z
" id="DejaVuSerif-51"/>
       </defs>
       <use xlink:href="#DejaVuSerif-49"/>
       <use x="63.623047" xlink:href="#DejaVuSerif-51"/>
       <use x="127.246094" xlink:href="#DejaVuSerif-46"/>
       <use x="159.033203" xlink:href="#DejaVuSerif-51"/>
       <use x="222.65625" xlink:href="#DejaVuSerif-48"/>
      </g>
     </g>
    </g>
    <g id="ytick_5">
     <g id="line2d_31">
      <g>
       <use style="stroke:#000000;stroke-width:0.8;" x="57.6" xlink:href="#m1d5a9142a7" y="75.765212"/>
      </g>
     </g>
     <g id="text_18">
      <!-- 13.35 -->
      <g transform="translate(21.971875 79.56443)scale(0.1 -0.1)">
       <use xlink:href="#DejaVuSerif-49"/>
       <use x="63.623047" xlink:href="#DejaVuSerif-51"/>
       <use x="127.246094" xlink:href="#DejaVuSerif-46"/>
       <use x="159.033203" xlink:href="#DejaVuSerif-51"/>
       <use x="222.65625" xlink:href="#DejaVuSerif-53"/>
      </g>
     </g>
    </g>
    <g id="ytick_6">
     <g id="line2d_32">
      <g>
       <use style="stroke:#000000;stroke-width:0.8;" x="57.6" xlink:href="#m1d5a9142a7" y="107.531036"/>
      </g>
     </g>
     <g id="text_19">
      <!-- 13.40 -->
      <g transform="translate(21.971875 111.330254)scale(0.1 -0.1)">
       <use xlink:href="#DejaVuSerif-49"/>
       <use x="63.623047" xlink:href="#DejaVuSerif-51"/>
       <use x="127.246094" xlink:href="#DejaVuSerif-46"/>
       <use x="159.033203" xlink:href="#DejaVuSerif-52"/>
       <use x="222.65625" xlink:href="#DejaVuSerif-48"/>
      </g>
     </g>
    </g>
    <g id="ytick_7">
     <g id="line2d_33">
      <g>
       <use style="stroke:#000000;stroke-width:0.8;" x="57.6" xlink:href="#m1d5a9142a7" y="139.29686"/>
      </g>
     </g>
     <g id="text_20">
      <!-- 13.45 -->
      <g transform="translate(21.971875 143.096079)scale(0.1 -0.1)">
       <use xlink:href="#DejaVuSerif-49"/>
       <use x="63.623047" xlink:href="#DejaVuSerif-51"/>
       <use x="127.246094" xlink:href="#DejaVuSerif-46"/>
       <use x="159.033203" xlink:href="#DejaVuSerif-52"/>
       <use x="222.65625" xlink:href="#DejaVuSerif-53"/>
      </g>
     </g>
    </g>
    <g id="text_21">
     <!-- Mag -->
     <g transform="translate(15.75 107.082134)rotate(-90)scale(0.1 -0.1)">
      <defs>
       <path d="M 5.515625 0 
L 5.515625 5.171875 
L 14.796875 5.171875 
L 14.796875 67.671875 
L 4.984375 67.671875 
L 4.984375 72.90625 
L 26.21875 72.90625 
L 51.8125 21 
L 77.390625 72.90625 
L 97.3125 72.90625 
L 97.3125 67.671875 
L 87.59375 67.671875 
L 87.59375 5.171875 
L 96.921875 5.171875 
L 96.921875 0 
L 68.40625 0 
L 68.40625 5.171875 
L 77.6875 5.171875 
L 77.6875 61.53125 
L 52.6875 10.6875 
L 45.796875 10.6875 
L 20.796875 61.53125 
L 20.796875 5.171875 
L 30.078125 5.171875 
L 30.078125 0 
z
" id="DejaVuSerif-77"/>
      </defs>
      <use xlink:href="#DejaVuSerif-77"/>
      <use x="102.392578" xlink:href="#DejaVuSerif-97"/>
      <use x="162.011719" xlink:href="#DejaVuSerif-103"/>
     </g>
    </g>
   </g>
   <g id="patch_9">
    <path d="M 57.6 150.089143 
L 57.6 41.472 
" style="fill:none;stroke:#000000;stroke-linecap:square;stroke-linejoin:miter;stroke-width:0.8;"/>
   </g>
   <g id="patch_10">
    <path d="M 206.4 150.089143 
L 206.4 41.472 
" style="fill:none;stroke:#000000;stroke-linecap:square;stroke-linejoin:miter;stroke-width:0.8;"/>
   </g>
   <g id="patch_11">
    <path d="M 57.6 150.089143 
L 206.4 150.089143 
" style="fill:none;stroke:#000000;stroke-linecap:square;stroke-linejoin:miter;stroke-width:0.8;"/>
   </g>
   <g id="patch_12">
    <path d="M 57.6 41.472 
L 206.4 41.472 
" style="fill:none;stroke:#000000;stroke-linecap:square;stroke-linejoin:miter;stroke-width:0.8;"/>
   </g>
   <g id="text_22">
    <!-- Folded Light Curve -->
    <g transform="translate(83.086719 35.472)scale(0.1 -0.1)">
     <defs>
      <path d="M 20.515625 5.171875 
L 29 5.171875 
L 29 0 
L 2.875 0 
L 2.875 5.171875 
L 11.53125 5.171875 
L 11.53125 70.796875 
L 2.875 70.796875 
L 2.875 75.984375 
L 20.515625 75.984375 
z
" id="DejaVuSerif-108"/>
      <path d="M 5.515625 0 
L 5.515625 5.171875 
L 14.796875 5.171875 
L 14.796875 67.671875 
L 5.515625 67.671875 
L 5.515625 72.90625 
L 33.984375 72.90625 
L 33.984375 67.671875 
L 24.703125 67.671875 
L 24.703125 6 
L 58.015625 6 
L 58.015625 18.21875 
L 64.015625 18.21875 
L 64.015625 0 
z
" id="DejaVuSerif-76"/>
      <path d="M 10.796875 46.6875 
L 2.875 46.6875 
L 2.875 51.90625 
L 10.796875 51.90625 
L 10.796875 68.015625 
L 19.828125 68.015625 
L 19.828125 51.90625 
L 36.71875 51.90625 
L 36.71875 46.6875 
L 19.828125 46.6875 
L 19.828125 13.71875 
Q 19.828125 7.125 21.09375 5.265625 
Q 22.359375 3.421875 25.78125 3.421875 
Q 29.296875 3.421875 30.90625 5.484375 
Q 32.515625 7.5625 32.625 12.203125 
L 39.40625 12.203125 
Q 39.015625 5.125 35.546875 1.84375 
Q 32.078125 -1.421875 25 -1.421875 
Q 17.234375 -1.421875 14.015625 2.015625 
Q 10.796875 5.46875 10.796875 13.71875 
z
" id="DejaVuSerif-116"/>
      <path d="M 70.515625 19.28125 
Q 67.28125 9.078125 59.6875 3.828125 
Q 52.09375 -1.421875 40.484375 -1.421875 
Q 33.34375 -1.421875 27.234375 1.015625 
Q 21.140625 3.46875 16.40625 8.203125 
Q 10.9375 13.671875 8.265625 20.625 
Q 5.609375 27.59375 5.609375 36.375 
Q 5.609375 53.375 15.421875 63.796875 
Q 25.25 74.21875 41.3125 74.21875 
Q 47.265625 74.21875 54 72.65625 
Q 60.75 71.09375 68.5 67.921875 
L 68.5 51.125 
L 62.984375 51.125 
Q 61.1875 60.296875 55.734375 64.640625 
Q 50.296875 69 40.484375 69 
Q 28.8125 69 22.796875 60.71875 
Q 16.796875 52.4375 16.796875 36.375 
Q 16.796875 20.359375 22.796875 12.078125 
Q 28.8125 3.8125 40.484375 3.8125 
Q 48.640625 3.8125 53.90625 7.6875 
Q 59.1875 11.578125 61.53125 19.28125 
z
" id="DejaVuSerif-67"/>
      <path d="M 35.40625 51.90625 
L 52.203125 51.90625 
L 52.203125 5.171875 
L 60.6875 5.171875 
L 60.6875 0 
L 43.21875 0 
L 43.21875 9.1875 
Q 40.71875 4 36.765625 1.28125 
Q 32.8125 -1.421875 27.59375 -1.421875 
Q 18.953125 -1.421875 14.875 3.484375 
Q 10.796875 8.40625 10.796875 18.890625 
L 10.796875 46.6875 
L 2.6875 46.6875 
L 2.6875 51.90625 
L 19.828125 51.90625 
L 19.828125 21.6875 
Q 19.828125 12.203125 22.140625 8.6875 
Q 24.46875 5.171875 30.421875 5.171875 
Q 36.671875 5.171875 39.9375 9.765625 
Q 43.21875 14.359375 43.21875 23.09375 
L 43.21875 46.6875 
L 35.40625 46.6875 
z
" id="DejaVuSerif-117"/>
      <path d="M 24.703125 0 
L 5.609375 46.6875 
L -0.296875 46.6875 
L -0.296875 51.90625 
L 23.578125 51.90625 
L 23.578125 46.6875 
L 15.28125 46.6875 
L 29.890625 10.984375 
L 44.484375 46.6875 
L 36.71875 46.6875 
L 36.71875 51.90625 
L 56.203125 51.90625 
L 56.203125 46.6875 
L 50.390625 46.6875 
L 31.296875 0 
z
" id="DejaVuSerif-118"/>
     </defs>
     <use xlink:href="#DejaVuSerif-70"/>
     <use x="63.884766" xlink:href="#DejaVuSerif-111"/>
     <use x="124.089844" xlink:href="#DejaVuSerif-108"/>
     <use x="156.072266" xlink:href="#DejaVuSerif-100"/>
     <use x="220.085938" xlink:href="#DejaVuSerif-101"/>
     <use x="279.265625" xlink:href="#DejaVuSerif-100"/>
     <use x="343.279297" xlink:href="#DejaVuSerif-32"/>
     <use x="375.066406" xlink:href="#DejaVuSerif-76"/>
     <use x="441.472656" xlink:href="#DejaVuSerif-105"/>
     <use x="473.455078" xlink:href="#DejaVuSerif-103"/>
     <use x="537.46875" xlink:href="#DejaVuSerif-104"/>
     <use x="601.873047" xlink:href="#DejaVuSerif-116"/>
     <use x="642.058594" xlink:href="#DejaVuSerif-32"/>
     <use x="673.845703" xlink:href="#DejaVuSerif-67"/>
     <use x="750.359375" xlink:href="#DejaVuSerif-117"/>
     <use x="814.763672" xlink:href="#DejaVuSerif-114"/>
     <use x="862.566406" xlink:href="#DejaVuSerif-118"/>
     <use x="919.060547" xlink:href="#DejaVuSerif-101"/>
    </g>
   </g>
  </g>
  <g id="axes_3">
   <g id="patch_13">
    <path d="M 57.6 307.584 
L 414.72 307.584 
L 414.72 198.966857 
L 57.6 198.966857 
z
" style="fill:#ffffff;"/>
   </g>
   <g id="PathCollection_3">
    <g clip-path="url(#p0c1500765a)">
     <use style="fill:#1f77b4;stroke:#1f77b4;" x="73.832727" xlink:href="#m28cdc8fcf9" y="253.960637"/>
     <use style="fill:#1f77b4;stroke:#1f77b4;" x="73.833119" xlink:href="#m28cdc8fcf9" y="239.000585"/>
     <use style="fill:#1f77b4;stroke:#1f77b4;" x="94.910293" xlink:href="#m28cdc8fcf9" y="247.795803"/>
     <use style="fill:#1f77b4;stroke:#1f77b4;" x="94.910684" xlink:href="#m28cdc8fcf9" y="248.128974"/>
     <use style="fill:#1f77b4;stroke:#1f77b4;" x="96.675449" xlink:href="#m28cdc8fcf9" y="271.075728"/>
     <use style="fill:#1f77b4;stroke:#1f77b4;" x="99.185169" xlink:href="#m28cdc8fcf9" y="269.775372"/>
     <use style="fill:#1f77b4;stroke:#1f77b4;" x="99.18789" xlink:href="#m28cdc8fcf9" y="274.542359"/>
     <use style="fill:#1f77b4;stroke:#1f77b4;" x="121.144305" xlink:href="#m28cdc8fcf9" y="270.989984"/>
     <use style="fill:#1f77b4;stroke:#1f77b4;" x="121.988998" xlink:href="#m28cdc8fcf9" y="228.11018"/>
     <use style="fill:#1f77b4;stroke:#1f77b4;" x="121.98938" xlink:href="#m28cdc8fcf9" y="241.329103"/>
     <use style="fill:#1f77b4;stroke:#1f77b4;" x="123.69785" xlink:href="#m28cdc8fcf9" y="253.358642"/>
     <use style="fill:#1f77b4;stroke:#1f77b4;" x="123.698242" xlink:href="#m28cdc8fcf9" y="284.773828"/>
     <use style="fill:#1f77b4;stroke:#1f77b4;" x="125.362202" xlink:href="#m28cdc8fcf9" y="235.612855"/>
     <use style="fill:#1f77b4;stroke:#1f77b4;" x="125.362594" xlink:href="#m28cdc8fcf9" y="234.409375"/>
     <use style="fill:#1f77b4;stroke:#1f77b4;" x="126.199487" xlink:href="#m28cdc8fcf9" y="263.080191"/>
     <use style="fill:#1f77b4;stroke:#1f77b4;" x="126.199878" xlink:href="#m28cdc8fcf9" y="271.246655"/>
     <use style="fill:#1f77b4;stroke:#1f77b4;" x="127.090237" xlink:href="#m28cdc8fcf9" y="243.303002"/>
     <use style="fill:#1f77b4;stroke:#1f77b4;" x="127.090618" xlink:href="#m28cdc8fcf9" y="243.242129"/>
     <use style="fill:#1f77b4;stroke:#1f77b4;" x="127.899364" xlink:href="#m28cdc8fcf9" y="241.020292"/>
     <use style="fill:#1f77b4;stroke:#1f77b4;" x="127.899756" xlink:href="#m28cdc8fcf9" y="220.289501"/>
     <use style="fill:#1f77b4;stroke:#1f77b4;" x="128.744146" xlink:href="#m28cdc8fcf9" y="249.128333"/>
     <use style="fill:#1f77b4;stroke:#1f77b4;" x="128.744527" xlink:href="#m28cdc8fcf9" y="248.934988"/>
     <use style="fill:#1f77b4;stroke:#1f77b4;" x="136.360585" xlink:href="#m28cdc8fcf9" y="249.909987"/>
     <use style="fill:#1f77b4;stroke:#1f77b4;" x="142.231315" xlink:href="#m28cdc8fcf9" y="251.486012"/>
     <use style="fill:#1f77b4;stroke:#1f77b4;" x="143.073052" xlink:href="#m28cdc8fcf9" y="219.475214"/>
     <use style="fill:#1f77b4;stroke:#1f77b4;" x="143.918832" xlink:href="#m28cdc8fcf9" y="232.955608"/>
     <use style="fill:#1f77b4;stroke:#1f77b4;" x="144.76286" xlink:href="#m28cdc8fcf9" y="269.015575"/>
     <use style="fill:#1f77b4;stroke:#1f77b4;" x="145.612006" xlink:href="#m28cdc8fcf9" y="258.809947"/>
     <use style="fill:#1f77b4;stroke:#1f77b4;" x="155.771705" xlink:href="#m28cdc8fcf9" y="270.731884"/>
     <use style="fill:#1f77b4;stroke:#1f77b4;" x="163.21203" xlink:href="#m28cdc8fcf9" y="260.611949"/>
     <use style="fill:#1f77b4;stroke:#1f77b4;" x="164.180987" xlink:href="#m28cdc8fcf9" y="252.817061"/>
     <use style="fill:#1f77b4;stroke:#1f77b4;" x="165.042171" xlink:href="#m28cdc8fcf9" y="225.292732"/>
     <use style="fill:#1f77b4;stroke:#1f77b4;" x="170.943837" xlink:href="#m28cdc8fcf9" y="264.612399"/>
     <use style="fill:#1f77b4;stroke:#1f77b4;" x="173.496775" xlink:href="#m28cdc8fcf9" y="221.827531"/>
     <use style="fill:#1f77b4;stroke:#1f77b4;" x="207.146958" xlink:href="#m28cdc8fcf9" y="258.53479"/>
     <use style="fill:#1f77b4;stroke:#1f77b4;" x="210.529274" xlink:href="#m28cdc8fcf9" y="255.323808"/>
     <use style="fill:#1f77b4;stroke:#1f77b4;" x="218.978819" xlink:href="#m28cdc8fcf9" y="254.837279"/>
     <use style="fill:#1f77b4;stroke:#1f77b4;" x="346.082599" xlink:href="#m28cdc8fcf9" y="254.400388"/>
     <use style="fill:#1f77b4;stroke:#1f77b4;" x="379.139631" xlink:href="#m28cdc8fcf9" y="213.63967"/>
     <use style="fill:#1f77b4;stroke:#1f77b4;" x="396.853779" xlink:href="#m28cdc8fcf9" y="287.639025"/>
     <use style="fill:#1f77b4;stroke:#1f77b4;" x="396.854161" xlink:href="#m28cdc8fcf9" y="293.011889"/>
     <use style="fill:#1f77b4;stroke:#1f77b4;" x="397.677773" xlink:href="#m28cdc8fcf9" y="291.879088"/>
     <use style="fill:#1f77b4;stroke:#1f77b4;" x="397.678155" xlink:href="#m28cdc8fcf9" y="277.843937"/>
     <use style="fill:#1f77b4;stroke:#1f77b4;" x="398.486891" xlink:href="#m28cdc8fcf9" y="284.052077"/>
     <use style="fill:#1f77b4;stroke:#1f77b4;" x="398.487273" xlink:href="#m28cdc8fcf9" y="290.945913"/>
    </g>
   </g>
   <g id="matplotlib.axis_5">
    <g id="xtick_22">
     <g id="line2d_34">
      <g>
       <use style="stroke:#000000;stroke-width:0.8;" x="97.996351" xlink:href="#me552d3c333" y="307.584"/>
      </g>
     </g>
     <g id="text_23">
      <!-- 58300 -->
      <g transform="translate(82.090101 322.182437)scale(0.1 -0.1)">
       <defs>
        <path d="M 46.578125 19.921875 
Q 46.578125 27.734375 42.6875 32.046875 
Q 38.8125 36.375 31.78125 36.375 
Q 24.75 36.375 20.875 32.046875 
Q 17 27.734375 17 19.921875 
Q 17 12.0625 20.875 7.734375 
Q 24.75 3.421875 31.78125 3.421875 
Q 38.8125 3.421875 42.6875 7.734375 
Q 46.578125 12.0625 46.578125 19.921875 
z
M 44.578125 55.328125 
Q 44.578125 61.96875 41.203125 65.671875 
Q 37.84375 69.390625 31.78125 69.390625 
Q 25.78125 69.390625 22.390625 65.671875 
Q 19 61.96875 19 55.328125 
Q 19 48.640625 22.390625 44.921875 
Q 25.78125 41.21875 31.78125 41.21875 
Q 37.84375 41.21875 41.203125 44.921875 
Q 44.578125 48.640625 44.578125 55.328125 
z
M 39.3125 38.8125 
Q 47.609375 37.703125 52.25 32.6875 
Q 56.890625 27.6875 56.890625 19.921875 
Q 56.890625 9.671875 50.390625 4.125 
Q 43.890625 -1.421875 31.78125 -1.421875 
Q 19.734375 -1.421875 13.203125 4.125 
Q 6.6875 9.671875 6.6875 19.921875 
Q 6.6875 27.6875 11.328125 32.6875 
Q 15.96875 37.703125 24.3125 38.8125 
Q 16.9375 40.140625 13 44.40625 
Q 9.078125 48.6875 9.078125 55.328125 
Q 9.078125 64.109375 15.125 69.15625 
Q 21.1875 74.21875 31.78125 74.21875 
Q 42.390625 74.21875 48.4375 69.15625 
Q 54.5 64.109375 54.5 55.328125 
Q 54.5 48.6875 50.5625 44.40625 
Q 46.625 40.140625 39.3125 38.8125 
z
" id="DejaVuSerif-56"/>
       </defs>
       <use xlink:href="#DejaVuSerif-53"/>
       <use x="63.623047" xlink:href="#DejaVuSerif-56"/>
       <use x="127.246094" xlink:href="#DejaVuSerif-51"/>
       <use x="190.869141" xlink:href="#DejaVuSerif-48"/>
       <use x="254.492188" xlink:href="#DejaVuSerif-48"/>
      </g>
     </g>
    </g>
    <g id="xtick_23">
     <g id="line2d_35">
      <g>
       <use style="stroke:#000000;stroke-width:0.8;" x="140.27554" xlink:href="#me552d3c333" y="307.584"/>
      </g>
     </g>
     <g id="text_24">
      <!-- 58350 -->
      <g transform="translate(124.36929 322.182437)scale(0.1 -0.1)">
       <use xlink:href="#DejaVuSerif-53"/>
       <use x="63.623047" xlink:href="#DejaVuSerif-56"/>
       <use x="127.246094" xlink:href="#DejaVuSerif-51"/>
       <use x="190.869141" xlink:href="#DejaVuSerif-53"/>
       <use x="254.492188" xlink:href="#DejaVuSerif-48"/>
      </g>
     </g>
    </g>
    <g id="xtick_24">
     <g id="line2d_36">
      <g>
       <use style="stroke:#000000;stroke-width:0.8;" x="182.55473" xlink:href="#me552d3c333" y="307.584"/>
      </g>
     </g>
     <g id="text_25">
      <!-- 58400 -->
      <g transform="translate(166.64848 322.182437)scale(0.1 -0.1)">
       <use xlink:href="#DejaVuSerif-53"/>
       <use x="63.623047" xlink:href="#DejaVuSerif-56"/>
       <use x="127.246094" xlink:href="#DejaVuSerif-52"/>
       <use x="190.869141" xlink:href="#DejaVuSerif-48"/>
       <use x="254.492188" xlink:href="#DejaVuSerif-48"/>
      </g>
     </g>
    </g>
    <g id="xtick_25">
     <g id="line2d_37">
      <g>
       <use style="stroke:#000000;stroke-width:0.8;" x="224.833919" xlink:href="#me552d3c333" y="307.584"/>
      </g>
     </g>
     <g id="text_26">
      <!-- 58450 -->
      <g transform="translate(208.927669 322.182437)scale(0.1 -0.1)">
       <use xlink:href="#DejaVuSerif-53"/>
       <use x="63.623047" xlink:href="#DejaVuSerif-56"/>
       <use x="127.246094" xlink:href="#DejaVuSerif-52"/>
       <use x="190.869141" xlink:href="#DejaVuSerif-53"/>
       <use x="254.492188" xlink:href="#DejaVuSerif-48"/>
      </g>
     </g>
    </g>
    <g id="xtick_26">
     <g id="line2d_38">
      <g>
       <use style="stroke:#000000;stroke-width:0.8;" x="267.113108" xlink:href="#me552d3c333" y="307.584"/>
      </g>
     </g>
     <g id="text_27">
      <!-- 58500 -->
      <g transform="translate(251.206858 322.182437)scale(0.1 -0.1)">
       <use xlink:href="#DejaVuSerif-53"/>
       <use x="63.623047" xlink:href="#DejaVuSerif-56"/>
       <use x="127.246094" xlink:href="#DejaVuSerif-53"/>
       <use x="190.869141" xlink:href="#DejaVuSerif-48"/>
       <use x="254.492188" xlink:href="#DejaVuSerif-48"/>
      </g>
     </g>
    </g>
    <g id="xtick_27">
     <g id="line2d_39">
      <g>
       <use style="stroke:#000000;stroke-width:0.8;" x="309.392298" xlink:href="#me552d3c333" y="307.584"/>
      </g>
     </g>
     <g id="text_28">
      <!-- 58550 -->
      <g transform="translate(293.486048 322.182437)scale(0.1 -0.1)">
       <use xlink:href="#DejaVuSerif-53"/>
       <use x="63.623047" xlink:href="#DejaVuSerif-56"/>
       <use x="127.246094" xlink:href="#DejaVuSerif-53"/>
       <use x="190.869141" xlink:href="#DejaVuSerif-53"/>
       <use x="254.492188" xlink:href="#DejaVuSerif-48"/>
      </g>
     </g>
    </g>
    <g id="xtick_28">
     <g id="line2d_40">
      <g>
       <use style="stroke:#000000;stroke-width:0.8;" x="351.671487" xlink:href="#me552d3c333" y="307.584"/>
      </g>
     </g>
     <g id="text_29">
      <!-- 58600 -->
      <g transform="translate(335.765237 322.182437)scale(0.1 -0.1)">
       <defs>
        <path d="M 32.71875 3.421875 
Q 39.59375 3.421875 43.296875 8.46875 
Q 47.015625 13.53125 47.015625 23 
Q 47.015625 32.46875 43.296875 37.515625 
Q 39.59375 42.578125 32.71875 42.578125 
Q 25.734375 42.578125 22.0625 37.6875 
Q 18.40625 32.8125 18.40625 23.578125 
Q 18.40625 13.875 22.109375 8.640625 
Q 25.828125 3.421875 32.71875 3.421875 
z
M 16.796875 40.140625 
Q 20.125 43.796875 24.3125 45.59375 
Q 28.515625 47.40625 33.796875 47.40625 
Q 44.671875 47.40625 51 40.859375 
Q 57.328125 34.328125 57.328125 23 
Q 57.328125 11.921875 50.515625 5.25 
Q 43.703125 -1.421875 32.328125 -1.421875 
Q 19.96875 -1.421875 13.328125 7.78125 
Q 6.6875 17 6.6875 34.078125 
Q 6.6875 53.21875 14.546875 63.71875 
Q 22.40625 74.21875 36.71875 74.21875 
Q 40.578125 74.21875 44.828125 73.484375 
Q 49.078125 72.75 53.515625 71.296875 
L 53.515625 59.28125 
L 48 59.28125 
Q 47.40625 64.203125 44.234375 66.796875 
Q 41.0625 69.390625 35.6875 69.390625 
Q 26.21875 69.390625 21.578125 62.203125 
Q 16.9375 55.03125 16.796875 40.140625 
z
" id="DejaVuSerif-54"/>
       </defs>
       <use xlink:href="#DejaVuSerif-53"/>
       <use x="63.623047" xlink:href="#DejaVuSerif-56"/>
       <use x="127.246094" xlink:href="#DejaVuSerif-54"/>
       <use x="190.869141" xlink:href="#DejaVuSerif-48"/>
       <use x="254.492188" xlink:href="#DejaVuSerif-48"/>
      </g>
     </g>
    </g>
    <g id="xtick_29">
     <g id="line2d_41">
      <g>
       <use style="stroke:#000000;stroke-width:0.8;" x="393.950677" xlink:href="#me552d3c333" y="307.584"/>
      </g>
     </g>
     <g id="text_30">
      <!-- 58650 -->
      <g transform="translate(378.044427 322.182437)scale(0.1 -0.1)">
       <use xlink:href="#DejaVuSerif-53"/>
       <use x="63.623047" xlink:href="#DejaVuSerif-56"/>
       <use x="127.246094" xlink:href="#DejaVuSerif-54"/>
       <use x="190.869141" xlink:href="#DejaVuSerif-53"/>
       <use x="254.492188" xlink:href="#DejaVuSerif-48"/>
      </g>
     </g>
    </g>
    <g id="text_31">
     <!-- MJD -->
     <g transform="translate(225.027187 335.860562)scale(0.1 -0.1)">
      <defs>
       <path d="M -8.40625 -17.484375 
L -8.40625 -6 
L -2.828125 -6 
Q -2.6875 -10.84375 -0.53125 -13.203125 
Q 1.609375 -15.578125 5.90625 -15.578125 
Q 11.71875 -15.578125 14.015625 -11.90625 
Q 16.3125 -8.25 16.3125 2.390625 
L 16.3125 67.671875 
L 4.984375 67.671875 
L 4.984375 72.90625 
L 35.5 72.90625 
L 35.5 67.671875 
L 26.21875 67.671875 
L 26.21875 2 
Q 26.21875 -10.0625 21.375 -15.421875 
Q 16.546875 -20.796875 5.8125 -20.796875 
Q 2.34375 -20.796875 -1.234375 -19.96875 
Q -4.828125 -19.140625 -8.40625 -17.484375 
z
" id="DejaVuSerif-74"/>
       <path d="M 24.703125 5.171875 
L 33.796875 5.171875 
Q 48 5.171875 55.59375 13.28125 
Q 63.1875 21.390625 63.1875 36.53125 
Q 63.1875 51.65625 55.609375 59.65625 
Q 48.046875 67.671875 33.796875 67.671875 
L 24.703125 67.671875 
z
M 5.515625 0 
L 5.515625 5.171875 
L 14.796875 5.171875 
L 14.796875 67.671875 
L 5.515625 67.671875 
L 5.515625 72.90625 
L 34.515625 72.90625 
Q 53.375 72.90625 63.890625 63.28125 
Q 74.421875 53.65625 74.421875 36.53125 
Q 74.421875 19.34375 63.875 9.671875 
Q 53.328125 0 34.515625 0 
z
" id="DejaVuSerif-68"/>
      </defs>
      <use xlink:href="#DejaVuSerif-77"/>
      <use x="102.392578" xlink:href="#DejaVuSerif-74"/>
      <use x="142.480469" xlink:href="#DejaVuSerif-68"/>
     </g>
    </g>
   </g>
   <g id="matplotlib.axis_6">
    <g id="ytick_8">
     <g id="line2d_42">
      <g>
       <use style="stroke:#000000;stroke-width:0.8;" x="57.6" xlink:href="#m1d5a9142a7" y="211.702642"/>
      </g>
     </g>
     <g id="text_32">
      <!-- 13.30 -->
      <g transform="translate(21.971875 215.501861)scale(0.1 -0.1)">
       <use xlink:href="#DejaVuSerif-49"/>
       <use x="63.623047" xlink:href="#DejaVuSerif-51"/>
       <use x="127.246094" xlink:href="#DejaVuSerif-46"/>
       <use x="159.033203" xlink:href="#DejaVuSerif-51"/>
       <use x="222.65625" xlink:href="#DejaVuSerif-48"/>
      </g>
     </g>
    </g>
    <g id="ytick_9">
     <g id="line2d_43">
      <g>
       <use style="stroke:#000000;stroke-width:0.8;" x="57.6" xlink:href="#m1d5a9142a7" y="237.236884"/>
      </g>
     </g>
     <g id="text_33">
      <!-- 13.35 -->
      <g transform="translate(21.971875 241.036102)scale(0.1 -0.1)">
       <use xlink:href="#DejaVuSerif-49"/>
       <use x="63.623047" xlink:href="#DejaVuSerif-51"/>
       <use x="127.246094" xlink:href="#DejaVuSerif-46"/>
       <use x="159.033203" xlink:href="#DejaVuSerif-51"/>
       <use x="222.65625" xlink:href="#DejaVuSerif-53"/>
      </g>
     </g>
    </g>
    <g id="ytick_10">
     <g id="line2d_44">
      <g>
       <use style="stroke:#000000;stroke-width:0.8;" x="57.6" xlink:href="#m1d5a9142a7" y="262.771125"/>
      </g>
     </g>
     <g id="text_34">
      <!-- 13.40 -->
      <g transform="translate(21.971875 266.570344)scale(0.1 -0.1)">
       <use xlink:href="#DejaVuSerif-49"/>
       <use x="63.623047" xlink:href="#DejaVuSerif-51"/>
       <use x="127.246094" xlink:href="#DejaVuSerif-46"/>
       <use x="159.033203" xlink:href="#DejaVuSerif-52"/>
       <use x="222.65625" xlink:href="#DejaVuSerif-48"/>
      </g>
     </g>
    </g>
    <g id="ytick_11">
     <g id="line2d_45">
      <g>
       <use style="stroke:#000000;stroke-width:0.8;" x="57.6" xlink:href="#m1d5a9142a7" y="288.305366"/>
      </g>
     </g>
     <g id="text_35">
      <!-- 13.45 -->
      <g transform="translate(21.971875 292.104585)scale(0.1 -0.1)">
       <use xlink:href="#DejaVuSerif-49"/>
       <use x="63.623047" xlink:href="#DejaVuSerif-51"/>
       <use x="127.246094" xlink:href="#DejaVuSerif-46"/>
       <use x="159.033203" xlink:href="#DejaVuSerif-52"/>
       <use x="222.65625" xlink:href="#DejaVuSerif-53"/>
      </g>
     </g>
    </g>
    <g id="text_36">
     <!-- Mag -->
     <g transform="translate(15.75 264.576991)rotate(-90)scale(0.1 -0.1)">
      <use xlink:href="#DejaVuSerif-77"/>
      <use x="102.392578" xlink:href="#DejaVuSerif-97"/>
      <use x="162.011719" xlink:href="#DejaVuSerif-103"/>
     </g>
    </g>
   </g>
   <g id="LineCollection_5">
    <path clip-path="url(#p0c1500765a)" d="M 73.832727 244.276472 
L 73.832727 263.644802 
" style="fill:none;stroke:#1f77b4;stroke-width:0.5;"/>
    <path clip-path="url(#p0c1500765a)" d="M 73.833119 229.297391 
L 73.833119 248.703779 
" style="fill:none;stroke:#1f77b4;stroke-width:0.5;"/>
    <path clip-path="url(#p0c1500765a)" d="M 94.910293 238.103809 
L 94.910293 257.487797 
" style="fill:none;stroke:#1f77b4;stroke-width:0.5;"/>
    <path clip-path="url(#p0c1500765a)" d="M 94.910684 238.437403 
L 94.910684 257.820545 
" style="fill:none;stroke:#1f77b4;stroke-width:0.5;"/>
    <path clip-path="url(#p0c1500765a)" d="M 96.675449 261.41321 
L 96.675449 280.738247 
" style="fill:none;stroke:#1f77b4;stroke-width:0.5;"/>
    <path clip-path="url(#p0c1500765a)" d="M 99.185169 260.111214 
L 99.185169 279.439529 
" style="fill:none;stroke:#1f77b4;stroke-width:0.5;"/>
    <path clip-path="url(#p0c1500765a)" d="M 99.18789 264.88421 
L 99.18789 284.200508 
" style="fill:none;stroke:#1f77b4;stroke-width:0.5;"/>
    <path clip-path="url(#p0c1500765a)" d="M 121.144305 261.327358 
L 121.144305 280.652611 
" style="fill:none;stroke:#1f77b4;stroke-width:0.5;"/>
    <path clip-path="url(#p0c1500765a)" d="M 121.988998 218.393074 
L 121.988998 237.827285 
" style="fill:none;stroke:#1f77b4;stroke-width:0.5;"/>
    <path clip-path="url(#p0c1500765a)" d="M 121.98938 231.628878 
L 121.98938 251.029329 
" style="fill:none;stroke:#1f77b4;stroke-width:0.5;"/>
    <path clip-path="url(#p0c1500765a)" d="M 123.69785 243.673713 
L 123.69785 263.04357 
" style="fill:none;stroke:#1f77b4;stroke-width:0.5;"/>
    <path clip-path="url(#p0c1500765a)" d="M 123.698242 275.12854 
L 123.698242 294.419115 
" style="fill:none;stroke:#1f77b4;stroke-width:0.5;"/>
    <path clip-path="url(#p0c1500765a)" d="M 125.362202 225.905338 
L 125.362202 245.320371 
" style="fill:none;stroke:#1f77b4;stroke-width:0.5;"/>
    <path clip-path="url(#p0c1500765a)" d="M 125.362594 224.700321 
L 125.362594 244.118428 
" style="fill:none;stroke:#1f77b4;stroke-width:0.5;"/>
    <path clip-path="url(#p0c1500765a)" d="M 126.199487 253.407576 
L 126.199487 272.752806 
" style="fill:none;stroke:#1f77b4;stroke-width:0.5;"/>
    <path clip-path="url(#p0c1500765a)" d="M 126.199878 261.584352 
L 126.199878 280.908957 
" style="fill:none;stroke:#1f77b4;stroke-width:0.5;"/>
    <path clip-path="url(#p0c1500765a)" d="M 127.090237 233.60529 
L 127.090237 253.000714 
" style="fill:none;stroke:#1f77b4;stroke-width:0.5;"/>
    <path clip-path="url(#p0c1500765a)" d="M 127.090618 233.54434 
L 127.090618 252.939917 
" style="fill:none;stroke:#1f77b4;stroke-width:0.5;"/>
    <path clip-path="url(#p0c1500765a)" d="M 127.899364 231.319672 
L 127.899364 250.720912 
" style="fill:none;stroke:#1f77b4;stroke-width:0.5;"/>
    <path clip-path="url(#p0c1500765a)" d="M 127.899756 210.562373 
L 127.899756 230.016629 
" style="fill:none;stroke:#1f77b4;stroke-width:0.5;"/>
    <path clip-path="url(#p0c1500765a)" d="M 128.744146 239.438032 
L 128.744146 258.818634 
" style="fill:none;stroke:#1f77b4;stroke-width:0.5;"/>
    <path clip-path="url(#p0c1500765a)" d="M 128.744527 239.24444 
L 128.744527 258.625535 
" style="fill:none;stroke:#1f77b4;stroke-width:0.5;"/>
    <path clip-path="url(#p0c1500765a)" d="M 136.360585 240.220679 
L 136.360585 259.599295 
" style="fill:none;stroke:#1f77b4;stroke-width:0.5;"/>
    <path clip-path="url(#p0c1500765a)" d="M 142.231315 241.798705 
L 142.231315 261.173318 
" style="fill:none;stroke:#1f77b4;stroke-width:0.5;"/>
    <path clip-path="url(#p0c1500765a)" d="M 143.073052 209.747041 
L 143.073052 229.203387 
" style="fill:none;stroke:#1f77b4;stroke-width:0.5;"/>
    <path clip-path="url(#p0c1500765a)" d="M 143.918832 223.244698 
L 143.918832 242.666519 
" style="fill:none;stroke:#1f77b4;stroke-width:0.5;"/>
    <path clip-path="url(#p0c1500765a)" d="M 144.76286 259.350458 
L 144.76286 278.680691 
" style="fill:none;stroke:#1f77b4;stroke-width:0.5;"/>
    <path clip-path="url(#p0c1500765a)" d="M 145.612006 249.131928 
L 145.612006 268.487966 
" style="fill:none;stroke:#1f77b4;stroke-width:0.5;"/>
    <path clip-path="url(#p0c1500765a)" d="M 155.771705 261.068933 
L 155.771705 280.394836 
" style="fill:none;stroke:#1f77b4;stroke-width:0.5;"/>
    <path clip-path="url(#p0c1500765a)" d="M 163.21203 250.936213 
L 163.21203 270.287686 
" style="fill:none;stroke:#1f77b4;stroke-width:0.5;"/>
    <path clip-path="url(#p0c1500765a)" d="M 164.180987 243.131444 
L 164.180987 262.502677 
" style="fill:none;stroke:#1f77b4;stroke-width:0.5;"/>
    <path clip-path="url(#p0c1500765a)" d="M 165.042171 215.572018 
L 165.042171 235.013445 
" style="fill:none;stroke:#1f77b4;stroke-width:0.5;"/>
    <path clip-path="url(#p0c1500765a)" d="M 170.943837 254.941722 
L 170.943837 274.283076 
" style="fill:none;stroke:#1f77b4;stroke-width:0.5;"/>
    <path clip-path="url(#p0c1500765a)" d="M 173.496775 212.102375 
L 173.496775 231.552687 
" style="fill:none;stroke:#1f77b4;stroke-width:0.5;"/>
    <path clip-path="url(#p0c1500765a)" d="M 207.146958 248.856423 
L 207.146958 268.213157 
" style="fill:none;stroke:#1f77b4;stroke-width:0.5;"/>
    <path clip-path="url(#p0c1500765a)" d="M 210.529274 245.641372 
L 210.529274 265.006245 
" style="fill:none;stroke:#1f77b4;stroke-width:0.5;"/>
    <path clip-path="url(#p0c1500765a)" d="M 218.978819 245.154225 
L 218.978819 264.520332 
" style="fill:none;stroke:#1f77b4;stroke-width:0.5;"/>
    <path clip-path="url(#p0c1500765a)" d="M 346.082599 244.716779 
L 346.082599 264.083996 
" style="fill:none;stroke:#1f77b4;stroke-width:0.5;"/>
    <path clip-path="url(#p0c1500765a)" d="M 379.139631 203.904 
L 379.139631 223.37534 
" style="fill:none;stroke:#1f77b4;stroke-width:0.5;"/>
    <path clip-path="url(#p0c1500765a)" d="M 396.853779 277.997329 
L 396.853779 297.28072 
" style="fill:none;stroke:#1f77b4;stroke-width:0.5;"/>
    <path clip-path="url(#p0c1500765a)" d="M 396.854161 283.37692 
L 396.854161 302.646857 
" style="fill:none;stroke:#1f77b4;stroke-width:0.5;"/>
    <path clip-path="url(#p0c1500765a)" d="M 397.677773 282.242702 
L 397.677773 301.515473 
" style="fill:none;stroke:#1f77b4;stroke-width:0.5;"/>
    <path clip-path="url(#p0c1500765a)" d="M 397.678155 268.189942 
L 397.678155 287.497931 
" style="fill:none;stroke:#1f77b4;stroke-width:0.5;"/>
    <path clip-path="url(#p0c1500765a)" d="M 398.486891 274.405882 
L 398.486891 293.698271 
" style="fill:none;stroke:#1f77b4;stroke-width:0.5;"/>
    <path clip-path="url(#p0c1500765a)" d="M 398.487273 281.30836 
L 398.487273 300.583466 
" style="fill:none;stroke:#1f77b4;stroke-width:0.5;"/>
   </g>
   <g id="line2d_46">
    <path clip-path="url(#p0c1500765a)" d="M 73.832727 253.960637 
L 73.833119 239.000585 
L 94.910293 247.795803 
L 94.910684 248.128974 
L 96.675449 271.075728 
L 99.185169 269.775372 
L 99.18789 274.542359 
L 121.144305 270.989984 
L 121.988998 228.11018 
L 121.98938 241.329103 
L 123.69785 253.358642 
L 123.698242 284.773828 
L 125.362202 235.612855 
L 125.362594 234.409375 
L 126.199487 263.080191 
L 126.199878 271.246655 
L 127.090237 243.303002 
L 127.090618 243.242129 
L 127.899364 241.020292 
L 127.899756 220.289501 
L 128.744146 249.128333 
L 128.744527 248.934988 
L 136.360585 249.909987 
L 142.231315 251.486012 
L 143.073052 219.475214 
L 143.918832 232.955608 
L 144.76286 269.015575 
L 145.612006 258.809947 
L 155.771705 270.731884 
L 163.21203 260.611949 
L 164.180987 252.817061 
L 165.042171 225.292732 
L 170.943837 264.612399 
L 173.496775 221.827531 
L 207.146958 258.53479 
L 210.529274 255.323808 
L 218.978819 254.837279 
L 346.082599 254.400388 
L 379.139631 213.63967 
L 396.853779 287.639025 
L 396.854161 293.011889 
L 397.677773 291.879088 
L 397.678155 277.843937 
L 398.486891 284.052077 
L 398.487273 290.945913 
" style="fill:none;"/>
   </g>
   <g id="patch_14">
    <path d="M 57.6 307.584 
L 57.6 198.966857 
" style="fill:none;stroke:#000000;stroke-linecap:square;stroke-linejoin:miter;stroke-width:0.8;"/>
   </g>
   <g id="patch_15">
    <path d="M 414.72 307.584 
L 414.72 198.966857 
" style="fill:none;stroke:#000000;stroke-linecap:square;stroke-linejoin:miter;stroke-width:0.8;"/>
   </g>
   <g id="patch_16">
    <path d="M 57.6 307.584 
L 414.72 307.584 
" style="fill:none;stroke:#000000;stroke-linecap:square;stroke-linejoin:miter;stroke-width:0.8;"/>
   </g>
   <g id="patch_17">
    <path d="M 57.6 198.966857 
L 414.72 198.966857 
" style="fill:none;stroke:#000000;stroke-linecap:square;stroke-linejoin:miter;stroke-width:0.8;"/>
   </g>
   <g id="text_37">
    <!-- Light Curve -->
    <g transform="translate(206.000625 192.966857)scale(0.1 -0.1)">
     <use xlink:href="#DejaVuSerif-76"/>
     <use x="66.40625" xlink:href="#DejaVuSerif-105"/>
     <use x="98.388672" xlink:href="#DejaVuSerif-103"/>
     <use x="162.402344" xlink:href="#DejaVuSerif-104"/>
     <use x="226.806641" xlink:href="#DejaVuSerif-116"/>
     <use x="266.992188" xlink:href="#DejaVuSerif-32"/>
     <use x="298.779297" xlink:href="#DejaVuSerif-67"/>
     <use x="375.292969" xlink:href="#DejaVuSerif-117"/>
     <use x="439.697266" xlink:href="#DejaVuSerif-114"/>
     <use x="487.5" xlink:href="#DejaVuSerif-118"/>
     <use x="543.994141" xlink:href="#DejaVuSerif-101"/>
    </g>
   </g>
  </g>
 </g>
 <defs>
  <clipPath id="p246508e499">
   <rect height="108.617143" width="148.8" x="265.92" y="41.472"/>
  </clipPath>
  <clipPath id="p699c7848c8">
   <rect height="108.617143" width="148.8" x="57.6" y="41.472"/>
  </clipPath>
  <clipPath id="p0c1500765a">
   <rect height="108.617143" width="357.12" x="57.6" y="198.966857"/>
  </clipPath>
 </defs>
</svg>
