<?xml version="1.0" encoding="utf-8" standalone="no"?>
<!DOCTYPE svg PUBLIC "-//W3C//DTD SVG 1.1//EN"
  "http://www.w3.org/Graphics/SVG/1.1/DTD/svg11.dtd">
<!-- Created with matplotlib (https://matplotlib.org/) -->
<svg height="345.6pt" version="1.1" viewBox="0 0 460.8 345.6" width="460.8pt" xmlns="http://www.w3.org/2000/svg" xmlns:xlink="http://www.w3.org/1999/xlink">
 <metadata>
  <rdf:RDF xmlns:cc="http://creativecommons.org/ns#" xmlns:dc="http://purl.org/dc/elements/1.1/" xmlns:rdf="http://www.w3.org/1999/02/22-rdf-syntax-ns#">
   <cc:Work>
    <dc:type rdf:resource="http://purl.org/dc/dcmitype/StillImage"/>
    <dc:date>2021-02-24T00:23:27.862253</dc:date>
    <dc:format>image/svg+xml</dc:format>
    <dc:creator>
     <cc:Agent>
      <dc:title>Matplotlib v3.3.3, https://matplotlib.org/</dc:title>
     </cc:Agent>
    </dc:creator>
   </cc:Work>
  </rdf:RDF>
 </metadata>
 <defs>
  <style type="text/css">*{stroke-linecap:butt;stroke-linejoin:round;}</style>
 </defs>
 <g id="figure_1">
  <g id="patch_1">
   <path d="M 0 345.6 
L 460.8 345.6 
L 460.8 0 
L 0 0 
z
" style="fill:#ffffff;"/>
  </g>
  <g id="axes_1">
   <g id="patch_2">
    <path d="M 265.92 150.089143 
L 414.72 150.089143 
L 414.72 41.472 
L 265.92 41.472 
z
" style="fill:#ffffff;"/>
   </g>
   <g id="matplotlib.axis_1">
    <g id="xtick_1">
     <g id="line2d_1">
      <defs>
       <path d="M 0 0 
L 0 3.5 
" id="m8f3f214a2d" style="stroke:#000000;stroke-width:0.8;"/>
      </defs>
      <g>
       <use style="stroke:#000000;stroke-width:0.8;" x="326.985138" xlink:href="#m8f3f214a2d" y="150.089143"/>
      </g>
     </g>
     <g id="text_1">
      <!-- $\mathdefault{10^{1}}$ -->
      <g transform="translate(318.185138 164.68758)scale(0.1 -0.1)">
       <defs>
        <path d="M 14.203125 0 
L 14.203125 5.171875 
L 26.90625 5.171875 
L 26.90625 65.828125 
L 12.203125 56.296875 
L 12.203125 62.703125 
L 29.984375 74.21875 
L 36.71875 74.21875 
L 36.71875 5.171875 
L 49.421875 5.171875 
L 49.421875 0 
z
" id="DejaVuSerif-49"/>
        <path d="M 31.78125 3.421875 
Q 39.265625 3.421875 42.96875 11.625 
Q 46.6875 19.828125 46.6875 36.375 
Q 46.6875 52.984375 42.96875 61.1875 
Q 39.265625 69.390625 31.78125 69.390625 
Q 24.3125 69.390625 20.59375 61.1875 
Q 16.890625 52.984375 16.890625 36.375 
Q 16.890625 19.828125 20.59375 11.625 
Q 24.3125 3.421875 31.78125 3.421875 
z
M 31.78125 -1.421875 
Q 19.921875 -1.421875 13.25 8.53125 
Q 6.59375 18.5 6.59375 36.375 
Q 6.59375 54.296875 13.25 64.25 
Q 19.921875 74.21875 31.78125 74.21875 
Q 43.703125 74.21875 50.34375 64.25 
Q 56.984375 54.296875 56.984375 36.375 
Q 56.984375 18.5 50.34375 8.53125 
Q 43.703125 -1.421875 31.78125 -1.421875 
z
" id="DejaVuSerif-48"/>
       </defs>
       <use transform="translate(0 0.7125)" xlink:href="#DejaVuSerif-49"/>
       <use transform="translate(63.623047 0.7125)" xlink:href="#DejaVuSerif-48"/>
       <use transform="translate(128.154453 37.046875)scale(0.7)" xlink:href="#DejaVuSerif-49"/>
      </g>
     </g>
    </g>
    <g id="xtick_2">
     <g id="line2d_2">
      <g>
       <use style="stroke:#000000;stroke-width:0.8;" x="400.12039" xlink:href="#m8f3f214a2d" y="150.089143"/>
      </g>
     </g>
     <g id="text_2">
      <!-- $\mathdefault{10^{2}}$ -->
      <g transform="translate(391.32039 164.68758)scale(0.1 -0.1)">
       <defs>
        <path d="M 12.796875 55.515625 
L 7.328125 55.515625 
L 7.328125 68.5 
Q 12.546875 71.296875 17.84375 72.75 
Q 23.140625 74.21875 28.21875 74.21875 
Q 39.59375 74.21875 46.1875 68.703125 
Q 52.78125 63.1875 52.78125 53.71875 
Q 52.78125 43.015625 37.84375 28.125 
Q 36.671875 27 36.078125 26.421875 
L 17.671875 8.015625 
L 48.09375 8.015625 
L 48.09375 17 
L 53.8125 17 
L 53.8125 0 
L 6.78125 0 
L 6.78125 5.328125 
L 28.90625 27.390625 
Q 36.234375 34.71875 39.359375 40.84375 
Q 42.484375 46.96875 42.484375 53.71875 
Q 42.484375 61.078125 38.640625 65.234375 
Q 34.8125 69.390625 28.078125 69.390625 
Q 21.09375 69.390625 17.28125 65.921875 
Q 13.484375 62.453125 12.796875 55.515625 
z
" id="DejaVuSerif-50"/>
       </defs>
       <use transform="translate(0 0.7125)" xlink:href="#DejaVuSerif-49"/>
       <use transform="translate(63.623047 0.7125)" xlink:href="#DejaVuSerif-48"/>
       <use transform="translate(128.154453 37.046875)scale(0.7)" xlink:href="#DejaVuSerif-50"/>
      </g>
     </g>
    </g>
    <g id="xtick_3">
     <g id="line2d_3">
      <defs>
       <path d="M 0 0 
L 0 2 
" id="m55040f89c3" style="stroke:#000000;stroke-width:0.6;"/>
      </defs>
      <g>
       <use style="stroke:#000000;stroke-width:0.6;" x="275.86579" xlink:href="#m55040f89c3" y="150.089143"/>
      </g>
     </g>
    </g>
    <g id="xtick_4">
     <g id="line2d_4">
      <g>
       <use style="stroke:#000000;stroke-width:0.6;" x="288.744269" xlink:href="#m55040f89c3" y="150.089143"/>
      </g>
     </g>
    </g>
    <g id="xtick_5">
     <g id="line2d_5">
      <g>
       <use style="stroke:#000000;stroke-width:0.6;" x="297.881695" xlink:href="#m55040f89c3" y="150.089143"/>
      </g>
     </g>
    </g>
    <g id="xtick_6">
     <g id="line2d_6">
      <g>
       <use style="stroke:#000000;stroke-width:0.6;" x="304.969233" xlink:href="#m55040f89c3" y="150.089143"/>
      </g>
     </g>
    </g>
    <g id="xtick_7">
     <g id="line2d_7">
      <g>
       <use style="stroke:#000000;stroke-width:0.6;" x="310.760174" xlink:href="#m55040f89c3" y="150.089143"/>
      </g>
     </g>
    </g>
    <g id="xtick_8">
     <g id="line2d_8">
      <g>
       <use style="stroke:#000000;stroke-width:0.6;" x="315.656344" xlink:href="#m55040f89c3" y="150.089143"/>
      </g>
     </g>
    </g>
    <g id="xtick_9">
     <g id="line2d_9">
      <g>
       <use style="stroke:#000000;stroke-width:0.6;" x="319.8976" xlink:href="#m55040f89c3" y="150.089143"/>
      </g>
     </g>
    </g>
    <g id="xtick_10">
     <g id="line2d_10">
      <g>
       <use style="stroke:#000000;stroke-width:0.6;" x="323.638652" xlink:href="#m55040f89c3" y="150.089143"/>
      </g>
     </g>
    </g>
    <g id="xtick_11">
     <g id="line2d_11">
      <g>
       <use style="stroke:#000000;stroke-width:0.6;" x="349.001043" xlink:href="#m55040f89c3" y="150.089143"/>
      </g>
     </g>
    </g>
    <g id="xtick_12">
     <g id="line2d_12">
      <g>
       <use style="stroke:#000000;stroke-width:0.6;" x="361.879521" xlink:href="#m55040f89c3" y="150.089143"/>
      </g>
     </g>
    </g>
    <g id="xtick_13">
     <g id="line2d_13">
      <g>
       <use style="stroke:#000000;stroke-width:0.6;" x="371.016947" xlink:href="#m55040f89c3" y="150.089143"/>
      </g>
     </g>
    </g>
    <g id="xtick_14">
     <g id="line2d_14">
      <g>
       <use style="stroke:#000000;stroke-width:0.6;" x="378.104486" xlink:href="#m55040f89c3" y="150.089143"/>
      </g>
     </g>
    </g>
    <g id="xtick_15">
     <g id="line2d_15">
      <g>
       <use style="stroke:#000000;stroke-width:0.6;" x="383.895426" xlink:href="#m55040f89c3" y="150.089143"/>
      </g>
     </g>
    </g>
    <g id="xtick_16">
     <g id="line2d_16">
      <g>
       <use style="stroke:#000000;stroke-width:0.6;" x="388.791597" xlink:href="#m55040f89c3" y="150.089143"/>
      </g>
     </g>
    </g>
    <g id="xtick_17">
     <g id="line2d_17">
      <g>
       <use style="stroke:#000000;stroke-width:0.6;" x="393.032852" xlink:href="#m55040f89c3" y="150.089143"/>
      </g>
     </g>
    </g>
    <g id="xtick_18">
     <g id="line2d_18">
      <g>
       <use style="stroke:#000000;stroke-width:0.6;" x="396.773905" xlink:href="#m55040f89c3" y="150.089143"/>
      </g>
     </g>
    </g>
    <g id="text_3">
     <!-- Period d -->
     <g transform="translate(319.231719 178.365705)scale(0.1 -0.1)">
      <defs>
       <path d="M 24.703125 37.109375 
L 37.59375 37.109375 
Q 44.875 37.109375 48.671875 41.03125 
Q 52.484375 44.96875 52.484375 52.390625 
Q 52.484375 59.859375 48.671875 63.765625 
Q 44.875 67.671875 37.59375 67.671875 
L 24.703125 67.671875 
z
M 5.515625 0 
L 5.515625 5.171875 
L 14.796875 5.171875 
L 14.796875 67.671875 
L 5.515625 67.671875 
L 5.515625 72.90625 
L 39.984375 72.90625 
Q 50.921875 72.90625 57.3125 67.359375 
Q 63.71875 61.8125 63.71875 52.390625 
Q 63.71875 43.015625 57.3125 37.453125 
Q 50.921875 31.890625 39.984375 31.890625 
L 24.703125 31.890625 
L 24.703125 5.171875 
L 35.984375 5.171875 
L 35.984375 0 
z
" id="DejaVuSerif-80"/>
       <path d="M 54.203125 25 
L 15.484375 25 
L 15.484375 24.609375 
Q 15.484375 14.109375 19.4375 8.765625 
Q 23.390625 3.421875 31.109375 3.421875 
Q 37.015625 3.421875 40.796875 6.515625 
Q 44.578125 9.625 46.09375 15.71875 
L 53.328125 15.71875 
Q 51.171875 7.171875 45.375 2.875 
Q 39.59375 -1.421875 30.171875 -1.421875 
Q 18.796875 -1.421875 11.890625 6.078125 
Q 4.984375 13.578125 4.984375 25.984375 
Q 4.984375 38.28125 11.765625 45.796875 
Q 18.5625 53.328125 29.59375 53.328125 
Q 41.359375 53.328125 47.65625 46.0625 
Q 53.953125 38.8125 54.203125 25 
z
M 43.609375 30.171875 
Q 43.3125 39.265625 39.765625 43.875 
Q 36.234375 48.484375 29.59375 48.484375 
Q 23.390625 48.484375 19.828125 43.84375 
Q 16.265625 39.203125 15.484375 30.171875 
z
" id="DejaVuSerif-101"/>
       <path d="M 47.796875 52 
L 47.796875 39.015625 
L 42.625 39.015625 
Q 42.390625 42.875 40.484375 44.78125 
Q 38.578125 46.6875 34.90625 46.6875 
Q 28.265625 46.6875 24.71875 42.09375 
Q 21.1875 37.5 21.1875 28.90625 
L 21.1875 5.171875 
L 31.59375 5.171875 
L 31.59375 0 
L 4.109375 0 
L 4.109375 5.171875 
L 12.203125 5.171875 
L 12.203125 46.78125 
L 3.609375 46.78125 
L 3.609375 51.90625 
L 21.1875 51.90625 
L 21.1875 42.671875 
Q 23.828125 48.09375 27.96875 50.703125 
Q 32.125 53.328125 38.09375 53.328125 
Q 40.28125 53.328125 42.703125 52.984375 
Q 45.125 52.640625 47.796875 52 
z
" id="DejaVuSerif-114"/>
       <path d="M 9.71875 68.015625 
Q 9.71875 70.265625 11.34375 71.921875 
Q 12.984375 73.578125 15.28125 73.578125 
Q 17.53125 73.578125 19.15625 71.921875 
Q 20.796875 70.265625 20.796875 68.015625 
Q 20.796875 65.71875 19.1875 64.109375 
Q 17.578125 62.5 15.28125 62.5 
Q 12.984375 62.5 11.34375 64.109375 
Q 9.71875 65.71875 9.71875 68.015625 
z
M 21.1875 5.171875 
L 29.6875 5.171875 
L 29.6875 0 
L 3.609375 0 
L 3.609375 5.171875 
L 12.203125 5.171875 
L 12.203125 46.6875 
L 3.609375 46.6875 
L 3.609375 51.90625 
L 21.1875 51.90625 
z
" id="DejaVuSerif-105"/>
       <path d="M 30.078125 3.421875 
Q 37.3125 3.421875 40.984375 9.125 
Q 44.671875 14.84375 44.671875 25.984375 
Q 44.671875 37.109375 40.984375 42.796875 
Q 37.3125 48.484375 30.078125 48.484375 
Q 22.859375 48.484375 19.171875 42.796875 
Q 15.484375 37.109375 15.484375 25.984375 
Q 15.484375 14.84375 19.1875 9.125 
Q 22.90625 3.421875 30.078125 3.421875 
z
M 30.078125 -1.421875 
Q 18.75 -1.421875 11.859375 6.078125 
Q 4.984375 13.578125 4.984375 25.984375 
Q 4.984375 38.375 11.84375 45.84375 
Q 18.703125 53.328125 30.078125 53.328125 
Q 41.453125 53.328125 48.3125 45.84375 
Q 55.171875 38.375 55.171875 25.984375 
Q 55.171875 13.578125 48.3125 6.078125 
Q 41.453125 -1.421875 30.078125 -1.421875 
z
" id="DejaVuSerif-111"/>
       <path d="M 52.484375 5.171875 
L 61.078125 5.171875 
L 61.078125 0 
L 43.5 0 
L 43.5 8.109375 
Q 40.875 3.21875 36.796875 0.890625 
Q 32.71875 -1.421875 26.703125 -1.421875 
Q 17.140625 -1.421875 11.0625 6.171875 
Q 4.984375 13.765625 4.984375 25.984375 
Q 4.984375 38.1875 11.03125 45.75 
Q 17.09375 53.328125 26.703125 53.328125 
Q 32.71875 53.328125 36.796875 51 
Q 40.875 48.6875 43.5 43.796875 
L 43.5 70.796875 
L 35.015625 70.796875 
L 35.015625 75.984375 
L 52.484375 75.984375 
z
M 43.5 23.390625 
L 43.5 28.515625 
Q 43.5 37.84375 39.90625 42.765625 
Q 36.328125 47.703125 29.5 47.703125 
Q 22.5625 47.703125 19.015625 42.234375 
Q 15.484375 36.765625 15.484375 25.984375 
Q 15.484375 15.234375 19.015625 9.71875 
Q 22.5625 4.203125 29.5 4.203125 
Q 36.328125 4.203125 39.90625 9.109375 
Q 43.5 14.015625 43.5 23.390625 
z
" id="DejaVuSerif-100"/>
       <path id="DejaVuSerif-32"/>
      </defs>
      <use xlink:href="#DejaVuSerif-80"/>
      <use x="62.785156" xlink:href="#DejaVuSerif-101"/>
      <use x="121.964844" xlink:href="#DejaVuSerif-114"/>
      <use x="169.767578" xlink:href="#DejaVuSerif-105"/>
      <use x="201.75" xlink:href="#DejaVuSerif-111"/>
      <use x="261.955078" xlink:href="#DejaVuSerif-100"/>
      <use x="325.96875" xlink:href="#DejaVuSerif-32"/>
      <use x="357.755859" xlink:href="#DejaVuSerif-100"/>
     </g>
    </g>
   </g>
   <g id="matplotlib.axis_2">
    <g id="ytick_1">
     <g id="line2d_19">
      <defs>
       <path d="M 0 0 
L -3.5 0 
" id="m446a278892" style="stroke:#000000;stroke-width:0.8;"/>
      </defs>
      <g>
       <use style="stroke:#000000;stroke-width:0.8;" x="265.92" xlink:href="#m446a278892" y="145.171535"/>
      </g>
     </g>
     <g id="text_4">
      <!-- 0.0 -->
      <g transform="translate(243.016875 148.970754)scale(0.1 -0.1)">
       <defs>
        <path d="M 9.421875 5.078125 
Q 9.421875 7.8125 11.28125 9.71875 
Q 13.140625 11.625 15.921875 11.625 
Q 18.609375 11.625 20.5 9.71875 
Q 22.40625 7.8125 22.40625 5.078125 
Q 22.40625 2.390625 20.5 0.484375 
Q 18.609375 -1.421875 15.921875 -1.421875 
Q 13.140625 -1.421875 11.28125 0.453125 
Q 9.421875 2.34375 9.421875 5.078125 
z
" id="DejaVuSerif-46"/>
       </defs>
       <use xlink:href="#DejaVuSerif-48"/>
       <use x="63.623047" xlink:href="#DejaVuSerif-46"/>
       <use x="95.410156" xlink:href="#DejaVuSerif-48"/>
      </g>
     </g>
    </g>
    <g id="ytick_2">
     <g id="line2d_20">
      <g>
       <use style="stroke:#000000;stroke-width:0.8;" x="265.92" xlink:href="#m446a278892" y="104.305484"/>
      </g>
     </g>
     <g id="text_5">
      <!-- 0.2 -->
      <g transform="translate(243.016875 108.104703)scale(0.1 -0.1)">
       <use xlink:href="#DejaVuSerif-48"/>
       <use x="63.623047" xlink:href="#DejaVuSerif-46"/>
       <use x="95.410156" xlink:href="#DejaVuSerif-50"/>
      </g>
     </g>
    </g>
    <g id="ytick_3">
     <g id="line2d_21">
      <g>
       <use style="stroke:#000000;stroke-width:0.8;" x="265.92" xlink:href="#m446a278892" y="63.439433"/>
      </g>
     </g>
     <g id="text_6">
      <!-- 0.4 -->
      <g transform="translate(243.016875 67.238652)scale(0.1 -0.1)">
       <defs>
        <path d="M 34.90625 24.703125 
L 34.90625 63.484375 
L 10.015625 24.703125 
z
M 56.390625 0 
L 23.1875 0 
L 23.1875 5.171875 
L 34.90625 5.171875 
L 34.90625 19.484375 
L 3.078125 19.484375 
L 3.078125 24.8125 
L 35.015625 74.21875 
L 44.671875 74.21875 
L 44.671875 24.703125 
L 58.59375 24.703125 
L 58.59375 19.484375 
L 44.671875 19.484375 
L 44.671875 5.171875 
L 56.390625 5.171875 
z
" id="DejaVuSerif-52"/>
       </defs>
       <use xlink:href="#DejaVuSerif-48"/>
       <use x="63.623047" xlink:href="#DejaVuSerif-46"/>
       <use x="95.410156" xlink:href="#DejaVuSerif-52"/>
      </g>
     </g>
    </g>
    <g id="text_7">
     <!-- Power -->
     <g transform="translate(236.937188 111.583696)rotate(-90)scale(0.1 -0.1)">
      <defs>
       <path d="M 48 51.90625 
L 61.28125 11.375 
L 73 46.6875 
L 65.484375 46.6875 
L 65.484375 51.90625 
L 84.28125 51.90625 
L 84.28125 46.6875 
L 78.515625 46.6875 
L 63.09375 0 
L 55.609375 0 
L 42.828125 38.8125 
L 29.984375 0 
L 22.796875 0 
L 7.421875 46.6875 
L 1.609375 46.6875 
L 1.609375 51.90625 
L 25.09375 51.90625 
L 25.09375 46.6875 
L 16.703125 46.6875 
L 28.328125 11.375 
L 41.703125 51.90625 
z
" id="DejaVuSerif-119"/>
      </defs>
      <use xlink:href="#DejaVuSerif-80"/>
      <use x="63.285156" xlink:href="#DejaVuSerif-111"/>
      <use x="123.490234" xlink:href="#DejaVuSerif-119"/>
      <use x="209.085938" xlink:href="#DejaVuSerif-101"/>
      <use x="268.265625" xlink:href="#DejaVuSerif-114"/>
     </g>
    </g>
   </g>
   <g id="LineCollection_1">
    <path clip-path="url(#p75a7583df1)" d="M 272.695273 49.896304 
L 407.956364 49.896304 
" style="fill:none;stroke:#808080;stroke-dasharray:5.55,2.4;stroke-dashoffset:0;stroke-width:1.5;"/>
   </g>
   <g id="LineCollection_2">
    <path clip-path="url(#p75a7583df1)" d="M 272.695273 63.338795 
L 407.956364 63.338795 
" style="fill:none;stroke:#a9a9a9;stroke-dasharray:5.55,2.4;stroke-dashoffset:0;stroke-width:1.5;"/>
   </g>
   <g id="LineCollection_3">
    <path clip-path="url(#p75a7583df1)" d="M 272.695273 73.923445 
L 407.956364 73.923445 
" style="fill:none;stroke:#c0c0c0;stroke-dasharray:5.55,2.4;stroke-dashoffset:0;stroke-width:1.5;"/>
   </g>
   <g id="LineCollection_4">
    <path clip-path="url(#p75a7583df1)" d="M 272.695273 78.923363 
L 407.956364 78.923363 
" style="fill:none;stroke:#d3d3d3;stroke-dasharray:5.55,2.4;stroke-dashoffset:0;stroke-width:1.5;"/>
   </g>
   <g id="line2d_22">
    <path clip-path="url(#p75a7583df1)" d="M 407.956364 136.778411 
L 405.906476 139.538097 
L 403.980902 140.677821 
L 402.165423 142.888187 
L 400.448127 138.020191 
L 398.818938 132.235761 
L 395.791673 116.057076 
L 394.379786 119.181419 
L 393.027997 136.187691 
L 391.731399 143.647893 
L 390.485662 133.635618 
L 389.286945 120.205549 
L 388.131827 114.934186 
L 387.017248 124.591295 
L 385.940459 143.693721 
L 384.898981 141.645353 
L 383.890571 135.573917 
L 382.913194 131.409311 
L 381.964998 134.754945 
L 381.044289 144.473131 
L 380.149518 137.191568 
L 379.279266 127.564115 
L 378.432223 124.114347 
L 377.607183 122.962522 
L 376.803033 129.043058 
L 376.01874 139.380126 
L 375.253348 144.006919 
L 374.505967 140.983682 
L 373.775768 136.299349 
L 373.06198 121.828051 
L 372.363881 110.48562 
L 371.680796 112.376268 
L 370.357178 142.872729 
L 369.715495 143.338468 
L 369.086519 127.164108 
L 368.469757 115.07218 
L 367.864744 121.360632 
L 367.27104 138.767877 
L 366.68823 144.146409 
L 366.115922 130.003067 
L 365.553744 112.713225 
L 365.001343 103.967292 
L 364.458386 110.315159 
L 363.924554 133.474867 
L 363.399547 136.009756 
L 362.374869 103.803039 
L 361.874666 103.70214 
L 361.382219 119.024567 
L 360.89729 138.631626 
L 360.419653 144.97895 
L 359.949093 142.406737 
L 359.485402 138.860531 
L 359.028384 130.7554 
L 358.577848 125.666587 
L 358.133614 132.037049 
L 357.695507 132.700127 
L 357.263361 133.679364 
L 356.837016 138.23354 
L 356.416318 138.430239 
L 356.001119 139.368657 
L 355.591278 142.847706 
L 355.186658 142.085114 
L 354.787128 134.030186 
L 354.392561 116.696824 
L 354.002836 109.896376 
L 353.617834 118.189261 
L 353.237443 136.587385 
L 352.861555 144.845133 
L 352.490062 137.194042 
L 352.122865 126.032037 
L 351.759864 125.150685 
L 351.046076 144.829219 
L 350.347976 128.267304 
L 350.004597 127.673768 
L 349.664891 133.610798 
L 349.32878 142.334816 
L 348.996188 138.350707 
L 348.667042 118.80817 
L 348.341273 113.145355 
L 347.383545 139.9749 
L 347.070614 142.653819 
L 346.760736 141.879407 
L 346.453852 140.135616 
L 346.149905 136.188704 
L 345.848839 127.437396 
L 345.5506 126.09875 
L 345.255135 132.04005 
L 344.962394 135.46477 
L 344.672325 137.002146 
L 344.384882 137.171428 
L 344.100017 137.956503 
L 343.817685 141.893307 
L 343.537839 143.934079 
L 342.985439 101.785485 
L 342.7128 97.32496 
L 342.442481 110.31803 
L 342.174444 131.341807 
L 341.908649 137.469048 
L 341.383642 102.537759 
L 341.124357 104.804087 
L 340.867171 117.933483 
L 340.612052 138.000847 
L 340.358965 138.723442 
L 340.107879 118.648536 
L 339.858762 109.004087 
L 339.611584 115.470824 
L 339.122924 143.910033 
L 338.881385 136.842778 
L 338.641669 118.509038 
L 338.403748 112.478661 
L 338.167597 118.340627 
L 337.469498 144.75702 
L 337.240166 141.308244 
L 336.786412 114.972408 
L 336.561943 112.069037 
L 336.33905 121.990077 
L 336.117709 137.96612 
L 335.8979 144.919664 
L 335.462794 123.716589 
L 335.247456 121.729621 
L 334.821111 144.343451 
L 334.610066 140.605286 
L 334.400413 131.159929 
L 334.192135 127.470076 
L 333.985215 131.253314 
L 333.779633 141.799885 
L 333.575374 144.048242 
L 333.170754 129.932687 
L 332.97036 131.864961 
L 332.573327 143.432304 
L 332.376656 142.366578 
L 332.181196 138.818521 
L 331.986931 137.466483 
L 331.793847 137.389932 
L 331.601929 133.126209 
L 331.411165 132.58304 
L 331.033038 142.694109 
L 330.84565 141.8459 
L 330.474157 122.036809 
L 330.290028 126.029327 
L 329.924941 143.810027 
L 329.38506 132.002313 
L 329.030171 143.056072 
L 328.679203 136.005054 
L 328.505163 136.930729 
L 328.332072 142.168806 
L 328.159918 143.830526 
L 327.818385 129.717618 
L 327.648986 133.347888 
L 327.312875 144.243609 
L 326.980283 113.572193 
L 326.815284 111.286504 
L 326.325368 143.730035 
L 326.002906 123.560265 
L 325.842895 121.682825 
L 325.52527 138.676656 
L 325.36764 138.213627 
L 325.21079 138.990485 
L 325.054709 140.705221 
L 324.899393 139.519305 
L 324.591019 127.63426 
L 324.437948 130.453851 
L 324.134 143.663747 
L 323.983111 140.141061 
L 323.683465 127.026766 
L 323.386619 143.733769 
L 323.23923 143.490207 
L 322.946489 127.220228 
L 322.801124 130.200271 
L 322.512374 143.00392 
L 322.368978 141.850344 
L 322.226226 139.761518 
L 322.084113 139.598903 
L 321.942633 138.965855 
L 321.661549 127.042172 
L 321.244533 143.323127 
L 320.969534 125.188693 
L 320.832922 127.825568 
L 320.561448 144.593197 
L 320.158539 118.067247 
L 319.760677 144.531813 
L 319.367737 122.239149 
L 318.979599 145.017363 
L 318.851267 142.926216 
L 318.469351 131.401182 
L 318.34306 135.471201 
L 318.217269 143.154377 
L 318.091974 143.655823 
L 317.719027 103.778342 
L 317.472807 135.691258 
L 317.350409 134.134415 
L 317.107019 80.029494 
L 316.98602 82.800006 
L 316.625764 136.495425 
L 316.387844 94.974149 
L 316.269548 100.609402 
L 316.034272 142.021932 
L 315.917283 139.106686 
L 315.684592 109.484221 
L 315.568882 116.30457 
L 315.33872 142.752015 
L 315.224262 143.663817 
L 314.88334 118.036701 
L 314.770508 123.463569 
L 314.546039 144.393985 
L 314.434396 137.991201 
L 314.212282 109.844407 
L 313.881996 144.353048 
L 313.555109 112.66135 
L 313.339038 143.004786 
L 313.231552 140.063255 
L 313.017664 115.665365 
L 312.911257 121.054443 
L 312.699508 144.24905 
L 312.489162 127.070728 
L 312.384508 129.809565 
L 312.176231 145.135438 
L 312.072602 137.29437 
L 311.866353 109.836036 
L 311.559469 142.953767 
L 311.45783 141.62196 
L 311.154849 109.657133 
L 310.854731 142.903517 
L 310.755319 132.597069 
L 310.557423 99.710698 
L 310.360752 136.573408 
L 310.262871 133.237716 
L 309.971026 61.219442 
L 309.777942 118.155723 
L 309.681838 115.784176 
L 309.490499 59.849746 
L 309.39526 67.86682 
L 309.111244 134.740868 
L 308.923301 112.094719 
L 308.829745 118.346904 
L 308.643456 141.739221 
L 308.274123 108.596898 
L 308.091055 129.907484 
L 307.999915 120.340168 
L 307.728054 46.409143 
L 307.4585 114.855463 
L 307.28006 64.443993 
L 307.191215 72.572943 
L 306.92616 128.755306 
L 306.750678 78.478041 
L 306.663299 84.233284 
L 306.489258 133.101414 
L 306.402595 131.209967 
L 306.229973 101.899227 
L 306.144013 103.077425 
L 305.88752 142.95608 
L 305.633082 125.571375 
L 305.380665 144.310788 
L 305.213495 123.68808 
L 305.130239 124.249466 
L 304.964378 144.408783 
L 304.799379 100.879097 
L 304.7172 84.113818 
L 304.471931 136.94684 
L 304.390593 117.779036 
L 304.228541 82.301331 
L 303.987002 139.495784 
L 303.906895 130.398122 
L 303.747285 109.499716 
L 303.509365 141.687995 
L 303.351736 120.891785 
L 303.273213 121.83973 
L 303.116749 142.00191 
L 303.038805 141.928966 
L 302.806113 115.038327 
L 302.575114 141.550833 
L 302.345783 99.572832 
L 302.19381 136.928928 
L 302.118096 134.633847 
L 301.892029 80.318409 
L 301.742207 121.706204 
L 301.66756 114.837257 
L 301.444666 63.607402 
L 301.223326 119.578174 
L 301.076618 97.895548 
L 301.003517 99.147084 
L 300.785219 142.501824 
L 300.568411 123.732223 
L 300.353073 142.793852 
L 300.139185 96.161834 
L 300.068208 103.402536 
L 299.926728 137.230918 
L 299.715682 94.782194 
L 299.645644 103.233217 
L 299.50603 144.954632 
L 299.367026 131.318118 
L 299.297752 132.816579 
L 299.159655 143.760866 
L 298.953629 112.358415 
L 298.748931 142.354112 
L 298.68099 136.222414 
L 298.545543 128.031437 
L 298.478036 128.942184 
L 298.27637 144.738258 
L 298.209432 143.710625 
L 298.075977 134.869925 
L 297.94308 142.499124 
L 297.810738 126.821919 
L 297.744772 119.546177 
L 297.678944 123.590903 
L 297.547695 142.197122 
L 297.351832 108.496598 
L 297.157171 144.722673 
L 297.092547 139.719307 
L 297.028056 132.24831 
L 296.963694 133.708909 
L 296.835362 143.028788 
L 296.64383 115.419995 
L 296.453447 141.157097 
L 296.264197 129.175054 
L 296.201364 128.61754 
L 296.138655 128.93065 
L 296.013606 144.435462 
L 295.951266 141.931007 
L 295.826952 125.56367 
L 295.764977 128.36579 
L 295.641389 144.930003 
L 295.456903 117.925796 
L 295.334505 136.487275 
L 295.273482 132.234615 
L 295.151788 101.991337 
L 295.091115 103.691067 
L 294.909788 138.945989 
L 294.789477 131.395444 
L 294.550212 144.337473 
L 294.490676 142.816738 
L 294.431252 141.74843 
L 294.312736 137.037621 
L 294.194661 144.496812 
L 294.135787 141.994377 
L 294.018367 123.057289 
L 293.959819 125.481327 
L 293.843046 144.309745 
L 293.78482 141.289288 
L 293.668687 126.257919 
L 293.61078 129.866578 
L 293.495281 143.158491 
L 293.437688 142.399657 
L 293.3802 141.103249 
L 293.265535 144.375319 
L 293.151282 135.690489 
L 293.094309 132.330847 
L 292.924002 144.859638 
L 292.810969 137.509908 
L 292.754603 139.969665 
L 292.698337 143.693471 
L 292.64217 141.808295 
L 292.530134 136.817947 
L 292.418492 145.043098 
L 292.362817 141.362019 
L 292.25176 129.519255 
L 292.196377 130.516777 
L 292.0859 144.58696 
L 292.030805 141.760073 
L 291.975805 139.507181 
L 291.920901 140.798516 
L 291.866091 143.174651 
L 291.811376 141.889921 
L 291.702227 134.851498 
L 291.593452 144.144851 
L 291.539204 144.072869 
L 291.430985 134.122061 
L 291.377013 137.907707 
L 291.323133 143.602163 
L 291.269345 142.647708 
L 291.16204 129.55204 
L 291.108523 130.78317 
L 291.001759 142.078368 
L 290.948511 137.486193 
L 290.842283 129.839991 
L 290.578256 145.068924 
L 290.473257 131.466764 
L 290.420887 124.631098 
L 290.368604 126.364959 
L 290.212268 144.863138 
L 290.160326 140.428366 
L 290.108469 136.789407 
L 290.056697 138.06735 
L 289.953405 143.93843 
L 289.850448 138.195153 
L 289.799094 139.877072 
L 289.696636 144.985988 
L 289.594506 140.933897 
L 289.543564 142.478375 
L 289.492704 144.005711 
L 289.441925 142.780774 
L 289.34061 136.867777 
L 289.239617 144.894231 
L 289.189241 143.915933 
L 289.088727 135.123671 
L 289.03859 135.792607 
L 288.988531 140.361516 
L 288.938551 139.190858 
L 288.88865 134.737374 
L 288.838826 136.001903 
L 288.739414 144.277397 
L 288.590876 116.04823 
L 288.541518 120.749736 
L 288.393901 142.966236 
L 288.295869 137.177145 
L 288.198139 143.501507 
L 288.149386 141.775997 
L 288.100709 140.81145 
L 288.003576 144.895245 
L 287.955121 144.056608 
L 287.858433 137.523001 
L 287.810198 140.738154 
L 287.762037 144.795818 
L 287.713949 143.665035 
L 287.617991 131.784179 
L 287.57012 132.786228 
L 287.474594 144.868429 
L 287.426939 142.564616 
L 287.331842 135.642608 
L 287.284401 137.237442 
L 287.048249 144.354216 
L 286.907396 125.056831 
L 286.860584 130.702142 
L 286.767166 142.622967 
L 286.720559 140.150883 
L 286.674021 137.115526 
L 286.627551 138.04505 
L 286.534815 144.42886 
L 286.488548 141.890735 
L 286.442348 137.937013 
L 286.396216 138.045864 
L 286.258219 144.913648 
L 286.029548 139.107054 
L 285.893131 144.838906 
L 285.802512 133.338276 
L 285.757298 135.320994 
L 285.667065 145.063604 
L 285.622044 140.878533 
L 285.532193 127.06742 
L 285.487363 132.912843 
L 285.397892 141.767729 
L 285.308672 131.190287 
L 285.264156 133.196577 
L 285.17531 144.490986 
L 285.13098 142.752741 
L 285.086713 138.962091 
L 285.042506 139.304271 
L 284.954278 145.152 
L 284.910255 143.149442 
L 284.822393 138.32651 
L 284.734773 143.01125 
L 284.691053 142.166913 
L 284.560255 144.303319 
L 284.429992 136.01974 
L 284.343447 144.438324 
L 284.300262 143.77221 
L 284.214069 136.117287 
L 284.17106 140.040278 
L 284.128109 143.93764 
L 284.085216 143.491234 
L 283.999603 131.758627 
L 283.956883 134.611451 
L 283.871615 142.282088 
L 283.829067 140.5942 
L 283.786576 137.51388 
L 283.744141 138.818333 
L 283.659442 144.727974 
L 283.617177 142.199798 
L 283.532815 137.69277 
L 283.448677 144.439555 
L 283.406691 142.223767 
L 283.322885 134.849775 
L 283.281065 137.432796 
L 283.155935 145.136246 
L 283.114334 144.446321 
L 282.989858 132.236212 
L 282.948474 135.263547 
L 282.865867 142.101829 
L 282.824644 137.150394 
L 282.742358 125.981138 
L 282.701295 130.875435 
L 282.660285 133.534531 
L 282.619328 132.430988 
L 282.537572 122.528551 
L 282.496773 126.645869 
L 282.415331 134.673628 
L 282.374689 133.016804 
L 282.293559 127.806872 
L 282.172252 144.306223 
L 282.131919 141.47154 
L 282.091637 138.527246 
L 282.051406 139.152656 
L 281.931018 144.814224 
L 281.89099 144.197743 
L 281.771208 135.549243 
L 281.731381 139.38152 
L 281.691603 143.267529 
L 281.651876 142.021891 
L 281.53299 121.648557 
L 281.49346 129.509849 
L 281.45398 133.726151 
L 281.414548 131.642632 
L 281.335831 120.695123 
L 281.296546 122.912919 
L 281.21812 136.486129 
L 281.17898 135.716157 
L 281.100844 131.963436 
L 280.984 144.131141 
L 280.945147 141.013448 
L 280.906341 138.844565 
L 280.867583 140.995414 
L 280.790209 144.598049 
L 280.751592 144.204381 
L 280.636023 142.378007 
L 280.559209 138.944766 
L 280.444337 145.081911 
L 280.406138 143.841268 
L 280.367985 143.197357 
L 280.291817 145.047451 
L 279.988957 118.148438 
L 279.951301 119.898752 
L 279.801125 132.167174 
L 279.763691 132.686271 
L 279.651655 144.61427 
L 279.614397 141.833969 
L 279.577183 138.221747 
L 279.540013 138.945271 
L 279.428761 144.788104 
L 279.391764 143.367462 
L 279.28103 132.837209 
L 279.244204 135.224798 
L 279.133982 140.106446 
L 279.097326 139.307464 
L 279.060713 139.697711 
L 278.987612 144.60501 
L 278.951125 142.018863 
L 278.660725 99.252424 
L 278.588538 132.890739 
L 278.516515 130.694373 
L 278.480565 131.381398 
L 278.372957 144.085791 
L 278.265712 143.693805 
L 278.12328 145.128302 
L 278.052303 139.844082 
L 277.981484 130.73298 
L 277.946134 134.933528 
L 277.910823 135.097058 
L 277.805125 132.420989 
L 277.699778 143.939488 
L 277.664739 142.978086 
L 277.455317 124.660434 
L 277.420547 115.78005 
L 277.385815 124.721562 
L 277.281847 137.729086 
L 277.247267 137.373501 
L 277.212724 137.120059 
L 277.006251 145.069084 
L 276.903516 144.871815 
L 276.801112 138.899766 
L 276.665086 125.316381 
L 276.59729 129.21377 
L 276.529639 140.29272 
L 276.462131 137.474843 
L 276.361138 144.926176 
L 276.327545 142.307603 
L 276.260466 136.557342 
L 276.226979 137.84963 
L 276.160111 143.637839 
L 276.093383 141.661847 
L 275.993554 144.580549 
L 275.894038 144.492767 
L 275.761833 141.60539 
L 275.695936 145.018371 
L 275.630176 144.130204 
L 275.564551 145.002179 
L 275.433708 135.10009 
L 275.401081 137.994594 
L 275.368488 141.920249 
L 275.303401 136.766332 
L 275.270908 136.870828 
L 275.173627 144.86657 
L 275.141266 141.785257 
L 275.076643 135.032463 
L 275.04438 139.404622 
L 275.012151 140.374811 
L 274.979954 138.117328 
L 274.915658 132.571871 
L 274.883559 134.442136 
L 274.723547 144.14795 
L 274.691641 143.899124 
L 274.659767 143.931363 
L 274.596116 145.066897 
L 274.532591 144.52491 
L 274.469193 144.894969 
L 274.405922 134.859473 
L 274.311251 120.419302 
L 274.279756 128.662072 
L 274.248293 131.683425 
L 274.21686 123.254265 
L 274.154089 130.760694 
L 274.028918 144.931241 
L 273.935362 142.932558 
L 273.873144 138.087992 
L 273.811048 139.743561 
L 273.625484 142.411166 
L 273.594662 142.372277 
L 273.502374 145.103893 
L 273.471671 143.825822 
L 273.440998 142.228257 
L 273.37974 144.444996 
L 273.349155 144.483542 
L 273.22711 117.104371 
L 273.196672 121.66837 
L 273.166263 126.835941 
L 273.135883 117.259176 
L 273.105532 112.934776 
L 273.044917 119.000443 
L 272.863763 145.066958 
L 272.773572 139.789297 
L 272.743565 141.132965 
L 272.683636 143.673651 
L 272.683636 143.673651 
" style="fill:none;stroke:#1f77b4;stroke-linecap:square;stroke-width:1.5;"/>
   </g>
   <g id="patch_3">
    <path d="M 265.92 150.089143 
L 265.92 41.472 
" style="fill:none;stroke:#000000;stroke-linecap:square;stroke-linejoin:miter;stroke-width:0.8;"/>
   </g>
   <g id="patch_4">
    <path d="M 414.72 150.089143 
L 414.72 41.472 
" style="fill:none;stroke:#000000;stroke-linecap:square;stroke-linejoin:miter;stroke-width:0.8;"/>
   </g>
   <g id="patch_5">
    <path d="M 265.92 150.089143 
L 414.72 150.089143 
" style="fill:none;stroke:#000000;stroke-linecap:square;stroke-linejoin:miter;stroke-width:0.8;"/>
   </g>
   <g id="patch_6">
    <path d="M 265.92 41.472 
L 414.72 41.472 
" style="fill:none;stroke:#000000;stroke-linecap:square;stroke-linejoin:miter;stroke-width:0.8;"/>
   </g>
   <g id="text_8">
    <!-- Periodogram -->
    <g transform="translate(307.698125 35.472)scale(0.1 -0.1)">
     <defs>
      <path d="M 52.484375 46.6875 
L 52.484375 1.125 
Q 52.484375 -10.0625 46.328125 -16.140625 
Q 40.1875 -22.21875 28.8125 -22.21875 
Q 23.6875 -22.21875 19 -21.28125 
Q 14.3125 -20.359375 10.015625 -18.5 
L 10.015625 -7.625 
L 14.703125 -7.625 
Q 15.578125 -12.703125 18.84375 -15.046875 
Q 22.125 -17.390625 28.21875 -17.390625 
Q 36.140625 -17.390625 39.8125 -12.921875 
Q 43.5 -8.453125 43.5 1.125 
L 43.5 8.109375 
Q 40.875 3.21875 36.796875 0.890625 
Q 32.71875 -1.421875 26.703125 -1.421875 
Q 17.140625 -1.421875 11.0625 6.171875 
Q 4.984375 13.765625 4.984375 25.984375 
Q 4.984375 38.1875 11.03125 45.75 
Q 17.09375 53.328125 26.703125 53.328125 
Q 32.71875 53.328125 36.796875 51 
Q 40.875 48.6875 43.5 43.796875 
L 43.5 51.90625 
L 61.078125 51.90625 
L 61.078125 46.6875 
z
M 43.5 28.515625 
Q 43.5 37.84375 39.90625 42.765625 
Q 36.328125 47.703125 29.5 47.703125 
Q 22.5625 47.703125 19.015625 42.234375 
Q 15.484375 36.765625 15.484375 25.984375 
Q 15.484375 15.234375 19.015625 9.71875 
Q 22.5625 4.203125 29.5 4.203125 
Q 36.328125 4.203125 39.90625 9.109375 
Q 43.5 14.015625 43.5 23.390625 
z
" id="DejaVuSerif-103"/>
      <path d="M 39.796875 16.3125 
L 39.796875 27.296875 
L 28.21875 27.296875 
Q 21.53125 27.296875 18.25 24.40625 
Q 14.984375 21.53125 14.984375 15.578125 
Q 14.984375 10.15625 18.296875 6.984375 
Q 21.625 3.8125 27.296875 3.8125 
Q 32.90625 3.8125 36.34375 7.28125 
Q 39.796875 10.75 39.796875 16.3125 
z
M 48.78125 32.421875 
L 48.78125 5.171875 
L 56.78125 5.171875 
L 56.78125 0 
L 39.796875 0 
L 39.796875 5.609375 
Q 36.8125 2 32.90625 0.28125 
Q 29 -1.421875 23.78125 -1.421875 
Q 15.140625 -1.421875 10.0625 3.171875 
Q 4.984375 7.765625 4.984375 15.578125 
Q 4.984375 23.640625 10.796875 28.078125 
Q 16.609375 32.515625 27.203125 32.515625 
L 39.796875 32.515625 
L 39.796875 36.078125 
Q 39.796875 42 36.203125 45.234375 
Q 32.625 48.484375 26.125 48.484375 
Q 20.75 48.484375 17.578125 46.046875 
Q 14.40625 43.609375 13.625 38.8125 
L 8.984375 38.8125 
L 8.984375 49.3125 
Q 13.671875 51.3125 18.09375 52.3125 
Q 22.515625 53.328125 26.703125 53.328125 
Q 37.5 53.328125 43.140625 47.96875 
Q 48.78125 42.625 48.78125 32.421875 
z
" id="DejaVuSerif-97"/>
      <path d="M 51.8125 41.796875 
Q 54.390625 47.515625 58.421875 50.421875 
Q 62.453125 53.328125 67.828125 53.328125 
Q 75.984375 53.328125 79.984375 48.265625 
Q 83.984375 43.21875 83.984375 33.015625 
L 83.984375 5.171875 
L 92.09375 5.171875 
L 92.09375 0 
L 67.1875 0 
L 67.1875 5.171875 
L 75 5.171875 
L 75 31.984375 
Q 75 39.9375 72.65625 43.3125 
Q 70.3125 46.6875 64.890625 46.6875 
Q 58.890625 46.6875 55.734375 42.140625 
Q 52.59375 37.59375 52.59375 28.90625 
L 52.59375 5.171875 
L 60.40625 5.171875 
L 60.40625 0 
L 35.796875 0 
L 35.796875 5.171875 
L 43.609375 5.171875 
L 43.609375 32.328125 
Q 43.609375 40.09375 41.265625 43.390625 
Q 38.921875 46.6875 33.5 46.6875 
Q 27.484375 46.6875 24.328125 42.140625 
Q 21.1875 37.59375 21.1875 28.90625 
L 21.1875 5.171875 
L 29 5.171875 
L 29 0 
L 4.109375 0 
L 4.109375 5.171875 
L 12.203125 5.171875 
L 12.203125 46.78125 
L 3.609375 46.78125 
L 3.609375 51.90625 
L 21.1875 51.90625 
L 21.1875 42.671875 
Q 23.6875 47.859375 27.53125 50.59375 
Q 31.390625 53.328125 36.28125 53.328125 
Q 42.328125 53.328125 46.375 50.3125 
Q 50.4375 47.3125 51.8125 41.796875 
z
" id="DejaVuSerif-109"/>
     </defs>
     <use xlink:href="#DejaVuSerif-80"/>
     <use x="62.785156" xlink:href="#DejaVuSerif-101"/>
     <use x="121.964844" xlink:href="#DejaVuSerif-114"/>
     <use x="169.767578" xlink:href="#DejaVuSerif-105"/>
     <use x="201.75" xlink:href="#DejaVuSerif-111"/>
     <use x="261.955078" xlink:href="#DejaVuSerif-100"/>
     <use x="325.96875" xlink:href="#DejaVuSerif-111"/>
     <use x="386.173828" xlink:href="#DejaVuSerif-103"/>
     <use x="450.1875" xlink:href="#DejaVuSerif-114"/>
     <use x="497.990234" xlink:href="#DejaVuSerif-97"/>
     <use x="557.609375" xlink:href="#DejaVuSerif-109"/>
    </g>
   </g>
   <g id="legend_1">
    <g id="patch_7">
     <path d="M 419.648125 108.123071 
L 454.431875 108.123071 
Q 455.231875 108.123071 455.231875 107.323071 
L 455.231875 84.238071 
Q 455.231875 83.438071 454.431875 83.438071 
L 419.648125 83.438071 
Q 418.848125 83.438071 418.848125 84.238071 
L 418.848125 107.323071 
Q 418.848125 108.123071 419.648125 108.123071 
z
" style="fill:#ffffff;opacity:0.8;stroke:#cccccc;stroke-linejoin:miter;"/>
    </g>
    <g id="line2d_23">
     <path d="M 420.448125 86.677446 
L 428.448125 86.677446 
" style="fill:none;stroke:#808080;stroke-dasharray:5.55,2.4;stroke-dashoffset:0;stroke-width:1.5;"/>
    </g>
    <g id="text_9">
     <!-- 99.9% FAP -->
     <g transform="translate(431.648125 88.077446)scale(0.04 -0.04)">
      <defs>
       <path d="M 46.78125 32.671875 
Q 43.5 29 39.25 27.1875 
Q 35.015625 25.390625 29.6875 25.390625 
Q 18.84375 25.390625 12.5625 31.9375 
Q 6.296875 38.484375 6.296875 49.8125 
Q 6.296875 60.890625 13.109375 67.546875 
Q 19.921875 74.21875 31.296875 74.21875 
Q 43.65625 74.21875 50.265625 65.015625 
Q 56.890625 55.8125 56.890625 38.71875 
Q 56.890625 19.578125 49.015625 9.078125 
Q 41.15625 -1.421875 26.90625 -1.421875 
Q 23.046875 -1.421875 18.796875 -0.6875 
Q 14.546875 0.046875 10.109375 1.515625 
L 10.109375 13.625 
L 15.578125 13.625 
Q 16.21875 8.6875 19.390625 6.046875 
Q 22.5625 3.421875 27.875 3.421875 
Q 37.359375 3.421875 41.984375 10.5625 
Q 46.625 17.71875 46.78125 32.671875 
z
M 30.90625 69.390625 
Q 23.96875 69.390625 20.28125 64.328125 
Q 16.609375 59.28125 16.609375 49.8125 
Q 16.609375 40.328125 20.28125 35.25 
Q 23.96875 30.171875 30.90625 30.171875 
Q 37.84375 30.171875 41.53125 35.078125 
Q 45.21875 39.984375 45.21875 49.21875 
Q 45.21875 58.9375 41.5 64.15625 
Q 37.796875 69.390625 30.90625 69.390625 
z
" id="DejaVuSerif-57"/>
       <path d="M 22.40625 69.671875 
Q 18.109375 69.671875 15.6875 65.625 
Q 13.28125 61.578125 13.28125 54.296875 
Q 13.28125 47.125 15.75 43.015625 
Q 18.21875 38.921875 22.40625 38.921875 
Q 26.5625 38.921875 28.96875 43 
Q 31.390625 47.078125 31.390625 54.296875 
Q 31.390625 61.53125 28.96875 65.59375 
Q 26.5625 69.671875 22.40625 69.671875 
z
M 72.703125 33.890625 
Q 68.453125 33.890625 66.03125 29.78125 
Q 63.625 25.6875 63.625 18.40625 
Q 63.625 11.234375 66.0625 7.15625 
Q 68.5 3.078125 72.703125 3.078125 
Q 76.90625 3.078125 79.296875 7.15625 
Q 81.6875 11.234375 81.6875 18.40625 
Q 81.6875 25.640625 79.265625 29.765625 
Q 76.859375 33.890625 72.703125 33.890625 
z
M 72.703125 38.28125 
Q 80.421875 38.28125 84.953125 32.90625 
Q 89.5 27.546875 89.5 18.40625 
Q 89.5 9.28125 84.9375 3.921875 
Q 80.375 -1.421875 72.703125 -1.421875 
Q 64.890625 -1.421875 60.34375 3.921875 
Q 55.8125 9.28125 55.8125 18.40625 
Q 55.8125 27.59375 60.375 32.9375 
Q 64.9375 38.28125 72.703125 38.28125 
z
M 66.609375 74.21875 
L 74.03125 74.21875 
L 28.421875 -1.421875 
L 21 -1.421875 
z
M 22.3125 74.21875 
Q 30.03125 74.21875 34.609375 68.875 
Q 39.203125 63.53125 39.203125 54.390625 
Q 39.203125 45.171875 34.640625 39.84375 
Q 30.078125 34.515625 22.3125 34.515625 
Q 14.546875 34.515625 10.03125 39.859375 
Q 5.515625 45.21875 5.515625 54.390625 
Q 5.515625 63.484375 10.046875 68.84375 
Q 14.59375 74.21875 22.3125 74.21875 
z
" id="DejaVuSerif-37"/>
       <path d="M 5.515625 0 
L 5.515625 5.171875 
L 14.796875 5.171875 
L 14.796875 67.671875 
L 5.515625 67.671875 
L 5.515625 72.90625 
L 65.1875 72.90625 
L 65.1875 56.6875 
L 59.1875 56.6875 
L 59.1875 66.890625 
L 24.703125 66.890625 
L 24.703125 42.484375 
L 49.609375 42.484375 
L 49.609375 51.609375 
L 55.609375 51.609375 
L 55.609375 27.390625 
L 49.609375 27.390625 
L 49.609375 36.53125 
L 24.703125 36.53125 
L 24.703125 5.171875 
L 36.375 5.171875 
L 36.375 0 
z
" id="DejaVuSerif-70"/>
       <path d="M 20.015625 26.421875 
L 46.78125 26.421875 
L 33.40625 61.078125 
z
M -0.59375 0 
L -0.59375 5.171875 
L 5.8125 5.171875 
L 31.78125 72.90625 
L 39.984375 72.90625 
L 66.015625 5.171875 
L 73.1875 5.171875 
L 73.1875 0 
L 46.6875 0 
L 46.6875 5.171875 
L 54.78125 5.171875 
L 48.6875 21.1875 
L 18.015625 21.1875 
L 11.921875 5.171875 
L 19.921875 5.171875 
L 19.921875 0 
z
" id="DejaVuSerif-65"/>
      </defs>
      <use xlink:href="#DejaVuSerif-57"/>
      <use x="63.623047" xlink:href="#DejaVuSerif-57"/>
      <use x="127.246094" xlink:href="#DejaVuSerif-46"/>
      <use x="159.033203" xlink:href="#DejaVuSerif-57"/>
      <use x="222.65625" xlink:href="#DejaVuSerif-37"/>
      <use x="317.675781" xlink:href="#DejaVuSerif-32"/>
      <use x="349.462891" xlink:href="#DejaVuSerif-70"/>
      <use x="410.097656" xlink:href="#DejaVuSerif-65"/>
      <use x="482.314453" xlink:href="#DejaVuSerif-80"/>
     </g>
    </g>
    <g id="line2d_24">
     <path d="M 420.448125 92.548696 
L 428.448125 92.548696 
" style="fill:none;stroke:#a9a9a9;stroke-dasharray:5.55,2.4;stroke-dashoffset:0;stroke-width:1.5;"/>
    </g>
    <g id="text_10">
     <!-- 99.0% FAP -->
     <g transform="translate(431.648125 93.948696)scale(0.04 -0.04)">
      <use xlink:href="#DejaVuSerif-57"/>
      <use x="63.623047" xlink:href="#DejaVuSerif-57"/>
      <use x="127.246094" xlink:href="#DejaVuSerif-46"/>
      <use x="159.033203" xlink:href="#DejaVuSerif-48"/>
      <use x="222.65625" xlink:href="#DejaVuSerif-37"/>
      <use x="317.675781" xlink:href="#DejaVuSerif-32"/>
      <use x="349.462891" xlink:href="#DejaVuSerif-70"/>
      <use x="410.097656" xlink:href="#DejaVuSerif-65"/>
      <use x="482.314453" xlink:href="#DejaVuSerif-80"/>
     </g>
    </g>
    <g id="line2d_25">
     <path d="M 420.448125 98.419946 
L 428.448125 98.419946 
" style="fill:none;stroke:#c0c0c0;stroke-dasharray:5.55,2.4;stroke-dashoffset:0;stroke-width:1.5;"/>
    </g>
    <g id="text_11">
     <!-- 95.0% FAP -->
     <g transform="translate(431.648125 99.819946)scale(0.04 -0.04)">
      <defs>
       <path d="M 50.296875 72.90625 
L 50.296875 64.890625 
L 16.890625 64.890625 
L 16.890625 44 
Q 19.4375 45.75 22.828125 46.625 
Q 26.21875 47.515625 30.421875 47.515625 
Q 42.234375 47.515625 49.0625 40.96875 
Q 55.90625 34.421875 55.90625 23.09375 
Q 55.90625 11.53125 49 5.046875 
Q 42.09375 -1.421875 29.59375 -1.421875 
Q 24.5625 -1.421875 19.28125 -0.1875 
Q 14.015625 1.03125 8.5 3.515625 
L 8.5 17.671875 
L 14.015625 17.671875 
Q 14.453125 10.75 18.421875 7.078125 
Q 22.40625 3.421875 29.59375 3.421875 
Q 37.3125 3.421875 41.453125 8.5 
Q 45.609375 13.578125 45.609375 23.09375 
Q 45.609375 32.5625 41.484375 37.609375 
Q 37.359375 42.671875 29.59375 42.671875 
Q 25.203125 42.671875 21.84375 41.109375 
Q 18.5 39.546875 15.921875 36.28125 
L 11.71875 36.28125 
L 11.71875 72.90625 
z
" id="DejaVuSerif-53"/>
      </defs>
      <use xlink:href="#DejaVuSerif-57"/>
      <use x="63.623047" xlink:href="#DejaVuSerif-53"/>
      <use x="127.246094" xlink:href="#DejaVuSerif-46"/>
      <use x="159.033203" xlink:href="#DejaVuSerif-48"/>
      <use x="222.65625" xlink:href="#DejaVuSerif-37"/>
      <use x="317.675781" xlink:href="#DejaVuSerif-32"/>
      <use x="349.462891" xlink:href="#DejaVuSerif-70"/>
      <use x="410.097656" xlink:href="#DejaVuSerif-65"/>
      <use x="482.314453" xlink:href="#DejaVuSerif-80"/>
     </g>
    </g>
    <g id="line2d_26">
     <path d="M 420.448125 104.291196 
L 428.448125 104.291196 
" style="fill:none;stroke:#d3d3d3;stroke-dasharray:5.55,2.4;stroke-dashoffset:0;stroke-width:1.5;"/>
    </g>
    <g id="text_12">
     <!-- 90.0% FAP -->
     <g transform="translate(431.648125 105.691196)scale(0.04 -0.04)">
      <use xlink:href="#DejaVuSerif-57"/>
      <use x="63.623047" xlink:href="#DejaVuSerif-48"/>
      <use x="127.246094" xlink:href="#DejaVuSerif-46"/>
      <use x="159.033203" xlink:href="#DejaVuSerif-48"/>
      <use x="222.65625" xlink:href="#DejaVuSerif-37"/>
      <use x="317.675781" xlink:href="#DejaVuSerif-32"/>
      <use x="349.462891" xlink:href="#DejaVuSerif-70"/>
      <use x="410.097656" xlink:href="#DejaVuSerif-65"/>
      <use x="482.314453" xlink:href="#DejaVuSerif-80"/>
     </g>
    </g>
   </g>
  </g>
  <g id="axes_2">
   <g id="patch_8">
    <path d="M 57.6 150.089143 
L 206.4 150.089143 
L 206.4 41.472 
L 57.6 41.472 
z
" style="fill:#ffffff;"/>
   </g>
   <g id="PathCollection_1">
    <defs>
     <path d="M 0 0.707107 
C 0.187527 0.707107 0.367398 0.632602 0.5 0.5 
C 0.632602 0.367398 0.707107 0.187527 0.707107 0 
C 0.707107 -0.187527 0.632602 -0.367398 0.5 -0.5 
C 0.367398 -0.632602 0.187527 -0.707107 0 -0.707107 
C -0.187527 -0.707107 -0.367398 -0.632602 -0.5 -0.5 
C -0.632602 -0.367398 -0.707107 -0.187527 -0.707107 0 
C -0.707107 0.187527 -0.632602 0.367398 -0.5 0.5 
C -0.367398 0.632602 -0.187527 0.707107 0 0.707107 
z
" id="m551f712856" style="stroke:#1f77b4;"/>
    </defs>
    <g clip-path="url(#pb665410657)">
     <use style="fill:#1f77b4;stroke:#1f77b4;" x="110.156738" xlink:href="#m551f712856" y="75.029107"/>
     <use style="fill:#1f77b4;stroke:#1f77b4;" x="110.16277" xlink:href="#m551f712856" y="48.074517"/>
     <use style="fill:#1f77b4;stroke:#1f77b4;" x="79.645005" xlink:href="#m551f712856" y="97.518206"/>
     <use style="fill:#1f77b4;stroke:#1f77b4;" x="79.651038" xlink:href="#m551f712856" y="85.249682"/>
     <use style="fill:#1f77b4;stroke:#1f77b4;" x="106.842078" xlink:href="#m551f712856" y="88.197822"/>
     <use style="fill:#1f77b4;stroke:#1f77b4;" x="74.457312" xlink:href="#m551f712856" y="82.862817"/>
     <use style="fill:#1f77b4;stroke:#1f77b4;" x="74.499231" xlink:href="#m551f712856" y="86.215341"/>
     <use style="fill:#1f77b4;stroke:#1f77b4;" x="128.582474" xlink:href="#m551f712856" y="145.152"/>
     <use style="fill:#1f77b4;stroke:#1f77b4;" x="70.5434" xlink:href="#m551f712856" y="81.614162"/>
     <use style="fill:#1f77b4;stroke:#1f77b4;" x="70.549281" xlink:href="#m551f712856" y="101.985091"/>
     <use style="fill:#1f77b4;stroke:#1f77b4;" x="96.872959" xlink:href="#m551f712856" y="46.409143"/>
     <use style="fill:#1f77b4;stroke:#1f77b4;" x="96.87899" xlink:href="#m551f712856" y="68.85598"/>
     <use style="fill:#1f77b4;stroke:#1f77b4;" x="122.516861" xlink:href="#m551f712856" y="109.703564"/>
     <use style="fill:#1f77b4;stroke:#1f77b4;" x="122.522893" xlink:href="#m551f712856" y="111.357319"/>
     <use style="fill:#1f77b4;stroke:#1f77b4;" x="64.363636" xlink:href="#m551f712856" y="88.3117"/>
     <use style="fill:#1f77b4;stroke:#1f77b4;" x="64.369667" xlink:href="#m551f712856" y="89.408328"/>
     <use style="fill:#1f77b4;stroke:#1f77b4;" x="78.088084" xlink:href="#m551f712856" y="77.198441"/>
     <use style="fill:#1f77b4;stroke:#1f77b4;" x="78.093966" xlink:href="#m551f712856" y="73.942741"/>
     <use style="fill:#1f77b4;stroke:#1f77b4;" x="90.554918" xlink:href="#m551f712856" y="68.211505"/>
     <use style="fill:#1f77b4;stroke:#1f77b4;" x="90.56095" xlink:href="#m551f712856" y="57.919313"/>
     <use style="fill:#1f77b4;stroke:#1f77b4;" x="103.57109" xlink:href="#m551f712856" y="76.438729"/>
     <use style="fill:#1f77b4;stroke:#1f77b4;" x="103.576971" xlink:href="#m551f712856" y="85.233343"/>
     <use style="fill:#1f77b4;stroke:#1f77b4;" x="78.815452" xlink:href="#m551f712856" y="78.926529"/>
     <use style="fill:#1f77b4;stroke:#1f77b4;" x="98.216257" xlink:href="#m551f712856" y="62.16999"/>
     <use style="fill:#1f77b4;stroke:#1f77b4;" x="111.185533" xlink:href="#m551f712856" y="77.190254"/>
     <use style="fill:#1f77b4;stroke:#1f77b4;" x="124.217087" xlink:href="#m551f712856" y="119.16171"/>
     <use style="fill:#1f77b4;stroke:#1f77b4;" x="66.167759" xlink:href="#m551f712856" y="105.238717"/>
     <use style="fill:#1f77b4;stroke:#1f77b4;" x="79.251186" xlink:href="#m551f712856" y="98.420471"/>
     <use style="fill:#1f77b4;stroke:#1f77b4;" x="93.681439" xlink:href="#m551f712856" y="96.094282"/>
     <use style="fill:#1f77b4;stroke:#1f77b4;" x="66.212275" xlink:href="#m551f712856" y="100.021023"/>
     <use style="fill:#1f77b4;stroke:#1f77b4;" x="81.141713" xlink:href="#m551f712856" y="72.417882"/>
     <use style="fill:#1f77b4;stroke:#1f77b4;" x="94.410616" xlink:href="#m551f712856" y="84.149015"/>
     <use style="fill:#1f77b4;stroke:#1f77b4;" x="114.288078" xlink:href="#m551f712856" y="109.548747"/>
     <use style="fill:#1f77b4;stroke:#1f77b4;" x="82.569214" xlink:href="#m551f712856" y="90.494014"/>
     <use style="fill:#1f77b4;stroke:#1f77b4;" x="103.665362" xlink:href="#m551f712856" y="62.802881"/>
     <use style="fill:#1f77b4;stroke:#1f77b4;" x="84.725321" xlink:href="#m551f712856" y="59.408739"/>
     <use style="fill:#1f77b4;stroke:#1f77b4;" x="72.80596" xlink:href="#m551f712856" y="105.929566"/>
     <use style="fill:#1f77b4;stroke:#1f77b4;" x="112.733332" xlink:href="#m551f712856" y="71.449471"/>
     <use style="fill:#1f77b4;stroke:#1f77b4;" x="124.690352" xlink:href="#m551f712856" y="79.980859"/>
     <use style="fill:#1f77b4;stroke:#1f77b4;" x="113.409842" xlink:href="#m551f712856" y="76.659692"/>
     <use style="fill:#1f77b4;stroke:#1f77b4;" x="113.415723" xlink:href="#m551f712856" y="95.796947"/>
     <use style="fill:#1f77b4;stroke:#1f77b4;" x="126.10573" xlink:href="#m551f712856" y="125.664208"/>
     <use style="fill:#1f77b4;stroke:#1f77b4;" x="126.111611" xlink:href="#m551f712856" y="103.649071"/>
     <use style="fill:#1f77b4;stroke:#1f77b4;" x="67.518522" xlink:href="#m551f712856" y="140.376911"/>
     <use style="fill:#1f77b4;stroke:#1f77b4;" x="67.524403" xlink:href="#m551f712856" y="120.220116"/>
    </g>
   </g>
   <g id="PathCollection_2">
    <g clip-path="url(#pb665410657)">
     <use style="fill:#1f77b4;stroke:#1f77b4;" x="181.210628" xlink:href="#m551f712856" y="75.029107"/>
     <use style="fill:#1f77b4;stroke:#1f77b4;" x="181.21666" xlink:href="#m551f712856" y="48.074517"/>
     <use style="fill:#1f77b4;stroke:#1f77b4;" x="150.698895" xlink:href="#m551f712856" y="97.518206"/>
     <use style="fill:#1f77b4;stroke:#1f77b4;" x="150.704928" xlink:href="#m551f712856" y="85.249682"/>
     <use style="fill:#1f77b4;stroke:#1f77b4;" x="177.895968" xlink:href="#m551f712856" y="88.197822"/>
     <use style="fill:#1f77b4;stroke:#1f77b4;" x="145.511202" xlink:href="#m551f712856" y="82.862817"/>
     <use style="fill:#1f77b4;stroke:#1f77b4;" x="145.553121" xlink:href="#m551f712856" y="86.215341"/>
     <use style="fill:#1f77b4;stroke:#1f77b4;" x="199.636364" xlink:href="#m551f712856" y="145.152"/>
     <use style="fill:#1f77b4;stroke:#1f77b4;" x="141.59729" xlink:href="#m551f712856" y="81.614162"/>
     <use style="fill:#1f77b4;stroke:#1f77b4;" x="141.603171" xlink:href="#m551f712856" y="101.985091"/>
     <use style="fill:#1f77b4;stroke:#1f77b4;" x="167.926849" xlink:href="#m551f712856" y="46.409143"/>
     <use style="fill:#1f77b4;stroke:#1f77b4;" x="167.93288" xlink:href="#m551f712856" y="68.85598"/>
     <use style="fill:#1f77b4;stroke:#1f77b4;" x="193.570751" xlink:href="#m551f712856" y="109.703564"/>
     <use style="fill:#1f77b4;stroke:#1f77b4;" x="193.576783" xlink:href="#m551f712856" y="111.357319"/>
     <use style="fill:#1f77b4;stroke:#1f77b4;" x="135.417526" xlink:href="#m551f712856" y="88.3117"/>
     <use style="fill:#1f77b4;stroke:#1f77b4;" x="135.423557" xlink:href="#m551f712856" y="89.408328"/>
     <use style="fill:#1f77b4;stroke:#1f77b4;" x="149.141975" xlink:href="#m551f712856" y="77.198441"/>
     <use style="fill:#1f77b4;stroke:#1f77b4;" x="149.147856" xlink:href="#m551f712856" y="73.942741"/>
     <use style="fill:#1f77b4;stroke:#1f77b4;" x="161.608808" xlink:href="#m551f712856" y="68.211505"/>
     <use style="fill:#1f77b4;stroke:#1f77b4;" x="161.61484" xlink:href="#m551f712856" y="57.919313"/>
     <use style="fill:#1f77b4;stroke:#1f77b4;" x="174.62498" xlink:href="#m551f712856" y="76.438729"/>
     <use style="fill:#1f77b4;stroke:#1f77b4;" x="174.630861" xlink:href="#m551f712856" y="85.233343"/>
     <use style="fill:#1f77b4;stroke:#1f77b4;" x="149.869342" xlink:href="#m551f712856" y="78.926529"/>
     <use style="fill:#1f77b4;stroke:#1f77b4;" x="169.270147" xlink:href="#m551f712856" y="62.16999"/>
     <use style="fill:#1f77b4;stroke:#1f77b4;" x="182.239423" xlink:href="#m551f712856" y="77.190254"/>
     <use style="fill:#1f77b4;stroke:#1f77b4;" x="195.270977" xlink:href="#m551f712856" y="119.16171"/>
     <use style="fill:#1f77b4;stroke:#1f77b4;" x="137.221649" xlink:href="#m551f712856" y="105.238717"/>
     <use style="fill:#1f77b4;stroke:#1f77b4;" x="150.305076" xlink:href="#m551f712856" y="98.420471"/>
     <use style="fill:#1f77b4;stroke:#1f77b4;" x="164.735329" xlink:href="#m551f712856" y="96.094282"/>
     <use style="fill:#1f77b4;stroke:#1f77b4;" x="137.266165" xlink:href="#m551f712856" y="100.021023"/>
     <use style="fill:#1f77b4;stroke:#1f77b4;" x="152.195603" xlink:href="#m551f712856" y="72.417882"/>
     <use style="fill:#1f77b4;stroke:#1f77b4;" x="165.464506" xlink:href="#m551f712856" y="84.149015"/>
     <use style="fill:#1f77b4;stroke:#1f77b4;" x="185.341968" xlink:href="#m551f712856" y="109.548747"/>
     <use style="fill:#1f77b4;stroke:#1f77b4;" x="153.623104" xlink:href="#m551f712856" y="90.494014"/>
     <use style="fill:#1f77b4;stroke:#1f77b4;" x="174.719252" xlink:href="#m551f712856" y="62.802881"/>
     <use style="fill:#1f77b4;stroke:#1f77b4;" x="155.779211" xlink:href="#m551f712856" y="59.408739"/>
     <use style="fill:#1f77b4;stroke:#1f77b4;" x="143.85985" xlink:href="#m551f712856" y="105.929566"/>
     <use style="fill:#1f77b4;stroke:#1f77b4;" x="183.787222" xlink:href="#m551f712856" y="71.449471"/>
     <use style="fill:#1f77b4;stroke:#1f77b4;" x="195.744242" xlink:href="#m551f712856" y="79.980859"/>
     <use style="fill:#1f77b4;stroke:#1f77b4;" x="184.463732" xlink:href="#m551f712856" y="76.659692"/>
     <use style="fill:#1f77b4;stroke:#1f77b4;" x="184.469613" xlink:href="#m551f712856" y="95.796947"/>
     <use style="fill:#1f77b4;stroke:#1f77b4;" x="197.15962" xlink:href="#m551f712856" y="125.664208"/>
     <use style="fill:#1f77b4;stroke:#1f77b4;" x="197.165501" xlink:href="#m551f712856" y="103.649071"/>
     <use style="fill:#1f77b4;stroke:#1f77b4;" x="138.572412" xlink:href="#m551f712856" y="140.376911"/>
     <use style="fill:#1f77b4;stroke:#1f77b4;" x="138.578294" xlink:href="#m551f712856" y="120.220116"/>
    </g>
   </g>
   <g id="matplotlib.axis_3">
    <g id="xtick_19">
     <g id="line2d_27">
      <g>
       <use style="stroke:#000000;stroke-width:0.8;" x="58.468682" xlink:href="#m8f3f214a2d" y="150.089143"/>
      </g>
     </g>
     <g id="text_13">
      <!-- 0 -->
      <g transform="translate(55.287432 164.68758)scale(0.1 -0.1)">
       <use xlink:href="#DejaVuSerif-48"/>
      </g>
     </g>
    </g>
    <g id="xtick_20">
     <g id="line2d_28">
      <g>
       <use style="stroke:#000000;stroke-width:0.8;" x="129.522572" xlink:href="#m8f3f214a2d" y="150.089143"/>
      </g>
     </g>
     <g id="text_14">
      <!-- 1 -->
      <g transform="translate(126.341322 164.68758)scale(0.1 -0.1)">
       <use xlink:href="#DejaVuSerif-49"/>
      </g>
     </g>
    </g>
    <g id="xtick_21">
     <g id="line2d_29">
      <g>
       <use style="stroke:#000000;stroke-width:0.8;" x="200.576462" xlink:href="#m8f3f214a2d" y="150.089143"/>
      </g>
     </g>
     <g id="text_15">
      <!-- 2 -->
      <g transform="translate(197.395212 164.68758)scale(0.1 -0.1)">
       <use xlink:href="#DejaVuSerif-50"/>
      </g>
     </g>
    </g>
    <g id="text_16">
     <!-- Phase (P = 5.454 d) -->
     <g transform="translate(81.582812 178.365705)scale(0.1 -0.1)">
      <defs>
       <path d="M 4.109375 0 
L 4.109375 5.171875 
L 12.203125 5.171875 
L 12.203125 70.796875 
L 3.609375 70.796875 
L 3.609375 75.984375 
L 21.1875 75.984375 
L 21.1875 42.671875 
Q 23.6875 47.953125 27.65625 50.640625 
Q 31.640625 53.328125 36.921875 53.328125 
Q 45.515625 53.328125 49.5625 48.390625 
Q 53.609375 43.453125 53.609375 33.015625 
L 53.609375 5.171875 
L 61.625 5.171875 
L 61.625 0 
L 36.8125 0 
L 36.8125 5.171875 
L 44.578125 5.171875 
L 44.578125 30.171875 
Q 44.578125 39.703125 42.25 43.1875 
Q 39.9375 46.6875 33.984375 46.6875 
Q 27.734375 46.6875 24.453125 42.140625 
Q 21.1875 37.59375 21.1875 28.90625 
L 21.1875 5.171875 
L 29 5.171875 
L 29 0 
z
" id="DejaVuSerif-104"/>
       <path d="M 5.609375 2.875 
L 5.609375 14.984375 
L 10.796875 14.984375 
Q 10.984375 9.1875 14.421875 6.296875 
Q 17.875 3.421875 24.609375 3.421875 
Q 30.671875 3.421875 33.84375 5.6875 
Q 37.015625 7.953125 37.015625 12.3125 
Q 37.015625 15.71875 34.6875 17.8125 
Q 32.375 19.921875 24.90625 22.3125 
L 18.40625 24.515625 
Q 11.71875 26.65625 8.71875 29.875 
Q 5.71875 33.109375 5.71875 38.09375 
Q 5.71875 45.21875 10.9375 49.265625 
Q 16.15625 53.328125 25.390625 53.328125 
Q 29.5 53.328125 34.03125 52.25 
Q 38.578125 51.171875 43.40625 49.125 
L 43.40625 37.796875 
L 38.234375 37.796875 
Q 38.03125 42.828125 34.703125 45.65625 
Q 31.390625 48.484375 25.6875 48.484375 
Q 20.015625 48.484375 17.109375 46.484375 
Q 14.203125 44.484375 14.203125 40.484375 
Q 14.203125 37.203125 16.40625 35.21875 
Q 18.609375 33.25 25.203125 31.203125 
L 32.328125 29 
Q 39.703125 26.703125 42.9375 23.265625 
Q 46.1875 19.828125 46.1875 14.40625 
Q 46.1875 7.03125 40.546875 2.796875 
Q 34.90625 -1.421875 25 -1.421875 
Q 19.96875 -1.421875 15.1875 -0.34375 
Q 10.40625 0.734375 5.609375 2.875 
z
" id="DejaVuSerif-115"/>
       <path d="M 31.890625 -15.578125 
Q 20.015625 -10.25 13.953125 1.296875 
Q 7.90625 12.84375 7.90625 30.171875 
Q 7.90625 47.5625 13.953125 59.109375 
Q 20.015625 70.65625 31.890625 75.984375 
L 31.890625 71.1875 
Q 24.359375 66.015625 21.09375 56.609375 
Q 17.828125 47.21875 17.828125 30.171875 
Q 17.828125 13.1875 21.09375 3.78125 
Q 24.359375 -5.609375 31.890625 -10.796875 
z
" id="DejaVuSerif-40"/>
       <path d="M 10.59375 45.21875 
L 73.1875 45.21875 
L 73.1875 37.40625 
L 10.59375 37.40625 
z
M 10.59375 25.296875 
L 73.1875 25.296875 
L 73.1875 17.484375 
L 10.59375 17.484375 
z
" id="DejaVuSerif-61"/>
       <path d="M 7.078125 -15.578125 
L 7.078125 -10.796875 
Q 14.59375 -5.609375 17.890625 3.78125 
Q 21.1875 13.1875 21.1875 30.171875 
Q 21.1875 47.21875 17.890625 56.609375 
Q 14.59375 66.015625 7.078125 71.1875 
L 7.078125 75.984375 
Q 19 70.65625 25.046875 59.109375 
Q 31.109375 47.5625 31.109375 30.171875 
Q 31.109375 12.84375 25.046875 1.296875 
Q 19 -10.25 7.078125 -15.578125 
z
" id="DejaVuSerif-41"/>
      </defs>
      <use xlink:href="#DejaVuSerif-80"/>
      <use x="67.285156" xlink:href="#DejaVuSerif-104"/>
      <use x="131.689453" xlink:href="#DejaVuSerif-97"/>
      <use x="191.308594" xlink:href="#DejaVuSerif-115"/>
      <use x="242.626953" xlink:href="#DejaVuSerif-101"/>
      <use x="301.806641" xlink:href="#DejaVuSerif-32"/>
      <use x="333.59375" xlink:href="#DejaVuSerif-40"/>
      <use x="372.607422" xlink:href="#DejaVuSerif-80"/>
      <use x="439.892578" xlink:href="#DejaVuSerif-32"/>
      <use x="471.679688" xlink:href="#DejaVuSerif-61"/>
      <use x="555.46875" xlink:href="#DejaVuSerif-32"/>
      <use x="587.255859" xlink:href="#DejaVuSerif-53"/>
      <use x="650.878906" xlink:href="#DejaVuSerif-46"/>
      <use x="682.666016" xlink:href="#DejaVuSerif-52"/>
      <use x="746.289062" xlink:href="#DejaVuSerif-53"/>
      <use x="809.912109" xlink:href="#DejaVuSerif-52"/>
      <use x="873.535156" xlink:href="#DejaVuSerif-32"/>
      <use x="905.322266" xlink:href="#DejaVuSerif-100"/>
      <use x="969.335938" xlink:href="#DejaVuSerif-41"/>
     </g>
    </g>
   </g>
   <g id="matplotlib.axis_4">
    <g id="ytick_4">
     <g id="line2d_30">
      <g>
       <use style="stroke:#000000;stroke-width:0.8;" x="57.6" xlink:href="#m446a278892" y="56.148677"/>
      </g>
     </g>
     <g id="text_17">
      <!-- 17.7 -->
      <g transform="translate(28.334375 59.947896)scale(0.1 -0.1)">
       <defs>
        <path d="M 56.390625 67.921875 
L 27.875 0 
L 20.609375 0 
L 47.796875 64.890625 
L 14.109375 64.890625 
L 14.109375 55.90625 
L 8.40625 55.90625 
L 8.40625 72.90625 
L 56.390625 72.90625 
z
" id="DejaVuSerif-55"/>
       </defs>
       <use xlink:href="#DejaVuSerif-49"/>
       <use x="63.623047" xlink:href="#DejaVuSerif-55"/>
       <use x="127.246094" xlink:href="#DejaVuSerif-46"/>
       <use x="159.033203" xlink:href="#DejaVuSerif-55"/>
      </g>
     </g>
    </g>
    <g id="ytick_5">
     <g id="line2d_31">
      <g>
       <use style="stroke:#000000;stroke-width:0.8;" x="57.6" xlink:href="#m446a278892" y="91.903207"/>
      </g>
     </g>
     <g id="text_18">
      <!-- 17.8 -->
      <g transform="translate(28.334375 95.702426)scale(0.1 -0.1)">
       <defs>
        <path d="M 46.578125 19.921875 
Q 46.578125 27.734375 42.6875 32.046875 
Q 38.8125 36.375 31.78125 36.375 
Q 24.75 36.375 20.875 32.046875 
Q 17 27.734375 17 19.921875 
Q 17 12.0625 20.875 7.734375 
Q 24.75 3.421875 31.78125 3.421875 
Q 38.8125 3.421875 42.6875 7.734375 
Q 46.578125 12.0625 46.578125 19.921875 
z
M 44.578125 55.328125 
Q 44.578125 61.96875 41.203125 65.671875 
Q 37.84375 69.390625 31.78125 69.390625 
Q 25.78125 69.390625 22.390625 65.671875 
Q 19 61.96875 19 55.328125 
Q 19 48.640625 22.390625 44.921875 
Q 25.78125 41.21875 31.78125 41.21875 
Q 37.84375 41.21875 41.203125 44.921875 
Q 44.578125 48.640625 44.578125 55.328125 
z
M 39.3125 38.8125 
Q 47.609375 37.703125 52.25 32.6875 
Q 56.890625 27.6875 56.890625 19.921875 
Q 56.890625 9.671875 50.390625 4.125 
Q 43.890625 -1.421875 31.78125 -1.421875 
Q 19.734375 -1.421875 13.203125 4.125 
Q 6.6875 9.671875 6.6875 19.921875 
Q 6.6875 27.6875 11.328125 32.6875 
Q 15.96875 37.703125 24.3125 38.8125 
Q 16.9375 40.140625 13 44.40625 
Q 9.078125 48.6875 9.078125 55.328125 
Q 9.078125 64.109375 15.125 69.15625 
Q 21.1875 74.21875 31.78125 74.21875 
Q 42.390625 74.21875 48.4375 69.15625 
Q 54.5 64.109375 54.5 55.328125 
Q 54.5 48.6875 50.5625 44.40625 
Q 46.625 40.140625 39.3125 38.8125 
z
" id="DejaVuSerif-56"/>
       </defs>
       <use xlink:href="#DejaVuSerif-49"/>
       <use x="63.623047" xlink:href="#DejaVuSerif-55"/>
       <use x="127.246094" xlink:href="#DejaVuSerif-46"/>
       <use x="159.033203" xlink:href="#DejaVuSerif-56"/>
      </g>
     </g>
    </g>
    <g id="ytick_6">
     <g id="line2d_32">
      <g>
       <use style="stroke:#000000;stroke-width:0.8;" x="57.6" xlink:href="#m446a278892" y="127.657737"/>
      </g>
     </g>
     <g id="text_19">
      <!-- 17.9 -->
      <g transform="translate(28.334375 131.456956)scale(0.1 -0.1)">
       <use xlink:href="#DejaVuSerif-49"/>
       <use x="63.623047" xlink:href="#DejaVuSerif-55"/>
       <use x="127.246094" xlink:href="#DejaVuSerif-46"/>
       <use x="159.033203" xlink:href="#DejaVuSerif-57"/>
      </g>
     </g>
    </g>
    <g id="text_20">
     <!-- Mag -->
     <g transform="translate(22.1125 107.082134)rotate(-90)scale(0.1 -0.1)">
      <defs>
       <path d="M 5.515625 0 
L 5.515625 5.171875 
L 14.796875 5.171875 
L 14.796875 67.671875 
L 4.984375 67.671875 
L 4.984375 72.90625 
L 26.21875 72.90625 
L 51.8125 21 
L 77.390625 72.90625 
L 97.3125 72.90625 
L 97.3125 67.671875 
L 87.59375 67.671875 
L 87.59375 5.171875 
L 96.921875 5.171875 
L 96.921875 0 
L 68.40625 0 
L 68.40625 5.171875 
L 77.6875 5.171875 
L 77.6875 61.53125 
L 52.6875 10.6875 
L 45.796875 10.6875 
L 20.796875 61.53125 
L 20.796875 5.171875 
L 30.078125 5.171875 
L 30.078125 0 
z
" id="DejaVuSerif-77"/>
      </defs>
      <use xlink:href="#DejaVuSerif-77"/>
      <use x="102.392578" xlink:href="#DejaVuSerif-97"/>
      <use x="162.011719" xlink:href="#DejaVuSerif-103"/>
     </g>
    </g>
   </g>
   <g id="patch_9">
    <path d="M 57.6 150.089143 
L 57.6 41.472 
" style="fill:none;stroke:#000000;stroke-linecap:square;stroke-linejoin:miter;stroke-width:0.8;"/>
   </g>
   <g id="patch_10">
    <path d="M 206.4 150.089143 
L 206.4 41.472 
" style="fill:none;stroke:#000000;stroke-linecap:square;stroke-linejoin:miter;stroke-width:0.8;"/>
   </g>
   <g id="patch_11">
    <path d="M 57.6 150.089143 
L 206.4 150.089143 
" style="fill:none;stroke:#000000;stroke-linecap:square;stroke-linejoin:miter;stroke-width:0.8;"/>
   </g>
   <g id="patch_12">
    <path d="M 57.6 41.472 
L 206.4 41.472 
" style="fill:none;stroke:#000000;stroke-linecap:square;stroke-linejoin:miter;stroke-width:0.8;"/>
   </g>
   <g id="text_21">
    <!-- Folded Light Curve -->
    <g transform="translate(83.086719 35.472)scale(0.1 -0.1)">
     <defs>
      <path d="M 20.515625 5.171875 
L 29 5.171875 
L 29 0 
L 2.875 0 
L 2.875 5.171875 
L 11.53125 5.171875 
L 11.53125 70.796875 
L 2.875 70.796875 
L 2.875 75.984375 
L 20.515625 75.984375 
z
" id="DejaVuSerif-108"/>
      <path d="M 5.515625 0 
L 5.515625 5.171875 
L 14.796875 5.171875 
L 14.796875 67.671875 
L 5.515625 67.671875 
L 5.515625 72.90625 
L 33.984375 72.90625 
L 33.984375 67.671875 
L 24.703125 67.671875 
L 24.703125 6 
L 58.015625 6 
L 58.015625 18.21875 
L 64.015625 18.21875 
L 64.015625 0 
z
" id="DejaVuSerif-76"/>
      <path d="M 10.796875 46.6875 
L 2.875 46.6875 
L 2.875 51.90625 
L 10.796875 51.90625 
L 10.796875 68.015625 
L 19.828125 68.015625 
L 19.828125 51.90625 
L 36.71875 51.90625 
L 36.71875 46.6875 
L 19.828125 46.6875 
L 19.828125 13.71875 
Q 19.828125 7.125 21.09375 5.265625 
Q 22.359375 3.421875 25.78125 3.421875 
Q 29.296875 3.421875 30.90625 5.484375 
Q 32.515625 7.5625 32.625 12.203125 
L 39.40625 12.203125 
Q 39.015625 5.125 35.546875 1.84375 
Q 32.078125 -1.421875 25 -1.421875 
Q 17.234375 -1.421875 14.015625 2.015625 
Q 10.796875 5.46875 10.796875 13.71875 
z
" id="DejaVuSerif-116"/>
      <path d="M 70.515625 19.28125 
Q 67.28125 9.078125 59.6875 3.828125 
Q 52.09375 -1.421875 40.484375 -1.421875 
Q 33.34375 -1.421875 27.234375 1.015625 
Q 21.140625 3.46875 16.40625 8.203125 
Q 10.9375 13.671875 8.265625 20.625 
Q 5.609375 27.59375 5.609375 36.375 
Q 5.609375 53.375 15.421875 63.796875 
Q 25.25 74.21875 41.3125 74.21875 
Q 47.265625 74.21875 54 72.65625 
Q 60.75 71.09375 68.5 67.921875 
L 68.5 51.125 
L 62.984375 51.125 
Q 61.1875 60.296875 55.734375 64.640625 
Q 50.296875 69 40.484375 69 
Q 28.8125 69 22.796875 60.71875 
Q 16.796875 52.4375 16.796875 36.375 
Q 16.796875 20.359375 22.796875 12.078125 
Q 28.8125 3.8125 40.484375 3.8125 
Q 48.640625 3.8125 53.90625 7.6875 
Q 59.1875 11.578125 61.53125 19.28125 
z
" id="DejaVuSerif-67"/>
      <path d="M 35.40625 51.90625 
L 52.203125 51.90625 
L 52.203125 5.171875 
L 60.6875 5.171875 
L 60.6875 0 
L 43.21875 0 
L 43.21875 9.1875 
Q 40.71875 4 36.765625 1.28125 
Q 32.8125 -1.421875 27.59375 -1.421875 
Q 18.953125 -1.421875 14.875 3.484375 
Q 10.796875 8.40625 10.796875 18.890625 
L 10.796875 46.6875 
L 2.6875 46.6875 
L 2.6875 51.90625 
L 19.828125 51.90625 
L 19.828125 21.6875 
Q 19.828125 12.203125 22.140625 8.6875 
Q 24.46875 5.171875 30.421875 5.171875 
Q 36.671875 5.171875 39.9375 9.765625 
Q 43.21875 14.359375 43.21875 23.09375 
L 43.21875 46.6875 
L 35.40625 46.6875 
z
" id="DejaVuSerif-117"/>
      <path d="M 24.703125 0 
L 5.609375 46.6875 
L -0.296875 46.6875 
L -0.296875 51.90625 
L 23.578125 51.90625 
L 23.578125 46.6875 
L 15.28125 46.6875 
L 29.890625 10.984375 
L 44.484375 46.6875 
L 36.71875 46.6875 
L 36.71875 51.90625 
L 56.203125 51.90625 
L 56.203125 46.6875 
L 50.390625 46.6875 
L 31.296875 0 
z
" id="DejaVuSerif-118"/>
     </defs>
     <use xlink:href="#DejaVuSerif-70"/>
     <use x="63.884766" xlink:href="#DejaVuSerif-111"/>
     <use x="124.089844" xlink:href="#DejaVuSerif-108"/>
     <use x="156.072266" xlink:href="#DejaVuSerif-100"/>
     <use x="220.085938" xlink:href="#DejaVuSerif-101"/>
     <use x="279.265625" xlink:href="#DejaVuSerif-100"/>
     <use x="343.279297" xlink:href="#DejaVuSerif-32"/>
     <use x="375.066406" xlink:href="#DejaVuSerif-76"/>
     <use x="441.472656" xlink:href="#DejaVuSerif-105"/>
     <use x="473.455078" xlink:href="#DejaVuSerif-103"/>
     <use x="537.46875" xlink:href="#DejaVuSerif-104"/>
     <use x="601.873047" xlink:href="#DejaVuSerif-116"/>
     <use x="642.058594" xlink:href="#DejaVuSerif-32"/>
     <use x="673.845703" xlink:href="#DejaVuSerif-67"/>
     <use x="750.359375" xlink:href="#DejaVuSerif-117"/>
     <use x="814.763672" xlink:href="#DejaVuSerif-114"/>
     <use x="862.566406" xlink:href="#DejaVuSerif-118"/>
     <use x="919.060547" xlink:href="#DejaVuSerif-101"/>
    </g>
   </g>
  </g>
  <g id="axes_3">
   <g id="patch_13">
    <path d="M 57.6 307.584 
L 414.72 307.584 
L 414.72 198.966857 
L 57.6 198.966857 
z
" style="fill:#ffffff;"/>
   </g>
   <g id="PathCollection_3">
    <g clip-path="url(#pb9f4a210ae)">
     <use style="fill:#1f77b4;stroke:#1f77b4;" x="73.832727" xlink:href="#m551f712856" y="235.460533"/>
     <use style="fill:#1f77b4;stroke:#1f77b4;" x="73.833119" xlink:href="#m551f712856" y="212.983532"/>
     <use style="fill:#1f77b4;stroke:#1f77b4;" x="94.910293" xlink:href="#m551f712856" y="254.213833"/>
     <use style="fill:#1f77b4;stroke:#1f77b4;" x="94.910684" xlink:href="#m551f712856" y="243.983307"/>
     <use style="fill:#1f77b4;stroke:#1f77b4;" x="96.675449" xlink:href="#m551f712856" y="246.441714"/>
     <use style="fill:#1f77b4;stroke:#1f77b4;" x="99.185169" xlink:href="#m551f712856" y="241.992939"/>
     <use style="fill:#1f77b4;stroke:#1f77b4;" x="99.18789" xlink:href="#m551f712856" y="244.788554"/>
     <use style="fill:#1f77b4;stroke:#1f77b4;" x="121.144305" xlink:href="#m551f712856" y="293.934892"/>
     <use style="fill:#1f77b4;stroke:#1f77b4;" x="121.988998" xlink:href="#m551f712856" y="240.951705"/>
     <use style="fill:#1f77b4;stroke:#1f77b4;" x="121.98938" xlink:href="#m551f712856" y="257.938697"/>
     <use style="fill:#1f77b4;stroke:#1f77b4;" x="123.69785" xlink:href="#m551f712856" y="211.594802"/>
     <use style="fill:#1f77b4;stroke:#1f77b4;" x="123.698242" xlink:href="#m551f712856" y="230.312861"/>
     <use style="fill:#1f77b4;stroke:#1f77b4;" x="125.362202" xlink:href="#m551f712856" y="264.375008"/>
     <use style="fill:#1f77b4;stroke:#1f77b4;" x="125.362594" xlink:href="#m551f712856" y="265.754048"/>
     <use style="fill:#1f77b4;stroke:#1f77b4;" x="126.199487" xlink:href="#m551f712856" y="246.536675"/>
     <use style="fill:#1f77b4;stroke:#1f77b4;" x="126.199878" xlink:href="#m551f712856" y="247.451135"/>
     <use style="fill:#1f77b4;stroke:#1f77b4;" x="127.090237" xlink:href="#m551f712856" y="237.269506"/>
     <use style="fill:#1f77b4;stroke:#1f77b4;" x="127.090618" xlink:href="#m551f712856" y="234.55463"/>
     <use style="fill:#1f77b4;stroke:#1f77b4;" x="127.899364" xlink:href="#m551f712856" y="229.775443"/>
     <use style="fill:#1f77b4;stroke:#1f77b4;" x="127.899756" xlink:href="#m551f712856" y="221.192949"/>
     <use style="fill:#1f77b4;stroke:#1f77b4;" x="128.744146" xlink:href="#m551f712856" y="236.635994"/>
     <use style="fill:#1f77b4;stroke:#1f77b4;" x="128.744527" xlink:href="#m551f712856" y="243.969682"/>
     <use style="fill:#1f77b4;stroke:#1f77b4;" x="136.360585" xlink:href="#m551f712856" y="238.710531"/>
     <use style="fill:#1f77b4;stroke:#1f77b4;" x="142.231315" xlink:href="#m551f712856" y="224.737521"/>
     <use style="fill:#1f77b4;stroke:#1f77b4;" x="143.073052" xlink:href="#m551f712856" y="237.262679"/>
     <use style="fill:#1f77b4;stroke:#1f77b4;" x="143.918832" xlink:href="#m551f712856" y="272.262005"/>
     <use style="fill:#1f77b4;stroke:#1f77b4;" x="144.76286" xlink:href="#m551f712856" y="260.651844"/>
     <use style="fill:#1f77b4;stroke:#1f77b4;" x="145.612006" xlink:href="#m551f712856" y="254.966218"/>
     <use style="fill:#1f77b4;stroke:#1f77b4;" x="155.771705" xlink:href="#m551f712856" y="253.026445"/>
     <use style="fill:#1f77b4;stroke:#1f77b4;" x="163.21203" xlink:href="#m551f712856" y="256.300892"/>
     <use style="fill:#1f77b4;stroke:#1f77b4;" x="164.180987" xlink:href="#m551f712856" y="233.283074"/>
     <use style="fill:#1f77b4;stroke:#1f77b4;" x="165.042171" xlink:href="#m551f712856" y="243.065478"/>
     <use style="fill:#1f77b4;stroke:#1f77b4;" x="170.943837" xlink:href="#m551f712856" y="264.245909"/>
     <use style="fill:#1f77b4;stroke:#1f77b4;" x="173.496775" xlink:href="#m551f712856" y="248.356471"/>
     <use style="fill:#1f77b4;stroke:#1f77b4;" x="207.146958" xlink:href="#m551f712856" y="225.265279"/>
     <use style="fill:#1f77b4;stroke:#1f77b4;" x="210.529274" xlink:href="#m551f712856" y="222.434958"/>
     <use style="fill:#1f77b4;stroke:#1f77b4;" x="218.978819" xlink:href="#m551f712856" y="261.227932"/>
     <use style="fill:#1f77b4;stroke:#1f77b4;" x="346.082599" xlink:href="#m551f712856" y="232.475531"/>
     <use style="fill:#1f77b4;stroke:#1f77b4;" x="379.139631" xlink:href="#m551f712856" y="239.58972"/>
     <use style="fill:#1f77b4;stroke:#1f77b4;" x="396.853779" xlink:href="#m551f712856" y="236.820252"/>
     <use style="fill:#1f77b4;stroke:#1f77b4;" x="396.854161" xlink:href="#m551f712856" y="252.778503"/>
     <use style="fill:#1f77b4;stroke:#1f77b4;" x="397.677773" xlink:href="#m551f712856" y="277.684334"/>
     <use style="fill:#1f77b4;stroke:#1f77b4;" x="397.678155" xlink:href="#m551f712856" y="259.326263"/>
     <use style="fill:#1f77b4;stroke:#1f77b4;" x="398.486891" xlink:href="#m551f712856" y="289.953022"/>
     <use style="fill:#1f77b4;stroke:#1f77b4;" x="398.487273" xlink:href="#m551f712856" y="273.144592"/>
    </g>
   </g>
   <g id="matplotlib.axis_5">
    <g id="xtick_22">
     <g id="line2d_33">
      <g>
       <use style="stroke:#000000;stroke-width:0.8;" x="97.996351" xlink:href="#m8f3f214a2d" y="307.584"/>
      </g>
     </g>
     <g id="text_22">
      <!-- 58300 -->
      <g transform="translate(82.090101 322.182437)scale(0.1 -0.1)">
       <defs>
        <path d="M 9.71875 69.828125 
Q 15.4375 71.96875 20.671875 73.09375 
Q 25.921875 74.21875 30.515625 74.21875 
Q 41.21875 74.21875 47.21875 69.59375 
Q 53.21875 64.984375 53.21875 56.78125 
Q 53.21875 50.203125 49.0625 45.78125 
Q 44.921875 41.359375 37.3125 39.796875 
Q 46.296875 38.53125 51.25 33.28125 
Q 56.203125 28.03125 56.203125 19.671875 
Q 56.203125 9.46875 49.34375 4.015625 
Q 42.484375 -1.421875 29.59375 -1.421875 
Q 23.875 -1.421875 18.421875 -0.1875 
Q 12.984375 1.03125 7.625 3.515625 
L 7.625 17.671875 
L 13.09375 17.671875 
Q 13.578125 10.640625 17.828125 7.03125 
Q 22.078125 3.421875 29.78125 3.421875 
Q 37.25 3.421875 41.578125 7.734375 
Q 45.90625 12.0625 45.90625 19.578125 
Q 45.90625 28.171875 41.453125 32.59375 
Q 37.015625 37.015625 28.421875 37.015625 
L 23.78125 37.015625 
L 23.78125 42 
L 26.21875 42 
Q 34.765625 42 39.03125 45.53125 
Q 43.3125 49.078125 43.3125 56.203125 
Q 43.3125 62.59375 39.796875 65.984375 
Q 36.28125 69.390625 29.6875 69.390625 
Q 23.09375 69.390625 19.453125 66.265625 
Q 15.828125 63.140625 15.1875 56.984375 
L 9.71875 56.984375 
z
" id="DejaVuSerif-51"/>
       </defs>
       <use xlink:href="#DejaVuSerif-53"/>
       <use x="63.623047" xlink:href="#DejaVuSerif-56"/>
       <use x="127.246094" xlink:href="#DejaVuSerif-51"/>
       <use x="190.869141" xlink:href="#DejaVuSerif-48"/>
       <use x="254.492188" xlink:href="#DejaVuSerif-48"/>
      </g>
     </g>
    </g>
    <g id="xtick_23">
     <g id="line2d_34">
      <g>
       <use style="stroke:#000000;stroke-width:0.8;" x="140.27554" xlink:href="#m8f3f214a2d" y="307.584"/>
      </g>
     </g>
     <g id="text_23">
      <!-- 58350 -->
      <g transform="translate(124.36929 322.182437)scale(0.1 -0.1)">
       <use xlink:href="#DejaVuSerif-53"/>
       <use x="63.623047" xlink:href="#DejaVuSerif-56"/>
       <use x="127.246094" xlink:href="#DejaVuSerif-51"/>
       <use x="190.869141" xlink:href="#DejaVuSerif-53"/>
       <use x="254.492188" xlink:href="#DejaVuSerif-48"/>
      </g>
     </g>
    </g>
    <g id="xtick_24">
     <g id="line2d_35">
      <g>
       <use style="stroke:#000000;stroke-width:0.8;" x="182.55473" xlink:href="#m8f3f214a2d" y="307.584"/>
      </g>
     </g>
     <g id="text_24">
      <!-- 58400 -->
      <g transform="translate(166.64848 322.182437)scale(0.1 -0.1)">
       <use xlink:href="#DejaVuSerif-53"/>
       <use x="63.623047" xlink:href="#DejaVuSerif-56"/>
       <use x="127.246094" xlink:href="#DejaVuSerif-52"/>
       <use x="190.869141" xlink:href="#DejaVuSerif-48"/>
       <use x="254.492188" xlink:href="#DejaVuSerif-48"/>
      </g>
     </g>
    </g>
    <g id="xtick_25">
     <g id="line2d_36">
      <g>
       <use style="stroke:#000000;stroke-width:0.8;" x="224.833919" xlink:href="#m8f3f214a2d" y="307.584"/>
      </g>
     </g>
     <g id="text_25">
      <!-- 58450 -->
      <g transform="translate(208.927669 322.182437)scale(0.1 -0.1)">
       <use xlink:href="#DejaVuSerif-53"/>
       <use x="63.623047" xlink:href="#DejaVuSerif-56"/>
       <use x="127.246094" xlink:href="#DejaVuSerif-52"/>
       <use x="190.869141" xlink:href="#DejaVuSerif-53"/>
       <use x="254.492188" xlink:href="#DejaVuSerif-48"/>
      </g>
     </g>
    </g>
    <g id="xtick_26">
     <g id="line2d_37">
      <g>
       <use style="stroke:#000000;stroke-width:0.8;" x="267.113108" xlink:href="#m8f3f214a2d" y="307.584"/>
      </g>
     </g>
     <g id="text_26">
      <!-- 58500 -->
      <g transform="translate(251.206858 322.182437)scale(0.1 -0.1)">
       <use xlink:href="#DejaVuSerif-53"/>
       <use x="63.623047" xlink:href="#DejaVuSerif-56"/>
       <use x="127.246094" xlink:href="#DejaVuSerif-53"/>
       <use x="190.869141" xlink:href="#DejaVuSerif-48"/>
       <use x="254.492188" xlink:href="#DejaVuSerif-48"/>
      </g>
     </g>
    </g>
    <g id="xtick_27">
     <g id="line2d_38">
      <g>
       <use style="stroke:#000000;stroke-width:0.8;" x="309.392298" xlink:href="#m8f3f214a2d" y="307.584"/>
      </g>
     </g>
     <g id="text_27">
      <!-- 58550 -->
      <g transform="translate(293.486048 322.182437)scale(0.1 -0.1)">
       <use xlink:href="#DejaVuSerif-53"/>
       <use x="63.623047" xlink:href="#DejaVuSerif-56"/>
       <use x="127.246094" xlink:href="#DejaVuSerif-53"/>
       <use x="190.869141" xlink:href="#DejaVuSerif-53"/>
       <use x="254.492188" xlink:href="#DejaVuSerif-48"/>
      </g>
     </g>
    </g>
    <g id="xtick_28">
     <g id="line2d_39">
      <g>
       <use style="stroke:#000000;stroke-width:0.8;" x="351.671487" xlink:href="#m8f3f214a2d" y="307.584"/>
      </g>
     </g>
     <g id="text_28">
      <!-- 58600 -->
      <g transform="translate(335.765237 322.182437)scale(0.1 -0.1)">
       <defs>
        <path d="M 32.71875 3.421875 
Q 39.59375 3.421875 43.296875 8.46875 
Q 47.015625 13.53125 47.015625 23 
Q 47.015625 32.46875 43.296875 37.515625 
Q 39.59375 42.578125 32.71875 42.578125 
Q 25.734375 42.578125 22.0625 37.6875 
Q 18.40625 32.8125 18.40625 23.578125 
Q 18.40625 13.875 22.109375 8.640625 
Q 25.828125 3.421875 32.71875 3.421875 
z
M 16.796875 40.140625 
Q 20.125 43.796875 24.3125 45.59375 
Q 28.515625 47.40625 33.796875 47.40625 
Q 44.671875 47.40625 51 40.859375 
Q 57.328125 34.328125 57.328125 23 
Q 57.328125 11.921875 50.515625 5.25 
Q 43.703125 -1.421875 32.328125 -1.421875 
Q 19.96875 -1.421875 13.328125 7.78125 
Q 6.6875 17 6.6875 34.078125 
Q 6.6875 53.21875 14.546875 63.71875 
Q 22.40625 74.21875 36.71875 74.21875 
Q 40.578125 74.21875 44.828125 73.484375 
Q 49.078125 72.75 53.515625 71.296875 
L 53.515625 59.28125 
L 48 59.28125 
Q 47.40625 64.203125 44.234375 66.796875 
Q 41.0625 69.390625 35.6875 69.390625 
Q 26.21875 69.390625 21.578125 62.203125 
Q 16.9375 55.03125 16.796875 40.140625 
z
" id="DejaVuSerif-54"/>
       </defs>
       <use xlink:href="#DejaVuSerif-53"/>
       <use x="63.623047" xlink:href="#DejaVuSerif-56"/>
       <use x="127.246094" xlink:href="#DejaVuSerif-54"/>
       <use x="190.869141" xlink:href="#DejaVuSerif-48"/>
       <use x="254.492188" xlink:href="#DejaVuSerif-48"/>
      </g>
     </g>
    </g>
    <g id="xtick_29">
     <g id="line2d_40">
      <g>
       <use style="stroke:#000000;stroke-width:0.8;" x="393.950677" xlink:href="#m8f3f214a2d" y="307.584"/>
      </g>
     </g>
     <g id="text_29">
      <!-- 58650 -->
      <g transform="translate(378.044427 322.182437)scale(0.1 -0.1)">
       <use xlink:href="#DejaVuSerif-53"/>
       <use x="63.623047" xlink:href="#DejaVuSerif-56"/>
       <use x="127.246094" xlink:href="#DejaVuSerif-54"/>
       <use x="190.869141" xlink:href="#DejaVuSerif-53"/>
       <use x="254.492188" xlink:href="#DejaVuSerif-48"/>
      </g>
     </g>
    </g>
    <g id="text_30">
     <!-- MJD -->
     <g transform="translate(225.027187 335.860562)scale(0.1 -0.1)">
      <defs>
       <path d="M -8.40625 -17.484375 
L -8.40625 -6 
L -2.828125 -6 
Q -2.6875 -10.84375 -0.53125 -13.203125 
Q 1.609375 -15.578125 5.90625 -15.578125 
Q 11.71875 -15.578125 14.015625 -11.90625 
Q 16.3125 -8.25 16.3125 2.390625 
L 16.3125 67.671875 
L 4.984375 67.671875 
L 4.984375 72.90625 
L 35.5 72.90625 
L 35.5 67.671875 
L 26.21875 67.671875 
L 26.21875 2 
Q 26.21875 -10.0625 21.375 -15.421875 
Q 16.546875 -20.796875 5.8125 -20.796875 
Q 2.34375 -20.796875 -1.234375 -19.96875 
Q -4.828125 -19.140625 -8.40625 -17.484375 
z
" id="DejaVuSerif-74"/>
       <path d="M 24.703125 5.171875 
L 33.796875 5.171875 
Q 48 5.171875 55.59375 13.28125 
Q 63.1875 21.390625 63.1875 36.53125 
Q 63.1875 51.65625 55.609375 59.65625 
Q 48.046875 67.671875 33.796875 67.671875 
L 24.703125 67.671875 
z
M 5.515625 0 
L 5.515625 5.171875 
L 14.796875 5.171875 
L 14.796875 67.671875 
L 5.515625 67.671875 
L 5.515625 72.90625 
L 34.515625 72.90625 
Q 53.375 72.90625 63.890625 63.28125 
Q 74.421875 53.65625 74.421875 36.53125 
Q 74.421875 19.34375 63.875 9.671875 
Q 53.328125 0 34.515625 0 
z
" id="DejaVuSerif-68"/>
      </defs>
      <use xlink:href="#DejaVuSerif-77"/>
      <use x="102.392578" xlink:href="#DejaVuSerif-74"/>
      <use x="142.480469" xlink:href="#DejaVuSerif-68"/>
     </g>
    </g>
   </g>
   <g id="matplotlib.axis_6">
    <g id="ytick_7">
     <g id="line2d_41">
      <g>
       <use style="stroke:#000000;stroke-width:0.8;" x="57.6" xlink:href="#m446a278892" y="219.716444"/>
      </g>
     </g>
     <g id="text_31">
      <!-- 17.7 -->
      <g transform="translate(28.334375 223.515663)scale(0.1 -0.1)">
       <use xlink:href="#DejaVuSerif-49"/>
       <use x="63.623047" xlink:href="#DejaVuSerif-55"/>
       <use x="127.246094" xlink:href="#DejaVuSerif-46"/>
       <use x="159.033203" xlink:href="#DejaVuSerif-55"/>
      </g>
     </g>
    </g>
    <g id="ytick_8">
     <g id="line2d_42">
      <g>
       <use style="stroke:#000000;stroke-width:0.8;" x="57.6" xlink:href="#m446a278892" y="249.531575"/>
      </g>
     </g>
     <g id="text_32">
      <!-- 17.8 -->
      <g transform="translate(28.334375 253.330794)scale(0.1 -0.1)">
       <use xlink:href="#DejaVuSerif-49"/>
       <use x="63.623047" xlink:href="#DejaVuSerif-55"/>
       <use x="127.246094" xlink:href="#DejaVuSerif-46"/>
       <use x="159.033203" xlink:href="#DejaVuSerif-56"/>
      </g>
     </g>
    </g>
    <g id="ytick_9">
     <g id="line2d_43">
      <g>
       <use style="stroke:#000000;stroke-width:0.8;" x="57.6" xlink:href="#m446a278892" y="279.346706"/>
      </g>
     </g>
     <g id="text_33">
      <!-- 17.9 -->
      <g transform="translate(28.334375 283.145925)scale(0.1 -0.1)">
       <use xlink:href="#DejaVuSerif-49"/>
       <use x="63.623047" xlink:href="#DejaVuSerif-55"/>
       <use x="127.246094" xlink:href="#DejaVuSerif-46"/>
       <use x="159.033203" xlink:href="#DejaVuSerif-57"/>
      </g>
     </g>
    </g>
    <g id="text_34">
     <!-- Mag -->
     <g transform="translate(22.1125 264.576991)rotate(-90)scale(0.1 -0.1)">
      <use xlink:href="#DejaVuSerif-77"/>
      <use x="102.392578" xlink:href="#DejaVuSerif-97"/>
      <use x="162.011719" xlink:href="#DejaVuSerif-103"/>
     </g>
    </g>
   </g>
   <g id="LineCollection_5">
    <path clip-path="url(#pb9f4a210ae)" d="M 73.832727 227.501963 
L 73.832727 243.419102 
" style="fill:none;stroke:#1f77b4;stroke-width:0.5;"/>
    <path clip-path="url(#pb9f4a210ae)" d="M 73.833119 205.277733 
L 73.833119 220.68933 
" style="fill:none;stroke:#1f77b4;stroke-width:0.5;"/>
    <path clip-path="url(#pb9f4a210ae)" d="M 94.910293 246.029306 
L 94.910293 262.39836 
" style="fill:none;stroke:#1f77b4;stroke-width:0.5;"/>
    <path clip-path="url(#pb9f4a210ae)" d="M 94.910684 235.923796 
L 94.910684 252.042818 
" style="fill:none;stroke:#1f77b4;stroke-width:0.5;"/>
    <path clip-path="url(#pb9f4a210ae)" d="M 96.675449 238.352547 
L 96.675449 254.530881 
" style="fill:none;stroke:#1f77b4;stroke-width:0.5;"/>
    <path clip-path="url(#pb9f4a210ae)" d="M 99.185169 233.957259 
L 99.185169 250.028618 
" style="fill:none;stroke:#1f77b4;stroke-width:0.5;"/>
    <path clip-path="url(#pb9f4a210ae)" d="M 99.18789 236.719355 
L 99.18789 252.857754 
" style="fill:none;stroke:#1f77b4;stroke-width:0.5;"/>
    <path clip-path="url(#pb9f4a210ae)" d="M 121.144305 285.222927 
L 121.144305 302.646857 
" style="fill:none;stroke:#1f77b4;stroke-width:0.5;"/>
    <path clip-path="url(#pb9f4a210ae)" d="M 121.988998 232.928426 
L 121.988998 248.974983 
" style="fill:none;stroke:#1f77b4;stroke-width:0.5;"/>
    <path clip-path="url(#pb9f4a210ae)" d="M 121.98938 249.707588 
L 121.98938 266.169805 
" style="fill:none;stroke:#1f77b4;stroke-width:0.5;"/>
    <path clip-path="url(#pb9f4a210ae)" d="M 123.69785 203.904 
L 123.69785 219.285605 
" style="fill:none;stroke:#1f77b4;stroke-width:0.5;"/>
    <path clip-path="url(#pb9f4a210ae)" d="M 123.698242 222.413879 
L 123.698242 238.211843 
" style="fill:none;stroke:#1f77b4;stroke-width:0.5;"/>
    <path clip-path="url(#pb9f4a210ae)" d="M 125.362202 256.062042 
L 125.362202 272.687975 
" style="fill:none;stroke:#1f77b4;stroke-width:0.5;"/>
    <path clip-path="url(#pb9f4a210ae)" d="M 125.362594 257.423315 
L 125.362594 274.08478 
" style="fill:none;stroke:#1f77b4;stroke-width:0.5;"/>
    <path clip-path="url(#pb9f4a210ae)" d="M 126.199487 238.446359 
L 126.199487 254.626991 
" style="fill:none;stroke:#1f77b4;stroke-width:0.5;"/>
    <path clip-path="url(#pb9f4a210ae)" d="M 126.199878 239.349723 
L 126.199878 255.552547 
" style="fill:none;stroke:#1f77b4;stroke-width:0.5;"/>
    <path clip-path="url(#pb9f4a210ae)" d="M 127.090237 229.289749 
L 127.090237 245.249263 
" style="fill:none;stroke:#1f77b4;stroke-width:0.5;"/>
    <path clip-path="url(#pb9f4a210ae)" d="M 127.090618 226.606623 
L 127.090618 242.502637 
" style="fill:none;stroke:#1f77b4;stroke-width:0.5;"/>
    <path clip-path="url(#pb9f4a210ae)" d="M 127.899364 221.882623 
L 127.899364 237.668264 
" style="fill:none;stroke:#1f77b4;stroke-width:0.5;"/>
    <path clip-path="url(#pb9f4a210ae)" d="M 127.899756 213.397039 
L 127.899756 228.988859 
" style="fill:none;stroke:#1f77b4;stroke-width:0.5;"/>
    <path clip-path="url(#pb9f4a210ae)" d="M 128.744146 228.663674 
L 128.744146 244.608314 
" style="fill:none;stroke:#1f77b4;stroke-width:0.5;"/>
    <path clip-path="url(#pb9f4a210ae)" d="M 128.744527 235.910333 
L 128.744527 252.02903 
" style="fill:none;stroke:#1f77b4;stroke-width:0.5;"/>
    <path clip-path="url(#pb9f4a210ae)" d="M 136.360585 230.713808 
L 136.360585 246.707254 
" style="fill:none;stroke:#1f77b4;stroke-width:0.5;"/>
    <path clip-path="url(#pb9f4a210ae)" d="M 142.231315 216.901929 
L 142.231315 232.573112 
" style="fill:none;stroke:#1f77b4;stroke-width:0.5;"/>
    <path clip-path="url(#pb9f4a210ae)" d="M 143.073052 229.283005 
L 143.073052 245.242352 
" style="fill:none;stroke:#1f77b4;stroke-width:0.5;"/>
    <path clip-path="url(#pb9f4a210ae)" d="M 143.918832 263.846336 
L 143.918832 280.677674 
" style="fill:none;stroke:#1f77b4;stroke-width:0.5;"/>
    <path clip-path="url(#pb9f4a210ae)" d="M 144.76286 252.386438 
L 144.76286 268.917249 
" style="fill:none;stroke:#1f77b4;stroke-width:0.5;"/>
    <path clip-path="url(#pb9f4a210ae)" d="M 145.612006 246.772327 
L 145.612006 263.160108 
" style="fill:none;stroke:#1f77b4;stroke-width:0.5;"/>
    <path clip-path="url(#pb9f4a210ae)" d="M 155.771705 244.856648 
L 155.771705 261.196243 
" style="fill:none;stroke:#1f77b4;stroke-width:0.5;"/>
    <path clip-path="url(#pb9f4a210ae)" d="M 163.21203 248.090336 
L 163.21203 264.511448 
" style="fill:none;stroke:#1f77b4;stroke-width:0.5;"/>
    <path clip-path="url(#pb9f4a210ae)" d="M 164.180987 225.349834 
L 164.180987 241.216314 
" style="fill:none;stroke:#1f77b4;stroke-width:0.5;"/>
    <path clip-path="url(#pb9f4a210ae)" d="M 165.042171 235.016975 
L 165.042171 251.113982 
" style="fill:none;stroke:#1f77b4;stroke-width:0.5;"/>
    <path clip-path="url(#pb9f4a210ae)" d="M 170.943837 255.9346 
L 170.943837 272.557218 
" style="fill:none;stroke:#1f77b4;stroke-width:0.5;"/>
    <path clip-path="url(#pb9f4a210ae)" d="M 173.496775 240.244041 
L 173.496775 256.468902 
" style="fill:none;stroke:#1f77b4;stroke-width:0.5;"/>
    <path clip-path="url(#pb9f4a210ae)" d="M 207.146958 217.423737 
L 207.146958 233.10682 
" style="fill:none;stroke:#1f77b4;stroke-width:0.5;"/>
    <path clip-path="url(#pb9f4a210ae)" d="M 210.529274 214.625198 
L 210.529274 230.244717 
" style="fill:none;stroke:#1f77b4;stroke-width:0.5;"/>
    <path clip-path="url(#pb9f4a210ae)" d="M 218.978819 252.955205 
L 218.978819 269.500659 
" style="fill:none;stroke:#1f77b4;stroke-width:0.5;"/>
    <path clip-path="url(#pb9f4a210ae)" d="M 346.082599 224.551638 
L 346.082599 240.399424 
" style="fill:none;stroke:#1f77b4;stroke-width:0.5;"/>
    <path clip-path="url(#pb9f4a210ae)" d="M 379.139631 231.582602 
L 379.139631 247.596837 
" style="fill:none;stroke:#1f77b4;stroke-width:0.5;"/>
    <path clip-path="url(#pb9f4a210ae)" d="M 396.853779 228.845768 
L 396.853779 244.794736 
" style="fill:none;stroke:#1f77b4;stroke-width:0.5;"/>
    <path clip-path="url(#pb9f4a210ae)" d="M 396.854161 244.611771 
L 396.854161 260.945234 
" style="fill:none;stroke:#1f77b4;stroke-width:0.5;"/>
    <path clip-path="url(#pb9f4a210ae)" d="M 397.677773 269.196493 
L 397.677773 286.172175 
" style="fill:none;stroke:#1f77b4;stroke-width:0.5;"/>
    <path clip-path="url(#pb9f4a210ae)" d="M 397.678155 251.077653 
L 397.678155 267.574873 
" style="fill:none;stroke:#1f77b4;stroke-width:0.5;"/>
    <path clip-path="url(#pb9f4a210ae)" d="M 398.486891 281.297076 
L 398.486891 298.608967 
" style="fill:none;stroke:#1f77b4;stroke-width:0.5;"/>
    <path clip-path="url(#pb9f4a210ae)" d="M 398.487273 264.717259 
L 398.487273 281.571926 
" style="fill:none;stroke:#1f77b4;stroke-width:0.5;"/>
   </g>
   <g id="line2d_44">
    <path clip-path="url(#pb9f4a210ae)" d="M 73.832727 235.460533 
L 73.833119 212.983532 
L 94.910293 254.213833 
L 94.910684 243.983307 
L 96.675449 246.441714 
L 99.185169 241.992939 
L 99.18789 244.788554 
L 121.144305 293.934892 
L 121.988998 240.951705 
L 121.98938 257.938697 
L 123.69785 211.594802 
L 123.698242 230.312861 
L 125.362202 264.375008 
L 125.362594 265.754048 
L 126.199487 246.536675 
L 126.199878 247.451135 
L 127.090237 237.269506 
L 127.090618 234.55463 
L 127.899364 229.775443 
L 127.899756 221.192949 
L 128.744146 236.635994 
L 128.744527 243.969682 
L 136.360585 238.710531 
L 142.231315 224.737521 
L 143.073052 237.262679 
L 143.918832 272.262005 
L 144.76286 260.651844 
L 145.612006 254.966218 
L 155.771705 253.026445 
L 163.21203 256.300892 
L 164.180987 233.283074 
L 165.042171 243.065478 
L 170.943837 264.245909 
L 173.496775 248.356471 
L 207.146958 225.265279 
L 210.529274 222.434958 
L 218.978819 261.227932 
L 346.082599 232.475531 
L 379.139631 239.58972 
L 396.853779 236.820252 
L 396.854161 252.778503 
L 397.677773 277.684334 
L 397.678155 259.326263 
L 398.486891 289.953022 
L 398.487273 273.144592 
" style="fill:none;"/>
   </g>
   <g id="patch_14">
    <path d="M 57.6 307.584 
L 57.6 198.966857 
" style="fill:none;stroke:#000000;stroke-linecap:square;stroke-linejoin:miter;stroke-width:0.8;"/>
   </g>
   <g id="patch_15">
    <path d="M 414.72 307.584 
L 414.72 198.966857 
" style="fill:none;stroke:#000000;stroke-linecap:square;stroke-linejoin:miter;stroke-width:0.8;"/>
   </g>
   <g id="patch_16">
    <path d="M 57.6 307.584 
L 414.72 307.584 
" style="fill:none;stroke:#000000;stroke-linecap:square;stroke-linejoin:miter;stroke-width:0.8;"/>
   </g>
   <g id="patch_17">
    <path d="M 57.6 198.966857 
L 414.72 198.966857 
" style="fill:none;stroke:#000000;stroke-linecap:square;stroke-linejoin:miter;stroke-width:0.8;"/>
   </g>
   <g id="text_35">
    <!-- Light Curve -->
    <g transform="translate(206.000625 192.966857)scale(0.1 -0.1)">
     <use xlink:href="#DejaVuSerif-76"/>
     <use x="66.40625" xlink:href="#DejaVuSerif-105"/>
     <use x="98.388672" xlink:href="#DejaVuSerif-103"/>
     <use x="162.402344" xlink:href="#DejaVuSerif-104"/>
     <use x="226.806641" xlink:href="#DejaVuSerif-116"/>
     <use x="266.992188" xlink:href="#DejaVuSerif-32"/>
     <use x="298.779297" xlink:href="#DejaVuSerif-67"/>
     <use x="375.292969" xlink:href="#DejaVuSerif-117"/>
     <use x="439.697266" xlink:href="#DejaVuSerif-114"/>
     <use x="487.5" xlink:href="#DejaVuSerif-118"/>
     <use x="543.994141" xlink:href="#DejaVuSerif-101"/>
    </g>
   </g>
  </g>
 </g>
 <defs>
  <clipPath id="p75a7583df1">
   <rect height="108.617143" width="148.8" x="265.92" y="41.472"/>
  </clipPath>
  <clipPath id="pb665410657">
   <rect height="108.617143" width="148.8" x="57.6" y="41.472"/>
  </clipPath>
  <clipPath id="pb9f4a210ae">
   <rect height="108.617143" width="357.12" x="57.6" y="198.966857"/>
  </clipPath>
 </defs>
</svg>
