<?xml version="1.0" encoding="utf-8" standalone="no"?>
<!DOCTYPE svg PUBLIC "-//W3C//DTD SVG 1.1//EN"
  "http://www.w3.org/Graphics/SVG/1.1/DTD/svg11.dtd">
<!-- Created with matplotlib (https://matplotlib.org/) -->
<svg height="345.6pt" version="1.1" viewBox="0 0 460.8 345.6" width="460.8pt" xmlns="http://www.w3.org/2000/svg" xmlns:xlink="http://www.w3.org/1999/xlink">
 <metadata>
  <rdf:RDF xmlns:cc="http://creativecommons.org/ns#" xmlns:dc="http://purl.org/dc/elements/1.1/" xmlns:rdf="http://www.w3.org/1999/02/22-rdf-syntax-ns#">
   <cc:Work>
    <dc:type rdf:resource="http://purl.org/dc/dcmitype/StillImage"/>
    <dc:date>2021-02-24T00:24:09.124125</dc:date>
    <dc:format>image/svg+xml</dc:format>
    <dc:creator>
     <cc:Agent>
      <dc:title>Matplotlib v3.3.3, https://matplotlib.org/</dc:title>
     </cc:Agent>
    </dc:creator>
   </cc:Work>
  </rdf:RDF>
 </metadata>
 <defs>
  <style type="text/css">*{stroke-linecap:butt;stroke-linejoin:round;}</style>
 </defs>
 <g id="figure_1">
  <g id="patch_1">
   <path d="M 0 345.6 
L 460.8 345.6 
L 460.8 0 
L 0 0 
z
" style="fill:#ffffff;"/>
  </g>
  <g id="axes_1">
   <g id="patch_2">
    <path d="M 265.92 150.089143 
L 414.72 150.089143 
L 414.72 41.472 
L 265.92 41.472 
z
" style="fill:#ffffff;"/>
   </g>
   <g id="matplotlib.axis_1">
    <g id="xtick_1">
     <g id="line2d_1">
      <defs>
       <path d="M 0 0 
L 0 3.5 
" id="m7bac7bc8fc" style="stroke:#000000;stroke-width:0.8;"/>
      </defs>
      <g>
       <use style="stroke:#000000;stroke-width:0.8;" x="326.985138" xlink:href="#m7bac7bc8fc" y="150.089143"/>
      </g>
     </g>
     <g id="text_1">
      <!-- $\mathdefault{10^{1}}$ -->
      <g transform="translate(318.185138 164.68758)scale(0.1 -0.1)">
       <defs>
        <path d="M 14.203125 0 
L 14.203125 5.171875 
L 26.90625 5.171875 
L 26.90625 65.828125 
L 12.203125 56.296875 
L 12.203125 62.703125 
L 29.984375 74.21875 
L 36.71875 74.21875 
L 36.71875 5.171875 
L 49.421875 5.171875 
L 49.421875 0 
z
" id="DejaVuSerif-49"/>
        <path d="M 31.78125 3.421875 
Q 39.265625 3.421875 42.96875 11.625 
Q 46.6875 19.828125 46.6875 36.375 
Q 46.6875 52.984375 42.96875 61.1875 
Q 39.265625 69.390625 31.78125 69.390625 
Q 24.3125 69.390625 20.59375 61.1875 
Q 16.890625 52.984375 16.890625 36.375 
Q 16.890625 19.828125 20.59375 11.625 
Q 24.3125 3.421875 31.78125 3.421875 
z
M 31.78125 -1.421875 
Q 19.921875 -1.421875 13.25 8.53125 
Q 6.59375 18.5 6.59375 36.375 
Q 6.59375 54.296875 13.25 64.25 
Q 19.921875 74.21875 31.78125 74.21875 
Q 43.703125 74.21875 50.34375 64.25 
Q 56.984375 54.296875 56.984375 36.375 
Q 56.984375 18.5 50.34375 8.53125 
Q 43.703125 -1.421875 31.78125 -1.421875 
z
" id="DejaVuSerif-48"/>
       </defs>
       <use transform="translate(0 0.7125)" xlink:href="#DejaVuSerif-49"/>
       <use transform="translate(63.623047 0.7125)" xlink:href="#DejaVuSerif-48"/>
       <use transform="translate(128.154453 37.046875)scale(0.7)" xlink:href="#DejaVuSerif-49"/>
      </g>
     </g>
    </g>
    <g id="xtick_2">
     <g id="line2d_2">
      <g>
       <use style="stroke:#000000;stroke-width:0.8;" x="400.12039" xlink:href="#m7bac7bc8fc" y="150.089143"/>
      </g>
     </g>
     <g id="text_2">
      <!-- $\mathdefault{10^{2}}$ -->
      <g transform="translate(391.32039 164.68758)scale(0.1 -0.1)">
       <defs>
        <path d="M 12.796875 55.515625 
L 7.328125 55.515625 
L 7.328125 68.5 
Q 12.546875 71.296875 17.84375 72.75 
Q 23.140625 74.21875 28.21875 74.21875 
Q 39.59375 74.21875 46.1875 68.703125 
Q 52.78125 63.1875 52.78125 53.71875 
Q 52.78125 43.015625 37.84375 28.125 
Q 36.671875 27 36.078125 26.421875 
L 17.671875 8.015625 
L 48.09375 8.015625 
L 48.09375 17 
L 53.8125 17 
L 53.8125 0 
L 6.78125 0 
L 6.78125 5.328125 
L 28.90625 27.390625 
Q 36.234375 34.71875 39.359375 40.84375 
Q 42.484375 46.96875 42.484375 53.71875 
Q 42.484375 61.078125 38.640625 65.234375 
Q 34.8125 69.390625 28.078125 69.390625 
Q 21.09375 69.390625 17.28125 65.921875 
Q 13.484375 62.453125 12.796875 55.515625 
z
" id="DejaVuSerif-50"/>
       </defs>
       <use transform="translate(0 0.7125)" xlink:href="#DejaVuSerif-49"/>
       <use transform="translate(63.623047 0.7125)" xlink:href="#DejaVuSerif-48"/>
       <use transform="translate(128.154453 37.046875)scale(0.7)" xlink:href="#DejaVuSerif-50"/>
      </g>
     </g>
    </g>
    <g id="xtick_3">
     <g id="line2d_3">
      <defs>
       <path d="M 0 0 
L 0 2 
" id="mfca0168478" style="stroke:#000000;stroke-width:0.6;"/>
      </defs>
      <g>
       <use style="stroke:#000000;stroke-width:0.6;" x="275.86579" xlink:href="#mfca0168478" y="150.089143"/>
      </g>
     </g>
    </g>
    <g id="xtick_4">
     <g id="line2d_4">
      <g>
       <use style="stroke:#000000;stroke-width:0.6;" x="288.744269" xlink:href="#mfca0168478" y="150.089143"/>
      </g>
     </g>
    </g>
    <g id="xtick_5">
     <g id="line2d_5">
      <g>
       <use style="stroke:#000000;stroke-width:0.6;" x="297.881695" xlink:href="#mfca0168478" y="150.089143"/>
      </g>
     </g>
    </g>
    <g id="xtick_6">
     <g id="line2d_6">
      <g>
       <use style="stroke:#000000;stroke-width:0.6;" x="304.969233" xlink:href="#mfca0168478" y="150.089143"/>
      </g>
     </g>
    </g>
    <g id="xtick_7">
     <g id="line2d_7">
      <g>
       <use style="stroke:#000000;stroke-width:0.6;" x="310.760174" xlink:href="#mfca0168478" y="150.089143"/>
      </g>
     </g>
    </g>
    <g id="xtick_8">
     <g id="line2d_8">
      <g>
       <use style="stroke:#000000;stroke-width:0.6;" x="315.656344" xlink:href="#mfca0168478" y="150.089143"/>
      </g>
     </g>
    </g>
    <g id="xtick_9">
     <g id="line2d_9">
      <g>
       <use style="stroke:#000000;stroke-width:0.6;" x="319.8976" xlink:href="#mfca0168478" y="150.089143"/>
      </g>
     </g>
    </g>
    <g id="xtick_10">
     <g id="line2d_10">
      <g>
       <use style="stroke:#000000;stroke-width:0.6;" x="323.638652" xlink:href="#mfca0168478" y="150.089143"/>
      </g>
     </g>
    </g>
    <g id="xtick_11">
     <g id="line2d_11">
      <g>
       <use style="stroke:#000000;stroke-width:0.6;" x="349.001043" xlink:href="#mfca0168478" y="150.089143"/>
      </g>
     </g>
    </g>
    <g id="xtick_12">
     <g id="line2d_12">
      <g>
       <use style="stroke:#000000;stroke-width:0.6;" x="361.879521" xlink:href="#mfca0168478" y="150.089143"/>
      </g>
     </g>
    </g>
    <g id="xtick_13">
     <g id="line2d_13">
      <g>
       <use style="stroke:#000000;stroke-width:0.6;" x="371.016947" xlink:href="#mfca0168478" y="150.089143"/>
      </g>
     </g>
    </g>
    <g id="xtick_14">
     <g id="line2d_14">
      <g>
       <use style="stroke:#000000;stroke-width:0.6;" x="378.104486" xlink:href="#mfca0168478" y="150.089143"/>
      </g>
     </g>
    </g>
    <g id="xtick_15">
     <g id="line2d_15">
      <g>
       <use style="stroke:#000000;stroke-width:0.6;" x="383.895426" xlink:href="#mfca0168478" y="150.089143"/>
      </g>
     </g>
    </g>
    <g id="xtick_16">
     <g id="line2d_16">
      <g>
       <use style="stroke:#000000;stroke-width:0.6;" x="388.791597" xlink:href="#mfca0168478" y="150.089143"/>
      </g>
     </g>
    </g>
    <g id="xtick_17">
     <g id="line2d_17">
      <g>
       <use style="stroke:#000000;stroke-width:0.6;" x="393.032852" xlink:href="#mfca0168478" y="150.089143"/>
      </g>
     </g>
    </g>
    <g id="xtick_18">
     <g id="line2d_18">
      <g>
       <use style="stroke:#000000;stroke-width:0.6;" x="396.773905" xlink:href="#mfca0168478" y="150.089143"/>
      </g>
     </g>
    </g>
    <g id="text_3">
     <!-- Period d -->
     <g transform="translate(319.231719 178.365705)scale(0.1 -0.1)">
      <defs>
       <path d="M 24.703125 37.109375 
L 37.59375 37.109375 
Q 44.875 37.109375 48.671875 41.03125 
Q 52.484375 44.96875 52.484375 52.390625 
Q 52.484375 59.859375 48.671875 63.765625 
Q 44.875 67.671875 37.59375 67.671875 
L 24.703125 67.671875 
z
M 5.515625 0 
L 5.515625 5.171875 
L 14.796875 5.171875 
L 14.796875 67.671875 
L 5.515625 67.671875 
L 5.515625 72.90625 
L 39.984375 72.90625 
Q 50.921875 72.90625 57.3125 67.359375 
Q 63.71875 61.8125 63.71875 52.390625 
Q 63.71875 43.015625 57.3125 37.453125 
Q 50.921875 31.890625 39.984375 31.890625 
L 24.703125 31.890625 
L 24.703125 5.171875 
L 35.984375 5.171875 
L 35.984375 0 
z
" id="DejaVuSerif-80"/>
       <path d="M 54.203125 25 
L 15.484375 25 
L 15.484375 24.609375 
Q 15.484375 14.109375 19.4375 8.765625 
Q 23.390625 3.421875 31.109375 3.421875 
Q 37.015625 3.421875 40.796875 6.515625 
Q 44.578125 9.625 46.09375 15.71875 
L 53.328125 15.71875 
Q 51.171875 7.171875 45.375 2.875 
Q 39.59375 -1.421875 30.171875 -1.421875 
Q 18.796875 -1.421875 11.890625 6.078125 
Q 4.984375 13.578125 4.984375 25.984375 
Q 4.984375 38.28125 11.765625 45.796875 
Q 18.5625 53.328125 29.59375 53.328125 
Q 41.359375 53.328125 47.65625 46.0625 
Q 53.953125 38.8125 54.203125 25 
z
M 43.609375 30.171875 
Q 43.3125 39.265625 39.765625 43.875 
Q 36.234375 48.484375 29.59375 48.484375 
Q 23.390625 48.484375 19.828125 43.84375 
Q 16.265625 39.203125 15.484375 30.171875 
z
" id="DejaVuSerif-101"/>
       <path d="M 47.796875 52 
L 47.796875 39.015625 
L 42.625 39.015625 
Q 42.390625 42.875 40.484375 44.78125 
Q 38.578125 46.6875 34.90625 46.6875 
Q 28.265625 46.6875 24.71875 42.09375 
Q 21.1875 37.5 21.1875 28.90625 
L 21.1875 5.171875 
L 31.59375 5.171875 
L 31.59375 0 
L 4.109375 0 
L 4.109375 5.171875 
L 12.203125 5.171875 
L 12.203125 46.78125 
L 3.609375 46.78125 
L 3.609375 51.90625 
L 21.1875 51.90625 
L 21.1875 42.671875 
Q 23.828125 48.09375 27.96875 50.703125 
Q 32.125 53.328125 38.09375 53.328125 
Q 40.28125 53.328125 42.703125 52.984375 
Q 45.125 52.640625 47.796875 52 
z
" id="DejaVuSerif-114"/>
       <path d="M 9.71875 68.015625 
Q 9.71875 70.265625 11.34375 71.921875 
Q 12.984375 73.578125 15.28125 73.578125 
Q 17.53125 73.578125 19.15625 71.921875 
Q 20.796875 70.265625 20.796875 68.015625 
Q 20.796875 65.71875 19.1875 64.109375 
Q 17.578125 62.5 15.28125 62.5 
Q 12.984375 62.5 11.34375 64.109375 
Q 9.71875 65.71875 9.71875 68.015625 
z
M 21.1875 5.171875 
L 29.6875 5.171875 
L 29.6875 0 
L 3.609375 0 
L 3.609375 5.171875 
L 12.203125 5.171875 
L 12.203125 46.6875 
L 3.609375 46.6875 
L 3.609375 51.90625 
L 21.1875 51.90625 
z
" id="DejaVuSerif-105"/>
       <path d="M 30.078125 3.421875 
Q 37.3125 3.421875 40.984375 9.125 
Q 44.671875 14.84375 44.671875 25.984375 
Q 44.671875 37.109375 40.984375 42.796875 
Q 37.3125 48.484375 30.078125 48.484375 
Q 22.859375 48.484375 19.171875 42.796875 
Q 15.484375 37.109375 15.484375 25.984375 
Q 15.484375 14.84375 19.1875 9.125 
Q 22.90625 3.421875 30.078125 3.421875 
z
M 30.078125 -1.421875 
Q 18.75 -1.421875 11.859375 6.078125 
Q 4.984375 13.578125 4.984375 25.984375 
Q 4.984375 38.375 11.84375 45.84375 
Q 18.703125 53.328125 30.078125 53.328125 
Q 41.453125 53.328125 48.3125 45.84375 
Q 55.171875 38.375 55.171875 25.984375 
Q 55.171875 13.578125 48.3125 6.078125 
Q 41.453125 -1.421875 30.078125 -1.421875 
z
" id="DejaVuSerif-111"/>
       <path d="M 52.484375 5.171875 
L 61.078125 5.171875 
L 61.078125 0 
L 43.5 0 
L 43.5 8.109375 
Q 40.875 3.21875 36.796875 0.890625 
Q 32.71875 -1.421875 26.703125 -1.421875 
Q 17.140625 -1.421875 11.0625 6.171875 
Q 4.984375 13.765625 4.984375 25.984375 
Q 4.984375 38.1875 11.03125 45.75 
Q 17.09375 53.328125 26.703125 53.328125 
Q 32.71875 53.328125 36.796875 51 
Q 40.875 48.6875 43.5 43.796875 
L 43.5 70.796875 
L 35.015625 70.796875 
L 35.015625 75.984375 
L 52.484375 75.984375 
z
M 43.5 23.390625 
L 43.5 28.515625 
Q 43.5 37.84375 39.90625 42.765625 
Q 36.328125 47.703125 29.5 47.703125 
Q 22.5625 47.703125 19.015625 42.234375 
Q 15.484375 36.765625 15.484375 25.984375 
Q 15.484375 15.234375 19.015625 9.71875 
Q 22.5625 4.203125 29.5 4.203125 
Q 36.328125 4.203125 39.90625 9.109375 
Q 43.5 14.015625 43.5 23.390625 
z
" id="DejaVuSerif-100"/>
       <path id="DejaVuSerif-32"/>
      </defs>
      <use xlink:href="#DejaVuSerif-80"/>
      <use x="62.785156" xlink:href="#DejaVuSerif-101"/>
      <use x="121.964844" xlink:href="#DejaVuSerif-114"/>
      <use x="169.767578" xlink:href="#DejaVuSerif-105"/>
      <use x="201.75" xlink:href="#DejaVuSerif-111"/>
      <use x="261.955078" xlink:href="#DejaVuSerif-100"/>
      <use x="325.96875" xlink:href="#DejaVuSerif-32"/>
      <use x="357.755859" xlink:href="#DejaVuSerif-100"/>
     </g>
    </g>
   </g>
   <g id="matplotlib.axis_2">
    <g id="ytick_1">
     <g id="line2d_19">
      <defs>
       <path d="M 0 0 
L -3.5 0 
" id="m5c32f41697" style="stroke:#000000;stroke-width:0.8;"/>
      </defs>
      <g>
       <use style="stroke:#000000;stroke-width:0.8;" x="265.92" xlink:href="#m5c32f41697" y="145.183491"/>
      </g>
     </g>
     <g id="text_4">
      <!-- 0.0 -->
      <g transform="translate(243.016875 148.982709)scale(0.1 -0.1)">
       <defs>
        <path d="M 9.421875 5.078125 
Q 9.421875 7.8125 11.28125 9.71875 
Q 13.140625 11.625 15.921875 11.625 
Q 18.609375 11.625 20.5 9.71875 
Q 22.40625 7.8125 22.40625 5.078125 
Q 22.40625 2.390625 20.5 0.484375 
Q 18.609375 -1.421875 15.921875 -1.421875 
Q 13.140625 -1.421875 11.28125 0.453125 
Q 9.421875 2.34375 9.421875 5.078125 
z
" id="DejaVuSerif-46"/>
       </defs>
       <use xlink:href="#DejaVuSerif-48"/>
       <use x="63.623047" xlink:href="#DejaVuSerif-46"/>
       <use x="95.410156" xlink:href="#DejaVuSerif-48"/>
      </g>
     </g>
    </g>
    <g id="ytick_2">
     <g id="line2d_20">
      <g>
       <use style="stroke:#000000;stroke-width:0.8;" x="265.92" xlink:href="#m5c32f41697" y="102.810902"/>
      </g>
     </g>
     <g id="text_5">
      <!-- 0.2 -->
      <g transform="translate(243.016875 106.610121)scale(0.1 -0.1)">
       <use xlink:href="#DejaVuSerif-48"/>
       <use x="63.623047" xlink:href="#DejaVuSerif-46"/>
       <use x="95.410156" xlink:href="#DejaVuSerif-50"/>
      </g>
     </g>
    </g>
    <g id="ytick_3">
     <g id="line2d_21">
      <g>
       <use style="stroke:#000000;stroke-width:0.8;" x="265.92" xlink:href="#m5c32f41697" y="60.438314"/>
      </g>
     </g>
     <g id="text_6">
      <!-- 0.4 -->
      <g transform="translate(243.016875 64.237533)scale(0.1 -0.1)">
       <defs>
        <path d="M 34.90625 24.703125 
L 34.90625 63.484375 
L 10.015625 24.703125 
z
M 56.390625 0 
L 23.1875 0 
L 23.1875 5.171875 
L 34.90625 5.171875 
L 34.90625 19.484375 
L 3.078125 19.484375 
L 3.078125 24.8125 
L 35.015625 74.21875 
L 44.671875 74.21875 
L 44.671875 24.703125 
L 58.59375 24.703125 
L 58.59375 19.484375 
L 44.671875 19.484375 
L 44.671875 5.171875 
L 56.390625 5.171875 
z
" id="DejaVuSerif-52"/>
       </defs>
       <use xlink:href="#DejaVuSerif-48"/>
       <use x="63.623047" xlink:href="#DejaVuSerif-46"/>
       <use x="95.410156" xlink:href="#DejaVuSerif-52"/>
      </g>
     </g>
    </g>
    <g id="text_7">
     <!-- Power -->
     <g transform="translate(236.937188 111.583696)rotate(-90)scale(0.1 -0.1)">
      <defs>
       <path d="M 48 51.90625 
L 61.28125 11.375 
L 73 46.6875 
L 65.484375 46.6875 
L 65.484375 51.90625 
L 84.28125 51.90625 
L 84.28125 46.6875 
L 78.515625 46.6875 
L 63.09375 0 
L 55.609375 0 
L 42.828125 38.8125 
L 29.984375 0 
L 22.796875 0 
L 7.421875 46.6875 
L 1.609375 46.6875 
L 1.609375 51.90625 
L 25.09375 51.90625 
L 25.09375 46.6875 
L 16.703125 46.6875 
L 28.328125 11.375 
L 41.703125 51.90625 
z
" id="DejaVuSerif-119"/>
      </defs>
      <use xlink:href="#DejaVuSerif-80"/>
      <use x="63.285156" xlink:href="#DejaVuSerif-111"/>
      <use x="123.490234" xlink:href="#DejaVuSerif-119"/>
      <use x="209.085938" xlink:href="#DejaVuSerif-101"/>
      <use x="268.265625" xlink:href="#DejaVuSerif-114"/>
     </g>
    </g>
   </g>
   <g id="LineCollection_1">
    <path clip-path="url(#pd664f59604)" d="M 272.695273 46.409143 
L 407.956364 46.409143 
" style="fill:none;stroke:#808080;stroke-dasharray:5.55,2.4;stroke-dashoffset:0;stroke-width:1.5;"/>
   </g>
   <g id="LineCollection_2">
    <path clip-path="url(#pd664f59604)" d="M 272.695273 60.348953 
L 407.956364 60.348953 
" style="fill:none;stroke:#a9a9a9;stroke-dasharray:5.55,2.4;stroke-dashoffset:0;stroke-width:1.5;"/>
   </g>
   <g id="LineCollection_3">
    <path clip-path="url(#pd664f59604)" d="M 272.695273 71.325253 
L 407.956364 71.325253 
" style="fill:none;stroke:#c0c0c0;stroke-dasharray:5.55,2.4;stroke-dashoffset:0;stroke-width:1.5;"/>
   </g>
   <g id="LineCollection_4">
    <path clip-path="url(#pd664f59604)" d="M 272.695273 76.510205 
L 407.956364 76.510205 
" style="fill:none;stroke:#d3d3d3;stroke-dasharray:5.55,2.4;stroke-dashoffset:0;stroke-width:1.5;"/>
   </g>
   <g id="line2d_22">
    <path clip-path="url(#pd664f59604)" d="M 407.956364 123.800266 
L 405.906476 103.695232 
L 403.980902 96.986743 
L 402.165423 105.733546 
L 400.448127 116.882319 
L 398.818938 126.296937 
L 397.269253 108.805757 
L 395.791673 76.757652 
L 394.379786 74.389208 
L 393.027997 89.89394 
L 390.485662 132.394156 
L 389.286945 121.406382 
L 388.131827 95.36252 
L 387.017248 86.305307 
L 385.940459 85.337301 
L 384.898981 90.511887 
L 382.913194 139.433063 
L 381.964998 126.564193 
L 380.149518 72.954367 
L 379.279266 68.21772 
L 377.607183 142.574917 
L 376.803033 135.564209 
L 376.01874 119.801854 
L 375.253348 109.970413 
L 374.505967 114.669116 
L 373.775768 134.401282 
L 373.06198 134.139755 
L 372.363881 112.249149 
L 371.680796 101.17321 
L 371.012092 96.227841 
L 370.357178 109.264639 
L 369.715495 129.526013 
L 369.086519 127.413108 
L 368.469757 102.711151 
L 367.864744 92.998717 
L 367.27104 97.381318 
L 366.68823 112.994986 
L 366.115922 133.640667 
L 365.553744 142.91462 
L 365.001343 129.760174 
L 364.458386 112.948533 
L 363.924554 106.67917 
L 363.399547 109.338907 
L 362.883076 120.797679 
L 362.374869 138.698109 
L 361.874666 138.280065 
L 360.89729 80.51979 
L 360.419653 62.476977 
L 359.949093 66.259814 
L 359.028384 119.994982 
L 358.577848 112.173854 
L 357.695507 70.771534 
L 357.263361 69.583542 
L 356.416318 119.885614 
L 356.001119 124.820991 
L 355.591278 126.008986 
L 355.186658 122.713958 
L 354.787128 124.970572 
L 354.392561 138.517299 
L 354.002836 142.35471 
L 353.617834 139.442305 
L 353.237443 137.904059 
L 352.861555 139.382728 
L 352.490062 143.439845 
L 352.122865 142.281359 
L 351.759864 136.430711 
L 351.400965 133.796797 
L 351.046076 135.936405 
L 350.695108 141.264656 
L 350.347976 144.84297 
L 350.004597 143.947293 
L 349.32878 134.473419 
L 348.996188 134.090146 
L 348.341273 144.931637 
L 348.018811 142.258043 
L 347.69959 131.23886 
L 347.383545 115.969412 
L 347.070614 108.54299 
L 346.760736 118.887176 
L 346.453852 133.5933 
L 346.149905 132.467703 
L 345.5506 111.571796 
L 345.255135 110.813811 
L 344.672325 134.909266 
L 344.384882 135.930427 
L 344.100017 125.308431 
L 343.817685 120.325904 
L 343.537839 125.900076 
L 343.260438 137.90569 
L 342.985439 144.897317 
L 342.7128 142.905178 
L 342.174444 123.298028 
L 341.908649 126.897975 
L 341.383642 141.816224 
L 341.124357 143.678217 
L 340.867171 138.316886 
L 340.358965 122.028872 
L 340.107879 120.081544 
L 339.611584 142.5096 
L 339.366314 142.939449 
L 338.881385 119.545031 
L 338.641669 118.451656 
L 338.167597 144.144058 
L 337.933188 138.14654 
L 337.469498 104.343381 
L 337.240166 105.938875 
L 336.786412 138.365713 
L 336.117709 100.957401 
L 335.8979 105.565742 
L 335.462794 138.987051 
L 335.247456 132.377986 
L 335.033568 119.859945 
L 334.821111 114.538802 
L 334.610066 116.983792 
L 334.400413 124.695118 
L 334.192135 138.62102 
L 333.985215 142.657844 
L 333.779633 131.683414 
L 333.372419 98.925836 
L 333.170754 99.199058 
L 332.771223 139.567073 
L 332.573327 138.138114 
L 332.181196 107.48965 
L 331.986931 105.839474 
L 331.411165 144.375772 
L 331.221539 140.988034 
L 330.84565 132.97631 
L 330.290028 144.783683 
L 329.924941 145.033829 
L 329.743959 144.3668 
L 329.38506 142.20988 
L 329.20712 142.996652 
L 329.030171 144.481444 
L 328.854202 143.042622 
L 328.505163 137.029952 
L 328.332072 137.605713 
L 327.988693 144.388064 
L 327.648986 143.050565 
L 327.480486 142.949755 
L 327.312875 143.107325 
L 327.146144 138.100879 
L 326.980283 129.528868 
L 326.815284 127.52947 
L 326.325368 143.458654 
L 325.842895 123.696878 
L 325.36764 143.873737 
L 325.054709 134.28574 
L 324.899393 134.592584 
L 324.591019 145.042275 
L 324.437948 143.296292 
L 324.134 131.044558 
L 323.983111 131.645672 
L 323.683465 141.877678 
L 323.534695 143.176908 
L 323.386619 140.026266 
L 323.092522 129.123771 
L 322.946489 134.880026 
L 322.801124 135.490203 
L 322.656421 135.415524 
L 322.512374 132.385026 
L 322.368978 125.406009 
L 322.226226 129.426223 
L 321.942633 144.092917 
L 321.80178 133.849542 
L 321.521934 96.281775 
L 321.382931 106.805992 
L 321.106736 143.852335 
L 320.969534 139.44935 
L 320.696895 113.883985 
L 320.561448 115.053165 
L 320.292275 143.56742 
L 320.158539 144.544386 
L 319.760677 130.02626 
L 319.629156 132.07072 
L 319.367737 143.487837 
L 319.23783 142.119142 
L 318.851267 101.368918 
L 318.469351 135.398602 
L 318.091974 82.265808 
L 317.967171 94.150912 
L 317.719027 140.081714 
L 317.595679 133.192569 
L 317.350409 107.465063 
L 316.98602 143.763152 
L 316.745396 130.792879 
L 316.625764 132.388037 
L 316.387844 143.930678 
L 316.269548 142.696712 
L 316.151692 139.951541 
L 316.034272 139.951752 
L 315.800725 144.683457 
L 315.684592 142.489616 
L 315.453593 134.788661 
L 315.33872 136.396146 
L 315.110214 144.763974 
L 314.996574 141.300356 
L 314.770508 120.878939 
L 314.658075 122.440181 
L 314.323145 145.065793 
L 313.99171 124.341924 
L 313.772659 137.748927 
L 313.555109 143.811738 
L 313.231552 134.314663 
L 313.124428 135.705948 
L 312.911257 145.039094 
L 312.805206 141.405673 
L 312.594161 121.741966 
L 312.489162 122.582921 
L 312.280199 143.885144 
L 311.96931 116.205118 
L 311.661434 142.56803 
L 311.45783 102.921711 
L 311.356515 109.030154 
L 311.154849 143.847815 
L 310.854731 70.940136 
L 310.755319 84.291338 
L 310.557423 140.610137 
L 310.458935 128.74914 
L 310.262871 80.62782 
L 309.971026 144.350748 
L 309.874337 137.093338 
L 309.681838 115.092006 
L 309.39526 144.955036 
L 309.300305 142.377123 
L 309.111244 129.890376 
L 309.017133 131.727073 
L 308.736464 144.567907 
L 308.643456 143.318098 
L 308.366055 123.127399 
L 308.091055 144.438436 
L 307.999915 141.608038 
L 307.818416 136.082956 
L 307.548098 142.861863 
L 307.369155 135.028491 
L 307.102617 144.52061 
L 307.014266 144.107635 
L 306.838298 137.353152 
L 306.750678 138.830726 
L 306.576159 143.40424 
L 306.402595 132.306339 
L 306.316167 134.110927 
L 306.229973 139.217605 
L 306.144013 139.189199 
L 305.88752 102.013232 
L 305.717668 132.589396 
L 305.633082 132.440214 
L 305.380665 86.163771 
L 305.130239 142.02341 
L 304.964378 106.879766 
L 304.881772 108.835762 
L 304.7172 145.117999 
L 304.471931 118.200974 
L 304.309464 143.937576 
L 304.228541 142.070459 
L 304.067311 132.722019 
L 303.906895 142.997548 
L 303.82699 142.088038 
L 303.66778 136.141626 
L 303.509365 139.242847 
L 303.351736 131.61446 
L 303.273213 133.754656 
L 303.194885 140.704946 
L 303.116749 139.302458 
L 302.883488 118.84108 
L 302.728927 143.483391 
L 302.651927 140.12446 
L 302.498486 91.872548 
L 302.422043 98.737531 
L 302.19381 142.486621 
L 302.042561 100.271072 
L 301.967206 101.433276 
L 301.742207 141.958175 
L 301.66756 137.479191 
L 301.51879 117.712291 
L 301.296935 143.467542 
L 301.223326 136.294704 
L 301.149887 127.703944 
L 301.076618 129.283317 
L 300.930584 143.733315 
L 300.712785 121.954284 
L 300.496469 143.310262 
L 300.353073 128.180822 
L 300.139185 144.250407 
L 299.926728 121.311216 
L 299.715682 142.579672 
L 299.57576 133.110657 
L 299.297752 143.474476 
L 299.228629 144.756565 
L 299.159655 144.095095 
L 298.953629 125.322308 
L 298.817017 143.501662 
L 298.748931 143.327218 
L 298.613195 121.846288 
L 298.545543 124.379522 
L 298.410672 144.485817 
L 298.209432 100.902302 
L 298.142634 112.587438 
L 298.009459 144.845649 
L 297.810738 111.548125 
L 297.613251 143.49761 
L 297.482273 129.353442 
L 297.416986 131.914879 
L 297.286812 144.877247 
L 297.221925 140.866845 
L 297.028056 114.583451 
L 296.835362 141.749224 
L 296.707546 104.150667 
L 296.64383 104.600548 
L 296.453447 144.788649 
L 296.390238 136.27265 
L 296.264197 123.819139 
L 296.138655 139.058831 
L 296.076069 138.060946 
L 295.889049 130.872145 
L 295.641389 141.13736 
L 295.579774 144.09965 
L 295.518279 140.455273 
L 295.395645 123.155359 
L 295.212576 143.877254 
L 295.151788 141.401928 
L 295.091115 136.031936 
L 295.030557 136.405204 
L 294.909788 145.146282 
L 294.849576 142.700116 
L 294.789477 138.416301 
L 294.729491 138.912454 
L 294.609859 144.197373 
L 294.431252 126.3004 
L 294.312736 143.88007 
L 294.253644 142.643216 
L 294.135787 127.881203 
L 294.077023 131.697782 
L 293.959819 145.120265 
L 293.78482 132.830317 
L 293.61078 144.883097 
L 293.495281 140.241558 
L 293.437688 140.352407 
L 293.265535 144.594785 
L 293.094309 135.381101 
L 293.037439 136.882558 
L 292.924002 143.5217 
L 292.754603 123.074176 
L 292.698337 128.76823 
L 292.64217 141.918928 
L 292.586103 141.852325 
L 292.418492 106.661632 
L 292.25176 143.496412 
L 292.196377 131.720188 
L 292.0859 102.196207 
L 291.920901 144.140306 
L 291.866091 143.122755 
L 291.702227 121.563425 
L 291.539204 145.109616 
L 291.485048 138.45776 
L 291.377013 116.055961 
L 291.215647 143.242275 
L 291.055096 104.220116 
L 290.895353 143.603861 
L 290.789302 110.356922 
L 290.736409 111.231637 
L 290.578256 142.229009 
L 290.525713 140.865813 
L 290.473257 136.542166 
L 290.420887 137.038272 
L 290.212268 142.044871 
L 290.056697 136.929656 
L 290.005009 139.636481 
L 289.953405 143.459038 
L 289.901885 142.552873 
L 289.799094 132.980319 
L 289.747824 135.433359 
L 289.64553 143.142523 
L 289.543564 133.972306 
L 289.492704 136.980784 
L 289.391227 144.760559 
L 289.239617 122.71833 
L 289.088727 143.003925 
L 288.988531 121.546247 
L 288.938551 123.805854 
L 288.838826 144.049806 
L 288.789081 143.575277 
L 288.689824 138.35032 
L 288.590876 144.269288 
L 288.541518 143.953393 
L 288.44303 138.197105 
L 288.393901 138.816713 
L 288.246966 144.810352 
L 288.198139 143.748028 
L 288.052105 123.440749 
L 288.003576 131.520058 
L 287.90674 144.030377 
L 287.762037 122.982534 
L 287.713949 129.808261 
L 287.617991 140.635027 
L 287.474594 115.962635 
L 287.426939 124.569675 
L 287.331842 143.7138 
L 287.284401 140.66962 
L 287.142499 117.391216 
L 287.001229 145.152 
L 286.954278 140.361634 
L 286.860584 120.803236 
L 286.81384 128.609574 
L 286.720559 142.795399 
L 286.627551 115.704632 
L 286.581149 118.33337 
L 286.488548 142.501289 
L 286.442348 137.467358 
L 286.35015 114.893288 
L 286.304151 122.992439 
L 286.212353 144.83995 
L 286.166553 136.963891 
L 286.120819 128.637308 
L 286.07515 129.314858 
L 285.984011 144.888004 
L 285.938538 142.461235 
L 285.847789 131.51898 
L 285.802512 135.500284 
L 285.71215 144.285826 
L 285.667065 142.616385 
L 285.622044 142.389586 
L 285.532193 145.113088 
L 285.487363 143.481888 
L 285.442596 141.881468 
L 285.397892 142.350555 
L 285.35325 144.157977 
L 285.308672 143.845532 
L 285.219702 140.034573 
L 285.13098 145.047555 
L 285.086713 143.614947 
L 284.998361 132.519092 
L 284.954278 135.285795 
L 284.866294 145.060039 
L 284.822393 141.778217 
L 284.734773 129.978924 
L 284.691053 135.042889 
L 284.603794 142.366465 
L 284.560255 140.803345 
L 284.516774 137.754765 
L 284.473354 137.948932 
L 284.38669 143.885163 
L 284.343447 143.072214 
L 284.214069 132.664638 
L 284.128109 143.434721 
L 284.085216 143.239268 
L 283.956883 118.876462 
L 283.871615 144.382681 
L 283.829067 140.061404 
L 283.744141 111.230718 
L 283.701763 116.406495 
L 283.617177 144.738166 
L 283.574968 133.767154 
L 283.490718 110.967737 
L 283.448677 119.391037 
L 283.36476 144.205622 
L 283.322885 139.872803 
L 283.239301 130.137713 
L 283.19759 135.961299 
L 283.155935 135.738105 
L 283.114334 130.876499 
L 283.072788 132.527786 
L 282.989858 143.622595 
L 282.948474 143.020132 
L 282.865867 129.032777 
L 282.824644 133.407775 
L 282.742358 143.762632 
L 282.660285 125.691191 
L 282.619328 127.647729 
L 282.537572 139.548777 
L 282.496773 133.404059 
L 282.415331 118.698774 
L 282.374689 128.045078 
L 282.334098 139.990063 
L 282.253072 132.956911 
L 282.212636 125.943797 
L 282.172252 126.979717 
L 282.091637 144.025169 
L 282.051406 141.472233 
L 281.971097 129.35852 
L 281.931018 130.41296 
L 281.811085 144.037524 
L 281.771208 141.16513 
L 281.691603 134.954737 
L 281.651876 137.853603 
L 281.572569 142.852626 
L 281.53299 141.248006 
L 281.49346 140.611892 
L 281.45398 141.59395 
L 281.375165 144.621265 
L 281.335831 142.439874 
L 281.257309 139.083425 
L 281.21812 139.958371 
L 281.139888 143.617725 
L 281.100844 142.165161 
L 281.061848 141.777528 
L 280.945147 135.714757 
L 280.906341 137.238168 
L 280.828872 143.192856 
L 280.790209 139.404895 
L 280.713022 127.369257 
L 280.674499 134.886796 
L 280.636023 144.079357 
L 280.597593 142.101634 
L 280.482582 107.784192 
L 280.406138 140.875697 
L 280.367985 134.886568 
L 280.291817 116.835626 
L 280.253801 121.935511 
L 280.177906 140.06987 
L 280.140026 126.017591 
L 280.064401 113.082504 
L 279.988957 141.84417 
L 279.951301 135.768145 
L 279.876124 109.691292 
L 279.838602 111.524528 
L 279.763691 144.008321 
L 279.688957 136.500982 
L 279.614397 132.239479 
L 279.577183 133.976771 
L 279.540013 141.359786 
L 279.465802 134.959002 
L 279.391764 132.836487 
L 279.28103 144.781641 
L 279.244204 141.617239 
L 279.17068 126.183093 
L 279.133982 126.907185 
L 279.060713 139.609019 
L 278.987612 138.425737 
L 278.951125 137.687211 
L 278.878276 143.78596 
L 278.805593 140.960895 
L 278.769314 139.448639 
L 278.733077 140.117734 
L 278.660725 144.080828 
L 278.480565 127.096024 
L 278.408785 137.967922 
L 278.372957 129.599743 
L 278.30142 117.326377 
L 278.265712 119.500742 
L 278.194416 136.277539 
L 278.12328 129.810131 
L 278.087772 129.00823 
L 278.016874 133.075071 
L 277.946134 113.00693 
L 277.910823 116.292226 
L 277.840319 132.693012 
L 277.805125 132.001739 
L 277.734855 112.796226 
L 277.699778 117.393134 
L 277.594778 142.766801 
L 277.559856 131.690511 
L 277.524971 127.391964 
L 277.490125 129.789728 
L 277.385815 143.063845 
L 277.281847 121.089819 
L 277.247267 122.194009 
L 277.178218 142.748648 
L 277.14375 139.377141 
L 277.074927 119.202819 
L 277.006251 130.040522 
L 276.971969 140.738797 
L 276.903516 130.495001 
L 276.869345 126.99733 
L 276.83521 129.723247 
L 276.767051 142.127524 
L 276.733026 133.560079 
L 276.665086 122.927343 
L 276.63117 125.590393 
L 276.563446 142.704316 
L 276.529639 137.378366 
L 276.428431 119.955117 
L 276.394767 123.997158 
L 276.327545 143.274908 
L 276.293988 135.708749 
L 276.226979 114.374131 
L 276.193527 114.755763 
L 276.12673 138.612332 
L 276.060072 126.602728 
L 275.993554 113.677209 
L 275.960348 125.316236 
L 275.927176 128.366163 
L 275.860935 128.203435 
L 275.728868 120.8234 
L 275.695936 122.176786 
L 275.597347 132.663662 
L 275.564551 125.738758 
L 275.53179 115.339052 
L 275.466368 126.467967 
L 275.401081 141.21557 
L 275.368488 136.479369 
L 275.303401 124.768022 
L 275.270908 128.114621 
L 275.173627 140.366348 
L 275.141266 131.082646 
L 275.076643 124.795799 
L 275.04438 127.806653 
L 274.979954 137.327042 
L 274.94779 130.30664 
L 274.915658 124.467077 
L 274.851492 131.942917 
L 274.787455 141.535715 
L 274.755485 134.065536 
L 274.723547 127.414339 
L 274.691641 130.43576 
L 274.627926 145.042432 
L 274.596116 138.032624 
L 274.532591 123.712702 
L 274.469193 129.685867 
L 274.405922 144.793966 
L 274.374333 136.707185 
L 274.279756 108.498473 
L 274.248293 114.085584 
L 274.185459 143.254034 
L 274.154089 133.129084 
L 274.091442 119.211698 
L 274.060164 127.03298 
L 274.028918 140.633522 
L 273.997702 132.347546 
L 273.904238 104.13918 
L 273.873144 116.569539 
L 273.84208 128.059135 
L 273.780045 110.507022 
L 273.749072 111.44844 
L 273.502374 142.533276 
L 273.410354 124.30727 
L 273.37974 126.685456 
L 273.3186 142.295603 
L 273.257577 138.486199 
L 273.166263 132.758289 
L 273.07521 143.257108 
L 273.014653 142.679569 
L 272.954211 143.273809 
L 272.893884 138.326929 
L 272.833671 141.756547 
L 272.803607 142.568663 
L 272.773572 141.228801 
L 272.713587 126.157805 
L 272.683636 126.810941 
" style="fill:none;stroke:#1f77b4;stroke-linecap:square;stroke-width:1.5;"/>
   </g>
   <g id="patch_3">
    <path d="M 265.92 150.089143 
L 265.92 41.472 
" style="fill:none;stroke:#000000;stroke-linecap:square;stroke-linejoin:miter;stroke-width:0.8;"/>
   </g>
   <g id="patch_4">
    <path d="M 414.72 150.089143 
L 414.72 41.472 
" style="fill:none;stroke:#000000;stroke-linecap:square;stroke-linejoin:miter;stroke-width:0.8;"/>
   </g>
   <g id="patch_5">
    <path d="M 265.92 150.089143 
L 414.72 150.089143 
" style="fill:none;stroke:#000000;stroke-linecap:square;stroke-linejoin:miter;stroke-width:0.8;"/>
   </g>
   <g id="patch_6">
    <path d="M 265.92 41.472 
L 414.72 41.472 
" style="fill:none;stroke:#000000;stroke-linecap:square;stroke-linejoin:miter;stroke-width:0.8;"/>
   </g>
   <g id="text_8">
    <!-- Periodogram -->
    <g transform="translate(307.698125 35.472)scale(0.1 -0.1)">
     <defs>
      <path d="M 52.484375 46.6875 
L 52.484375 1.125 
Q 52.484375 -10.0625 46.328125 -16.140625 
Q 40.1875 -22.21875 28.8125 -22.21875 
Q 23.6875 -22.21875 19 -21.28125 
Q 14.3125 -20.359375 10.015625 -18.5 
L 10.015625 -7.625 
L 14.703125 -7.625 
Q 15.578125 -12.703125 18.84375 -15.046875 
Q 22.125 -17.390625 28.21875 -17.390625 
Q 36.140625 -17.390625 39.8125 -12.921875 
Q 43.5 -8.453125 43.5 1.125 
L 43.5 8.109375 
Q 40.875 3.21875 36.796875 0.890625 
Q 32.71875 -1.421875 26.703125 -1.421875 
Q 17.140625 -1.421875 11.0625 6.171875 
Q 4.984375 13.765625 4.984375 25.984375 
Q 4.984375 38.1875 11.03125 45.75 
Q 17.09375 53.328125 26.703125 53.328125 
Q 32.71875 53.328125 36.796875 51 
Q 40.875 48.6875 43.5 43.796875 
L 43.5 51.90625 
L 61.078125 51.90625 
L 61.078125 46.6875 
z
M 43.5 28.515625 
Q 43.5 37.84375 39.90625 42.765625 
Q 36.328125 47.703125 29.5 47.703125 
Q 22.5625 47.703125 19.015625 42.234375 
Q 15.484375 36.765625 15.484375 25.984375 
Q 15.484375 15.234375 19.015625 9.71875 
Q 22.5625 4.203125 29.5 4.203125 
Q 36.328125 4.203125 39.90625 9.109375 
Q 43.5 14.015625 43.5 23.390625 
z
" id="DejaVuSerif-103"/>
      <path d="M 39.796875 16.3125 
L 39.796875 27.296875 
L 28.21875 27.296875 
Q 21.53125 27.296875 18.25 24.40625 
Q 14.984375 21.53125 14.984375 15.578125 
Q 14.984375 10.15625 18.296875 6.984375 
Q 21.625 3.8125 27.296875 3.8125 
Q 32.90625 3.8125 36.34375 7.28125 
Q 39.796875 10.75 39.796875 16.3125 
z
M 48.78125 32.421875 
L 48.78125 5.171875 
L 56.78125 5.171875 
L 56.78125 0 
L 39.796875 0 
L 39.796875 5.609375 
Q 36.8125 2 32.90625 0.28125 
Q 29 -1.421875 23.78125 -1.421875 
Q 15.140625 -1.421875 10.0625 3.171875 
Q 4.984375 7.765625 4.984375 15.578125 
Q 4.984375 23.640625 10.796875 28.078125 
Q 16.609375 32.515625 27.203125 32.515625 
L 39.796875 32.515625 
L 39.796875 36.078125 
Q 39.796875 42 36.203125 45.234375 
Q 32.625 48.484375 26.125 48.484375 
Q 20.75 48.484375 17.578125 46.046875 
Q 14.40625 43.609375 13.625 38.8125 
L 8.984375 38.8125 
L 8.984375 49.3125 
Q 13.671875 51.3125 18.09375 52.3125 
Q 22.515625 53.328125 26.703125 53.328125 
Q 37.5 53.328125 43.140625 47.96875 
Q 48.78125 42.625 48.78125 32.421875 
z
" id="DejaVuSerif-97"/>
      <path d="M 51.8125 41.796875 
Q 54.390625 47.515625 58.421875 50.421875 
Q 62.453125 53.328125 67.828125 53.328125 
Q 75.984375 53.328125 79.984375 48.265625 
Q 83.984375 43.21875 83.984375 33.015625 
L 83.984375 5.171875 
L 92.09375 5.171875 
L 92.09375 0 
L 67.1875 0 
L 67.1875 5.171875 
L 75 5.171875 
L 75 31.984375 
Q 75 39.9375 72.65625 43.3125 
Q 70.3125 46.6875 64.890625 46.6875 
Q 58.890625 46.6875 55.734375 42.140625 
Q 52.59375 37.59375 52.59375 28.90625 
L 52.59375 5.171875 
L 60.40625 5.171875 
L 60.40625 0 
L 35.796875 0 
L 35.796875 5.171875 
L 43.609375 5.171875 
L 43.609375 32.328125 
Q 43.609375 40.09375 41.265625 43.390625 
Q 38.921875 46.6875 33.5 46.6875 
Q 27.484375 46.6875 24.328125 42.140625 
Q 21.1875 37.59375 21.1875 28.90625 
L 21.1875 5.171875 
L 29 5.171875 
L 29 0 
L 4.109375 0 
L 4.109375 5.171875 
L 12.203125 5.171875 
L 12.203125 46.78125 
L 3.609375 46.78125 
L 3.609375 51.90625 
L 21.1875 51.90625 
L 21.1875 42.671875 
Q 23.6875 47.859375 27.53125 50.59375 
Q 31.390625 53.328125 36.28125 53.328125 
Q 42.328125 53.328125 46.375 50.3125 
Q 50.4375 47.3125 51.8125 41.796875 
z
" id="DejaVuSerif-109"/>
     </defs>
     <use xlink:href="#DejaVuSerif-80"/>
     <use x="62.785156" xlink:href="#DejaVuSerif-101"/>
     <use x="121.964844" xlink:href="#DejaVuSerif-114"/>
     <use x="169.767578" xlink:href="#DejaVuSerif-105"/>
     <use x="201.75" xlink:href="#DejaVuSerif-111"/>
     <use x="261.955078" xlink:href="#DejaVuSerif-100"/>
     <use x="325.96875" xlink:href="#DejaVuSerif-111"/>
     <use x="386.173828" xlink:href="#DejaVuSerif-103"/>
     <use x="450.1875" xlink:href="#DejaVuSerif-114"/>
     <use x="497.990234" xlink:href="#DejaVuSerif-97"/>
     <use x="557.609375" xlink:href="#DejaVuSerif-109"/>
    </g>
   </g>
   <g id="legend_1">
    <g id="patch_7">
     <path d="M 419.648125 108.123071 
L 454.431875 108.123071 
Q 455.231875 108.123071 455.231875 107.323071 
L 455.231875 84.238071 
Q 455.231875 83.438071 454.431875 83.438071 
L 419.648125 83.438071 
Q 418.848125 83.438071 418.848125 84.238071 
L 418.848125 107.323071 
Q 418.848125 108.123071 419.648125 108.123071 
z
" style="fill:#ffffff;opacity:0.8;stroke:#cccccc;stroke-linejoin:miter;"/>
    </g>
    <g id="line2d_23">
     <path d="M 420.448125 86.677446 
L 428.448125 86.677446 
" style="fill:none;stroke:#808080;stroke-dasharray:5.55,2.4;stroke-dashoffset:0;stroke-width:1.5;"/>
    </g>
    <g id="text_9">
     <!-- 99.9% FAP -->
     <g transform="translate(431.648125 88.077446)scale(0.04 -0.04)">
      <defs>
       <path d="M 46.78125 32.671875 
Q 43.5 29 39.25 27.1875 
Q 35.015625 25.390625 29.6875 25.390625 
Q 18.84375 25.390625 12.5625 31.9375 
Q 6.296875 38.484375 6.296875 49.8125 
Q 6.296875 60.890625 13.109375 67.546875 
Q 19.921875 74.21875 31.296875 74.21875 
Q 43.65625 74.21875 50.265625 65.015625 
Q 56.890625 55.8125 56.890625 38.71875 
Q 56.890625 19.578125 49.015625 9.078125 
Q 41.15625 -1.421875 26.90625 -1.421875 
Q 23.046875 -1.421875 18.796875 -0.6875 
Q 14.546875 0.046875 10.109375 1.515625 
L 10.109375 13.625 
L 15.578125 13.625 
Q 16.21875 8.6875 19.390625 6.046875 
Q 22.5625 3.421875 27.875 3.421875 
Q 37.359375 3.421875 41.984375 10.5625 
Q 46.625 17.71875 46.78125 32.671875 
z
M 30.90625 69.390625 
Q 23.96875 69.390625 20.28125 64.328125 
Q 16.609375 59.28125 16.609375 49.8125 
Q 16.609375 40.328125 20.28125 35.25 
Q 23.96875 30.171875 30.90625 30.171875 
Q 37.84375 30.171875 41.53125 35.078125 
Q 45.21875 39.984375 45.21875 49.21875 
Q 45.21875 58.9375 41.5 64.15625 
Q 37.796875 69.390625 30.90625 69.390625 
z
" id="DejaVuSerif-57"/>
       <path d="M 22.40625 69.671875 
Q 18.109375 69.671875 15.6875 65.625 
Q 13.28125 61.578125 13.28125 54.296875 
Q 13.28125 47.125 15.75 43.015625 
Q 18.21875 38.921875 22.40625 38.921875 
Q 26.5625 38.921875 28.96875 43 
Q 31.390625 47.078125 31.390625 54.296875 
Q 31.390625 61.53125 28.96875 65.59375 
Q 26.5625 69.671875 22.40625 69.671875 
z
M 72.703125 33.890625 
Q 68.453125 33.890625 66.03125 29.78125 
Q 63.625 25.6875 63.625 18.40625 
Q 63.625 11.234375 66.0625 7.15625 
Q 68.5 3.078125 72.703125 3.078125 
Q 76.90625 3.078125 79.296875 7.15625 
Q 81.6875 11.234375 81.6875 18.40625 
Q 81.6875 25.640625 79.265625 29.765625 
Q 76.859375 33.890625 72.703125 33.890625 
z
M 72.703125 38.28125 
Q 80.421875 38.28125 84.953125 32.90625 
Q 89.5 27.546875 89.5 18.40625 
Q 89.5 9.28125 84.9375 3.921875 
Q 80.375 -1.421875 72.703125 -1.421875 
Q 64.890625 -1.421875 60.34375 3.921875 
Q 55.8125 9.28125 55.8125 18.40625 
Q 55.8125 27.59375 60.375 32.9375 
Q 64.9375 38.28125 72.703125 38.28125 
z
M 66.609375 74.21875 
L 74.03125 74.21875 
L 28.421875 -1.421875 
L 21 -1.421875 
z
M 22.3125 74.21875 
Q 30.03125 74.21875 34.609375 68.875 
Q 39.203125 63.53125 39.203125 54.390625 
Q 39.203125 45.171875 34.640625 39.84375 
Q 30.078125 34.515625 22.3125 34.515625 
Q 14.546875 34.515625 10.03125 39.859375 
Q 5.515625 45.21875 5.515625 54.390625 
Q 5.515625 63.484375 10.046875 68.84375 
Q 14.59375 74.21875 22.3125 74.21875 
z
" id="DejaVuSerif-37"/>
       <path d="M 5.515625 0 
L 5.515625 5.171875 
L 14.796875 5.171875 
L 14.796875 67.671875 
L 5.515625 67.671875 
L 5.515625 72.90625 
L 65.1875 72.90625 
L 65.1875 56.6875 
L 59.1875 56.6875 
L 59.1875 66.890625 
L 24.703125 66.890625 
L 24.703125 42.484375 
L 49.609375 42.484375 
L 49.609375 51.609375 
L 55.609375 51.609375 
L 55.609375 27.390625 
L 49.609375 27.390625 
L 49.609375 36.53125 
L 24.703125 36.53125 
L 24.703125 5.171875 
L 36.375 5.171875 
L 36.375 0 
z
" id="DejaVuSerif-70"/>
       <path d="M 20.015625 26.421875 
L 46.78125 26.421875 
L 33.40625 61.078125 
z
M -0.59375 0 
L -0.59375 5.171875 
L 5.8125 5.171875 
L 31.78125 72.90625 
L 39.984375 72.90625 
L 66.015625 5.171875 
L 73.1875 5.171875 
L 73.1875 0 
L 46.6875 0 
L 46.6875 5.171875 
L 54.78125 5.171875 
L 48.6875 21.1875 
L 18.015625 21.1875 
L 11.921875 5.171875 
L 19.921875 5.171875 
L 19.921875 0 
z
" id="DejaVuSerif-65"/>
      </defs>
      <use xlink:href="#DejaVuSerif-57"/>
      <use x="63.623047" xlink:href="#DejaVuSerif-57"/>
      <use x="127.246094" xlink:href="#DejaVuSerif-46"/>
      <use x="159.033203" xlink:href="#DejaVuSerif-57"/>
      <use x="222.65625" xlink:href="#DejaVuSerif-37"/>
      <use x="317.675781" xlink:href="#DejaVuSerif-32"/>
      <use x="349.462891" xlink:href="#DejaVuSerif-70"/>
      <use x="410.097656" xlink:href="#DejaVuSerif-65"/>
      <use x="482.314453" xlink:href="#DejaVuSerif-80"/>
     </g>
    </g>
    <g id="line2d_24">
     <path d="M 420.448125 92.548696 
L 428.448125 92.548696 
" style="fill:none;stroke:#a9a9a9;stroke-dasharray:5.55,2.4;stroke-dashoffset:0;stroke-width:1.5;"/>
    </g>
    <g id="text_10">
     <!-- 99.0% FAP -->
     <g transform="translate(431.648125 93.948696)scale(0.04 -0.04)">
      <use xlink:href="#DejaVuSerif-57"/>
      <use x="63.623047" xlink:href="#DejaVuSerif-57"/>
      <use x="127.246094" xlink:href="#DejaVuSerif-46"/>
      <use x="159.033203" xlink:href="#DejaVuSerif-48"/>
      <use x="222.65625" xlink:href="#DejaVuSerif-37"/>
      <use x="317.675781" xlink:href="#DejaVuSerif-32"/>
      <use x="349.462891" xlink:href="#DejaVuSerif-70"/>
      <use x="410.097656" xlink:href="#DejaVuSerif-65"/>
      <use x="482.314453" xlink:href="#DejaVuSerif-80"/>
     </g>
    </g>
    <g id="line2d_25">
     <path d="M 420.448125 98.419946 
L 428.448125 98.419946 
" style="fill:none;stroke:#c0c0c0;stroke-dasharray:5.55,2.4;stroke-dashoffset:0;stroke-width:1.5;"/>
    </g>
    <g id="text_11">
     <!-- 95.0% FAP -->
     <g transform="translate(431.648125 99.819946)scale(0.04 -0.04)">
      <defs>
       <path d="M 50.296875 72.90625 
L 50.296875 64.890625 
L 16.890625 64.890625 
L 16.890625 44 
Q 19.4375 45.75 22.828125 46.625 
Q 26.21875 47.515625 30.421875 47.515625 
Q 42.234375 47.515625 49.0625 40.96875 
Q 55.90625 34.421875 55.90625 23.09375 
Q 55.90625 11.53125 49 5.046875 
Q 42.09375 -1.421875 29.59375 -1.421875 
Q 24.5625 -1.421875 19.28125 -0.1875 
Q 14.015625 1.03125 8.5 3.515625 
L 8.5 17.671875 
L 14.015625 17.671875 
Q 14.453125 10.75 18.421875 7.078125 
Q 22.40625 3.421875 29.59375 3.421875 
Q 37.3125 3.421875 41.453125 8.5 
Q 45.609375 13.578125 45.609375 23.09375 
Q 45.609375 32.5625 41.484375 37.609375 
Q 37.359375 42.671875 29.59375 42.671875 
Q 25.203125 42.671875 21.84375 41.109375 
Q 18.5 39.546875 15.921875 36.28125 
L 11.71875 36.28125 
L 11.71875 72.90625 
z
" id="DejaVuSerif-53"/>
      </defs>
      <use xlink:href="#DejaVuSerif-57"/>
      <use x="63.623047" xlink:href="#DejaVuSerif-53"/>
      <use x="127.246094" xlink:href="#DejaVuSerif-46"/>
      <use x="159.033203" xlink:href="#DejaVuSerif-48"/>
      <use x="222.65625" xlink:href="#DejaVuSerif-37"/>
      <use x="317.675781" xlink:href="#DejaVuSerif-32"/>
      <use x="349.462891" xlink:href="#DejaVuSerif-70"/>
      <use x="410.097656" xlink:href="#DejaVuSerif-65"/>
      <use x="482.314453" xlink:href="#DejaVuSerif-80"/>
     </g>
    </g>
    <g id="line2d_26">
     <path d="M 420.448125 104.291196 
L 428.448125 104.291196 
" style="fill:none;stroke:#d3d3d3;stroke-dasharray:5.55,2.4;stroke-dashoffset:0;stroke-width:1.5;"/>
    </g>
    <g id="text_12">
     <!-- 90.0% FAP -->
     <g transform="translate(431.648125 105.691196)scale(0.04 -0.04)">
      <use xlink:href="#DejaVuSerif-57"/>
      <use x="63.623047" xlink:href="#DejaVuSerif-48"/>
      <use x="127.246094" xlink:href="#DejaVuSerif-46"/>
      <use x="159.033203" xlink:href="#DejaVuSerif-48"/>
      <use x="222.65625" xlink:href="#DejaVuSerif-37"/>
      <use x="317.675781" xlink:href="#DejaVuSerif-32"/>
      <use x="349.462891" xlink:href="#DejaVuSerif-70"/>
      <use x="410.097656" xlink:href="#DejaVuSerif-65"/>
      <use x="482.314453" xlink:href="#DejaVuSerif-80"/>
     </g>
    </g>
   </g>
  </g>
  <g id="axes_2">
   <g id="patch_8">
    <path d="M 57.6 150.089143 
L 206.4 150.089143 
L 206.4 41.472 
L 57.6 41.472 
z
" style="fill:#ffffff;"/>
   </g>
   <g id="PathCollection_1">
    <defs>
     <path d="M 0 0.707107 
C 0.187527 0.707107 0.367398 0.632602 0.5 0.5 
C 0.632602 0.367398 0.707107 0.187527 0.707107 0 
C 0.707107 -0.187527 0.632602 -0.367398 0.5 -0.5 
C 0.367398 -0.632602 0.187527 -0.707107 0 -0.707107 
C -0.187527 -0.707107 -0.367398 -0.632602 -0.5 -0.5 
C -0.632602 -0.367398 -0.707107 -0.187527 -0.707107 0 
C -0.707107 0.187527 -0.632602 0.367398 -0.5 0.5 
C -0.367398 0.632602 -0.187527 0.707107 0 0.707107 
z
" id="mc90f45020f" style="stroke:#1f77b4;"/>
    </defs>
    <g clip-path="url(#p2de92371cd)">
     <use style="fill:#1f77b4;stroke:#1f77b4;" x="114.719417" xlink:href="#mc90f45020f" y="61.759915"/>
     <use style="fill:#1f77b4;stroke:#1f77b4;" x="114.720527" xlink:href="#mc90f45020f" y="61.32691"/>
     <use style="fill:#1f77b4;stroke:#1f77b4;" x="105.793228" xlink:href="#mc90f45020f" y="64.489328"/>
     <use style="fill:#1f77b4;stroke:#1f77b4;" x="105.794337" xlink:href="#mc90f45020f" y="64.482576"/>
     <use style="fill:#1f77b4;stroke:#1f77b4;" x="110.794558" xlink:href="#mc90f45020f" y="99.578809"/>
     <use style="fill:#1f77b4;stroke:#1f77b4;" x="117.905509" xlink:href="#mc90f45020f" y="59.644335"/>
     <use style="fill:#1f77b4;stroke:#1f77b4;" x="117.913218" xlink:href="#mc90f45020f" y="58.964905"/>
     <use style="fill:#1f77b4;stroke:#1f77b4;" x="111.477129" xlink:href="#mc90f45020f" y="77.096435"/>
     <use style="fill:#1f77b4;stroke:#1f77b4;" x="113.870452" xlink:href="#mc90f45020f" y="86.653985"/>
     <use style="fill:#1f77b4;stroke:#1f77b4;" x="113.871534" xlink:href="#mc90f45020f" y="87.354802"/>
     <use style="fill:#1f77b4;stroke:#1f77b4;" x="118.712254" xlink:href="#mc90f45020f" y="95.968522"/>
     <use style="fill:#1f77b4;stroke:#1f77b4;" x="118.713363" xlink:href="#mc90f45020f" y="97.400655"/>
     <use style="fill:#1f77b4;stroke:#1f77b4;" x="123.427968" xlink:href="#mc90f45020f" y="81.460632"/>
     <use style="fill:#1f77b4;stroke:#1f77b4;" x="123.429077" xlink:href="#mc90f45020f" y="81.703949"/>
     <use style="fill:#1f77b4;stroke:#1f77b4;" x="125.8003" xlink:href="#mc90f45020f" y="79.909419"/>
     <use style="fill:#1f77b4;stroke:#1f77b4;" x="125.801409" xlink:href="#mc90f45020f" y="78.685863"/>
     <use style="fill:#1f77b4;stroke:#1f77b4;" x="128.324119" xlink:href="#mc90f45020f" y="144.53446"/>
     <use style="fill:#1f77b4;stroke:#1f77b4;" x="128.325201" xlink:href="#mc90f45020f" y="145.152"/>
     <use style="fill:#1f77b4;stroke:#1f77b4;" x="130.616673" xlink:href="#mc90f45020f" y="85.321513"/>
     <use style="fill:#1f77b4;stroke:#1f77b4;" x="130.617782" xlink:href="#mc90f45020f" y="83.185987"/>
     <use style="fill:#1f77b4;stroke:#1f77b4;" x="64.363636" xlink:href="#mc90f45020f" y="98.035182"/>
     <use style="fill:#1f77b4;stroke:#1f77b4;" x="64.364718" xlink:href="#mc90f45020f" y="97.868017"/>
     <use style="fill:#1f77b4;stroke:#1f77b4;" x="85.943783" xlink:href="#mc90f45020f" y="67.819818"/>
     <use style="fill:#1f77b4;stroke:#1f77b4;" x="102.577698" xlink:href="#mc90f45020f" y="62.279767"/>
     <use style="fill:#1f77b4;stroke:#1f77b4;" x="104.962647" xlink:href="#mc90f45020f" y="66.969428"/>
     <use style="fill:#1f77b4;stroke:#1f77b4;" x="107.359049" xlink:href="#mc90f45020f" y="73.884493"/>
     <use style="fill:#1f77b4;stroke:#1f77b4;" x="109.750487" xlink:href="#mc90f45020f" y="52.498544"/>
     <use style="fill:#1f77b4;stroke:#1f77b4;" x="112.156427" xlink:href="#mc90f45020f" y="66.185025"/>
     <use style="fill:#1f77b4;stroke:#1f77b4;" x="72.295945" xlink:href="#mc90f45020f" y="73.702455"/>
     <use style="fill:#1f77b4;stroke:#1f77b4;" x="93.377096" xlink:href="#mc90f45020f" y="63.391677"/>
     <use style="fill:#1f77b4;stroke:#1f77b4;" x="96.122503" xlink:href="#mc90f45020f" y="48.234006"/>
     <use style="fill:#1f77b4;stroke:#1f77b4;" x="98.562551" xlink:href="#mc90f45020f" y="58.282889"/>
     <use style="fill:#1f77b4;stroke:#1f77b4;" x="115.28412" xlink:href="#mc90f45020f" y="73.400437"/>
     <use style="fill:#1f77b4;stroke:#1f77b4;" x="122.517526" xlink:href="#mc90f45020f" y="79.042041"/>
     <use style="fill:#1f77b4;stroke:#1f77b4;" x="80.567531" xlink:href="#mc90f45020f" y="64.47059"/>
     <use style="fill:#1f77b4;stroke:#1f77b4;" x="90.150862" xlink:href="#mc90f45020f" y="67.2358"/>
     <use style="fill:#1f77b4;stroke:#1f77b4;" x="114.091501" xlink:href="#mc90f45020f" y="96.5668"/>
     <use style="fill:#1f77b4;stroke:#1f77b4;" x="130.989754" xlink:href="#mc90f45020f" y="112.106505"/>
     <use style="fill:#1f77b4;stroke:#1f77b4;" x="87.359145" xlink:href="#mc90f45020f" y="46.409143"/>
     <use style="fill:#1f77b4;stroke:#1f77b4;" x="68.903169" xlink:href="#mc90f45020f" y="103.969101"/>
     <use style="fill:#1f77b4;stroke:#1f77b4;" x="68.904251" xlink:href="#mc90f45020f" y="101.503483"/>
     <use style="fill:#1f77b4;stroke:#1f77b4;" x="71.237844" xlink:href="#mc90f45020f" y="120.497237"/>
     <use style="fill:#1f77b4;stroke:#1f77b4;" x="71.238926" xlink:href="#mc90f45020f" y="123.249396"/>
     <use style="fill:#1f77b4;stroke:#1f77b4;" x="73.53037" xlink:href="#mc90f45020f" y="62.346589"/>
     <use style="fill:#1f77b4;stroke:#1f77b4;" x="73.531452" xlink:href="#mc90f45020f" y="61.952188"/>
    </g>
   </g>
   <g id="PathCollection_2">
    <g clip-path="url(#p2de92371cd)">
     <use style="fill:#1f77b4;stroke:#1f77b4;" x="183.366027" xlink:href="#mc90f45020f" y="61.759915"/>
     <use style="fill:#1f77b4;stroke:#1f77b4;" x="183.367136" xlink:href="#mc90f45020f" y="61.32691"/>
     <use style="fill:#1f77b4;stroke:#1f77b4;" x="174.439837" xlink:href="#mc90f45020f" y="64.489328"/>
     <use style="fill:#1f77b4;stroke:#1f77b4;" x="174.440947" xlink:href="#mc90f45020f" y="64.482576"/>
     <use style="fill:#1f77b4;stroke:#1f77b4;" x="179.441168" xlink:href="#mc90f45020f" y="99.578809"/>
     <use style="fill:#1f77b4;stroke:#1f77b4;" x="186.552119" xlink:href="#mc90f45020f" y="59.644335"/>
     <use style="fill:#1f77b4;stroke:#1f77b4;" x="186.559828" xlink:href="#mc90f45020f" y="58.964905"/>
     <use style="fill:#1f77b4;stroke:#1f77b4;" x="180.123738" xlink:href="#mc90f45020f" y="77.096435"/>
     <use style="fill:#1f77b4;stroke:#1f77b4;" x="182.517062" xlink:href="#mc90f45020f" y="86.653985"/>
     <use style="fill:#1f77b4;stroke:#1f77b4;" x="182.518143" xlink:href="#mc90f45020f" y="87.354802"/>
     <use style="fill:#1f77b4;stroke:#1f77b4;" x="187.358863" xlink:href="#mc90f45020f" y="95.968522"/>
     <use style="fill:#1f77b4;stroke:#1f77b4;" x="187.359972" xlink:href="#mc90f45020f" y="97.400655"/>
     <use style="fill:#1f77b4;stroke:#1f77b4;" x="192.074577" xlink:href="#mc90f45020f" y="81.460632"/>
     <use style="fill:#1f77b4;stroke:#1f77b4;" x="192.075687" xlink:href="#mc90f45020f" y="81.703949"/>
     <use style="fill:#1f77b4;stroke:#1f77b4;" x="194.446909" xlink:href="#mc90f45020f" y="79.909419"/>
     <use style="fill:#1f77b4;stroke:#1f77b4;" x="194.448018" xlink:href="#mc90f45020f" y="78.685863"/>
     <use style="fill:#1f77b4;stroke:#1f77b4;" x="196.970729" xlink:href="#mc90f45020f" y="144.53446"/>
     <use style="fill:#1f77b4;stroke:#1f77b4;" x="196.97181" xlink:href="#mc90f45020f" y="145.152"/>
     <use style="fill:#1f77b4;stroke:#1f77b4;" x="199.263282" xlink:href="#mc90f45020f" y="85.321513"/>
     <use style="fill:#1f77b4;stroke:#1f77b4;" x="199.264392" xlink:href="#mc90f45020f" y="83.185987"/>
     <use style="fill:#1f77b4;stroke:#1f77b4;" x="133.010246" xlink:href="#mc90f45020f" y="98.035182"/>
     <use style="fill:#1f77b4;stroke:#1f77b4;" x="133.011327" xlink:href="#mc90f45020f" y="97.868017"/>
     <use style="fill:#1f77b4;stroke:#1f77b4;" x="154.590392" xlink:href="#mc90f45020f" y="67.819818"/>
     <use style="fill:#1f77b4;stroke:#1f77b4;" x="171.224308" xlink:href="#mc90f45020f" y="62.279767"/>
     <use style="fill:#1f77b4;stroke:#1f77b4;" x="173.609257" xlink:href="#mc90f45020f" y="66.969428"/>
     <use style="fill:#1f77b4;stroke:#1f77b4;" x="176.005658" xlink:href="#mc90f45020f" y="73.884493"/>
     <use style="fill:#1f77b4;stroke:#1f77b4;" x="178.397096" xlink:href="#mc90f45020f" y="52.498544"/>
     <use style="fill:#1f77b4;stroke:#1f77b4;" x="180.803037" xlink:href="#mc90f45020f" y="66.185025"/>
     <use style="fill:#1f77b4;stroke:#1f77b4;" x="140.942555" xlink:href="#mc90f45020f" y="73.702455"/>
     <use style="fill:#1f77b4;stroke:#1f77b4;" x="162.023705" xlink:href="#mc90f45020f" y="63.391677"/>
     <use style="fill:#1f77b4;stroke:#1f77b4;" x="164.769113" xlink:href="#mc90f45020f" y="48.234006"/>
     <use style="fill:#1f77b4;stroke:#1f77b4;" x="167.209161" xlink:href="#mc90f45020f" y="58.282889"/>
     <use style="fill:#1f77b4;stroke:#1f77b4;" x="183.93073" xlink:href="#mc90f45020f" y="73.400437"/>
     <use style="fill:#1f77b4;stroke:#1f77b4;" x="191.164135" xlink:href="#mc90f45020f" y="79.042041"/>
     <use style="fill:#1f77b4;stroke:#1f77b4;" x="149.21414" xlink:href="#mc90f45020f" y="64.47059"/>
     <use style="fill:#1f77b4;stroke:#1f77b4;" x="158.797472" xlink:href="#mc90f45020f" y="67.2358"/>
     <use style="fill:#1f77b4;stroke:#1f77b4;" x="182.73811" xlink:href="#mc90f45020f" y="96.5668"/>
     <use style="fill:#1f77b4;stroke:#1f77b4;" x="199.636364" xlink:href="#mc90f45020f" y="112.106505"/>
     <use style="fill:#1f77b4;stroke:#1f77b4;" x="156.005754" xlink:href="#mc90f45020f" y="46.409143"/>
     <use style="fill:#1f77b4;stroke:#1f77b4;" x="137.549779" xlink:href="#mc90f45020f" y="103.969101"/>
     <use style="fill:#1f77b4;stroke:#1f77b4;" x="137.55086" xlink:href="#mc90f45020f" y="101.503483"/>
     <use style="fill:#1f77b4;stroke:#1f77b4;" x="139.884454" xlink:href="#mc90f45020f" y="120.497237"/>
     <use style="fill:#1f77b4;stroke:#1f77b4;" x="139.885535" xlink:href="#mc90f45020f" y="123.249396"/>
     <use style="fill:#1f77b4;stroke:#1f77b4;" x="142.17698" xlink:href="#mc90f45020f" y="62.346589"/>
     <use style="fill:#1f77b4;stroke:#1f77b4;" x="142.178061" xlink:href="#mc90f45020f" y="61.952188"/>
    </g>
   </g>
   <g id="matplotlib.axis_3">
    <g id="xtick_19">
     <g id="line2d_27">
      <g>
       <use style="stroke:#000000;stroke-width:0.8;" x="63.870405" xlink:href="#m7bac7bc8fc" y="150.089143"/>
      </g>
     </g>
     <g id="text_13">
      <!-- 0 -->
      <g transform="translate(60.689155 164.68758)scale(0.1 -0.1)">
       <use xlink:href="#DejaVuSerif-48"/>
      </g>
     </g>
    </g>
    <g id="xtick_20">
     <g id="line2d_28">
      <g>
       <use style="stroke:#000000;stroke-width:0.8;" x="132.517015" xlink:href="#m7bac7bc8fc" y="150.089143"/>
      </g>
     </g>
     <g id="text_14">
      <!-- 1 -->
      <g transform="translate(129.335765 164.68758)scale(0.1 -0.1)">
       <use xlink:href="#DejaVuSerif-49"/>
      </g>
     </g>
    </g>
    <g id="xtick_21">
     <g id="line2d_29">
      <g>
       <use style="stroke:#000000;stroke-width:0.8;" x="201.163624" xlink:href="#m7bac7bc8fc" y="150.089143"/>
      </g>
     </g>
     <g id="text_15">
      <!-- 2 -->
      <g transform="translate(197.982374 164.68758)scale(0.1 -0.1)">
       <use xlink:href="#DejaVuSerif-50"/>
      </g>
     </g>
    </g>
    <g id="text_16">
     <!-- Phase (P = 28.652 d) -->
     <g transform="translate(78.401562 178.365705)scale(0.1 -0.1)">
      <defs>
       <path d="M 4.109375 0 
L 4.109375 5.171875 
L 12.203125 5.171875 
L 12.203125 70.796875 
L 3.609375 70.796875 
L 3.609375 75.984375 
L 21.1875 75.984375 
L 21.1875 42.671875 
Q 23.6875 47.953125 27.65625 50.640625 
Q 31.640625 53.328125 36.921875 53.328125 
Q 45.515625 53.328125 49.5625 48.390625 
Q 53.609375 43.453125 53.609375 33.015625 
L 53.609375 5.171875 
L 61.625 5.171875 
L 61.625 0 
L 36.8125 0 
L 36.8125 5.171875 
L 44.578125 5.171875 
L 44.578125 30.171875 
Q 44.578125 39.703125 42.25 43.1875 
Q 39.9375 46.6875 33.984375 46.6875 
Q 27.734375 46.6875 24.453125 42.140625 
Q 21.1875 37.59375 21.1875 28.90625 
L 21.1875 5.171875 
L 29 5.171875 
L 29 0 
z
" id="DejaVuSerif-104"/>
       <path d="M 5.609375 2.875 
L 5.609375 14.984375 
L 10.796875 14.984375 
Q 10.984375 9.1875 14.421875 6.296875 
Q 17.875 3.421875 24.609375 3.421875 
Q 30.671875 3.421875 33.84375 5.6875 
Q 37.015625 7.953125 37.015625 12.3125 
Q 37.015625 15.71875 34.6875 17.8125 
Q 32.375 19.921875 24.90625 22.3125 
L 18.40625 24.515625 
Q 11.71875 26.65625 8.71875 29.875 
Q 5.71875 33.109375 5.71875 38.09375 
Q 5.71875 45.21875 10.9375 49.265625 
Q 16.15625 53.328125 25.390625 53.328125 
Q 29.5 53.328125 34.03125 52.25 
Q 38.578125 51.171875 43.40625 49.125 
L 43.40625 37.796875 
L 38.234375 37.796875 
Q 38.03125 42.828125 34.703125 45.65625 
Q 31.390625 48.484375 25.6875 48.484375 
Q 20.015625 48.484375 17.109375 46.484375 
Q 14.203125 44.484375 14.203125 40.484375 
Q 14.203125 37.203125 16.40625 35.21875 
Q 18.609375 33.25 25.203125 31.203125 
L 32.328125 29 
Q 39.703125 26.703125 42.9375 23.265625 
Q 46.1875 19.828125 46.1875 14.40625 
Q 46.1875 7.03125 40.546875 2.796875 
Q 34.90625 -1.421875 25 -1.421875 
Q 19.96875 -1.421875 15.1875 -0.34375 
Q 10.40625 0.734375 5.609375 2.875 
z
" id="DejaVuSerif-115"/>
       <path d="M 31.890625 -15.578125 
Q 20.015625 -10.25 13.953125 1.296875 
Q 7.90625 12.84375 7.90625 30.171875 
Q 7.90625 47.5625 13.953125 59.109375 
Q 20.015625 70.65625 31.890625 75.984375 
L 31.890625 71.1875 
Q 24.359375 66.015625 21.09375 56.609375 
Q 17.828125 47.21875 17.828125 30.171875 
Q 17.828125 13.1875 21.09375 3.78125 
Q 24.359375 -5.609375 31.890625 -10.796875 
z
" id="DejaVuSerif-40"/>
       <path d="M 10.59375 45.21875 
L 73.1875 45.21875 
L 73.1875 37.40625 
L 10.59375 37.40625 
z
M 10.59375 25.296875 
L 73.1875 25.296875 
L 73.1875 17.484375 
L 10.59375 17.484375 
z
" id="DejaVuSerif-61"/>
       <path d="M 46.578125 19.921875 
Q 46.578125 27.734375 42.6875 32.046875 
Q 38.8125 36.375 31.78125 36.375 
Q 24.75 36.375 20.875 32.046875 
Q 17 27.734375 17 19.921875 
Q 17 12.0625 20.875 7.734375 
Q 24.75 3.421875 31.78125 3.421875 
Q 38.8125 3.421875 42.6875 7.734375 
Q 46.578125 12.0625 46.578125 19.921875 
z
M 44.578125 55.328125 
Q 44.578125 61.96875 41.203125 65.671875 
Q 37.84375 69.390625 31.78125 69.390625 
Q 25.78125 69.390625 22.390625 65.671875 
Q 19 61.96875 19 55.328125 
Q 19 48.640625 22.390625 44.921875 
Q 25.78125 41.21875 31.78125 41.21875 
Q 37.84375 41.21875 41.203125 44.921875 
Q 44.578125 48.640625 44.578125 55.328125 
z
M 39.3125 38.8125 
Q 47.609375 37.703125 52.25 32.6875 
Q 56.890625 27.6875 56.890625 19.921875 
Q 56.890625 9.671875 50.390625 4.125 
Q 43.890625 -1.421875 31.78125 -1.421875 
Q 19.734375 -1.421875 13.203125 4.125 
Q 6.6875 9.671875 6.6875 19.921875 
Q 6.6875 27.6875 11.328125 32.6875 
Q 15.96875 37.703125 24.3125 38.8125 
Q 16.9375 40.140625 13 44.40625 
Q 9.078125 48.6875 9.078125 55.328125 
Q 9.078125 64.109375 15.125 69.15625 
Q 21.1875 74.21875 31.78125 74.21875 
Q 42.390625 74.21875 48.4375 69.15625 
Q 54.5 64.109375 54.5 55.328125 
Q 54.5 48.6875 50.5625 44.40625 
Q 46.625 40.140625 39.3125 38.8125 
z
" id="DejaVuSerif-56"/>
       <path d="M 32.71875 3.421875 
Q 39.59375 3.421875 43.296875 8.46875 
Q 47.015625 13.53125 47.015625 23 
Q 47.015625 32.46875 43.296875 37.515625 
Q 39.59375 42.578125 32.71875 42.578125 
Q 25.734375 42.578125 22.0625 37.6875 
Q 18.40625 32.8125 18.40625 23.578125 
Q 18.40625 13.875 22.109375 8.640625 
Q 25.828125 3.421875 32.71875 3.421875 
z
M 16.796875 40.140625 
Q 20.125 43.796875 24.3125 45.59375 
Q 28.515625 47.40625 33.796875 47.40625 
Q 44.671875 47.40625 51 40.859375 
Q 57.328125 34.328125 57.328125 23 
Q 57.328125 11.921875 50.515625 5.25 
Q 43.703125 -1.421875 32.328125 -1.421875 
Q 19.96875 -1.421875 13.328125 7.78125 
Q 6.6875 17 6.6875 34.078125 
Q 6.6875 53.21875 14.546875 63.71875 
Q 22.40625 74.21875 36.71875 74.21875 
Q 40.578125 74.21875 44.828125 73.484375 
Q 49.078125 72.75 53.515625 71.296875 
L 53.515625 59.28125 
L 48 59.28125 
Q 47.40625 64.203125 44.234375 66.796875 
Q 41.0625 69.390625 35.6875 69.390625 
Q 26.21875 69.390625 21.578125 62.203125 
Q 16.9375 55.03125 16.796875 40.140625 
z
" id="DejaVuSerif-54"/>
       <path d="M 7.078125 -15.578125 
L 7.078125 -10.796875 
Q 14.59375 -5.609375 17.890625 3.78125 
Q 21.1875 13.1875 21.1875 30.171875 
Q 21.1875 47.21875 17.890625 56.609375 
Q 14.59375 66.015625 7.078125 71.1875 
L 7.078125 75.984375 
Q 19 70.65625 25.046875 59.109375 
Q 31.109375 47.5625 31.109375 30.171875 
Q 31.109375 12.84375 25.046875 1.296875 
Q 19 -10.25 7.078125 -15.578125 
z
" id="DejaVuSerif-41"/>
      </defs>
      <use xlink:href="#DejaVuSerif-80"/>
      <use x="67.285156" xlink:href="#DejaVuSerif-104"/>
      <use x="131.689453" xlink:href="#DejaVuSerif-97"/>
      <use x="191.308594" xlink:href="#DejaVuSerif-115"/>
      <use x="242.626953" xlink:href="#DejaVuSerif-101"/>
      <use x="301.806641" xlink:href="#DejaVuSerif-32"/>
      <use x="333.59375" xlink:href="#DejaVuSerif-40"/>
      <use x="372.607422" xlink:href="#DejaVuSerif-80"/>
      <use x="439.892578" xlink:href="#DejaVuSerif-32"/>
      <use x="471.679688" xlink:href="#DejaVuSerif-61"/>
      <use x="555.46875" xlink:href="#DejaVuSerif-32"/>
      <use x="587.255859" xlink:href="#DejaVuSerif-50"/>
      <use x="650.878906" xlink:href="#DejaVuSerif-56"/>
      <use x="714.501953" xlink:href="#DejaVuSerif-46"/>
      <use x="746.289062" xlink:href="#DejaVuSerif-54"/>
      <use x="809.912109" xlink:href="#DejaVuSerif-53"/>
      <use x="873.535156" xlink:href="#DejaVuSerif-50"/>
      <use x="937.158203" xlink:href="#DejaVuSerif-32"/>
      <use x="968.945312" xlink:href="#DejaVuSerif-100"/>
      <use x="1032.958984" xlink:href="#DejaVuSerif-41"/>
     </g>
    </g>
   </g>
   <g id="matplotlib.axis_4">
    <g id="ytick_4">
     <g id="line2d_30">
      <g>
       <use style="stroke:#000000;stroke-width:0.8;" x="57.6" xlink:href="#m5c32f41697" y="66.128137"/>
      </g>
     </g>
     <g id="text_17">
      <!-- 16.0 -->
      <g transform="translate(28.334375 69.927356)scale(0.1 -0.1)">
       <use xlink:href="#DejaVuSerif-49"/>
       <use x="63.623047" xlink:href="#DejaVuSerif-54"/>
       <use x="127.246094" xlink:href="#DejaVuSerif-46"/>
       <use x="159.033203" xlink:href="#DejaVuSerif-48"/>
      </g>
     </g>
    </g>
    <g id="ytick_5">
     <g id="line2d_31">
      <g>
       <use style="stroke:#000000;stroke-width:0.8;" x="57.6" xlink:href="#m5c32f41697" y="105.893473"/>
      </g>
     </g>
     <g id="text_18">
      <!-- 16.5 -->
      <g transform="translate(28.334375 109.692692)scale(0.1 -0.1)">
       <use xlink:href="#DejaVuSerif-49"/>
       <use x="63.623047" xlink:href="#DejaVuSerif-54"/>
       <use x="127.246094" xlink:href="#DejaVuSerif-46"/>
       <use x="159.033203" xlink:href="#DejaVuSerif-53"/>
      </g>
     </g>
    </g>
    <g id="ytick_6">
     <g id="line2d_32">
      <g>
       <use style="stroke:#000000;stroke-width:0.8;" x="57.6" xlink:href="#m5c32f41697" y="145.658809"/>
      </g>
     </g>
     <g id="text_19">
      <!-- 17.0 -->
      <g transform="translate(28.334375 149.458028)scale(0.1 -0.1)">
       <defs>
        <path d="M 56.390625 67.921875 
L 27.875 0 
L 20.609375 0 
L 47.796875 64.890625 
L 14.109375 64.890625 
L 14.109375 55.90625 
L 8.40625 55.90625 
L 8.40625 72.90625 
L 56.390625 72.90625 
z
" id="DejaVuSerif-55"/>
       </defs>
       <use xlink:href="#DejaVuSerif-49"/>
       <use x="63.623047" xlink:href="#DejaVuSerif-55"/>
       <use x="127.246094" xlink:href="#DejaVuSerif-46"/>
       <use x="159.033203" xlink:href="#DejaVuSerif-48"/>
      </g>
     </g>
    </g>
    <g id="text_20">
     <!-- Mag -->
     <g transform="translate(22.1125 107.082134)rotate(-90)scale(0.1 -0.1)">
      <defs>
       <path d="M 5.515625 0 
L 5.515625 5.171875 
L 14.796875 5.171875 
L 14.796875 67.671875 
L 4.984375 67.671875 
L 4.984375 72.90625 
L 26.21875 72.90625 
L 51.8125 21 
L 77.390625 72.90625 
L 97.3125 72.90625 
L 97.3125 67.671875 
L 87.59375 67.671875 
L 87.59375 5.171875 
L 96.921875 5.171875 
L 96.921875 0 
L 68.40625 0 
L 68.40625 5.171875 
L 77.6875 5.171875 
L 77.6875 61.53125 
L 52.6875 10.6875 
L 45.796875 10.6875 
L 20.796875 61.53125 
L 20.796875 5.171875 
L 30.078125 5.171875 
L 30.078125 0 
z
" id="DejaVuSerif-77"/>
      </defs>
      <use xlink:href="#DejaVuSerif-77"/>
      <use x="102.392578" xlink:href="#DejaVuSerif-97"/>
      <use x="162.011719" xlink:href="#DejaVuSerif-103"/>
     </g>
    </g>
   </g>
   <g id="patch_9">
    <path d="M 57.6 150.089143 
L 57.6 41.472 
" style="fill:none;stroke:#000000;stroke-linecap:square;stroke-linejoin:miter;stroke-width:0.8;"/>
   </g>
   <g id="patch_10">
    <path d="M 206.4 150.089143 
L 206.4 41.472 
" style="fill:none;stroke:#000000;stroke-linecap:square;stroke-linejoin:miter;stroke-width:0.8;"/>
   </g>
   <g id="patch_11">
    <path d="M 57.6 150.089143 
L 206.4 150.089143 
" style="fill:none;stroke:#000000;stroke-linecap:square;stroke-linejoin:miter;stroke-width:0.8;"/>
   </g>
   <g id="patch_12">
    <path d="M 57.6 41.472 
L 206.4 41.472 
" style="fill:none;stroke:#000000;stroke-linecap:square;stroke-linejoin:miter;stroke-width:0.8;"/>
   </g>
   <g id="text_21">
    <!-- Folded Light Curve -->
    <g transform="translate(83.086719 35.472)scale(0.1 -0.1)">
     <defs>
      <path d="M 20.515625 5.171875 
L 29 5.171875 
L 29 0 
L 2.875 0 
L 2.875 5.171875 
L 11.53125 5.171875 
L 11.53125 70.796875 
L 2.875 70.796875 
L 2.875 75.984375 
L 20.515625 75.984375 
z
" id="DejaVuSerif-108"/>
      <path d="M 5.515625 0 
L 5.515625 5.171875 
L 14.796875 5.171875 
L 14.796875 67.671875 
L 5.515625 67.671875 
L 5.515625 72.90625 
L 33.984375 72.90625 
L 33.984375 67.671875 
L 24.703125 67.671875 
L 24.703125 6 
L 58.015625 6 
L 58.015625 18.21875 
L 64.015625 18.21875 
L 64.015625 0 
z
" id="DejaVuSerif-76"/>
      <path d="M 10.796875 46.6875 
L 2.875 46.6875 
L 2.875 51.90625 
L 10.796875 51.90625 
L 10.796875 68.015625 
L 19.828125 68.015625 
L 19.828125 51.90625 
L 36.71875 51.90625 
L 36.71875 46.6875 
L 19.828125 46.6875 
L 19.828125 13.71875 
Q 19.828125 7.125 21.09375 5.265625 
Q 22.359375 3.421875 25.78125 3.421875 
Q 29.296875 3.421875 30.90625 5.484375 
Q 32.515625 7.5625 32.625 12.203125 
L 39.40625 12.203125 
Q 39.015625 5.125 35.546875 1.84375 
Q 32.078125 -1.421875 25 -1.421875 
Q 17.234375 -1.421875 14.015625 2.015625 
Q 10.796875 5.46875 10.796875 13.71875 
z
" id="DejaVuSerif-116"/>
      <path d="M 70.515625 19.28125 
Q 67.28125 9.078125 59.6875 3.828125 
Q 52.09375 -1.421875 40.484375 -1.421875 
Q 33.34375 -1.421875 27.234375 1.015625 
Q 21.140625 3.46875 16.40625 8.203125 
Q 10.9375 13.671875 8.265625 20.625 
Q 5.609375 27.59375 5.609375 36.375 
Q 5.609375 53.375 15.421875 63.796875 
Q 25.25 74.21875 41.3125 74.21875 
Q 47.265625 74.21875 54 72.65625 
Q 60.75 71.09375 68.5 67.921875 
L 68.5 51.125 
L 62.984375 51.125 
Q 61.1875 60.296875 55.734375 64.640625 
Q 50.296875 69 40.484375 69 
Q 28.8125 69 22.796875 60.71875 
Q 16.796875 52.4375 16.796875 36.375 
Q 16.796875 20.359375 22.796875 12.078125 
Q 28.8125 3.8125 40.484375 3.8125 
Q 48.640625 3.8125 53.90625 7.6875 
Q 59.1875 11.578125 61.53125 19.28125 
z
" id="DejaVuSerif-67"/>
      <path d="M 35.40625 51.90625 
L 52.203125 51.90625 
L 52.203125 5.171875 
L 60.6875 5.171875 
L 60.6875 0 
L 43.21875 0 
L 43.21875 9.1875 
Q 40.71875 4 36.765625 1.28125 
Q 32.8125 -1.421875 27.59375 -1.421875 
Q 18.953125 -1.421875 14.875 3.484375 
Q 10.796875 8.40625 10.796875 18.890625 
L 10.796875 46.6875 
L 2.6875 46.6875 
L 2.6875 51.90625 
L 19.828125 51.90625 
L 19.828125 21.6875 
Q 19.828125 12.203125 22.140625 8.6875 
Q 24.46875 5.171875 30.421875 5.171875 
Q 36.671875 5.171875 39.9375 9.765625 
Q 43.21875 14.359375 43.21875 23.09375 
L 43.21875 46.6875 
L 35.40625 46.6875 
z
" id="DejaVuSerif-117"/>
      <path d="M 24.703125 0 
L 5.609375 46.6875 
L -0.296875 46.6875 
L -0.296875 51.90625 
L 23.578125 51.90625 
L 23.578125 46.6875 
L 15.28125 46.6875 
L 29.890625 10.984375 
L 44.484375 46.6875 
L 36.71875 46.6875 
L 36.71875 51.90625 
L 56.203125 51.90625 
L 56.203125 46.6875 
L 50.390625 46.6875 
L 31.296875 0 
z
" id="DejaVuSerif-118"/>
     </defs>
     <use xlink:href="#DejaVuSerif-70"/>
     <use x="63.884766" xlink:href="#DejaVuSerif-111"/>
     <use x="124.089844" xlink:href="#DejaVuSerif-108"/>
     <use x="156.072266" xlink:href="#DejaVuSerif-100"/>
     <use x="220.085938" xlink:href="#DejaVuSerif-101"/>
     <use x="279.265625" xlink:href="#DejaVuSerif-100"/>
     <use x="343.279297" xlink:href="#DejaVuSerif-32"/>
     <use x="375.066406" xlink:href="#DejaVuSerif-76"/>
     <use x="441.472656" xlink:href="#DejaVuSerif-105"/>
     <use x="473.455078" xlink:href="#DejaVuSerif-103"/>
     <use x="537.46875" xlink:href="#DejaVuSerif-104"/>
     <use x="601.873047" xlink:href="#DejaVuSerif-116"/>
     <use x="642.058594" xlink:href="#DejaVuSerif-32"/>
     <use x="673.845703" xlink:href="#DejaVuSerif-67"/>
     <use x="750.359375" xlink:href="#DejaVuSerif-117"/>
     <use x="814.763672" xlink:href="#DejaVuSerif-114"/>
     <use x="862.566406" xlink:href="#DejaVuSerif-118"/>
     <use x="919.060547" xlink:href="#DejaVuSerif-101"/>
    </g>
   </g>
  </g>
  <g id="axes_3">
   <g id="patch_13">
    <path d="M 57.6 307.584 
L 414.72 307.584 
L 414.72 198.966857 
L 57.6 198.966857 
z
" style="fill:#ffffff;"/>
   </g>
   <g id="PathCollection_3">
    <g clip-path="url(#p51086e415b)">
     <use style="fill:#1f77b4;stroke:#1f77b4;" x="73.832727" xlink:href="#mc90f45020f" y="220.041045"/>
     <use style="fill:#1f77b4;stroke:#1f77b4;" x="73.833119" xlink:href="#mc90f45020f" y="219.619922"/>
     <use style="fill:#1f77b4;stroke:#1f77b4;" x="94.910293" xlink:href="#mc90f45020f" y="222.695561"/>
     <use style="fill:#1f77b4;stroke:#1f77b4;" x="94.910684" xlink:href="#mc90f45020f" y="222.688994"/>
     <use style="fill:#1f77b4;stroke:#1f77b4;" x="96.675449" xlink:href="#mc90f45020f" y="256.822161"/>
     <use style="fill:#1f77b4;stroke:#1f77b4;" x="99.185169" xlink:href="#mc90f45020f" y="217.983519"/>
     <use style="fill:#1f77b4;stroke:#1f77b4;" x="99.18789" xlink:href="#mc90f45020f" y="217.322732"/>
     <use style="fill:#1f77b4;stroke:#1f77b4;" x="121.144305" xlink:href="#mc90f45020f" y="234.95672"/>
     <use style="fill:#1f77b4;stroke:#1f77b4;" x="121.988998" xlink:href="#mc90f45020f" y="244.252004"/>
     <use style="fill:#1f77b4;stroke:#1f77b4;" x="121.98938" xlink:href="#mc90f45020f" y="244.933589"/>
     <use style="fill:#1f77b4;stroke:#1f77b4;" x="123.69785" xlink:href="#mc90f45020f" y="253.310943"/>
     <use style="fill:#1f77b4;stroke:#1f77b4;" x="123.698242" xlink:href="#mc90f45020f" y="254.703777"/>
     <use style="fill:#1f77b4;stroke:#1f77b4;" x="125.362202" xlink:href="#mc90f45020f" y="239.201161"/>
     <use style="fill:#1f77b4;stroke:#1f77b4;" x="125.362594" xlink:href="#mc90f45020f" y="239.4378"/>
     <use style="fill:#1f77b4;stroke:#1f77b4;" x="126.199487" xlink:href="#mc90f45020f" y="237.692513"/>
     <use style="fill:#1f77b4;stroke:#1f77b4;" x="126.199878" xlink:href="#mc90f45020f" y="236.502533"/>
     <use style="fill:#1f77b4;stroke:#1f77b4;" x="127.090237" xlink:href="#mc90f45020f" y="300.544195"/>
     <use style="fill:#1f77b4;stroke:#1f77b4;" x="127.090618" xlink:href="#mc90f45020f" y="301.144789"/>
     <use style="fill:#1f77b4;stroke:#1f77b4;" x="127.899364" xlink:href="#mc90f45020f" y="242.956095"/>
     <use style="fill:#1f77b4;stroke:#1f77b4;" x="127.899756" xlink:href="#mc90f45020f" y="240.87917"/>
     <use style="fill:#1f77b4;stroke:#1f77b4;" x="128.744146" xlink:href="#mc90f45020f" y="255.320893"/>
     <use style="fill:#1f77b4;stroke:#1f77b4;" x="128.744527" xlink:href="#mc90f45020f" y="255.158314"/>
     <use style="fill:#1f77b4;stroke:#1f77b4;" x="136.360585" xlink:href="#mc90f45020f" y="225.93466"/>
     <use style="fill:#1f77b4;stroke:#1f77b4;" x="142.231315" xlink:href="#mc90f45020f" y="220.546632"/>
     <use style="fill:#1f77b4;stroke:#1f77b4;" x="143.073052" xlink:href="#mc90f45020f" y="225.107606"/>
     <use style="fill:#1f77b4;stroke:#1f77b4;" x="143.918832" xlink:href="#mc90f45020f" y="231.832916"/>
     <use style="fill:#1f77b4;stroke:#1f77b4;" x="144.76286" xlink:href="#mc90f45020f" y="211.033814"/>
     <use style="fill:#1f77b4;stroke:#1f77b4;" x="145.612006" xlink:href="#mc90f45020f" y="224.344727"/>
     <use style="fill:#1f77b4;stroke:#1f77b4;" x="155.771705" xlink:href="#mc90f45020f" y="231.655874"/>
     <use style="fill:#1f77b4;stroke:#1f77b4;" x="163.21203" xlink:href="#mc90f45020f" y="221.628031"/>
     <use style="fill:#1f77b4;stroke:#1f77b4;" x="164.180987" xlink:href="#mc90f45020f" y="206.886298"/>
     <use style="fill:#1f77b4;stroke:#1f77b4;" x="165.042171" xlink:href="#mc90f45020f" y="216.659432"/>
     <use style="fill:#1f77b4;stroke:#1f77b4;" x="170.943837" xlink:href="#mc90f45020f" y="231.362143"/>
     <use style="fill:#1f77b4;stroke:#1f77b4;" x="173.496775" xlink:href="#mc90f45020f" y="236.848937"/>
     <use style="fill:#1f77b4;stroke:#1f77b4;" x="207.146958" xlink:href="#mc90f45020f" y="222.677338"/>
     <use style="fill:#1f77b4;stroke:#1f77b4;" x="210.529274" xlink:href="#mc90f45020f" y="225.366668"/>
     <use style="fill:#1f77b4;stroke:#1f77b4;" x="218.978819" xlink:href="#mc90f45020f" y="253.892803"/>
     <use style="fill:#1f77b4;stroke:#1f77b4;" x="346.082599" xlink:href="#mc90f45020f" y="269.006087"/>
     <use style="fill:#1f77b4;stroke:#1f77b4;" x="379.139631" xlink:href="#mc90f45020f" y="205.11151"/>
     <use style="fill:#1f77b4;stroke:#1f77b4;" x="396.853779" xlink:href="#mc90f45020f" y="261.09198"/>
     <use style="fill:#1f77b4;stroke:#1f77b4;" x="396.854161" xlink:href="#mc90f45020f" y="258.694021"/>
     <use style="fill:#1f77b4;stroke:#1f77b4;" x="397.677773" xlink:href="#mc90f45020f" y="277.166572"/>
     <use style="fill:#1f77b4;stroke:#1f77b4;" x="397.678155" xlink:href="#mc90f45020f" y="279.843209"/>
     <use style="fill:#1f77b4;stroke:#1f77b4;" x="398.486891" xlink:href="#mc90f45020f" y="220.61162"/>
     <use style="fill:#1f77b4;stroke:#1f77b4;" x="398.487273" xlink:href="#mc90f45020f" y="220.228042"/>
    </g>
   </g>
   <g id="matplotlib.axis_5">
    <g id="xtick_22">
     <g id="line2d_33">
      <g>
       <use style="stroke:#000000;stroke-width:0.8;" x="97.996351" xlink:href="#m7bac7bc8fc" y="307.584"/>
      </g>
     </g>
     <g id="text_22">
      <!-- 58300 -->
      <g transform="translate(82.090101 322.182437)scale(0.1 -0.1)">
       <defs>
        <path d="M 9.71875 69.828125 
Q 15.4375 71.96875 20.671875 73.09375 
Q 25.921875 74.21875 30.515625 74.21875 
Q 41.21875 74.21875 47.21875 69.59375 
Q 53.21875 64.984375 53.21875 56.78125 
Q 53.21875 50.203125 49.0625 45.78125 
Q 44.921875 41.359375 37.3125 39.796875 
Q 46.296875 38.53125 51.25 33.28125 
Q 56.203125 28.03125 56.203125 19.671875 
Q 56.203125 9.46875 49.34375 4.015625 
Q 42.484375 -1.421875 29.59375 -1.421875 
Q 23.875 -1.421875 18.421875 -0.1875 
Q 12.984375 1.03125 7.625 3.515625 
L 7.625 17.671875 
L 13.09375 17.671875 
Q 13.578125 10.640625 17.828125 7.03125 
Q 22.078125 3.421875 29.78125 3.421875 
Q 37.25 3.421875 41.578125 7.734375 
Q 45.90625 12.0625 45.90625 19.578125 
Q 45.90625 28.171875 41.453125 32.59375 
Q 37.015625 37.015625 28.421875 37.015625 
L 23.78125 37.015625 
L 23.78125 42 
L 26.21875 42 
Q 34.765625 42 39.03125 45.53125 
Q 43.3125 49.078125 43.3125 56.203125 
Q 43.3125 62.59375 39.796875 65.984375 
Q 36.28125 69.390625 29.6875 69.390625 
Q 23.09375 69.390625 19.453125 66.265625 
Q 15.828125 63.140625 15.1875 56.984375 
L 9.71875 56.984375 
z
" id="DejaVuSerif-51"/>
       </defs>
       <use xlink:href="#DejaVuSerif-53"/>
       <use x="63.623047" xlink:href="#DejaVuSerif-56"/>
       <use x="127.246094" xlink:href="#DejaVuSerif-51"/>
       <use x="190.869141" xlink:href="#DejaVuSerif-48"/>
       <use x="254.492188" xlink:href="#DejaVuSerif-48"/>
      </g>
     </g>
    </g>
    <g id="xtick_23">
     <g id="line2d_34">
      <g>
       <use style="stroke:#000000;stroke-width:0.8;" x="140.27554" xlink:href="#m7bac7bc8fc" y="307.584"/>
      </g>
     </g>
     <g id="text_23">
      <!-- 58350 -->
      <g transform="translate(124.36929 322.182437)scale(0.1 -0.1)">
       <use xlink:href="#DejaVuSerif-53"/>
       <use x="63.623047" xlink:href="#DejaVuSerif-56"/>
       <use x="127.246094" xlink:href="#DejaVuSerif-51"/>
       <use x="190.869141" xlink:href="#DejaVuSerif-53"/>
       <use x="254.492188" xlink:href="#DejaVuSerif-48"/>
      </g>
     </g>
    </g>
    <g id="xtick_24">
     <g id="line2d_35">
      <g>
       <use style="stroke:#000000;stroke-width:0.8;" x="182.55473" xlink:href="#m7bac7bc8fc" y="307.584"/>
      </g>
     </g>
     <g id="text_24">
      <!-- 58400 -->
      <g transform="translate(166.64848 322.182437)scale(0.1 -0.1)">
       <use xlink:href="#DejaVuSerif-53"/>
       <use x="63.623047" xlink:href="#DejaVuSerif-56"/>
       <use x="127.246094" xlink:href="#DejaVuSerif-52"/>
       <use x="190.869141" xlink:href="#DejaVuSerif-48"/>
       <use x="254.492188" xlink:href="#DejaVuSerif-48"/>
      </g>
     </g>
    </g>
    <g id="xtick_25">
     <g id="line2d_36">
      <g>
       <use style="stroke:#000000;stroke-width:0.8;" x="224.833919" xlink:href="#m7bac7bc8fc" y="307.584"/>
      </g>
     </g>
     <g id="text_25">
      <!-- 58450 -->
      <g transform="translate(208.927669 322.182437)scale(0.1 -0.1)">
       <use xlink:href="#DejaVuSerif-53"/>
       <use x="63.623047" xlink:href="#DejaVuSerif-56"/>
       <use x="127.246094" xlink:href="#DejaVuSerif-52"/>
       <use x="190.869141" xlink:href="#DejaVuSerif-53"/>
       <use x="254.492188" xlink:href="#DejaVuSerif-48"/>
      </g>
     </g>
    </g>
    <g id="xtick_26">
     <g id="line2d_37">
      <g>
       <use style="stroke:#000000;stroke-width:0.8;" x="267.113108" xlink:href="#m7bac7bc8fc" y="307.584"/>
      </g>
     </g>
     <g id="text_26">
      <!-- 58500 -->
      <g transform="translate(251.206858 322.182437)scale(0.1 -0.1)">
       <use xlink:href="#DejaVuSerif-53"/>
       <use x="63.623047" xlink:href="#DejaVuSerif-56"/>
       <use x="127.246094" xlink:href="#DejaVuSerif-53"/>
       <use x="190.869141" xlink:href="#DejaVuSerif-48"/>
       <use x="254.492188" xlink:href="#DejaVuSerif-48"/>
      </g>
     </g>
    </g>
    <g id="xtick_27">
     <g id="line2d_38">
      <g>
       <use style="stroke:#000000;stroke-width:0.8;" x="309.392298" xlink:href="#m7bac7bc8fc" y="307.584"/>
      </g>
     </g>
     <g id="text_27">
      <!-- 58550 -->
      <g transform="translate(293.486048 322.182437)scale(0.1 -0.1)">
       <use xlink:href="#DejaVuSerif-53"/>
       <use x="63.623047" xlink:href="#DejaVuSerif-56"/>
       <use x="127.246094" xlink:href="#DejaVuSerif-53"/>
       <use x="190.869141" xlink:href="#DejaVuSerif-53"/>
       <use x="254.492188" xlink:href="#DejaVuSerif-48"/>
      </g>
     </g>
    </g>
    <g id="xtick_28">
     <g id="line2d_39">
      <g>
       <use style="stroke:#000000;stroke-width:0.8;" x="351.671487" xlink:href="#m7bac7bc8fc" y="307.584"/>
      </g>
     </g>
     <g id="text_28">
      <!-- 58600 -->
      <g transform="translate(335.765237 322.182437)scale(0.1 -0.1)">
       <use xlink:href="#DejaVuSerif-53"/>
       <use x="63.623047" xlink:href="#DejaVuSerif-56"/>
       <use x="127.246094" xlink:href="#DejaVuSerif-54"/>
       <use x="190.869141" xlink:href="#DejaVuSerif-48"/>
       <use x="254.492188" xlink:href="#DejaVuSerif-48"/>
      </g>
     </g>
    </g>
    <g id="xtick_29">
     <g id="line2d_40">
      <g>
       <use style="stroke:#000000;stroke-width:0.8;" x="393.950677" xlink:href="#m7bac7bc8fc" y="307.584"/>
      </g>
     </g>
     <g id="text_29">
      <!-- 58650 -->
      <g transform="translate(378.044427 322.182437)scale(0.1 -0.1)">
       <use xlink:href="#DejaVuSerif-53"/>
       <use x="63.623047" xlink:href="#DejaVuSerif-56"/>
       <use x="127.246094" xlink:href="#DejaVuSerif-54"/>
       <use x="190.869141" xlink:href="#DejaVuSerif-53"/>
       <use x="254.492188" xlink:href="#DejaVuSerif-48"/>
      </g>
     </g>
    </g>
    <g id="text_30">
     <!-- MJD -->
     <g transform="translate(225.027187 335.860562)scale(0.1 -0.1)">
      <defs>
       <path d="M -8.40625 -17.484375 
L -8.40625 -6 
L -2.828125 -6 
Q -2.6875 -10.84375 -0.53125 -13.203125 
Q 1.609375 -15.578125 5.90625 -15.578125 
Q 11.71875 -15.578125 14.015625 -11.90625 
Q 16.3125 -8.25 16.3125 2.390625 
L 16.3125 67.671875 
L 4.984375 67.671875 
L 4.984375 72.90625 
L 35.5 72.90625 
L 35.5 67.671875 
L 26.21875 67.671875 
L 26.21875 2 
Q 26.21875 -10.0625 21.375 -15.421875 
Q 16.546875 -20.796875 5.8125 -20.796875 
Q 2.34375 -20.796875 -1.234375 -19.96875 
Q -4.828125 -19.140625 -8.40625 -17.484375 
z
" id="DejaVuSerif-74"/>
       <path d="M 24.703125 5.171875 
L 33.796875 5.171875 
Q 48 5.171875 55.59375 13.28125 
Q 63.1875 21.390625 63.1875 36.53125 
Q 63.1875 51.65625 55.609375 59.65625 
Q 48.046875 67.671875 33.796875 67.671875 
L 24.703125 67.671875 
z
M 5.515625 0 
L 5.515625 5.171875 
L 14.796875 5.171875 
L 14.796875 67.671875 
L 5.515625 67.671875 
L 5.515625 72.90625 
L 34.515625 72.90625 
Q 53.375 72.90625 63.890625 63.28125 
Q 74.421875 53.65625 74.421875 36.53125 
Q 74.421875 19.34375 63.875 9.671875 
Q 53.328125 0 34.515625 0 
z
" id="DejaVuSerif-68"/>
      </defs>
      <use xlink:href="#DejaVuSerif-77"/>
      <use x="102.392578" xlink:href="#DejaVuSerif-74"/>
      <use x="142.480469" xlink:href="#DejaVuSerif-68"/>
     </g>
    </g>
   </g>
   <g id="matplotlib.axis_6">
    <g id="ytick_7">
     <g id="line2d_41">
      <g>
       <use style="stroke:#000000;stroke-width:0.8;" x="57.6" xlink:href="#m5c32f41697" y="224.2894"/>
      </g>
     </g>
     <g id="text_31">
      <!-- 16.0 -->
      <g transform="translate(28.334375 228.088619)scale(0.1 -0.1)">
       <use xlink:href="#DejaVuSerif-49"/>
       <use x="63.623047" xlink:href="#DejaVuSerif-54"/>
       <use x="127.246094" xlink:href="#DejaVuSerif-46"/>
       <use x="159.033203" xlink:href="#DejaVuSerif-48"/>
      </g>
     </g>
    </g>
    <g id="ytick_8">
     <g id="line2d_42">
      <g>
       <use style="stroke:#000000;stroke-width:0.8;" x="57.6" xlink:href="#m5c32f41697" y="262.963546"/>
      </g>
     </g>
     <g id="text_32">
      <!-- 16.5 -->
      <g transform="translate(28.334375 266.762764)scale(0.1 -0.1)">
       <use xlink:href="#DejaVuSerif-49"/>
       <use x="63.623047" xlink:href="#DejaVuSerif-54"/>
       <use x="127.246094" xlink:href="#DejaVuSerif-46"/>
       <use x="159.033203" xlink:href="#DejaVuSerif-53"/>
      </g>
     </g>
    </g>
    <g id="ytick_9">
     <g id="line2d_43">
      <g>
       <use style="stroke:#000000;stroke-width:0.8;" x="57.6" xlink:href="#m5c32f41697" y="301.637691"/>
      </g>
     </g>
     <g id="text_33">
      <!-- 17.0 -->
      <g transform="translate(28.334375 305.43691)scale(0.1 -0.1)">
       <use xlink:href="#DejaVuSerif-49"/>
       <use x="63.623047" xlink:href="#DejaVuSerif-55"/>
       <use x="127.246094" xlink:href="#DejaVuSerif-46"/>
       <use x="159.033203" xlink:href="#DejaVuSerif-48"/>
      </g>
     </g>
    </g>
    <g id="text_34">
     <!-- Mag -->
     <g transform="translate(22.1125 264.576991)rotate(-90)scale(0.1 -0.1)">
      <use xlink:href="#DejaVuSerif-77"/>
      <use x="102.392578" xlink:href="#DejaVuSerif-97"/>
      <use x="162.011719" xlink:href="#DejaVuSerif-103"/>
     </g>
    </g>
   </g>
   <g id="LineCollection_5">
    <path clip-path="url(#p51086e415b)" d="M 73.832727 218.811266 
L 73.832727 221.270825 
" style="fill:none;stroke:#1f77b4;stroke-width:0.5;"/>
    <path clip-path="url(#p51086e415b)" d="M 73.833119 218.390855 
L 73.833119 220.84899 
" style="fill:none;stroke:#1f77b4;stroke-width:0.5;"/>
    <path clip-path="url(#p51086e415b)" d="M 94.910293 221.461175 
L 94.910293 223.929948 
" style="fill:none;stroke:#1f77b4;stroke-width:0.5;"/>
    <path clip-path="url(#p51086e415b)" d="M 94.910684 221.45462 
L 94.910684 223.923369 
" style="fill:none;stroke:#1f77b4;stroke-width:0.5;"/>
    <path clip-path="url(#p51086e415b)" d="M 96.675449 255.507144 
L 96.675449 258.137178 
" style="fill:none;stroke:#1f77b4;stroke-width:0.5;"/>
    <path clip-path="url(#p51086e415b)" d="M 99.185169 216.757169 
L 99.185169 219.209868 
" style="fill:none;stroke:#1f77b4;stroke-width:0.5;"/>
    <path clip-path="url(#p51086e415b)" d="M 99.18789 216.097459 
L 99.18789 218.548006 
" style="fill:none;stroke:#1f77b4;stroke-width:0.5;"/>
    <path clip-path="url(#p51086e415b)" d="M 121.144305 233.698202 
L 121.144305 236.215237 
" style="fill:none;stroke:#1f77b4;stroke-width:0.5;"/>
    <path clip-path="url(#p51086e415b)" d="M 121.988998 242.971757 
L 121.988998 245.532251 
" style="fill:none;stroke:#1f77b4;stroke-width:0.5;"/>
    <path clip-path="url(#p51086e415b)" d="M 121.98938 243.651622 
L 121.98938 246.215557 
" style="fill:none;stroke:#1f77b4;stroke-width:0.5;"/>
    <path clip-path="url(#p51086e415b)" d="M 123.69785 252.006307 
L 123.69785 254.615579 
" style="fill:none;stroke:#1f77b4;stroke-width:0.5;"/>
    <path clip-path="url(#p51086e415b)" d="M 123.698242 253.395088 
L 123.698242 256.012466 
" style="fill:none;stroke:#1f77b4;stroke-width:0.5;"/>
    <path clip-path="url(#p51086e415b)" d="M 125.362202 237.933113 
L 125.362202 240.469209 
" style="fill:none;stroke:#1f77b4;stroke-width:0.5;"/>
    <path clip-path="url(#p51086e415b)" d="M 125.362594 238.169202 
L 125.362594 240.706398 
" style="fill:none;stroke:#1f77b4;stroke-width:0.5;"/>
    <path clip-path="url(#p51086e415b)" d="M 126.199487 236.427926 
L 126.199487 238.9571 
" style="fill:none;stroke:#1f77b4;stroke-width:0.5;"/>
    <path clip-path="url(#p51086e415b)" d="M 126.199878 235.240619 
L 126.199878 237.764447 
" style="fill:none;stroke:#1f77b4;stroke-width:0.5;"/>
    <path clip-path="url(#p51086e415b)" d="M 127.090237 299.045494 
L 127.090237 302.042897 
" style="fill:none;stroke:#1f77b4;stroke-width:0.5;"/>
    <path clip-path="url(#p51086e415b)" d="M 127.090618 299.642722 
L 127.090618 302.646857 
" style="fill:none;stroke:#1f77b4;stroke-width:0.5;"/>
    <path clip-path="url(#p51086e415b)" d="M 127.899364 241.67907 
L 127.899364 244.23312 
" style="fill:none;stroke:#1f77b4;stroke-width:0.5;"/>
    <path clip-path="url(#p51086e415b)" d="M 127.899756 239.607175 
L 127.899756 242.151165 
" style="fill:none;stroke:#1f77b4;stroke-width:0.5;"/>
    <path clip-path="url(#p51086e415b)" d="M 128.744146 254.010381 
L 128.744146 256.631404 
" style="fill:none;stroke:#1f77b4;stroke-width:0.5;"/>
    <path clip-path="url(#p51086e415b)" d="M 128.744527 253.848284 
L 128.744527 256.468344 
" style="fill:none;stroke:#1f77b4;stroke-width:0.5;"/>
    <path clip-path="url(#p51086e415b)" d="M 136.360585 224.694365 
L 136.360585 227.174955 
" style="fill:none;stroke:#1f77b4;stroke-width:0.5;"/>
    <path clip-path="url(#p51086e415b)" d="M 142.231315 219.315992 
L 142.231315 221.777273 
" style="fill:none;stroke:#1f77b4;stroke-width:0.5;"/>
    <path clip-path="url(#p51086e415b)" d="M 143.073052 223.86885 
L 143.073052 226.346362 
" style="fill:none;stroke:#1f77b4;stroke-width:0.5;"/>
    <path clip-path="url(#p51086e415b)" d="M 143.918832 230.581013 
L 143.918832 233.084819 
" style="fill:none;stroke:#1f77b4;stroke-width:0.5;"/>
    <path clip-path="url(#p51086e415b)" d="M 144.76286 209.818176 
L 144.76286 212.249451 
" style="fill:none;stroke:#1f77b4;stroke-width:0.5;"/>
    <path clip-path="url(#p51086e415b)" d="M 145.612006 223.107373 
L 145.612006 225.582082 
" style="fill:none;stroke:#1f77b4;stroke-width:0.5;"/>
    <path clip-path="url(#p51086e415b)" d="M 155.771705 230.404335 
L 155.771705 232.907412 
" style="fill:none;stroke:#1f77b4;stroke-width:0.5;"/>
    <path clip-path="url(#p51086e415b)" d="M 163.21203 220.395523 
L 163.21203 222.86054 
" style="fill:none;stroke:#1f77b4;stroke-width:0.5;"/>
    <path clip-path="url(#p51086e415b)" d="M 164.180987 205.676445 
L 164.180987 208.096151 
" style="fill:none;stroke:#1f77b4;stroke-width:0.5;"/>
    <path clip-path="url(#p51086e415b)" d="M 165.042171 215.435226 
L 165.042171 217.883638 
" style="fill:none;stroke:#1f77b4;stroke-width:0.5;"/>
    <path clip-path="url(#p51086e415b)" d="M 170.943837 230.111208 
L 170.943837 232.613079 
" style="fill:none;stroke:#1f77b4;stroke-width:0.5;"/>
    <path clip-path="url(#p51086e415b)" d="M 173.496775 235.58625 
L 173.496775 238.111624 
" style="fill:none;stroke:#1f77b4;stroke-width:0.5;"/>
    <path clip-path="url(#p51086e415b)" d="M 207.146958 221.442984 
L 207.146958 223.911692 
" style="fill:none;stroke:#1f77b4;stroke-width:0.5;"/>
    <path clip-path="url(#p51086e415b)" d="M 210.529274 224.127433 
L 210.529274 226.605904 
" style="fill:none;stroke:#1f77b4;stroke-width:0.5;"/>
    <path clip-path="url(#p51086e415b)" d="M 218.978819 252.586485 
L 218.978819 255.199122 
" style="fill:none;stroke:#1f77b4;stroke-width:0.5;"/>
    <path clip-path="url(#p51086e415b)" d="M 346.082599 267.650621 
L 346.082599 270.361553 
" style="fill:none;stroke:#1f77b4;stroke-width:0.5;"/>
    <path clip-path="url(#p51086e415b)" d="M 379.139631 203.904 
L 379.139631 206.31902 
" style="fill:none;stroke:#1f77b4;stroke-width:0.5;"/>
    <path clip-path="url(#p51086e415b)" d="M 396.853779 259.763594 
L 396.853779 262.420366 
" style="fill:none;stroke:#1f77b4;stroke-width:0.5;"/>
    <path clip-path="url(#p51086e415b)" d="M 396.854161 257.373246 
L 396.854161 260.014795 
" style="fill:none;stroke:#1f77b4;stroke-width:0.5;"/>
    <path clip-path="url(#p51086e415b)" d="M 397.677773 275.779794 
L 397.677773 278.553349 
" style="fill:none;stroke:#1f77b4;stroke-width:0.5;"/>
    <path clip-path="url(#p51086e415b)" d="M 397.678155 278.445357 
L 397.678155 281.241061 
" style="fill:none;stroke:#1f77b4;stroke-width:0.5;"/>
    <path clip-path="url(#p51086e415b)" d="M 398.486891 219.380868 
L 398.486891 221.842373 
" style="fill:none;stroke:#1f77b4;stroke-width:0.5;"/>
    <path clip-path="url(#p51086e415b)" d="M 398.487273 218.997945 
L 398.487273 221.45814 
" style="fill:none;stroke:#1f77b4;stroke-width:0.5;"/>
   </g>
   <g id="line2d_44">
    <path clip-path="url(#p51086e415b)" d="M 73.832727 220.041045 
L 73.833119 219.619922 
L 94.910293 222.695561 
L 94.910684 222.688994 
L 96.675449 256.822161 
L 99.185169 217.983519 
L 99.18789 217.322732 
L 121.144305 234.95672 
L 121.988998 244.252004 
L 121.98938 244.933589 
L 123.69785 253.310943 
L 123.698242 254.703777 
L 125.362202 239.201161 
L 125.362594 239.4378 
L 126.199487 237.692513 
L 126.199878 236.502533 
L 127.090237 300.544195 
L 127.090618 301.144789 
L 127.899364 242.956095 
L 127.899756 240.87917 
L 128.744146 255.320893 
L 128.744527 255.158314 
L 136.360585 225.93466 
L 142.231315 220.546632 
L 143.073052 225.107606 
L 143.918832 231.832916 
L 144.76286 211.033814 
L 145.612006 224.344727 
L 155.771705 231.655874 
L 163.21203 221.628031 
L 164.180987 206.886298 
L 165.042171 216.659432 
L 170.943837 231.362143 
L 173.496775 236.848937 
L 207.146958 222.677338 
L 210.529274 225.366668 
L 218.978819 253.892803 
L 346.082599 269.006087 
L 379.139631 205.11151 
L 396.853779 261.09198 
L 396.854161 258.694021 
L 397.677773 277.166572 
L 397.678155 279.843209 
L 398.486891 220.61162 
L 398.487273 220.228042 
" style="fill:none;"/>
   </g>
   <g id="patch_14">
    <path d="M 57.6 307.584 
L 57.6 198.966857 
" style="fill:none;stroke:#000000;stroke-linecap:square;stroke-linejoin:miter;stroke-width:0.8;"/>
   </g>
   <g id="patch_15">
    <path d="M 414.72 307.584 
L 414.72 198.966857 
" style="fill:none;stroke:#000000;stroke-linecap:square;stroke-linejoin:miter;stroke-width:0.8;"/>
   </g>
   <g id="patch_16">
    <path d="M 57.6 307.584 
L 414.72 307.584 
" style="fill:none;stroke:#000000;stroke-linecap:square;stroke-linejoin:miter;stroke-width:0.8;"/>
   </g>
   <g id="patch_17">
    <path d="M 57.6 198.966857 
L 414.72 198.966857 
" style="fill:none;stroke:#000000;stroke-linecap:square;stroke-linejoin:miter;stroke-width:0.8;"/>
   </g>
   <g id="text_35">
    <!-- Light Curve -->
    <g transform="translate(206.000625 192.966857)scale(0.1 -0.1)">
     <use xlink:href="#DejaVuSerif-76"/>
     <use x="66.40625" xlink:href="#DejaVuSerif-105"/>
     <use x="98.388672" xlink:href="#DejaVuSerif-103"/>
     <use x="162.402344" xlink:href="#DejaVuSerif-104"/>
     <use x="226.806641" xlink:href="#DejaVuSerif-116"/>
     <use x="266.992188" xlink:href="#DejaVuSerif-32"/>
     <use x="298.779297" xlink:href="#DejaVuSerif-67"/>
     <use x="375.292969" xlink:href="#DejaVuSerif-117"/>
     <use x="439.697266" xlink:href="#DejaVuSerif-114"/>
     <use x="487.5" xlink:href="#DejaVuSerif-118"/>
     <use x="543.994141" xlink:href="#DejaVuSerif-101"/>
    </g>
   </g>
  </g>
 </g>
 <defs>
  <clipPath id="pd664f59604">
   <rect height="108.617143" width="148.8" x="265.92" y="41.472"/>
  </clipPath>
  <clipPath id="p2de92371cd">
   <rect height="108.617143" width="148.8" x="57.6" y="41.472"/>
  </clipPath>
  <clipPath id="p51086e415b">
   <rect height="108.617143" width="357.12" x="57.6" y="198.966857"/>
  </clipPath>
 </defs>
</svg>
