<?xml version="1.0" encoding="utf-8" standalone="no"?>
<!DOCTYPE svg PUBLIC "-//W3C//DTD SVG 1.1//EN"
  "http://www.w3.org/Graphics/SVG/1.1/DTD/svg11.dtd">
<!-- Created with matplotlib (https://matplotlib.org/) -->
<svg height="345.6pt" version="1.1" viewBox="0 0 460.8 345.6" width="460.8pt" xmlns="http://www.w3.org/2000/svg" xmlns:xlink="http://www.w3.org/1999/xlink">
 <metadata>
  <rdf:RDF xmlns:cc="http://creativecommons.org/ns#" xmlns:dc="http://purl.org/dc/elements/1.1/" xmlns:rdf="http://www.w3.org/1999/02/22-rdf-syntax-ns#">
   <cc:Work>
    <dc:type rdf:resource="http://purl.org/dc/dcmitype/StillImage"/>
    <dc:date>2021-02-24T00:24:17.975237</dc:date>
    <dc:format>image/svg+xml</dc:format>
    <dc:creator>
     <cc:Agent>
      <dc:title>Matplotlib v3.3.3, https://matplotlib.org/</dc:title>
     </cc:Agent>
    </dc:creator>
   </cc:Work>
  </rdf:RDF>
 </metadata>
 <defs>
  <style type="text/css">*{stroke-linecap:butt;stroke-linejoin:round;}</style>
 </defs>
 <g id="figure_1">
  <g id="patch_1">
   <path d="M 0 345.6 
L 460.8 345.6 
L 460.8 0 
L 0 0 
z
" style="fill:#ffffff;"/>
  </g>
  <g id="axes_1">
   <g id="patch_2">
    <path d="M 265.92 150.089143 
L 414.72 150.089143 
L 414.72 41.472 
L 265.92 41.472 
z
" style="fill:#ffffff;"/>
   </g>
   <g id="matplotlib.axis_1">
    <g id="xtick_1">
     <g id="line2d_1">
      <defs>
       <path d="M 0 0 
L 0 3.5 
" id="m077930ab6d" style="stroke:#000000;stroke-width:0.8;"/>
      </defs>
      <g>
       <use style="stroke:#000000;stroke-width:0.8;" x="326.985138" xlink:href="#m077930ab6d" y="150.089143"/>
      </g>
     </g>
     <g id="text_1">
      <!-- $\mathdefault{10^{1}}$ -->
      <g transform="translate(318.185138 164.68758)scale(0.1 -0.1)">
       <defs>
        <path d="M 14.203125 0 
L 14.203125 5.171875 
L 26.90625 5.171875 
L 26.90625 65.828125 
L 12.203125 56.296875 
L 12.203125 62.703125 
L 29.984375 74.21875 
L 36.71875 74.21875 
L 36.71875 5.171875 
L 49.421875 5.171875 
L 49.421875 0 
z
" id="DejaVuSerif-49"/>
        <path d="M 31.78125 3.421875 
Q 39.265625 3.421875 42.96875 11.625 
Q 46.6875 19.828125 46.6875 36.375 
Q 46.6875 52.984375 42.96875 61.1875 
Q 39.265625 69.390625 31.78125 69.390625 
Q 24.3125 69.390625 20.59375 61.1875 
Q 16.890625 52.984375 16.890625 36.375 
Q 16.890625 19.828125 20.59375 11.625 
Q 24.3125 3.421875 31.78125 3.421875 
z
M 31.78125 -1.421875 
Q 19.921875 -1.421875 13.25 8.53125 
Q 6.59375 18.5 6.59375 36.375 
Q 6.59375 54.296875 13.25 64.25 
Q 19.921875 74.21875 31.78125 74.21875 
Q 43.703125 74.21875 50.34375 64.25 
Q 56.984375 54.296875 56.984375 36.375 
Q 56.984375 18.5 50.34375 8.53125 
Q 43.703125 -1.421875 31.78125 -1.421875 
z
" id="DejaVuSerif-48"/>
       </defs>
       <use transform="translate(0 0.7125)" xlink:href="#DejaVuSerif-49"/>
       <use transform="translate(63.623047 0.7125)" xlink:href="#DejaVuSerif-48"/>
       <use transform="translate(128.154453 37.046875)scale(0.7)" xlink:href="#DejaVuSerif-49"/>
      </g>
     </g>
    </g>
    <g id="xtick_2">
     <g id="line2d_2">
      <g>
       <use style="stroke:#000000;stroke-width:0.8;" x="400.12039" xlink:href="#m077930ab6d" y="150.089143"/>
      </g>
     </g>
     <g id="text_2">
      <!-- $\mathdefault{10^{2}}$ -->
      <g transform="translate(391.32039 164.68758)scale(0.1 -0.1)">
       <defs>
        <path d="M 12.796875 55.515625 
L 7.328125 55.515625 
L 7.328125 68.5 
Q 12.546875 71.296875 17.84375 72.75 
Q 23.140625 74.21875 28.21875 74.21875 
Q 39.59375 74.21875 46.1875 68.703125 
Q 52.78125 63.1875 52.78125 53.71875 
Q 52.78125 43.015625 37.84375 28.125 
Q 36.671875 27 36.078125 26.421875 
L 17.671875 8.015625 
L 48.09375 8.015625 
L 48.09375 17 
L 53.8125 17 
L 53.8125 0 
L 6.78125 0 
L 6.78125 5.328125 
L 28.90625 27.390625 
Q 36.234375 34.71875 39.359375 40.84375 
Q 42.484375 46.96875 42.484375 53.71875 
Q 42.484375 61.078125 38.640625 65.234375 
Q 34.8125 69.390625 28.078125 69.390625 
Q 21.09375 69.390625 17.28125 65.921875 
Q 13.484375 62.453125 12.796875 55.515625 
z
" id="DejaVuSerif-50"/>
       </defs>
       <use transform="translate(0 0.7125)" xlink:href="#DejaVuSerif-49"/>
       <use transform="translate(63.623047 0.7125)" xlink:href="#DejaVuSerif-48"/>
       <use transform="translate(128.154453 37.046875)scale(0.7)" xlink:href="#DejaVuSerif-50"/>
      </g>
     </g>
    </g>
    <g id="xtick_3">
     <g id="line2d_3">
      <defs>
       <path d="M 0 0 
L 0 2 
" id="mdb3c1e9974" style="stroke:#000000;stroke-width:0.6;"/>
      </defs>
      <g>
       <use style="stroke:#000000;stroke-width:0.6;" x="275.86579" xlink:href="#mdb3c1e9974" y="150.089143"/>
      </g>
     </g>
    </g>
    <g id="xtick_4">
     <g id="line2d_4">
      <g>
       <use style="stroke:#000000;stroke-width:0.6;" x="288.744269" xlink:href="#mdb3c1e9974" y="150.089143"/>
      </g>
     </g>
    </g>
    <g id="xtick_5">
     <g id="line2d_5">
      <g>
       <use style="stroke:#000000;stroke-width:0.6;" x="297.881695" xlink:href="#mdb3c1e9974" y="150.089143"/>
      </g>
     </g>
    </g>
    <g id="xtick_6">
     <g id="line2d_6">
      <g>
       <use style="stroke:#000000;stroke-width:0.6;" x="304.969233" xlink:href="#mdb3c1e9974" y="150.089143"/>
      </g>
     </g>
    </g>
    <g id="xtick_7">
     <g id="line2d_7">
      <g>
       <use style="stroke:#000000;stroke-width:0.6;" x="310.760174" xlink:href="#mdb3c1e9974" y="150.089143"/>
      </g>
     </g>
    </g>
    <g id="xtick_8">
     <g id="line2d_8">
      <g>
       <use style="stroke:#000000;stroke-width:0.6;" x="315.656344" xlink:href="#mdb3c1e9974" y="150.089143"/>
      </g>
     </g>
    </g>
    <g id="xtick_9">
     <g id="line2d_9">
      <g>
       <use style="stroke:#000000;stroke-width:0.6;" x="319.8976" xlink:href="#mdb3c1e9974" y="150.089143"/>
      </g>
     </g>
    </g>
    <g id="xtick_10">
     <g id="line2d_10">
      <g>
       <use style="stroke:#000000;stroke-width:0.6;" x="323.638652" xlink:href="#mdb3c1e9974" y="150.089143"/>
      </g>
     </g>
    </g>
    <g id="xtick_11">
     <g id="line2d_11">
      <g>
       <use style="stroke:#000000;stroke-width:0.6;" x="349.001043" xlink:href="#mdb3c1e9974" y="150.089143"/>
      </g>
     </g>
    </g>
    <g id="xtick_12">
     <g id="line2d_12">
      <g>
       <use style="stroke:#000000;stroke-width:0.6;" x="361.879521" xlink:href="#mdb3c1e9974" y="150.089143"/>
      </g>
     </g>
    </g>
    <g id="xtick_13">
     <g id="line2d_13">
      <g>
       <use style="stroke:#000000;stroke-width:0.6;" x="371.016947" xlink:href="#mdb3c1e9974" y="150.089143"/>
      </g>
     </g>
    </g>
    <g id="xtick_14">
     <g id="line2d_14">
      <g>
       <use style="stroke:#000000;stroke-width:0.6;" x="378.104486" xlink:href="#mdb3c1e9974" y="150.089143"/>
      </g>
     </g>
    </g>
    <g id="xtick_15">
     <g id="line2d_15">
      <g>
       <use style="stroke:#000000;stroke-width:0.6;" x="383.895426" xlink:href="#mdb3c1e9974" y="150.089143"/>
      </g>
     </g>
    </g>
    <g id="xtick_16">
     <g id="line2d_16">
      <g>
       <use style="stroke:#000000;stroke-width:0.6;" x="388.791597" xlink:href="#mdb3c1e9974" y="150.089143"/>
      </g>
     </g>
    </g>
    <g id="xtick_17">
     <g id="line2d_17">
      <g>
       <use style="stroke:#000000;stroke-width:0.6;" x="393.032852" xlink:href="#mdb3c1e9974" y="150.089143"/>
      </g>
     </g>
    </g>
    <g id="xtick_18">
     <g id="line2d_18">
      <g>
       <use style="stroke:#000000;stroke-width:0.6;" x="396.773905" xlink:href="#mdb3c1e9974" y="150.089143"/>
      </g>
     </g>
    </g>
    <g id="text_3">
     <!-- Period d -->
     <g transform="translate(319.231719 178.365705)scale(0.1 -0.1)">
      <defs>
       <path d="M 24.703125 37.109375 
L 37.59375 37.109375 
Q 44.875 37.109375 48.671875 41.03125 
Q 52.484375 44.96875 52.484375 52.390625 
Q 52.484375 59.859375 48.671875 63.765625 
Q 44.875 67.671875 37.59375 67.671875 
L 24.703125 67.671875 
z
M 5.515625 0 
L 5.515625 5.171875 
L 14.796875 5.171875 
L 14.796875 67.671875 
L 5.515625 67.671875 
L 5.515625 72.90625 
L 39.984375 72.90625 
Q 50.921875 72.90625 57.3125 67.359375 
Q 63.71875 61.8125 63.71875 52.390625 
Q 63.71875 43.015625 57.3125 37.453125 
Q 50.921875 31.890625 39.984375 31.890625 
L 24.703125 31.890625 
L 24.703125 5.171875 
L 35.984375 5.171875 
L 35.984375 0 
z
" id="DejaVuSerif-80"/>
       <path d="M 54.203125 25 
L 15.484375 25 
L 15.484375 24.609375 
Q 15.484375 14.109375 19.4375 8.765625 
Q 23.390625 3.421875 31.109375 3.421875 
Q 37.015625 3.421875 40.796875 6.515625 
Q 44.578125 9.625 46.09375 15.71875 
L 53.328125 15.71875 
Q 51.171875 7.171875 45.375 2.875 
Q 39.59375 -1.421875 30.171875 -1.421875 
Q 18.796875 -1.421875 11.890625 6.078125 
Q 4.984375 13.578125 4.984375 25.984375 
Q 4.984375 38.28125 11.765625 45.796875 
Q 18.5625 53.328125 29.59375 53.328125 
Q 41.359375 53.328125 47.65625 46.0625 
Q 53.953125 38.8125 54.203125 25 
z
M 43.609375 30.171875 
Q 43.3125 39.265625 39.765625 43.875 
Q 36.234375 48.484375 29.59375 48.484375 
Q 23.390625 48.484375 19.828125 43.84375 
Q 16.265625 39.203125 15.484375 30.171875 
z
" id="DejaVuSerif-101"/>
       <path d="M 47.796875 52 
L 47.796875 39.015625 
L 42.625 39.015625 
Q 42.390625 42.875 40.484375 44.78125 
Q 38.578125 46.6875 34.90625 46.6875 
Q 28.265625 46.6875 24.71875 42.09375 
Q 21.1875 37.5 21.1875 28.90625 
L 21.1875 5.171875 
L 31.59375 5.171875 
L 31.59375 0 
L 4.109375 0 
L 4.109375 5.171875 
L 12.203125 5.171875 
L 12.203125 46.78125 
L 3.609375 46.78125 
L 3.609375 51.90625 
L 21.1875 51.90625 
L 21.1875 42.671875 
Q 23.828125 48.09375 27.96875 50.703125 
Q 32.125 53.328125 38.09375 53.328125 
Q 40.28125 53.328125 42.703125 52.984375 
Q 45.125 52.640625 47.796875 52 
z
" id="DejaVuSerif-114"/>
       <path d="M 9.71875 68.015625 
Q 9.71875 70.265625 11.34375 71.921875 
Q 12.984375 73.578125 15.28125 73.578125 
Q 17.53125 73.578125 19.15625 71.921875 
Q 20.796875 70.265625 20.796875 68.015625 
Q 20.796875 65.71875 19.1875 64.109375 
Q 17.578125 62.5 15.28125 62.5 
Q 12.984375 62.5 11.34375 64.109375 
Q 9.71875 65.71875 9.71875 68.015625 
z
M 21.1875 5.171875 
L 29.6875 5.171875 
L 29.6875 0 
L 3.609375 0 
L 3.609375 5.171875 
L 12.203125 5.171875 
L 12.203125 46.6875 
L 3.609375 46.6875 
L 3.609375 51.90625 
L 21.1875 51.90625 
z
" id="DejaVuSerif-105"/>
       <path d="M 30.078125 3.421875 
Q 37.3125 3.421875 40.984375 9.125 
Q 44.671875 14.84375 44.671875 25.984375 
Q 44.671875 37.109375 40.984375 42.796875 
Q 37.3125 48.484375 30.078125 48.484375 
Q 22.859375 48.484375 19.171875 42.796875 
Q 15.484375 37.109375 15.484375 25.984375 
Q 15.484375 14.84375 19.1875 9.125 
Q 22.90625 3.421875 30.078125 3.421875 
z
M 30.078125 -1.421875 
Q 18.75 -1.421875 11.859375 6.078125 
Q 4.984375 13.578125 4.984375 25.984375 
Q 4.984375 38.375 11.84375 45.84375 
Q 18.703125 53.328125 30.078125 53.328125 
Q 41.453125 53.328125 48.3125 45.84375 
Q 55.171875 38.375 55.171875 25.984375 
Q 55.171875 13.578125 48.3125 6.078125 
Q 41.453125 -1.421875 30.078125 -1.421875 
z
" id="DejaVuSerif-111"/>
       <path d="M 52.484375 5.171875 
L 61.078125 5.171875 
L 61.078125 0 
L 43.5 0 
L 43.5 8.109375 
Q 40.875 3.21875 36.796875 0.890625 
Q 32.71875 -1.421875 26.703125 -1.421875 
Q 17.140625 -1.421875 11.0625 6.171875 
Q 4.984375 13.765625 4.984375 25.984375 
Q 4.984375 38.1875 11.03125 45.75 
Q 17.09375 53.328125 26.703125 53.328125 
Q 32.71875 53.328125 36.796875 51 
Q 40.875 48.6875 43.5 43.796875 
L 43.5 70.796875 
L 35.015625 70.796875 
L 35.015625 75.984375 
L 52.484375 75.984375 
z
M 43.5 23.390625 
L 43.5 28.515625 
Q 43.5 37.84375 39.90625 42.765625 
Q 36.328125 47.703125 29.5 47.703125 
Q 22.5625 47.703125 19.015625 42.234375 
Q 15.484375 36.765625 15.484375 25.984375 
Q 15.484375 15.234375 19.015625 9.71875 
Q 22.5625 4.203125 29.5 4.203125 
Q 36.328125 4.203125 39.90625 9.109375 
Q 43.5 14.015625 43.5 23.390625 
z
" id="DejaVuSerif-100"/>
       <path id="DejaVuSerif-32"/>
      </defs>
      <use xlink:href="#DejaVuSerif-80"/>
      <use x="62.785156" xlink:href="#DejaVuSerif-101"/>
      <use x="121.964844" xlink:href="#DejaVuSerif-114"/>
      <use x="169.767578" xlink:href="#DejaVuSerif-105"/>
      <use x="201.75" xlink:href="#DejaVuSerif-111"/>
      <use x="261.955078" xlink:href="#DejaVuSerif-100"/>
      <use x="325.96875" xlink:href="#DejaVuSerif-32"/>
      <use x="357.755859" xlink:href="#DejaVuSerif-100"/>
     </g>
    </g>
   </g>
   <g id="matplotlib.axis_2">
    <g id="ytick_1">
     <g id="line2d_19">
      <defs>
       <path d="M 0 0 
L -3.5 0 
" id="mcbf323008b" style="stroke:#000000;stroke-width:0.8;"/>
      </defs>
      <g>
       <use style="stroke:#000000;stroke-width:0.8;" x="265.92" xlink:href="#mcbf323008b" y="145.162205"/>
      </g>
     </g>
     <g id="text_4">
      <!-- 0.0 -->
      <g transform="translate(243.016875 148.961424)scale(0.1 -0.1)">
       <defs>
        <path d="M 9.421875 5.078125 
Q 9.421875 7.8125 11.28125 9.71875 
Q 13.140625 11.625 15.921875 11.625 
Q 18.609375 11.625 20.5 9.71875 
Q 22.40625 7.8125 22.40625 5.078125 
Q 22.40625 2.390625 20.5 0.484375 
Q 18.609375 -1.421875 15.921875 -1.421875 
Q 13.140625 -1.421875 11.28125 0.453125 
Q 9.421875 2.34375 9.421875 5.078125 
z
" id="DejaVuSerif-46"/>
       </defs>
       <use xlink:href="#DejaVuSerif-48"/>
       <use x="63.623047" xlink:href="#DejaVuSerif-46"/>
       <use x="95.410156" xlink:href="#DejaVuSerif-48"/>
      </g>
     </g>
    </g>
    <g id="ytick_2">
     <g id="line2d_20">
      <g>
       <use style="stroke:#000000;stroke-width:0.8;" x="265.92" xlink:href="#mcbf323008b" y="102.107312"/>
      </g>
     </g>
     <g id="text_5">
      <!-- 0.2 -->
      <g transform="translate(243.016875 105.906531)scale(0.1 -0.1)">
       <use xlink:href="#DejaVuSerif-48"/>
       <use x="63.623047" xlink:href="#DejaVuSerif-46"/>
       <use x="95.410156" xlink:href="#DejaVuSerif-50"/>
      </g>
     </g>
    </g>
    <g id="ytick_3">
     <g id="line2d_21">
      <g>
       <use style="stroke:#000000;stroke-width:0.8;" x="265.92" xlink:href="#mcbf323008b" y="59.05242"/>
      </g>
     </g>
     <g id="text_6">
      <!-- 0.4 -->
      <g transform="translate(243.016875 62.851639)scale(0.1 -0.1)">
       <defs>
        <path d="M 34.90625 24.703125 
L 34.90625 63.484375 
L 10.015625 24.703125 
z
M 56.390625 0 
L 23.1875 0 
L 23.1875 5.171875 
L 34.90625 5.171875 
L 34.90625 19.484375 
L 3.078125 19.484375 
L 3.078125 24.8125 
L 35.015625 74.21875 
L 44.671875 74.21875 
L 44.671875 24.703125 
L 58.59375 24.703125 
L 58.59375 19.484375 
L 44.671875 19.484375 
L 44.671875 5.171875 
L 56.390625 5.171875 
z
" id="DejaVuSerif-52"/>
       </defs>
       <use xlink:href="#DejaVuSerif-48"/>
       <use x="63.623047" xlink:href="#DejaVuSerif-46"/>
       <use x="95.410156" xlink:href="#DejaVuSerif-52"/>
      </g>
     </g>
    </g>
    <g id="text_7">
     <!-- Power -->
     <g transform="translate(236.937188 111.583696)rotate(-90)scale(0.1 -0.1)">
      <defs>
       <path d="M 48 51.90625 
L 61.28125 11.375 
L 73 46.6875 
L 65.484375 46.6875 
L 65.484375 51.90625 
L 84.28125 51.90625 
L 84.28125 46.6875 
L 78.515625 46.6875 
L 63.09375 0 
L 55.609375 0 
L 42.828125 38.8125 
L 29.984375 0 
L 22.796875 0 
L 7.421875 46.6875 
L 1.609375 46.6875 
L 1.609375 51.90625 
L 25.09375 51.90625 
L 25.09375 46.6875 
L 16.703125 46.6875 
L 28.328125 11.375 
L 41.703125 51.90625 
z
" id="DejaVuSerif-119"/>
      </defs>
      <use xlink:href="#DejaVuSerif-80"/>
      <use x="63.285156" xlink:href="#DejaVuSerif-111"/>
      <use x="123.490234" xlink:href="#DejaVuSerif-119"/>
      <use x="209.085938" xlink:href="#DejaVuSerif-101"/>
      <use x="268.265625" xlink:href="#DejaVuSerif-114"/>
     </g>
    </g>
   </g>
   <g id="LineCollection_1">
    <path clip-path="url(#pccecd01e77)" d="M 272.695273 46.409143 
L 407.956364 46.409143 
" style="fill:none;stroke:#808080;stroke-dasharray:5.55,2.4;stroke-dashoffset:0;stroke-width:1.5;"/>
   </g>
   <g id="LineCollection_2">
    <path clip-path="url(#pccecd01e77)" d="M 272.695273 60.412851 
L 407.956364 60.412851 
" style="fill:none;stroke:#a9a9a9;stroke-dasharray:5.55,2.4;stroke-dashoffset:0;stroke-width:1.5;"/>
   </g>
   <g id="LineCollection_3">
    <path clip-path="url(#pccecd01e77)" d="M 272.695273 71.413404 
L 407.956364 71.413404 
" style="fill:none;stroke:#c0c0c0;stroke-dasharray:5.55,2.4;stroke-dashoffset:0;stroke-width:1.5;"/>
   </g>
   <g id="LineCollection_4">
    <path clip-path="url(#pccecd01e77)" d="M 272.695273 76.602365 
L 407.956364 76.602365 
" style="fill:none;stroke:#d3d3d3;stroke-dasharray:5.55,2.4;stroke-dashoffset:0;stroke-width:1.5;"/>
   </g>
   <g id="line2d_22">
    <path clip-path="url(#pccecd01e77)" d="M 407.956364 144.725151 
L 405.906476 140.296821 
L 403.980902 130.984229 
L 402.165423 127.921048 
L 400.448127 131.969723 
L 398.818938 141.06712 
L 397.269253 144.387645 
L 395.791673 132.236722 
L 394.379786 123.200075 
L 393.027997 123.529604 
L 391.731399 126.214223 
L 390.485662 132.845804 
L 389.286945 143.297313 
L 388.131827 144.622405 
L 387.017248 141.439013 
L 385.940459 133.527534 
L 384.898981 131.022406 
L 383.890571 136.851851 
L 382.913194 135.806917 
L 381.964998 132.616273 
L 380.149518 141.49703 
L 379.279266 143.836284 
L 378.432223 141.83899 
L 377.607183 126.7907 
L 376.803033 117.682838 
L 376.01874 113.354795 
L 375.253348 114.505285 
L 374.505967 124.580907 
L 373.775768 140.780873 
L 373.06198 142.64479 
L 372.363881 130.060671 
L 371.680796 126.609844 
L 371.012092 131.457853 
L 370.357178 137.382074 
L 369.715495 141.836583 
L 369.086519 132.341011 
L 368.469757 115.345928 
L 367.864744 110.698151 
L 367.27104 122.678302 
L 366.68823 140.779054 
L 366.115922 144.401115 
L 365.553744 136.302138 
L 365.001343 125.532126 
L 364.458386 124.109369 
L 363.924554 131.611949 
L 363.399547 133.504032 
L 362.883076 131.764117 
L 362.374869 133.872348 
L 361.874666 140.419358 
L 361.382219 142.071185 
L 360.419653 120.900044 
L 359.949093 118.210677 
L 359.485402 122.495303 
L 359.028384 133.516309 
L 358.577848 141.062159 
L 358.133614 144.178001 
L 357.695507 144.831285 
L 357.263361 144.020048 
L 356.837016 138.257998 
L 356.416318 123.819344 
L 356.001119 114.709738 
L 355.591278 114.054713 
L 355.186658 119.104614 
L 354.392561 142.879983 
L 354.002836 139.801247 
L 353.617834 132.325282 
L 353.237443 129.442654 
L 352.861555 133.0493 
L 352.490062 139.901383 
L 352.122865 143.512117 
L 351.400965 137.573694 
L 351.046076 139.576809 
L 350.695108 143.699986 
L 350.347976 144.391956 
L 350.004597 139.020838 
L 349.32878 123.959504 
L 348.996188 123.740101 
L 348.667042 129.606561 
L 348.018811 143.113432 
L 347.69959 141.344558 
L 347.070614 125.568369 
L 346.760736 121.487647 
L 346.453852 124.051261 
L 345.848839 133.814931 
L 345.255135 144.487852 
L 344.962394 140.845547 
L 344.384882 114.640619 
L 344.100017 109.792219 
L 343.817685 115.199633 
L 343.260438 143.980445 
L 342.985439 142.040807 
L 342.7128 139.188483 
L 342.442481 140.574285 
L 342.174444 142.988242 
L 341.908649 141.972784 
L 341.383642 123.065729 
L 341.124357 125.182669 
L 340.612052 144.207985 
L 340.358965 141.955153 
L 340.107879 134.978787 
L 339.858762 134.751384 
L 339.366314 144.322445 
L 339.122924 135.659316 
L 338.881385 119.003444 
L 338.641669 111.663969 
L 338.403748 116.573826 
L 337.933188 142.908837 
L 337.700497 134.055181 
L 337.469498 115.54048 
L 337.240166 106.204394 
L 337.012479 110.538158 
L 336.33905 141.913574 
L 336.117709 144.782343 
L 335.8979 141.809042 
L 335.462794 131.868714 
L 335.247456 128.257603 
L 335.033568 129.396306 
L 334.610066 143.737791 
L 334.192135 141.789162 
L 333.985215 140.523469 
L 333.575374 144.539879 
L 333.372419 143.414265 
L 332.97036 139.851373 
L 332.771223 140.038356 
L 332.376656 142.366337 
L 331.986931 144.96197 
L 331.793847 143.772562 
L 331.411165 135.323903 
L 331.221539 134.436674 
L 331.033038 134.163705 
L 330.84565 135.733037 
L 330.474157 144.335919 
L 330.290028 143.590044 
L 329.743959 117.654101 
L 329.564002 120.768801 
L 329.20712 138.877037 
L 329.030171 137.802086 
L 328.854202 127.852689 
L 328.679203 125.44895 
L 328.159918 139.721021 
L 327.818385 117.669914 
L 327.648986 119.58288 
L 327.312875 137.378273 
L 327.146144 136.352227 
L 326.815284 116.406934 
L 326.651138 123.587632 
L 326.325368 144.508298 
L 326.002906 133.696701 
L 325.842895 133.739615 
L 325.52527 144.912736 
L 325.054709 119.940694 
L 324.899393 121.680936 
L 324.437948 144.793301 
L 324.28561 142.761199 
L 323.983111 131.714748 
L 323.832934 130.569421 
L 323.683465 133.205414 
L 323.386619 143.778225 
L 323.092522 137.841048 
L 322.946489 138.161308 
L 322.656421 145.093248 
L 322.512374 140.592168 
L 322.226226 119.688248 
L 322.084113 117.941056 
L 321.661549 144.773724 
L 321.521934 139.676444 
L 321.244533 126.307559 
L 320.696895 141.232904 
L 320.561448 140.86663 
L 320.426576 140.329646 
L 320.292275 141.595371 
L 320.158539 144.25353 
L 320.025364 142.784282 
L 319.629156 119.096887 
L 319.23783 141.685509 
L 318.979599 133.649901 
L 318.851267 134.139828 
L 318.596147 144.758508 
L 318.217269 127.24133 
L 317.967171 132.000313 
L 317.842857 125.30034 
L 317.595679 103.584771 
L 317.472807 108.213003 
L 317.107019 139.848374 
L 316.86548 133.28606 
L 316.506581 143.92015 
L 316.269548 130.780897 
L 316.151692 131.194393 
L 315.800725 143.728122 
L 315.684592 140.866288 
L 315.33872 120.937557 
L 314.996574 141.973741 
L 314.88334 140.714556 
L 314.658075 132.559575 
L 314.546039 135.392676 
L 314.434396 141.296768 
L 314.323145 140.65515 
L 314.101804 134.800523 
L 313.881996 144.161064 
L 313.772659 144.06642 
L 313.44689 117.317861 
L 313.339038 119.048307 
L 313.017664 143.549501 
L 312.911257 144.5691 
L 312.594161 132.072984 
L 312.384508 139.140883 
L 312.280199 138.698289 
L 312.072602 127.246888 
L 311.866353 140.78162 
L 311.763728 138.923891 
L 311.559469 111.488321 
L 311.45783 112.343895 
L 311.054494 143.197149 
L 310.954456 140.886162 
L 310.854731 140.89084 
L 310.755319 142.132349 
L 310.656216 138.253734 
L 310.458935 125.44798 
L 310.165291 142.403781 
L 309.874337 129.034756 
L 309.586025 144.523467 
L 309.39526 132.311554 
L 309.300305 134.018066 
L 309.111244 141.055812 
L 308.923301 132.52998 
L 308.736464 126.510045 
L 308.643456 127.266531 
L 308.458253 134.463921 
L 308.182457 124.979665 
L 307.818416 144.416778 
L 307.637949 142.137466 
L 307.4585 143.514792 
L 307.28006 136.418893 
L 307.102617 140.687592 
L 306.92616 144.614124 
L 306.750678 141.340034 
L 306.576159 144.29994 
L 306.489258 142.309507 
L 306.316167 131.588554 
L 306.229973 133.939374 
L 306.058285 144.059335 
L 305.972788 143.424791 
L 305.633082 131.1712 
L 305.54872 132.263432 
L 305.380665 142.873731 
L 305.213495 128.093823 
L 305.130239 121.743365 
L 305.0472 125.433181 
L 304.881772 144.715682 
L 304.635233 123.187727 
L 304.553477 127.274046 
L 304.390593 144.33812 
L 304.147823 125.964694 
L 303.906895 143.582328 
L 303.747285 127.886018 
L 303.509365 139.004614 
L 303.273213 109.523768 
L 303.194885 113.382976 
L 303.038805 127.10318 
L 302.961051 125.010138 
L 302.806113 106.931698 
L 302.728927 109.901396 
L 302.575114 127.638974 
L 302.498486 124.877421 
L 302.345783 103.1777 
L 302.269706 105.399405 
L 302.118096 125.233871 
L 301.81703 93.123839 
L 301.51879 130.573275 
L 301.444666 130.131565 
L 301.370714 132.267765 
L 301.149887 144.799999 
L 300.930584 144.319996 
L 300.785219 140.147431 
L 300.568411 133.875699 
L 300.42469 138.982022 
L 300.353073 136.960537 
L 300.139185 118.60674 
L 299.926728 143.475355 
L 299.715682 122.064364 
L 299.57576 132.920018 
L 299.436452 105.162843 
L 299.297752 77.008758 
L 299.090831 121.001664 
L 299.022156 119.14127 
L 298.953629 118.955286 
L 298.88525 122.829577 
L 298.68099 143.926725 
L 298.545543 132.442127 
L 298.478036 133.958186 
L 298.410672 136.837915 
L 298.27637 115.083094 
L 298.142634 94.775666 
L 298.075977 100.680813 
L 297.94308 126.861547 
L 297.87684 121.961991 
L 297.744772 104.36642 
L 297.613251 129.045025 
L 297.547695 140.276141 
L 297.416986 106.859006 
L 297.351832 91.117237 
L 297.286812 93.192764 
L 297.157171 105.264354 
L 297.092547 101.415354 
L 296.963694 65.55838 
L 296.899463 67.991637 
L 296.64383 121.765235 
L 296.453447 131.665932 
L 296.327155 141.408078 
L 296.264197 140.760747 
L 296.013606 131.935956 
L 295.764977 89.674832 
L 295.641389 109.005545 
L 295.579774 108.352601 
L 295.518279 104.036484 
L 295.456903 106.985936 
L 295.212576 136.285511 
L 295.151788 132.710475 
L 294.789477 114.416744 
L 294.609859 131.117639 
L 294.550212 129.852251 
L 294.490676 127.88363 
L 294.431252 128.8069 
L 294.253644 143.697202 
L 294.077023 123.55317 
L 294.018367 124.596516 
L 293.901379 136.223841 
L 293.7267 95.583854 
L 293.668687 99.85702 
L 293.495281 136.991108 
L 293.3802 129.845368 
L 293.208357 144.408705 
L 293.151282 141.144829 
L 293.037439 134.846592 
L 292.924002 142.650068 
L 292.867435 142.512168 
L 292.754603 138.194988 
L 292.586103 144.985213 
L 292.530134 144.247819 
L 292.362817 138.698316 
L 292.25176 141.924738 
L 292.196377 140.244459 
L 291.975805 96.334966 
L 291.920901 105.606489 
L 291.811376 114.312551 
L 291.647793 96.471537 
L 291.430985 128.041463 
L 291.377013 127.690471 
L 291.323133 125.471233 
L 291.269345 127.607426 
L 290.895353 139.776787 
L 290.789302 139.019805 
L 290.683604 140.194352 
L 290.578256 138.475724 
L 290.420887 140.939552 
L 290.316406 132.676188 
L 290.212268 118.087277 
L 290.160326 119.822136 
L 290.005009 132.283361 
L 289.953405 131.508479 
L 289.901885 132.419543 
L 289.747824 143.841283 
L 289.696636 140.753788 
L 289.64553 137.51643 
L 289.594506 137.798223 
L 289.492704 142.495338 
L 289.441925 140.677944 
L 289.34061 136.288748 
L 289.138944 141.08977 
L 289.088727 141.458219 
L 288.988531 143.996271 
L 288.789081 119.363482 
L 288.689824 126.715295 
L 288.590876 136.430344 
L 288.541518 135.578529 
L 288.393901 104.659931 
L 288.344847 107.212585 
L 288.198139 132.061623 
L 288.149386 131.572115 
L 288.100709 130.766559 
L 287.955121 136.955355 
L 287.810198 122.964016 
L 287.762037 125.471405 
L 287.665934 128.986799 
L 287.617991 128.839533 
L 287.57012 128.105681 
L 287.522321 128.643159 
L 287.284401 143.64962 
L 287.189729 142.682169 
L 286.81384 130.390177 
L 286.720559 133.883183 
L 286.442348 142.953406 
L 286.396216 140.805265 
L 286.258219 118.264085 
L 286.212353 120.250215 
L 286.120819 136.290037 
L 286.07515 134.56469 
L 285.984011 127.794765 
L 285.847789 144.328272 
L 285.757298 141.458098 
L 285.71215 140.06185 
L 285.667065 141.678964 
L 285.622044 143.355986 
L 285.577087 142.13412 
L 285.397892 128.182976 
L 285.35325 129.509628 
L 285.264156 134.127892 
L 285.13098 122.460366 
L 284.998361 141.24684 
L 284.954278 135.984641 
L 284.866294 124.62906 
L 284.822393 130.412278 
L 284.778553 135.179031 
L 284.734773 129.891499 
L 284.603794 93.546183 
L 284.560255 104.829018 
L 284.429992 130.259419 
L 284.343447 122.728119 
L 284.300262 127.471158 
L 284.17106 142.531942 
L 284.128109 139.029911 
L 283.956883 126.582771 
L 283.871615 123.373341 
L 283.786576 117.460892 
L 283.744141 120.566606 
L 283.701763 121.112184 
L 283.490718 144.664649 
L 283.406691 140.546219 
L 283.155935 126.854988 
L 283.114334 128.442596 
L 282.948474 138.897972 
L 282.907143 139.332248 
L 282.824644 142.742469 
L 282.783475 141.37659 
L 282.619328 135.269821 
L 282.578424 136.632203 
L 282.537572 135.857784 
L 282.374689 107.600286 
L 282.253072 137.533633 
L 282.212636 130.931281 
L 282.172252 127.564107 
L 282.131919 128.574878 
L 282.011226 144.260539 
L 281.971097 140.178796 
L 281.931018 136.144923 
L 281.89099 136.475749 
L 281.811085 144.906312 
L 281.771208 143.050583 
L 281.691603 137.217353 
L 281.651876 139.862802 
L 281.572569 145.152 
L 281.53299 143.331097 
L 281.45398 138.442302 
L 281.414548 139.082776 
L 281.375165 140.711412 
L 281.335831 139.419383 
L 281.17898 99.959973 
L 281.100844 117.416778 
L 280.945147 102.445897 
L 280.828872 142.300541 
L 280.751592 140.038517 
L 280.713022 139.983908 
L 280.636023 145.10729 
L 280.597593 144.164459 
L 280.520872 141.637317 
L 280.482582 143.014011 
L 280.444337 144.248178 
L 280.367985 143.170123 
L 280.291817 140.37433 
L 280.140026 131.343002 
L 280.102191 131.787843 
L 280.064401 133.201319 
L 280.026656 130.95234 
L 279.988957 129.618519 
L 279.951301 130.506932 
L 279.838602 131.756037 
L 279.763691 138.642617 
L 279.726302 135.616377 
L 279.651655 129.144532 
L 279.614397 132.731798 
L 279.502886 144.334091 
L 279.465802 142.97901 
L 279.428761 142.88466 
L 279.35481 144.046359 
L 279.244204 138.429352 
L 279.207421 138.922898 
L 279.060713 144.383346 
L 279.024141 142.630502 
L 278.914679 132.690179 
L 278.878276 132.857473 
L 278.841914 132.916901 
L 278.769314 139.276442 
L 278.733077 142.328865 
L 278.69688 137.615028 
L 278.552506 103.974349 
L 278.444655 141.397275 
L 278.372957 134.76242 
L 278.337168 135.690397 
L 278.265712 145.013593 
L 278.230044 140.412249 
L 278.158828 128.192388 
L 278.12328 130.595226 
L 278.052303 139.231064 
L 278.016874 137.194162 
L 277.981484 135.784925 
L 277.946134 135.89247 
L 277.875551 144.245738 
L 277.805125 139.869755 
L 277.76997 139.949261 
L 277.699778 131.446103 
L 277.594778 119.912403 
L 277.559856 126.314761 
L 277.490125 139.18634 
L 277.420547 136.295058 
L 277.351122 133.705547 
L 277.316466 133.957411 
L 277.212724 144.730005 
L 277.178218 143.795892 
L 276.937724 135.01422 
L 276.903516 135.772833 
L 276.869345 136.890465 
L 276.83521 135.404442 
L 276.767051 130.705146 
L 276.665086 144.958629 
L 276.59729 144.107257 
L 276.563446 143.708976 
L 276.529639 144.315907 
L 276.495867 144.253899 
L 276.361138 138.93688 
L 276.327545 139.346126 
L 276.260466 144.618261 
L 276.226979 141.999767 
L 276.160111 132.996604 
L 276.12673 133.326691 
L 276.060072 143.656254 
L 276.026796 138.643781 
L 275.960348 130.27691 
L 275.927176 131.208618 
L 275.894038 135.939571 
L 275.860935 130.014077 
L 275.827867 123.604817 
L 275.761833 126.026545 
L 275.663039 137.23548 
L 275.630176 129.471899 
L 275.597347 128.250627 
L 275.564551 130.969176 
L 275.499062 144.055594 
L 275.466368 141.417915 
L 275.401081 129.516836 
L 275.335928 135.827499 
L 275.270908 144.878976 
L 275.206021 140.813087 
L 275.108938 134.830582 
L 275.076643 138.842792 
L 275.012151 144.400461 
L 274.94779 144.313647 
L 274.915658 144.694026 
L 274.787455 130.60601 
L 274.723547 137.793484 
L 274.659767 136.284037 
L 274.627926 137.070031 
L 274.532591 144.594902 
L 274.437542 141.961582 
L 274.374333 143.783318 
L 274.342776 142.134814 
L 274.21686 128.431704 
L 274.185459 128.562346 
L 274.12275 132.832363 
L 274.091442 128.410348 
L 274.060164 124.444983 
L 273.997702 128.477776 
L 273.84208 144.181401 
L 273.811048 143.636321 
L 273.749072 131.518018 
L 273.687218 135.937018 
L 273.625484 141.120487 
L 273.594662 135.704942 
L 273.563869 131.802849 
L 273.533107 134.963007 
L 273.471671 144.793082 
L 273.440998 138.852291 
L 273.349155 125.216768 
L 273.3186 131.05772 
L 273.288074 138.050274 
L 273.257577 130.841575 
L 273.196672 110.265116 
L 273.135883 114.933113 
L 273.044917 138.597213 
L 272.984417 130.924376 
L 272.773572 145.138242 
L 272.713587 140.605197 
L 272.683636 136.135428 
L 272.683636 136.135428 
" style="fill:none;stroke:#1f77b4;stroke-linecap:square;stroke-width:1.5;"/>
   </g>
   <g id="patch_3">
    <path d="M 265.92 150.089143 
L 265.92 41.472 
" style="fill:none;stroke:#000000;stroke-linecap:square;stroke-linejoin:miter;stroke-width:0.8;"/>
   </g>
   <g id="patch_4">
    <path d="M 414.72 150.089143 
L 414.72 41.472 
" style="fill:none;stroke:#000000;stroke-linecap:square;stroke-linejoin:miter;stroke-width:0.8;"/>
   </g>
   <g id="patch_5">
    <path d="M 265.92 150.089143 
L 414.72 150.089143 
" style="fill:none;stroke:#000000;stroke-linecap:square;stroke-linejoin:miter;stroke-width:0.8;"/>
   </g>
   <g id="patch_6">
    <path d="M 265.92 41.472 
L 414.72 41.472 
" style="fill:none;stroke:#000000;stroke-linecap:square;stroke-linejoin:miter;stroke-width:0.8;"/>
   </g>
   <g id="text_8">
    <!-- Periodogram -->
    <g transform="translate(307.698125 35.472)scale(0.1 -0.1)">
     <defs>
      <path d="M 52.484375 46.6875 
L 52.484375 1.125 
Q 52.484375 -10.0625 46.328125 -16.140625 
Q 40.1875 -22.21875 28.8125 -22.21875 
Q 23.6875 -22.21875 19 -21.28125 
Q 14.3125 -20.359375 10.015625 -18.5 
L 10.015625 -7.625 
L 14.703125 -7.625 
Q 15.578125 -12.703125 18.84375 -15.046875 
Q 22.125 -17.390625 28.21875 -17.390625 
Q 36.140625 -17.390625 39.8125 -12.921875 
Q 43.5 -8.453125 43.5 1.125 
L 43.5 8.109375 
Q 40.875 3.21875 36.796875 0.890625 
Q 32.71875 -1.421875 26.703125 -1.421875 
Q 17.140625 -1.421875 11.0625 6.171875 
Q 4.984375 13.765625 4.984375 25.984375 
Q 4.984375 38.1875 11.03125 45.75 
Q 17.09375 53.328125 26.703125 53.328125 
Q 32.71875 53.328125 36.796875 51 
Q 40.875 48.6875 43.5 43.796875 
L 43.5 51.90625 
L 61.078125 51.90625 
L 61.078125 46.6875 
z
M 43.5 28.515625 
Q 43.5 37.84375 39.90625 42.765625 
Q 36.328125 47.703125 29.5 47.703125 
Q 22.5625 47.703125 19.015625 42.234375 
Q 15.484375 36.765625 15.484375 25.984375 
Q 15.484375 15.234375 19.015625 9.71875 
Q 22.5625 4.203125 29.5 4.203125 
Q 36.328125 4.203125 39.90625 9.109375 
Q 43.5 14.015625 43.5 23.390625 
z
" id="DejaVuSerif-103"/>
      <path d="M 39.796875 16.3125 
L 39.796875 27.296875 
L 28.21875 27.296875 
Q 21.53125 27.296875 18.25 24.40625 
Q 14.984375 21.53125 14.984375 15.578125 
Q 14.984375 10.15625 18.296875 6.984375 
Q 21.625 3.8125 27.296875 3.8125 
Q 32.90625 3.8125 36.34375 7.28125 
Q 39.796875 10.75 39.796875 16.3125 
z
M 48.78125 32.421875 
L 48.78125 5.171875 
L 56.78125 5.171875 
L 56.78125 0 
L 39.796875 0 
L 39.796875 5.609375 
Q 36.8125 2 32.90625 0.28125 
Q 29 -1.421875 23.78125 -1.421875 
Q 15.140625 -1.421875 10.0625 3.171875 
Q 4.984375 7.765625 4.984375 15.578125 
Q 4.984375 23.640625 10.796875 28.078125 
Q 16.609375 32.515625 27.203125 32.515625 
L 39.796875 32.515625 
L 39.796875 36.078125 
Q 39.796875 42 36.203125 45.234375 
Q 32.625 48.484375 26.125 48.484375 
Q 20.75 48.484375 17.578125 46.046875 
Q 14.40625 43.609375 13.625 38.8125 
L 8.984375 38.8125 
L 8.984375 49.3125 
Q 13.671875 51.3125 18.09375 52.3125 
Q 22.515625 53.328125 26.703125 53.328125 
Q 37.5 53.328125 43.140625 47.96875 
Q 48.78125 42.625 48.78125 32.421875 
z
" id="DejaVuSerif-97"/>
      <path d="M 51.8125 41.796875 
Q 54.390625 47.515625 58.421875 50.421875 
Q 62.453125 53.328125 67.828125 53.328125 
Q 75.984375 53.328125 79.984375 48.265625 
Q 83.984375 43.21875 83.984375 33.015625 
L 83.984375 5.171875 
L 92.09375 5.171875 
L 92.09375 0 
L 67.1875 0 
L 67.1875 5.171875 
L 75 5.171875 
L 75 31.984375 
Q 75 39.9375 72.65625 43.3125 
Q 70.3125 46.6875 64.890625 46.6875 
Q 58.890625 46.6875 55.734375 42.140625 
Q 52.59375 37.59375 52.59375 28.90625 
L 52.59375 5.171875 
L 60.40625 5.171875 
L 60.40625 0 
L 35.796875 0 
L 35.796875 5.171875 
L 43.609375 5.171875 
L 43.609375 32.328125 
Q 43.609375 40.09375 41.265625 43.390625 
Q 38.921875 46.6875 33.5 46.6875 
Q 27.484375 46.6875 24.328125 42.140625 
Q 21.1875 37.59375 21.1875 28.90625 
L 21.1875 5.171875 
L 29 5.171875 
L 29 0 
L 4.109375 0 
L 4.109375 5.171875 
L 12.203125 5.171875 
L 12.203125 46.78125 
L 3.609375 46.78125 
L 3.609375 51.90625 
L 21.1875 51.90625 
L 21.1875 42.671875 
Q 23.6875 47.859375 27.53125 50.59375 
Q 31.390625 53.328125 36.28125 53.328125 
Q 42.328125 53.328125 46.375 50.3125 
Q 50.4375 47.3125 51.8125 41.796875 
z
" id="DejaVuSerif-109"/>
     </defs>
     <use xlink:href="#DejaVuSerif-80"/>
     <use x="62.785156" xlink:href="#DejaVuSerif-101"/>
     <use x="121.964844" xlink:href="#DejaVuSerif-114"/>
     <use x="169.767578" xlink:href="#DejaVuSerif-105"/>
     <use x="201.75" xlink:href="#DejaVuSerif-111"/>
     <use x="261.955078" xlink:href="#DejaVuSerif-100"/>
     <use x="325.96875" xlink:href="#DejaVuSerif-111"/>
     <use x="386.173828" xlink:href="#DejaVuSerif-103"/>
     <use x="450.1875" xlink:href="#DejaVuSerif-114"/>
     <use x="497.990234" xlink:href="#DejaVuSerif-97"/>
     <use x="557.609375" xlink:href="#DejaVuSerif-109"/>
    </g>
   </g>
   <g id="legend_1">
    <g id="patch_7">
     <path d="M 419.648125 108.123071 
L 454.431875 108.123071 
Q 455.231875 108.123071 455.231875 107.323071 
L 455.231875 84.238071 
Q 455.231875 83.438071 454.431875 83.438071 
L 419.648125 83.438071 
Q 418.848125 83.438071 418.848125 84.238071 
L 418.848125 107.323071 
Q 418.848125 108.123071 419.648125 108.123071 
z
" style="fill:#ffffff;opacity:0.8;stroke:#cccccc;stroke-linejoin:miter;"/>
    </g>
    <g id="line2d_23">
     <path d="M 420.448125 86.677446 
L 428.448125 86.677446 
" style="fill:none;stroke:#808080;stroke-dasharray:5.55,2.4;stroke-dashoffset:0;stroke-width:1.5;"/>
    </g>
    <g id="text_9">
     <!-- 99.9% FAP -->
     <g transform="translate(431.648125 88.077446)scale(0.04 -0.04)">
      <defs>
       <path d="M 46.78125 32.671875 
Q 43.5 29 39.25 27.1875 
Q 35.015625 25.390625 29.6875 25.390625 
Q 18.84375 25.390625 12.5625 31.9375 
Q 6.296875 38.484375 6.296875 49.8125 
Q 6.296875 60.890625 13.109375 67.546875 
Q 19.921875 74.21875 31.296875 74.21875 
Q 43.65625 74.21875 50.265625 65.015625 
Q 56.890625 55.8125 56.890625 38.71875 
Q 56.890625 19.578125 49.015625 9.078125 
Q 41.15625 -1.421875 26.90625 -1.421875 
Q 23.046875 -1.421875 18.796875 -0.6875 
Q 14.546875 0.046875 10.109375 1.515625 
L 10.109375 13.625 
L 15.578125 13.625 
Q 16.21875 8.6875 19.390625 6.046875 
Q 22.5625 3.421875 27.875 3.421875 
Q 37.359375 3.421875 41.984375 10.5625 
Q 46.625 17.71875 46.78125 32.671875 
z
M 30.90625 69.390625 
Q 23.96875 69.390625 20.28125 64.328125 
Q 16.609375 59.28125 16.609375 49.8125 
Q 16.609375 40.328125 20.28125 35.25 
Q 23.96875 30.171875 30.90625 30.171875 
Q 37.84375 30.171875 41.53125 35.078125 
Q 45.21875 39.984375 45.21875 49.21875 
Q 45.21875 58.9375 41.5 64.15625 
Q 37.796875 69.390625 30.90625 69.390625 
z
" id="DejaVuSerif-57"/>
       <path d="M 22.40625 69.671875 
Q 18.109375 69.671875 15.6875 65.625 
Q 13.28125 61.578125 13.28125 54.296875 
Q 13.28125 47.125 15.75 43.015625 
Q 18.21875 38.921875 22.40625 38.921875 
Q 26.5625 38.921875 28.96875 43 
Q 31.390625 47.078125 31.390625 54.296875 
Q 31.390625 61.53125 28.96875 65.59375 
Q 26.5625 69.671875 22.40625 69.671875 
z
M 72.703125 33.890625 
Q 68.453125 33.890625 66.03125 29.78125 
Q 63.625 25.6875 63.625 18.40625 
Q 63.625 11.234375 66.0625 7.15625 
Q 68.5 3.078125 72.703125 3.078125 
Q 76.90625 3.078125 79.296875 7.15625 
Q 81.6875 11.234375 81.6875 18.40625 
Q 81.6875 25.640625 79.265625 29.765625 
Q 76.859375 33.890625 72.703125 33.890625 
z
M 72.703125 38.28125 
Q 80.421875 38.28125 84.953125 32.90625 
Q 89.5 27.546875 89.5 18.40625 
Q 89.5 9.28125 84.9375 3.921875 
Q 80.375 -1.421875 72.703125 -1.421875 
Q 64.890625 -1.421875 60.34375 3.921875 
Q 55.8125 9.28125 55.8125 18.40625 
Q 55.8125 27.59375 60.375 32.9375 
Q 64.9375 38.28125 72.703125 38.28125 
z
M 66.609375 74.21875 
L 74.03125 74.21875 
L 28.421875 -1.421875 
L 21 -1.421875 
z
M 22.3125 74.21875 
Q 30.03125 74.21875 34.609375 68.875 
Q 39.203125 63.53125 39.203125 54.390625 
Q 39.203125 45.171875 34.640625 39.84375 
Q 30.078125 34.515625 22.3125 34.515625 
Q 14.546875 34.515625 10.03125 39.859375 
Q 5.515625 45.21875 5.515625 54.390625 
Q 5.515625 63.484375 10.046875 68.84375 
Q 14.59375 74.21875 22.3125 74.21875 
z
" id="DejaVuSerif-37"/>
       <path d="M 5.515625 0 
L 5.515625 5.171875 
L 14.796875 5.171875 
L 14.796875 67.671875 
L 5.515625 67.671875 
L 5.515625 72.90625 
L 65.1875 72.90625 
L 65.1875 56.6875 
L 59.1875 56.6875 
L 59.1875 66.890625 
L 24.703125 66.890625 
L 24.703125 42.484375 
L 49.609375 42.484375 
L 49.609375 51.609375 
L 55.609375 51.609375 
L 55.609375 27.390625 
L 49.609375 27.390625 
L 49.609375 36.53125 
L 24.703125 36.53125 
L 24.703125 5.171875 
L 36.375 5.171875 
L 36.375 0 
z
" id="DejaVuSerif-70"/>
       <path d="M 20.015625 26.421875 
L 46.78125 26.421875 
L 33.40625 61.078125 
z
M -0.59375 0 
L -0.59375 5.171875 
L 5.8125 5.171875 
L 31.78125 72.90625 
L 39.984375 72.90625 
L 66.015625 5.171875 
L 73.1875 5.171875 
L 73.1875 0 
L 46.6875 0 
L 46.6875 5.171875 
L 54.78125 5.171875 
L 48.6875 21.1875 
L 18.015625 21.1875 
L 11.921875 5.171875 
L 19.921875 5.171875 
L 19.921875 0 
z
" id="DejaVuSerif-65"/>
      </defs>
      <use xlink:href="#DejaVuSerif-57"/>
      <use x="63.623047" xlink:href="#DejaVuSerif-57"/>
      <use x="127.246094" xlink:href="#DejaVuSerif-46"/>
      <use x="159.033203" xlink:href="#DejaVuSerif-57"/>
      <use x="222.65625" xlink:href="#DejaVuSerif-37"/>
      <use x="317.675781" xlink:href="#DejaVuSerif-32"/>
      <use x="349.462891" xlink:href="#DejaVuSerif-70"/>
      <use x="410.097656" xlink:href="#DejaVuSerif-65"/>
      <use x="482.314453" xlink:href="#DejaVuSerif-80"/>
     </g>
    </g>
    <g id="line2d_24">
     <path d="M 420.448125 92.548696 
L 428.448125 92.548696 
" style="fill:none;stroke:#a9a9a9;stroke-dasharray:5.55,2.4;stroke-dashoffset:0;stroke-width:1.5;"/>
    </g>
    <g id="text_10">
     <!-- 99.0% FAP -->
     <g transform="translate(431.648125 93.948696)scale(0.04 -0.04)">
      <use xlink:href="#DejaVuSerif-57"/>
      <use x="63.623047" xlink:href="#DejaVuSerif-57"/>
      <use x="127.246094" xlink:href="#DejaVuSerif-46"/>
      <use x="159.033203" xlink:href="#DejaVuSerif-48"/>
      <use x="222.65625" xlink:href="#DejaVuSerif-37"/>
      <use x="317.675781" xlink:href="#DejaVuSerif-32"/>
      <use x="349.462891" xlink:href="#DejaVuSerif-70"/>
      <use x="410.097656" xlink:href="#DejaVuSerif-65"/>
      <use x="482.314453" xlink:href="#DejaVuSerif-80"/>
     </g>
    </g>
    <g id="line2d_25">
     <path d="M 420.448125 98.419946 
L 428.448125 98.419946 
" style="fill:none;stroke:#c0c0c0;stroke-dasharray:5.55,2.4;stroke-dashoffset:0;stroke-width:1.5;"/>
    </g>
    <g id="text_11">
     <!-- 95.0% FAP -->
     <g transform="translate(431.648125 99.819946)scale(0.04 -0.04)">
      <defs>
       <path d="M 50.296875 72.90625 
L 50.296875 64.890625 
L 16.890625 64.890625 
L 16.890625 44 
Q 19.4375 45.75 22.828125 46.625 
Q 26.21875 47.515625 30.421875 47.515625 
Q 42.234375 47.515625 49.0625 40.96875 
Q 55.90625 34.421875 55.90625 23.09375 
Q 55.90625 11.53125 49 5.046875 
Q 42.09375 -1.421875 29.59375 -1.421875 
Q 24.5625 -1.421875 19.28125 -0.1875 
Q 14.015625 1.03125 8.5 3.515625 
L 8.5 17.671875 
L 14.015625 17.671875 
Q 14.453125 10.75 18.421875 7.078125 
Q 22.40625 3.421875 29.59375 3.421875 
Q 37.3125 3.421875 41.453125 8.5 
Q 45.609375 13.578125 45.609375 23.09375 
Q 45.609375 32.5625 41.484375 37.609375 
Q 37.359375 42.671875 29.59375 42.671875 
Q 25.203125 42.671875 21.84375 41.109375 
Q 18.5 39.546875 15.921875 36.28125 
L 11.71875 36.28125 
L 11.71875 72.90625 
z
" id="DejaVuSerif-53"/>
      </defs>
      <use xlink:href="#DejaVuSerif-57"/>
      <use x="63.623047" xlink:href="#DejaVuSerif-53"/>
      <use x="127.246094" xlink:href="#DejaVuSerif-46"/>
      <use x="159.033203" xlink:href="#DejaVuSerif-48"/>
      <use x="222.65625" xlink:href="#DejaVuSerif-37"/>
      <use x="317.675781" xlink:href="#DejaVuSerif-32"/>
      <use x="349.462891" xlink:href="#DejaVuSerif-70"/>
      <use x="410.097656" xlink:href="#DejaVuSerif-65"/>
      <use x="482.314453" xlink:href="#DejaVuSerif-80"/>
     </g>
    </g>
    <g id="line2d_26">
     <path d="M 420.448125 104.291196 
L 428.448125 104.291196 
" style="fill:none;stroke:#d3d3d3;stroke-dasharray:5.55,2.4;stroke-dashoffset:0;stroke-width:1.5;"/>
    </g>
    <g id="text_12">
     <!-- 90.0% FAP -->
     <g transform="translate(431.648125 105.691196)scale(0.04 -0.04)">
      <use xlink:href="#DejaVuSerif-57"/>
      <use x="63.623047" xlink:href="#DejaVuSerif-48"/>
      <use x="127.246094" xlink:href="#DejaVuSerif-46"/>
      <use x="159.033203" xlink:href="#DejaVuSerif-48"/>
      <use x="222.65625" xlink:href="#DejaVuSerif-37"/>
      <use x="317.675781" xlink:href="#DejaVuSerif-32"/>
      <use x="349.462891" xlink:href="#DejaVuSerif-70"/>
      <use x="410.097656" xlink:href="#DejaVuSerif-65"/>
      <use x="482.314453" xlink:href="#DejaVuSerif-80"/>
     </g>
    </g>
   </g>
  </g>
  <g id="axes_2">
   <g id="patch_8">
    <path d="M 57.6 150.089143 
L 206.4 150.089143 
L 206.4 41.472 
L 57.6 41.472 
z
" style="fill:#ffffff;"/>
   </g>
   <g id="PathCollection_1">
    <defs>
     <path d="M 0 0.707107 
C 0.187527 0.707107 0.367398 0.632602 0.5 0.5 
C 0.632602 0.367398 0.707107 0.187527 0.707107 0 
C 0.707107 -0.187527 0.632602 -0.367398 0.5 -0.5 
C 0.367398 -0.632602 0.187527 -0.707107 0 -0.707107 
C -0.187527 -0.707107 -0.367398 -0.632602 -0.5 -0.5 
C -0.632602 -0.367398 -0.707107 -0.187527 -0.707107 0 
C -0.707107 0.187527 -0.632602 0.367398 -0.5 0.5 
C -0.367398 0.632602 -0.187527 0.707107 0 0.707107 
z
" id="ma80f171494" style="stroke:#1f77b4;"/>
    </defs>
    <g clip-path="url(#p9f82310d11)">
     <use style="fill:#1f77b4;stroke:#1f77b4;" x="66.419022" xlink:href="#ma80f171494" y="79.485005"/>
     <use style="fill:#1f77b4;stroke:#1f77b4;" x="66.427155" xlink:href="#ma80f171494" y="79.307057"/>
     <use style="fill:#1f77b4;stroke:#1f77b4;" x="94.706412" xlink:href="#ma80f171494" y="94.74489"/>
     <use style="fill:#1f77b4;stroke:#1f77b4;" x="94.714545" xlink:href="#ma80f171494" y="95.739938"/>
     <use style="fill:#1f77b4;stroke:#1f77b4;" x="131.374965" xlink:href="#ma80f171494" y="91.36519"/>
     <use style="fill:#1f77b4;stroke:#1f77b4;" x="115.249354" xlink:href="#ma80f171494" y="80.504356"/>
     <use style="fill:#1f77b4;stroke:#1f77b4;" x="115.305872" xlink:href="#ma80f171494" y="76.795668"/>
     <use style="fill:#1f77b4;stroke:#1f77b4;" x="64.363636" xlink:href="#ma80f171494" y="83.50883"/>
     <use style="fill:#1f77b4;stroke:#1f77b4;" x="93.588681" xlink:href="#ma80f171494" y="74.802696"/>
     <use style="fill:#1f77b4;stroke:#1f77b4;" x="111.135954" xlink:href="#ma80f171494" y="142.579989"/>
     <use style="fill:#1f77b4;stroke:#1f77b4;" x="111.143884" xlink:href="#ma80f171494" y="145.152"/>
     <use style="fill:#1f77b4;stroke:#1f77b4;" x="78.373481" xlink:href="#ma80f171494" y="73.00859"/>
     <use style="fill:#1f77b4;stroke:#1f77b4;" x="78.381612" xlink:href="#ma80f171494" y="76.575909"/>
     <use style="fill:#1f77b4;stroke:#1f77b4;" x="112.947965" xlink:href="#ma80f171494" y="102.008361"/>
     <use style="fill:#1f77b4;stroke:#1f77b4;" x="112.956098" xlink:href="#ma80f171494" y="97.885773"/>
     <use style="fill:#1f77b4;stroke:#1f77b4;" x="130.341335" xlink:href="#ma80f171494" y="92.95288"/>
     <use style="fill:#1f77b4;stroke:#1f77b4;" x="130.349466" xlink:href="#ma80f171494" y="93.380891"/>
     <use style="fill:#1f77b4;stroke:#1f77b4;" x="80.583974" xlink:href="#ma80f171494" y="85.453977"/>
     <use style="fill:#1f77b4;stroke:#1f77b4;" x="80.591903" xlink:href="#ma80f171494" y="85.503091"/>
     <use style="fill:#1f77b4;stroke:#1f77b4;" x="97.392427" xlink:href="#ma80f171494" y="90.915219"/>
     <use style="fill:#1f77b4;stroke:#1f77b4;" x="97.40056" xlink:href="#ma80f171494" y="91.88936"/>
     <use style="fill:#1f77b4;stroke:#1f77b4;" x="114.941529" xlink:href="#ma80f171494" y="116.166079"/>
     <use style="fill:#1f77b4;stroke:#1f77b4;" x="114.949458" xlink:href="#ma80f171494" y="115.156921"/>
     <use style="fill:#1f77b4;stroke:#1f77b4;" x="68.377788" xlink:href="#ma80f171494" y="86.244417"/>
     <use style="fill:#1f77b4;stroke:#1f77b4;" x="122.072264" xlink:href="#ma80f171494" y="102.60936"/>
     <use style="fill:#1f77b4;stroke:#1f77b4;" x="71.296739" xlink:href="#ma80f171494" y="79.658774"/>
     <use style="fill:#1f77b4;stroke:#1f77b4;" x="88.86658" xlink:href="#ma80f171494" y="84.516153"/>
     <use style="fill:#1f77b4;stroke:#1f77b4;" x="106.400027" xlink:href="#ma80f171494" y="116.401772"/>
     <use style="fill:#1f77b4;stroke:#1f77b4;" x="124.039806" xlink:href="#ma80f171494" y="95.251565"/>
     <use style="fill:#1f77b4;stroke:#1f77b4;" x="130.308586" xlink:href="#ma80f171494" y="96.693174"/>
     <use style="fill:#1f77b4;stroke:#1f77b4;" x="80.086325" xlink:href="#ma80f171494" y="68.993916"/>
     <use style="fill:#1f77b4;stroke:#1f77b4;" x="100.214994" xlink:href="#ma80f171494" y="132.066953"/>
     <use style="fill:#1f77b4;stroke:#1f77b4;" x="118.104841" xlink:href="#ma80f171494" y="98.524392"/>
     <use style="fill:#1f77b4;stroke:#1f77b4;" x="104.180572" xlink:href="#ma80f171494" y="67.647672"/>
     <use style="fill:#1f77b4;stroke:#1f77b4;" x="88.952765" xlink:href="#ma80f171494" y="81.570205"/>
     <use style="fill:#1f77b4;stroke:#1f77b4;" x="105.37241" xlink:href="#ma80f171494" y="103.466176"/>
     <use style="fill:#1f77b4;stroke:#1f77b4;" x="107.373699" xlink:href="#ma80f171494" y="124.277476"/>
     <use style="fill:#1f77b4;stroke:#1f77b4;" x="78.116516" xlink:href="#ma80f171494" y="46.409143"/>
     <use style="fill:#1f77b4;stroke:#1f77b4;" x="124.579614" xlink:href="#ma80f171494" y="77.654046"/>
     <use style="fill:#1f77b4;stroke:#1f77b4;" x="128.677395" xlink:href="#ma80f171494" y="73.270408"/>
     <use style="fill:#1f77b4;stroke:#1f77b4;" x="87.094684" xlink:href="#ma80f171494" y="102.457018"/>
     <use style="fill:#1f77b4;stroke:#1f77b4;" x="87.102613" xlink:href="#ma80f171494" y="101.726939"/>
     <use style="fill:#1f77b4;stroke:#1f77b4;" x="104.211962" xlink:href="#ma80f171494" y="105.931315"/>
     <use style="fill:#1f77b4;stroke:#1f77b4;" x="104.219891" xlink:href="#ma80f171494" y="108.901306"/>
     <use style="fill:#1f77b4;stroke:#1f77b4;" x="121.020211" xlink:href="#ma80f171494" y="124.611424"/>
     <use style="fill:#1f77b4;stroke:#1f77b4;" x="121.028141" xlink:href="#ma80f171494" y="117.548902"/>
    </g>
   </g>
   <g id="PathCollection_2">
    <g clip-path="url(#p9f82310d11)">
     <use style="fill:#1f77b4;stroke:#1f77b4;" x="134.68042" xlink:href="#ma80f171494" y="79.485005"/>
     <use style="fill:#1f77b4;stroke:#1f77b4;" x="134.688553" xlink:href="#ma80f171494" y="79.307057"/>
     <use style="fill:#1f77b4;stroke:#1f77b4;" x="162.967811" xlink:href="#ma80f171494" y="94.74489"/>
     <use style="fill:#1f77b4;stroke:#1f77b4;" x="162.975944" xlink:href="#ma80f171494" y="95.739938"/>
     <use style="fill:#1f77b4;stroke:#1f77b4;" x="199.636364" xlink:href="#ma80f171494" y="91.36519"/>
     <use style="fill:#1f77b4;stroke:#1f77b4;" x="183.510753" xlink:href="#ma80f171494" y="80.504356"/>
     <use style="fill:#1f77b4;stroke:#1f77b4;" x="183.567271" xlink:href="#ma80f171494" y="76.795668"/>
     <use style="fill:#1f77b4;stroke:#1f77b4;" x="132.625035" xlink:href="#ma80f171494" y="83.50883"/>
     <use style="fill:#1f77b4;stroke:#1f77b4;" x="161.850079" xlink:href="#ma80f171494" y="74.802696"/>
     <use style="fill:#1f77b4;stroke:#1f77b4;" x="179.397353" xlink:href="#ma80f171494" y="142.579989"/>
     <use style="fill:#1f77b4;stroke:#1f77b4;" x="179.405282" xlink:href="#ma80f171494" y="145.152"/>
     <use style="fill:#1f77b4;stroke:#1f77b4;" x="146.63488" xlink:href="#ma80f171494" y="73.00859"/>
     <use style="fill:#1f77b4;stroke:#1f77b4;" x="146.643011" xlink:href="#ma80f171494" y="76.575909"/>
     <use style="fill:#1f77b4;stroke:#1f77b4;" x="181.209364" xlink:href="#ma80f171494" y="102.008361"/>
     <use style="fill:#1f77b4;stroke:#1f77b4;" x="181.217497" xlink:href="#ma80f171494" y="97.885773"/>
     <use style="fill:#1f77b4;stroke:#1f77b4;" x="198.602733" xlink:href="#ma80f171494" y="92.95288"/>
     <use style="fill:#1f77b4;stroke:#1f77b4;" x="198.610864" xlink:href="#ma80f171494" y="93.380891"/>
     <use style="fill:#1f77b4;stroke:#1f77b4;" x="148.845372" xlink:href="#ma80f171494" y="85.453977"/>
     <use style="fill:#1f77b4;stroke:#1f77b4;" x="148.853301" xlink:href="#ma80f171494" y="85.503091"/>
     <use style="fill:#1f77b4;stroke:#1f77b4;" x="165.653826" xlink:href="#ma80f171494" y="90.915219"/>
     <use style="fill:#1f77b4;stroke:#1f77b4;" x="165.661958" xlink:href="#ma80f171494" y="91.88936"/>
     <use style="fill:#1f77b4;stroke:#1f77b4;" x="183.202928" xlink:href="#ma80f171494" y="116.166079"/>
     <use style="fill:#1f77b4;stroke:#1f77b4;" x="183.210857" xlink:href="#ma80f171494" y="115.156921"/>
     <use style="fill:#1f77b4;stroke:#1f77b4;" x="136.639187" xlink:href="#ma80f171494" y="86.244417"/>
     <use style="fill:#1f77b4;stroke:#1f77b4;" x="190.333662" xlink:href="#ma80f171494" y="102.60936"/>
     <use style="fill:#1f77b4;stroke:#1f77b4;" x="139.558138" xlink:href="#ma80f171494" y="79.658774"/>
     <use style="fill:#1f77b4;stroke:#1f77b4;" x="157.127978" xlink:href="#ma80f171494" y="84.516153"/>
     <use style="fill:#1f77b4;stroke:#1f77b4;" x="174.661426" xlink:href="#ma80f171494" y="116.401772"/>
     <use style="fill:#1f77b4;stroke:#1f77b4;" x="192.301204" xlink:href="#ma80f171494" y="95.251565"/>
     <use style="fill:#1f77b4;stroke:#1f77b4;" x="198.569985" xlink:href="#ma80f171494" y="96.693174"/>
     <use style="fill:#1f77b4;stroke:#1f77b4;" x="148.347723" xlink:href="#ma80f171494" y="68.993916"/>
     <use style="fill:#1f77b4;stroke:#1f77b4;" x="168.476393" xlink:href="#ma80f171494" y="132.066953"/>
     <use style="fill:#1f77b4;stroke:#1f77b4;" x="186.366239" xlink:href="#ma80f171494" y="98.524392"/>
     <use style="fill:#1f77b4;stroke:#1f77b4;" x="172.44197" xlink:href="#ma80f171494" y="67.647672"/>
     <use style="fill:#1f77b4;stroke:#1f77b4;" x="157.214164" xlink:href="#ma80f171494" y="81.570205"/>
     <use style="fill:#1f77b4;stroke:#1f77b4;" x="173.633808" xlink:href="#ma80f171494" y="103.466176"/>
     <use style="fill:#1f77b4;stroke:#1f77b4;" x="175.635098" xlink:href="#ma80f171494" y="124.277476"/>
     <use style="fill:#1f77b4;stroke:#1f77b4;" x="146.377914" xlink:href="#ma80f171494" y="46.409143"/>
     <use style="fill:#1f77b4;stroke:#1f77b4;" x="192.841012" xlink:href="#ma80f171494" y="77.654046"/>
     <use style="fill:#1f77b4;stroke:#1f77b4;" x="196.938793" xlink:href="#ma80f171494" y="73.270408"/>
     <use style="fill:#1f77b4;stroke:#1f77b4;" x="155.356083" xlink:href="#ma80f171494" y="102.457018"/>
     <use style="fill:#1f77b4;stroke:#1f77b4;" x="155.364012" xlink:href="#ma80f171494" y="101.726939"/>
     <use style="fill:#1f77b4;stroke:#1f77b4;" x="172.47336" xlink:href="#ma80f171494" y="105.931315"/>
     <use style="fill:#1f77b4;stroke:#1f77b4;" x="172.481289" xlink:href="#ma80f171494" y="108.901306"/>
     <use style="fill:#1f77b4;stroke:#1f77b4;" x="189.28161" xlink:href="#ma80f171494" y="124.611424"/>
     <use style="fill:#1f77b4;stroke:#1f77b4;" x="189.289539" xlink:href="#ma80f171494" y="117.548902"/>
    </g>
   </g>
   <g id="matplotlib.axis_3">
    <g id="xtick_19">
     <g id="line2d_27">
      <g>
       <use style="stroke:#000000;stroke-width:0.8;" x="63.440415" xlink:href="#m077930ab6d" y="150.089143"/>
      </g>
     </g>
     <g id="text_13">
      <!-- 0 -->
      <g transform="translate(60.259165 164.68758)scale(0.1 -0.1)">
       <use xlink:href="#DejaVuSerif-48"/>
      </g>
     </g>
    </g>
    <g id="xtick_20">
     <g id="line2d_28">
      <g>
       <use style="stroke:#000000;stroke-width:0.8;" x="131.701814" xlink:href="#m077930ab6d" y="150.089143"/>
      </g>
     </g>
     <g id="text_14">
      <!-- 1 -->
      <g transform="translate(128.520564 164.68758)scale(0.1 -0.1)">
       <use xlink:href="#DejaVuSerif-49"/>
      </g>
     </g>
    </g>
    <g id="xtick_21">
     <g id="line2d_29">
      <g>
       <use style="stroke:#000000;stroke-width:0.8;" x="199.963212" xlink:href="#m077930ab6d" y="150.089143"/>
      </g>
     </g>
     <g id="text_15">
      <!-- 2 -->
      <g transform="translate(196.781962 164.68758)scale(0.1 -0.1)">
       <use xlink:href="#DejaVuSerif-50"/>
      </g>
     </g>
    </g>
    <g id="text_16">
     <!-- Phase (P = 3.886 d) -->
     <g transform="translate(81.582812 178.365705)scale(0.1 -0.1)">
      <defs>
       <path d="M 4.109375 0 
L 4.109375 5.171875 
L 12.203125 5.171875 
L 12.203125 70.796875 
L 3.609375 70.796875 
L 3.609375 75.984375 
L 21.1875 75.984375 
L 21.1875 42.671875 
Q 23.6875 47.953125 27.65625 50.640625 
Q 31.640625 53.328125 36.921875 53.328125 
Q 45.515625 53.328125 49.5625 48.390625 
Q 53.609375 43.453125 53.609375 33.015625 
L 53.609375 5.171875 
L 61.625 5.171875 
L 61.625 0 
L 36.8125 0 
L 36.8125 5.171875 
L 44.578125 5.171875 
L 44.578125 30.171875 
Q 44.578125 39.703125 42.25 43.1875 
Q 39.9375 46.6875 33.984375 46.6875 
Q 27.734375 46.6875 24.453125 42.140625 
Q 21.1875 37.59375 21.1875 28.90625 
L 21.1875 5.171875 
L 29 5.171875 
L 29 0 
z
" id="DejaVuSerif-104"/>
       <path d="M 5.609375 2.875 
L 5.609375 14.984375 
L 10.796875 14.984375 
Q 10.984375 9.1875 14.421875 6.296875 
Q 17.875 3.421875 24.609375 3.421875 
Q 30.671875 3.421875 33.84375 5.6875 
Q 37.015625 7.953125 37.015625 12.3125 
Q 37.015625 15.71875 34.6875 17.8125 
Q 32.375 19.921875 24.90625 22.3125 
L 18.40625 24.515625 
Q 11.71875 26.65625 8.71875 29.875 
Q 5.71875 33.109375 5.71875 38.09375 
Q 5.71875 45.21875 10.9375 49.265625 
Q 16.15625 53.328125 25.390625 53.328125 
Q 29.5 53.328125 34.03125 52.25 
Q 38.578125 51.171875 43.40625 49.125 
L 43.40625 37.796875 
L 38.234375 37.796875 
Q 38.03125 42.828125 34.703125 45.65625 
Q 31.390625 48.484375 25.6875 48.484375 
Q 20.015625 48.484375 17.109375 46.484375 
Q 14.203125 44.484375 14.203125 40.484375 
Q 14.203125 37.203125 16.40625 35.21875 
Q 18.609375 33.25 25.203125 31.203125 
L 32.328125 29 
Q 39.703125 26.703125 42.9375 23.265625 
Q 46.1875 19.828125 46.1875 14.40625 
Q 46.1875 7.03125 40.546875 2.796875 
Q 34.90625 -1.421875 25 -1.421875 
Q 19.96875 -1.421875 15.1875 -0.34375 
Q 10.40625 0.734375 5.609375 2.875 
z
" id="DejaVuSerif-115"/>
       <path d="M 31.890625 -15.578125 
Q 20.015625 -10.25 13.953125 1.296875 
Q 7.90625 12.84375 7.90625 30.171875 
Q 7.90625 47.5625 13.953125 59.109375 
Q 20.015625 70.65625 31.890625 75.984375 
L 31.890625 71.1875 
Q 24.359375 66.015625 21.09375 56.609375 
Q 17.828125 47.21875 17.828125 30.171875 
Q 17.828125 13.1875 21.09375 3.78125 
Q 24.359375 -5.609375 31.890625 -10.796875 
z
" id="DejaVuSerif-40"/>
       <path d="M 10.59375 45.21875 
L 73.1875 45.21875 
L 73.1875 37.40625 
L 10.59375 37.40625 
z
M 10.59375 25.296875 
L 73.1875 25.296875 
L 73.1875 17.484375 
L 10.59375 17.484375 
z
" id="DejaVuSerif-61"/>
       <path d="M 9.71875 69.828125 
Q 15.4375 71.96875 20.671875 73.09375 
Q 25.921875 74.21875 30.515625 74.21875 
Q 41.21875 74.21875 47.21875 69.59375 
Q 53.21875 64.984375 53.21875 56.78125 
Q 53.21875 50.203125 49.0625 45.78125 
Q 44.921875 41.359375 37.3125 39.796875 
Q 46.296875 38.53125 51.25 33.28125 
Q 56.203125 28.03125 56.203125 19.671875 
Q 56.203125 9.46875 49.34375 4.015625 
Q 42.484375 -1.421875 29.59375 -1.421875 
Q 23.875 -1.421875 18.421875 -0.1875 
Q 12.984375 1.03125 7.625 3.515625 
L 7.625 17.671875 
L 13.09375 17.671875 
Q 13.578125 10.640625 17.828125 7.03125 
Q 22.078125 3.421875 29.78125 3.421875 
Q 37.25 3.421875 41.578125 7.734375 
Q 45.90625 12.0625 45.90625 19.578125 
Q 45.90625 28.171875 41.453125 32.59375 
Q 37.015625 37.015625 28.421875 37.015625 
L 23.78125 37.015625 
L 23.78125 42 
L 26.21875 42 
Q 34.765625 42 39.03125 45.53125 
Q 43.3125 49.078125 43.3125 56.203125 
Q 43.3125 62.59375 39.796875 65.984375 
Q 36.28125 69.390625 29.6875 69.390625 
Q 23.09375 69.390625 19.453125 66.265625 
Q 15.828125 63.140625 15.1875 56.984375 
L 9.71875 56.984375 
z
" id="DejaVuSerif-51"/>
       <path d="M 46.578125 19.921875 
Q 46.578125 27.734375 42.6875 32.046875 
Q 38.8125 36.375 31.78125 36.375 
Q 24.75 36.375 20.875 32.046875 
Q 17 27.734375 17 19.921875 
Q 17 12.0625 20.875 7.734375 
Q 24.75 3.421875 31.78125 3.421875 
Q 38.8125 3.421875 42.6875 7.734375 
Q 46.578125 12.0625 46.578125 19.921875 
z
M 44.578125 55.328125 
Q 44.578125 61.96875 41.203125 65.671875 
Q 37.84375 69.390625 31.78125 69.390625 
Q 25.78125 69.390625 22.390625 65.671875 
Q 19 61.96875 19 55.328125 
Q 19 48.640625 22.390625 44.921875 
Q 25.78125 41.21875 31.78125 41.21875 
Q 37.84375 41.21875 41.203125 44.921875 
Q 44.578125 48.640625 44.578125 55.328125 
z
M 39.3125 38.8125 
Q 47.609375 37.703125 52.25 32.6875 
Q 56.890625 27.6875 56.890625 19.921875 
Q 56.890625 9.671875 50.390625 4.125 
Q 43.890625 -1.421875 31.78125 -1.421875 
Q 19.734375 -1.421875 13.203125 4.125 
Q 6.6875 9.671875 6.6875 19.921875 
Q 6.6875 27.6875 11.328125 32.6875 
Q 15.96875 37.703125 24.3125 38.8125 
Q 16.9375 40.140625 13 44.40625 
Q 9.078125 48.6875 9.078125 55.328125 
Q 9.078125 64.109375 15.125 69.15625 
Q 21.1875 74.21875 31.78125 74.21875 
Q 42.390625 74.21875 48.4375 69.15625 
Q 54.5 64.109375 54.5 55.328125 
Q 54.5 48.6875 50.5625 44.40625 
Q 46.625 40.140625 39.3125 38.8125 
z
" id="DejaVuSerif-56"/>
       <path d="M 32.71875 3.421875 
Q 39.59375 3.421875 43.296875 8.46875 
Q 47.015625 13.53125 47.015625 23 
Q 47.015625 32.46875 43.296875 37.515625 
Q 39.59375 42.578125 32.71875 42.578125 
Q 25.734375 42.578125 22.0625 37.6875 
Q 18.40625 32.8125 18.40625 23.578125 
Q 18.40625 13.875 22.109375 8.640625 
Q 25.828125 3.421875 32.71875 3.421875 
z
M 16.796875 40.140625 
Q 20.125 43.796875 24.3125 45.59375 
Q 28.515625 47.40625 33.796875 47.40625 
Q 44.671875 47.40625 51 40.859375 
Q 57.328125 34.328125 57.328125 23 
Q 57.328125 11.921875 50.515625 5.25 
Q 43.703125 -1.421875 32.328125 -1.421875 
Q 19.96875 -1.421875 13.328125 7.78125 
Q 6.6875 17 6.6875 34.078125 
Q 6.6875 53.21875 14.546875 63.71875 
Q 22.40625 74.21875 36.71875 74.21875 
Q 40.578125 74.21875 44.828125 73.484375 
Q 49.078125 72.75 53.515625 71.296875 
L 53.515625 59.28125 
L 48 59.28125 
Q 47.40625 64.203125 44.234375 66.796875 
Q 41.0625 69.390625 35.6875 69.390625 
Q 26.21875 69.390625 21.578125 62.203125 
Q 16.9375 55.03125 16.796875 40.140625 
z
" id="DejaVuSerif-54"/>
       <path d="M 7.078125 -15.578125 
L 7.078125 -10.796875 
Q 14.59375 -5.609375 17.890625 3.78125 
Q 21.1875 13.1875 21.1875 30.171875 
Q 21.1875 47.21875 17.890625 56.609375 
Q 14.59375 66.015625 7.078125 71.1875 
L 7.078125 75.984375 
Q 19 70.65625 25.046875 59.109375 
Q 31.109375 47.5625 31.109375 30.171875 
Q 31.109375 12.84375 25.046875 1.296875 
Q 19 -10.25 7.078125 -15.578125 
z
" id="DejaVuSerif-41"/>
      </defs>
      <use xlink:href="#DejaVuSerif-80"/>
      <use x="67.285156" xlink:href="#DejaVuSerif-104"/>
      <use x="131.689453" xlink:href="#DejaVuSerif-97"/>
      <use x="191.308594" xlink:href="#DejaVuSerif-115"/>
      <use x="242.626953" xlink:href="#DejaVuSerif-101"/>
      <use x="301.806641" xlink:href="#DejaVuSerif-32"/>
      <use x="333.59375" xlink:href="#DejaVuSerif-40"/>
      <use x="372.607422" xlink:href="#DejaVuSerif-80"/>
      <use x="439.892578" xlink:href="#DejaVuSerif-32"/>
      <use x="471.679688" xlink:href="#DejaVuSerif-61"/>
      <use x="555.46875" xlink:href="#DejaVuSerif-32"/>
      <use x="587.255859" xlink:href="#DejaVuSerif-51"/>
      <use x="650.878906" xlink:href="#DejaVuSerif-46"/>
      <use x="682.666016" xlink:href="#DejaVuSerif-56"/>
      <use x="746.289062" xlink:href="#DejaVuSerif-56"/>
      <use x="809.912109" xlink:href="#DejaVuSerif-54"/>
      <use x="873.535156" xlink:href="#DejaVuSerif-32"/>
      <use x="905.322266" xlink:href="#DejaVuSerif-100"/>
      <use x="969.335938" xlink:href="#DejaVuSerif-41"/>
     </g>
    </g>
   </g>
   <g id="matplotlib.axis_4">
    <g id="ytick_4">
     <g id="line2d_30">
      <g>
       <use style="stroke:#000000;stroke-width:0.8;" x="57.6" xlink:href="#mcbf323008b" y="61.250949"/>
      </g>
     </g>
     <g id="text_17">
      <!-- 17.0 -->
      <g transform="translate(28.334375 65.050168)scale(0.1 -0.1)">
       <defs>
        <path d="M 56.390625 67.921875 
L 27.875 0 
L 20.609375 0 
L 47.796875 64.890625 
L 14.109375 64.890625 
L 14.109375 55.90625 
L 8.40625 55.90625 
L 8.40625 72.90625 
L 56.390625 72.90625 
z
" id="DejaVuSerif-55"/>
       </defs>
       <use xlink:href="#DejaVuSerif-49"/>
       <use x="63.623047" xlink:href="#DejaVuSerif-55"/>
       <use x="127.246094" xlink:href="#DejaVuSerif-46"/>
       <use x="159.033203" xlink:href="#DejaVuSerif-48"/>
      </g>
     </g>
    </g>
    <g id="ytick_5">
     <g id="line2d_31">
      <g>
       <use style="stroke:#000000;stroke-width:0.8;" x="57.6" xlink:href="#mcbf323008b" y="88.65066"/>
      </g>
     </g>
     <g id="text_18">
      <!-- 17.2 -->
      <g transform="translate(28.334375 92.449879)scale(0.1 -0.1)">
       <use xlink:href="#DejaVuSerif-49"/>
       <use x="63.623047" xlink:href="#DejaVuSerif-55"/>
       <use x="127.246094" xlink:href="#DejaVuSerif-46"/>
       <use x="159.033203" xlink:href="#DejaVuSerif-50"/>
      </g>
     </g>
    </g>
    <g id="ytick_6">
     <g id="line2d_32">
      <g>
       <use style="stroke:#000000;stroke-width:0.8;" x="57.6" xlink:href="#mcbf323008b" y="116.05037"/>
      </g>
     </g>
     <g id="text_19">
      <!-- 17.4 -->
      <g transform="translate(28.334375 119.849589)scale(0.1 -0.1)">
       <use xlink:href="#DejaVuSerif-49"/>
       <use x="63.623047" xlink:href="#DejaVuSerif-55"/>
       <use x="127.246094" xlink:href="#DejaVuSerif-46"/>
       <use x="159.033203" xlink:href="#DejaVuSerif-52"/>
      </g>
     </g>
    </g>
    <g id="ytick_7">
     <g id="line2d_33">
      <g>
       <use style="stroke:#000000;stroke-width:0.8;" x="57.6" xlink:href="#mcbf323008b" y="143.450081"/>
      </g>
     </g>
     <g id="text_20">
      <!-- 17.6 -->
      <g transform="translate(28.334375 147.249299)scale(0.1 -0.1)">
       <use xlink:href="#DejaVuSerif-49"/>
       <use x="63.623047" xlink:href="#DejaVuSerif-55"/>
       <use x="127.246094" xlink:href="#DejaVuSerif-46"/>
       <use x="159.033203" xlink:href="#DejaVuSerif-54"/>
      </g>
     </g>
    </g>
    <g id="text_21">
     <!-- Mag -->
     <g transform="translate(22.1125 107.082134)rotate(-90)scale(0.1 -0.1)">
      <defs>
       <path d="M 5.515625 0 
L 5.515625 5.171875 
L 14.796875 5.171875 
L 14.796875 67.671875 
L 4.984375 67.671875 
L 4.984375 72.90625 
L 26.21875 72.90625 
L 51.8125 21 
L 77.390625 72.90625 
L 97.3125 72.90625 
L 97.3125 67.671875 
L 87.59375 67.671875 
L 87.59375 5.171875 
L 96.921875 5.171875 
L 96.921875 0 
L 68.40625 0 
L 68.40625 5.171875 
L 77.6875 5.171875 
L 77.6875 61.53125 
L 52.6875 10.6875 
L 45.796875 10.6875 
L 20.796875 61.53125 
L 20.796875 5.171875 
L 30.078125 5.171875 
L 30.078125 0 
z
" id="DejaVuSerif-77"/>
      </defs>
      <use xlink:href="#DejaVuSerif-77"/>
      <use x="102.392578" xlink:href="#DejaVuSerif-97"/>
      <use x="162.011719" xlink:href="#DejaVuSerif-103"/>
     </g>
    </g>
   </g>
   <g id="patch_9">
    <path d="M 57.6 150.089143 
L 57.6 41.472 
" style="fill:none;stroke:#000000;stroke-linecap:square;stroke-linejoin:miter;stroke-width:0.8;"/>
   </g>
   <g id="patch_10">
    <path d="M 206.4 150.089143 
L 206.4 41.472 
" style="fill:none;stroke:#000000;stroke-linecap:square;stroke-linejoin:miter;stroke-width:0.8;"/>
   </g>
   <g id="patch_11">
    <path d="M 57.6 150.089143 
L 206.4 150.089143 
" style="fill:none;stroke:#000000;stroke-linecap:square;stroke-linejoin:miter;stroke-width:0.8;"/>
   </g>
   <g id="patch_12">
    <path d="M 57.6 41.472 
L 206.4 41.472 
" style="fill:none;stroke:#000000;stroke-linecap:square;stroke-linejoin:miter;stroke-width:0.8;"/>
   </g>
   <g id="text_22">
    <!-- Folded Light Curve -->
    <g transform="translate(83.086719 35.472)scale(0.1 -0.1)">
     <defs>
      <path d="M 20.515625 5.171875 
L 29 5.171875 
L 29 0 
L 2.875 0 
L 2.875 5.171875 
L 11.53125 5.171875 
L 11.53125 70.796875 
L 2.875 70.796875 
L 2.875 75.984375 
L 20.515625 75.984375 
z
" id="DejaVuSerif-108"/>
      <path d="M 5.515625 0 
L 5.515625 5.171875 
L 14.796875 5.171875 
L 14.796875 67.671875 
L 5.515625 67.671875 
L 5.515625 72.90625 
L 33.984375 72.90625 
L 33.984375 67.671875 
L 24.703125 67.671875 
L 24.703125 6 
L 58.015625 6 
L 58.015625 18.21875 
L 64.015625 18.21875 
L 64.015625 0 
z
" id="DejaVuSerif-76"/>
      <path d="M 10.796875 46.6875 
L 2.875 46.6875 
L 2.875 51.90625 
L 10.796875 51.90625 
L 10.796875 68.015625 
L 19.828125 68.015625 
L 19.828125 51.90625 
L 36.71875 51.90625 
L 36.71875 46.6875 
L 19.828125 46.6875 
L 19.828125 13.71875 
Q 19.828125 7.125 21.09375 5.265625 
Q 22.359375 3.421875 25.78125 3.421875 
Q 29.296875 3.421875 30.90625 5.484375 
Q 32.515625 7.5625 32.625 12.203125 
L 39.40625 12.203125 
Q 39.015625 5.125 35.546875 1.84375 
Q 32.078125 -1.421875 25 -1.421875 
Q 17.234375 -1.421875 14.015625 2.015625 
Q 10.796875 5.46875 10.796875 13.71875 
z
" id="DejaVuSerif-116"/>
      <path d="M 70.515625 19.28125 
Q 67.28125 9.078125 59.6875 3.828125 
Q 52.09375 -1.421875 40.484375 -1.421875 
Q 33.34375 -1.421875 27.234375 1.015625 
Q 21.140625 3.46875 16.40625 8.203125 
Q 10.9375 13.671875 8.265625 20.625 
Q 5.609375 27.59375 5.609375 36.375 
Q 5.609375 53.375 15.421875 63.796875 
Q 25.25 74.21875 41.3125 74.21875 
Q 47.265625 74.21875 54 72.65625 
Q 60.75 71.09375 68.5 67.921875 
L 68.5 51.125 
L 62.984375 51.125 
Q 61.1875 60.296875 55.734375 64.640625 
Q 50.296875 69 40.484375 69 
Q 28.8125 69 22.796875 60.71875 
Q 16.796875 52.4375 16.796875 36.375 
Q 16.796875 20.359375 22.796875 12.078125 
Q 28.8125 3.8125 40.484375 3.8125 
Q 48.640625 3.8125 53.90625 7.6875 
Q 59.1875 11.578125 61.53125 19.28125 
z
" id="DejaVuSerif-67"/>
      <path d="M 35.40625 51.90625 
L 52.203125 51.90625 
L 52.203125 5.171875 
L 60.6875 5.171875 
L 60.6875 0 
L 43.21875 0 
L 43.21875 9.1875 
Q 40.71875 4 36.765625 1.28125 
Q 32.8125 -1.421875 27.59375 -1.421875 
Q 18.953125 -1.421875 14.875 3.484375 
Q 10.796875 8.40625 10.796875 18.890625 
L 10.796875 46.6875 
L 2.6875 46.6875 
L 2.6875 51.90625 
L 19.828125 51.90625 
L 19.828125 21.6875 
Q 19.828125 12.203125 22.140625 8.6875 
Q 24.46875 5.171875 30.421875 5.171875 
Q 36.671875 5.171875 39.9375 9.765625 
Q 43.21875 14.359375 43.21875 23.09375 
L 43.21875 46.6875 
L 35.40625 46.6875 
z
" id="DejaVuSerif-117"/>
      <path d="M 24.703125 0 
L 5.609375 46.6875 
L -0.296875 46.6875 
L -0.296875 51.90625 
L 23.578125 51.90625 
L 23.578125 46.6875 
L 15.28125 46.6875 
L 29.890625 10.984375 
L 44.484375 46.6875 
L 36.71875 46.6875 
L 36.71875 51.90625 
L 56.203125 51.90625 
L 56.203125 46.6875 
L 50.390625 46.6875 
L 31.296875 0 
z
" id="DejaVuSerif-118"/>
     </defs>
     <use xlink:href="#DejaVuSerif-70"/>
     <use x="63.884766" xlink:href="#DejaVuSerif-111"/>
     <use x="124.089844" xlink:href="#DejaVuSerif-108"/>
     <use x="156.072266" xlink:href="#DejaVuSerif-100"/>
     <use x="220.085938" xlink:href="#DejaVuSerif-101"/>
     <use x="279.265625" xlink:href="#DejaVuSerif-100"/>
     <use x="343.279297" xlink:href="#DejaVuSerif-32"/>
     <use x="375.066406" xlink:href="#DejaVuSerif-76"/>
     <use x="441.472656" xlink:href="#DejaVuSerif-105"/>
     <use x="473.455078" xlink:href="#DejaVuSerif-103"/>
     <use x="537.46875" xlink:href="#DejaVuSerif-104"/>
     <use x="601.873047" xlink:href="#DejaVuSerif-116"/>
     <use x="642.058594" xlink:href="#DejaVuSerif-32"/>
     <use x="673.845703" xlink:href="#DejaVuSerif-67"/>
     <use x="750.359375" xlink:href="#DejaVuSerif-117"/>
     <use x="814.763672" xlink:href="#DejaVuSerif-114"/>
     <use x="862.566406" xlink:href="#DejaVuSerif-118"/>
     <use x="919.060547" xlink:href="#DejaVuSerif-101"/>
    </g>
   </g>
  </g>
  <g id="axes_3">
   <g id="patch_13">
    <path d="M 57.6 307.584 
L 414.72 307.584 
L 414.72 198.966857 
L 57.6 198.966857 
z
" style="fill:#ffffff;"/>
   </g>
   <g id="PathCollection_3">
    <g clip-path="url(#p81bc7341f9)">
     <use style="fill:#1f77b4;stroke:#1f77b4;" x="73.832727" xlink:href="#ma80f171494" y="237.501453"/>
     <use style="fill:#1f77b4;stroke:#1f77b4;" x="73.833119" xlink:href="#ma80f171494" y="237.333231"/>
     <use style="fill:#1f77b4;stroke:#1f77b4;" x="94.910293" xlink:href="#ma80f171494" y="251.92729"/>
     <use style="fill:#1f77b4;stroke:#1f77b4;" x="94.910684" xlink:href="#ma80f171494" y="252.867952"/>
     <use style="fill:#1f77b4;stroke:#1f77b4;" x="96.675449" xlink:href="#ma80f171494" y="248.732312"/>
     <use style="fill:#1f77b4;stroke:#1f77b4;" x="99.185169" xlink:href="#ma80f171494" y="238.46509"/>
     <use style="fill:#1f77b4;stroke:#1f77b4;" x="99.18789" xlink:href="#ma80f171494" y="234.959105"/>
     <use style="fill:#1f77b4;stroke:#1f77b4;" x="100.021602" xlink:href="#ma80f171494" y="241.305351"/>
     <use style="fill:#1f77b4;stroke:#1f77b4;" x="121.144305" xlink:href="#ma80f171494" y="233.075061"/>
     <use style="fill:#1f77b4;stroke:#1f77b4;" x="121.988998" xlink:href="#ma80f171494" y="297.147903"/>
     <use style="fill:#1f77b4;stroke:#1f77b4;" x="121.98938" xlink:href="#ma80f171494" y="299.579338"/>
     <use style="fill:#1f77b4;stroke:#1f77b4;" x="123.69785" xlink:href="#ma80f171494" y="231.379014"/>
     <use style="fill:#1f77b4;stroke:#1f77b4;" x="123.698242" xlink:href="#ma80f171494" y="234.751357"/>
     <use style="fill:#1f77b4;stroke:#1f77b4;" x="125.362202" xlink:href="#ma80f171494" y="258.793767"/>
     <use style="fill:#1f77b4;stroke:#1f77b4;" x="125.362594" xlink:href="#ma80f171494" y="254.896505"/>
     <use style="fill:#1f77b4;stroke:#1f77b4;" x="126.199487" xlink:href="#ma80f171494" y="250.233225"/>
     <use style="fill:#1f77b4;stroke:#1f77b4;" x="126.199878" xlink:href="#ma80f171494" y="250.637842"/>
     <use style="fill:#1f77b4;stroke:#1f77b4;" x="127.090237" xlink:href="#ma80f171494" y="243.144183"/>
     <use style="fill:#1f77b4;stroke:#1f77b4;" x="127.090618" xlink:href="#ma80f171494" y="243.190613"/>
     <use style="fill:#1f77b4;stroke:#1f77b4;" x="127.899364" xlink:href="#ma80f171494" y="248.306934"/>
     <use style="fill:#1f77b4;stroke:#1f77b4;" x="127.899756" xlink:href="#ma80f171494" y="249.227833"/>
     <use style="fill:#1f77b4;stroke:#1f77b4;" x="128.744146" xlink:href="#ma80f171494" y="272.177678"/>
     <use style="fill:#1f77b4;stroke:#1f77b4;" x="128.744527" xlink:href="#ma80f171494" y="271.223676"/>
     <use style="fill:#1f77b4;stroke:#1f77b4;" x="136.360585" xlink:href="#ma80f171494" y="243.891421"/>
     <use style="fill:#1f77b4;stroke:#1f77b4;" x="142.231315" xlink:href="#ma80f171494" y="259.361918"/>
     <use style="fill:#1f77b4;stroke:#1f77b4;" x="143.073052" xlink:href="#ma80f171494" y="237.665724"/>
     <use style="fill:#1f77b4;stroke:#1f77b4;" x="143.918832" xlink:href="#ma80f171494" y="242.257618"/>
     <use style="fill:#1f77b4;stroke:#1f77b4;" x="144.76286" xlink:href="#ma80f171494" y="272.400488"/>
     <use style="fill:#1f77b4;stroke:#1f77b4;" x="145.612006" xlink:href="#ma80f171494" y="252.406273"/>
     <use style="fill:#1f77b4;stroke:#1f77b4;" x="155.771705" xlink:href="#ma80f171494" y="253.769088"/>
     <use style="fill:#1f77b4;stroke:#1f77b4;" x="163.21203" xlink:href="#ma80f171494" y="227.583767"/>
     <use style="fill:#1f77b4;stroke:#1f77b4;" x="164.180987" xlink:href="#ma80f171494" y="287.20947"/>
     <use style="fill:#1f77b4;stroke:#1f77b4;" x="165.042171" xlink:href="#ma80f171494" y="255.500219"/>
     <use style="fill:#1f77b4;stroke:#1f77b4;" x="170.943837" xlink:href="#ma80f171494" y="226.311104"/>
     <use style="fill:#1f77b4;stroke:#1f77b4;" x="173.496775" xlink:href="#ma80f171494" y="239.472684"/>
     <use style="fill:#1f77b4;stroke:#1f77b4;" x="207.146958" xlink:href="#ma80f171494" y="260.171904"/>
     <use style="fill:#1f77b4;stroke:#1f77b4;" x="210.529274" xlink:href="#ma80f171494" y="279.845736"/>
     <use style="fill:#1f77b4;stroke:#1f77b4;" x="218.978819" xlink:href="#ma80f171494" y="206.233393"/>
     <use style="fill:#1f77b4;stroke:#1f77b4;" x="346.082599" xlink:href="#ma80f171494" y="235.770568"/>
     <use style="fill:#1f77b4;stroke:#1f77b4;" x="379.139631" xlink:href="#ma80f171494" y="231.626522"/>
     <use style="fill:#1f77b4;stroke:#1f77b4;" x="396.853779" xlink:href="#ma80f171494" y="259.217902"/>
     <use style="fill:#1f77b4;stroke:#1f77b4;" x="396.854161" xlink:href="#ma80f171494" y="258.527727"/>
     <use style="fill:#1f77b4;stroke:#1f77b4;" x="397.677773" xlink:href="#ma80f171494" y="262.502307"/>
     <use style="fill:#1f77b4;stroke:#1f77b4;" x="397.678155" xlink:href="#ma80f171494" y="265.30997"/>
     <use style="fill:#1f77b4;stroke:#1f77b4;" x="398.486891" xlink:href="#ma80f171494" y="280.161432"/>
     <use style="fill:#1f77b4;stroke:#1f77b4;" x="398.487273" xlink:href="#ma80f171494" y="273.48492"/>
    </g>
   </g>
   <g id="matplotlib.axis_5">
    <g id="xtick_22">
     <g id="line2d_34">
      <g>
       <use style="stroke:#000000;stroke-width:0.8;" x="97.996351" xlink:href="#m077930ab6d" y="307.584"/>
      </g>
     </g>
     <g id="text_23">
      <!-- 58300 -->
      <g transform="translate(82.090101 322.182437)scale(0.1 -0.1)">
       <use xlink:href="#DejaVuSerif-53"/>
       <use x="63.623047" xlink:href="#DejaVuSerif-56"/>
       <use x="127.246094" xlink:href="#DejaVuSerif-51"/>
       <use x="190.869141" xlink:href="#DejaVuSerif-48"/>
       <use x="254.492188" xlink:href="#DejaVuSerif-48"/>
      </g>
     </g>
    </g>
    <g id="xtick_23">
     <g id="line2d_35">
      <g>
       <use style="stroke:#000000;stroke-width:0.8;" x="140.27554" xlink:href="#m077930ab6d" y="307.584"/>
      </g>
     </g>
     <g id="text_24">
      <!-- 58350 -->
      <g transform="translate(124.36929 322.182437)scale(0.1 -0.1)">
       <use xlink:href="#DejaVuSerif-53"/>
       <use x="63.623047" xlink:href="#DejaVuSerif-56"/>
       <use x="127.246094" xlink:href="#DejaVuSerif-51"/>
       <use x="190.869141" xlink:href="#DejaVuSerif-53"/>
       <use x="254.492188" xlink:href="#DejaVuSerif-48"/>
      </g>
     </g>
    </g>
    <g id="xtick_24">
     <g id="line2d_36">
      <g>
       <use style="stroke:#000000;stroke-width:0.8;" x="182.55473" xlink:href="#m077930ab6d" y="307.584"/>
      </g>
     </g>
     <g id="text_25">
      <!-- 58400 -->
      <g transform="translate(166.64848 322.182437)scale(0.1 -0.1)">
       <use xlink:href="#DejaVuSerif-53"/>
       <use x="63.623047" xlink:href="#DejaVuSerif-56"/>
       <use x="127.246094" xlink:href="#DejaVuSerif-52"/>
       <use x="190.869141" xlink:href="#DejaVuSerif-48"/>
       <use x="254.492188" xlink:href="#DejaVuSerif-48"/>
      </g>
     </g>
    </g>
    <g id="xtick_25">
     <g id="line2d_37">
      <g>
       <use style="stroke:#000000;stroke-width:0.8;" x="224.833919" xlink:href="#m077930ab6d" y="307.584"/>
      </g>
     </g>
     <g id="text_26">
      <!-- 58450 -->
      <g transform="translate(208.927669 322.182437)scale(0.1 -0.1)">
       <use xlink:href="#DejaVuSerif-53"/>
       <use x="63.623047" xlink:href="#DejaVuSerif-56"/>
       <use x="127.246094" xlink:href="#DejaVuSerif-52"/>
       <use x="190.869141" xlink:href="#DejaVuSerif-53"/>
       <use x="254.492188" xlink:href="#DejaVuSerif-48"/>
      </g>
     </g>
    </g>
    <g id="xtick_26">
     <g id="line2d_38">
      <g>
       <use style="stroke:#000000;stroke-width:0.8;" x="267.113108" xlink:href="#m077930ab6d" y="307.584"/>
      </g>
     </g>
     <g id="text_27">
      <!-- 58500 -->
      <g transform="translate(251.206858 322.182437)scale(0.1 -0.1)">
       <use xlink:href="#DejaVuSerif-53"/>
       <use x="63.623047" xlink:href="#DejaVuSerif-56"/>
       <use x="127.246094" xlink:href="#DejaVuSerif-53"/>
       <use x="190.869141" xlink:href="#DejaVuSerif-48"/>
       <use x="254.492188" xlink:href="#DejaVuSerif-48"/>
      </g>
     </g>
    </g>
    <g id="xtick_27">
     <g id="line2d_39">
      <g>
       <use style="stroke:#000000;stroke-width:0.8;" x="309.392298" xlink:href="#m077930ab6d" y="307.584"/>
      </g>
     </g>
     <g id="text_28">
      <!-- 58550 -->
      <g transform="translate(293.486048 322.182437)scale(0.1 -0.1)">
       <use xlink:href="#DejaVuSerif-53"/>
       <use x="63.623047" xlink:href="#DejaVuSerif-56"/>
       <use x="127.246094" xlink:href="#DejaVuSerif-53"/>
       <use x="190.869141" xlink:href="#DejaVuSerif-53"/>
       <use x="254.492188" xlink:href="#DejaVuSerif-48"/>
      </g>
     </g>
    </g>
    <g id="xtick_28">
     <g id="line2d_40">
      <g>
       <use style="stroke:#000000;stroke-width:0.8;" x="351.671487" xlink:href="#m077930ab6d" y="307.584"/>
      </g>
     </g>
     <g id="text_29">
      <!-- 58600 -->
      <g transform="translate(335.765237 322.182437)scale(0.1 -0.1)">
       <use xlink:href="#DejaVuSerif-53"/>
       <use x="63.623047" xlink:href="#DejaVuSerif-56"/>
       <use x="127.246094" xlink:href="#DejaVuSerif-54"/>
       <use x="190.869141" xlink:href="#DejaVuSerif-48"/>
       <use x="254.492188" xlink:href="#DejaVuSerif-48"/>
      </g>
     </g>
    </g>
    <g id="xtick_29">
     <g id="line2d_41">
      <g>
       <use style="stroke:#000000;stroke-width:0.8;" x="393.950677" xlink:href="#m077930ab6d" y="307.584"/>
      </g>
     </g>
     <g id="text_30">
      <!-- 58650 -->
      <g transform="translate(378.044427 322.182437)scale(0.1 -0.1)">
       <use xlink:href="#DejaVuSerif-53"/>
       <use x="63.623047" xlink:href="#DejaVuSerif-56"/>
       <use x="127.246094" xlink:href="#DejaVuSerif-54"/>
       <use x="190.869141" xlink:href="#DejaVuSerif-53"/>
       <use x="254.492188" xlink:href="#DejaVuSerif-48"/>
      </g>
     </g>
    </g>
    <g id="text_31">
     <!-- MJD -->
     <g transform="translate(225.027187 335.860562)scale(0.1 -0.1)">
      <defs>
       <path d="M -8.40625 -17.484375 
L -8.40625 -6 
L -2.828125 -6 
Q -2.6875 -10.84375 -0.53125 -13.203125 
Q 1.609375 -15.578125 5.90625 -15.578125 
Q 11.71875 -15.578125 14.015625 -11.90625 
Q 16.3125 -8.25 16.3125 2.390625 
L 16.3125 67.671875 
L 4.984375 67.671875 
L 4.984375 72.90625 
L 35.5 72.90625 
L 35.5 67.671875 
L 26.21875 67.671875 
L 26.21875 2 
Q 26.21875 -10.0625 21.375 -15.421875 
Q 16.546875 -20.796875 5.8125 -20.796875 
Q 2.34375 -20.796875 -1.234375 -19.96875 
Q -4.828125 -19.140625 -8.40625 -17.484375 
z
" id="DejaVuSerif-74"/>
       <path d="M 24.703125 5.171875 
L 33.796875 5.171875 
Q 48 5.171875 55.59375 13.28125 
Q 63.1875 21.390625 63.1875 36.53125 
Q 63.1875 51.65625 55.609375 59.65625 
Q 48.046875 67.671875 33.796875 67.671875 
L 24.703125 67.671875 
z
M 5.515625 0 
L 5.515625 5.171875 
L 14.796875 5.171875 
L 14.796875 67.671875 
L 5.515625 67.671875 
L 5.515625 72.90625 
L 34.515625 72.90625 
Q 53.375 72.90625 63.890625 63.28125 
Q 74.421875 53.65625 74.421875 36.53125 
Q 74.421875 19.34375 63.875 9.671875 
Q 53.328125 0 34.515625 0 
z
" id="DejaVuSerif-68"/>
      </defs>
      <use xlink:href="#DejaVuSerif-77"/>
      <use x="102.392578" xlink:href="#DejaVuSerif-74"/>
      <use x="142.480469" xlink:href="#DejaVuSerif-68"/>
     </g>
    </g>
   </g>
   <g id="matplotlib.axis_6">
    <g id="ytick_8">
     <g id="line2d_42">
      <g>
       <use style="stroke:#000000;stroke-width:0.8;" x="57.6" xlink:href="#mcbf323008b" y="220.264002"/>
      </g>
     </g>
     <g id="text_32">
      <!-- 17.0 -->
      <g transform="translate(28.334375 224.063221)scale(0.1 -0.1)">
       <use xlink:href="#DejaVuSerif-49"/>
       <use x="63.623047" xlink:href="#DejaVuSerif-55"/>
       <use x="127.246094" xlink:href="#DejaVuSerif-46"/>
       <use x="159.033203" xlink:href="#DejaVuSerif-48"/>
      </g>
     </g>
    </g>
    <g id="ytick_9">
     <g id="line2d_43">
      <g>
       <use style="stroke:#000000;stroke-width:0.8;" x="57.6" xlink:href="#mcbf323008b" y="246.166148"/>
      </g>
     </g>
     <g id="text_33">
      <!-- 17.2 -->
      <g transform="translate(28.334375 249.965367)scale(0.1 -0.1)">
       <use xlink:href="#DejaVuSerif-49"/>
       <use x="63.623047" xlink:href="#DejaVuSerif-55"/>
       <use x="127.246094" xlink:href="#DejaVuSerif-46"/>
       <use x="159.033203" xlink:href="#DejaVuSerif-50"/>
      </g>
     </g>
    </g>
    <g id="ytick_10">
     <g id="line2d_44">
      <g>
       <use style="stroke:#000000;stroke-width:0.8;" x="57.6" xlink:href="#mcbf323008b" y="272.068293"/>
      </g>
     </g>
     <g id="text_34">
      <!-- 17.4 -->
      <g transform="translate(28.334375 275.867512)scale(0.1 -0.1)">
       <use xlink:href="#DejaVuSerif-49"/>
       <use x="63.623047" xlink:href="#DejaVuSerif-55"/>
       <use x="127.246094" xlink:href="#DejaVuSerif-46"/>
       <use x="159.033203" xlink:href="#DejaVuSerif-52"/>
      </g>
     </g>
    </g>
    <g id="ytick_11">
     <g id="line2d_45">
      <g>
       <use style="stroke:#000000;stroke-width:0.8;" x="57.6" xlink:href="#mcbf323008b" y="297.970439"/>
      </g>
     </g>
     <g id="text_35">
      <!-- 17.6 -->
      <g transform="translate(28.334375 301.769657)scale(0.1 -0.1)">
       <use xlink:href="#DejaVuSerif-49"/>
       <use x="63.623047" xlink:href="#DejaVuSerif-55"/>
       <use x="127.246094" xlink:href="#DejaVuSerif-46"/>
       <use x="159.033203" xlink:href="#DejaVuSerif-54"/>
      </g>
     </g>
    </g>
    <g id="text_36">
     <!-- Mag -->
     <g transform="translate(22.1125 264.576991)rotate(-90)scale(0.1 -0.1)">
      <use xlink:href="#DejaVuSerif-77"/>
      <use x="102.392578" xlink:href="#DejaVuSerif-97"/>
      <use x="162.011719" xlink:href="#DejaVuSerif-103"/>
     </g>
    </g>
   </g>
   <g id="LineCollection_5">
    <path clip-path="url(#p81bc7341f9)" d="M 73.832727 234.976779 
L 73.832727 240.026127 
" style="fill:none;stroke:#1f77b4;stroke-width:0.5;"/>
    <path clip-path="url(#p81bc7341f9)" d="M 73.833119 234.809728 
L 73.833119 239.856734 
" style="fill:none;stroke:#1f77b4;stroke-width:0.5;"/>
    <path clip-path="url(#p81bc7341f9)" d="M 94.910293 249.296772 
L 94.910293 254.557808 
" style="fill:none;stroke:#1f77b4;stroke-width:0.5;"/>
    <path clip-path="url(#p81bc7341f9)" d="M 94.910684 250.230149 
L 94.910684 255.505755 
" style="fill:none;stroke:#1f77b4;stroke-width:0.5;"/>
    <path clip-path="url(#p81bc7341f9)" d="M 96.675449 246.126179 
L 96.675449 251.338445 
" style="fill:none;stroke:#1f77b4;stroke-width:0.5;"/>
    <path clip-path="url(#p81bc7341f9)" d="M 99.185169 235.933678 
L 99.185169 240.996502 
" style="fill:none;stroke:#1f77b4;stroke-width:0.5;"/>
    <path clip-path="url(#p81bc7341f9)" d="M 99.18789 232.451986 
L 99.18789 237.466224 
" style="fill:none;stroke:#1f77b4;stroke-width:0.5;"/>
    <path clip-path="url(#p81bc7341f9)" d="M 100.021602 238.75381 
L 100.021602 243.856892 
" style="fill:none;stroke:#1f77b4;stroke-width:0.5;"/>
    <path clip-path="url(#p81bc7341f9)" d="M 121.144305 230.580748 
L 121.144305 235.569374 
" style="fill:none;stroke:#1f77b4;stroke-width:0.5;"/>
    <path clip-path="url(#p81bc7341f9)" d="M 121.988998 294.106385 
L 121.988998 300.189421 
" style="fill:none;stroke:#1f77b4;stroke-width:0.5;"/>
    <path clip-path="url(#p81bc7341f9)" d="M 121.98938 296.511818 
L 121.98938 302.646857 
" style="fill:none;stroke:#1f77b4;stroke-width:0.5;"/>
    <path clip-path="url(#p81bc7341f9)" d="M 123.69785 228.896084 
L 123.69785 233.861945 
" style="fill:none;stroke:#1f77b4;stroke-width:0.5;"/>
    <path clip-path="url(#p81bc7341f9)" d="M 123.698242 232.245658 
L 123.698242 237.257056 
" style="fill:none;stroke:#1f77b4;stroke-width:0.5;"/>
    <path clip-path="url(#p81bc7341f9)" d="M 125.362202 256.108943 
L 125.362202 261.478592 
" style="fill:none;stroke:#1f77b4;stroke-width:0.5;"/>
    <path clip-path="url(#p81bc7341f9)" d="M 125.362594 252.242826 
L 125.362594 257.550183 
" style="fill:none;stroke:#1f77b4;stroke-width:0.5;"/>
    <path clip-path="url(#p81bc7341f9)" d="M 126.199487 247.615705 
L 126.199487 252.850745 
" style="fill:none;stroke:#1f77b4;stroke-width:0.5;"/>
    <path clip-path="url(#p81bc7341f9)" d="M 126.199878 248.017232 
L 126.199878 253.258453 
" style="fill:none;stroke:#1f77b4;stroke-width:0.5;"/>
    <path clip-path="url(#p81bc7341f9)" d="M 127.090237 240.579393 
L 127.090237 245.708974 
" style="fill:none;stroke:#1f77b4;stroke-width:0.5;"/>
    <path clip-path="url(#p81bc7341f9)" d="M 127.090618 240.625485 
L 127.090618 245.75574 
" style="fill:none;stroke:#1f77b4;stroke-width:0.5;"/>
    <path clip-path="url(#p81bc7341f9)" d="M 127.899364 245.704005 
L 127.899364 250.909863 
" style="fill:none;stroke:#1f77b4;stroke-width:0.5;"/>
    <path clip-path="url(#p81bc7341f9)" d="M 127.899756 246.617954 
L 127.899756 251.837713 
" style="fill:none;stroke:#1f77b4;stroke-width:0.5;"/>
    <path clip-path="url(#p81bc7341f9)" d="M 128.744146 269.379129 
L 128.744146 274.976227 
" style="fill:none;stroke:#1f77b4;stroke-width:0.5;"/>
    <path clip-path="url(#p81bc7341f9)" d="M 128.744527 268.433594 
L 128.744527 274.013759 
" style="fill:none;stroke:#1f77b4;stroke-width:0.5;"/>
    <path clip-path="url(#p81bc7341f9)" d="M 136.360585 241.321197 
L 136.360585 246.461646 
" style="fill:none;stroke:#1f77b4;stroke-width:0.5;"/>
    <path clip-path="url(#p81bc7341f9)" d="M 142.231315 256.672481 
L 142.231315 262.051356 
" style="fill:none;stroke:#1f77b4;stroke-width:0.5;"/>
    <path clip-path="url(#p81bc7341f9)" d="M 143.073052 235.139905 
L 143.073052 240.191544 
" style="fill:none;stroke:#1f77b4;stroke-width:0.5;"/>
    <path clip-path="url(#p81bc7341f9)" d="M 143.918832 239.699237 
L 143.918832 244.815999 
" style="fill:none;stroke:#1f77b4;stroke-width:0.5;"/>
    <path clip-path="url(#p81bc7341f9)" d="M 144.76286 269.599954 
L 144.76286 275.201022 
" style="fill:none;stroke:#1f77b4;stroke-width:0.5;"/>
    <path clip-path="url(#p81bc7341f9)" d="M 145.612006 249.772052 
L 145.612006 255.040493 
" style="fill:none;stroke:#1f77b4;stroke-width:0.5;"/>
    <path clip-path="url(#p81bc7341f9)" d="M 155.771705 251.124262 
L 155.771705 256.413914 
" style="fill:none;stroke:#1f77b4;stroke-width:0.5;"/>
    <path clip-path="url(#p81bc7341f9)" d="M 163.21203 225.125815 
L 163.21203 230.04172 
" style="fill:none;stroke:#1f77b4;stroke-width:0.5;"/>
    <path clip-path="url(#p81bc7341f9)" d="M 164.180987 284.26977 
L 164.180987 290.149171 
" style="fill:none;stroke:#1f77b4;stroke-width:0.5;"/>
    <path clip-path="url(#p81bc7341f9)" d="M 165.042171 252.841772 
L 165.042171 258.158666 
" style="fill:none;stroke:#1f77b4;stroke-width:0.5;"/>
    <path clip-path="url(#p81bc7341f9)" d="M 170.943837 223.861377 
L 170.943837 228.760832 
" style="fill:none;stroke:#1f77b4;stroke-width:0.5;"/>
    <path clip-path="url(#p81bc7341f9)" d="M 173.496775 236.934178 
L 173.496775 242.01119 
" style="fill:none;stroke:#1f77b4;stroke-width:0.5;"/>
    <path clip-path="url(#p81bc7341f9)" d="M 207.146958 257.475859 
L 207.146958 262.867949 
" style="fill:none;stroke:#1f77b4;stroke-width:0.5;"/>
    <path clip-path="url(#p81bc7341f9)" d="M 210.529274 276.977042 
L 210.529274 282.71443 
" style="fill:none;stroke:#1f77b4;stroke-width:0.5;"/>
    <path clip-path="url(#p81bc7341f9)" d="M 218.978819 203.904 
L 218.978819 208.562786 
" style="fill:none;stroke:#1f77b4;stroke-width:0.5;"/>
    <path clip-path="url(#p81bc7341f9)" d="M 346.082599 233.25788 
L 346.082599 238.283256 
" style="fill:none;stroke:#1f77b4;stroke-width:0.5;"/>
    <path clip-path="url(#p81bc7341f9)" d="M 379.139631 229.141939 
L 379.139631 234.111106 
" style="fill:none;stroke:#1f77b4;stroke-width:0.5;"/>
    <path clip-path="url(#p81bc7341f9)" d="M 396.853779 256.529636 
L 396.853779 261.906168 
" style="fill:none;stroke:#1f77b4;stroke-width:0.5;"/>
    <path clip-path="url(#p81bc7341f9)" d="M 396.854161 255.845055 
L 396.854161 261.210398 
" style="fill:none;stroke:#1f77b4;stroke-width:0.5;"/>
    <path clip-path="url(#p81bc7341f9)" d="M 397.677773 259.787037 
L 397.677773 265.217577 
" style="fill:none;stroke:#1f77b4;stroke-width:0.5;"/>
    <path clip-path="url(#p81bc7341f9)" d="M 397.678155 262.571116 
L 397.678155 268.048824 
" style="fill:none;stroke:#1f77b4;stroke-width:0.5;"/>
    <path clip-path="url(#p81bc7341f9)" d="M 398.486891 277.289767 
L 398.486891 283.033096 
" style="fill:none;stroke:#1f77b4;stroke-width:0.5;"/>
    <path clip-path="url(#p81bc7341f9)" d="M 398.487273 270.674679 
L 398.487273 276.295162 
" style="fill:none;stroke:#1f77b4;stroke-width:0.5;"/>
   </g>
   <g id="line2d_46">
    <path clip-path="url(#p81bc7341f9)" d="M 73.832727 237.501453 
L 73.833119 237.333231 
L 94.910293 251.92729 
L 94.910684 252.867952 
L 96.675449 248.732312 
L 99.185169 238.46509 
L 99.18789 234.959105 
L 100.021602 241.305351 
L 121.144305 233.075061 
L 121.988998 297.147903 
L 121.98938 299.579338 
L 123.69785 231.379014 
L 123.698242 234.751357 
L 125.362202 258.793767 
L 125.362594 254.896505 
L 126.199487 250.233225 
L 126.199878 250.637842 
L 127.090237 243.144183 
L 127.090618 243.190613 
L 127.899364 248.306934 
L 127.899756 249.227833 
L 128.744146 272.177678 
L 128.744527 271.223676 
L 136.360585 243.891421 
L 142.231315 259.361918 
L 143.073052 237.665724 
L 143.918832 242.257618 
L 144.76286 272.400488 
L 145.612006 252.406273 
L 155.771705 253.769088 
L 163.21203 227.583767 
L 164.180987 287.20947 
L 165.042171 255.500219 
L 170.943837 226.311104 
L 173.496775 239.472684 
L 207.146958 260.171904 
L 210.529274 279.845736 
L 218.978819 206.233393 
L 346.082599 235.770568 
L 379.139631 231.626522 
L 396.853779 259.217902 
L 396.854161 258.527727 
L 397.677773 262.502307 
L 397.678155 265.30997 
L 398.486891 280.161432 
L 398.487273 273.48492 
" style="fill:none;"/>
   </g>
   <g id="patch_14">
    <path d="M 57.6 307.584 
L 57.6 198.966857 
" style="fill:none;stroke:#000000;stroke-linecap:square;stroke-linejoin:miter;stroke-width:0.8;"/>
   </g>
   <g id="patch_15">
    <path d="M 414.72 307.584 
L 414.72 198.966857 
" style="fill:none;stroke:#000000;stroke-linecap:square;stroke-linejoin:miter;stroke-width:0.8;"/>
   </g>
   <g id="patch_16">
    <path d="M 57.6 307.584 
L 414.72 307.584 
" style="fill:none;stroke:#000000;stroke-linecap:square;stroke-linejoin:miter;stroke-width:0.8;"/>
   </g>
   <g id="patch_17">
    <path d="M 57.6 198.966857 
L 414.72 198.966857 
" style="fill:none;stroke:#000000;stroke-linecap:square;stroke-linejoin:miter;stroke-width:0.8;"/>
   </g>
   <g id="text_37">
    <!-- Light Curve -->
    <g transform="translate(206.000625 192.966857)scale(0.1 -0.1)">
     <use xlink:href="#DejaVuSerif-76"/>
     <use x="66.40625" xlink:href="#DejaVuSerif-105"/>
     <use x="98.388672" xlink:href="#DejaVuSerif-103"/>
     <use x="162.402344" xlink:href="#DejaVuSerif-104"/>
     <use x="226.806641" xlink:href="#DejaVuSerif-116"/>
     <use x="266.992188" xlink:href="#DejaVuSerif-32"/>
     <use x="298.779297" xlink:href="#DejaVuSerif-67"/>
     <use x="375.292969" xlink:href="#DejaVuSerif-117"/>
     <use x="439.697266" xlink:href="#DejaVuSerif-114"/>
     <use x="487.5" xlink:href="#DejaVuSerif-118"/>
     <use x="543.994141" xlink:href="#DejaVuSerif-101"/>
    </g>
   </g>
  </g>
 </g>
 <defs>
  <clipPath id="pccecd01e77">
   <rect height="108.617143" width="148.8" x="265.92" y="41.472"/>
  </clipPath>
  <clipPath id="p9f82310d11">
   <rect height="108.617143" width="148.8" x="57.6" y="41.472"/>
  </clipPath>
  <clipPath id="p81bc7341f9">
   <rect height="108.617143" width="357.12" x="57.6" y="198.966857"/>
  </clipPath>
 </defs>
</svg>
