<?xml version="1.0" encoding="utf-8" standalone="no"?>
<!DOCTYPE svg PUBLIC "-//W3C//DTD SVG 1.1//EN"
  "http://www.w3.org/Graphics/SVG/1.1/DTD/svg11.dtd">
<!-- Created with matplotlib (https://matplotlib.org/) -->
<svg height="345.6pt" version="1.1" viewBox="0 0 460.8 345.6" width="460.8pt" xmlns="http://www.w3.org/2000/svg" xmlns:xlink="http://www.w3.org/1999/xlink">
 <metadata>
  <rdf:RDF xmlns:cc="http://creativecommons.org/ns#" xmlns:dc="http://purl.org/dc/elements/1.1/" xmlns:rdf="http://www.w3.org/1999/02/22-rdf-syntax-ns#">
   <cc:Work>
    <dc:type rdf:resource="http://purl.org/dc/dcmitype/StillImage"/>
    <dc:date>2021-02-24T00:26:51.442830</dc:date>
    <dc:format>image/svg+xml</dc:format>
    <dc:creator>
     <cc:Agent>
      <dc:title>Matplotlib v3.3.3, https://matplotlib.org/</dc:title>
     </cc:Agent>
    </dc:creator>
   </cc:Work>
  </rdf:RDF>
 </metadata>
 <defs>
  <style type="text/css">*{stroke-linecap:butt;stroke-linejoin:round;}</style>
 </defs>
 <g id="figure_1">
  <g id="patch_1">
   <path d="M 0 345.6 
L 460.8 345.6 
L 460.8 0 
L 0 0 
z
" style="fill:#ffffff;"/>
  </g>
  <g id="axes_1">
   <g id="patch_2">
    <path d="M 265.92 150.089143 
L 414.72 150.089143 
L 414.72 41.472 
L 265.92 41.472 
z
" style="fill:#ffffff;"/>
   </g>
   <g id="matplotlib.axis_1">
    <g id="xtick_1">
     <g id="line2d_1">
      <defs>
       <path d="M 0 0 
L 0 3.5 
" id="m72e494c848" style="stroke:#000000;stroke-width:0.8;"/>
      </defs>
      <g>
       <use style="stroke:#000000;stroke-width:0.8;" x="326.985138" xlink:href="#m72e494c848" y="150.089143"/>
      </g>
     </g>
     <g id="text_1">
      <!-- $\mathdefault{10^{1}}$ -->
      <g transform="translate(318.185138 164.68758)scale(0.1 -0.1)">
       <defs>
        <path d="M 14.203125 0 
L 14.203125 5.171875 
L 26.90625 5.171875 
L 26.90625 65.828125 
L 12.203125 56.296875 
L 12.203125 62.703125 
L 29.984375 74.21875 
L 36.71875 74.21875 
L 36.71875 5.171875 
L 49.421875 5.171875 
L 49.421875 0 
z
" id="DejaVuSerif-49"/>
        <path d="M 31.78125 3.421875 
Q 39.265625 3.421875 42.96875 11.625 
Q 46.6875 19.828125 46.6875 36.375 
Q 46.6875 52.984375 42.96875 61.1875 
Q 39.265625 69.390625 31.78125 69.390625 
Q 24.3125 69.390625 20.59375 61.1875 
Q 16.890625 52.984375 16.890625 36.375 
Q 16.890625 19.828125 20.59375 11.625 
Q 24.3125 3.421875 31.78125 3.421875 
z
M 31.78125 -1.421875 
Q 19.921875 -1.421875 13.25 8.53125 
Q 6.59375 18.5 6.59375 36.375 
Q 6.59375 54.296875 13.25 64.25 
Q 19.921875 74.21875 31.78125 74.21875 
Q 43.703125 74.21875 50.34375 64.25 
Q 56.984375 54.296875 56.984375 36.375 
Q 56.984375 18.5 50.34375 8.53125 
Q 43.703125 -1.421875 31.78125 -1.421875 
z
" id="DejaVuSerif-48"/>
       </defs>
       <use transform="translate(0 0.7125)" xlink:href="#DejaVuSerif-49"/>
       <use transform="translate(63.623047 0.7125)" xlink:href="#DejaVuSerif-48"/>
       <use transform="translate(128.154453 37.046875)scale(0.7)" xlink:href="#DejaVuSerif-49"/>
      </g>
     </g>
    </g>
    <g id="xtick_2">
     <g id="line2d_2">
      <g>
       <use style="stroke:#000000;stroke-width:0.8;" x="400.12039" xlink:href="#m72e494c848" y="150.089143"/>
      </g>
     </g>
     <g id="text_2">
      <!-- $\mathdefault{10^{2}}$ -->
      <g transform="translate(391.32039 164.68758)scale(0.1 -0.1)">
       <defs>
        <path d="M 12.796875 55.515625 
L 7.328125 55.515625 
L 7.328125 68.5 
Q 12.546875 71.296875 17.84375 72.75 
Q 23.140625 74.21875 28.21875 74.21875 
Q 39.59375 74.21875 46.1875 68.703125 
Q 52.78125 63.1875 52.78125 53.71875 
Q 52.78125 43.015625 37.84375 28.125 
Q 36.671875 27 36.078125 26.421875 
L 17.671875 8.015625 
L 48.09375 8.015625 
L 48.09375 17 
L 53.8125 17 
L 53.8125 0 
L 6.78125 0 
L 6.78125 5.328125 
L 28.90625 27.390625 
Q 36.234375 34.71875 39.359375 40.84375 
Q 42.484375 46.96875 42.484375 53.71875 
Q 42.484375 61.078125 38.640625 65.234375 
Q 34.8125 69.390625 28.078125 69.390625 
Q 21.09375 69.390625 17.28125 65.921875 
Q 13.484375 62.453125 12.796875 55.515625 
z
" id="DejaVuSerif-50"/>
       </defs>
       <use transform="translate(0 0.7125)" xlink:href="#DejaVuSerif-49"/>
       <use transform="translate(63.623047 0.7125)" xlink:href="#DejaVuSerif-48"/>
       <use transform="translate(128.154453 37.046875)scale(0.7)" xlink:href="#DejaVuSerif-50"/>
      </g>
     </g>
    </g>
    <g id="xtick_3">
     <g id="line2d_3">
      <defs>
       <path d="M 0 0 
L 0 2 
" id="m1d0598c215" style="stroke:#000000;stroke-width:0.6;"/>
      </defs>
      <g>
       <use style="stroke:#000000;stroke-width:0.6;" x="275.86579" xlink:href="#m1d0598c215" y="150.089143"/>
      </g>
     </g>
    </g>
    <g id="xtick_4">
     <g id="line2d_4">
      <g>
       <use style="stroke:#000000;stroke-width:0.6;" x="288.744269" xlink:href="#m1d0598c215" y="150.089143"/>
      </g>
     </g>
    </g>
    <g id="xtick_5">
     <g id="line2d_5">
      <g>
       <use style="stroke:#000000;stroke-width:0.6;" x="297.881695" xlink:href="#m1d0598c215" y="150.089143"/>
      </g>
     </g>
    </g>
    <g id="xtick_6">
     <g id="line2d_6">
      <g>
       <use style="stroke:#000000;stroke-width:0.6;" x="304.969233" xlink:href="#m1d0598c215" y="150.089143"/>
      </g>
     </g>
    </g>
    <g id="xtick_7">
     <g id="line2d_7">
      <g>
       <use style="stroke:#000000;stroke-width:0.6;" x="310.760174" xlink:href="#m1d0598c215" y="150.089143"/>
      </g>
     </g>
    </g>
    <g id="xtick_8">
     <g id="line2d_8">
      <g>
       <use style="stroke:#000000;stroke-width:0.6;" x="315.656344" xlink:href="#m1d0598c215" y="150.089143"/>
      </g>
     </g>
    </g>
    <g id="xtick_9">
     <g id="line2d_9">
      <g>
       <use style="stroke:#000000;stroke-width:0.6;" x="319.8976" xlink:href="#m1d0598c215" y="150.089143"/>
      </g>
     </g>
    </g>
    <g id="xtick_10">
     <g id="line2d_10">
      <g>
       <use style="stroke:#000000;stroke-width:0.6;" x="323.638652" xlink:href="#m1d0598c215" y="150.089143"/>
      </g>
     </g>
    </g>
    <g id="xtick_11">
     <g id="line2d_11">
      <g>
       <use style="stroke:#000000;stroke-width:0.6;" x="349.001043" xlink:href="#m1d0598c215" y="150.089143"/>
      </g>
     </g>
    </g>
    <g id="xtick_12">
     <g id="line2d_12">
      <g>
       <use style="stroke:#000000;stroke-width:0.6;" x="361.879521" xlink:href="#m1d0598c215" y="150.089143"/>
      </g>
     </g>
    </g>
    <g id="xtick_13">
     <g id="line2d_13">
      <g>
       <use style="stroke:#000000;stroke-width:0.6;" x="371.016947" xlink:href="#m1d0598c215" y="150.089143"/>
      </g>
     </g>
    </g>
    <g id="xtick_14">
     <g id="line2d_14">
      <g>
       <use style="stroke:#000000;stroke-width:0.6;" x="378.104486" xlink:href="#m1d0598c215" y="150.089143"/>
      </g>
     </g>
    </g>
    <g id="xtick_15">
     <g id="line2d_15">
      <g>
       <use style="stroke:#000000;stroke-width:0.6;" x="383.895426" xlink:href="#m1d0598c215" y="150.089143"/>
      </g>
     </g>
    </g>
    <g id="xtick_16">
     <g id="line2d_16">
      <g>
       <use style="stroke:#000000;stroke-width:0.6;" x="388.791597" xlink:href="#m1d0598c215" y="150.089143"/>
      </g>
     </g>
    </g>
    <g id="xtick_17">
     <g id="line2d_17">
      <g>
       <use style="stroke:#000000;stroke-width:0.6;" x="393.032852" xlink:href="#m1d0598c215" y="150.089143"/>
      </g>
     </g>
    </g>
    <g id="xtick_18">
     <g id="line2d_18">
      <g>
       <use style="stroke:#000000;stroke-width:0.6;" x="396.773905" xlink:href="#m1d0598c215" y="150.089143"/>
      </g>
     </g>
    </g>
    <g id="text_3">
     <!-- Period d -->
     <g transform="translate(319.231719 178.365705)scale(0.1 -0.1)">
      <defs>
       <path d="M 24.703125 37.109375 
L 37.59375 37.109375 
Q 44.875 37.109375 48.671875 41.03125 
Q 52.484375 44.96875 52.484375 52.390625 
Q 52.484375 59.859375 48.671875 63.765625 
Q 44.875 67.671875 37.59375 67.671875 
L 24.703125 67.671875 
z
M 5.515625 0 
L 5.515625 5.171875 
L 14.796875 5.171875 
L 14.796875 67.671875 
L 5.515625 67.671875 
L 5.515625 72.90625 
L 39.984375 72.90625 
Q 50.921875 72.90625 57.3125 67.359375 
Q 63.71875 61.8125 63.71875 52.390625 
Q 63.71875 43.015625 57.3125 37.453125 
Q 50.921875 31.890625 39.984375 31.890625 
L 24.703125 31.890625 
L 24.703125 5.171875 
L 35.984375 5.171875 
L 35.984375 0 
z
" id="DejaVuSerif-80"/>
       <path d="M 54.203125 25 
L 15.484375 25 
L 15.484375 24.609375 
Q 15.484375 14.109375 19.4375 8.765625 
Q 23.390625 3.421875 31.109375 3.421875 
Q 37.015625 3.421875 40.796875 6.515625 
Q 44.578125 9.625 46.09375 15.71875 
L 53.328125 15.71875 
Q 51.171875 7.171875 45.375 2.875 
Q 39.59375 -1.421875 30.171875 -1.421875 
Q 18.796875 -1.421875 11.890625 6.078125 
Q 4.984375 13.578125 4.984375 25.984375 
Q 4.984375 38.28125 11.765625 45.796875 
Q 18.5625 53.328125 29.59375 53.328125 
Q 41.359375 53.328125 47.65625 46.0625 
Q 53.953125 38.8125 54.203125 25 
z
M 43.609375 30.171875 
Q 43.3125 39.265625 39.765625 43.875 
Q 36.234375 48.484375 29.59375 48.484375 
Q 23.390625 48.484375 19.828125 43.84375 
Q 16.265625 39.203125 15.484375 30.171875 
z
" id="DejaVuSerif-101"/>
       <path d="M 47.796875 52 
L 47.796875 39.015625 
L 42.625 39.015625 
Q 42.390625 42.875 40.484375 44.78125 
Q 38.578125 46.6875 34.90625 46.6875 
Q 28.265625 46.6875 24.71875 42.09375 
Q 21.1875 37.5 21.1875 28.90625 
L 21.1875 5.171875 
L 31.59375 5.171875 
L 31.59375 0 
L 4.109375 0 
L 4.109375 5.171875 
L 12.203125 5.171875 
L 12.203125 46.78125 
L 3.609375 46.78125 
L 3.609375 51.90625 
L 21.1875 51.90625 
L 21.1875 42.671875 
Q 23.828125 48.09375 27.96875 50.703125 
Q 32.125 53.328125 38.09375 53.328125 
Q 40.28125 53.328125 42.703125 52.984375 
Q 45.125 52.640625 47.796875 52 
z
" id="DejaVuSerif-114"/>
       <path d="M 9.71875 68.015625 
Q 9.71875 70.265625 11.34375 71.921875 
Q 12.984375 73.578125 15.28125 73.578125 
Q 17.53125 73.578125 19.15625 71.921875 
Q 20.796875 70.265625 20.796875 68.015625 
Q 20.796875 65.71875 19.1875 64.109375 
Q 17.578125 62.5 15.28125 62.5 
Q 12.984375 62.5 11.34375 64.109375 
Q 9.71875 65.71875 9.71875 68.015625 
z
M 21.1875 5.171875 
L 29.6875 5.171875 
L 29.6875 0 
L 3.609375 0 
L 3.609375 5.171875 
L 12.203125 5.171875 
L 12.203125 46.6875 
L 3.609375 46.6875 
L 3.609375 51.90625 
L 21.1875 51.90625 
z
" id="DejaVuSerif-105"/>
       <path d="M 30.078125 3.421875 
Q 37.3125 3.421875 40.984375 9.125 
Q 44.671875 14.84375 44.671875 25.984375 
Q 44.671875 37.109375 40.984375 42.796875 
Q 37.3125 48.484375 30.078125 48.484375 
Q 22.859375 48.484375 19.171875 42.796875 
Q 15.484375 37.109375 15.484375 25.984375 
Q 15.484375 14.84375 19.1875 9.125 
Q 22.90625 3.421875 30.078125 3.421875 
z
M 30.078125 -1.421875 
Q 18.75 -1.421875 11.859375 6.078125 
Q 4.984375 13.578125 4.984375 25.984375 
Q 4.984375 38.375 11.84375 45.84375 
Q 18.703125 53.328125 30.078125 53.328125 
Q 41.453125 53.328125 48.3125 45.84375 
Q 55.171875 38.375 55.171875 25.984375 
Q 55.171875 13.578125 48.3125 6.078125 
Q 41.453125 -1.421875 30.078125 -1.421875 
z
" id="DejaVuSerif-111"/>
       <path d="M 52.484375 5.171875 
L 61.078125 5.171875 
L 61.078125 0 
L 43.5 0 
L 43.5 8.109375 
Q 40.875 3.21875 36.796875 0.890625 
Q 32.71875 -1.421875 26.703125 -1.421875 
Q 17.140625 -1.421875 11.0625 6.171875 
Q 4.984375 13.765625 4.984375 25.984375 
Q 4.984375 38.1875 11.03125 45.75 
Q 17.09375 53.328125 26.703125 53.328125 
Q 32.71875 53.328125 36.796875 51 
Q 40.875 48.6875 43.5 43.796875 
L 43.5 70.796875 
L 35.015625 70.796875 
L 35.015625 75.984375 
L 52.484375 75.984375 
z
M 43.5 23.390625 
L 43.5 28.515625 
Q 43.5 37.84375 39.90625 42.765625 
Q 36.328125 47.703125 29.5 47.703125 
Q 22.5625 47.703125 19.015625 42.234375 
Q 15.484375 36.765625 15.484375 25.984375 
Q 15.484375 15.234375 19.015625 9.71875 
Q 22.5625 4.203125 29.5 4.203125 
Q 36.328125 4.203125 39.90625 9.109375 
Q 43.5 14.015625 43.5 23.390625 
z
" id="DejaVuSerif-100"/>
       <path id="DejaVuSerif-32"/>
      </defs>
      <use xlink:href="#DejaVuSerif-80"/>
      <use x="62.785156" xlink:href="#DejaVuSerif-101"/>
      <use x="121.964844" xlink:href="#DejaVuSerif-114"/>
      <use x="169.767578" xlink:href="#DejaVuSerif-105"/>
      <use x="201.75" xlink:href="#DejaVuSerif-111"/>
      <use x="261.955078" xlink:href="#DejaVuSerif-100"/>
      <use x="325.96875" xlink:href="#DejaVuSerif-32"/>
      <use x="357.755859" xlink:href="#DejaVuSerif-100"/>
     </g>
    </g>
   </g>
   <g id="matplotlib.axis_2">
    <g id="ytick_1">
     <g id="line2d_19">
      <defs>
       <path d="M 0 0 
L -3.5 0 
" id="m43e54763da" style="stroke:#000000;stroke-width:0.8;"/>
      </defs>
      <g>
       <use style="stroke:#000000;stroke-width:0.8;" x="265.92" xlink:href="#m43e54763da" y="145.188779"/>
      </g>
     </g>
     <g id="text_4">
      <!-- 0.0 -->
      <g transform="translate(243.016875 148.987998)scale(0.1 -0.1)">
       <defs>
        <path d="M 9.421875 5.078125 
Q 9.421875 7.8125 11.28125 9.71875 
Q 13.140625 11.625 15.921875 11.625 
Q 18.609375 11.625 20.5 9.71875 
Q 22.40625 7.8125 22.40625 5.078125 
Q 22.40625 2.390625 20.5 0.484375 
Q 18.609375 -1.421875 15.921875 -1.421875 
Q 13.140625 -1.421875 11.28125 0.453125 
Q 9.421875 2.34375 9.421875 5.078125 
z
" id="DejaVuSerif-46"/>
       </defs>
       <use xlink:href="#DejaVuSerif-48"/>
       <use x="63.623047" xlink:href="#DejaVuSerif-46"/>
       <use x="95.410156" xlink:href="#DejaVuSerif-48"/>
      </g>
     </g>
    </g>
    <g id="ytick_2">
     <g id="line2d_20">
      <g>
       <use style="stroke:#000000;stroke-width:0.8;" x="265.92" xlink:href="#m43e54763da" y="102.18715"/>
      </g>
     </g>
     <g id="text_5">
      <!-- 0.2 -->
      <g transform="translate(243.016875 105.986369)scale(0.1 -0.1)">
       <use xlink:href="#DejaVuSerif-48"/>
       <use x="63.623047" xlink:href="#DejaVuSerif-46"/>
       <use x="95.410156" xlink:href="#DejaVuSerif-50"/>
      </g>
     </g>
    </g>
    <g id="ytick_3">
     <g id="line2d_21">
      <g>
       <use style="stroke:#000000;stroke-width:0.8;" x="265.92" xlink:href="#m43e54763da" y="59.185522"/>
      </g>
     </g>
     <g id="text_6">
      <!-- 0.4 -->
      <g transform="translate(243.016875 62.984741)scale(0.1 -0.1)">
       <defs>
        <path d="M 34.90625 24.703125 
L 34.90625 63.484375 
L 10.015625 24.703125 
z
M 56.390625 0 
L 23.1875 0 
L 23.1875 5.171875 
L 34.90625 5.171875 
L 34.90625 19.484375 
L 3.078125 19.484375 
L 3.078125 24.8125 
L 35.015625 74.21875 
L 44.671875 74.21875 
L 44.671875 24.703125 
L 58.59375 24.703125 
L 58.59375 19.484375 
L 44.671875 19.484375 
L 44.671875 5.171875 
L 56.390625 5.171875 
z
" id="DejaVuSerif-52"/>
       </defs>
       <use xlink:href="#DejaVuSerif-48"/>
       <use x="63.623047" xlink:href="#DejaVuSerif-46"/>
       <use x="95.410156" xlink:href="#DejaVuSerif-52"/>
      </g>
     </g>
    </g>
    <g id="text_7">
     <!-- Power -->
     <g transform="translate(236.937188 111.583696)rotate(-90)scale(0.1 -0.1)">
      <defs>
       <path d="M 48 51.90625 
L 61.28125 11.375 
L 73 46.6875 
L 65.484375 46.6875 
L 65.484375 51.90625 
L 84.28125 51.90625 
L 84.28125 46.6875 
L 78.515625 46.6875 
L 63.09375 0 
L 55.609375 0 
L 42.828125 38.8125 
L 29.984375 0 
L 22.796875 0 
L 7.421875 46.6875 
L 1.609375 46.6875 
L 1.609375 51.90625 
L 25.09375 51.90625 
L 25.09375 46.6875 
L 16.703125 46.6875 
L 28.328125 11.375 
L 41.703125 51.90625 
z
" id="DejaVuSerif-119"/>
      </defs>
      <use xlink:href="#DejaVuSerif-80"/>
      <use x="63.285156" xlink:href="#DejaVuSerif-111"/>
      <use x="123.490234" xlink:href="#DejaVuSerif-119"/>
      <use x="209.085938" xlink:href="#DejaVuSerif-101"/>
      <use x="268.265625" xlink:href="#DejaVuSerif-114"/>
     </g>
    </g>
   </g>
   <g id="LineCollection_1">
    <path clip-path="url(#p7e64651816)" d="M 272.695273 46.409143 
L 407.956364 46.409143 
" style="fill:none;stroke:#808080;stroke-dasharray:5.55,2.4;stroke-dashoffset:0;stroke-width:1.5;"/>
   </g>
   <g id="LineCollection_2">
    <path clip-path="url(#p7e64651816)" d="M 272.695273 60.376221 
L 407.956364 60.376221 
" style="fill:none;stroke:#a9a9a9;stroke-dasharray:5.55,2.4;stroke-dashoffset:0;stroke-width:1.5;"/>
   </g>
   <g id="LineCollection_3">
    <path clip-path="url(#p7e64651816)" d="M 272.695273 71.347338 
L 407.956364 71.347338 
" style="fill:none;stroke:#c0c0c0;stroke-dasharray:5.55,2.4;stroke-dashoffset:0;stroke-width:1.5;"/>
   </g>
   <g id="LineCollection_4">
    <path clip-path="url(#p7e64651816)" d="M 272.695273 76.522115 
L 407.956364 76.522115 
" style="fill:none;stroke:#d3d3d3;stroke-dasharray:5.55,2.4;stroke-dashoffset:0;stroke-width:1.5;"/>
   </g>
   <g id="line2d_22">
    <path clip-path="url(#p7e64651816)" d="M 407.956364 139.828946 
L 405.906476 140.353174 
L 403.980902 135.244975 
L 402.165423 128.310694 
L 400.448127 130.423798 
L 398.818938 137.16843 
L 397.269253 142.283389 
L 395.791673 144.910123 
L 394.379786 143.194028 
L 393.027997 133.875791 
L 391.731399 126.693136 
L 390.485662 129.757432 
L 389.286945 136.568766 
L 388.131827 142.253267 
L 387.017248 132.436388 
L 385.940459 96.395533 
L 384.898981 87.537231 
L 383.890571 87.309801 
L 382.913194 98.467722 
L 381.964998 119.532294 
L 381.044289 118.252974 
L 380.149518 81.906127 
L 379.279266 77.872313 
L 378.432223 83.366689 
L 377.607183 95.444642 
L 376.01874 133.335447 
L 374.505967 117.583204 
L 373.775768 118.024256 
L 373.06198 125.187025 
L 372.363881 139.38219 
L 371.680796 143.60443 
L 371.012092 130.617335 
L 370.357178 121.393707 
L 369.715495 118.888828 
L 369.086519 122.591347 
L 368.469757 135.446316 
L 367.864744 138.795975 
L 366.68823 112.757788 
L 366.115922 110.284379 
L 365.553744 110.828025 
L 365.001343 121.553273 
L 364.458386 135.659622 
L 363.924554 137.838182 
L 363.399547 131.696575 
L 362.883076 128.475178 
L 362.374869 126.816224 
L 361.874666 129.408759 
L 360.89729 144.767453 
L 360.419653 144.033411 
L 359.485402 137.762458 
L 359.028384 139.292524 
L 358.577848 143.975663 
L 358.133614 145.031251 
L 357.695507 143.524674 
L 356.837016 138.122366 
L 356.416318 138.42441 
L 355.591278 142.541581 
L 355.186658 143.101556 
L 354.392561 140.815753 
L 354.002836 140.513507 
L 353.617834 140.058908 
L 353.237443 141.061112 
L 352.861555 142.901526 
L 352.490062 143.411346 
L 352.122865 142.615297 
L 351.759864 141.360298 
L 351.400965 139.412775 
L 351.046076 136.516613 
L 350.347976 133.7131 
L 349.664891 136.70343 
L 348.996188 120.560484 
L 348.667042 124.407909 
L 347.69959 139.529051 
L 347.070614 129.114758 
L 346.760736 129.819667 
L 346.149905 137.387998 
L 345.848839 130.817847 
L 345.5506 118.775686 
L 345.255135 116.028816 
L 344.962394 119.762288 
L 344.384882 133.067264 
L 343.817685 111.671702 
L 343.537839 115.414945 
L 342.985439 136.426334 
L 342.7128 142.651398 
L 342.442481 135.198344 
L 342.174444 123.453373 
L 341.908649 122.722396 
L 341.645061 127.967755 
L 341.124357 143.467858 
L 340.867171 135.620658 
L 340.358965 106.604024 
L 340.107879 104.580529 
L 339.858762 111.469617 
L 339.611584 128.608276 
L 339.366314 132.296136 
L 338.881385 101.741644 
L 338.641669 99.56366 
L 338.403748 103.861292 
L 337.933188 136.778801 
L 337.700497 135.26871 
L 337.469498 128.388613 
L 337.240166 125.28524 
L 337.012479 126.47995 
L 336.561943 143.743135 
L 336.33905 143.316348 
L 335.8979 135.803182 
L 335.679602 135.487708 
L 335.247456 143.742414 
L 335.033568 142.084103 
L 334.400413 122.388829 
L 334.192135 127.613363 
L 333.985215 138.331453 
L 333.779633 140.054083 
L 333.372419 129.86286 
L 333.170754 127.67115 
L 332.97036 133.063797 
L 332.771223 141.589563 
L 332.573327 143.387129 
L 332.181196 134.656072 
L 331.986931 134.435323 
L 331.601929 141.241623 
L 331.411165 139.591252 
L 331.033038 132.081185 
L 330.84565 134.319739 
L 330.659361 138.16692 
L 330.290028 138.871374 
L 330.10696 139.572437 
L 329.924941 139.707894 
L 329.743959 140.968463 
L 329.564002 138.934725 
L 329.38506 135.133041 
L 329.20712 136.301863 
L 328.854202 140.255376 
L 328.679203 138.082788 
L 328.332072 126.288627 
L 328.159918 125.440933 
L 327.818385 130.990377 
L 327.648986 133.952381 
L 327.480486 128.509096 
L 327.146144 103.614765 
L 326.980283 109.044489 
L 326.651138 127.299929 
L 326.487835 125.438672 
L 326.163728 106.715252 
L 326.002906 110.301898 
L 325.683685 129.328936 
L 325.52527 128.064945 
L 325.21079 111.976247 
L 325.054709 114.556012 
L 324.591019 131.11828 
L 324.28561 101.405756 
L 324.134 99.395953 
L 323.832934 125.590499 
L 323.683465 136.335436 
L 323.534695 128.407872 
L 323.23923 89.232089 
L 323.092522 91.258795 
L 322.801124 133.989144 
L 322.656421 134.075422 
L 322.368978 101.31433 
L 322.226226 102.201928 
L 321.80178 135.275611 
L 321.382931 101.710005 
L 321.244533 108.96435 
L 320.969534 134.78963 
L 320.561448 117.177315 
L 320.426576 121.475455 
L 320.158539 139.757472 
L 320.025364 139.561038 
L 319.760677 132.892643 
L 319.629156 133.283221 
L 319.23783 142.365408 
L 318.851267 135.622 
L 318.723451 137.363472 
L 318.469351 143.273076 
L 318.34306 142.318468 
L 318.091974 138.532332 
L 317.967171 139.004529 
L 317.719027 143.885186 
L 317.595679 144.373741 
L 317.228481 143.345067 
L 316.98602 144.154768 
L 316.86548 144.199926 
L 316.625764 143.963666 
L 316.387844 144.159577 
L 316.269548 143.692403 
L 315.917283 140.357529 
L 315.800725 141.346416 
L 315.568882 145.073442 
L 315.453593 144.526222 
L 315.224262 141.797278 
L 315.110214 142.240028 
L 314.88334 144.265282 
L 314.770508 144.641473 
L 314.658075 144.506885 
L 314.546039 143.73829 
L 314.434396 142.085122 
L 314.212282 136.651639 
L 313.99171 142.771711 
L 313.881996 141.359589 
L 313.555109 120.97186 
L 313.44689 123.783267 
L 313.231552 136.117574 
L 312.911257 118.58796 
L 312.805206 122.529662 
L 312.594161 140.235547 
L 312.489162 138.532577 
L 312.176231 120.939541 
L 311.866353 140.855899 
L 311.559469 104.360606 
L 311.45783 109.255868 
L 311.255522 132.236742 
L 311.154849 125.259979 
L 310.954456 98.107291 
L 310.854731 101.170729 
L 310.557423 132.178815 
L 310.458935 128.521784 
L 310.262871 114.07764 
L 309.874337 137.758759 
L 309.586025 125.485614 
L 309.39526 130.506006 
L 309.300305 128.762464 
L 309.111244 114.287408 
L 309.017133 114.602263 
L 308.736464 117.396931 
L 308.550719 113.21255 
L 308.366055 123.126139 
L 308.182457 130.31894 
L 307.999915 127.718627 
L 307.909036 128.088133 
L 307.728054 130.007977 
L 307.637949 128.80073 
L 307.4585 121.250184 
L 307.369155 121.461444 
L 307.191215 117.090652 
L 307.102617 118.421412 
L 306.750678 134.842198 
L 306.576159 132.010896 
L 306.489258 132.575472 
L 306.229973 144.362318 
L 305.972788 136.379747 
L 305.717668 142.346645 
L 305.464581 125.513897 
L 305.380665 128.439794 
L 305.130239 142.43066 
L 304.964378 136.870182 
L 304.7172 144.897571 
L 304.635233 143.442248 
L 304.471931 138.674888 
L 304.309464 143.274405 
L 304.228541 142.21813 
L 303.987002 126.898909 
L 303.747285 137.69718 
L 303.66778 136.817171 
L 303.430453 119.894412 
L 303.194885 141.497862 
L 302.961051 124.67061 
L 302.806113 133.825446 
L 302.728927 131.770103 
L 302.498486 96.255979 
L 302.345783 106.601762 
L 302.269706 119.018462 
L 302.19381 118.716778 
L 302.118096 108.900655 
L 302.042561 109.506616 
L 301.742207 137.482696 
L 301.66756 136.511719 
L 301.444666 130.202602 
L 301.370714 130.999923 
L 301.296935 130.22576 
L 301.076618 114.736233 
L 300.930584 103.365038 
L 300.712785 111.673325 
L 300.42469 123.81131 
L 300.068208 141.253736 
L 299.856223 144.323367 
L 299.785875 143.374595 
L 299.50603 136.03891 
L 299.367026 139.433527 
L 299.297752 137.322332 
L 299.090831 126.105901 
L 298.88525 143.769184 
L 298.817017 142.370675 
L 298.68099 138.660378 
L 298.545543 144.33557 
L 298.410672 131.676479 
L 298.27637 123.3968 
L 298.075977 138.718566 
L 297.94308 132.337339 
L 297.87684 132.838023 
L 297.678944 145.152 
L 297.547695 141.062481 
L 297.482273 141.389564 
L 297.416986 142.351911 
L 297.351832 141.450848 
L 297.157171 129.207902 
L 297.092547 131.004458 
L 296.899463 136.271574 
L 296.707546 125.727967 
L 296.453447 142.39873 
L 296.327155 136.89529 
L 296.264197 137.803442 
L 296.138655 141.390752 
L 295.889049 122.075168 
L 295.826952 122.3623 
L 295.703123 132.947867 
L 295.641389 131.288038 
L 295.456903 121.868237 
L 295.395645 123.347931 
L 295.212576 137.349223 
L 295.151788 135.89343 
L 295.030557 126.350112 
L 294.970115 127.371526 
L 294.909788 128.458853 
L 294.849576 127.826595 
L 294.789477 123.893157 
L 294.550212 95.024893 
L 294.431252 99.040366 
L 294.312736 86.331805 
L 294.253644 88.568972 
L 294.135787 99.471961 
L 294.018367 120.541474 
L 293.959819 119.592485 
L 293.668687 140.917157 
L 293.61078 138.850237 
L 293.437688 130.986812 
L 293.322816 136.415078 
L 293.265535 133.824824 
L 293.094309 115.158689 
L 293.037439 116.10665 
L 292.867435 134.795663 
L 292.754603 127.87204 
L 292.698337 128.101491 
L 292.530134 144.209982 
L 292.474264 144.045855 
L 292.362817 138.558572 
L 292.30724 139.125927 
L 292.196377 142.614715 
L 292.14109 141.95881 
L 291.920901 125.038395 
L 291.866091 127.545333 
L 291.756754 132.099994 
L 291.647793 128.378037 
L 291.539204 133.079064 
L 291.323133 143.609915 
L 291.16204 144.122503 
L 291.055096 143.64965 
L 290.948511 145.005629 
L 290.895353 144.592067 
L 290.789302 141.756292 
L 290.736409 141.762981 
L 290.630886 144.185041 
L 290.420887 131.645155 
L 290.368604 134.370412 
L 290.264294 142.4945 
L 290.212268 141.497224 
L 290.005009 135.741292 
L 289.901885 140.319539 
L 289.799094 143.743265 
L 289.696636 137.26936 
L 289.64553 137.314447 
L 289.492704 145.046731 
L 289.441925 143.379743 
L 289.34061 138.018564 
L 289.290073 138.696836 
L 289.239617 140.089156 
L 289.189241 138.699241 
L 289.03859 125.318181 
L 288.988531 125.547633 
L 288.88865 132.642477 
L 288.838826 131.291996 
L 288.739414 124.838491 
L 288.689824 125.3286 
L 288.541518 131.313029 
L 288.393901 116.346005 
L 288.344847 117.971232 
L 288.246966 124.673647 
L 288.052105 107.026988 
L 288.003576 111.701454 
L 287.90674 125.464565 
L 287.858433 124.749532 
L 287.762037 119.914328 
L 287.713949 122.145918 
L 287.522321 142.353343 
L 287.474594 141.22971 
L 287.379355 137.034827 
L 287.331842 137.276715 
L 287.189729 143.969484 
L 287.142499 141.724246 
L 287.048249 135.988813 
L 287.001229 137.505416 
L 286.907396 142.040668 
L 286.860584 140.629344 
L 286.767166 135.536499 
L 286.720559 137.057656 
L 286.581149 143.843318 
L 286.488548 142.145293 
L 286.396216 144.935746 
L 286.35015 144.775622 
L 286.258219 142.1908 
L 286.212353 142.945982 
L 286.120819 144.933842 
L 285.984011 140.536512 
L 285.847789 144.843389 
L 285.71215 135.691021 
L 285.667065 136.335192 
L 285.577087 143.160916 
L 285.532193 142.108421 
L 285.397892 120.468773 
L 285.35325 121.377623 
L 285.264156 135.695069 
L 285.219702 131.889162 
L 285.086713 113.781704 
L 284.954278 131.969317 
L 284.910255 128.967108 
L 284.822393 120.081968 
L 284.778553 125.956202 
L 284.647394 138.060913 
L 284.603794 136.852922 
L 284.560255 135.513087 
L 284.516774 135.994715 
L 284.38669 138.678093 
L 283.999603 116.944432 
L 283.956883 119.362232 
L 283.871615 122.977334 
L 283.829067 125.843919 
L 283.786576 123.887037 
L 283.744141 122.250845 
L 283.701763 123.095565 
L 283.659442 123.88417 
L 283.532815 135.373073 
L 283.490718 133.595145 
L 283.36476 127.760451 
L 283.322885 131.451857 
L 283.239301 140.373318 
L 283.19759 139.397761 
L 283.072788 125.816821 
L 283.031296 129.923694 
L 282.907143 141.620516 
L 282.865867 138.64793 
L 282.783475 130.68917 
L 282.742358 133.560359 
L 282.619328 144.995031 
L 282.578424 144.868799 
L 282.415331 140.745232 
L 282.293559 144.709168 
L 282.172252 139.6907 
L 282.131919 141.548166 
L 282.091637 144.040222 
L 282.051406 141.797262 
L 281.931018 133.427277 
L 281.811085 141.857483 
L 281.691603 132.536975 
L 281.651876 134.412651 
L 281.53299 143.785288 
L 281.49346 139.936381 
L 281.414548 128.929281 
L 281.375165 129.070678 
L 281.296546 139.751797 
L 281.257309 134.032095 
L 281.139888 103.886859 
L 281.100844 115.195381 
L 281.0229 119.155056 
L 280.984 118.382686 
L 280.906341 99.50999 
L 280.867583 109.359779 
L 280.674499 131.680978 
L 280.444337 142.135615 
L 280.406138 142.10389 
L 280.367985 142.456108 
L 280.102191 136.880832 
L 280.064401 136.257078 
L 279.876124 142.30821 
L 279.838602 142.406215 
L 279.763691 144.568634 
L 279.726302 144.09362 
L 279.651655 141.708344 
L 279.614397 143.520325 
L 279.577183 144.805636 
L 279.540013 144.66486 
L 279.428761 136.694124 
L 279.35481 139.622615 
L 279.244204 145.027889 
L 279.207421 144.264571 
L 279.097326 137.640094 
L 279.060713 138.588235 
L 278.878276 145.128995 
L 278.805593 142.127248 
L 278.733077 137.485449 
L 278.69688 137.605303 
L 278.624611 145.033489 
L 278.552506 143.538888 
L 278.516515 143.824601 
L 278.480565 145.016118 
L 278.444655 144.230485 
L 278.337168 133.984905 
L 278.30142 134.981453 
L 278.230044 141.409392 
L 278.194416 137.4051 
L 278.12328 131.701433 
L 278.087772 133.023309 
L 277.946134 144.788953 
L 277.910823 143.615456 
L 277.840319 138.553437 
L 277.805125 139.081025 
L 277.734855 144.679127 
L 277.664739 142.718724 
L 277.62974 141.306934 
L 277.559856 142.126519 
L 277.490125 141.049379 
L 277.420547 133.003643 
L 277.351122 136.356645 
L 277.281847 140.56052 
L 277.14375 145.123192 
L 277.074927 144.694337 
L 277.006251 140.827196 
L 276.971969 133.396066 
L 276.903516 138.717156 
L 276.801112 142.208391 
L 276.767051 140.718714 
L 276.699038 138.380535 
L 276.665086 139.232503 
L 276.563446 143.619244 
L 276.529639 142.113544 
L 276.495867 141.596221 
L 276.428431 144.579766 
L 276.394767 142.029597 
L 276.327545 127.530362 
L 276.260466 132.816968 
L 276.193527 137.153822 
L 276.12673 121.004626 
L 276.093383 124.999305 
L 275.960348 144.680957 
L 275.927176 142.403926 
L 275.894038 141.339569 
L 275.860935 128.755349 
L 275.794833 134.395316 
L 275.761833 144.118614 
L 275.695936 137.605218 
L 275.564551 143.417043 
L 275.433708 121.983178 
L 275.401081 126.555116 
L 275.335928 137.763333 
L 275.270908 134.586277 
L 275.238448 134.934374 
L 275.141266 145.126741 
L 275.012151 144.818891 
L 274.979954 144.366963 
L 274.819457 137.887441 
L 274.755485 143.326345 
L 274.691641 141.191356 
L 274.627926 136.013324 
L 274.596116 139.928528 
L 274.532591 144.600204 
L 274.469193 144.181745 
L 274.342776 139.525526 
L 274.21686 128.896467 
L 274.091442 143.502935 
L 274.028918 142.475165 
L 273.935362 144.747646 
L 273.904238 144.070243 
L 273.84208 139.471782 
L 273.780045 142.462369 
L 273.71813 144.005702 
L 273.687218 142.811253 
L 273.594662 132.372034 
L 273.533107 136.758018 
L 273.502374 140.44063 
L 273.440998 135.197941 
L 273.410354 135.080252 
L 273.3186 145.133738 
L 273.257577 141.608796 
L 273.196672 143.798967 
L 273.166263 144.904445 
L 273.07521 132.139221 
L 273.044917 134.471065 
L 272.954211 145.013593 
L 272.893884 142.867799 
L 272.863763 142.980913 
L 272.833671 142.685332 
L 272.743565 139.678083 
L 272.713587 140.216369 
L 272.683636 141.546658 
L 272.683636 141.546658 
" style="fill:none;stroke:#1f77b4;stroke-linecap:square;stroke-width:1.5;"/>
   </g>
   <g id="patch_3">
    <path d="M 265.92 150.089143 
L 265.92 41.472 
" style="fill:none;stroke:#000000;stroke-linecap:square;stroke-linejoin:miter;stroke-width:0.8;"/>
   </g>
   <g id="patch_4">
    <path d="M 414.72 150.089143 
L 414.72 41.472 
" style="fill:none;stroke:#000000;stroke-linecap:square;stroke-linejoin:miter;stroke-width:0.8;"/>
   </g>
   <g id="patch_5">
    <path d="M 265.92 150.089143 
L 414.72 150.089143 
" style="fill:none;stroke:#000000;stroke-linecap:square;stroke-linejoin:miter;stroke-width:0.8;"/>
   </g>
   <g id="patch_6">
    <path d="M 265.92 41.472 
L 414.72 41.472 
" style="fill:none;stroke:#000000;stroke-linecap:square;stroke-linejoin:miter;stroke-width:0.8;"/>
   </g>
   <g id="text_8">
    <!-- Periodogram -->
    <g transform="translate(307.698125 35.472)scale(0.1 -0.1)">
     <defs>
      <path d="M 52.484375 46.6875 
L 52.484375 1.125 
Q 52.484375 -10.0625 46.328125 -16.140625 
Q 40.1875 -22.21875 28.8125 -22.21875 
Q 23.6875 -22.21875 19 -21.28125 
Q 14.3125 -20.359375 10.015625 -18.5 
L 10.015625 -7.625 
L 14.703125 -7.625 
Q 15.578125 -12.703125 18.84375 -15.046875 
Q 22.125 -17.390625 28.21875 -17.390625 
Q 36.140625 -17.390625 39.8125 -12.921875 
Q 43.5 -8.453125 43.5 1.125 
L 43.5 8.109375 
Q 40.875 3.21875 36.796875 0.890625 
Q 32.71875 -1.421875 26.703125 -1.421875 
Q 17.140625 -1.421875 11.0625 6.171875 
Q 4.984375 13.765625 4.984375 25.984375 
Q 4.984375 38.1875 11.03125 45.75 
Q 17.09375 53.328125 26.703125 53.328125 
Q 32.71875 53.328125 36.796875 51 
Q 40.875 48.6875 43.5 43.796875 
L 43.5 51.90625 
L 61.078125 51.90625 
L 61.078125 46.6875 
z
M 43.5 28.515625 
Q 43.5 37.84375 39.90625 42.765625 
Q 36.328125 47.703125 29.5 47.703125 
Q 22.5625 47.703125 19.015625 42.234375 
Q 15.484375 36.765625 15.484375 25.984375 
Q 15.484375 15.234375 19.015625 9.71875 
Q 22.5625 4.203125 29.5 4.203125 
Q 36.328125 4.203125 39.90625 9.109375 
Q 43.5 14.015625 43.5 23.390625 
z
" id="DejaVuSerif-103"/>
      <path d="M 39.796875 16.3125 
L 39.796875 27.296875 
L 28.21875 27.296875 
Q 21.53125 27.296875 18.25 24.40625 
Q 14.984375 21.53125 14.984375 15.578125 
Q 14.984375 10.15625 18.296875 6.984375 
Q 21.625 3.8125 27.296875 3.8125 
Q 32.90625 3.8125 36.34375 7.28125 
Q 39.796875 10.75 39.796875 16.3125 
z
M 48.78125 32.421875 
L 48.78125 5.171875 
L 56.78125 5.171875 
L 56.78125 0 
L 39.796875 0 
L 39.796875 5.609375 
Q 36.8125 2 32.90625 0.28125 
Q 29 -1.421875 23.78125 -1.421875 
Q 15.140625 -1.421875 10.0625 3.171875 
Q 4.984375 7.765625 4.984375 15.578125 
Q 4.984375 23.640625 10.796875 28.078125 
Q 16.609375 32.515625 27.203125 32.515625 
L 39.796875 32.515625 
L 39.796875 36.078125 
Q 39.796875 42 36.203125 45.234375 
Q 32.625 48.484375 26.125 48.484375 
Q 20.75 48.484375 17.578125 46.046875 
Q 14.40625 43.609375 13.625 38.8125 
L 8.984375 38.8125 
L 8.984375 49.3125 
Q 13.671875 51.3125 18.09375 52.3125 
Q 22.515625 53.328125 26.703125 53.328125 
Q 37.5 53.328125 43.140625 47.96875 
Q 48.78125 42.625 48.78125 32.421875 
z
" id="DejaVuSerif-97"/>
      <path d="M 51.8125 41.796875 
Q 54.390625 47.515625 58.421875 50.421875 
Q 62.453125 53.328125 67.828125 53.328125 
Q 75.984375 53.328125 79.984375 48.265625 
Q 83.984375 43.21875 83.984375 33.015625 
L 83.984375 5.171875 
L 92.09375 5.171875 
L 92.09375 0 
L 67.1875 0 
L 67.1875 5.171875 
L 75 5.171875 
L 75 31.984375 
Q 75 39.9375 72.65625 43.3125 
Q 70.3125 46.6875 64.890625 46.6875 
Q 58.890625 46.6875 55.734375 42.140625 
Q 52.59375 37.59375 52.59375 28.90625 
L 52.59375 5.171875 
L 60.40625 5.171875 
L 60.40625 0 
L 35.796875 0 
L 35.796875 5.171875 
L 43.609375 5.171875 
L 43.609375 32.328125 
Q 43.609375 40.09375 41.265625 43.390625 
Q 38.921875 46.6875 33.5 46.6875 
Q 27.484375 46.6875 24.328125 42.140625 
Q 21.1875 37.59375 21.1875 28.90625 
L 21.1875 5.171875 
L 29 5.171875 
L 29 0 
L 4.109375 0 
L 4.109375 5.171875 
L 12.203125 5.171875 
L 12.203125 46.78125 
L 3.609375 46.78125 
L 3.609375 51.90625 
L 21.1875 51.90625 
L 21.1875 42.671875 
Q 23.6875 47.859375 27.53125 50.59375 
Q 31.390625 53.328125 36.28125 53.328125 
Q 42.328125 53.328125 46.375 50.3125 
Q 50.4375 47.3125 51.8125 41.796875 
z
" id="DejaVuSerif-109"/>
     </defs>
     <use xlink:href="#DejaVuSerif-80"/>
     <use x="62.785156" xlink:href="#DejaVuSerif-101"/>
     <use x="121.964844" xlink:href="#DejaVuSerif-114"/>
     <use x="169.767578" xlink:href="#DejaVuSerif-105"/>
     <use x="201.75" xlink:href="#DejaVuSerif-111"/>
     <use x="261.955078" xlink:href="#DejaVuSerif-100"/>
     <use x="325.96875" xlink:href="#DejaVuSerif-111"/>
     <use x="386.173828" xlink:href="#DejaVuSerif-103"/>
     <use x="450.1875" xlink:href="#DejaVuSerif-114"/>
     <use x="497.990234" xlink:href="#DejaVuSerif-97"/>
     <use x="557.609375" xlink:href="#DejaVuSerif-109"/>
    </g>
   </g>
   <g id="legend_1">
    <g id="patch_7">
     <path d="M 419.648125 108.123071 
L 454.431875 108.123071 
Q 455.231875 108.123071 455.231875 107.323071 
L 455.231875 84.238071 
Q 455.231875 83.438071 454.431875 83.438071 
L 419.648125 83.438071 
Q 418.848125 83.438071 418.848125 84.238071 
L 418.848125 107.323071 
Q 418.848125 108.123071 419.648125 108.123071 
z
" style="fill:#ffffff;opacity:0.8;stroke:#cccccc;stroke-linejoin:miter;"/>
    </g>
    <g id="line2d_23">
     <path d="M 420.448125 86.677446 
L 428.448125 86.677446 
" style="fill:none;stroke:#808080;stroke-dasharray:5.55,2.4;stroke-dashoffset:0;stroke-width:1.5;"/>
    </g>
    <g id="text_9">
     <!-- 99.9% FAP -->
     <g transform="translate(431.648125 88.077446)scale(0.04 -0.04)">
      <defs>
       <path d="M 46.78125 32.671875 
Q 43.5 29 39.25 27.1875 
Q 35.015625 25.390625 29.6875 25.390625 
Q 18.84375 25.390625 12.5625 31.9375 
Q 6.296875 38.484375 6.296875 49.8125 
Q 6.296875 60.890625 13.109375 67.546875 
Q 19.921875 74.21875 31.296875 74.21875 
Q 43.65625 74.21875 50.265625 65.015625 
Q 56.890625 55.8125 56.890625 38.71875 
Q 56.890625 19.578125 49.015625 9.078125 
Q 41.15625 -1.421875 26.90625 -1.421875 
Q 23.046875 -1.421875 18.796875 -0.6875 
Q 14.546875 0.046875 10.109375 1.515625 
L 10.109375 13.625 
L 15.578125 13.625 
Q 16.21875 8.6875 19.390625 6.046875 
Q 22.5625 3.421875 27.875 3.421875 
Q 37.359375 3.421875 41.984375 10.5625 
Q 46.625 17.71875 46.78125 32.671875 
z
M 30.90625 69.390625 
Q 23.96875 69.390625 20.28125 64.328125 
Q 16.609375 59.28125 16.609375 49.8125 
Q 16.609375 40.328125 20.28125 35.25 
Q 23.96875 30.171875 30.90625 30.171875 
Q 37.84375 30.171875 41.53125 35.078125 
Q 45.21875 39.984375 45.21875 49.21875 
Q 45.21875 58.9375 41.5 64.15625 
Q 37.796875 69.390625 30.90625 69.390625 
z
" id="DejaVuSerif-57"/>
       <path d="M 22.40625 69.671875 
Q 18.109375 69.671875 15.6875 65.625 
Q 13.28125 61.578125 13.28125 54.296875 
Q 13.28125 47.125 15.75 43.015625 
Q 18.21875 38.921875 22.40625 38.921875 
Q 26.5625 38.921875 28.96875 43 
Q 31.390625 47.078125 31.390625 54.296875 
Q 31.390625 61.53125 28.96875 65.59375 
Q 26.5625 69.671875 22.40625 69.671875 
z
M 72.703125 33.890625 
Q 68.453125 33.890625 66.03125 29.78125 
Q 63.625 25.6875 63.625 18.40625 
Q 63.625 11.234375 66.0625 7.15625 
Q 68.5 3.078125 72.703125 3.078125 
Q 76.90625 3.078125 79.296875 7.15625 
Q 81.6875 11.234375 81.6875 18.40625 
Q 81.6875 25.640625 79.265625 29.765625 
Q 76.859375 33.890625 72.703125 33.890625 
z
M 72.703125 38.28125 
Q 80.421875 38.28125 84.953125 32.90625 
Q 89.5 27.546875 89.5 18.40625 
Q 89.5 9.28125 84.9375 3.921875 
Q 80.375 -1.421875 72.703125 -1.421875 
Q 64.890625 -1.421875 60.34375 3.921875 
Q 55.8125 9.28125 55.8125 18.40625 
Q 55.8125 27.59375 60.375 32.9375 
Q 64.9375 38.28125 72.703125 38.28125 
z
M 66.609375 74.21875 
L 74.03125 74.21875 
L 28.421875 -1.421875 
L 21 -1.421875 
z
M 22.3125 74.21875 
Q 30.03125 74.21875 34.609375 68.875 
Q 39.203125 63.53125 39.203125 54.390625 
Q 39.203125 45.171875 34.640625 39.84375 
Q 30.078125 34.515625 22.3125 34.515625 
Q 14.546875 34.515625 10.03125 39.859375 
Q 5.515625 45.21875 5.515625 54.390625 
Q 5.515625 63.484375 10.046875 68.84375 
Q 14.59375 74.21875 22.3125 74.21875 
z
" id="DejaVuSerif-37"/>
       <path d="M 5.515625 0 
L 5.515625 5.171875 
L 14.796875 5.171875 
L 14.796875 67.671875 
L 5.515625 67.671875 
L 5.515625 72.90625 
L 65.1875 72.90625 
L 65.1875 56.6875 
L 59.1875 56.6875 
L 59.1875 66.890625 
L 24.703125 66.890625 
L 24.703125 42.484375 
L 49.609375 42.484375 
L 49.609375 51.609375 
L 55.609375 51.609375 
L 55.609375 27.390625 
L 49.609375 27.390625 
L 49.609375 36.53125 
L 24.703125 36.53125 
L 24.703125 5.171875 
L 36.375 5.171875 
L 36.375 0 
z
" id="DejaVuSerif-70"/>
       <path d="M 20.015625 26.421875 
L 46.78125 26.421875 
L 33.40625 61.078125 
z
M -0.59375 0 
L -0.59375 5.171875 
L 5.8125 5.171875 
L 31.78125 72.90625 
L 39.984375 72.90625 
L 66.015625 5.171875 
L 73.1875 5.171875 
L 73.1875 0 
L 46.6875 0 
L 46.6875 5.171875 
L 54.78125 5.171875 
L 48.6875 21.1875 
L 18.015625 21.1875 
L 11.921875 5.171875 
L 19.921875 5.171875 
L 19.921875 0 
z
" id="DejaVuSerif-65"/>
      </defs>
      <use xlink:href="#DejaVuSerif-57"/>
      <use x="63.623047" xlink:href="#DejaVuSerif-57"/>
      <use x="127.246094" xlink:href="#DejaVuSerif-46"/>
      <use x="159.033203" xlink:href="#DejaVuSerif-57"/>
      <use x="222.65625" xlink:href="#DejaVuSerif-37"/>
      <use x="317.675781" xlink:href="#DejaVuSerif-32"/>
      <use x="349.462891" xlink:href="#DejaVuSerif-70"/>
      <use x="410.097656" xlink:href="#DejaVuSerif-65"/>
      <use x="482.314453" xlink:href="#DejaVuSerif-80"/>
     </g>
    </g>
    <g id="line2d_24">
     <path d="M 420.448125 92.548696 
L 428.448125 92.548696 
" style="fill:none;stroke:#a9a9a9;stroke-dasharray:5.55,2.4;stroke-dashoffset:0;stroke-width:1.5;"/>
    </g>
    <g id="text_10">
     <!-- 99.0% FAP -->
     <g transform="translate(431.648125 93.948696)scale(0.04 -0.04)">
      <use xlink:href="#DejaVuSerif-57"/>
      <use x="63.623047" xlink:href="#DejaVuSerif-57"/>
      <use x="127.246094" xlink:href="#DejaVuSerif-46"/>
      <use x="159.033203" xlink:href="#DejaVuSerif-48"/>
      <use x="222.65625" xlink:href="#DejaVuSerif-37"/>
      <use x="317.675781" xlink:href="#DejaVuSerif-32"/>
      <use x="349.462891" xlink:href="#DejaVuSerif-70"/>
      <use x="410.097656" xlink:href="#DejaVuSerif-65"/>
      <use x="482.314453" xlink:href="#DejaVuSerif-80"/>
     </g>
    </g>
    <g id="line2d_25">
     <path d="M 420.448125 98.419946 
L 428.448125 98.419946 
" style="fill:none;stroke:#c0c0c0;stroke-dasharray:5.55,2.4;stroke-dashoffset:0;stroke-width:1.5;"/>
    </g>
    <g id="text_11">
     <!-- 95.0% FAP -->
     <g transform="translate(431.648125 99.819946)scale(0.04 -0.04)">
      <defs>
       <path d="M 50.296875 72.90625 
L 50.296875 64.890625 
L 16.890625 64.890625 
L 16.890625 44 
Q 19.4375 45.75 22.828125 46.625 
Q 26.21875 47.515625 30.421875 47.515625 
Q 42.234375 47.515625 49.0625 40.96875 
Q 55.90625 34.421875 55.90625 23.09375 
Q 55.90625 11.53125 49 5.046875 
Q 42.09375 -1.421875 29.59375 -1.421875 
Q 24.5625 -1.421875 19.28125 -0.1875 
Q 14.015625 1.03125 8.5 3.515625 
L 8.5 17.671875 
L 14.015625 17.671875 
Q 14.453125 10.75 18.421875 7.078125 
Q 22.40625 3.421875 29.59375 3.421875 
Q 37.3125 3.421875 41.453125 8.5 
Q 45.609375 13.578125 45.609375 23.09375 
Q 45.609375 32.5625 41.484375 37.609375 
Q 37.359375 42.671875 29.59375 42.671875 
Q 25.203125 42.671875 21.84375 41.109375 
Q 18.5 39.546875 15.921875 36.28125 
L 11.71875 36.28125 
L 11.71875 72.90625 
z
" id="DejaVuSerif-53"/>
      </defs>
      <use xlink:href="#DejaVuSerif-57"/>
      <use x="63.623047" xlink:href="#DejaVuSerif-53"/>
      <use x="127.246094" xlink:href="#DejaVuSerif-46"/>
      <use x="159.033203" xlink:href="#DejaVuSerif-48"/>
      <use x="222.65625" xlink:href="#DejaVuSerif-37"/>
      <use x="317.675781" xlink:href="#DejaVuSerif-32"/>
      <use x="349.462891" xlink:href="#DejaVuSerif-70"/>
      <use x="410.097656" xlink:href="#DejaVuSerif-65"/>
      <use x="482.314453" xlink:href="#DejaVuSerif-80"/>
     </g>
    </g>
    <g id="line2d_26">
     <path d="M 420.448125 104.291196 
L 428.448125 104.291196 
" style="fill:none;stroke:#d3d3d3;stroke-dasharray:5.55,2.4;stroke-dashoffset:0;stroke-width:1.5;"/>
    </g>
    <g id="text_12">
     <!-- 90.0% FAP -->
     <g transform="translate(431.648125 105.691196)scale(0.04 -0.04)">
      <use xlink:href="#DejaVuSerif-57"/>
      <use x="63.623047" xlink:href="#DejaVuSerif-48"/>
      <use x="127.246094" xlink:href="#DejaVuSerif-46"/>
      <use x="159.033203" xlink:href="#DejaVuSerif-48"/>
      <use x="222.65625" xlink:href="#DejaVuSerif-37"/>
      <use x="317.675781" xlink:href="#DejaVuSerif-32"/>
      <use x="349.462891" xlink:href="#DejaVuSerif-70"/>
      <use x="410.097656" xlink:href="#DejaVuSerif-65"/>
      <use x="482.314453" xlink:href="#DejaVuSerif-80"/>
     </g>
    </g>
   </g>
  </g>
  <g id="axes_2">
   <g id="patch_8">
    <path d="M 57.6 150.089143 
L 206.4 150.089143 
L 206.4 41.472 
L 57.6 41.472 
z
" style="fill:#ffffff;"/>
   </g>
   <g id="PathCollection_1">
    <defs>
     <path d="M 0 0.707107 
C 0.187527 0.707107 0.367398 0.632602 0.5 0.5 
C 0.632602 0.367398 0.707107 0.187527 0.707107 0 
C 0.707107 -0.187527 0.632602 -0.367398 0.5 -0.5 
C 0.367398 -0.632602 0.187527 -0.707107 0 -0.707107 
C -0.187527 -0.707107 -0.367398 -0.632602 -0.5 -0.5 
C -0.632602 -0.367398 -0.707107 -0.187527 -0.707107 0 
C -0.707107 0.187527 -0.632602 0.367398 -0.5 0.5 
C -0.367398 0.632602 -0.187527 0.707107 0 0.707107 
z
" id="m0a2ff25fd2" style="stroke:#1f77b4;"/>
    </defs>
    <g clip-path="url(#p5a9c7cd468)">
     <use style="fill:#1f77b4;stroke:#1f77b4;" x="67.269394" xlink:href="#m0a2ff25fd2" y="109.684059"/>
     <use style="fill:#1f77b4;stroke:#1f77b4;" x="67.270026" xlink:href="#m0a2ff25fd2" y="114.141527"/>
     <use style="fill:#1f77b4;stroke:#1f77b4;" x="101.3188" xlink:href="#m0a2ff25fd2" y="99.147202"/>
     <use style="fill:#1f77b4;stroke:#1f77b4;" x="101.319432" xlink:href="#m0a2ff25fd2" y="100.453886"/>
     <use style="fill:#1f77b4;stroke:#1f77b4;" x="104.170292" xlink:href="#m0a2ff25fd2" y="89.875074"/>
     <use style="fill:#1f77b4;stroke:#1f77b4;" x="108.224578" xlink:href="#m0a2ff25fd2" y="87.805581"/>
     <use style="fill:#1f77b4;stroke:#1f77b4;" x="108.228973" xlink:href="#m0a2ff25fd2" y="99.912169"/>
     <use style="fill:#1f77b4;stroke:#1f77b4;" x="109.57578" xlink:href="#m0a2ff25fd2" y="89.561444"/>
     <use style="fill:#1f77b4;stroke:#1f77b4;" x="72.825422" xlink:href="#m0a2ff25fd2" y="128.607039"/>
     <use style="fill:#1f77b4;stroke:#1f77b4;" x="74.189967" xlink:href="#m0a2ff25fd2" y="112.745549"/>
     <use style="fill:#1f77b4;stroke:#1f77b4;" x="74.190584" xlink:href="#m0a2ff25fd2" y="120.614689"/>
     <use style="fill:#1f77b4;stroke:#1f77b4;" x="76.950505" xlink:href="#m0a2ff25fd2" y="116.200528"/>
     <use style="fill:#1f77b4;stroke:#1f77b4;" x="76.951137" xlink:href="#m0a2ff25fd2" y="115.229798"/>
     <use style="fill:#1f77b4;stroke:#1f77b4;" x="79.639154" xlink:href="#m0a2ff25fd2" y="129.863153"/>
     <use style="fill:#1f77b4;stroke:#1f77b4;" x="79.639787" xlink:href="#m0a2ff25fd2" y="129.573736"/>
     <use style="fill:#1f77b4;stroke:#1f77b4;" x="80.991732" xlink:href="#m0a2ff25fd2" y="103.822011"/>
     <use style="fill:#1f77b4;stroke:#1f77b4;" x="80.992364" xlink:href="#m0a2ff25fd2" y="96.936758"/>
     <use style="fill:#1f77b4;stroke:#1f77b4;" x="82.430679" xlink:href="#m0a2ff25fd2" y="68.547452"/>
     <use style="fill:#1f77b4;stroke:#1f77b4;" x="82.431296" xlink:href="#m0a2ff25fd2" y="77.335694"/>
     <use style="fill:#1f77b4;stroke:#1f77b4;" x="83.737771" xlink:href="#m0a2ff25fd2" y="89.136464"/>
     <use style="fill:#1f77b4;stroke:#1f77b4;" x="83.738404" xlink:href="#m0a2ff25fd2" y="83.938779"/>
     <use style="fill:#1f77b4;stroke:#1f77b4;" x="85.102459" xlink:href="#m0a2ff25fd2" y="104.598273"/>
     <use style="fill:#1f77b4;stroke:#1f77b4;" x="85.103076" xlink:href="#m0a2ff25fd2" y="111.170954"/>
     <use style="fill:#1f77b4;stroke:#1f77b4;" x="97.406311" xlink:href="#m0a2ff25fd2" y="72.46536"/>
     <use style="fill:#1f77b4;stroke:#1f77b4;" x="106.890084" xlink:href="#m0a2ff25fd2" y="46.409143"/>
     <use style="fill:#1f77b4;stroke:#1f77b4;" x="108.249855" xlink:href="#m0a2ff25fd2" y="79.276351"/>
     <use style="fill:#1f77b4;stroke:#1f77b4;" x="109.616156" xlink:href="#m0a2ff25fd2" y="125.494993"/>
     <use style="fill:#1f77b4;stroke:#1f77b4;" x="110.979626" xlink:href="#m0a2ff25fd2" y="82.178868"/>
     <use style="fill:#1f77b4;stroke:#1f77b4;" x="112.351366" xlink:href="#m0a2ff25fd2" y="120.151788"/>
     <use style="fill:#1f77b4;stroke:#1f77b4;" x="128.763684" xlink:href="#m0a2ff25fd2" y="113.454559"/>
     <use style="fill:#1f77b4;stroke:#1f77b4;" x="69.910354" xlink:href="#m0a2ff25fd2" y="103.22569"/>
     <use style="fill:#1f77b4;stroke:#1f77b4;" x="71.47564" xlink:href="#m0a2ff25fd2" y="93.21226"/>
     <use style="fill:#1f77b4;stroke:#1f77b4;" x="72.866825" xlink:href="#m0a2ff25fd2" y="105.477284"/>
     <use style="fill:#1f77b4;stroke:#1f77b4;" x="82.400574" xlink:href="#m0a2ff25fd2" y="114.81397"/>
     <use style="fill:#1f77b4;stroke:#1f77b4;" x="86.524677" xlink:href="#m0a2ff25fd2" y="115.824243"/>
     <use style="fill:#1f77b4;stroke:#1f77b4;" x="70.01163" xlink:href="#m0a2ff25fd2" y="145.152"/>
     <use style="fill:#1f77b4;stroke:#1f77b4;" x="75.475536" xlink:href="#m0a2ff25fd2" y="132.000971"/>
     <use style="fill:#1f77b4;stroke:#1f77b4;" x="89.125214" xlink:href="#m0a2ff25fd2" y="97.5347"/>
     <use style="fill:#1f77b4;stroke:#1f77b4;" x="81.83488" xlink:href="#m0a2ff25fd2" y="88.535575"/>
     <use style="fill:#1f77b4;stroke:#1f77b4;" x="64.363636" xlink:href="#m0a2ff25fd2" y="145.102248"/>
     <use style="fill:#1f77b4;stroke:#1f77b4;" x="92.979665" xlink:href="#m0a2ff25fd2" y="92.09467"/>
     <use style="fill:#1f77b4;stroke:#1f77b4;" x="92.980282" xlink:href="#m0a2ff25fd2" y="90.92032"/>
     <use style="fill:#1f77b4;stroke:#1f77b4;" x="94.310773" xlink:href="#m0a2ff25fd2" y="90.954743"/>
     <use style="fill:#1f77b4;stroke:#1f77b4;" x="94.311389" xlink:href="#m0a2ff25fd2" y="98.946557"/>
     <use style="fill:#1f77b4;stroke:#1f77b4;" x="95.617849" xlink:href="#m0a2ff25fd2" y="89.95657"/>
     <use style="fill:#1f77b4;stroke:#1f77b4;" x="95.618466" xlink:href="#m0a2ff25fd2" y="92.833266"/>
    </g>
   </g>
   <g id="PathCollection_2">
    <g clip-path="url(#p5a9c7cd468)">
     <use style="fill:#1f77b4;stroke:#1f77b4;" x="138.142074" xlink:href="#m0a2ff25fd2" y="109.684059"/>
     <use style="fill:#1f77b4;stroke:#1f77b4;" x="138.142706" xlink:href="#m0a2ff25fd2" y="114.141527"/>
     <use style="fill:#1f77b4;stroke:#1f77b4;" x="172.191479" xlink:href="#m0a2ff25fd2" y="99.147202"/>
     <use style="fill:#1f77b4;stroke:#1f77b4;" x="172.192112" xlink:href="#m0a2ff25fd2" y="100.453886"/>
     <use style="fill:#1f77b4;stroke:#1f77b4;" x="175.042972" xlink:href="#m0a2ff25fd2" y="89.875074"/>
     <use style="fill:#1f77b4;stroke:#1f77b4;" x="179.097258" xlink:href="#m0a2ff25fd2" y="87.805581"/>
     <use style="fill:#1f77b4;stroke:#1f77b4;" x="179.101653" xlink:href="#m0a2ff25fd2" y="99.912169"/>
     <use style="fill:#1f77b4;stroke:#1f77b4;" x="180.44846" xlink:href="#m0a2ff25fd2" y="89.561444"/>
     <use style="fill:#1f77b4;stroke:#1f77b4;" x="143.698101" xlink:href="#m0a2ff25fd2" y="128.607039"/>
     <use style="fill:#1f77b4;stroke:#1f77b4;" x="145.062647" xlink:href="#m0a2ff25fd2" y="112.745549"/>
     <use style="fill:#1f77b4;stroke:#1f77b4;" x="145.063264" xlink:href="#m0a2ff25fd2" y="120.614689"/>
     <use style="fill:#1f77b4;stroke:#1f77b4;" x="147.823185" xlink:href="#m0a2ff25fd2" y="116.200528"/>
     <use style="fill:#1f77b4;stroke:#1f77b4;" x="147.823817" xlink:href="#m0a2ff25fd2" y="115.229798"/>
     <use style="fill:#1f77b4;stroke:#1f77b4;" x="150.511834" xlink:href="#m0a2ff25fd2" y="129.863153"/>
     <use style="fill:#1f77b4;stroke:#1f77b4;" x="150.512466" xlink:href="#m0a2ff25fd2" y="129.573736"/>
     <use style="fill:#1f77b4;stroke:#1f77b4;" x="151.864412" xlink:href="#m0a2ff25fd2" y="103.822011"/>
     <use style="fill:#1f77b4;stroke:#1f77b4;" x="151.865044" xlink:href="#m0a2ff25fd2" y="96.936758"/>
     <use style="fill:#1f77b4;stroke:#1f77b4;" x="153.303359" xlink:href="#m0a2ff25fd2" y="68.547452"/>
     <use style="fill:#1f77b4;stroke:#1f77b4;" x="153.303976" xlink:href="#m0a2ff25fd2" y="77.335694"/>
     <use style="fill:#1f77b4;stroke:#1f77b4;" x="154.610451" xlink:href="#m0a2ff25fd2" y="89.136464"/>
     <use style="fill:#1f77b4;stroke:#1f77b4;" x="154.611084" xlink:href="#m0a2ff25fd2" y="83.938779"/>
     <use style="fill:#1f77b4;stroke:#1f77b4;" x="155.975139" xlink:href="#m0a2ff25fd2" y="104.598273"/>
     <use style="fill:#1f77b4;stroke:#1f77b4;" x="155.975756" xlink:href="#m0a2ff25fd2" y="111.170954"/>
     <use style="fill:#1f77b4;stroke:#1f77b4;" x="168.27899" xlink:href="#m0a2ff25fd2" y="72.46536"/>
     <use style="fill:#1f77b4;stroke:#1f77b4;" x="177.762764" xlink:href="#m0a2ff25fd2" y="46.409143"/>
     <use style="fill:#1f77b4;stroke:#1f77b4;" x="179.122535" xlink:href="#m0a2ff25fd2" y="79.276351"/>
     <use style="fill:#1f77b4;stroke:#1f77b4;" x="180.488836" xlink:href="#m0a2ff25fd2" y="125.494993"/>
     <use style="fill:#1f77b4;stroke:#1f77b4;" x="181.852306" xlink:href="#m0a2ff25fd2" y="82.178868"/>
     <use style="fill:#1f77b4;stroke:#1f77b4;" x="183.224045" xlink:href="#m0a2ff25fd2" y="120.151788"/>
     <use style="fill:#1f77b4;stroke:#1f77b4;" x="199.636364" xlink:href="#m0a2ff25fd2" y="113.454559"/>
     <use style="fill:#1f77b4;stroke:#1f77b4;" x="140.783034" xlink:href="#m0a2ff25fd2" y="103.22569"/>
     <use style="fill:#1f77b4;stroke:#1f77b4;" x="142.348319" xlink:href="#m0a2ff25fd2" y="93.21226"/>
     <use style="fill:#1f77b4;stroke:#1f77b4;" x="143.739505" xlink:href="#m0a2ff25fd2" y="105.477284"/>
     <use style="fill:#1f77b4;stroke:#1f77b4;" x="153.273254" xlink:href="#m0a2ff25fd2" y="114.81397"/>
     <use style="fill:#1f77b4;stroke:#1f77b4;" x="157.397357" xlink:href="#m0a2ff25fd2" y="115.824243"/>
     <use style="fill:#1f77b4;stroke:#1f77b4;" x="140.88431" xlink:href="#m0a2ff25fd2" y="145.152"/>
     <use style="fill:#1f77b4;stroke:#1f77b4;" x="146.348216" xlink:href="#m0a2ff25fd2" y="132.000971"/>
     <use style="fill:#1f77b4;stroke:#1f77b4;" x="159.997894" xlink:href="#m0a2ff25fd2" y="97.5347"/>
     <use style="fill:#1f77b4;stroke:#1f77b4;" x="152.70756" xlink:href="#m0a2ff25fd2" y="88.535575"/>
     <use style="fill:#1f77b4;stroke:#1f77b4;" x="135.236316" xlink:href="#m0a2ff25fd2" y="145.102248"/>
     <use style="fill:#1f77b4;stroke:#1f77b4;" x="163.852345" xlink:href="#m0a2ff25fd2" y="92.09467"/>
     <use style="fill:#1f77b4;stroke:#1f77b4;" x="163.852962" xlink:href="#m0a2ff25fd2" y="90.92032"/>
     <use style="fill:#1f77b4;stroke:#1f77b4;" x="165.183453" xlink:href="#m0a2ff25fd2" y="90.954743"/>
     <use style="fill:#1f77b4;stroke:#1f77b4;" x="165.184069" xlink:href="#m0a2ff25fd2" y="98.946557"/>
     <use style="fill:#1f77b4;stroke:#1f77b4;" x="166.490529" xlink:href="#m0a2ff25fd2" y="89.95657"/>
     <use style="fill:#1f77b4;stroke:#1f77b4;" x="166.491146" xlink:href="#m0a2ff25fd2" y="92.833266"/>
    </g>
   </g>
   <g id="matplotlib.axis_3">
    <g id="xtick_19">
     <g id="line2d_27">
      <g>
       <use style="stroke:#000000;stroke-width:0.8;" x="59.434017" xlink:href="#m72e494c848" y="150.089143"/>
      </g>
     </g>
     <g id="text_13">
      <!-- 0 -->
      <g transform="translate(56.252767 164.68758)scale(0.1 -0.1)">
       <use xlink:href="#DejaVuSerif-48"/>
      </g>
     </g>
    </g>
    <g id="xtick_20">
     <g id="line2d_28">
      <g>
       <use style="stroke:#000000;stroke-width:0.8;" x="130.306696" xlink:href="#m72e494c848" y="150.089143"/>
      </g>
     </g>
     <g id="text_14">
      <!-- 1 -->
      <g transform="translate(127.125446 164.68758)scale(0.1 -0.1)">
       <use xlink:href="#DejaVuSerif-49"/>
      </g>
     </g>
    </g>
    <g id="xtick_21">
     <g id="line2d_29">
      <g>
       <use style="stroke:#000000;stroke-width:0.8;" x="201.179376" xlink:href="#m72e494c848" y="150.089143"/>
      </g>
     </g>
     <g id="text_15">
      <!-- 2 -->
      <g transform="translate(197.998126 164.68758)scale(0.1 -0.1)">
       <use xlink:href="#DejaVuSerif-50"/>
      </g>
     </g>
    </g>
    <g id="text_16">
     <!-- Phase (P = 51.884 d) -->
     <g transform="translate(78.401562 178.365705)scale(0.1 -0.1)">
      <defs>
       <path d="M 4.109375 0 
L 4.109375 5.171875 
L 12.203125 5.171875 
L 12.203125 70.796875 
L 3.609375 70.796875 
L 3.609375 75.984375 
L 21.1875 75.984375 
L 21.1875 42.671875 
Q 23.6875 47.953125 27.65625 50.640625 
Q 31.640625 53.328125 36.921875 53.328125 
Q 45.515625 53.328125 49.5625 48.390625 
Q 53.609375 43.453125 53.609375 33.015625 
L 53.609375 5.171875 
L 61.625 5.171875 
L 61.625 0 
L 36.8125 0 
L 36.8125 5.171875 
L 44.578125 5.171875 
L 44.578125 30.171875 
Q 44.578125 39.703125 42.25 43.1875 
Q 39.9375 46.6875 33.984375 46.6875 
Q 27.734375 46.6875 24.453125 42.140625 
Q 21.1875 37.59375 21.1875 28.90625 
L 21.1875 5.171875 
L 29 5.171875 
L 29 0 
z
" id="DejaVuSerif-104"/>
       <path d="M 5.609375 2.875 
L 5.609375 14.984375 
L 10.796875 14.984375 
Q 10.984375 9.1875 14.421875 6.296875 
Q 17.875 3.421875 24.609375 3.421875 
Q 30.671875 3.421875 33.84375 5.6875 
Q 37.015625 7.953125 37.015625 12.3125 
Q 37.015625 15.71875 34.6875 17.8125 
Q 32.375 19.921875 24.90625 22.3125 
L 18.40625 24.515625 
Q 11.71875 26.65625 8.71875 29.875 
Q 5.71875 33.109375 5.71875 38.09375 
Q 5.71875 45.21875 10.9375 49.265625 
Q 16.15625 53.328125 25.390625 53.328125 
Q 29.5 53.328125 34.03125 52.25 
Q 38.578125 51.171875 43.40625 49.125 
L 43.40625 37.796875 
L 38.234375 37.796875 
Q 38.03125 42.828125 34.703125 45.65625 
Q 31.390625 48.484375 25.6875 48.484375 
Q 20.015625 48.484375 17.109375 46.484375 
Q 14.203125 44.484375 14.203125 40.484375 
Q 14.203125 37.203125 16.40625 35.21875 
Q 18.609375 33.25 25.203125 31.203125 
L 32.328125 29 
Q 39.703125 26.703125 42.9375 23.265625 
Q 46.1875 19.828125 46.1875 14.40625 
Q 46.1875 7.03125 40.546875 2.796875 
Q 34.90625 -1.421875 25 -1.421875 
Q 19.96875 -1.421875 15.1875 -0.34375 
Q 10.40625 0.734375 5.609375 2.875 
z
" id="DejaVuSerif-115"/>
       <path d="M 31.890625 -15.578125 
Q 20.015625 -10.25 13.953125 1.296875 
Q 7.90625 12.84375 7.90625 30.171875 
Q 7.90625 47.5625 13.953125 59.109375 
Q 20.015625 70.65625 31.890625 75.984375 
L 31.890625 71.1875 
Q 24.359375 66.015625 21.09375 56.609375 
Q 17.828125 47.21875 17.828125 30.171875 
Q 17.828125 13.1875 21.09375 3.78125 
Q 24.359375 -5.609375 31.890625 -10.796875 
z
" id="DejaVuSerif-40"/>
       <path d="M 10.59375 45.21875 
L 73.1875 45.21875 
L 73.1875 37.40625 
L 10.59375 37.40625 
z
M 10.59375 25.296875 
L 73.1875 25.296875 
L 73.1875 17.484375 
L 10.59375 17.484375 
z
" id="DejaVuSerif-61"/>
       <path d="M 46.578125 19.921875 
Q 46.578125 27.734375 42.6875 32.046875 
Q 38.8125 36.375 31.78125 36.375 
Q 24.75 36.375 20.875 32.046875 
Q 17 27.734375 17 19.921875 
Q 17 12.0625 20.875 7.734375 
Q 24.75 3.421875 31.78125 3.421875 
Q 38.8125 3.421875 42.6875 7.734375 
Q 46.578125 12.0625 46.578125 19.921875 
z
M 44.578125 55.328125 
Q 44.578125 61.96875 41.203125 65.671875 
Q 37.84375 69.390625 31.78125 69.390625 
Q 25.78125 69.390625 22.390625 65.671875 
Q 19 61.96875 19 55.328125 
Q 19 48.640625 22.390625 44.921875 
Q 25.78125 41.21875 31.78125 41.21875 
Q 37.84375 41.21875 41.203125 44.921875 
Q 44.578125 48.640625 44.578125 55.328125 
z
M 39.3125 38.8125 
Q 47.609375 37.703125 52.25 32.6875 
Q 56.890625 27.6875 56.890625 19.921875 
Q 56.890625 9.671875 50.390625 4.125 
Q 43.890625 -1.421875 31.78125 -1.421875 
Q 19.734375 -1.421875 13.203125 4.125 
Q 6.6875 9.671875 6.6875 19.921875 
Q 6.6875 27.6875 11.328125 32.6875 
Q 15.96875 37.703125 24.3125 38.8125 
Q 16.9375 40.140625 13 44.40625 
Q 9.078125 48.6875 9.078125 55.328125 
Q 9.078125 64.109375 15.125 69.15625 
Q 21.1875 74.21875 31.78125 74.21875 
Q 42.390625 74.21875 48.4375 69.15625 
Q 54.5 64.109375 54.5 55.328125 
Q 54.5 48.6875 50.5625 44.40625 
Q 46.625 40.140625 39.3125 38.8125 
z
" id="DejaVuSerif-56"/>
       <path d="M 7.078125 -15.578125 
L 7.078125 -10.796875 
Q 14.59375 -5.609375 17.890625 3.78125 
Q 21.1875 13.1875 21.1875 30.171875 
Q 21.1875 47.21875 17.890625 56.609375 
Q 14.59375 66.015625 7.078125 71.1875 
L 7.078125 75.984375 
Q 19 70.65625 25.046875 59.109375 
Q 31.109375 47.5625 31.109375 30.171875 
Q 31.109375 12.84375 25.046875 1.296875 
Q 19 -10.25 7.078125 -15.578125 
z
" id="DejaVuSerif-41"/>
      </defs>
      <use xlink:href="#DejaVuSerif-80"/>
      <use x="67.285156" xlink:href="#DejaVuSerif-104"/>
      <use x="131.689453" xlink:href="#DejaVuSerif-97"/>
      <use x="191.308594" xlink:href="#DejaVuSerif-115"/>
      <use x="242.626953" xlink:href="#DejaVuSerif-101"/>
      <use x="301.806641" xlink:href="#DejaVuSerif-32"/>
      <use x="333.59375" xlink:href="#DejaVuSerif-40"/>
      <use x="372.607422" xlink:href="#DejaVuSerif-80"/>
      <use x="439.892578" xlink:href="#DejaVuSerif-32"/>
      <use x="471.679688" xlink:href="#DejaVuSerif-61"/>
      <use x="555.46875" xlink:href="#DejaVuSerif-32"/>
      <use x="587.255859" xlink:href="#DejaVuSerif-53"/>
      <use x="650.878906" xlink:href="#DejaVuSerif-49"/>
      <use x="714.501953" xlink:href="#DejaVuSerif-46"/>
      <use x="746.289062" xlink:href="#DejaVuSerif-56"/>
      <use x="809.912109" xlink:href="#DejaVuSerif-56"/>
      <use x="873.535156" xlink:href="#DejaVuSerif-52"/>
      <use x="937.158203" xlink:href="#DejaVuSerif-32"/>
      <use x="968.945312" xlink:href="#DejaVuSerif-100"/>
      <use x="1032.958984" xlink:href="#DejaVuSerif-41"/>
     </g>
    </g>
   </g>
   <g id="matplotlib.axis_4">
    <g id="ytick_4">
     <g id="line2d_30">
      <g>
       <use style="stroke:#000000;stroke-width:0.8;" x="57.6" xlink:href="#m43e54763da" y="49.653311"/>
      </g>
     </g>
     <g id="text_17">
      <!-- 17.4 -->
      <g transform="translate(28.334375 53.452529)scale(0.1 -0.1)">
       <defs>
        <path d="M 56.390625 67.921875 
L 27.875 0 
L 20.609375 0 
L 47.796875 64.890625 
L 14.109375 64.890625 
L 14.109375 55.90625 
L 8.40625 55.90625 
L 8.40625 72.90625 
L 56.390625 72.90625 
z
" id="DejaVuSerif-55"/>
       </defs>
       <use xlink:href="#DejaVuSerif-49"/>
       <use x="63.623047" xlink:href="#DejaVuSerif-55"/>
       <use x="127.246094" xlink:href="#DejaVuSerif-46"/>
       <use x="159.033203" xlink:href="#DejaVuSerif-52"/>
      </g>
     </g>
    </g>
    <g id="ytick_5">
     <g id="line2d_31">
      <g>
       <use style="stroke:#000000;stroke-width:0.8;" x="57.6" xlink:href="#m43e54763da" y="77.857457"/>
      </g>
     </g>
     <g id="text_18">
      <!-- 17.6 -->
      <g transform="translate(28.334375 81.656676)scale(0.1 -0.1)">
       <defs>
        <path d="M 32.71875 3.421875 
Q 39.59375 3.421875 43.296875 8.46875 
Q 47.015625 13.53125 47.015625 23 
Q 47.015625 32.46875 43.296875 37.515625 
Q 39.59375 42.578125 32.71875 42.578125 
Q 25.734375 42.578125 22.0625 37.6875 
Q 18.40625 32.8125 18.40625 23.578125 
Q 18.40625 13.875 22.109375 8.640625 
Q 25.828125 3.421875 32.71875 3.421875 
z
M 16.796875 40.140625 
Q 20.125 43.796875 24.3125 45.59375 
Q 28.515625 47.40625 33.796875 47.40625 
Q 44.671875 47.40625 51 40.859375 
Q 57.328125 34.328125 57.328125 23 
Q 57.328125 11.921875 50.515625 5.25 
Q 43.703125 -1.421875 32.328125 -1.421875 
Q 19.96875 -1.421875 13.328125 7.78125 
Q 6.6875 17 6.6875 34.078125 
Q 6.6875 53.21875 14.546875 63.71875 
Q 22.40625 74.21875 36.71875 74.21875 
Q 40.578125 74.21875 44.828125 73.484375 
Q 49.078125 72.75 53.515625 71.296875 
L 53.515625 59.28125 
L 48 59.28125 
Q 47.40625 64.203125 44.234375 66.796875 
Q 41.0625 69.390625 35.6875 69.390625 
Q 26.21875 69.390625 21.578125 62.203125 
Q 16.9375 55.03125 16.796875 40.140625 
z
" id="DejaVuSerif-54"/>
       </defs>
       <use xlink:href="#DejaVuSerif-49"/>
       <use x="63.623047" xlink:href="#DejaVuSerif-55"/>
       <use x="127.246094" xlink:href="#DejaVuSerif-46"/>
       <use x="159.033203" xlink:href="#DejaVuSerif-54"/>
      </g>
     </g>
    </g>
    <g id="ytick_6">
     <g id="line2d_32">
      <g>
       <use style="stroke:#000000;stroke-width:0.8;" x="57.6" xlink:href="#m43e54763da" y="106.061603"/>
      </g>
     </g>
     <g id="text_19">
      <!-- 17.8 -->
      <g transform="translate(28.334375 109.860822)scale(0.1 -0.1)">
       <use xlink:href="#DejaVuSerif-49"/>
       <use x="63.623047" xlink:href="#DejaVuSerif-55"/>
       <use x="127.246094" xlink:href="#DejaVuSerif-46"/>
       <use x="159.033203" xlink:href="#DejaVuSerif-56"/>
      </g>
     </g>
    </g>
    <g id="ytick_7">
     <g id="line2d_33">
      <g>
       <use style="stroke:#000000;stroke-width:0.8;" x="57.6" xlink:href="#m43e54763da" y="134.26575"/>
      </g>
     </g>
     <g id="text_20">
      <!-- 18.0 -->
      <g transform="translate(28.334375 138.064968)scale(0.1 -0.1)">
       <use xlink:href="#DejaVuSerif-49"/>
       <use x="63.623047" xlink:href="#DejaVuSerif-56"/>
       <use x="127.246094" xlink:href="#DejaVuSerif-46"/>
       <use x="159.033203" xlink:href="#DejaVuSerif-48"/>
      </g>
     </g>
    </g>
    <g id="text_21">
     <!-- Mag -->
     <g transform="translate(22.1125 107.082134)rotate(-90)scale(0.1 -0.1)">
      <defs>
       <path d="M 5.515625 0 
L 5.515625 5.171875 
L 14.796875 5.171875 
L 14.796875 67.671875 
L 4.984375 67.671875 
L 4.984375 72.90625 
L 26.21875 72.90625 
L 51.8125 21 
L 77.390625 72.90625 
L 97.3125 72.90625 
L 97.3125 67.671875 
L 87.59375 67.671875 
L 87.59375 5.171875 
L 96.921875 5.171875 
L 96.921875 0 
L 68.40625 0 
L 68.40625 5.171875 
L 77.6875 5.171875 
L 77.6875 61.53125 
L 52.6875 10.6875 
L 45.796875 10.6875 
L 20.796875 61.53125 
L 20.796875 5.171875 
L 30.078125 5.171875 
L 30.078125 0 
z
" id="DejaVuSerif-77"/>
      </defs>
      <use xlink:href="#DejaVuSerif-77"/>
      <use x="102.392578" xlink:href="#DejaVuSerif-97"/>
      <use x="162.011719" xlink:href="#DejaVuSerif-103"/>
     </g>
    </g>
   </g>
   <g id="patch_9">
    <path d="M 57.6 150.089143 
L 57.6 41.472 
" style="fill:none;stroke:#000000;stroke-linecap:square;stroke-linejoin:miter;stroke-width:0.8;"/>
   </g>
   <g id="patch_10">
    <path d="M 206.4 150.089143 
L 206.4 41.472 
" style="fill:none;stroke:#000000;stroke-linecap:square;stroke-linejoin:miter;stroke-width:0.8;"/>
   </g>
   <g id="patch_11">
    <path d="M 57.6 150.089143 
L 206.4 150.089143 
" style="fill:none;stroke:#000000;stroke-linecap:square;stroke-linejoin:miter;stroke-width:0.8;"/>
   </g>
   <g id="patch_12">
    <path d="M 57.6 41.472 
L 206.4 41.472 
" style="fill:none;stroke:#000000;stroke-linecap:square;stroke-linejoin:miter;stroke-width:0.8;"/>
   </g>
   <g id="text_22">
    <!-- Folded Light Curve -->
    <g transform="translate(83.086719 35.472)scale(0.1 -0.1)">
     <defs>
      <path d="M 20.515625 5.171875 
L 29 5.171875 
L 29 0 
L 2.875 0 
L 2.875 5.171875 
L 11.53125 5.171875 
L 11.53125 70.796875 
L 2.875 70.796875 
L 2.875 75.984375 
L 20.515625 75.984375 
z
" id="DejaVuSerif-108"/>
      <path d="M 5.515625 0 
L 5.515625 5.171875 
L 14.796875 5.171875 
L 14.796875 67.671875 
L 5.515625 67.671875 
L 5.515625 72.90625 
L 33.984375 72.90625 
L 33.984375 67.671875 
L 24.703125 67.671875 
L 24.703125 6 
L 58.015625 6 
L 58.015625 18.21875 
L 64.015625 18.21875 
L 64.015625 0 
z
" id="DejaVuSerif-76"/>
      <path d="M 10.796875 46.6875 
L 2.875 46.6875 
L 2.875 51.90625 
L 10.796875 51.90625 
L 10.796875 68.015625 
L 19.828125 68.015625 
L 19.828125 51.90625 
L 36.71875 51.90625 
L 36.71875 46.6875 
L 19.828125 46.6875 
L 19.828125 13.71875 
Q 19.828125 7.125 21.09375 5.265625 
Q 22.359375 3.421875 25.78125 3.421875 
Q 29.296875 3.421875 30.90625 5.484375 
Q 32.515625 7.5625 32.625 12.203125 
L 39.40625 12.203125 
Q 39.015625 5.125 35.546875 1.84375 
Q 32.078125 -1.421875 25 -1.421875 
Q 17.234375 -1.421875 14.015625 2.015625 
Q 10.796875 5.46875 10.796875 13.71875 
z
" id="DejaVuSerif-116"/>
      <path d="M 70.515625 19.28125 
Q 67.28125 9.078125 59.6875 3.828125 
Q 52.09375 -1.421875 40.484375 -1.421875 
Q 33.34375 -1.421875 27.234375 1.015625 
Q 21.140625 3.46875 16.40625 8.203125 
Q 10.9375 13.671875 8.265625 20.625 
Q 5.609375 27.59375 5.609375 36.375 
Q 5.609375 53.375 15.421875 63.796875 
Q 25.25 74.21875 41.3125 74.21875 
Q 47.265625 74.21875 54 72.65625 
Q 60.75 71.09375 68.5 67.921875 
L 68.5 51.125 
L 62.984375 51.125 
Q 61.1875 60.296875 55.734375 64.640625 
Q 50.296875 69 40.484375 69 
Q 28.8125 69 22.796875 60.71875 
Q 16.796875 52.4375 16.796875 36.375 
Q 16.796875 20.359375 22.796875 12.078125 
Q 28.8125 3.8125 40.484375 3.8125 
Q 48.640625 3.8125 53.90625 7.6875 
Q 59.1875 11.578125 61.53125 19.28125 
z
" id="DejaVuSerif-67"/>
      <path d="M 35.40625 51.90625 
L 52.203125 51.90625 
L 52.203125 5.171875 
L 60.6875 5.171875 
L 60.6875 0 
L 43.21875 0 
L 43.21875 9.1875 
Q 40.71875 4 36.765625 1.28125 
Q 32.8125 -1.421875 27.59375 -1.421875 
Q 18.953125 -1.421875 14.875 3.484375 
Q 10.796875 8.40625 10.796875 18.890625 
L 10.796875 46.6875 
L 2.6875 46.6875 
L 2.6875 51.90625 
L 19.828125 51.90625 
L 19.828125 21.6875 
Q 19.828125 12.203125 22.140625 8.6875 
Q 24.46875 5.171875 30.421875 5.171875 
Q 36.671875 5.171875 39.9375 9.765625 
Q 43.21875 14.359375 43.21875 23.09375 
L 43.21875 46.6875 
L 35.40625 46.6875 
z
" id="DejaVuSerif-117"/>
      <path d="M 24.703125 0 
L 5.609375 46.6875 
L -0.296875 46.6875 
L -0.296875 51.90625 
L 23.578125 51.90625 
L 23.578125 46.6875 
L 15.28125 46.6875 
L 29.890625 10.984375 
L 44.484375 46.6875 
L 36.71875 46.6875 
L 36.71875 51.90625 
L 56.203125 51.90625 
L 56.203125 46.6875 
L 50.390625 46.6875 
L 31.296875 0 
z
" id="DejaVuSerif-118"/>
     </defs>
     <use xlink:href="#DejaVuSerif-70"/>
     <use x="63.884766" xlink:href="#DejaVuSerif-111"/>
     <use x="124.089844" xlink:href="#DejaVuSerif-108"/>
     <use x="156.072266" xlink:href="#DejaVuSerif-100"/>
     <use x="220.085938" xlink:href="#DejaVuSerif-101"/>
     <use x="279.265625" xlink:href="#DejaVuSerif-100"/>
     <use x="343.279297" xlink:href="#DejaVuSerif-32"/>
     <use x="375.066406" xlink:href="#DejaVuSerif-76"/>
     <use x="441.472656" xlink:href="#DejaVuSerif-105"/>
     <use x="473.455078" xlink:href="#DejaVuSerif-103"/>
     <use x="537.46875" xlink:href="#DejaVuSerif-104"/>
     <use x="601.873047" xlink:href="#DejaVuSerif-116"/>
     <use x="642.058594" xlink:href="#DejaVuSerif-32"/>
     <use x="673.845703" xlink:href="#DejaVuSerif-67"/>
     <use x="750.359375" xlink:href="#DejaVuSerif-117"/>
     <use x="814.763672" xlink:href="#DejaVuSerif-114"/>
     <use x="862.566406" xlink:href="#DejaVuSerif-118"/>
     <use x="919.060547" xlink:href="#DejaVuSerif-101"/>
    </g>
   </g>
  </g>
  <g id="axes_3">
   <g id="patch_13">
    <path d="M 57.6 307.584 
L 414.72 307.584 
L 414.72 198.966857 
L 57.6 198.966857 
z
" style="fill:#ffffff;"/>
   </g>
   <g id="PathCollection_3">
    <g clip-path="url(#pe07ff8beee)">
     <use style="fill:#1f77b4;stroke:#1f77b4;" x="73.832727" xlink:href="#m0a2ff25fd2" y="265.671259"/>
     <use style="fill:#1f77b4;stroke:#1f77b4;" x="73.833119" xlink:href="#m0a2ff25fd2" y="269.824449"/>
     <use style="fill:#1f77b4;stroke:#1f77b4;" x="94.910293" xlink:href="#m0a2ff25fd2" y="255.853674"/>
     <use style="fill:#1f77b4;stroke:#1f77b4;" x="94.910684" xlink:href="#m0a2ff25fd2" y="257.071161"/>
     <use style="fill:#1f77b4;stroke:#1f77b4;" x="96.675449" xlink:href="#m0a2ff25fd2" y="247.214486"/>
     <use style="fill:#1f77b4;stroke:#1f77b4;" x="99.185169" xlink:href="#m0a2ff25fd2" y="245.286261"/>
     <use style="fill:#1f77b4;stroke:#1f77b4;" x="99.18789" xlink:href="#m0a2ff25fd2" y="256.566423"/>
     <use style="fill:#1f77b4;stroke:#1f77b4;" x="100.021602" xlink:href="#m0a2ff25fd2" y="246.922265"/>
     <use style="fill:#1f77b4;stroke:#1f77b4;" x="121.144305" xlink:href="#m0a2ff25fd2" y="283.302508"/>
     <use style="fill:#1f77b4;stroke:#1f77b4;" x="121.988998" xlink:href="#m0a2ff25fd2" y="268.523764"/>
     <use style="fill:#1f77b4;stroke:#1f77b4;" x="121.98938" xlink:href="#m0a2ff25fd2" y="275.855736"/>
     <use style="fill:#1f77b4;stroke:#1f77b4;" x="123.69785" xlink:href="#m0a2ff25fd2" y="271.742898"/>
     <use style="fill:#1f77b4;stroke:#1f77b4;" x="123.698242" xlink:href="#m0a2ff25fd2" y="270.838432"/>
     <use style="fill:#1f77b4;stroke:#1f77b4;" x="125.362202" xlink:href="#m0a2ff25fd2" y="284.472877"/>
     <use style="fill:#1f77b4;stroke:#1f77b4;" x="125.362594" xlink:href="#m0a2ff25fd2" y="284.203216"/>
     <use style="fill:#1f77b4;stroke:#1f77b4;" x="126.199487" xlink:href="#m0a2ff25fd2" y="260.209369"/>
     <use style="fill:#1f77b4;stroke:#1f77b4;" x="126.199878" xlink:href="#m0a2ff25fd2" y="253.794121"/>
     <use style="fill:#1f77b4;stroke:#1f77b4;" x="127.090237" xlink:href="#m0a2ff25fd2" y="227.342741"/>
     <use style="fill:#1f77b4;stroke:#1f77b4;" x="127.090618" xlink:href="#m0a2ff25fd2" y="235.531076"/>
     <use style="fill:#1f77b4;stroke:#1f77b4;" x="127.899364" xlink:href="#m0a2ff25fd2" y="246.526295"/>
     <use style="fill:#1f77b4;stroke:#1f77b4;" x="127.899756" xlink:href="#m0a2ff25fd2" y="241.683417"/>
     <use style="fill:#1f77b4;stroke:#1f77b4;" x="128.744146" xlink:href="#m0a2ff25fd2" y="260.932642"/>
     <use style="fill:#1f77b4;stroke:#1f77b4;" x="128.744527" xlink:href="#m0a2ff25fd2" y="267.056654"/>
     <use style="fill:#1f77b4;stroke:#1f77b4;" x="136.360585" xlink:href="#m0a2ff25fd2" y="230.993203"/>
     <use style="fill:#1f77b4;stroke:#1f77b4;" x="142.231315" xlink:href="#m0a2ff25fd2" y="206.715649"/>
     <use style="fill:#1f77b4;stroke:#1f77b4;" x="143.073052" xlink:href="#m0a2ff25fd2" y="237.339258"/>
     <use style="fill:#1f77b4;stroke:#1f77b4;" x="143.918832" xlink:href="#m0a2ff25fd2" y="280.402899"/>
     <use style="fill:#1f77b4;stroke:#1f77b4;" x="144.76286" xlink:href="#m0a2ff25fd2" y="240.043642"/>
     <use style="fill:#1f77b4;stroke:#1f77b4;" x="145.612006" xlink:href="#m0a2ff25fd2" y="275.424435"/>
     <use style="fill:#1f77b4;stroke:#1f77b4;" x="155.771705" xlink:href="#m0a2ff25fd2" y="269.184375"/>
     <use style="fill:#1f77b4;stroke:#1f77b4;" x="163.21203" xlink:href="#m0a2ff25fd2" y="259.653755"/>
     <use style="fill:#1f77b4;stroke:#1f77b4;" x="164.180987" xlink:href="#m0a2ff25fd2" y="250.323866"/>
     <use style="fill:#1f77b4;stroke:#1f77b4;" x="165.042171" xlink:href="#m0a2ff25fd2" y="261.751649"/>
     <use style="fill:#1f77b4;stroke:#1f77b4;" x="170.943837" xlink:href="#m0a2ff25fd2" y="270.45099"/>
     <use style="fill:#1f77b4;stroke:#1f77b4;" x="173.496775" xlink:href="#m0a2ff25fd2" y="271.392298"/>
     <use style="fill:#1f77b4;stroke:#1f77b4;" x="207.146958" xlink:href="#m0a2ff25fd2" y="298.718069"/>
     <use style="fill:#1f77b4;stroke:#1f77b4;" x="210.529274" xlink:href="#m0a2ff25fd2" y="286.464762"/>
     <use style="fill:#1f77b4;stroke:#1f77b4;" x="218.978819" xlink:href="#m0a2ff25fd2" y="254.351246"/>
     <use style="fill:#1f77b4;stroke:#1f77b4;" x="346.082599" xlink:href="#m0a2ff25fd2" y="245.966424"/>
     <use style="fill:#1f77b4;stroke:#1f77b4;" x="379.139631" xlink:href="#m0a2ff25fd2" y="298.671713"/>
     <use style="fill:#1f77b4;stroke:#1f77b4;" x="396.853779" xlink:href="#m0a2ff25fd2" y="249.282567"/>
     <use style="fill:#1f77b4;stroke:#1f77b4;" x="396.854161" xlink:href="#m0a2ff25fd2" y="248.188381"/>
     <use style="fill:#1f77b4;stroke:#1f77b4;" x="397.677773" xlink:href="#m0a2ff25fd2" y="248.220454"/>
     <use style="fill:#1f77b4;stroke:#1f77b4;" x="397.678155" xlink:href="#m0a2ff25fd2" y="255.666726"/>
     <use style="fill:#1f77b4;stroke:#1f77b4;" x="398.486891" xlink:href="#m0a2ff25fd2" y="247.290419"/>
     <use style="fill:#1f77b4;stroke:#1f77b4;" x="398.487273" xlink:href="#m0a2ff25fd2" y="249.970744"/>
    </g>
   </g>
   <g id="matplotlib.axis_5">
    <g id="xtick_22">
     <g id="line2d_34">
      <g>
       <use style="stroke:#000000;stroke-width:0.8;" x="97.996351" xlink:href="#m72e494c848" y="307.584"/>
      </g>
     </g>
     <g id="text_23">
      <!-- 58300 -->
      <g transform="translate(82.090101 322.182437)scale(0.1 -0.1)">
       <defs>
        <path d="M 9.71875 69.828125 
Q 15.4375 71.96875 20.671875 73.09375 
Q 25.921875 74.21875 30.515625 74.21875 
Q 41.21875 74.21875 47.21875 69.59375 
Q 53.21875 64.984375 53.21875 56.78125 
Q 53.21875 50.203125 49.0625 45.78125 
Q 44.921875 41.359375 37.3125 39.796875 
Q 46.296875 38.53125 51.25 33.28125 
Q 56.203125 28.03125 56.203125 19.671875 
Q 56.203125 9.46875 49.34375 4.015625 
Q 42.484375 -1.421875 29.59375 -1.421875 
Q 23.875 -1.421875 18.421875 -0.1875 
Q 12.984375 1.03125 7.625 3.515625 
L 7.625 17.671875 
L 13.09375 17.671875 
Q 13.578125 10.640625 17.828125 7.03125 
Q 22.078125 3.421875 29.78125 3.421875 
Q 37.25 3.421875 41.578125 7.734375 
Q 45.90625 12.0625 45.90625 19.578125 
Q 45.90625 28.171875 41.453125 32.59375 
Q 37.015625 37.015625 28.421875 37.015625 
L 23.78125 37.015625 
L 23.78125 42 
L 26.21875 42 
Q 34.765625 42 39.03125 45.53125 
Q 43.3125 49.078125 43.3125 56.203125 
Q 43.3125 62.59375 39.796875 65.984375 
Q 36.28125 69.390625 29.6875 69.390625 
Q 23.09375 69.390625 19.453125 66.265625 
Q 15.828125 63.140625 15.1875 56.984375 
L 9.71875 56.984375 
z
" id="DejaVuSerif-51"/>
       </defs>
       <use xlink:href="#DejaVuSerif-53"/>
       <use x="63.623047" xlink:href="#DejaVuSerif-56"/>
       <use x="127.246094" xlink:href="#DejaVuSerif-51"/>
       <use x="190.869141" xlink:href="#DejaVuSerif-48"/>
       <use x="254.492188" xlink:href="#DejaVuSerif-48"/>
      </g>
     </g>
    </g>
    <g id="xtick_23">
     <g id="line2d_35">
      <g>
       <use style="stroke:#000000;stroke-width:0.8;" x="140.27554" xlink:href="#m72e494c848" y="307.584"/>
      </g>
     </g>
     <g id="text_24">
      <!-- 58350 -->
      <g transform="translate(124.36929 322.182437)scale(0.1 -0.1)">
       <use xlink:href="#DejaVuSerif-53"/>
       <use x="63.623047" xlink:href="#DejaVuSerif-56"/>
       <use x="127.246094" xlink:href="#DejaVuSerif-51"/>
       <use x="190.869141" xlink:href="#DejaVuSerif-53"/>
       <use x="254.492188" xlink:href="#DejaVuSerif-48"/>
      </g>
     </g>
    </g>
    <g id="xtick_24">
     <g id="line2d_36">
      <g>
       <use style="stroke:#000000;stroke-width:0.8;" x="182.55473" xlink:href="#m72e494c848" y="307.584"/>
      </g>
     </g>
     <g id="text_25">
      <!-- 58400 -->
      <g transform="translate(166.64848 322.182437)scale(0.1 -0.1)">
       <use xlink:href="#DejaVuSerif-53"/>
       <use x="63.623047" xlink:href="#DejaVuSerif-56"/>
       <use x="127.246094" xlink:href="#DejaVuSerif-52"/>
       <use x="190.869141" xlink:href="#DejaVuSerif-48"/>
       <use x="254.492188" xlink:href="#DejaVuSerif-48"/>
      </g>
     </g>
    </g>
    <g id="xtick_25">
     <g id="line2d_37">
      <g>
       <use style="stroke:#000000;stroke-width:0.8;" x="224.833919" xlink:href="#m72e494c848" y="307.584"/>
      </g>
     </g>
     <g id="text_26">
      <!-- 58450 -->
      <g transform="translate(208.927669 322.182437)scale(0.1 -0.1)">
       <use xlink:href="#DejaVuSerif-53"/>
       <use x="63.623047" xlink:href="#DejaVuSerif-56"/>
       <use x="127.246094" xlink:href="#DejaVuSerif-52"/>
       <use x="190.869141" xlink:href="#DejaVuSerif-53"/>
       <use x="254.492188" xlink:href="#DejaVuSerif-48"/>
      </g>
     </g>
    </g>
    <g id="xtick_26">
     <g id="line2d_38">
      <g>
       <use style="stroke:#000000;stroke-width:0.8;" x="267.113108" xlink:href="#m72e494c848" y="307.584"/>
      </g>
     </g>
     <g id="text_27">
      <!-- 58500 -->
      <g transform="translate(251.206858 322.182437)scale(0.1 -0.1)">
       <use xlink:href="#DejaVuSerif-53"/>
       <use x="63.623047" xlink:href="#DejaVuSerif-56"/>
       <use x="127.246094" xlink:href="#DejaVuSerif-53"/>
       <use x="190.869141" xlink:href="#DejaVuSerif-48"/>
       <use x="254.492188" xlink:href="#DejaVuSerif-48"/>
      </g>
     </g>
    </g>
    <g id="xtick_27">
     <g id="line2d_39">
      <g>
       <use style="stroke:#000000;stroke-width:0.8;" x="309.392298" xlink:href="#m72e494c848" y="307.584"/>
      </g>
     </g>
     <g id="text_28">
      <!-- 58550 -->
      <g transform="translate(293.486048 322.182437)scale(0.1 -0.1)">
       <use xlink:href="#DejaVuSerif-53"/>
       <use x="63.623047" xlink:href="#DejaVuSerif-56"/>
       <use x="127.246094" xlink:href="#DejaVuSerif-53"/>
       <use x="190.869141" xlink:href="#DejaVuSerif-53"/>
       <use x="254.492188" xlink:href="#DejaVuSerif-48"/>
      </g>
     </g>
    </g>
    <g id="xtick_28">
     <g id="line2d_40">
      <g>
       <use style="stroke:#000000;stroke-width:0.8;" x="351.671487" xlink:href="#m72e494c848" y="307.584"/>
      </g>
     </g>
     <g id="text_29">
      <!-- 58600 -->
      <g transform="translate(335.765237 322.182437)scale(0.1 -0.1)">
       <use xlink:href="#DejaVuSerif-53"/>
       <use x="63.623047" xlink:href="#DejaVuSerif-56"/>
       <use x="127.246094" xlink:href="#DejaVuSerif-54"/>
       <use x="190.869141" xlink:href="#DejaVuSerif-48"/>
       <use x="254.492188" xlink:href="#DejaVuSerif-48"/>
      </g>
     </g>
    </g>
    <g id="xtick_29">
     <g id="line2d_41">
      <g>
       <use style="stroke:#000000;stroke-width:0.8;" x="393.950677" xlink:href="#m72e494c848" y="307.584"/>
      </g>
     </g>
     <g id="text_30">
      <!-- 58650 -->
      <g transform="translate(378.044427 322.182437)scale(0.1 -0.1)">
       <use xlink:href="#DejaVuSerif-53"/>
       <use x="63.623047" xlink:href="#DejaVuSerif-56"/>
       <use x="127.246094" xlink:href="#DejaVuSerif-54"/>
       <use x="190.869141" xlink:href="#DejaVuSerif-53"/>
       <use x="254.492188" xlink:href="#DejaVuSerif-48"/>
      </g>
     </g>
    </g>
    <g id="text_31">
     <!-- MJD -->
     <g transform="translate(225.027187 335.860562)scale(0.1 -0.1)">
      <defs>
       <path d="M -8.40625 -17.484375 
L -8.40625 -6 
L -2.828125 -6 
Q -2.6875 -10.84375 -0.53125 -13.203125 
Q 1.609375 -15.578125 5.90625 -15.578125 
Q 11.71875 -15.578125 14.015625 -11.90625 
Q 16.3125 -8.25 16.3125 2.390625 
L 16.3125 67.671875 
L 4.984375 67.671875 
L 4.984375 72.90625 
L 35.5 72.90625 
L 35.5 67.671875 
L 26.21875 67.671875 
L 26.21875 2 
Q 26.21875 -10.0625 21.375 -15.421875 
Q 16.546875 -20.796875 5.8125 -20.796875 
Q 2.34375 -20.796875 -1.234375 -19.96875 
Q -4.828125 -19.140625 -8.40625 -17.484375 
z
" id="DejaVuSerif-74"/>
       <path d="M 24.703125 5.171875 
L 33.796875 5.171875 
Q 48 5.171875 55.59375 13.28125 
Q 63.1875 21.390625 63.1875 36.53125 
Q 63.1875 51.65625 55.609375 59.65625 
Q 48.046875 67.671875 33.796875 67.671875 
L 24.703125 67.671875 
z
M 5.515625 0 
L 5.515625 5.171875 
L 14.796875 5.171875 
L 14.796875 67.671875 
L 5.515625 67.671875 
L 5.515625 72.90625 
L 34.515625 72.90625 
Q 53.375 72.90625 63.890625 63.28125 
Q 74.421875 53.65625 74.421875 36.53125 
Q 74.421875 19.34375 63.875 9.671875 
Q 53.328125 0 34.515625 0 
z
" id="DejaVuSerif-68"/>
      </defs>
      <use xlink:href="#DejaVuSerif-77"/>
      <use x="102.392578" xlink:href="#DejaVuSerif-74"/>
      <use x="142.480469" xlink:href="#DejaVuSerif-68"/>
     </g>
    </g>
   </g>
   <g id="matplotlib.axis_6">
    <g id="ytick_8">
     <g id="line2d_42">
      <g>
       <use style="stroke:#000000;stroke-width:0.8;" x="57.6" xlink:href="#m43e54763da" y="209.738362"/>
      </g>
     </g>
     <g id="text_32">
      <!-- 17.4 -->
      <g transform="translate(28.334375 213.53758)scale(0.1 -0.1)">
       <use xlink:href="#DejaVuSerif-49"/>
       <use x="63.623047" xlink:href="#DejaVuSerif-55"/>
       <use x="127.246094" xlink:href="#DejaVuSerif-46"/>
       <use x="159.033203" xlink:href="#DejaVuSerif-52"/>
      </g>
     </g>
    </g>
    <g id="ytick_9">
     <g id="line2d_43">
      <g>
       <use style="stroke:#000000;stroke-width:0.8;" x="57.6" xlink:href="#m43e54763da" y="236.017221"/>
      </g>
     </g>
     <g id="text_33">
      <!-- 17.6 -->
      <g transform="translate(28.334375 239.81644)scale(0.1 -0.1)">
       <use xlink:href="#DejaVuSerif-49"/>
       <use x="63.623047" xlink:href="#DejaVuSerif-55"/>
       <use x="127.246094" xlink:href="#DejaVuSerif-46"/>
       <use x="159.033203" xlink:href="#DejaVuSerif-54"/>
      </g>
     </g>
    </g>
    <g id="ytick_10">
     <g id="line2d_44">
      <g>
       <use style="stroke:#000000;stroke-width:0.8;" x="57.6" xlink:href="#m43e54763da" y="262.296081"/>
      </g>
     </g>
     <g id="text_34">
      <!-- 17.8 -->
      <g transform="translate(28.334375 266.0953)scale(0.1 -0.1)">
       <use xlink:href="#DejaVuSerif-49"/>
       <use x="63.623047" xlink:href="#DejaVuSerif-55"/>
       <use x="127.246094" xlink:href="#DejaVuSerif-46"/>
       <use x="159.033203" xlink:href="#DejaVuSerif-56"/>
      </g>
     </g>
    </g>
    <g id="ytick_11">
     <g id="line2d_45">
      <g>
       <use style="stroke:#000000;stroke-width:0.8;" x="57.6" xlink:href="#m43e54763da" y="288.574941"/>
      </g>
     </g>
     <g id="text_35">
      <!-- 18.0 -->
      <g transform="translate(28.334375 292.37416)scale(0.1 -0.1)">
       <use xlink:href="#DejaVuSerif-49"/>
       <use x="63.623047" xlink:href="#DejaVuSerif-56"/>
       <use x="127.246094" xlink:href="#DejaVuSerif-46"/>
       <use x="159.033203" xlink:href="#DejaVuSerif-48"/>
      </g>
     </g>
    </g>
    <g id="text_36">
     <!-- Mag -->
     <g transform="translate(22.1125 264.576991)rotate(-90)scale(0.1 -0.1)">
      <use xlink:href="#DejaVuSerif-77"/>
      <use x="102.392578" xlink:href="#DejaVuSerif-97"/>
      <use x="162.011719" xlink:href="#DejaVuSerif-103"/>
     </g>
    </g>
   </g>
   <g id="LineCollection_5">
    <path clip-path="url(#pe07ff8beee)" d="M 73.832727 262.226005 
L 73.832727 269.116513 
" style="fill:none;stroke:#1f77b4;stroke-width:0.5;"/>
    <path clip-path="url(#pe07ff8beee)" d="M 73.833119 266.324187 
L 73.833119 273.324711 
" style="fill:none;stroke:#1f77b4;stroke-width:0.5;"/>
    <path clip-path="url(#pe07ff8beee)" d="M 94.910293 252.532444 
L 94.910293 259.174904 
" style="fill:none;stroke:#1f77b4;stroke-width:0.5;"/>
    <path clip-path="url(#pe07ff8beee)" d="M 94.910684 253.734996 
L 94.910684 260.407325 
" style="fill:none;stroke:#1f77b4;stroke-width:0.5;"/>
    <path clip-path="url(#pe07ff8beee)" d="M 96.675449 243.995735 
L 96.675449 250.433237 
" style="fill:none;stroke:#1f77b4;stroke-width:0.5;"/>
    <path clip-path="url(#pe07ff8beee)" d="M 99.185169 242.089569 
L 99.185169 248.482954 
" style="fill:none;stroke:#1f77b4;stroke-width:0.5;"/>
    <path clip-path="url(#pe07ff8beee)" d="M 99.18789 253.236463 
L 99.18789 259.896382 
" style="fill:none;stroke:#1f77b4;stroke-width:0.5;"/>
    <path clip-path="url(#pe07ff8beee)" d="M 100.021602 243.706877 
L 100.021602 250.137653 
" style="fill:none;stroke:#1f77b4;stroke-width:0.5;"/>
    <path clip-path="url(#pe07ff8beee)" d="M 121.144305 279.612698 
L 121.144305 286.992319 
" style="fill:none;stroke:#1f77b4;stroke-width:0.5;"/>
    <path clip-path="url(#pe07ff8beee)" d="M 121.988998 265.040896 
L 121.988998 272.006631 
" style="fill:none;stroke:#1f77b4;stroke-width:0.5;"/>
    <path clip-path="url(#pe07ff8beee)" d="M 121.98938 272.272786 
L 121.98938 279.438687 
" style="fill:none;stroke:#1f77b4;stroke-width:0.5;"/>
    <path clip-path="url(#pe07ff8beee)" d="M 123.69785 268.216699 
L 123.69785 275.269097 
" style="fill:none;stroke:#1f77b4;stroke-width:0.5;"/>
    <path clip-path="url(#pe07ff8beee)" d="M 123.698242 267.324505 
L 123.698242 274.352359 
" style="fill:none;stroke:#1f77b4;stroke-width:0.5;"/>
    <path clip-path="url(#pe07ff8beee)" d="M 125.362202 280.765779 
L 125.362202 288.179975 
" style="fill:none;stroke:#1f77b4;stroke-width:0.5;"/>
    <path clip-path="url(#pe07ff8beee)" d="M 125.362594 280.500114 
L 125.362594 287.906318 
" style="fill:none;stroke:#1f77b4;stroke-width:0.5;"/>
    <path clip-path="url(#pe07ff8beee)" d="M 126.199487 256.834135 
L 126.199487 263.584603 
" style="fill:none;stroke:#1f77b4;stroke-width:0.5;"/>
    <path clip-path="url(#pe07ff8beee)" d="M 126.199878 250.497874 
L 126.199878 257.090369 
" style="fill:none;stroke:#1f77b4;stroke-width:0.5;"/>
    <path clip-path="url(#pe07ff8beee)" d="M 127.090237 224.337923 
L 127.090237 230.347558 
" style="fill:none;stroke:#1f77b4;stroke-width:0.5;"/>
    <path clip-path="url(#pe07ff8beee)" d="M 127.090618 232.441624 
L 127.090618 238.620527 
" style="fill:none;stroke:#1f77b4;stroke-width:0.5;"/>
    <path clip-path="url(#pe07ff8beee)" d="M 127.899364 243.315451 
L 127.899364 249.737139 
" style="fill:none;stroke:#1f77b4;stroke-width:0.5;"/>
    <path clip-path="url(#pe07ff8beee)" d="M 127.899756 238.527169 
L 127.899756 244.839664 
" style="fill:none;stroke:#1f77b4;stroke-width:0.5;"/>
    <path clip-path="url(#pe07ff8beee)" d="M 128.744146 257.548284 
L 128.744146 264.317 
" style="fill:none;stroke:#1f77b4;stroke-width:0.5;"/>
    <path clip-path="url(#pe07ff8beee)" d="M 128.744527 263.593225 
L 128.744527 270.520084 
" style="fill:none;stroke:#1f77b4;stroke-width:0.5;"/>
    <path clip-path="url(#pe07ff8beee)" d="M 136.360585 227.951244 
L 136.360585 234.035162 
" style="fill:none;stroke:#1f77b4;stroke-width:0.5;"/>
    <path clip-path="url(#pe07ff8beee)" d="M 142.231315 203.904 
L 142.231315 209.527298 
" style="fill:none;stroke:#1f77b4;stroke-width:0.5;"/>
    <path clip-path="url(#pe07ff8beee)" d="M 143.073052 234.230467 
L 143.073052 240.44805 
" style="fill:none;stroke:#1f77b4;stroke-width:0.5;"/>
    <path clip-path="url(#pe07ff8beee)" d="M 143.918832 276.755337 
L 143.918832 284.050461 
" style="fill:none;stroke:#1f77b4;stroke-width:0.5;"/>
    <path clip-path="url(#pe07ff8beee)" d="M 144.76286 236.905474 
L 144.76286 243.18181 
" style="fill:none;stroke:#1f77b4;stroke-width:0.5;"/>
    <path clip-path="url(#pe07ff8beee)" d="M 145.612006 271.847509 
L 145.612006 279.001361 
" style="fill:none;stroke:#1f77b4;stroke-width:0.5;"/>
    <path clip-path="url(#pe07ff8beee)" d="M 155.771705 265.692693 
L 155.771705 272.676056 
" style="fill:none;stroke:#1f77b4;stroke-width:0.5;"/>
    <path clip-path="url(#pe07ff8beee)" d="M 163.21203 256.285499 
L 163.21203 263.022011 
" style="fill:none;stroke:#1f77b4;stroke-width:0.5;"/>
    <path clip-path="url(#pe07ff8beee)" d="M 164.180987 247.068926 
L 164.180987 253.578806 
" style="fill:none;stroke:#1f77b4;stroke-width:0.5;"/>
    <path clip-path="url(#pe07ff8beee)" d="M 165.042171 258.356905 
L 165.042171 265.146393 
" style="fill:none;stroke:#1f77b4;stroke-width:0.5;"/>
    <path clip-path="url(#pe07ff8beee)" d="M 170.943837 266.942294 
L 170.943837 273.959685 
" style="fill:none;stroke:#1f77b4;stroke-width:0.5;"/>
    <path clip-path="url(#pe07ff8beee)" d="M 173.496775 267.870866 
L 173.496775 274.913731 
" style="fill:none;stroke:#1f77b4;stroke-width:0.5;"/>
    <path clip-path="url(#pe07ff8beee)" d="M 207.146958 294.78928 
L 207.146958 302.646857 
" style="fill:none;stroke:#1f77b4;stroke-width:0.5;"/>
    <path clip-path="url(#pe07ff8beee)" d="M 210.529274 282.727925 
L 210.529274 290.201598 
" style="fill:none;stroke:#1f77b4;stroke-width:0.5;"/>
    <path clip-path="url(#pe07ff8beee)" d="M 218.978819 251.048275 
L 218.978819 257.654217 
" style="fill:none;stroke:#1f77b4;stroke-width:0.5;"/>
    <path clip-path="url(#pe07ff8beee)" d="M 346.082599 242.761985 
L 346.082599 249.170864 
" style="fill:none;stroke:#1f77b4;stroke-width:0.5;"/>
    <path clip-path="url(#pe07ff8beee)" d="M 379.139631 294.743681 
L 379.139631 302.599744 
" style="fill:none;stroke:#1f77b4;stroke-width:0.5;"/>
    <path clip-path="url(#pe07ff8beee)" d="M 396.853779 246.039832 
L 396.853779 252.525301 
" style="fill:none;stroke:#1f77b4;stroke-width:0.5;"/>
    <path clip-path="url(#pe07ff8beee)" d="M 396.854161 244.958377 
L 396.854161 251.418384 
" style="fill:none;stroke:#1f77b4;stroke-width:0.5;"/>
    <path clip-path="url(#pe07ff8beee)" d="M 397.677773 244.990079 
L 397.677773 251.450828 
" style="fill:none;stroke:#1f77b4;stroke-width:0.5;"/>
    <path clip-path="url(#pe07ff8beee)" d="M 397.678155 252.347777 
L 397.678155 258.985676 
" style="fill:none;stroke:#1f77b4;stroke-width:0.5;"/>
    <path clip-path="url(#pe07ff8beee)" d="M 398.486891 244.070793 
L 398.486891 250.510045 
" style="fill:none;stroke:#1f77b4;stroke-width:0.5;"/>
    <path clip-path="url(#pe07ff8beee)" d="M 398.487273 246.719952 
L 398.487273 253.221536 
" style="fill:none;stroke:#1f77b4;stroke-width:0.5;"/>
   </g>
   <g id="line2d_46">
    <path clip-path="url(#pe07ff8beee)" d="M 73.832727 265.671259 
L 73.833119 269.824449 
L 94.910293 255.853674 
L 94.910684 257.071161 
L 96.675449 247.214486 
L 99.185169 245.286261 
L 99.18789 256.566423 
L 100.021602 246.922265 
L 121.144305 283.302508 
L 121.988998 268.523764 
L 121.98938 275.855736 
L 123.69785 271.742898 
L 123.698242 270.838432 
L 125.362202 284.472877 
L 125.362594 284.203216 
L 126.199487 260.209369 
L 126.199878 253.794121 
L 127.090237 227.342741 
L 127.090618 235.531076 
L 127.899364 246.526295 
L 127.899756 241.683417 
L 128.744146 260.932642 
L 128.744527 267.056654 
L 136.360585 230.993203 
L 142.231315 206.715649 
L 143.073052 237.339258 
L 143.918832 280.402899 
L 144.76286 240.043642 
L 145.612006 275.424435 
L 155.771705 269.184375 
L 163.21203 259.653755 
L 164.180987 250.323866 
L 165.042171 261.751649 
L 170.943837 270.45099 
L 173.496775 271.392298 
L 207.146958 298.718069 
L 210.529274 286.464762 
L 218.978819 254.351246 
L 346.082599 245.966424 
L 379.139631 298.671713 
L 396.853779 249.282567 
L 396.854161 248.188381 
L 397.677773 248.220454 
L 397.678155 255.666726 
L 398.486891 247.290419 
L 398.487273 249.970744 
" style="fill:none;"/>
   </g>
   <g id="patch_14">
    <path d="M 57.6 307.584 
L 57.6 198.966857 
" style="fill:none;stroke:#000000;stroke-linecap:square;stroke-linejoin:miter;stroke-width:0.8;"/>
   </g>
   <g id="patch_15">
    <path d="M 414.72 307.584 
L 414.72 198.966857 
" style="fill:none;stroke:#000000;stroke-linecap:square;stroke-linejoin:miter;stroke-width:0.8;"/>
   </g>
   <g id="patch_16">
    <path d="M 57.6 307.584 
L 414.72 307.584 
" style="fill:none;stroke:#000000;stroke-linecap:square;stroke-linejoin:miter;stroke-width:0.8;"/>
   </g>
   <g id="patch_17">
    <path d="M 57.6 198.966857 
L 414.72 198.966857 
" style="fill:none;stroke:#000000;stroke-linecap:square;stroke-linejoin:miter;stroke-width:0.8;"/>
   </g>
   <g id="text_37">
    <!-- Light Curve -->
    <g transform="translate(206.000625 192.966857)scale(0.1 -0.1)">
     <use xlink:href="#DejaVuSerif-76"/>
     <use x="66.40625" xlink:href="#DejaVuSerif-105"/>
     <use x="98.388672" xlink:href="#DejaVuSerif-103"/>
     <use x="162.402344" xlink:href="#DejaVuSerif-104"/>
     <use x="226.806641" xlink:href="#DejaVuSerif-116"/>
     <use x="266.992188" xlink:href="#DejaVuSerif-32"/>
     <use x="298.779297" xlink:href="#DejaVuSerif-67"/>
     <use x="375.292969" xlink:href="#DejaVuSerif-117"/>
     <use x="439.697266" xlink:href="#DejaVuSerif-114"/>
     <use x="487.5" xlink:href="#DejaVuSerif-118"/>
     <use x="543.994141" xlink:href="#DejaVuSerif-101"/>
    </g>
   </g>
  </g>
 </g>
 <defs>
  <clipPath id="p7e64651816">
   <rect height="108.617143" width="148.8" x="265.92" y="41.472"/>
  </clipPath>
  <clipPath id="p5a9c7cd468">
   <rect height="108.617143" width="148.8" x="57.6" y="41.472"/>
  </clipPath>
  <clipPath id="pe07ff8beee">
   <rect height="108.617143" width="357.12" x="57.6" y="198.966857"/>
  </clipPath>
 </defs>
</svg>
