<?xml version="1.0" encoding="utf-8" standalone="no"?>
<!DOCTYPE svg PUBLIC "-//W3C//DTD SVG 1.1//EN"
  "http://www.w3.org/Graphics/SVG/1.1/DTD/svg11.dtd">
<!-- Created with matplotlib (https://matplotlib.org/) -->
<svg height="345.6pt" version="1.1" viewBox="0 0 460.8 345.6" width="460.8pt" xmlns="http://www.w3.org/2000/svg" xmlns:xlink="http://www.w3.org/1999/xlink">
 <metadata>
  <rdf:RDF xmlns:cc="http://creativecommons.org/ns#" xmlns:dc="http://purl.org/dc/elements/1.1/" xmlns:rdf="http://www.w3.org/1999/02/22-rdf-syntax-ns#">
   <cc:Work>
    <dc:type rdf:resource="http://purl.org/dc/dcmitype/StillImage"/>
    <dc:date>2021-02-24T00:20:43.315976</dc:date>
    <dc:format>image/svg+xml</dc:format>
    <dc:creator>
     <cc:Agent>
      <dc:title>Matplotlib v3.3.3, https://matplotlib.org/</dc:title>
     </cc:Agent>
    </dc:creator>
   </cc:Work>
  </rdf:RDF>
 </metadata>
 <defs>
  <style type="text/css">*{stroke-linecap:butt;stroke-linejoin:round;}</style>
 </defs>
 <g id="figure_1">
  <g id="patch_1">
   <path d="M 0 345.6 
L 460.8 345.6 
L 460.8 0 
L 0 0 
z
" style="fill:#ffffff;"/>
  </g>
  <g id="axes_1">
   <g id="patch_2">
    <path d="M 265.92 150.089143 
L 414.72 150.089143 
L 414.72 41.472 
L 265.92 41.472 
z
" style="fill:#ffffff;"/>
   </g>
   <g id="matplotlib.axis_1">
    <g id="xtick_1">
     <g id="line2d_1">
      <defs>
       <path d="M 0 0 
L 0 3.5 
" id="m2b1ce4aa5d" style="stroke:#000000;stroke-width:0.8;"/>
      </defs>
      <g>
       <use style="stroke:#000000;stroke-width:0.8;" x="326.985138" xlink:href="#m2b1ce4aa5d" y="150.089143"/>
      </g>
     </g>
     <g id="text_1">
      <!-- $\mathdefault{10^{1}}$ -->
      <g transform="translate(318.185138 164.68758)scale(0.1 -0.1)">
       <defs>
        <path d="M 14.203125 0 
L 14.203125 5.171875 
L 26.90625 5.171875 
L 26.90625 65.828125 
L 12.203125 56.296875 
L 12.203125 62.703125 
L 29.984375 74.21875 
L 36.71875 74.21875 
L 36.71875 5.171875 
L 49.421875 5.171875 
L 49.421875 0 
z
" id="DejaVuSerif-49"/>
        <path d="M 31.78125 3.421875 
Q 39.265625 3.421875 42.96875 11.625 
Q 46.6875 19.828125 46.6875 36.375 
Q 46.6875 52.984375 42.96875 61.1875 
Q 39.265625 69.390625 31.78125 69.390625 
Q 24.3125 69.390625 20.59375 61.1875 
Q 16.890625 52.984375 16.890625 36.375 
Q 16.890625 19.828125 20.59375 11.625 
Q 24.3125 3.421875 31.78125 3.421875 
z
M 31.78125 -1.421875 
Q 19.921875 -1.421875 13.25 8.53125 
Q 6.59375 18.5 6.59375 36.375 
Q 6.59375 54.296875 13.25 64.25 
Q 19.921875 74.21875 31.78125 74.21875 
Q 43.703125 74.21875 50.34375 64.25 
Q 56.984375 54.296875 56.984375 36.375 
Q 56.984375 18.5 50.34375 8.53125 
Q 43.703125 -1.421875 31.78125 -1.421875 
z
" id="DejaVuSerif-48"/>
       </defs>
       <use transform="translate(0 0.7125)" xlink:href="#DejaVuSerif-49"/>
       <use transform="translate(63.623047 0.7125)" xlink:href="#DejaVuSerif-48"/>
       <use transform="translate(128.154453 37.046875)scale(0.7)" xlink:href="#DejaVuSerif-49"/>
      </g>
     </g>
    </g>
    <g id="xtick_2">
     <g id="line2d_2">
      <g>
       <use style="stroke:#000000;stroke-width:0.8;" x="400.12039" xlink:href="#m2b1ce4aa5d" y="150.089143"/>
      </g>
     </g>
     <g id="text_2">
      <!-- $\mathdefault{10^{2}}$ -->
      <g transform="translate(391.32039 164.68758)scale(0.1 -0.1)">
       <defs>
        <path d="M 12.796875 55.515625 
L 7.328125 55.515625 
L 7.328125 68.5 
Q 12.546875 71.296875 17.84375 72.75 
Q 23.140625 74.21875 28.21875 74.21875 
Q 39.59375 74.21875 46.1875 68.703125 
Q 52.78125 63.1875 52.78125 53.71875 
Q 52.78125 43.015625 37.84375 28.125 
Q 36.671875 27 36.078125 26.421875 
L 17.671875 8.015625 
L 48.09375 8.015625 
L 48.09375 17 
L 53.8125 17 
L 53.8125 0 
L 6.78125 0 
L 6.78125 5.328125 
L 28.90625 27.390625 
Q 36.234375 34.71875 39.359375 40.84375 
Q 42.484375 46.96875 42.484375 53.71875 
Q 42.484375 61.078125 38.640625 65.234375 
Q 34.8125 69.390625 28.078125 69.390625 
Q 21.09375 69.390625 17.28125 65.921875 
Q 13.484375 62.453125 12.796875 55.515625 
z
" id="DejaVuSerif-50"/>
       </defs>
       <use transform="translate(0 0.7125)" xlink:href="#DejaVuSerif-49"/>
       <use transform="translate(63.623047 0.7125)" xlink:href="#DejaVuSerif-48"/>
       <use transform="translate(128.154453 37.046875)scale(0.7)" xlink:href="#DejaVuSerif-50"/>
      </g>
     </g>
    </g>
    <g id="xtick_3">
     <g id="line2d_3">
      <defs>
       <path d="M 0 0 
L 0 2 
" id="mcaf6581ca7" style="stroke:#000000;stroke-width:0.6;"/>
      </defs>
      <g>
       <use style="stroke:#000000;stroke-width:0.6;" x="275.86579" xlink:href="#mcaf6581ca7" y="150.089143"/>
      </g>
     </g>
    </g>
    <g id="xtick_4">
     <g id="line2d_4">
      <g>
       <use style="stroke:#000000;stroke-width:0.6;" x="288.744269" xlink:href="#mcaf6581ca7" y="150.089143"/>
      </g>
     </g>
    </g>
    <g id="xtick_5">
     <g id="line2d_5">
      <g>
       <use style="stroke:#000000;stroke-width:0.6;" x="297.881695" xlink:href="#mcaf6581ca7" y="150.089143"/>
      </g>
     </g>
    </g>
    <g id="xtick_6">
     <g id="line2d_6">
      <g>
       <use style="stroke:#000000;stroke-width:0.6;" x="304.969233" xlink:href="#mcaf6581ca7" y="150.089143"/>
      </g>
     </g>
    </g>
    <g id="xtick_7">
     <g id="line2d_7">
      <g>
       <use style="stroke:#000000;stroke-width:0.6;" x="310.760174" xlink:href="#mcaf6581ca7" y="150.089143"/>
      </g>
     </g>
    </g>
    <g id="xtick_8">
     <g id="line2d_8">
      <g>
       <use style="stroke:#000000;stroke-width:0.6;" x="315.656344" xlink:href="#mcaf6581ca7" y="150.089143"/>
      </g>
     </g>
    </g>
    <g id="xtick_9">
     <g id="line2d_9">
      <g>
       <use style="stroke:#000000;stroke-width:0.6;" x="319.8976" xlink:href="#mcaf6581ca7" y="150.089143"/>
      </g>
     </g>
    </g>
    <g id="xtick_10">
     <g id="line2d_10">
      <g>
       <use style="stroke:#000000;stroke-width:0.6;" x="323.638652" xlink:href="#mcaf6581ca7" y="150.089143"/>
      </g>
     </g>
    </g>
    <g id="xtick_11">
     <g id="line2d_11">
      <g>
       <use style="stroke:#000000;stroke-width:0.6;" x="349.001043" xlink:href="#mcaf6581ca7" y="150.089143"/>
      </g>
     </g>
    </g>
    <g id="xtick_12">
     <g id="line2d_12">
      <g>
       <use style="stroke:#000000;stroke-width:0.6;" x="361.879521" xlink:href="#mcaf6581ca7" y="150.089143"/>
      </g>
     </g>
    </g>
    <g id="xtick_13">
     <g id="line2d_13">
      <g>
       <use style="stroke:#000000;stroke-width:0.6;" x="371.016947" xlink:href="#mcaf6581ca7" y="150.089143"/>
      </g>
     </g>
    </g>
    <g id="xtick_14">
     <g id="line2d_14">
      <g>
       <use style="stroke:#000000;stroke-width:0.6;" x="378.104486" xlink:href="#mcaf6581ca7" y="150.089143"/>
      </g>
     </g>
    </g>
    <g id="xtick_15">
     <g id="line2d_15">
      <g>
       <use style="stroke:#000000;stroke-width:0.6;" x="383.895426" xlink:href="#mcaf6581ca7" y="150.089143"/>
      </g>
     </g>
    </g>
    <g id="xtick_16">
     <g id="line2d_16">
      <g>
       <use style="stroke:#000000;stroke-width:0.6;" x="388.791597" xlink:href="#mcaf6581ca7" y="150.089143"/>
      </g>
     </g>
    </g>
    <g id="xtick_17">
     <g id="line2d_17">
      <g>
       <use style="stroke:#000000;stroke-width:0.6;" x="393.032852" xlink:href="#mcaf6581ca7" y="150.089143"/>
      </g>
     </g>
    </g>
    <g id="xtick_18">
     <g id="line2d_18">
      <g>
       <use style="stroke:#000000;stroke-width:0.6;" x="396.773905" xlink:href="#mcaf6581ca7" y="150.089143"/>
      </g>
     </g>
    </g>
    <g id="text_3">
     <!-- Period d -->
     <g transform="translate(319.231719 178.365705)scale(0.1 -0.1)">
      <defs>
       <path d="M 24.703125 37.109375 
L 37.59375 37.109375 
Q 44.875 37.109375 48.671875 41.03125 
Q 52.484375 44.96875 52.484375 52.390625 
Q 52.484375 59.859375 48.671875 63.765625 
Q 44.875 67.671875 37.59375 67.671875 
L 24.703125 67.671875 
z
M 5.515625 0 
L 5.515625 5.171875 
L 14.796875 5.171875 
L 14.796875 67.671875 
L 5.515625 67.671875 
L 5.515625 72.90625 
L 39.984375 72.90625 
Q 50.921875 72.90625 57.3125 67.359375 
Q 63.71875 61.8125 63.71875 52.390625 
Q 63.71875 43.015625 57.3125 37.453125 
Q 50.921875 31.890625 39.984375 31.890625 
L 24.703125 31.890625 
L 24.703125 5.171875 
L 35.984375 5.171875 
L 35.984375 0 
z
" id="DejaVuSerif-80"/>
       <path d="M 54.203125 25 
L 15.484375 25 
L 15.484375 24.609375 
Q 15.484375 14.109375 19.4375 8.765625 
Q 23.390625 3.421875 31.109375 3.421875 
Q 37.015625 3.421875 40.796875 6.515625 
Q 44.578125 9.625 46.09375 15.71875 
L 53.328125 15.71875 
Q 51.171875 7.171875 45.375 2.875 
Q 39.59375 -1.421875 30.171875 -1.421875 
Q 18.796875 -1.421875 11.890625 6.078125 
Q 4.984375 13.578125 4.984375 25.984375 
Q 4.984375 38.28125 11.765625 45.796875 
Q 18.5625 53.328125 29.59375 53.328125 
Q 41.359375 53.328125 47.65625 46.0625 
Q 53.953125 38.8125 54.203125 25 
z
M 43.609375 30.171875 
Q 43.3125 39.265625 39.765625 43.875 
Q 36.234375 48.484375 29.59375 48.484375 
Q 23.390625 48.484375 19.828125 43.84375 
Q 16.265625 39.203125 15.484375 30.171875 
z
" id="DejaVuSerif-101"/>
       <path d="M 47.796875 52 
L 47.796875 39.015625 
L 42.625 39.015625 
Q 42.390625 42.875 40.484375 44.78125 
Q 38.578125 46.6875 34.90625 46.6875 
Q 28.265625 46.6875 24.71875 42.09375 
Q 21.1875 37.5 21.1875 28.90625 
L 21.1875 5.171875 
L 31.59375 5.171875 
L 31.59375 0 
L 4.109375 0 
L 4.109375 5.171875 
L 12.203125 5.171875 
L 12.203125 46.78125 
L 3.609375 46.78125 
L 3.609375 51.90625 
L 21.1875 51.90625 
L 21.1875 42.671875 
Q 23.828125 48.09375 27.96875 50.703125 
Q 32.125 53.328125 38.09375 53.328125 
Q 40.28125 53.328125 42.703125 52.984375 
Q 45.125 52.640625 47.796875 52 
z
" id="DejaVuSerif-114"/>
       <path d="M 9.71875 68.015625 
Q 9.71875 70.265625 11.34375 71.921875 
Q 12.984375 73.578125 15.28125 73.578125 
Q 17.53125 73.578125 19.15625 71.921875 
Q 20.796875 70.265625 20.796875 68.015625 
Q 20.796875 65.71875 19.1875 64.109375 
Q 17.578125 62.5 15.28125 62.5 
Q 12.984375 62.5 11.34375 64.109375 
Q 9.71875 65.71875 9.71875 68.015625 
z
M 21.1875 5.171875 
L 29.6875 5.171875 
L 29.6875 0 
L 3.609375 0 
L 3.609375 5.171875 
L 12.203125 5.171875 
L 12.203125 46.6875 
L 3.609375 46.6875 
L 3.609375 51.90625 
L 21.1875 51.90625 
z
" id="DejaVuSerif-105"/>
       <path d="M 30.078125 3.421875 
Q 37.3125 3.421875 40.984375 9.125 
Q 44.671875 14.84375 44.671875 25.984375 
Q 44.671875 37.109375 40.984375 42.796875 
Q 37.3125 48.484375 30.078125 48.484375 
Q 22.859375 48.484375 19.171875 42.796875 
Q 15.484375 37.109375 15.484375 25.984375 
Q 15.484375 14.84375 19.1875 9.125 
Q 22.90625 3.421875 30.078125 3.421875 
z
M 30.078125 -1.421875 
Q 18.75 -1.421875 11.859375 6.078125 
Q 4.984375 13.578125 4.984375 25.984375 
Q 4.984375 38.375 11.84375 45.84375 
Q 18.703125 53.328125 30.078125 53.328125 
Q 41.453125 53.328125 48.3125 45.84375 
Q 55.171875 38.375 55.171875 25.984375 
Q 55.171875 13.578125 48.3125 6.078125 
Q 41.453125 -1.421875 30.078125 -1.421875 
z
" id="DejaVuSerif-111"/>
       <path d="M 52.484375 5.171875 
L 61.078125 5.171875 
L 61.078125 0 
L 43.5 0 
L 43.5 8.109375 
Q 40.875 3.21875 36.796875 0.890625 
Q 32.71875 -1.421875 26.703125 -1.421875 
Q 17.140625 -1.421875 11.0625 6.171875 
Q 4.984375 13.765625 4.984375 25.984375 
Q 4.984375 38.1875 11.03125 45.75 
Q 17.09375 53.328125 26.703125 53.328125 
Q 32.71875 53.328125 36.796875 51 
Q 40.875 48.6875 43.5 43.796875 
L 43.5 70.796875 
L 35.015625 70.796875 
L 35.015625 75.984375 
L 52.484375 75.984375 
z
M 43.5 23.390625 
L 43.5 28.515625 
Q 43.5 37.84375 39.90625 42.765625 
Q 36.328125 47.703125 29.5 47.703125 
Q 22.5625 47.703125 19.015625 42.234375 
Q 15.484375 36.765625 15.484375 25.984375 
Q 15.484375 15.234375 19.015625 9.71875 
Q 22.5625 4.203125 29.5 4.203125 
Q 36.328125 4.203125 39.90625 9.109375 
Q 43.5 14.015625 43.5 23.390625 
z
" id="DejaVuSerif-100"/>
       <path id="DejaVuSerif-32"/>
      </defs>
      <use xlink:href="#DejaVuSerif-80"/>
      <use x="62.785156" xlink:href="#DejaVuSerif-101"/>
      <use x="121.964844" xlink:href="#DejaVuSerif-114"/>
      <use x="169.767578" xlink:href="#DejaVuSerif-105"/>
      <use x="201.75" xlink:href="#DejaVuSerif-111"/>
      <use x="261.955078" xlink:href="#DejaVuSerif-100"/>
      <use x="325.96875" xlink:href="#DejaVuSerif-32"/>
      <use x="357.755859" xlink:href="#DejaVuSerif-100"/>
     </g>
    </g>
   </g>
   <g id="matplotlib.axis_2">
    <g id="ytick_1">
     <g id="line2d_19">
      <defs>
       <path d="M 0 0 
L -3.5 0 
" id="m8a04e0b76e" style="stroke:#000000;stroke-width:0.8;"/>
      </defs>
      <g>
       <use style="stroke:#000000;stroke-width:0.8;" x="265.92" xlink:href="#m8a04e0b76e" y="145.164823"/>
      </g>
     </g>
     <g id="text_4">
      <!-- 0.0 -->
      <g transform="translate(243.016875 148.964042)scale(0.1 -0.1)">
       <defs>
        <path d="M 9.421875 5.078125 
Q 9.421875 7.8125 11.28125 9.71875 
Q 13.140625 11.625 15.921875 11.625 
Q 18.609375 11.625 20.5 9.71875 
Q 22.40625 7.8125 22.40625 5.078125 
Q 22.40625 2.390625 20.5 0.484375 
Q 18.609375 -1.421875 15.921875 -1.421875 
Q 13.140625 -1.421875 11.28125 0.453125 
Q 9.421875 2.34375 9.421875 5.078125 
z
" id="DejaVuSerif-46"/>
       </defs>
       <use xlink:href="#DejaVuSerif-48"/>
       <use x="63.623047" xlink:href="#DejaVuSerif-46"/>
       <use x="95.410156" xlink:href="#DejaVuSerif-48"/>
      </g>
     </g>
    </g>
    <g id="ytick_2">
     <g id="line2d_20">
      <g>
       <use style="stroke:#000000;stroke-width:0.8;" x="265.92" xlink:href="#m8a04e0b76e" y="106.222903"/>
      </g>
     </g>
     <g id="text_5">
      <!-- 0.2 -->
      <g transform="translate(243.016875 110.022122)scale(0.1 -0.1)">
       <use xlink:href="#DejaVuSerif-48"/>
       <use x="63.623047" xlink:href="#DejaVuSerif-46"/>
       <use x="95.410156" xlink:href="#DejaVuSerif-50"/>
      </g>
     </g>
    </g>
    <g id="ytick_3">
     <g id="line2d_21">
      <g>
       <use style="stroke:#000000;stroke-width:0.8;" x="265.92" xlink:href="#m8a04e0b76e" y="67.280984"/>
      </g>
     </g>
     <g id="text_6">
      <!-- 0.4 -->
      <g transform="translate(243.016875 71.080202)scale(0.1 -0.1)">
       <defs>
        <path d="M 34.90625 24.703125 
L 34.90625 63.484375 
L 10.015625 24.703125 
z
M 56.390625 0 
L 23.1875 0 
L 23.1875 5.171875 
L 34.90625 5.171875 
L 34.90625 19.484375 
L 3.078125 19.484375 
L 3.078125 24.8125 
L 35.015625 74.21875 
L 44.671875 74.21875 
L 44.671875 24.703125 
L 58.59375 24.703125 
L 58.59375 19.484375 
L 44.671875 19.484375 
L 44.671875 5.171875 
L 56.390625 5.171875 
z
" id="DejaVuSerif-52"/>
       </defs>
       <use xlink:href="#DejaVuSerif-48"/>
       <use x="63.623047" xlink:href="#DejaVuSerif-46"/>
       <use x="95.410156" xlink:href="#DejaVuSerif-52"/>
      </g>
     </g>
    </g>
    <g id="text_7">
     <!-- Power -->
     <g transform="translate(236.937188 111.583696)rotate(-90)scale(0.1 -0.1)">
      <defs>
       <path d="M 48 51.90625 
L 61.28125 11.375 
L 73 46.6875 
L 65.484375 46.6875 
L 65.484375 51.90625 
L 84.28125 51.90625 
L 84.28125 46.6875 
L 78.515625 46.6875 
L 63.09375 0 
L 55.609375 0 
L 42.828125 38.8125 
L 29.984375 0 
L 22.796875 0 
L 7.421875 46.6875 
L 1.609375 46.6875 
L 1.609375 51.90625 
L 25.09375 51.90625 
L 25.09375 46.6875 
L 16.703125 46.6875 
L 28.328125 11.375 
L 41.703125 51.90625 
z
" id="DejaVuSerif-119"/>
      </defs>
      <use xlink:href="#DejaVuSerif-80"/>
      <use x="63.285156" xlink:href="#DejaVuSerif-111"/>
      <use x="123.490234" xlink:href="#DejaVuSerif-119"/>
      <use x="209.085938" xlink:href="#DejaVuSerif-101"/>
      <use x="268.265625" xlink:href="#DejaVuSerif-114"/>
     </g>
    </g>
   </g>
   <g id="LineCollection_1">
    <path clip-path="url(#p0e95e0d9df)" d="M 272.695273 54.304497 
L 407.956364 54.304497 
" style="fill:none;stroke:#808080;stroke-dasharray:5.55,2.4;stroke-dashoffset:0;stroke-width:1.5;"/>
   </g>
   <g id="LineCollection_2">
    <path clip-path="url(#p0e95e0d9df)" d="M 272.695273 67.104623 
L 407.956364 67.104623 
" style="fill:none;stroke:#a9a9a9;stroke-dasharray:5.55,2.4;stroke-dashoffset:0;stroke-width:1.5;"/>
   </g>
   <g id="LineCollection_3">
    <path clip-path="url(#p0e95e0d9df)" d="M 272.695273 77.183152 
L 407.956364 77.183152 
" style="fill:none;stroke:#c0c0c0;stroke-dasharray:5.55,2.4;stroke-dashoffset:0;stroke-width:1.5;"/>
   </g>
   <g id="LineCollection_4">
    <path clip-path="url(#p0e95e0d9df)" d="M 272.695273 81.943848 
L 407.956364 81.943848 
" style="fill:none;stroke:#d3d3d3;stroke-dasharray:5.55,2.4;stroke-dashoffset:0;stroke-width:1.5;"/>
   </g>
   <g id="line2d_22">
    <path clip-path="url(#p0e95e0d9df)" d="M 407.956364 99.753906 
L 405.906476 89.727063 
L 403.980902 102.044475 
L 402.165423 137.39949 
L 400.448127 138.565945 
L 398.818938 112.48227 
L 397.269253 83.71187 
L 395.791673 68.622735 
L 394.379786 91.250704 
L 393.027997 137.70849 
L 391.731399 134.312812 
L 390.485662 104.004008 
L 389.286945 79.398975 
L 388.131827 68.276792 
L 387.017248 100.577974 
L 385.940459 141.5853 
L 384.898981 113.274752 
L 383.890571 94.923558 
L 382.913194 81.456215 
L 381.964998 81.837451 
L 381.044289 124.505037 
L 380.149518 135.006966 
L 379.279266 101.393893 
L 378.432223 92.616791 
L 377.607183 89.146478 
L 376.803033 100.220236 
L 376.01874 129.053331 
L 375.253348 140.699002 
L 374.505967 125.644004 
L 373.775768 120.569525 
L 373.06198 120.570972 
L 372.363881 114.226569 
L 371.680796 120.256808 
L 371.012092 135.428658 
L 370.357178 133.359258 
L 369.715495 132.641895 
L 368.469757 101.406604 
L 367.864744 114.170406 
L 367.27104 133.393106 
L 366.68823 128.219588 
L 365.553744 96.740813 
L 365.001343 87.782422 
L 364.458386 108.750415 
L 363.924554 136.46833 
L 363.399547 121.38916 
L 362.883076 101.566077 
L 362.374869 90.310377 
L 361.874666 90.863947 
L 361.382219 112.438855 
L 360.89729 127.277036 
L 359.949093 100.185421 
L 359.485402 105.829518 
L 359.028384 123.854509 
L 358.577848 127.45841 
L 358.133614 127.835931 
L 357.695507 101.122477 
L 357.263361 84.452072 
L 356.837016 97.086092 
L 356.416318 124.328707 
L 356.001119 142.850893 
L 355.591278 132.199835 
L 355.186658 106.067977 
L 354.787128 93.749177 
L 354.392561 89.177236 
L 354.002836 102.093097 
L 353.617834 135.493452 
L 353.237443 139.361519 
L 352.490062 78.810571 
L 352.122865 72.798642 
L 351.759864 92.793519 
L 351.400965 131.569242 
L 351.046076 135.811735 
L 350.695108 75.459324 
L 350.347976 46.409143 
L 350.004597 55.553502 
L 349.32878 134.058416 
L 348.996188 138.700195 
L 348.341273 57.028257 
L 348.018811 63.768111 
L 347.383545 126.693508 
L 347.070614 135.54774 
L 346.760736 129.482303 
L 346.453852 117.095777 
L 346.149905 116.533622 
L 345.848839 112.260424 
L 345.5506 111.95402 
L 345.255135 128.505431 
L 344.962394 135.736276 
L 344.672325 131.022411 
L 344.100017 119.960507 
L 343.817685 123.775918 
L 343.537839 137.02359 
L 343.260438 127.195998 
L 342.985439 94.20539 
L 342.7128 88.888637 
L 341.908649 143.016871 
L 341.383642 71.331925 
L 341.124357 65.823025 
L 340.867171 87.386691 
L 340.612052 127.983645 
L 340.358965 142.212465 
L 339.858762 81.952553 
L 339.611584 76.296906 
L 339.366314 98.089605 
L 339.122924 131.517613 
L 338.881385 141.387917 
L 338.403748 102.799425 
L 338.167597 104.346529 
L 337.700497 128.123299 
L 337.469498 140.71371 
L 337.240166 138.230343 
L 336.561943 108.134187 
L 336.33905 117.159216 
L 336.117709 134.343186 
L 335.8979 139.933768 
L 335.462794 118.113322 
L 335.247456 104.808095 
L 335.033568 112.045957 
L 334.821111 123.578214 
L 334.610066 112.863769 
L 334.400413 115.208311 
L 334.192135 126.856778 
L 333.779633 126.264808 
L 333.372419 83.335494 
L 333.170754 89.11528 
L 332.771223 135.102597 
L 332.573327 134.173058 
L 332.181196 97.246551 
L 331.986931 93.984486 
L 331.601929 131.154821 
L 331.411165 135.28607 
L 331.221539 132.338508 
L 331.033038 119.549674 
L 330.84565 115.244983 
L 330.474157 122.880013 
L 330.10696 140.54285 
L 329.743959 102.882043 
L 329.564002 100.629639 
L 329.38506 112.761457 
L 329.20712 133.933133 
L 329.030171 140.792259 
L 328.679203 92.386514 
L 328.505163 86.684463 
L 328.159918 133.821501 
L 327.988693 128.340176 
L 327.648986 99.590402 
L 327.480486 104.687984 
L 327.312875 129.196643 
L 327.146144 132.858478 
L 326.815284 90.828559 
L 326.651138 89.330554 
L 326.325368 139.657402 
L 326.163728 136.914464 
L 325.842895 110.842219 
L 325.683685 110.26024 
L 325.36764 130.693292 
L 325.054709 141.263119 
L 324.899393 132.22323 
L 324.591019 105.674602 
L 324.437948 115.02451 
L 324.134 143.420379 
L 323.983111 130.584772 
L 323.683465 87.296779 
L 323.534695 103.527134 
L 323.23923 140.17171 
L 323.092522 127.99869 
L 322.801124 87.219928 
L 322.368978 134.433592 
L 322.226226 132.657767 
L 322.084113 121.864476 
L 321.942633 120.824861 
L 321.661549 110.816822 
L 321.244533 139.776486 
L 320.832922 118.639288 
L 320.561448 137.951645 
L 320.426576 136.624519 
L 320.158539 125.037066 
L 320.025364 127.660026 
L 319.892745 132.718544 
L 319.760677 132.815877 
L 319.498178 117.585177 
L 318.979599 124.682095 
L 318.851267 123.889419 
L 318.596147 124.963445 
L 318.34306 97.858717 
L 317.967171 139.028377 
L 317.595679 101.885258 
L 317.228481 140.292052 
L 316.98602 114.96386 
L 316.86548 121.408302 
L 316.625764 139.792581 
L 316.269548 123.955752 
L 316.034272 135.109407 
L 315.800725 124.661689 
L 315.684592 125.973607 
L 315.568882 131.352078 
L 315.453593 127.362558 
L 315.224262 113.369299 
L 314.996574 133.340426 
L 314.88334 131.227575 
L 314.658075 109.217725 
L 314.546039 110.091144 
L 314.323145 136.550839 
L 314.101804 109.359058 
L 313.99171 115.093705 
L 313.772659 140.97649 
L 313.555109 125.841051 
L 313.44689 119.434823 
L 313.124428 140.183921 
L 313.017664 139.591018 
L 312.699508 130.050271 
L 312.489162 123.240177 
L 312.280199 142.015536 
L 312.176231 137.431012 
L 311.866353 101.258098 
L 311.559469 136.803538 
L 311.45783 133.662604 
L 311.154849 113.403262 
L 311.054494 114.721544 
L 310.854731 140.373233 
L 310.755319 137.761056 
L 310.557423 106.439082 
L 310.458935 112.983196 
L 310.262871 144.450825 
L 310.165291 137.626351 
L 309.971026 109.338307 
L 309.681838 144.45094 
L 309.490499 124.573586 
L 309.39526 125.189628 
L 309.300305 128.999335 
L 309.017133 125.604099 
L 308.923301 129.164235 
L 308.829745 138.308872 
L 308.550719 116.233135 
L 308.458253 117.211149 
L 308.274123 130.098688 
L 308.182457 121.611584 
L 308.091055 123.350852 
L 307.909036 139.639748 
L 307.637949 103.698476 
L 307.369155 144.341268 
L 307.102617 113.277808 
L 306.92616 142.648334 
L 306.838298 141.812697 
L 306.663299 118.921989 
L 306.576159 119.092602 
L 306.402595 141.559903 
L 306.316167 139.660813 
L 306.144013 125.439587 
L 306.058285 114.701806 
L 305.972788 117.918407 
L 305.717668 141.277745 
L 305.633082 138.198308 
L 305.380665 110.942904 
L 305.130239 140.620876 
L 305.0472 139.983834 
L 304.881772 135.022793 
L 304.799379 132.989845 
L 304.7172 126.898185 
L 304.471931 144.306704 
L 304.390593 141.917257 
L 304.228541 130.323438 
L 303.987002 141.920958 
L 303.82699 134.41655 
L 303.747285 136.933773 
L 303.66778 136.682839 
L 303.430453 127.412479 
L 303.273213 138.536158 
L 303.116749 122.476119 
L 303.038805 123.205533 
L 302.883488 140.12425 
L 302.806113 138.68257 
L 302.651927 118.942992 
L 302.575114 121.370718 
L 302.422043 142.749068 
L 302.269706 132.770498 
L 302.19381 134.754886 
L 302.118096 142.170995 
L 302.042561 141.90426 
L 301.892029 125.925269 
L 301.81703 128.737123 
L 301.66756 144.34354 
L 301.444666 117.966875 
L 301.370714 122.023872 
L 301.223326 142.074091 
L 300.857818 120.717274 
L 300.785219 121.814746 
L 300.568411 141.946709 
L 300.42469 119.834068 
L 300.353073 121.545786 
L 300.210321 142.743872 
L 300.139185 141.199969 
L 299.997389 122.544893 
L 299.785875 145.033553 
L 299.57576 133.336251 
L 299.297752 144.186687 
L 299.159655 135.399682 
L 299.090831 129.25812 
L 299.022156 130.484828 
L 298.88525 142.209419 
L 298.68099 129.235063 
L 298.545543 143.014188 
L 298.478036 141.069703 
L 298.34345 119.193771 
L 298.27637 120.803933 
L 298.075977 144.103355 
L 297.94308 133.052898 
L 297.87684 133.731101 
L 297.613251 144.990851 
L 297.547695 143.694834 
L 297.416986 132.12326 
L 297.351832 135.273982 
L 297.221925 144.990321 
L 297.028056 126.988748 
L 296.899463 144.62886 
L 296.835362 140.887874 
L 296.64383 115.420287 
L 296.516781 144.457425 
L 296.453447 141.33326 
L 296.327155 123.975068 
L 296.264197 128.478729 
L 296.201364 140.754589 
L 296.138655 140.137103 
L 296.013606 135.537189 
L 295.826952 143.957972 
L 295.703123 139.299936 
L 295.579774 142.113902 
L 295.518279 141.249469 
L 295.456903 141.36624 
L 295.334505 144.854761 
L 295.212576 133.533627 
L 295.151788 129.087738 
L 295.091115 132.692405 
L 294.970115 143.601337 
L 294.909788 141.215358 
L 294.789477 134.898115 
L 294.729491 139.444235 
L 294.669619 138.045935 
L 294.490676 131.355717 
L 294.371939 144.701666 
L 294.312736 140.461983 
L 294.194661 131.646108 
L 294.018367 144.621667 
L 293.959819 143.222362 
L 293.843046 141.50018 
L 293.7267 144.778745 
L 293.668687 144.450754 
L 293.552978 142.311873 
L 293.437688 140.138834 
L 293.322816 145.10668 
L 293.265535 142.882594 
L 293.094309 124.302674 
L 292.98067 143.716838 
L 292.924002 143.028381 
L 292.810969 125.395067 
L 292.754603 126.960246 
L 292.64217 145.044089 
L 292.586103 141.590459 
L 292.474264 129.791244 
L 292.30724 144.496344 
L 292.25176 140.969788 
L 292.196377 136.77027 
L 292.14109 136.888832 
L 291.975805 145.11138 
L 291.920901 144.416488 
L 291.756754 133.481175 
L 291.702227 136.527502 
L 291.593452 144.139266 
L 291.430985 122.49955 
L 291.269345 143.393496 
L 291.108523 120.481929 
L 291.001759 143.454322 
L 290.948511 143.07101 
L 290.842283 126.359935 
L 290.789302 130.358328 
L 290.630886 144.772884 
L 290.525713 143.295936 
L 290.473257 144.137403 
L 290.420887 143.847299 
L 290.368604 143.561004 
L 290.316406 143.672653 
L 290.212268 144.61287 
L 290.160326 143.809692 
L 290.108469 143.943555 
L 290.056697 144.714755 
L 290.005009 144.057971 
L 289.901885 134.326328 
L 289.850448 134.659562 
L 289.747824 144.446857 
L 289.696636 143.710492 
L 289.594506 131.563734 
L 289.543564 133.635541 
L 289.391227 143.889135 
L 289.290073 138.671976 
L 289.138944 144.616681 
L 289.088727 143.964577 
L 289.03859 142.868282 
L 288.988531 143.083441 
L 288.838826 144.480128 
L 288.789081 144.920052 
L 288.689824 142.189949 
L 288.640312 141.043268 
L 288.590876 142.240083 
L 288.492236 144.462693 
L 288.393901 137.936654 
L 288.344847 139.328413 
L 288.246966 144.811721 
L 288.100709 129.502102 
L 288.003576 142.557003 
L 287.955121 141.827316 
L 287.858433 123.386389 
L 287.810198 125.107701 
L 287.665934 143.880409 
L 287.57012 137.774108 
L 287.522321 139.971737 
L 287.426939 145.13955 
L 287.379355 144.922628 
L 287.23703 144.042812 
L 287.189729 143.226614 
L 287.142499 143.751638 
L 287.095339 145.023623 
L 287.048249 143.848088 
L 286.954278 132.148789 
L 286.907396 132.649093 
L 286.81384 143.984045 
L 286.767166 142.849038 
L 286.674021 129.508008 
L 286.627551 130.30507 
L 286.488548 144.391313 
L 286.396216 137.371657 
L 286.35015 139.602554 
L 286.258219 144.66442 
L 286.212353 143.624672 
L 286.120819 141.327195 
L 285.984011 145.097502 
L 285.938538 144.872018 
L 285.802512 142.438775 
L 285.757298 143.537196 
L 285.71215 143.894497 
L 285.577087 135.768436 
L 285.532193 138.248894 
L 285.442596 144.545658 
L 285.397892 140.853024 
L 285.308672 134.786985 
L 285.17531 144.838416 
L 285.13098 141.922998 
L 285.086713 139.391187 
L 285.042506 140.640836 
L 284.954278 144.417788 
L 284.910255 143.041603 
L 284.866294 142.513392 
L 284.778553 144.652556 
L 284.734773 143.447829 
L 284.647394 139.342916 
L 284.603794 140.328593 
L 284.560255 141.210074 
L 284.516774 140.529819 
L 284.473354 139.126341 
L 284.429992 139.260452 
L 284.343447 145.001377 
L 284.300262 144.619148 
L 284.257136 143.488011 
L 284.214069 143.730587 
L 284.17106 144.86866 
L 284.128109 143.243888 
L 284.042381 130.879514 
L 283.999603 132.307872 
L 283.914221 144.229203 
L 283.871615 141.196815 
L 283.786576 127.385587 
L 283.744141 131.243056 
L 283.659442 144.691666 
L 283.617177 143.090563 
L 283.532815 135.801902 
L 283.490718 139.796104 
L 283.406691 144.958752 
L 283.36476 143.852487 
L 283.322885 143.190139 
L 283.281065 144.105544 
L 283.19759 145.003615 
L 283.155935 144.504844 
L 283.114334 144.50922 
L 283.072788 144.78151 
L 282.824644 140.152573 
L 282.783475 140.744844 
L 282.701295 145.003902 
L 282.660285 142.898733 
L 282.578424 129.007984 
L 282.537572 130.525614 
L 282.415331 144.507293 
L 282.374689 141.138061 
L 282.334098 137.407066 
L 282.293559 137.941049 
L 282.091637 145.055824 
L 281.971097 142.050211 
L 281.931018 142.92771 
L 281.89099 143.762827 
L 281.771208 138.584283 
L 281.731381 140.66393 
L 281.691603 144.303232 
L 281.651876 143.557062 
L 281.572569 135.384948 
L 281.53299 135.51214 
L 281.45398 145.099234 
L 281.414548 143.263447 
L 281.335831 138.751283 
L 281.296546 141.150671 
L 281.257309 144.946933 
L 281.21812 142.679287 
L 281.139888 135.028094 
L 281.100844 139.433669 
L 281.061848 143.081105 
L 281.0229 142.693093 
L 280.945147 136.889784 
L 280.906341 138.537252 
L 280.828872 143.883605 
L 280.790209 142.928324 
L 280.751592 142.698805 
L 280.674499 145.089411 
L 280.559209 138.547715 
L 280.520872 140.555808 
L 280.482582 144.484435 
L 280.444337 144.318548 
L 280.329878 136.360078 
L 280.291817 138.410427 
L 280.140026 143.651102 
L 280.102191 142.932901 
L 280.026656 138.351228 
L 279.988957 139.563846 
L 279.913691 144.409353 
L 279.876124 144.033466 
L 279.801125 140.100487 
L 279.763691 142.997908 
L 279.726302 144.956365 
L 279.688957 144.018557 
L 279.614397 140.867676 
L 279.577183 142.007199 
L 279.540013 144.733995 
L 279.465802 143.239471 
L 279.428761 142.66009 
L 279.391764 143.198238 
L 279.35481 143.989723 
L 279.317898 142.783702 
L 279.28103 141.387124 
L 279.244204 142.078905 
L 279.207421 143.431287 
L 279.133982 142.183622 
L 279.097326 141.837329 
L 279.024141 143.942122 
L 278.951125 134.300607 
L 278.914679 125.629014 
L 278.878276 127.945984 
L 278.805593 140.967842 
L 278.769314 137.111993 
L 278.69688 126.439409 
L 278.660725 129.137297 
L 278.516515 141.700753 
L 278.444655 144.372909 
L 278.372957 138.039943 
L 278.30142 141.166609 
L 278.265712 143.924197 
L 278.230044 139.85207 
L 278.158828 130.944577 
L 278.12328 133.698189 
L 278.052303 144.862896 
L 277.981484 140.685438 
L 277.946134 138.996462 
L 277.875551 140.203319 
L 277.840319 139.585951 
L 277.76997 144.831347 
L 277.734855 142.759518 
L 277.62974 131.000551 
L 277.594778 137.506378 
L 277.559856 140.317903 
L 277.524971 134.836997 
L 277.420547 125.228145 
L 277.351122 139.381379 
L 277.316466 134.45873 
L 277.281847 132.479046 
L 277.247267 135.285592 
L 277.178218 143.928631 
L 277.074927 143.129014 
L 277.006251 141.406752 
L 276.971969 142.282043 
L 276.903516 132.668125 
L 276.869345 135.024809 
L 276.767051 144.263108 
L 276.733026 143.802206 
L 276.63117 126.674602 
L 276.59729 127.120279 
L 276.529639 141.545498 
L 276.495867 137.839996 
L 276.428431 131.23823 
L 276.394767 134.926396 
L 276.361138 140.13297 
L 276.327545 136.087419 
L 276.260466 132.648522 
L 276.226979 135.260056 
L 276.160111 143.033866 
L 276.12673 140.096746 
L 276.026796 138.388289 
L 275.993554 138.415926 
L 275.894038 144.327542 
L 275.794833 123.590465 
L 275.761833 134.406295 
L 275.663039 143.923715 
L 275.597347 143.655828 
L 275.564551 145.152 
L 275.53179 143.074359 
L 275.433708 132.432234 
L 275.401081 136.339676 
L 275.368488 136.954821 
L 275.303401 128.953671 
L 275.270908 132.180025 
L 275.206021 141.035361 
L 275.173627 136.47684 
L 275.141266 128.505509 
L 275.076643 135.582402 
L 275.012151 144.811731 
L 274.979954 138.167223 
L 274.94779 132.465085 
L 274.883559 136.286615 
L 274.819457 141.825606 
L 274.787455 144.61331 
L 274.723547 141.337373 
L 274.659767 134.077903 
L 274.627926 138.078949 
L 274.564337 144.192736 
L 274.500876 142.495191 
L 274.437542 145.034847 
L 274.311251 132.820389 
L 274.279756 138.364104 
L 274.248293 139.203797 
L 274.185459 124.642699 
L 274.154089 129.722812 
L 274.060164 145.061405 
L 274.028918 141.891352 
L 273.904238 136.264356 
L 273.811048 143.857016 
L 273.780045 141.437265 
L 273.71813 134.098698 
L 273.687218 137.596077 
L 273.625484 143.842399 
L 273.594662 137.891198 
L 273.533107 131.014769 
L 273.502374 136.537325 
L 273.471671 141.977644 
L 273.37974 138.647428 
L 273.3186 143.800275 
L 273.288074 140.30686 
L 273.257577 137.595312 
L 273.196672 140.853016 
L 273.166263 143.061653 
L 273.105532 127.638999 
L 273.044917 133.431765 
L 272.984417 145.013963 
L 272.924033 141.058999 
L 272.893884 140.793579 
L 272.863763 142.092326 
L 272.833671 141.30563 
L 272.773572 139.070961 
L 272.743565 141.40512 
L 272.683636 144.835673 
L 272.683636 144.835673 
" style="fill:none;stroke:#1f77b4;stroke-linecap:square;stroke-width:1.5;"/>
   </g>
   <g id="patch_3">
    <path d="M 265.92 150.089143 
L 265.92 41.472 
" style="fill:none;stroke:#000000;stroke-linecap:square;stroke-linejoin:miter;stroke-width:0.8;"/>
   </g>
   <g id="patch_4">
    <path d="M 414.72 150.089143 
L 414.72 41.472 
" style="fill:none;stroke:#000000;stroke-linecap:square;stroke-linejoin:miter;stroke-width:0.8;"/>
   </g>
   <g id="patch_5">
    <path d="M 265.92 150.089143 
L 414.72 150.089143 
" style="fill:none;stroke:#000000;stroke-linecap:square;stroke-linejoin:miter;stroke-width:0.8;"/>
   </g>
   <g id="patch_6">
    <path d="M 265.92 41.472 
L 414.72 41.472 
" style="fill:none;stroke:#000000;stroke-linecap:square;stroke-linejoin:miter;stroke-width:0.8;"/>
   </g>
   <g id="text_8">
    <!-- Periodogram -->
    <g transform="translate(307.698125 35.472)scale(0.1 -0.1)">
     <defs>
      <path d="M 52.484375 46.6875 
L 52.484375 1.125 
Q 52.484375 -10.0625 46.328125 -16.140625 
Q 40.1875 -22.21875 28.8125 -22.21875 
Q 23.6875 -22.21875 19 -21.28125 
Q 14.3125 -20.359375 10.015625 -18.5 
L 10.015625 -7.625 
L 14.703125 -7.625 
Q 15.578125 -12.703125 18.84375 -15.046875 
Q 22.125 -17.390625 28.21875 -17.390625 
Q 36.140625 -17.390625 39.8125 -12.921875 
Q 43.5 -8.453125 43.5 1.125 
L 43.5 8.109375 
Q 40.875 3.21875 36.796875 0.890625 
Q 32.71875 -1.421875 26.703125 -1.421875 
Q 17.140625 -1.421875 11.0625 6.171875 
Q 4.984375 13.765625 4.984375 25.984375 
Q 4.984375 38.1875 11.03125 45.75 
Q 17.09375 53.328125 26.703125 53.328125 
Q 32.71875 53.328125 36.796875 51 
Q 40.875 48.6875 43.5 43.796875 
L 43.5 51.90625 
L 61.078125 51.90625 
L 61.078125 46.6875 
z
M 43.5 28.515625 
Q 43.5 37.84375 39.90625 42.765625 
Q 36.328125 47.703125 29.5 47.703125 
Q 22.5625 47.703125 19.015625 42.234375 
Q 15.484375 36.765625 15.484375 25.984375 
Q 15.484375 15.234375 19.015625 9.71875 
Q 22.5625 4.203125 29.5 4.203125 
Q 36.328125 4.203125 39.90625 9.109375 
Q 43.5 14.015625 43.5 23.390625 
z
" id="DejaVuSerif-103"/>
      <path d="M 39.796875 16.3125 
L 39.796875 27.296875 
L 28.21875 27.296875 
Q 21.53125 27.296875 18.25 24.40625 
Q 14.984375 21.53125 14.984375 15.578125 
Q 14.984375 10.15625 18.296875 6.984375 
Q 21.625 3.8125 27.296875 3.8125 
Q 32.90625 3.8125 36.34375 7.28125 
Q 39.796875 10.75 39.796875 16.3125 
z
M 48.78125 32.421875 
L 48.78125 5.171875 
L 56.78125 5.171875 
L 56.78125 0 
L 39.796875 0 
L 39.796875 5.609375 
Q 36.8125 2 32.90625 0.28125 
Q 29 -1.421875 23.78125 -1.421875 
Q 15.140625 -1.421875 10.0625 3.171875 
Q 4.984375 7.765625 4.984375 15.578125 
Q 4.984375 23.640625 10.796875 28.078125 
Q 16.609375 32.515625 27.203125 32.515625 
L 39.796875 32.515625 
L 39.796875 36.078125 
Q 39.796875 42 36.203125 45.234375 
Q 32.625 48.484375 26.125 48.484375 
Q 20.75 48.484375 17.578125 46.046875 
Q 14.40625 43.609375 13.625 38.8125 
L 8.984375 38.8125 
L 8.984375 49.3125 
Q 13.671875 51.3125 18.09375 52.3125 
Q 22.515625 53.328125 26.703125 53.328125 
Q 37.5 53.328125 43.140625 47.96875 
Q 48.78125 42.625 48.78125 32.421875 
z
" id="DejaVuSerif-97"/>
      <path d="M 51.8125 41.796875 
Q 54.390625 47.515625 58.421875 50.421875 
Q 62.453125 53.328125 67.828125 53.328125 
Q 75.984375 53.328125 79.984375 48.265625 
Q 83.984375 43.21875 83.984375 33.015625 
L 83.984375 5.171875 
L 92.09375 5.171875 
L 92.09375 0 
L 67.1875 0 
L 67.1875 5.171875 
L 75 5.171875 
L 75 31.984375 
Q 75 39.9375 72.65625 43.3125 
Q 70.3125 46.6875 64.890625 46.6875 
Q 58.890625 46.6875 55.734375 42.140625 
Q 52.59375 37.59375 52.59375 28.90625 
L 52.59375 5.171875 
L 60.40625 5.171875 
L 60.40625 0 
L 35.796875 0 
L 35.796875 5.171875 
L 43.609375 5.171875 
L 43.609375 32.328125 
Q 43.609375 40.09375 41.265625 43.390625 
Q 38.921875 46.6875 33.5 46.6875 
Q 27.484375 46.6875 24.328125 42.140625 
Q 21.1875 37.59375 21.1875 28.90625 
L 21.1875 5.171875 
L 29 5.171875 
L 29 0 
L 4.109375 0 
L 4.109375 5.171875 
L 12.203125 5.171875 
L 12.203125 46.78125 
L 3.609375 46.78125 
L 3.609375 51.90625 
L 21.1875 51.90625 
L 21.1875 42.671875 
Q 23.6875 47.859375 27.53125 50.59375 
Q 31.390625 53.328125 36.28125 53.328125 
Q 42.328125 53.328125 46.375 50.3125 
Q 50.4375 47.3125 51.8125 41.796875 
z
" id="DejaVuSerif-109"/>
     </defs>
     <use xlink:href="#DejaVuSerif-80"/>
     <use x="62.785156" xlink:href="#DejaVuSerif-101"/>
     <use x="121.964844" xlink:href="#DejaVuSerif-114"/>
     <use x="169.767578" xlink:href="#DejaVuSerif-105"/>
     <use x="201.75" xlink:href="#DejaVuSerif-111"/>
     <use x="261.955078" xlink:href="#DejaVuSerif-100"/>
     <use x="325.96875" xlink:href="#DejaVuSerif-111"/>
     <use x="386.173828" xlink:href="#DejaVuSerif-103"/>
     <use x="450.1875" xlink:href="#DejaVuSerif-114"/>
     <use x="497.990234" xlink:href="#DejaVuSerif-97"/>
     <use x="557.609375" xlink:href="#DejaVuSerif-109"/>
    </g>
   </g>
   <g id="legend_1">
    <g id="patch_7">
     <path d="M 419.648125 108.123071 
L 454.431875 108.123071 
Q 455.231875 108.123071 455.231875 107.323071 
L 455.231875 84.238071 
Q 455.231875 83.438071 454.431875 83.438071 
L 419.648125 83.438071 
Q 418.848125 83.438071 418.848125 84.238071 
L 418.848125 107.323071 
Q 418.848125 108.123071 419.648125 108.123071 
z
" style="fill:#ffffff;opacity:0.8;stroke:#cccccc;stroke-linejoin:miter;"/>
    </g>
    <g id="line2d_23">
     <path d="M 420.448125 86.677446 
L 428.448125 86.677446 
" style="fill:none;stroke:#808080;stroke-dasharray:5.55,2.4;stroke-dashoffset:0;stroke-width:1.5;"/>
    </g>
    <g id="text_9">
     <!-- 99.9% FAP -->
     <g transform="translate(431.648125 88.077446)scale(0.04 -0.04)">
      <defs>
       <path d="M 46.78125 32.671875 
Q 43.5 29 39.25 27.1875 
Q 35.015625 25.390625 29.6875 25.390625 
Q 18.84375 25.390625 12.5625 31.9375 
Q 6.296875 38.484375 6.296875 49.8125 
Q 6.296875 60.890625 13.109375 67.546875 
Q 19.921875 74.21875 31.296875 74.21875 
Q 43.65625 74.21875 50.265625 65.015625 
Q 56.890625 55.8125 56.890625 38.71875 
Q 56.890625 19.578125 49.015625 9.078125 
Q 41.15625 -1.421875 26.90625 -1.421875 
Q 23.046875 -1.421875 18.796875 -0.6875 
Q 14.546875 0.046875 10.109375 1.515625 
L 10.109375 13.625 
L 15.578125 13.625 
Q 16.21875 8.6875 19.390625 6.046875 
Q 22.5625 3.421875 27.875 3.421875 
Q 37.359375 3.421875 41.984375 10.5625 
Q 46.625 17.71875 46.78125 32.671875 
z
M 30.90625 69.390625 
Q 23.96875 69.390625 20.28125 64.328125 
Q 16.609375 59.28125 16.609375 49.8125 
Q 16.609375 40.328125 20.28125 35.25 
Q 23.96875 30.171875 30.90625 30.171875 
Q 37.84375 30.171875 41.53125 35.078125 
Q 45.21875 39.984375 45.21875 49.21875 
Q 45.21875 58.9375 41.5 64.15625 
Q 37.796875 69.390625 30.90625 69.390625 
z
" id="DejaVuSerif-57"/>
       <path d="M 22.40625 69.671875 
Q 18.109375 69.671875 15.6875 65.625 
Q 13.28125 61.578125 13.28125 54.296875 
Q 13.28125 47.125 15.75 43.015625 
Q 18.21875 38.921875 22.40625 38.921875 
Q 26.5625 38.921875 28.96875 43 
Q 31.390625 47.078125 31.390625 54.296875 
Q 31.390625 61.53125 28.96875 65.59375 
Q 26.5625 69.671875 22.40625 69.671875 
z
M 72.703125 33.890625 
Q 68.453125 33.890625 66.03125 29.78125 
Q 63.625 25.6875 63.625 18.40625 
Q 63.625 11.234375 66.0625 7.15625 
Q 68.5 3.078125 72.703125 3.078125 
Q 76.90625 3.078125 79.296875 7.15625 
Q 81.6875 11.234375 81.6875 18.40625 
Q 81.6875 25.640625 79.265625 29.765625 
Q 76.859375 33.890625 72.703125 33.890625 
z
M 72.703125 38.28125 
Q 80.421875 38.28125 84.953125 32.90625 
Q 89.5 27.546875 89.5 18.40625 
Q 89.5 9.28125 84.9375 3.921875 
Q 80.375 -1.421875 72.703125 -1.421875 
Q 64.890625 -1.421875 60.34375 3.921875 
Q 55.8125 9.28125 55.8125 18.40625 
Q 55.8125 27.59375 60.375 32.9375 
Q 64.9375 38.28125 72.703125 38.28125 
z
M 66.609375 74.21875 
L 74.03125 74.21875 
L 28.421875 -1.421875 
L 21 -1.421875 
z
M 22.3125 74.21875 
Q 30.03125 74.21875 34.609375 68.875 
Q 39.203125 63.53125 39.203125 54.390625 
Q 39.203125 45.171875 34.640625 39.84375 
Q 30.078125 34.515625 22.3125 34.515625 
Q 14.546875 34.515625 10.03125 39.859375 
Q 5.515625 45.21875 5.515625 54.390625 
Q 5.515625 63.484375 10.046875 68.84375 
Q 14.59375 74.21875 22.3125 74.21875 
z
" id="DejaVuSerif-37"/>
       <path d="M 5.515625 0 
L 5.515625 5.171875 
L 14.796875 5.171875 
L 14.796875 67.671875 
L 5.515625 67.671875 
L 5.515625 72.90625 
L 65.1875 72.90625 
L 65.1875 56.6875 
L 59.1875 56.6875 
L 59.1875 66.890625 
L 24.703125 66.890625 
L 24.703125 42.484375 
L 49.609375 42.484375 
L 49.609375 51.609375 
L 55.609375 51.609375 
L 55.609375 27.390625 
L 49.609375 27.390625 
L 49.609375 36.53125 
L 24.703125 36.53125 
L 24.703125 5.171875 
L 36.375 5.171875 
L 36.375 0 
z
" id="DejaVuSerif-70"/>
       <path d="M 20.015625 26.421875 
L 46.78125 26.421875 
L 33.40625 61.078125 
z
M -0.59375 0 
L -0.59375 5.171875 
L 5.8125 5.171875 
L 31.78125 72.90625 
L 39.984375 72.90625 
L 66.015625 5.171875 
L 73.1875 5.171875 
L 73.1875 0 
L 46.6875 0 
L 46.6875 5.171875 
L 54.78125 5.171875 
L 48.6875 21.1875 
L 18.015625 21.1875 
L 11.921875 5.171875 
L 19.921875 5.171875 
L 19.921875 0 
z
" id="DejaVuSerif-65"/>
      </defs>
      <use xlink:href="#DejaVuSerif-57"/>
      <use x="63.623047" xlink:href="#DejaVuSerif-57"/>
      <use x="127.246094" xlink:href="#DejaVuSerif-46"/>
      <use x="159.033203" xlink:href="#DejaVuSerif-57"/>
      <use x="222.65625" xlink:href="#DejaVuSerif-37"/>
      <use x="317.675781" xlink:href="#DejaVuSerif-32"/>
      <use x="349.462891" xlink:href="#DejaVuSerif-70"/>
      <use x="410.097656" xlink:href="#DejaVuSerif-65"/>
      <use x="482.314453" xlink:href="#DejaVuSerif-80"/>
     </g>
    </g>
    <g id="line2d_24">
     <path d="M 420.448125 92.548696 
L 428.448125 92.548696 
" style="fill:none;stroke:#a9a9a9;stroke-dasharray:5.55,2.4;stroke-dashoffset:0;stroke-width:1.5;"/>
    </g>
    <g id="text_10">
     <!-- 99.0% FAP -->
     <g transform="translate(431.648125 93.948696)scale(0.04 -0.04)">
      <use xlink:href="#DejaVuSerif-57"/>
      <use x="63.623047" xlink:href="#DejaVuSerif-57"/>
      <use x="127.246094" xlink:href="#DejaVuSerif-46"/>
      <use x="159.033203" xlink:href="#DejaVuSerif-48"/>
      <use x="222.65625" xlink:href="#DejaVuSerif-37"/>
      <use x="317.675781" xlink:href="#DejaVuSerif-32"/>
      <use x="349.462891" xlink:href="#DejaVuSerif-70"/>
      <use x="410.097656" xlink:href="#DejaVuSerif-65"/>
      <use x="482.314453" xlink:href="#DejaVuSerif-80"/>
     </g>
    </g>
    <g id="line2d_25">
     <path d="M 420.448125 98.419946 
L 428.448125 98.419946 
" style="fill:none;stroke:#c0c0c0;stroke-dasharray:5.55,2.4;stroke-dashoffset:0;stroke-width:1.5;"/>
    </g>
    <g id="text_11">
     <!-- 95.0% FAP -->
     <g transform="translate(431.648125 99.819946)scale(0.04 -0.04)">
      <defs>
       <path d="M 50.296875 72.90625 
L 50.296875 64.890625 
L 16.890625 64.890625 
L 16.890625 44 
Q 19.4375 45.75 22.828125 46.625 
Q 26.21875 47.515625 30.421875 47.515625 
Q 42.234375 47.515625 49.0625 40.96875 
Q 55.90625 34.421875 55.90625 23.09375 
Q 55.90625 11.53125 49 5.046875 
Q 42.09375 -1.421875 29.59375 -1.421875 
Q 24.5625 -1.421875 19.28125 -0.1875 
Q 14.015625 1.03125 8.5 3.515625 
L 8.5 17.671875 
L 14.015625 17.671875 
Q 14.453125 10.75 18.421875 7.078125 
Q 22.40625 3.421875 29.59375 3.421875 
Q 37.3125 3.421875 41.453125 8.5 
Q 45.609375 13.578125 45.609375 23.09375 
Q 45.609375 32.5625 41.484375 37.609375 
Q 37.359375 42.671875 29.59375 42.671875 
Q 25.203125 42.671875 21.84375 41.109375 
Q 18.5 39.546875 15.921875 36.28125 
L 11.71875 36.28125 
L 11.71875 72.90625 
z
" id="DejaVuSerif-53"/>
      </defs>
      <use xlink:href="#DejaVuSerif-57"/>
      <use x="63.623047" xlink:href="#DejaVuSerif-53"/>
      <use x="127.246094" xlink:href="#DejaVuSerif-46"/>
      <use x="159.033203" xlink:href="#DejaVuSerif-48"/>
      <use x="222.65625" xlink:href="#DejaVuSerif-37"/>
      <use x="317.675781" xlink:href="#DejaVuSerif-32"/>
      <use x="349.462891" xlink:href="#DejaVuSerif-70"/>
      <use x="410.097656" xlink:href="#DejaVuSerif-65"/>
      <use x="482.314453" xlink:href="#DejaVuSerif-80"/>
     </g>
    </g>
    <g id="line2d_26">
     <path d="M 420.448125 104.291196 
L 428.448125 104.291196 
" style="fill:none;stroke:#d3d3d3;stroke-dasharray:5.55,2.4;stroke-dashoffset:0;stroke-width:1.5;"/>
    </g>
    <g id="text_12">
     <!-- 90.0% FAP -->
     <g transform="translate(431.648125 105.691196)scale(0.04 -0.04)">
      <use xlink:href="#DejaVuSerif-57"/>
      <use x="63.623047" xlink:href="#DejaVuSerif-48"/>
      <use x="127.246094" xlink:href="#DejaVuSerif-46"/>
      <use x="159.033203" xlink:href="#DejaVuSerif-48"/>
      <use x="222.65625" xlink:href="#DejaVuSerif-37"/>
      <use x="317.675781" xlink:href="#DejaVuSerif-32"/>
      <use x="349.462891" xlink:href="#DejaVuSerif-70"/>
      <use x="410.097656" xlink:href="#DejaVuSerif-65"/>
      <use x="482.314453" xlink:href="#DejaVuSerif-80"/>
     </g>
    </g>
   </g>
  </g>
  <g id="axes_2">
   <g id="patch_8">
    <path d="M 57.6 150.089143 
L 206.4 150.089143 
L 206.4 41.472 
L 57.6 41.472 
z
" style="fill:#ffffff;"/>
   </g>
   <g id="PathCollection_1">
    <defs>
     <path d="M 0 0.707107 
C 0.187527 0.707107 0.367398 0.632602 0.5 0.5 
C 0.632602 0.367398 0.707107 0.187527 0.707107 0 
C 0.707107 -0.187527 0.632602 -0.367398 0.5 -0.5 
C 0.367398 -0.632602 0.187527 -0.707107 0 -0.707107 
C -0.187527 -0.707107 -0.367398 -0.632602 -0.5 -0.5 
C -0.632602 -0.367398 -0.707107 -0.187527 -0.707107 0 
C -0.707107 0.187527 -0.632602 0.367398 -0.5 0.5 
C -0.367398 0.632602 -0.187527 0.707107 0 0.707107 
z
" id="m44db281906" style="stroke:#1f77b4;"/>
    </defs>
    <g clip-path="url(#p8fe3df135d)">
     <use style="fill:#1f77b4;stroke:#1f77b4;" x="103.506767" xlink:href="#m44db281906" y="61.209785"/>
     <use style="fill:#1f77b4;stroke:#1f77b4;" x="103.50829" xlink:href="#m44db281906" y="51.193645"/>
     <use style="fill:#1f77b4;stroke:#1f77b4;" x="116.867699" xlink:href="#m44db281906" y="91.176289"/>
     <use style="fill:#1f77b4;stroke:#1f77b4;" x="116.869223" xlink:href="#m44db281906" y="97.292463"/>
     <use style="fill:#1f77b4;stroke:#1f77b4;" x="123.736937" xlink:href="#m44db281906" y="87.138991"/>
     <use style="fill:#1f77b4;stroke:#1f77b4;" x="64.839704" xlink:href="#m44db281906" y="80.419627"/>
     <use style="fill:#1f77b4;stroke:#1f77b4;" x="64.850292" xlink:href="#m44db281906" y="89.250241"/>
     <use style="fill:#1f77b4;stroke:#1f77b4;" x="81.631333" xlink:href="#m44db281906" y="90.951627"/>
     <use style="fill:#1f77b4;stroke:#1f77b4;" x="84.91852" xlink:href="#m44db281906" y="75.49065"/>
     <use style="fill:#1f77b4;stroke:#1f77b4;" x="84.920005" xlink:href="#m44db281906" y="84.11469"/>
     <use style="fill:#1f77b4;stroke:#1f77b4;" x="91.568647" xlink:href="#m44db281906" y="46.409143"/>
     <use style="fill:#1f77b4;stroke:#1f77b4;" x="91.570171" xlink:href="#m44db281906" y="86.497897"/>
     <use style="fill:#1f77b4;stroke:#1f77b4;" x="98.045597" xlink:href="#m44db281906" y="65.348757"/>
     <use style="fill:#1f77b4;stroke:#1f77b4;" x="98.04712" xlink:href="#m44db281906" y="62.276125"/>
     <use style="fill:#1f77b4;stroke:#1f77b4;" x="101.303952" xlink:href="#m44db281906" y="65.407515"/>
     <use style="fill:#1f77b4;stroke:#1f77b4;" x="101.305476" xlink:href="#m44db281906" y="70.612827"/>
     <use style="fill:#1f77b4;stroke:#1f77b4;" x="104.770373" xlink:href="#m44db281906" y="74.639122"/>
     <use style="fill:#1f77b4;stroke:#1f77b4;" x="104.771859" xlink:href="#m44db281906" y="70.552398"/>
     <use style="fill:#1f77b4;stroke:#1f77b4;" x="107.919155" xlink:href="#m44db281906" y="85.495845"/>
     <use style="fill:#1f77b4;stroke:#1f77b4;" x="107.920678" xlink:href="#m44db281906" y="57.477912"/>
     <use style="fill:#1f77b4;stroke:#1f77b4;" x="111.206684" xlink:href="#m44db281906" y="55.106803"/>
     <use style="fill:#1f77b4;stroke:#1f77b4;" x="111.20817" xlink:href="#m44db281906" y="61.77674"/>
     <use style="fill:#1f77b4;stroke:#1f77b4;" x="72.182633" xlink:href="#m44db281906" y="71.228632"/>
     <use style="fill:#1f77b4;stroke:#1f77b4;" x="95.029019" xlink:href="#m44db281906" y="58.059097"/>
     <use style="fill:#1f77b4;stroke:#1f77b4;" x="98.304704" xlink:href="#m44db281906" y="48.345675"/>
     <use style="fill:#1f77b4;stroke:#1f77b4;" x="101.596118" xlink:href="#m44db281906" y="79.055523"/>
     <use style="fill:#1f77b4;stroke:#1f77b4;" x="104.880715" xlink:href="#m44db281906" y="80.797579"/>
     <use style="fill:#1f77b4;stroke:#1f77b4;" x="108.185232" xlink:href="#m44db281906" y="81.894161"/>
     <use style="fill:#1f77b4;stroke:#1f77b4;" x="79.058466" xlink:href="#m44db281906" y="82.16992"/>
     <use style="fill:#1f77b4;stroke:#1f77b4;" x="108.01305" xlink:href="#m44db281906" y="66.663896"/>
     <use style="fill:#1f77b4;stroke:#1f77b4;" x="111.783818" xlink:href="#m44db281906" y="67.66157"/>
     <use style="fill:#1f77b4;stroke:#1f77b4;" x="115.13518" xlink:href="#m44db281906" y="57.238388"/>
     <use style="fill:#1f77b4;stroke:#1f77b4;" x="69.437959" xlink:href="#m44db281906" y="106.064261"/>
     <use style="fill:#1f77b4;stroke:#1f77b4;" x="79.372912" xlink:href="#m44db281906" y="64.552127"/>
     <use style="fill:#1f77b4;stroke:#1f77b4;" x="72.997132" xlink:href="#m44db281906" y="57.343288"/>
     <use style="fill:#1f77b4;stroke:#1f77b4;" x="86.159668" xlink:href="#m44db281906" y="72.535073"/>
     <use style="fill:#1f77b4;stroke:#1f77b4;" x="119.041707" xlink:href="#m44db281906" y="83.579072"/>
     <use style="fill:#1f77b4;stroke:#1f77b4;" x="64.363636" xlink:href="#m44db281906" y="117.194554"/>
     <use style="fill:#1f77b4;stroke:#1f77b4;" x="124.34356" xlink:href="#m44db281906" y="91.28839"/>
     <use style="fill:#1f77b4;stroke:#1f77b4;" x="124.615502" xlink:href="#m44db281906" y="105.450645"/>
     <use style="fill:#1f77b4;stroke:#1f77b4;" x="124.616988" xlink:href="#m44db281906" y="110.373516"/>
     <use style="fill:#1f77b4;stroke:#1f77b4;" x="127.822137" xlink:href="#m44db281906" y="138.292021"/>
     <use style="fill:#1f77b4;stroke:#1f77b4;" x="127.823622" xlink:href="#m44db281906" y="125.875162"/>
     <use style="fill:#1f77b4;stroke:#1f77b4;" x="130.97088" xlink:href="#m44db281906" y="137.92945"/>
     <use style="fill:#1f77b4;stroke:#1f77b4;" x="130.972366" xlink:href="#m44db281906" y="145.152"/>
    </g>
   </g>
   <g id="PathCollection_2">
    <g clip-path="url(#p8fe3df135d)">
     <use style="fill:#1f77b4;stroke:#1f77b4;" x="172.170765" xlink:href="#m44db281906" y="61.209785"/>
     <use style="fill:#1f77b4;stroke:#1f77b4;" x="172.172288" xlink:href="#m44db281906" y="51.193645"/>
     <use style="fill:#1f77b4;stroke:#1f77b4;" x="185.531697" xlink:href="#m44db281906" y="91.176289"/>
     <use style="fill:#1f77b4;stroke:#1f77b4;" x="185.533221" xlink:href="#m44db281906" y="97.292463"/>
     <use style="fill:#1f77b4;stroke:#1f77b4;" x="192.400935" xlink:href="#m44db281906" y="87.138991"/>
     <use style="fill:#1f77b4;stroke:#1f77b4;" x="133.503702" xlink:href="#m44db281906" y="80.419627"/>
     <use style="fill:#1f77b4;stroke:#1f77b4;" x="133.51429" xlink:href="#m44db281906" y="89.250241"/>
     <use style="fill:#1f77b4;stroke:#1f77b4;" x="150.29533" xlink:href="#m44db281906" y="90.951627"/>
     <use style="fill:#1f77b4;stroke:#1f77b4;" x="153.582517" xlink:href="#m44db281906" y="75.49065"/>
     <use style="fill:#1f77b4;stroke:#1f77b4;" x="153.584003" xlink:href="#m44db281906" y="84.11469"/>
     <use style="fill:#1f77b4;stroke:#1f77b4;" x="160.232645" xlink:href="#m44db281906" y="46.409143"/>
     <use style="fill:#1f77b4;stroke:#1f77b4;" x="160.234168" xlink:href="#m44db281906" y="86.497897"/>
     <use style="fill:#1f77b4;stroke:#1f77b4;" x="166.709594" xlink:href="#m44db281906" y="65.348757"/>
     <use style="fill:#1f77b4;stroke:#1f77b4;" x="166.711118" xlink:href="#m44db281906" y="62.276125"/>
     <use style="fill:#1f77b4;stroke:#1f77b4;" x="169.96795" xlink:href="#m44db281906" y="65.407515"/>
     <use style="fill:#1f77b4;stroke:#1f77b4;" x="169.969473" xlink:href="#m44db281906" y="70.612827"/>
     <use style="fill:#1f77b4;stroke:#1f77b4;" x="173.434371" xlink:href="#m44db281906" y="74.639122"/>
     <use style="fill:#1f77b4;stroke:#1f77b4;" x="173.435856" xlink:href="#m44db281906" y="70.552398"/>
     <use style="fill:#1f77b4;stroke:#1f77b4;" x="176.583153" xlink:href="#m44db281906" y="85.495845"/>
     <use style="fill:#1f77b4;stroke:#1f77b4;" x="176.584676" xlink:href="#m44db281906" y="57.477912"/>
     <use style="fill:#1f77b4;stroke:#1f77b4;" x="179.870682" xlink:href="#m44db281906" y="55.106803"/>
     <use style="fill:#1f77b4;stroke:#1f77b4;" x="179.872168" xlink:href="#m44db281906" y="61.77674"/>
     <use style="fill:#1f77b4;stroke:#1f77b4;" x="140.846631" xlink:href="#m44db281906" y="71.228632"/>
     <use style="fill:#1f77b4;stroke:#1f77b4;" x="163.693016" xlink:href="#m44db281906" y="58.059097"/>
     <use style="fill:#1f77b4;stroke:#1f77b4;" x="166.968701" xlink:href="#m44db281906" y="48.345675"/>
     <use style="fill:#1f77b4;stroke:#1f77b4;" x="170.260116" xlink:href="#m44db281906" y="79.055523"/>
     <use style="fill:#1f77b4;stroke:#1f77b4;" x="173.544713" xlink:href="#m44db281906" y="80.797579"/>
     <use style="fill:#1f77b4;stroke:#1f77b4;" x="176.849229" xlink:href="#m44db281906" y="81.894161"/>
     <use style="fill:#1f77b4;stroke:#1f77b4;" x="147.722464" xlink:href="#m44db281906" y="82.16992"/>
     <use style="fill:#1f77b4;stroke:#1f77b4;" x="176.677048" xlink:href="#m44db281906" y="66.663896"/>
     <use style="fill:#1f77b4;stroke:#1f77b4;" x="180.447816" xlink:href="#m44db281906" y="67.66157"/>
     <use style="fill:#1f77b4;stroke:#1f77b4;" x="183.799178" xlink:href="#m44db281906" y="57.238388"/>
     <use style="fill:#1f77b4;stroke:#1f77b4;" x="138.101957" xlink:href="#m44db281906" y="106.064261"/>
     <use style="fill:#1f77b4;stroke:#1f77b4;" x="148.03691" xlink:href="#m44db281906" y="64.552127"/>
     <use style="fill:#1f77b4;stroke:#1f77b4;" x="141.66113" xlink:href="#m44db281906" y="57.343288"/>
     <use style="fill:#1f77b4;stroke:#1f77b4;" x="154.823665" xlink:href="#m44db281906" y="72.535073"/>
     <use style="fill:#1f77b4;stroke:#1f77b4;" x="187.705705" xlink:href="#m44db281906" y="83.579072"/>
     <use style="fill:#1f77b4;stroke:#1f77b4;" x="133.027634" xlink:href="#m44db281906" y="117.194554"/>
     <use style="fill:#1f77b4;stroke:#1f77b4;" x="193.007558" xlink:href="#m44db281906" y="91.28839"/>
     <use style="fill:#1f77b4;stroke:#1f77b4;" x="193.2795" xlink:href="#m44db281906" y="105.450645"/>
     <use style="fill:#1f77b4;stroke:#1f77b4;" x="193.280986" xlink:href="#m44db281906" y="110.373516"/>
     <use style="fill:#1f77b4;stroke:#1f77b4;" x="196.486135" xlink:href="#m44db281906" y="138.292021"/>
     <use style="fill:#1f77b4;stroke:#1f77b4;" x="196.48762" xlink:href="#m44db281906" y="125.875162"/>
     <use style="fill:#1f77b4;stroke:#1f77b4;" x="199.634878" xlink:href="#m44db281906" y="137.92945"/>
     <use style="fill:#1f77b4;stroke:#1f77b4;" x="199.636364" xlink:href="#m44db281906" y="145.152"/>
    </g>
   </g>
   <g id="matplotlib.axis_3">
    <g id="xtick_19">
     <g id="line2d_27">
      <g>
       <use style="stroke:#000000;stroke-width:0.8;" x="62.361958" xlink:href="#m2b1ce4aa5d" y="150.089143"/>
      </g>
     </g>
     <g id="text_13">
      <!-- 0 -->
      <g transform="translate(59.180708 164.68758)scale(0.1 -0.1)">
       <use xlink:href="#DejaVuSerif-48"/>
      </g>
     </g>
    </g>
    <g id="xtick_20">
     <g id="line2d_28">
      <g>
       <use style="stroke:#000000;stroke-width:0.8;" x="131.025956" xlink:href="#m2b1ce4aa5d" y="150.089143"/>
      </g>
     </g>
     <g id="text_14">
      <!-- 1 -->
      <g transform="translate(127.844706 164.68758)scale(0.1 -0.1)">
       <use xlink:href="#DejaVuSerif-49"/>
      </g>
     </g>
    </g>
    <g id="xtick_21">
     <g id="line2d_29">
      <g>
       <use style="stroke:#000000;stroke-width:0.8;" x="199.689954" xlink:href="#m2b1ce4aa5d" y="150.089143"/>
      </g>
     </g>
     <g id="text_15">
      <!-- 2 -->
      <g transform="translate(196.508704 164.68758)scale(0.1 -0.1)">
       <use xlink:href="#DejaVuSerif-50"/>
      </g>
     </g>
    </g>
    <g id="text_16">
     <!-- Phase (P = 20.866 d) -->
     <g transform="translate(78.401562 178.365705)scale(0.1 -0.1)">
      <defs>
       <path d="M 4.109375 0 
L 4.109375 5.171875 
L 12.203125 5.171875 
L 12.203125 70.796875 
L 3.609375 70.796875 
L 3.609375 75.984375 
L 21.1875 75.984375 
L 21.1875 42.671875 
Q 23.6875 47.953125 27.65625 50.640625 
Q 31.640625 53.328125 36.921875 53.328125 
Q 45.515625 53.328125 49.5625 48.390625 
Q 53.609375 43.453125 53.609375 33.015625 
L 53.609375 5.171875 
L 61.625 5.171875 
L 61.625 0 
L 36.8125 0 
L 36.8125 5.171875 
L 44.578125 5.171875 
L 44.578125 30.171875 
Q 44.578125 39.703125 42.25 43.1875 
Q 39.9375 46.6875 33.984375 46.6875 
Q 27.734375 46.6875 24.453125 42.140625 
Q 21.1875 37.59375 21.1875 28.90625 
L 21.1875 5.171875 
L 29 5.171875 
L 29 0 
z
" id="DejaVuSerif-104"/>
       <path d="M 5.609375 2.875 
L 5.609375 14.984375 
L 10.796875 14.984375 
Q 10.984375 9.1875 14.421875 6.296875 
Q 17.875 3.421875 24.609375 3.421875 
Q 30.671875 3.421875 33.84375 5.6875 
Q 37.015625 7.953125 37.015625 12.3125 
Q 37.015625 15.71875 34.6875 17.8125 
Q 32.375 19.921875 24.90625 22.3125 
L 18.40625 24.515625 
Q 11.71875 26.65625 8.71875 29.875 
Q 5.71875 33.109375 5.71875 38.09375 
Q 5.71875 45.21875 10.9375 49.265625 
Q 16.15625 53.328125 25.390625 53.328125 
Q 29.5 53.328125 34.03125 52.25 
Q 38.578125 51.171875 43.40625 49.125 
L 43.40625 37.796875 
L 38.234375 37.796875 
Q 38.03125 42.828125 34.703125 45.65625 
Q 31.390625 48.484375 25.6875 48.484375 
Q 20.015625 48.484375 17.109375 46.484375 
Q 14.203125 44.484375 14.203125 40.484375 
Q 14.203125 37.203125 16.40625 35.21875 
Q 18.609375 33.25 25.203125 31.203125 
L 32.328125 29 
Q 39.703125 26.703125 42.9375 23.265625 
Q 46.1875 19.828125 46.1875 14.40625 
Q 46.1875 7.03125 40.546875 2.796875 
Q 34.90625 -1.421875 25 -1.421875 
Q 19.96875 -1.421875 15.1875 -0.34375 
Q 10.40625 0.734375 5.609375 2.875 
z
" id="DejaVuSerif-115"/>
       <path d="M 31.890625 -15.578125 
Q 20.015625 -10.25 13.953125 1.296875 
Q 7.90625 12.84375 7.90625 30.171875 
Q 7.90625 47.5625 13.953125 59.109375 
Q 20.015625 70.65625 31.890625 75.984375 
L 31.890625 71.1875 
Q 24.359375 66.015625 21.09375 56.609375 
Q 17.828125 47.21875 17.828125 30.171875 
Q 17.828125 13.1875 21.09375 3.78125 
Q 24.359375 -5.609375 31.890625 -10.796875 
z
" id="DejaVuSerif-40"/>
       <path d="M 10.59375 45.21875 
L 73.1875 45.21875 
L 73.1875 37.40625 
L 10.59375 37.40625 
z
M 10.59375 25.296875 
L 73.1875 25.296875 
L 73.1875 17.484375 
L 10.59375 17.484375 
z
" id="DejaVuSerif-61"/>
       <path d="M 46.578125 19.921875 
Q 46.578125 27.734375 42.6875 32.046875 
Q 38.8125 36.375 31.78125 36.375 
Q 24.75 36.375 20.875 32.046875 
Q 17 27.734375 17 19.921875 
Q 17 12.0625 20.875 7.734375 
Q 24.75 3.421875 31.78125 3.421875 
Q 38.8125 3.421875 42.6875 7.734375 
Q 46.578125 12.0625 46.578125 19.921875 
z
M 44.578125 55.328125 
Q 44.578125 61.96875 41.203125 65.671875 
Q 37.84375 69.390625 31.78125 69.390625 
Q 25.78125 69.390625 22.390625 65.671875 
Q 19 61.96875 19 55.328125 
Q 19 48.640625 22.390625 44.921875 
Q 25.78125 41.21875 31.78125 41.21875 
Q 37.84375 41.21875 41.203125 44.921875 
Q 44.578125 48.640625 44.578125 55.328125 
z
M 39.3125 38.8125 
Q 47.609375 37.703125 52.25 32.6875 
Q 56.890625 27.6875 56.890625 19.921875 
Q 56.890625 9.671875 50.390625 4.125 
Q 43.890625 -1.421875 31.78125 -1.421875 
Q 19.734375 -1.421875 13.203125 4.125 
Q 6.6875 9.671875 6.6875 19.921875 
Q 6.6875 27.6875 11.328125 32.6875 
Q 15.96875 37.703125 24.3125 38.8125 
Q 16.9375 40.140625 13 44.40625 
Q 9.078125 48.6875 9.078125 55.328125 
Q 9.078125 64.109375 15.125 69.15625 
Q 21.1875 74.21875 31.78125 74.21875 
Q 42.390625 74.21875 48.4375 69.15625 
Q 54.5 64.109375 54.5 55.328125 
Q 54.5 48.6875 50.5625 44.40625 
Q 46.625 40.140625 39.3125 38.8125 
z
" id="DejaVuSerif-56"/>
       <path d="M 32.71875 3.421875 
Q 39.59375 3.421875 43.296875 8.46875 
Q 47.015625 13.53125 47.015625 23 
Q 47.015625 32.46875 43.296875 37.515625 
Q 39.59375 42.578125 32.71875 42.578125 
Q 25.734375 42.578125 22.0625 37.6875 
Q 18.40625 32.8125 18.40625 23.578125 
Q 18.40625 13.875 22.109375 8.640625 
Q 25.828125 3.421875 32.71875 3.421875 
z
M 16.796875 40.140625 
Q 20.125 43.796875 24.3125 45.59375 
Q 28.515625 47.40625 33.796875 47.40625 
Q 44.671875 47.40625 51 40.859375 
Q 57.328125 34.328125 57.328125 23 
Q 57.328125 11.921875 50.515625 5.25 
Q 43.703125 -1.421875 32.328125 -1.421875 
Q 19.96875 -1.421875 13.328125 7.78125 
Q 6.6875 17 6.6875 34.078125 
Q 6.6875 53.21875 14.546875 63.71875 
Q 22.40625 74.21875 36.71875 74.21875 
Q 40.578125 74.21875 44.828125 73.484375 
Q 49.078125 72.75 53.515625 71.296875 
L 53.515625 59.28125 
L 48 59.28125 
Q 47.40625 64.203125 44.234375 66.796875 
Q 41.0625 69.390625 35.6875 69.390625 
Q 26.21875 69.390625 21.578125 62.203125 
Q 16.9375 55.03125 16.796875 40.140625 
z
" id="DejaVuSerif-54"/>
       <path d="M 7.078125 -15.578125 
L 7.078125 -10.796875 
Q 14.59375 -5.609375 17.890625 3.78125 
Q 21.1875 13.1875 21.1875 30.171875 
Q 21.1875 47.21875 17.890625 56.609375 
Q 14.59375 66.015625 7.078125 71.1875 
L 7.078125 75.984375 
Q 19 70.65625 25.046875 59.109375 
Q 31.109375 47.5625 31.109375 30.171875 
Q 31.109375 12.84375 25.046875 1.296875 
Q 19 -10.25 7.078125 -15.578125 
z
" id="DejaVuSerif-41"/>
      </defs>
      <use xlink:href="#DejaVuSerif-80"/>
      <use x="67.285156" xlink:href="#DejaVuSerif-104"/>
      <use x="131.689453" xlink:href="#DejaVuSerif-97"/>
      <use x="191.308594" xlink:href="#DejaVuSerif-115"/>
      <use x="242.626953" xlink:href="#DejaVuSerif-101"/>
      <use x="301.806641" xlink:href="#DejaVuSerif-32"/>
      <use x="333.59375" xlink:href="#DejaVuSerif-40"/>
      <use x="372.607422" xlink:href="#DejaVuSerif-80"/>
      <use x="439.892578" xlink:href="#DejaVuSerif-32"/>
      <use x="471.679688" xlink:href="#DejaVuSerif-61"/>
      <use x="555.46875" xlink:href="#DejaVuSerif-32"/>
      <use x="587.255859" xlink:href="#DejaVuSerif-50"/>
      <use x="650.878906" xlink:href="#DejaVuSerif-48"/>
      <use x="714.501953" xlink:href="#DejaVuSerif-46"/>
      <use x="746.289062" xlink:href="#DejaVuSerif-56"/>
      <use x="809.912109" xlink:href="#DejaVuSerif-54"/>
      <use x="873.535156" xlink:href="#DejaVuSerif-54"/>
      <use x="937.158203" xlink:href="#DejaVuSerif-32"/>
      <use x="968.945312" xlink:href="#DejaVuSerif-100"/>
      <use x="1032.958984" xlink:href="#DejaVuSerif-41"/>
     </g>
    </g>
   </g>
   <g id="matplotlib.axis_4">
    <g id="ytick_4">
     <g id="line2d_30">
      <g>
       <use style="stroke:#000000;stroke-width:0.8;" x="57.6" xlink:href="#m8a04e0b76e" y="56.420789"/>
      </g>
     </g>
     <g id="text_17">
      <!-- 15.05 -->
      <g transform="translate(21.971875 60.220008)scale(0.1 -0.1)">
       <use xlink:href="#DejaVuSerif-49"/>
       <use x="63.623047" xlink:href="#DejaVuSerif-53"/>
       <use x="127.246094" xlink:href="#DejaVuSerif-46"/>
       <use x="159.033203" xlink:href="#DejaVuSerif-48"/>
       <use x="222.65625" xlink:href="#DejaVuSerif-53"/>
      </g>
     </g>
    </g>
    <g id="ytick_5">
     <g id="line2d_31">
      <g>
       <use style="stroke:#000000;stroke-width:0.8;" x="57.6" xlink:href="#m8a04e0b76e" y="85.223658"/>
      </g>
     </g>
     <g id="text_18">
      <!-- 15.10 -->
      <g transform="translate(21.971875 89.022876)scale(0.1 -0.1)">
       <use xlink:href="#DejaVuSerif-49"/>
       <use x="63.623047" xlink:href="#DejaVuSerif-53"/>
       <use x="127.246094" xlink:href="#DejaVuSerif-46"/>
       <use x="159.033203" xlink:href="#DejaVuSerif-49"/>
       <use x="222.65625" xlink:href="#DejaVuSerif-48"/>
      </g>
     </g>
    </g>
    <g id="ytick_6">
     <g id="line2d_32">
      <g>
       <use style="stroke:#000000;stroke-width:0.8;" x="57.6" xlink:href="#m8a04e0b76e" y="114.026526"/>
      </g>
     </g>
     <g id="text_19">
      <!-- 15.15 -->
      <g transform="translate(21.971875 117.825745)scale(0.1 -0.1)">
       <use xlink:href="#DejaVuSerif-49"/>
       <use x="63.623047" xlink:href="#DejaVuSerif-53"/>
       <use x="127.246094" xlink:href="#DejaVuSerif-46"/>
       <use x="159.033203" xlink:href="#DejaVuSerif-49"/>
       <use x="222.65625" xlink:href="#DejaVuSerif-53"/>
      </g>
     </g>
    </g>
    <g id="ytick_7">
     <g id="line2d_33">
      <g>
       <use style="stroke:#000000;stroke-width:0.8;" x="57.6" xlink:href="#m8a04e0b76e" y="142.829394"/>
      </g>
     </g>
     <g id="text_20">
      <!-- 15.20 -->
      <g transform="translate(21.971875 146.628613)scale(0.1 -0.1)">
       <use xlink:href="#DejaVuSerif-49"/>
       <use x="63.623047" xlink:href="#DejaVuSerif-53"/>
       <use x="127.246094" xlink:href="#DejaVuSerif-46"/>
       <use x="159.033203" xlink:href="#DejaVuSerif-50"/>
       <use x="222.65625" xlink:href="#DejaVuSerif-48"/>
      </g>
     </g>
    </g>
    <g id="text_21">
     <!-- Mag -->
     <g transform="translate(15.75 107.082134)rotate(-90)scale(0.1 -0.1)">
      <defs>
       <path d="M 5.515625 0 
L 5.515625 5.171875 
L 14.796875 5.171875 
L 14.796875 67.671875 
L 4.984375 67.671875 
L 4.984375 72.90625 
L 26.21875 72.90625 
L 51.8125 21 
L 77.390625 72.90625 
L 97.3125 72.90625 
L 97.3125 67.671875 
L 87.59375 67.671875 
L 87.59375 5.171875 
L 96.921875 5.171875 
L 96.921875 0 
L 68.40625 0 
L 68.40625 5.171875 
L 77.6875 5.171875 
L 77.6875 61.53125 
L 52.6875 10.6875 
L 45.796875 10.6875 
L 20.796875 61.53125 
L 20.796875 5.171875 
L 30.078125 5.171875 
L 30.078125 0 
z
" id="DejaVuSerif-77"/>
      </defs>
      <use xlink:href="#DejaVuSerif-77"/>
      <use x="102.392578" xlink:href="#DejaVuSerif-97"/>
      <use x="162.011719" xlink:href="#DejaVuSerif-103"/>
     </g>
    </g>
   </g>
   <g id="patch_9">
    <path d="M 57.6 150.089143 
L 57.6 41.472 
" style="fill:none;stroke:#000000;stroke-linecap:square;stroke-linejoin:miter;stroke-width:0.8;"/>
   </g>
   <g id="patch_10">
    <path d="M 206.4 150.089143 
L 206.4 41.472 
" style="fill:none;stroke:#000000;stroke-linecap:square;stroke-linejoin:miter;stroke-width:0.8;"/>
   </g>
   <g id="patch_11">
    <path d="M 57.6 150.089143 
L 206.4 150.089143 
" style="fill:none;stroke:#000000;stroke-linecap:square;stroke-linejoin:miter;stroke-width:0.8;"/>
   </g>
   <g id="patch_12">
    <path d="M 57.6 41.472 
L 206.4 41.472 
" style="fill:none;stroke:#000000;stroke-linecap:square;stroke-linejoin:miter;stroke-width:0.8;"/>
   </g>
   <g id="text_22">
    <!-- Folded Light Curve -->
    <g transform="translate(83.086719 35.472)scale(0.1 -0.1)">
     <defs>
      <path d="M 20.515625 5.171875 
L 29 5.171875 
L 29 0 
L 2.875 0 
L 2.875 5.171875 
L 11.53125 5.171875 
L 11.53125 70.796875 
L 2.875 70.796875 
L 2.875 75.984375 
L 20.515625 75.984375 
z
" id="DejaVuSerif-108"/>
      <path d="M 5.515625 0 
L 5.515625 5.171875 
L 14.796875 5.171875 
L 14.796875 67.671875 
L 5.515625 67.671875 
L 5.515625 72.90625 
L 33.984375 72.90625 
L 33.984375 67.671875 
L 24.703125 67.671875 
L 24.703125 6 
L 58.015625 6 
L 58.015625 18.21875 
L 64.015625 18.21875 
L 64.015625 0 
z
" id="DejaVuSerif-76"/>
      <path d="M 10.796875 46.6875 
L 2.875 46.6875 
L 2.875 51.90625 
L 10.796875 51.90625 
L 10.796875 68.015625 
L 19.828125 68.015625 
L 19.828125 51.90625 
L 36.71875 51.90625 
L 36.71875 46.6875 
L 19.828125 46.6875 
L 19.828125 13.71875 
Q 19.828125 7.125 21.09375 5.265625 
Q 22.359375 3.421875 25.78125 3.421875 
Q 29.296875 3.421875 30.90625 5.484375 
Q 32.515625 7.5625 32.625 12.203125 
L 39.40625 12.203125 
Q 39.015625 5.125 35.546875 1.84375 
Q 32.078125 -1.421875 25 -1.421875 
Q 17.234375 -1.421875 14.015625 2.015625 
Q 10.796875 5.46875 10.796875 13.71875 
z
" id="DejaVuSerif-116"/>
      <path d="M 70.515625 19.28125 
Q 67.28125 9.078125 59.6875 3.828125 
Q 52.09375 -1.421875 40.484375 -1.421875 
Q 33.34375 -1.421875 27.234375 1.015625 
Q 21.140625 3.46875 16.40625 8.203125 
Q 10.9375 13.671875 8.265625 20.625 
Q 5.609375 27.59375 5.609375 36.375 
Q 5.609375 53.375 15.421875 63.796875 
Q 25.25 74.21875 41.3125 74.21875 
Q 47.265625 74.21875 54 72.65625 
Q 60.75 71.09375 68.5 67.921875 
L 68.5 51.125 
L 62.984375 51.125 
Q 61.1875 60.296875 55.734375 64.640625 
Q 50.296875 69 40.484375 69 
Q 28.8125 69 22.796875 60.71875 
Q 16.796875 52.4375 16.796875 36.375 
Q 16.796875 20.359375 22.796875 12.078125 
Q 28.8125 3.8125 40.484375 3.8125 
Q 48.640625 3.8125 53.90625 7.6875 
Q 59.1875 11.578125 61.53125 19.28125 
z
" id="DejaVuSerif-67"/>
      <path d="M 35.40625 51.90625 
L 52.203125 51.90625 
L 52.203125 5.171875 
L 60.6875 5.171875 
L 60.6875 0 
L 43.21875 0 
L 43.21875 9.1875 
Q 40.71875 4 36.765625 1.28125 
Q 32.8125 -1.421875 27.59375 -1.421875 
Q 18.953125 -1.421875 14.875 3.484375 
Q 10.796875 8.40625 10.796875 18.890625 
L 10.796875 46.6875 
L 2.6875 46.6875 
L 2.6875 51.90625 
L 19.828125 51.90625 
L 19.828125 21.6875 
Q 19.828125 12.203125 22.140625 8.6875 
Q 24.46875 5.171875 30.421875 5.171875 
Q 36.671875 5.171875 39.9375 9.765625 
Q 43.21875 14.359375 43.21875 23.09375 
L 43.21875 46.6875 
L 35.40625 46.6875 
z
" id="DejaVuSerif-117"/>
      <path d="M 24.703125 0 
L 5.609375 46.6875 
L -0.296875 46.6875 
L -0.296875 51.90625 
L 23.578125 51.90625 
L 23.578125 46.6875 
L 15.28125 46.6875 
L 29.890625 10.984375 
L 44.484375 46.6875 
L 36.71875 46.6875 
L 36.71875 51.90625 
L 56.203125 51.90625 
L 56.203125 46.6875 
L 50.390625 46.6875 
L 31.296875 0 
z
" id="DejaVuSerif-118"/>
     </defs>
     <use xlink:href="#DejaVuSerif-70"/>
     <use x="63.884766" xlink:href="#DejaVuSerif-111"/>
     <use x="124.089844" xlink:href="#DejaVuSerif-108"/>
     <use x="156.072266" xlink:href="#DejaVuSerif-100"/>
     <use x="220.085938" xlink:href="#DejaVuSerif-101"/>
     <use x="279.265625" xlink:href="#DejaVuSerif-100"/>
     <use x="343.279297" xlink:href="#DejaVuSerif-32"/>
     <use x="375.066406" xlink:href="#DejaVuSerif-76"/>
     <use x="441.472656" xlink:href="#DejaVuSerif-105"/>
     <use x="473.455078" xlink:href="#DejaVuSerif-103"/>
     <use x="537.46875" xlink:href="#DejaVuSerif-104"/>
     <use x="601.873047" xlink:href="#DejaVuSerif-116"/>
     <use x="642.058594" xlink:href="#DejaVuSerif-32"/>
     <use x="673.845703" xlink:href="#DejaVuSerif-67"/>
     <use x="750.359375" xlink:href="#DejaVuSerif-117"/>
     <use x="814.763672" xlink:href="#DejaVuSerif-114"/>
     <use x="862.566406" xlink:href="#DejaVuSerif-118"/>
     <use x="919.060547" xlink:href="#DejaVuSerif-101"/>
    </g>
   </g>
  </g>
  <g id="axes_3">
   <g id="patch_13">
    <path d="M 57.6 307.584 
L 414.72 307.584 
L 414.72 198.966857 
L 57.6 198.966857 
z
" style="fill:#ffffff;"/>
   </g>
   <g id="PathCollection_3">
    <g clip-path="url(#p36e5b03040)">
     <use style="fill:#1f77b4;stroke:#1f77b4;" x="73.832727" xlink:href="#m44db281906" y="224.547973"/>
     <use style="fill:#1f77b4;stroke:#1f77b4;" x="73.833119" xlink:href="#m44db281906" y="216.221197"/>
     <use style="fill:#1f77b4;stroke:#1f77b4;" x="94.910293" xlink:href="#m44db281906" y="249.460201"/>
     <use style="fill:#1f77b4;stroke:#1f77b4;" x="94.910684" xlink:href="#m44db281906" y="254.544796"/>
     <use style="fill:#1f77b4;stroke:#1f77b4;" x="96.675449" xlink:href="#m44db281906" y="246.103851"/>
     <use style="fill:#1f77b4;stroke:#1f77b4;" x="99.185169" xlink:href="#m44db281906" y="240.517803"/>
     <use style="fill:#1f77b4;stroke:#1f77b4;" x="99.18789" xlink:href="#m44db281906" y="247.859009"/>
     <use style="fill:#1f77b4;stroke:#1f77b4;" x="121.144305" xlink:href="#m44db281906" y="249.273432"/>
     <use style="fill:#1f77b4;stroke:#1f77b4;" x="121.988998" xlink:href="#m44db281906" y="236.420168"/>
     <use style="fill:#1f77b4;stroke:#1f77b4;" x="121.98938" xlink:href="#m44db281906" y="243.589641"/>
     <use style="fill:#1f77b4;stroke:#1f77b4;" x="123.69785" xlink:href="#m44db281906" y="212.243669"/>
     <use style="fill:#1f77b4;stroke:#1f77b4;" x="123.698242" xlink:href="#m44db281906" y="245.570886"/>
     <use style="fill:#1f77b4;stroke:#1f77b4;" x="125.362202" xlink:href="#m44db281906" y="227.988849"/>
     <use style="fill:#1f77b4;stroke:#1f77b4;" x="125.362594" xlink:href="#m44db281906" y="225.434459"/>
     <use style="fill:#1f77b4;stroke:#1f77b4;" x="126.199487" xlink:href="#m44db281906" y="228.037696"/>
     <use style="fill:#1f77b4;stroke:#1f77b4;" x="126.199878" xlink:href="#m44db281906" y="232.365059"/>
     <use style="fill:#1f77b4;stroke:#1f77b4;" x="127.090237" xlink:href="#m44db281906" y="235.712262"/>
     <use style="fill:#1f77b4;stroke:#1f77b4;" x="127.090618" xlink:href="#m44db281906" y="232.314822"/>
     <use style="fill:#1f77b4;stroke:#1f77b4;" x="127.899364" xlink:href="#m44db281906" y="244.737845"/>
     <use style="fill:#1f77b4;stroke:#1f77b4;" x="127.899756" xlink:href="#m44db281906" y="221.445534"/>
     <use style="fill:#1f77b4;stroke:#1f77b4;" x="128.744146" xlink:href="#m44db281906" y="219.474345"/>
     <use style="fill:#1f77b4;stroke:#1f77b4;" x="128.744527" xlink:href="#m44db281906" y="225.019303"/>
     <use style="fill:#1f77b4;stroke:#1f77b4;" x="136.360585" xlink:href="#m44db281906" y="232.877"/>
     <use style="fill:#1f77b4;stroke:#1f77b4;" x="142.231315" xlink:href="#m44db281906" y="221.928693"/>
     <use style="fill:#1f77b4;stroke:#1f77b4;" x="143.073052" xlink:href="#m44db281906" y="213.853577"/>
     <use style="fill:#1f77b4;stroke:#1f77b4;" x="143.918832" xlink:href="#m44db281906" y="239.383775"/>
     <use style="fill:#1f77b4;stroke:#1f77b4;" x="144.76286" xlink:href="#m44db281906" y="240.832008"/>
     <use style="fill:#1f77b4;stroke:#1f77b4;" x="145.612006" xlink:href="#m44db281906" y="241.743636"/>
     <use style="fill:#1f77b4;stroke:#1f77b4;" x="155.771705" xlink:href="#m44db281906" y="241.972884"/>
     <use style="fill:#1f77b4;stroke:#1f77b4;" x="163.21203" xlink:href="#m44db281906" y="229.082171"/>
     <use style="fill:#1f77b4;stroke:#1f77b4;" x="164.180987" xlink:href="#m44db281906" y="229.911573"/>
     <use style="fill:#1f77b4;stroke:#1f77b4;" x="165.042171" xlink:href="#m44db281906" y="221.246408"/>
     <use style="fill:#1f77b4;stroke:#1f77b4;" x="170.943837" xlink:href="#m44db281906" y="261.837106"/>
     <use style="fill:#1f77b4;stroke:#1f77b4;" x="173.496775" xlink:href="#m44db281906" y="227.326582"/>
     <use style="fill:#1f77b4;stroke:#1f77b4;" x="207.146958" xlink:href="#m44db281906" y="221.333615"/>
     <use style="fill:#1f77b4;stroke:#1f77b4;" x="210.529274" xlink:href="#m44db281906" y="233.96309"/>
     <use style="fill:#1f77b4;stroke:#1f77b4;" x="218.978819" xlink:href="#m44db281906" y="243.144362"/>
     <use style="fill:#1f77b4;stroke:#1f77b4;" x="346.082599" xlink:href="#m44db281906" y="271.090117"/>
     <use style="fill:#1f77b4;stroke:#1f77b4;" x="379.139631" xlink:href="#m44db281906" y="249.553395"/>
     <use style="fill:#1f77b4;stroke:#1f77b4;" x="396.853779" xlink:href="#m44db281906" y="261.326985"/>
     <use style="fill:#1f77b4;stroke:#1f77b4;" x="396.854161" xlink:href="#m44db281906" y="265.419544"/>
     <use style="fill:#1f77b4;stroke:#1f77b4;" x="397.677773" xlink:href="#m44db281906" y="288.629198"/>
     <use style="fill:#1f77b4;stroke:#1f77b4;" x="397.678155" xlink:href="#m44db281906" y="278.306618"/>
     <use style="fill:#1f77b4;stroke:#1f77b4;" x="398.486891" xlink:href="#m44db281906" y="288.32778"/>
     <use style="fill:#1f77b4;stroke:#1f77b4;" x="398.487273" xlink:href="#m44db281906" y="294.332144"/>
    </g>
   </g>
   <g id="matplotlib.axis_5">
    <g id="xtick_22">
     <g id="line2d_34">
      <g>
       <use style="stroke:#000000;stroke-width:0.8;" x="97.996351" xlink:href="#m2b1ce4aa5d" y="307.584"/>
      </g>
     </g>
     <g id="text_23">
      <!-- 58300 -->
      <g transform="translate(82.090101 322.182437)scale(0.1 -0.1)">
       <defs>
        <path d="M 9.71875 69.828125 
Q 15.4375 71.96875 20.671875 73.09375 
Q 25.921875 74.21875 30.515625 74.21875 
Q 41.21875 74.21875 47.21875 69.59375 
Q 53.21875 64.984375 53.21875 56.78125 
Q 53.21875 50.203125 49.0625 45.78125 
Q 44.921875 41.359375 37.3125 39.796875 
Q 46.296875 38.53125 51.25 33.28125 
Q 56.203125 28.03125 56.203125 19.671875 
Q 56.203125 9.46875 49.34375 4.015625 
Q 42.484375 -1.421875 29.59375 -1.421875 
Q 23.875 -1.421875 18.421875 -0.1875 
Q 12.984375 1.03125 7.625 3.515625 
L 7.625 17.671875 
L 13.09375 17.671875 
Q 13.578125 10.640625 17.828125 7.03125 
Q 22.078125 3.421875 29.78125 3.421875 
Q 37.25 3.421875 41.578125 7.734375 
Q 45.90625 12.0625 45.90625 19.578125 
Q 45.90625 28.171875 41.453125 32.59375 
Q 37.015625 37.015625 28.421875 37.015625 
L 23.78125 37.015625 
L 23.78125 42 
L 26.21875 42 
Q 34.765625 42 39.03125 45.53125 
Q 43.3125 49.078125 43.3125 56.203125 
Q 43.3125 62.59375 39.796875 65.984375 
Q 36.28125 69.390625 29.6875 69.390625 
Q 23.09375 69.390625 19.453125 66.265625 
Q 15.828125 63.140625 15.1875 56.984375 
L 9.71875 56.984375 
z
" id="DejaVuSerif-51"/>
       </defs>
       <use xlink:href="#DejaVuSerif-53"/>
       <use x="63.623047" xlink:href="#DejaVuSerif-56"/>
       <use x="127.246094" xlink:href="#DejaVuSerif-51"/>
       <use x="190.869141" xlink:href="#DejaVuSerif-48"/>
       <use x="254.492188" xlink:href="#DejaVuSerif-48"/>
      </g>
     </g>
    </g>
    <g id="xtick_23">
     <g id="line2d_35">
      <g>
       <use style="stroke:#000000;stroke-width:0.8;" x="140.27554" xlink:href="#m2b1ce4aa5d" y="307.584"/>
      </g>
     </g>
     <g id="text_24">
      <!-- 58350 -->
      <g transform="translate(124.36929 322.182437)scale(0.1 -0.1)">
       <use xlink:href="#DejaVuSerif-53"/>
       <use x="63.623047" xlink:href="#DejaVuSerif-56"/>
       <use x="127.246094" xlink:href="#DejaVuSerif-51"/>
       <use x="190.869141" xlink:href="#DejaVuSerif-53"/>
       <use x="254.492188" xlink:href="#DejaVuSerif-48"/>
      </g>
     </g>
    </g>
    <g id="xtick_24">
     <g id="line2d_36">
      <g>
       <use style="stroke:#000000;stroke-width:0.8;" x="182.55473" xlink:href="#m2b1ce4aa5d" y="307.584"/>
      </g>
     </g>
     <g id="text_25">
      <!-- 58400 -->
      <g transform="translate(166.64848 322.182437)scale(0.1 -0.1)">
       <use xlink:href="#DejaVuSerif-53"/>
       <use x="63.623047" xlink:href="#DejaVuSerif-56"/>
       <use x="127.246094" xlink:href="#DejaVuSerif-52"/>
       <use x="190.869141" xlink:href="#DejaVuSerif-48"/>
       <use x="254.492188" xlink:href="#DejaVuSerif-48"/>
      </g>
     </g>
    </g>
    <g id="xtick_25">
     <g id="line2d_37">
      <g>
       <use style="stroke:#000000;stroke-width:0.8;" x="224.833919" xlink:href="#m2b1ce4aa5d" y="307.584"/>
      </g>
     </g>
     <g id="text_26">
      <!-- 58450 -->
      <g transform="translate(208.927669 322.182437)scale(0.1 -0.1)">
       <use xlink:href="#DejaVuSerif-53"/>
       <use x="63.623047" xlink:href="#DejaVuSerif-56"/>
       <use x="127.246094" xlink:href="#DejaVuSerif-52"/>
       <use x="190.869141" xlink:href="#DejaVuSerif-53"/>
       <use x="254.492188" xlink:href="#DejaVuSerif-48"/>
      </g>
     </g>
    </g>
    <g id="xtick_26">
     <g id="line2d_38">
      <g>
       <use style="stroke:#000000;stroke-width:0.8;" x="267.113108" xlink:href="#m2b1ce4aa5d" y="307.584"/>
      </g>
     </g>
     <g id="text_27">
      <!-- 58500 -->
      <g transform="translate(251.206858 322.182437)scale(0.1 -0.1)">
       <use xlink:href="#DejaVuSerif-53"/>
       <use x="63.623047" xlink:href="#DejaVuSerif-56"/>
       <use x="127.246094" xlink:href="#DejaVuSerif-53"/>
       <use x="190.869141" xlink:href="#DejaVuSerif-48"/>
       <use x="254.492188" xlink:href="#DejaVuSerif-48"/>
      </g>
     </g>
    </g>
    <g id="xtick_27">
     <g id="line2d_39">
      <g>
       <use style="stroke:#000000;stroke-width:0.8;" x="309.392298" xlink:href="#m2b1ce4aa5d" y="307.584"/>
      </g>
     </g>
     <g id="text_28">
      <!-- 58550 -->
      <g transform="translate(293.486048 322.182437)scale(0.1 -0.1)">
       <use xlink:href="#DejaVuSerif-53"/>
       <use x="63.623047" xlink:href="#DejaVuSerif-56"/>
       <use x="127.246094" xlink:href="#DejaVuSerif-53"/>
       <use x="190.869141" xlink:href="#DejaVuSerif-53"/>
       <use x="254.492188" xlink:href="#DejaVuSerif-48"/>
      </g>
     </g>
    </g>
    <g id="xtick_28">
     <g id="line2d_40">
      <g>
       <use style="stroke:#000000;stroke-width:0.8;" x="351.671487" xlink:href="#m2b1ce4aa5d" y="307.584"/>
      </g>
     </g>
     <g id="text_29">
      <!-- 58600 -->
      <g transform="translate(335.765237 322.182437)scale(0.1 -0.1)">
       <use xlink:href="#DejaVuSerif-53"/>
       <use x="63.623047" xlink:href="#DejaVuSerif-56"/>
       <use x="127.246094" xlink:href="#DejaVuSerif-54"/>
       <use x="190.869141" xlink:href="#DejaVuSerif-48"/>
       <use x="254.492188" xlink:href="#DejaVuSerif-48"/>
      </g>
     </g>
    </g>
    <g id="xtick_29">
     <g id="line2d_41">
      <g>
       <use style="stroke:#000000;stroke-width:0.8;" x="393.950677" xlink:href="#m2b1ce4aa5d" y="307.584"/>
      </g>
     </g>
     <g id="text_30">
      <!-- 58650 -->
      <g transform="translate(378.044427 322.182437)scale(0.1 -0.1)">
       <use xlink:href="#DejaVuSerif-53"/>
       <use x="63.623047" xlink:href="#DejaVuSerif-56"/>
       <use x="127.246094" xlink:href="#DejaVuSerif-54"/>
       <use x="190.869141" xlink:href="#DejaVuSerif-53"/>
       <use x="254.492188" xlink:href="#DejaVuSerif-48"/>
      </g>
     </g>
    </g>
    <g id="text_31">
     <!-- MJD -->
     <g transform="translate(225.027187 335.860562)scale(0.1 -0.1)">
      <defs>
       <path d="M -8.40625 -17.484375 
L -8.40625 -6 
L -2.828125 -6 
Q -2.6875 -10.84375 -0.53125 -13.203125 
Q 1.609375 -15.578125 5.90625 -15.578125 
Q 11.71875 -15.578125 14.015625 -11.90625 
Q 16.3125 -8.25 16.3125 2.390625 
L 16.3125 67.671875 
L 4.984375 67.671875 
L 4.984375 72.90625 
L 35.5 72.90625 
L 35.5 67.671875 
L 26.21875 67.671875 
L 26.21875 2 
Q 26.21875 -10.0625 21.375 -15.421875 
Q 16.546875 -20.796875 5.8125 -20.796875 
Q 2.34375 -20.796875 -1.234375 -19.96875 
Q -4.828125 -19.140625 -8.40625 -17.484375 
z
" id="DejaVuSerif-74"/>
       <path d="M 24.703125 5.171875 
L 33.796875 5.171875 
Q 48 5.171875 55.59375 13.28125 
Q 63.1875 21.390625 63.1875 36.53125 
Q 63.1875 51.65625 55.609375 59.65625 
Q 48.046875 67.671875 33.796875 67.671875 
L 24.703125 67.671875 
z
M 5.515625 0 
L 5.515625 5.171875 
L 14.796875 5.171875 
L 14.796875 67.671875 
L 5.515625 67.671875 
L 5.515625 72.90625 
L 34.515625 72.90625 
Q 53.375 72.90625 63.890625 63.28125 
Q 74.421875 53.65625 74.421875 36.53125 
Q 74.421875 19.34375 63.875 9.671875 
Q 53.328125 0 34.515625 0 
z
" id="DejaVuSerif-68"/>
      </defs>
      <use xlink:href="#DejaVuSerif-77"/>
      <use x="102.392578" xlink:href="#DejaVuSerif-74"/>
      <use x="142.480469" xlink:href="#DejaVuSerif-68"/>
     </g>
    </g>
   </g>
   <g id="matplotlib.axis_6">
    <g id="ytick_8">
     <g id="line2d_42">
      <g>
       <use style="stroke:#000000;stroke-width:0.8;" x="57.6" xlink:href="#m8a04e0b76e" y="220.566709"/>
      </g>
     </g>
     <g id="text_32">
      <!-- 15.05 -->
      <g transform="translate(21.971875 224.365928)scale(0.1 -0.1)">
       <use xlink:href="#DejaVuSerif-49"/>
       <use x="63.623047" xlink:href="#DejaVuSerif-53"/>
       <use x="127.246094" xlink:href="#DejaVuSerif-46"/>
       <use x="159.033203" xlink:href="#DejaVuSerif-48"/>
       <use x="222.65625" xlink:href="#DejaVuSerif-53"/>
      </g>
     </g>
    </g>
    <g id="ytick_9">
     <g id="line2d_43">
      <g>
       <use style="stroke:#000000;stroke-width:0.8;" x="57.6" xlink:href="#m8a04e0b76e" y="244.511566"/>
      </g>
     </g>
     <g id="text_33">
      <!-- 15.10 -->
      <g transform="translate(21.971875 248.310785)scale(0.1 -0.1)">
       <use xlink:href="#DejaVuSerif-49"/>
       <use x="63.623047" xlink:href="#DejaVuSerif-53"/>
       <use x="127.246094" xlink:href="#DejaVuSerif-46"/>
       <use x="159.033203" xlink:href="#DejaVuSerif-49"/>
       <use x="222.65625" xlink:href="#DejaVuSerif-48"/>
      </g>
     </g>
    </g>
    <g id="ytick_10">
     <g id="line2d_44">
      <g>
       <use style="stroke:#000000;stroke-width:0.8;" x="57.6" xlink:href="#m8a04e0b76e" y="268.456422"/>
      </g>
     </g>
     <g id="text_34">
      <!-- 15.15 -->
      <g transform="translate(21.971875 272.255641)scale(0.1 -0.1)">
       <use xlink:href="#DejaVuSerif-49"/>
       <use x="63.623047" xlink:href="#DejaVuSerif-53"/>
       <use x="127.246094" xlink:href="#DejaVuSerif-46"/>
       <use x="159.033203" xlink:href="#DejaVuSerif-49"/>
       <use x="222.65625" xlink:href="#DejaVuSerif-53"/>
      </g>
     </g>
    </g>
    <g id="ytick_11">
     <g id="line2d_45">
      <g>
       <use style="stroke:#000000;stroke-width:0.8;" x="57.6" xlink:href="#m8a04e0b76e" y="292.401279"/>
      </g>
     </g>
     <g id="text_35">
      <!-- 15.20 -->
      <g transform="translate(21.971875 296.200498)scale(0.1 -0.1)">
       <use xlink:href="#DejaVuSerif-49"/>
       <use x="63.623047" xlink:href="#DejaVuSerif-53"/>
       <use x="127.246094" xlink:href="#DejaVuSerif-46"/>
       <use x="159.033203" xlink:href="#DejaVuSerif-50"/>
       <use x="222.65625" xlink:href="#DejaVuSerif-48"/>
      </g>
     </g>
    </g>
    <g id="text_36">
     <!-- Mag -->
     <g transform="translate(15.75 264.576991)rotate(-90)scale(0.1 -0.1)">
      <use xlink:href="#DejaVuSerif-77"/>
      <use x="102.392578" xlink:href="#DejaVuSerif-97"/>
      <use x="162.011719" xlink:href="#DejaVuSerif-103"/>
     </g>
    </g>
   </g>
   <g id="LineCollection_5">
    <path clip-path="url(#p36e5b03040)" d="M 73.832727 216.213022 
L 73.832727 232.882924 
" style="fill:none;stroke:#1f77b4;stroke-width:0.5;"/>
    <path clip-path="url(#p36e5b03040)" d="M 73.833119 207.883089 
L 73.833119 224.559305 
" style="fill:none;stroke:#1f77b4;stroke-width:0.5;"/>
    <path clip-path="url(#p36e5b03040)" d="M 94.910293 241.133776 
L 94.910293 257.786627 
" style="fill:none;stroke:#1f77b4;stroke-width:0.5;"/>
    <path clip-path="url(#p36e5b03040)" d="M 94.910684 246.219939 
L 94.910684 262.869653 
" style="fill:none;stroke:#1f77b4;stroke-width:0.5;"/>
    <path clip-path="url(#p36e5b03040)" d="M 96.675449 237.77636 
L 96.675449 254.431342 
" style="fill:none;stroke:#1f77b4;stroke-width:0.5;"/>
    <path clip-path="url(#p36e5b03040)" d="M 99.185169 232.188479 
L 99.185169 248.847127 
" style="fill:none;stroke:#1f77b4;stroke-width:0.5;"/>
    <path clip-path="url(#p36e5b03040)" d="M 99.18789 239.532079 
L 99.18789 256.185939 
" style="fill:none;stroke:#1f77b4;stroke-width:0.5;"/>
    <path clip-path="url(#p36e5b03040)" d="M 121.144305 240.946949 
L 121.144305 257.599914 
" style="fill:none;stroke:#1f77b4;stroke-width:0.5;"/>
    <path clip-path="url(#p36e5b03040)" d="M 121.988998 228.089455 
L 121.988998 244.750881 
" style="fill:none;stroke:#1f77b4;stroke-width:0.5;"/>
    <path clip-path="url(#p36e5b03040)" d="M 121.98938 235.261335 
L 121.98938 251.917947 
" style="fill:none;stroke:#1f77b4;stroke-width:0.5;"/>
    <path clip-path="url(#p36e5b03040)" d="M 123.69785 203.904 
L 123.69785 220.583338 
" style="fill:none;stroke:#1f77b4;stroke-width:0.5;"/>
    <path clip-path="url(#p36e5b03040)" d="M 123.698242 237.243223 
L 123.698242 253.89855 
" style="fill:none;stroke:#1f77b4;stroke-width:0.5;"/>
    <path clip-path="url(#p36e5b03040)" d="M 125.362202 219.655158 
L 125.362202 236.322539 
" style="fill:none;stroke:#1f77b4;stroke-width:0.5;"/>
    <path clip-path="url(#p36e5b03040)" d="M 125.362594 217.099836 
L 125.362594 233.769083 
" style="fill:none;stroke:#1f77b4;stroke-width:0.5;"/>
    <path clip-path="url(#p36e5b03040)" d="M 126.199487 219.704023 
L 126.199487 236.37137 
" style="fill:none;stroke:#1f77b4;stroke-width:0.5;"/>
    <path clip-path="url(#p36e5b03040)" d="M 126.199878 224.032933 
L 126.199878 240.697185 
" style="fill:none;stroke:#1f77b4;stroke-width:0.5;"/>
    <path clip-path="url(#p36e5b03040)" d="M 127.090237 227.381305 
L 127.090237 244.04322 
" style="fill:none;stroke:#1f77b4;stroke-width:0.5;"/>
    <path clip-path="url(#p36e5b03040)" d="M 127.090618 223.982678 
L 127.090618 240.646966 
" style="fill:none;stroke:#1f77b4;stroke-width:0.5;"/>
    <path clip-path="url(#p36e5b03040)" d="M 127.899364 236.409912 
L 127.899364 253.065777 
" style="fill:none;stroke:#1f77b4;stroke-width:0.5;"/>
    <path clip-path="url(#p36e5b03040)" d="M 127.899756 213.109424 
L 127.899756 229.781643 
" style="fill:none;stroke:#1f77b4;stroke-width:0.5;"/>
    <path clip-path="url(#p36e5b03040)" d="M 128.744146 211.137488 
L 128.744146 227.811202 
" style="fill:none;stroke:#1f77b4;stroke-width:0.5;"/>
    <path clip-path="url(#p36e5b03040)" d="M 128.744527 216.684526 
L 128.744527 233.35408 
" style="fill:none;stroke:#1f77b4;stroke-width:0.5;"/>
    <path clip-path="url(#p36e5b03040)" d="M 136.360585 224.545053 
L 136.360585 241.208946 
" style="fill:none;stroke:#1f77b4;stroke-width:0.5;"/>
    <path clip-path="url(#p36e5b03040)" d="M 142.231315 213.592765 
L 142.231315 230.264621 
" style="fill:none;stroke:#1f77b4;stroke-width:0.5;"/>
    <path clip-path="url(#p36e5b03040)" d="M 143.073052 205.514544 
L 143.073052 222.19261 
" style="fill:none;stroke:#1f77b4;stroke-width:0.5;"/>
    <path clip-path="url(#p36e5b03040)" d="M 143.918832 231.054071 
L 143.918832 247.713479 
" style="fill:none;stroke:#1f77b4;stroke-width:0.5;"/>
    <path clip-path="url(#p36e5b03040)" d="M 144.76286 232.502788 
L 144.76286 249.161227 
" style="fill:none;stroke:#1f77b4;stroke-width:0.5;"/>
    <path clip-path="url(#p36e5b03040)" d="M 145.612006 233.41472 
L 145.612006 250.072553 
" style="fill:none;stroke:#1f77b4;stroke-width:0.5;"/>
    <path clip-path="url(#p36e5b03040)" d="M 155.771705 233.644045 
L 155.771705 250.301724 
" style="fill:none;stroke:#1f77b4;stroke-width:0.5;"/>
    <path clip-path="url(#p36e5b03040)" d="M 163.21203 220.748875 
L 163.21203 237.415466 
" style="fill:none;stroke:#1f77b4;stroke-width:0.5;"/>
    <path clip-path="url(#p36e5b03040)" d="M 164.180987 221.578574 
L 164.180987 238.244572 
" style="fill:none;stroke:#1f77b4;stroke-width:0.5;"/>
    <path clip-path="url(#p36e5b03040)" d="M 165.042171 212.910223 
L 165.042171 229.582594 
" style="fill:none;stroke:#1f77b4;stroke-width:0.5;"/>
    <path clip-path="url(#p36e5b03040)" d="M 170.943837 253.514392 
L 170.943837 270.159821 
" style="fill:none;stroke:#1f77b4;stroke-width:0.5;"/>
    <path clip-path="url(#p36e5b03040)" d="M 173.496775 218.99265 
L 173.496775 235.660513 
" style="fill:none;stroke:#1f77b4;stroke-width:0.5;"/>
    <path clip-path="url(#p36e5b03040)" d="M 207.146958 212.997462 
L 207.146958 229.669769 
" style="fill:none;stroke:#1f77b4;stroke-width:0.5;"/>
    <path clip-path="url(#p36e5b03040)" d="M 210.529274 225.631525 
L 210.529274 242.294655 
" style="fill:none;stroke:#1f77b4;stroke-width:0.5;"/>
    <path clip-path="url(#p36e5b03040)" d="M 218.978819 234.81591 
L 218.978819 251.472815 
" style="fill:none;stroke:#1f77b4;stroke-width:0.5;"/>
    <path clip-path="url(#p36e5b03040)" d="M 346.082599 262.769941 
L 346.082599 279.410294 
" style="fill:none;stroke:#1f77b4;stroke-width:0.5;"/>
    <path clip-path="url(#p36e5b03040)" d="M 379.139631 241.227 
L 379.139631 257.87979 
" style="fill:none;stroke:#1f77b4;stroke-width:0.5;"/>
    <path clip-path="url(#p36e5b03040)" d="M 396.853779 253.004124 
L 396.853779 269.649846 
" style="fill:none;stroke:#1f77b4;stroke-width:0.5;"/>
    <path clip-path="url(#p36e5b03040)" d="M 396.854161 257.097837 
L 396.854161 273.741251 
" style="fill:none;stroke:#1f77b4;stroke-width:0.5;"/>
    <path clip-path="url(#p36e5b03040)" d="M 397.677773 280.313267 
L 397.677773 296.945128 
" style="fill:none;stroke:#1f77b4;stroke-width:0.5;"/>
    <path clip-path="url(#p36e5b03040)" d="M 397.678155 269.988281 
L 397.678155 286.624955 
" style="fill:none;stroke:#1f77b4;stroke-width:0.5;"/>
    <path clip-path="url(#p36e5b03040)" d="M 398.486891 280.011783 
L 398.486891 296.643776 
" style="fill:none;stroke:#1f77b4;stroke-width:0.5;"/>
    <path clip-path="url(#p36e5b03040)" d="M 398.487273 286.017431 
L 398.487273 302.646857 
" style="fill:none;stroke:#1f77b4;stroke-width:0.5;"/>
   </g>
   <g id="line2d_46">
    <path clip-path="url(#p36e5b03040)" d="M 73.832727 224.547973 
L 73.833119 216.221197 
L 94.910293 249.460201 
L 94.910684 254.544796 
L 96.675449 246.103851 
L 99.185169 240.517803 
L 99.18789 247.859009 
L 121.144305 249.273432 
L 121.988998 236.420168 
L 121.98938 243.589641 
L 123.69785 212.243669 
L 123.698242 245.570886 
L 125.362202 227.988849 
L 125.362594 225.434459 
L 126.199487 228.037696 
L 126.199878 232.365059 
L 127.090237 235.712262 
L 127.090618 232.314822 
L 127.899364 244.737845 
L 127.899756 221.445534 
L 128.744146 219.474345 
L 128.744527 225.019303 
L 136.360585 232.877 
L 142.231315 221.928693 
L 143.073052 213.853577 
L 143.918832 239.383775 
L 144.76286 240.832008 
L 145.612006 241.743636 
L 155.771705 241.972884 
L 163.21203 229.082171 
L 164.180987 229.911573 
L 165.042171 221.246408 
L 170.943837 261.837106 
L 173.496775 227.326582 
L 207.146958 221.333615 
L 210.529274 233.96309 
L 218.978819 243.144362 
L 346.082599 271.090117 
L 379.139631 249.553395 
L 396.853779 261.326985 
L 396.854161 265.419544 
L 397.677773 288.629198 
L 397.678155 278.306618 
L 398.486891 288.32778 
L 398.487273 294.332144 
" style="fill:none;"/>
   </g>
   <g id="patch_14">
    <path d="M 57.6 307.584 
L 57.6 198.966857 
" style="fill:none;stroke:#000000;stroke-linecap:square;stroke-linejoin:miter;stroke-width:0.8;"/>
   </g>
   <g id="patch_15">
    <path d="M 414.72 307.584 
L 414.72 198.966857 
" style="fill:none;stroke:#000000;stroke-linecap:square;stroke-linejoin:miter;stroke-width:0.8;"/>
   </g>
   <g id="patch_16">
    <path d="M 57.6 307.584 
L 414.72 307.584 
" style="fill:none;stroke:#000000;stroke-linecap:square;stroke-linejoin:miter;stroke-width:0.8;"/>
   </g>
   <g id="patch_17">
    <path d="M 57.6 198.966857 
L 414.72 198.966857 
" style="fill:none;stroke:#000000;stroke-linecap:square;stroke-linejoin:miter;stroke-width:0.8;"/>
   </g>
   <g id="text_37">
    <!-- Light Curve -->
    <g transform="translate(206.000625 192.966857)scale(0.1 -0.1)">
     <use xlink:href="#DejaVuSerif-76"/>
     <use x="66.40625" xlink:href="#DejaVuSerif-105"/>
     <use x="98.388672" xlink:href="#DejaVuSerif-103"/>
     <use x="162.402344" xlink:href="#DejaVuSerif-104"/>
     <use x="226.806641" xlink:href="#DejaVuSerif-116"/>
     <use x="266.992188" xlink:href="#DejaVuSerif-32"/>
     <use x="298.779297" xlink:href="#DejaVuSerif-67"/>
     <use x="375.292969" xlink:href="#DejaVuSerif-117"/>
     <use x="439.697266" xlink:href="#DejaVuSerif-114"/>
     <use x="487.5" xlink:href="#DejaVuSerif-118"/>
     <use x="543.994141" xlink:href="#DejaVuSerif-101"/>
    </g>
   </g>
  </g>
 </g>
 <defs>
  <clipPath id="p0e95e0d9df">
   <rect height="108.617143" width="148.8" x="265.92" y="41.472"/>
  </clipPath>
  <clipPath id="p8fe3df135d">
   <rect height="108.617143" width="148.8" x="57.6" y="41.472"/>
  </clipPath>
  <clipPath id="p36e5b03040">
   <rect height="108.617143" width="357.12" x="57.6" y="198.966857"/>
  </clipPath>
 </defs>
</svg>
