<?xml version="1.0" encoding="utf-8" standalone="no"?>
<!DOCTYPE svg PUBLIC "-//W3C//DTD SVG 1.1//EN"
  "http://www.w3.org/Graphics/SVG/1.1/DTD/svg11.dtd">
<!-- Created with matplotlib (https://matplotlib.org/) -->
<svg height="345.6pt" version="1.1" viewBox="0 0 460.8 345.6" width="460.8pt" xmlns="http://www.w3.org/2000/svg" xmlns:xlink="http://www.w3.org/1999/xlink">
 <metadata>
  <rdf:RDF xmlns:cc="http://creativecommons.org/ns#" xmlns:dc="http://purl.org/dc/elements/1.1/" xmlns:rdf="http://www.w3.org/1999/02/22-rdf-syntax-ns#">
   <cc:Work>
    <dc:type rdf:resource="http://purl.org/dc/dcmitype/StillImage"/>
    <dc:date>2021-02-16T16:29:50.505847</dc:date>
    <dc:format>image/svg+xml</dc:format>
    <dc:creator>
     <cc:Agent>
      <dc:title>Matplotlib v3.3.3, https://matplotlib.org/</dc:title>
     </cc:Agent>
    </dc:creator>
   </cc:Work>
  </rdf:RDF>
 </metadata>
 <defs>
  <style type="text/css">*{stroke-linecap:butt;stroke-linejoin:round;}</style>
 </defs>
 <g id="figure_1">
  <g id="patch_1">
   <path d="M 0 345.6 
L 460.8 345.6 
L 460.8 0 
L 0 0 
z
" style="fill:#ffffff;"/>
  </g>
  <g id="axes_1">
   <g id="patch_2">
    <path d="M 265.92 150.089143 
L 414.72 150.089143 
L 414.72 41.472 
L 265.92 41.472 
z
" style="fill:#ffffff;"/>
   </g>
   <g id="matplotlib.axis_1">
    <g id="xtick_1">
     <g id="line2d_1">
      <defs>
       <path d="M 0 0 
L 0 3.5 
" id="m03ff03f501" style="stroke:#000000;stroke-width:0.8;"/>
      </defs>
      <g>
       <use style="stroke:#000000;stroke-width:0.8;" x="315.519224" xlink:href="#m03ff03f501" y="150.089143"/>
      </g>
     </g>
     <g id="text_1">
      <!-- $\mathdefault{10^{1}}$ -->
      <g transform="translate(306.719224 164.68758)scale(0.1 -0.1)">
       <defs>
        <path d="M 14.203125 0 
L 14.203125 5.171875 
L 26.90625 5.171875 
L 26.90625 65.828125 
L 12.203125 56.296875 
L 12.203125 62.703125 
L 29.984375 74.21875 
L 36.71875 74.21875 
L 36.71875 5.171875 
L 49.421875 5.171875 
L 49.421875 0 
z
" id="DejaVuSerif-49"/>
        <path d="M 31.78125 3.421875 
Q 39.265625 3.421875 42.96875 11.625 
Q 46.6875 19.828125 46.6875 36.375 
Q 46.6875 52.984375 42.96875 61.1875 
Q 39.265625 69.390625 31.78125 69.390625 
Q 24.3125 69.390625 20.59375 61.1875 
Q 16.890625 52.984375 16.890625 36.375 
Q 16.890625 19.828125 20.59375 11.625 
Q 24.3125 3.421875 31.78125 3.421875 
z
M 31.78125 -1.421875 
Q 19.921875 -1.421875 13.25 8.53125 
Q 6.59375 18.5 6.59375 36.375 
Q 6.59375 54.296875 13.25 64.25 
Q 19.921875 74.21875 31.78125 74.21875 
Q 43.703125 74.21875 50.34375 64.25 
Q 56.984375 54.296875 56.984375 36.375 
Q 56.984375 18.5 50.34375 8.53125 
Q 43.703125 -1.421875 31.78125 -1.421875 
z
" id="DejaVuSerif-48"/>
       </defs>
       <use transform="translate(0 0.7125)" xlink:href="#DejaVuSerif-49"/>
       <use transform="translate(63.623047 0.7125)" xlink:href="#DejaVuSerif-48"/>
       <use transform="translate(128.154453 37.046875)scale(0.7)" xlink:href="#DejaVuSerif-49"/>
      </g>
     </g>
    </g>
    <g id="xtick_2">
     <g id="line2d_2">
      <g>
       <use style="stroke:#000000;stroke-width:0.8;" x="373.218149" xlink:href="#m03ff03f501" y="150.089143"/>
      </g>
     </g>
     <g id="text_2">
      <!-- $\mathdefault{10^{2}}$ -->
      <g transform="translate(364.418149 164.68758)scale(0.1 -0.1)">
       <defs>
        <path d="M 12.796875 55.515625 
L 7.328125 55.515625 
L 7.328125 68.5 
Q 12.546875 71.296875 17.84375 72.75 
Q 23.140625 74.21875 28.21875 74.21875 
Q 39.59375 74.21875 46.1875 68.703125 
Q 52.78125 63.1875 52.78125 53.71875 
Q 52.78125 43.015625 37.84375 28.125 
Q 36.671875 27 36.078125 26.421875 
L 17.671875 8.015625 
L 48.09375 8.015625 
L 48.09375 17 
L 53.8125 17 
L 53.8125 0 
L 6.78125 0 
L 6.78125 5.328125 
L 28.90625 27.390625 
Q 36.234375 34.71875 39.359375 40.84375 
Q 42.484375 46.96875 42.484375 53.71875 
Q 42.484375 61.078125 38.640625 65.234375 
Q 34.8125 69.390625 28.078125 69.390625 
Q 21.09375 69.390625 17.28125 65.921875 
Q 13.484375 62.453125 12.796875 55.515625 
z
" id="DejaVuSerif-50"/>
       </defs>
       <use transform="translate(0 0.7125)" xlink:href="#DejaVuSerif-49"/>
       <use transform="translate(63.623047 0.7125)" xlink:href="#DejaVuSerif-48"/>
       <use transform="translate(128.154453 37.046875)scale(0.7)" xlink:href="#DejaVuSerif-50"/>
      </g>
     </g>
    </g>
    <g id="xtick_3">
     <g id="line2d_3">
      <defs>
       <path d="M 0 0 
L 0 2 
" id="mcd04afb232" style="stroke:#000000;stroke-width:0.6;"/>
      </defs>
      <g>
       <use style="stroke:#000000;stroke-width:0.6;" x="275.189406" xlink:href="#mcd04afb232" y="150.089143"/>
      </g>
     </g>
    </g>
    <g id="xtick_4">
     <g id="line2d_4">
      <g>
       <use style="stroke:#000000;stroke-width:0.6;" x="285.349683" xlink:href="#mcd04afb232" y="150.089143"/>
      </g>
     </g>
    </g>
    <g id="xtick_5">
     <g id="line2d_5">
      <g>
       <use style="stroke:#000000;stroke-width:0.6;" x="292.558513" xlink:href="#mcd04afb232" y="150.089143"/>
      </g>
     </g>
    </g>
    <g id="xtick_6">
     <g id="line2d_6">
      <g>
       <use style="stroke:#000000;stroke-width:0.6;" x="298.150117" xlink:href="#mcd04afb232" y="150.089143"/>
      </g>
     </g>
    </g>
    <g id="xtick_7">
     <g id="line2d_7">
      <g>
       <use style="stroke:#000000;stroke-width:0.6;" x="302.71879" xlink:href="#mcd04afb232" y="150.089143"/>
      </g>
     </g>
    </g>
    <g id="xtick_8">
     <g id="line2d_8">
      <g>
       <use style="stroke:#000000;stroke-width:0.6;" x="306.581548" xlink:href="#mcd04afb232" y="150.089143"/>
      </g>
     </g>
    </g>
    <g id="xtick_9">
     <g id="line2d_9">
      <g>
       <use style="stroke:#000000;stroke-width:0.6;" x="309.927621" xlink:href="#mcd04afb232" y="150.089143"/>
      </g>
     </g>
    </g>
    <g id="xtick_10">
     <g id="line2d_10">
      <g>
       <use style="stroke:#000000;stroke-width:0.6;" x="312.879066" xlink:href="#mcd04afb232" y="150.089143"/>
      </g>
     </g>
    </g>
    <g id="xtick_11">
     <g id="line2d_11">
      <g>
       <use style="stroke:#000000;stroke-width:0.6;" x="332.888331" xlink:href="#mcd04afb232" y="150.089143"/>
      </g>
     </g>
    </g>
    <g id="xtick_12">
     <g id="line2d_12">
      <g>
       <use style="stroke:#000000;stroke-width:0.6;" x="343.048608" xlink:href="#mcd04afb232" y="150.089143"/>
      </g>
     </g>
    </g>
    <g id="xtick_13">
     <g id="line2d_13">
      <g>
       <use style="stroke:#000000;stroke-width:0.6;" x="350.257438" xlink:href="#mcd04afb232" y="150.089143"/>
      </g>
     </g>
    </g>
    <g id="xtick_14">
     <g id="line2d_14">
      <g>
       <use style="stroke:#000000;stroke-width:0.6;" x="355.849042" xlink:href="#mcd04afb232" y="150.089143"/>
      </g>
     </g>
    </g>
    <g id="xtick_15">
     <g id="line2d_15">
      <g>
       <use style="stroke:#000000;stroke-width:0.6;" x="360.417715" xlink:href="#mcd04afb232" y="150.089143"/>
      </g>
     </g>
    </g>
    <g id="xtick_16">
     <g id="line2d_16">
      <g>
       <use style="stroke:#000000;stroke-width:0.6;" x="364.280473" xlink:href="#mcd04afb232" y="150.089143"/>
      </g>
     </g>
    </g>
    <g id="xtick_17">
     <g id="line2d_17">
      <g>
       <use style="stroke:#000000;stroke-width:0.6;" x="367.626546" xlink:href="#mcd04afb232" y="150.089143"/>
      </g>
     </g>
    </g>
    <g id="xtick_18">
     <g id="line2d_18">
      <g>
       <use style="stroke:#000000;stroke-width:0.6;" x="370.577991" xlink:href="#mcd04afb232" y="150.089143"/>
      </g>
     </g>
    </g>
    <g id="xtick_19">
     <g id="line2d_19">
      <g>
       <use style="stroke:#000000;stroke-width:0.6;" x="390.587256" xlink:href="#mcd04afb232" y="150.089143"/>
      </g>
     </g>
    </g>
    <g id="xtick_20">
     <g id="line2d_20">
      <g>
       <use style="stroke:#000000;stroke-width:0.6;" x="400.747533" xlink:href="#mcd04afb232" y="150.089143"/>
      </g>
     </g>
    </g>
    <g id="xtick_21">
     <g id="line2d_21">
      <g>
       <use style="stroke:#000000;stroke-width:0.6;" x="407.956364" xlink:href="#mcd04afb232" y="150.089143"/>
      </g>
     </g>
    </g>
    <g id="xtick_22">
     <g id="line2d_22">
      <g>
       <use style="stroke:#000000;stroke-width:0.6;" x="413.547967" xlink:href="#mcd04afb232" y="150.089143"/>
      </g>
     </g>
    </g>
    <g id="text_3">
     <!-- Period d -->
     <g transform="translate(319.231719 178.365705)scale(0.1 -0.1)">
      <defs>
       <path d="M 24.703125 37.109375 
L 37.59375 37.109375 
Q 44.875 37.109375 48.671875 41.03125 
Q 52.484375 44.96875 52.484375 52.390625 
Q 52.484375 59.859375 48.671875 63.765625 
Q 44.875 67.671875 37.59375 67.671875 
L 24.703125 67.671875 
z
M 5.515625 0 
L 5.515625 5.171875 
L 14.796875 5.171875 
L 14.796875 67.671875 
L 5.515625 67.671875 
L 5.515625 72.90625 
L 39.984375 72.90625 
Q 50.921875 72.90625 57.3125 67.359375 
Q 63.71875 61.8125 63.71875 52.390625 
Q 63.71875 43.015625 57.3125 37.453125 
Q 50.921875 31.890625 39.984375 31.890625 
L 24.703125 31.890625 
L 24.703125 5.171875 
L 35.984375 5.171875 
L 35.984375 0 
z
" id="DejaVuSerif-80"/>
       <path d="M 54.203125 25 
L 15.484375 25 
L 15.484375 24.609375 
Q 15.484375 14.109375 19.4375 8.765625 
Q 23.390625 3.421875 31.109375 3.421875 
Q 37.015625 3.421875 40.796875 6.515625 
Q 44.578125 9.625 46.09375 15.71875 
L 53.328125 15.71875 
Q 51.171875 7.171875 45.375 2.875 
Q 39.59375 -1.421875 30.171875 -1.421875 
Q 18.796875 -1.421875 11.890625 6.078125 
Q 4.984375 13.578125 4.984375 25.984375 
Q 4.984375 38.28125 11.765625 45.796875 
Q 18.5625 53.328125 29.59375 53.328125 
Q 41.359375 53.328125 47.65625 46.0625 
Q 53.953125 38.8125 54.203125 25 
z
M 43.609375 30.171875 
Q 43.3125 39.265625 39.765625 43.875 
Q 36.234375 48.484375 29.59375 48.484375 
Q 23.390625 48.484375 19.828125 43.84375 
Q 16.265625 39.203125 15.484375 30.171875 
z
" id="DejaVuSerif-101"/>
       <path d="M 47.796875 52 
L 47.796875 39.015625 
L 42.625 39.015625 
Q 42.390625 42.875 40.484375 44.78125 
Q 38.578125 46.6875 34.90625 46.6875 
Q 28.265625 46.6875 24.71875 42.09375 
Q 21.1875 37.5 21.1875 28.90625 
L 21.1875 5.171875 
L 31.59375 5.171875 
L 31.59375 0 
L 4.109375 0 
L 4.109375 5.171875 
L 12.203125 5.171875 
L 12.203125 46.78125 
L 3.609375 46.78125 
L 3.609375 51.90625 
L 21.1875 51.90625 
L 21.1875 42.671875 
Q 23.828125 48.09375 27.96875 50.703125 
Q 32.125 53.328125 38.09375 53.328125 
Q 40.28125 53.328125 42.703125 52.984375 
Q 45.125 52.640625 47.796875 52 
z
" id="DejaVuSerif-114"/>
       <path d="M 9.71875 68.015625 
Q 9.71875 70.265625 11.34375 71.921875 
Q 12.984375 73.578125 15.28125 73.578125 
Q 17.53125 73.578125 19.15625 71.921875 
Q 20.796875 70.265625 20.796875 68.015625 
Q 20.796875 65.71875 19.1875 64.109375 
Q 17.578125 62.5 15.28125 62.5 
Q 12.984375 62.5 11.34375 64.109375 
Q 9.71875 65.71875 9.71875 68.015625 
z
M 21.1875 5.171875 
L 29.6875 5.171875 
L 29.6875 0 
L 3.609375 0 
L 3.609375 5.171875 
L 12.203125 5.171875 
L 12.203125 46.6875 
L 3.609375 46.6875 
L 3.609375 51.90625 
L 21.1875 51.90625 
z
" id="DejaVuSerif-105"/>
       <path d="M 30.078125 3.421875 
Q 37.3125 3.421875 40.984375 9.125 
Q 44.671875 14.84375 44.671875 25.984375 
Q 44.671875 37.109375 40.984375 42.796875 
Q 37.3125 48.484375 30.078125 48.484375 
Q 22.859375 48.484375 19.171875 42.796875 
Q 15.484375 37.109375 15.484375 25.984375 
Q 15.484375 14.84375 19.1875 9.125 
Q 22.90625 3.421875 30.078125 3.421875 
z
M 30.078125 -1.421875 
Q 18.75 -1.421875 11.859375 6.078125 
Q 4.984375 13.578125 4.984375 25.984375 
Q 4.984375 38.375 11.84375 45.84375 
Q 18.703125 53.328125 30.078125 53.328125 
Q 41.453125 53.328125 48.3125 45.84375 
Q 55.171875 38.375 55.171875 25.984375 
Q 55.171875 13.578125 48.3125 6.078125 
Q 41.453125 -1.421875 30.078125 -1.421875 
z
" id="DejaVuSerif-111"/>
       <path d="M 52.484375 5.171875 
L 61.078125 5.171875 
L 61.078125 0 
L 43.5 0 
L 43.5 8.109375 
Q 40.875 3.21875 36.796875 0.890625 
Q 32.71875 -1.421875 26.703125 -1.421875 
Q 17.140625 -1.421875 11.0625 6.171875 
Q 4.984375 13.765625 4.984375 25.984375 
Q 4.984375 38.1875 11.03125 45.75 
Q 17.09375 53.328125 26.703125 53.328125 
Q 32.71875 53.328125 36.796875 51 
Q 40.875 48.6875 43.5 43.796875 
L 43.5 70.796875 
L 35.015625 70.796875 
L 35.015625 75.984375 
L 52.484375 75.984375 
z
M 43.5 23.390625 
L 43.5 28.515625 
Q 43.5 37.84375 39.90625 42.765625 
Q 36.328125 47.703125 29.5 47.703125 
Q 22.5625 47.703125 19.015625 42.234375 
Q 15.484375 36.765625 15.484375 25.984375 
Q 15.484375 15.234375 19.015625 9.71875 
Q 22.5625 4.203125 29.5 4.203125 
Q 36.328125 4.203125 39.90625 9.109375 
Q 43.5 14.015625 43.5 23.390625 
z
" id="DejaVuSerif-100"/>
       <path id="DejaVuSerif-32"/>
      </defs>
      <use xlink:href="#DejaVuSerif-80"/>
      <use x="62.785156" xlink:href="#DejaVuSerif-101"/>
      <use x="121.964844" xlink:href="#DejaVuSerif-114"/>
      <use x="169.767578" xlink:href="#DejaVuSerif-105"/>
      <use x="201.75" xlink:href="#DejaVuSerif-111"/>
      <use x="261.955078" xlink:href="#DejaVuSerif-100"/>
      <use x="325.96875" xlink:href="#DejaVuSerif-32"/>
      <use x="357.755859" xlink:href="#DejaVuSerif-100"/>
     </g>
    </g>
   </g>
   <g id="matplotlib.axis_2">
    <g id="ytick_1">
     <g id="line2d_23">
      <defs>
       <path d="M 0 0 
L -3.5 0 
" id="md7f2f26a07" style="stroke:#000000;stroke-width:0.8;"/>
      </defs>
      <g>
       <use style="stroke:#000000;stroke-width:0.8;" x="265.92" xlink:href="#md7f2f26a07" y="145.152274"/>
      </g>
     </g>
     <g id="text_4">
      <!-- 0.0 -->
      <g transform="translate(243.016875 148.951492)scale(0.1 -0.1)">
       <defs>
        <path d="M 9.421875 5.078125 
Q 9.421875 7.8125 11.28125 9.71875 
Q 13.140625 11.625 15.921875 11.625 
Q 18.609375 11.625 20.5 9.71875 
Q 22.40625 7.8125 22.40625 5.078125 
Q 22.40625 2.390625 20.5 0.484375 
Q 18.609375 -1.421875 15.921875 -1.421875 
Q 13.140625 -1.421875 11.28125 0.453125 
Q 9.421875 2.34375 9.421875 5.078125 
z
" id="DejaVuSerif-46"/>
       </defs>
       <use xlink:href="#DejaVuSerif-48"/>
       <use x="63.623047" xlink:href="#DejaVuSerif-46"/>
       <use x="95.410156" xlink:href="#DejaVuSerif-48"/>
      </g>
     </g>
    </g>
    <g id="ytick_2">
     <g id="line2d_24">
      <g>
       <use style="stroke:#000000;stroke-width:0.8;" x="265.92" xlink:href="#md7f2f26a07" y="103.91793"/>
      </g>
     </g>
     <g id="text_5">
      <!-- 0.2 -->
      <g transform="translate(243.016875 107.717149)scale(0.1 -0.1)">
       <use xlink:href="#DejaVuSerif-48"/>
       <use x="63.623047" xlink:href="#DejaVuSerif-46"/>
       <use x="95.410156" xlink:href="#DejaVuSerif-50"/>
      </g>
     </g>
    </g>
    <g id="ytick_3">
     <g id="line2d_25">
      <g>
       <use style="stroke:#000000;stroke-width:0.8;" x="265.92" xlink:href="#md7f2f26a07" y="62.683587"/>
      </g>
     </g>
     <g id="text_6">
      <!-- 0.4 -->
      <g transform="translate(243.016875 66.482806)scale(0.1 -0.1)">
       <defs>
        <path d="M 34.90625 24.703125 
L 34.90625 63.484375 
L 10.015625 24.703125 
z
M 56.390625 0 
L 23.1875 0 
L 23.1875 5.171875 
L 34.90625 5.171875 
L 34.90625 19.484375 
L 3.078125 19.484375 
L 3.078125 24.8125 
L 35.015625 74.21875 
L 44.671875 74.21875 
L 44.671875 24.703125 
L 58.59375 24.703125 
L 58.59375 19.484375 
L 44.671875 19.484375 
L 44.671875 5.171875 
L 56.390625 5.171875 
z
" id="DejaVuSerif-52"/>
       </defs>
       <use xlink:href="#DejaVuSerif-48"/>
       <use x="63.623047" xlink:href="#DejaVuSerif-46"/>
       <use x="95.410156" xlink:href="#DejaVuSerif-52"/>
      </g>
     </g>
    </g>
    <g id="text_7">
     <!-- Power -->
     <g transform="translate(236.937188 111.583696)rotate(-90)scale(0.1 -0.1)">
      <defs>
       <path d="M 48 51.90625 
L 61.28125 11.375 
L 73 46.6875 
L 65.484375 46.6875 
L 65.484375 51.90625 
L 84.28125 51.90625 
L 84.28125 46.6875 
L 78.515625 46.6875 
L 63.09375 0 
L 55.609375 0 
L 42.828125 38.8125 
L 29.984375 0 
L 22.796875 0 
L 7.421875 46.6875 
L 1.609375 46.6875 
L 1.609375 51.90625 
L 25.09375 51.90625 
L 25.09375 46.6875 
L 16.703125 46.6875 
L 28.328125 11.375 
L 41.703125 51.90625 
z
" id="DejaVuSerif-119"/>
      </defs>
      <use xlink:href="#DejaVuSerif-80"/>
      <use x="63.285156" xlink:href="#DejaVuSerif-111"/>
      <use x="123.490234" xlink:href="#DejaVuSerif-119"/>
      <use x="209.085938" xlink:href="#DejaVuSerif-101"/>
      <use x="268.265625" xlink:href="#DejaVuSerif-114"/>
     </g>
    </g>
   </g>
   <g id="LineCollection_1">
    <path clip-path="url(#pbd78211bc4)" d="M 272.688076 46.409143 
L 407.956364 46.409143 
" style="fill:none;stroke:#808080;stroke-dasharray:5.55,2.4;stroke-dashoffset:0;stroke-width:1.5;"/>
   </g>
   <g id="LineCollection_2">
    <path clip-path="url(#pbd78211bc4)" d="M 272.688076 60.373489 
L 407.956364 60.373489 
" style="fill:none;stroke:#a9a9a9;stroke-dasharray:5.55,2.4;stroke-dashoffset:0;stroke-width:1.5;"/>
   </g>
   <g id="LineCollection_3">
    <path clip-path="url(#pbd78211bc4)" d="M 272.688076 71.428159 
L 407.956364 71.428159 
" style="fill:none;stroke:#c0c0c0;stroke-dasharray:5.55,2.4;stroke-dashoffset:0;stroke-width:1.5;"/>
   </g>
   <g id="LineCollection_4">
    <path clip-path="url(#pbd78211bc4)" d="M 272.688076 76.667601 
L 407.956364 76.667601 
" style="fill:none;stroke:#d3d3d3;stroke-dasharray:5.55,2.4;stroke-dashoffset:0;stroke-width:1.5;"/>
   </g>
   <g id="line2d_26">
    <path clip-path="url(#pbd78211bc4)" d="M 407.956364 125.938606 
L 403.213616 123.693507 
L 399.227255 127.780803 
L 395.788878 119.360289 
L 392.765875 113.278667 
L 390.068617 115.580146 
L 387.633683 121.228796 
L 385.414539 130.356456 
L 383.376032 139.737339 
L 381.490955 137.653298 
L 379.73782 133.556646 
L 378.099359 135.649366 
L 376.561486 141.290351 
L 375.112563 145.055558 
L 372.444161 136.102501 
L 371.209467 137.219832 
L 370.032763 141.31326 
L 368.908846 142.031205 
L 367.833182 132.013534 
L 366.801799 118.655567 
L 365.811193 115.564872 
L 364.858264 123.447169 
L 363.940249 136.032868 
L 363.054681 138.038459 
L 362.199344 123.566737 
L 361.372241 115.894026 
L 360.571569 118.242881 
L 359.79569 125.522995 
L 359.043114 133.748473 
L 358.312483 139.769305 
L 357.602554 134.502546 
L 356.912184 124.834421 
L 356.240326 118.172886 
L 355.586012 115.049956 
L 354.948349 117.163632 
L 353.719731 137.94071 
L 352.548548 125.08073 
L 351.982864 124.513613 
L 351.429669 127.772389 
L 350.888423 134.415127 
L 350.358621 143.527264 
L 349.839788 144.503099 
L 349.331481 143.220087 
L 348.83328 143.878392 
L 348.344791 143.262485 
L 347.865643 140.543656 
L 347.395485 137.042229 
L 346.933987 135.774768 
L 346.480834 139.123446 
L 346.035731 144.327911 
L 345.598396 142.975594 
L 345.168563 136.04305 
L 344.745979 133.057637 
L 344.330404 136.114179 
L 343.921608 142.112769 
L 343.519374 144.195281 
L 342.733774 131.639198 
L 342.35002 133.025415 
L 341.599707 143.83084 
L 341.23281 144.498373 
L 340.871208 144.169196 
L 340.51475 144.839905 
L 340.163291 142.56065 
L 339.137558 114.692392 
L 338.80477 113.758026 
L 338.476344 125.121715 
L 338.152167 128.821962 
L 337.83213 122.743898 
L 337.516128 121.790387 
L 337.204063 124.741952 
L 336.895836 129.447999 
L 336.591354 138.541502 
L 336.290527 143.380286 
L 335.993269 141.86193 
L 335.699496 141.529023 
L 335.122085 145.019683 
L 334.838294 143.472823 
L 334.55768 140.135418 
L 334.280174 139.737846 
L 333.734215 145.028633 
L 333.465633 143.55824 
L 333.199898 140.306228 
L 332.936952 140.439779 
L 332.676737 143.158488 
L 332.419196 143.123506 
L 332.164275 135.674516 
L 331.662084 114.93231 
L 331.414712 119.490647 
L 330.927177 138.723454 
L 330.686922 133.804435 
L 330.448947 126.411902 
L 330.213212 126.2196 
L 329.29184 144.878964 
L 328.843554 137.578335 
L 328.622384 138.70812 
L 328.185814 145.152 
L 327.970348 141.425116 
L 327.544897 117.527946 
L 327.33485 118.090385 
L 326.919965 141.014903 
L 326.71507 135.963696 
L 326.511837 125.86593 
L 326.310239 124.677051 
L 326.11025 130.374244 
L 325.714998 145.022068 
L 325.325884 138.728778 
L 325.133569 139.381719 
L 324.942719 143.61631 
L 324.753312 143.953577 
L 324.193532 127.305467 
L 324.009683 129.800618 
L 323.645984 143.717652 
L 323.466094 143.089743 
L 322.934048 132.007678 
L 322.75918 132.619477 
L 322.413063 141.753724 
L 322.241781 141.204381 
L 321.90269 121.432038 
L 321.73485 118.763243 
L 321.402505 129.979214 
L 321.07451 93.257101 
L 320.912109 77.552687 
L 320.750753 72.739949 
L 320.431126 105.408848 
L 319.959202 73.088856 
L 319.803848 81.460715 
L 319.496001 126.097772 
L 319.343484 126.557345 
L 319.19189 123.881071 
L 319.041207 126.274742 
L 318.594521 143.68952 
L 318.301094 137.456571 
L 318.155658 138.229737 
L 317.867296 143.608141 
L 317.724349 141.019175 
L 317.44088 131.289581 
L 317.300339 132.817986 
L 317.021599 139.70982 
L 316.883384 133.972847 
L 316.609219 118.369499 
L 316.473253 120.539936 
L 316.203515 131.196369 
L 315.804275 104.50449 
L 315.541606 116.870166 
L 315.411296 123.094486 
L 315.281661 115.423549 
L 315.024386 91.270636 
L 314.896732 97.398776 
L 314.643358 130.909455 
L 314.517626 129.724247 
L 314.268038 113.095314 
L 314.14417 116.306668 
L 313.776199 140.615234 
L 313.413552 123.42544 
L 313.174672 140.505692 
L 313.05608 140.290485 
L 312.820567 117.113179 
L 312.703635 114.415078 
L 312.471396 127.393812 
L 312.127024 72.454678 
L 312.013277 68.729244 
L 311.900044 77.444048 
L 311.78732 97.135652 
L 311.675102 90.637021 
L 311.452161 66.124326 
L 311.231186 94.1552 
L 311.121425 113.910138 
L 311.012142 110.473762 
L 310.794997 96.582534 
L 310.687126 100.480584 
L 310.472767 128.351264 
L 310.366271 128.241663 
L 310.049473 112.139209 
L 309.944758 114.702976 
L 309.73663 128.420567 
L 309.427645 115.986542 
L 309.32549 120.460706 
L 309.122423 141.757023 
L 309.021503 141.097195 
L 308.820874 138.660738 
L 308.721159 140.366443 
L 308.621839 137.436908 
L 308.326219 109.298557 
L 308.228449 108.660693 
L 308.13106 114.902838 
L 308.034047 113.651731 
L 307.84114 94.429463 
L 307.649708 109.973861 
L 307.459727 128.858341 
L 307.271175 117.228978 
L 306.990981 126.38825 
L 306.898275 120.612835 
L 306.622198 84.311775 
L 306.349129 107.204716 
L 306.168722 85.223989 
L 306.079003 90.828979 
L 305.811759 136.892821 
L 305.723307 133.637081 
L 305.635166 130.251135 
L 305.372589 140.356175 
L 305.112735 108.256825 
L 305.026712 112.569074 
L 304.855548 133.192969 
L 304.685544 112.327437 
L 304.600973 113.009962 
L 304.265515 141.228783 
L 304.016835 122.605081 
L 303.852409 133.400401 
L 303.770599 129.244015 
L 303.52676 71.577154 
L 303.446004 71.50488 
L 303.28527 96.761633 
L 303.046086 57.778694 
L 302.730683 114.672301 
L 302.652449 108.89617 
L 302.574458 109.910131 
L 302.341932 137.832941 
L 302.111544 126.113169 
L 301.883255 139.05207 
L 301.657027 128.239058 
L 301.582069 129.19925 
L 301.358531 138.11329 
L 301.210607 133.074233 
L 301.13697 134.352706 
L 300.990344 143.327544 
L 300.917351 143.320107 
L 300.772001 140.437434 
L 300.627488 144.683677 
L 300.555543 144.626081 
L 300.41227 141.641869 
L 300.198885 144.285553 
L 300.057631 144.724421 
L 299.987302 144.898111 
L 299.847232 141.479306 
L 299.77749 141.680933 
L 299.638585 144.290665 
L 299.500446 142.642025 
L 299.431661 142.963896 
L 299.363064 144.934447 
L 299.294655 143.914388 
L 299.09054 131.044577 
L 298.955381 141.810955 
L 298.888074 138.041745 
L 298.754 123.235051 
L 298.687231 125.649385 
L 298.554225 140.928006 
L 298.356029 124.956839 
L 298.159389 144.284639 
L 298.029148 136.330861 
L 297.96428 137.894309 
L 297.835046 145.05884 
L 297.642437 137.571999 
L 297.387906 144.889454 
L 297.324675 144.81575 
L 297.135934 131.875933 
L 297.073335 132.924579 
L 296.948604 140.208414 
L 296.762664 118.697009 
L 296.70099 122.141963 
L 296.578094 132.007543 
L 296.394874 111.658636 
L 296.212983 126.139033 
L 296.032403 117.736406 
L 295.972498 118.225335 
L 295.853115 129.739827 
L 295.793636 129.628884 
L 295.675101 120.613195 
L 295.498342 135.738753 
L 295.439699 135.25245 
L 295.322822 128.212959 
L 295.148522 137.291672 
L 295.032992 125.218967 
L 294.975427 127.0174 
L 294.803519 141.462043 
L 294.689565 137.155799 
L 294.5196 145.139617 
L 294.463201 144.084358 
L 294.294759 140.363613 
L 294.183091 143.635599 
L 294.127442 143.149125 
L 293.961236 111.631111 
L 293.906077 113.757559 
L 293.796124 129.586331 
L 293.741328 126.067977 
L 293.632093 111.178019 
L 293.577654 116.516461 
L 293.415042 143.591876 
L 293.307218 138.410642 
L 293.199855 145.008576 
L 293.039669 130.668272 
L 292.9865 134.206719 
L 292.8805 142.650498 
L 292.774947 130.933291 
L 292.722336 131.112489 
L 292.617446 140.636602 
L 292.565165 136.337957 
L 292.408972 118.045342 
L 292.253748 129.4548 
L 292.150796 109.744976 
L 292.048266 93.119568 
L 291.895253 110.330681 
L 291.743168 95.699376 
L 291.592001 127.073261 
L 291.541814 122.814646 
L 291.441741 114.402213 
L 291.342066 125.415411 
L 291.292376 124.553555 
L 291.193292 117.661933 
L 291.143896 121.047376 
L 290.996291 135.542129 
L 290.898369 132.219354 
L 290.84955 133.446013 
L 290.752198 139.440531 
L 290.703664 139.045648 
L 290.606876 126.795466 
L 290.558622 127.1427 
L 290.510461 129.895171 
L 290.462392 127.404343 
L 290.318735 97.140478 
L 290.271032 102.249895 
L 290.175898 120.198246 
L 290.128466 117.609547 
L 290.081123 113.408103 
L 290.03387 115.394981 
L 289.892643 143.723429 
L 289.845744 142.738343 
L 289.798932 140.487179 
L 289.752207 141.383469 
L 289.659019 144.651991 
L 289.612554 143.317113 
L 289.566176 142.500961 
L 289.519883 143.332476 
L 289.473675 144.375871 
L 289.427552 143.046602 
L 289.381515 141.664772 
L 289.335561 142.458146 
L 289.243907 145.078173 
L 289.152586 140.102107 
L 289.10705 140.170816 
L 289.016226 144.23915 
L 288.970937 142.852435 
L 288.92573 140.845028 
L 288.880604 142.15337 
L 288.835559 144.59843 
L 288.790596 143.113712 
L 288.656186 128.448246 
L 288.566978 140.437562 
L 288.522494 140.041596 
L 288.43376 128.239493 
L 288.389511 132.431418 
L 288.301246 141.169987 
L 288.25723 136.526573 
L 288.169429 123.513308 
L 288.125643 130.287755 
L 288.081934 135.380219 
L 288.038302 134.375172 
L 287.951263 119.353489 
L 287.907857 119.715191 
L 287.778088 132.682784 
L 287.73498 129.737147 
L 287.606101 114.239577 
L 287.563288 118.092341 
L 287.435287 104.431893 
L 287.392765 96.963809 
L 287.350314 97.338216 
L 287.265629 113.071392 
L 287.223394 110.187871 
L 287.139135 105.202938 
L 286.971464 126.185325 
L 286.929721 125.825185 
L 286.763441 141.39436 
L 286.680713 138.396593 
L 286.598257 132.531362 
L 286.55713 134.998105 
L 286.475079 140.87972 
L 286.434154 139.451841 
L 286.352504 135.772313 
L 286.271119 144.52598 
L 286.230526 142.889023 
L 286.149536 132.312682 
L 286.109139 134.685098 
L 286.068806 138.978589 
L 286.028539 135.504726 
L 285.948198 120.038626 
L 285.908124 120.883341 
L 285.788285 140.713773 
L 285.748465 136.959586 
L 285.708709 134.253504 
L 285.669016 138.542516 
L 285.629385 144.243192 
L 285.589817 143.551505 
L 285.471487 133.706085 
L 285.392909 143.345659 
L 285.353713 141.449693 
L 285.275503 137.485433 
L 285.158645 144.80862 
L 285.119812 142.263698 
L 285.08104 139.690832 
L 285.042328 140.010394 
L 284.965083 143.851295 
L 284.926549 143.65473 
L 284.84966 134.677871 
L 284.773005 120.47269 
L 284.696584 124.834649 
L 284.658461 125.180899 
L 284.620396 123.02965 
L 284.544439 108.043584 
L 284.506546 114.775721 
L 284.355546 137.87671 
L 284.317938 137.795641 
L 284.205451 144.59309 
L 284.130739 142.828262 
L 283.834099 126.588326 
L 283.797265 130.587094 
L 283.760485 134.598456 
L 283.650467 134.566297 
L 283.577389 141.900458 
L 283.54093 140.119806 
L 283.323282 122.620906 
L 283.251151 118.163183 
L 283.035995 142.963189 
L 282.964685 138.537469 
L 282.929106 135.923353 
L 282.893577 137.608621 
L 282.822671 142.626603 
L 282.787292 140.291726 
L 282.716685 137.088427 
L 282.646277 144.400575 
L 282.611147 141.983903 
L 282.541034 131.850075 
L 282.506051 133.467917 
L 282.436231 143.605564 
L 282.366605 141.125072 
L 282.331865 140.976374 
L 282.297172 141.947201 
L 282.227931 140.892823 
L 282.193382 141.07434 
L 282.124427 143.464419 
L 282.09002 141.637979 
L 281.987083 131.748567 
L 281.952864 136.149451 
L 281.884566 143.385126 
L 281.816455 141.010453 
L 281.782468 139.984287 
L 281.748527 140.476116 
L 281.64698 144.64991 
L 281.613223 143.103131 
L 281.545843 138.287788 
L 281.512222 140.502242 
L 281.478645 141.247097 
L 281.378184 127.652767 
L 281.278123 133.687838 
L 281.244859 133.886237 
L 281.178461 128.610957 
L 281.145328 132.036296 
L 280.980318 140.632592 
L 280.881831 144.608962 
L 280.849088 144.264267 
L 280.718542 135.332956 
L 280.686011 135.463578 
L 280.39512 110.95967 
L 280.363006 108.341991 
L 280.107567 145.010727 
L 280.012445 141.281263 
L 279.980818 143.227218 
L 279.94923 144.770424 
L 279.917683 143.873576 
L 279.791887 139.762464 
L 279.697954 144.05333 
L 279.666721 141.95907 
L 279.573254 136.548925 
L 279.542176 139.976188 
L 279.511136 143.82954 
L 279.449172 140.15538 
L 279.38736 137.860491 
L 279.356512 140.58991 
L 279.325701 142.370126 
L 279.294928 140.899845 
L 279.202836 128.849843 
L 279.141628 134.36499 
L 279.11108 135.198047 
L 278.98926 119.052014 
L 278.958897 125.921196 
L 278.77749 144.18319 
L 278.747382 144.527152 
L 278.507817 131.054189 
L 278.448282 138.223022 
L 278.388888 137.412681 
L 278.241016 127.049468 
L 278.211546 128.009655 
L 278.18211 128.396001 
L 278.064713 142.099805 
L 278.03545 141.906007 
L 277.947864 137.536321 
L 277.918736 139.333294 
L 277.831556 139.070481 
L 277.744679 144.534907 
L 277.715787 144.401093 
L 277.485839 122.569298 
L 277.457243 124.497278 
L 277.40015 139.231134 
L 277.314753 134.875056 
L 277.286352 135.682972 
L 277.229646 142.704463 
L 277.201341 139.948897 
L 277.116617 125.134821 
L 277.060294 132.065877 
L 277.032179 132.268227 
L 276.948025 119.441943 
L 276.920036 124.171375 
L 276.780559 141.281688 
L 276.724985 144.943268 
L 276.697244 142.992095 
L 276.641855 135.685636 
L 276.586587 140.988642 
L 276.558999 141.2967 
L 276.531441 141.008699 
L 276.503913 139.409297 
L 276.476416 140.054994 
L 276.394104 145.079653 
L 276.33938 145.062018 
L 276.312062 145.07219 
L 276.17592 141.6319 
L 276.040513 122.250623 
L 275.932712 127.190194 
L 275.771875 138.772837 
L 275.745168 138.160587 
L 275.718491 136.363018 
L 275.66522 138.261842 
L 275.612063 141.724386 
L 275.559018 138.214383 
L 275.426896 144.426771 
L 275.400554 142.833187 
L 275.321697 140.239214 
L 275.295466 141.526163 
L 275.269262 143.450518 
L 275.243086 141.411435 
L 275.138655 133.477209 
L 275.112615 139.142969 
L 275.086602 142.086713 
L 275.008724 139.710001 
L 274.931088 144.775734 
L 274.879464 142.681628 
L 274.827946 141.625827 
L 274.802226 143.012906 
L 274.776534 144.53625 
L 274.750867 143.176028 
L 274.674024 135.487409 
L 274.648462 137.726475 
L 274.622927 141.210663 
L 274.571933 136.416194 
L 274.394267 121.865565 
L 274.368989 122.943002 
L 274.343736 127.883111 
L 274.242979 126.215782 
L 274.092598 143.839099 
L 274.042671 142.77522 
L 274.017745 142.805174 
L 273.992843 142.539064 
L 273.819223 130.454252 
L 273.794518 132.650033 
L 273.622261 144.848178 
L 273.597749 143.534834 
L 273.402514 116.836265 
L 273.378216 120.456656 
L 273.305463 132.350357 
L 273.232922 128.346897 
L 273.160589 140.101155 
L 273.112483 130.838719 
L 273.088465 129.433437 
L 273.06447 129.814022 
L 273.016548 136.762942 
L 272.992621 131.867775 
L 272.968717 126.105306 
L 272.897142 132.957841 
L 272.754603 144.267935 
L 272.683636 141.462916 
L 272.683636 141.462916 
" style="fill:none;stroke:#1f77b4;stroke-linecap:square;stroke-width:1.5;"/>
   </g>
   <g id="patch_3">
    <path d="M 265.92 150.089143 
L 265.92 41.472 
" style="fill:none;stroke:#000000;stroke-linecap:square;stroke-linejoin:miter;stroke-width:0.8;"/>
   </g>
   <g id="patch_4">
    <path d="M 414.72 150.089143 
L 414.72 41.472 
" style="fill:none;stroke:#000000;stroke-linecap:square;stroke-linejoin:miter;stroke-width:0.8;"/>
   </g>
   <g id="patch_5">
    <path d="M 265.92 150.089143 
L 414.72 150.089143 
" style="fill:none;stroke:#000000;stroke-linecap:square;stroke-linejoin:miter;stroke-width:0.8;"/>
   </g>
   <g id="patch_6">
    <path d="M 265.92 41.472 
L 414.72 41.472 
" style="fill:none;stroke:#000000;stroke-linecap:square;stroke-linejoin:miter;stroke-width:0.8;"/>
   </g>
   <g id="text_8">
    <!-- Periodogram -->
    <g transform="translate(307.698125 35.472)scale(0.1 -0.1)">
     <defs>
      <path d="M 52.484375 46.6875 
L 52.484375 1.125 
Q 52.484375 -10.0625 46.328125 -16.140625 
Q 40.1875 -22.21875 28.8125 -22.21875 
Q 23.6875 -22.21875 19 -21.28125 
Q 14.3125 -20.359375 10.015625 -18.5 
L 10.015625 -7.625 
L 14.703125 -7.625 
Q 15.578125 -12.703125 18.84375 -15.046875 
Q 22.125 -17.390625 28.21875 -17.390625 
Q 36.140625 -17.390625 39.8125 -12.921875 
Q 43.5 -8.453125 43.5 1.125 
L 43.5 8.109375 
Q 40.875 3.21875 36.796875 0.890625 
Q 32.71875 -1.421875 26.703125 -1.421875 
Q 17.140625 -1.421875 11.0625 6.171875 
Q 4.984375 13.765625 4.984375 25.984375 
Q 4.984375 38.1875 11.03125 45.75 
Q 17.09375 53.328125 26.703125 53.328125 
Q 32.71875 53.328125 36.796875 51 
Q 40.875 48.6875 43.5 43.796875 
L 43.5 51.90625 
L 61.078125 51.90625 
L 61.078125 46.6875 
z
M 43.5 28.515625 
Q 43.5 37.84375 39.90625 42.765625 
Q 36.328125 47.703125 29.5 47.703125 
Q 22.5625 47.703125 19.015625 42.234375 
Q 15.484375 36.765625 15.484375 25.984375 
Q 15.484375 15.234375 19.015625 9.71875 
Q 22.5625 4.203125 29.5 4.203125 
Q 36.328125 4.203125 39.90625 9.109375 
Q 43.5 14.015625 43.5 23.390625 
z
" id="DejaVuSerif-103"/>
      <path d="M 39.796875 16.3125 
L 39.796875 27.296875 
L 28.21875 27.296875 
Q 21.53125 27.296875 18.25 24.40625 
Q 14.984375 21.53125 14.984375 15.578125 
Q 14.984375 10.15625 18.296875 6.984375 
Q 21.625 3.8125 27.296875 3.8125 
Q 32.90625 3.8125 36.34375 7.28125 
Q 39.796875 10.75 39.796875 16.3125 
z
M 48.78125 32.421875 
L 48.78125 5.171875 
L 56.78125 5.171875 
L 56.78125 0 
L 39.796875 0 
L 39.796875 5.609375 
Q 36.8125 2 32.90625 0.28125 
Q 29 -1.421875 23.78125 -1.421875 
Q 15.140625 -1.421875 10.0625 3.171875 
Q 4.984375 7.765625 4.984375 15.578125 
Q 4.984375 23.640625 10.796875 28.078125 
Q 16.609375 32.515625 27.203125 32.515625 
L 39.796875 32.515625 
L 39.796875 36.078125 
Q 39.796875 42 36.203125 45.234375 
Q 32.625 48.484375 26.125 48.484375 
Q 20.75 48.484375 17.578125 46.046875 
Q 14.40625 43.609375 13.625 38.8125 
L 8.984375 38.8125 
L 8.984375 49.3125 
Q 13.671875 51.3125 18.09375 52.3125 
Q 22.515625 53.328125 26.703125 53.328125 
Q 37.5 53.328125 43.140625 47.96875 
Q 48.78125 42.625 48.78125 32.421875 
z
" id="DejaVuSerif-97"/>
      <path d="M 51.8125 41.796875 
Q 54.390625 47.515625 58.421875 50.421875 
Q 62.453125 53.328125 67.828125 53.328125 
Q 75.984375 53.328125 79.984375 48.265625 
Q 83.984375 43.21875 83.984375 33.015625 
L 83.984375 5.171875 
L 92.09375 5.171875 
L 92.09375 0 
L 67.1875 0 
L 67.1875 5.171875 
L 75 5.171875 
L 75 31.984375 
Q 75 39.9375 72.65625 43.3125 
Q 70.3125 46.6875 64.890625 46.6875 
Q 58.890625 46.6875 55.734375 42.140625 
Q 52.59375 37.59375 52.59375 28.90625 
L 52.59375 5.171875 
L 60.40625 5.171875 
L 60.40625 0 
L 35.796875 0 
L 35.796875 5.171875 
L 43.609375 5.171875 
L 43.609375 32.328125 
Q 43.609375 40.09375 41.265625 43.390625 
Q 38.921875 46.6875 33.5 46.6875 
Q 27.484375 46.6875 24.328125 42.140625 
Q 21.1875 37.59375 21.1875 28.90625 
L 21.1875 5.171875 
L 29 5.171875 
L 29 0 
L 4.109375 0 
L 4.109375 5.171875 
L 12.203125 5.171875 
L 12.203125 46.78125 
L 3.609375 46.78125 
L 3.609375 51.90625 
L 21.1875 51.90625 
L 21.1875 42.671875 
Q 23.6875 47.859375 27.53125 50.59375 
Q 31.390625 53.328125 36.28125 53.328125 
Q 42.328125 53.328125 46.375 50.3125 
Q 50.4375 47.3125 51.8125 41.796875 
z
" id="DejaVuSerif-109"/>
     </defs>
     <use xlink:href="#DejaVuSerif-80"/>
     <use x="62.785156" xlink:href="#DejaVuSerif-101"/>
     <use x="121.964844" xlink:href="#DejaVuSerif-114"/>
     <use x="169.767578" xlink:href="#DejaVuSerif-105"/>
     <use x="201.75" xlink:href="#DejaVuSerif-111"/>
     <use x="261.955078" xlink:href="#DejaVuSerif-100"/>
     <use x="325.96875" xlink:href="#DejaVuSerif-111"/>
     <use x="386.173828" xlink:href="#DejaVuSerif-103"/>
     <use x="450.1875" xlink:href="#DejaVuSerif-114"/>
     <use x="497.990234" xlink:href="#DejaVuSerif-97"/>
     <use x="557.609375" xlink:href="#DejaVuSerif-109"/>
    </g>
   </g>
   <g id="legend_1">
    <g id="patch_7">
     <path d="M 419.648125 108.123071 
L 454.431875 108.123071 
Q 455.231875 108.123071 455.231875 107.323071 
L 455.231875 84.238071 
Q 455.231875 83.438071 454.431875 83.438071 
L 419.648125 83.438071 
Q 418.848125 83.438071 418.848125 84.238071 
L 418.848125 107.323071 
Q 418.848125 108.123071 419.648125 108.123071 
z
" style="fill:#ffffff;opacity:0.8;stroke:#cccccc;stroke-linejoin:miter;"/>
    </g>
    <g id="line2d_27">
     <path d="M 420.448125 86.677446 
L 428.448125 86.677446 
" style="fill:none;stroke:#808080;stroke-dasharray:5.55,2.4;stroke-dashoffset:0;stroke-width:1.5;"/>
    </g>
    <g id="text_9">
     <!-- 99.9% FAP -->
     <g transform="translate(431.648125 88.077446)scale(0.04 -0.04)">
      <defs>
       <path d="M 46.78125 32.671875 
Q 43.5 29 39.25 27.1875 
Q 35.015625 25.390625 29.6875 25.390625 
Q 18.84375 25.390625 12.5625 31.9375 
Q 6.296875 38.484375 6.296875 49.8125 
Q 6.296875 60.890625 13.109375 67.546875 
Q 19.921875 74.21875 31.296875 74.21875 
Q 43.65625 74.21875 50.265625 65.015625 
Q 56.890625 55.8125 56.890625 38.71875 
Q 56.890625 19.578125 49.015625 9.078125 
Q 41.15625 -1.421875 26.90625 -1.421875 
Q 23.046875 -1.421875 18.796875 -0.6875 
Q 14.546875 0.046875 10.109375 1.515625 
L 10.109375 13.625 
L 15.578125 13.625 
Q 16.21875 8.6875 19.390625 6.046875 
Q 22.5625 3.421875 27.875 3.421875 
Q 37.359375 3.421875 41.984375 10.5625 
Q 46.625 17.71875 46.78125 32.671875 
z
M 30.90625 69.390625 
Q 23.96875 69.390625 20.28125 64.328125 
Q 16.609375 59.28125 16.609375 49.8125 
Q 16.609375 40.328125 20.28125 35.25 
Q 23.96875 30.171875 30.90625 30.171875 
Q 37.84375 30.171875 41.53125 35.078125 
Q 45.21875 39.984375 45.21875 49.21875 
Q 45.21875 58.9375 41.5 64.15625 
Q 37.796875 69.390625 30.90625 69.390625 
z
" id="DejaVuSerif-57"/>
       <path d="M 22.40625 69.671875 
Q 18.109375 69.671875 15.6875 65.625 
Q 13.28125 61.578125 13.28125 54.296875 
Q 13.28125 47.125 15.75 43.015625 
Q 18.21875 38.921875 22.40625 38.921875 
Q 26.5625 38.921875 28.96875 43 
Q 31.390625 47.078125 31.390625 54.296875 
Q 31.390625 61.53125 28.96875 65.59375 
Q 26.5625 69.671875 22.40625 69.671875 
z
M 72.703125 33.890625 
Q 68.453125 33.890625 66.03125 29.78125 
Q 63.625 25.6875 63.625 18.40625 
Q 63.625 11.234375 66.0625 7.15625 
Q 68.5 3.078125 72.703125 3.078125 
Q 76.90625 3.078125 79.296875 7.15625 
Q 81.6875 11.234375 81.6875 18.40625 
Q 81.6875 25.640625 79.265625 29.765625 
Q 76.859375 33.890625 72.703125 33.890625 
z
M 72.703125 38.28125 
Q 80.421875 38.28125 84.953125 32.90625 
Q 89.5 27.546875 89.5 18.40625 
Q 89.5 9.28125 84.9375 3.921875 
Q 80.375 -1.421875 72.703125 -1.421875 
Q 64.890625 -1.421875 60.34375 3.921875 
Q 55.8125 9.28125 55.8125 18.40625 
Q 55.8125 27.59375 60.375 32.9375 
Q 64.9375 38.28125 72.703125 38.28125 
z
M 66.609375 74.21875 
L 74.03125 74.21875 
L 28.421875 -1.421875 
L 21 -1.421875 
z
M 22.3125 74.21875 
Q 30.03125 74.21875 34.609375 68.875 
Q 39.203125 63.53125 39.203125 54.390625 
Q 39.203125 45.171875 34.640625 39.84375 
Q 30.078125 34.515625 22.3125 34.515625 
Q 14.546875 34.515625 10.03125 39.859375 
Q 5.515625 45.21875 5.515625 54.390625 
Q 5.515625 63.484375 10.046875 68.84375 
Q 14.59375 74.21875 22.3125 74.21875 
z
" id="DejaVuSerif-37"/>
       <path d="M 5.515625 0 
L 5.515625 5.171875 
L 14.796875 5.171875 
L 14.796875 67.671875 
L 5.515625 67.671875 
L 5.515625 72.90625 
L 65.1875 72.90625 
L 65.1875 56.6875 
L 59.1875 56.6875 
L 59.1875 66.890625 
L 24.703125 66.890625 
L 24.703125 42.484375 
L 49.609375 42.484375 
L 49.609375 51.609375 
L 55.609375 51.609375 
L 55.609375 27.390625 
L 49.609375 27.390625 
L 49.609375 36.53125 
L 24.703125 36.53125 
L 24.703125 5.171875 
L 36.375 5.171875 
L 36.375 0 
z
" id="DejaVuSerif-70"/>
       <path d="M 20.015625 26.421875 
L 46.78125 26.421875 
L 33.40625 61.078125 
z
M -0.59375 0 
L -0.59375 5.171875 
L 5.8125 5.171875 
L 31.78125 72.90625 
L 39.984375 72.90625 
L 66.015625 5.171875 
L 73.1875 5.171875 
L 73.1875 0 
L 46.6875 0 
L 46.6875 5.171875 
L 54.78125 5.171875 
L 48.6875 21.1875 
L 18.015625 21.1875 
L 11.921875 5.171875 
L 19.921875 5.171875 
L 19.921875 0 
z
" id="DejaVuSerif-65"/>
      </defs>
      <use xlink:href="#DejaVuSerif-57"/>
      <use x="63.623047" xlink:href="#DejaVuSerif-57"/>
      <use x="127.246094" xlink:href="#DejaVuSerif-46"/>
      <use x="159.033203" xlink:href="#DejaVuSerif-57"/>
      <use x="222.65625" xlink:href="#DejaVuSerif-37"/>
      <use x="317.675781" xlink:href="#DejaVuSerif-32"/>
      <use x="349.462891" xlink:href="#DejaVuSerif-70"/>
      <use x="410.097656" xlink:href="#DejaVuSerif-65"/>
      <use x="482.314453" xlink:href="#DejaVuSerif-80"/>
     </g>
    </g>
    <g id="line2d_28">
     <path d="M 420.448125 92.548696 
L 428.448125 92.548696 
" style="fill:none;stroke:#a9a9a9;stroke-dasharray:5.55,2.4;stroke-dashoffset:0;stroke-width:1.5;"/>
    </g>
    <g id="text_10">
     <!-- 99.0% FAP -->
     <g transform="translate(431.648125 93.948696)scale(0.04 -0.04)">
      <use xlink:href="#DejaVuSerif-57"/>
      <use x="63.623047" xlink:href="#DejaVuSerif-57"/>
      <use x="127.246094" xlink:href="#DejaVuSerif-46"/>
      <use x="159.033203" xlink:href="#DejaVuSerif-48"/>
      <use x="222.65625" xlink:href="#DejaVuSerif-37"/>
      <use x="317.675781" xlink:href="#DejaVuSerif-32"/>
      <use x="349.462891" xlink:href="#DejaVuSerif-70"/>
      <use x="410.097656" xlink:href="#DejaVuSerif-65"/>
      <use x="482.314453" xlink:href="#DejaVuSerif-80"/>
     </g>
    </g>
    <g id="line2d_29">
     <path d="M 420.448125 98.419946 
L 428.448125 98.419946 
" style="fill:none;stroke:#c0c0c0;stroke-dasharray:5.55,2.4;stroke-dashoffset:0;stroke-width:1.5;"/>
    </g>
    <g id="text_11">
     <!-- 95.0% FAP -->
     <g transform="translate(431.648125 99.819946)scale(0.04 -0.04)">
      <defs>
       <path d="M 50.296875 72.90625 
L 50.296875 64.890625 
L 16.890625 64.890625 
L 16.890625 44 
Q 19.4375 45.75 22.828125 46.625 
Q 26.21875 47.515625 30.421875 47.515625 
Q 42.234375 47.515625 49.0625 40.96875 
Q 55.90625 34.421875 55.90625 23.09375 
Q 55.90625 11.53125 49 5.046875 
Q 42.09375 -1.421875 29.59375 -1.421875 
Q 24.5625 -1.421875 19.28125 -0.1875 
Q 14.015625 1.03125 8.5 3.515625 
L 8.5 17.671875 
L 14.015625 17.671875 
Q 14.453125 10.75 18.421875 7.078125 
Q 22.40625 3.421875 29.59375 3.421875 
Q 37.3125 3.421875 41.453125 8.5 
Q 45.609375 13.578125 45.609375 23.09375 
Q 45.609375 32.5625 41.484375 37.609375 
Q 37.359375 42.671875 29.59375 42.671875 
Q 25.203125 42.671875 21.84375 41.109375 
Q 18.5 39.546875 15.921875 36.28125 
L 11.71875 36.28125 
L 11.71875 72.90625 
z
" id="DejaVuSerif-53"/>
      </defs>
      <use xlink:href="#DejaVuSerif-57"/>
      <use x="63.623047" xlink:href="#DejaVuSerif-53"/>
      <use x="127.246094" xlink:href="#DejaVuSerif-46"/>
      <use x="159.033203" xlink:href="#DejaVuSerif-48"/>
      <use x="222.65625" xlink:href="#DejaVuSerif-37"/>
      <use x="317.675781" xlink:href="#DejaVuSerif-32"/>
      <use x="349.462891" xlink:href="#DejaVuSerif-70"/>
      <use x="410.097656" xlink:href="#DejaVuSerif-65"/>
      <use x="482.314453" xlink:href="#DejaVuSerif-80"/>
     </g>
    </g>
    <g id="line2d_30">
     <path d="M 420.448125 104.291196 
L 428.448125 104.291196 
" style="fill:none;stroke:#d3d3d3;stroke-dasharray:5.55,2.4;stroke-dashoffset:0;stroke-width:1.5;"/>
    </g>
    <g id="text_12">
     <!-- 90.0% FAP -->
     <g transform="translate(431.648125 105.691196)scale(0.04 -0.04)">
      <use xlink:href="#DejaVuSerif-57"/>
      <use x="63.623047" xlink:href="#DejaVuSerif-48"/>
      <use x="127.246094" xlink:href="#DejaVuSerif-46"/>
      <use x="159.033203" xlink:href="#DejaVuSerif-48"/>
      <use x="222.65625" xlink:href="#DejaVuSerif-37"/>
      <use x="317.675781" xlink:href="#DejaVuSerif-32"/>
      <use x="349.462891" xlink:href="#DejaVuSerif-70"/>
      <use x="410.097656" xlink:href="#DejaVuSerif-65"/>
      <use x="482.314453" xlink:href="#DejaVuSerif-80"/>
     </g>
    </g>
   </g>
  </g>
  <g id="axes_2">
   <g id="patch_8">
    <path d="M 57.6 150.089143 
L 206.4 150.089143 
L 206.4 41.472 
L 57.6 41.472 
z
" style="fill:#ffffff;"/>
   </g>
   <g id="PathCollection_1">
    <defs>
     <path d="M 0 0.707107 
C 0.187527 0.707107 0.367398 0.632602 0.5 0.5 
C 0.632602 0.367398 0.707107 0.187527 0.707107 0 
C 0.707107 -0.187527 0.632602 -0.367398 0.5 -0.5 
C 0.367398 -0.632602 0.187527 -0.707107 0 -0.707107 
C -0.187527 -0.707107 -0.367398 -0.632602 -0.5 -0.5 
C -0.632602 -0.367398 -0.707107 -0.187527 -0.707107 0 
C -0.707107 0.187527 -0.632602 0.367398 -0.5 0.5 
C -0.367398 0.632602 -0.187527 0.707107 0 0.707107 
z
" id="mfb6bf8caa8" style="stroke:#1f77b4;"/>
    </defs>
    <g clip-path="url(#p3a5a131ed7)">
     <use style="fill:#1f77b4;stroke:#1f77b4;" x="122.92575" xlink:href="#mfb6bf8caa8" y="123.921794"/>
     <use style="fill:#1f77b4;stroke:#1f77b4;" x="122.931058" xlink:href="#mfb6bf8caa8" y="127.239259"/>
     <use style="fill:#1f77b4;stroke:#1f77b4;" x="129.93259" xlink:href="#mfb6bf8caa8" y="117.023191"/>
     <use style="fill:#1f77b4;stroke:#1f77b4;" x="129.937898" xlink:href="#mfb6bf8caa8" y="116.459844"/>
     <use style="fill:#1f77b4;stroke:#1f77b4;" x="84.168713" xlink:href="#mfb6bf8caa8" y="108.14032"/>
     <use style="fill:#1f77b4;stroke:#1f77b4;" x="118.199199" xlink:href="#mfb6bf8caa8" y="95.767464"/>
     <use style="fill:#1f77b4;stroke:#1f77b4;" x="118.236089" xlink:href="#mfb6bf8caa8" y="93.223027"/>
     <use style="fill:#1f77b4;stroke:#1f77b4;" x="67.461199" xlink:href="#mfb6bf8caa8" y="47.67488"/>
     <use style="fill:#1f77b4;stroke:#1f77b4;" x="78.914794" xlink:href="#mfb6bf8caa8" y="66.821444"/>
     <use style="fill:#1f77b4;stroke:#1f77b4;" x="78.91997" xlink:href="#mfb6bf8caa8" y="69.258311"/>
     <use style="fill:#1f77b4;stroke:#1f77b4;" x="102.085934" xlink:href="#mfb6bf8caa8" y="83.798901"/>
     <use style="fill:#1f77b4;stroke:#1f77b4;" x="102.091242" xlink:href="#mfb6bf8caa8" y="86.659895"/>
     <use style="fill:#1f77b4;stroke:#1f77b4;" x="124.653666" xlink:href="#mfb6bf8caa8" y="126.912678"/>
     <use style="fill:#1f77b4;stroke:#1f77b4;" x="124.658975" xlink:href="#mfb6bf8caa8" y="130.063321"/>
     <use style="fill:#1f77b4;stroke:#1f77b4;" x="66.308339" xlink:href="#mfb6bf8caa8" y="144.207145"/>
     <use style="fill:#1f77b4;stroke:#1f77b4;" x="66.313647" xlink:href="#mfb6bf8caa8" y="145.152"/>
     <use style="fill:#1f77b4;stroke:#1f77b4;" x="78.386441" xlink:href="#mfb6bf8caa8" y="64.679459"/>
     <use style="fill:#1f77b4;stroke:#1f77b4;" x="78.391617" xlink:href="#mfb6bf8caa8" y="65.949736"/>
     <use style="fill:#1f77b4;stroke:#1f77b4;" x="89.357788" xlink:href="#mfb6bf8caa8" y="76.238724"/>
     <use style="fill:#1f77b4;stroke:#1f77b4;" x="89.363097" xlink:href="#mfb6bf8caa8" y="76.6209"/>
     <use style="fill:#1f77b4;stroke:#1f77b4;" x="100.812578" xlink:href="#mfb6bf8caa8" y="62.44472"/>
     <use style="fill:#1f77b4;stroke:#1f77b4;" x="100.817753" xlink:href="#mfb6bf8caa8" y="61.118836"/>
     <use style="fill:#1f77b4;stroke:#1f77b4;" x="64.690558" xlink:href="#mfb6bf8caa8" y="110.02273"/>
     <use style="fill:#1f77b4;stroke:#1f77b4;" x="74.596099" xlink:href="#mfb6bf8caa8" y="137.385573"/>
     <use style="fill:#1f77b4;stroke:#1f77b4;" x="86.009617" xlink:href="#mfb6bf8caa8" y="75.114753"/>
     <use style="fill:#1f77b4;stroke:#1f77b4;" x="97.477943" xlink:href="#mfb6bf8caa8" y="49.742331"/>
     <use style="fill:#1f77b4;stroke:#1f77b4;" x="108.922514" xlink:href="#mfb6bf8caa8" y="126.133282"/>
     <use style="fill:#1f77b4;stroke:#1f77b4;" x="120.43649" xlink:href="#mfb6bf8caa8" y="103.422904"/>
     <use style="fill:#1f77b4;stroke:#1f77b4;" x="118.799733" xlink:href="#mfb6bf8caa8" y="119.696634"/>
     <use style="fill:#1f77b4;stroke:#1f77b4;" x="80.289695" xlink:href="#mfb6bf8caa8" y="56.041109"/>
     <use style="fill:#1f77b4;stroke:#1f77b4;" x="93.42824" xlink:href="#mfb6bf8caa8" y="62.418744"/>
     <use style="fill:#1f77b4;stroke:#1f77b4;" x="105.105443" xlink:href="#mfb6bf8caa8" y="74.898024"/>
     <use style="fill:#1f77b4;stroke:#1f77b4;" x="115.430462" xlink:href="#mfb6bf8caa8" y="46.409143"/>
     <use style="fill:#1f77b4;stroke:#1f77b4;" x="80.348504" xlink:href="#mfb6bf8caa8" y="87.02839"/>
     <use style="fill:#1f77b4;stroke:#1f77b4;" x="118.436492" xlink:href="#mfb6bf8caa8" y="103.070121"/>
     <use style="fill:#1f77b4;stroke:#1f77b4;" x="94.600446" xlink:href="#mfb6bf8caa8" y="57.863586"/>
     <use style="fill:#1f77b4;stroke:#1f77b4;" x="69.7749" xlink:href="#mfb6bf8caa8" y="126.022295"/>
     <use style="fill:#1f77b4;stroke:#1f77b4;" x="120.472126" xlink:href="#mfb6bf8caa8" y="90.510394"/>
     <use style="fill:#1f77b4;stroke:#1f77b4;" x="80.818824" xlink:href="#mfb6bf8caa8" y="70.537036"/>
     <use style="fill:#1f77b4;stroke:#1f77b4;" x="123.090887" xlink:href="#mfb6bf8caa8" y="99.707313"/>
     <use style="fill:#1f77b4;stroke:#1f77b4;" x="123.096063" xlink:href="#mfb6bf8caa8" y="105.87209"/>
     <use style="fill:#1f77b4;stroke:#1f77b4;" x="64.363636" xlink:href="#mfb6bf8caa8" y="119.324016"/>
     <use style="fill:#1f77b4;stroke:#1f77b4;" x="64.368812" xlink:href="#mfb6bf8caa8" y="116.174974"/>
    </g>
   </g>
   <g id="PathCollection_2">
    <g clip-path="url(#p3a5a131ed7)">
     <use style="fill:#1f77b4;stroke:#1f77b4;" x="192.624215" xlink:href="#mfb6bf8caa8" y="123.921794"/>
     <use style="fill:#1f77b4;stroke:#1f77b4;" x="192.629523" xlink:href="#mfb6bf8caa8" y="127.239259"/>
     <use style="fill:#1f77b4;stroke:#1f77b4;" x="199.631055" xlink:href="#mfb6bf8caa8" y="117.023191"/>
     <use style="fill:#1f77b4;stroke:#1f77b4;" x="199.636364" xlink:href="#mfb6bf8caa8" y="116.459844"/>
     <use style="fill:#1f77b4;stroke:#1f77b4;" x="153.867179" xlink:href="#mfb6bf8caa8" y="108.14032"/>
     <use style="fill:#1f77b4;stroke:#1f77b4;" x="187.897664" xlink:href="#mfb6bf8caa8" y="95.767464"/>
     <use style="fill:#1f77b4;stroke:#1f77b4;" x="187.934555" xlink:href="#mfb6bf8caa8" y="93.223027"/>
     <use style="fill:#1f77b4;stroke:#1f77b4;" x="137.159664" xlink:href="#mfb6bf8caa8" y="47.67488"/>
     <use style="fill:#1f77b4;stroke:#1f77b4;" x="148.613259" xlink:href="#mfb6bf8caa8" y="66.821444"/>
     <use style="fill:#1f77b4;stroke:#1f77b4;" x="148.618435" xlink:href="#mfb6bf8caa8" y="69.258311"/>
     <use style="fill:#1f77b4;stroke:#1f77b4;" x="171.7844" xlink:href="#mfb6bf8caa8" y="83.798901"/>
     <use style="fill:#1f77b4;stroke:#1f77b4;" x="171.789707" xlink:href="#mfb6bf8caa8" y="86.659895"/>
     <use style="fill:#1f77b4;stroke:#1f77b4;" x="194.352131" xlink:href="#mfb6bf8caa8" y="126.912678"/>
     <use style="fill:#1f77b4;stroke:#1f77b4;" x="194.35744" xlink:href="#mfb6bf8caa8" y="130.063321"/>
     <use style="fill:#1f77b4;stroke:#1f77b4;" x="136.006804" xlink:href="#mfb6bf8caa8" y="144.207145"/>
     <use style="fill:#1f77b4;stroke:#1f77b4;" x="136.012112" xlink:href="#mfb6bf8caa8" y="145.152"/>
     <use style="fill:#1f77b4;stroke:#1f77b4;" x="148.084906" xlink:href="#mfb6bf8caa8" y="64.679459"/>
     <use style="fill:#1f77b4;stroke:#1f77b4;" x="148.090082" xlink:href="#mfb6bf8caa8" y="65.949736"/>
     <use style="fill:#1f77b4;stroke:#1f77b4;" x="159.056254" xlink:href="#mfb6bf8caa8" y="76.238724"/>
     <use style="fill:#1f77b4;stroke:#1f77b4;" x="159.061562" xlink:href="#mfb6bf8caa8" y="76.6209"/>
     <use style="fill:#1f77b4;stroke:#1f77b4;" x="170.511043" xlink:href="#mfb6bf8caa8" y="62.44472"/>
     <use style="fill:#1f77b4;stroke:#1f77b4;" x="170.516218" xlink:href="#mfb6bf8caa8" y="61.118836"/>
     <use style="fill:#1f77b4;stroke:#1f77b4;" x="134.389023" xlink:href="#mfb6bf8caa8" y="110.02273"/>
     <use style="fill:#1f77b4;stroke:#1f77b4;" x="144.294564" xlink:href="#mfb6bf8caa8" y="137.385573"/>
     <use style="fill:#1f77b4;stroke:#1f77b4;" x="155.708083" xlink:href="#mfb6bf8caa8" y="75.114753"/>
     <use style="fill:#1f77b4;stroke:#1f77b4;" x="167.176408" xlink:href="#mfb6bf8caa8" y="49.742331"/>
     <use style="fill:#1f77b4;stroke:#1f77b4;" x="178.620979" xlink:href="#mfb6bf8caa8" y="126.133282"/>
     <use style="fill:#1f77b4;stroke:#1f77b4;" x="190.134955" xlink:href="#mfb6bf8caa8" y="103.422904"/>
     <use style="fill:#1f77b4;stroke:#1f77b4;" x="188.498199" xlink:href="#mfb6bf8caa8" y="119.696634"/>
     <use style="fill:#1f77b4;stroke:#1f77b4;" x="149.988161" xlink:href="#mfb6bf8caa8" y="56.041109"/>
     <use style="fill:#1f77b4;stroke:#1f77b4;" x="163.126706" xlink:href="#mfb6bf8caa8" y="62.418744"/>
     <use style="fill:#1f77b4;stroke:#1f77b4;" x="174.803908" xlink:href="#mfb6bf8caa8" y="74.898024"/>
     <use style="fill:#1f77b4;stroke:#1f77b4;" x="185.128927" xlink:href="#mfb6bf8caa8" y="46.409143"/>
     <use style="fill:#1f77b4;stroke:#1f77b4;" x="150.046969" xlink:href="#mfb6bf8caa8" y="87.02839"/>
     <use style="fill:#1f77b4;stroke:#1f77b4;" x="188.134957" xlink:href="#mfb6bf8caa8" y="103.070121"/>
     <use style="fill:#1f77b4;stroke:#1f77b4;" x="164.298911" xlink:href="#mfb6bf8caa8" y="57.863586"/>
     <use style="fill:#1f77b4;stroke:#1f77b4;" x="139.473365" xlink:href="#mfb6bf8caa8" y="126.022295"/>
     <use style="fill:#1f77b4;stroke:#1f77b4;" x="190.170591" xlink:href="#mfb6bf8caa8" y="90.510394"/>
     <use style="fill:#1f77b4;stroke:#1f77b4;" x="150.517289" xlink:href="#mfb6bf8caa8" y="70.537036"/>
     <use style="fill:#1f77b4;stroke:#1f77b4;" x="192.789353" xlink:href="#mfb6bf8caa8" y="99.707313"/>
     <use style="fill:#1f77b4;stroke:#1f77b4;" x="192.794528" xlink:href="#mfb6bf8caa8" y="105.87209"/>
     <use style="fill:#1f77b4;stroke:#1f77b4;" x="134.062102" xlink:href="#mfb6bf8caa8" y="119.324016"/>
     <use style="fill:#1f77b4;stroke:#1f77b4;" x="134.067277" xlink:href="#mfb6bf8caa8" y="116.174974"/>
    </g>
   </g>
   <g id="matplotlib.axis_3">
    <g id="xtick_23">
     <g id="line2d_31">
      <g>
       <use style="stroke:#000000;stroke-width:0.8;" x="61.723881" xlink:href="#m03ff03f501" y="150.089143"/>
      </g>
     </g>
     <g id="text_13">
      <!-- 0 -->
      <g transform="translate(58.542631 164.68758)scale(0.1 -0.1)">
       <use xlink:href="#DejaVuSerif-48"/>
      </g>
     </g>
    </g>
    <g id="xtick_24">
     <g id="line2d_32">
      <g>
       <use style="stroke:#000000;stroke-width:0.8;" x="131.422346" xlink:href="#m03ff03f501" y="150.089143"/>
      </g>
     </g>
     <g id="text_14">
      <!-- 1 -->
      <g transform="translate(128.241096 164.68758)scale(0.1 -0.1)">
       <use xlink:href="#DejaVuSerif-49"/>
      </g>
     </g>
    </g>
    <g id="xtick_25">
     <g id="line2d_33">
      <g>
       <use style="stroke:#000000;stroke-width:0.8;" x="201.120811" xlink:href="#m03ff03f501" y="150.089143"/>
      </g>
     </g>
     <g id="text_15">
      <!-- 2 -->
      <g transform="translate(197.939561 164.68758)scale(0.1 -0.1)">
       <use xlink:href="#DejaVuSerif-50"/>
      </g>
     </g>
    </g>
    <g id="text_16">
     <!-- Phase (P = 6.079 d) -->
     <g transform="translate(81.582812 178.365705)scale(0.1 -0.1)">
      <defs>
       <path d="M 4.109375 0 
L 4.109375 5.171875 
L 12.203125 5.171875 
L 12.203125 70.796875 
L 3.609375 70.796875 
L 3.609375 75.984375 
L 21.1875 75.984375 
L 21.1875 42.671875 
Q 23.6875 47.953125 27.65625 50.640625 
Q 31.640625 53.328125 36.921875 53.328125 
Q 45.515625 53.328125 49.5625 48.390625 
Q 53.609375 43.453125 53.609375 33.015625 
L 53.609375 5.171875 
L 61.625 5.171875 
L 61.625 0 
L 36.8125 0 
L 36.8125 5.171875 
L 44.578125 5.171875 
L 44.578125 30.171875 
Q 44.578125 39.703125 42.25 43.1875 
Q 39.9375 46.6875 33.984375 46.6875 
Q 27.734375 46.6875 24.453125 42.140625 
Q 21.1875 37.59375 21.1875 28.90625 
L 21.1875 5.171875 
L 29 5.171875 
L 29 0 
z
" id="DejaVuSerif-104"/>
       <path d="M 5.609375 2.875 
L 5.609375 14.984375 
L 10.796875 14.984375 
Q 10.984375 9.1875 14.421875 6.296875 
Q 17.875 3.421875 24.609375 3.421875 
Q 30.671875 3.421875 33.84375 5.6875 
Q 37.015625 7.953125 37.015625 12.3125 
Q 37.015625 15.71875 34.6875 17.8125 
Q 32.375 19.921875 24.90625 22.3125 
L 18.40625 24.515625 
Q 11.71875 26.65625 8.71875 29.875 
Q 5.71875 33.109375 5.71875 38.09375 
Q 5.71875 45.21875 10.9375 49.265625 
Q 16.15625 53.328125 25.390625 53.328125 
Q 29.5 53.328125 34.03125 52.25 
Q 38.578125 51.171875 43.40625 49.125 
L 43.40625 37.796875 
L 38.234375 37.796875 
Q 38.03125 42.828125 34.703125 45.65625 
Q 31.390625 48.484375 25.6875 48.484375 
Q 20.015625 48.484375 17.109375 46.484375 
Q 14.203125 44.484375 14.203125 40.484375 
Q 14.203125 37.203125 16.40625 35.21875 
Q 18.609375 33.25 25.203125 31.203125 
L 32.328125 29 
Q 39.703125 26.703125 42.9375 23.265625 
Q 46.1875 19.828125 46.1875 14.40625 
Q 46.1875 7.03125 40.546875 2.796875 
Q 34.90625 -1.421875 25 -1.421875 
Q 19.96875 -1.421875 15.1875 -0.34375 
Q 10.40625 0.734375 5.609375 2.875 
z
" id="DejaVuSerif-115"/>
       <path d="M 31.890625 -15.578125 
Q 20.015625 -10.25 13.953125 1.296875 
Q 7.90625 12.84375 7.90625 30.171875 
Q 7.90625 47.5625 13.953125 59.109375 
Q 20.015625 70.65625 31.890625 75.984375 
L 31.890625 71.1875 
Q 24.359375 66.015625 21.09375 56.609375 
Q 17.828125 47.21875 17.828125 30.171875 
Q 17.828125 13.1875 21.09375 3.78125 
Q 24.359375 -5.609375 31.890625 -10.796875 
z
" id="DejaVuSerif-40"/>
       <path d="M 10.59375 45.21875 
L 73.1875 45.21875 
L 73.1875 37.40625 
L 10.59375 37.40625 
z
M 10.59375 25.296875 
L 73.1875 25.296875 
L 73.1875 17.484375 
L 10.59375 17.484375 
z
" id="DejaVuSerif-61"/>
       <path d="M 32.71875 3.421875 
Q 39.59375 3.421875 43.296875 8.46875 
Q 47.015625 13.53125 47.015625 23 
Q 47.015625 32.46875 43.296875 37.515625 
Q 39.59375 42.578125 32.71875 42.578125 
Q 25.734375 42.578125 22.0625 37.6875 
Q 18.40625 32.8125 18.40625 23.578125 
Q 18.40625 13.875 22.109375 8.640625 
Q 25.828125 3.421875 32.71875 3.421875 
z
M 16.796875 40.140625 
Q 20.125 43.796875 24.3125 45.59375 
Q 28.515625 47.40625 33.796875 47.40625 
Q 44.671875 47.40625 51 40.859375 
Q 57.328125 34.328125 57.328125 23 
Q 57.328125 11.921875 50.515625 5.25 
Q 43.703125 -1.421875 32.328125 -1.421875 
Q 19.96875 -1.421875 13.328125 7.78125 
Q 6.6875 17 6.6875 34.078125 
Q 6.6875 53.21875 14.546875 63.71875 
Q 22.40625 74.21875 36.71875 74.21875 
Q 40.578125 74.21875 44.828125 73.484375 
Q 49.078125 72.75 53.515625 71.296875 
L 53.515625 59.28125 
L 48 59.28125 
Q 47.40625 64.203125 44.234375 66.796875 
Q 41.0625 69.390625 35.6875 69.390625 
Q 26.21875 69.390625 21.578125 62.203125 
Q 16.9375 55.03125 16.796875 40.140625 
z
" id="DejaVuSerif-54"/>
       <path d="M 56.390625 67.921875 
L 27.875 0 
L 20.609375 0 
L 47.796875 64.890625 
L 14.109375 64.890625 
L 14.109375 55.90625 
L 8.40625 55.90625 
L 8.40625 72.90625 
L 56.390625 72.90625 
z
" id="DejaVuSerif-55"/>
       <path d="M 7.078125 -15.578125 
L 7.078125 -10.796875 
Q 14.59375 -5.609375 17.890625 3.78125 
Q 21.1875 13.1875 21.1875 30.171875 
Q 21.1875 47.21875 17.890625 56.609375 
Q 14.59375 66.015625 7.078125 71.1875 
L 7.078125 75.984375 
Q 19 70.65625 25.046875 59.109375 
Q 31.109375 47.5625 31.109375 30.171875 
Q 31.109375 12.84375 25.046875 1.296875 
Q 19 -10.25 7.078125 -15.578125 
z
" id="DejaVuSerif-41"/>
      </defs>
      <use xlink:href="#DejaVuSerif-80"/>
      <use x="67.285156" xlink:href="#DejaVuSerif-104"/>
      <use x="131.689453" xlink:href="#DejaVuSerif-97"/>
      <use x="191.308594" xlink:href="#DejaVuSerif-115"/>
      <use x="242.626953" xlink:href="#DejaVuSerif-101"/>
      <use x="301.806641" xlink:href="#DejaVuSerif-32"/>
      <use x="333.59375" xlink:href="#DejaVuSerif-40"/>
      <use x="372.607422" xlink:href="#DejaVuSerif-80"/>
      <use x="439.892578" xlink:href="#DejaVuSerif-32"/>
      <use x="471.679688" xlink:href="#DejaVuSerif-61"/>
      <use x="555.46875" xlink:href="#DejaVuSerif-32"/>
      <use x="587.255859" xlink:href="#DejaVuSerif-54"/>
      <use x="650.878906" xlink:href="#DejaVuSerif-46"/>
      <use x="682.666016" xlink:href="#DejaVuSerif-48"/>
      <use x="746.289062" xlink:href="#DejaVuSerif-55"/>
      <use x="809.912109" xlink:href="#DejaVuSerif-57"/>
      <use x="873.535156" xlink:href="#DejaVuSerif-32"/>
      <use x="905.322266" xlink:href="#DejaVuSerif-100"/>
      <use x="969.335938" xlink:href="#DejaVuSerif-41"/>
     </g>
    </g>
   </g>
   <g id="matplotlib.axis_4">
    <g id="ytick_4">
     <g id="line2d_34">
      <g>
       <use style="stroke:#000000;stroke-width:0.8;" x="57.6" xlink:href="#md7f2f26a07" y="65.082557"/>
      </g>
     </g>
     <g id="text_17">
      <!-- 16.6 -->
      <g transform="translate(28.334375 68.881775)scale(0.1 -0.1)">
       <use xlink:href="#DejaVuSerif-49"/>
       <use x="63.623047" xlink:href="#DejaVuSerif-54"/>
       <use x="127.246094" xlink:href="#DejaVuSerif-46"/>
       <use x="159.033203" xlink:href="#DejaVuSerif-54"/>
      </g>
     </g>
    </g>
    <g id="ytick_5">
     <g id="line2d_35">
      <g>
       <use style="stroke:#000000;stroke-width:0.8;" x="57.6" xlink:href="#md7f2f26a07" y="88.979036"/>
      </g>
     </g>
     <g id="text_18">
      <!-- 16.8 -->
      <g transform="translate(28.334375 92.778255)scale(0.1 -0.1)">
       <defs>
        <path d="M 46.578125 19.921875 
Q 46.578125 27.734375 42.6875 32.046875 
Q 38.8125 36.375 31.78125 36.375 
Q 24.75 36.375 20.875 32.046875 
Q 17 27.734375 17 19.921875 
Q 17 12.0625 20.875 7.734375 
Q 24.75 3.421875 31.78125 3.421875 
Q 38.8125 3.421875 42.6875 7.734375 
Q 46.578125 12.0625 46.578125 19.921875 
z
M 44.578125 55.328125 
Q 44.578125 61.96875 41.203125 65.671875 
Q 37.84375 69.390625 31.78125 69.390625 
Q 25.78125 69.390625 22.390625 65.671875 
Q 19 61.96875 19 55.328125 
Q 19 48.640625 22.390625 44.921875 
Q 25.78125 41.21875 31.78125 41.21875 
Q 37.84375 41.21875 41.203125 44.921875 
Q 44.578125 48.640625 44.578125 55.328125 
z
M 39.3125 38.8125 
Q 47.609375 37.703125 52.25 32.6875 
Q 56.890625 27.6875 56.890625 19.921875 
Q 56.890625 9.671875 50.390625 4.125 
Q 43.890625 -1.421875 31.78125 -1.421875 
Q 19.734375 -1.421875 13.203125 4.125 
Q 6.6875 9.671875 6.6875 19.921875 
Q 6.6875 27.6875 11.328125 32.6875 
Q 15.96875 37.703125 24.3125 38.8125 
Q 16.9375 40.140625 13 44.40625 
Q 9.078125 48.6875 9.078125 55.328125 
Q 9.078125 64.109375 15.125 69.15625 
Q 21.1875 74.21875 31.78125 74.21875 
Q 42.390625 74.21875 48.4375 69.15625 
Q 54.5 64.109375 54.5 55.328125 
Q 54.5 48.6875 50.5625 44.40625 
Q 46.625 40.140625 39.3125 38.8125 
z
" id="DejaVuSerif-56"/>
       </defs>
       <use xlink:href="#DejaVuSerif-49"/>
       <use x="63.623047" xlink:href="#DejaVuSerif-54"/>
       <use x="127.246094" xlink:href="#DejaVuSerif-46"/>
       <use x="159.033203" xlink:href="#DejaVuSerif-56"/>
      </g>
     </g>
    </g>
    <g id="ytick_6">
     <g id="line2d_36">
      <g>
       <use style="stroke:#000000;stroke-width:0.8;" x="57.6" xlink:href="#md7f2f26a07" y="112.875515"/>
      </g>
     </g>
     <g id="text_19">
      <!-- 17.0 -->
      <g transform="translate(28.334375 116.674734)scale(0.1 -0.1)">
       <use xlink:href="#DejaVuSerif-49"/>
       <use x="63.623047" xlink:href="#DejaVuSerif-55"/>
       <use x="127.246094" xlink:href="#DejaVuSerif-46"/>
       <use x="159.033203" xlink:href="#DejaVuSerif-48"/>
      </g>
     </g>
    </g>
    <g id="ytick_7">
     <g id="line2d_37">
      <g>
       <use style="stroke:#000000;stroke-width:0.8;" x="57.6" xlink:href="#md7f2f26a07" y="136.771995"/>
      </g>
     </g>
     <g id="text_20">
      <!-- 17.2 -->
      <g transform="translate(28.334375 140.571213)scale(0.1 -0.1)">
       <use xlink:href="#DejaVuSerif-49"/>
       <use x="63.623047" xlink:href="#DejaVuSerif-55"/>
       <use x="127.246094" xlink:href="#DejaVuSerif-46"/>
       <use x="159.033203" xlink:href="#DejaVuSerif-50"/>
      </g>
     </g>
    </g>
    <g id="text_21">
     <!-- Mag -->
     <g transform="translate(22.1125 107.082134)rotate(-90)scale(0.1 -0.1)">
      <defs>
       <path d="M 5.515625 0 
L 5.515625 5.171875 
L 14.796875 5.171875 
L 14.796875 67.671875 
L 4.984375 67.671875 
L 4.984375 72.90625 
L 26.21875 72.90625 
L 51.8125 21 
L 77.390625 72.90625 
L 97.3125 72.90625 
L 97.3125 67.671875 
L 87.59375 67.671875 
L 87.59375 5.171875 
L 96.921875 5.171875 
L 96.921875 0 
L 68.40625 0 
L 68.40625 5.171875 
L 77.6875 5.171875 
L 77.6875 61.53125 
L 52.6875 10.6875 
L 45.796875 10.6875 
L 20.796875 61.53125 
L 20.796875 5.171875 
L 30.078125 5.171875 
L 30.078125 0 
z
" id="DejaVuSerif-77"/>
      </defs>
      <use xlink:href="#DejaVuSerif-77"/>
      <use x="102.392578" xlink:href="#DejaVuSerif-97"/>
      <use x="162.011719" xlink:href="#DejaVuSerif-103"/>
     </g>
    </g>
   </g>
   <g id="patch_9">
    <path d="M 57.6 150.089143 
L 57.6 41.472 
" style="fill:none;stroke:#000000;stroke-linecap:square;stroke-linejoin:miter;stroke-width:0.8;"/>
   </g>
   <g id="patch_10">
    <path d="M 206.4 150.089143 
L 206.4 41.472 
" style="fill:none;stroke:#000000;stroke-linecap:square;stroke-linejoin:miter;stroke-width:0.8;"/>
   </g>
   <g id="patch_11">
    <path d="M 57.6 150.089143 
L 206.4 150.089143 
" style="fill:none;stroke:#000000;stroke-linecap:square;stroke-linejoin:miter;stroke-width:0.8;"/>
   </g>
   <g id="patch_12">
    <path d="M 57.6 41.472 
L 206.4 41.472 
" style="fill:none;stroke:#000000;stroke-linecap:square;stroke-linejoin:miter;stroke-width:0.8;"/>
   </g>
   <g id="text_22">
    <!-- Folded Light Curve -->
    <g transform="translate(83.086719 35.472)scale(0.1 -0.1)">
     <defs>
      <path d="M 20.515625 5.171875 
L 29 5.171875 
L 29 0 
L 2.875 0 
L 2.875 5.171875 
L 11.53125 5.171875 
L 11.53125 70.796875 
L 2.875 70.796875 
L 2.875 75.984375 
L 20.515625 75.984375 
z
" id="DejaVuSerif-108"/>
      <path d="M 5.515625 0 
L 5.515625 5.171875 
L 14.796875 5.171875 
L 14.796875 67.671875 
L 5.515625 67.671875 
L 5.515625 72.90625 
L 33.984375 72.90625 
L 33.984375 67.671875 
L 24.703125 67.671875 
L 24.703125 6 
L 58.015625 6 
L 58.015625 18.21875 
L 64.015625 18.21875 
L 64.015625 0 
z
" id="DejaVuSerif-76"/>
      <path d="M 10.796875 46.6875 
L 2.875 46.6875 
L 2.875 51.90625 
L 10.796875 51.90625 
L 10.796875 68.015625 
L 19.828125 68.015625 
L 19.828125 51.90625 
L 36.71875 51.90625 
L 36.71875 46.6875 
L 19.828125 46.6875 
L 19.828125 13.71875 
Q 19.828125 7.125 21.09375 5.265625 
Q 22.359375 3.421875 25.78125 3.421875 
Q 29.296875 3.421875 30.90625 5.484375 
Q 32.515625 7.5625 32.625 12.203125 
L 39.40625 12.203125 
Q 39.015625 5.125 35.546875 1.84375 
Q 32.078125 -1.421875 25 -1.421875 
Q 17.234375 -1.421875 14.015625 2.015625 
Q 10.796875 5.46875 10.796875 13.71875 
z
" id="DejaVuSerif-116"/>
      <path d="M 70.515625 19.28125 
Q 67.28125 9.078125 59.6875 3.828125 
Q 52.09375 -1.421875 40.484375 -1.421875 
Q 33.34375 -1.421875 27.234375 1.015625 
Q 21.140625 3.46875 16.40625 8.203125 
Q 10.9375 13.671875 8.265625 20.625 
Q 5.609375 27.59375 5.609375 36.375 
Q 5.609375 53.375 15.421875 63.796875 
Q 25.25 74.21875 41.3125 74.21875 
Q 47.265625 74.21875 54 72.65625 
Q 60.75 71.09375 68.5 67.921875 
L 68.5 51.125 
L 62.984375 51.125 
Q 61.1875 60.296875 55.734375 64.640625 
Q 50.296875 69 40.484375 69 
Q 28.8125 69 22.796875 60.71875 
Q 16.796875 52.4375 16.796875 36.375 
Q 16.796875 20.359375 22.796875 12.078125 
Q 28.8125 3.8125 40.484375 3.8125 
Q 48.640625 3.8125 53.90625 7.6875 
Q 59.1875 11.578125 61.53125 19.28125 
z
" id="DejaVuSerif-67"/>
      <path d="M 35.40625 51.90625 
L 52.203125 51.90625 
L 52.203125 5.171875 
L 60.6875 5.171875 
L 60.6875 0 
L 43.21875 0 
L 43.21875 9.1875 
Q 40.71875 4 36.765625 1.28125 
Q 32.8125 -1.421875 27.59375 -1.421875 
Q 18.953125 -1.421875 14.875 3.484375 
Q 10.796875 8.40625 10.796875 18.890625 
L 10.796875 46.6875 
L 2.6875 46.6875 
L 2.6875 51.90625 
L 19.828125 51.90625 
L 19.828125 21.6875 
Q 19.828125 12.203125 22.140625 8.6875 
Q 24.46875 5.171875 30.421875 5.171875 
Q 36.671875 5.171875 39.9375 9.765625 
Q 43.21875 14.359375 43.21875 23.09375 
L 43.21875 46.6875 
L 35.40625 46.6875 
z
" id="DejaVuSerif-117"/>
      <path d="M 24.703125 0 
L 5.609375 46.6875 
L -0.296875 46.6875 
L -0.296875 51.90625 
L 23.578125 51.90625 
L 23.578125 46.6875 
L 15.28125 46.6875 
L 29.890625 10.984375 
L 44.484375 46.6875 
L 36.71875 46.6875 
L 36.71875 51.90625 
L 56.203125 51.90625 
L 56.203125 46.6875 
L 50.390625 46.6875 
L 31.296875 0 
z
" id="DejaVuSerif-118"/>
     </defs>
     <use xlink:href="#DejaVuSerif-70"/>
     <use x="63.884766" xlink:href="#DejaVuSerif-111"/>
     <use x="124.089844" xlink:href="#DejaVuSerif-108"/>
     <use x="156.072266" xlink:href="#DejaVuSerif-100"/>
     <use x="220.085938" xlink:href="#DejaVuSerif-101"/>
     <use x="279.265625" xlink:href="#DejaVuSerif-100"/>
     <use x="343.279297" xlink:href="#DejaVuSerif-32"/>
     <use x="375.066406" xlink:href="#DejaVuSerif-76"/>
     <use x="441.472656" xlink:href="#DejaVuSerif-105"/>
     <use x="473.455078" xlink:href="#DejaVuSerif-103"/>
     <use x="537.46875" xlink:href="#DejaVuSerif-104"/>
     <use x="601.873047" xlink:href="#DejaVuSerif-116"/>
     <use x="642.058594" xlink:href="#DejaVuSerif-32"/>
     <use x="673.845703" xlink:href="#DejaVuSerif-67"/>
     <use x="750.359375" xlink:href="#DejaVuSerif-117"/>
     <use x="814.763672" xlink:href="#DejaVuSerif-114"/>
     <use x="862.566406" xlink:href="#DejaVuSerif-118"/>
     <use x="919.060547" xlink:href="#DejaVuSerif-101"/>
    </g>
   </g>
  </g>
  <g id="axes_3">
   <g id="patch_13">
    <path d="M 57.6 307.584 
L 414.72 307.584 
L 414.72 198.966857 
L 57.6 198.966857 
z
" style="fill:#ffffff;"/>
   </g>
   <g id="PathCollection_3">
    <g clip-path="url(#pf7166762e9)">
     <use style="fill:#1f77b4;stroke:#1f77b4;" x="73.832727" xlink:href="#mfb6bf8caa8" y="280.019599"/>
     <use style="fill:#1f77b4;stroke:#1f77b4;" x="73.833119" xlink:href="#mfb6bf8caa8" y="283.201515"/>
     <use style="fill:#1f77b4;stroke:#1f77b4;" x="94.910293" xlink:href="#mfb6bf8caa8" y="273.402866"/>
     <use style="fill:#1f77b4;stroke:#1f77b4;" x="94.910684" xlink:href="#mfb6bf8caa8" y="272.862536"/>
     <use style="fill:#1f77b4;stroke:#1f77b4;" x="96.675449" xlink:href="#mfb6bf8caa8" y="264.882939"/>
     <use style="fill:#1f77b4;stroke:#1f77b4;" x="99.185169" xlink:href="#mfb6bf8caa8" y="253.015625"/>
     <use style="fill:#1f77b4;stroke:#1f77b4;" x="99.18789" xlink:href="#mfb6bf8caa8" y="250.575151"/>
     <use style="fill:#1f77b4;stroke:#1f77b4;" x="121.144305" xlink:href="#mfb6bf8caa8" y="206.888054"/>
     <use style="fill:#1f77b4;stroke:#1f77b4;" x="121.988998" xlink:href="#mfb6bf8caa8" y="225.252309"/>
     <use style="fill:#1f77b4;stroke:#1f77b4;" x="121.98938" xlink:href="#mfb6bf8caa8" y="227.589609"/>
     <use style="fill:#1f77b4;stroke:#1f77b4;" x="123.69785" xlink:href="#mfb6bf8caa8" y="241.536085"/>
     <use style="fill:#1f77b4;stroke:#1f77b4;" x="123.698242" xlink:href="#mfb6bf8caa8" y="244.280182"/>
     <use style="fill:#1f77b4;stroke:#1f77b4;" x="125.362202" xlink:href="#mfb6bf8caa8" y="282.888278"/>
     <use style="fill:#1f77b4;stroke:#1f77b4;" x="125.362594" xlink:href="#mfb6bf8caa8" y="285.910189"/>
     <use style="fill:#1f77b4;stroke:#1f77b4;" x="126.199487" xlink:href="#mfb6bf8caa8" y="299.476111"/>
     <use style="fill:#1f77b4;stroke:#1f77b4;" x="126.199878" xlink:href="#mfb6bf8caa8" y="300.38236"/>
     <use style="fill:#1f77b4;stroke:#1f77b4;" x="127.090237" xlink:href="#mfb6bf8caa8" y="223.197844"/>
     <use style="fill:#1f77b4;stroke:#1f77b4;" x="127.090618" xlink:href="#mfb6bf8caa8" y="224.416219"/>
     <use style="fill:#1f77b4;stroke:#1f77b4;" x="127.899364" xlink:href="#mfb6bf8caa8" y="234.284809"/>
     <use style="fill:#1f77b4;stroke:#1f77b4;" x="127.899756" xlink:href="#mfb6bf8caa8" y="234.65137"/>
     <use style="fill:#1f77b4;stroke:#1f77b4;" x="128.744146" xlink:href="#mfb6bf8caa8" y="221.054414"/>
     <use style="fill:#1f77b4;stroke:#1f77b4;" x="128.744527" xlink:href="#mfb6bf8caa8" y="219.782704"/>
     <use style="fill:#1f77b4;stroke:#1f77b4;" x="136.360585" xlink:href="#mfb6bf8caa8" y="266.688435"/>
     <use style="fill:#1f77b4;stroke:#1f77b4;" x="142.231315" xlink:href="#mfb6bf8caa8" y="292.933261"/>
     <use style="fill:#1f77b4;stroke:#1f77b4;" x="143.073052" xlink:href="#mfb6bf8caa8" y="233.206762"/>
     <use style="fill:#1f77b4;stroke:#1f77b4;" x="143.918832" xlink:href="#mfb6bf8caa8" y="208.871032"/>
     <use style="fill:#1f77b4;stroke:#1f77b4;" x="144.76286" xlink:href="#mfb6bf8caa8" y="282.140727"/>
     <use style="fill:#1f77b4;stroke:#1f77b4;" x="145.612006" xlink:href="#mfb6bf8caa8" y="260.358272"/>
     <use style="fill:#1f77b4;stroke:#1f77b4;" x="155.771705" xlink:href="#mfb6bf8caa8" y="275.967074"/>
     <use style="fill:#1f77b4;stroke:#1f77b4;" x="163.21203" xlink:href="#mfb6bf8caa8" y="214.912447"/>
     <use style="fill:#1f77b4;stroke:#1f77b4;" x="164.180987" xlink:href="#mfb6bf8caa8" y="221.0295"/>
     <use style="fill:#1f77b4;stroke:#1f77b4;" x="165.042171" xlink:href="#mfb6bf8caa8" y="232.998888"/>
     <use style="fill:#1f77b4;stroke:#1f77b4;" x="170.943837" xlink:href="#mfb6bf8caa8" y="205.674034"/>
     <use style="fill:#1f77b4;stroke:#1f77b4;" x="173.496775" xlink:href="#mfb6bf8caa8" y="244.633621"/>
     <use style="fill:#1f77b4;stroke:#1f77b4;" x="207.146958" xlink:href="#mfb6bf8caa8" y="260.019903"/>
     <use style="fill:#1f77b4;stroke:#1f77b4;" x="210.529274" xlink:href="#mfb6bf8caa8" y="216.66046"/>
     <use style="fill:#1f77b4;stroke:#1f77b4;" x="218.978819" xlink:href="#mfb6bf8caa8" y="282.034275"/>
     <use style="fill:#1f77b4;stroke:#1f77b4;" x="346.082599" xlink:href="#mfb6bf8caa8" y="247.973354"/>
     <use style="fill:#1f77b4;stroke:#1f77b4;" x="379.139631" xlink:href="#mfb6bf8caa8" y="228.816086"/>
     <use style="fill:#1f77b4;stroke:#1f77b4;" x="397.677773" xlink:href="#mfb6bf8caa8" y="256.794496"/>
     <use style="fill:#1f77b4;stroke:#1f77b4;" x="397.678155" xlink:href="#mfb6bf8caa8" y="262.707387"/>
     <use style="fill:#1f77b4;stroke:#1f77b4;" x="398.486891" xlink:href="#mfb6bf8caa8" y="275.609681"/>
     <use style="fill:#1f77b4;stroke:#1f77b4;" x="398.487273" xlink:href="#mfb6bf8caa8" y="272.589305"/>
    </g>
   </g>
   <g id="matplotlib.axis_5">
    <g id="xtick_26">
     <g id="line2d_38">
      <g>
       <use style="stroke:#000000;stroke-width:0.8;" x="97.996351" xlink:href="#m03ff03f501" y="307.584"/>
      </g>
     </g>
     <g id="text_23">
      <!-- 58300 -->
      <g transform="translate(82.090101 322.182437)scale(0.1 -0.1)">
       <defs>
        <path d="M 9.71875 69.828125 
Q 15.4375 71.96875 20.671875 73.09375 
Q 25.921875 74.21875 30.515625 74.21875 
Q 41.21875 74.21875 47.21875 69.59375 
Q 53.21875 64.984375 53.21875 56.78125 
Q 53.21875 50.203125 49.0625 45.78125 
Q 44.921875 41.359375 37.3125 39.796875 
Q 46.296875 38.53125 51.25 33.28125 
Q 56.203125 28.03125 56.203125 19.671875 
Q 56.203125 9.46875 49.34375 4.015625 
Q 42.484375 -1.421875 29.59375 -1.421875 
Q 23.875 -1.421875 18.421875 -0.1875 
Q 12.984375 1.03125 7.625 3.515625 
L 7.625 17.671875 
L 13.09375 17.671875 
Q 13.578125 10.640625 17.828125 7.03125 
Q 22.078125 3.421875 29.78125 3.421875 
Q 37.25 3.421875 41.578125 7.734375 
Q 45.90625 12.0625 45.90625 19.578125 
Q 45.90625 28.171875 41.453125 32.59375 
Q 37.015625 37.015625 28.421875 37.015625 
L 23.78125 37.015625 
L 23.78125 42 
L 26.21875 42 
Q 34.765625 42 39.03125 45.53125 
Q 43.3125 49.078125 43.3125 56.203125 
Q 43.3125 62.59375 39.796875 65.984375 
Q 36.28125 69.390625 29.6875 69.390625 
Q 23.09375 69.390625 19.453125 66.265625 
Q 15.828125 63.140625 15.1875 56.984375 
L 9.71875 56.984375 
z
" id="DejaVuSerif-51"/>
       </defs>
       <use xlink:href="#DejaVuSerif-53"/>
       <use x="63.623047" xlink:href="#DejaVuSerif-56"/>
       <use x="127.246094" xlink:href="#DejaVuSerif-51"/>
       <use x="190.869141" xlink:href="#DejaVuSerif-48"/>
       <use x="254.492188" xlink:href="#DejaVuSerif-48"/>
      </g>
     </g>
    </g>
    <g id="xtick_27">
     <g id="line2d_39">
      <g>
       <use style="stroke:#000000;stroke-width:0.8;" x="140.27554" xlink:href="#m03ff03f501" y="307.584"/>
      </g>
     </g>
     <g id="text_24">
      <!-- 58350 -->
      <g transform="translate(124.36929 322.182437)scale(0.1 -0.1)">
       <use xlink:href="#DejaVuSerif-53"/>
       <use x="63.623047" xlink:href="#DejaVuSerif-56"/>
       <use x="127.246094" xlink:href="#DejaVuSerif-51"/>
       <use x="190.869141" xlink:href="#DejaVuSerif-53"/>
       <use x="254.492188" xlink:href="#DejaVuSerif-48"/>
      </g>
     </g>
    </g>
    <g id="xtick_28">
     <g id="line2d_40">
      <g>
       <use style="stroke:#000000;stroke-width:0.8;" x="182.55473" xlink:href="#m03ff03f501" y="307.584"/>
      </g>
     </g>
     <g id="text_25">
      <!-- 58400 -->
      <g transform="translate(166.64848 322.182437)scale(0.1 -0.1)">
       <use xlink:href="#DejaVuSerif-53"/>
       <use x="63.623047" xlink:href="#DejaVuSerif-56"/>
       <use x="127.246094" xlink:href="#DejaVuSerif-52"/>
       <use x="190.869141" xlink:href="#DejaVuSerif-48"/>
       <use x="254.492188" xlink:href="#DejaVuSerif-48"/>
      </g>
     </g>
    </g>
    <g id="xtick_29">
     <g id="line2d_41">
      <g>
       <use style="stroke:#000000;stroke-width:0.8;" x="224.833919" xlink:href="#m03ff03f501" y="307.584"/>
      </g>
     </g>
     <g id="text_26">
      <!-- 58450 -->
      <g transform="translate(208.927669 322.182437)scale(0.1 -0.1)">
       <use xlink:href="#DejaVuSerif-53"/>
       <use x="63.623047" xlink:href="#DejaVuSerif-56"/>
       <use x="127.246094" xlink:href="#DejaVuSerif-52"/>
       <use x="190.869141" xlink:href="#DejaVuSerif-53"/>
       <use x="254.492188" xlink:href="#DejaVuSerif-48"/>
      </g>
     </g>
    </g>
    <g id="xtick_30">
     <g id="line2d_42">
      <g>
       <use style="stroke:#000000;stroke-width:0.8;" x="267.113108" xlink:href="#m03ff03f501" y="307.584"/>
      </g>
     </g>
     <g id="text_27">
      <!-- 58500 -->
      <g transform="translate(251.206858 322.182437)scale(0.1 -0.1)">
       <use xlink:href="#DejaVuSerif-53"/>
       <use x="63.623047" xlink:href="#DejaVuSerif-56"/>
       <use x="127.246094" xlink:href="#DejaVuSerif-53"/>
       <use x="190.869141" xlink:href="#DejaVuSerif-48"/>
       <use x="254.492188" xlink:href="#DejaVuSerif-48"/>
      </g>
     </g>
    </g>
    <g id="xtick_31">
     <g id="line2d_43">
      <g>
       <use style="stroke:#000000;stroke-width:0.8;" x="309.392298" xlink:href="#m03ff03f501" y="307.584"/>
      </g>
     </g>
     <g id="text_28">
      <!-- 58550 -->
      <g transform="translate(293.486048 322.182437)scale(0.1 -0.1)">
       <use xlink:href="#DejaVuSerif-53"/>
       <use x="63.623047" xlink:href="#DejaVuSerif-56"/>
       <use x="127.246094" xlink:href="#DejaVuSerif-53"/>
       <use x="190.869141" xlink:href="#DejaVuSerif-53"/>
       <use x="254.492188" xlink:href="#DejaVuSerif-48"/>
      </g>
     </g>
    </g>
    <g id="xtick_32">
     <g id="line2d_44">
      <g>
       <use style="stroke:#000000;stroke-width:0.8;" x="351.671487" xlink:href="#m03ff03f501" y="307.584"/>
      </g>
     </g>
     <g id="text_29">
      <!-- 58600 -->
      <g transform="translate(335.765237 322.182437)scale(0.1 -0.1)">
       <use xlink:href="#DejaVuSerif-53"/>
       <use x="63.623047" xlink:href="#DejaVuSerif-56"/>
       <use x="127.246094" xlink:href="#DejaVuSerif-54"/>
       <use x="190.869141" xlink:href="#DejaVuSerif-48"/>
       <use x="254.492188" xlink:href="#DejaVuSerif-48"/>
      </g>
     </g>
    </g>
    <g id="xtick_33">
     <g id="line2d_45">
      <g>
       <use style="stroke:#000000;stroke-width:0.8;" x="393.950677" xlink:href="#m03ff03f501" y="307.584"/>
      </g>
     </g>
     <g id="text_30">
      <!-- 58650 -->
      <g transform="translate(378.044427 322.182437)scale(0.1 -0.1)">
       <use xlink:href="#DejaVuSerif-53"/>
       <use x="63.623047" xlink:href="#DejaVuSerif-56"/>
       <use x="127.246094" xlink:href="#DejaVuSerif-54"/>
       <use x="190.869141" xlink:href="#DejaVuSerif-53"/>
       <use x="254.492188" xlink:href="#DejaVuSerif-48"/>
      </g>
     </g>
    </g>
    <g id="text_31">
     <!-- MJD -->
     <g transform="translate(225.027187 335.860562)scale(0.1 -0.1)">
      <defs>
       <path d="M -8.40625 -17.484375 
L -8.40625 -6 
L -2.828125 -6 
Q -2.6875 -10.84375 -0.53125 -13.203125 
Q 1.609375 -15.578125 5.90625 -15.578125 
Q 11.71875 -15.578125 14.015625 -11.90625 
Q 16.3125 -8.25 16.3125 2.390625 
L 16.3125 67.671875 
L 4.984375 67.671875 
L 4.984375 72.90625 
L 35.5 72.90625 
L 35.5 67.671875 
L 26.21875 67.671875 
L 26.21875 2 
Q 26.21875 -10.0625 21.375 -15.421875 
Q 16.546875 -20.796875 5.8125 -20.796875 
Q 2.34375 -20.796875 -1.234375 -19.96875 
Q -4.828125 -19.140625 -8.40625 -17.484375 
z
" id="DejaVuSerif-74"/>
       <path d="M 24.703125 5.171875 
L 33.796875 5.171875 
Q 48 5.171875 55.59375 13.28125 
Q 63.1875 21.390625 63.1875 36.53125 
Q 63.1875 51.65625 55.609375 59.65625 
Q 48.046875 67.671875 33.796875 67.671875 
L 24.703125 67.671875 
z
M 5.515625 0 
L 5.515625 5.171875 
L 14.796875 5.171875 
L 14.796875 67.671875 
L 5.515625 67.671875 
L 5.515625 72.90625 
L 34.515625 72.90625 
Q 53.375 72.90625 63.890625 63.28125 
Q 74.421875 53.65625 74.421875 36.53125 
Q 74.421875 19.34375 63.875 9.671875 
Q 53.328125 0 34.515625 0 
z
" id="DejaVuSerif-68"/>
      </defs>
      <use xlink:href="#DejaVuSerif-77"/>
      <use x="102.392578" xlink:href="#DejaVuSerif-74"/>
      <use x="142.480469" xlink:href="#DejaVuSerif-68"/>
     </g>
    </g>
   </g>
   <g id="matplotlib.axis_6">
    <g id="ytick_8">
     <g id="line2d_46">
      <g>
       <use style="stroke:#000000;stroke-width:0.8;" x="57.6" xlink:href="#md7f2f26a07" y="200.664377"/>
      </g>
     </g>
     <g id="text_32">
      <!-- 16.4 -->
      <g transform="translate(28.334375 204.463596)scale(0.1 -0.1)">
       <use xlink:href="#DejaVuSerif-49"/>
       <use x="63.623047" xlink:href="#DejaVuSerif-54"/>
       <use x="127.246094" xlink:href="#DejaVuSerif-46"/>
       <use x="159.033203" xlink:href="#DejaVuSerif-52"/>
      </g>
     </g>
    </g>
    <g id="ytick_9">
     <g id="line2d_47">
      <g>
       <use style="stroke:#000000;stroke-width:0.8;" x="57.6" xlink:href="#md7f2f26a07" y="223.584471"/>
      </g>
     </g>
     <g id="text_33">
      <!-- 16.6 -->
      <g transform="translate(28.334375 227.38369)scale(0.1 -0.1)">
       <use xlink:href="#DejaVuSerif-49"/>
       <use x="63.623047" xlink:href="#DejaVuSerif-54"/>
       <use x="127.246094" xlink:href="#DejaVuSerif-46"/>
       <use x="159.033203" xlink:href="#DejaVuSerif-54"/>
      </g>
     </g>
    </g>
    <g id="ytick_10">
     <g id="line2d_48">
      <g>
       <use style="stroke:#000000;stroke-width:0.8;" x="57.6" xlink:href="#md7f2f26a07" y="246.504565"/>
      </g>
     </g>
     <g id="text_34">
      <!-- 16.8 -->
      <g transform="translate(28.334375 250.303784)scale(0.1 -0.1)">
       <use xlink:href="#DejaVuSerif-49"/>
       <use x="63.623047" xlink:href="#DejaVuSerif-54"/>
       <use x="127.246094" xlink:href="#DejaVuSerif-46"/>
       <use x="159.033203" xlink:href="#DejaVuSerif-56"/>
      </g>
     </g>
    </g>
    <g id="ytick_11">
     <g id="line2d_49">
      <g>
       <use style="stroke:#000000;stroke-width:0.8;" x="57.6" xlink:href="#md7f2f26a07" y="269.424659"/>
      </g>
     </g>
     <g id="text_35">
      <!-- 17.0 -->
      <g transform="translate(28.334375 273.223878)scale(0.1 -0.1)">
       <use xlink:href="#DejaVuSerif-49"/>
       <use x="63.623047" xlink:href="#DejaVuSerif-55"/>
       <use x="127.246094" xlink:href="#DejaVuSerif-46"/>
       <use x="159.033203" xlink:href="#DejaVuSerif-48"/>
      </g>
     </g>
    </g>
    <g id="ytick_12">
     <g id="line2d_50">
      <g>
       <use style="stroke:#000000;stroke-width:0.8;" x="57.6" xlink:href="#md7f2f26a07" y="292.344753"/>
      </g>
     </g>
     <g id="text_36">
      <!-- 17.2 -->
      <g transform="translate(28.334375 296.143972)scale(0.1 -0.1)">
       <use xlink:href="#DejaVuSerif-49"/>
       <use x="63.623047" xlink:href="#DejaVuSerif-55"/>
       <use x="127.246094" xlink:href="#DejaVuSerif-46"/>
       <use x="159.033203" xlink:href="#DejaVuSerif-50"/>
      </g>
     </g>
    </g>
    <g id="text_37">
     <!-- Mag -->
     <g transform="translate(22.1125 264.576991)rotate(-90)scale(0.1 -0.1)">
      <use xlink:href="#DejaVuSerif-77"/>
      <use x="102.392578" xlink:href="#DejaVuSerif-97"/>
      <use x="162.011719" xlink:href="#DejaVuSerif-103"/>
     </g>
    </g>
   </g>
   <g id="LineCollection_5">
    <path clip-path="url(#pf7166762e9)" d="M 73.832727 277.895035 
L 73.832727 282.144163 
" style="fill:none;stroke:#1f77b4;stroke-width:0.5;"/>
    <path clip-path="url(#pf7166762e9)" d="M 73.833119 281.056551 
L 73.833119 285.346479 
" style="fill:none;stroke:#1f77b4;stroke-width:0.5;"/>
    <path clip-path="url(#pf7166762e9)" d="M 94.910293 271.3191 
L 94.910293 275.486631 
" style="fill:none;stroke:#1f77b4;stroke-width:0.5;"/>
    <path clip-path="url(#pf7166762e9)" d="M 94.910684 270.782007 
L 94.910684 274.943064 
" style="fill:none;stroke:#1f77b4;stroke-width:0.5;"/>
    <path clip-path="url(#pf7166762e9)" d="M 96.675449 262.84863 
L 96.675449 266.917249 
" style="fill:none;stroke:#1f77b4;stroke-width:0.5;"/>
    <path clip-path="url(#pf7166762e9)" d="M 99.185169 251.044817 
L 99.185169 254.986434 
" style="fill:none;stroke:#1f77b4;stroke-width:0.5;"/>
    <path clip-path="url(#pf7166762e9)" d="M 99.18789 248.616669 
L 99.18789 252.533633 
" style="fill:none;stroke:#1f77b4;stroke-width:0.5;"/>
    <path clip-path="url(#pf7166762e9)" d="M 121.144305 205.113773 
L 121.144305 208.662335 
" style="fill:none;stroke:#1f77b4;stroke-width:0.5;"/>
    <path clip-path="url(#pf7166762e9)" d="M 121.988998 223.408415 
L 121.988998 227.096203 
" style="fill:none;stroke:#1f77b4;stroke-width:0.5;"/>
    <path clip-path="url(#pf7166762e9)" d="M 121.98938 225.73609 
L 121.98938 229.443127 
" style="fill:none;stroke:#1f77b4;stroke-width:0.5;"/>
    <path clip-path="url(#pf7166762e9)" d="M 123.69785 239.62121 
L 123.69785 243.45096 
" style="fill:none;stroke:#1f77b4;stroke-width:0.5;"/>
    <path clip-path="url(#pf7166762e9)" d="M 123.698242 242.352402 
L 123.698242 246.207961 
" style="fill:none;stroke:#1f77b4;stroke-width:0.5;"/>
    <path clip-path="url(#pf7166762e9)" d="M 125.362202 280.745345 
L 125.362202 285.03121 
" style="fill:none;stroke:#1f77b4;stroke-width:0.5;"/>
    <path clip-path="url(#pf7166762e9)" d="M 125.362594 283.747447 
L 125.362594 288.072931 
" style="fill:none;stroke:#1f77b4;stroke-width:0.5;"/>
    <path clip-path="url(#pf7166762e9)" d="M 126.199487 297.218335 
L 126.199487 301.733888 
" style="fill:none;stroke:#1f77b4;stroke-width:0.5;"/>
    <path clip-path="url(#pf7166762e9)" d="M 126.199878 298.117863 
L 126.199878 302.646857 
" style="fill:none;stroke:#1f77b4;stroke-width:0.5;"/>
    <path clip-path="url(#pf7166762e9)" d="M 127.090237 221.362261 
L 127.090237 225.033426 
" style="fill:none;stroke:#1f77b4;stroke-width:0.5;"/>
    <path clip-path="url(#pf7166762e9)" d="M 127.090618 222.575724 
L 127.090618 226.256713 
" style="fill:none;stroke:#1f77b4;stroke-width:0.5;"/>
    <path clip-path="url(#pf7166762e9)" d="M 127.899364 232.402695 
L 127.899364 236.166923 
" style="fill:none;stroke:#1f77b4;stroke-width:0.5;"/>
    <path clip-path="url(#pf7166762e9)" d="M 127.899756 232.767645 
L 127.899756 236.535095 
" style="fill:none;stroke:#1f77b4;stroke-width:0.5;"/>
    <path clip-path="url(#pf7166762e9)" d="M 128.744146 219.227356 
L 128.744146 222.881471 
" style="fill:none;stroke:#1f77b4;stroke-width:0.5;"/>
    <path clip-path="url(#pf7166762e9)" d="M 128.744527 217.960635 
L 128.744527 221.604772 
" style="fill:none;stroke:#1f77b4;stroke-width:0.5;"/>
    <path clip-path="url(#pf7166762e9)" d="M 136.360585 264.643925 
L 136.360585 268.732946 
" style="fill:none;stroke:#1f77b4;stroke-width:0.5;"/>
    <path clip-path="url(#pf7166762e9)" d="M 142.231315 290.7226 
L 142.231315 295.143922 
" style="fill:none;stroke:#1f77b4;stroke-width:0.5;"/>
    <path clip-path="url(#pf7166762e9)" d="M 143.073052 231.329358 
L 143.073052 235.084166 
" style="fill:none;stroke:#1f77b4;stroke-width:0.5;"/>
    <path clip-path="url(#pf7166762e9)" d="M 143.918832 207.089722 
L 143.918832 210.652341 
" style="fill:none;stroke:#1f77b4;stroke-width:0.5;"/>
    <path clip-path="url(#pf7166762e9)" d="M 144.76286 280.002622 
L 144.76286 284.278833 
" style="fill:none;stroke:#1f77b4;stroke-width:0.5;"/>
    <path clip-path="url(#pf7166762e9)" d="M 145.612006 258.348889 
L 145.612006 262.367656 
" style="fill:none;stroke:#1f77b4;stroke-width:0.5;"/>
    <path clip-path="url(#pf7166762e9)" d="M 155.771705 273.867753 
L 155.771705 278.066395 
" style="fill:none;stroke:#1f77b4;stroke-width:0.5;"/>
    <path clip-path="url(#pf7166762e9)" d="M 163.21203 213.109017 
L 163.21203 216.715878 
" style="fill:none;stroke:#1f77b4;stroke-width:0.5;"/>
    <path clip-path="url(#pf7166762e9)" d="M 164.180987 219.202541 
L 164.180987 222.856459 
" style="fill:none;stroke:#1f77b4;stroke-width:0.5;"/>
    <path clip-path="url(#pf7166762e9)" d="M 165.042171 231.122387 
L 165.042171 234.87539 
" style="fill:none;stroke:#1f77b4;stroke-width:0.5;"/>
    <path clip-path="url(#pf7166762e9)" d="M 170.943837 203.904 
L 170.943837 207.444068 
" style="fill:none;stroke:#1f77b4;stroke-width:0.5;"/>
    <path clip-path="url(#pf7166762e9)" d="M 173.496775 242.704158 
L 173.496775 246.563084 
" style="fill:none;stroke:#1f77b4;stroke-width:0.5;"/>
    <path clip-path="url(#pf7166762e9)" d="M 207.146958 258.012347 
L 207.146958 262.027458 
" style="fill:none;stroke:#1f77b4;stroke-width:0.5;"/>
    <path clip-path="url(#pf7166762e9)" d="M 210.529274 214.850424 
L 210.529274 218.470496 
" style="fill:none;stroke:#1f77b4;stroke-width:0.5;"/>
    <path clip-path="url(#pf7166762e9)" d="M 218.978819 279.896854 
L 218.978819 284.171696 
" style="fill:none;stroke:#1f77b4;stroke-width:0.5;"/>
    <path clip-path="url(#pf7166762e9)" d="M 346.082599 246.02775 
L 346.082599 249.918958 
" style="fill:none;stroke:#1f77b4;stroke-width:0.5;"/>
    <path clip-path="url(#pf7166762e9)" d="M 379.139631 226.957444 
L 379.139631 230.674728 
" style="fill:none;stroke:#1f77b4;stroke-width:0.5;"/>
    <path clip-path="url(#pf7166762e9)" d="M 397.677773 254.804118 
L 397.677773 258.784873 
" style="fill:none;stroke:#1f77b4;stroke-width:0.5;"/>
    <path clip-path="url(#pf7166762e9)" d="M 397.678155 260.685175 
L 397.678155 264.729599 
" style="fill:none;stroke:#1f77b4;stroke-width:0.5;"/>
    <path clip-path="url(#pf7166762e9)" d="M 398.486891 273.512547 
L 398.486891 277.706815 
" style="fill:none;stroke:#1f77b4;stroke-width:0.5;"/>
    <path clip-path="url(#pf7166762e9)" d="M 398.487273 270.510409 
L 398.487273 274.668202 
" style="fill:none;stroke:#1f77b4;stroke-width:0.5;"/>
   </g>
   <g id="line2d_51">
    <path clip-path="url(#pf7166762e9)" d="M 73.832727 280.019599 
L 73.833119 283.201515 
L 94.910293 273.402866 
L 94.910684 272.862536 
L 96.675449 264.882939 
L 99.185169 253.015625 
L 99.18789 250.575151 
L 121.144305 206.888054 
L 121.988998 225.252309 
L 121.98938 227.589609 
L 123.69785 241.536085 
L 123.698242 244.280182 
L 125.362202 282.888278 
L 125.362594 285.910189 
L 126.199487 299.476111 
L 126.199878 300.38236 
L 127.090237 223.197844 
L 127.090618 224.416219 
L 127.899364 234.284809 
L 127.899756 234.65137 
L 128.744146 221.054414 
L 128.744527 219.782704 
L 136.360585 266.688435 
L 142.231315 292.933261 
L 143.073052 233.206762 
L 143.918832 208.871032 
L 144.76286 282.140727 
L 145.612006 260.358272 
L 155.771705 275.967074 
L 163.21203 214.912447 
L 164.180987 221.0295 
L 165.042171 232.998888 
L 170.943837 205.674034 
L 173.496775 244.633621 
L 207.146958 260.019903 
L 210.529274 216.66046 
L 218.978819 282.034275 
L 346.082599 247.973354 
L 379.139631 228.816086 
L 397.677773 256.794496 
L 397.678155 262.707387 
L 398.486891 275.609681 
L 398.487273 272.589305 
" style="fill:none;"/>
   </g>
   <g id="patch_14">
    <path d="M 57.6 307.584 
L 57.6 198.966857 
" style="fill:none;stroke:#000000;stroke-linecap:square;stroke-linejoin:miter;stroke-width:0.8;"/>
   </g>
   <g id="patch_15">
    <path d="M 414.72 307.584 
L 414.72 198.966857 
" style="fill:none;stroke:#000000;stroke-linecap:square;stroke-linejoin:miter;stroke-width:0.8;"/>
   </g>
   <g id="patch_16">
    <path d="M 57.6 307.584 
L 414.72 307.584 
" style="fill:none;stroke:#000000;stroke-linecap:square;stroke-linejoin:miter;stroke-width:0.8;"/>
   </g>
   <g id="patch_17">
    <path d="M 57.6 198.966857 
L 414.72 198.966857 
" style="fill:none;stroke:#000000;stroke-linecap:square;stroke-linejoin:miter;stroke-width:0.8;"/>
   </g>
   <g id="text_38">
    <!-- Light Curve -->
    <g transform="translate(206.000625 192.966857)scale(0.1 -0.1)">
     <use xlink:href="#DejaVuSerif-76"/>
     <use x="66.40625" xlink:href="#DejaVuSerif-105"/>
     <use x="98.388672" xlink:href="#DejaVuSerif-103"/>
     <use x="162.402344" xlink:href="#DejaVuSerif-104"/>
     <use x="226.806641" xlink:href="#DejaVuSerif-116"/>
     <use x="266.992188" xlink:href="#DejaVuSerif-32"/>
     <use x="298.779297" xlink:href="#DejaVuSerif-67"/>
     <use x="375.292969" xlink:href="#DejaVuSerif-117"/>
     <use x="439.697266" xlink:href="#DejaVuSerif-114"/>
     <use x="487.5" xlink:href="#DejaVuSerif-118"/>
     <use x="543.994141" xlink:href="#DejaVuSerif-101"/>
    </g>
   </g>
  </g>
 </g>
 <defs>
  <clipPath id="pbd78211bc4">
   <rect height="108.617143" width="148.8" x="265.92" y="41.472"/>
  </clipPath>
  <clipPath id="p3a5a131ed7">
   <rect height="108.617143" width="148.8" x="57.6" y="41.472"/>
  </clipPath>
  <clipPath id="pf7166762e9">
   <rect height="108.617143" width="357.12" x="57.6" y="198.966857"/>
  </clipPath>
 </defs>
</svg>
