<?xml version="1.0" encoding="utf-8" standalone="no"?>
<!DOCTYPE svg PUBLIC "-//W3C//DTD SVG 1.1//EN"
  "http://www.w3.org/Graphics/SVG/1.1/DTD/svg11.dtd">
<!-- Created with matplotlib (https://matplotlib.org/) -->
<svg height="345.6pt" version="1.1" viewBox="0 0 460.8 345.6" width="460.8pt" xmlns="http://www.w3.org/2000/svg" xmlns:xlink="http://www.w3.org/1999/xlink">
 <metadata>
  <rdf:RDF xmlns:cc="http://creativecommons.org/ns#" xmlns:dc="http://purl.org/dc/elements/1.1/" xmlns:rdf="http://www.w3.org/1999/02/22-rdf-syntax-ns#">
   <cc:Work>
    <dc:type rdf:resource="http://purl.org/dc/dcmitype/StillImage"/>
    <dc:date>2021-02-16T16:36:20.162920</dc:date>
    <dc:format>image/svg+xml</dc:format>
    <dc:creator>
     <cc:Agent>
      <dc:title>Matplotlib v3.3.3, https://matplotlib.org/</dc:title>
     </cc:Agent>
    </dc:creator>
   </cc:Work>
  </rdf:RDF>
 </metadata>
 <defs>
  <style type="text/css">*{stroke-linecap:butt;stroke-linejoin:round;}</style>
 </defs>
 <g id="figure_1">
  <g id="patch_1">
   <path d="M 0 345.6 
L 460.8 345.6 
L 460.8 0 
L 0 0 
z
" style="fill:#ffffff;"/>
  </g>
  <g id="axes_1">
   <g id="patch_2">
    <path d="M 265.92 150.089143 
L 414.72 150.089143 
L 414.72 41.472 
L 265.92 41.472 
z
" style="fill:#ffffff;"/>
   </g>
   <g id="matplotlib.axis_1">
    <g id="xtick_1">
     <g id="line2d_1">
      <defs>
       <path d="M 0 0 
L 0 3.5 
" id="m1d638bd471" style="stroke:#000000;stroke-width:0.8;"/>
      </defs>
      <g>
       <use style="stroke:#000000;stroke-width:0.8;" x="315.519224" xlink:href="#m1d638bd471" y="150.089143"/>
      </g>
     </g>
     <g id="text_1">
      <!-- $\mathdefault{10^{1}}$ -->
      <g transform="translate(306.719224 164.68758)scale(0.1 -0.1)">
       <defs>
        <path d="M 14.203125 0 
L 14.203125 5.171875 
L 26.90625 5.171875 
L 26.90625 65.828125 
L 12.203125 56.296875 
L 12.203125 62.703125 
L 29.984375 74.21875 
L 36.71875 74.21875 
L 36.71875 5.171875 
L 49.421875 5.171875 
L 49.421875 0 
z
" id="DejaVuSerif-49"/>
        <path d="M 31.78125 3.421875 
Q 39.265625 3.421875 42.96875 11.625 
Q 46.6875 19.828125 46.6875 36.375 
Q 46.6875 52.984375 42.96875 61.1875 
Q 39.265625 69.390625 31.78125 69.390625 
Q 24.3125 69.390625 20.59375 61.1875 
Q 16.890625 52.984375 16.890625 36.375 
Q 16.890625 19.828125 20.59375 11.625 
Q 24.3125 3.421875 31.78125 3.421875 
z
M 31.78125 -1.421875 
Q 19.921875 -1.421875 13.25 8.53125 
Q 6.59375 18.5 6.59375 36.375 
Q 6.59375 54.296875 13.25 64.25 
Q 19.921875 74.21875 31.78125 74.21875 
Q 43.703125 74.21875 50.34375 64.25 
Q 56.984375 54.296875 56.984375 36.375 
Q 56.984375 18.5 50.34375 8.53125 
Q 43.703125 -1.421875 31.78125 -1.421875 
z
" id="DejaVuSerif-48"/>
       </defs>
       <use transform="translate(0 0.7125)" xlink:href="#DejaVuSerif-49"/>
       <use transform="translate(63.623047 0.7125)" xlink:href="#DejaVuSerif-48"/>
       <use transform="translate(128.154453 37.046875)scale(0.7)" xlink:href="#DejaVuSerif-49"/>
      </g>
     </g>
    </g>
    <g id="xtick_2">
     <g id="line2d_2">
      <g>
       <use style="stroke:#000000;stroke-width:0.8;" x="373.218149" xlink:href="#m1d638bd471" y="150.089143"/>
      </g>
     </g>
     <g id="text_2">
      <!-- $\mathdefault{10^{2}}$ -->
      <g transform="translate(364.418149 164.68758)scale(0.1 -0.1)">
       <defs>
        <path d="M 12.796875 55.515625 
L 7.328125 55.515625 
L 7.328125 68.5 
Q 12.546875 71.296875 17.84375 72.75 
Q 23.140625 74.21875 28.21875 74.21875 
Q 39.59375 74.21875 46.1875 68.703125 
Q 52.78125 63.1875 52.78125 53.71875 
Q 52.78125 43.015625 37.84375 28.125 
Q 36.671875 27 36.078125 26.421875 
L 17.671875 8.015625 
L 48.09375 8.015625 
L 48.09375 17 
L 53.8125 17 
L 53.8125 0 
L 6.78125 0 
L 6.78125 5.328125 
L 28.90625 27.390625 
Q 36.234375 34.71875 39.359375 40.84375 
Q 42.484375 46.96875 42.484375 53.71875 
Q 42.484375 61.078125 38.640625 65.234375 
Q 34.8125 69.390625 28.078125 69.390625 
Q 21.09375 69.390625 17.28125 65.921875 
Q 13.484375 62.453125 12.796875 55.515625 
z
" id="DejaVuSerif-50"/>
       </defs>
       <use transform="translate(0 0.7125)" xlink:href="#DejaVuSerif-49"/>
       <use transform="translate(63.623047 0.7125)" xlink:href="#DejaVuSerif-48"/>
       <use transform="translate(128.154453 37.046875)scale(0.7)" xlink:href="#DejaVuSerif-50"/>
      </g>
     </g>
    </g>
    <g id="xtick_3">
     <g id="line2d_3">
      <defs>
       <path d="M 0 0 
L 0 2 
" id="m1232cde4d6" style="stroke:#000000;stroke-width:0.6;"/>
      </defs>
      <g>
       <use style="stroke:#000000;stroke-width:0.6;" x="275.189406" xlink:href="#m1232cde4d6" y="150.089143"/>
      </g>
     </g>
    </g>
    <g id="xtick_4">
     <g id="line2d_4">
      <g>
       <use style="stroke:#000000;stroke-width:0.6;" x="285.349683" xlink:href="#m1232cde4d6" y="150.089143"/>
      </g>
     </g>
    </g>
    <g id="xtick_5">
     <g id="line2d_5">
      <g>
       <use style="stroke:#000000;stroke-width:0.6;" x="292.558513" xlink:href="#m1232cde4d6" y="150.089143"/>
      </g>
     </g>
    </g>
    <g id="xtick_6">
     <g id="line2d_6">
      <g>
       <use style="stroke:#000000;stroke-width:0.6;" x="298.150117" xlink:href="#m1232cde4d6" y="150.089143"/>
      </g>
     </g>
    </g>
    <g id="xtick_7">
     <g id="line2d_7">
      <g>
       <use style="stroke:#000000;stroke-width:0.6;" x="302.71879" xlink:href="#m1232cde4d6" y="150.089143"/>
      </g>
     </g>
    </g>
    <g id="xtick_8">
     <g id="line2d_8">
      <g>
       <use style="stroke:#000000;stroke-width:0.6;" x="306.581548" xlink:href="#m1232cde4d6" y="150.089143"/>
      </g>
     </g>
    </g>
    <g id="xtick_9">
     <g id="line2d_9">
      <g>
       <use style="stroke:#000000;stroke-width:0.6;" x="309.927621" xlink:href="#m1232cde4d6" y="150.089143"/>
      </g>
     </g>
    </g>
    <g id="xtick_10">
     <g id="line2d_10">
      <g>
       <use style="stroke:#000000;stroke-width:0.6;" x="312.879066" xlink:href="#m1232cde4d6" y="150.089143"/>
      </g>
     </g>
    </g>
    <g id="xtick_11">
     <g id="line2d_11">
      <g>
       <use style="stroke:#000000;stroke-width:0.6;" x="332.888331" xlink:href="#m1232cde4d6" y="150.089143"/>
      </g>
     </g>
    </g>
    <g id="xtick_12">
     <g id="line2d_12">
      <g>
       <use style="stroke:#000000;stroke-width:0.6;" x="343.048608" xlink:href="#m1232cde4d6" y="150.089143"/>
      </g>
     </g>
    </g>
    <g id="xtick_13">
     <g id="line2d_13">
      <g>
       <use style="stroke:#000000;stroke-width:0.6;" x="350.257438" xlink:href="#m1232cde4d6" y="150.089143"/>
      </g>
     </g>
    </g>
    <g id="xtick_14">
     <g id="line2d_14">
      <g>
       <use style="stroke:#000000;stroke-width:0.6;" x="355.849042" xlink:href="#m1232cde4d6" y="150.089143"/>
      </g>
     </g>
    </g>
    <g id="xtick_15">
     <g id="line2d_15">
      <g>
       <use style="stroke:#000000;stroke-width:0.6;" x="360.417715" xlink:href="#m1232cde4d6" y="150.089143"/>
      </g>
     </g>
    </g>
    <g id="xtick_16">
     <g id="line2d_16">
      <g>
       <use style="stroke:#000000;stroke-width:0.6;" x="364.280473" xlink:href="#m1232cde4d6" y="150.089143"/>
      </g>
     </g>
    </g>
    <g id="xtick_17">
     <g id="line2d_17">
      <g>
       <use style="stroke:#000000;stroke-width:0.6;" x="367.626546" xlink:href="#m1232cde4d6" y="150.089143"/>
      </g>
     </g>
    </g>
    <g id="xtick_18">
     <g id="line2d_18">
      <g>
       <use style="stroke:#000000;stroke-width:0.6;" x="370.577991" xlink:href="#m1232cde4d6" y="150.089143"/>
      </g>
     </g>
    </g>
    <g id="xtick_19">
     <g id="line2d_19">
      <g>
       <use style="stroke:#000000;stroke-width:0.6;" x="390.587256" xlink:href="#m1232cde4d6" y="150.089143"/>
      </g>
     </g>
    </g>
    <g id="xtick_20">
     <g id="line2d_20">
      <g>
       <use style="stroke:#000000;stroke-width:0.6;" x="400.747533" xlink:href="#m1232cde4d6" y="150.089143"/>
      </g>
     </g>
    </g>
    <g id="xtick_21">
     <g id="line2d_21">
      <g>
       <use style="stroke:#000000;stroke-width:0.6;" x="407.956364" xlink:href="#m1232cde4d6" y="150.089143"/>
      </g>
     </g>
    </g>
    <g id="xtick_22">
     <g id="line2d_22">
      <g>
       <use style="stroke:#000000;stroke-width:0.6;" x="413.547967" xlink:href="#m1232cde4d6" y="150.089143"/>
      </g>
     </g>
    </g>
    <g id="text_3">
     <!-- Period d -->
     <g transform="translate(319.231719 178.365705)scale(0.1 -0.1)">
      <defs>
       <path d="M 24.703125 37.109375 
L 37.59375 37.109375 
Q 44.875 37.109375 48.671875 41.03125 
Q 52.484375 44.96875 52.484375 52.390625 
Q 52.484375 59.859375 48.671875 63.765625 
Q 44.875 67.671875 37.59375 67.671875 
L 24.703125 67.671875 
z
M 5.515625 0 
L 5.515625 5.171875 
L 14.796875 5.171875 
L 14.796875 67.671875 
L 5.515625 67.671875 
L 5.515625 72.90625 
L 39.984375 72.90625 
Q 50.921875 72.90625 57.3125 67.359375 
Q 63.71875 61.8125 63.71875 52.390625 
Q 63.71875 43.015625 57.3125 37.453125 
Q 50.921875 31.890625 39.984375 31.890625 
L 24.703125 31.890625 
L 24.703125 5.171875 
L 35.984375 5.171875 
L 35.984375 0 
z
" id="DejaVuSerif-80"/>
       <path d="M 54.203125 25 
L 15.484375 25 
L 15.484375 24.609375 
Q 15.484375 14.109375 19.4375 8.765625 
Q 23.390625 3.421875 31.109375 3.421875 
Q 37.015625 3.421875 40.796875 6.515625 
Q 44.578125 9.625 46.09375 15.71875 
L 53.328125 15.71875 
Q 51.171875 7.171875 45.375 2.875 
Q 39.59375 -1.421875 30.171875 -1.421875 
Q 18.796875 -1.421875 11.890625 6.078125 
Q 4.984375 13.578125 4.984375 25.984375 
Q 4.984375 38.28125 11.765625 45.796875 
Q 18.5625 53.328125 29.59375 53.328125 
Q 41.359375 53.328125 47.65625 46.0625 
Q 53.953125 38.8125 54.203125 25 
z
M 43.609375 30.171875 
Q 43.3125 39.265625 39.765625 43.875 
Q 36.234375 48.484375 29.59375 48.484375 
Q 23.390625 48.484375 19.828125 43.84375 
Q 16.265625 39.203125 15.484375 30.171875 
z
" id="DejaVuSerif-101"/>
       <path d="M 47.796875 52 
L 47.796875 39.015625 
L 42.625 39.015625 
Q 42.390625 42.875 40.484375 44.78125 
Q 38.578125 46.6875 34.90625 46.6875 
Q 28.265625 46.6875 24.71875 42.09375 
Q 21.1875 37.5 21.1875 28.90625 
L 21.1875 5.171875 
L 31.59375 5.171875 
L 31.59375 0 
L 4.109375 0 
L 4.109375 5.171875 
L 12.203125 5.171875 
L 12.203125 46.78125 
L 3.609375 46.78125 
L 3.609375 51.90625 
L 21.1875 51.90625 
L 21.1875 42.671875 
Q 23.828125 48.09375 27.96875 50.703125 
Q 32.125 53.328125 38.09375 53.328125 
Q 40.28125 53.328125 42.703125 52.984375 
Q 45.125 52.640625 47.796875 52 
z
" id="DejaVuSerif-114"/>
       <path d="M 9.71875 68.015625 
Q 9.71875 70.265625 11.34375 71.921875 
Q 12.984375 73.578125 15.28125 73.578125 
Q 17.53125 73.578125 19.15625 71.921875 
Q 20.796875 70.265625 20.796875 68.015625 
Q 20.796875 65.71875 19.1875 64.109375 
Q 17.578125 62.5 15.28125 62.5 
Q 12.984375 62.5 11.34375 64.109375 
Q 9.71875 65.71875 9.71875 68.015625 
z
M 21.1875 5.171875 
L 29.6875 5.171875 
L 29.6875 0 
L 3.609375 0 
L 3.609375 5.171875 
L 12.203125 5.171875 
L 12.203125 46.6875 
L 3.609375 46.6875 
L 3.609375 51.90625 
L 21.1875 51.90625 
z
" id="DejaVuSerif-105"/>
       <path d="M 30.078125 3.421875 
Q 37.3125 3.421875 40.984375 9.125 
Q 44.671875 14.84375 44.671875 25.984375 
Q 44.671875 37.109375 40.984375 42.796875 
Q 37.3125 48.484375 30.078125 48.484375 
Q 22.859375 48.484375 19.171875 42.796875 
Q 15.484375 37.109375 15.484375 25.984375 
Q 15.484375 14.84375 19.1875 9.125 
Q 22.90625 3.421875 30.078125 3.421875 
z
M 30.078125 -1.421875 
Q 18.75 -1.421875 11.859375 6.078125 
Q 4.984375 13.578125 4.984375 25.984375 
Q 4.984375 38.375 11.84375 45.84375 
Q 18.703125 53.328125 30.078125 53.328125 
Q 41.453125 53.328125 48.3125 45.84375 
Q 55.171875 38.375 55.171875 25.984375 
Q 55.171875 13.578125 48.3125 6.078125 
Q 41.453125 -1.421875 30.078125 -1.421875 
z
" id="DejaVuSerif-111"/>
       <path d="M 52.484375 5.171875 
L 61.078125 5.171875 
L 61.078125 0 
L 43.5 0 
L 43.5 8.109375 
Q 40.875 3.21875 36.796875 0.890625 
Q 32.71875 -1.421875 26.703125 -1.421875 
Q 17.140625 -1.421875 11.0625 6.171875 
Q 4.984375 13.765625 4.984375 25.984375 
Q 4.984375 38.1875 11.03125 45.75 
Q 17.09375 53.328125 26.703125 53.328125 
Q 32.71875 53.328125 36.796875 51 
Q 40.875 48.6875 43.5 43.796875 
L 43.5 70.796875 
L 35.015625 70.796875 
L 35.015625 75.984375 
L 52.484375 75.984375 
z
M 43.5 23.390625 
L 43.5 28.515625 
Q 43.5 37.84375 39.90625 42.765625 
Q 36.328125 47.703125 29.5 47.703125 
Q 22.5625 47.703125 19.015625 42.234375 
Q 15.484375 36.765625 15.484375 25.984375 
Q 15.484375 15.234375 19.015625 9.71875 
Q 22.5625 4.203125 29.5 4.203125 
Q 36.328125 4.203125 39.90625 9.109375 
Q 43.5 14.015625 43.5 23.390625 
z
" id="DejaVuSerif-100"/>
       <path id="DejaVuSerif-32"/>
      </defs>
      <use xlink:href="#DejaVuSerif-80"/>
      <use x="62.785156" xlink:href="#DejaVuSerif-101"/>
      <use x="121.964844" xlink:href="#DejaVuSerif-114"/>
      <use x="169.767578" xlink:href="#DejaVuSerif-105"/>
      <use x="201.75" xlink:href="#DejaVuSerif-111"/>
      <use x="261.955078" xlink:href="#DejaVuSerif-100"/>
      <use x="325.96875" xlink:href="#DejaVuSerif-32"/>
      <use x="357.755859" xlink:href="#DejaVuSerif-100"/>
     </g>
    </g>
   </g>
   <g id="matplotlib.axis_2">
    <g id="ytick_1">
     <g id="line2d_23">
      <defs>
       <path d="M 0 0 
L -3.5 0 
" id="m65d930d860" style="stroke:#000000;stroke-width:0.8;"/>
      </defs>
      <g>
       <use style="stroke:#000000;stroke-width:0.8;" x="265.92" xlink:href="#m65d930d860" y="145.166386"/>
      </g>
     </g>
     <g id="text_4">
      <!-- 0.0 -->
      <g transform="translate(243.016875 148.965604)scale(0.1 -0.1)">
       <defs>
        <path d="M 9.421875 5.078125 
Q 9.421875 7.8125 11.28125 9.71875 
Q 13.140625 11.625 15.921875 11.625 
Q 18.609375 11.625 20.5 9.71875 
Q 22.40625 7.8125 22.40625 5.078125 
Q 22.40625 2.390625 20.5 0.484375 
Q 18.609375 -1.421875 15.921875 -1.421875 
Q 13.140625 -1.421875 11.28125 0.453125 
Q 9.421875 2.34375 9.421875 5.078125 
z
" id="DejaVuSerif-46"/>
       </defs>
       <use xlink:href="#DejaVuSerif-48"/>
       <use x="63.623047" xlink:href="#DejaVuSerif-46"/>
       <use x="95.410156" xlink:href="#DejaVuSerif-48"/>
      </g>
     </g>
    </g>
    <g id="ytick_2">
     <g id="line2d_24">
      <g>
       <use style="stroke:#000000;stroke-width:0.8;" x="265.92" xlink:href="#m65d930d860" y="102.860613"/>
      </g>
     </g>
     <g id="text_5">
      <!-- 0.2 -->
      <g transform="translate(243.016875 106.659832)scale(0.1 -0.1)">
       <use xlink:href="#DejaVuSerif-48"/>
       <use x="63.623047" xlink:href="#DejaVuSerif-46"/>
       <use x="95.410156" xlink:href="#DejaVuSerif-50"/>
      </g>
     </g>
    </g>
    <g id="ytick_3">
     <g id="line2d_25">
      <g>
       <use style="stroke:#000000;stroke-width:0.8;" x="265.92" xlink:href="#m65d930d860" y="60.554841"/>
      </g>
     </g>
     <g id="text_6">
      <!-- 0.4 -->
      <g transform="translate(243.016875 64.35406)scale(0.1 -0.1)">
       <defs>
        <path d="M 34.90625 24.703125 
L 34.90625 63.484375 
L 10.015625 24.703125 
z
M 56.390625 0 
L 23.1875 0 
L 23.1875 5.171875 
L 34.90625 5.171875 
L 34.90625 19.484375 
L 3.078125 19.484375 
L 3.078125 24.8125 
L 35.015625 74.21875 
L 44.671875 74.21875 
L 44.671875 24.703125 
L 58.59375 24.703125 
L 58.59375 19.484375 
L 44.671875 19.484375 
L 44.671875 5.171875 
L 56.390625 5.171875 
z
" id="DejaVuSerif-52"/>
       </defs>
       <use xlink:href="#DejaVuSerif-48"/>
       <use x="63.623047" xlink:href="#DejaVuSerif-46"/>
       <use x="95.410156" xlink:href="#DejaVuSerif-52"/>
      </g>
     </g>
    </g>
    <g id="text_7">
     <!-- Power -->
     <g transform="translate(236.937188 111.583696)rotate(-90)scale(0.1 -0.1)">
      <defs>
       <path d="M 48 51.90625 
L 61.28125 11.375 
L 73 46.6875 
L 65.484375 46.6875 
L 65.484375 51.90625 
L 84.28125 51.90625 
L 84.28125 46.6875 
L 78.515625 46.6875 
L 63.09375 0 
L 55.609375 0 
L 42.828125 38.8125 
L 29.984375 0 
L 22.796875 0 
L 7.421875 46.6875 
L 1.609375 46.6875 
L 1.609375 51.90625 
L 25.09375 51.90625 
L 25.09375 46.6875 
L 16.703125 46.6875 
L 28.328125 11.375 
L 41.703125 51.90625 
z
" id="DejaVuSerif-119"/>
      </defs>
      <use xlink:href="#DejaVuSerif-80"/>
      <use x="63.285156" xlink:href="#DejaVuSerif-111"/>
      <use x="123.490234" xlink:href="#DejaVuSerif-119"/>
      <use x="209.085938" xlink:href="#DejaVuSerif-101"/>
      <use x="268.265625" xlink:href="#DejaVuSerif-114"/>
     </g>
    </g>
   </g>
   <g id="LineCollection_1">
    <path clip-path="url(#p7dfe0f7d2a)" d="M 272.688076 46.409143 
L 407.956364 46.409143 
" style="fill:none;stroke:#808080;stroke-dasharray:5.55,2.4;stroke-dashoffset:0;stroke-width:1.5;"/>
   </g>
   <g id="LineCollection_2">
    <path clip-path="url(#p7dfe0f7d2a)" d="M 272.688076 60.308543 
L 407.956364 60.308543 
" style="fill:none;stroke:#a9a9a9;stroke-dasharray:5.55,2.4;stroke-dashoffset:0;stroke-width:1.5;"/>
   </g>
   <g id="LineCollection_3">
    <path clip-path="url(#p7dfe0f7d2a)" d="M 272.688076 71.252399 
L 407.956364 71.252399 
" style="fill:none;stroke:#c0c0c0;stroke-dasharray:5.55,2.4;stroke-dashoffset:0;stroke-width:1.5;"/>
   </g>
   <g id="LineCollection_4">
    <path clip-path="url(#p7dfe0f7d2a)" d="M 272.688076 76.421742 
L 407.956364 76.421742 
" style="fill:none;stroke:#d3d3d3;stroke-dasharray:5.55,2.4;stroke-dashoffset:0;stroke-width:1.5;"/>
   </g>
   <g id="line2d_26">
    <path clip-path="url(#p7dfe0f7d2a)" d="M 407.956364 105.491796 
L 403.213616 138.98612 
L 399.227255 136.607418 
L 395.788878 116.569118 
L 392.765875 105.14027 
L 390.068617 102.136191 
L 387.633683 115.154681 
L 385.414539 135.818169 
L 383.376032 129.290457 
L 381.490955 108.156957 
L 379.73782 97.113041 
L 378.099359 90.908902 
L 376.561486 93.830591 
L 375.112563 116.274406 
L 373.74286 122.782633 
L 372.444161 100.163533 
L 371.209467 84.401599 
L 370.032763 80.935106 
L 368.908846 88.179116 
L 367.833182 112.941098 
L 366.801799 123.439421 
L 364.858264 85.924481 
L 363.940249 78.357315 
L 363.054681 80.649007 
L 362.199344 117.015386 
L 361.372241 138.336182 
L 360.571569 125.234499 
L 359.79569 109.209 
L 359.043114 105.891704 
L 358.312483 110.65425 
L 357.602554 136.664648 
L 356.912184 145.152 
L 356.240326 142.673359 
L 355.586012 139.604306 
L 354.948349 139.332165 
L 354.326511 141.446856 
L 353.719731 142.435766 
L 353.127298 141.016605 
L 352.548548 141.386983 
L 351.982864 144.552406 
L 351.429669 144.376475 
L 350.888423 140.350104 
L 350.358621 133.143069 
L 349.839788 132.845683 
L 348.83328 144.062764 
L 348.344791 144.513935 
L 347.865643 139.076365 
L 347.395485 128.000769 
L 346.933987 123.61438 
L 346.480834 129.572632 
L 345.598396 142.936468 
L 345.168563 144.540737 
L 344.745979 132.876064 
L 344.330404 117.948596 
L 343.921608 117.44379 
L 343.519374 123.990353 
L 342.733774 144.634423 
L 342.35002 137.205658 
L 341.972055 117.056836 
L 341.599707 107.851333 
L 341.23281 111.922173 
L 340.51475 140.59213 
L 340.163291 125.725832 
L 339.816694 97.69237 
L 339.474825 93.934424 
L 339.137558 100.52165 
L 338.476344 137.090026 
L 338.152167 127.109439 
L 337.83213 103.948043 
L 337.516128 98.337846 
L 337.204063 104.559632 
L 336.895836 118.234848 
L 336.591354 136.811558 
L 336.290527 129.717184 
L 335.993269 100.386144 
L 335.699496 89.353517 
L 335.409128 97.433135 
L 334.838294 138.034385 
L 334.55768 124.27771 
L 334.280174 79.636113 
L 334.005708 71.345035 
L 333.734215 81.580616 
L 333.465633 102.983665 
L 333.199898 133.178028 
L 332.936952 139.115718 
L 332.419196 95.776711 
L 332.164275 99.738572 
L 331.414712 145.062691 
L 331.169759 140.834713 
L 330.927177 133.767478 
L 330.686922 132.74299 
L 330.213212 136.638003 
L 329.748291 145.007133 
L 329.066695 135.75833 
L 328.843554 137.507406 
L 328.622384 142.86454 
L 328.403148 144.274743 
L 327.970348 131.865971 
L 327.756719 132.40262 
L 327.544897 136.745524 
L 327.33485 144.013502 
L 327.126548 142.525245 
L 326.919965 134.387947 
L 326.71507 131.237983 
L 326.511837 133.907872 
L 326.11025 144.631874 
L 325.714998 133.771287 
L 325.519686 134.396249 
L 325.133569 145.071583 
L 324.942719 140.290683 
L 324.753312 130.91774 
L 324.565326 129.111104 
L 324.009683 143.015435 
L 323.645984 127.34591 
L 323.466094 131.911743 
L 323.110144 144.279935 
L 322.934048 137.85234 
L 322.585524 111.242265 
L 322.071662 144.672612 
L 321.90269 134.207353 
L 321.568126 93.458394 
L 321.07451 145.040794 
L 320.912109 137.673203 
L 320.59043 110.358811 
L 320.115524 143.413047 
L 319.649452 127.062116 
L 319.496001 131.281822 
L 319.19189 142.257081 
L 318.742534 133.59424 
L 318.594521 135.214118 
L 318.301094 140.895979 
L 318.155658 142.991828 
L 318.011062 139.797409 
L 317.724349 124.03538 
L 317.582214 128.745596 
L 317.300339 145.03171 
L 317.160581 136.58271 
L 316.883384 104.355282 
L 316.745926 111.902697 
L 316.473253 143.097234 
L 316.338021 129.474432 
L 316.069727 83.320736 
L 315.936649 87.205177 
L 315.672596 135.68532 
L 315.541606 133.493926 
L 315.281661 86.720749 
L 315.152693 92.511204 
L 314.896732 137.006624 
L 314.769725 141.241249 
L 314.517626 128.931701 
L 314.392521 129.908458 
L 314.020912 144.270678 
L 313.898256 143.723436 
L 313.533852 131.858087 
L 313.413552 134.506999 
L 313.174672 144.222578 
L 313.05608 137.746731 
L 312.820567 116.940629 
L 312.703635 116.757132 
L 312.356079 142.714561 
L 312.013277 108.713177 
L 311.675102 143.436094 
L 311.563383 138.91909 
L 311.34143 122.191716 
L 311.012142 144.429463 
L 310.903334 143.905216 
L 310.579717 137.859314 
L 310.366271 134.637279 
L 310.154628 143.165194 
L 310.049473 141.97702 
L 309.73663 120.037303 
L 309.530217 142.628904 
L 309.427645 140.901478 
L 309.223751 114.724838 
L 309.122423 115.836379 
L 308.920988 143.235686 
L 308.621839 117.806963 
L 308.326219 142.230583 
L 308.13106 119.842902 
L 308.034047 120.304878 
L 307.84114 144.860001 
L 307.745241 140.150126 
L 307.554537 123.080838 
L 307.271175 144.948345 
L 307.084032 131.313711 
L 306.990981 131.800912 
L 306.805911 139.663009 
L 306.713886 138.605126 
L 306.622198 136.222728 
L 306.439822 140.410391 
L 306.349129 139.556815 
L 306.168722 130.660844 
L 306.079003 132.465815 
L 305.900524 142.583372 
L 305.811759 140.749483 
L 305.635166 131.717766 
L 305.372589 144.569345 
L 305.285671 142.993057 
L 305.112735 135.810421 
L 304.855548 145.047551 
L 304.685544 139.355904 
L 304.600973 140.433631 
L 304.432682 144.578854 
L 304.265515 134.231863 
L 304.182347 134.98604 
L 304.016835 145.137435 
L 303.770599 125.221687 
L 303.52676 144.947292 
L 303.365508 128.722495 
L 303.28527 128.973422 
L 303.12556 141.861039 
L 303.046086 139.805205 
L 302.966862 134.534369 
L 302.887888 135.138723 
L 302.730683 143.746461 
L 302.49671 130.771179 
L 302.341932 144.4349 
L 302.264901 141.551508 
L 302.111544 128.08794 
L 302.035216 131.312484 
L 301.883255 144.633304 
L 301.732209 123.937567 
L 301.657027 124.117345 
L 301.432822 139.72799 
L 301.28446 131.443136 
L 301.210607 135.381537 
L 300.917351 122.271294 
L 300.772001 141.751801 
L 300.69964 141.603439 
L 300.555543 116.133699 
L 300.483805 117.281559 
L 300.269812 144.58499 
L 300.128159 125.193384 
L 300.057631 126.071114 
L 299.847232 143.776938 
L 299.638585 127.920341 
L 299.500446 144.393467 
L 299.431661 142.862293 
L 299.294655 127.183431 
L 299.226432 128.061469 
L 299.09054 144.005475 
L 299.022869 141.978809 
L 298.888074 136.519562 
L 298.820947 137.504373 
L 298.754 141.366869 
L 298.687231 139.78686 
L 298.62064 136.271901 
L 298.554225 138.054366 
L 298.42192 144.415694 
L 298.290311 136.576931 
L 298.224765 137.278023 
L 298.094184 145.014122 
L 297.89958 135.614491 
L 297.770679 144.065796 
L 297.706476 142.814032 
L 297.578561 133.830347 
L 297.514848 134.180515 
L 297.387906 143.740499 
L 297.261603 139.319413 
L 297.19869 139.683499 
L 297.135934 138.80699 
L 296.948604 125.341899 
L 296.824491 143.344769 
L 296.762664 142.805527 
L 296.578094 109.311584 
L 296.394874 143.354049 
L 296.273467 115.692387 
L 296.212983 117.540659 
L 296.032403 143.170193 
L 295.853115 125.778395 
L 295.675101 143.267857 
L 295.498342 127.057947 
L 295.381192 138.095772 
L 295.264587 131.044759 
L 295.206487 132.277581 
L 295.090691 142.119771 
L 294.917993 114.749038 
L 294.86069 121.814753 
L 294.746477 144.407211 
L 294.689565 140.25485 
L 294.576127 120.132487 
L 294.5196 125.080011 
L 294.350781 143.72627 
L 294.238863 135.302955 
L 294.183091 137.697221 
L 294.016515 144.832289 
L 293.961236 144.295588 
L 293.85104 134.506543 
L 293.796124 128.701396 
L 293.741328 134.160243 
L 293.632093 142.934445 
L 293.469129 120.455533 
L 293.307218 142.42175 
L 293.199855 122.762287 
L 293.146346 122.78713 
L 293.039669 144.382102 
L 292.9865 140.461325 
L 292.8805 122.334109 
L 292.827668 126.804577 
L 292.722336 142.861048 
L 292.565165 129.071106 
L 292.460928 143.49094 
L 292.408972 142.480532 
L 292.305382 130.431419 
L 292.253748 131.01927 
L 292.150796 144.81805 
L 292.099478 141.177726 
L 291.997158 128.008839 
L 291.946153 129.075142 
L 291.844455 142.886935 
L 291.793761 139.738202 
L 291.692678 127.188767 
L 291.642289 127.788333 
L 291.541814 140.082658 
L 291.491728 139.805669 
L 291.342066 128.878993 
L 291.242785 140.394666 
L 291.143896 138.594718 
L 291.045396 133.103896 
L 290.996291 136.286612 
L 290.898369 143.948507 
L 290.84955 142.21738 
L 290.703664 124.087151 
L 290.606876 143.980543 
L 290.558622 141.342755 
L 290.414415 107.200266 
L 290.271032 142.811762 
L 290.128466 111.773325 
L 290.03387 143.184243 
L 289.986706 143.138048 
L 289.892643 125.893545 
L 289.845744 129.43894 
L 289.752207 142.205763 
L 289.70557 139.499983 
L 289.659019 138.263495 
L 289.566176 144.597038 
L 289.519883 144.061567 
L 289.381515 136.284269 
L 289.289692 143.300028 
L 289.152586 131.939312 
L 289.10705 136.141721 
L 289.016226 144.500555 
L 288.970937 140.413989 
L 288.880604 132.264794 
L 288.835559 132.777951 
L 288.700909 144.837229 
L 288.656186 140.38227 
L 288.566978 129.611842 
L 288.522494 132.528697 
L 288.43376 144.994519 
L 288.389511 143.310688 
L 288.301246 130.149981 
L 288.25723 133.495775 
L 288.169429 144.813501 
L 288.125643 143.209576 
L 288.038302 133.128773 
L 287.994745 133.740454 
L 287.907857 144.402481 
L 287.864526 142.714716 
L 287.73498 123.171428 
L 287.648987 144.489166 
L 287.606101 141.467638 
L 287.520548 109.515085 
L 287.477881 112.924795 
L 287.392765 144.601005 
L 287.350314 140.066535 
L 287.265629 110.802137 
L 287.223394 115.434684 
L 287.139135 143.412579 
L 287.097112 142.706078 
L 287.013277 125.310243 
L 286.971464 131.082319 
L 286.846443 141.595638 
L 286.804908 140.29468 
L 286.763441 140.751454 
L 286.722043 142.610629 
L 286.680713 140.971642 
L 286.598257 139.550465 
L 286.516071 143.534612 
L 286.475079 141.792093 
L 286.434154 140.011725 
L 286.393296 140.082847 
L 286.311779 142.237132 
L 286.230526 136.235926 
L 286.189998 137.377828 
L 286.109139 144.259836 
L 286.068806 139.3734 
L 285.988336 130.409381 
L 285.948198 135.138227 
L 285.868114 144.910043 
L 285.828167 138.668045 
L 285.748465 127.479143 
L 285.708709 131.994751 
L 285.629385 142.767175 
L 285.589817 139.989834 
L 285.510868 133.075839 
L 285.471487 134.447849 
L 285.392909 141.399002 
L 285.353713 138.655226 
L 285.314578 135.127526 
L 285.275503 135.796458 
L 285.158645 144.341274 
L 285.08104 137.192664 
L 285.042328 138.533562 
L 284.965083 144.031084 
L 284.926549 141.040845 
L 284.888075 137.151707 
L 284.84966 138.098724 
L 284.773005 143.361797 
L 284.734766 142.158638 
L 284.658461 134.359569 
L 284.620396 137.265859 
L 284.544439 144.575202 
L 284.506546 142.284685 
L 284.430932 134.952012 
L 284.393211 137.234457 
L 284.280386 144.908744 
L 284.24289 142.152536 
L 284.130739 129.551063 
L 284.093466 136.294658 
L 284.056249 143.46285 
L 284.019087 140.327241 
L 283.90793 101.290262 
L 283.870987 119.430764 
L 283.797265 141.336029 
L 283.760485 125.299942 
L 283.687086 102.090529 
L 283.650467 115.84777 
L 283.577389 143.700038 
L 283.54093 130.047852 
L 283.46817 108.461531 
L 283.43187 121.515291 
L 283.359426 144.743544 
L 283.323282 139.953442 
L 283.251151 125.504591 
L 283.215163 130.126433 
L 283.107508 144.864457 
L 283.071726 142.041404 
L 283.035995 138.325438 
L 282.964685 142.164098 
L 282.893577 144.938519 
L 282.858099 143.01474 
L 282.787292 140.589495 
L 282.751964 141.95051 
L 282.681457 144.34044 
L 282.646277 143.181459 
L 282.541034 140.293894 
L 282.506051 141.380334 
L 282.401394 144.406236 
L 282.366605 143.80261 
L 282.262528 142.440029 
L 282.227931 142.85002 
L 282.124427 145.029751 
L 282.09002 144.149438 
L 282.021348 141.015574 
L 281.952864 142.505468 
L 281.884566 135.497814 
L 281.816455 123.182617 
L 281.782468 133.116854 
L 281.748527 140.579592 
L 281.714633 137.967107 
L 281.64698 114.044602 
L 281.57951 128.927457 
L 281.545843 140.647108 
L 281.478645 125.723537 
L 281.445113 112.769347 
L 281.411626 115.140907 
L 281.311432 143.206349 
L 281.278123 134.013247 
L 281.244859 124.816812 
L 281.211638 128.426262 
L 281.145328 145.056336 
L 281.079194 136.505684 
L 281.046192 135.141432 
L 280.947446 144.838879 
L 280.914617 141.061323 
L 280.849088 136.192535 
L 280.816388 137.475614 
L 280.751115 145.054705 
L 280.718542 143.421458 
L 280.653522 127.47651 
L 280.588672 135.195321 
L 280.523988 145.149991 
L 280.491709 139.854312 
L 280.427275 124.064986 
L 280.39512 125.769721 
L 280.330934 143.780234 
L 280.266911 133.019354 
L 280.203052 120.97026 
L 280.171183 130.109741 
L 280.107567 143.282445 
L 280.07582 139.728984 
L 280.012445 130.697797 
L 279.980818 134.715689 
L 279.917683 141.363679 
L 279.886175 139.130729 
L 279.854706 135.588527 
L 279.791887 138.549462 
L 279.760537 138.240982 
L 279.697954 130.843449 
L 279.635526 136.783748 
L 279.604371 138.894527 
L 279.573254 136.98675 
L 279.511136 130.387956 
L 279.480135 133.336231 
L 279.418247 142.78883 
L 279.356512 138.670527 
L 279.325701 138.678953 
L 279.233496 144.764572 
L 279.202836 143.280995 
L 279.172213 142.490681 
L 279.141628 143.818809 
L 279.11108 144.425214 
L 279.08057 143.775426 
L 279.01966 142.521154 
L 278.98926 144.145332 
L 278.958897 144.444227 
L 278.868029 139.248039 
L 278.837813 141.036731 
L 278.77749 144.918798 
L 278.747382 143.246818 
L 278.627313 135.860889 
L 278.597386 136.734354 
L 278.537638 144.645131 
L 278.507817 143.692746 
L 278.418567 116.608944 
L 278.359243 133.354101 
L 278.329634 140.930391 
L 278.27052 129.66756 
L 278.211546 119.447178 
L 278.18211 130.724159 
L 278.123343 141.207837 
L 278.064713 132.916287 
L 278.03545 132.963885 
L 277.947864 143.169853 
L 277.918736 139.844477 
L 277.889643 136.915469 
L 277.860583 139.256028 
L 277.802564 144.899247 
L 277.773605 142.398505 
L 277.744679 140.001865 
L 277.715787 142.226908 
L 277.686927 144.96967 
L 277.658102 144.056065 
L 277.571822 121.908616 
L 277.543128 130.762471 
L 277.485839 140.158799 
L 277.457243 133.338269 
L 277.40015 121.978707 
L 277.371652 127.993111 
L 277.286352 140.056478 
L 277.201341 137.95382 
L 276.976045 144.963174 
L 276.920036 143.74834 
L 276.864152 142.920907 
L 276.836257 143.853363 
L 276.808393 144.762439 
L 276.780559 143.27118 
L 276.724985 139.48012 
L 276.669534 142.830389 
L 276.641855 144.424144 
L 276.586587 141.900545 
L 276.558999 140.296553 
L 276.531441 142.480509 
L 276.503913 143.630817 
L 276.476416 141.575475 
L 276.257517 133.813465 
L 276.203089 142.92931 
L 276.14878 137.041561 
L 276.094588 131.994359 
L 276.067536 134.780395 
L 276.040513 144.018359 
L 275.986554 134.711221 
L 275.932712 123.740713 
L 275.905834 128.154994 
L 275.852164 141.213231 
L 275.798609 126.755154 
L 275.771875 120.411007 
L 275.745168 127.701274 
L 275.691841 143.471424 
L 275.612063 137.581526 
L 275.532538 144.908841 
L 275.453264 143.918662 
L 275.400554 144.993908 
L 275.347955 143.900965 
L 275.321697 144.314877 
L 275.295466 143.982194 
L 275.216938 139.74269 
L 275.164722 143.110367 
L 275.138655 142.965292 
L 275.112615 137.068451 
L 275.034656 142.79679 
L 274.982819 145.063018 
L 274.905263 144.363406 
L 274.879464 145.026787 
L 274.853692 144.726315 
L 274.750867 139.136491 
L 274.725226 141.99982 
L 274.699612 143.845283 
L 274.674024 142.450356 
L 274.622927 134.768505 
L 274.571933 139.877643 
L 274.546475 142.5056 
L 274.521042 141.981718 
L 274.470255 129.630278 
L 274.419571 136.159493 
L 274.368989 143.206743 
L 274.318509 135.469352 
L 274.293307 135.613604 
L 274.217853 143.539756 
L 274.167676 137.917466 
L 274.117599 135.160554 
L 274.092598 139.008312 
L 274.067622 139.639107 
L 273.967967 132.254733 
L 273.819223 142.507315 
L 273.794518 144.986889 
L 273.720548 141.461968 
L 273.671356 145.105722 
L 273.622261 141.870485 
L 273.597749 140.891133 
L 273.548797 143.257988 
L 273.524357 144.930445 
L 273.475549 143.108356 
L 273.426835 144.519518 
L 273.402514 144.946751 
L 273.329691 140.630883 
L 273.281259 143.14096 
L 273.257079 143.704076 
L 273.160589 134.511727 
L 273.112483 138.482693 
L 273.016548 126.388251 
L 272.968717 135.827917 
L 272.778303 145.141385 
L 272.683636 144.202708 
L 272.683636 144.202708 
" style="fill:none;stroke:#1f77b4;stroke-linecap:square;stroke-width:1.5;"/>
   </g>
   <g id="patch_3">
    <path d="M 265.92 150.089143 
L 265.92 41.472 
" style="fill:none;stroke:#000000;stroke-linecap:square;stroke-linejoin:miter;stroke-width:0.8;"/>
   </g>
   <g id="patch_4">
    <path d="M 414.72 150.089143 
L 414.72 41.472 
" style="fill:none;stroke:#000000;stroke-linecap:square;stroke-linejoin:miter;stroke-width:0.8;"/>
   </g>
   <g id="patch_5">
    <path d="M 265.92 150.089143 
L 414.72 150.089143 
" style="fill:none;stroke:#000000;stroke-linecap:square;stroke-linejoin:miter;stroke-width:0.8;"/>
   </g>
   <g id="patch_6">
    <path d="M 265.92 41.472 
L 414.72 41.472 
" style="fill:none;stroke:#000000;stroke-linecap:square;stroke-linejoin:miter;stroke-width:0.8;"/>
   </g>
   <g id="text_8">
    <!-- Periodogram -->
    <g transform="translate(307.698125 35.472)scale(0.1 -0.1)">
     <defs>
      <path d="M 52.484375 46.6875 
L 52.484375 1.125 
Q 52.484375 -10.0625 46.328125 -16.140625 
Q 40.1875 -22.21875 28.8125 -22.21875 
Q 23.6875 -22.21875 19 -21.28125 
Q 14.3125 -20.359375 10.015625 -18.5 
L 10.015625 -7.625 
L 14.703125 -7.625 
Q 15.578125 -12.703125 18.84375 -15.046875 
Q 22.125 -17.390625 28.21875 -17.390625 
Q 36.140625 -17.390625 39.8125 -12.921875 
Q 43.5 -8.453125 43.5 1.125 
L 43.5 8.109375 
Q 40.875 3.21875 36.796875 0.890625 
Q 32.71875 -1.421875 26.703125 -1.421875 
Q 17.140625 -1.421875 11.0625 6.171875 
Q 4.984375 13.765625 4.984375 25.984375 
Q 4.984375 38.1875 11.03125 45.75 
Q 17.09375 53.328125 26.703125 53.328125 
Q 32.71875 53.328125 36.796875 51 
Q 40.875 48.6875 43.5 43.796875 
L 43.5 51.90625 
L 61.078125 51.90625 
L 61.078125 46.6875 
z
M 43.5 28.515625 
Q 43.5 37.84375 39.90625 42.765625 
Q 36.328125 47.703125 29.5 47.703125 
Q 22.5625 47.703125 19.015625 42.234375 
Q 15.484375 36.765625 15.484375 25.984375 
Q 15.484375 15.234375 19.015625 9.71875 
Q 22.5625 4.203125 29.5 4.203125 
Q 36.328125 4.203125 39.90625 9.109375 
Q 43.5 14.015625 43.5 23.390625 
z
" id="DejaVuSerif-103"/>
      <path d="M 39.796875 16.3125 
L 39.796875 27.296875 
L 28.21875 27.296875 
Q 21.53125 27.296875 18.25 24.40625 
Q 14.984375 21.53125 14.984375 15.578125 
Q 14.984375 10.15625 18.296875 6.984375 
Q 21.625 3.8125 27.296875 3.8125 
Q 32.90625 3.8125 36.34375 7.28125 
Q 39.796875 10.75 39.796875 16.3125 
z
M 48.78125 32.421875 
L 48.78125 5.171875 
L 56.78125 5.171875 
L 56.78125 0 
L 39.796875 0 
L 39.796875 5.609375 
Q 36.8125 2 32.90625 0.28125 
Q 29 -1.421875 23.78125 -1.421875 
Q 15.140625 -1.421875 10.0625 3.171875 
Q 4.984375 7.765625 4.984375 15.578125 
Q 4.984375 23.640625 10.796875 28.078125 
Q 16.609375 32.515625 27.203125 32.515625 
L 39.796875 32.515625 
L 39.796875 36.078125 
Q 39.796875 42 36.203125 45.234375 
Q 32.625 48.484375 26.125 48.484375 
Q 20.75 48.484375 17.578125 46.046875 
Q 14.40625 43.609375 13.625 38.8125 
L 8.984375 38.8125 
L 8.984375 49.3125 
Q 13.671875 51.3125 18.09375 52.3125 
Q 22.515625 53.328125 26.703125 53.328125 
Q 37.5 53.328125 43.140625 47.96875 
Q 48.78125 42.625 48.78125 32.421875 
z
" id="DejaVuSerif-97"/>
      <path d="M 51.8125 41.796875 
Q 54.390625 47.515625 58.421875 50.421875 
Q 62.453125 53.328125 67.828125 53.328125 
Q 75.984375 53.328125 79.984375 48.265625 
Q 83.984375 43.21875 83.984375 33.015625 
L 83.984375 5.171875 
L 92.09375 5.171875 
L 92.09375 0 
L 67.1875 0 
L 67.1875 5.171875 
L 75 5.171875 
L 75 31.984375 
Q 75 39.9375 72.65625 43.3125 
Q 70.3125 46.6875 64.890625 46.6875 
Q 58.890625 46.6875 55.734375 42.140625 
Q 52.59375 37.59375 52.59375 28.90625 
L 52.59375 5.171875 
L 60.40625 5.171875 
L 60.40625 0 
L 35.796875 0 
L 35.796875 5.171875 
L 43.609375 5.171875 
L 43.609375 32.328125 
Q 43.609375 40.09375 41.265625 43.390625 
Q 38.921875 46.6875 33.5 46.6875 
Q 27.484375 46.6875 24.328125 42.140625 
Q 21.1875 37.59375 21.1875 28.90625 
L 21.1875 5.171875 
L 29 5.171875 
L 29 0 
L 4.109375 0 
L 4.109375 5.171875 
L 12.203125 5.171875 
L 12.203125 46.78125 
L 3.609375 46.78125 
L 3.609375 51.90625 
L 21.1875 51.90625 
L 21.1875 42.671875 
Q 23.6875 47.859375 27.53125 50.59375 
Q 31.390625 53.328125 36.28125 53.328125 
Q 42.328125 53.328125 46.375 50.3125 
Q 50.4375 47.3125 51.8125 41.796875 
z
" id="DejaVuSerif-109"/>
     </defs>
     <use xlink:href="#DejaVuSerif-80"/>
     <use x="62.785156" xlink:href="#DejaVuSerif-101"/>
     <use x="121.964844" xlink:href="#DejaVuSerif-114"/>
     <use x="169.767578" xlink:href="#DejaVuSerif-105"/>
     <use x="201.75" xlink:href="#DejaVuSerif-111"/>
     <use x="261.955078" xlink:href="#DejaVuSerif-100"/>
     <use x="325.96875" xlink:href="#DejaVuSerif-111"/>
     <use x="386.173828" xlink:href="#DejaVuSerif-103"/>
     <use x="450.1875" xlink:href="#DejaVuSerif-114"/>
     <use x="497.990234" xlink:href="#DejaVuSerif-97"/>
     <use x="557.609375" xlink:href="#DejaVuSerif-109"/>
    </g>
   </g>
   <g id="legend_1">
    <g id="patch_7">
     <path d="M 419.648125 108.123071 
L 454.431875 108.123071 
Q 455.231875 108.123071 455.231875 107.323071 
L 455.231875 84.238071 
Q 455.231875 83.438071 454.431875 83.438071 
L 419.648125 83.438071 
Q 418.848125 83.438071 418.848125 84.238071 
L 418.848125 107.323071 
Q 418.848125 108.123071 419.648125 108.123071 
z
" style="fill:#ffffff;opacity:0.8;stroke:#cccccc;stroke-linejoin:miter;"/>
    </g>
    <g id="line2d_27">
     <path d="M 420.448125 86.677446 
L 428.448125 86.677446 
" style="fill:none;stroke:#808080;stroke-dasharray:5.55,2.4;stroke-dashoffset:0;stroke-width:1.5;"/>
    </g>
    <g id="text_9">
     <!-- 99.9% FAP -->
     <g transform="translate(431.648125 88.077446)scale(0.04 -0.04)">
      <defs>
       <path d="M 46.78125 32.671875 
Q 43.5 29 39.25 27.1875 
Q 35.015625 25.390625 29.6875 25.390625 
Q 18.84375 25.390625 12.5625 31.9375 
Q 6.296875 38.484375 6.296875 49.8125 
Q 6.296875 60.890625 13.109375 67.546875 
Q 19.921875 74.21875 31.296875 74.21875 
Q 43.65625 74.21875 50.265625 65.015625 
Q 56.890625 55.8125 56.890625 38.71875 
Q 56.890625 19.578125 49.015625 9.078125 
Q 41.15625 -1.421875 26.90625 -1.421875 
Q 23.046875 -1.421875 18.796875 -0.6875 
Q 14.546875 0.046875 10.109375 1.515625 
L 10.109375 13.625 
L 15.578125 13.625 
Q 16.21875 8.6875 19.390625 6.046875 
Q 22.5625 3.421875 27.875 3.421875 
Q 37.359375 3.421875 41.984375 10.5625 
Q 46.625 17.71875 46.78125 32.671875 
z
M 30.90625 69.390625 
Q 23.96875 69.390625 20.28125 64.328125 
Q 16.609375 59.28125 16.609375 49.8125 
Q 16.609375 40.328125 20.28125 35.25 
Q 23.96875 30.171875 30.90625 30.171875 
Q 37.84375 30.171875 41.53125 35.078125 
Q 45.21875 39.984375 45.21875 49.21875 
Q 45.21875 58.9375 41.5 64.15625 
Q 37.796875 69.390625 30.90625 69.390625 
z
" id="DejaVuSerif-57"/>
       <path d="M 22.40625 69.671875 
Q 18.109375 69.671875 15.6875 65.625 
Q 13.28125 61.578125 13.28125 54.296875 
Q 13.28125 47.125 15.75 43.015625 
Q 18.21875 38.921875 22.40625 38.921875 
Q 26.5625 38.921875 28.96875 43 
Q 31.390625 47.078125 31.390625 54.296875 
Q 31.390625 61.53125 28.96875 65.59375 
Q 26.5625 69.671875 22.40625 69.671875 
z
M 72.703125 33.890625 
Q 68.453125 33.890625 66.03125 29.78125 
Q 63.625 25.6875 63.625 18.40625 
Q 63.625 11.234375 66.0625 7.15625 
Q 68.5 3.078125 72.703125 3.078125 
Q 76.90625 3.078125 79.296875 7.15625 
Q 81.6875 11.234375 81.6875 18.40625 
Q 81.6875 25.640625 79.265625 29.765625 
Q 76.859375 33.890625 72.703125 33.890625 
z
M 72.703125 38.28125 
Q 80.421875 38.28125 84.953125 32.90625 
Q 89.5 27.546875 89.5 18.40625 
Q 89.5 9.28125 84.9375 3.921875 
Q 80.375 -1.421875 72.703125 -1.421875 
Q 64.890625 -1.421875 60.34375 3.921875 
Q 55.8125 9.28125 55.8125 18.40625 
Q 55.8125 27.59375 60.375 32.9375 
Q 64.9375 38.28125 72.703125 38.28125 
z
M 66.609375 74.21875 
L 74.03125 74.21875 
L 28.421875 -1.421875 
L 21 -1.421875 
z
M 22.3125 74.21875 
Q 30.03125 74.21875 34.609375 68.875 
Q 39.203125 63.53125 39.203125 54.390625 
Q 39.203125 45.171875 34.640625 39.84375 
Q 30.078125 34.515625 22.3125 34.515625 
Q 14.546875 34.515625 10.03125 39.859375 
Q 5.515625 45.21875 5.515625 54.390625 
Q 5.515625 63.484375 10.046875 68.84375 
Q 14.59375 74.21875 22.3125 74.21875 
z
" id="DejaVuSerif-37"/>
       <path d="M 5.515625 0 
L 5.515625 5.171875 
L 14.796875 5.171875 
L 14.796875 67.671875 
L 5.515625 67.671875 
L 5.515625 72.90625 
L 65.1875 72.90625 
L 65.1875 56.6875 
L 59.1875 56.6875 
L 59.1875 66.890625 
L 24.703125 66.890625 
L 24.703125 42.484375 
L 49.609375 42.484375 
L 49.609375 51.609375 
L 55.609375 51.609375 
L 55.609375 27.390625 
L 49.609375 27.390625 
L 49.609375 36.53125 
L 24.703125 36.53125 
L 24.703125 5.171875 
L 36.375 5.171875 
L 36.375 0 
z
" id="DejaVuSerif-70"/>
       <path d="M 20.015625 26.421875 
L 46.78125 26.421875 
L 33.40625 61.078125 
z
M -0.59375 0 
L -0.59375 5.171875 
L 5.8125 5.171875 
L 31.78125 72.90625 
L 39.984375 72.90625 
L 66.015625 5.171875 
L 73.1875 5.171875 
L 73.1875 0 
L 46.6875 0 
L 46.6875 5.171875 
L 54.78125 5.171875 
L 48.6875 21.1875 
L 18.015625 21.1875 
L 11.921875 5.171875 
L 19.921875 5.171875 
L 19.921875 0 
z
" id="DejaVuSerif-65"/>
      </defs>
      <use xlink:href="#DejaVuSerif-57"/>
      <use x="63.623047" xlink:href="#DejaVuSerif-57"/>
      <use x="127.246094" xlink:href="#DejaVuSerif-46"/>
      <use x="159.033203" xlink:href="#DejaVuSerif-57"/>
      <use x="222.65625" xlink:href="#DejaVuSerif-37"/>
      <use x="317.675781" xlink:href="#DejaVuSerif-32"/>
      <use x="349.462891" xlink:href="#DejaVuSerif-70"/>
      <use x="410.097656" xlink:href="#DejaVuSerif-65"/>
      <use x="482.314453" xlink:href="#DejaVuSerif-80"/>
     </g>
    </g>
    <g id="line2d_28">
     <path d="M 420.448125 92.548696 
L 428.448125 92.548696 
" style="fill:none;stroke:#a9a9a9;stroke-dasharray:5.55,2.4;stroke-dashoffset:0;stroke-width:1.5;"/>
    </g>
    <g id="text_10">
     <!-- 99.0% FAP -->
     <g transform="translate(431.648125 93.948696)scale(0.04 -0.04)">
      <use xlink:href="#DejaVuSerif-57"/>
      <use x="63.623047" xlink:href="#DejaVuSerif-57"/>
      <use x="127.246094" xlink:href="#DejaVuSerif-46"/>
      <use x="159.033203" xlink:href="#DejaVuSerif-48"/>
      <use x="222.65625" xlink:href="#DejaVuSerif-37"/>
      <use x="317.675781" xlink:href="#DejaVuSerif-32"/>
      <use x="349.462891" xlink:href="#DejaVuSerif-70"/>
      <use x="410.097656" xlink:href="#DejaVuSerif-65"/>
      <use x="482.314453" xlink:href="#DejaVuSerif-80"/>
     </g>
    </g>
    <g id="line2d_29">
     <path d="M 420.448125 98.419946 
L 428.448125 98.419946 
" style="fill:none;stroke:#c0c0c0;stroke-dasharray:5.55,2.4;stroke-dashoffset:0;stroke-width:1.5;"/>
    </g>
    <g id="text_11">
     <!-- 95.0% FAP -->
     <g transform="translate(431.648125 99.819946)scale(0.04 -0.04)">
      <defs>
       <path d="M 50.296875 72.90625 
L 50.296875 64.890625 
L 16.890625 64.890625 
L 16.890625 44 
Q 19.4375 45.75 22.828125 46.625 
Q 26.21875 47.515625 30.421875 47.515625 
Q 42.234375 47.515625 49.0625 40.96875 
Q 55.90625 34.421875 55.90625 23.09375 
Q 55.90625 11.53125 49 5.046875 
Q 42.09375 -1.421875 29.59375 -1.421875 
Q 24.5625 -1.421875 19.28125 -0.1875 
Q 14.015625 1.03125 8.5 3.515625 
L 8.5 17.671875 
L 14.015625 17.671875 
Q 14.453125 10.75 18.421875 7.078125 
Q 22.40625 3.421875 29.59375 3.421875 
Q 37.3125 3.421875 41.453125 8.5 
Q 45.609375 13.578125 45.609375 23.09375 
Q 45.609375 32.5625 41.484375 37.609375 
Q 37.359375 42.671875 29.59375 42.671875 
Q 25.203125 42.671875 21.84375 41.109375 
Q 18.5 39.546875 15.921875 36.28125 
L 11.71875 36.28125 
L 11.71875 72.90625 
z
" id="DejaVuSerif-53"/>
      </defs>
      <use xlink:href="#DejaVuSerif-57"/>
      <use x="63.623047" xlink:href="#DejaVuSerif-53"/>
      <use x="127.246094" xlink:href="#DejaVuSerif-46"/>
      <use x="159.033203" xlink:href="#DejaVuSerif-48"/>
      <use x="222.65625" xlink:href="#DejaVuSerif-37"/>
      <use x="317.675781" xlink:href="#DejaVuSerif-32"/>
      <use x="349.462891" xlink:href="#DejaVuSerif-70"/>
      <use x="410.097656" xlink:href="#DejaVuSerif-65"/>
      <use x="482.314453" xlink:href="#DejaVuSerif-80"/>
     </g>
    </g>
    <g id="line2d_30">
     <path d="M 420.448125 104.291196 
L 428.448125 104.291196 
" style="fill:none;stroke:#d3d3d3;stroke-dasharray:5.55,2.4;stroke-dashoffset:0;stroke-width:1.5;"/>
    </g>
    <g id="text_12">
     <!-- 90.0% FAP -->
     <g transform="translate(431.648125 105.691196)scale(0.04 -0.04)">
      <use xlink:href="#DejaVuSerif-57"/>
      <use x="63.623047" xlink:href="#DejaVuSerif-48"/>
      <use x="127.246094" xlink:href="#DejaVuSerif-46"/>
      <use x="159.033203" xlink:href="#DejaVuSerif-48"/>
      <use x="222.65625" xlink:href="#DejaVuSerif-37"/>
      <use x="317.675781" xlink:href="#DejaVuSerif-32"/>
      <use x="349.462891" xlink:href="#DejaVuSerif-70"/>
      <use x="410.097656" xlink:href="#DejaVuSerif-65"/>
      <use x="482.314453" xlink:href="#DejaVuSerif-80"/>
     </g>
    </g>
   </g>
  </g>
  <g id="axes_2">
   <g id="patch_8">
    <path d="M 57.6 150.089143 
L 206.4 150.089143 
L 206.4 41.472 
L 57.6 41.472 
z
" style="fill:#ffffff;"/>
   </g>
   <g id="PathCollection_1">
    <defs>
     <path d="M 0 0.707107 
C 0.187527 0.707107 0.367398 0.632602 0.5 0.5 
C 0.632602 0.367398 0.707107 0.187527 0.707107 0 
C 0.707107 -0.187527 0.632602 -0.367398 0.5 -0.5 
C 0.367398 -0.632602 0.187527 -0.707107 0 -0.707107 
C -0.187527 -0.707107 -0.367398 -0.632602 -0.5 -0.5 
C -0.632602 -0.367398 -0.707107 -0.187527 -0.707107 0 
C -0.707107 0.187527 -0.632602 0.367398 -0.5 0.5 
C -0.367398 0.632602 -0.187527 0.707107 0 0.707107 
z
" id="m4f06756f54" style="stroke:#1f77b4;"/>
    </defs>
    <g clip-path="url(#p705655bdb0)">
     <use style="fill:#1f77b4;stroke:#1f77b4;" x="96.451884" xlink:href="#m4f06756f54" y="92.567273"/>
     <use style="fill:#1f77b4;stroke:#1f77b4;" x="96.453415" xlink:href="#m4f06756f54" y="132.594588"/>
     <use style="fill:#1f77b4;stroke:#1f77b4;" x="109.730345" xlink:href="#m4f06756f54" y="92.826285"/>
     <use style="fill:#1f77b4;stroke:#1f77b4;" x="109.731876" xlink:href="#m4f06756f54" y="104.162764"/>
     <use style="fill:#1f77b4;stroke:#1f77b4;" x="116.63477" xlink:href="#m4f06756f54" y="46.409143"/>
     <use style="fill:#1f77b4;stroke:#1f77b4;" x="126.451565" xlink:href="#m4f06756f54" y="78.400942"/>
     <use style="fill:#1f77b4;stroke:#1f77b4;" x="126.462207" xlink:href="#m4f06756f54" y="145.152"/>
     <use style="fill:#1f77b4;stroke:#1f77b4;" x="74.011651" xlink:href="#m4f06756f54" y="91.016443"/>
     <use style="fill:#1f77b4;stroke:#1f77b4;" x="77.315677" xlink:href="#m4f06756f54" y="115.667671"/>
     <use style="fill:#1f77b4;stroke:#1f77b4;" x="77.31717" xlink:href="#m4f06756f54" y="119.019794"/>
     <use style="fill:#1f77b4;stroke:#1f77b4;" x="83.99987" xlink:href="#m4f06756f54" y="104.237366"/>
     <use style="fill:#1f77b4;stroke:#1f77b4;" x="84.001401" xlink:href="#m4f06756f54" y="136.264874"/>
     <use style="fill:#1f77b4;stroke:#1f77b4;" x="90.509998" xlink:href="#m4f06756f54" y="120.518374"/>
     <use style="fill:#1f77b4;stroke:#1f77b4;" x="90.511529" xlink:href="#m4f06756f54" y="118.467682"/>
     <use style="fill:#1f77b4;stroke:#1f77b4;" x="93.785044" xlink:href="#m4f06756f54" y="135.476662"/>
     <use style="fill:#1f77b4;stroke:#1f77b4;" x="93.786575" xlink:href="#m4f06756f54" y="130.761304"/>
     <use style="fill:#1f77b4;stroke:#1f77b4;" x="97.269222" xlink:href="#m4f06756f54" y="121.364676"/>
     <use style="fill:#1f77b4;stroke:#1f77b4;" x="97.270715" xlink:href="#m4f06756f54" y="83.13122"/>
     <use style="fill:#1f77b4;stroke:#1f77b4;" x="100.434133" xlink:href="#m4f06756f54" y="127.667103"/>
     <use style="fill:#1f77b4;stroke:#1f77b4;" x="100.435665" xlink:href="#m4f06756f54" y="87.008827"/>
     <use style="fill:#1f77b4;stroke:#1f77b4;" x="103.738503" xlink:href="#m4f06756f54" y="114.815502"/>
     <use style="fill:#1f77b4;stroke:#1f77b4;" x="103.739996" xlink:href="#m4f06756f54" y="115.546156"/>
     <use style="fill:#1f77b4;stroke:#1f77b4;" x="64.363636" xlink:href="#m4f06756f54" y="122.472112"/>
     <use style="fill:#1f77b4;stroke:#1f77b4;" x="87.327053" xlink:href="#m4f06756f54" y="111.283776"/>
     <use style="fill:#1f77b4;stroke:#1f77b4;" x="90.619518" xlink:href="#m4f06756f54" y="136.76102"/>
     <use style="fill:#1f77b4;stroke:#1f77b4;" x="93.927793" xlink:href="#m4f06756f54" y="118.203333"/>
     <use style="fill:#1f77b4;stroke:#1f77b4;" x="97.229215" xlink:href="#m4f06756f54" y="134.140082"/>
     <use style="fill:#1f77b4;stroke:#1f77b4;" x="100.550659" xlink:href="#m4f06756f54" y="128.819301"/>
     <use style="fill:#1f77b4;stroke:#1f77b4;" x="71.123777" xlink:href="#m4f06756f54" y="61.195286"/>
     <use style="fill:#1f77b4;stroke:#1f77b4;" x="100.226681" xlink:href="#m4f06756f54" y="82.346221"/>
     <use style="fill:#1f77b4;stroke:#1f77b4;" x="104.016766" xlink:href="#m4f06756f54" y="91.784928"/>
     <use style="fill:#1f77b4;stroke:#1f77b4;" x="107.385295" xlink:href="#m4f06756f54" y="85.894992"/>
     <use style="fill:#1f77b4;stroke:#1f77b4;" x="130.469719" xlink:href="#m4f06756f54" y="76.910324"/>
     <use style="fill:#1f77b4;stroke:#1f77b4;" x="71.28892" xlink:href="#m4f06756f54" y="101.262557"/>
     <use style="fill:#1f77b4;stroke:#1f77b4;" x="64.578653" xlink:href="#m4f06756f54" y="104.18942"/>
     <use style="fill:#1f77b4;stroke:#1f77b4;" x="77.808613" xlink:href="#m4f06756f54" y="112.922005"/>
     <use style="fill:#1f77b4;stroke:#1f77b4;" x="110.859091" xlink:href="#m4f06756f54" y="101.346771"/>
     <use style="fill:#1f77b4;stroke:#1f77b4;" x="123.860265" xlink:href="#m4f06756f54" y="74.947562"/>
     <use style="fill:#1f77b4;stroke:#1f77b4;" x="114.829879" xlink:href="#m4f06756f54" y="67.448147"/>
     <use style="fill:#1f77b4;stroke:#1f77b4;" x="114.952301" xlink:href="#m4f06756f54" y="117.6427"/>
     <use style="fill:#1f77b4;stroke:#1f77b4;" x="114.953794" xlink:href="#m4f06756f54" y="104.418563"/>
     <use style="fill:#1f77b4;stroke:#1f77b4;" x="118.175361" xlink:href="#m4f06756f54" y="66.913107"/>
     <use style="fill:#1f77b4;stroke:#1f77b4;" x="118.176854" xlink:href="#m4f06756f54" y="83.74835"/>
     <use style="fill:#1f77b4;stroke:#1f77b4;" x="121.340234" xlink:href="#m4f06756f54" y="62.886268"/>
     <use style="fill:#1f77b4;stroke:#1f77b4;" x="121.341727" xlink:href="#m4f06756f54" y="57.477054"/>
    </g>
   </g>
   <g id="PathCollection_2">
    <g clip-path="url(#p705655bdb0)">
     <use style="fill:#1f77b4;stroke:#1f77b4;" x="165.618528" xlink:href="#m4f06756f54" y="92.567273"/>
     <use style="fill:#1f77b4;stroke:#1f77b4;" x="165.62006" xlink:href="#m4f06756f54" y="132.594588"/>
     <use style="fill:#1f77b4;stroke:#1f77b4;" x="178.896989" xlink:href="#m4f06756f54" y="92.826285"/>
     <use style="fill:#1f77b4;stroke:#1f77b4;" x="178.89852" xlink:href="#m4f06756f54" y="104.162764"/>
     <use style="fill:#1f77b4;stroke:#1f77b4;" x="185.801414" xlink:href="#m4f06756f54" y="46.409143"/>
     <use style="fill:#1f77b4;stroke:#1f77b4;" x="195.618209" xlink:href="#m4f06756f54" y="78.400942"/>
     <use style="fill:#1f77b4;stroke:#1f77b4;" x="195.628851" xlink:href="#m4f06756f54" y="145.152"/>
     <use style="fill:#1f77b4;stroke:#1f77b4;" x="143.178295" xlink:href="#m4f06756f54" y="91.016443"/>
     <use style="fill:#1f77b4;stroke:#1f77b4;" x="146.482321" xlink:href="#m4f06756f54" y="115.667671"/>
     <use style="fill:#1f77b4;stroke:#1f77b4;" x="146.483814" xlink:href="#m4f06756f54" y="119.019794"/>
     <use style="fill:#1f77b4;stroke:#1f77b4;" x="153.166514" xlink:href="#m4f06756f54" y="104.237366"/>
     <use style="fill:#1f77b4;stroke:#1f77b4;" x="153.168045" xlink:href="#m4f06756f54" y="136.264874"/>
     <use style="fill:#1f77b4;stroke:#1f77b4;" x="159.676642" xlink:href="#m4f06756f54" y="120.518374"/>
     <use style="fill:#1f77b4;stroke:#1f77b4;" x="159.678173" xlink:href="#m4f06756f54" y="118.467682"/>
     <use style="fill:#1f77b4;stroke:#1f77b4;" x="162.951689" xlink:href="#m4f06756f54" y="135.476662"/>
     <use style="fill:#1f77b4;stroke:#1f77b4;" x="162.95322" xlink:href="#m4f06756f54" y="130.761304"/>
     <use style="fill:#1f77b4;stroke:#1f77b4;" x="166.435866" xlink:href="#m4f06756f54" y="121.364676"/>
     <use style="fill:#1f77b4;stroke:#1f77b4;" x="166.437359" xlink:href="#m4f06756f54" y="83.13122"/>
     <use style="fill:#1f77b4;stroke:#1f77b4;" x="169.600777" xlink:href="#m4f06756f54" y="127.667103"/>
     <use style="fill:#1f77b4;stroke:#1f77b4;" x="169.602309" xlink:href="#m4f06756f54" y="87.008827"/>
     <use style="fill:#1f77b4;stroke:#1f77b4;" x="172.905148" xlink:href="#m4f06756f54" y="114.815502"/>
     <use style="fill:#1f77b4;stroke:#1f77b4;" x="172.906641" xlink:href="#m4f06756f54" y="115.546156"/>
     <use style="fill:#1f77b4;stroke:#1f77b4;" x="133.530281" xlink:href="#m4f06756f54" y="122.472112"/>
     <use style="fill:#1f77b4;stroke:#1f77b4;" x="156.493697" xlink:href="#m4f06756f54" y="111.283776"/>
     <use style="fill:#1f77b4;stroke:#1f77b4;" x="159.786162" xlink:href="#m4f06756f54" y="136.76102"/>
     <use style="fill:#1f77b4;stroke:#1f77b4;" x="163.094437" xlink:href="#m4f06756f54" y="118.203333"/>
     <use style="fill:#1f77b4;stroke:#1f77b4;" x="166.39586" xlink:href="#m4f06756f54" y="134.140082"/>
     <use style="fill:#1f77b4;stroke:#1f77b4;" x="169.717303" xlink:href="#m4f06756f54" y="128.819301"/>
     <use style="fill:#1f77b4;stroke:#1f77b4;" x="140.290422" xlink:href="#m4f06756f54" y="61.195286"/>
     <use style="fill:#1f77b4;stroke:#1f77b4;" x="169.393326" xlink:href="#m4f06756f54" y="82.346221"/>
     <use style="fill:#1f77b4;stroke:#1f77b4;" x="173.18341" xlink:href="#m4f06756f54" y="91.784928"/>
     <use style="fill:#1f77b4;stroke:#1f77b4;" x="176.55194" xlink:href="#m4f06756f54" y="85.894992"/>
     <use style="fill:#1f77b4;stroke:#1f77b4;" x="199.636364" xlink:href="#m4f06756f54" y="76.910324"/>
     <use style="fill:#1f77b4;stroke:#1f77b4;" x="140.455565" xlink:href="#m4f06756f54" y="101.262557"/>
     <use style="fill:#1f77b4;stroke:#1f77b4;" x="133.745297" xlink:href="#m4f06756f54" y="104.18942"/>
     <use style="fill:#1f77b4;stroke:#1f77b4;" x="146.975258" xlink:href="#m4f06756f54" y="112.922005"/>
     <use style="fill:#1f77b4;stroke:#1f77b4;" x="180.025736" xlink:href="#m4f06756f54" y="101.346771"/>
     <use style="fill:#1f77b4;stroke:#1f77b4;" x="193.026909" xlink:href="#m4f06756f54" y="74.947562"/>
     <use style="fill:#1f77b4;stroke:#1f77b4;" x="183.996524" xlink:href="#m4f06756f54" y="67.448147"/>
     <use style="fill:#1f77b4;stroke:#1f77b4;" x="184.118945" xlink:href="#m4f06756f54" y="117.6427"/>
     <use style="fill:#1f77b4;stroke:#1f77b4;" x="184.120438" xlink:href="#m4f06756f54" y="104.418563"/>
     <use style="fill:#1f77b4;stroke:#1f77b4;" x="187.342005" xlink:href="#m4f06756f54" y="66.913107"/>
     <use style="fill:#1f77b4;stroke:#1f77b4;" x="187.343498" xlink:href="#m4f06756f54" y="83.74835"/>
     <use style="fill:#1f77b4;stroke:#1f77b4;" x="190.506878" xlink:href="#m4f06756f54" y="62.886268"/>
     <use style="fill:#1f77b4;stroke:#1f77b4;" x="190.508371" xlink:href="#m4f06756f54" y="57.477054"/>
    </g>
   </g>
   <g id="matplotlib.axis_3">
    <g id="xtick_23">
     <g id="line2d_31">
      <g>
       <use style="stroke:#000000;stroke-width:0.8;" x="61.447879" xlink:href="#m1d638bd471" y="150.089143"/>
      </g>
     </g>
     <g id="text_13">
      <!-- 0 -->
      <g transform="translate(58.266629 164.68758)scale(0.1 -0.1)">
       <use xlink:href="#DejaVuSerif-48"/>
      </g>
     </g>
    </g>
    <g id="xtick_24">
     <g id="line2d_32">
      <g>
       <use style="stroke:#000000;stroke-width:0.8;" x="130.614523" xlink:href="#m1d638bd471" y="150.089143"/>
      </g>
     </g>
     <g id="text_14">
      <!-- 1 -->
      <g transform="translate(127.433273 164.68758)scale(0.1 -0.1)">
       <use xlink:href="#DejaVuSerif-49"/>
      </g>
     </g>
    </g>
    <g id="xtick_25">
     <g id="line2d_33">
      <g>
       <use style="stroke:#000000;stroke-width:0.8;" x="199.781168" xlink:href="#m1d638bd471" y="150.089143"/>
      </g>
     </g>
     <g id="text_15">
      <!-- 2 -->
      <g transform="translate(196.599918 164.68758)scale(0.1 -0.1)">
       <use xlink:href="#DejaVuSerif-50"/>
      </g>
     </g>
    </g>
    <g id="text_16">
     <!-- Phase (P = 20.912 d) -->
     <g transform="translate(78.401562 178.365705)scale(0.1 -0.1)">
      <defs>
       <path d="M 4.109375 0 
L 4.109375 5.171875 
L 12.203125 5.171875 
L 12.203125 70.796875 
L 3.609375 70.796875 
L 3.609375 75.984375 
L 21.1875 75.984375 
L 21.1875 42.671875 
Q 23.6875 47.953125 27.65625 50.640625 
Q 31.640625 53.328125 36.921875 53.328125 
Q 45.515625 53.328125 49.5625 48.390625 
Q 53.609375 43.453125 53.609375 33.015625 
L 53.609375 5.171875 
L 61.625 5.171875 
L 61.625 0 
L 36.8125 0 
L 36.8125 5.171875 
L 44.578125 5.171875 
L 44.578125 30.171875 
Q 44.578125 39.703125 42.25 43.1875 
Q 39.9375 46.6875 33.984375 46.6875 
Q 27.734375 46.6875 24.453125 42.140625 
Q 21.1875 37.59375 21.1875 28.90625 
L 21.1875 5.171875 
L 29 5.171875 
L 29 0 
z
" id="DejaVuSerif-104"/>
       <path d="M 5.609375 2.875 
L 5.609375 14.984375 
L 10.796875 14.984375 
Q 10.984375 9.1875 14.421875 6.296875 
Q 17.875 3.421875 24.609375 3.421875 
Q 30.671875 3.421875 33.84375 5.6875 
Q 37.015625 7.953125 37.015625 12.3125 
Q 37.015625 15.71875 34.6875 17.8125 
Q 32.375 19.921875 24.90625 22.3125 
L 18.40625 24.515625 
Q 11.71875 26.65625 8.71875 29.875 
Q 5.71875 33.109375 5.71875 38.09375 
Q 5.71875 45.21875 10.9375 49.265625 
Q 16.15625 53.328125 25.390625 53.328125 
Q 29.5 53.328125 34.03125 52.25 
Q 38.578125 51.171875 43.40625 49.125 
L 43.40625 37.796875 
L 38.234375 37.796875 
Q 38.03125 42.828125 34.703125 45.65625 
Q 31.390625 48.484375 25.6875 48.484375 
Q 20.015625 48.484375 17.109375 46.484375 
Q 14.203125 44.484375 14.203125 40.484375 
Q 14.203125 37.203125 16.40625 35.21875 
Q 18.609375 33.25 25.203125 31.203125 
L 32.328125 29 
Q 39.703125 26.703125 42.9375 23.265625 
Q 46.1875 19.828125 46.1875 14.40625 
Q 46.1875 7.03125 40.546875 2.796875 
Q 34.90625 -1.421875 25 -1.421875 
Q 19.96875 -1.421875 15.1875 -0.34375 
Q 10.40625 0.734375 5.609375 2.875 
z
" id="DejaVuSerif-115"/>
       <path d="M 31.890625 -15.578125 
Q 20.015625 -10.25 13.953125 1.296875 
Q 7.90625 12.84375 7.90625 30.171875 
Q 7.90625 47.5625 13.953125 59.109375 
Q 20.015625 70.65625 31.890625 75.984375 
L 31.890625 71.1875 
Q 24.359375 66.015625 21.09375 56.609375 
Q 17.828125 47.21875 17.828125 30.171875 
Q 17.828125 13.1875 21.09375 3.78125 
Q 24.359375 -5.609375 31.890625 -10.796875 
z
" id="DejaVuSerif-40"/>
       <path d="M 10.59375 45.21875 
L 73.1875 45.21875 
L 73.1875 37.40625 
L 10.59375 37.40625 
z
M 10.59375 25.296875 
L 73.1875 25.296875 
L 73.1875 17.484375 
L 10.59375 17.484375 
z
" id="DejaVuSerif-61"/>
       <path d="M 7.078125 -15.578125 
L 7.078125 -10.796875 
Q 14.59375 -5.609375 17.890625 3.78125 
Q 21.1875 13.1875 21.1875 30.171875 
Q 21.1875 47.21875 17.890625 56.609375 
Q 14.59375 66.015625 7.078125 71.1875 
L 7.078125 75.984375 
Q 19 70.65625 25.046875 59.109375 
Q 31.109375 47.5625 31.109375 30.171875 
Q 31.109375 12.84375 25.046875 1.296875 
Q 19 -10.25 7.078125 -15.578125 
z
" id="DejaVuSerif-41"/>
      </defs>
      <use xlink:href="#DejaVuSerif-80"/>
      <use x="67.285156" xlink:href="#DejaVuSerif-104"/>
      <use x="131.689453" xlink:href="#DejaVuSerif-97"/>
      <use x="191.308594" xlink:href="#DejaVuSerif-115"/>
      <use x="242.626953" xlink:href="#DejaVuSerif-101"/>
      <use x="301.806641" xlink:href="#DejaVuSerif-32"/>
      <use x="333.59375" xlink:href="#DejaVuSerif-40"/>
      <use x="372.607422" xlink:href="#DejaVuSerif-80"/>
      <use x="439.892578" xlink:href="#DejaVuSerif-32"/>
      <use x="471.679688" xlink:href="#DejaVuSerif-61"/>
      <use x="555.46875" xlink:href="#DejaVuSerif-32"/>
      <use x="587.255859" xlink:href="#DejaVuSerif-50"/>
      <use x="650.878906" xlink:href="#DejaVuSerif-48"/>
      <use x="714.501953" xlink:href="#DejaVuSerif-46"/>
      <use x="746.289062" xlink:href="#DejaVuSerif-57"/>
      <use x="809.912109" xlink:href="#DejaVuSerif-49"/>
      <use x="873.535156" xlink:href="#DejaVuSerif-50"/>
      <use x="937.158203" xlink:href="#DejaVuSerif-32"/>
      <use x="968.945312" xlink:href="#DejaVuSerif-100"/>
      <use x="1032.958984" xlink:href="#DejaVuSerif-41"/>
     </g>
    </g>
   </g>
   <g id="matplotlib.axis_4">
    <g id="ytick_4">
     <g id="line2d_34">
      <g>
       <use style="stroke:#000000;stroke-width:0.8;" x="57.6" xlink:href="#m65d930d860" y="66.291702"/>
      </g>
     </g>
     <g id="text_17">
      <!-- 16.5 -->
      <g transform="translate(28.334375 70.090921)scale(0.1 -0.1)">
       <defs>
        <path d="M 32.71875 3.421875 
Q 39.59375 3.421875 43.296875 8.46875 
Q 47.015625 13.53125 47.015625 23 
Q 47.015625 32.46875 43.296875 37.515625 
Q 39.59375 42.578125 32.71875 42.578125 
Q 25.734375 42.578125 22.0625 37.6875 
Q 18.40625 32.8125 18.40625 23.578125 
Q 18.40625 13.875 22.109375 8.640625 
Q 25.828125 3.421875 32.71875 3.421875 
z
M 16.796875 40.140625 
Q 20.125 43.796875 24.3125 45.59375 
Q 28.515625 47.40625 33.796875 47.40625 
Q 44.671875 47.40625 51 40.859375 
Q 57.328125 34.328125 57.328125 23 
Q 57.328125 11.921875 50.515625 5.25 
Q 43.703125 -1.421875 32.328125 -1.421875 
Q 19.96875 -1.421875 13.328125 7.78125 
Q 6.6875 17 6.6875 34.078125 
Q 6.6875 53.21875 14.546875 63.71875 
Q 22.40625 74.21875 36.71875 74.21875 
Q 40.578125 74.21875 44.828125 73.484375 
Q 49.078125 72.75 53.515625 71.296875 
L 53.515625 59.28125 
L 48 59.28125 
Q 47.40625 64.203125 44.234375 66.796875 
Q 41.0625 69.390625 35.6875 69.390625 
Q 26.21875 69.390625 21.578125 62.203125 
Q 16.9375 55.03125 16.796875 40.140625 
z
" id="DejaVuSerif-54"/>
       </defs>
       <use xlink:href="#DejaVuSerif-49"/>
       <use x="63.623047" xlink:href="#DejaVuSerif-54"/>
       <use x="127.246094" xlink:href="#DejaVuSerif-46"/>
       <use x="159.033203" xlink:href="#DejaVuSerif-53"/>
      </g>
     </g>
    </g>
    <g id="ytick_5">
     <g id="line2d_35">
      <g>
       <use style="stroke:#000000;stroke-width:0.8;" x="57.6" xlink:href="#m65d930d860" y="94.232577"/>
      </g>
     </g>
     <g id="text_18">
      <!-- 16.6 -->
      <g transform="translate(28.334375 98.031796)scale(0.1 -0.1)">
       <use xlink:href="#DejaVuSerif-49"/>
       <use x="63.623047" xlink:href="#DejaVuSerif-54"/>
       <use x="127.246094" xlink:href="#DejaVuSerif-46"/>
       <use x="159.033203" xlink:href="#DejaVuSerif-54"/>
      </g>
     </g>
    </g>
    <g id="ytick_6">
     <g id="line2d_36">
      <g>
       <use style="stroke:#000000;stroke-width:0.8;" x="57.6" xlink:href="#m65d930d860" y="122.173452"/>
      </g>
     </g>
     <g id="text_19">
      <!-- 16.7 -->
      <g transform="translate(28.334375 125.972671)scale(0.1 -0.1)">
       <defs>
        <path d="M 56.390625 67.921875 
L 27.875 0 
L 20.609375 0 
L 47.796875 64.890625 
L 14.109375 64.890625 
L 14.109375 55.90625 
L 8.40625 55.90625 
L 8.40625 72.90625 
L 56.390625 72.90625 
z
" id="DejaVuSerif-55"/>
       </defs>
       <use xlink:href="#DejaVuSerif-49"/>
       <use x="63.623047" xlink:href="#DejaVuSerif-54"/>
       <use x="127.246094" xlink:href="#DejaVuSerif-46"/>
       <use x="159.033203" xlink:href="#DejaVuSerif-55"/>
      </g>
     </g>
    </g>
    <g id="text_20">
     <!-- Mag -->
     <g transform="translate(22.1125 107.082134)rotate(-90)scale(0.1 -0.1)">
      <defs>
       <path d="M 5.515625 0 
L 5.515625 5.171875 
L 14.796875 5.171875 
L 14.796875 67.671875 
L 4.984375 67.671875 
L 4.984375 72.90625 
L 26.21875 72.90625 
L 51.8125 21 
L 77.390625 72.90625 
L 97.3125 72.90625 
L 97.3125 67.671875 
L 87.59375 67.671875 
L 87.59375 5.171875 
L 96.921875 5.171875 
L 96.921875 0 
L 68.40625 0 
L 68.40625 5.171875 
L 77.6875 5.171875 
L 77.6875 61.53125 
L 52.6875 10.6875 
L 45.796875 10.6875 
L 20.796875 61.53125 
L 20.796875 5.171875 
L 30.078125 5.171875 
L 30.078125 0 
z
" id="DejaVuSerif-77"/>
      </defs>
      <use xlink:href="#DejaVuSerif-77"/>
      <use x="102.392578" xlink:href="#DejaVuSerif-97"/>
      <use x="162.011719" xlink:href="#DejaVuSerif-103"/>
     </g>
    </g>
   </g>
   <g id="patch_9">
    <path d="M 57.6 150.089143 
L 57.6 41.472 
" style="fill:none;stroke:#000000;stroke-linecap:square;stroke-linejoin:miter;stroke-width:0.8;"/>
   </g>
   <g id="patch_10">
    <path d="M 206.4 150.089143 
L 206.4 41.472 
" style="fill:none;stroke:#000000;stroke-linecap:square;stroke-linejoin:miter;stroke-width:0.8;"/>
   </g>
   <g id="patch_11">
    <path d="M 57.6 150.089143 
L 206.4 150.089143 
" style="fill:none;stroke:#000000;stroke-linecap:square;stroke-linejoin:miter;stroke-width:0.8;"/>
   </g>
   <g id="patch_12">
    <path d="M 57.6 41.472 
L 206.4 41.472 
" style="fill:none;stroke:#000000;stroke-linecap:square;stroke-linejoin:miter;stroke-width:0.8;"/>
   </g>
   <g id="text_21">
    <!-- Folded Light Curve -->
    <g transform="translate(83.086719 35.472)scale(0.1 -0.1)">
     <defs>
      <path d="M 20.515625 5.171875 
L 29 5.171875 
L 29 0 
L 2.875 0 
L 2.875 5.171875 
L 11.53125 5.171875 
L 11.53125 70.796875 
L 2.875 70.796875 
L 2.875 75.984375 
L 20.515625 75.984375 
z
" id="DejaVuSerif-108"/>
      <path d="M 5.515625 0 
L 5.515625 5.171875 
L 14.796875 5.171875 
L 14.796875 67.671875 
L 5.515625 67.671875 
L 5.515625 72.90625 
L 33.984375 72.90625 
L 33.984375 67.671875 
L 24.703125 67.671875 
L 24.703125 6 
L 58.015625 6 
L 58.015625 18.21875 
L 64.015625 18.21875 
L 64.015625 0 
z
" id="DejaVuSerif-76"/>
      <path d="M 10.796875 46.6875 
L 2.875 46.6875 
L 2.875 51.90625 
L 10.796875 51.90625 
L 10.796875 68.015625 
L 19.828125 68.015625 
L 19.828125 51.90625 
L 36.71875 51.90625 
L 36.71875 46.6875 
L 19.828125 46.6875 
L 19.828125 13.71875 
Q 19.828125 7.125 21.09375 5.265625 
Q 22.359375 3.421875 25.78125 3.421875 
Q 29.296875 3.421875 30.90625 5.484375 
Q 32.515625 7.5625 32.625 12.203125 
L 39.40625 12.203125 
Q 39.015625 5.125 35.546875 1.84375 
Q 32.078125 -1.421875 25 -1.421875 
Q 17.234375 -1.421875 14.015625 2.015625 
Q 10.796875 5.46875 10.796875 13.71875 
z
" id="DejaVuSerif-116"/>
      <path d="M 70.515625 19.28125 
Q 67.28125 9.078125 59.6875 3.828125 
Q 52.09375 -1.421875 40.484375 -1.421875 
Q 33.34375 -1.421875 27.234375 1.015625 
Q 21.140625 3.46875 16.40625 8.203125 
Q 10.9375 13.671875 8.265625 20.625 
Q 5.609375 27.59375 5.609375 36.375 
Q 5.609375 53.375 15.421875 63.796875 
Q 25.25 74.21875 41.3125 74.21875 
Q 47.265625 74.21875 54 72.65625 
Q 60.75 71.09375 68.5 67.921875 
L 68.5 51.125 
L 62.984375 51.125 
Q 61.1875 60.296875 55.734375 64.640625 
Q 50.296875 69 40.484375 69 
Q 28.8125 69 22.796875 60.71875 
Q 16.796875 52.4375 16.796875 36.375 
Q 16.796875 20.359375 22.796875 12.078125 
Q 28.8125 3.8125 40.484375 3.8125 
Q 48.640625 3.8125 53.90625 7.6875 
Q 59.1875 11.578125 61.53125 19.28125 
z
" id="DejaVuSerif-67"/>
      <path d="M 35.40625 51.90625 
L 52.203125 51.90625 
L 52.203125 5.171875 
L 60.6875 5.171875 
L 60.6875 0 
L 43.21875 0 
L 43.21875 9.1875 
Q 40.71875 4 36.765625 1.28125 
Q 32.8125 -1.421875 27.59375 -1.421875 
Q 18.953125 -1.421875 14.875 3.484375 
Q 10.796875 8.40625 10.796875 18.890625 
L 10.796875 46.6875 
L 2.6875 46.6875 
L 2.6875 51.90625 
L 19.828125 51.90625 
L 19.828125 21.6875 
Q 19.828125 12.203125 22.140625 8.6875 
Q 24.46875 5.171875 30.421875 5.171875 
Q 36.671875 5.171875 39.9375 9.765625 
Q 43.21875 14.359375 43.21875 23.09375 
L 43.21875 46.6875 
L 35.40625 46.6875 
z
" id="DejaVuSerif-117"/>
      <path d="M 24.703125 0 
L 5.609375 46.6875 
L -0.296875 46.6875 
L -0.296875 51.90625 
L 23.578125 51.90625 
L 23.578125 46.6875 
L 15.28125 46.6875 
L 29.890625 10.984375 
L 44.484375 46.6875 
L 36.71875 46.6875 
L 36.71875 51.90625 
L 56.203125 51.90625 
L 56.203125 46.6875 
L 50.390625 46.6875 
L 31.296875 0 
z
" id="DejaVuSerif-118"/>
     </defs>
     <use xlink:href="#DejaVuSerif-70"/>
     <use x="63.884766" xlink:href="#DejaVuSerif-111"/>
     <use x="124.089844" xlink:href="#DejaVuSerif-108"/>
     <use x="156.072266" xlink:href="#DejaVuSerif-100"/>
     <use x="220.085938" xlink:href="#DejaVuSerif-101"/>
     <use x="279.265625" xlink:href="#DejaVuSerif-100"/>
     <use x="343.279297" xlink:href="#DejaVuSerif-32"/>
     <use x="375.066406" xlink:href="#DejaVuSerif-76"/>
     <use x="441.472656" xlink:href="#DejaVuSerif-105"/>
     <use x="473.455078" xlink:href="#DejaVuSerif-103"/>
     <use x="537.46875" xlink:href="#DejaVuSerif-104"/>
     <use x="601.873047" xlink:href="#DejaVuSerif-116"/>
     <use x="642.058594" xlink:href="#DejaVuSerif-32"/>
     <use x="673.845703" xlink:href="#DejaVuSerif-67"/>
     <use x="750.359375" xlink:href="#DejaVuSerif-117"/>
     <use x="814.763672" xlink:href="#DejaVuSerif-114"/>
     <use x="862.566406" xlink:href="#DejaVuSerif-118"/>
     <use x="919.060547" xlink:href="#DejaVuSerif-101"/>
    </g>
   </g>
  </g>
  <g id="axes_3">
   <g id="patch_13">
    <path d="M 57.6 307.584 
L 414.72 307.584 
L 414.72 198.966857 
L 57.6 198.966857 
z
" style="fill:#ffffff;"/>
   </g>
   <g id="PathCollection_3">
    <g clip-path="url(#p675ba89033)">
     <use style="fill:#1f77b4;stroke:#1f77b4;" x="73.832727" xlink:href="#m4f06756f54" y="250.23137"/>
     <use style="fill:#1f77b4;stroke:#1f77b4;" x="73.833119" xlink:href="#m4f06756f54" y="286.366914"/>
     <use style="fill:#1f77b4;stroke:#1f77b4;" x="94.910293" xlink:href="#m4f06756f54" y="250.465199"/>
     <use style="fill:#1f77b4;stroke:#1f77b4;" x="94.910684" xlink:href="#m4f06756f54" y="260.699456"/>
     <use style="fill:#1f77b4;stroke:#1f77b4;" x="96.675449" xlink:href="#m4f06756f54" y="208.561098"/>
     <use style="fill:#1f77b4;stroke:#1f77b4;" x="99.185169" xlink:href="#m4f06756f54" y="237.442402"/>
     <use style="fill:#1f77b4;stroke:#1f77b4;" x="99.18789" xlink:href="#m4f06756f54" y="297.703395"/>
     <use style="fill:#1f77b4;stroke:#1f77b4;" x="121.144305" xlink:href="#m4f06756f54" y="248.831324"/>
     <use style="fill:#1f77b4;stroke:#1f77b4;" x="121.988998" xlink:href="#m4f06756f54" y="271.085765"/>
     <use style="fill:#1f77b4;stroke:#1f77b4;" x="121.98938" xlink:href="#m4f06756f54" y="274.111968"/>
     <use style="fill:#1f77b4;stroke:#1f77b4;" x="123.69785" xlink:href="#m4f06756f54" y="260.766805"/>
     <use style="fill:#1f77b4;stroke:#1f77b4;" x="123.698242" xlink:href="#m4f06756f54" y="289.680345"/>
     <use style="fill:#1f77b4;stroke:#1f77b4;" x="125.362202" xlink:href="#m4f06756f54" y="275.464845"/>
     <use style="fill:#1f77b4;stroke:#1f77b4;" x="125.362594" xlink:href="#m4f06756f54" y="273.613537"/>
     <use style="fill:#1f77b4;stroke:#1f77b4;" x="126.199487" xlink:href="#m4f06756f54" y="288.968769"/>
     <use style="fill:#1f77b4;stroke:#1f77b4;" x="126.199878" xlink:href="#m4f06756f54" y="284.711876"/>
     <use style="fill:#1f77b4;stroke:#1f77b4;" x="127.090237" xlink:href="#m4f06756f54" y="276.228862"/>
     <use style="fill:#1f77b4;stroke:#1f77b4;" x="127.090618" xlink:href="#m4f06756f54" y="241.712765"/>
     <use style="fill:#1f77b4;stroke:#1f77b4;" x="127.899364" xlink:href="#m4f06756f54" y="281.918518"/>
     <use style="fill:#1f77b4;stroke:#1f77b4;" x="127.899756" xlink:href="#m4f06756f54" y="245.21336"/>
     <use style="fill:#1f77b4;stroke:#1f77b4;" x="128.744146" xlink:href="#m4f06756f54" y="270.316451"/>
     <use style="fill:#1f77b4;stroke:#1f77b4;" x="128.744527" xlink:href="#m4f06756f54" y="270.976065"/>
     <use style="fill:#1f77b4;stroke:#1f77b4;" x="136.360585" xlink:href="#m4f06756f54" y="277.228625"/>
     <use style="fill:#1f77b4;stroke:#1f77b4;" x="142.231315" xlink:href="#m4f06756f54" y="267.128107"/>
     <use style="fill:#1f77b4;stroke:#1f77b4;" x="143.073052" xlink:href="#m4f06756f54" y="290.128252"/>
     <use style="fill:#1f77b4;stroke:#1f77b4;" x="143.918832" xlink:href="#m4f06756f54" y="273.37489"/>
     <use style="fill:#1f77b4;stroke:#1f77b4;" x="144.76286" xlink:href="#m4f06756f54" y="287.762143"/>
     <use style="fill:#1f77b4;stroke:#1f77b4;" x="145.612006" xlink:href="#m4f06756f54" y="282.95869"/>
     <use style="fill:#1f77b4;stroke:#1f77b4;" x="155.771705" xlink:href="#m4f06756f54" y="221.909616"/>
     <use style="fill:#1f77b4;stroke:#1f77b4;" x="163.21203" xlink:href="#m4f06756f54" y="241.00409"/>
     <use style="fill:#1f77b4;stroke:#1f77b4;" x="164.180987" xlink:href="#m4f06756f54" y="249.525091"/>
     <use style="fill:#1f77b4;stroke:#1f77b4;" x="165.042171" xlink:href="#m4f06756f54" y="244.207821"/>
     <use style="fill:#1f77b4;stroke:#1f77b4;" x="170.943837" xlink:href="#m4f06756f54" y="236.096713"/>
     <use style="fill:#1f77b4;stroke:#1f77b4;" x="173.496775" xlink:href="#m4f06756f54" y="258.08123"/>
     <use style="fill:#1f77b4;stroke:#1f77b4;" x="207.146958" xlink:href="#m4f06756f54" y="260.72352"/>
     <use style="fill:#1f77b4;stroke:#1f77b4;" x="210.529274" xlink:href="#m4f06756f54" y="268.607054"/>
     <use style="fill:#1f77b4;stroke:#1f77b4;" x="218.978819" xlink:href="#m4f06756f54" y="258.157256"/>
     <use style="fill:#1f77b4;stroke:#1f77b4;" x="346.082599" xlink:href="#m4f06756f54" y="234.324786"/>
     <use style="fill:#1f77b4;stroke:#1f77b4;" x="379.139631" xlink:href="#m4f06756f54" y="227.554524"/>
     <use style="fill:#1f77b4;stroke:#1f77b4;" x="396.853779" xlink:href="#m4f06756f54" y="272.868766"/>
     <use style="fill:#1f77b4;stroke:#1f77b4;" x="396.854161" xlink:href="#m4f06756f54" y="260.930384"/>
     <use style="fill:#1f77b4;stroke:#1f77b4;" x="397.677773" xlink:href="#m4f06756f54" y="227.071505"/>
     <use style="fill:#1f77b4;stroke:#1f77b4;" x="397.678155" xlink:href="#m4f06756f54" y="242.269893"/>
     <use style="fill:#1f77b4;stroke:#1f77b4;" x="398.486891" xlink:href="#m4f06756f54" y="223.436187"/>
     <use style="fill:#1f77b4;stroke:#1f77b4;" x="398.487273" xlink:href="#m4f06756f54" y="218.552899"/>
    </g>
   </g>
   <g id="matplotlib.axis_5">
    <g id="xtick_26">
     <g id="line2d_37">
      <g>
       <use style="stroke:#000000;stroke-width:0.8;" x="97.996351" xlink:href="#m1d638bd471" y="307.584"/>
      </g>
     </g>
     <g id="text_22">
      <!-- 58300 -->
      <g transform="translate(82.090101 322.182437)scale(0.1 -0.1)">
       <defs>
        <path d="M 46.578125 19.921875 
Q 46.578125 27.734375 42.6875 32.046875 
Q 38.8125 36.375 31.78125 36.375 
Q 24.75 36.375 20.875 32.046875 
Q 17 27.734375 17 19.921875 
Q 17 12.0625 20.875 7.734375 
Q 24.75 3.421875 31.78125 3.421875 
Q 38.8125 3.421875 42.6875 7.734375 
Q 46.578125 12.0625 46.578125 19.921875 
z
M 44.578125 55.328125 
Q 44.578125 61.96875 41.203125 65.671875 
Q 37.84375 69.390625 31.78125 69.390625 
Q 25.78125 69.390625 22.390625 65.671875 
Q 19 61.96875 19 55.328125 
Q 19 48.640625 22.390625 44.921875 
Q 25.78125 41.21875 31.78125 41.21875 
Q 37.84375 41.21875 41.203125 44.921875 
Q 44.578125 48.640625 44.578125 55.328125 
z
M 39.3125 38.8125 
Q 47.609375 37.703125 52.25 32.6875 
Q 56.890625 27.6875 56.890625 19.921875 
Q 56.890625 9.671875 50.390625 4.125 
Q 43.890625 -1.421875 31.78125 -1.421875 
Q 19.734375 -1.421875 13.203125 4.125 
Q 6.6875 9.671875 6.6875 19.921875 
Q 6.6875 27.6875 11.328125 32.6875 
Q 15.96875 37.703125 24.3125 38.8125 
Q 16.9375 40.140625 13 44.40625 
Q 9.078125 48.6875 9.078125 55.328125 
Q 9.078125 64.109375 15.125 69.15625 
Q 21.1875 74.21875 31.78125 74.21875 
Q 42.390625 74.21875 48.4375 69.15625 
Q 54.5 64.109375 54.5 55.328125 
Q 54.5 48.6875 50.5625 44.40625 
Q 46.625 40.140625 39.3125 38.8125 
z
" id="DejaVuSerif-56"/>
        <path d="M 9.71875 69.828125 
Q 15.4375 71.96875 20.671875 73.09375 
Q 25.921875 74.21875 30.515625 74.21875 
Q 41.21875 74.21875 47.21875 69.59375 
Q 53.21875 64.984375 53.21875 56.78125 
Q 53.21875 50.203125 49.0625 45.78125 
Q 44.921875 41.359375 37.3125 39.796875 
Q 46.296875 38.53125 51.25 33.28125 
Q 56.203125 28.03125 56.203125 19.671875 
Q 56.203125 9.46875 49.34375 4.015625 
Q 42.484375 -1.421875 29.59375 -1.421875 
Q 23.875 -1.421875 18.421875 -0.1875 
Q 12.984375 1.03125 7.625 3.515625 
L 7.625 17.671875 
L 13.09375 17.671875 
Q 13.578125 10.640625 17.828125 7.03125 
Q 22.078125 3.421875 29.78125 3.421875 
Q 37.25 3.421875 41.578125 7.734375 
Q 45.90625 12.0625 45.90625 19.578125 
Q 45.90625 28.171875 41.453125 32.59375 
Q 37.015625 37.015625 28.421875 37.015625 
L 23.78125 37.015625 
L 23.78125 42 
L 26.21875 42 
Q 34.765625 42 39.03125 45.53125 
Q 43.3125 49.078125 43.3125 56.203125 
Q 43.3125 62.59375 39.796875 65.984375 
Q 36.28125 69.390625 29.6875 69.390625 
Q 23.09375 69.390625 19.453125 66.265625 
Q 15.828125 63.140625 15.1875 56.984375 
L 9.71875 56.984375 
z
" id="DejaVuSerif-51"/>
       </defs>
       <use xlink:href="#DejaVuSerif-53"/>
       <use x="63.623047" xlink:href="#DejaVuSerif-56"/>
       <use x="127.246094" xlink:href="#DejaVuSerif-51"/>
       <use x="190.869141" xlink:href="#DejaVuSerif-48"/>
       <use x="254.492188" xlink:href="#DejaVuSerif-48"/>
      </g>
     </g>
    </g>
    <g id="xtick_27">
     <g id="line2d_38">
      <g>
       <use style="stroke:#000000;stroke-width:0.8;" x="140.27554" xlink:href="#m1d638bd471" y="307.584"/>
      </g>
     </g>
     <g id="text_23">
      <!-- 58350 -->
      <g transform="translate(124.36929 322.182437)scale(0.1 -0.1)">
       <use xlink:href="#DejaVuSerif-53"/>
       <use x="63.623047" xlink:href="#DejaVuSerif-56"/>
       <use x="127.246094" xlink:href="#DejaVuSerif-51"/>
       <use x="190.869141" xlink:href="#DejaVuSerif-53"/>
       <use x="254.492188" xlink:href="#DejaVuSerif-48"/>
      </g>
     </g>
    </g>
    <g id="xtick_28">
     <g id="line2d_39">
      <g>
       <use style="stroke:#000000;stroke-width:0.8;" x="182.55473" xlink:href="#m1d638bd471" y="307.584"/>
      </g>
     </g>
     <g id="text_24">
      <!-- 58400 -->
      <g transform="translate(166.64848 322.182437)scale(0.1 -0.1)">
       <use xlink:href="#DejaVuSerif-53"/>
       <use x="63.623047" xlink:href="#DejaVuSerif-56"/>
       <use x="127.246094" xlink:href="#DejaVuSerif-52"/>
       <use x="190.869141" xlink:href="#DejaVuSerif-48"/>
       <use x="254.492188" xlink:href="#DejaVuSerif-48"/>
      </g>
     </g>
    </g>
    <g id="xtick_29">
     <g id="line2d_40">
      <g>
       <use style="stroke:#000000;stroke-width:0.8;" x="224.833919" xlink:href="#m1d638bd471" y="307.584"/>
      </g>
     </g>
     <g id="text_25">
      <!-- 58450 -->
      <g transform="translate(208.927669 322.182437)scale(0.1 -0.1)">
       <use xlink:href="#DejaVuSerif-53"/>
       <use x="63.623047" xlink:href="#DejaVuSerif-56"/>
       <use x="127.246094" xlink:href="#DejaVuSerif-52"/>
       <use x="190.869141" xlink:href="#DejaVuSerif-53"/>
       <use x="254.492188" xlink:href="#DejaVuSerif-48"/>
      </g>
     </g>
    </g>
    <g id="xtick_30">
     <g id="line2d_41">
      <g>
       <use style="stroke:#000000;stroke-width:0.8;" x="267.113108" xlink:href="#m1d638bd471" y="307.584"/>
      </g>
     </g>
     <g id="text_26">
      <!-- 58500 -->
      <g transform="translate(251.206858 322.182437)scale(0.1 -0.1)">
       <use xlink:href="#DejaVuSerif-53"/>
       <use x="63.623047" xlink:href="#DejaVuSerif-56"/>
       <use x="127.246094" xlink:href="#DejaVuSerif-53"/>
       <use x="190.869141" xlink:href="#DejaVuSerif-48"/>
       <use x="254.492188" xlink:href="#DejaVuSerif-48"/>
      </g>
     </g>
    </g>
    <g id="xtick_31">
     <g id="line2d_42">
      <g>
       <use style="stroke:#000000;stroke-width:0.8;" x="309.392298" xlink:href="#m1d638bd471" y="307.584"/>
      </g>
     </g>
     <g id="text_27">
      <!-- 58550 -->
      <g transform="translate(293.486048 322.182437)scale(0.1 -0.1)">
       <use xlink:href="#DejaVuSerif-53"/>
       <use x="63.623047" xlink:href="#DejaVuSerif-56"/>
       <use x="127.246094" xlink:href="#DejaVuSerif-53"/>
       <use x="190.869141" xlink:href="#DejaVuSerif-53"/>
       <use x="254.492188" xlink:href="#DejaVuSerif-48"/>
      </g>
     </g>
    </g>
    <g id="xtick_32">
     <g id="line2d_43">
      <g>
       <use style="stroke:#000000;stroke-width:0.8;" x="351.671487" xlink:href="#m1d638bd471" y="307.584"/>
      </g>
     </g>
     <g id="text_28">
      <!-- 58600 -->
      <g transform="translate(335.765237 322.182437)scale(0.1 -0.1)">
       <use xlink:href="#DejaVuSerif-53"/>
       <use x="63.623047" xlink:href="#DejaVuSerif-56"/>
       <use x="127.246094" xlink:href="#DejaVuSerif-54"/>
       <use x="190.869141" xlink:href="#DejaVuSerif-48"/>
       <use x="254.492188" xlink:href="#DejaVuSerif-48"/>
      </g>
     </g>
    </g>
    <g id="xtick_33">
     <g id="line2d_44">
      <g>
       <use style="stroke:#000000;stroke-width:0.8;" x="393.950677" xlink:href="#m1d638bd471" y="307.584"/>
      </g>
     </g>
     <g id="text_29">
      <!-- 58650 -->
      <g transform="translate(378.044427 322.182437)scale(0.1 -0.1)">
       <use xlink:href="#DejaVuSerif-53"/>
       <use x="63.623047" xlink:href="#DejaVuSerif-56"/>
       <use x="127.246094" xlink:href="#DejaVuSerif-54"/>
       <use x="190.869141" xlink:href="#DejaVuSerif-53"/>
       <use x="254.492188" xlink:href="#DejaVuSerif-48"/>
      </g>
     </g>
    </g>
    <g id="text_30">
     <!-- MJD -->
     <g transform="translate(225.027187 335.860562)scale(0.1 -0.1)">
      <defs>
       <path d="M -8.40625 -17.484375 
L -8.40625 -6 
L -2.828125 -6 
Q -2.6875 -10.84375 -0.53125 -13.203125 
Q 1.609375 -15.578125 5.90625 -15.578125 
Q 11.71875 -15.578125 14.015625 -11.90625 
Q 16.3125 -8.25 16.3125 2.390625 
L 16.3125 67.671875 
L 4.984375 67.671875 
L 4.984375 72.90625 
L 35.5 72.90625 
L 35.5 67.671875 
L 26.21875 67.671875 
L 26.21875 2 
Q 26.21875 -10.0625 21.375 -15.421875 
Q 16.546875 -20.796875 5.8125 -20.796875 
Q 2.34375 -20.796875 -1.234375 -19.96875 
Q -4.828125 -19.140625 -8.40625 -17.484375 
z
" id="DejaVuSerif-74"/>
       <path d="M 24.703125 5.171875 
L 33.796875 5.171875 
Q 48 5.171875 55.59375 13.28125 
Q 63.1875 21.390625 63.1875 36.53125 
Q 63.1875 51.65625 55.609375 59.65625 
Q 48.046875 67.671875 33.796875 67.671875 
L 24.703125 67.671875 
z
M 5.515625 0 
L 5.515625 5.171875 
L 14.796875 5.171875 
L 14.796875 67.671875 
L 5.515625 67.671875 
L 5.515625 72.90625 
L 34.515625 72.90625 
Q 53.375 72.90625 63.890625 63.28125 
Q 74.421875 53.65625 74.421875 36.53125 
Q 74.421875 19.34375 63.875 9.671875 
Q 53.328125 0 34.515625 0 
z
" id="DejaVuSerif-68"/>
      </defs>
      <use xlink:href="#DejaVuSerif-77"/>
      <use x="102.392578" xlink:href="#DejaVuSerif-74"/>
      <use x="142.480469" xlink:href="#DejaVuSerif-68"/>
     </g>
    </g>
   </g>
   <g id="matplotlib.axis_6">
    <g id="ytick_7">
     <g id="line2d_45">
      <g>
       <use style="stroke:#000000;stroke-width:0.8;" x="57.6" xlink:href="#m65d930d860" y="201.286275"/>
      </g>
     </g>
     <g id="text_31">
      <!-- 16.4 -->
      <g transform="translate(28.334375 205.085493)scale(0.1 -0.1)">
       <use xlink:href="#DejaVuSerif-49"/>
       <use x="63.623047" xlink:href="#DejaVuSerif-54"/>
       <use x="127.246094" xlink:href="#DejaVuSerif-46"/>
       <use x="159.033203" xlink:href="#DejaVuSerif-52"/>
      </g>
     </g>
    </g>
    <g id="ytick_8">
     <g id="line2d_46">
      <g>
       <use style="stroke:#000000;stroke-width:0.8;" x="57.6" xlink:href="#m65d930d860" y="226.510517"/>
      </g>
     </g>
     <g id="text_32">
      <!-- 16.5 -->
      <g transform="translate(28.334375 230.309736)scale(0.1 -0.1)">
       <use xlink:href="#DejaVuSerif-49"/>
       <use x="63.623047" xlink:href="#DejaVuSerif-54"/>
       <use x="127.246094" xlink:href="#DejaVuSerif-46"/>
       <use x="159.033203" xlink:href="#DejaVuSerif-53"/>
      </g>
     </g>
    </g>
    <g id="ytick_9">
     <g id="line2d_47">
      <g>
       <use style="stroke:#000000;stroke-width:0.8;" x="57.6" xlink:href="#m65d930d860" y="251.73476"/>
      </g>
     </g>
     <g id="text_33">
      <!-- 16.6 -->
      <g transform="translate(28.334375 255.533979)scale(0.1 -0.1)">
       <use xlink:href="#DejaVuSerif-49"/>
       <use x="63.623047" xlink:href="#DejaVuSerif-54"/>
       <use x="127.246094" xlink:href="#DejaVuSerif-46"/>
       <use x="159.033203" xlink:href="#DejaVuSerif-54"/>
      </g>
     </g>
    </g>
    <g id="ytick_10">
     <g id="line2d_48">
      <g>
       <use style="stroke:#000000;stroke-width:0.8;" x="57.6" xlink:href="#m65d930d860" y="276.959003"/>
      </g>
     </g>
     <g id="text_34">
      <!-- 16.7 -->
      <g transform="translate(28.334375 280.758222)scale(0.1 -0.1)">
       <use xlink:href="#DejaVuSerif-49"/>
       <use x="63.623047" xlink:href="#DejaVuSerif-54"/>
       <use x="127.246094" xlink:href="#DejaVuSerif-46"/>
       <use x="159.033203" xlink:href="#DejaVuSerif-55"/>
      </g>
     </g>
    </g>
    <g id="ytick_11">
     <g id="line2d_49">
      <g>
       <use style="stroke:#000000;stroke-width:0.8;" x="57.6" xlink:href="#m65d930d860" y="302.183246"/>
      </g>
     </g>
     <g id="text_35">
      <!-- 16.8 -->
      <g transform="translate(28.334375 305.982465)scale(0.1 -0.1)">
       <use xlink:href="#DejaVuSerif-49"/>
       <use x="63.623047" xlink:href="#DejaVuSerif-54"/>
       <use x="127.246094" xlink:href="#DejaVuSerif-46"/>
       <use x="159.033203" xlink:href="#DejaVuSerif-56"/>
      </g>
     </g>
    </g>
    <g id="text_36">
     <!-- Mag -->
     <g transform="translate(22.1125 264.576991)rotate(-90)scale(0.1 -0.1)">
      <use xlink:href="#DejaVuSerif-77"/>
      <use x="102.392578" xlink:href="#DejaVuSerif-97"/>
      <use x="162.011719" xlink:href="#DejaVuSerif-103"/>
     </g>
    </g>
   </g>
   <g id="LineCollection_5">
    <path clip-path="url(#p675ba89033)" d="M 73.832727 245.457148 
L 73.832727 255.005592 
" style="fill:none;stroke:#1f77b4;stroke-width:0.5;"/>
    <path clip-path="url(#p675ba89033)" d="M 73.833119 281.467661 
L 73.833119 291.266167 
" style="fill:none;stroke:#1f77b4;stroke-width:0.5;"/>
    <path clip-path="url(#p675ba89033)" d="M 94.910293 245.690242 
L 94.910293 255.240155 
" style="fill:none;stroke:#1f77b4;stroke-width:0.5;"/>
    <path clip-path="url(#p675ba89033)" d="M 94.910684 255.891396 
L 94.910684 265.507516 
" style="fill:none;stroke:#1f77b4;stroke-width:0.5;"/>
    <path clip-path="url(#p675ba89033)" d="M 96.675449 203.904 
L 96.675449 213.218195 
" style="fill:none;stroke:#1f77b4;stroke-width:0.5;"/>
    <path clip-path="url(#p675ba89033)" d="M 99.185169 232.707032 
L 99.185169 242.177771 
" style="fill:none;stroke:#1f77b4;stroke-width:0.5;"/>
    <path clip-path="url(#p675ba89033)" d="M 99.18789 292.759933 
L 99.18789 302.646857 
" style="fill:none;stroke:#1f77b4;stroke-width:0.5;"/>
    <path clip-path="url(#p675ba89033)" d="M 121.144305 244.061487 
L 121.144305 253.601161 
" style="fill:none;stroke:#1f77b4;stroke-width:0.5;"/>
    <path clip-path="url(#p675ba89033)" d="M 121.988998 266.242247 
L 121.988998 275.929283 
" style="fill:none;stroke:#1f77b4;stroke-width:0.5;"/>
    <path clip-path="url(#p675ba89033)" d="M 121.98938 269.257755 
L 121.98938 278.966181 
" style="fill:none;stroke:#1f77b4;stroke-width:0.5;"/>
    <path clip-path="url(#p675ba89033)" d="M 123.69785 255.958521 
L 123.69785 265.575089 
" style="fill:none;stroke:#1f77b4;stroke-width:0.5;"/>
    <path clip-path="url(#p675ba89033)" d="M 123.698242 284.768429 
L 123.698242 294.592262 
" style="fill:none;stroke:#1f77b4;stroke-width:0.5;"/>
    <path clip-path="url(#p675ba89033)" d="M 125.362202 270.605795 
L 125.362202 280.323895 
" style="fill:none;stroke:#1f77b4;stroke-width:0.5;"/>
    <path clip-path="url(#p675ba89033)" d="M 125.362594 268.761096 
L 125.362594 278.465978 
" style="fill:none;stroke:#1f77b4;stroke-width:0.5;"/>
    <path clip-path="url(#p675ba89033)" d="M 126.199487 284.059592 
L 126.199487 293.877947 
" style="fill:none;stroke:#1f77b4;stroke-width:0.5;"/>
    <path clip-path="url(#p675ba89033)" d="M 126.199878 279.81887 
L 126.199878 289.604882 
" style="fill:none;stroke:#1f77b4;stroke-width:0.5;"/>
    <path clip-path="url(#p675ba89033)" d="M 127.090237 271.367068 
L 127.090237 281.090656 
" style="fill:none;stroke:#1f77b4;stroke-width:0.5;"/>
    <path clip-path="url(#p675ba89033)" d="M 127.090618 236.96472 
L 127.090618 246.46081 
" style="fill:none;stroke:#1f77b4;stroke-width:0.5;"/>
    <path clip-path="url(#p675ba89033)" d="M 127.899364 277.035939 
L 127.899364 286.801097 
" style="fill:none;stroke:#1f77b4;stroke-width:0.5;"/>
    <path clip-path="url(#p675ba89033)" d="M 127.899756 240.454703 
L 127.899756 249.972017 
" style="fill:none;stroke:#1f77b4;stroke-width:0.5;"/>
    <path clip-path="url(#p675ba89033)" d="M 128.744146 265.475625 
L 128.744146 275.157277 
" style="fill:none;stroke:#1f77b4;stroke-width:0.5;"/>
    <path clip-path="url(#p675ba89033)" d="M 128.744527 266.13293 
L 128.744527 275.8192 
" style="fill:none;stroke:#1f77b4;stroke-width:0.5;"/>
    <path clip-path="url(#p675ba89033)" d="M 136.360585 272.363222 
L 136.360585 282.094028 
" style="fill:none;stroke:#1f77b4;stroke-width:0.5;"/>
    <path clip-path="url(#p675ba89033)" d="M 142.231315 262.298325 
L 142.231315 271.957888 
" style="fill:none;stroke:#1f77b4;stroke-width:0.5;"/>
    <path clip-path="url(#p675ba89033)" d="M 143.073052 285.214608 
L 143.073052 295.041896 
" style="fill:none;stroke:#1f77b4;stroke-width:0.5;"/>
    <path clip-path="url(#p675ba89033)" d="M 143.918832 268.523297 
L 143.918832 278.226484 
" style="fill:none;stroke:#1f77b4;stroke-width:0.5;"/>
    <path clip-path="url(#p675ba89033)" d="M 144.76286 282.857582 
L 144.76286 292.666703 
" style="fill:none;stroke:#1f77b4;stroke-width:0.5;"/>
    <path clip-path="url(#p675ba89033)" d="M 145.612006 278.072246 
L 145.612006 287.845134 
" style="fill:none;stroke:#1f77b4;stroke-width:0.5;"/>
    <path clip-path="url(#p675ba89033)" d="M 155.771705 217.217918 
L 155.771705 226.601313 
" style="fill:none;stroke:#1f77b4;stroke-width:0.5;"/>
    <path clip-path="url(#p675ba89033)" d="M 163.21203 236.25817 
L 163.21203 245.75001 
" style="fill:none;stroke:#1f77b4;stroke-width:0.5;"/>
    <path clip-path="url(#p675ba89033)" d="M 164.180987 244.753086 
L 164.180987 254.297097 
" style="fill:none;stroke:#1f77b4;stroke-width:0.5;"/>
    <path clip-path="url(#p675ba89033)" d="M 165.042171 239.452233 
L 165.042171 248.963409 
" style="fill:none;stroke:#1f77b4;stroke-width:0.5;"/>
    <path clip-path="url(#p675ba89033)" d="M 170.943837 231.365278 
L 170.943837 240.828149 
" style="fill:none;stroke:#1f77b4;stroke-width:0.5;"/>
    <path clip-path="url(#p675ba89033)" d="M 173.496775 253.281811 
L 173.496775 262.88065 
" style="fill:none;stroke:#1f77b4;stroke-width:0.5;"/>
    <path clip-path="url(#p675ba89033)" d="M 207.146958 255.91538 
L 207.146958 265.53166 
" style="fill:none;stroke:#1f77b4;stroke-width:0.5;"/>
    <path clip-path="url(#p675ba89033)" d="M 210.529274 263.772173 
L 210.529274 273.441936 
" style="fill:none;stroke:#1f77b4;stroke-width:0.5;"/>
    <path clip-path="url(#p675ba89033)" d="M 218.978819 253.357587 
L 218.978819 262.956925 
" style="fill:none;stroke:#1f77b4;stroke-width:0.5;"/>
    <path clip-path="url(#p675ba89033)" d="M 346.082599 229.598486 
L 346.082599 239.051087 
" style="fill:none;stroke:#1f77b4;stroke-width:0.5;"/>
    <path clip-path="url(#p675ba89033)" d="M 379.139631 222.84739 
L 379.139631 232.261658 
" style="fill:none;stroke:#1f77b4;stroke-width:0.5;"/>
    <path clip-path="url(#p675ba89033)" d="M 396.853779 268.018966 
L 396.853779 277.718566 
" style="fill:none;stroke:#1f77b4;stroke-width:0.5;"/>
    <path clip-path="url(#p675ba89033)" d="M 396.854161 256.121556 
L 396.854161 265.739212 
" style="fill:none;stroke:#1f77b4;stroke-width:0.5;"/>
    <path clip-path="url(#p675ba89033)" d="M 397.677773 222.365711 
L 397.677773 231.777299 
" style="fill:none;stroke:#1f77b4;stroke-width:0.5;"/>
    <path clip-path="url(#p675ba89033)" d="M 397.678155 237.520172 
L 397.678155 247.019613 
" style="fill:none;stroke:#1f77b4;stroke-width:0.5;"/>
    <path clip-path="url(#p675ba89033)" d="M 398.486891 218.740364 
L 398.486891 228.132009 
" style="fill:none;stroke:#1f77b4;stroke-width:0.5;"/>
    <path clip-path="url(#p675ba89033)" d="M 398.487273 213.870153 
L 398.487273 223.235646 
" style="fill:none;stroke:#1f77b4;stroke-width:0.5;"/>
   </g>
   <g id="line2d_50">
    <path clip-path="url(#p675ba89033)" d="M 73.832727 250.23137 
L 73.833119 286.366914 
L 94.910293 250.465199 
L 94.910684 260.699456 
L 96.675449 208.561098 
L 99.185169 237.442402 
L 99.18789 297.703395 
L 121.144305 248.831324 
L 121.988998 271.085765 
L 121.98938 274.111968 
L 123.69785 260.766805 
L 123.698242 289.680345 
L 125.362202 275.464845 
L 125.362594 273.613537 
L 126.199487 288.968769 
L 126.199878 284.711876 
L 127.090237 276.228862 
L 127.090618 241.712765 
L 127.899364 281.918518 
L 127.899756 245.21336 
L 128.744146 270.316451 
L 128.744527 270.976065 
L 136.360585 277.228625 
L 142.231315 267.128107 
L 143.073052 290.128252 
L 143.918832 273.37489 
L 144.76286 287.762143 
L 145.612006 282.95869 
L 155.771705 221.909616 
L 163.21203 241.00409 
L 164.180987 249.525091 
L 165.042171 244.207821 
L 170.943837 236.096713 
L 173.496775 258.08123 
L 207.146958 260.72352 
L 210.529274 268.607054 
L 218.978819 258.157256 
L 346.082599 234.324786 
L 379.139631 227.554524 
L 396.853779 272.868766 
L 396.854161 260.930384 
L 397.677773 227.071505 
L 397.678155 242.269893 
L 398.486891 223.436187 
L 398.487273 218.552899 
" style="fill:none;"/>
   </g>
   <g id="patch_14">
    <path d="M 57.6 307.584 
L 57.6 198.966857 
" style="fill:none;stroke:#000000;stroke-linecap:square;stroke-linejoin:miter;stroke-width:0.8;"/>
   </g>
   <g id="patch_15">
    <path d="M 414.72 307.584 
L 414.72 198.966857 
" style="fill:none;stroke:#000000;stroke-linecap:square;stroke-linejoin:miter;stroke-width:0.8;"/>
   </g>
   <g id="patch_16">
    <path d="M 57.6 307.584 
L 414.72 307.584 
" style="fill:none;stroke:#000000;stroke-linecap:square;stroke-linejoin:miter;stroke-width:0.8;"/>
   </g>
   <g id="patch_17">
    <path d="M 57.6 198.966857 
L 414.72 198.966857 
" style="fill:none;stroke:#000000;stroke-linecap:square;stroke-linejoin:miter;stroke-width:0.8;"/>
   </g>
   <g id="text_37">
    <!-- Light Curve -->
    <g transform="translate(206.000625 192.966857)scale(0.1 -0.1)">
     <use xlink:href="#DejaVuSerif-76"/>
     <use x="66.40625" xlink:href="#DejaVuSerif-105"/>
     <use x="98.388672" xlink:href="#DejaVuSerif-103"/>
     <use x="162.402344" xlink:href="#DejaVuSerif-104"/>
     <use x="226.806641" xlink:href="#DejaVuSerif-116"/>
     <use x="266.992188" xlink:href="#DejaVuSerif-32"/>
     <use x="298.779297" xlink:href="#DejaVuSerif-67"/>
     <use x="375.292969" xlink:href="#DejaVuSerif-117"/>
     <use x="439.697266" xlink:href="#DejaVuSerif-114"/>
     <use x="487.5" xlink:href="#DejaVuSerif-118"/>
     <use x="543.994141" xlink:href="#DejaVuSerif-101"/>
    </g>
   </g>
  </g>
 </g>
 <defs>
  <clipPath id="p7dfe0f7d2a">
   <rect height="108.617143" width="148.8" x="265.92" y="41.472"/>
  </clipPath>
  <clipPath id="p705655bdb0">
   <rect height="108.617143" width="148.8" x="57.6" y="41.472"/>
  </clipPath>
  <clipPath id="p675ba89033">
   <rect height="108.617143" width="357.12" x="57.6" y="198.966857"/>
  </clipPath>
 </defs>
</svg>
