<?xml version="1.0" encoding="utf-8" standalone="no"?>
<!DOCTYPE svg PUBLIC "-//W3C//DTD SVG 1.1//EN"
  "http://www.w3.org/Graphics/SVG/1.1/DTD/svg11.dtd">
<!-- Created with matplotlib (https://matplotlib.org/) -->
<svg height="345.6pt" version="1.1" viewBox="0 0 460.8 345.6" width="460.8pt" xmlns="http://www.w3.org/2000/svg" xmlns:xlink="http://www.w3.org/1999/xlink">
 <metadata>
  <rdf:RDF xmlns:cc="http://creativecommons.org/ns#" xmlns:dc="http://purl.org/dc/elements/1.1/" xmlns:rdf="http://www.w3.org/1999/02/22-rdf-syntax-ns#">
   <cc:Work>
    <dc:type rdf:resource="http://purl.org/dc/dcmitype/StillImage"/>
    <dc:date>2021-02-16T16:34:48.965051</dc:date>
    <dc:format>image/svg+xml</dc:format>
    <dc:creator>
     <cc:Agent>
      <dc:title>Matplotlib v3.3.3, https://matplotlib.org/</dc:title>
     </cc:Agent>
    </dc:creator>
   </cc:Work>
  </rdf:RDF>
 </metadata>
 <defs>
  <style type="text/css">*{stroke-linecap:butt;stroke-linejoin:round;}</style>
 </defs>
 <g id="figure_1">
  <g id="patch_1">
   <path d="M 0 345.6 
L 460.8 345.6 
L 460.8 0 
L 0 0 
z
" style="fill:#ffffff;"/>
  </g>
  <g id="axes_1">
   <g id="patch_2">
    <path d="M 265.92 150.089143 
L 414.72 150.089143 
L 414.72 41.472 
L 265.92 41.472 
z
" style="fill:#ffffff;"/>
   </g>
   <g id="matplotlib.axis_1">
    <g id="xtick_1">
     <g id="line2d_1">
      <defs>
       <path d="M 0 0 
L 0 3.5 
" id="m66d6cfe1e9" style="stroke:#000000;stroke-width:0.8;"/>
      </defs>
      <g>
       <use style="stroke:#000000;stroke-width:0.8;" x="315.519224" xlink:href="#m66d6cfe1e9" y="150.089143"/>
      </g>
     </g>
     <g id="text_1">
      <!-- $\mathdefault{10^{1}}$ -->
      <g transform="translate(306.719224 164.68758)scale(0.1 -0.1)">
       <defs>
        <path d="M 14.203125 0 
L 14.203125 5.171875 
L 26.90625 5.171875 
L 26.90625 65.828125 
L 12.203125 56.296875 
L 12.203125 62.703125 
L 29.984375 74.21875 
L 36.71875 74.21875 
L 36.71875 5.171875 
L 49.421875 5.171875 
L 49.421875 0 
z
" id="DejaVuSerif-49"/>
        <path d="M 31.78125 3.421875 
Q 39.265625 3.421875 42.96875 11.625 
Q 46.6875 19.828125 46.6875 36.375 
Q 46.6875 52.984375 42.96875 61.1875 
Q 39.265625 69.390625 31.78125 69.390625 
Q 24.3125 69.390625 20.59375 61.1875 
Q 16.890625 52.984375 16.890625 36.375 
Q 16.890625 19.828125 20.59375 11.625 
Q 24.3125 3.421875 31.78125 3.421875 
z
M 31.78125 -1.421875 
Q 19.921875 -1.421875 13.25 8.53125 
Q 6.59375 18.5 6.59375 36.375 
Q 6.59375 54.296875 13.25 64.25 
Q 19.921875 74.21875 31.78125 74.21875 
Q 43.703125 74.21875 50.34375 64.25 
Q 56.984375 54.296875 56.984375 36.375 
Q 56.984375 18.5 50.34375 8.53125 
Q 43.703125 -1.421875 31.78125 -1.421875 
z
" id="DejaVuSerif-48"/>
       </defs>
       <use transform="translate(0 0.7125)" xlink:href="#DejaVuSerif-49"/>
       <use transform="translate(63.623047 0.7125)" xlink:href="#DejaVuSerif-48"/>
       <use transform="translate(128.154453 37.046875)scale(0.7)" xlink:href="#DejaVuSerif-49"/>
      </g>
     </g>
    </g>
    <g id="xtick_2">
     <g id="line2d_2">
      <g>
       <use style="stroke:#000000;stroke-width:0.8;" x="373.218149" xlink:href="#m66d6cfe1e9" y="150.089143"/>
      </g>
     </g>
     <g id="text_2">
      <!-- $\mathdefault{10^{2}}$ -->
      <g transform="translate(364.418149 164.68758)scale(0.1 -0.1)">
       <defs>
        <path d="M 12.796875 55.515625 
L 7.328125 55.515625 
L 7.328125 68.5 
Q 12.546875 71.296875 17.84375 72.75 
Q 23.140625 74.21875 28.21875 74.21875 
Q 39.59375 74.21875 46.1875 68.703125 
Q 52.78125 63.1875 52.78125 53.71875 
Q 52.78125 43.015625 37.84375 28.125 
Q 36.671875 27 36.078125 26.421875 
L 17.671875 8.015625 
L 48.09375 8.015625 
L 48.09375 17 
L 53.8125 17 
L 53.8125 0 
L 6.78125 0 
L 6.78125 5.328125 
L 28.90625 27.390625 
Q 36.234375 34.71875 39.359375 40.84375 
Q 42.484375 46.96875 42.484375 53.71875 
Q 42.484375 61.078125 38.640625 65.234375 
Q 34.8125 69.390625 28.078125 69.390625 
Q 21.09375 69.390625 17.28125 65.921875 
Q 13.484375 62.453125 12.796875 55.515625 
z
" id="DejaVuSerif-50"/>
       </defs>
       <use transform="translate(0 0.7125)" xlink:href="#DejaVuSerif-49"/>
       <use transform="translate(63.623047 0.7125)" xlink:href="#DejaVuSerif-48"/>
       <use transform="translate(128.154453 37.046875)scale(0.7)" xlink:href="#DejaVuSerif-50"/>
      </g>
     </g>
    </g>
    <g id="xtick_3">
     <g id="line2d_3">
      <defs>
       <path d="M 0 0 
L 0 2 
" id="m2cbecde01b" style="stroke:#000000;stroke-width:0.6;"/>
      </defs>
      <g>
       <use style="stroke:#000000;stroke-width:0.6;" x="275.189406" xlink:href="#m2cbecde01b" y="150.089143"/>
      </g>
     </g>
    </g>
    <g id="xtick_4">
     <g id="line2d_4">
      <g>
       <use style="stroke:#000000;stroke-width:0.6;" x="285.349683" xlink:href="#m2cbecde01b" y="150.089143"/>
      </g>
     </g>
    </g>
    <g id="xtick_5">
     <g id="line2d_5">
      <g>
       <use style="stroke:#000000;stroke-width:0.6;" x="292.558513" xlink:href="#m2cbecde01b" y="150.089143"/>
      </g>
     </g>
    </g>
    <g id="xtick_6">
     <g id="line2d_6">
      <g>
       <use style="stroke:#000000;stroke-width:0.6;" x="298.150117" xlink:href="#m2cbecde01b" y="150.089143"/>
      </g>
     </g>
    </g>
    <g id="xtick_7">
     <g id="line2d_7">
      <g>
       <use style="stroke:#000000;stroke-width:0.6;" x="302.71879" xlink:href="#m2cbecde01b" y="150.089143"/>
      </g>
     </g>
    </g>
    <g id="xtick_8">
     <g id="line2d_8">
      <g>
       <use style="stroke:#000000;stroke-width:0.6;" x="306.581548" xlink:href="#m2cbecde01b" y="150.089143"/>
      </g>
     </g>
    </g>
    <g id="xtick_9">
     <g id="line2d_9">
      <g>
       <use style="stroke:#000000;stroke-width:0.6;" x="309.927621" xlink:href="#m2cbecde01b" y="150.089143"/>
      </g>
     </g>
    </g>
    <g id="xtick_10">
     <g id="line2d_10">
      <g>
       <use style="stroke:#000000;stroke-width:0.6;" x="312.879066" xlink:href="#m2cbecde01b" y="150.089143"/>
      </g>
     </g>
    </g>
    <g id="xtick_11">
     <g id="line2d_11">
      <g>
       <use style="stroke:#000000;stroke-width:0.6;" x="332.888331" xlink:href="#m2cbecde01b" y="150.089143"/>
      </g>
     </g>
    </g>
    <g id="xtick_12">
     <g id="line2d_12">
      <g>
       <use style="stroke:#000000;stroke-width:0.6;" x="343.048608" xlink:href="#m2cbecde01b" y="150.089143"/>
      </g>
     </g>
    </g>
    <g id="xtick_13">
     <g id="line2d_13">
      <g>
       <use style="stroke:#000000;stroke-width:0.6;" x="350.257438" xlink:href="#m2cbecde01b" y="150.089143"/>
      </g>
     </g>
    </g>
    <g id="xtick_14">
     <g id="line2d_14">
      <g>
       <use style="stroke:#000000;stroke-width:0.6;" x="355.849042" xlink:href="#m2cbecde01b" y="150.089143"/>
      </g>
     </g>
    </g>
    <g id="xtick_15">
     <g id="line2d_15">
      <g>
       <use style="stroke:#000000;stroke-width:0.6;" x="360.417715" xlink:href="#m2cbecde01b" y="150.089143"/>
      </g>
     </g>
    </g>
    <g id="xtick_16">
     <g id="line2d_16">
      <g>
       <use style="stroke:#000000;stroke-width:0.6;" x="364.280473" xlink:href="#m2cbecde01b" y="150.089143"/>
      </g>
     </g>
    </g>
    <g id="xtick_17">
     <g id="line2d_17">
      <g>
       <use style="stroke:#000000;stroke-width:0.6;" x="367.626546" xlink:href="#m2cbecde01b" y="150.089143"/>
      </g>
     </g>
    </g>
    <g id="xtick_18">
     <g id="line2d_18">
      <g>
       <use style="stroke:#000000;stroke-width:0.6;" x="370.577991" xlink:href="#m2cbecde01b" y="150.089143"/>
      </g>
     </g>
    </g>
    <g id="xtick_19">
     <g id="line2d_19">
      <g>
       <use style="stroke:#000000;stroke-width:0.6;" x="390.587256" xlink:href="#m2cbecde01b" y="150.089143"/>
      </g>
     </g>
    </g>
    <g id="xtick_20">
     <g id="line2d_20">
      <g>
       <use style="stroke:#000000;stroke-width:0.6;" x="400.747533" xlink:href="#m2cbecde01b" y="150.089143"/>
      </g>
     </g>
    </g>
    <g id="xtick_21">
     <g id="line2d_21">
      <g>
       <use style="stroke:#000000;stroke-width:0.6;" x="407.956364" xlink:href="#m2cbecde01b" y="150.089143"/>
      </g>
     </g>
    </g>
    <g id="xtick_22">
     <g id="line2d_22">
      <g>
       <use style="stroke:#000000;stroke-width:0.6;" x="413.547967" xlink:href="#m2cbecde01b" y="150.089143"/>
      </g>
     </g>
    </g>
    <g id="text_3">
     <!-- Period d -->
     <g transform="translate(319.231719 178.365705)scale(0.1 -0.1)">
      <defs>
       <path d="M 24.703125 37.109375 
L 37.59375 37.109375 
Q 44.875 37.109375 48.671875 41.03125 
Q 52.484375 44.96875 52.484375 52.390625 
Q 52.484375 59.859375 48.671875 63.765625 
Q 44.875 67.671875 37.59375 67.671875 
L 24.703125 67.671875 
z
M 5.515625 0 
L 5.515625 5.171875 
L 14.796875 5.171875 
L 14.796875 67.671875 
L 5.515625 67.671875 
L 5.515625 72.90625 
L 39.984375 72.90625 
Q 50.921875 72.90625 57.3125 67.359375 
Q 63.71875 61.8125 63.71875 52.390625 
Q 63.71875 43.015625 57.3125 37.453125 
Q 50.921875 31.890625 39.984375 31.890625 
L 24.703125 31.890625 
L 24.703125 5.171875 
L 35.984375 5.171875 
L 35.984375 0 
z
" id="DejaVuSerif-80"/>
       <path d="M 54.203125 25 
L 15.484375 25 
L 15.484375 24.609375 
Q 15.484375 14.109375 19.4375 8.765625 
Q 23.390625 3.421875 31.109375 3.421875 
Q 37.015625 3.421875 40.796875 6.515625 
Q 44.578125 9.625 46.09375 15.71875 
L 53.328125 15.71875 
Q 51.171875 7.171875 45.375 2.875 
Q 39.59375 -1.421875 30.171875 -1.421875 
Q 18.796875 -1.421875 11.890625 6.078125 
Q 4.984375 13.578125 4.984375 25.984375 
Q 4.984375 38.28125 11.765625 45.796875 
Q 18.5625 53.328125 29.59375 53.328125 
Q 41.359375 53.328125 47.65625 46.0625 
Q 53.953125 38.8125 54.203125 25 
z
M 43.609375 30.171875 
Q 43.3125 39.265625 39.765625 43.875 
Q 36.234375 48.484375 29.59375 48.484375 
Q 23.390625 48.484375 19.828125 43.84375 
Q 16.265625 39.203125 15.484375 30.171875 
z
" id="DejaVuSerif-101"/>
       <path d="M 47.796875 52 
L 47.796875 39.015625 
L 42.625 39.015625 
Q 42.390625 42.875 40.484375 44.78125 
Q 38.578125 46.6875 34.90625 46.6875 
Q 28.265625 46.6875 24.71875 42.09375 
Q 21.1875 37.5 21.1875 28.90625 
L 21.1875 5.171875 
L 31.59375 5.171875 
L 31.59375 0 
L 4.109375 0 
L 4.109375 5.171875 
L 12.203125 5.171875 
L 12.203125 46.78125 
L 3.609375 46.78125 
L 3.609375 51.90625 
L 21.1875 51.90625 
L 21.1875 42.671875 
Q 23.828125 48.09375 27.96875 50.703125 
Q 32.125 53.328125 38.09375 53.328125 
Q 40.28125 53.328125 42.703125 52.984375 
Q 45.125 52.640625 47.796875 52 
z
" id="DejaVuSerif-114"/>
       <path d="M 9.71875 68.015625 
Q 9.71875 70.265625 11.34375 71.921875 
Q 12.984375 73.578125 15.28125 73.578125 
Q 17.53125 73.578125 19.15625 71.921875 
Q 20.796875 70.265625 20.796875 68.015625 
Q 20.796875 65.71875 19.1875 64.109375 
Q 17.578125 62.5 15.28125 62.5 
Q 12.984375 62.5 11.34375 64.109375 
Q 9.71875 65.71875 9.71875 68.015625 
z
M 21.1875 5.171875 
L 29.6875 5.171875 
L 29.6875 0 
L 3.609375 0 
L 3.609375 5.171875 
L 12.203125 5.171875 
L 12.203125 46.6875 
L 3.609375 46.6875 
L 3.609375 51.90625 
L 21.1875 51.90625 
z
" id="DejaVuSerif-105"/>
       <path d="M 30.078125 3.421875 
Q 37.3125 3.421875 40.984375 9.125 
Q 44.671875 14.84375 44.671875 25.984375 
Q 44.671875 37.109375 40.984375 42.796875 
Q 37.3125 48.484375 30.078125 48.484375 
Q 22.859375 48.484375 19.171875 42.796875 
Q 15.484375 37.109375 15.484375 25.984375 
Q 15.484375 14.84375 19.1875 9.125 
Q 22.90625 3.421875 30.078125 3.421875 
z
M 30.078125 -1.421875 
Q 18.75 -1.421875 11.859375 6.078125 
Q 4.984375 13.578125 4.984375 25.984375 
Q 4.984375 38.375 11.84375 45.84375 
Q 18.703125 53.328125 30.078125 53.328125 
Q 41.453125 53.328125 48.3125 45.84375 
Q 55.171875 38.375 55.171875 25.984375 
Q 55.171875 13.578125 48.3125 6.078125 
Q 41.453125 -1.421875 30.078125 -1.421875 
z
" id="DejaVuSerif-111"/>
       <path d="M 52.484375 5.171875 
L 61.078125 5.171875 
L 61.078125 0 
L 43.5 0 
L 43.5 8.109375 
Q 40.875 3.21875 36.796875 0.890625 
Q 32.71875 -1.421875 26.703125 -1.421875 
Q 17.140625 -1.421875 11.0625 6.171875 
Q 4.984375 13.765625 4.984375 25.984375 
Q 4.984375 38.1875 11.03125 45.75 
Q 17.09375 53.328125 26.703125 53.328125 
Q 32.71875 53.328125 36.796875 51 
Q 40.875 48.6875 43.5 43.796875 
L 43.5 70.796875 
L 35.015625 70.796875 
L 35.015625 75.984375 
L 52.484375 75.984375 
z
M 43.5 23.390625 
L 43.5 28.515625 
Q 43.5 37.84375 39.90625 42.765625 
Q 36.328125 47.703125 29.5 47.703125 
Q 22.5625 47.703125 19.015625 42.234375 
Q 15.484375 36.765625 15.484375 25.984375 
Q 15.484375 15.234375 19.015625 9.71875 
Q 22.5625 4.203125 29.5 4.203125 
Q 36.328125 4.203125 39.90625 9.109375 
Q 43.5 14.015625 43.5 23.390625 
z
" id="DejaVuSerif-100"/>
       <path id="DejaVuSerif-32"/>
      </defs>
      <use xlink:href="#DejaVuSerif-80"/>
      <use x="62.785156" xlink:href="#DejaVuSerif-101"/>
      <use x="121.964844" xlink:href="#DejaVuSerif-114"/>
      <use x="169.767578" xlink:href="#DejaVuSerif-105"/>
      <use x="201.75" xlink:href="#DejaVuSerif-111"/>
      <use x="261.955078" xlink:href="#DejaVuSerif-100"/>
      <use x="325.96875" xlink:href="#DejaVuSerif-32"/>
      <use x="357.755859" xlink:href="#DejaVuSerif-100"/>
     </g>
    </g>
   </g>
   <g id="matplotlib.axis_2">
    <g id="ytick_1">
     <g id="line2d_23">
      <defs>
       <path d="M 0 0 
L -3.5 0 
" id="mca631b6d18" style="stroke:#000000;stroke-width:0.8;"/>
      </defs>
      <g>
       <use style="stroke:#000000;stroke-width:0.8;" x="265.92" xlink:href="#mca631b6d18" y="145.160974"/>
      </g>
     </g>
     <g id="text_4">
      <!-- 0.0 -->
      <g transform="translate(243.016875 148.960193)scale(0.1 -0.1)">
       <defs>
        <path d="M 9.421875 5.078125 
Q 9.421875 7.8125 11.28125 9.71875 
Q 13.140625 11.625 15.921875 11.625 
Q 18.609375 11.625 20.5 9.71875 
Q 22.40625 7.8125 22.40625 5.078125 
Q 22.40625 2.390625 20.5 0.484375 
Q 18.609375 -1.421875 15.921875 -1.421875 
Q 13.140625 -1.421875 11.28125 0.453125 
Q 9.421875 2.34375 9.421875 5.078125 
z
" id="DejaVuSerif-46"/>
       </defs>
       <use xlink:href="#DejaVuSerif-48"/>
       <use x="63.623047" xlink:href="#DejaVuSerif-46"/>
       <use x="95.410156" xlink:href="#DejaVuSerif-48"/>
      </g>
     </g>
    </g>
    <g id="ytick_2">
     <g id="line2d_24">
      <g>
       <use style="stroke:#000000;stroke-width:0.8;" x="265.92" xlink:href="#mca631b6d18" y="102.775669"/>
      </g>
     </g>
     <g id="text_5">
      <!-- 0.2 -->
      <g transform="translate(243.016875 106.574887)scale(0.1 -0.1)">
       <use xlink:href="#DejaVuSerif-48"/>
       <use x="63.623047" xlink:href="#DejaVuSerif-46"/>
       <use x="95.410156" xlink:href="#DejaVuSerif-50"/>
      </g>
     </g>
    </g>
    <g id="ytick_3">
     <g id="line2d_25">
      <g>
       <use style="stroke:#000000;stroke-width:0.8;" x="265.92" xlink:href="#mca631b6d18" y="60.390363"/>
      </g>
     </g>
     <g id="text_6">
      <!-- 0.4 -->
      <g transform="translate(243.016875 64.189582)scale(0.1 -0.1)">
       <defs>
        <path d="M 34.90625 24.703125 
L 34.90625 63.484375 
L 10.015625 24.703125 
z
M 56.390625 0 
L 23.1875 0 
L 23.1875 5.171875 
L 34.90625 5.171875 
L 34.90625 19.484375 
L 3.078125 19.484375 
L 3.078125 24.8125 
L 35.015625 74.21875 
L 44.671875 74.21875 
L 44.671875 24.703125 
L 58.59375 24.703125 
L 58.59375 19.484375 
L 44.671875 19.484375 
L 44.671875 5.171875 
L 56.390625 5.171875 
z
" id="DejaVuSerif-52"/>
       </defs>
       <use xlink:href="#DejaVuSerif-48"/>
       <use x="63.623047" xlink:href="#DejaVuSerif-46"/>
       <use x="95.410156" xlink:href="#DejaVuSerif-52"/>
      </g>
     </g>
    </g>
    <g id="text_7">
     <!-- Power -->
     <g transform="translate(236.937188 111.583696)rotate(-90)scale(0.1 -0.1)">
      <defs>
       <path d="M 48 51.90625 
L 61.28125 11.375 
L 73 46.6875 
L 65.484375 46.6875 
L 65.484375 51.90625 
L 84.28125 51.90625 
L 84.28125 46.6875 
L 78.515625 46.6875 
L 63.09375 0 
L 55.609375 0 
L 42.828125 38.8125 
L 29.984375 0 
L 22.796875 0 
L 7.421875 46.6875 
L 1.609375 46.6875 
L 1.609375 51.90625 
L 25.09375 51.90625 
L 25.09375 46.6875 
L 16.703125 46.6875 
L 28.328125 11.375 
L 41.703125 51.90625 
z
" id="DejaVuSerif-119"/>
      </defs>
      <use xlink:href="#DejaVuSerif-80"/>
      <use x="63.285156" xlink:href="#DejaVuSerif-111"/>
      <use x="123.490234" xlink:href="#DejaVuSerif-119"/>
      <use x="209.085938" xlink:href="#DejaVuSerif-101"/>
      <use x="268.265625" xlink:href="#DejaVuSerif-114"/>
     </g>
    </g>
   </g>
   <g id="LineCollection_1">
    <path clip-path="url(#p2fd8eb4f06)" d="M 272.688076 46.409143 
L 407.956364 46.409143 
" style="fill:none;stroke:#808080;stroke-dasharray:5.55,2.4;stroke-dashoffset:0;stroke-width:1.5;"/>
   </g>
   <g id="LineCollection_2">
    <path clip-path="url(#p2fd8eb4f06)" d="M 272.688076 60.360071 
L 407.956364 60.360071 
" style="fill:none;stroke:#a9a9a9;stroke-dasharray:5.55,2.4;stroke-dashoffset:0;stroke-width:1.5;"/>
   </g>
   <g id="LineCollection_3">
    <path clip-path="url(#p2fd8eb4f06)" d="M 272.688076 71.345363 
L 407.956364 71.345363 
" style="fill:none;stroke:#c0c0c0;stroke-dasharray:5.55,2.4;stroke-dashoffset:0;stroke-width:1.5;"/>
   </g>
   <g id="LineCollection_4">
    <path clip-path="url(#p2fd8eb4f06)" d="M 272.688076 76.534669 
L 407.956364 76.534669 
" style="fill:none;stroke:#d3d3d3;stroke-dasharray:5.55,2.4;stroke-dashoffset:0;stroke-width:1.5;"/>
   </g>
   <g id="line2d_26">
    <path clip-path="url(#p2fd8eb4f06)" d="M 407.956364 145.130787 
L 403.213616 130.9684 
L 399.227255 117.444662 
L 395.788878 117.317751 
L 392.765875 123.155214 
L 390.068617 133.513745 
L 387.633683 136.947704 
L 383.376032 108.775898 
L 381.490955 106.086312 
L 379.73782 106.999146 
L 378.099359 120.776722 
L 376.561486 134.86176 
L 375.112563 132.068886 
L 373.74286 120.174674 
L 372.444161 118.201376 
L 371.209467 120.490984 
L 370.032763 126.448044 
L 368.908846 134.440235 
L 367.833182 140.753441 
L 366.801799 138.494593 
L 365.811193 133.317455 
L 364.858264 130.819763 
L 363.940249 131.20909 
L 363.054681 135.503475 
L 362.199344 141.24115 
L 361.372241 136.488605 
L 360.571569 131.193824 
L 359.79569 128.335065 
L 359.043114 126.648372 
L 358.312483 129.124742 
L 357.602554 136.812468 
L 356.912184 132.330877 
L 356.240326 126.36268 
L 355.586012 127.418192 
L 354.948349 130.201275 
L 354.326511 137.210375 
L 353.719731 142.695851 
L 353.127298 138.837471 
L 352.548548 136.361779 
L 351.982864 136.885611 
L 351.429669 139.391556 
L 350.888423 143.185917 
L 350.358621 142.541305 
L 349.839788 134.882327 
L 349.331481 132.618888 
L 348.83328 132.797225 
L 348.344791 134.57738 
L 347.865643 138.530478 
L 347.395485 136.921592 
L 346.933987 125.266631 
L 346.480834 120.293852 
L 346.035731 120.812414 
L 345.598396 123.286788 
L 345.168563 131.144817 
L 344.745979 130.420488 
L 344.330404 119.100897 
L 343.921608 117.929204 
L 343.519374 121.071876 
L 343.123495 125.505847 
L 342.733774 135.015555 
L 342.35002 136.731596 
L 341.972055 129.857254 
L 341.599707 129.135089 
L 341.23281 133.630031 
L 340.871208 140.152016 
L 340.51475 144.162052 
L 340.163291 144.620595 
L 339.816694 142.64085 
L 339.474825 142.33436 
L 339.137558 143.378932 
L 338.476344 140.530889 
L 338.152167 141.40956 
L 337.516128 143.971565 
L 337.204063 142.136111 
L 336.895836 139.39507 
L 336.591354 140.393214 
L 336.290527 143.754396 
L 335.993269 144.975319 
L 335.699496 142.009297 
L 335.409128 137.450498 
L 335.122085 136.099387 
L 334.838294 139.088237 
L 334.55768 144.293484 
L 334.280174 143.265872 
L 334.005708 139.426183 
L 333.734215 138.517734 
L 333.199898 144.105396 
L 332.936952 136.225602 
L 332.676737 121.694233 
L 332.419196 115.526095 
L 332.164275 114.047031 
L 331.911921 117.89831 
L 331.662084 128.664278 
L 331.414712 125.471886 
L 331.169759 113.940102 
L 330.927177 113.811316 
L 330.686922 120.585546 
L 330.213212 143.211018 
L 329.979673 143.358238 
L 329.748291 139.195224 
L 329.519026 138.143875 
L 329.066695 144.6158 
L 328.843554 144.091076 
L 328.185814 132.010578 
L 327.970348 131.887447 
L 327.544897 141.477371 
L 327.33485 138.159619 
L 327.126548 132.904035 
L 326.919965 131.688711 
L 326.71507 134.056214 
L 326.310239 144.511387 
L 326.11025 144.79401 
L 325.911845 143.553379 
L 325.714998 143.723786 
L 325.519686 144.906776 
L 325.325884 144.637502 
L 324.753312 136.388926 
L 324.565326 137.663517 
L 324.193532 144.037914 
L 324.009683 144.021076 
L 323.645984 135.954736 
L 323.287487 129.18592 
L 323.110144 128.422444 
L 322.934048 130.374864 
L 322.75918 135.107425 
L 322.585524 133.310323 
L 322.241781 115.01452 
L 322.071662 117.809902 
L 321.568126 141.959464 
L 321.237971 134.629361 
L 321.07451 136.797263 
L 320.912109 142.592212 
L 320.750753 143.820786 
L 320.431126 133.740724 
L 320.272828 134.328618 
L 319.803848 144.827318 
L 319.649452 144.584265 
L 319.496001 144.752126 
L 319.343484 142.792015 
L 318.891425 119.7756 
L 318.742534 124.005299 
L 318.447378 138.014819 
L 318.011062 112.447402 
L 317.867296 118.852985 
L 317.582214 141.798306 
L 317.44088 142.856554 
L 317.160581 133.50583 
L 317.021599 135.028594 
L 316.745926 143.740659 
L 316.609219 143.900271 
L 316.473253 143.491298 
L 316.203515 141.760435 
L 315.936649 143.119128 
L 315.672596 144.49711 
L 315.411296 141.478653 
L 315.152693 138.998385 
L 314.769725 144.870423 
L 314.517626 136.22162 
L 314.268038 129.950214 
L 314.020912 141.015555 
L 313.898256 140.222772 
L 313.654732 127.629343 
L 313.533852 129.111747 
L 313.293827 143.366292 
L 313.174672 143.223049 
L 312.938046 138.561832 
L 312.703635 144.358873 
L 312.356079 131.313371 
L 312.24129 132.560661 
L 312.013277 139.496647 
L 311.78732 125.873764 
L 311.675102 126.083268 
L 311.34143 144.898405 
L 311.231186 144.282768 
L 311.012142 142.005173 
L 310.794997 140.567244 
L 310.472767 144.59305 
L 310.260226 132.549042 
L 310.154628 132.837241 
L 309.944758 139.422462 
L 309.840478 130.571142 
L 309.633211 97.005371 
L 309.530217 98.67687 
L 309.32549 122.663357 
L 309.223751 118.625704 
L 309.021503 101.478773 
L 308.920988 109.224125 
L 308.621839 143.36405 
L 308.424372 136.44919 
L 308.228449 144.205043 
L 308.13106 143.912375 
L 307.84114 123.902435 
L 307.745241 127.734448 
L 307.554537 140.504423 
L 307.271175 118.782428 
L 306.990981 144.569729 
L 306.898275 143.151176 
L 306.713886 136.776439 
L 306.530844 143.603775 
L 306.439822 137.562544 
L 306.258763 114.307529 
L 306.168722 115.656149 
L 305.900524 135.110834 
L 305.723307 122.553376 
L 305.635166 125.605975 
L 305.372589 144.420927 
L 305.285671 145.125176 
L 305.026712 143.267346 
L 304.940984 143.99635 
L 304.855548 143.587051 
L 304.600973 130.511494 
L 304.516687 130.79425 
L 304.432682 134.495699 
L 304.348959 131.544175 
L 304.099454 97.042674 
L 303.852409 123.460916 
L 303.770599 119.872679 
L 303.689056 112.865204 
L 303.607776 113.455835 
L 303.446004 132.391582 
L 303.365508 127.474004 
L 303.205288 100.705239 
L 303.12556 103.157689 
L 302.966862 117.471091 
L 302.887888 112.333528 
L 302.730683 89.757177 
L 302.419202 135.269582 
L 302.188105 120.770662 
L 301.95912 144.629675 
L 301.732209 135.058609 
L 301.582069 144.791452 
L 301.358531 126.968736 
L 301.28446 130.305841 
L 301.13697 143.407409 
L 300.917351 127.518626 
L 300.772001 142.440905 
L 300.69964 141.929238 
L 300.555543 122.216558 
L 300.483805 123.459167 
L 300.34094 141.230905 
L 300.269812 138.76992 
L 300.128159 114.398434 
L 300.057631 117.23853 
L 299.847232 138.547326 
L 299.638585 105.912543 
L 299.56942 108.813775 
L 299.431661 129.671037 
L 299.363064 127.159911 
L 299.226432 101.321848 
L 299.022869 135.326328 
L 298.955381 131.906486 
L 298.820947 114.236771 
L 298.687231 133.584375 
L 298.62064 130.366651 
L 298.487985 105.357908 
L 298.42192 106.545261 
L 298.290311 129.390413 
L 298.224765 128.474251 
L 298.094184 116.00739 
L 297.89958 140.537709 
L 297.835046 139.76478 
L 297.642437 126.70415 
L 297.514848 135.970656 
L 297.387906 112.765024 
L 297.261603 87.179713 
L 297.135934 107.827643 
L 297.073335 106.048699 
L 296.948604 80.777561 
L 296.886471 81.160208 
L 296.70099 126.317824 
L 296.578094 115.83051 
L 296.394874 140.826432 
L 296.334097 133.360336 
L 296.212983 113.528857 
L 296.032403 139.816473 
L 295.853115 123.632365 
L 295.793636 124.046008 
L 295.616043 144.162984 
L 295.498342 133.478194 
L 295.439699 135.402592 
L 295.322822 144.199405 
L 295.148522 115.056947 
L 295.090691 122.367785 
L 294.975427 133.984932 
L 294.803519 110.606326 
L 294.632782 141.994385 
L 294.576127 137.128963 
L 294.463201 129.068942 
L 294.350781 144.099311 
L 294.294759 141.920163 
L 294.183091 125.650589 
L 294.127442 127.113298 
L 294.016515 140.889297 
L 293.961236 140.880161 
L 293.796124 113.619836 
L 293.741328 119.068097 
L 293.632093 138.261842 
L 293.577654 132.874221 
L 293.469129 109.479058 
L 293.361072 131.242777 
L 293.307218 129.771919 
L 293.146346 105.312411 
L 293.039669 125.734512 
L 292.9865 121.629955 
L 292.8805 104.774747 
L 292.827668 109.798752 
L 292.722336 135.405465 
L 292.669836 133.338047 
L 292.565165 123.099104 
L 292.408972 142.966039 
L 292.357124 139.474993 
L 292.305382 135.958803 
L 292.253748 137.17575 
L 292.150796 144.778195 
L 292.099478 144.234303 
L 291.997158 138.063088 
L 291.946153 139.16466 
L 291.844455 144.917568 
L 291.743168 134.047623 
L 291.692678 125.459247 
L 291.642289 126.489232 
L 291.541814 140.078166 
L 291.491728 136.850104 
L 291.391854 121.422173 
L 291.342066 123.079951 
L 291.242785 140.687757 
L 291.193292 138.982193 
L 291.045396 121.022366 
L 290.947282 140.701309 
L 290.898369 136.094373 
L 290.752198 110.012416 
L 290.606876 135.904118 
L 290.462392 106.592125 
L 290.414415 115.53888 
L 290.318735 141.294963 
L 290.271032 137.659365 
L 290.175898 125.011483 
L 290.081123 141.91264 
L 290.03387 135.863194 
L 289.93963 104.431882 
L 289.892643 109.982959 
L 289.798932 125.904817 
L 289.752207 117.539215 
L 289.659019 92.481358 
L 289.612554 106.214275 
L 289.519883 135.013506 
L 289.473675 132.029838 
L 289.381515 113.874945 
L 289.289692 136.423941 
L 289.243907 134.780131 
L 289.10705 111.004304 
L 288.970937 138.010637 
L 288.92573 134.663814 
L 288.835559 123.68946 
L 288.790596 125.862327 
L 288.656186 143.2513 
L 288.611543 141.474958 
L 288.522494 137.729008 
L 288.43376 145.085854 
L 288.389511 143.176088 
L 288.301246 136.577601 
L 288.25723 138.744908 
L 288.213291 142.734466 
L 288.169429 141.7107 
L 288.038302 124.408126 
L 287.907857 143.101539 
L 287.82127 133.278157 
L 287.778088 135.736148 
L 287.691947 143.993992 
L 287.563288 118.665691 
L 287.520548 126.235894 
L 287.435287 135.694053 
L 287.307936 100.156215 
L 287.265629 105.071721 
L 287.181229 132.588714 
L 287.139135 126.663194 
L 287.05516 105.906352 
L 287.013277 113.656472 
L 286.929721 136.30769 
L 286.888048 126.413941 
L 286.804908 107.652322 
L 286.763441 119.610459 
L 286.722043 133.046264 
L 286.680713 130.871517 
L 286.55713 99.557748 
L 286.475079 133.434562 
L 286.393296 120.022593 
L 286.352504 108.150151 
L 286.311779 112.841665 
L 286.189998 143.164748 
L 286.149536 137.055147 
L 286.109139 130.832795 
L 286.068806 131.666509 
L 285.948198 144.856601 
L 285.908124 141.018137 
L 285.828167 126.920831 
L 285.788285 128.989578 
L 285.708709 139.952183 
L 285.669016 133.406641 
L 285.589817 111.060916 
L 285.550312 115.452428 
L 285.471487 136.052467 
L 285.432167 133.663346 
L 285.353713 120.942596 
L 285.314578 129.804171 
L 285.23649 143.208219 
L 285.197537 136.069299 
L 285.119812 126.26289 
L 285.08104 133.526536 
L 285.042328 136.671104 
L 284.926549 105.769769 
L 284.888075 109.782924 
L 284.811303 129.291837 
L 284.773005 127.815934 
L 284.696584 112.461258 
L 284.658461 113.80313 
L 284.544439 137.620132 
L 284.506546 128.119783 
L 284.468711 121.510222 
L 284.430932 125.329341 
L 284.393211 132.101371 
L 284.355546 132.001546 
L 284.24289 95.779637 
L 284.205451 106.278102 
L 284.130739 132.227491 
L 284.093466 129.578696 
L 284.019087 119.153485 
L 283.98198 128.238169 
L 283.90793 143.121472 
L 283.834099 142.45906 
L 283.760485 145.09476 
L 283.613901 130.153997 
L 283.577389 132.61567 
L 283.46817 143.654937 
L 283.43187 137.821398 
L 283.359426 121.842485 
L 283.323282 126.754252 
L 283.251151 144.521773 
L 283.215163 142.199862 
L 283.143342 132.224708 
L 283.107508 137.091615 
L 283.071726 142.389978 
L 283.035995 135.266493 
L 282.929106 96.059459 
L 282.893577 107.415888 
L 282.822671 129.342181 
L 282.787292 116.089427 
L 282.751964 100.960643 
L 282.716685 103.112559 
L 282.576066 144.207007 
L 282.541034 141.330959 
L 282.506051 140.4717 
L 282.436231 143.805739 
L 282.401394 141.954436 
L 282.297172 137.135614 
L 282.227931 144.365995 
L 282.193382 142.872123 
L 282.124427 131.041577 
L 282.09002 132.095055 
L 281.987083 144.09911 
L 281.952864 140.084302 
L 281.918692 137.770748 
L 281.884566 139.644711 
L 281.850487 143.842441 
L 281.816455 143.151326 
L 281.714633 128.580485 
L 281.680784 131.515252 
L 281.613223 139.882815 
L 281.57951 133.938908 
L 281.512222 123.9403 
L 281.478645 129.565024 
L 281.411626 143.060023 
L 281.344786 137.144047 
L 281.311432 133.558609 
L 281.278123 134.321749 
L 281.178461 144.987817 
L 281.145328 142.158263 
L 281.112239 138.875964 
L 281.046192 142.910887 
L 281.013234 145.152 
L 280.980318 141.551819 
L 280.914617 133.385098 
L 280.881831 137.94029 
L 280.849088 143.623191 
L 280.816388 143.227057 
L 280.751115 129.573222 
L 280.686011 138.002911 
L 280.653522 144.888862 
L 280.588672 138.79266 
L 280.556309 138.255209 
L 280.491709 145.099848 
L 280.459471 141.868488 
L 280.39512 132.961276 
L 280.363006 134.920986 
L 280.298902 144.82941 
L 280.234961 142.499723 
L 280.107567 136.479001 
L 280.07582 138.029317 
L 280.012445 144.814973 
L 279.980818 141.958623 
L 279.917683 133.04778 
L 279.886175 134.526206 
L 279.729226 144.296144 
L 279.697954 144.800677 
L 279.604371 131.786518 
L 279.542176 138.491754 
L 279.480135 145.132526 
L 279.418247 141.9343 
L 279.38736 142.32321 
L 279.356512 141.432334 
L 279.294928 138.621585 
L 279.264193 140.783075 
L 279.202836 145.001888 
L 279.141628 143.168138 
L 279.01966 139.034336 
L 278.98926 140.966463 
L 278.898282 144.77954 
L 278.868029 142.731933 
L 278.747382 126.734425 
L 278.717311 128.305474 
L 278.687276 135.00535 
L 278.657277 133.676516 
L 278.597386 105.520881 
L 278.537638 118.494276 
L 278.478032 138.796884 
L 278.418567 126.43708 
L 278.329634 140.870139 
L 278.30006 131.357535 
L 278.241016 110.200403 
L 278.211546 115.509774 
L 278.152709 139.517731 
L 278.094011 125.616348 
L 278.064713 127.004981 
L 277.918736 144.003121 
L 277.889643 144.96877 
L 277.802564 131.934699 
L 277.773605 134.56177 
L 277.686927 143.964163 
L 277.629309 143.617405 
L 277.600549 144.011259 
L 277.514467 130.115535 
L 277.485839 134.470735 
L 277.42868 144.462032 
L 277.40015 138.478235 
L 277.343186 131.133262 
L 277.314753 136.740277 
L 277.286352 144.290135 
L 277.229646 132.11926 
L 277.201341 126.936509 
L 277.144827 136.906013 
L 277.116617 143.120668 
L 277.08844 139.290481 
L 277.032179 126.003639 
L 276.976045 133.489214 
L 276.920036 143.36177 
L 276.892079 137.183629 
L 276.836257 131.267047 
L 276.808393 138.127971 
L 276.780559 144.784338 
L 276.724985 136.961885 
L 276.697244 133.287843 
L 276.669534 136.275307 
L 276.641855 143.557329 
L 276.586587 133.174268 
L 276.531441 126.449955 
L 276.503913 133.328403 
L 276.476416 136.35505 
L 276.394104 113.475519 
L 276.366727 117.069395 
L 276.312062 134.727142 
L 276.257517 120.709578 
L 276.013519 143.398853 
L 275.986554 145.047582 
L 275.959619 142.696278 
L 275.852164 122.382343 
L 275.825372 130.383989 
L 275.798609 137.213077 
L 275.771875 126.815099 
L 275.718491 104.78517 
L 275.66522 127.787352 
L 275.638628 141.135775 
L 275.559018 130.639246 
L 275.506086 143.597368 
L 275.479661 135.073134 
L 275.426896 115.609041 
L 275.374241 129.881176 
L 275.347955 139.725283 
L 275.295466 123.987998 
L 275.243086 120.163034 
L 275.216938 122.240456 
L 275.190816 141.871809 
L 275.086602 136.784382 
L 275.060615 142.290162 
L 275.034656 139.637579 
L 274.95694 115.966992 
L 274.931088 122.157116 
L 274.879464 136.846214 
L 274.853692 122.254456 
L 274.827946 118.045974 
L 274.802226 121.509273 
L 274.725226 142.521553 
L 274.674024 129.451873 
L 274.597417 141.957432 
L 274.571933 129.574341 
L 274.521042 115.674353 
L 274.495636 125.15458 
L 274.4449 143.698099 
L 274.368989 136.440684 
L 274.343736 136.22864 
L 274.318509 133.50709 
L 274.293307 135.25886 
L 274.26813 142.944126 
L 274.217853 134.557703 
L 274.167676 123.980392 
L 274.142625 129.680141 
L 274.117599 140.032485 
L 274.067622 125.769209 
L 274.017745 120.059187 
L 273.992843 127.180467 
L 273.967967 136.213929 
L 273.918287 118.506964 
L 273.868706 126.657639 
L 273.819223 140.418753 
L 273.74518 133.86678 
L 273.69594 144.843612 
L 273.646797 135.511364 
L 273.622261 136.216329 
L 273.573261 144.826734 
L 273.524357 136.628307 
L 273.499941 133.387617 
L 273.45118 140.008333 
L 273.426835 144.235092 
L 273.402514 141.388271 
L 273.329691 124.835166 
L 273.305463 130.60179 
L 273.257079 142.799106 
L 273.208788 131.347167 
L 272.992621 144.89495 
L 272.968717 142.067919 
L 272.920978 136.485497 
L 272.873329 142.402995 
L 272.825771 141.922886 
L 272.778303 144.831782 
L 272.754603 142.08964 
L 272.70727 133.510555 
L 272.683636 133.824574 
" style="fill:none;stroke:#1f77b4;stroke-linecap:square;stroke-width:1.5;"/>
   </g>
   <g id="patch_3">
    <path d="M 265.92 150.089143 
L 265.92 41.472 
" style="fill:none;stroke:#000000;stroke-linecap:square;stroke-linejoin:miter;stroke-width:0.8;"/>
   </g>
   <g id="patch_4">
    <path d="M 414.72 150.089143 
L 414.72 41.472 
" style="fill:none;stroke:#000000;stroke-linecap:square;stroke-linejoin:miter;stroke-width:0.8;"/>
   </g>
   <g id="patch_5">
    <path d="M 265.92 150.089143 
L 414.72 150.089143 
" style="fill:none;stroke:#000000;stroke-linecap:square;stroke-linejoin:miter;stroke-width:0.8;"/>
   </g>
   <g id="patch_6">
    <path d="M 265.92 41.472 
L 414.72 41.472 
" style="fill:none;stroke:#000000;stroke-linecap:square;stroke-linejoin:miter;stroke-width:0.8;"/>
   </g>
   <g id="text_8">
    <!-- Periodogram -->
    <g transform="translate(307.698125 35.472)scale(0.1 -0.1)">
     <defs>
      <path d="M 52.484375 46.6875 
L 52.484375 1.125 
Q 52.484375 -10.0625 46.328125 -16.140625 
Q 40.1875 -22.21875 28.8125 -22.21875 
Q 23.6875 -22.21875 19 -21.28125 
Q 14.3125 -20.359375 10.015625 -18.5 
L 10.015625 -7.625 
L 14.703125 -7.625 
Q 15.578125 -12.703125 18.84375 -15.046875 
Q 22.125 -17.390625 28.21875 -17.390625 
Q 36.140625 -17.390625 39.8125 -12.921875 
Q 43.5 -8.453125 43.5 1.125 
L 43.5 8.109375 
Q 40.875 3.21875 36.796875 0.890625 
Q 32.71875 -1.421875 26.703125 -1.421875 
Q 17.140625 -1.421875 11.0625 6.171875 
Q 4.984375 13.765625 4.984375 25.984375 
Q 4.984375 38.1875 11.03125 45.75 
Q 17.09375 53.328125 26.703125 53.328125 
Q 32.71875 53.328125 36.796875 51 
Q 40.875 48.6875 43.5 43.796875 
L 43.5 51.90625 
L 61.078125 51.90625 
L 61.078125 46.6875 
z
M 43.5 28.515625 
Q 43.5 37.84375 39.90625 42.765625 
Q 36.328125 47.703125 29.5 47.703125 
Q 22.5625 47.703125 19.015625 42.234375 
Q 15.484375 36.765625 15.484375 25.984375 
Q 15.484375 15.234375 19.015625 9.71875 
Q 22.5625 4.203125 29.5 4.203125 
Q 36.328125 4.203125 39.90625 9.109375 
Q 43.5 14.015625 43.5 23.390625 
z
" id="DejaVuSerif-103"/>
      <path d="M 39.796875 16.3125 
L 39.796875 27.296875 
L 28.21875 27.296875 
Q 21.53125 27.296875 18.25 24.40625 
Q 14.984375 21.53125 14.984375 15.578125 
Q 14.984375 10.15625 18.296875 6.984375 
Q 21.625 3.8125 27.296875 3.8125 
Q 32.90625 3.8125 36.34375 7.28125 
Q 39.796875 10.75 39.796875 16.3125 
z
M 48.78125 32.421875 
L 48.78125 5.171875 
L 56.78125 5.171875 
L 56.78125 0 
L 39.796875 0 
L 39.796875 5.609375 
Q 36.8125 2 32.90625 0.28125 
Q 29 -1.421875 23.78125 -1.421875 
Q 15.140625 -1.421875 10.0625 3.171875 
Q 4.984375 7.765625 4.984375 15.578125 
Q 4.984375 23.640625 10.796875 28.078125 
Q 16.609375 32.515625 27.203125 32.515625 
L 39.796875 32.515625 
L 39.796875 36.078125 
Q 39.796875 42 36.203125 45.234375 
Q 32.625 48.484375 26.125 48.484375 
Q 20.75 48.484375 17.578125 46.046875 
Q 14.40625 43.609375 13.625 38.8125 
L 8.984375 38.8125 
L 8.984375 49.3125 
Q 13.671875 51.3125 18.09375 52.3125 
Q 22.515625 53.328125 26.703125 53.328125 
Q 37.5 53.328125 43.140625 47.96875 
Q 48.78125 42.625 48.78125 32.421875 
z
" id="DejaVuSerif-97"/>
      <path d="M 51.8125 41.796875 
Q 54.390625 47.515625 58.421875 50.421875 
Q 62.453125 53.328125 67.828125 53.328125 
Q 75.984375 53.328125 79.984375 48.265625 
Q 83.984375 43.21875 83.984375 33.015625 
L 83.984375 5.171875 
L 92.09375 5.171875 
L 92.09375 0 
L 67.1875 0 
L 67.1875 5.171875 
L 75 5.171875 
L 75 31.984375 
Q 75 39.9375 72.65625 43.3125 
Q 70.3125 46.6875 64.890625 46.6875 
Q 58.890625 46.6875 55.734375 42.140625 
Q 52.59375 37.59375 52.59375 28.90625 
L 52.59375 5.171875 
L 60.40625 5.171875 
L 60.40625 0 
L 35.796875 0 
L 35.796875 5.171875 
L 43.609375 5.171875 
L 43.609375 32.328125 
Q 43.609375 40.09375 41.265625 43.390625 
Q 38.921875 46.6875 33.5 46.6875 
Q 27.484375 46.6875 24.328125 42.140625 
Q 21.1875 37.59375 21.1875 28.90625 
L 21.1875 5.171875 
L 29 5.171875 
L 29 0 
L 4.109375 0 
L 4.109375 5.171875 
L 12.203125 5.171875 
L 12.203125 46.78125 
L 3.609375 46.78125 
L 3.609375 51.90625 
L 21.1875 51.90625 
L 21.1875 42.671875 
Q 23.6875 47.859375 27.53125 50.59375 
Q 31.390625 53.328125 36.28125 53.328125 
Q 42.328125 53.328125 46.375 50.3125 
Q 50.4375 47.3125 51.8125 41.796875 
z
" id="DejaVuSerif-109"/>
     </defs>
     <use xlink:href="#DejaVuSerif-80"/>
     <use x="62.785156" xlink:href="#DejaVuSerif-101"/>
     <use x="121.964844" xlink:href="#DejaVuSerif-114"/>
     <use x="169.767578" xlink:href="#DejaVuSerif-105"/>
     <use x="201.75" xlink:href="#DejaVuSerif-111"/>
     <use x="261.955078" xlink:href="#DejaVuSerif-100"/>
     <use x="325.96875" xlink:href="#DejaVuSerif-111"/>
     <use x="386.173828" xlink:href="#DejaVuSerif-103"/>
     <use x="450.1875" xlink:href="#DejaVuSerif-114"/>
     <use x="497.990234" xlink:href="#DejaVuSerif-97"/>
     <use x="557.609375" xlink:href="#DejaVuSerif-109"/>
    </g>
   </g>
   <g id="legend_1">
    <g id="patch_7">
     <path d="M 419.648125 108.123071 
L 454.431875 108.123071 
Q 455.231875 108.123071 455.231875 107.323071 
L 455.231875 84.238071 
Q 455.231875 83.438071 454.431875 83.438071 
L 419.648125 83.438071 
Q 418.848125 83.438071 418.848125 84.238071 
L 418.848125 107.323071 
Q 418.848125 108.123071 419.648125 108.123071 
z
" style="fill:#ffffff;opacity:0.8;stroke:#cccccc;stroke-linejoin:miter;"/>
    </g>
    <g id="line2d_27">
     <path d="M 420.448125 86.677446 
L 428.448125 86.677446 
" style="fill:none;stroke:#808080;stroke-dasharray:5.55,2.4;stroke-dashoffset:0;stroke-width:1.5;"/>
    </g>
    <g id="text_9">
     <!-- 99.9% FAP -->
     <g transform="translate(431.648125 88.077446)scale(0.04 -0.04)">
      <defs>
       <path d="M 46.78125 32.671875 
Q 43.5 29 39.25 27.1875 
Q 35.015625 25.390625 29.6875 25.390625 
Q 18.84375 25.390625 12.5625 31.9375 
Q 6.296875 38.484375 6.296875 49.8125 
Q 6.296875 60.890625 13.109375 67.546875 
Q 19.921875 74.21875 31.296875 74.21875 
Q 43.65625 74.21875 50.265625 65.015625 
Q 56.890625 55.8125 56.890625 38.71875 
Q 56.890625 19.578125 49.015625 9.078125 
Q 41.15625 -1.421875 26.90625 -1.421875 
Q 23.046875 -1.421875 18.796875 -0.6875 
Q 14.546875 0.046875 10.109375 1.515625 
L 10.109375 13.625 
L 15.578125 13.625 
Q 16.21875 8.6875 19.390625 6.046875 
Q 22.5625 3.421875 27.875 3.421875 
Q 37.359375 3.421875 41.984375 10.5625 
Q 46.625 17.71875 46.78125 32.671875 
z
M 30.90625 69.390625 
Q 23.96875 69.390625 20.28125 64.328125 
Q 16.609375 59.28125 16.609375 49.8125 
Q 16.609375 40.328125 20.28125 35.25 
Q 23.96875 30.171875 30.90625 30.171875 
Q 37.84375 30.171875 41.53125 35.078125 
Q 45.21875 39.984375 45.21875 49.21875 
Q 45.21875 58.9375 41.5 64.15625 
Q 37.796875 69.390625 30.90625 69.390625 
z
" id="DejaVuSerif-57"/>
       <path d="M 22.40625 69.671875 
Q 18.109375 69.671875 15.6875 65.625 
Q 13.28125 61.578125 13.28125 54.296875 
Q 13.28125 47.125 15.75 43.015625 
Q 18.21875 38.921875 22.40625 38.921875 
Q 26.5625 38.921875 28.96875 43 
Q 31.390625 47.078125 31.390625 54.296875 
Q 31.390625 61.53125 28.96875 65.59375 
Q 26.5625 69.671875 22.40625 69.671875 
z
M 72.703125 33.890625 
Q 68.453125 33.890625 66.03125 29.78125 
Q 63.625 25.6875 63.625 18.40625 
Q 63.625 11.234375 66.0625 7.15625 
Q 68.5 3.078125 72.703125 3.078125 
Q 76.90625 3.078125 79.296875 7.15625 
Q 81.6875 11.234375 81.6875 18.40625 
Q 81.6875 25.640625 79.265625 29.765625 
Q 76.859375 33.890625 72.703125 33.890625 
z
M 72.703125 38.28125 
Q 80.421875 38.28125 84.953125 32.90625 
Q 89.5 27.546875 89.5 18.40625 
Q 89.5 9.28125 84.9375 3.921875 
Q 80.375 -1.421875 72.703125 -1.421875 
Q 64.890625 -1.421875 60.34375 3.921875 
Q 55.8125 9.28125 55.8125 18.40625 
Q 55.8125 27.59375 60.375 32.9375 
Q 64.9375 38.28125 72.703125 38.28125 
z
M 66.609375 74.21875 
L 74.03125 74.21875 
L 28.421875 -1.421875 
L 21 -1.421875 
z
M 22.3125 74.21875 
Q 30.03125 74.21875 34.609375 68.875 
Q 39.203125 63.53125 39.203125 54.390625 
Q 39.203125 45.171875 34.640625 39.84375 
Q 30.078125 34.515625 22.3125 34.515625 
Q 14.546875 34.515625 10.03125 39.859375 
Q 5.515625 45.21875 5.515625 54.390625 
Q 5.515625 63.484375 10.046875 68.84375 
Q 14.59375 74.21875 22.3125 74.21875 
z
" id="DejaVuSerif-37"/>
       <path d="M 5.515625 0 
L 5.515625 5.171875 
L 14.796875 5.171875 
L 14.796875 67.671875 
L 5.515625 67.671875 
L 5.515625 72.90625 
L 65.1875 72.90625 
L 65.1875 56.6875 
L 59.1875 56.6875 
L 59.1875 66.890625 
L 24.703125 66.890625 
L 24.703125 42.484375 
L 49.609375 42.484375 
L 49.609375 51.609375 
L 55.609375 51.609375 
L 55.609375 27.390625 
L 49.609375 27.390625 
L 49.609375 36.53125 
L 24.703125 36.53125 
L 24.703125 5.171875 
L 36.375 5.171875 
L 36.375 0 
z
" id="DejaVuSerif-70"/>
       <path d="M 20.015625 26.421875 
L 46.78125 26.421875 
L 33.40625 61.078125 
z
M -0.59375 0 
L -0.59375 5.171875 
L 5.8125 5.171875 
L 31.78125 72.90625 
L 39.984375 72.90625 
L 66.015625 5.171875 
L 73.1875 5.171875 
L 73.1875 0 
L 46.6875 0 
L 46.6875 5.171875 
L 54.78125 5.171875 
L 48.6875 21.1875 
L 18.015625 21.1875 
L 11.921875 5.171875 
L 19.921875 5.171875 
L 19.921875 0 
z
" id="DejaVuSerif-65"/>
      </defs>
      <use xlink:href="#DejaVuSerif-57"/>
      <use x="63.623047" xlink:href="#DejaVuSerif-57"/>
      <use x="127.246094" xlink:href="#DejaVuSerif-46"/>
      <use x="159.033203" xlink:href="#DejaVuSerif-57"/>
      <use x="222.65625" xlink:href="#DejaVuSerif-37"/>
      <use x="317.675781" xlink:href="#DejaVuSerif-32"/>
      <use x="349.462891" xlink:href="#DejaVuSerif-70"/>
      <use x="410.097656" xlink:href="#DejaVuSerif-65"/>
      <use x="482.314453" xlink:href="#DejaVuSerif-80"/>
     </g>
    </g>
    <g id="line2d_28">
     <path d="M 420.448125 92.548696 
L 428.448125 92.548696 
" style="fill:none;stroke:#a9a9a9;stroke-dasharray:5.55,2.4;stroke-dashoffset:0;stroke-width:1.5;"/>
    </g>
    <g id="text_10">
     <!-- 99.0% FAP -->
     <g transform="translate(431.648125 93.948696)scale(0.04 -0.04)">
      <use xlink:href="#DejaVuSerif-57"/>
      <use x="63.623047" xlink:href="#DejaVuSerif-57"/>
      <use x="127.246094" xlink:href="#DejaVuSerif-46"/>
      <use x="159.033203" xlink:href="#DejaVuSerif-48"/>
      <use x="222.65625" xlink:href="#DejaVuSerif-37"/>
      <use x="317.675781" xlink:href="#DejaVuSerif-32"/>
      <use x="349.462891" xlink:href="#DejaVuSerif-70"/>
      <use x="410.097656" xlink:href="#DejaVuSerif-65"/>
      <use x="482.314453" xlink:href="#DejaVuSerif-80"/>
     </g>
    </g>
    <g id="line2d_29">
     <path d="M 420.448125 98.419946 
L 428.448125 98.419946 
" style="fill:none;stroke:#c0c0c0;stroke-dasharray:5.55,2.4;stroke-dashoffset:0;stroke-width:1.5;"/>
    </g>
    <g id="text_11">
     <!-- 95.0% FAP -->
     <g transform="translate(431.648125 99.819946)scale(0.04 -0.04)">
      <defs>
       <path d="M 50.296875 72.90625 
L 50.296875 64.890625 
L 16.890625 64.890625 
L 16.890625 44 
Q 19.4375 45.75 22.828125 46.625 
Q 26.21875 47.515625 30.421875 47.515625 
Q 42.234375 47.515625 49.0625 40.96875 
Q 55.90625 34.421875 55.90625 23.09375 
Q 55.90625 11.53125 49 5.046875 
Q 42.09375 -1.421875 29.59375 -1.421875 
Q 24.5625 -1.421875 19.28125 -0.1875 
Q 14.015625 1.03125 8.5 3.515625 
L 8.5 17.671875 
L 14.015625 17.671875 
Q 14.453125 10.75 18.421875 7.078125 
Q 22.40625 3.421875 29.59375 3.421875 
Q 37.3125 3.421875 41.453125 8.5 
Q 45.609375 13.578125 45.609375 23.09375 
Q 45.609375 32.5625 41.484375 37.609375 
Q 37.359375 42.671875 29.59375 42.671875 
Q 25.203125 42.671875 21.84375 41.109375 
Q 18.5 39.546875 15.921875 36.28125 
L 11.71875 36.28125 
L 11.71875 72.90625 
z
" id="DejaVuSerif-53"/>
      </defs>
      <use xlink:href="#DejaVuSerif-57"/>
      <use x="63.623047" xlink:href="#DejaVuSerif-53"/>
      <use x="127.246094" xlink:href="#DejaVuSerif-46"/>
      <use x="159.033203" xlink:href="#DejaVuSerif-48"/>
      <use x="222.65625" xlink:href="#DejaVuSerif-37"/>
      <use x="317.675781" xlink:href="#DejaVuSerif-32"/>
      <use x="349.462891" xlink:href="#DejaVuSerif-70"/>
      <use x="410.097656" xlink:href="#DejaVuSerif-65"/>
      <use x="482.314453" xlink:href="#DejaVuSerif-80"/>
     </g>
    </g>
    <g id="line2d_30">
     <path d="M 420.448125 104.291196 
L 428.448125 104.291196 
" style="fill:none;stroke:#d3d3d3;stroke-dasharray:5.55,2.4;stroke-dashoffset:0;stroke-width:1.5;"/>
    </g>
    <g id="text_12">
     <!-- 90.0% FAP -->
     <g transform="translate(431.648125 105.691196)scale(0.04 -0.04)">
      <use xlink:href="#DejaVuSerif-57"/>
      <use x="63.623047" xlink:href="#DejaVuSerif-48"/>
      <use x="127.246094" xlink:href="#DejaVuSerif-46"/>
      <use x="159.033203" xlink:href="#DejaVuSerif-48"/>
      <use x="222.65625" xlink:href="#DejaVuSerif-37"/>
      <use x="317.675781" xlink:href="#DejaVuSerif-32"/>
      <use x="349.462891" xlink:href="#DejaVuSerif-70"/>
      <use x="410.097656" xlink:href="#DejaVuSerif-65"/>
      <use x="482.314453" xlink:href="#DejaVuSerif-80"/>
     </g>
    </g>
   </g>
  </g>
  <g id="axes_2">
   <g id="patch_8">
    <path d="M 57.6 150.089143 
L 206.4 150.089143 
L 206.4 41.472 
L 57.6 41.472 
z
" style="fill:#ffffff;"/>
   </g>
   <g id="PathCollection_1">
    <defs>
     <path d="M 0 0.707107 
C 0.187527 0.707107 0.367398 0.632602 0.5 0.5 
C 0.632602 0.367398 0.707107 0.187527 0.707107 0 
C 0.707107 -0.187527 0.632602 -0.367398 0.5 -0.5 
C 0.367398 -0.632602 0.187527 -0.707107 0 -0.707107 
C -0.187527 -0.707107 -0.367398 -0.632602 -0.5 -0.5 
C -0.632602 -0.367398 -0.707107 -0.187527 -0.707107 0 
C -0.707107 0.187527 -0.632602 0.367398 -0.5 0.5 
C -0.367398 0.632602 -0.187527 0.707107 0 0.707107 
z
" id="m6b4211f89d" style="stroke:#1f77b4;"/>
    </defs>
    <g clip-path="url(#p88f4048528)">
     <use style="fill:#1f77b4;stroke:#1f77b4;" x="110.459127" xlink:href="#m6b4211f89d" y="68.565888"/>
     <use style="fill:#1f77b4;stroke:#1f77b4;" x="110.465834" xlink:href="#m6b4211f89d" y="81.207964"/>
     <use style="fill:#1f77b4;stroke:#1f77b4;" x="126.352061" xlink:href="#m6b4211f89d" y="54.10834"/>
     <use style="fill:#1f77b4;stroke:#1f77b4;" x="126.358768" xlink:href="#m6b4211f89d" y="100.116646"/>
     <use style="fill:#1f77b4;stroke:#1f77b4;" x="87.550839" xlink:href="#m6b4211f89d" y="80.206137"/>
     <use style="fill:#1f77b4;stroke:#1f77b4;" x="130.547665" xlink:href="#m6b4211f89d" y="98.143826"/>
     <use style="fill:#1f77b4;stroke:#1f77b4;" x="130.594276" xlink:href="#m6b4211f89d" y="106.807141"/>
     <use style="fill:#1f77b4;stroke:#1f77b4;" x="92.501673" xlink:href="#m6b4211f89d" y="103.714486"/>
     <use style="fill:#1f77b4;stroke:#1f77b4;" x="106.973058" xlink:href="#m6b4211f89d" y="60.155964"/>
     <use style="fill:#1f77b4;stroke:#1f77b4;" x="106.979597" xlink:href="#m6b4211f89d" y="46.409143"/>
     <use style="fill:#1f77b4;stroke:#1f77b4;" x="67.207235" xlink:href="#m6b4211f89d" y="134.371285"/>
     <use style="fill:#1f77b4;stroke:#1f77b4;" x="67.213941" xlink:href="#m6b4211f89d" y="120.073716"/>
     <use style="fill:#1f77b4;stroke:#1f77b4;" x="95.721105" xlink:href="#m6b4211f89d" y="69.750948"/>
     <use style="fill:#1f77b4;stroke:#1f77b4;" x="95.727812" xlink:href="#m6b4211f89d" y="60.752928"/>
     <use style="fill:#1f77b4;stroke:#1f77b4;" x="110.065564" xlink:href="#m6b4211f89d" y="80.419877"/>
     <use style="fill:#1f77b4;stroke:#1f77b4;" x="110.07227" xlink:href="#m6b4211f89d" y="82.670031"/>
     <use style="fill:#1f77b4;stroke:#1f77b4;" x="125.326" xlink:href="#m6b4211f89d" y="67.36541"/>
     <use style="fill:#1f77b4;stroke:#1f77b4;" x="125.332539" xlink:href="#m6b4211f89d" y="75.766792"/>
     <use style="fill:#1f77b4;stroke:#1f77b4;" x="70.145986" xlink:href="#m6b4211f89d" y="80.858822"/>
     <use style="fill:#1f77b4;stroke:#1f77b4;" x="70.152694" xlink:href="#m6b4211f89d" y="105.472586"/>
     <use style="fill:#1f77b4;stroke:#1f77b4;" x="84.61888" xlink:href="#m6b4211f89d" y="87.898115"/>
     <use style="fill:#1f77b4;stroke:#1f77b4;" x="84.625419" xlink:href="#m6b4211f89d" y="95.914967"/>
     <use style="fill:#1f77b4;stroke:#1f77b4;" x="77.020453" xlink:href="#m6b4211f89d" y="110.162057"/>
     <use style="fill:#1f77b4;stroke:#1f77b4;" x="108.556408" xlink:href="#m6b4211f89d" y="94.183748"/>
     <use style="fill:#1f77b4;stroke:#1f77b4;" x="122.977157" xlink:href="#m6b4211f89d" y="84.555987"/>
     <use style="fill:#1f77b4;stroke:#1f77b4;" x="68.425065" xlink:href="#m6b4211f89d" y="107.517851"/>
     <use style="fill:#1f77b4;stroke:#1f77b4;" x="82.885048" xlink:href="#m6b4211f89d" y="111.639541"/>
     <use style="fill:#1f77b4;stroke:#1f77b4;" x="97.432722" xlink:href="#m6b4211f89d" y="117.124317"/>
     <use style="fill:#1f77b4;stroke:#1f77b4;" x="64.363636" xlink:href="#m6b4211f89d" y="120.297941"/>
     <use style="fill:#1f77b4;stroke:#1f77b4;" x="122.790085" xlink:href="#m6b4211f89d" y="97.963532"/>
     <use style="fill:#1f77b4;stroke:#1f77b4;" x="70.348282" xlink:href="#m6b4211f89d" y="94.981665"/>
     <use style="fill:#1f77b4;stroke:#1f77b4;" x="85.10219" xlink:href="#m6b4211f89d" y="145.152"/>
     <use style="fill:#1f77b4;stroke:#1f77b4;" x="117.168147" xlink:href="#m6b4211f89d" y="90.201395"/>
     <use style="fill:#1f77b4;stroke:#1f77b4;" x="91.863311" xlink:href="#m6b4211f89d" y="88.958293"/>
     <use style="fill:#1f77b4;stroke:#1f77b4;" x="116.025566" xlink:href="#m6b4211f89d" y="56.18999"/>
     <use style="fill:#1f77b4;stroke:#1f77b4;" x="104.929712" xlink:href="#m6b4211f89d" y="108.045001"/>
     <use style="fill:#1f77b4;stroke:#1f77b4;" x="111.60415" xlink:href="#m6b4211f89d" y="68.345255"/>
     <use style="fill:#1f77b4;stroke:#1f77b4;" x="79.814491" xlink:href="#m6b4211f89d" y="86.233445"/>
     <use style="fill:#1f77b4;stroke:#1f77b4;" x="93.8148" xlink:href="#m6b4211f89d" y="102.007518"/>
     <use style="fill:#1f77b4;stroke:#1f77b4;" x="121.127357" xlink:href="#m6b4211f89d" y="86.304909"/>
     <use style="fill:#1f77b4;stroke:#1f77b4;" x="121.133896" xlink:href="#m6b4211f89d" y="81.933747"/>
     <use style="fill:#1f77b4;stroke:#1f77b4;" x="66.202033" xlink:href="#m6b4211f89d" y="141.721358"/>
     <use style="fill:#1f77b4;stroke:#1f77b4;" x="66.208572" xlink:href="#m6b4211f89d" y="136.627351"/>
     <use style="fill:#1f77b4;stroke:#1f77b4;" x="80.063939" xlink:href="#m6b4211f89d" y="110.528231"/>
     <use style="fill:#1f77b4;stroke:#1f77b4;" x="80.070478" xlink:href="#m6b4211f89d" y="77.965161"/>
    </g>
   </g>
   <g id="PathCollection_2">
    <g clip-path="url(#p88f4048528)">
     <use style="fill:#1f77b4;stroke:#1f77b4;" x="179.501215" xlink:href="#m6b4211f89d" y="68.565888"/>
     <use style="fill:#1f77b4;stroke:#1f77b4;" x="179.507922" xlink:href="#m6b4211f89d" y="81.207964"/>
     <use style="fill:#1f77b4;stroke:#1f77b4;" x="195.394149" xlink:href="#m6b4211f89d" y="54.10834"/>
     <use style="fill:#1f77b4;stroke:#1f77b4;" x="195.400856" xlink:href="#m6b4211f89d" y="100.116646"/>
     <use style="fill:#1f77b4;stroke:#1f77b4;" x="156.592927" xlink:href="#m6b4211f89d" y="80.206137"/>
     <use style="fill:#1f77b4;stroke:#1f77b4;" x="199.589753" xlink:href="#m6b4211f89d" y="98.143826"/>
     <use style="fill:#1f77b4;stroke:#1f77b4;" x="199.636364" xlink:href="#m6b4211f89d" y="106.807141"/>
     <use style="fill:#1f77b4;stroke:#1f77b4;" x="161.543761" xlink:href="#m6b4211f89d" y="103.714486"/>
     <use style="fill:#1f77b4;stroke:#1f77b4;" x="176.015146" xlink:href="#m6b4211f89d" y="60.155964"/>
     <use style="fill:#1f77b4;stroke:#1f77b4;" x="176.021685" xlink:href="#m6b4211f89d" y="46.409143"/>
     <use style="fill:#1f77b4;stroke:#1f77b4;" x="136.249323" xlink:href="#m6b4211f89d" y="134.371285"/>
     <use style="fill:#1f77b4;stroke:#1f77b4;" x="136.256028" xlink:href="#m6b4211f89d" y="120.073716"/>
     <use style="fill:#1f77b4;stroke:#1f77b4;" x="164.763193" xlink:href="#m6b4211f89d" y="69.750948"/>
     <use style="fill:#1f77b4;stroke:#1f77b4;" x="164.7699" xlink:href="#m6b4211f89d" y="60.752928"/>
     <use style="fill:#1f77b4;stroke:#1f77b4;" x="179.107652" xlink:href="#m6b4211f89d" y="80.419877"/>
     <use style="fill:#1f77b4;stroke:#1f77b4;" x="179.114358" xlink:href="#m6b4211f89d" y="82.670031"/>
     <use style="fill:#1f77b4;stroke:#1f77b4;" x="194.368088" xlink:href="#m6b4211f89d" y="67.36541"/>
     <use style="fill:#1f77b4;stroke:#1f77b4;" x="194.374627" xlink:href="#m6b4211f89d" y="75.766792"/>
     <use style="fill:#1f77b4;stroke:#1f77b4;" x="139.188074" xlink:href="#m6b4211f89d" y="80.858822"/>
     <use style="fill:#1f77b4;stroke:#1f77b4;" x="139.194782" xlink:href="#m6b4211f89d" y="105.472586"/>
     <use style="fill:#1f77b4;stroke:#1f77b4;" x="153.660968" xlink:href="#m6b4211f89d" y="87.898115"/>
     <use style="fill:#1f77b4;stroke:#1f77b4;" x="153.667507" xlink:href="#m6b4211f89d" y="95.914967"/>
     <use style="fill:#1f77b4;stroke:#1f77b4;" x="146.062541" xlink:href="#m6b4211f89d" y="110.162057"/>
     <use style="fill:#1f77b4;stroke:#1f77b4;" x="177.598496" xlink:href="#m6b4211f89d" y="94.183748"/>
     <use style="fill:#1f77b4;stroke:#1f77b4;" x="192.019244" xlink:href="#m6b4211f89d" y="84.555987"/>
     <use style="fill:#1f77b4;stroke:#1f77b4;" x="137.467153" xlink:href="#m6b4211f89d" y="107.517851"/>
     <use style="fill:#1f77b4;stroke:#1f77b4;" x="151.927135" xlink:href="#m6b4211f89d" y="111.639541"/>
     <use style="fill:#1f77b4;stroke:#1f77b4;" x="166.47481" xlink:href="#m6b4211f89d" y="117.124317"/>
     <use style="fill:#1f77b4;stroke:#1f77b4;" x="133.405724" xlink:href="#m6b4211f89d" y="120.297941"/>
     <use style="fill:#1f77b4;stroke:#1f77b4;" x="191.832173" xlink:href="#m6b4211f89d" y="97.963532"/>
     <use style="fill:#1f77b4;stroke:#1f77b4;" x="139.390369" xlink:href="#m6b4211f89d" y="94.981665"/>
     <use style="fill:#1f77b4;stroke:#1f77b4;" x="154.144277" xlink:href="#m6b4211f89d" y="145.152"/>
     <use style="fill:#1f77b4;stroke:#1f77b4;" x="186.210235" xlink:href="#m6b4211f89d" y="90.201395"/>
     <use style="fill:#1f77b4;stroke:#1f77b4;" x="160.905399" xlink:href="#m6b4211f89d" y="88.958293"/>
     <use style="fill:#1f77b4;stroke:#1f77b4;" x="185.067654" xlink:href="#m6b4211f89d" y="56.18999"/>
     <use style="fill:#1f77b4;stroke:#1f77b4;" x="173.9718" xlink:href="#m6b4211f89d" y="108.045001"/>
     <use style="fill:#1f77b4;stroke:#1f77b4;" x="180.646238" xlink:href="#m6b4211f89d" y="68.345255"/>
     <use style="fill:#1f77b4;stroke:#1f77b4;" x="148.856578" xlink:href="#m6b4211f89d" y="86.233445"/>
     <use style="fill:#1f77b4;stroke:#1f77b4;" x="162.856888" xlink:href="#m6b4211f89d" y="102.007518"/>
     <use style="fill:#1f77b4;stroke:#1f77b4;" x="190.169445" xlink:href="#m6b4211f89d" y="86.304909"/>
     <use style="fill:#1f77b4;stroke:#1f77b4;" x="190.175984" xlink:href="#m6b4211f89d" y="81.933747"/>
     <use style="fill:#1f77b4;stroke:#1f77b4;" x="135.24412" xlink:href="#m6b4211f89d" y="141.721358"/>
     <use style="fill:#1f77b4;stroke:#1f77b4;" x="135.25066" xlink:href="#m6b4211f89d" y="136.627351"/>
     <use style="fill:#1f77b4;stroke:#1f77b4;" x="149.106027" xlink:href="#m6b4211f89d" y="110.528231"/>
     <use style="fill:#1f77b4;stroke:#1f77b4;" x="149.112566" xlink:href="#m6b4211f89d" y="77.965161"/>
    </g>
   </g>
   <g id="matplotlib.axis_3">
    <g id="xtick_23">
     <g id="line2d_31">
      <g>
       <use style="stroke:#000000;stroke-width:0.8;" x="61.741805" xlink:href="#m66d6cfe1e9" y="150.089143"/>
      </g>
     </g>
     <g id="text_13">
      <!-- 0 -->
      <g transform="translate(58.560555 164.68758)scale(0.1 -0.1)">
       <use xlink:href="#DejaVuSerif-48"/>
      </g>
     </g>
    </g>
    <g id="xtick_24">
     <g id="line2d_32">
      <g>
       <use style="stroke:#000000;stroke-width:0.8;" x="130.783893" xlink:href="#m66d6cfe1e9" y="150.089143"/>
      </g>
     </g>
     <g id="text_14">
      <!-- 1 -->
      <g transform="translate(127.602643 164.68758)scale(0.1 -0.1)">
       <use xlink:href="#DejaVuSerif-49"/>
      </g>
     </g>
    </g>
    <g id="xtick_25">
     <g id="line2d_33">
      <g>
       <use style="stroke:#000000;stroke-width:0.8;" x="199.825981" xlink:href="#m66d6cfe1e9" y="150.089143"/>
      </g>
     </g>
     <g id="text_15">
      <!-- 2 -->
      <g transform="translate(196.644731 164.68758)scale(0.1 -0.1)">
       <use xlink:href="#DejaVuSerif-50"/>
      </g>
     </g>
    </g>
    <g id="text_16">
     <!-- Phase (P = 4.766 d) -->
     <g transform="translate(81.582812 178.365705)scale(0.1 -0.1)">
      <defs>
       <path d="M 4.109375 0 
L 4.109375 5.171875 
L 12.203125 5.171875 
L 12.203125 70.796875 
L 3.609375 70.796875 
L 3.609375 75.984375 
L 21.1875 75.984375 
L 21.1875 42.671875 
Q 23.6875 47.953125 27.65625 50.640625 
Q 31.640625 53.328125 36.921875 53.328125 
Q 45.515625 53.328125 49.5625 48.390625 
Q 53.609375 43.453125 53.609375 33.015625 
L 53.609375 5.171875 
L 61.625 5.171875 
L 61.625 0 
L 36.8125 0 
L 36.8125 5.171875 
L 44.578125 5.171875 
L 44.578125 30.171875 
Q 44.578125 39.703125 42.25 43.1875 
Q 39.9375 46.6875 33.984375 46.6875 
Q 27.734375 46.6875 24.453125 42.140625 
Q 21.1875 37.59375 21.1875 28.90625 
L 21.1875 5.171875 
L 29 5.171875 
L 29 0 
z
" id="DejaVuSerif-104"/>
       <path d="M 5.609375 2.875 
L 5.609375 14.984375 
L 10.796875 14.984375 
Q 10.984375 9.1875 14.421875 6.296875 
Q 17.875 3.421875 24.609375 3.421875 
Q 30.671875 3.421875 33.84375 5.6875 
Q 37.015625 7.953125 37.015625 12.3125 
Q 37.015625 15.71875 34.6875 17.8125 
Q 32.375 19.921875 24.90625 22.3125 
L 18.40625 24.515625 
Q 11.71875 26.65625 8.71875 29.875 
Q 5.71875 33.109375 5.71875 38.09375 
Q 5.71875 45.21875 10.9375 49.265625 
Q 16.15625 53.328125 25.390625 53.328125 
Q 29.5 53.328125 34.03125 52.25 
Q 38.578125 51.171875 43.40625 49.125 
L 43.40625 37.796875 
L 38.234375 37.796875 
Q 38.03125 42.828125 34.703125 45.65625 
Q 31.390625 48.484375 25.6875 48.484375 
Q 20.015625 48.484375 17.109375 46.484375 
Q 14.203125 44.484375 14.203125 40.484375 
Q 14.203125 37.203125 16.40625 35.21875 
Q 18.609375 33.25 25.203125 31.203125 
L 32.328125 29 
Q 39.703125 26.703125 42.9375 23.265625 
Q 46.1875 19.828125 46.1875 14.40625 
Q 46.1875 7.03125 40.546875 2.796875 
Q 34.90625 -1.421875 25 -1.421875 
Q 19.96875 -1.421875 15.1875 -0.34375 
Q 10.40625 0.734375 5.609375 2.875 
z
" id="DejaVuSerif-115"/>
       <path d="M 31.890625 -15.578125 
Q 20.015625 -10.25 13.953125 1.296875 
Q 7.90625 12.84375 7.90625 30.171875 
Q 7.90625 47.5625 13.953125 59.109375 
Q 20.015625 70.65625 31.890625 75.984375 
L 31.890625 71.1875 
Q 24.359375 66.015625 21.09375 56.609375 
Q 17.828125 47.21875 17.828125 30.171875 
Q 17.828125 13.1875 21.09375 3.78125 
Q 24.359375 -5.609375 31.890625 -10.796875 
z
" id="DejaVuSerif-40"/>
       <path d="M 10.59375 45.21875 
L 73.1875 45.21875 
L 73.1875 37.40625 
L 10.59375 37.40625 
z
M 10.59375 25.296875 
L 73.1875 25.296875 
L 73.1875 17.484375 
L 10.59375 17.484375 
z
" id="DejaVuSerif-61"/>
       <path d="M 56.390625 67.921875 
L 27.875 0 
L 20.609375 0 
L 47.796875 64.890625 
L 14.109375 64.890625 
L 14.109375 55.90625 
L 8.40625 55.90625 
L 8.40625 72.90625 
L 56.390625 72.90625 
z
" id="DejaVuSerif-55"/>
       <path d="M 32.71875 3.421875 
Q 39.59375 3.421875 43.296875 8.46875 
Q 47.015625 13.53125 47.015625 23 
Q 47.015625 32.46875 43.296875 37.515625 
Q 39.59375 42.578125 32.71875 42.578125 
Q 25.734375 42.578125 22.0625 37.6875 
Q 18.40625 32.8125 18.40625 23.578125 
Q 18.40625 13.875 22.109375 8.640625 
Q 25.828125 3.421875 32.71875 3.421875 
z
M 16.796875 40.140625 
Q 20.125 43.796875 24.3125 45.59375 
Q 28.515625 47.40625 33.796875 47.40625 
Q 44.671875 47.40625 51 40.859375 
Q 57.328125 34.328125 57.328125 23 
Q 57.328125 11.921875 50.515625 5.25 
Q 43.703125 -1.421875 32.328125 -1.421875 
Q 19.96875 -1.421875 13.328125 7.78125 
Q 6.6875 17 6.6875 34.078125 
Q 6.6875 53.21875 14.546875 63.71875 
Q 22.40625 74.21875 36.71875 74.21875 
Q 40.578125 74.21875 44.828125 73.484375 
Q 49.078125 72.75 53.515625 71.296875 
L 53.515625 59.28125 
L 48 59.28125 
Q 47.40625 64.203125 44.234375 66.796875 
Q 41.0625 69.390625 35.6875 69.390625 
Q 26.21875 69.390625 21.578125 62.203125 
Q 16.9375 55.03125 16.796875 40.140625 
z
" id="DejaVuSerif-54"/>
       <path d="M 7.078125 -15.578125 
L 7.078125 -10.796875 
Q 14.59375 -5.609375 17.890625 3.78125 
Q 21.1875 13.1875 21.1875 30.171875 
Q 21.1875 47.21875 17.890625 56.609375 
Q 14.59375 66.015625 7.078125 71.1875 
L 7.078125 75.984375 
Q 19 70.65625 25.046875 59.109375 
Q 31.109375 47.5625 31.109375 30.171875 
Q 31.109375 12.84375 25.046875 1.296875 
Q 19 -10.25 7.078125 -15.578125 
z
" id="DejaVuSerif-41"/>
      </defs>
      <use xlink:href="#DejaVuSerif-80"/>
      <use x="67.285156" xlink:href="#DejaVuSerif-104"/>
      <use x="131.689453" xlink:href="#DejaVuSerif-97"/>
      <use x="191.308594" xlink:href="#DejaVuSerif-115"/>
      <use x="242.626953" xlink:href="#DejaVuSerif-101"/>
      <use x="301.806641" xlink:href="#DejaVuSerif-32"/>
      <use x="333.59375" xlink:href="#DejaVuSerif-40"/>
      <use x="372.607422" xlink:href="#DejaVuSerif-80"/>
      <use x="439.892578" xlink:href="#DejaVuSerif-32"/>
      <use x="471.679688" xlink:href="#DejaVuSerif-61"/>
      <use x="555.46875" xlink:href="#DejaVuSerif-32"/>
      <use x="587.255859" xlink:href="#DejaVuSerif-52"/>
      <use x="650.878906" xlink:href="#DejaVuSerif-46"/>
      <use x="682.666016" xlink:href="#DejaVuSerif-55"/>
      <use x="746.289062" xlink:href="#DejaVuSerif-54"/>
      <use x="809.912109" xlink:href="#DejaVuSerif-54"/>
      <use x="873.535156" xlink:href="#DejaVuSerif-32"/>
      <use x="905.322266" xlink:href="#DejaVuSerif-100"/>
      <use x="969.335938" xlink:href="#DejaVuSerif-41"/>
     </g>
    </g>
   </g>
   <g id="matplotlib.axis_4">
    <g id="ytick_4">
     <g id="line2d_34">
      <g>
       <use style="stroke:#000000;stroke-width:0.8;" x="57.6" xlink:href="#mca631b6d18" y="47.961306"/>
      </g>
     </g>
     <g id="text_17">
      <!-- 18.6 -->
      <g transform="translate(28.334375 51.760524)scale(0.1 -0.1)">
       <defs>
        <path d="M 46.578125 19.921875 
Q 46.578125 27.734375 42.6875 32.046875 
Q 38.8125 36.375 31.78125 36.375 
Q 24.75 36.375 20.875 32.046875 
Q 17 27.734375 17 19.921875 
Q 17 12.0625 20.875 7.734375 
Q 24.75 3.421875 31.78125 3.421875 
Q 38.8125 3.421875 42.6875 7.734375 
Q 46.578125 12.0625 46.578125 19.921875 
z
M 44.578125 55.328125 
Q 44.578125 61.96875 41.203125 65.671875 
Q 37.84375 69.390625 31.78125 69.390625 
Q 25.78125 69.390625 22.390625 65.671875 
Q 19 61.96875 19 55.328125 
Q 19 48.640625 22.390625 44.921875 
Q 25.78125 41.21875 31.78125 41.21875 
Q 37.84375 41.21875 41.203125 44.921875 
Q 44.578125 48.640625 44.578125 55.328125 
z
M 39.3125 38.8125 
Q 47.609375 37.703125 52.25 32.6875 
Q 56.890625 27.6875 56.890625 19.921875 
Q 56.890625 9.671875 50.390625 4.125 
Q 43.890625 -1.421875 31.78125 -1.421875 
Q 19.734375 -1.421875 13.203125 4.125 
Q 6.6875 9.671875 6.6875 19.921875 
Q 6.6875 27.6875 11.328125 32.6875 
Q 15.96875 37.703125 24.3125 38.8125 
Q 16.9375 40.140625 13 44.40625 
Q 9.078125 48.6875 9.078125 55.328125 
Q 9.078125 64.109375 15.125 69.15625 
Q 21.1875 74.21875 31.78125 74.21875 
Q 42.390625 74.21875 48.4375 69.15625 
Q 54.5 64.109375 54.5 55.328125 
Q 54.5 48.6875 50.5625 44.40625 
Q 46.625 40.140625 39.3125 38.8125 
z
" id="DejaVuSerif-56"/>
       </defs>
       <use xlink:href="#DejaVuSerif-49"/>
       <use x="63.623047" xlink:href="#DejaVuSerif-56"/>
       <use x="127.246094" xlink:href="#DejaVuSerif-46"/>
       <use x="159.033203" xlink:href="#DejaVuSerif-54"/>
      </g>
     </g>
    </g>
    <g id="ytick_5">
     <g id="line2d_35">
      <g>
       <use style="stroke:#000000;stroke-width:0.8;" x="57.6" xlink:href="#mca631b6d18" y="82.335791"/>
      </g>
     </g>
     <g id="text_18">
      <!-- 18.8 -->
      <g transform="translate(28.334375 86.135009)scale(0.1 -0.1)">
       <use xlink:href="#DejaVuSerif-49"/>
       <use x="63.623047" xlink:href="#DejaVuSerif-56"/>
       <use x="127.246094" xlink:href="#DejaVuSerif-46"/>
       <use x="159.033203" xlink:href="#DejaVuSerif-56"/>
      </g>
     </g>
    </g>
    <g id="ytick_6">
     <g id="line2d_36">
      <g>
       <use style="stroke:#000000;stroke-width:0.8;" x="57.6" xlink:href="#mca631b6d18" y="116.710276"/>
      </g>
     </g>
     <g id="text_19">
      <!-- 19.0 -->
      <g transform="translate(28.334375 120.509495)scale(0.1 -0.1)">
       <use xlink:href="#DejaVuSerif-49"/>
       <use x="63.623047" xlink:href="#DejaVuSerif-57"/>
       <use x="127.246094" xlink:href="#DejaVuSerif-46"/>
       <use x="159.033203" xlink:href="#DejaVuSerif-48"/>
      </g>
     </g>
    </g>
    <g id="text_20">
     <!-- Mag -->
     <g transform="translate(22.1125 107.082134)rotate(-90)scale(0.1 -0.1)">
      <defs>
       <path d="M 5.515625 0 
L 5.515625 5.171875 
L 14.796875 5.171875 
L 14.796875 67.671875 
L 4.984375 67.671875 
L 4.984375 72.90625 
L 26.21875 72.90625 
L 51.8125 21 
L 77.390625 72.90625 
L 97.3125 72.90625 
L 97.3125 67.671875 
L 87.59375 67.671875 
L 87.59375 5.171875 
L 96.921875 5.171875 
L 96.921875 0 
L 68.40625 0 
L 68.40625 5.171875 
L 77.6875 5.171875 
L 77.6875 61.53125 
L 52.6875 10.6875 
L 45.796875 10.6875 
L 20.796875 61.53125 
L 20.796875 5.171875 
L 30.078125 5.171875 
L 30.078125 0 
z
" id="DejaVuSerif-77"/>
      </defs>
      <use xlink:href="#DejaVuSerif-77"/>
      <use x="102.392578" xlink:href="#DejaVuSerif-97"/>
      <use x="162.011719" xlink:href="#DejaVuSerif-103"/>
     </g>
    </g>
   </g>
   <g id="patch_9">
    <path d="M 57.6 150.089143 
L 57.6 41.472 
" style="fill:none;stroke:#000000;stroke-linecap:square;stroke-linejoin:miter;stroke-width:0.8;"/>
   </g>
   <g id="patch_10">
    <path d="M 206.4 150.089143 
L 206.4 41.472 
" style="fill:none;stroke:#000000;stroke-linecap:square;stroke-linejoin:miter;stroke-width:0.8;"/>
   </g>
   <g id="patch_11">
    <path d="M 57.6 150.089143 
L 206.4 150.089143 
" style="fill:none;stroke:#000000;stroke-linecap:square;stroke-linejoin:miter;stroke-width:0.8;"/>
   </g>
   <g id="patch_12">
    <path d="M 57.6 41.472 
L 206.4 41.472 
" style="fill:none;stroke:#000000;stroke-linecap:square;stroke-linejoin:miter;stroke-width:0.8;"/>
   </g>
   <g id="text_21">
    <!-- Folded Light Curve -->
    <g transform="translate(83.086719 35.472)scale(0.1 -0.1)">
     <defs>
      <path d="M 20.515625 5.171875 
L 29 5.171875 
L 29 0 
L 2.875 0 
L 2.875 5.171875 
L 11.53125 5.171875 
L 11.53125 70.796875 
L 2.875 70.796875 
L 2.875 75.984375 
L 20.515625 75.984375 
z
" id="DejaVuSerif-108"/>
      <path d="M 5.515625 0 
L 5.515625 5.171875 
L 14.796875 5.171875 
L 14.796875 67.671875 
L 5.515625 67.671875 
L 5.515625 72.90625 
L 33.984375 72.90625 
L 33.984375 67.671875 
L 24.703125 67.671875 
L 24.703125 6 
L 58.015625 6 
L 58.015625 18.21875 
L 64.015625 18.21875 
L 64.015625 0 
z
" id="DejaVuSerif-76"/>
      <path d="M 10.796875 46.6875 
L 2.875 46.6875 
L 2.875 51.90625 
L 10.796875 51.90625 
L 10.796875 68.015625 
L 19.828125 68.015625 
L 19.828125 51.90625 
L 36.71875 51.90625 
L 36.71875 46.6875 
L 19.828125 46.6875 
L 19.828125 13.71875 
Q 19.828125 7.125 21.09375 5.265625 
Q 22.359375 3.421875 25.78125 3.421875 
Q 29.296875 3.421875 30.90625 5.484375 
Q 32.515625 7.5625 32.625 12.203125 
L 39.40625 12.203125 
Q 39.015625 5.125 35.546875 1.84375 
Q 32.078125 -1.421875 25 -1.421875 
Q 17.234375 -1.421875 14.015625 2.015625 
Q 10.796875 5.46875 10.796875 13.71875 
z
" id="DejaVuSerif-116"/>
      <path d="M 70.515625 19.28125 
Q 67.28125 9.078125 59.6875 3.828125 
Q 52.09375 -1.421875 40.484375 -1.421875 
Q 33.34375 -1.421875 27.234375 1.015625 
Q 21.140625 3.46875 16.40625 8.203125 
Q 10.9375 13.671875 8.265625 20.625 
Q 5.609375 27.59375 5.609375 36.375 
Q 5.609375 53.375 15.421875 63.796875 
Q 25.25 74.21875 41.3125 74.21875 
Q 47.265625 74.21875 54 72.65625 
Q 60.75 71.09375 68.5 67.921875 
L 68.5 51.125 
L 62.984375 51.125 
Q 61.1875 60.296875 55.734375 64.640625 
Q 50.296875 69 40.484375 69 
Q 28.8125 69 22.796875 60.71875 
Q 16.796875 52.4375 16.796875 36.375 
Q 16.796875 20.359375 22.796875 12.078125 
Q 28.8125 3.8125 40.484375 3.8125 
Q 48.640625 3.8125 53.90625 7.6875 
Q 59.1875 11.578125 61.53125 19.28125 
z
" id="DejaVuSerif-67"/>
      <path d="M 35.40625 51.90625 
L 52.203125 51.90625 
L 52.203125 5.171875 
L 60.6875 5.171875 
L 60.6875 0 
L 43.21875 0 
L 43.21875 9.1875 
Q 40.71875 4 36.765625 1.28125 
Q 32.8125 -1.421875 27.59375 -1.421875 
Q 18.953125 -1.421875 14.875 3.484375 
Q 10.796875 8.40625 10.796875 18.890625 
L 10.796875 46.6875 
L 2.6875 46.6875 
L 2.6875 51.90625 
L 19.828125 51.90625 
L 19.828125 21.6875 
Q 19.828125 12.203125 22.140625 8.6875 
Q 24.46875 5.171875 30.421875 5.171875 
Q 36.671875 5.171875 39.9375 9.765625 
Q 43.21875 14.359375 43.21875 23.09375 
L 43.21875 46.6875 
L 35.40625 46.6875 
z
" id="DejaVuSerif-117"/>
      <path d="M 24.703125 0 
L 5.609375 46.6875 
L -0.296875 46.6875 
L -0.296875 51.90625 
L 23.578125 51.90625 
L 23.578125 46.6875 
L 15.28125 46.6875 
L 29.890625 10.984375 
L 44.484375 46.6875 
L 36.71875 46.6875 
L 36.71875 51.90625 
L 56.203125 51.90625 
L 56.203125 46.6875 
L 50.390625 46.6875 
L 31.296875 0 
z
" id="DejaVuSerif-118"/>
     </defs>
     <use xlink:href="#DejaVuSerif-70"/>
     <use x="63.884766" xlink:href="#DejaVuSerif-111"/>
     <use x="124.089844" xlink:href="#DejaVuSerif-108"/>
     <use x="156.072266" xlink:href="#DejaVuSerif-100"/>
     <use x="220.085938" xlink:href="#DejaVuSerif-101"/>
     <use x="279.265625" xlink:href="#DejaVuSerif-100"/>
     <use x="343.279297" xlink:href="#DejaVuSerif-32"/>
     <use x="375.066406" xlink:href="#DejaVuSerif-76"/>
     <use x="441.472656" xlink:href="#DejaVuSerif-105"/>
     <use x="473.455078" xlink:href="#DejaVuSerif-103"/>
     <use x="537.46875" xlink:href="#DejaVuSerif-104"/>
     <use x="601.873047" xlink:href="#DejaVuSerif-116"/>
     <use x="642.058594" xlink:href="#DejaVuSerif-32"/>
     <use x="673.845703" xlink:href="#DejaVuSerif-67"/>
     <use x="750.359375" xlink:href="#DejaVuSerif-117"/>
     <use x="814.763672" xlink:href="#DejaVuSerif-114"/>
     <use x="862.566406" xlink:href="#DejaVuSerif-118"/>
     <use x="919.060547" xlink:href="#DejaVuSerif-101"/>
    </g>
   </g>
  </g>
  <g id="axes_3">
   <g id="patch_13">
    <path d="M 57.6 307.584 
L 414.72 307.584 
L 414.72 198.966857 
L 57.6 198.966857 
z
" style="fill:#ffffff;"/>
   </g>
   <g id="PathCollection_3">
    <g clip-path="url(#pb8c4de97a4)">
     <use style="fill:#1f77b4;stroke:#1f77b4;" x="73.832727" xlink:href="#m6b4211f89d" y="228.789569"/>
     <use style="fill:#1f77b4;stroke:#1f77b4;" x="73.833119" xlink:href="#m6b4211f89d" y="239.518207"/>
     <use style="fill:#1f77b4;stroke:#1f77b4;" x="94.910293" xlink:href="#m6b4211f89d" y="216.52024"/>
     <use style="fill:#1f77b4;stroke:#1f77b4;" x="94.910684" xlink:href="#m6b4211f89d" y="255.56497"/>
     <use style="fill:#1f77b4;stroke:#1f77b4;" x="96.675449" xlink:href="#m6b4211f89d" y="238.668011"/>
     <use style="fill:#1f77b4;stroke:#1f77b4;" x="99.185169" xlink:href="#m6b4211f89d" y="253.890746"/>
     <use style="fill:#1f77b4;stroke:#1f77b4;" x="99.18789" xlink:href="#m6b4211f89d" y="261.242827"/>
     <use style="fill:#1f77b4;stroke:#1f77b4;" x="121.144305" xlink:href="#m6b4211f89d" y="258.61826"/>
     <use style="fill:#1f77b4;stroke:#1f77b4;" x="121.988998" xlink:href="#m6b4211f89d" y="221.652527"/>
     <use style="fill:#1f77b4;stroke:#1f77b4;" x="121.98938" xlink:href="#m6b4211f89d" y="209.986353"/>
     <use style="fill:#1f77b4;stroke:#1f77b4;" x="123.69785" xlink:href="#m6b4211f89d" y="284.635006"/>
     <use style="fill:#1f77b4;stroke:#1f77b4;" x="123.698242" xlink:href="#m6b4211f89d" y="272.501443"/>
     <use style="fill:#1f77b4;stroke:#1f77b4;" x="125.362202" xlink:href="#m6b4211f89d" y="229.795265"/>
     <use style="fill:#1f77b4;stroke:#1f77b4;" x="125.362594" xlink:href="#m6b4211f89d" y="222.159138"/>
     <use style="fill:#1f77b4;stroke:#1f77b4;" x="126.199487" xlink:href="#m6b4211f89d" y="238.849401"/>
     <use style="fill:#1f77b4;stroke:#1f77b4;" x="126.199878" xlink:href="#m6b4211f89d" y="240.758983"/>
     <use style="fill:#1f77b4;stroke:#1f77b4;" x="127.090237" xlink:href="#m6b4211f89d" y="227.770789"/>
     <use style="fill:#1f77b4;stroke:#1f77b4;" x="127.090618" xlink:href="#m6b4211f89d" y="234.900582"/>
     <use style="fill:#1f77b4;stroke:#1f77b4;" x="127.899364" xlink:href="#m6b4211f89d" y="239.221909"/>
     <use style="fill:#1f77b4;stroke:#1f77b4;" x="127.899756" xlink:href="#m6b4211f89d" y="260.110263"/>
     <use style="fill:#1f77b4;stroke:#1f77b4;" x="128.744146" xlink:href="#m6b4211f89d" y="245.195772"/>
     <use style="fill:#1f77b4;stroke:#1f77b4;" x="128.744527" xlink:href="#m6b4211f89d" y="251.999235"/>
     <use style="fill:#1f77b4;stroke:#1f77b4;" x="136.360585" xlink:href="#m6b4211f89d" y="264.08996"/>
     <use style="fill:#1f77b4;stroke:#1f77b4;" x="142.231315" xlink:href="#m6b4211f89d" y="250.530044"/>
     <use style="fill:#1f77b4;stroke:#1f77b4;" x="143.073052" xlink:href="#m6b4211f89d" y="242.359491"/>
     <use style="fill:#1f77b4;stroke:#1f77b4;" x="143.918832" xlink:href="#m6b4211f89d" y="261.845967"/>
     <use style="fill:#1f77b4;stroke:#1f77b4;" x="144.76286" xlink:href="#m6b4211f89d" y="265.34382"/>
     <use style="fill:#1f77b4;stroke:#1f77b4;" x="145.612006" xlink:href="#m6b4211f89d" y="269.998449"/>
     <use style="fill:#1f77b4;stroke:#1f77b4;" x="155.771705" xlink:href="#m6b4211f89d" y="272.69173"/>
     <use style="fill:#1f77b4;stroke:#1f77b4;" x="163.21203" xlink:href="#m6b4211f89d" y="253.73774"/>
     <use style="fill:#1f77b4;stroke:#1f77b4;" x="164.180987" xlink:href="#m6b4211f89d" y="251.207193"/>
     <use style="fill:#1f77b4;stroke:#1f77b4;" x="165.042171" xlink:href="#m6b4211f89d" y="293.784009"/>
     <use style="fill:#1f77b4;stroke:#1f77b4;" x="170.943837" xlink:href="#m6b4211f89d" y="247.150439"/>
     <use style="fill:#1f77b4;stroke:#1f77b4;" x="173.496775" xlink:href="#m6b4211f89d" y="246.095487"/>
     <use style="fill:#1f77b4;stroke:#1f77b4;" x="207.146958" xlink:href="#m6b4211f89d" y="218.286822"/>
     <use style="fill:#1f77b4;stroke:#1f77b4;" x="210.529274" xlink:href="#m6b4211f89d" y="262.293331"/>
     <use style="fill:#1f77b4;stroke:#1f77b4;" x="218.978819" xlink:href="#m6b4211f89d" y="228.60233"/>
     <use style="fill:#1f77b4;stroke:#1f77b4;" x="346.082599" xlink:href="#m6b4211f89d" y="243.783057"/>
     <use style="fill:#1f77b4;stroke:#1f77b4;" x="379.139631" xlink:href="#m6b4211f89d" y="257.169649"/>
     <use style="fill:#1f77b4;stroke:#1f77b4;" x="396.853779" xlink:href="#m6b4211f89d" y="243.843705"/>
     <use style="fill:#1f77b4;stroke:#1f77b4;" x="396.854161" xlink:href="#m6b4211f89d" y="240.134139"/>
     <use style="fill:#1f77b4;stroke:#1f77b4;" x="397.677773" xlink:href="#m6b4211f89d" y="290.872611"/>
     <use style="fill:#1f77b4;stroke:#1f77b4;" x="397.678155" xlink:href="#m6b4211f89d" y="286.549606"/>
     <use style="fill:#1f77b4;stroke:#1f77b4;" x="398.486891" xlink:href="#m6b4211f89d" y="264.400712"/>
     <use style="fill:#1f77b4;stroke:#1f77b4;" x="398.487273" xlink:href="#m6b4211f89d" y="236.766217"/>
    </g>
   </g>
   <g id="matplotlib.axis_5">
    <g id="xtick_26">
     <g id="line2d_37">
      <g>
       <use style="stroke:#000000;stroke-width:0.8;" x="97.996351" xlink:href="#m66d6cfe1e9" y="307.584"/>
      </g>
     </g>
     <g id="text_22">
      <!-- 58300 -->
      <g transform="translate(82.090101 322.182437)scale(0.1 -0.1)">
       <defs>
        <path d="M 9.71875 69.828125 
Q 15.4375 71.96875 20.671875 73.09375 
Q 25.921875 74.21875 30.515625 74.21875 
Q 41.21875 74.21875 47.21875 69.59375 
Q 53.21875 64.984375 53.21875 56.78125 
Q 53.21875 50.203125 49.0625 45.78125 
Q 44.921875 41.359375 37.3125 39.796875 
Q 46.296875 38.53125 51.25 33.28125 
Q 56.203125 28.03125 56.203125 19.671875 
Q 56.203125 9.46875 49.34375 4.015625 
Q 42.484375 -1.421875 29.59375 -1.421875 
Q 23.875 -1.421875 18.421875 -0.1875 
Q 12.984375 1.03125 7.625 3.515625 
L 7.625 17.671875 
L 13.09375 17.671875 
Q 13.578125 10.640625 17.828125 7.03125 
Q 22.078125 3.421875 29.78125 3.421875 
Q 37.25 3.421875 41.578125 7.734375 
Q 45.90625 12.0625 45.90625 19.578125 
Q 45.90625 28.171875 41.453125 32.59375 
Q 37.015625 37.015625 28.421875 37.015625 
L 23.78125 37.015625 
L 23.78125 42 
L 26.21875 42 
Q 34.765625 42 39.03125 45.53125 
Q 43.3125 49.078125 43.3125 56.203125 
Q 43.3125 62.59375 39.796875 65.984375 
Q 36.28125 69.390625 29.6875 69.390625 
Q 23.09375 69.390625 19.453125 66.265625 
Q 15.828125 63.140625 15.1875 56.984375 
L 9.71875 56.984375 
z
" id="DejaVuSerif-51"/>
       </defs>
       <use xlink:href="#DejaVuSerif-53"/>
       <use x="63.623047" xlink:href="#DejaVuSerif-56"/>
       <use x="127.246094" xlink:href="#DejaVuSerif-51"/>
       <use x="190.869141" xlink:href="#DejaVuSerif-48"/>
       <use x="254.492188" xlink:href="#DejaVuSerif-48"/>
      </g>
     </g>
    </g>
    <g id="xtick_27">
     <g id="line2d_38">
      <g>
       <use style="stroke:#000000;stroke-width:0.8;" x="140.27554" xlink:href="#m66d6cfe1e9" y="307.584"/>
      </g>
     </g>
     <g id="text_23">
      <!-- 58350 -->
      <g transform="translate(124.36929 322.182437)scale(0.1 -0.1)">
       <use xlink:href="#DejaVuSerif-53"/>
       <use x="63.623047" xlink:href="#DejaVuSerif-56"/>
       <use x="127.246094" xlink:href="#DejaVuSerif-51"/>
       <use x="190.869141" xlink:href="#DejaVuSerif-53"/>
       <use x="254.492188" xlink:href="#DejaVuSerif-48"/>
      </g>
     </g>
    </g>
    <g id="xtick_28">
     <g id="line2d_39">
      <g>
       <use style="stroke:#000000;stroke-width:0.8;" x="182.55473" xlink:href="#m66d6cfe1e9" y="307.584"/>
      </g>
     </g>
     <g id="text_24">
      <!-- 58400 -->
      <g transform="translate(166.64848 322.182437)scale(0.1 -0.1)">
       <use xlink:href="#DejaVuSerif-53"/>
       <use x="63.623047" xlink:href="#DejaVuSerif-56"/>
       <use x="127.246094" xlink:href="#DejaVuSerif-52"/>
       <use x="190.869141" xlink:href="#DejaVuSerif-48"/>
       <use x="254.492188" xlink:href="#DejaVuSerif-48"/>
      </g>
     </g>
    </g>
    <g id="xtick_29">
     <g id="line2d_40">
      <g>
       <use style="stroke:#000000;stroke-width:0.8;" x="224.833919" xlink:href="#m66d6cfe1e9" y="307.584"/>
      </g>
     </g>
     <g id="text_25">
      <!-- 58450 -->
      <g transform="translate(208.927669 322.182437)scale(0.1 -0.1)">
       <use xlink:href="#DejaVuSerif-53"/>
       <use x="63.623047" xlink:href="#DejaVuSerif-56"/>
       <use x="127.246094" xlink:href="#DejaVuSerif-52"/>
       <use x="190.869141" xlink:href="#DejaVuSerif-53"/>
       <use x="254.492188" xlink:href="#DejaVuSerif-48"/>
      </g>
     </g>
    </g>
    <g id="xtick_30">
     <g id="line2d_41">
      <g>
       <use style="stroke:#000000;stroke-width:0.8;" x="267.113108" xlink:href="#m66d6cfe1e9" y="307.584"/>
      </g>
     </g>
     <g id="text_26">
      <!-- 58500 -->
      <g transform="translate(251.206858 322.182437)scale(0.1 -0.1)">
       <use xlink:href="#DejaVuSerif-53"/>
       <use x="63.623047" xlink:href="#DejaVuSerif-56"/>
       <use x="127.246094" xlink:href="#DejaVuSerif-53"/>
       <use x="190.869141" xlink:href="#DejaVuSerif-48"/>
       <use x="254.492188" xlink:href="#DejaVuSerif-48"/>
      </g>
     </g>
    </g>
    <g id="xtick_31">
     <g id="line2d_42">
      <g>
       <use style="stroke:#000000;stroke-width:0.8;" x="309.392298" xlink:href="#m66d6cfe1e9" y="307.584"/>
      </g>
     </g>
     <g id="text_27">
      <!-- 58550 -->
      <g transform="translate(293.486048 322.182437)scale(0.1 -0.1)">
       <use xlink:href="#DejaVuSerif-53"/>
       <use x="63.623047" xlink:href="#DejaVuSerif-56"/>
       <use x="127.246094" xlink:href="#DejaVuSerif-53"/>
       <use x="190.869141" xlink:href="#DejaVuSerif-53"/>
       <use x="254.492188" xlink:href="#DejaVuSerif-48"/>
      </g>
     </g>
    </g>
    <g id="xtick_32">
     <g id="line2d_43">
      <g>
       <use style="stroke:#000000;stroke-width:0.8;" x="351.671487" xlink:href="#m66d6cfe1e9" y="307.584"/>
      </g>
     </g>
     <g id="text_28">
      <!-- 58600 -->
      <g transform="translate(335.765237 322.182437)scale(0.1 -0.1)">
       <use xlink:href="#DejaVuSerif-53"/>
       <use x="63.623047" xlink:href="#DejaVuSerif-56"/>
       <use x="127.246094" xlink:href="#DejaVuSerif-54"/>
       <use x="190.869141" xlink:href="#DejaVuSerif-48"/>
       <use x="254.492188" xlink:href="#DejaVuSerif-48"/>
      </g>
     </g>
    </g>
    <g id="xtick_33">
     <g id="line2d_44">
      <g>
       <use style="stroke:#000000;stroke-width:0.8;" x="393.950677" xlink:href="#m66d6cfe1e9" y="307.584"/>
      </g>
     </g>
     <g id="text_29">
      <!-- 58650 -->
      <g transform="translate(378.044427 322.182437)scale(0.1 -0.1)">
       <use xlink:href="#DejaVuSerif-53"/>
       <use x="63.623047" xlink:href="#DejaVuSerif-56"/>
       <use x="127.246094" xlink:href="#DejaVuSerif-54"/>
       <use x="190.869141" xlink:href="#DejaVuSerif-53"/>
       <use x="254.492188" xlink:href="#DejaVuSerif-48"/>
      </g>
     </g>
    </g>
    <g id="text_30">
     <!-- MJD -->
     <g transform="translate(225.027187 335.860562)scale(0.1 -0.1)">
      <defs>
       <path d="M -8.40625 -17.484375 
L -8.40625 -6 
L -2.828125 -6 
Q -2.6875 -10.84375 -0.53125 -13.203125 
Q 1.609375 -15.578125 5.90625 -15.578125 
Q 11.71875 -15.578125 14.015625 -11.90625 
Q 16.3125 -8.25 16.3125 2.390625 
L 16.3125 67.671875 
L 4.984375 67.671875 
L 4.984375 72.90625 
L 35.5 72.90625 
L 35.5 67.671875 
L 26.21875 67.671875 
L 26.21875 2 
Q 26.21875 -10.0625 21.375 -15.421875 
Q 16.546875 -20.796875 5.8125 -20.796875 
Q 2.34375 -20.796875 -1.234375 -19.96875 
Q -4.828125 -19.140625 -8.40625 -17.484375 
z
" id="DejaVuSerif-74"/>
       <path d="M 24.703125 5.171875 
L 33.796875 5.171875 
Q 48 5.171875 55.59375 13.28125 
Q 63.1875 21.390625 63.1875 36.53125 
Q 63.1875 51.65625 55.609375 59.65625 
Q 48.046875 67.671875 33.796875 67.671875 
L 24.703125 67.671875 
z
M 5.515625 0 
L 5.515625 5.171875 
L 14.796875 5.171875 
L 14.796875 67.671875 
L 5.515625 67.671875 
L 5.515625 72.90625 
L 34.515625 72.90625 
Q 53.375 72.90625 63.890625 63.28125 
Q 74.421875 53.65625 74.421875 36.53125 
Q 74.421875 19.34375 63.875 9.671875 
Q 53.328125 0 34.515625 0 
z
" id="DejaVuSerif-68"/>
      </defs>
      <use xlink:href="#DejaVuSerif-77"/>
      <use x="102.392578" xlink:href="#DejaVuSerif-74"/>
      <use x="142.480469" xlink:href="#DejaVuSerif-68"/>
     </g>
    </g>
   </g>
   <g id="matplotlib.axis_6">
    <g id="ytick_7">
     <g id="line2d_45">
      <g>
       <use style="stroke:#000000;stroke-width:0.8;" x="57.6" xlink:href="#mca631b6d18" y="211.303588"/>
      </g>
     </g>
     <g id="text_31">
      <!-- 18.6 -->
      <g transform="translate(28.334375 215.102807)scale(0.1 -0.1)">
       <use xlink:href="#DejaVuSerif-49"/>
       <use x="63.623047" xlink:href="#DejaVuSerif-56"/>
       <use x="127.246094" xlink:href="#DejaVuSerif-46"/>
       <use x="159.033203" xlink:href="#DejaVuSerif-54"/>
      </g>
     </g>
    </g>
    <g id="ytick_8">
     <g id="line2d_46">
      <g>
       <use style="stroke:#000000;stroke-width:0.8;" x="57.6" xlink:href="#mca631b6d18" y="240.475332"/>
      </g>
     </g>
     <g id="text_32">
      <!-- 18.8 -->
      <g transform="translate(28.334375 244.27455)scale(0.1 -0.1)">
       <use xlink:href="#DejaVuSerif-49"/>
       <use x="63.623047" xlink:href="#DejaVuSerif-56"/>
       <use x="127.246094" xlink:href="#DejaVuSerif-46"/>
       <use x="159.033203" xlink:href="#DejaVuSerif-56"/>
      </g>
     </g>
    </g>
    <g id="ytick_9">
     <g id="line2d_47">
      <g>
       <use style="stroke:#000000;stroke-width:0.8;" x="57.6" xlink:href="#mca631b6d18" y="269.647075"/>
      </g>
     </g>
     <g id="text_33">
      <!-- 19.0 -->
      <g transform="translate(28.334375 273.446294)scale(0.1 -0.1)">
       <use xlink:href="#DejaVuSerif-49"/>
       <use x="63.623047" xlink:href="#DejaVuSerif-57"/>
       <use x="127.246094" xlink:href="#DejaVuSerif-46"/>
       <use x="159.033203" xlink:href="#DejaVuSerif-48"/>
      </g>
     </g>
    </g>
    <g id="ytick_10">
     <g id="line2d_48">
      <g>
       <use style="stroke:#000000;stroke-width:0.8;" x="57.6" xlink:href="#mca631b6d18" y="298.818818"/>
      </g>
     </g>
     <g id="text_34">
      <!-- 19.2 -->
      <g transform="translate(28.334375 302.618037)scale(0.1 -0.1)">
       <use xlink:href="#DejaVuSerif-49"/>
       <use x="63.623047" xlink:href="#DejaVuSerif-57"/>
       <use x="127.246094" xlink:href="#DejaVuSerif-46"/>
       <use x="159.033203" xlink:href="#DejaVuSerif-50"/>
      </g>
     </g>
    </g>
    <g id="text_35">
     <!-- Mag -->
     <g transform="translate(22.1125 264.576991)rotate(-90)scale(0.1 -0.1)">
      <use xlink:href="#DejaVuSerif-77"/>
      <use x="102.392578" xlink:href="#DejaVuSerif-97"/>
      <use x="162.011719" xlink:href="#DejaVuSerif-103"/>
     </g>
    </g>
   </g>
   <g id="LineCollection_5">
    <path clip-path="url(#pb8c4de97a4)" d="M 73.832727 222.19588 
L 73.832727 235.383257 
" style="fill:none;stroke:#1f77b4;stroke-width:0.5;"/>
    <path clip-path="url(#pb8c4de97a4)" d="M 73.833119 232.606005 
L 73.833119 246.430408 
" style="fill:none;stroke:#1f77b4;stroke-width:0.5;"/>
    <path clip-path="url(#pb8c4de97a4)" d="M 94.910293 210.266721 
L 94.910293 222.773758 
" style="fill:none;stroke:#1f77b4;stroke-width:0.5;"/>
    <path clip-path="url(#pb8c4de97a4)" d="M 94.910684 248.137369 
L 94.910684 262.992572 
" style="fill:none;stroke:#1f77b4;stroke-width:0.5;"/>
    <path clip-path="url(#pb8c4de97a4)" d="M 96.675449 231.781795 
L 96.675449 245.554226 
" style="fill:none;stroke:#1f77b4;stroke-width:0.5;"/>
    <path clip-path="url(#pb8c4de97a4)" d="M 99.185169 246.51919 
L 99.185169 261.262301 
" style="fill:none;stroke:#1f77b4;stroke-width:0.5;"/>
    <path clip-path="url(#pb8c4de97a4)" d="M 99.18789 253.621092 
L 99.18789 268.864562 
" style="fill:none;stroke:#1f77b4;stroke-width:0.5;"/>
    <path clip-path="url(#pb8c4de97a4)" d="M 121.144305 251.087049 
L 121.144305 266.149471 
" style="fill:none;stroke:#1f77b4;stroke-width:0.5;"/>
    <path clip-path="url(#pb8c4de97a4)" d="M 121.988998 215.259749 
L 121.988998 228.045305 
" style="fill:none;stroke:#1f77b4;stroke-width:0.5;"/>
    <path clip-path="url(#pb8c4de97a4)" d="M 121.98938 203.904 
L 121.98938 216.068706 
" style="fill:none;stroke:#1f77b4;stroke-width:0.5;"/>
    <path clip-path="url(#pb8c4de97a4)" d="M 123.69785 276.144111 
L 123.69785 293.125901 
" style="fill:none;stroke:#1f77b4;stroke-width:0.5;"/>
    <path clip-path="url(#pb8c4de97a4)" d="M 123.698242 264.475654 
L 123.698242 280.527231 
" style="fill:none;stroke:#1f77b4;stroke-width:0.5;"/>
    <path clip-path="url(#pb8c4de97a4)" d="M 125.362202 223.172572 
L 125.362202 236.417958 
" style="fill:none;stroke:#1f77b4;stroke-width:0.5;"/>
    <path clip-path="url(#pb8c4de97a4)" d="M 125.362594 215.752382 
L 125.362594 228.565894 
" style="fill:none;stroke:#1f77b4;stroke-width:0.5;"/>
    <path clip-path="url(#pb8c4de97a4)" d="M 126.199487 231.957653 
L 126.199487 245.741149 
" style="fill:none;stroke:#1f77b4;stroke-width:0.5;"/>
    <path clip-path="url(#pb8c4de97a4)" d="M 126.199878 233.808629 
L 126.199878 247.709338 
" style="fill:none;stroke:#1f77b4;stroke-width:0.5;"/>
    <path clip-path="url(#pb8c4de97a4)" d="M 127.090237 221.206306 
L 127.090237 234.335273 
" style="fill:none;stroke:#1f77b4;stroke-width:0.5;"/>
    <path clip-path="url(#pb8c4de97a4)" d="M 127.090618 228.127949 
L 127.090618 241.673215 
" style="fill:none;stroke:#1f77b4;stroke-width:0.5;"/>
    <path clip-path="url(#pb8c4de97a4)" d="M 127.899364 232.318778 
L 127.899364 246.125041 
" style="fill:none;stroke:#1f77b4;stroke-width:0.5;"/>
    <path clip-path="url(#pb8c4de97a4)" d="M 127.899756 252.527762 
L 127.899756 267.692764 
" style="fill:none;stroke:#1f77b4;stroke-width:0.5;"/>
    <path clip-path="url(#pb8c4de97a4)" d="M 128.744146 238.106701 
L 128.744146 252.284843 
" style="fill:none;stroke:#1f77b4;stroke-width:0.5;"/>
    <path clip-path="url(#pb8c4de97a4)" d="M 128.744527 244.690352 
L 128.744527 259.308118 
" style="fill:none;stroke:#1f77b4;stroke-width:0.5;"/>
    <path clip-path="url(#pb8c4de97a4)" d="M 136.360585 256.368478 
L 136.360585 271.811442 
" style="fill:none;stroke:#1f77b4;stroke-width:0.5;"/>
    <path clip-path="url(#pb8c4de97a4)" d="M 142.231315 243.269363 
L 142.231315 257.790725 
" style="fill:none;stroke:#1f77b4;stroke-width:0.5;"/>
    <path clip-path="url(#pb8c4de97a4)" d="M 143.073052 235.359514 
L 143.073052 249.359468 
" style="fill:none;stroke:#1f77b4;stroke-width:0.5;"/>
    <path clip-path="url(#pb8c4de97a4)" d="M 143.918832 254.203236 
L 143.918832 269.488699 
" style="fill:none;stroke:#1f77b4;stroke-width:0.5;"/>
    <path clip-path="url(#pb8c4de97a4)" d="M 144.76286 257.577886 
L 144.76286 273.109754 
" style="fill:none;stroke:#1f77b4;stroke-width:0.5;"/>
    <path clip-path="url(#pb8c4de97a4)" d="M 145.612006 262.06473 
L 145.612006 277.932167 
" style="fill:none;stroke:#1f77b4;stroke-width:0.5;"/>
    <path clip-path="url(#pb8c4de97a4)" d="M 155.771705 264.658884 
L 155.771705 280.724576 
" style="fill:none;stroke:#1f77b4;stroke-width:0.5;"/>
    <path clip-path="url(#pb8c4de97a4)" d="M 163.21203 246.371279 
L 163.21203 261.104201 
" style="fill:none;stroke:#1f77b4;stroke-width:0.5;"/>
    <path clip-path="url(#pb8c4de97a4)" d="M 164.180987 243.924347 
L 164.180987 258.490039 
" style="fill:none;stroke:#1f77b4;stroke-width:0.5;"/>
    <path clip-path="url(#pb8c4de97a4)" d="M 165.042171 284.921161 
L 165.042171 302.646857 
" style="fill:none;stroke:#1f77b4;stroke-width:0.5;"/>
    <path clip-path="url(#pb8c4de97a4)" d="M 170.943837 239.999102 
L 170.943837 254.301776 
" style="fill:none;stroke:#1f77b4;stroke-width:0.5;"/>
    <path clip-path="url(#pb8c4de97a4)" d="M 173.496775 238.977841 
L 173.496775 253.213132 
" style="fill:none;stroke:#1f77b4;stroke-width:0.5;"/>
    <path clip-path="url(#pb8c4de97a4)" d="M 207.146958 211.985854 
L 207.146958 224.587791 
" style="fill:none;stroke:#1f77b4;stroke-width:0.5;"/>
    <path clip-path="url(#pb8c4de97a4)" d="M 210.529274 254.634978 
L 210.529274 269.951684 
" style="fill:none;stroke:#1f77b4;stroke-width:0.5;"/>
    <path clip-path="url(#pb8c4de97a4)" d="M 218.978819 222.014024 
L 218.978819 235.190636 
" style="fill:none;stroke:#1f77b4;stroke-width:0.5;"/>
    <path clip-path="url(#pb8c4de97a4)" d="M 346.082599 236.738544 
L 346.082599 250.827571 
" style="fill:none;stroke:#1f77b4;stroke-width:0.5;"/>
    <path clip-path="url(#pb8c4de97a4)" d="M 379.139631 249.687827 
L 379.139631 264.651472 
" style="fill:none;stroke:#1f77b4;stroke-width:0.5;"/>
    <path clip-path="url(#pb8c4de97a4)" d="M 396.853779 236.79729 
L 396.853779 250.89012 
" style="fill:none;stroke:#1f77b4;stroke-width:0.5;"/>
    <path clip-path="url(#pb8c4de97a4)" d="M 396.854161 233.203035 
L 396.854161 247.065243 
" style="fill:none;stroke:#1f77b4;stroke-width:0.5;"/>
    <path clip-path="url(#pb8c4de97a4)" d="M 397.677773 282.130158 
L 397.677773 299.615064 
" style="fill:none;stroke:#1f77b4;stroke-width:0.5;"/>
    <path clip-path="url(#pb8c4de97a4)" d="M 397.678155 277.982414 
L 397.678155 295.116798 
" style="fill:none;stroke:#1f77b4;stroke-width:0.5;"/>
    <path clip-path="url(#pb8c4de97a4)" d="M 398.486891 256.668239 
L 398.486891 272.133185 
" style="fill:none;stroke:#1f77b4;stroke-width:0.5;"/>
    <path clip-path="url(#pb8c4de97a4)" d="M 398.487273 229.937656 
L 398.487273 243.594779 
" style="fill:none;stroke:#1f77b4;stroke-width:0.5;"/>
   </g>
   <g id="line2d_49">
    <path clip-path="url(#pb8c4de97a4)" d="M 73.832727 228.789569 
L 73.833119 239.518207 
L 94.910293 216.52024 
L 94.910684 255.56497 
L 96.675449 238.668011 
L 99.185169 253.890746 
L 99.18789 261.242827 
L 121.144305 258.61826 
L 121.988998 221.652527 
L 121.98938 209.986353 
L 123.69785 284.635006 
L 123.698242 272.501443 
L 125.362202 229.795265 
L 125.362594 222.159138 
L 126.199487 238.849401 
L 126.199878 240.758983 
L 127.090237 227.770789 
L 127.090618 234.900582 
L 127.899364 239.221909 
L 127.899756 260.110263 
L 128.744146 245.195772 
L 128.744527 251.999235 
L 136.360585 264.08996 
L 142.231315 250.530044 
L 143.073052 242.359491 
L 143.918832 261.845967 
L 144.76286 265.34382 
L 145.612006 269.998449 
L 155.771705 272.69173 
L 163.21203 253.73774 
L 164.180987 251.207193 
L 165.042171 293.784009 
L 170.943837 247.150439 
L 173.496775 246.095487 
L 207.146958 218.286822 
L 210.529274 262.293331 
L 218.978819 228.60233 
L 346.082599 243.783057 
L 379.139631 257.169649 
L 396.853779 243.843705 
L 396.854161 240.134139 
L 397.677773 290.872611 
L 397.678155 286.549606 
L 398.486891 264.400712 
L 398.487273 236.766217 
" style="fill:none;"/>
   </g>
   <g id="patch_14">
    <path d="M 57.6 307.584 
L 57.6 198.966857 
" style="fill:none;stroke:#000000;stroke-linecap:square;stroke-linejoin:miter;stroke-width:0.8;"/>
   </g>
   <g id="patch_15">
    <path d="M 414.72 307.584 
L 414.72 198.966857 
" style="fill:none;stroke:#000000;stroke-linecap:square;stroke-linejoin:miter;stroke-width:0.8;"/>
   </g>
   <g id="patch_16">
    <path d="M 57.6 307.584 
L 414.72 307.584 
" style="fill:none;stroke:#000000;stroke-linecap:square;stroke-linejoin:miter;stroke-width:0.8;"/>
   </g>
   <g id="patch_17">
    <path d="M 57.6 198.966857 
L 414.72 198.966857 
" style="fill:none;stroke:#000000;stroke-linecap:square;stroke-linejoin:miter;stroke-width:0.8;"/>
   </g>
   <g id="text_36">
    <!-- Light Curve -->
    <g transform="translate(206.000625 192.966857)scale(0.1 -0.1)">
     <use xlink:href="#DejaVuSerif-76"/>
     <use x="66.40625" xlink:href="#DejaVuSerif-105"/>
     <use x="98.388672" xlink:href="#DejaVuSerif-103"/>
     <use x="162.402344" xlink:href="#DejaVuSerif-104"/>
     <use x="226.806641" xlink:href="#DejaVuSerif-116"/>
     <use x="266.992188" xlink:href="#DejaVuSerif-32"/>
     <use x="298.779297" xlink:href="#DejaVuSerif-67"/>
     <use x="375.292969" xlink:href="#DejaVuSerif-117"/>
     <use x="439.697266" xlink:href="#DejaVuSerif-114"/>
     <use x="487.5" xlink:href="#DejaVuSerif-118"/>
     <use x="543.994141" xlink:href="#DejaVuSerif-101"/>
    </g>
   </g>
  </g>
 </g>
 <defs>
  <clipPath id="p2fd8eb4f06">
   <rect height="108.617143" width="148.8" x="265.92" y="41.472"/>
  </clipPath>
  <clipPath id="p88f4048528">
   <rect height="108.617143" width="148.8" x="57.6" y="41.472"/>
  </clipPath>
  <clipPath id="pb8c4de97a4">
   <rect height="108.617143" width="357.12" x="57.6" y="198.966857"/>
  </clipPath>
 </defs>
</svg>
