<?xml version="1.0" encoding="utf-8" standalone="no"?>
<!DOCTYPE svg PUBLIC "-//W3C//DTD SVG 1.1//EN"
  "http://www.w3.org/Graphics/SVG/1.1/DTD/svg11.dtd">
<!-- Created with matplotlib (https://matplotlib.org/) -->
<svg height="345.6pt" version="1.1" viewBox="0 0 460.8 345.6" width="460.8pt" xmlns="http://www.w3.org/2000/svg" xmlns:xlink="http://www.w3.org/1999/xlink">
 <metadata>
  <rdf:RDF xmlns:cc="http://creativecommons.org/ns#" xmlns:dc="http://purl.org/dc/elements/1.1/" xmlns:rdf="http://www.w3.org/1999/02/22-rdf-syntax-ns#">
   <cc:Work>
    <dc:type rdf:resource="http://purl.org/dc/dcmitype/StillImage"/>
    <dc:date>2021-02-16T16:29:54.259371</dc:date>
    <dc:format>image/svg+xml</dc:format>
    <dc:creator>
     <cc:Agent>
      <dc:title>Matplotlib v3.3.3, https://matplotlib.org/</dc:title>
     </cc:Agent>
    </dc:creator>
   </cc:Work>
  </rdf:RDF>
 </metadata>
 <defs>
  <style type="text/css">*{stroke-linecap:butt;stroke-linejoin:round;}</style>
 </defs>
 <g id="figure_1">
  <g id="patch_1">
   <path d="M 0 345.6 
L 460.8 345.6 
L 460.8 0 
L 0 0 
z
" style="fill:#ffffff;"/>
  </g>
  <g id="axes_1">
   <g id="patch_2">
    <path d="M 265.92 150.089143 
L 414.72 150.089143 
L 414.72 41.472 
L 265.92 41.472 
z
" style="fill:#ffffff;"/>
   </g>
   <g id="matplotlib.axis_1">
    <g id="xtick_1">
     <g id="line2d_1">
      <defs>
       <path d="M 0 0 
L 0 3.5 
" id="m791799deff" style="stroke:#000000;stroke-width:0.8;"/>
      </defs>
      <g>
       <use style="stroke:#000000;stroke-width:0.8;" x="315.519224" xlink:href="#m791799deff" y="150.089143"/>
      </g>
     </g>
     <g id="text_1">
      <!-- $\mathdefault{10^{1}}$ -->
      <g transform="translate(306.719224 164.68758)scale(0.1 -0.1)">
       <defs>
        <path d="M 14.203125 0 
L 14.203125 5.171875 
L 26.90625 5.171875 
L 26.90625 65.828125 
L 12.203125 56.296875 
L 12.203125 62.703125 
L 29.984375 74.21875 
L 36.71875 74.21875 
L 36.71875 5.171875 
L 49.421875 5.171875 
L 49.421875 0 
z
" id="DejaVuSerif-49"/>
        <path d="M 31.78125 3.421875 
Q 39.265625 3.421875 42.96875 11.625 
Q 46.6875 19.828125 46.6875 36.375 
Q 46.6875 52.984375 42.96875 61.1875 
Q 39.265625 69.390625 31.78125 69.390625 
Q 24.3125 69.390625 20.59375 61.1875 
Q 16.890625 52.984375 16.890625 36.375 
Q 16.890625 19.828125 20.59375 11.625 
Q 24.3125 3.421875 31.78125 3.421875 
z
M 31.78125 -1.421875 
Q 19.921875 -1.421875 13.25 8.53125 
Q 6.59375 18.5 6.59375 36.375 
Q 6.59375 54.296875 13.25 64.25 
Q 19.921875 74.21875 31.78125 74.21875 
Q 43.703125 74.21875 50.34375 64.25 
Q 56.984375 54.296875 56.984375 36.375 
Q 56.984375 18.5 50.34375 8.53125 
Q 43.703125 -1.421875 31.78125 -1.421875 
z
" id="DejaVuSerif-48"/>
       </defs>
       <use transform="translate(0 0.7125)" xlink:href="#DejaVuSerif-49"/>
       <use transform="translate(63.623047 0.7125)" xlink:href="#DejaVuSerif-48"/>
       <use transform="translate(128.154453 37.046875)scale(0.7)" xlink:href="#DejaVuSerif-49"/>
      </g>
     </g>
    </g>
    <g id="xtick_2">
     <g id="line2d_2">
      <g>
       <use style="stroke:#000000;stroke-width:0.8;" x="373.218149" xlink:href="#m791799deff" y="150.089143"/>
      </g>
     </g>
     <g id="text_2">
      <!-- $\mathdefault{10^{2}}$ -->
      <g transform="translate(364.418149 164.68758)scale(0.1 -0.1)">
       <defs>
        <path d="M 12.796875 55.515625 
L 7.328125 55.515625 
L 7.328125 68.5 
Q 12.546875 71.296875 17.84375 72.75 
Q 23.140625 74.21875 28.21875 74.21875 
Q 39.59375 74.21875 46.1875 68.703125 
Q 52.78125 63.1875 52.78125 53.71875 
Q 52.78125 43.015625 37.84375 28.125 
Q 36.671875 27 36.078125 26.421875 
L 17.671875 8.015625 
L 48.09375 8.015625 
L 48.09375 17 
L 53.8125 17 
L 53.8125 0 
L 6.78125 0 
L 6.78125 5.328125 
L 28.90625 27.390625 
Q 36.234375 34.71875 39.359375 40.84375 
Q 42.484375 46.96875 42.484375 53.71875 
Q 42.484375 61.078125 38.640625 65.234375 
Q 34.8125 69.390625 28.078125 69.390625 
Q 21.09375 69.390625 17.28125 65.921875 
Q 13.484375 62.453125 12.796875 55.515625 
z
" id="DejaVuSerif-50"/>
       </defs>
       <use transform="translate(0 0.7125)" xlink:href="#DejaVuSerif-49"/>
       <use transform="translate(63.623047 0.7125)" xlink:href="#DejaVuSerif-48"/>
       <use transform="translate(128.154453 37.046875)scale(0.7)" xlink:href="#DejaVuSerif-50"/>
      </g>
     </g>
    </g>
    <g id="xtick_3">
     <g id="line2d_3">
      <defs>
       <path d="M 0 0 
L 0 2 
" id="mb868a8c313" style="stroke:#000000;stroke-width:0.6;"/>
      </defs>
      <g>
       <use style="stroke:#000000;stroke-width:0.6;" x="275.189406" xlink:href="#mb868a8c313" y="150.089143"/>
      </g>
     </g>
    </g>
    <g id="xtick_4">
     <g id="line2d_4">
      <g>
       <use style="stroke:#000000;stroke-width:0.6;" x="285.349683" xlink:href="#mb868a8c313" y="150.089143"/>
      </g>
     </g>
    </g>
    <g id="xtick_5">
     <g id="line2d_5">
      <g>
       <use style="stroke:#000000;stroke-width:0.6;" x="292.558513" xlink:href="#mb868a8c313" y="150.089143"/>
      </g>
     </g>
    </g>
    <g id="xtick_6">
     <g id="line2d_6">
      <g>
       <use style="stroke:#000000;stroke-width:0.6;" x="298.150117" xlink:href="#mb868a8c313" y="150.089143"/>
      </g>
     </g>
    </g>
    <g id="xtick_7">
     <g id="line2d_7">
      <g>
       <use style="stroke:#000000;stroke-width:0.6;" x="302.71879" xlink:href="#mb868a8c313" y="150.089143"/>
      </g>
     </g>
    </g>
    <g id="xtick_8">
     <g id="line2d_8">
      <g>
       <use style="stroke:#000000;stroke-width:0.6;" x="306.581548" xlink:href="#mb868a8c313" y="150.089143"/>
      </g>
     </g>
    </g>
    <g id="xtick_9">
     <g id="line2d_9">
      <g>
       <use style="stroke:#000000;stroke-width:0.6;" x="309.927621" xlink:href="#mb868a8c313" y="150.089143"/>
      </g>
     </g>
    </g>
    <g id="xtick_10">
     <g id="line2d_10">
      <g>
       <use style="stroke:#000000;stroke-width:0.6;" x="312.879066" xlink:href="#mb868a8c313" y="150.089143"/>
      </g>
     </g>
    </g>
    <g id="xtick_11">
     <g id="line2d_11">
      <g>
       <use style="stroke:#000000;stroke-width:0.6;" x="332.888331" xlink:href="#mb868a8c313" y="150.089143"/>
      </g>
     </g>
    </g>
    <g id="xtick_12">
     <g id="line2d_12">
      <g>
       <use style="stroke:#000000;stroke-width:0.6;" x="343.048608" xlink:href="#mb868a8c313" y="150.089143"/>
      </g>
     </g>
    </g>
    <g id="xtick_13">
     <g id="line2d_13">
      <g>
       <use style="stroke:#000000;stroke-width:0.6;" x="350.257438" xlink:href="#mb868a8c313" y="150.089143"/>
      </g>
     </g>
    </g>
    <g id="xtick_14">
     <g id="line2d_14">
      <g>
       <use style="stroke:#000000;stroke-width:0.6;" x="355.849042" xlink:href="#mb868a8c313" y="150.089143"/>
      </g>
     </g>
    </g>
    <g id="xtick_15">
     <g id="line2d_15">
      <g>
       <use style="stroke:#000000;stroke-width:0.6;" x="360.417715" xlink:href="#mb868a8c313" y="150.089143"/>
      </g>
     </g>
    </g>
    <g id="xtick_16">
     <g id="line2d_16">
      <g>
       <use style="stroke:#000000;stroke-width:0.6;" x="364.280473" xlink:href="#mb868a8c313" y="150.089143"/>
      </g>
     </g>
    </g>
    <g id="xtick_17">
     <g id="line2d_17">
      <g>
       <use style="stroke:#000000;stroke-width:0.6;" x="367.626546" xlink:href="#mb868a8c313" y="150.089143"/>
      </g>
     </g>
    </g>
    <g id="xtick_18">
     <g id="line2d_18">
      <g>
       <use style="stroke:#000000;stroke-width:0.6;" x="370.577991" xlink:href="#mb868a8c313" y="150.089143"/>
      </g>
     </g>
    </g>
    <g id="xtick_19">
     <g id="line2d_19">
      <g>
       <use style="stroke:#000000;stroke-width:0.6;" x="390.587256" xlink:href="#mb868a8c313" y="150.089143"/>
      </g>
     </g>
    </g>
    <g id="xtick_20">
     <g id="line2d_20">
      <g>
       <use style="stroke:#000000;stroke-width:0.6;" x="400.747533" xlink:href="#mb868a8c313" y="150.089143"/>
      </g>
     </g>
    </g>
    <g id="xtick_21">
     <g id="line2d_21">
      <g>
       <use style="stroke:#000000;stroke-width:0.6;" x="407.956364" xlink:href="#mb868a8c313" y="150.089143"/>
      </g>
     </g>
    </g>
    <g id="xtick_22">
     <g id="line2d_22">
      <g>
       <use style="stroke:#000000;stroke-width:0.6;" x="413.547967" xlink:href="#mb868a8c313" y="150.089143"/>
      </g>
     </g>
    </g>
    <g id="text_3">
     <!-- Period d -->
     <g transform="translate(319.231719 178.365705)scale(0.1 -0.1)">
      <defs>
       <path d="M 24.703125 37.109375 
L 37.59375 37.109375 
Q 44.875 37.109375 48.671875 41.03125 
Q 52.484375 44.96875 52.484375 52.390625 
Q 52.484375 59.859375 48.671875 63.765625 
Q 44.875 67.671875 37.59375 67.671875 
L 24.703125 67.671875 
z
M 5.515625 0 
L 5.515625 5.171875 
L 14.796875 5.171875 
L 14.796875 67.671875 
L 5.515625 67.671875 
L 5.515625 72.90625 
L 39.984375 72.90625 
Q 50.921875 72.90625 57.3125 67.359375 
Q 63.71875 61.8125 63.71875 52.390625 
Q 63.71875 43.015625 57.3125 37.453125 
Q 50.921875 31.890625 39.984375 31.890625 
L 24.703125 31.890625 
L 24.703125 5.171875 
L 35.984375 5.171875 
L 35.984375 0 
z
" id="DejaVuSerif-80"/>
       <path d="M 54.203125 25 
L 15.484375 25 
L 15.484375 24.609375 
Q 15.484375 14.109375 19.4375 8.765625 
Q 23.390625 3.421875 31.109375 3.421875 
Q 37.015625 3.421875 40.796875 6.515625 
Q 44.578125 9.625 46.09375 15.71875 
L 53.328125 15.71875 
Q 51.171875 7.171875 45.375 2.875 
Q 39.59375 -1.421875 30.171875 -1.421875 
Q 18.796875 -1.421875 11.890625 6.078125 
Q 4.984375 13.578125 4.984375 25.984375 
Q 4.984375 38.28125 11.765625 45.796875 
Q 18.5625 53.328125 29.59375 53.328125 
Q 41.359375 53.328125 47.65625 46.0625 
Q 53.953125 38.8125 54.203125 25 
z
M 43.609375 30.171875 
Q 43.3125 39.265625 39.765625 43.875 
Q 36.234375 48.484375 29.59375 48.484375 
Q 23.390625 48.484375 19.828125 43.84375 
Q 16.265625 39.203125 15.484375 30.171875 
z
" id="DejaVuSerif-101"/>
       <path d="M 47.796875 52 
L 47.796875 39.015625 
L 42.625 39.015625 
Q 42.390625 42.875 40.484375 44.78125 
Q 38.578125 46.6875 34.90625 46.6875 
Q 28.265625 46.6875 24.71875 42.09375 
Q 21.1875 37.5 21.1875 28.90625 
L 21.1875 5.171875 
L 31.59375 5.171875 
L 31.59375 0 
L 4.109375 0 
L 4.109375 5.171875 
L 12.203125 5.171875 
L 12.203125 46.78125 
L 3.609375 46.78125 
L 3.609375 51.90625 
L 21.1875 51.90625 
L 21.1875 42.671875 
Q 23.828125 48.09375 27.96875 50.703125 
Q 32.125 53.328125 38.09375 53.328125 
Q 40.28125 53.328125 42.703125 52.984375 
Q 45.125 52.640625 47.796875 52 
z
" id="DejaVuSerif-114"/>
       <path d="M 9.71875 68.015625 
Q 9.71875 70.265625 11.34375 71.921875 
Q 12.984375 73.578125 15.28125 73.578125 
Q 17.53125 73.578125 19.15625 71.921875 
Q 20.796875 70.265625 20.796875 68.015625 
Q 20.796875 65.71875 19.1875 64.109375 
Q 17.578125 62.5 15.28125 62.5 
Q 12.984375 62.5 11.34375 64.109375 
Q 9.71875 65.71875 9.71875 68.015625 
z
M 21.1875 5.171875 
L 29.6875 5.171875 
L 29.6875 0 
L 3.609375 0 
L 3.609375 5.171875 
L 12.203125 5.171875 
L 12.203125 46.6875 
L 3.609375 46.6875 
L 3.609375 51.90625 
L 21.1875 51.90625 
z
" id="DejaVuSerif-105"/>
       <path d="M 30.078125 3.421875 
Q 37.3125 3.421875 40.984375 9.125 
Q 44.671875 14.84375 44.671875 25.984375 
Q 44.671875 37.109375 40.984375 42.796875 
Q 37.3125 48.484375 30.078125 48.484375 
Q 22.859375 48.484375 19.171875 42.796875 
Q 15.484375 37.109375 15.484375 25.984375 
Q 15.484375 14.84375 19.1875 9.125 
Q 22.90625 3.421875 30.078125 3.421875 
z
M 30.078125 -1.421875 
Q 18.75 -1.421875 11.859375 6.078125 
Q 4.984375 13.578125 4.984375 25.984375 
Q 4.984375 38.375 11.84375 45.84375 
Q 18.703125 53.328125 30.078125 53.328125 
Q 41.453125 53.328125 48.3125 45.84375 
Q 55.171875 38.375 55.171875 25.984375 
Q 55.171875 13.578125 48.3125 6.078125 
Q 41.453125 -1.421875 30.078125 -1.421875 
z
" id="DejaVuSerif-111"/>
       <path d="M 52.484375 5.171875 
L 61.078125 5.171875 
L 61.078125 0 
L 43.5 0 
L 43.5 8.109375 
Q 40.875 3.21875 36.796875 0.890625 
Q 32.71875 -1.421875 26.703125 -1.421875 
Q 17.140625 -1.421875 11.0625 6.171875 
Q 4.984375 13.765625 4.984375 25.984375 
Q 4.984375 38.1875 11.03125 45.75 
Q 17.09375 53.328125 26.703125 53.328125 
Q 32.71875 53.328125 36.796875 51 
Q 40.875 48.6875 43.5 43.796875 
L 43.5 70.796875 
L 35.015625 70.796875 
L 35.015625 75.984375 
L 52.484375 75.984375 
z
M 43.5 23.390625 
L 43.5 28.515625 
Q 43.5 37.84375 39.90625 42.765625 
Q 36.328125 47.703125 29.5 47.703125 
Q 22.5625 47.703125 19.015625 42.234375 
Q 15.484375 36.765625 15.484375 25.984375 
Q 15.484375 15.234375 19.015625 9.71875 
Q 22.5625 4.203125 29.5 4.203125 
Q 36.328125 4.203125 39.90625 9.109375 
Q 43.5 14.015625 43.5 23.390625 
z
" id="DejaVuSerif-100"/>
       <path id="DejaVuSerif-32"/>
      </defs>
      <use xlink:href="#DejaVuSerif-80"/>
      <use x="62.785156" xlink:href="#DejaVuSerif-101"/>
      <use x="121.964844" xlink:href="#DejaVuSerif-114"/>
      <use x="169.767578" xlink:href="#DejaVuSerif-105"/>
      <use x="201.75" xlink:href="#DejaVuSerif-111"/>
      <use x="261.955078" xlink:href="#DejaVuSerif-100"/>
      <use x="325.96875" xlink:href="#DejaVuSerif-32"/>
      <use x="357.755859" xlink:href="#DejaVuSerif-100"/>
     </g>
    </g>
   </g>
   <g id="matplotlib.axis_2">
    <g id="ytick_1">
     <g id="line2d_23">
      <defs>
       <path d="M 0 0 
L -3.5 0 
" id="mc08d4c21b6" style="stroke:#000000;stroke-width:0.8;"/>
      </defs>
      <g>
       <use style="stroke:#000000;stroke-width:0.8;" x="265.92" xlink:href="#mc08d4c21b6" y="145.155642"/>
      </g>
     </g>
     <g id="text_4">
      <!-- 0.0 -->
      <g transform="translate(243.016875 148.954861)scale(0.1 -0.1)">
       <defs>
        <path d="M 9.421875 5.078125 
Q 9.421875 7.8125 11.28125 9.71875 
Q 13.140625 11.625 15.921875 11.625 
Q 18.609375 11.625 20.5 9.71875 
Q 22.40625 7.8125 22.40625 5.078125 
Q 22.40625 2.390625 20.5 0.484375 
Q 18.609375 -1.421875 15.921875 -1.421875 
Q 13.140625 -1.421875 11.28125 0.453125 
Q 9.421875 2.34375 9.421875 5.078125 
z
" id="DejaVuSerif-46"/>
       </defs>
       <use xlink:href="#DejaVuSerif-48"/>
       <use x="63.623047" xlink:href="#DejaVuSerif-46"/>
       <use x="95.410156" xlink:href="#DejaVuSerif-48"/>
      </g>
     </g>
    </g>
    <g id="ytick_2">
     <g id="line2d_24">
      <g>
       <use style="stroke:#000000;stroke-width:0.8;" x="265.92" xlink:href="#mc08d4c21b6" y="102.103611"/>
      </g>
     </g>
     <g id="text_5">
      <!-- 0.2 -->
      <g transform="translate(243.016875 105.902829)scale(0.1 -0.1)">
       <use xlink:href="#DejaVuSerif-48"/>
       <use x="63.623047" xlink:href="#DejaVuSerif-46"/>
       <use x="95.410156" xlink:href="#DejaVuSerif-50"/>
      </g>
     </g>
    </g>
    <g id="ytick_3">
     <g id="line2d_25">
      <g>
       <use style="stroke:#000000;stroke-width:0.8;" x="265.92" xlink:href="#mc08d4c21b6" y="59.05158"/>
      </g>
     </g>
     <g id="text_6">
      <!-- 0.4 -->
      <g transform="translate(243.016875 62.850798)scale(0.1 -0.1)">
       <defs>
        <path d="M 34.90625 24.703125 
L 34.90625 63.484375 
L 10.015625 24.703125 
z
M 56.390625 0 
L 23.1875 0 
L 23.1875 5.171875 
L 34.90625 5.171875 
L 34.90625 19.484375 
L 3.078125 19.484375 
L 3.078125 24.8125 
L 35.015625 74.21875 
L 44.671875 74.21875 
L 44.671875 24.703125 
L 58.59375 24.703125 
L 58.59375 19.484375 
L 44.671875 19.484375 
L 44.671875 5.171875 
L 56.390625 5.171875 
z
" id="DejaVuSerif-52"/>
       </defs>
       <use xlink:href="#DejaVuSerif-48"/>
       <use x="63.623047" xlink:href="#DejaVuSerif-46"/>
       <use x="95.410156" xlink:href="#DejaVuSerif-52"/>
      </g>
     </g>
    </g>
    <g id="text_7">
     <!-- Power -->
     <g transform="translate(236.937188 111.583696)rotate(-90)scale(0.1 -0.1)">
      <defs>
       <path d="M 48 51.90625 
L 61.28125 11.375 
L 73 46.6875 
L 65.484375 46.6875 
L 65.484375 51.90625 
L 84.28125 51.90625 
L 84.28125 46.6875 
L 78.515625 46.6875 
L 63.09375 0 
L 55.609375 0 
L 42.828125 38.8125 
L 29.984375 0 
L 22.796875 0 
L 7.421875 46.6875 
L 1.609375 46.6875 
L 1.609375 51.90625 
L 25.09375 51.90625 
L 25.09375 46.6875 
L 16.703125 46.6875 
L 28.328125 11.375 
L 41.703125 51.90625 
z
" id="DejaVuSerif-119"/>
      </defs>
      <use xlink:href="#DejaVuSerif-80"/>
      <use x="63.285156" xlink:href="#DejaVuSerif-111"/>
      <use x="123.490234" xlink:href="#DejaVuSerif-119"/>
      <use x="209.085938" xlink:href="#DejaVuSerif-101"/>
      <use x="268.265625" xlink:href="#DejaVuSerif-114"/>
     </g>
    </g>
   </g>
   <g id="LineCollection_1">
    <path clip-path="url(#p9aad1f689f)" d="M 272.688076 46.409143 
L 407.956364 46.409143 
" style="fill:none;stroke:#808080;stroke-dasharray:5.55,2.4;stroke-dashoffset:0;stroke-width:1.5;"/>
   </g>
   <g id="LineCollection_2">
    <path clip-path="url(#p9aad1f689f)" d="M 272.688076 60.41192 
L 407.956364 60.41192 
" style="fill:none;stroke:#a9a9a9;stroke-dasharray:5.55,2.4;stroke-dashoffset:0;stroke-width:1.5;"/>
   </g>
   <g id="LineCollection_3">
    <path clip-path="url(#p9aad1f689f)" d="M 272.688076 71.411742 
L 407.956364 71.411742 
" style="fill:none;stroke:#c0c0c0;stroke-dasharray:5.55,2.4;stroke-dashoffset:0;stroke-width:1.5;"/>
   </g>
   <g id="LineCollection_4">
    <path clip-path="url(#p9aad1f689f)" d="M 272.688076 76.600358 
L 407.956364 76.600358 
" style="fill:none;stroke:#d3d3d3;stroke-dasharray:5.55,2.4;stroke-dashoffset:0;stroke-width:1.5;"/>
   </g>
   <g id="line2d_26">
    <path clip-path="url(#p9aad1f689f)" d="M 407.956364 138.078153 
L 403.213616 123.248109 
L 399.227255 126.545334 
L 395.788878 137.717064 
L 392.765875 144.373786 
L 390.068617 143.156428 
L 387.633683 131.517931 
L 385.414539 122.817299 
L 383.376032 124.909234 
L 381.490955 134.02421 
L 379.73782 143.80749 
L 378.099359 142.153812 
L 376.561486 132.479159 
L 375.112563 127.94538 
L 373.74286 130.612388 
L 372.444161 139.154847 
L 371.209467 145.056481 
L 370.032763 135.137419 
L 368.908846 124.096597 
L 367.833182 123.069624 
L 366.801799 125.571364 
L 365.811193 130.921191 
L 364.858264 141.64602 
L 363.940249 144.985351 
L 363.054681 142.312844 
L 362.199344 135.277713 
L 361.372241 130.596018 
L 360.571569 135.586577 
L 359.79569 136.920156 
L 359.043114 132.625578 
L 358.312483 135.923699 
L 357.602554 141.231923 
L 356.912184 143.095336 
L 356.240326 143.745049 
L 355.586012 129.581117 
L 354.948349 119.012766 
L 354.326511 113.898008 
L 353.719731 113.63056 
L 353.127298 121.798747 
L 352.548548 137.729012 
L 351.982864 144.397176 
L 351.429669 132.153385 
L 350.888423 126.427253 
L 350.358621 130.215833 
L 349.331481 141.511857 
L 348.83328 135.757381 
L 348.344791 117.99209 
L 347.865643 110.443074 
L 347.395485 118.9047 
L 346.933987 138.061907 
L 346.480834 144.832905 
L 346.035731 138.521496 
L 345.598396 127.237997 
L 345.168563 123.389831 
L 344.745979 130.108558 
L 344.330404 133.757491 
L 343.921608 131.949214 
L 343.519374 132.9731 
L 343.123495 139.070526 
L 342.733774 142.744239 
L 342.35002 134.043917 
L 341.972055 122.36145 
L 341.599707 118.188817 
L 341.23281 121.014394 
L 340.51475 140.147813 
L 340.163291 143.67486 
L 339.816694 144.888086 
L 339.474825 144.29359 
L 339.137558 140.275997 
L 338.476344 115.755463 
L 338.152167 113.676104 
L 337.83213 117.599384 
L 337.204063 141.712711 
L 336.895836 141.188707 
L 336.591354 133.650752 
L 336.290527 129.440615 
L 335.993269 131.921402 
L 335.409128 143.387409 
L 335.122085 141.349549 
L 334.838294 137.842854 
L 334.55768 138.752012 
L 334.280174 143.050787 
L 334.005708 144.652829 
L 333.734215 140.604672 
L 333.199898 124.795257 
L 332.936952 123.221565 
L 332.676737 128.077169 
L 332.164275 142.471619 
L 331.911921 142.438012 
L 331.169759 121.891158 
L 330.927177 123.02092 
L 330.448947 133.117285 
L 330.213212 137.41849 
L 329.979673 143.714017 
L 329.748291 142.594547 
L 329.066695 109.944949 
L 328.843554 113.283029 
L 328.403148 142.516449 
L 328.185814 143.035172 
L 327.970348 139.325309 
L 327.756719 140.148855 
L 327.544897 142.475902 
L 327.33485 143.047211 
L 326.919965 123.756248 
L 326.71507 124.059016 
L 326.310239 142.885203 
L 326.11025 143.405893 
L 325.911845 135.938561 
L 325.714998 134.22654 
L 325.325884 144.149346 
L 325.133569 138.634359 
L 324.753312 112.086852 
L 324.565326 114.676826 
L 324.193532 142.126523 
L 324.009683 137.209819 
L 323.645984 106.836498 
L 323.466094 108.841193 
L 322.934048 140.850543 
L 322.75918 144.570713 
L 322.585524 142.910928 
L 322.241781 132.569688 
L 322.071662 128.863355 
L 321.90269 128.441633 
L 321.568126 143.416074 
L 321.402505 143.113078 
L 321.07451 140.627132 
L 320.912109 141.734079 
L 320.750753 144.407501 
L 320.59043 143.753046 
L 320.272828 140.076869 
L 320.115524 139.837569 
L 319.496001 144.921585 
L 319.343484 144.25218 
L 318.891425 134.509969 
L 318.742534 134.148031 
L 318.594521 135.164293 
L 318.155658 144.334252 
L 317.724349 117.657668 
L 317.582214 119.760473 
L 317.160581 139.259295 
L 316.883384 125.1642 
L 316.745926 129.059973 
L 316.473253 140.558344 
L 316.203515 118.5965 
L 316.069727 118.463514 
L 315.672596 137.815735 
L 315.411296 116.928082 
L 315.281661 120.977958 
L 315.024386 144.561294 
L 314.643358 133.077621 
L 314.392521 145.066532 
L 314.268038 139.526612 
L 314.020912 120.673045 
L 313.898256 120.633357 
L 313.533852 144.352866 
L 313.413552 143.642495 
L 313.05608 130.474088 
L 312.938046 132.375222 
L 312.703635 143.436374 
L 312.587246 141.820414 
L 312.356079 137.892727 
L 312.127024 144.669091 
L 312.013277 142.361597 
L 311.675102 117.236723 
L 311.34143 144.710355 
L 311.231186 141.376888 
L 311.012142 126.140487 
L 310.794997 132.617417 
L 310.579717 141.000619 
L 310.472767 141.027841 
L 310.366271 140.345273 
L 310.260226 141.129193 
L 310.154628 143.825904 
L 310.049473 143.683026 
L 309.73663 118.951395 
L 309.633211 123.665829 
L 309.427645 141.294624 
L 309.32549 139.688473 
L 309.122423 133.491045 
L 308.920988 144.472003 
L 308.820874 141.323549 
L 308.621839 127.441623 
L 308.522911 128.620138 
L 308.424372 131.921704 
L 308.326219 127.598136 
L 308.13106 104.182573 
L 308.034047 106.341207 
L 307.745241 140.246513 
L 307.554537 133.040659 
L 307.271175 144.427224 
L 306.990981 130.580739 
L 306.713886 143.641944 
L 306.622198 141.863364 
L 306.349129 120.495761 
L 305.989605 141.434369 
L 305.811759 132.815494 
L 305.723307 134.290282 
L 305.547334 141.437812 
L 305.372589 134.500055 
L 305.112735 144.717331 
L 304.940984 128.162336 
L 304.770402 117.806966 
L 304.432682 144.970615 
L 304.182347 132.144733 
L 304.099454 133.62094 
L 303.934487 139.60177 
L 303.770599 126.870661 
L 303.52676 140.359304 
L 303.28527 111.258545 
L 302.966862 143.575288 
L 302.887888 141.233145 
L 302.809162 140.65139 
L 302.730683 142.067023 
L 302.652449 139.646591 
L 302.49671 125.488948 
L 302.419202 128.625631 
L 302.264901 142.426654 
L 302.035216 128.826461 
L 301.95912 132.595446 
L 301.807618 144.92461 
L 301.657027 132.893438 
L 301.582069 133.177 
L 301.432822 141.040631 
L 301.358531 139.032265 
L 301.13697 126.766533 
L 301.06355 126.730685 
L 300.917351 134.441922 
L 300.69964 124.514312 
L 300.41227 144.519157 
L 300.34094 143.288165 
L 300.269812 142.182781 
L 300.198885 142.676985 
L 300.128159 143.705432 
L 299.987302 136.668688 
L 299.917169 137.339311 
L 299.707941 144.805877 
L 299.56942 141.17519 
L 299.431661 144.241205 
L 299.363064 143.054183 
L 299.226432 132.089117 
L 299.158394 132.887181 
L 298.955381 143.88515 
L 298.62064 131.455465 
L 298.487985 142.682177 
L 298.42192 139.937989 
L 298.290311 122.257872 
L 298.224765 123.930623 
L 298.094184 143.939674 
L 298.029148 141.615742 
L 297.89958 123.501443 
L 297.835046 125.681763 
L 297.706476 144.595135 
L 297.514848 125.444857 
L 297.324675 144.599423 
L 297.19869 128.390346 
L 297.135934 129.720379 
L 297.010892 139.441479 
L 296.886471 120.103583 
L 296.824491 110.128976 
L 296.762664 111.872604 
L 296.639467 126.657601 
L 296.578094 126.01016 
L 296.394874 108.098629 
L 296.273467 127.361057 
L 296.212983 125.842623 
L 296.032403 103.287808 
L 295.912735 125.470789 
L 295.853115 119.714407 
L 295.675101 93.054899 
L 295.557123 117.023648 
L 295.439699 130.516873 
L 295.381192 130.179928 
L 295.322822 131.407605 
L 295.090691 144.71924 
L 294.975427 144.410903 
L 294.86069 140.786302 
L 294.689565 133.764638 
L 294.576127 138.667384 
L 294.5196 137.864609 
L 294.350781 118.546832 
L 294.294759 123.42919 
L 294.183091 143.894414 
L 294.127442 137.5832 
L 294.016515 121.9975 
L 293.961236 126.131311 
L 293.906077 132.896082 
L 293.85104 126.331409 
L 293.686651 77.36573 
L 293.632093 86.315069 
L 293.523333 120.974608 
L 293.469129 119.427812 
L 293.415042 118.832312 
L 293.361072 121.399637 
L 293.199855 144.667671 
L 293.092951 132.996916 
L 293.039669 133.189949 
L 292.9865 136.716961 
L 292.933444 132.685638 
L 292.774947 95.108565 
L 292.722336 98.465012 
L 292.617446 126.03243 
L 292.565165 123.846515 
L 292.460928 104.799715 
L 292.408972 108.598762 
L 292.305382 139.525374 
L 292.253748 134.039558 
L 292.099478 91.699733 
L 291.997158 105.146747 
L 291.946153 102.930979 
L 291.793761 64.995839 
L 291.592001 120.770612 
L 291.342066 141.217063 
L 291.242785 138.984705 
L 291.094598 133.524314 
L 290.898369 90.346233 
L 290.84955 93.876893 
L 290.752198 109.387647 
L 290.703664 104.38723 
L 290.655223 105.875533 
L 290.462392 136.692543 
L 290.414415 133.502643 
L 290.128466 114.091206 
L 290.081123 117.469786 
L 289.986706 130.707217 
L 289.93963 130.360938 
L 289.892643 128.087479 
L 289.845744 128.332235 
L 289.70557 144.04415 
L 289.659019 139.025162 
L 289.519883 123.548995 
L 289.427552 137.123925 
L 289.289692 96.477888 
L 289.243907 97.62449 
L 289.10705 137.459993 
L 289.061597 133.341179 
L 289.016226 129.955332 
L 288.970937 131.886539 
L 288.880604 144.258108 
L 288.835559 142.131431 
L 288.745712 134.723278 
L 288.700909 137.35703 
L 288.611543 142.925476 
L 288.566978 140.019017 
L 288.522494 138.168921 
L 288.478087 139.46871 
L 288.389511 144.756174 
L 288.345339 144.638673 
L 288.213291 138.73648 
L 288.169429 139.286754 
L 288.125643 141.596275 
L 288.081934 141.106246 
L 287.907857 95.926939 
L 287.82127 113.212155 
L 287.778088 114.919879 
L 287.648987 95.98109 
L 287.606101 103.074839 
L 287.435287 128.201004 
L 287.392765 125.615811 
L 287.350314 126.941591 
L 287.05516 139.664229 
L 287.013277 139.586735 
L 286.971464 139.012716 
L 286.929721 139.542383 
L 286.888048 140.227987 
L 286.846443 139.389831 
L 286.804908 138.469125 
L 286.763441 139.074273 
L 286.680713 141.043442 
L 286.598257 134.09458 
L 286.516071 118.812956 
L 286.475079 118.828568 
L 286.352504 132.324552 
L 286.311779 131.626487 
L 286.271119 131.964815 
L 286.149536 143.876627 
L 286.109139 141.595608 
L 286.028539 137.457705 
L 285.988336 139.946521 
L 285.948198 142.350597 
L 285.908124 141.336836 
L 285.828167 136.111057 
L 285.788285 137.965745 
L 285.629385 141.309275 
L 285.550312 144.097315 
L 285.471487 133.720813 
L 285.392909 119.697074 
L 285.353713 120.495992 
L 285.197537 136.329379 
L 285.08104 105.450291 
L 285.003676 114.582347 
L 284.888075 131.878196 
L 284.84966 130.724292 
L 284.734766 137.003418 
L 284.696584 134.336722 
L 284.620396 123.013443 
L 284.582388 124.765446 
L 284.468711 128.931573 
L 284.430932 128.21989 
L 284.393211 128.335086 
L 284.168067 143.692343 
L 284.093466 141.206221 
L 283.834099 130.497669 
L 283.797265 130.864671 
L 283.54093 142.658917 
L 283.504524 141.751869 
L 283.395621 119.006363 
L 283.323282 127.72737 
L 283.287191 135.686899 
L 283.215163 130.688139 
L 283.179227 127.705023 
L 283.143342 131.265989 
L 283.035995 144.073273 
L 283.000314 141.950986 
L 282.964685 140.098405 
L 282.929106 141.193323 
L 282.893577 143.20354 
L 282.858099 142.625936 
L 282.716685 128.377573 
L 282.646277 132.86997 
L 282.611147 134.553603 
L 282.506051 121.920979 
L 282.471117 127.550859 
L 282.401394 141.374211 
L 282.366605 137.522126 
L 282.297172 124.448329 
L 282.262528 128.862651 
L 282.227931 134.913424 
L 282.193382 131.780446 
L 282.09002 93.191035 
L 282.055661 101.675784 
L 281.952864 130.935369 
L 281.918692 125.513686 
L 281.884566 122.430128 
L 281.850487 126.169353 
L 281.748527 142.552032 
L 281.714633 140.103335 
L 281.545843 125.383981 
L 281.512222 124.161616 
L 281.445113 116.8893 
L 281.411626 120.180522 
L 281.378184 120.897724 
L 281.211638 144.506057 
L 281.112239 138.82635 
L 281.046192 139.546957 
L 280.947446 127.179553 
L 280.881831 132.879577 
L 280.718542 140.767649 
L 280.686011 142.626083 
L 280.653522 141.85892 
L 280.523988 135.198022 
L 280.491709 136.290692 
L 280.459471 136.537121 
L 280.330934 107.056198 
L 280.298902 115.689858 
L 280.234961 138.122808 
L 280.171183 127.839015 
L 280.139355 127.950685 
L 280.044112 144.699692 
L 280.012445 141.121157 
L 279.94923 135.881067 
L 279.917683 140.641525 
L 279.886175 144.714178 
L 279.823277 139.928504 
L 279.791887 137.241493 
L 279.760537 139.058983 
L 279.697954 145.124944 
L 279.666721 143.891303 
L 279.604371 138.566342 
L 279.542176 140.449208 
L 279.511136 140.0914 
L 279.38736 100.31009 
L 279.202836 101.706307 
L 278.98926 142.593483 
L 278.958897 144.996024 
L 278.898282 142.573175 
L 278.868029 141.560461 
L 278.837813 142.657729 
L 278.77749 144.192329 
L 278.747382 143.340039 
L 278.657277 138.038051 
L 278.448282 129.60508 
L 278.30006 134.590382 
L 278.27052 138.466477 
L 278.241016 136.62667 
L 278.18211 128.832433 
L 278.152709 131.799605 
L 278.064713 144.582547 
L 278.00622 142.775355 
L 277.947864 144.222808 
L 277.918736 142.359455 
L 277.860583 138.505465 
L 277.802564 140.259479 
L 277.715787 144.373475 
L 277.686927 143.28791 
L 277.600549 132.687074 
L 277.543128 132.86581 
L 277.485839 138.099451 
L 277.457243 142.286688 
L 277.42868 139.22659 
L 277.314753 103.149744 
L 277.286352 115.594826 
L 277.229646 141.547058 
L 277.173068 135.026372 
L 277.144827 135.136827 
L 277.08844 144.895742 
L 277.060294 141.816982 
L 277.004096 128.576046 
L 276.948025 136.2596 
L 276.920036 139.398972 
L 276.864152 135.979687 
L 276.836257 135.603219 
L 276.780559 143.93489 
L 276.697244 139.826964 
L 276.669534 139.03668 
L 276.558999 119.56105 
L 276.531441 124.678416 
L 276.476416 138.808729 
L 276.394104 135.231315 
L 276.33938 133.535262 
L 276.257517 144.771642 
L 276.17592 142.222751 
L 276.14878 142.515438 
L 276.040513 135.028294 
L 275.986554 136.730015 
L 275.932712 132.42312 
L 275.905834 130.200263 
L 275.878985 135.248515 
L 275.798609 145.009455 
L 275.745168 143.698377 
L 275.691841 144.46978 
L 275.585527 138.993774 
L 275.559018 139.107005 
L 275.506086 144.380794 
L 275.479661 142.966209 
L 275.400554 132.913625 
L 275.374241 137.06943 
L 275.347955 143.417594 
L 275.295466 134.115599 
L 275.164722 123.669075 
L 275.216938 134.603218 
L 275.138655 124.14461 
L 275.086602 128.820412 
L 275.034656 138.751711 
L 274.982819 128.09919 
L 274.931088 135.830393 
L 274.905263 143.150154 
L 274.853692 134.394546 
L 274.802226 129.803401 
L 274.776534 134.603608 
L 274.725226 144.506475 
L 274.648462 138.982934 
L 274.597417 134.795353 
L 274.571933 137.524974 
L 274.4449 144.760529 
L 274.343736 130.084477 
L 274.242979 136.303515 
L 274.192752 138.324721 
L 274.117599 144.389168 
L 274.067622 142.090342 
L 274.042671 142.066111 
L 274.017745 143.578466 
L 273.992843 142.960693 
L 273.868706 128.338748 
L 273.843952 130.317119 
L 273.819223 132.9417 
L 273.794518 129.521444 
L 273.769837 124.878232 
L 273.69594 130.439449 
L 273.573261 144.103309 
L 273.499941 131.78749 
L 273.45118 139.210472 
L 273.426835 141.442192 
L 273.402514 137.030474 
L 273.378216 132.014769 
L 273.329691 140.112773 
L 273.305463 144.791797 
L 273.281259 140.594631 
L 273.208788 125.063437 
L 273.184677 129.201209 
L 273.160589 137.562927 
L 273.112483 118.357347 
L 273.088465 110.392442 
L 273.016548 122.608947 
L 272.968717 138.930883 
L 272.897142 132.211276 
L 272.754603 145.152 
L 272.70727 141.52406 
L 272.683636 136.868048 
L 272.683636 136.868048 
" style="fill:none;stroke:#1f77b4;stroke-linecap:square;stroke-width:1.5;"/>
   </g>
   <g id="patch_3">
    <path d="M 265.92 150.089143 
L 265.92 41.472 
" style="fill:none;stroke:#000000;stroke-linecap:square;stroke-linejoin:miter;stroke-width:0.8;"/>
   </g>
   <g id="patch_4">
    <path d="M 414.72 150.089143 
L 414.72 41.472 
" style="fill:none;stroke:#000000;stroke-linecap:square;stroke-linejoin:miter;stroke-width:0.8;"/>
   </g>
   <g id="patch_5">
    <path d="M 265.92 150.089143 
L 414.72 150.089143 
" style="fill:none;stroke:#000000;stroke-linecap:square;stroke-linejoin:miter;stroke-width:0.8;"/>
   </g>
   <g id="patch_6">
    <path d="M 265.92 41.472 
L 414.72 41.472 
" style="fill:none;stroke:#000000;stroke-linecap:square;stroke-linejoin:miter;stroke-width:0.8;"/>
   </g>
   <g id="text_8">
    <!-- Periodogram -->
    <g transform="translate(307.698125 35.472)scale(0.1 -0.1)">
     <defs>
      <path d="M 52.484375 46.6875 
L 52.484375 1.125 
Q 52.484375 -10.0625 46.328125 -16.140625 
Q 40.1875 -22.21875 28.8125 -22.21875 
Q 23.6875 -22.21875 19 -21.28125 
Q 14.3125 -20.359375 10.015625 -18.5 
L 10.015625 -7.625 
L 14.703125 -7.625 
Q 15.578125 -12.703125 18.84375 -15.046875 
Q 22.125 -17.390625 28.21875 -17.390625 
Q 36.140625 -17.390625 39.8125 -12.921875 
Q 43.5 -8.453125 43.5 1.125 
L 43.5 8.109375 
Q 40.875 3.21875 36.796875 0.890625 
Q 32.71875 -1.421875 26.703125 -1.421875 
Q 17.140625 -1.421875 11.0625 6.171875 
Q 4.984375 13.765625 4.984375 25.984375 
Q 4.984375 38.1875 11.03125 45.75 
Q 17.09375 53.328125 26.703125 53.328125 
Q 32.71875 53.328125 36.796875 51 
Q 40.875 48.6875 43.5 43.796875 
L 43.5 51.90625 
L 61.078125 51.90625 
L 61.078125 46.6875 
z
M 43.5 28.515625 
Q 43.5 37.84375 39.90625 42.765625 
Q 36.328125 47.703125 29.5 47.703125 
Q 22.5625 47.703125 19.015625 42.234375 
Q 15.484375 36.765625 15.484375 25.984375 
Q 15.484375 15.234375 19.015625 9.71875 
Q 22.5625 4.203125 29.5 4.203125 
Q 36.328125 4.203125 39.90625 9.109375 
Q 43.5 14.015625 43.5 23.390625 
z
" id="DejaVuSerif-103"/>
      <path d="M 39.796875 16.3125 
L 39.796875 27.296875 
L 28.21875 27.296875 
Q 21.53125 27.296875 18.25 24.40625 
Q 14.984375 21.53125 14.984375 15.578125 
Q 14.984375 10.15625 18.296875 6.984375 
Q 21.625 3.8125 27.296875 3.8125 
Q 32.90625 3.8125 36.34375 7.28125 
Q 39.796875 10.75 39.796875 16.3125 
z
M 48.78125 32.421875 
L 48.78125 5.171875 
L 56.78125 5.171875 
L 56.78125 0 
L 39.796875 0 
L 39.796875 5.609375 
Q 36.8125 2 32.90625 0.28125 
Q 29 -1.421875 23.78125 -1.421875 
Q 15.140625 -1.421875 10.0625 3.171875 
Q 4.984375 7.765625 4.984375 15.578125 
Q 4.984375 23.640625 10.796875 28.078125 
Q 16.609375 32.515625 27.203125 32.515625 
L 39.796875 32.515625 
L 39.796875 36.078125 
Q 39.796875 42 36.203125 45.234375 
Q 32.625 48.484375 26.125 48.484375 
Q 20.75 48.484375 17.578125 46.046875 
Q 14.40625 43.609375 13.625 38.8125 
L 8.984375 38.8125 
L 8.984375 49.3125 
Q 13.671875 51.3125 18.09375 52.3125 
Q 22.515625 53.328125 26.703125 53.328125 
Q 37.5 53.328125 43.140625 47.96875 
Q 48.78125 42.625 48.78125 32.421875 
z
" id="DejaVuSerif-97"/>
      <path d="M 51.8125 41.796875 
Q 54.390625 47.515625 58.421875 50.421875 
Q 62.453125 53.328125 67.828125 53.328125 
Q 75.984375 53.328125 79.984375 48.265625 
Q 83.984375 43.21875 83.984375 33.015625 
L 83.984375 5.171875 
L 92.09375 5.171875 
L 92.09375 0 
L 67.1875 0 
L 67.1875 5.171875 
L 75 5.171875 
L 75 31.984375 
Q 75 39.9375 72.65625 43.3125 
Q 70.3125 46.6875 64.890625 46.6875 
Q 58.890625 46.6875 55.734375 42.140625 
Q 52.59375 37.59375 52.59375 28.90625 
L 52.59375 5.171875 
L 60.40625 5.171875 
L 60.40625 0 
L 35.796875 0 
L 35.796875 5.171875 
L 43.609375 5.171875 
L 43.609375 32.328125 
Q 43.609375 40.09375 41.265625 43.390625 
Q 38.921875 46.6875 33.5 46.6875 
Q 27.484375 46.6875 24.328125 42.140625 
Q 21.1875 37.59375 21.1875 28.90625 
L 21.1875 5.171875 
L 29 5.171875 
L 29 0 
L 4.109375 0 
L 4.109375 5.171875 
L 12.203125 5.171875 
L 12.203125 46.78125 
L 3.609375 46.78125 
L 3.609375 51.90625 
L 21.1875 51.90625 
L 21.1875 42.671875 
Q 23.6875 47.859375 27.53125 50.59375 
Q 31.390625 53.328125 36.28125 53.328125 
Q 42.328125 53.328125 46.375 50.3125 
Q 50.4375 47.3125 51.8125 41.796875 
z
" id="DejaVuSerif-109"/>
     </defs>
     <use xlink:href="#DejaVuSerif-80"/>
     <use x="62.785156" xlink:href="#DejaVuSerif-101"/>
     <use x="121.964844" xlink:href="#DejaVuSerif-114"/>
     <use x="169.767578" xlink:href="#DejaVuSerif-105"/>
     <use x="201.75" xlink:href="#DejaVuSerif-111"/>
     <use x="261.955078" xlink:href="#DejaVuSerif-100"/>
     <use x="325.96875" xlink:href="#DejaVuSerif-111"/>
     <use x="386.173828" xlink:href="#DejaVuSerif-103"/>
     <use x="450.1875" xlink:href="#DejaVuSerif-114"/>
     <use x="497.990234" xlink:href="#DejaVuSerif-97"/>
     <use x="557.609375" xlink:href="#DejaVuSerif-109"/>
    </g>
   </g>
   <g id="legend_1">
    <g id="patch_7">
     <path d="M 419.648125 108.123071 
L 454.431875 108.123071 
Q 455.231875 108.123071 455.231875 107.323071 
L 455.231875 84.238071 
Q 455.231875 83.438071 454.431875 83.438071 
L 419.648125 83.438071 
Q 418.848125 83.438071 418.848125 84.238071 
L 418.848125 107.323071 
Q 418.848125 108.123071 419.648125 108.123071 
z
" style="fill:#ffffff;opacity:0.8;stroke:#cccccc;stroke-linejoin:miter;"/>
    </g>
    <g id="line2d_27">
     <path d="M 420.448125 86.677446 
L 428.448125 86.677446 
" style="fill:none;stroke:#808080;stroke-dasharray:5.55,2.4;stroke-dashoffset:0;stroke-width:1.5;"/>
    </g>
    <g id="text_9">
     <!-- 99.9% FAP -->
     <g transform="translate(431.648125 88.077446)scale(0.04 -0.04)">
      <defs>
       <path d="M 46.78125 32.671875 
Q 43.5 29 39.25 27.1875 
Q 35.015625 25.390625 29.6875 25.390625 
Q 18.84375 25.390625 12.5625 31.9375 
Q 6.296875 38.484375 6.296875 49.8125 
Q 6.296875 60.890625 13.109375 67.546875 
Q 19.921875 74.21875 31.296875 74.21875 
Q 43.65625 74.21875 50.265625 65.015625 
Q 56.890625 55.8125 56.890625 38.71875 
Q 56.890625 19.578125 49.015625 9.078125 
Q 41.15625 -1.421875 26.90625 -1.421875 
Q 23.046875 -1.421875 18.796875 -0.6875 
Q 14.546875 0.046875 10.109375 1.515625 
L 10.109375 13.625 
L 15.578125 13.625 
Q 16.21875 8.6875 19.390625 6.046875 
Q 22.5625 3.421875 27.875 3.421875 
Q 37.359375 3.421875 41.984375 10.5625 
Q 46.625 17.71875 46.78125 32.671875 
z
M 30.90625 69.390625 
Q 23.96875 69.390625 20.28125 64.328125 
Q 16.609375 59.28125 16.609375 49.8125 
Q 16.609375 40.328125 20.28125 35.25 
Q 23.96875 30.171875 30.90625 30.171875 
Q 37.84375 30.171875 41.53125 35.078125 
Q 45.21875 39.984375 45.21875 49.21875 
Q 45.21875 58.9375 41.5 64.15625 
Q 37.796875 69.390625 30.90625 69.390625 
z
" id="DejaVuSerif-57"/>
       <path d="M 22.40625 69.671875 
Q 18.109375 69.671875 15.6875 65.625 
Q 13.28125 61.578125 13.28125 54.296875 
Q 13.28125 47.125 15.75 43.015625 
Q 18.21875 38.921875 22.40625 38.921875 
Q 26.5625 38.921875 28.96875 43 
Q 31.390625 47.078125 31.390625 54.296875 
Q 31.390625 61.53125 28.96875 65.59375 
Q 26.5625 69.671875 22.40625 69.671875 
z
M 72.703125 33.890625 
Q 68.453125 33.890625 66.03125 29.78125 
Q 63.625 25.6875 63.625 18.40625 
Q 63.625 11.234375 66.0625 7.15625 
Q 68.5 3.078125 72.703125 3.078125 
Q 76.90625 3.078125 79.296875 7.15625 
Q 81.6875 11.234375 81.6875 18.40625 
Q 81.6875 25.640625 79.265625 29.765625 
Q 76.859375 33.890625 72.703125 33.890625 
z
M 72.703125 38.28125 
Q 80.421875 38.28125 84.953125 32.90625 
Q 89.5 27.546875 89.5 18.40625 
Q 89.5 9.28125 84.9375 3.921875 
Q 80.375 -1.421875 72.703125 -1.421875 
Q 64.890625 -1.421875 60.34375 3.921875 
Q 55.8125 9.28125 55.8125 18.40625 
Q 55.8125 27.59375 60.375 32.9375 
Q 64.9375 38.28125 72.703125 38.28125 
z
M 66.609375 74.21875 
L 74.03125 74.21875 
L 28.421875 -1.421875 
L 21 -1.421875 
z
M 22.3125 74.21875 
Q 30.03125 74.21875 34.609375 68.875 
Q 39.203125 63.53125 39.203125 54.390625 
Q 39.203125 45.171875 34.640625 39.84375 
Q 30.078125 34.515625 22.3125 34.515625 
Q 14.546875 34.515625 10.03125 39.859375 
Q 5.515625 45.21875 5.515625 54.390625 
Q 5.515625 63.484375 10.046875 68.84375 
Q 14.59375 74.21875 22.3125 74.21875 
z
" id="DejaVuSerif-37"/>
       <path d="M 5.515625 0 
L 5.515625 5.171875 
L 14.796875 5.171875 
L 14.796875 67.671875 
L 5.515625 67.671875 
L 5.515625 72.90625 
L 65.1875 72.90625 
L 65.1875 56.6875 
L 59.1875 56.6875 
L 59.1875 66.890625 
L 24.703125 66.890625 
L 24.703125 42.484375 
L 49.609375 42.484375 
L 49.609375 51.609375 
L 55.609375 51.609375 
L 55.609375 27.390625 
L 49.609375 27.390625 
L 49.609375 36.53125 
L 24.703125 36.53125 
L 24.703125 5.171875 
L 36.375 5.171875 
L 36.375 0 
z
" id="DejaVuSerif-70"/>
       <path d="M 20.015625 26.421875 
L 46.78125 26.421875 
L 33.40625 61.078125 
z
M -0.59375 0 
L -0.59375 5.171875 
L 5.8125 5.171875 
L 31.78125 72.90625 
L 39.984375 72.90625 
L 66.015625 5.171875 
L 73.1875 5.171875 
L 73.1875 0 
L 46.6875 0 
L 46.6875 5.171875 
L 54.78125 5.171875 
L 48.6875 21.1875 
L 18.015625 21.1875 
L 11.921875 5.171875 
L 19.921875 5.171875 
L 19.921875 0 
z
" id="DejaVuSerif-65"/>
      </defs>
      <use xlink:href="#DejaVuSerif-57"/>
      <use x="63.623047" xlink:href="#DejaVuSerif-57"/>
      <use x="127.246094" xlink:href="#DejaVuSerif-46"/>
      <use x="159.033203" xlink:href="#DejaVuSerif-57"/>
      <use x="222.65625" xlink:href="#DejaVuSerif-37"/>
      <use x="317.675781" xlink:href="#DejaVuSerif-32"/>
      <use x="349.462891" xlink:href="#DejaVuSerif-70"/>
      <use x="410.097656" xlink:href="#DejaVuSerif-65"/>
      <use x="482.314453" xlink:href="#DejaVuSerif-80"/>
     </g>
    </g>
    <g id="line2d_28">
     <path d="M 420.448125 92.548696 
L 428.448125 92.548696 
" style="fill:none;stroke:#a9a9a9;stroke-dasharray:5.55,2.4;stroke-dashoffset:0;stroke-width:1.5;"/>
    </g>
    <g id="text_10">
     <!-- 99.0% FAP -->
     <g transform="translate(431.648125 93.948696)scale(0.04 -0.04)">
      <use xlink:href="#DejaVuSerif-57"/>
      <use x="63.623047" xlink:href="#DejaVuSerif-57"/>
      <use x="127.246094" xlink:href="#DejaVuSerif-46"/>
      <use x="159.033203" xlink:href="#DejaVuSerif-48"/>
      <use x="222.65625" xlink:href="#DejaVuSerif-37"/>
      <use x="317.675781" xlink:href="#DejaVuSerif-32"/>
      <use x="349.462891" xlink:href="#DejaVuSerif-70"/>
      <use x="410.097656" xlink:href="#DejaVuSerif-65"/>
      <use x="482.314453" xlink:href="#DejaVuSerif-80"/>
     </g>
    </g>
    <g id="line2d_29">
     <path d="M 420.448125 98.419946 
L 428.448125 98.419946 
" style="fill:none;stroke:#c0c0c0;stroke-dasharray:5.55,2.4;stroke-dashoffset:0;stroke-width:1.5;"/>
    </g>
    <g id="text_11">
     <!-- 95.0% FAP -->
     <g transform="translate(431.648125 99.819946)scale(0.04 -0.04)">
      <defs>
       <path d="M 50.296875 72.90625 
L 50.296875 64.890625 
L 16.890625 64.890625 
L 16.890625 44 
Q 19.4375 45.75 22.828125 46.625 
Q 26.21875 47.515625 30.421875 47.515625 
Q 42.234375 47.515625 49.0625 40.96875 
Q 55.90625 34.421875 55.90625 23.09375 
Q 55.90625 11.53125 49 5.046875 
Q 42.09375 -1.421875 29.59375 -1.421875 
Q 24.5625 -1.421875 19.28125 -0.1875 
Q 14.015625 1.03125 8.5 3.515625 
L 8.5 17.671875 
L 14.015625 17.671875 
Q 14.453125 10.75 18.421875 7.078125 
Q 22.40625 3.421875 29.59375 3.421875 
Q 37.3125 3.421875 41.453125 8.5 
Q 45.609375 13.578125 45.609375 23.09375 
Q 45.609375 32.5625 41.484375 37.609375 
Q 37.359375 42.671875 29.59375 42.671875 
Q 25.203125 42.671875 21.84375 41.109375 
Q 18.5 39.546875 15.921875 36.28125 
L 11.71875 36.28125 
L 11.71875 72.90625 
z
" id="DejaVuSerif-53"/>
      </defs>
      <use xlink:href="#DejaVuSerif-57"/>
      <use x="63.623047" xlink:href="#DejaVuSerif-53"/>
      <use x="127.246094" xlink:href="#DejaVuSerif-46"/>
      <use x="159.033203" xlink:href="#DejaVuSerif-48"/>
      <use x="222.65625" xlink:href="#DejaVuSerif-37"/>
      <use x="317.675781" xlink:href="#DejaVuSerif-32"/>
      <use x="349.462891" xlink:href="#DejaVuSerif-70"/>
      <use x="410.097656" xlink:href="#DejaVuSerif-65"/>
      <use x="482.314453" xlink:href="#DejaVuSerif-80"/>
     </g>
    </g>
    <g id="line2d_30">
     <path d="M 420.448125 104.291196 
L 428.448125 104.291196 
" style="fill:none;stroke:#d3d3d3;stroke-dasharray:5.55,2.4;stroke-dashoffset:0;stroke-width:1.5;"/>
    </g>
    <g id="text_12">
     <!-- 90.0% FAP -->
     <g transform="translate(431.648125 105.691196)scale(0.04 -0.04)">
      <use xlink:href="#DejaVuSerif-57"/>
      <use x="63.623047" xlink:href="#DejaVuSerif-48"/>
      <use x="127.246094" xlink:href="#DejaVuSerif-46"/>
      <use x="159.033203" xlink:href="#DejaVuSerif-48"/>
      <use x="222.65625" xlink:href="#DejaVuSerif-37"/>
      <use x="317.675781" xlink:href="#DejaVuSerif-32"/>
      <use x="349.462891" xlink:href="#DejaVuSerif-70"/>
      <use x="410.097656" xlink:href="#DejaVuSerif-65"/>
      <use x="482.314453" xlink:href="#DejaVuSerif-80"/>
     </g>
    </g>
   </g>
  </g>
  <g id="axes_2">
   <g id="patch_8">
    <path d="M 57.6 150.089143 
L 206.4 150.089143 
L 206.4 41.472 
L 57.6 41.472 
z
" style="fill:#ffffff;"/>
   </g>
   <g id="PathCollection_1">
    <defs>
     <path d="M 0 0.707107 
C 0.187527 0.707107 0.367398 0.632602 0.5 0.5 
C 0.632602 0.367398 0.707107 0.187527 0.707107 0 
C 0.707107 -0.187527 0.632602 -0.367398 0.5 -0.5 
C 0.367398 -0.632602 0.187527 -0.707107 0 -0.707107 
C -0.187527 -0.707107 -0.367398 -0.632602 -0.5 -0.5 
C -0.632602 -0.367398 -0.707107 -0.187527 -0.707107 0 
C -0.707107 0.187527 -0.632602 0.367398 -0.5 0.5 
C -0.367398 0.632602 -0.187527 0.707107 0 0.707107 
z
" id="mcaef492ebb" style="stroke:#1f77b4;"/>
    </defs>
    <g clip-path="url(#p9236980def)">
     <use style="fill:#1f77b4;stroke:#1f77b4;" x="84.463322" xlink:href="#mcaef492ebb" y="79.485005"/>
     <use style="fill:#1f77b4;stroke:#1f77b4;" x="84.471508" xlink:href="#mcaef492ebb" y="79.307057"/>
     <use style="fill:#1f77b4;stroke:#1f77b4;" x="113.602902" xlink:href="#mcaef492ebb" y="94.74489"/>
     <use style="fill:#1f77b4;stroke:#1f77b4;" x="113.611088" xlink:href="#mcaef492ebb" y="95.739938"/>
     <use style="fill:#1f77b4;stroke:#1f77b4;" x="81.91304" xlink:href="#mcaef492ebb" y="91.36519"/>
     <use style="fill:#1f77b4;stroke:#1f77b4;" x="65.79225" xlink:href="#mcaef492ebb" y="80.504356"/>
     <use style="fill:#1f77b4;stroke:#1f77b4;" x="65.84914" xlink:href="#mcaef492ebb" y="76.795668"/>
     <use style="fill:#1f77b4;stroke:#1f77b4;" x="83.282331" xlink:href="#mcaef492ebb" y="83.50883"/>
     <use style="fill:#1f77b4;stroke:#1f77b4;" x="113.365739" xlink:href="#mcaef492ebb" y="74.802696"/>
     <use style="fill:#1f77b4;stroke:#1f77b4;" x="131.028543" xlink:href="#mcaef492ebb" y="142.579989"/>
     <use style="fill:#1f77b4;stroke:#1f77b4;" x="131.036525" xlink:href="#mcaef492ebb" y="145.152"/>
     <use style="fill:#1f77b4;stroke:#1f77b4;" x="98.161354" xlink:href="#mcaef492ebb" y="73.00859"/>
     <use style="fill:#1f77b4;stroke:#1f77b4;" x="98.169538" xlink:href="#mcaef492ebb" y="76.575909"/>
     <use style="fill:#1f77b4;stroke:#1f77b4;" x="64.363636" xlink:href="#mcaef492ebb" y="102.008361"/>
     <use style="fill:#1f77b4;stroke:#1f77b4;" x="64.371823" xlink:href="#mcaef492ebb" y="97.885773"/>
     <use style="fill:#1f77b4;stroke:#1f77b4;" x="81.871523" xlink:href="#mcaef492ebb" y="92.95288"/>
     <use style="fill:#1f77b4;stroke:#1f77b4;" x="81.879708" xlink:href="#mcaef492ebb" y="93.380891"/>
     <use style="fill:#1f77b4;stroke:#1f77b4;" x="100.497391" xlink:href="#mcaef492ebb" y="85.453977"/>
     <use style="fill:#1f77b4;stroke:#1f77b4;" x="100.505372" xlink:href="#mcaef492ebb" y="85.503091"/>
     <use style="fill:#1f77b4;stroke:#1f77b4;" x="117.416511" xlink:href="#mcaef492ebb" y="90.915219"/>
     <use style="fill:#1f77b4;stroke:#1f77b4;" x="117.424697" xlink:href="#mcaef492ebb" y="91.88936"/>
     <use style="fill:#1f77b4;stroke:#1f77b4;" x="66.481317" xlink:href="#mcaef492ebb" y="116.166079"/>
     <use style="fill:#1f77b4;stroke:#1f77b4;" x="66.489298" xlink:href="#mcaef492ebb" y="115.156921"/>
     <use style="fill:#1f77b4;stroke:#1f77b4;" x="88.543813" xlink:href="#mcaef492ebb" y="86.244417"/>
     <use style="fill:#1f77b4;stroke:#1f77b4;" x="74.102964" xlink:href="#mcaef492ebb" y="102.60936"/>
     <use style="fill:#1f77b4;stroke:#1f77b4;" x="91.703964" xlink:href="#mcaef492ebb" y="79.658774"/>
     <use style="fill:#1f77b4;stroke:#1f77b4;" x="109.389484" xlink:href="#mcaef492ebb" y="84.516153"/>
     <use style="fill:#1f77b4;stroke:#1f77b4;" x="127.038371" xlink:href="#mcaef492ebb" y="116.401772"/>
     <use style="fill:#1f77b4;stroke:#1f77b4;" x="76.194451" xlink:href="#mcaef492ebb" y="95.251565"/>
     <use style="fill:#1f77b4;stroke:#1f77b4;" x="82.837478" xlink:href="#mcaef492ebb" y="96.693174"/>
     <use style="fill:#1f77b4;stroke:#1f77b4;" x="101.217366" xlink:href="#mcaef492ebb" y="68.993916"/>
     <use style="fill:#1f77b4;stroke:#1f77b4;" x="121.478562" xlink:href="#mcaef492ebb" y="132.066953"/>
     <use style="fill:#1f77b4;stroke:#1f77b4;" x="70.886356" xlink:href="#mcaef492ebb" y="98.524392"/>
     <use style="fill:#1f77b4;stroke:#1f77b4;" x="125.692231" xlink:href="#mcaef492ebb" y="67.647672"/>
     <use style="fill:#1f77b4;stroke:#1f77b4;" x="110.475156" xlink:href="#mcaef492ebb" y="81.570205"/>
     <use style="fill:#1f77b4;stroke:#1f77b4;" x="128.112817" xlink:href="#mcaef492ebb" y="103.466176"/>
     <use style="fill:#1f77b4;stroke:#1f77b4;" x="130.238274" xlink:href="#mcaef492ebb" y="124.277476"/>
     <use style="fill:#1f77b4;stroke:#1f77b4;" x="101.121434" xlink:href="#mcaef492ebb" y="46.409143"/>
     <use style="fill:#1f77b4;stroke:#1f77b4;" x="83.508263" xlink:href="#mcaef492ebb" y="77.654046"/>
     <use style="fill:#1f77b4;stroke:#1f77b4;" x="88.742933" xlink:href="#mcaef492ebb" y="73.270408"/>
     <use style="fill:#1f77b4;stroke:#1f77b4;" x="116.152228" xlink:href="#mcaef492ebb" y="102.457018"/>
     <use style="fill:#1f77b4;stroke:#1f77b4;" x="116.160209" xlink:href="#mcaef492ebb" y="101.726939"/>
     <use style="fill:#1f77b4;stroke:#1f77b4;" x="64.782366" xlink:href="#mcaef492ebb" y="105.931315"/>
     <use style="fill:#1f77b4;stroke:#1f77b4;" x="64.790347" xlink:href="#mcaef492ebb" y="108.901306"/>
     <use style="fill:#1f77b4;stroke:#1f77b4;" x="81.701281" xlink:href="#mcaef492ebb" y="124.611424"/>
     <use style="fill:#1f77b4;stroke:#1f77b4;" x="81.709262" xlink:href="#mcaef492ebb" y="117.548902"/>
    </g>
   </g>
   <g id="PathCollection_2">
    <g clip-path="url(#p9236980def)">
     <use style="fill:#1f77b4;stroke:#1f77b4;" x="153.063161" xlink:href="#mcaef492ebb" y="79.485005"/>
     <use style="fill:#1f77b4;stroke:#1f77b4;" x="153.071347" xlink:href="#mcaef492ebb" y="79.307057"/>
     <use style="fill:#1f77b4;stroke:#1f77b4;" x="182.202741" xlink:href="#mcaef492ebb" y="94.74489"/>
     <use style="fill:#1f77b4;stroke:#1f77b4;" x="182.210927" xlink:href="#mcaef492ebb" y="95.739938"/>
     <use style="fill:#1f77b4;stroke:#1f77b4;" x="150.512879" xlink:href="#mcaef492ebb" y="91.36519"/>
     <use style="fill:#1f77b4;stroke:#1f77b4;" x="134.392089" xlink:href="#mcaef492ebb" y="80.504356"/>
     <use style="fill:#1f77b4;stroke:#1f77b4;" x="134.448979" xlink:href="#mcaef492ebb" y="76.795668"/>
     <use style="fill:#1f77b4;stroke:#1f77b4;" x="151.88217" xlink:href="#mcaef492ebb" y="83.50883"/>
     <use style="fill:#1f77b4;stroke:#1f77b4;" x="181.965578" xlink:href="#mcaef492ebb" y="74.802696"/>
     <use style="fill:#1f77b4;stroke:#1f77b4;" x="199.628382" xlink:href="#mcaef492ebb" y="142.579989"/>
     <use style="fill:#1f77b4;stroke:#1f77b4;" x="199.636364" xlink:href="#mcaef492ebb" y="145.152"/>
     <use style="fill:#1f77b4;stroke:#1f77b4;" x="166.761193" xlink:href="#mcaef492ebb" y="73.00859"/>
     <use style="fill:#1f77b4;stroke:#1f77b4;" x="166.769377" xlink:href="#mcaef492ebb" y="76.575909"/>
     <use style="fill:#1f77b4;stroke:#1f77b4;" x="132.963475" xlink:href="#mcaef492ebb" y="102.008361"/>
     <use style="fill:#1f77b4;stroke:#1f77b4;" x="132.971662" xlink:href="#mcaef492ebb" y="97.885773"/>
     <use style="fill:#1f77b4;stroke:#1f77b4;" x="150.471362" xlink:href="#mcaef492ebb" y="92.95288"/>
     <use style="fill:#1f77b4;stroke:#1f77b4;" x="150.479547" xlink:href="#mcaef492ebb" y="93.380891"/>
     <use style="fill:#1f77b4;stroke:#1f77b4;" x="169.09723" xlink:href="#mcaef492ebb" y="85.453977"/>
     <use style="fill:#1f77b4;stroke:#1f77b4;" x="169.105211" xlink:href="#mcaef492ebb" y="85.503091"/>
     <use style="fill:#1f77b4;stroke:#1f77b4;" x="186.01635" xlink:href="#mcaef492ebb" y="90.915219"/>
     <use style="fill:#1f77b4;stroke:#1f77b4;" x="186.024536" xlink:href="#mcaef492ebb" y="91.88936"/>
     <use style="fill:#1f77b4;stroke:#1f77b4;" x="135.081156" xlink:href="#mcaef492ebb" y="116.166079"/>
     <use style="fill:#1f77b4;stroke:#1f77b4;" x="135.089137" xlink:href="#mcaef492ebb" y="115.156921"/>
     <use style="fill:#1f77b4;stroke:#1f77b4;" x="157.143652" xlink:href="#mcaef492ebb" y="86.244417"/>
     <use style="fill:#1f77b4;stroke:#1f77b4;" x="142.702803" xlink:href="#mcaef492ebb" y="102.60936"/>
     <use style="fill:#1f77b4;stroke:#1f77b4;" x="160.303803" xlink:href="#mcaef492ebb" y="79.658774"/>
     <use style="fill:#1f77b4;stroke:#1f77b4;" x="177.989323" xlink:href="#mcaef492ebb" y="84.516153"/>
     <use style="fill:#1f77b4;stroke:#1f77b4;" x="195.63821" xlink:href="#mcaef492ebb" y="116.401772"/>
     <use style="fill:#1f77b4;stroke:#1f77b4;" x="144.79429" xlink:href="#mcaef492ebb" y="95.251565"/>
     <use style="fill:#1f77b4;stroke:#1f77b4;" x="151.437317" xlink:href="#mcaef492ebb" y="96.693174"/>
     <use style="fill:#1f77b4;stroke:#1f77b4;" x="169.817205" xlink:href="#mcaef492ebb" y="68.993916"/>
     <use style="fill:#1f77b4;stroke:#1f77b4;" x="190.078401" xlink:href="#mcaef492ebb" y="132.066953"/>
     <use style="fill:#1f77b4;stroke:#1f77b4;" x="139.486195" xlink:href="#mcaef492ebb" y="98.524392"/>
     <use style="fill:#1f77b4;stroke:#1f77b4;" x="194.29207" xlink:href="#mcaef492ebb" y="67.647672"/>
     <use style="fill:#1f77b4;stroke:#1f77b4;" x="179.074995" xlink:href="#mcaef492ebb" y="81.570205"/>
     <use style="fill:#1f77b4;stroke:#1f77b4;" x="196.712656" xlink:href="#mcaef492ebb" y="103.466176"/>
     <use style="fill:#1f77b4;stroke:#1f77b4;" x="198.838113" xlink:href="#mcaef492ebb" y="124.277476"/>
     <use style="fill:#1f77b4;stroke:#1f77b4;" x="169.721273" xlink:href="#mcaef492ebb" y="46.409143"/>
     <use style="fill:#1f77b4;stroke:#1f77b4;" x="152.108102" xlink:href="#mcaef492ebb" y="77.654046"/>
     <use style="fill:#1f77b4;stroke:#1f77b4;" x="157.342772" xlink:href="#mcaef492ebb" y="73.270408"/>
     <use style="fill:#1f77b4;stroke:#1f77b4;" x="184.752067" xlink:href="#mcaef492ebb" y="102.457018"/>
     <use style="fill:#1f77b4;stroke:#1f77b4;" x="184.760048" xlink:href="#mcaef492ebb" y="101.726939"/>
     <use style="fill:#1f77b4;stroke:#1f77b4;" x="133.382205" xlink:href="#mcaef492ebb" y="105.931315"/>
     <use style="fill:#1f77b4;stroke:#1f77b4;" x="133.390186" xlink:href="#mcaef492ebb" y="108.901306"/>
     <use style="fill:#1f77b4;stroke:#1f77b4;" x="150.30112" xlink:href="#mcaef492ebb" y="124.611424"/>
     <use style="fill:#1f77b4;stroke:#1f77b4;" x="150.309101" xlink:href="#mcaef492ebb" y="117.548902"/>
    </g>
   </g>
   <g id="matplotlib.axis_3">
    <g id="xtick_23">
     <g id="line2d_31">
      <g>
       <use style="stroke:#000000;stroke-width:0.8;" x="63.551534" xlink:href="#m791799deff" y="150.089143"/>
      </g>
     </g>
     <g id="text_13">
      <!-- 0 -->
      <g transform="translate(60.370284 164.68758)scale(0.1 -0.1)">
       <use xlink:href="#DejaVuSerif-48"/>
      </g>
     </g>
    </g>
    <g id="xtick_24">
     <g id="line2d_32">
      <g>
       <use style="stroke:#000000;stroke-width:0.8;" x="132.151373" xlink:href="#m791799deff" y="150.089143"/>
      </g>
     </g>
     <g id="text_14">
      <!-- 1 -->
      <g transform="translate(128.970123 164.68758)scale(0.1 -0.1)">
       <use xlink:href="#DejaVuSerif-49"/>
      </g>
     </g>
    </g>
    <g id="xtick_25">
     <g id="line2d_33">
      <g>
       <use style="stroke:#000000;stroke-width:0.8;" x="200.751212" xlink:href="#m791799deff" y="150.089143"/>
      </g>
     </g>
     <g id="text_15">
      <!-- 2 -->
      <g transform="translate(197.569962 164.68758)scale(0.1 -0.1)">
       <use xlink:href="#DejaVuSerif-50"/>
      </g>
     </g>
    </g>
    <g id="text_16">
     <!-- Phase (P = 3.88 d) -->
     <g transform="translate(84.764062 178.365705)scale(0.1 -0.1)">
      <defs>
       <path d="M 4.109375 0 
L 4.109375 5.171875 
L 12.203125 5.171875 
L 12.203125 70.796875 
L 3.609375 70.796875 
L 3.609375 75.984375 
L 21.1875 75.984375 
L 21.1875 42.671875 
Q 23.6875 47.953125 27.65625 50.640625 
Q 31.640625 53.328125 36.921875 53.328125 
Q 45.515625 53.328125 49.5625 48.390625 
Q 53.609375 43.453125 53.609375 33.015625 
L 53.609375 5.171875 
L 61.625 5.171875 
L 61.625 0 
L 36.8125 0 
L 36.8125 5.171875 
L 44.578125 5.171875 
L 44.578125 30.171875 
Q 44.578125 39.703125 42.25 43.1875 
Q 39.9375 46.6875 33.984375 46.6875 
Q 27.734375 46.6875 24.453125 42.140625 
Q 21.1875 37.59375 21.1875 28.90625 
L 21.1875 5.171875 
L 29 5.171875 
L 29 0 
z
" id="DejaVuSerif-104"/>
       <path d="M 5.609375 2.875 
L 5.609375 14.984375 
L 10.796875 14.984375 
Q 10.984375 9.1875 14.421875 6.296875 
Q 17.875 3.421875 24.609375 3.421875 
Q 30.671875 3.421875 33.84375 5.6875 
Q 37.015625 7.953125 37.015625 12.3125 
Q 37.015625 15.71875 34.6875 17.8125 
Q 32.375 19.921875 24.90625 22.3125 
L 18.40625 24.515625 
Q 11.71875 26.65625 8.71875 29.875 
Q 5.71875 33.109375 5.71875 38.09375 
Q 5.71875 45.21875 10.9375 49.265625 
Q 16.15625 53.328125 25.390625 53.328125 
Q 29.5 53.328125 34.03125 52.25 
Q 38.578125 51.171875 43.40625 49.125 
L 43.40625 37.796875 
L 38.234375 37.796875 
Q 38.03125 42.828125 34.703125 45.65625 
Q 31.390625 48.484375 25.6875 48.484375 
Q 20.015625 48.484375 17.109375 46.484375 
Q 14.203125 44.484375 14.203125 40.484375 
Q 14.203125 37.203125 16.40625 35.21875 
Q 18.609375 33.25 25.203125 31.203125 
L 32.328125 29 
Q 39.703125 26.703125 42.9375 23.265625 
Q 46.1875 19.828125 46.1875 14.40625 
Q 46.1875 7.03125 40.546875 2.796875 
Q 34.90625 -1.421875 25 -1.421875 
Q 19.96875 -1.421875 15.1875 -0.34375 
Q 10.40625 0.734375 5.609375 2.875 
z
" id="DejaVuSerif-115"/>
       <path d="M 31.890625 -15.578125 
Q 20.015625 -10.25 13.953125 1.296875 
Q 7.90625 12.84375 7.90625 30.171875 
Q 7.90625 47.5625 13.953125 59.109375 
Q 20.015625 70.65625 31.890625 75.984375 
L 31.890625 71.1875 
Q 24.359375 66.015625 21.09375 56.609375 
Q 17.828125 47.21875 17.828125 30.171875 
Q 17.828125 13.1875 21.09375 3.78125 
Q 24.359375 -5.609375 31.890625 -10.796875 
z
" id="DejaVuSerif-40"/>
       <path d="M 10.59375 45.21875 
L 73.1875 45.21875 
L 73.1875 37.40625 
L 10.59375 37.40625 
z
M 10.59375 25.296875 
L 73.1875 25.296875 
L 73.1875 17.484375 
L 10.59375 17.484375 
z
" id="DejaVuSerif-61"/>
       <path d="M 9.71875 69.828125 
Q 15.4375 71.96875 20.671875 73.09375 
Q 25.921875 74.21875 30.515625 74.21875 
Q 41.21875 74.21875 47.21875 69.59375 
Q 53.21875 64.984375 53.21875 56.78125 
Q 53.21875 50.203125 49.0625 45.78125 
Q 44.921875 41.359375 37.3125 39.796875 
Q 46.296875 38.53125 51.25 33.28125 
Q 56.203125 28.03125 56.203125 19.671875 
Q 56.203125 9.46875 49.34375 4.015625 
Q 42.484375 -1.421875 29.59375 -1.421875 
Q 23.875 -1.421875 18.421875 -0.1875 
Q 12.984375 1.03125 7.625 3.515625 
L 7.625 17.671875 
L 13.09375 17.671875 
Q 13.578125 10.640625 17.828125 7.03125 
Q 22.078125 3.421875 29.78125 3.421875 
Q 37.25 3.421875 41.578125 7.734375 
Q 45.90625 12.0625 45.90625 19.578125 
Q 45.90625 28.171875 41.453125 32.59375 
Q 37.015625 37.015625 28.421875 37.015625 
L 23.78125 37.015625 
L 23.78125 42 
L 26.21875 42 
Q 34.765625 42 39.03125 45.53125 
Q 43.3125 49.078125 43.3125 56.203125 
Q 43.3125 62.59375 39.796875 65.984375 
Q 36.28125 69.390625 29.6875 69.390625 
Q 23.09375 69.390625 19.453125 66.265625 
Q 15.828125 63.140625 15.1875 56.984375 
L 9.71875 56.984375 
z
" id="DejaVuSerif-51"/>
       <path d="M 46.578125 19.921875 
Q 46.578125 27.734375 42.6875 32.046875 
Q 38.8125 36.375 31.78125 36.375 
Q 24.75 36.375 20.875 32.046875 
Q 17 27.734375 17 19.921875 
Q 17 12.0625 20.875 7.734375 
Q 24.75 3.421875 31.78125 3.421875 
Q 38.8125 3.421875 42.6875 7.734375 
Q 46.578125 12.0625 46.578125 19.921875 
z
M 44.578125 55.328125 
Q 44.578125 61.96875 41.203125 65.671875 
Q 37.84375 69.390625 31.78125 69.390625 
Q 25.78125 69.390625 22.390625 65.671875 
Q 19 61.96875 19 55.328125 
Q 19 48.640625 22.390625 44.921875 
Q 25.78125 41.21875 31.78125 41.21875 
Q 37.84375 41.21875 41.203125 44.921875 
Q 44.578125 48.640625 44.578125 55.328125 
z
M 39.3125 38.8125 
Q 47.609375 37.703125 52.25 32.6875 
Q 56.890625 27.6875 56.890625 19.921875 
Q 56.890625 9.671875 50.390625 4.125 
Q 43.890625 -1.421875 31.78125 -1.421875 
Q 19.734375 -1.421875 13.203125 4.125 
Q 6.6875 9.671875 6.6875 19.921875 
Q 6.6875 27.6875 11.328125 32.6875 
Q 15.96875 37.703125 24.3125 38.8125 
Q 16.9375 40.140625 13 44.40625 
Q 9.078125 48.6875 9.078125 55.328125 
Q 9.078125 64.109375 15.125 69.15625 
Q 21.1875 74.21875 31.78125 74.21875 
Q 42.390625 74.21875 48.4375 69.15625 
Q 54.5 64.109375 54.5 55.328125 
Q 54.5 48.6875 50.5625 44.40625 
Q 46.625 40.140625 39.3125 38.8125 
z
" id="DejaVuSerif-56"/>
       <path d="M 7.078125 -15.578125 
L 7.078125 -10.796875 
Q 14.59375 -5.609375 17.890625 3.78125 
Q 21.1875 13.1875 21.1875 30.171875 
Q 21.1875 47.21875 17.890625 56.609375 
Q 14.59375 66.015625 7.078125 71.1875 
L 7.078125 75.984375 
Q 19 70.65625 25.046875 59.109375 
Q 31.109375 47.5625 31.109375 30.171875 
Q 31.109375 12.84375 25.046875 1.296875 
Q 19 -10.25 7.078125 -15.578125 
z
" id="DejaVuSerif-41"/>
      </defs>
      <use xlink:href="#DejaVuSerif-80"/>
      <use x="67.285156" xlink:href="#DejaVuSerif-104"/>
      <use x="131.689453" xlink:href="#DejaVuSerif-97"/>
      <use x="191.308594" xlink:href="#DejaVuSerif-115"/>
      <use x="242.626953" xlink:href="#DejaVuSerif-101"/>
      <use x="301.806641" xlink:href="#DejaVuSerif-32"/>
      <use x="333.59375" xlink:href="#DejaVuSerif-40"/>
      <use x="372.607422" xlink:href="#DejaVuSerif-80"/>
      <use x="439.892578" xlink:href="#DejaVuSerif-32"/>
      <use x="471.679688" xlink:href="#DejaVuSerif-61"/>
      <use x="555.46875" xlink:href="#DejaVuSerif-32"/>
      <use x="587.255859" xlink:href="#DejaVuSerif-51"/>
      <use x="650.878906" xlink:href="#DejaVuSerif-46"/>
      <use x="682.666016" xlink:href="#DejaVuSerif-56"/>
      <use x="746.289062" xlink:href="#DejaVuSerif-56"/>
      <use x="809.912109" xlink:href="#DejaVuSerif-32"/>
      <use x="841.699219" xlink:href="#DejaVuSerif-100"/>
      <use x="905.712891" xlink:href="#DejaVuSerif-41"/>
     </g>
    </g>
   </g>
   <g id="matplotlib.axis_4">
    <g id="ytick_4">
     <g id="line2d_34">
      <g>
       <use style="stroke:#000000;stroke-width:0.8;" x="57.6" xlink:href="#mc08d4c21b6" y="61.250949"/>
      </g>
     </g>
     <g id="text_17">
      <!-- 17.0 -->
      <g transform="translate(28.334375 65.050168)scale(0.1 -0.1)">
       <defs>
        <path d="M 56.390625 67.921875 
L 27.875 0 
L 20.609375 0 
L 47.796875 64.890625 
L 14.109375 64.890625 
L 14.109375 55.90625 
L 8.40625 55.90625 
L 8.40625 72.90625 
L 56.390625 72.90625 
z
" id="DejaVuSerif-55"/>
       </defs>
       <use xlink:href="#DejaVuSerif-49"/>
       <use x="63.623047" xlink:href="#DejaVuSerif-55"/>
       <use x="127.246094" xlink:href="#DejaVuSerif-46"/>
       <use x="159.033203" xlink:href="#DejaVuSerif-48"/>
      </g>
     </g>
    </g>
    <g id="ytick_5">
     <g id="line2d_35">
      <g>
       <use style="stroke:#000000;stroke-width:0.8;" x="57.6" xlink:href="#mc08d4c21b6" y="88.65066"/>
      </g>
     </g>
     <g id="text_18">
      <!-- 17.2 -->
      <g transform="translate(28.334375 92.449879)scale(0.1 -0.1)">
       <use xlink:href="#DejaVuSerif-49"/>
       <use x="63.623047" xlink:href="#DejaVuSerif-55"/>
       <use x="127.246094" xlink:href="#DejaVuSerif-46"/>
       <use x="159.033203" xlink:href="#DejaVuSerif-50"/>
      </g>
     </g>
    </g>
    <g id="ytick_6">
     <g id="line2d_36">
      <g>
       <use style="stroke:#000000;stroke-width:0.8;" x="57.6" xlink:href="#mc08d4c21b6" y="116.05037"/>
      </g>
     </g>
     <g id="text_19">
      <!-- 17.4 -->
      <g transform="translate(28.334375 119.849589)scale(0.1 -0.1)">
       <use xlink:href="#DejaVuSerif-49"/>
       <use x="63.623047" xlink:href="#DejaVuSerif-55"/>
       <use x="127.246094" xlink:href="#DejaVuSerif-46"/>
       <use x="159.033203" xlink:href="#DejaVuSerif-52"/>
      </g>
     </g>
    </g>
    <g id="ytick_7">
     <g id="line2d_37">
      <g>
       <use style="stroke:#000000;stroke-width:0.8;" x="57.6" xlink:href="#mc08d4c21b6" y="143.450081"/>
      </g>
     </g>
     <g id="text_20">
      <!-- 17.6 -->
      <g transform="translate(28.334375 147.249299)scale(0.1 -0.1)">
       <defs>
        <path d="M 32.71875 3.421875 
Q 39.59375 3.421875 43.296875 8.46875 
Q 47.015625 13.53125 47.015625 23 
Q 47.015625 32.46875 43.296875 37.515625 
Q 39.59375 42.578125 32.71875 42.578125 
Q 25.734375 42.578125 22.0625 37.6875 
Q 18.40625 32.8125 18.40625 23.578125 
Q 18.40625 13.875 22.109375 8.640625 
Q 25.828125 3.421875 32.71875 3.421875 
z
M 16.796875 40.140625 
Q 20.125 43.796875 24.3125 45.59375 
Q 28.515625 47.40625 33.796875 47.40625 
Q 44.671875 47.40625 51 40.859375 
Q 57.328125 34.328125 57.328125 23 
Q 57.328125 11.921875 50.515625 5.25 
Q 43.703125 -1.421875 32.328125 -1.421875 
Q 19.96875 -1.421875 13.328125 7.78125 
Q 6.6875 17 6.6875 34.078125 
Q 6.6875 53.21875 14.546875 63.71875 
Q 22.40625 74.21875 36.71875 74.21875 
Q 40.578125 74.21875 44.828125 73.484375 
Q 49.078125 72.75 53.515625 71.296875 
L 53.515625 59.28125 
L 48 59.28125 
Q 47.40625 64.203125 44.234375 66.796875 
Q 41.0625 69.390625 35.6875 69.390625 
Q 26.21875 69.390625 21.578125 62.203125 
Q 16.9375 55.03125 16.796875 40.140625 
z
" id="DejaVuSerif-54"/>
       </defs>
       <use xlink:href="#DejaVuSerif-49"/>
       <use x="63.623047" xlink:href="#DejaVuSerif-55"/>
       <use x="127.246094" xlink:href="#DejaVuSerif-46"/>
       <use x="159.033203" xlink:href="#DejaVuSerif-54"/>
      </g>
     </g>
    </g>
    <g id="text_21">
     <!-- Mag -->
     <g transform="translate(22.1125 107.082134)rotate(-90)scale(0.1 -0.1)">
      <defs>
       <path d="M 5.515625 0 
L 5.515625 5.171875 
L 14.796875 5.171875 
L 14.796875 67.671875 
L 4.984375 67.671875 
L 4.984375 72.90625 
L 26.21875 72.90625 
L 51.8125 21 
L 77.390625 72.90625 
L 97.3125 72.90625 
L 97.3125 67.671875 
L 87.59375 67.671875 
L 87.59375 5.171875 
L 96.921875 5.171875 
L 96.921875 0 
L 68.40625 0 
L 68.40625 5.171875 
L 77.6875 5.171875 
L 77.6875 61.53125 
L 52.6875 10.6875 
L 45.796875 10.6875 
L 20.796875 61.53125 
L 20.796875 5.171875 
L 30.078125 5.171875 
L 30.078125 0 
z
" id="DejaVuSerif-77"/>
      </defs>
      <use xlink:href="#DejaVuSerif-77"/>
      <use x="102.392578" xlink:href="#DejaVuSerif-97"/>
      <use x="162.011719" xlink:href="#DejaVuSerif-103"/>
     </g>
    </g>
   </g>
   <g id="patch_9">
    <path d="M 57.6 150.089143 
L 57.6 41.472 
" style="fill:none;stroke:#000000;stroke-linecap:square;stroke-linejoin:miter;stroke-width:0.8;"/>
   </g>
   <g id="patch_10">
    <path d="M 206.4 150.089143 
L 206.4 41.472 
" style="fill:none;stroke:#000000;stroke-linecap:square;stroke-linejoin:miter;stroke-width:0.8;"/>
   </g>
   <g id="patch_11">
    <path d="M 57.6 150.089143 
L 206.4 150.089143 
" style="fill:none;stroke:#000000;stroke-linecap:square;stroke-linejoin:miter;stroke-width:0.8;"/>
   </g>
   <g id="patch_12">
    <path d="M 57.6 41.472 
L 206.4 41.472 
" style="fill:none;stroke:#000000;stroke-linecap:square;stroke-linejoin:miter;stroke-width:0.8;"/>
   </g>
   <g id="text_22">
    <!-- Folded Light Curve -->
    <g transform="translate(83.086719 35.472)scale(0.1 -0.1)">
     <defs>
      <path d="M 20.515625 5.171875 
L 29 5.171875 
L 29 0 
L 2.875 0 
L 2.875 5.171875 
L 11.53125 5.171875 
L 11.53125 70.796875 
L 2.875 70.796875 
L 2.875 75.984375 
L 20.515625 75.984375 
z
" id="DejaVuSerif-108"/>
      <path d="M 5.515625 0 
L 5.515625 5.171875 
L 14.796875 5.171875 
L 14.796875 67.671875 
L 5.515625 67.671875 
L 5.515625 72.90625 
L 33.984375 72.90625 
L 33.984375 67.671875 
L 24.703125 67.671875 
L 24.703125 6 
L 58.015625 6 
L 58.015625 18.21875 
L 64.015625 18.21875 
L 64.015625 0 
z
" id="DejaVuSerif-76"/>
      <path d="M 10.796875 46.6875 
L 2.875 46.6875 
L 2.875 51.90625 
L 10.796875 51.90625 
L 10.796875 68.015625 
L 19.828125 68.015625 
L 19.828125 51.90625 
L 36.71875 51.90625 
L 36.71875 46.6875 
L 19.828125 46.6875 
L 19.828125 13.71875 
Q 19.828125 7.125 21.09375 5.265625 
Q 22.359375 3.421875 25.78125 3.421875 
Q 29.296875 3.421875 30.90625 5.484375 
Q 32.515625 7.5625 32.625 12.203125 
L 39.40625 12.203125 
Q 39.015625 5.125 35.546875 1.84375 
Q 32.078125 -1.421875 25 -1.421875 
Q 17.234375 -1.421875 14.015625 2.015625 
Q 10.796875 5.46875 10.796875 13.71875 
z
" id="DejaVuSerif-116"/>
      <path d="M 70.515625 19.28125 
Q 67.28125 9.078125 59.6875 3.828125 
Q 52.09375 -1.421875 40.484375 -1.421875 
Q 33.34375 -1.421875 27.234375 1.015625 
Q 21.140625 3.46875 16.40625 8.203125 
Q 10.9375 13.671875 8.265625 20.625 
Q 5.609375 27.59375 5.609375 36.375 
Q 5.609375 53.375 15.421875 63.796875 
Q 25.25 74.21875 41.3125 74.21875 
Q 47.265625 74.21875 54 72.65625 
Q 60.75 71.09375 68.5 67.921875 
L 68.5 51.125 
L 62.984375 51.125 
Q 61.1875 60.296875 55.734375 64.640625 
Q 50.296875 69 40.484375 69 
Q 28.8125 69 22.796875 60.71875 
Q 16.796875 52.4375 16.796875 36.375 
Q 16.796875 20.359375 22.796875 12.078125 
Q 28.8125 3.8125 40.484375 3.8125 
Q 48.640625 3.8125 53.90625 7.6875 
Q 59.1875 11.578125 61.53125 19.28125 
z
" id="DejaVuSerif-67"/>
      <path d="M 35.40625 51.90625 
L 52.203125 51.90625 
L 52.203125 5.171875 
L 60.6875 5.171875 
L 60.6875 0 
L 43.21875 0 
L 43.21875 9.1875 
Q 40.71875 4 36.765625 1.28125 
Q 32.8125 -1.421875 27.59375 -1.421875 
Q 18.953125 -1.421875 14.875 3.484375 
Q 10.796875 8.40625 10.796875 18.890625 
L 10.796875 46.6875 
L 2.6875 46.6875 
L 2.6875 51.90625 
L 19.828125 51.90625 
L 19.828125 21.6875 
Q 19.828125 12.203125 22.140625 8.6875 
Q 24.46875 5.171875 30.421875 5.171875 
Q 36.671875 5.171875 39.9375 9.765625 
Q 43.21875 14.359375 43.21875 23.09375 
L 43.21875 46.6875 
L 35.40625 46.6875 
z
" id="DejaVuSerif-117"/>
      <path d="M 24.703125 0 
L 5.609375 46.6875 
L -0.296875 46.6875 
L -0.296875 51.90625 
L 23.578125 51.90625 
L 23.578125 46.6875 
L 15.28125 46.6875 
L 29.890625 10.984375 
L 44.484375 46.6875 
L 36.71875 46.6875 
L 36.71875 51.90625 
L 56.203125 51.90625 
L 56.203125 46.6875 
L 50.390625 46.6875 
L 31.296875 0 
z
" id="DejaVuSerif-118"/>
     </defs>
     <use xlink:href="#DejaVuSerif-70"/>
     <use x="63.884766" xlink:href="#DejaVuSerif-111"/>
     <use x="124.089844" xlink:href="#DejaVuSerif-108"/>
     <use x="156.072266" xlink:href="#DejaVuSerif-100"/>
     <use x="220.085938" xlink:href="#DejaVuSerif-101"/>
     <use x="279.265625" xlink:href="#DejaVuSerif-100"/>
     <use x="343.279297" xlink:href="#DejaVuSerif-32"/>
     <use x="375.066406" xlink:href="#DejaVuSerif-76"/>
     <use x="441.472656" xlink:href="#DejaVuSerif-105"/>
     <use x="473.455078" xlink:href="#DejaVuSerif-103"/>
     <use x="537.46875" xlink:href="#DejaVuSerif-104"/>
     <use x="601.873047" xlink:href="#DejaVuSerif-116"/>
     <use x="642.058594" xlink:href="#DejaVuSerif-32"/>
     <use x="673.845703" xlink:href="#DejaVuSerif-67"/>
     <use x="750.359375" xlink:href="#DejaVuSerif-117"/>
     <use x="814.763672" xlink:href="#DejaVuSerif-114"/>
     <use x="862.566406" xlink:href="#DejaVuSerif-118"/>
     <use x="919.060547" xlink:href="#DejaVuSerif-101"/>
    </g>
   </g>
  </g>
  <g id="axes_3">
   <g id="patch_13">
    <path d="M 57.6 307.584 
L 414.72 307.584 
L 414.72 198.966857 
L 57.6 198.966857 
z
" style="fill:#ffffff;"/>
   </g>
   <g id="PathCollection_3">
    <g clip-path="url(#p25d62961c2)">
     <use style="fill:#1f77b4;stroke:#1f77b4;" x="73.832727" xlink:href="#mcaef492ebb" y="237.501453"/>
     <use style="fill:#1f77b4;stroke:#1f77b4;" x="73.833119" xlink:href="#mcaef492ebb" y="237.333231"/>
     <use style="fill:#1f77b4;stroke:#1f77b4;" x="94.910293" xlink:href="#mcaef492ebb" y="251.92729"/>
     <use style="fill:#1f77b4;stroke:#1f77b4;" x="94.910684" xlink:href="#mcaef492ebb" y="252.867952"/>
     <use style="fill:#1f77b4;stroke:#1f77b4;" x="96.675449" xlink:href="#mcaef492ebb" y="248.732312"/>
     <use style="fill:#1f77b4;stroke:#1f77b4;" x="99.185169" xlink:href="#mcaef492ebb" y="238.46509"/>
     <use style="fill:#1f77b4;stroke:#1f77b4;" x="99.18789" xlink:href="#mcaef492ebb" y="234.959105"/>
     <use style="fill:#1f77b4;stroke:#1f77b4;" x="100.021602" xlink:href="#mcaef492ebb" y="241.305351"/>
     <use style="fill:#1f77b4;stroke:#1f77b4;" x="121.144305" xlink:href="#mcaef492ebb" y="233.075061"/>
     <use style="fill:#1f77b4;stroke:#1f77b4;" x="121.988998" xlink:href="#mcaef492ebb" y="297.147903"/>
     <use style="fill:#1f77b4;stroke:#1f77b4;" x="121.98938" xlink:href="#mcaef492ebb" y="299.579338"/>
     <use style="fill:#1f77b4;stroke:#1f77b4;" x="123.69785" xlink:href="#mcaef492ebb" y="231.379014"/>
     <use style="fill:#1f77b4;stroke:#1f77b4;" x="123.698242" xlink:href="#mcaef492ebb" y="234.751357"/>
     <use style="fill:#1f77b4;stroke:#1f77b4;" x="125.362202" xlink:href="#mcaef492ebb" y="258.793767"/>
     <use style="fill:#1f77b4;stroke:#1f77b4;" x="125.362594" xlink:href="#mcaef492ebb" y="254.896505"/>
     <use style="fill:#1f77b4;stroke:#1f77b4;" x="126.199487" xlink:href="#mcaef492ebb" y="250.233225"/>
     <use style="fill:#1f77b4;stroke:#1f77b4;" x="126.199878" xlink:href="#mcaef492ebb" y="250.637842"/>
     <use style="fill:#1f77b4;stroke:#1f77b4;" x="127.090237" xlink:href="#mcaef492ebb" y="243.144183"/>
     <use style="fill:#1f77b4;stroke:#1f77b4;" x="127.090618" xlink:href="#mcaef492ebb" y="243.190613"/>
     <use style="fill:#1f77b4;stroke:#1f77b4;" x="127.899364" xlink:href="#mcaef492ebb" y="248.306934"/>
     <use style="fill:#1f77b4;stroke:#1f77b4;" x="127.899756" xlink:href="#mcaef492ebb" y="249.227833"/>
     <use style="fill:#1f77b4;stroke:#1f77b4;" x="128.744146" xlink:href="#mcaef492ebb" y="272.177678"/>
     <use style="fill:#1f77b4;stroke:#1f77b4;" x="128.744527" xlink:href="#mcaef492ebb" y="271.223676"/>
     <use style="fill:#1f77b4;stroke:#1f77b4;" x="136.360585" xlink:href="#mcaef492ebb" y="243.891421"/>
     <use style="fill:#1f77b4;stroke:#1f77b4;" x="142.231315" xlink:href="#mcaef492ebb" y="259.361918"/>
     <use style="fill:#1f77b4;stroke:#1f77b4;" x="143.073052" xlink:href="#mcaef492ebb" y="237.665724"/>
     <use style="fill:#1f77b4;stroke:#1f77b4;" x="143.918832" xlink:href="#mcaef492ebb" y="242.257618"/>
     <use style="fill:#1f77b4;stroke:#1f77b4;" x="144.76286" xlink:href="#mcaef492ebb" y="272.400488"/>
     <use style="fill:#1f77b4;stroke:#1f77b4;" x="145.612006" xlink:href="#mcaef492ebb" y="252.406273"/>
     <use style="fill:#1f77b4;stroke:#1f77b4;" x="155.771705" xlink:href="#mcaef492ebb" y="253.769088"/>
     <use style="fill:#1f77b4;stroke:#1f77b4;" x="163.21203" xlink:href="#mcaef492ebb" y="227.583767"/>
     <use style="fill:#1f77b4;stroke:#1f77b4;" x="164.180987" xlink:href="#mcaef492ebb" y="287.20947"/>
     <use style="fill:#1f77b4;stroke:#1f77b4;" x="165.042171" xlink:href="#mcaef492ebb" y="255.500219"/>
     <use style="fill:#1f77b4;stroke:#1f77b4;" x="170.943837" xlink:href="#mcaef492ebb" y="226.311104"/>
     <use style="fill:#1f77b4;stroke:#1f77b4;" x="173.496775" xlink:href="#mcaef492ebb" y="239.472684"/>
     <use style="fill:#1f77b4;stroke:#1f77b4;" x="207.146958" xlink:href="#mcaef492ebb" y="260.171904"/>
     <use style="fill:#1f77b4;stroke:#1f77b4;" x="210.529274" xlink:href="#mcaef492ebb" y="279.845736"/>
     <use style="fill:#1f77b4;stroke:#1f77b4;" x="218.978819" xlink:href="#mcaef492ebb" y="206.233393"/>
     <use style="fill:#1f77b4;stroke:#1f77b4;" x="346.082599" xlink:href="#mcaef492ebb" y="235.770568"/>
     <use style="fill:#1f77b4;stroke:#1f77b4;" x="379.139631" xlink:href="#mcaef492ebb" y="231.626522"/>
     <use style="fill:#1f77b4;stroke:#1f77b4;" x="396.853779" xlink:href="#mcaef492ebb" y="259.217902"/>
     <use style="fill:#1f77b4;stroke:#1f77b4;" x="396.854161" xlink:href="#mcaef492ebb" y="258.527727"/>
     <use style="fill:#1f77b4;stroke:#1f77b4;" x="397.677773" xlink:href="#mcaef492ebb" y="262.502307"/>
     <use style="fill:#1f77b4;stroke:#1f77b4;" x="397.678155" xlink:href="#mcaef492ebb" y="265.30997"/>
     <use style="fill:#1f77b4;stroke:#1f77b4;" x="398.486891" xlink:href="#mcaef492ebb" y="280.161432"/>
     <use style="fill:#1f77b4;stroke:#1f77b4;" x="398.487273" xlink:href="#mcaef492ebb" y="273.48492"/>
    </g>
   </g>
   <g id="matplotlib.axis_5">
    <g id="xtick_26">
     <g id="line2d_38">
      <g>
       <use style="stroke:#000000;stroke-width:0.8;" x="97.996351" xlink:href="#m791799deff" y="307.584"/>
      </g>
     </g>
     <g id="text_23">
      <!-- 58300 -->
      <g transform="translate(82.090101 322.182437)scale(0.1 -0.1)">
       <use xlink:href="#DejaVuSerif-53"/>
       <use x="63.623047" xlink:href="#DejaVuSerif-56"/>
       <use x="127.246094" xlink:href="#DejaVuSerif-51"/>
       <use x="190.869141" xlink:href="#DejaVuSerif-48"/>
       <use x="254.492188" xlink:href="#DejaVuSerif-48"/>
      </g>
     </g>
    </g>
    <g id="xtick_27">
     <g id="line2d_39">
      <g>
       <use style="stroke:#000000;stroke-width:0.8;" x="140.27554" xlink:href="#m791799deff" y="307.584"/>
      </g>
     </g>
     <g id="text_24">
      <!-- 58350 -->
      <g transform="translate(124.36929 322.182437)scale(0.1 -0.1)">
       <use xlink:href="#DejaVuSerif-53"/>
       <use x="63.623047" xlink:href="#DejaVuSerif-56"/>
       <use x="127.246094" xlink:href="#DejaVuSerif-51"/>
       <use x="190.869141" xlink:href="#DejaVuSerif-53"/>
       <use x="254.492188" xlink:href="#DejaVuSerif-48"/>
      </g>
     </g>
    </g>
    <g id="xtick_28">
     <g id="line2d_40">
      <g>
       <use style="stroke:#000000;stroke-width:0.8;" x="182.55473" xlink:href="#m791799deff" y="307.584"/>
      </g>
     </g>
     <g id="text_25">
      <!-- 58400 -->
      <g transform="translate(166.64848 322.182437)scale(0.1 -0.1)">
       <use xlink:href="#DejaVuSerif-53"/>
       <use x="63.623047" xlink:href="#DejaVuSerif-56"/>
       <use x="127.246094" xlink:href="#DejaVuSerif-52"/>
       <use x="190.869141" xlink:href="#DejaVuSerif-48"/>
       <use x="254.492188" xlink:href="#DejaVuSerif-48"/>
      </g>
     </g>
    </g>
    <g id="xtick_29">
     <g id="line2d_41">
      <g>
       <use style="stroke:#000000;stroke-width:0.8;" x="224.833919" xlink:href="#m791799deff" y="307.584"/>
      </g>
     </g>
     <g id="text_26">
      <!-- 58450 -->
      <g transform="translate(208.927669 322.182437)scale(0.1 -0.1)">
       <use xlink:href="#DejaVuSerif-53"/>
       <use x="63.623047" xlink:href="#DejaVuSerif-56"/>
       <use x="127.246094" xlink:href="#DejaVuSerif-52"/>
       <use x="190.869141" xlink:href="#DejaVuSerif-53"/>
       <use x="254.492188" xlink:href="#DejaVuSerif-48"/>
      </g>
     </g>
    </g>
    <g id="xtick_30">
     <g id="line2d_42">
      <g>
       <use style="stroke:#000000;stroke-width:0.8;" x="267.113108" xlink:href="#m791799deff" y="307.584"/>
      </g>
     </g>
     <g id="text_27">
      <!-- 58500 -->
      <g transform="translate(251.206858 322.182437)scale(0.1 -0.1)">
       <use xlink:href="#DejaVuSerif-53"/>
       <use x="63.623047" xlink:href="#DejaVuSerif-56"/>
       <use x="127.246094" xlink:href="#DejaVuSerif-53"/>
       <use x="190.869141" xlink:href="#DejaVuSerif-48"/>
       <use x="254.492188" xlink:href="#DejaVuSerif-48"/>
      </g>
     </g>
    </g>
    <g id="xtick_31">
     <g id="line2d_43">
      <g>
       <use style="stroke:#000000;stroke-width:0.8;" x="309.392298" xlink:href="#m791799deff" y="307.584"/>
      </g>
     </g>
     <g id="text_28">
      <!-- 58550 -->
      <g transform="translate(293.486048 322.182437)scale(0.1 -0.1)">
       <use xlink:href="#DejaVuSerif-53"/>
       <use x="63.623047" xlink:href="#DejaVuSerif-56"/>
       <use x="127.246094" xlink:href="#DejaVuSerif-53"/>
       <use x="190.869141" xlink:href="#DejaVuSerif-53"/>
       <use x="254.492188" xlink:href="#DejaVuSerif-48"/>
      </g>
     </g>
    </g>
    <g id="xtick_32">
     <g id="line2d_44">
      <g>
       <use style="stroke:#000000;stroke-width:0.8;" x="351.671487" xlink:href="#m791799deff" y="307.584"/>
      </g>
     </g>
     <g id="text_29">
      <!-- 58600 -->
      <g transform="translate(335.765237 322.182437)scale(0.1 -0.1)">
       <use xlink:href="#DejaVuSerif-53"/>
       <use x="63.623047" xlink:href="#DejaVuSerif-56"/>
       <use x="127.246094" xlink:href="#DejaVuSerif-54"/>
       <use x="190.869141" xlink:href="#DejaVuSerif-48"/>
       <use x="254.492188" xlink:href="#DejaVuSerif-48"/>
      </g>
     </g>
    </g>
    <g id="xtick_33">
     <g id="line2d_45">
      <g>
       <use style="stroke:#000000;stroke-width:0.8;" x="393.950677" xlink:href="#m791799deff" y="307.584"/>
      </g>
     </g>
     <g id="text_30">
      <!-- 58650 -->
      <g transform="translate(378.044427 322.182437)scale(0.1 -0.1)">
       <use xlink:href="#DejaVuSerif-53"/>
       <use x="63.623047" xlink:href="#DejaVuSerif-56"/>
       <use x="127.246094" xlink:href="#DejaVuSerif-54"/>
       <use x="190.869141" xlink:href="#DejaVuSerif-53"/>
       <use x="254.492188" xlink:href="#DejaVuSerif-48"/>
      </g>
     </g>
    </g>
    <g id="text_31">
     <!-- MJD -->
     <g transform="translate(225.027187 335.860562)scale(0.1 -0.1)">
      <defs>
       <path d="M -8.40625 -17.484375 
L -8.40625 -6 
L -2.828125 -6 
Q -2.6875 -10.84375 -0.53125 -13.203125 
Q 1.609375 -15.578125 5.90625 -15.578125 
Q 11.71875 -15.578125 14.015625 -11.90625 
Q 16.3125 -8.25 16.3125 2.390625 
L 16.3125 67.671875 
L 4.984375 67.671875 
L 4.984375 72.90625 
L 35.5 72.90625 
L 35.5 67.671875 
L 26.21875 67.671875 
L 26.21875 2 
Q 26.21875 -10.0625 21.375 -15.421875 
Q 16.546875 -20.796875 5.8125 -20.796875 
Q 2.34375 -20.796875 -1.234375 -19.96875 
Q -4.828125 -19.140625 -8.40625 -17.484375 
z
" id="DejaVuSerif-74"/>
       <path d="M 24.703125 5.171875 
L 33.796875 5.171875 
Q 48 5.171875 55.59375 13.28125 
Q 63.1875 21.390625 63.1875 36.53125 
Q 63.1875 51.65625 55.609375 59.65625 
Q 48.046875 67.671875 33.796875 67.671875 
L 24.703125 67.671875 
z
M 5.515625 0 
L 5.515625 5.171875 
L 14.796875 5.171875 
L 14.796875 67.671875 
L 5.515625 67.671875 
L 5.515625 72.90625 
L 34.515625 72.90625 
Q 53.375 72.90625 63.890625 63.28125 
Q 74.421875 53.65625 74.421875 36.53125 
Q 74.421875 19.34375 63.875 9.671875 
Q 53.328125 0 34.515625 0 
z
" id="DejaVuSerif-68"/>
      </defs>
      <use xlink:href="#DejaVuSerif-77"/>
      <use x="102.392578" xlink:href="#DejaVuSerif-74"/>
      <use x="142.480469" xlink:href="#DejaVuSerif-68"/>
     </g>
    </g>
   </g>
   <g id="matplotlib.axis_6">
    <g id="ytick_8">
     <g id="line2d_46">
      <g>
       <use style="stroke:#000000;stroke-width:0.8;" x="57.6" xlink:href="#mc08d4c21b6" y="220.264002"/>
      </g>
     </g>
     <g id="text_32">
      <!-- 17.0 -->
      <g transform="translate(28.334375 224.063221)scale(0.1 -0.1)">
       <use xlink:href="#DejaVuSerif-49"/>
       <use x="63.623047" xlink:href="#DejaVuSerif-55"/>
       <use x="127.246094" xlink:href="#DejaVuSerif-46"/>
       <use x="159.033203" xlink:href="#DejaVuSerif-48"/>
      </g>
     </g>
    </g>
    <g id="ytick_9">
     <g id="line2d_47">
      <g>
       <use style="stroke:#000000;stroke-width:0.8;" x="57.6" xlink:href="#mc08d4c21b6" y="246.166148"/>
      </g>
     </g>
     <g id="text_33">
      <!-- 17.2 -->
      <g transform="translate(28.334375 249.965367)scale(0.1 -0.1)">
       <use xlink:href="#DejaVuSerif-49"/>
       <use x="63.623047" xlink:href="#DejaVuSerif-55"/>
       <use x="127.246094" xlink:href="#DejaVuSerif-46"/>
       <use x="159.033203" xlink:href="#DejaVuSerif-50"/>
      </g>
     </g>
    </g>
    <g id="ytick_10">
     <g id="line2d_48">
      <g>
       <use style="stroke:#000000;stroke-width:0.8;" x="57.6" xlink:href="#mc08d4c21b6" y="272.068293"/>
      </g>
     </g>
     <g id="text_34">
      <!-- 17.4 -->
      <g transform="translate(28.334375 275.867512)scale(0.1 -0.1)">
       <use xlink:href="#DejaVuSerif-49"/>
       <use x="63.623047" xlink:href="#DejaVuSerif-55"/>
       <use x="127.246094" xlink:href="#DejaVuSerif-46"/>
       <use x="159.033203" xlink:href="#DejaVuSerif-52"/>
      </g>
     </g>
    </g>
    <g id="ytick_11">
     <g id="line2d_49">
      <g>
       <use style="stroke:#000000;stroke-width:0.8;" x="57.6" xlink:href="#mc08d4c21b6" y="297.970439"/>
      </g>
     </g>
     <g id="text_35">
      <!-- 17.6 -->
      <g transform="translate(28.334375 301.769657)scale(0.1 -0.1)">
       <use xlink:href="#DejaVuSerif-49"/>
       <use x="63.623047" xlink:href="#DejaVuSerif-55"/>
       <use x="127.246094" xlink:href="#DejaVuSerif-46"/>
       <use x="159.033203" xlink:href="#DejaVuSerif-54"/>
      </g>
     </g>
    </g>
    <g id="text_36">
     <!-- Mag -->
     <g transform="translate(22.1125 264.576991)rotate(-90)scale(0.1 -0.1)">
      <use xlink:href="#DejaVuSerif-77"/>
      <use x="102.392578" xlink:href="#DejaVuSerif-97"/>
      <use x="162.011719" xlink:href="#DejaVuSerif-103"/>
     </g>
    </g>
   </g>
   <g id="LineCollection_5">
    <path clip-path="url(#p25d62961c2)" d="M 73.832727 234.976779 
L 73.832727 240.026127 
" style="fill:none;stroke:#1f77b4;stroke-width:0.5;"/>
    <path clip-path="url(#p25d62961c2)" d="M 73.833119 234.809728 
L 73.833119 239.856734 
" style="fill:none;stroke:#1f77b4;stroke-width:0.5;"/>
    <path clip-path="url(#p25d62961c2)" d="M 94.910293 249.296772 
L 94.910293 254.557808 
" style="fill:none;stroke:#1f77b4;stroke-width:0.5;"/>
    <path clip-path="url(#p25d62961c2)" d="M 94.910684 250.230149 
L 94.910684 255.505755 
" style="fill:none;stroke:#1f77b4;stroke-width:0.5;"/>
    <path clip-path="url(#p25d62961c2)" d="M 96.675449 246.126179 
L 96.675449 251.338445 
" style="fill:none;stroke:#1f77b4;stroke-width:0.5;"/>
    <path clip-path="url(#p25d62961c2)" d="M 99.185169 235.933678 
L 99.185169 240.996502 
" style="fill:none;stroke:#1f77b4;stroke-width:0.5;"/>
    <path clip-path="url(#p25d62961c2)" d="M 99.18789 232.451986 
L 99.18789 237.466224 
" style="fill:none;stroke:#1f77b4;stroke-width:0.5;"/>
    <path clip-path="url(#p25d62961c2)" d="M 100.021602 238.75381 
L 100.021602 243.856892 
" style="fill:none;stroke:#1f77b4;stroke-width:0.5;"/>
    <path clip-path="url(#p25d62961c2)" d="M 121.144305 230.580748 
L 121.144305 235.569374 
" style="fill:none;stroke:#1f77b4;stroke-width:0.5;"/>
    <path clip-path="url(#p25d62961c2)" d="M 121.988998 294.106385 
L 121.988998 300.189421 
" style="fill:none;stroke:#1f77b4;stroke-width:0.5;"/>
    <path clip-path="url(#p25d62961c2)" d="M 121.98938 296.511818 
L 121.98938 302.646857 
" style="fill:none;stroke:#1f77b4;stroke-width:0.5;"/>
    <path clip-path="url(#p25d62961c2)" d="M 123.69785 228.896084 
L 123.69785 233.861945 
" style="fill:none;stroke:#1f77b4;stroke-width:0.5;"/>
    <path clip-path="url(#p25d62961c2)" d="M 123.698242 232.245658 
L 123.698242 237.257056 
" style="fill:none;stroke:#1f77b4;stroke-width:0.5;"/>
    <path clip-path="url(#p25d62961c2)" d="M 125.362202 256.108943 
L 125.362202 261.478592 
" style="fill:none;stroke:#1f77b4;stroke-width:0.5;"/>
    <path clip-path="url(#p25d62961c2)" d="M 125.362594 252.242826 
L 125.362594 257.550183 
" style="fill:none;stroke:#1f77b4;stroke-width:0.5;"/>
    <path clip-path="url(#p25d62961c2)" d="M 126.199487 247.615705 
L 126.199487 252.850745 
" style="fill:none;stroke:#1f77b4;stroke-width:0.5;"/>
    <path clip-path="url(#p25d62961c2)" d="M 126.199878 248.017232 
L 126.199878 253.258453 
" style="fill:none;stroke:#1f77b4;stroke-width:0.5;"/>
    <path clip-path="url(#p25d62961c2)" d="M 127.090237 240.579393 
L 127.090237 245.708974 
" style="fill:none;stroke:#1f77b4;stroke-width:0.5;"/>
    <path clip-path="url(#p25d62961c2)" d="M 127.090618 240.625485 
L 127.090618 245.75574 
" style="fill:none;stroke:#1f77b4;stroke-width:0.5;"/>
    <path clip-path="url(#p25d62961c2)" d="M 127.899364 245.704005 
L 127.899364 250.909863 
" style="fill:none;stroke:#1f77b4;stroke-width:0.5;"/>
    <path clip-path="url(#p25d62961c2)" d="M 127.899756 246.617954 
L 127.899756 251.837713 
" style="fill:none;stroke:#1f77b4;stroke-width:0.5;"/>
    <path clip-path="url(#p25d62961c2)" d="M 128.744146 269.379129 
L 128.744146 274.976227 
" style="fill:none;stroke:#1f77b4;stroke-width:0.5;"/>
    <path clip-path="url(#p25d62961c2)" d="M 128.744527 268.433594 
L 128.744527 274.013759 
" style="fill:none;stroke:#1f77b4;stroke-width:0.5;"/>
    <path clip-path="url(#p25d62961c2)" d="M 136.360585 241.321197 
L 136.360585 246.461646 
" style="fill:none;stroke:#1f77b4;stroke-width:0.5;"/>
    <path clip-path="url(#p25d62961c2)" d="M 142.231315 256.672481 
L 142.231315 262.051356 
" style="fill:none;stroke:#1f77b4;stroke-width:0.5;"/>
    <path clip-path="url(#p25d62961c2)" d="M 143.073052 235.139905 
L 143.073052 240.191544 
" style="fill:none;stroke:#1f77b4;stroke-width:0.5;"/>
    <path clip-path="url(#p25d62961c2)" d="M 143.918832 239.699237 
L 143.918832 244.815999 
" style="fill:none;stroke:#1f77b4;stroke-width:0.5;"/>
    <path clip-path="url(#p25d62961c2)" d="M 144.76286 269.599954 
L 144.76286 275.201022 
" style="fill:none;stroke:#1f77b4;stroke-width:0.5;"/>
    <path clip-path="url(#p25d62961c2)" d="M 145.612006 249.772052 
L 145.612006 255.040493 
" style="fill:none;stroke:#1f77b4;stroke-width:0.5;"/>
    <path clip-path="url(#p25d62961c2)" d="M 155.771705 251.124262 
L 155.771705 256.413914 
" style="fill:none;stroke:#1f77b4;stroke-width:0.5;"/>
    <path clip-path="url(#p25d62961c2)" d="M 163.21203 225.125815 
L 163.21203 230.04172 
" style="fill:none;stroke:#1f77b4;stroke-width:0.5;"/>
    <path clip-path="url(#p25d62961c2)" d="M 164.180987 284.26977 
L 164.180987 290.149171 
" style="fill:none;stroke:#1f77b4;stroke-width:0.5;"/>
    <path clip-path="url(#p25d62961c2)" d="M 165.042171 252.841772 
L 165.042171 258.158666 
" style="fill:none;stroke:#1f77b4;stroke-width:0.5;"/>
    <path clip-path="url(#p25d62961c2)" d="M 170.943837 223.861377 
L 170.943837 228.760832 
" style="fill:none;stroke:#1f77b4;stroke-width:0.5;"/>
    <path clip-path="url(#p25d62961c2)" d="M 173.496775 236.934178 
L 173.496775 242.01119 
" style="fill:none;stroke:#1f77b4;stroke-width:0.5;"/>
    <path clip-path="url(#p25d62961c2)" d="M 207.146958 257.475859 
L 207.146958 262.867949 
" style="fill:none;stroke:#1f77b4;stroke-width:0.5;"/>
    <path clip-path="url(#p25d62961c2)" d="M 210.529274 276.977042 
L 210.529274 282.71443 
" style="fill:none;stroke:#1f77b4;stroke-width:0.5;"/>
    <path clip-path="url(#p25d62961c2)" d="M 218.978819 203.904 
L 218.978819 208.562786 
" style="fill:none;stroke:#1f77b4;stroke-width:0.5;"/>
    <path clip-path="url(#p25d62961c2)" d="M 346.082599 233.25788 
L 346.082599 238.283256 
" style="fill:none;stroke:#1f77b4;stroke-width:0.5;"/>
    <path clip-path="url(#p25d62961c2)" d="M 379.139631 229.141939 
L 379.139631 234.111106 
" style="fill:none;stroke:#1f77b4;stroke-width:0.5;"/>
    <path clip-path="url(#p25d62961c2)" d="M 396.853779 256.529636 
L 396.853779 261.906168 
" style="fill:none;stroke:#1f77b4;stroke-width:0.5;"/>
    <path clip-path="url(#p25d62961c2)" d="M 396.854161 255.845055 
L 396.854161 261.210398 
" style="fill:none;stroke:#1f77b4;stroke-width:0.5;"/>
    <path clip-path="url(#p25d62961c2)" d="M 397.677773 259.787037 
L 397.677773 265.217577 
" style="fill:none;stroke:#1f77b4;stroke-width:0.5;"/>
    <path clip-path="url(#p25d62961c2)" d="M 397.678155 262.571116 
L 397.678155 268.048824 
" style="fill:none;stroke:#1f77b4;stroke-width:0.5;"/>
    <path clip-path="url(#p25d62961c2)" d="M 398.486891 277.289767 
L 398.486891 283.033096 
" style="fill:none;stroke:#1f77b4;stroke-width:0.5;"/>
    <path clip-path="url(#p25d62961c2)" d="M 398.487273 270.674679 
L 398.487273 276.295162 
" style="fill:none;stroke:#1f77b4;stroke-width:0.5;"/>
   </g>
   <g id="line2d_50">
    <path clip-path="url(#p25d62961c2)" d="M 73.832727 237.501453 
L 73.833119 237.333231 
L 94.910293 251.92729 
L 94.910684 252.867952 
L 96.675449 248.732312 
L 99.185169 238.46509 
L 99.18789 234.959105 
L 100.021602 241.305351 
L 121.144305 233.075061 
L 121.988998 297.147903 
L 121.98938 299.579338 
L 123.69785 231.379014 
L 123.698242 234.751357 
L 125.362202 258.793767 
L 125.362594 254.896505 
L 126.199487 250.233225 
L 126.199878 250.637842 
L 127.090237 243.144183 
L 127.090618 243.190613 
L 127.899364 248.306934 
L 127.899756 249.227833 
L 128.744146 272.177678 
L 128.744527 271.223676 
L 136.360585 243.891421 
L 142.231315 259.361918 
L 143.073052 237.665724 
L 143.918832 242.257618 
L 144.76286 272.400488 
L 145.612006 252.406273 
L 155.771705 253.769088 
L 163.21203 227.583767 
L 164.180987 287.20947 
L 165.042171 255.500219 
L 170.943837 226.311104 
L 173.496775 239.472684 
L 207.146958 260.171904 
L 210.529274 279.845736 
L 218.978819 206.233393 
L 346.082599 235.770568 
L 379.139631 231.626522 
L 396.853779 259.217902 
L 396.854161 258.527727 
L 397.677773 262.502307 
L 397.678155 265.30997 
L 398.486891 280.161432 
L 398.487273 273.48492 
" style="fill:none;"/>
   </g>
   <g id="patch_14">
    <path d="M 57.6 307.584 
L 57.6 198.966857 
" style="fill:none;stroke:#000000;stroke-linecap:square;stroke-linejoin:miter;stroke-width:0.8;"/>
   </g>
   <g id="patch_15">
    <path d="M 414.72 307.584 
L 414.72 198.966857 
" style="fill:none;stroke:#000000;stroke-linecap:square;stroke-linejoin:miter;stroke-width:0.8;"/>
   </g>
   <g id="patch_16">
    <path d="M 57.6 307.584 
L 414.72 307.584 
" style="fill:none;stroke:#000000;stroke-linecap:square;stroke-linejoin:miter;stroke-width:0.8;"/>
   </g>
   <g id="patch_17">
    <path d="M 57.6 198.966857 
L 414.72 198.966857 
" style="fill:none;stroke:#000000;stroke-linecap:square;stroke-linejoin:miter;stroke-width:0.8;"/>
   </g>
   <g id="text_37">
    <!-- Light Curve -->
    <g transform="translate(206.000625 192.966857)scale(0.1 -0.1)">
     <use xlink:href="#DejaVuSerif-76"/>
     <use x="66.40625" xlink:href="#DejaVuSerif-105"/>
     <use x="98.388672" xlink:href="#DejaVuSerif-103"/>
     <use x="162.402344" xlink:href="#DejaVuSerif-104"/>
     <use x="226.806641" xlink:href="#DejaVuSerif-116"/>
     <use x="266.992188" xlink:href="#DejaVuSerif-32"/>
     <use x="298.779297" xlink:href="#DejaVuSerif-67"/>
     <use x="375.292969" xlink:href="#DejaVuSerif-117"/>
     <use x="439.697266" xlink:href="#DejaVuSerif-114"/>
     <use x="487.5" xlink:href="#DejaVuSerif-118"/>
     <use x="543.994141" xlink:href="#DejaVuSerif-101"/>
    </g>
   </g>
  </g>
 </g>
 <defs>
  <clipPath id="p9aad1f689f">
   <rect height="108.617143" width="148.8" x="265.92" y="41.472"/>
  </clipPath>
  <clipPath id="p9236980def">
   <rect height="108.617143" width="148.8" x="57.6" y="41.472"/>
  </clipPath>
  <clipPath id="p25d62961c2">
   <rect height="108.617143" width="357.12" x="57.6" y="198.966857"/>
  </clipPath>
 </defs>
</svg>
