<?xml version="1.0" encoding="utf-8" standalone="no"?>
<!DOCTYPE svg PUBLIC "-//W3C//DTD SVG 1.1//EN"
  "http://www.w3.org/Graphics/SVG/1.1/DTD/svg11.dtd">
<!-- Created with matplotlib (https://matplotlib.org/) -->
<svg height="345.6pt" version="1.1" viewBox="0 0 460.8 345.6" width="460.8pt" xmlns="http://www.w3.org/2000/svg" xmlns:xlink="http://www.w3.org/1999/xlink">
 <metadata>
  <rdf:RDF xmlns:cc="http://creativecommons.org/ns#" xmlns:dc="http://purl.org/dc/elements/1.1/" xmlns:rdf="http://www.w3.org/1999/02/22-rdf-syntax-ns#">
   <cc:Work>
    <dc:type rdf:resource="http://purl.org/dc/dcmitype/StillImage"/>
    <dc:date>2021-02-16T16:30:08.825746</dc:date>
    <dc:format>image/svg+xml</dc:format>
    <dc:creator>
     <cc:Agent>
      <dc:title>Matplotlib v3.3.3, https://matplotlib.org/</dc:title>
     </cc:Agent>
    </dc:creator>
   </cc:Work>
  </rdf:RDF>
 </metadata>
 <defs>
  <style type="text/css">*{stroke-linecap:butt;stroke-linejoin:round;}</style>
 </defs>
 <g id="figure_1">
  <g id="patch_1">
   <path d="M 0 345.6 
L 460.8 345.6 
L 460.8 0 
L 0 0 
z
" style="fill:#ffffff;"/>
  </g>
  <g id="axes_1">
   <g id="patch_2">
    <path d="M 265.92 150.089143 
L 414.72 150.089143 
L 414.72 41.472 
L 265.92 41.472 
z
" style="fill:#ffffff;"/>
   </g>
   <g id="matplotlib.axis_1">
    <g id="xtick_1">
     <g id="line2d_1">
      <defs>
       <path d="M 0 0 
L 0 3.5 
" id="m560262f156" style="stroke:#000000;stroke-width:0.8;"/>
      </defs>
      <g>
       <use style="stroke:#000000;stroke-width:0.8;" x="315.519224" xlink:href="#m560262f156" y="150.089143"/>
      </g>
     </g>
     <g id="text_1">
      <!-- $\mathdefault{10^{1}}$ -->
      <g transform="translate(306.719224 164.68758)scale(0.1 -0.1)">
       <defs>
        <path d="M 14.203125 0 
L 14.203125 5.171875 
L 26.90625 5.171875 
L 26.90625 65.828125 
L 12.203125 56.296875 
L 12.203125 62.703125 
L 29.984375 74.21875 
L 36.71875 74.21875 
L 36.71875 5.171875 
L 49.421875 5.171875 
L 49.421875 0 
z
" id="DejaVuSerif-49"/>
        <path d="M 31.78125 3.421875 
Q 39.265625 3.421875 42.96875 11.625 
Q 46.6875 19.828125 46.6875 36.375 
Q 46.6875 52.984375 42.96875 61.1875 
Q 39.265625 69.390625 31.78125 69.390625 
Q 24.3125 69.390625 20.59375 61.1875 
Q 16.890625 52.984375 16.890625 36.375 
Q 16.890625 19.828125 20.59375 11.625 
Q 24.3125 3.421875 31.78125 3.421875 
z
M 31.78125 -1.421875 
Q 19.921875 -1.421875 13.25 8.53125 
Q 6.59375 18.5 6.59375 36.375 
Q 6.59375 54.296875 13.25 64.25 
Q 19.921875 74.21875 31.78125 74.21875 
Q 43.703125 74.21875 50.34375 64.25 
Q 56.984375 54.296875 56.984375 36.375 
Q 56.984375 18.5 50.34375 8.53125 
Q 43.703125 -1.421875 31.78125 -1.421875 
z
" id="DejaVuSerif-48"/>
       </defs>
       <use transform="translate(0 0.7125)" xlink:href="#DejaVuSerif-49"/>
       <use transform="translate(63.623047 0.7125)" xlink:href="#DejaVuSerif-48"/>
       <use transform="translate(128.154453 37.046875)scale(0.7)" xlink:href="#DejaVuSerif-49"/>
      </g>
     </g>
    </g>
    <g id="xtick_2">
     <g id="line2d_2">
      <g>
       <use style="stroke:#000000;stroke-width:0.8;" x="373.218149" xlink:href="#m560262f156" y="150.089143"/>
      </g>
     </g>
     <g id="text_2">
      <!-- $\mathdefault{10^{2}}$ -->
      <g transform="translate(364.418149 164.68758)scale(0.1 -0.1)">
       <defs>
        <path d="M 12.796875 55.515625 
L 7.328125 55.515625 
L 7.328125 68.5 
Q 12.546875 71.296875 17.84375 72.75 
Q 23.140625 74.21875 28.21875 74.21875 
Q 39.59375 74.21875 46.1875 68.703125 
Q 52.78125 63.1875 52.78125 53.71875 
Q 52.78125 43.015625 37.84375 28.125 
Q 36.671875 27 36.078125 26.421875 
L 17.671875 8.015625 
L 48.09375 8.015625 
L 48.09375 17 
L 53.8125 17 
L 53.8125 0 
L 6.78125 0 
L 6.78125 5.328125 
L 28.90625 27.390625 
Q 36.234375 34.71875 39.359375 40.84375 
Q 42.484375 46.96875 42.484375 53.71875 
Q 42.484375 61.078125 38.640625 65.234375 
Q 34.8125 69.390625 28.078125 69.390625 
Q 21.09375 69.390625 17.28125 65.921875 
Q 13.484375 62.453125 12.796875 55.515625 
z
" id="DejaVuSerif-50"/>
       </defs>
       <use transform="translate(0 0.7125)" xlink:href="#DejaVuSerif-49"/>
       <use transform="translate(63.623047 0.7125)" xlink:href="#DejaVuSerif-48"/>
       <use transform="translate(128.154453 37.046875)scale(0.7)" xlink:href="#DejaVuSerif-50"/>
      </g>
     </g>
    </g>
    <g id="xtick_3">
     <g id="line2d_3">
      <defs>
       <path d="M 0 0 
L 0 2 
" id="mb0ec357b68" style="stroke:#000000;stroke-width:0.6;"/>
      </defs>
      <g>
       <use style="stroke:#000000;stroke-width:0.6;" x="275.189406" xlink:href="#mb0ec357b68" y="150.089143"/>
      </g>
     </g>
    </g>
    <g id="xtick_4">
     <g id="line2d_4">
      <g>
       <use style="stroke:#000000;stroke-width:0.6;" x="285.349683" xlink:href="#mb0ec357b68" y="150.089143"/>
      </g>
     </g>
    </g>
    <g id="xtick_5">
     <g id="line2d_5">
      <g>
       <use style="stroke:#000000;stroke-width:0.6;" x="292.558513" xlink:href="#mb0ec357b68" y="150.089143"/>
      </g>
     </g>
    </g>
    <g id="xtick_6">
     <g id="line2d_6">
      <g>
       <use style="stroke:#000000;stroke-width:0.6;" x="298.150117" xlink:href="#mb0ec357b68" y="150.089143"/>
      </g>
     </g>
    </g>
    <g id="xtick_7">
     <g id="line2d_7">
      <g>
       <use style="stroke:#000000;stroke-width:0.6;" x="302.71879" xlink:href="#mb0ec357b68" y="150.089143"/>
      </g>
     </g>
    </g>
    <g id="xtick_8">
     <g id="line2d_8">
      <g>
       <use style="stroke:#000000;stroke-width:0.6;" x="306.581548" xlink:href="#mb0ec357b68" y="150.089143"/>
      </g>
     </g>
    </g>
    <g id="xtick_9">
     <g id="line2d_9">
      <g>
       <use style="stroke:#000000;stroke-width:0.6;" x="309.927621" xlink:href="#mb0ec357b68" y="150.089143"/>
      </g>
     </g>
    </g>
    <g id="xtick_10">
     <g id="line2d_10">
      <g>
       <use style="stroke:#000000;stroke-width:0.6;" x="312.879066" xlink:href="#mb0ec357b68" y="150.089143"/>
      </g>
     </g>
    </g>
    <g id="xtick_11">
     <g id="line2d_11">
      <g>
       <use style="stroke:#000000;stroke-width:0.6;" x="332.888331" xlink:href="#mb0ec357b68" y="150.089143"/>
      </g>
     </g>
    </g>
    <g id="xtick_12">
     <g id="line2d_12">
      <g>
       <use style="stroke:#000000;stroke-width:0.6;" x="343.048608" xlink:href="#mb0ec357b68" y="150.089143"/>
      </g>
     </g>
    </g>
    <g id="xtick_13">
     <g id="line2d_13">
      <g>
       <use style="stroke:#000000;stroke-width:0.6;" x="350.257438" xlink:href="#mb0ec357b68" y="150.089143"/>
      </g>
     </g>
    </g>
    <g id="xtick_14">
     <g id="line2d_14">
      <g>
       <use style="stroke:#000000;stroke-width:0.6;" x="355.849042" xlink:href="#mb0ec357b68" y="150.089143"/>
      </g>
     </g>
    </g>
    <g id="xtick_15">
     <g id="line2d_15">
      <g>
       <use style="stroke:#000000;stroke-width:0.6;" x="360.417715" xlink:href="#mb0ec357b68" y="150.089143"/>
      </g>
     </g>
    </g>
    <g id="xtick_16">
     <g id="line2d_16">
      <g>
       <use style="stroke:#000000;stroke-width:0.6;" x="364.280473" xlink:href="#mb0ec357b68" y="150.089143"/>
      </g>
     </g>
    </g>
    <g id="xtick_17">
     <g id="line2d_17">
      <g>
       <use style="stroke:#000000;stroke-width:0.6;" x="367.626546" xlink:href="#mb0ec357b68" y="150.089143"/>
      </g>
     </g>
    </g>
    <g id="xtick_18">
     <g id="line2d_18">
      <g>
       <use style="stroke:#000000;stroke-width:0.6;" x="370.577991" xlink:href="#mb0ec357b68" y="150.089143"/>
      </g>
     </g>
    </g>
    <g id="xtick_19">
     <g id="line2d_19">
      <g>
       <use style="stroke:#000000;stroke-width:0.6;" x="390.587256" xlink:href="#mb0ec357b68" y="150.089143"/>
      </g>
     </g>
    </g>
    <g id="xtick_20">
     <g id="line2d_20">
      <g>
       <use style="stroke:#000000;stroke-width:0.6;" x="400.747533" xlink:href="#mb0ec357b68" y="150.089143"/>
      </g>
     </g>
    </g>
    <g id="xtick_21">
     <g id="line2d_21">
      <g>
       <use style="stroke:#000000;stroke-width:0.6;" x="407.956364" xlink:href="#mb0ec357b68" y="150.089143"/>
      </g>
     </g>
    </g>
    <g id="xtick_22">
     <g id="line2d_22">
      <g>
       <use style="stroke:#000000;stroke-width:0.6;" x="413.547967" xlink:href="#mb0ec357b68" y="150.089143"/>
      </g>
     </g>
    </g>
    <g id="text_3">
     <!-- Period d -->
     <g transform="translate(319.231719 178.365705)scale(0.1 -0.1)">
      <defs>
       <path d="M 24.703125 37.109375 
L 37.59375 37.109375 
Q 44.875 37.109375 48.671875 41.03125 
Q 52.484375 44.96875 52.484375 52.390625 
Q 52.484375 59.859375 48.671875 63.765625 
Q 44.875 67.671875 37.59375 67.671875 
L 24.703125 67.671875 
z
M 5.515625 0 
L 5.515625 5.171875 
L 14.796875 5.171875 
L 14.796875 67.671875 
L 5.515625 67.671875 
L 5.515625 72.90625 
L 39.984375 72.90625 
Q 50.921875 72.90625 57.3125 67.359375 
Q 63.71875 61.8125 63.71875 52.390625 
Q 63.71875 43.015625 57.3125 37.453125 
Q 50.921875 31.890625 39.984375 31.890625 
L 24.703125 31.890625 
L 24.703125 5.171875 
L 35.984375 5.171875 
L 35.984375 0 
z
" id="DejaVuSerif-80"/>
       <path d="M 54.203125 25 
L 15.484375 25 
L 15.484375 24.609375 
Q 15.484375 14.109375 19.4375 8.765625 
Q 23.390625 3.421875 31.109375 3.421875 
Q 37.015625 3.421875 40.796875 6.515625 
Q 44.578125 9.625 46.09375 15.71875 
L 53.328125 15.71875 
Q 51.171875 7.171875 45.375 2.875 
Q 39.59375 -1.421875 30.171875 -1.421875 
Q 18.796875 -1.421875 11.890625 6.078125 
Q 4.984375 13.578125 4.984375 25.984375 
Q 4.984375 38.28125 11.765625 45.796875 
Q 18.5625 53.328125 29.59375 53.328125 
Q 41.359375 53.328125 47.65625 46.0625 
Q 53.953125 38.8125 54.203125 25 
z
M 43.609375 30.171875 
Q 43.3125 39.265625 39.765625 43.875 
Q 36.234375 48.484375 29.59375 48.484375 
Q 23.390625 48.484375 19.828125 43.84375 
Q 16.265625 39.203125 15.484375 30.171875 
z
" id="DejaVuSerif-101"/>
       <path d="M 47.796875 52 
L 47.796875 39.015625 
L 42.625 39.015625 
Q 42.390625 42.875 40.484375 44.78125 
Q 38.578125 46.6875 34.90625 46.6875 
Q 28.265625 46.6875 24.71875 42.09375 
Q 21.1875 37.5 21.1875 28.90625 
L 21.1875 5.171875 
L 31.59375 5.171875 
L 31.59375 0 
L 4.109375 0 
L 4.109375 5.171875 
L 12.203125 5.171875 
L 12.203125 46.78125 
L 3.609375 46.78125 
L 3.609375 51.90625 
L 21.1875 51.90625 
L 21.1875 42.671875 
Q 23.828125 48.09375 27.96875 50.703125 
Q 32.125 53.328125 38.09375 53.328125 
Q 40.28125 53.328125 42.703125 52.984375 
Q 45.125 52.640625 47.796875 52 
z
" id="DejaVuSerif-114"/>
       <path d="M 9.71875 68.015625 
Q 9.71875 70.265625 11.34375 71.921875 
Q 12.984375 73.578125 15.28125 73.578125 
Q 17.53125 73.578125 19.15625 71.921875 
Q 20.796875 70.265625 20.796875 68.015625 
Q 20.796875 65.71875 19.1875 64.109375 
Q 17.578125 62.5 15.28125 62.5 
Q 12.984375 62.5 11.34375 64.109375 
Q 9.71875 65.71875 9.71875 68.015625 
z
M 21.1875 5.171875 
L 29.6875 5.171875 
L 29.6875 0 
L 3.609375 0 
L 3.609375 5.171875 
L 12.203125 5.171875 
L 12.203125 46.6875 
L 3.609375 46.6875 
L 3.609375 51.90625 
L 21.1875 51.90625 
z
" id="DejaVuSerif-105"/>
       <path d="M 30.078125 3.421875 
Q 37.3125 3.421875 40.984375 9.125 
Q 44.671875 14.84375 44.671875 25.984375 
Q 44.671875 37.109375 40.984375 42.796875 
Q 37.3125 48.484375 30.078125 48.484375 
Q 22.859375 48.484375 19.171875 42.796875 
Q 15.484375 37.109375 15.484375 25.984375 
Q 15.484375 14.84375 19.1875 9.125 
Q 22.90625 3.421875 30.078125 3.421875 
z
M 30.078125 -1.421875 
Q 18.75 -1.421875 11.859375 6.078125 
Q 4.984375 13.578125 4.984375 25.984375 
Q 4.984375 38.375 11.84375 45.84375 
Q 18.703125 53.328125 30.078125 53.328125 
Q 41.453125 53.328125 48.3125 45.84375 
Q 55.171875 38.375 55.171875 25.984375 
Q 55.171875 13.578125 48.3125 6.078125 
Q 41.453125 -1.421875 30.078125 -1.421875 
z
" id="DejaVuSerif-111"/>
       <path d="M 52.484375 5.171875 
L 61.078125 5.171875 
L 61.078125 0 
L 43.5 0 
L 43.5 8.109375 
Q 40.875 3.21875 36.796875 0.890625 
Q 32.71875 -1.421875 26.703125 -1.421875 
Q 17.140625 -1.421875 11.0625 6.171875 
Q 4.984375 13.765625 4.984375 25.984375 
Q 4.984375 38.1875 11.03125 45.75 
Q 17.09375 53.328125 26.703125 53.328125 
Q 32.71875 53.328125 36.796875 51 
Q 40.875 48.6875 43.5 43.796875 
L 43.5 70.796875 
L 35.015625 70.796875 
L 35.015625 75.984375 
L 52.484375 75.984375 
z
M 43.5 23.390625 
L 43.5 28.515625 
Q 43.5 37.84375 39.90625 42.765625 
Q 36.328125 47.703125 29.5 47.703125 
Q 22.5625 47.703125 19.015625 42.234375 
Q 15.484375 36.765625 15.484375 25.984375 
Q 15.484375 15.234375 19.015625 9.71875 
Q 22.5625 4.203125 29.5 4.203125 
Q 36.328125 4.203125 39.90625 9.109375 
Q 43.5 14.015625 43.5 23.390625 
z
" id="DejaVuSerif-100"/>
       <path id="DejaVuSerif-32"/>
      </defs>
      <use xlink:href="#DejaVuSerif-80"/>
      <use x="62.785156" xlink:href="#DejaVuSerif-101"/>
      <use x="121.964844" xlink:href="#DejaVuSerif-114"/>
      <use x="169.767578" xlink:href="#DejaVuSerif-105"/>
      <use x="201.75" xlink:href="#DejaVuSerif-111"/>
      <use x="261.955078" xlink:href="#DejaVuSerif-100"/>
      <use x="325.96875" xlink:href="#DejaVuSerif-32"/>
      <use x="357.755859" xlink:href="#DejaVuSerif-100"/>
     </g>
    </g>
   </g>
   <g id="matplotlib.axis_2">
    <g id="ytick_1">
     <g id="line2d_23">
      <defs>
       <path d="M 0 0 
L -3.5 0 
" id="m7d7820be41" style="stroke:#000000;stroke-width:0.8;"/>
      </defs>
      <g>
       <use style="stroke:#000000;stroke-width:0.8;" x="265.92" xlink:href="#m7d7820be41" y="145.172245"/>
      </g>
     </g>
     <g id="text_4">
      <!-- 0.0 -->
      <g transform="translate(243.016875 148.971464)scale(0.1 -0.1)">
       <defs>
        <path d="M 9.421875 5.078125 
Q 9.421875 7.8125 11.28125 9.71875 
Q 13.140625 11.625 15.921875 11.625 
Q 18.609375 11.625 20.5 9.71875 
Q 22.40625 7.8125 22.40625 5.078125 
Q 22.40625 2.390625 20.5 0.484375 
Q 18.609375 -1.421875 15.921875 -1.421875 
Q 13.140625 -1.421875 11.28125 0.453125 
Q 9.421875 2.34375 9.421875 5.078125 
z
" id="DejaVuSerif-46"/>
       </defs>
       <use xlink:href="#DejaVuSerif-48"/>
       <use x="63.623047" xlink:href="#DejaVuSerif-46"/>
       <use x="95.410156" xlink:href="#DejaVuSerif-48"/>
      </g>
     </g>
    </g>
    <g id="ytick_2">
     <g id="line2d_24">
      <g>
       <use style="stroke:#000000;stroke-width:0.8;" x="265.92" xlink:href="#m7d7820be41" y="103.533118"/>
      </g>
     </g>
     <g id="text_5">
      <!-- 0.2 -->
      <g transform="translate(243.016875 107.332336)scale(0.1 -0.1)">
       <use xlink:href="#DejaVuSerif-48"/>
       <use x="63.623047" xlink:href="#DejaVuSerif-46"/>
       <use x="95.410156" xlink:href="#DejaVuSerif-50"/>
      </g>
     </g>
    </g>
    <g id="ytick_3">
     <g id="line2d_25">
      <g>
       <use style="stroke:#000000;stroke-width:0.8;" x="265.92" xlink:href="#m7d7820be41" y="61.89399"/>
      </g>
     </g>
     <g id="text_6">
      <!-- 0.4 -->
      <g transform="translate(243.016875 65.693209)scale(0.1 -0.1)">
       <defs>
        <path d="M 34.90625 24.703125 
L 34.90625 63.484375 
L 10.015625 24.703125 
z
M 56.390625 0 
L 23.1875 0 
L 23.1875 5.171875 
L 34.90625 5.171875 
L 34.90625 19.484375 
L 3.078125 19.484375 
L 3.078125 24.8125 
L 35.015625 74.21875 
L 44.671875 74.21875 
L 44.671875 24.703125 
L 58.59375 24.703125 
L 58.59375 19.484375 
L 44.671875 19.484375 
L 44.671875 5.171875 
L 56.390625 5.171875 
z
" id="DejaVuSerif-52"/>
       </defs>
       <use xlink:href="#DejaVuSerif-48"/>
       <use x="63.623047" xlink:href="#DejaVuSerif-46"/>
       <use x="95.410156" xlink:href="#DejaVuSerif-52"/>
      </g>
     </g>
    </g>
    <g id="text_7">
     <!-- Power -->
     <g transform="translate(236.937188 111.583696)rotate(-90)scale(0.1 -0.1)">
      <defs>
       <path d="M 48 51.90625 
L 61.28125 11.375 
L 73 46.6875 
L 65.484375 46.6875 
L 65.484375 51.90625 
L 84.28125 51.90625 
L 84.28125 46.6875 
L 78.515625 46.6875 
L 63.09375 0 
L 55.609375 0 
L 42.828125 38.8125 
L 29.984375 0 
L 22.796875 0 
L 7.421875 46.6875 
L 1.609375 46.6875 
L 1.609375 51.90625 
L 25.09375 51.90625 
L 25.09375 46.6875 
L 16.703125 46.6875 
L 28.328125 11.375 
L 41.703125 51.90625 
z
" id="DejaVuSerif-119"/>
      </defs>
      <use xlink:href="#DejaVuSerif-80"/>
      <use x="63.285156" xlink:href="#DejaVuSerif-111"/>
      <use x="123.490234" xlink:href="#DejaVuSerif-119"/>
      <use x="209.085938" xlink:href="#DejaVuSerif-101"/>
      <use x="268.265625" xlink:href="#DejaVuSerif-114"/>
     </g>
    </g>
   </g>
   <g id="LineCollection_1">
    <path clip-path="url(#pad41d3bfad)" d="M 272.688076 46.697605 
L 407.956364 46.697605 
" style="fill:none;stroke:#808080;stroke-dasharray:5.55,2.4;stroke-dashoffset:0;stroke-width:1.5;"/>
   </g>
   <g id="LineCollection_2">
    <path clip-path="url(#pad41d3bfad)" d="M 272.688076 60.580332 
L 407.956364 60.580332 
" style="fill:none;stroke:#a9a9a9;stroke-dasharray:5.55,2.4;stroke-dashoffset:0;stroke-width:1.5;"/>
   </g>
   <g id="LineCollection_3">
    <path clip-path="url(#pad41d3bfad)" d="M 272.688076 71.539778 
L 407.956364 71.539778 
" style="fill:none;stroke:#c0c0c0;stroke-dasharray:5.55,2.4;stroke-dashoffset:0;stroke-width:1.5;"/>
   </g>
   <g id="LineCollection_4">
    <path clip-path="url(#pad41d3bfad)" d="M 272.688076 76.724982 
L 407.956364 76.724982 
" style="fill:none;stroke:#d3d3d3;stroke-dasharray:5.55,2.4;stroke-dashoffset:0;stroke-width:1.5;"/>
   </g>
   <g id="line2d_26">
    <path clip-path="url(#pad41d3bfad)" d="M 407.956364 117.940816 
L 403.213616 124.531353 
L 399.227255 108.64876 
L 395.788878 100.820432 
L 390.068617 111.836986 
L 387.633683 121.350378 
L 385.414539 133.857692 
L 383.376032 130.6755 
L 381.490955 119.504652 
L 379.73782 116.333906 
L 378.099359 121.241152 
L 376.561486 131.670107 
L 375.112563 143.181785 
L 373.74286 135.815997 
L 372.444161 123.050886 
L 371.209467 120.142451 
L 370.032763 125.308938 
L 368.908846 134.641085 
L 367.833182 130.424397 
L 366.801799 99.098484 
L 365.811193 81.097151 
L 364.858264 81.321508 
L 363.940249 92.295624 
L 363.054681 112.25264 
L 362.199344 128.071741 
L 360.571569 87.899729 
L 359.79569 79.650043 
L 359.043114 82.271052 
L 358.312483 101.505814 
L 357.602554 134.159109 
L 356.912184 121.627071 
L 356.240326 97.74956 
L 355.586012 89.116918 
L 354.948349 91.227693 
L 353.719731 133.257004 
L 352.548548 93.785518 
L 351.982864 86.502261 
L 351.429669 82.756221 
L 350.888423 83.750968 
L 350.358621 111.88753 
L 349.839788 127.647661 
L 348.83328 78.010912 
L 348.344791 72.749468 
L 347.865643 76.803611 
L 346.933987 131.378092 
L 346.480834 118.883291 
L 346.035731 95.489268 
L 345.598396 81.745707 
L 345.168563 82.10714 
L 344.330404 136.13317 
L 343.921608 124.842632 
L 343.519374 102.683609 
L 343.123495 87.685481 
L 342.733774 89.407678 
L 341.972055 137.683948 
L 341.599707 129.067423 
L 341.23281 114.089093 
L 340.871208 105.291033 
L 340.51475 108.614558 
L 340.163291 129.447336 
L 339.816694 140.200424 
L 338.80477 114.728556 
L 338.476344 117.364893 
L 338.152167 133.754407 
L 337.83213 137.02148 
L 337.204063 118.683521 
L 336.895836 114.092362 
L 336.591354 117.092243 
L 336.290527 133.118057 
L 335.993269 133.51175 
L 335.699496 123.223839 
L 335.409128 118.304197 
L 335.122085 118.476281 
L 334.838294 125.602712 
L 334.55768 136.74513 
L 333.734215 117.262842 
L 333.465633 119.055034 
L 333.199898 127.049157 
L 332.936952 139.30194 
L 332.676737 137.447422 
L 332.419196 127.98535 
L 332.164275 126.956705 
L 331.911921 131.757571 
L 331.414712 144.29071 
L 331.169759 143.741755 
L 330.927177 139.077454 
L 330.686922 137.581636 
L 330.448947 139.340285 
L 330.213212 143.236158 
L 329.979673 144.586385 
L 329.519026 127.188851 
L 329.29184 123.979569 
L 329.066695 127.283886 
L 328.843554 136.599919 
L 328.622384 141.092036 
L 327.970348 99.22902 
L 327.756719 109.778605 
L 327.544897 131.357712 
L 327.33485 138.249459 
L 326.919965 95.844659 
L 326.71507 86.19091 
L 326.511837 89.669253 
L 326.310239 115.862 
L 326.11025 125.413687 
L 325.714998 60.180215 
L 325.519686 47.501702 
L 325.325884 46.409143 
L 324.942719 115.167147 
L 324.378739 65.51029 
L 324.193532 71.820922 
L 323.827173 129.269368 
L 323.645984 130.784154 
L 323.287487 101.292915 
L 323.110144 99.732674 
L 322.75918 134.627446 
L 322.585524 131.982731 
L 322.241781 95.652145 
L 322.071662 95.248184 
L 321.568126 134.069918 
L 321.07451 99.717706 
L 320.912109 104.48589 
L 320.59043 142.636851 
L 320.431126 140.039886 
L 320.115524 126.828471 
L 319.959202 131.718929 
L 319.649452 144.792444 
L 319.19189 123.529647 
L 319.041207 127.718496 
L 318.742534 139.707792 
L 318.301094 122.146499 
L 318.155658 123.895646 
L 317.867296 140.94418 
L 317.582214 131.861603 
L 317.44088 131.750227 
L 317.160581 141.768028 
L 317.021599 136.323793 
L 316.745926 122.038334 
L 316.609219 123.906079 
L 316.338021 139.540513 
L 315.936649 119.527271 
L 315.541606 145.041177 
L 315.411296 142.48154 
L 315.281661 136.586436 
L 315.152693 136.242157 
L 314.896732 144.179354 
L 314.769725 144.050338 
L 314.517626 135.222546 
L 314.392521 136.397201 
L 314.14417 143.921621 
L 314.020912 144.794076 
L 313.654732 133.194695 
L 313.293827 144.944361 
L 313.174672 140.879944 
L 312.938046 125.519317 
L 312.820567 127.27019 
L 312.587246 144.685616 
L 312.471396 137.177036 
L 312.24129 107.814473 
L 312.127024 106.462941 
L 311.78732 140.889142 
L 311.563383 116.475594 
L 311.452161 117.356261 
L 311.121425 144.158831 
L 311.012142 138.417372 
L 310.794997 118.771841 
L 310.687126 120.585956 
L 310.472767 142.876132 
L 310.366271 139.091054 
L 310.154628 119.482687 
L 310.049473 121.288683 
L 309.73663 143.865613 
L 309.427645 130.981411 
L 309.223751 139.085451 
L 309.021503 144.776178 
L 308.721159 140.027954 
L 308.522911 144.556716 
L 308.424372 143.765743 
L 308.13106 131.265886 
L 307.937408 141.657813 
L 307.84114 138.245559 
L 307.649708 122.850661 
L 307.554537 123.106678 
L 307.365274 139.819195 
L 307.271175 139.070662 
L 307.084032 132.716772 
L 306.990981 134.676422 
L 306.805911 141.290459 
L 306.530844 124.494748 
L 306.258763 140.144709 
L 305.900524 120.274618 
L 305.635166 142.826219 
L 305.372589 126.735458 
L 305.112735 144.467192 
L 305.026712 144.403057 
L 304.855548 138.117079 
L 304.770402 138.749226 
L 304.600973 144.48705 
L 304.348959 138.434924 
L 304.182347 143.207512 
L 304.099454 142.683241 
L 304.016835 140.991958 
L 303.934487 141.463845 
L 303.770599 144.199044 
L 303.689056 141.665831 
L 303.52676 124.535438 
L 303.446004 127.444558 
L 303.28527 143.23173 
L 303.205288 141.813432 
L 302.966862 113.466301 
L 302.887888 118.077392 
L 302.730683 140.556865 
L 302.49671 106.138512 
L 302.419202 114.660963 
L 302.264901 136.298876 
L 302.035216 104.563477 
L 301.95912 112.714221 
L 301.807618 134.842953 
L 301.732209 132.520284 
L 301.582069 118.412189 
L 301.358531 140.015595 
L 301.28446 138.514904 
L 301.13697 127.652585 
L 301.06355 129.280444 
L 300.917351 140.187684 
L 300.844571 138.090197 
L 300.627488 121.7519 
L 300.483805 136.616951 
L 300.41227 135.696284 
L 300.269812 123.866838 
L 300.198885 125.471452 
L 300.057631 134.779883 
L 299.847232 117.527188 
L 299.77749 118.035072 
L 299.707941 121.509019 
L 299.638585 121.327205 
L 299.431661 100.991994 
L 299.226432 120.711608 
L 299.158394 119.0349 
L 299.022869 105.474101 
L 298.820947 137.837738 
L 298.754 133.628753 
L 298.62064 116.799325 
L 298.42192 136.677208 
L 298.224765 110.60096 
L 298.029148 140.634989 
L 297.96428 140.166088 
L 297.835046 132.962631 
L 297.770679 135.618345 
L 297.642437 144.365152 
L 297.451297 131.780182 
L 297.324675 140.162152 
L 297.19869 122.941364 
L 297.073335 107.928914 
L 296.886471 135.71159 
L 296.824491 130.531647 
L 296.70099 109.489688 
L 296.578094 130.784905 
L 296.516872 141.18427 
L 296.455798 137.463044 
L 296.334097 113.108727 
L 296.273467 115.672371 
L 296.152645 131.274917 
L 296.092452 125.216491 
L 295.972498 95.307436 
L 295.912735 99.34711 
L 295.734298 128.696978 
L 295.675101 125.051908 
L 295.616043 116.69533 
L 295.557123 118.630497 
L 295.381192 142.366603 
L 295.264587 134.755531 
L 295.206487 135.262006 
L 295.148522 137.211332 
L 295.090691 136.822741 
L 294.917993 119.073731 
L 294.86069 120.741288 
L 294.746477 129.134641 
L 294.689565 127.224125 
L 294.576127 120.178009 
L 294.5196 121.546589 
L 294.350781 133.923232 
L 294.238863 127.219654 
L 294.183091 128.372414 
L 294.071918 130.615304 
L 294.016515 130.097733 
L 293.906077 119.903504 
L 293.85104 122.549315 
L 293.686651 130.493681 
L 293.632093 127.840757 
L 293.577654 127.943809 
L 293.361072 142.872298 
L 293.253479 139.13415 
L 293.199855 140.16882 
L 293.092951 144.677385 
L 293.039669 144.372478 
L 292.933444 141.850725 
L 292.827668 145.053459 
L 292.774947 143.994157 
L 292.669836 137.485665 
L 292.617446 137.800458 
L 292.512992 144.607054 
L 292.460928 143.098278 
L 292.357124 134.543499 
L 292.305382 134.582731 
L 292.202219 143.802214 
L 292.150796 143.690645 
L 292.048266 137.225846 
L 291.997158 137.451775 
L 291.895253 144.434251 
L 291.844455 144.431271 
L 291.692678 137.415173 
L 291.541814 144.439749 
L 291.491728 142.590678 
L 291.391854 128.925087 
L 291.342066 129.12608 
L 291.193292 143.849927 
L 291.143896 141.762845 
L 291.045396 137.685155 
L 290.898369 144.885249 
L 290.84955 143.911317 
L 290.752198 141.554851 
L 290.655223 144.363354 
L 290.606876 143.371473 
L 290.462392 136.54281 
L 290.271032 143.679115 
L 290.22342 143.37715 
L 290.175898 143.567991 
L 290.081123 145.064599 
L 290.03387 144.933798 
L 289.798932 140.447248 
L 289.566176 130.345055 
L 289.473675 133.080526 
L 289.381515 127.382432 
L 289.335561 128.161834 
L 289.061597 141.133157 
L 288.92573 144.277473 
L 288.790596 140.019872 
L 288.745712 140.930098 
L 288.700909 141.597794 
L 288.611543 137.666676 
L 288.522494 132.075063 
L 288.478087 133.377782 
L 288.345339 144.153372 
L 288.301246 143.207557 
L 288.25723 142.369877 
L 288.213291 143.223785 
L 288.169429 144.328536 
L 288.038302 138.515792 
L 287.994745 138.837347 
L 287.907857 143.139353 
L 287.864526 142.483495 
L 287.73498 134.316586 
L 287.691947 136.147491 
L 287.563288 143.679394 
L 287.520548 142.345744 
L 287.435287 137.414417 
L 287.392765 137.846548 
L 287.307936 144.325378 
L 287.265629 142.751042 
L 287.181229 134.971757 
L 287.139135 134.985325 
L 287.05516 140.989607 
L 287.013277 138.192003 
L 286.929721 125.282838 
L 286.888048 125.88164 
L 286.763441 142.96296 
L 286.722043 140.602387 
L 286.680713 138.679663 
L 286.639451 139.926428 
L 286.55713 145.013865 
L 286.516071 144.328479 
L 286.434154 139.255591 
L 286.393296 140.165562 
L 286.311779 143.492671 
L 286.271119 142.95981 
L 286.149536 136.395972 
L 286.109139 137.952078 
L 286.028539 140.95689 
L 285.988336 140.300235 
L 285.908124 137.000941 
L 285.868114 137.713794 
L 285.788285 138.783656 
L 285.748465 138.17982 
L 285.669016 135.138726 
L 285.629385 136.643125 
L 285.471487 139.153758 
L 285.392909 140.833045 
L 285.314578 143.103481 
L 285.275503 142.912665 
L 285.197537 142.370902 
L 285.158645 142.638524 
L 285.119812 142.764779 
L 285.042328 141.522378 
L 285.003676 140.671978 
L 284.965083 140.941078 
L 284.888075 141.799079 
L 284.811303 140.057898 
L 284.773005 140.774294 
L 284.696584 144.180813 
L 284.658461 142.822701 
L 284.582388 137.142732 
L 284.544439 137.403928 
L 284.506546 140.06777 
L 284.468711 139.603863 
L 284.317938 125.320925 
L 284.205451 140.209421 
L 284.168067 137.360443 
L 284.130739 135.078588 
L 284.093466 136.154721 
L 283.98198 145.013719 
L 283.944928 142.886309 
L 283.870987 140.04696 
L 283.834099 141.239053 
L 283.760485 144.581079 
L 283.723758 142.942802 
L 283.613901 134.721541 
L 283.577389 137.91651 
L 283.504524 144.075094 
L 283.46817 143.098127 
L 283.395621 139.551805 
L 283.359426 141.40097 
L 283.287191 144.214757 
L 283.251151 143.449915 
L 283.215163 142.771956 
L 283.179227 143.529252 
L 283.143342 144.847249 
L 283.107508 144.698428 
L 283.000314 132.467098 
L 282.964685 135.089223 
L 282.858099 143.541251 
L 282.822671 139.752231 
L 282.787292 136.882997 
L 282.716685 140.111473 
L 282.681457 142.935533 
L 282.646277 142.317125 
L 282.541034 128.838044 
L 282.506051 129.847014 
L 282.471117 131.690219 
L 282.436231 131.531987 
L 282.366605 124.485814 
L 282.297172 127.766309 
L 282.09002 141.701785 
L 282.055661 143.128755 
L 281.987083 141.97289 
L 281.952864 141.983702 
L 281.884566 143.814435 
L 281.850487 143.6843 
L 281.782468 142.463199 
L 281.748527 143.330952 
L 281.64698 144.945433 
L 281.613223 144.568941 
L 281.411626 139.969143 
L 281.344786 135.790596 
L 281.311432 137.828352 
L 281.278123 137.773366 
L 281.211638 130.220975 
L 281.178461 122.868617 
L 281.112239 131.91618 
L 281.079194 136.447343 
L 281.013234 131.055822 
L 280.980318 123.93116 
L 280.914617 133.547154 
L 280.849088 140.638643 
L 280.816388 133.752064 
L 280.751115 126.04322 
L 280.718542 130.627362 
L 280.653522 142.40917 
L 280.588672 136.832437 
L 280.556309 133.914037 
L 280.523988 136.50296 
L 280.459471 144.996659 
L 280.39512 141.339312 
L 280.363006 140.57378 
L 280.298902 144.708651 
L 280.266911 142.49749 
L 280.203052 130.798645 
L 280.139355 135.622298 
L 280.07582 143.891448 
L 280.044112 141.40618 
L 279.980818 137.470377 
L 279.94923 140.495107 
L 279.854706 144.370325 
L 279.823277 143.679828 
L 279.791887 143.431758 
L 279.760537 143.677043 
L 279.697954 144.91665 
L 279.666721 144.421611 
L 279.573254 135.735425 
L 279.511136 140.428818 
L 279.480135 142.97491 
L 279.449172 141.6922 
L 279.38736 138.302442 
L 279.356512 140.573447 
L 279.294928 145.152 
L 279.233496 142.770991 
L 279.141628 138.047875 
L 279.01966 125.973716 
L 278.98926 129.137898 
L 278.958897 128.354706 
L 278.928572 122.790069 
L 278.868029 129.465786 
L 278.807633 139.956824 
L 278.717311 136.483804 
L 278.627313 140.81776 
L 278.597386 137.539361 
L 278.537638 129.743344 
L 278.478032 134.824565 
L 278.448282 137.285963 
L 278.418567 136.617441 
L 278.359243 129.90073 
L 278.329634 135.231766 
L 278.241016 144.627016 
L 278.211546 142.504805 
L 278.18211 139.754319 
L 278.123343 144.407261 
L 278.094011 144.363697 
L 278.00622 137.772884 
L 277.977025 139.250648 
L 277.918736 145.07656 
L 277.889643 142.557675 
L 277.831556 132.937786 
L 277.773605 137.866747 
L 277.715787 144.10198 
L 277.686927 138.08274 
L 277.629309 128.889574 
L 277.600549 132.642 
L 277.543128 141.38579 
L 277.514467 133.067901 
L 277.457243 125.556023 
L 277.42868 129.075969 
L 277.40015 137.592636 
L 277.343186 126.192939 
L 277.314753 122.28735 
L 277.257983 127.972281 
L 277.201341 137.182231 
L 277.173068 127.652817 
L 277.144827 122.598348 
L 277.116617 125.088358 
L 277.032179 142.560908 
L 276.976045 136.724706 
L 276.892079 144.824901 
L 276.808393 140.420519 
L 276.724985 144.575972 
L 276.669534 141.401812 
L 276.586587 136.625685 
L 276.558999 139.784702 
L 276.531441 141.230421 
L 276.503913 138.940901 
L 276.421512 136.611632 
L 276.366727 140.186085 
L 276.33938 136.276993 
L 276.203089 128.629002 
L 276.17592 122.424751 
L 276.094588 126.165633 
L 276.040513 130.58249 
L 276.013519 122.162308 
L 275.986554 112.203685 
L 275.932712 124.999344 
L 275.771875 141.776448 
L 275.745168 143.378903 
L 275.718491 138.598376 
L 275.66522 132.384968 
L 275.638628 134.957727 
L 275.585527 141.665798 
L 275.559018 136.822963 
L 275.532538 133.598521 
L 275.479661 138.524516 
L 275.426896 144.583844 
L 275.374241 140.31047 
L 275.321697 144.698074 
L 275.295466 144.506732 
L 275.243086 124.627079 
L 275.164722 134.822285 
L 275.138655 129.442531 
L 275.112615 135.163807 
L 275.086602 142.814929 
L 275.060615 137.294405 
L 275.008724 119.076351 
L 274.95694 132.182834 
L 274.905263 144.136091 
L 274.827946 142.601446 
L 274.802226 145.144882 
L 274.776534 140.695992 
L 274.725226 132.079737 
L 274.674024 138.849897 
L 274.648462 140.406083 
L 274.571933 127.23683 
L 274.546475 133.292748 
L 274.495636 142.685029 
L 274.4449 130.949559 
L 274.419571 128.261287 
L 274.394267 134.746079 
L 274.368989 139.524707 
L 274.343736 133.686939 
L 274.26813 117.429534 
L 274.217853 127.085558 
L 274.192752 130.271419 
L 274.142625 125.229939 
L 274.117599 123.695399 
L 274.092598 124.023547 
L 273.918287 142.754815 
L 273.893484 143.430541 
L 273.868706 141.096364 
L 273.843952 140.708898 
L 273.819223 141.534818 
L 273.769837 144.150598 
L 273.74518 143.011854 
L 273.671356 139.119677 
L 273.646797 140.315051 
L 273.597749 144.671896 
L 273.548797 138.923189 
L 273.524357 137.6841 
L 273.499941 139.656943 
L 273.45118 143.323364 
L 273.426835 137.162451 
L 273.329691 139.574252 
L 273.257079 120.471664 
L 273.208788 127.589236 
L 273.184677 136.823565 
L 273.136525 122.624597 
L 273.112483 118.875804 
L 273.06447 128.117546 
L 273.040497 139.123716 
L 272.968717 128.430282 
L 272.873329 144.766505 
L 272.730925 144.485757 
L 272.683636 138.296665 
L 272.683636 138.296665 
" style="fill:none;stroke:#1f77b4;stroke-linecap:square;stroke-width:1.5;"/>
   </g>
   <g id="patch_3">
    <path d="M 265.92 150.089143 
L 265.92 41.472 
" style="fill:none;stroke:#000000;stroke-linecap:square;stroke-linejoin:miter;stroke-width:0.8;"/>
   </g>
   <g id="patch_4">
    <path d="M 414.72 150.089143 
L 414.72 41.472 
" style="fill:none;stroke:#000000;stroke-linecap:square;stroke-linejoin:miter;stroke-width:0.8;"/>
   </g>
   <g id="patch_5">
    <path d="M 265.92 150.089143 
L 414.72 150.089143 
" style="fill:none;stroke:#000000;stroke-linecap:square;stroke-linejoin:miter;stroke-width:0.8;"/>
   </g>
   <g id="patch_6">
    <path d="M 265.92 41.472 
L 414.72 41.472 
" style="fill:none;stroke:#000000;stroke-linecap:square;stroke-linejoin:miter;stroke-width:0.8;"/>
   </g>
   <g id="text_8">
    <!-- Periodogram -->
    <g transform="translate(307.698125 35.472)scale(0.1 -0.1)">
     <defs>
      <path d="M 52.484375 46.6875 
L 52.484375 1.125 
Q 52.484375 -10.0625 46.328125 -16.140625 
Q 40.1875 -22.21875 28.8125 -22.21875 
Q 23.6875 -22.21875 19 -21.28125 
Q 14.3125 -20.359375 10.015625 -18.5 
L 10.015625 -7.625 
L 14.703125 -7.625 
Q 15.578125 -12.703125 18.84375 -15.046875 
Q 22.125 -17.390625 28.21875 -17.390625 
Q 36.140625 -17.390625 39.8125 -12.921875 
Q 43.5 -8.453125 43.5 1.125 
L 43.5 8.109375 
Q 40.875 3.21875 36.796875 0.890625 
Q 32.71875 -1.421875 26.703125 -1.421875 
Q 17.140625 -1.421875 11.0625 6.171875 
Q 4.984375 13.765625 4.984375 25.984375 
Q 4.984375 38.1875 11.03125 45.75 
Q 17.09375 53.328125 26.703125 53.328125 
Q 32.71875 53.328125 36.796875 51 
Q 40.875 48.6875 43.5 43.796875 
L 43.5 51.90625 
L 61.078125 51.90625 
L 61.078125 46.6875 
z
M 43.5 28.515625 
Q 43.5 37.84375 39.90625 42.765625 
Q 36.328125 47.703125 29.5 47.703125 
Q 22.5625 47.703125 19.015625 42.234375 
Q 15.484375 36.765625 15.484375 25.984375 
Q 15.484375 15.234375 19.015625 9.71875 
Q 22.5625 4.203125 29.5 4.203125 
Q 36.328125 4.203125 39.90625 9.109375 
Q 43.5 14.015625 43.5 23.390625 
z
" id="DejaVuSerif-103"/>
      <path d="M 39.796875 16.3125 
L 39.796875 27.296875 
L 28.21875 27.296875 
Q 21.53125 27.296875 18.25 24.40625 
Q 14.984375 21.53125 14.984375 15.578125 
Q 14.984375 10.15625 18.296875 6.984375 
Q 21.625 3.8125 27.296875 3.8125 
Q 32.90625 3.8125 36.34375 7.28125 
Q 39.796875 10.75 39.796875 16.3125 
z
M 48.78125 32.421875 
L 48.78125 5.171875 
L 56.78125 5.171875 
L 56.78125 0 
L 39.796875 0 
L 39.796875 5.609375 
Q 36.8125 2 32.90625 0.28125 
Q 29 -1.421875 23.78125 -1.421875 
Q 15.140625 -1.421875 10.0625 3.171875 
Q 4.984375 7.765625 4.984375 15.578125 
Q 4.984375 23.640625 10.796875 28.078125 
Q 16.609375 32.515625 27.203125 32.515625 
L 39.796875 32.515625 
L 39.796875 36.078125 
Q 39.796875 42 36.203125 45.234375 
Q 32.625 48.484375 26.125 48.484375 
Q 20.75 48.484375 17.578125 46.046875 
Q 14.40625 43.609375 13.625 38.8125 
L 8.984375 38.8125 
L 8.984375 49.3125 
Q 13.671875 51.3125 18.09375 52.3125 
Q 22.515625 53.328125 26.703125 53.328125 
Q 37.5 53.328125 43.140625 47.96875 
Q 48.78125 42.625 48.78125 32.421875 
z
" id="DejaVuSerif-97"/>
      <path d="M 51.8125 41.796875 
Q 54.390625 47.515625 58.421875 50.421875 
Q 62.453125 53.328125 67.828125 53.328125 
Q 75.984375 53.328125 79.984375 48.265625 
Q 83.984375 43.21875 83.984375 33.015625 
L 83.984375 5.171875 
L 92.09375 5.171875 
L 92.09375 0 
L 67.1875 0 
L 67.1875 5.171875 
L 75 5.171875 
L 75 31.984375 
Q 75 39.9375 72.65625 43.3125 
Q 70.3125 46.6875 64.890625 46.6875 
Q 58.890625 46.6875 55.734375 42.140625 
Q 52.59375 37.59375 52.59375 28.90625 
L 52.59375 5.171875 
L 60.40625 5.171875 
L 60.40625 0 
L 35.796875 0 
L 35.796875 5.171875 
L 43.609375 5.171875 
L 43.609375 32.328125 
Q 43.609375 40.09375 41.265625 43.390625 
Q 38.921875 46.6875 33.5 46.6875 
Q 27.484375 46.6875 24.328125 42.140625 
Q 21.1875 37.59375 21.1875 28.90625 
L 21.1875 5.171875 
L 29 5.171875 
L 29 0 
L 4.109375 0 
L 4.109375 5.171875 
L 12.203125 5.171875 
L 12.203125 46.78125 
L 3.609375 46.78125 
L 3.609375 51.90625 
L 21.1875 51.90625 
L 21.1875 42.671875 
Q 23.6875 47.859375 27.53125 50.59375 
Q 31.390625 53.328125 36.28125 53.328125 
Q 42.328125 53.328125 46.375 50.3125 
Q 50.4375 47.3125 51.8125 41.796875 
z
" id="DejaVuSerif-109"/>
     </defs>
     <use xlink:href="#DejaVuSerif-80"/>
     <use x="62.785156" xlink:href="#DejaVuSerif-101"/>
     <use x="121.964844" xlink:href="#DejaVuSerif-114"/>
     <use x="169.767578" xlink:href="#DejaVuSerif-105"/>
     <use x="201.75" xlink:href="#DejaVuSerif-111"/>
     <use x="261.955078" xlink:href="#DejaVuSerif-100"/>
     <use x="325.96875" xlink:href="#DejaVuSerif-111"/>
     <use x="386.173828" xlink:href="#DejaVuSerif-103"/>
     <use x="450.1875" xlink:href="#DejaVuSerif-114"/>
     <use x="497.990234" xlink:href="#DejaVuSerif-97"/>
     <use x="557.609375" xlink:href="#DejaVuSerif-109"/>
    </g>
   </g>
   <g id="legend_1">
    <g id="patch_7">
     <path d="M 419.648125 108.123071 
L 454.431875 108.123071 
Q 455.231875 108.123071 455.231875 107.323071 
L 455.231875 84.238071 
Q 455.231875 83.438071 454.431875 83.438071 
L 419.648125 83.438071 
Q 418.848125 83.438071 418.848125 84.238071 
L 418.848125 107.323071 
Q 418.848125 108.123071 419.648125 108.123071 
z
" style="fill:#ffffff;opacity:0.8;stroke:#cccccc;stroke-linejoin:miter;"/>
    </g>
    <g id="line2d_27">
     <path d="M 420.448125 86.677446 
L 428.448125 86.677446 
" style="fill:none;stroke:#808080;stroke-dasharray:5.55,2.4;stroke-dashoffset:0;stroke-width:1.5;"/>
    </g>
    <g id="text_9">
     <!-- 99.9% FAP -->
     <g transform="translate(431.648125 88.077446)scale(0.04 -0.04)">
      <defs>
       <path d="M 46.78125 32.671875 
Q 43.5 29 39.25 27.1875 
Q 35.015625 25.390625 29.6875 25.390625 
Q 18.84375 25.390625 12.5625 31.9375 
Q 6.296875 38.484375 6.296875 49.8125 
Q 6.296875 60.890625 13.109375 67.546875 
Q 19.921875 74.21875 31.296875 74.21875 
Q 43.65625 74.21875 50.265625 65.015625 
Q 56.890625 55.8125 56.890625 38.71875 
Q 56.890625 19.578125 49.015625 9.078125 
Q 41.15625 -1.421875 26.90625 -1.421875 
Q 23.046875 -1.421875 18.796875 -0.6875 
Q 14.546875 0.046875 10.109375 1.515625 
L 10.109375 13.625 
L 15.578125 13.625 
Q 16.21875 8.6875 19.390625 6.046875 
Q 22.5625 3.421875 27.875 3.421875 
Q 37.359375 3.421875 41.984375 10.5625 
Q 46.625 17.71875 46.78125 32.671875 
z
M 30.90625 69.390625 
Q 23.96875 69.390625 20.28125 64.328125 
Q 16.609375 59.28125 16.609375 49.8125 
Q 16.609375 40.328125 20.28125 35.25 
Q 23.96875 30.171875 30.90625 30.171875 
Q 37.84375 30.171875 41.53125 35.078125 
Q 45.21875 39.984375 45.21875 49.21875 
Q 45.21875 58.9375 41.5 64.15625 
Q 37.796875 69.390625 30.90625 69.390625 
z
" id="DejaVuSerif-57"/>
       <path d="M 22.40625 69.671875 
Q 18.109375 69.671875 15.6875 65.625 
Q 13.28125 61.578125 13.28125 54.296875 
Q 13.28125 47.125 15.75 43.015625 
Q 18.21875 38.921875 22.40625 38.921875 
Q 26.5625 38.921875 28.96875 43 
Q 31.390625 47.078125 31.390625 54.296875 
Q 31.390625 61.53125 28.96875 65.59375 
Q 26.5625 69.671875 22.40625 69.671875 
z
M 72.703125 33.890625 
Q 68.453125 33.890625 66.03125 29.78125 
Q 63.625 25.6875 63.625 18.40625 
Q 63.625 11.234375 66.0625 7.15625 
Q 68.5 3.078125 72.703125 3.078125 
Q 76.90625 3.078125 79.296875 7.15625 
Q 81.6875 11.234375 81.6875 18.40625 
Q 81.6875 25.640625 79.265625 29.765625 
Q 76.859375 33.890625 72.703125 33.890625 
z
M 72.703125 38.28125 
Q 80.421875 38.28125 84.953125 32.90625 
Q 89.5 27.546875 89.5 18.40625 
Q 89.5 9.28125 84.9375 3.921875 
Q 80.375 -1.421875 72.703125 -1.421875 
Q 64.890625 -1.421875 60.34375 3.921875 
Q 55.8125 9.28125 55.8125 18.40625 
Q 55.8125 27.59375 60.375 32.9375 
Q 64.9375 38.28125 72.703125 38.28125 
z
M 66.609375 74.21875 
L 74.03125 74.21875 
L 28.421875 -1.421875 
L 21 -1.421875 
z
M 22.3125 74.21875 
Q 30.03125 74.21875 34.609375 68.875 
Q 39.203125 63.53125 39.203125 54.390625 
Q 39.203125 45.171875 34.640625 39.84375 
Q 30.078125 34.515625 22.3125 34.515625 
Q 14.546875 34.515625 10.03125 39.859375 
Q 5.515625 45.21875 5.515625 54.390625 
Q 5.515625 63.484375 10.046875 68.84375 
Q 14.59375 74.21875 22.3125 74.21875 
z
" id="DejaVuSerif-37"/>
       <path d="M 5.515625 0 
L 5.515625 5.171875 
L 14.796875 5.171875 
L 14.796875 67.671875 
L 5.515625 67.671875 
L 5.515625 72.90625 
L 65.1875 72.90625 
L 65.1875 56.6875 
L 59.1875 56.6875 
L 59.1875 66.890625 
L 24.703125 66.890625 
L 24.703125 42.484375 
L 49.609375 42.484375 
L 49.609375 51.609375 
L 55.609375 51.609375 
L 55.609375 27.390625 
L 49.609375 27.390625 
L 49.609375 36.53125 
L 24.703125 36.53125 
L 24.703125 5.171875 
L 36.375 5.171875 
L 36.375 0 
z
" id="DejaVuSerif-70"/>
       <path d="M 20.015625 26.421875 
L 46.78125 26.421875 
L 33.40625 61.078125 
z
M -0.59375 0 
L -0.59375 5.171875 
L 5.8125 5.171875 
L 31.78125 72.90625 
L 39.984375 72.90625 
L 66.015625 5.171875 
L 73.1875 5.171875 
L 73.1875 0 
L 46.6875 0 
L 46.6875 5.171875 
L 54.78125 5.171875 
L 48.6875 21.1875 
L 18.015625 21.1875 
L 11.921875 5.171875 
L 19.921875 5.171875 
L 19.921875 0 
z
" id="DejaVuSerif-65"/>
      </defs>
      <use xlink:href="#DejaVuSerif-57"/>
      <use x="63.623047" xlink:href="#DejaVuSerif-57"/>
      <use x="127.246094" xlink:href="#DejaVuSerif-46"/>
      <use x="159.033203" xlink:href="#DejaVuSerif-57"/>
      <use x="222.65625" xlink:href="#DejaVuSerif-37"/>
      <use x="317.675781" xlink:href="#DejaVuSerif-32"/>
      <use x="349.462891" xlink:href="#DejaVuSerif-70"/>
      <use x="410.097656" xlink:href="#DejaVuSerif-65"/>
      <use x="482.314453" xlink:href="#DejaVuSerif-80"/>
     </g>
    </g>
    <g id="line2d_28">
     <path d="M 420.448125 92.548696 
L 428.448125 92.548696 
" style="fill:none;stroke:#a9a9a9;stroke-dasharray:5.55,2.4;stroke-dashoffset:0;stroke-width:1.5;"/>
    </g>
    <g id="text_10">
     <!-- 99.0% FAP -->
     <g transform="translate(431.648125 93.948696)scale(0.04 -0.04)">
      <use xlink:href="#DejaVuSerif-57"/>
      <use x="63.623047" xlink:href="#DejaVuSerif-57"/>
      <use x="127.246094" xlink:href="#DejaVuSerif-46"/>
      <use x="159.033203" xlink:href="#DejaVuSerif-48"/>
      <use x="222.65625" xlink:href="#DejaVuSerif-37"/>
      <use x="317.675781" xlink:href="#DejaVuSerif-32"/>
      <use x="349.462891" xlink:href="#DejaVuSerif-70"/>
      <use x="410.097656" xlink:href="#DejaVuSerif-65"/>
      <use x="482.314453" xlink:href="#DejaVuSerif-80"/>
     </g>
    </g>
    <g id="line2d_29">
     <path d="M 420.448125 98.419946 
L 428.448125 98.419946 
" style="fill:none;stroke:#c0c0c0;stroke-dasharray:5.55,2.4;stroke-dashoffset:0;stroke-width:1.5;"/>
    </g>
    <g id="text_11">
     <!-- 95.0% FAP -->
     <g transform="translate(431.648125 99.819946)scale(0.04 -0.04)">
      <defs>
       <path d="M 50.296875 72.90625 
L 50.296875 64.890625 
L 16.890625 64.890625 
L 16.890625 44 
Q 19.4375 45.75 22.828125 46.625 
Q 26.21875 47.515625 30.421875 47.515625 
Q 42.234375 47.515625 49.0625 40.96875 
Q 55.90625 34.421875 55.90625 23.09375 
Q 55.90625 11.53125 49 5.046875 
Q 42.09375 -1.421875 29.59375 -1.421875 
Q 24.5625 -1.421875 19.28125 -0.1875 
Q 14.015625 1.03125 8.5 3.515625 
L 8.5 17.671875 
L 14.015625 17.671875 
Q 14.453125 10.75 18.421875 7.078125 
Q 22.40625 3.421875 29.59375 3.421875 
Q 37.3125 3.421875 41.453125 8.5 
Q 45.609375 13.578125 45.609375 23.09375 
Q 45.609375 32.5625 41.484375 37.609375 
Q 37.359375 42.671875 29.59375 42.671875 
Q 25.203125 42.671875 21.84375 41.109375 
Q 18.5 39.546875 15.921875 36.28125 
L 11.71875 36.28125 
L 11.71875 72.90625 
z
" id="DejaVuSerif-53"/>
      </defs>
      <use xlink:href="#DejaVuSerif-57"/>
      <use x="63.623047" xlink:href="#DejaVuSerif-53"/>
      <use x="127.246094" xlink:href="#DejaVuSerif-46"/>
      <use x="159.033203" xlink:href="#DejaVuSerif-48"/>
      <use x="222.65625" xlink:href="#DejaVuSerif-37"/>
      <use x="317.675781" xlink:href="#DejaVuSerif-32"/>
      <use x="349.462891" xlink:href="#DejaVuSerif-70"/>
      <use x="410.097656" xlink:href="#DejaVuSerif-65"/>
      <use x="482.314453" xlink:href="#DejaVuSerif-80"/>
     </g>
    </g>
    <g id="line2d_30">
     <path d="M 420.448125 104.291196 
L 428.448125 104.291196 
" style="fill:none;stroke:#d3d3d3;stroke-dasharray:5.55,2.4;stroke-dashoffset:0;stroke-width:1.5;"/>
    </g>
    <g id="text_12">
     <!-- 90.0% FAP -->
     <g transform="translate(431.648125 105.691196)scale(0.04 -0.04)">
      <use xlink:href="#DejaVuSerif-57"/>
      <use x="63.623047" xlink:href="#DejaVuSerif-48"/>
      <use x="127.246094" xlink:href="#DejaVuSerif-46"/>
      <use x="159.033203" xlink:href="#DejaVuSerif-48"/>
      <use x="222.65625" xlink:href="#DejaVuSerif-37"/>
      <use x="317.675781" xlink:href="#DejaVuSerif-32"/>
      <use x="349.462891" xlink:href="#DejaVuSerif-70"/>
      <use x="410.097656" xlink:href="#DejaVuSerif-65"/>
      <use x="482.314453" xlink:href="#DejaVuSerif-80"/>
     </g>
    </g>
   </g>
  </g>
  <g id="axes_2">
   <g id="patch_8">
    <path d="M 57.6 150.089143 
L 206.4 150.089143 
L 206.4 41.472 
L 57.6 41.472 
z
" style="fill:#ffffff;"/>
   </g>
   <g id="PathCollection_1">
    <defs>
     <path d="M 0 0.707107 
C 0.187527 0.707107 0.367398 0.632602 0.5 0.5 
C 0.632602 0.367398 0.707107 0.187527 0.707107 0 
C 0.707107 -0.187527 0.632602 -0.367398 0.5 -0.5 
C 0.367398 -0.632602 0.187527 -0.707107 0 -0.707107 
C -0.187527 -0.707107 -0.367398 -0.632602 -0.5 -0.5 
C -0.632602 -0.367398 -0.707107 -0.187527 -0.707107 0 
C -0.707107 0.187527 -0.632602 0.367398 -0.5 0.5 
C -0.367398 0.632602 -0.187527 0.707107 0 0.707107 
z
" id="m7eb8485110" style="stroke:#1f77b4;"/>
    </defs>
    <g clip-path="url(#p01e34f5e79)">
     <use style="fill:#1f77b4;stroke:#1f77b4;" x="126.757797" xlink:href="#m7eb8485110" y="68.239704"/>
     <use style="fill:#1f77b4;stroke:#1f77b4;" x="126.760017" xlink:href="#m7eb8485110" y="66.275005"/>
     <use style="fill:#1f77b4;stroke:#1f77b4;" x="104.441949" xlink:href="#m7eb8485110" y="84.455358"/>
     <use style="fill:#1f77b4;stroke:#1f77b4;" x="104.44417" xlink:href="#m7eb8485110" y="82.350768"/>
     <use style="fill:#1f77b4;stroke:#1f77b4;" x="114.453675" xlink:href="#m7eb8485110" y="83.399801"/>
     <use style="fill:#1f77b4;stroke:#1f77b4;" x="128.688466" xlink:href="#m7eb8485110" y="70.725524"/>
     <use style="fill:#1f77b4;stroke:#1f77b4;" x="128.703897" xlink:href="#m7eb8485110" y="74.096685"/>
     <use style="fill:#1f77b4;stroke:#1f77b4;" x="111.372763" xlink:href="#m7eb8485110" y="88.955058"/>
     <use style="fill:#1f77b4;stroke:#1f77b4;" x="116.165913" xlink:href="#m7eb8485110" y="122.433258"/>
     <use style="fill:#1f77b4;stroke:#1f77b4;" x="125.856127" xlink:href="#m7eb8485110" y="54.574648"/>
     <use style="fill:#1f77b4;stroke:#1f77b4;" x="125.858347" xlink:href="#m7eb8485110" y="61.173692"/>
     <use style="fill:#1f77b4;stroke:#1f77b4;" x="64.363636" xlink:href="#m7eb8485110" y="58.555359"/>
     <use style="fill:#1f77b4;stroke:#1f77b4;" x="64.365857" xlink:href="#m7eb8485110" y="54.815718"/>
     <use style="fill:#1f77b4;stroke:#1f77b4;" x="69.1126" xlink:href="#m7eb8485110" y="84.716832"/>
     <use style="fill:#1f77b4;stroke:#1f77b4;" x="69.114821" xlink:href="#m7eb8485110" y="83.609129"/>
     <use style="fill:#1f77b4;stroke:#1f77b4;" x="74.164814" xlink:href="#m7eb8485110" y="56.301961"/>
     <use style="fill:#1f77b4;stroke:#1f77b4;" x="74.166979" xlink:href="#m7eb8485110" y="53.470905"/>
     <use style="fill:#1f77b4;stroke:#1f77b4;" x="78.754076" xlink:href="#m7eb8485110" y="49.66182"/>
     <use style="fill:#1f77b4;stroke:#1f77b4;" x="78.756297" xlink:href="#m7eb8485110" y="46.409143"/>
     <use style="fill:#1f77b4;stroke:#1f77b4;" x="83.545561" xlink:href="#m7eb8485110" y="55.080031"/>
     <use style="fill:#1f77b4;stroke:#1f77b4;" x="83.547726" xlink:href="#m7eb8485110" y="55.720194"/>
     <use style="fill:#1f77b4;stroke:#1f77b4;" x="126.744969" xlink:href="#m7eb8485110" y="59.356233"/>
     <use style="fill:#1f77b4;stroke:#1f77b4;" x="89.110483" xlink:href="#m7eb8485110" y="69.837209"/>
     <use style="fill:#1f77b4;stroke:#1f77b4;" x="93.884704" xlink:href="#m7eb8485110" y="69.167422"/>
     <use style="fill:#1f77b4;stroke:#1f77b4;" x="98.68185" xlink:href="#m7eb8485110" y="145.152"/>
     <use style="fill:#1f77b4;stroke:#1f77b4;" x="103.46906" xlink:href="#m7eb8485110" y="111.185283"/>
     <use style="fill:#1f77b4;stroke:#1f77b4;" x="108.285302" xlink:href="#m7eb8485110" y="99.213948"/>
     <use style="fill:#1f77b4;stroke:#1f77b4;" x="94.977266" xlink:href="#m7eb8485110" y="84.463858"/>
     <use style="fill:#1f77b4;stroke:#1f77b4;" x="66.245311" xlink:href="#m7eb8485110" y="60.919299"/>
     <use style="fill:#1f77b4;stroke:#1f77b4;" x="71.741103" xlink:href="#m7eb8485110" y="51.983666"/>
     <use style="fill:#1f77b4;stroke:#1f77b4;" x="76.625621" xlink:href="#m7eb8485110" y="87.476602"/>
     <use style="fill:#1f77b4;stroke:#1f77b4;" x="110.099067" xlink:href="#m7eb8485110" y="71.519034"/>
     <use style="fill:#1f77b4;stroke:#1f77b4;" x="124.578989" xlink:href="#m7eb8485110" y="80.553014"/>
     <use style="fill:#1f77b4;stroke:#1f77b4;" x="102.640851" xlink:href="#m7eb8485110" y="105.640942"/>
     <use style="fill:#1f77b4;stroke:#1f77b4;" x="121.824884" xlink:href="#m7eb8485110" y="84.881519"/>
     <use style="fill:#1f77b4;stroke:#1f77b4;" x="98.817088" xlink:href="#m7eb8485110" y="135.653169"/>
     <use style="fill:#1f77b4;stroke:#1f77b4;" x="110.407776" xlink:href="#m7eb8485110" y="78.587461"/>
     <use style="fill:#1f77b4;stroke:#1f77b4;" x="85.105362" xlink:href="#m7eb8485110" y="56.587391"/>
     <use style="fill:#1f77b4;stroke:#1f77b4;" x="114.645136" xlink:href="#m7eb8485110" y="113.476657"/>
     <use style="fill:#1f77b4;stroke:#1f77b4;" x="114.647301" xlink:href="#m7eb8485110" y="110.397583"/>
     <use style="fill:#1f77b4;stroke:#1f77b4;" x="119.318718" xlink:href="#m7eb8485110" y="82.063072"/>
     <use style="fill:#1f77b4;stroke:#1f77b4;" x="119.320883" xlink:href="#m7eb8485110" y="84.765442"/>
     <use style="fill:#1f77b4;stroke:#1f77b4;" x="123.907925" xlink:href="#m7eb8485110" y="82.490793"/>
     <use style="fill:#1f77b4;stroke:#1f77b4;" x="123.91009" xlink:href="#m7eb8485110" y="83.202101"/>
    </g>
   </g>
   <g id="PathCollection_2">
    <g clip-path="url(#p01e34f5e79)">
     <use style="fill:#1f77b4;stroke:#1f77b4;" x="197.690263" xlink:href="#m7eb8485110" y="68.239704"/>
     <use style="fill:#1f77b4;stroke:#1f77b4;" x="197.692484" xlink:href="#m7eb8485110" y="66.275005"/>
     <use style="fill:#1f77b4;stroke:#1f77b4;" x="175.374415" xlink:href="#m7eb8485110" y="84.455358"/>
     <use style="fill:#1f77b4;stroke:#1f77b4;" x="175.376636" xlink:href="#m7eb8485110" y="82.350768"/>
     <use style="fill:#1f77b4;stroke:#1f77b4;" x="185.386141" xlink:href="#m7eb8485110" y="83.399801"/>
     <use style="fill:#1f77b4;stroke:#1f77b4;" x="199.620932" xlink:href="#m7eb8485110" y="70.725524"/>
     <use style="fill:#1f77b4;stroke:#1f77b4;" x="199.636364" xlink:href="#m7eb8485110" y="74.096685"/>
     <use style="fill:#1f77b4;stroke:#1f77b4;" x="182.30523" xlink:href="#m7eb8485110" y="88.955058"/>
     <use style="fill:#1f77b4;stroke:#1f77b4;" x="187.09838" xlink:href="#m7eb8485110" y="122.433258"/>
     <use style="fill:#1f77b4;stroke:#1f77b4;" x="196.788593" xlink:href="#m7eb8485110" y="54.574648"/>
     <use style="fill:#1f77b4;stroke:#1f77b4;" x="196.790813" xlink:href="#m7eb8485110" y="61.173692"/>
     <use style="fill:#1f77b4;stroke:#1f77b4;" x="135.296103" xlink:href="#m7eb8485110" y="58.555359"/>
     <use style="fill:#1f77b4;stroke:#1f77b4;" x="135.298323" xlink:href="#m7eb8485110" y="54.815718"/>
     <use style="fill:#1f77b4;stroke:#1f77b4;" x="140.045067" xlink:href="#m7eb8485110" y="84.716832"/>
     <use style="fill:#1f77b4;stroke:#1f77b4;" x="140.047287" xlink:href="#m7eb8485110" y="83.609129"/>
     <use style="fill:#1f77b4;stroke:#1f77b4;" x="145.09728" xlink:href="#m7eb8485110" y="56.301961"/>
     <use style="fill:#1f77b4;stroke:#1f77b4;" x="145.099445" xlink:href="#m7eb8485110" y="53.470905"/>
     <use style="fill:#1f77b4;stroke:#1f77b4;" x="149.686543" xlink:href="#m7eb8485110" y="49.66182"/>
     <use style="fill:#1f77b4;stroke:#1f77b4;" x="149.688763" xlink:href="#m7eb8485110" y="46.409143"/>
     <use style="fill:#1f77b4;stroke:#1f77b4;" x="154.478027" xlink:href="#m7eb8485110" y="55.080031"/>
     <use style="fill:#1f77b4;stroke:#1f77b4;" x="154.480192" xlink:href="#m7eb8485110" y="55.720194"/>
     <use style="fill:#1f77b4;stroke:#1f77b4;" x="197.677435" xlink:href="#m7eb8485110" y="59.356233"/>
     <use style="fill:#1f77b4;stroke:#1f77b4;" x="160.042949" xlink:href="#m7eb8485110" y="69.837209"/>
     <use style="fill:#1f77b4;stroke:#1f77b4;" x="164.81717" xlink:href="#m7eb8485110" y="69.167422"/>
     <use style="fill:#1f77b4;stroke:#1f77b4;" x="169.614316" xlink:href="#m7eb8485110" y="145.152"/>
     <use style="fill:#1f77b4;stroke:#1f77b4;" x="174.401526" xlink:href="#m7eb8485110" y="111.185283"/>
     <use style="fill:#1f77b4;stroke:#1f77b4;" x="179.217768" xlink:href="#m7eb8485110" y="99.213948"/>
     <use style="fill:#1f77b4;stroke:#1f77b4;" x="165.909733" xlink:href="#m7eb8485110" y="84.463858"/>
     <use style="fill:#1f77b4;stroke:#1f77b4;" x="137.177778" xlink:href="#m7eb8485110" y="60.919299"/>
     <use style="fill:#1f77b4;stroke:#1f77b4;" x="142.673569" xlink:href="#m7eb8485110" y="51.983666"/>
     <use style="fill:#1f77b4;stroke:#1f77b4;" x="147.558088" xlink:href="#m7eb8485110" y="87.476602"/>
     <use style="fill:#1f77b4;stroke:#1f77b4;" x="181.031534" xlink:href="#m7eb8485110" y="71.519034"/>
     <use style="fill:#1f77b4;stroke:#1f77b4;" x="195.511455" xlink:href="#m7eb8485110" y="80.553014"/>
     <use style="fill:#1f77b4;stroke:#1f77b4;" x="173.573317" xlink:href="#m7eb8485110" y="105.640942"/>
     <use style="fill:#1f77b4;stroke:#1f77b4;" x="192.757351" xlink:href="#m7eb8485110" y="84.881519"/>
     <use style="fill:#1f77b4;stroke:#1f77b4;" x="169.749554" xlink:href="#m7eb8485110" y="135.653169"/>
     <use style="fill:#1f77b4;stroke:#1f77b4;" x="181.340242" xlink:href="#m7eb8485110" y="78.587461"/>
     <use style="fill:#1f77b4;stroke:#1f77b4;" x="156.037828" xlink:href="#m7eb8485110" y="56.587391"/>
     <use style="fill:#1f77b4;stroke:#1f77b4;" x="185.577602" xlink:href="#m7eb8485110" y="113.476657"/>
     <use style="fill:#1f77b4;stroke:#1f77b4;" x="185.579767" xlink:href="#m7eb8485110" y="110.397583"/>
     <use style="fill:#1f77b4;stroke:#1f77b4;" x="190.251184" xlink:href="#m7eb8485110" y="82.063072"/>
     <use style="fill:#1f77b4;stroke:#1f77b4;" x="190.253349" xlink:href="#m7eb8485110" y="84.765442"/>
     <use style="fill:#1f77b4;stroke:#1f77b4;" x="194.840392" xlink:href="#m7eb8485110" y="82.490793"/>
     <use style="fill:#1f77b4;stroke:#1f77b4;" x="194.842556" xlink:href="#m7eb8485110" y="83.202101"/>
    </g>
   </g>
   <g id="matplotlib.axis_3">
    <g id="xtick_23">
     <g id="line2d_31">
      <g>
       <use style="stroke:#000000;stroke-width:0.8;" x="57.88399" xlink:href="#m560262f156" y="150.089143"/>
      </g>
     </g>
     <g id="text_13">
      <!-- 0 -->
      <g transform="translate(54.70274 164.68758)scale(0.1 -0.1)">
       <use xlink:href="#DejaVuSerif-48"/>
      </g>
     </g>
    </g>
    <g id="xtick_24">
     <g id="line2d_32">
      <g>
       <use style="stroke:#000000;stroke-width:0.8;" x="128.816457" xlink:href="#m560262f156" y="150.089143"/>
      </g>
     </g>
     <g id="text_14">
      <!-- 1 -->
      <g transform="translate(125.635207 164.68758)scale(0.1 -0.1)">
       <use xlink:href="#DejaVuSerif-49"/>
      </g>
     </g>
    </g>
    <g id="xtick_25">
     <g id="line2d_33">
      <g>
       <use style="stroke:#000000;stroke-width:0.8;" x="199.748923" xlink:href="#m560262f156" y="150.089143"/>
      </g>
     </g>
     <g id="text_15">
      <!-- 2 -->
      <g transform="translate(196.567673 164.68758)scale(0.1 -0.1)">
       <use xlink:href="#DejaVuSerif-50"/>
      </g>
     </g>
    </g>
    <g id="text_16">
     <!-- Phase (P = 14.79 d) -->
     <g transform="translate(81.582812 178.365705)scale(0.1 -0.1)">
      <defs>
       <path d="M 4.109375 0 
L 4.109375 5.171875 
L 12.203125 5.171875 
L 12.203125 70.796875 
L 3.609375 70.796875 
L 3.609375 75.984375 
L 21.1875 75.984375 
L 21.1875 42.671875 
Q 23.6875 47.953125 27.65625 50.640625 
Q 31.640625 53.328125 36.921875 53.328125 
Q 45.515625 53.328125 49.5625 48.390625 
Q 53.609375 43.453125 53.609375 33.015625 
L 53.609375 5.171875 
L 61.625 5.171875 
L 61.625 0 
L 36.8125 0 
L 36.8125 5.171875 
L 44.578125 5.171875 
L 44.578125 30.171875 
Q 44.578125 39.703125 42.25 43.1875 
Q 39.9375 46.6875 33.984375 46.6875 
Q 27.734375 46.6875 24.453125 42.140625 
Q 21.1875 37.59375 21.1875 28.90625 
L 21.1875 5.171875 
L 29 5.171875 
L 29 0 
z
" id="DejaVuSerif-104"/>
       <path d="M 5.609375 2.875 
L 5.609375 14.984375 
L 10.796875 14.984375 
Q 10.984375 9.1875 14.421875 6.296875 
Q 17.875 3.421875 24.609375 3.421875 
Q 30.671875 3.421875 33.84375 5.6875 
Q 37.015625 7.953125 37.015625 12.3125 
Q 37.015625 15.71875 34.6875 17.8125 
Q 32.375 19.921875 24.90625 22.3125 
L 18.40625 24.515625 
Q 11.71875 26.65625 8.71875 29.875 
Q 5.71875 33.109375 5.71875 38.09375 
Q 5.71875 45.21875 10.9375 49.265625 
Q 16.15625 53.328125 25.390625 53.328125 
Q 29.5 53.328125 34.03125 52.25 
Q 38.578125 51.171875 43.40625 49.125 
L 43.40625 37.796875 
L 38.234375 37.796875 
Q 38.03125 42.828125 34.703125 45.65625 
Q 31.390625 48.484375 25.6875 48.484375 
Q 20.015625 48.484375 17.109375 46.484375 
Q 14.203125 44.484375 14.203125 40.484375 
Q 14.203125 37.203125 16.40625 35.21875 
Q 18.609375 33.25 25.203125 31.203125 
L 32.328125 29 
Q 39.703125 26.703125 42.9375 23.265625 
Q 46.1875 19.828125 46.1875 14.40625 
Q 46.1875 7.03125 40.546875 2.796875 
Q 34.90625 -1.421875 25 -1.421875 
Q 19.96875 -1.421875 15.1875 -0.34375 
Q 10.40625 0.734375 5.609375 2.875 
z
" id="DejaVuSerif-115"/>
       <path d="M 31.890625 -15.578125 
Q 20.015625 -10.25 13.953125 1.296875 
Q 7.90625 12.84375 7.90625 30.171875 
Q 7.90625 47.5625 13.953125 59.109375 
Q 20.015625 70.65625 31.890625 75.984375 
L 31.890625 71.1875 
Q 24.359375 66.015625 21.09375 56.609375 
Q 17.828125 47.21875 17.828125 30.171875 
Q 17.828125 13.1875 21.09375 3.78125 
Q 24.359375 -5.609375 31.890625 -10.796875 
z
" id="DejaVuSerif-40"/>
       <path d="M 10.59375 45.21875 
L 73.1875 45.21875 
L 73.1875 37.40625 
L 10.59375 37.40625 
z
M 10.59375 25.296875 
L 73.1875 25.296875 
L 73.1875 17.484375 
L 10.59375 17.484375 
z
" id="DejaVuSerif-61"/>
       <path d="M 56.390625 67.921875 
L 27.875 0 
L 20.609375 0 
L 47.796875 64.890625 
L 14.109375 64.890625 
L 14.109375 55.90625 
L 8.40625 55.90625 
L 8.40625 72.90625 
L 56.390625 72.90625 
z
" id="DejaVuSerif-55"/>
       <path d="M 7.078125 -15.578125 
L 7.078125 -10.796875 
Q 14.59375 -5.609375 17.890625 3.78125 
Q 21.1875 13.1875 21.1875 30.171875 
Q 21.1875 47.21875 17.890625 56.609375 
Q 14.59375 66.015625 7.078125 71.1875 
L 7.078125 75.984375 
Q 19 70.65625 25.046875 59.109375 
Q 31.109375 47.5625 31.109375 30.171875 
Q 31.109375 12.84375 25.046875 1.296875 
Q 19 -10.25 7.078125 -15.578125 
z
" id="DejaVuSerif-41"/>
      </defs>
      <use xlink:href="#DejaVuSerif-80"/>
      <use x="67.285156" xlink:href="#DejaVuSerif-104"/>
      <use x="131.689453" xlink:href="#DejaVuSerif-97"/>
      <use x="191.308594" xlink:href="#DejaVuSerif-115"/>
      <use x="242.626953" xlink:href="#DejaVuSerif-101"/>
      <use x="301.806641" xlink:href="#DejaVuSerif-32"/>
      <use x="333.59375" xlink:href="#DejaVuSerif-40"/>
      <use x="372.607422" xlink:href="#DejaVuSerif-80"/>
      <use x="439.892578" xlink:href="#DejaVuSerif-32"/>
      <use x="471.679688" xlink:href="#DejaVuSerif-61"/>
      <use x="555.46875" xlink:href="#DejaVuSerif-32"/>
      <use x="587.255859" xlink:href="#DejaVuSerif-49"/>
      <use x="650.878906" xlink:href="#DejaVuSerif-52"/>
      <use x="714.501953" xlink:href="#DejaVuSerif-46"/>
      <use x="746.289062" xlink:href="#DejaVuSerif-55"/>
      <use x="809.912109" xlink:href="#DejaVuSerif-57"/>
      <use x="873.535156" xlink:href="#DejaVuSerif-32"/>
      <use x="905.322266" xlink:href="#DejaVuSerif-100"/>
      <use x="969.335938" xlink:href="#DejaVuSerif-41"/>
     </g>
    </g>
   </g>
   <g id="matplotlib.axis_4">
    <g id="ytick_4">
     <g id="line2d_34">
      <g>
       <use style="stroke:#000000;stroke-width:0.8;" x="57.6" xlink:href="#m7d7820be41" y="78.37927"/>
      </g>
     </g>
     <g id="text_17">
      <!-- 18.5 -->
      <g transform="translate(28.334375 82.178489)scale(0.1 -0.1)">
       <defs>
        <path d="M 46.578125 19.921875 
Q 46.578125 27.734375 42.6875 32.046875 
Q 38.8125 36.375 31.78125 36.375 
Q 24.75 36.375 20.875 32.046875 
Q 17 27.734375 17 19.921875 
Q 17 12.0625 20.875 7.734375 
Q 24.75 3.421875 31.78125 3.421875 
Q 38.8125 3.421875 42.6875 7.734375 
Q 46.578125 12.0625 46.578125 19.921875 
z
M 44.578125 55.328125 
Q 44.578125 61.96875 41.203125 65.671875 
Q 37.84375 69.390625 31.78125 69.390625 
Q 25.78125 69.390625 22.390625 65.671875 
Q 19 61.96875 19 55.328125 
Q 19 48.640625 22.390625 44.921875 
Q 25.78125 41.21875 31.78125 41.21875 
Q 37.84375 41.21875 41.203125 44.921875 
Q 44.578125 48.640625 44.578125 55.328125 
z
M 39.3125 38.8125 
Q 47.609375 37.703125 52.25 32.6875 
Q 56.890625 27.6875 56.890625 19.921875 
Q 56.890625 9.671875 50.390625 4.125 
Q 43.890625 -1.421875 31.78125 -1.421875 
Q 19.734375 -1.421875 13.203125 4.125 
Q 6.6875 9.671875 6.6875 19.921875 
Q 6.6875 27.6875 11.328125 32.6875 
Q 15.96875 37.703125 24.3125 38.8125 
Q 16.9375 40.140625 13 44.40625 
Q 9.078125 48.6875 9.078125 55.328125 
Q 9.078125 64.109375 15.125 69.15625 
Q 21.1875 74.21875 31.78125 74.21875 
Q 42.390625 74.21875 48.4375 69.15625 
Q 54.5 64.109375 54.5 55.328125 
Q 54.5 48.6875 50.5625 44.40625 
Q 46.625 40.140625 39.3125 38.8125 
z
" id="DejaVuSerif-56"/>
       </defs>
       <use xlink:href="#DejaVuSerif-49"/>
       <use x="63.623047" xlink:href="#DejaVuSerif-56"/>
       <use x="127.246094" xlink:href="#DejaVuSerif-46"/>
       <use x="159.033203" xlink:href="#DejaVuSerif-53"/>
      </g>
     </g>
    </g>
    <g id="ytick_5">
     <g id="line2d_35">
      <g>
       <use style="stroke:#000000;stroke-width:0.8;" x="57.6" xlink:href="#m7d7820be41" y="115.53107"/>
      </g>
     </g>
     <g id="text_18">
      <!-- 19.0 -->
      <g transform="translate(28.334375 119.330289)scale(0.1 -0.1)">
       <use xlink:href="#DejaVuSerif-49"/>
       <use x="63.623047" xlink:href="#DejaVuSerif-57"/>
       <use x="127.246094" xlink:href="#DejaVuSerif-46"/>
       <use x="159.033203" xlink:href="#DejaVuSerif-48"/>
      </g>
     </g>
    </g>
    <g id="text_19">
     <!-- Mag -->
     <g transform="translate(22.1125 107.082134)rotate(-90)scale(0.1 -0.1)">
      <defs>
       <path d="M 5.515625 0 
L 5.515625 5.171875 
L 14.796875 5.171875 
L 14.796875 67.671875 
L 4.984375 67.671875 
L 4.984375 72.90625 
L 26.21875 72.90625 
L 51.8125 21 
L 77.390625 72.90625 
L 97.3125 72.90625 
L 97.3125 67.671875 
L 87.59375 67.671875 
L 87.59375 5.171875 
L 96.921875 5.171875 
L 96.921875 0 
L 68.40625 0 
L 68.40625 5.171875 
L 77.6875 5.171875 
L 77.6875 61.53125 
L 52.6875 10.6875 
L 45.796875 10.6875 
L 20.796875 61.53125 
L 20.796875 5.171875 
L 30.078125 5.171875 
L 30.078125 0 
z
" id="DejaVuSerif-77"/>
      </defs>
      <use xlink:href="#DejaVuSerif-77"/>
      <use x="102.392578" xlink:href="#DejaVuSerif-97"/>
      <use x="162.011719" xlink:href="#DejaVuSerif-103"/>
     </g>
    </g>
   </g>
   <g id="patch_9">
    <path d="M 57.6 150.089143 
L 57.6 41.472 
" style="fill:none;stroke:#000000;stroke-linecap:square;stroke-linejoin:miter;stroke-width:0.8;"/>
   </g>
   <g id="patch_10">
    <path d="M 206.4 150.089143 
L 206.4 41.472 
" style="fill:none;stroke:#000000;stroke-linecap:square;stroke-linejoin:miter;stroke-width:0.8;"/>
   </g>
   <g id="patch_11">
    <path d="M 57.6 150.089143 
L 206.4 150.089143 
" style="fill:none;stroke:#000000;stroke-linecap:square;stroke-linejoin:miter;stroke-width:0.8;"/>
   </g>
   <g id="patch_12">
    <path d="M 57.6 41.472 
L 206.4 41.472 
" style="fill:none;stroke:#000000;stroke-linecap:square;stroke-linejoin:miter;stroke-width:0.8;"/>
   </g>
   <g id="text_20">
    <!-- Folded Light Curve -->
    <g transform="translate(83.086719 35.472)scale(0.1 -0.1)">
     <defs>
      <path d="M 20.515625 5.171875 
L 29 5.171875 
L 29 0 
L 2.875 0 
L 2.875 5.171875 
L 11.53125 5.171875 
L 11.53125 70.796875 
L 2.875 70.796875 
L 2.875 75.984375 
L 20.515625 75.984375 
z
" id="DejaVuSerif-108"/>
      <path d="M 5.515625 0 
L 5.515625 5.171875 
L 14.796875 5.171875 
L 14.796875 67.671875 
L 5.515625 67.671875 
L 5.515625 72.90625 
L 33.984375 72.90625 
L 33.984375 67.671875 
L 24.703125 67.671875 
L 24.703125 6 
L 58.015625 6 
L 58.015625 18.21875 
L 64.015625 18.21875 
L 64.015625 0 
z
" id="DejaVuSerif-76"/>
      <path d="M 10.796875 46.6875 
L 2.875 46.6875 
L 2.875 51.90625 
L 10.796875 51.90625 
L 10.796875 68.015625 
L 19.828125 68.015625 
L 19.828125 51.90625 
L 36.71875 51.90625 
L 36.71875 46.6875 
L 19.828125 46.6875 
L 19.828125 13.71875 
Q 19.828125 7.125 21.09375 5.265625 
Q 22.359375 3.421875 25.78125 3.421875 
Q 29.296875 3.421875 30.90625 5.484375 
Q 32.515625 7.5625 32.625 12.203125 
L 39.40625 12.203125 
Q 39.015625 5.125 35.546875 1.84375 
Q 32.078125 -1.421875 25 -1.421875 
Q 17.234375 -1.421875 14.015625 2.015625 
Q 10.796875 5.46875 10.796875 13.71875 
z
" id="DejaVuSerif-116"/>
      <path d="M 70.515625 19.28125 
Q 67.28125 9.078125 59.6875 3.828125 
Q 52.09375 -1.421875 40.484375 -1.421875 
Q 33.34375 -1.421875 27.234375 1.015625 
Q 21.140625 3.46875 16.40625 8.203125 
Q 10.9375 13.671875 8.265625 20.625 
Q 5.609375 27.59375 5.609375 36.375 
Q 5.609375 53.375 15.421875 63.796875 
Q 25.25 74.21875 41.3125 74.21875 
Q 47.265625 74.21875 54 72.65625 
Q 60.75 71.09375 68.5 67.921875 
L 68.5 51.125 
L 62.984375 51.125 
Q 61.1875 60.296875 55.734375 64.640625 
Q 50.296875 69 40.484375 69 
Q 28.8125 69 22.796875 60.71875 
Q 16.796875 52.4375 16.796875 36.375 
Q 16.796875 20.359375 22.796875 12.078125 
Q 28.8125 3.8125 40.484375 3.8125 
Q 48.640625 3.8125 53.90625 7.6875 
Q 59.1875 11.578125 61.53125 19.28125 
z
" id="DejaVuSerif-67"/>
      <path d="M 35.40625 51.90625 
L 52.203125 51.90625 
L 52.203125 5.171875 
L 60.6875 5.171875 
L 60.6875 0 
L 43.21875 0 
L 43.21875 9.1875 
Q 40.71875 4 36.765625 1.28125 
Q 32.8125 -1.421875 27.59375 -1.421875 
Q 18.953125 -1.421875 14.875 3.484375 
Q 10.796875 8.40625 10.796875 18.890625 
L 10.796875 46.6875 
L 2.6875 46.6875 
L 2.6875 51.90625 
L 19.828125 51.90625 
L 19.828125 21.6875 
Q 19.828125 12.203125 22.140625 8.6875 
Q 24.46875 5.171875 30.421875 5.171875 
Q 36.671875 5.171875 39.9375 9.765625 
Q 43.21875 14.359375 43.21875 23.09375 
L 43.21875 46.6875 
L 35.40625 46.6875 
z
" id="DejaVuSerif-117"/>
      <path d="M 24.703125 0 
L 5.609375 46.6875 
L -0.296875 46.6875 
L -0.296875 51.90625 
L 23.578125 51.90625 
L 23.578125 46.6875 
L 15.28125 46.6875 
L 29.890625 10.984375 
L 44.484375 46.6875 
L 36.71875 46.6875 
L 36.71875 51.90625 
L 56.203125 51.90625 
L 56.203125 46.6875 
L 50.390625 46.6875 
L 31.296875 0 
z
" id="DejaVuSerif-118"/>
     </defs>
     <use xlink:href="#DejaVuSerif-70"/>
     <use x="63.884766" xlink:href="#DejaVuSerif-111"/>
     <use x="124.089844" xlink:href="#DejaVuSerif-108"/>
     <use x="156.072266" xlink:href="#DejaVuSerif-100"/>
     <use x="220.085938" xlink:href="#DejaVuSerif-101"/>
     <use x="279.265625" xlink:href="#DejaVuSerif-100"/>
     <use x="343.279297" xlink:href="#DejaVuSerif-32"/>
     <use x="375.066406" xlink:href="#DejaVuSerif-76"/>
     <use x="441.472656" xlink:href="#DejaVuSerif-105"/>
     <use x="473.455078" xlink:href="#DejaVuSerif-103"/>
     <use x="537.46875" xlink:href="#DejaVuSerif-104"/>
     <use x="601.873047" xlink:href="#DejaVuSerif-116"/>
     <use x="642.058594" xlink:href="#DejaVuSerif-32"/>
     <use x="673.845703" xlink:href="#DejaVuSerif-67"/>
     <use x="750.359375" xlink:href="#DejaVuSerif-117"/>
     <use x="814.763672" xlink:href="#DejaVuSerif-114"/>
     <use x="862.566406" xlink:href="#DejaVuSerif-118"/>
     <use x="919.060547" xlink:href="#DejaVuSerif-101"/>
    </g>
   </g>
  </g>
  <g id="axes_3">
   <g id="patch_13">
    <path d="M 57.6 307.584 
L 414.72 307.584 
L 414.72 198.966857 
L 57.6 198.966857 
z
" style="fill:#ffffff;"/>
   </g>
   <g id="PathCollection_3">
    <g clip-path="url(#p0552dab6cc)">
     <use style="fill:#1f77b4;stroke:#1f77b4;" x="73.832727" xlink:href="#m7eb8485110" y="226.312862"/>
     <use style="fill:#1f77b4;stroke:#1f77b4;" x="73.833119" xlink:href="#m7eb8485110" y="224.488793"/>
     <use style="fill:#1f77b4;stroke:#1f77b4;" x="94.910293" xlink:href="#m7eb8485110" y="241.367825"/>
     <use style="fill:#1f77b4;stroke:#1f77b4;" x="94.910684" xlink:href="#m7eb8485110" y="239.413878"/>
     <use style="fill:#1f77b4;stroke:#1f77b4;" x="96.675449" xlink:href="#m7eb8485110" y="240.387823"/>
     <use style="fill:#1f77b4;stroke:#1f77b4;" x="99.185169" xlink:href="#m7eb8485110" y="228.62075"/>
     <use style="fill:#1f77b4;stroke:#1f77b4;" x="99.18789" xlink:href="#m7eb8485110" y="231.75061"/>
     <use style="fill:#1f77b4;stroke:#1f77b4;" x="121.144305" xlink:href="#m7eb8485110" y="245.545444"/>
     <use style="fill:#1f77b4;stroke:#1f77b4;" x="121.98938" xlink:href="#m7eb8485110" y="276.627328"/>
     <use style="fill:#1f77b4;stroke:#1f77b4;" x="123.69785" xlink:href="#m7eb8485110" y="213.625928"/>
     <use style="fill:#1f77b4;stroke:#1f77b4;" x="123.698242" xlink:href="#m7eb8485110" y="219.752623"/>
     <use style="fill:#1f77b4;stroke:#1f77b4;" x="125.362202" xlink:href="#m7eb8485110" y="217.321707"/>
     <use style="fill:#1f77b4;stroke:#1f77b4;" x="125.362594" xlink:href="#m7eb8485110" y="213.849743"/>
     <use style="fill:#1f77b4;stroke:#1f77b4;" x="126.199487" xlink:href="#m7eb8485110" y="241.610584"/>
     <use style="fill:#1f77b4;stroke:#1f77b4;" x="126.199878" xlink:href="#m7eb8485110" y="240.582168"/>
     <use style="fill:#1f77b4;stroke:#1f77b4;" x="127.090237" xlink:href="#m7eb8485110" y="215.229603"/>
     <use style="fill:#1f77b4;stroke:#1f77b4;" x="127.090618" xlink:href="#m7eb8485110" y="212.60119"/>
     <use style="fill:#1f77b4;stroke:#1f77b4;" x="127.899364" xlink:href="#m7eb8485110" y="209.064753"/>
     <use style="fill:#1f77b4;stroke:#1f77b4;" x="127.899756" xlink:href="#m7eb8485110" y="206.044897"/>
     <use style="fill:#1f77b4;stroke:#1f77b4;" x="128.744146" xlink:href="#m7eb8485110" y="214.095137"/>
     <use style="fill:#1f77b4;stroke:#1f77b4;" x="128.744527" xlink:href="#m7eb8485110" y="214.689478"/>
     <use style="fill:#1f77b4;stroke:#1f77b4;" x="136.360585" xlink:href="#m7eb8485110" y="218.065255"/>
     <use style="fill:#1f77b4;stroke:#1f77b4;" x="142.231315" xlink:href="#m7eb8485110" y="227.79602"/>
     <use style="fill:#1f77b4;stroke:#1f77b4;" x="143.073052" xlink:href="#m7eb8485110" y="227.174175"/>
     <use style="fill:#1f77b4;stroke:#1f77b4;" x="143.918832" xlink:href="#m7eb8485110" y="297.719899"/>
     <use style="fill:#1f77b4;stroke:#1f77b4;" x="144.76286" xlink:href="#m7eb8485110" y="266.184465"/>
     <use style="fill:#1f77b4;stroke:#1f77b4;" x="145.612006" xlink:href="#m7eb8485110" y="255.070019"/>
     <use style="fill:#1f77b4;stroke:#1f77b4;" x="155.771705" xlink:href="#m7eb8485110" y="241.375717"/>
     <use style="fill:#1f77b4;stroke:#1f77b4;" x="163.21203" xlink:href="#m7eb8485110" y="219.516439"/>
     <use style="fill:#1f77b4;stroke:#1f77b4;" x="164.180987" xlink:href="#m7eb8485110" y="211.220405"/>
     <use style="fill:#1f77b4;stroke:#1f77b4;" x="165.042171" xlink:href="#m7eb8485110" y="244.172813"/>
     <use style="fill:#1f77b4;stroke:#1f77b4;" x="170.943837" xlink:href="#m7eb8485110" y="229.357463"/>
     <use style="fill:#1f77b4;stroke:#1f77b4;" x="173.496775" xlink:href="#m7eb8485110" y="237.744805"/>
     <use style="fill:#1f77b4;stroke:#1f77b4;" x="207.146958" xlink:href="#m7eb8485110" y="261.036979"/>
     <use style="fill:#1f77b4;stroke:#1f77b4;" x="210.529274" xlink:href="#m7eb8485110" y="241.763482"/>
     <use style="fill:#1f77b4;stroke:#1f77b4;" x="218.978819" xlink:href="#m7eb8485110" y="288.900979"/>
     <use style="fill:#1f77b4;stroke:#1f77b4;" x="346.082599" xlink:href="#m7eb8485110" y="235.919943"/>
     <use style="fill:#1f77b4;stroke:#1f77b4;" x="379.139631" xlink:href="#m7eb8485110" y="215.494603"/>
     <use style="fill:#1f77b4;stroke:#1f77b4;" x="396.853779" xlink:href="#m7eb8485110" y="268.311827"/>
     <use style="fill:#1f77b4;stroke:#1f77b4;" x="396.854161" xlink:href="#m7eb8485110" y="265.453148"/>
     <use style="fill:#1f77b4;stroke:#1f77b4;" x="397.677773" xlink:href="#m7eb8485110" y="239.146775"/>
     <use style="fill:#1f77b4;stroke:#1f77b4;" x="397.678155" xlink:href="#m7eb8485110" y="241.655714"/>
     <use style="fill:#1f77b4;stroke:#1f77b4;" x="398.486891" xlink:href="#m7eb8485110" y="239.543881"/>
     <use style="fill:#1f77b4;stroke:#1f77b4;" x="398.487273" xlink:href="#m7eb8485110" y="240.204275"/>
    </g>
   </g>
   <g id="matplotlib.axis_5">
    <g id="xtick_26">
     <g id="line2d_36">
      <g>
       <use style="stroke:#000000;stroke-width:0.8;" x="97.996351" xlink:href="#m560262f156" y="307.584"/>
      </g>
     </g>
     <g id="text_21">
      <!-- 58300 -->
      <g transform="translate(82.090101 322.182437)scale(0.1 -0.1)">
       <defs>
        <path d="M 9.71875 69.828125 
Q 15.4375 71.96875 20.671875 73.09375 
Q 25.921875 74.21875 30.515625 74.21875 
Q 41.21875 74.21875 47.21875 69.59375 
Q 53.21875 64.984375 53.21875 56.78125 
Q 53.21875 50.203125 49.0625 45.78125 
Q 44.921875 41.359375 37.3125 39.796875 
Q 46.296875 38.53125 51.25 33.28125 
Q 56.203125 28.03125 56.203125 19.671875 
Q 56.203125 9.46875 49.34375 4.015625 
Q 42.484375 -1.421875 29.59375 -1.421875 
Q 23.875 -1.421875 18.421875 -0.1875 
Q 12.984375 1.03125 7.625 3.515625 
L 7.625 17.671875 
L 13.09375 17.671875 
Q 13.578125 10.640625 17.828125 7.03125 
Q 22.078125 3.421875 29.78125 3.421875 
Q 37.25 3.421875 41.578125 7.734375 
Q 45.90625 12.0625 45.90625 19.578125 
Q 45.90625 28.171875 41.453125 32.59375 
Q 37.015625 37.015625 28.421875 37.015625 
L 23.78125 37.015625 
L 23.78125 42 
L 26.21875 42 
Q 34.765625 42 39.03125 45.53125 
Q 43.3125 49.078125 43.3125 56.203125 
Q 43.3125 62.59375 39.796875 65.984375 
Q 36.28125 69.390625 29.6875 69.390625 
Q 23.09375 69.390625 19.453125 66.265625 
Q 15.828125 63.140625 15.1875 56.984375 
L 9.71875 56.984375 
z
" id="DejaVuSerif-51"/>
       </defs>
       <use xlink:href="#DejaVuSerif-53"/>
       <use x="63.623047" xlink:href="#DejaVuSerif-56"/>
       <use x="127.246094" xlink:href="#DejaVuSerif-51"/>
       <use x="190.869141" xlink:href="#DejaVuSerif-48"/>
       <use x="254.492188" xlink:href="#DejaVuSerif-48"/>
      </g>
     </g>
    </g>
    <g id="xtick_27">
     <g id="line2d_37">
      <g>
       <use style="stroke:#000000;stroke-width:0.8;" x="140.27554" xlink:href="#m560262f156" y="307.584"/>
      </g>
     </g>
     <g id="text_22">
      <!-- 58350 -->
      <g transform="translate(124.36929 322.182437)scale(0.1 -0.1)">
       <use xlink:href="#DejaVuSerif-53"/>
       <use x="63.623047" xlink:href="#DejaVuSerif-56"/>
       <use x="127.246094" xlink:href="#DejaVuSerif-51"/>
       <use x="190.869141" xlink:href="#DejaVuSerif-53"/>
       <use x="254.492188" xlink:href="#DejaVuSerif-48"/>
      </g>
     </g>
    </g>
    <g id="xtick_28">
     <g id="line2d_38">
      <g>
       <use style="stroke:#000000;stroke-width:0.8;" x="182.55473" xlink:href="#m560262f156" y="307.584"/>
      </g>
     </g>
     <g id="text_23">
      <!-- 58400 -->
      <g transform="translate(166.64848 322.182437)scale(0.1 -0.1)">
       <use xlink:href="#DejaVuSerif-53"/>
       <use x="63.623047" xlink:href="#DejaVuSerif-56"/>
       <use x="127.246094" xlink:href="#DejaVuSerif-52"/>
       <use x="190.869141" xlink:href="#DejaVuSerif-48"/>
       <use x="254.492188" xlink:href="#DejaVuSerif-48"/>
      </g>
     </g>
    </g>
    <g id="xtick_29">
     <g id="line2d_39">
      <g>
       <use style="stroke:#000000;stroke-width:0.8;" x="224.833919" xlink:href="#m560262f156" y="307.584"/>
      </g>
     </g>
     <g id="text_24">
      <!-- 58450 -->
      <g transform="translate(208.927669 322.182437)scale(0.1 -0.1)">
       <use xlink:href="#DejaVuSerif-53"/>
       <use x="63.623047" xlink:href="#DejaVuSerif-56"/>
       <use x="127.246094" xlink:href="#DejaVuSerif-52"/>
       <use x="190.869141" xlink:href="#DejaVuSerif-53"/>
       <use x="254.492188" xlink:href="#DejaVuSerif-48"/>
      </g>
     </g>
    </g>
    <g id="xtick_30">
     <g id="line2d_40">
      <g>
       <use style="stroke:#000000;stroke-width:0.8;" x="267.113108" xlink:href="#m560262f156" y="307.584"/>
      </g>
     </g>
     <g id="text_25">
      <!-- 58500 -->
      <g transform="translate(251.206858 322.182437)scale(0.1 -0.1)">
       <use xlink:href="#DejaVuSerif-53"/>
       <use x="63.623047" xlink:href="#DejaVuSerif-56"/>
       <use x="127.246094" xlink:href="#DejaVuSerif-53"/>
       <use x="190.869141" xlink:href="#DejaVuSerif-48"/>
       <use x="254.492188" xlink:href="#DejaVuSerif-48"/>
      </g>
     </g>
    </g>
    <g id="xtick_31">
     <g id="line2d_41">
      <g>
       <use style="stroke:#000000;stroke-width:0.8;" x="309.392298" xlink:href="#m560262f156" y="307.584"/>
      </g>
     </g>
     <g id="text_26">
      <!-- 58550 -->
      <g transform="translate(293.486048 322.182437)scale(0.1 -0.1)">
       <use xlink:href="#DejaVuSerif-53"/>
       <use x="63.623047" xlink:href="#DejaVuSerif-56"/>
       <use x="127.246094" xlink:href="#DejaVuSerif-53"/>
       <use x="190.869141" xlink:href="#DejaVuSerif-53"/>
       <use x="254.492188" xlink:href="#DejaVuSerif-48"/>
      </g>
     </g>
    </g>
    <g id="xtick_32">
     <g id="line2d_42">
      <g>
       <use style="stroke:#000000;stroke-width:0.8;" x="351.671487" xlink:href="#m560262f156" y="307.584"/>
      </g>
     </g>
     <g id="text_27">
      <!-- 58600 -->
      <g transform="translate(335.765237 322.182437)scale(0.1 -0.1)">
       <defs>
        <path d="M 32.71875 3.421875 
Q 39.59375 3.421875 43.296875 8.46875 
Q 47.015625 13.53125 47.015625 23 
Q 47.015625 32.46875 43.296875 37.515625 
Q 39.59375 42.578125 32.71875 42.578125 
Q 25.734375 42.578125 22.0625 37.6875 
Q 18.40625 32.8125 18.40625 23.578125 
Q 18.40625 13.875 22.109375 8.640625 
Q 25.828125 3.421875 32.71875 3.421875 
z
M 16.796875 40.140625 
Q 20.125 43.796875 24.3125 45.59375 
Q 28.515625 47.40625 33.796875 47.40625 
Q 44.671875 47.40625 51 40.859375 
Q 57.328125 34.328125 57.328125 23 
Q 57.328125 11.921875 50.515625 5.25 
Q 43.703125 -1.421875 32.328125 -1.421875 
Q 19.96875 -1.421875 13.328125 7.78125 
Q 6.6875 17 6.6875 34.078125 
Q 6.6875 53.21875 14.546875 63.71875 
Q 22.40625 74.21875 36.71875 74.21875 
Q 40.578125 74.21875 44.828125 73.484375 
Q 49.078125 72.75 53.515625 71.296875 
L 53.515625 59.28125 
L 48 59.28125 
Q 47.40625 64.203125 44.234375 66.796875 
Q 41.0625 69.390625 35.6875 69.390625 
Q 26.21875 69.390625 21.578125 62.203125 
Q 16.9375 55.03125 16.796875 40.140625 
z
" id="DejaVuSerif-54"/>
       </defs>
       <use xlink:href="#DejaVuSerif-53"/>
       <use x="63.623047" xlink:href="#DejaVuSerif-56"/>
       <use x="127.246094" xlink:href="#DejaVuSerif-54"/>
       <use x="190.869141" xlink:href="#DejaVuSerif-48"/>
       <use x="254.492188" xlink:href="#DejaVuSerif-48"/>
      </g>
     </g>
    </g>
    <g id="xtick_33">
     <g id="line2d_43">
      <g>
       <use style="stroke:#000000;stroke-width:0.8;" x="393.950677" xlink:href="#m560262f156" y="307.584"/>
      </g>
     </g>
     <g id="text_28">
      <!-- 58650 -->
      <g transform="translate(378.044427 322.182437)scale(0.1 -0.1)">
       <use xlink:href="#DejaVuSerif-53"/>
       <use x="63.623047" xlink:href="#DejaVuSerif-56"/>
       <use x="127.246094" xlink:href="#DejaVuSerif-54"/>
       <use x="190.869141" xlink:href="#DejaVuSerif-53"/>
       <use x="254.492188" xlink:href="#DejaVuSerif-48"/>
      </g>
     </g>
    </g>
    <g id="text_29">
     <!-- MJD -->
     <g transform="translate(225.027187 335.860562)scale(0.1 -0.1)">
      <defs>
       <path d="M -8.40625 -17.484375 
L -8.40625 -6 
L -2.828125 -6 
Q -2.6875 -10.84375 -0.53125 -13.203125 
Q 1.609375 -15.578125 5.90625 -15.578125 
Q 11.71875 -15.578125 14.015625 -11.90625 
Q 16.3125 -8.25 16.3125 2.390625 
L 16.3125 67.671875 
L 4.984375 67.671875 
L 4.984375 72.90625 
L 35.5 72.90625 
L 35.5 67.671875 
L 26.21875 67.671875 
L 26.21875 2 
Q 26.21875 -10.0625 21.375 -15.421875 
Q 16.546875 -20.796875 5.8125 -20.796875 
Q 2.34375 -20.796875 -1.234375 -19.96875 
Q -4.828125 -19.140625 -8.40625 -17.484375 
z
" id="DejaVuSerif-74"/>
       <path d="M 24.703125 5.171875 
L 33.796875 5.171875 
Q 48 5.171875 55.59375 13.28125 
Q 63.1875 21.390625 63.1875 36.53125 
Q 63.1875 51.65625 55.609375 59.65625 
Q 48.046875 67.671875 33.796875 67.671875 
L 24.703125 67.671875 
z
M 5.515625 0 
L 5.515625 5.171875 
L 14.796875 5.171875 
L 14.796875 67.671875 
L 5.515625 67.671875 
L 5.515625 72.90625 
L 34.515625 72.90625 
Q 53.375 72.90625 63.890625 63.28125 
Q 74.421875 53.65625 74.421875 36.53125 
Q 74.421875 19.34375 63.875 9.671875 
Q 53.328125 0 34.515625 0 
z
" id="DejaVuSerif-68"/>
      </defs>
      <use xlink:href="#DejaVuSerif-77"/>
      <use x="102.392578" xlink:href="#DejaVuSerif-74"/>
      <use x="142.480469" xlink:href="#DejaVuSerif-68"/>
     </g>
    </g>
   </g>
   <g id="matplotlib.axis_6">
    <g id="ytick_6">
     <g id="line2d_44">
      <g>
       <use style="stroke:#000000;stroke-width:0.8;" x="57.6" xlink:href="#m7d7820be41" y="201.23412"/>
      </g>
     </g>
     <g id="text_30">
      <!-- 18.0 -->
      <g transform="translate(28.334375 205.033338)scale(0.1 -0.1)">
       <use xlink:href="#DejaVuSerif-49"/>
       <use x="63.623047" xlink:href="#DejaVuSerif-56"/>
       <use x="127.246094" xlink:href="#DejaVuSerif-46"/>
       <use x="159.033203" xlink:href="#DejaVuSerif-48"/>
      </g>
     </g>
    </g>
    <g id="ytick_7">
     <g id="line2d_45">
      <g>
       <use style="stroke:#000000;stroke-width:0.8;" x="57.6" xlink:href="#m7d7820be41" y="235.726654"/>
      </g>
     </g>
     <g id="text_31">
      <!-- 18.5 -->
      <g transform="translate(28.334375 239.525873)scale(0.1 -0.1)">
       <use xlink:href="#DejaVuSerif-49"/>
       <use x="63.623047" xlink:href="#DejaVuSerif-56"/>
       <use x="127.246094" xlink:href="#DejaVuSerif-46"/>
       <use x="159.033203" xlink:href="#DejaVuSerif-53"/>
      </g>
     </g>
    </g>
    <g id="ytick_8">
     <g id="line2d_46">
      <g>
       <use style="stroke:#000000;stroke-width:0.8;" x="57.6" xlink:href="#m7d7820be41" y="270.219188"/>
      </g>
     </g>
     <g id="text_32">
      <!-- 19.0 -->
      <g transform="translate(28.334375 274.018407)scale(0.1 -0.1)">
       <use xlink:href="#DejaVuSerif-49"/>
       <use x="63.623047" xlink:href="#DejaVuSerif-57"/>
       <use x="127.246094" xlink:href="#DejaVuSerif-46"/>
       <use x="159.033203" xlink:href="#DejaVuSerif-48"/>
      </g>
     </g>
    </g>
    <g id="ytick_9">
     <g id="line2d_47">
      <g>
       <use style="stroke:#000000;stroke-width:0.8;" x="57.6" xlink:href="#m7d7820be41" y="304.711722"/>
      </g>
     </g>
     <g id="text_33">
      <!-- 19.5 -->
      <g transform="translate(28.334375 308.510941)scale(0.1 -0.1)">
       <use xlink:href="#DejaVuSerif-49"/>
       <use x="63.623047" xlink:href="#DejaVuSerif-57"/>
       <use x="127.246094" xlink:href="#DejaVuSerif-46"/>
       <use x="159.033203" xlink:href="#DejaVuSerif-53"/>
      </g>
     </g>
    </g>
    <g id="text_34">
     <!-- Mag -->
     <g transform="translate(22.1125 264.576991)rotate(-90)scale(0.1 -0.1)">
      <use xlink:href="#DejaVuSerif-77"/>
      <use x="102.392578" xlink:href="#DejaVuSerif-97"/>
      <use x="162.011719" xlink:href="#DejaVuSerif-103"/>
     </g>
    </g>
   </g>
   <g id="LineCollection_5">
    <path clip-path="url(#p0552dab6cc)" d="M 73.832727 223.800712 
L 73.832727 228.825012 
" style="fill:none;stroke:#1f77b4;stroke-width:0.5;"/>
    <path clip-path="url(#p0552dab6cc)" d="M 73.833119 222.014356 
L 73.833119 226.96323 
" style="fill:none;stroke:#1f77b4;stroke-width:0.5;"/>
    <path clip-path="url(#p0552dab6cc)" d="M 94.910293 238.50735 
L 94.910293 244.2283 
" style="fill:none;stroke:#1f77b4;stroke-width:0.5;"/>
    <path clip-path="url(#p0552dab6cc)" d="M 94.910684 236.602555 
L 94.910684 242.225201 
" style="fill:none;stroke:#1f77b4;stroke-width:0.5;"/>
    <path clip-path="url(#p0552dab6cc)" d="M 96.675449 237.552155 
L 96.675449 243.223491 
" style="fill:none;stroke:#1f77b4;stroke-width:0.5;"/>
    <path clip-path="url(#p0552dab6cc)" d="M 99.185169 226.059561 
L 99.185169 231.18194 
" style="fill:none;stroke:#1f77b4;stroke-width:0.5;"/>
    <path clip-path="url(#p0552dab6cc)" d="M 99.18789 229.120482 
L 99.18789 234.380737 
" style="fill:none;stroke:#1f77b4;stroke-width:0.5;"/>
    <path clip-path="url(#p0552dab6cc)" d="M 121.144305 242.575652 
L 121.144305 248.515235 
" style="fill:none;stroke:#1f77b4;stroke-width:0.5;"/>
    <path clip-path="url(#p0552dab6cc)" d="M 121.98938 272.638359 
L 121.98938 280.616297 
" style="fill:none;stroke:#1f77b4;stroke-width:0.5;"/>
    <path clip-path="url(#p0552dab6cc)" d="M 123.69785 211.357958 
L 123.69785 215.893899 
" style="fill:none;stroke:#1f77b4;stroke-width:0.5;"/>
    <path clip-path="url(#p0552dab6cc)" d="M 123.698242 217.371924 
L 123.698242 222.133322 
" style="fill:none;stroke:#1f77b4;stroke-width:0.5;"/>
    <path clip-path="url(#p0552dab6cc)" d="M 125.362202 214.986855 
L 125.362202 219.656558 
" style="fill:none;stroke:#1f77b4;stroke-width:0.5;"/>
    <path clip-path="url(#p0552dab6cc)" d="M 125.362594 211.577817 
L 125.362594 216.12167 
" style="fill:none;stroke:#1f77b4;stroke-width:0.5;"/>
    <path clip-path="url(#p0552dab6cc)" d="M 126.199487 238.743915 
L 126.199487 244.477252 
" style="fill:none;stroke:#1f77b4;stroke-width:0.5;"/>
    <path clip-path="url(#p0552dab6cc)" d="M 126.199878 237.741606 
L 126.199878 243.42273 
" style="fill:none;stroke:#1f77b4;stroke-width:0.5;"/>
    <path clip-path="url(#p0552dab6cc)" d="M 127.090237 212.933023 
L 127.090237 217.526184 
" style="fill:none;stroke:#1f77b4;stroke-width:0.5;"/>
    <path clip-path="url(#p0552dab6cc)" d="M 127.090618 210.351175 
L 127.090618 214.851204 
" style="fill:none;stroke:#1f77b4;stroke-width:0.5;"/>
    <path clip-path="url(#p0552dab6cc)" d="M 127.899364 206.874815 
L 127.899364 211.25469 
" style="fill:none;stroke:#1f77b4;stroke-width:0.5;"/>
    <path clip-path="url(#p0552dab6cc)" d="M 127.899756 203.904 
L 127.899756 208.185794 
" style="fill:none;stroke:#1f77b4;stroke-width:0.5;"/>
    <path clip-path="url(#p0552dab6cc)" d="M 128.744146 211.818859 
L 128.744146 216.371415 
" style="fill:none;stroke:#1f77b4;stroke-width:0.5;"/>
    <path clip-path="url(#p0552dab6cc)" d="M 128.744527 212.402603 
L 128.744527 216.976353 
" style="fill:none;stroke:#1f77b4;stroke-width:0.5;"/>
    <path clip-path="url(#p0552dab6cc)" d="M 136.360585 215.716539 
L 136.360585 220.413972 
" style="fill:none;stroke:#1f77b4;stroke-width:0.5;"/>
    <path clip-path="url(#p0552dab6cc)" d="M 142.231315 225.252528 
L 142.231315 230.339513 
" style="fill:none;stroke:#1f77b4;stroke-width:0.5;"/>
    <path clip-path="url(#p0552dab6cc)" d="M 143.073052 224.643898 
L 143.073052 229.704452 
" style="fill:none;stroke:#1f77b4;stroke-width:0.5;"/>
    <path clip-path="url(#p0552dab6cc)" d="M 143.918832 292.792942 
L 143.918832 302.646857 
" style="fill:none;stroke:#1f77b4;stroke-width:0.5;"/>
    <path clip-path="url(#p0552dab6cc)" d="M 144.76286 262.581784 
L 144.76286 269.787147 
" style="fill:none;stroke:#1f77b4;stroke-width:0.5;"/>
    <path clip-path="url(#p0552dab6cc)" d="M 145.612006 251.828242 
L 145.612006 258.311795 
" style="fill:none;stroke:#1f77b4;stroke-width:0.5;"/>
    <path clip-path="url(#p0552dab6cc)" d="M 155.771705 238.515041 
L 155.771705 244.236393 
" style="fill:none;stroke:#1f77b4;stroke-width:0.5;"/>
    <path clip-path="url(#p0552dab6cc)" d="M 163.21203 217.14026 
L 163.21203 221.892618 
" style="fill:none;stroke:#1f77b4;stroke-width:0.5;"/>
    <path clip-path="url(#p0552dab6cc)" d="M 164.180987 208.994194 
L 164.180987 213.446616 
" style="fill:none;stroke:#1f77b4;stroke-width:0.5;"/>
    <path clip-path="url(#p0552dab6cc)" d="M 165.042171 241.239585 
L 165.042171 247.106041 
" style="fill:none;stroke:#1f77b4;stroke-width:0.5;"/>
    <path clip-path="url(#p0552dab6cc)" d="M 170.943837 226.780301 
L 170.943837 231.934624 
" style="fill:none;stroke:#1f77b4;stroke-width:0.5;"/>
    <path clip-path="url(#p0552dab6cc)" d="M 173.496775 234.974498 
L 173.496775 240.515113 
" style="fill:none;stroke:#1f77b4;stroke-width:0.5;"/>
    <path clip-path="url(#p0552dab6cc)" d="M 207.146958 257.607574 
L 207.146958 264.466384 
" style="fill:none;stroke:#1f77b4;stroke-width:0.5;"/>
    <path clip-path="url(#p0552dab6cc)" d="M 210.529274 238.892903 
L 210.529274 244.634061 
" style="fill:none;stroke:#1f77b4;stroke-width:0.5;"/>
    <path clip-path="url(#p0552dab6cc)" d="M 218.978819 284.393427 
L 218.978819 293.408531 
" style="fill:none;stroke:#1f77b4;stroke-width:0.5;"/>
    <path clip-path="url(#p0552dab6cc)" d="M 346.082599 233.193478 
L 346.082599 238.646409 
" style="fill:none;stroke:#1f77b4;stroke-width:0.5;"/>
    <path clip-path="url(#p0552dab6cc)" d="M 379.139631 213.193233 
L 379.139631 217.795972 
" style="fill:none;stroke:#1f77b4;stroke-width:0.5;"/>
    <path clip-path="url(#p0552dab6cc)" d="M 396.853779 264.634313 
L 396.853779 271.989341 
" style="fill:none;stroke:#1f77b4;stroke-width:0.5;"/>
    <path clip-path="url(#p0552dab6cc)" d="M 396.854161 261.87575 
L 396.854161 269.030545 
" style="fill:none;stroke:#1f77b4;stroke-width:0.5;"/>
    <path clip-path="url(#p0552dab6cc)" d="M 397.677773 236.342075 
L 397.677773 241.951475 
" style="fill:none;stroke:#1f77b4;stroke-width:0.5;"/>
    <path clip-path="url(#p0552dab6cc)" d="M 397.678155 238.787891 
L 397.678155 244.523536 
" style="fill:none;stroke:#1f77b4;stroke-width:0.5;"/>
    <path clip-path="url(#p0552dab6cc)" d="M 398.486891 236.729325 
L 398.486891 242.358436 
" style="fill:none;stroke:#1f77b4;stroke-width:0.5;"/>
    <path clip-path="url(#p0552dab6cc)" d="M 398.487273 237.373218 
L 398.487273 243.035331 
" style="fill:none;stroke:#1f77b4;stroke-width:0.5;"/>
   </g>
   <g id="line2d_48">
    <path clip-path="url(#p0552dab6cc)" d="M 73.832727 226.312862 
L 73.833119 224.488793 
L 94.910293 241.367825 
L 94.910684 239.413878 
L 96.675449 240.387823 
L 99.185169 228.62075 
L 99.18789 231.75061 
L 121.144305 245.545444 
L 121.98938 276.627328 
L 123.69785 213.625928 
L 123.698242 219.752623 
L 125.362202 217.321707 
L 125.362594 213.849743 
L 126.199487 241.610584 
L 126.199878 240.582168 
L 127.090237 215.229603 
L 127.090618 212.60119 
L 127.899364 209.064753 
L 127.899756 206.044897 
L 128.744146 214.095137 
L 128.744527 214.689478 
L 136.360585 218.065255 
L 142.231315 227.79602 
L 143.073052 227.174175 
L 143.918832 297.719899 
L 144.76286 266.184465 
L 145.612006 255.070019 
L 155.771705 241.375717 
L 163.21203 219.516439 
L 164.180987 211.220405 
L 165.042171 244.172813 
L 170.943837 229.357463 
L 173.496775 237.744805 
L 207.146958 261.036979 
L 210.529274 241.763482 
L 218.978819 288.900979 
L 346.082599 235.919943 
L 379.139631 215.494603 
L 396.853779 268.311827 
L 396.854161 265.453148 
L 397.677773 239.146775 
L 397.678155 241.655714 
L 398.486891 239.543881 
L 398.487273 240.204275 
" style="fill:none;"/>
   </g>
   <g id="patch_14">
    <path d="M 57.6 307.584 
L 57.6 198.966857 
" style="fill:none;stroke:#000000;stroke-linecap:square;stroke-linejoin:miter;stroke-width:0.8;"/>
   </g>
   <g id="patch_15">
    <path d="M 414.72 307.584 
L 414.72 198.966857 
" style="fill:none;stroke:#000000;stroke-linecap:square;stroke-linejoin:miter;stroke-width:0.8;"/>
   </g>
   <g id="patch_16">
    <path d="M 57.6 307.584 
L 414.72 307.584 
" style="fill:none;stroke:#000000;stroke-linecap:square;stroke-linejoin:miter;stroke-width:0.8;"/>
   </g>
   <g id="patch_17">
    <path d="M 57.6 198.966857 
L 414.72 198.966857 
" style="fill:none;stroke:#000000;stroke-linecap:square;stroke-linejoin:miter;stroke-width:0.8;"/>
   </g>
   <g id="text_35">
    <!-- Light Curve -->
    <g transform="translate(206.000625 192.966857)scale(0.1 -0.1)">
     <use xlink:href="#DejaVuSerif-76"/>
     <use x="66.40625" xlink:href="#DejaVuSerif-105"/>
     <use x="98.388672" xlink:href="#DejaVuSerif-103"/>
     <use x="162.402344" xlink:href="#DejaVuSerif-104"/>
     <use x="226.806641" xlink:href="#DejaVuSerif-116"/>
     <use x="266.992188" xlink:href="#DejaVuSerif-32"/>
     <use x="298.779297" xlink:href="#DejaVuSerif-67"/>
     <use x="375.292969" xlink:href="#DejaVuSerif-117"/>
     <use x="439.697266" xlink:href="#DejaVuSerif-114"/>
     <use x="487.5" xlink:href="#DejaVuSerif-118"/>
     <use x="543.994141" xlink:href="#DejaVuSerif-101"/>
    </g>
   </g>
  </g>
 </g>
 <defs>
  <clipPath id="pad41d3bfad">
   <rect height="108.617143" width="148.8" x="265.92" y="41.472"/>
  </clipPath>
  <clipPath id="p01e34f5e79">
   <rect height="108.617143" width="148.8" x="57.6" y="41.472"/>
  </clipPath>
  <clipPath id="p0552dab6cc">
   <rect height="108.617143" width="357.12" x="57.6" y="198.966857"/>
  </clipPath>
 </defs>
</svg>
