<?xml version="1.0" encoding="utf-8" standalone="no"?>
<!DOCTYPE svg PUBLIC "-//W3C//DTD SVG 1.1//EN"
  "http://www.w3.org/Graphics/SVG/1.1/DTD/svg11.dtd">
<!-- Created with matplotlib (https://matplotlib.org/) -->
<svg height="345.6pt" version="1.1" viewBox="0 0 460.8 345.6" width="460.8pt" xmlns="http://www.w3.org/2000/svg" xmlns:xlink="http://www.w3.org/1999/xlink">
 <metadata>
  <rdf:RDF xmlns:cc="http://creativecommons.org/ns#" xmlns:dc="http://purl.org/dc/elements/1.1/" xmlns:rdf="http://www.w3.org/1999/02/22-rdf-syntax-ns#">
   <cc:Work>
    <dc:type rdf:resource="http://purl.org/dc/dcmitype/StillImage"/>
    <dc:date>2021-02-16T16:32:26.038284</dc:date>
    <dc:format>image/svg+xml</dc:format>
    <dc:creator>
     <cc:Agent>
      <dc:title>Matplotlib v3.3.3, https://matplotlib.org/</dc:title>
     </cc:Agent>
    </dc:creator>
   </cc:Work>
  </rdf:RDF>
 </metadata>
 <defs>
  <style type="text/css">*{stroke-linecap:butt;stroke-linejoin:round;}</style>
 </defs>
 <g id="figure_1">
  <g id="patch_1">
   <path d="M 0 345.6 
L 460.8 345.6 
L 460.8 0 
L 0 0 
z
" style="fill:#ffffff;"/>
  </g>
  <g id="axes_1">
   <g id="patch_2">
    <path d="M 265.92 150.089143 
L 414.72 150.089143 
L 414.72 41.472 
L 265.92 41.472 
z
" style="fill:#ffffff;"/>
   </g>
   <g id="matplotlib.axis_1">
    <g id="xtick_1">
     <g id="line2d_1">
      <defs>
       <path d="M 0 0 
L 0 3.5 
" id="mf929fec9bf" style="stroke:#000000;stroke-width:0.8;"/>
      </defs>
      <g>
       <use style="stroke:#000000;stroke-width:0.8;" x="315.519224" xlink:href="#mf929fec9bf" y="150.089143"/>
      </g>
     </g>
     <g id="text_1">
      <!-- $\mathdefault{10^{1}}$ -->
      <g transform="translate(306.719224 164.68758)scale(0.1 -0.1)">
       <defs>
        <path d="M 14.203125 0 
L 14.203125 5.171875 
L 26.90625 5.171875 
L 26.90625 65.828125 
L 12.203125 56.296875 
L 12.203125 62.703125 
L 29.984375 74.21875 
L 36.71875 74.21875 
L 36.71875 5.171875 
L 49.421875 5.171875 
L 49.421875 0 
z
" id="DejaVuSerif-49"/>
        <path d="M 31.78125 3.421875 
Q 39.265625 3.421875 42.96875 11.625 
Q 46.6875 19.828125 46.6875 36.375 
Q 46.6875 52.984375 42.96875 61.1875 
Q 39.265625 69.390625 31.78125 69.390625 
Q 24.3125 69.390625 20.59375 61.1875 
Q 16.890625 52.984375 16.890625 36.375 
Q 16.890625 19.828125 20.59375 11.625 
Q 24.3125 3.421875 31.78125 3.421875 
z
M 31.78125 -1.421875 
Q 19.921875 -1.421875 13.25 8.53125 
Q 6.59375 18.5 6.59375 36.375 
Q 6.59375 54.296875 13.25 64.25 
Q 19.921875 74.21875 31.78125 74.21875 
Q 43.703125 74.21875 50.34375 64.25 
Q 56.984375 54.296875 56.984375 36.375 
Q 56.984375 18.5 50.34375 8.53125 
Q 43.703125 -1.421875 31.78125 -1.421875 
z
" id="DejaVuSerif-48"/>
       </defs>
       <use transform="translate(0 0.7125)" xlink:href="#DejaVuSerif-49"/>
       <use transform="translate(63.623047 0.7125)" xlink:href="#DejaVuSerif-48"/>
       <use transform="translate(128.154453 37.046875)scale(0.7)" xlink:href="#DejaVuSerif-49"/>
      </g>
     </g>
    </g>
    <g id="xtick_2">
     <g id="line2d_2">
      <g>
       <use style="stroke:#000000;stroke-width:0.8;" x="373.218149" xlink:href="#mf929fec9bf" y="150.089143"/>
      </g>
     </g>
     <g id="text_2">
      <!-- $\mathdefault{10^{2}}$ -->
      <g transform="translate(364.418149 164.68758)scale(0.1 -0.1)">
       <defs>
        <path d="M 12.796875 55.515625 
L 7.328125 55.515625 
L 7.328125 68.5 
Q 12.546875 71.296875 17.84375 72.75 
Q 23.140625 74.21875 28.21875 74.21875 
Q 39.59375 74.21875 46.1875 68.703125 
Q 52.78125 63.1875 52.78125 53.71875 
Q 52.78125 43.015625 37.84375 28.125 
Q 36.671875 27 36.078125 26.421875 
L 17.671875 8.015625 
L 48.09375 8.015625 
L 48.09375 17 
L 53.8125 17 
L 53.8125 0 
L 6.78125 0 
L 6.78125 5.328125 
L 28.90625 27.390625 
Q 36.234375 34.71875 39.359375 40.84375 
Q 42.484375 46.96875 42.484375 53.71875 
Q 42.484375 61.078125 38.640625 65.234375 
Q 34.8125 69.390625 28.078125 69.390625 
Q 21.09375 69.390625 17.28125 65.921875 
Q 13.484375 62.453125 12.796875 55.515625 
z
" id="DejaVuSerif-50"/>
       </defs>
       <use transform="translate(0 0.7125)" xlink:href="#DejaVuSerif-49"/>
       <use transform="translate(63.623047 0.7125)" xlink:href="#DejaVuSerif-48"/>
       <use transform="translate(128.154453 37.046875)scale(0.7)" xlink:href="#DejaVuSerif-50"/>
      </g>
     </g>
    </g>
    <g id="xtick_3">
     <g id="line2d_3">
      <defs>
       <path d="M 0 0 
L 0 2 
" id="m62be0a1ea3" style="stroke:#000000;stroke-width:0.6;"/>
      </defs>
      <g>
       <use style="stroke:#000000;stroke-width:0.6;" x="275.189406" xlink:href="#m62be0a1ea3" y="150.089143"/>
      </g>
     </g>
    </g>
    <g id="xtick_4">
     <g id="line2d_4">
      <g>
       <use style="stroke:#000000;stroke-width:0.6;" x="285.349683" xlink:href="#m62be0a1ea3" y="150.089143"/>
      </g>
     </g>
    </g>
    <g id="xtick_5">
     <g id="line2d_5">
      <g>
       <use style="stroke:#000000;stroke-width:0.6;" x="292.558513" xlink:href="#m62be0a1ea3" y="150.089143"/>
      </g>
     </g>
    </g>
    <g id="xtick_6">
     <g id="line2d_6">
      <g>
       <use style="stroke:#000000;stroke-width:0.6;" x="298.150117" xlink:href="#m62be0a1ea3" y="150.089143"/>
      </g>
     </g>
    </g>
    <g id="xtick_7">
     <g id="line2d_7">
      <g>
       <use style="stroke:#000000;stroke-width:0.6;" x="302.71879" xlink:href="#m62be0a1ea3" y="150.089143"/>
      </g>
     </g>
    </g>
    <g id="xtick_8">
     <g id="line2d_8">
      <g>
       <use style="stroke:#000000;stroke-width:0.6;" x="306.581548" xlink:href="#m62be0a1ea3" y="150.089143"/>
      </g>
     </g>
    </g>
    <g id="xtick_9">
     <g id="line2d_9">
      <g>
       <use style="stroke:#000000;stroke-width:0.6;" x="309.927621" xlink:href="#m62be0a1ea3" y="150.089143"/>
      </g>
     </g>
    </g>
    <g id="xtick_10">
     <g id="line2d_10">
      <g>
       <use style="stroke:#000000;stroke-width:0.6;" x="312.879066" xlink:href="#m62be0a1ea3" y="150.089143"/>
      </g>
     </g>
    </g>
    <g id="xtick_11">
     <g id="line2d_11">
      <g>
       <use style="stroke:#000000;stroke-width:0.6;" x="332.888331" xlink:href="#m62be0a1ea3" y="150.089143"/>
      </g>
     </g>
    </g>
    <g id="xtick_12">
     <g id="line2d_12">
      <g>
       <use style="stroke:#000000;stroke-width:0.6;" x="343.048608" xlink:href="#m62be0a1ea3" y="150.089143"/>
      </g>
     </g>
    </g>
    <g id="xtick_13">
     <g id="line2d_13">
      <g>
       <use style="stroke:#000000;stroke-width:0.6;" x="350.257438" xlink:href="#m62be0a1ea3" y="150.089143"/>
      </g>
     </g>
    </g>
    <g id="xtick_14">
     <g id="line2d_14">
      <g>
       <use style="stroke:#000000;stroke-width:0.6;" x="355.849042" xlink:href="#m62be0a1ea3" y="150.089143"/>
      </g>
     </g>
    </g>
    <g id="xtick_15">
     <g id="line2d_15">
      <g>
       <use style="stroke:#000000;stroke-width:0.6;" x="360.417715" xlink:href="#m62be0a1ea3" y="150.089143"/>
      </g>
     </g>
    </g>
    <g id="xtick_16">
     <g id="line2d_16">
      <g>
       <use style="stroke:#000000;stroke-width:0.6;" x="364.280473" xlink:href="#m62be0a1ea3" y="150.089143"/>
      </g>
     </g>
    </g>
    <g id="xtick_17">
     <g id="line2d_17">
      <g>
       <use style="stroke:#000000;stroke-width:0.6;" x="367.626546" xlink:href="#m62be0a1ea3" y="150.089143"/>
      </g>
     </g>
    </g>
    <g id="xtick_18">
     <g id="line2d_18">
      <g>
       <use style="stroke:#000000;stroke-width:0.6;" x="370.577991" xlink:href="#m62be0a1ea3" y="150.089143"/>
      </g>
     </g>
    </g>
    <g id="xtick_19">
     <g id="line2d_19">
      <g>
       <use style="stroke:#000000;stroke-width:0.6;" x="390.587256" xlink:href="#m62be0a1ea3" y="150.089143"/>
      </g>
     </g>
    </g>
    <g id="xtick_20">
     <g id="line2d_20">
      <g>
       <use style="stroke:#000000;stroke-width:0.6;" x="400.747533" xlink:href="#m62be0a1ea3" y="150.089143"/>
      </g>
     </g>
    </g>
    <g id="xtick_21">
     <g id="line2d_21">
      <g>
       <use style="stroke:#000000;stroke-width:0.6;" x="407.956364" xlink:href="#m62be0a1ea3" y="150.089143"/>
      </g>
     </g>
    </g>
    <g id="xtick_22">
     <g id="line2d_22">
      <g>
       <use style="stroke:#000000;stroke-width:0.6;" x="413.547967" xlink:href="#m62be0a1ea3" y="150.089143"/>
      </g>
     </g>
    </g>
    <g id="text_3">
     <!-- Period d -->
     <g transform="translate(319.231719 178.365705)scale(0.1 -0.1)">
      <defs>
       <path d="M 24.703125 37.109375 
L 37.59375 37.109375 
Q 44.875 37.109375 48.671875 41.03125 
Q 52.484375 44.96875 52.484375 52.390625 
Q 52.484375 59.859375 48.671875 63.765625 
Q 44.875 67.671875 37.59375 67.671875 
L 24.703125 67.671875 
z
M 5.515625 0 
L 5.515625 5.171875 
L 14.796875 5.171875 
L 14.796875 67.671875 
L 5.515625 67.671875 
L 5.515625 72.90625 
L 39.984375 72.90625 
Q 50.921875 72.90625 57.3125 67.359375 
Q 63.71875 61.8125 63.71875 52.390625 
Q 63.71875 43.015625 57.3125 37.453125 
Q 50.921875 31.890625 39.984375 31.890625 
L 24.703125 31.890625 
L 24.703125 5.171875 
L 35.984375 5.171875 
L 35.984375 0 
z
" id="DejaVuSerif-80"/>
       <path d="M 54.203125 25 
L 15.484375 25 
L 15.484375 24.609375 
Q 15.484375 14.109375 19.4375 8.765625 
Q 23.390625 3.421875 31.109375 3.421875 
Q 37.015625 3.421875 40.796875 6.515625 
Q 44.578125 9.625 46.09375 15.71875 
L 53.328125 15.71875 
Q 51.171875 7.171875 45.375 2.875 
Q 39.59375 -1.421875 30.171875 -1.421875 
Q 18.796875 -1.421875 11.890625 6.078125 
Q 4.984375 13.578125 4.984375 25.984375 
Q 4.984375 38.28125 11.765625 45.796875 
Q 18.5625 53.328125 29.59375 53.328125 
Q 41.359375 53.328125 47.65625 46.0625 
Q 53.953125 38.8125 54.203125 25 
z
M 43.609375 30.171875 
Q 43.3125 39.265625 39.765625 43.875 
Q 36.234375 48.484375 29.59375 48.484375 
Q 23.390625 48.484375 19.828125 43.84375 
Q 16.265625 39.203125 15.484375 30.171875 
z
" id="DejaVuSerif-101"/>
       <path d="M 47.796875 52 
L 47.796875 39.015625 
L 42.625 39.015625 
Q 42.390625 42.875 40.484375 44.78125 
Q 38.578125 46.6875 34.90625 46.6875 
Q 28.265625 46.6875 24.71875 42.09375 
Q 21.1875 37.5 21.1875 28.90625 
L 21.1875 5.171875 
L 31.59375 5.171875 
L 31.59375 0 
L 4.109375 0 
L 4.109375 5.171875 
L 12.203125 5.171875 
L 12.203125 46.78125 
L 3.609375 46.78125 
L 3.609375 51.90625 
L 21.1875 51.90625 
L 21.1875 42.671875 
Q 23.828125 48.09375 27.96875 50.703125 
Q 32.125 53.328125 38.09375 53.328125 
Q 40.28125 53.328125 42.703125 52.984375 
Q 45.125 52.640625 47.796875 52 
z
" id="DejaVuSerif-114"/>
       <path d="M 9.71875 68.015625 
Q 9.71875 70.265625 11.34375 71.921875 
Q 12.984375 73.578125 15.28125 73.578125 
Q 17.53125 73.578125 19.15625 71.921875 
Q 20.796875 70.265625 20.796875 68.015625 
Q 20.796875 65.71875 19.1875 64.109375 
Q 17.578125 62.5 15.28125 62.5 
Q 12.984375 62.5 11.34375 64.109375 
Q 9.71875 65.71875 9.71875 68.015625 
z
M 21.1875 5.171875 
L 29.6875 5.171875 
L 29.6875 0 
L 3.609375 0 
L 3.609375 5.171875 
L 12.203125 5.171875 
L 12.203125 46.6875 
L 3.609375 46.6875 
L 3.609375 51.90625 
L 21.1875 51.90625 
z
" id="DejaVuSerif-105"/>
       <path d="M 30.078125 3.421875 
Q 37.3125 3.421875 40.984375 9.125 
Q 44.671875 14.84375 44.671875 25.984375 
Q 44.671875 37.109375 40.984375 42.796875 
Q 37.3125 48.484375 30.078125 48.484375 
Q 22.859375 48.484375 19.171875 42.796875 
Q 15.484375 37.109375 15.484375 25.984375 
Q 15.484375 14.84375 19.1875 9.125 
Q 22.90625 3.421875 30.078125 3.421875 
z
M 30.078125 -1.421875 
Q 18.75 -1.421875 11.859375 6.078125 
Q 4.984375 13.578125 4.984375 25.984375 
Q 4.984375 38.375 11.84375 45.84375 
Q 18.703125 53.328125 30.078125 53.328125 
Q 41.453125 53.328125 48.3125 45.84375 
Q 55.171875 38.375 55.171875 25.984375 
Q 55.171875 13.578125 48.3125 6.078125 
Q 41.453125 -1.421875 30.078125 -1.421875 
z
" id="DejaVuSerif-111"/>
       <path d="M 52.484375 5.171875 
L 61.078125 5.171875 
L 61.078125 0 
L 43.5 0 
L 43.5 8.109375 
Q 40.875 3.21875 36.796875 0.890625 
Q 32.71875 -1.421875 26.703125 -1.421875 
Q 17.140625 -1.421875 11.0625 6.171875 
Q 4.984375 13.765625 4.984375 25.984375 
Q 4.984375 38.1875 11.03125 45.75 
Q 17.09375 53.328125 26.703125 53.328125 
Q 32.71875 53.328125 36.796875 51 
Q 40.875 48.6875 43.5 43.796875 
L 43.5 70.796875 
L 35.015625 70.796875 
L 35.015625 75.984375 
L 52.484375 75.984375 
z
M 43.5 23.390625 
L 43.5 28.515625 
Q 43.5 37.84375 39.90625 42.765625 
Q 36.328125 47.703125 29.5 47.703125 
Q 22.5625 47.703125 19.015625 42.234375 
Q 15.484375 36.765625 15.484375 25.984375 
Q 15.484375 15.234375 19.015625 9.71875 
Q 22.5625 4.203125 29.5 4.203125 
Q 36.328125 4.203125 39.90625 9.109375 
Q 43.5 14.015625 43.5 23.390625 
z
" id="DejaVuSerif-100"/>
       <path id="DejaVuSerif-32"/>
      </defs>
      <use xlink:href="#DejaVuSerif-80"/>
      <use x="62.785156" xlink:href="#DejaVuSerif-101"/>
      <use x="121.964844" xlink:href="#DejaVuSerif-114"/>
      <use x="169.767578" xlink:href="#DejaVuSerif-105"/>
      <use x="201.75" xlink:href="#DejaVuSerif-111"/>
      <use x="261.955078" xlink:href="#DejaVuSerif-100"/>
      <use x="325.96875" xlink:href="#DejaVuSerif-32"/>
      <use x="357.755859" xlink:href="#DejaVuSerif-100"/>
     </g>
    </g>
   </g>
   <g id="matplotlib.axis_2">
    <g id="ytick_1">
     <g id="line2d_23">
      <defs>
       <path d="M 0 0 
L -3.5 0 
" id="m6e812946b9" style="stroke:#000000;stroke-width:0.8;"/>
      </defs>
      <g>
       <use style="stroke:#000000;stroke-width:0.8;" x="265.92" xlink:href="#m6e812946b9" y="145.203788"/>
      </g>
     </g>
     <g id="text_4">
      <!-- 0.0 -->
      <g transform="translate(243.016875 149.003007)scale(0.1 -0.1)">
       <defs>
        <path d="M 9.421875 5.078125 
Q 9.421875 7.8125 11.28125 9.71875 
Q 13.140625 11.625 15.921875 11.625 
Q 18.609375 11.625 20.5 9.71875 
Q 22.40625 7.8125 22.40625 5.078125 
Q 22.40625 2.390625 20.5 0.484375 
Q 18.609375 -1.421875 15.921875 -1.421875 
Q 13.140625 -1.421875 11.28125 0.453125 
Q 9.421875 2.34375 9.421875 5.078125 
z
" id="DejaVuSerif-46"/>
       </defs>
       <use xlink:href="#DejaVuSerif-48"/>
       <use x="63.623047" xlink:href="#DejaVuSerif-46"/>
       <use x="95.410156" xlink:href="#DejaVuSerif-48"/>
      </g>
     </g>
    </g>
    <g id="ytick_2">
     <g id="line2d_24">
      <g>
       <use style="stroke:#000000;stroke-width:0.8;" x="265.92" xlink:href="#m6e812946b9" y="102.195626"/>
      </g>
     </g>
     <g id="text_5">
      <!-- 0.2 -->
      <g transform="translate(243.016875 105.994845)scale(0.1 -0.1)">
       <use xlink:href="#DejaVuSerif-48"/>
       <use x="63.623047" xlink:href="#DejaVuSerif-46"/>
       <use x="95.410156" xlink:href="#DejaVuSerif-50"/>
      </g>
     </g>
    </g>
    <g id="ytick_3">
     <g id="line2d_25">
      <g>
       <use style="stroke:#000000;stroke-width:0.8;" x="265.92" xlink:href="#m6e812946b9" y="59.187463"/>
      </g>
     </g>
     <g id="text_6">
      <!-- 0.4 -->
      <g transform="translate(243.016875 62.986682)scale(0.1 -0.1)">
       <defs>
        <path d="M 34.90625 24.703125 
L 34.90625 63.484375 
L 10.015625 24.703125 
z
M 56.390625 0 
L 23.1875 0 
L 23.1875 5.171875 
L 34.90625 5.171875 
L 34.90625 19.484375 
L 3.078125 19.484375 
L 3.078125 24.8125 
L 35.015625 74.21875 
L 44.671875 74.21875 
L 44.671875 24.703125 
L 58.59375 24.703125 
L 58.59375 19.484375 
L 44.671875 19.484375 
L 44.671875 5.171875 
L 56.390625 5.171875 
z
" id="DejaVuSerif-52"/>
       </defs>
       <use xlink:href="#DejaVuSerif-48"/>
       <use x="63.623047" xlink:href="#DejaVuSerif-46"/>
       <use x="95.410156" xlink:href="#DejaVuSerif-52"/>
      </g>
     </g>
    </g>
    <g id="text_7">
     <!-- Power -->
     <g transform="translate(236.937188 111.583696)rotate(-90)scale(0.1 -0.1)">
      <defs>
       <path d="M 48 51.90625 
L 61.28125 11.375 
L 73 46.6875 
L 65.484375 46.6875 
L 65.484375 51.90625 
L 84.28125 51.90625 
L 84.28125 46.6875 
L 78.515625 46.6875 
L 63.09375 0 
L 55.609375 0 
L 42.828125 38.8125 
L 29.984375 0 
L 22.796875 0 
L 7.421875 46.6875 
L 1.609375 46.6875 
L 1.609375 51.90625 
L 25.09375 51.90625 
L 25.09375 46.6875 
L 16.703125 46.6875 
L 28.328125 11.375 
L 41.703125 51.90625 
z
" id="DejaVuSerif-119"/>
      </defs>
      <use xlink:href="#DejaVuSerif-80"/>
      <use x="63.285156" xlink:href="#DejaVuSerif-111"/>
      <use x="123.490234" xlink:href="#DejaVuSerif-119"/>
      <use x="209.085938" xlink:href="#DejaVuSerif-101"/>
      <use x="268.265625" xlink:href="#DejaVuSerif-114"/>
     </g>
    </g>
   </g>
   <g id="LineCollection_1">
    <path clip-path="url(#p0eddf2938d)" d="M 272.688076 46.409143 
L 407.956364 46.409143 
" style="fill:none;stroke:#808080;stroke-dasharray:5.55,2.4;stroke-dashoffset:0;stroke-width:1.5;"/>
   </g>
   <g id="LineCollection_2">
    <path clip-path="url(#p0eddf2938d)" d="M 272.688076 60.378343 
L 407.956364 60.378343 
" style="fill:none;stroke:#a9a9a9;stroke-dasharray:5.55,2.4;stroke-dashoffset:0;stroke-width:1.5;"/>
   </g>
   <g id="LineCollection_3">
    <path clip-path="url(#p0eddf2938d)" d="M 272.688076 71.351127 
L 407.956364 71.351127 
" style="fill:none;stroke:#c0c0c0;stroke-dasharray:5.55,2.4;stroke-dashoffset:0;stroke-width:1.5;"/>
   </g>
   <g id="LineCollection_4">
    <path clip-path="url(#p0eddf2938d)" d="M 272.688076 76.526691 
L 407.956364 76.526691 
" style="fill:none;stroke:#d3d3d3;stroke-dasharray:5.55,2.4;stroke-dashoffset:0;stroke-width:1.5;"/>
   </g>
   <g id="line2d_26">
    <path clip-path="url(#p0eddf2938d)" d="M 407.956364 134.464114 
L 403.213616 128.470747 
L 399.227255 129.085302 
L 395.788878 136.847147 
L 392.765875 140.394601 
L 390.068617 136.268579 
L 387.633683 129.17948 
L 385.414539 128.963182 
L 381.490955 135.356844 
L 379.73782 139.185061 
L 378.099359 140.729502 
L 376.561486 136.656455 
L 375.112563 129.33084 
L 373.74286 129.217506 
L 372.444161 135.926765 
L 371.209467 141.424134 
L 370.032763 144.675577 
L 368.908846 144.05828 
L 367.833182 136.28748 
L 366.801799 127.094507 
L 365.811193 128.767042 
L 363.940249 141.756687 
L 363.054681 136.838384 
L 362.199344 103.11029 
L 361.372241 87.275718 
L 360.571569 87.641497 
L 359.79569 94.176087 
L 359.043114 116.158372 
L 358.312483 122.244683 
L 357.602554 87.627791 
L 356.912184 76.933023 
L 356.240326 82.167501 
L 355.586012 92.164598 
L 354.326511 131.418656 
L 353.719731 128.606993 
L 353.127298 118.038945 
L 352.548548 117.815457 
L 351.982864 122.640932 
L 351.429669 136.979183 
L 350.888423 144.045552 
L 350.358621 134.10591 
L 349.839788 122.175578 
L 349.331481 119.324143 
L 348.83328 120.720537 
L 348.344791 133.103472 
L 347.865643 139.535814 
L 347.395485 128.378188 
L 346.933987 113.985998 
L 346.480834 110.619827 
L 346.035731 110.138894 
L 345.598396 118.602189 
L 345.168563 133.387156 
L 344.745979 138.693258 
L 344.330404 132.741755 
L 343.921608 128.980695 
L 343.519374 126.980948 
L 343.123495 128.359491 
L 342.35002 144.059365 
L 341.972055 144.575035 
L 341.23281 138.178416 
L 340.871208 138.460282 
L 340.51475 143.281836 
L 340.163291 145.1069 
L 339.816694 143.957913 
L 339.137558 138.554563 
L 338.80477 138.093541 
L 338.152167 142.214285 
L 337.83213 143.165503 
L 337.516128 142.298687 
L 337.204063 140.966616 
L 336.591354 140.126829 
L 336.290527 140.706101 
L 335.993269 142.623604 
L 335.699496 143.448783 
L 335.409128 142.85292 
L 335.122085 141.646996 
L 334.838294 139.930075 
L 334.280174 135.215794 
L 334.005708 133.904028 
L 333.734215 134.455167 
L 333.465633 136.903468 
L 333.199898 131.372949 
L 332.936952 121.25034 
L 332.676737 123.184963 
L 331.911921 139.31547 
L 331.662084 135.990714 
L 331.414712 129.588388 
L 331.169759 129.459139 
L 330.927177 132.421837 
L 330.686922 137.106993 
L 330.448947 133.141093 
L 330.213212 120.767101 
L 329.979673 115.698738 
L 329.748291 118.913505 
L 329.29184 132.659208 
L 329.066695 126.999678 
L 328.843554 112.914608 
L 328.622384 113.71515 
L 327.970348 142.164633 
L 327.756719 137.95232 
L 327.544897 124.927071 
L 327.33485 122.232564 
L 327.126548 126.615921 
L 326.71507 142.92477 
L 326.511837 138.553779 
L 326.11025 107.871743 
L 325.911845 104.52926 
L 325.714998 108.967577 
L 325.325884 133.707751 
L 324.942719 103.213354 
L 324.753312 99.567821 
L 324.565326 102.178213 
L 324.009683 136.586755 
L 323.645984 125.629924 
L 323.466094 125.724645 
L 322.934048 143.973641 
L 322.585524 136.261459 
L 322.413063 135.266235 
L 322.241781 138.274599 
L 322.071662 143.270733 
L 321.90269 142.927768 
L 321.402505 122.79223 
L 321.237971 125.587775 
L 320.912109 140.548021 
L 320.431126 127.640926 
L 320.272828 131.393577 
L 319.959202 143.711931 
L 319.496001 134.013442 
L 319.19189 141.144707 
L 319.041207 140.146926 
L 318.742534 132.343624 
L 318.594521 133.527968 
L 318.447378 137.6395 
L 318.301094 138.572676 
L 318.155658 138.642772 
L 318.011062 139.600863 
L 317.867296 139.537031 
L 317.724349 140.849812 
L 317.582214 139.727067 
L 317.44088 135.616306 
L 317.300339 135.741647 
L 317.021599 140.1844 
L 316.883384 138.967305 
L 316.473253 125.298457 
L 316.203515 130.225181 
L 316.069727 133.763058 
L 315.936649 130.548765 
L 315.672596 104.240197 
L 315.541606 107.306615 
L 315.281661 126.051224 
L 315.152693 127.051824 
L 314.896732 106.982222 
L 314.769725 109.090276 
L 314.392521 129.606969 
L 314.14417 112.221945 
L 314.020912 113.713342 
L 313.654732 132.306264 
L 313.293827 98.673729 
L 313.174672 106.467964 
L 312.938046 135.47437 
L 312.820567 131.631981 
L 312.587246 90.981984 
L 312.471396 89.346188 
L 312.127024 136.144082 
L 311.78732 101.1069 
L 311.452161 136.291224 
L 311.121425 102.04081 
L 311.012142 106.276319 
L 310.794997 134.488971 
L 310.687126 131.276193 
L 310.472767 117.549623 
L 310.366271 119.782258 
L 310.154628 138.949944 
L 310.049473 140.083678 
L 309.73663 132.932431 
L 309.427645 142.385319 
L 309.32549 140.969019 
L 309.122423 135.671575 
L 309.021503 136.799624 
L 308.820874 143.118724 
L 308.721159 142.696727 
L 308.424372 138.707533 
L 308.13106 144.399425 
L 307.84114 143.303784 
L 307.554537 144.228123 
L 307.365274 143.970599 
L 307.177429 144.204181 
L 307.084032 143.843769 
L 306.805911 140.405044 
L 306.713886 141.01454 
L 306.530844 144.949719 
L 306.439822 144.790945 
L 306.258763 141.922573 
L 306.168722 142.047788 
L 305.900524 144.60085 
L 305.811759 144.613451 
L 305.635166 142.577015 
L 305.459809 136.714918 
L 305.285671 142.328102 
L 305.199054 142.199823 
L 304.940984 121.379024 
L 304.855548 122.592308 
L 304.685544 136.211172 
L 304.432682 118.776981 
L 304.348959 121.11586 
L 304.099454 139.600605 
L 303.852409 120.34047 
L 303.607776 141.596268 
L 303.446004 118.248545 
L 303.365508 105.348616 
L 303.28527 107.12597 
L 303.12556 131.532501 
L 303.046086 128.038386 
L 302.887888 98.907879 
L 302.809162 99.788296 
L 302.574458 131.481951 
L 302.49671 130.102911 
L 302.341932 114.112544 
L 302.188105 128.754648 
L 302.035216 138.293975 
L 301.807618 125.355945 
L 301.657027 130.202442 
L 301.582069 129.660269 
L 301.358531 114.237061 
L 301.13697 117.386001 
L 300.990344 113.250873 
L 300.917351 115.626337 
L 300.69964 130.204278 
L 300.627488 129.615447 
L 300.555543 127.893967 
L 300.483805 127.914865 
L 300.34094 129.919228 
L 300.269812 129.359678 
L 300.128159 121.43055 
L 300.057631 121.521168 
L 299.917169 117.301446 
L 299.847232 117.874341 
L 299.56942 135.001349 
L 299.500446 133.631593 
L 299.431661 132.174152 
L 299.363064 132.256356 
L 299.158394 144.291466 
L 299.09054 142.784562 
L 298.955381 136.484881 
L 298.888074 137.62595 
L 298.754 142.970062 
L 298.554225 125.740754 
L 298.487985 127.329735 
L 298.290311 142.792887 
L 298.159389 137.052568 
L 298.094184 138.491316 
L 297.96428 144.925144 
L 297.89958 143.912466 
L 297.770679 138.729823 
L 297.706476 140.242576 
L 297.642437 143.0222 
L 297.578561 142.790377 
L 297.387906 127.021579 
L 297.324675 128.612762 
L 297.135934 137.481069 
L 296.948604 118.979096 
L 296.762664 141.589297 
L 296.70099 137.287269 
L 296.578094 124.262347 
L 296.455798 133.191369 
L 296.394874 133.163475 
L 296.212983 95.853236 
L 296.152645 99.018074 
L 295.972498 120.201443 
L 295.853115 108.473861 
L 295.616043 137.097751 
L 295.557123 136.956725 
L 295.381192 130.296595 
L 295.322822 130.793412 
L 295.264587 130.742973 
L 295.090691 116.580683 
L 294.975427 102.809175 
L 294.746477 113.647883 
L 294.632782 117.213556 
L 294.294759 141.049368 
L 294.127442 144.262848 
L 294.071918 143.787504 
L 293.85104 136.122409 
L 293.796124 136.764602 
L 293.741328 139.211342 
L 293.686651 138.186089 
L 293.523333 126.086349 
L 293.415042 137.43063 
L 293.361072 143.422674 
L 293.307218 142.932299 
L 293.199855 138.554848 
L 293.092951 144.181319 
L 293.039669 141.865954 
L 292.8805 122.859407 
L 292.722336 138.694725 
L 292.669836 137.120519 
L 292.565165 132.249695 
L 292.408972 145.152 
L 292.357124 143.846237 
L 292.253748 141.187672 
L 292.202219 142.257877 
L 292.150796 141.887689 
L 291.997158 129.211931 
L 291.946153 130.526647 
L 291.793761 136.330039 
L 291.642289 125.146103 
L 291.592001 130.044893 
L 291.441741 142.741482 
L 291.342066 137.004605 
L 291.292376 137.497794 
L 291.193292 141.460844 
L 290.947282 121.936505 
L 290.898369 126.273952 
L 290.84955 132.358121 
L 290.800827 132.132268 
L 290.655223 122.044639 
L 290.606876 122.693894 
L 290.462392 137.177599 
L 290.414415 136.549231 
L 290.318735 126.764731 
L 290.22342 128.461335 
L 290.175898 128.024943 
L 290.128466 125.365885 
L 289.93963 95.166277 
L 289.892643 95.559984 
L 289.845744 98.792108 
L 289.798932 95.749375 
L 289.752207 87.223055 
L 289.70557 87.543333 
L 289.612554 97.233929 
L 289.427552 122.521737 
L 289.243907 140.76912 
L 289.198205 139.576882 
L 289.061597 131.004572 
L 289.016226 132.487261 
L 288.970937 136.065284 
L 288.92573 134.958524 
L 288.745712 115.164466 
L 288.611543 135.246222 
L 288.566978 131.956486 
L 288.478087 127.623305 
L 288.301246 144.461129 
L 288.25723 141.378472 
L 288.213291 138.746099 
L 288.169429 138.873009 
L 288.081934 142.424841 
L 288.038302 142.384813 
L 287.864526 124.824561 
L 287.82127 126.901307 
L 287.73498 132.291333 
L 287.691947 130.09596 
L 287.648987 128.344392 
L 287.606101 129.59069 
L 287.307936 144.066652 
L 287.265629 144.170266 
L 287.181229 143.639654 
L 287.097112 144.921719 
L 287.05516 144.814424 
L 286.929721 141.633226 
L 286.846443 144.276784 
L 286.804908 142.543239 
L 286.680713 131.763715 
L 286.639451 133.426772 
L 286.55713 142.307074 
L 286.516071 141.928451 
L 286.352504 135.711648 
L 286.271119 139.63613 
L 286.189998 143.912778 
L 286.149536 141.704596 
L 286.068806 137.002965 
L 286.028539 139.529071 
L 285.948198 144.972577 
L 285.908124 143.986241 
L 285.828167 138.183202 
L 285.788285 138.423236 
L 285.748465 139.929488 
L 285.708709 139.35403 
L 285.550312 125.208051 
L 285.510868 128.357245 
L 285.471487 132.271768 
L 285.432167 131.971916 
L 285.353713 125.038249 
L 285.275503 126.698919 
L 285.197537 131.406393 
L 285.158645 128.578544 
L 285.08104 116.688193 
L 285.042328 117.270672 
L 284.965083 124.724328 
L 284.926549 121.93208 
L 284.811303 106.766163 
L 284.773005 110.364406 
L 284.658461 125.326013 
L 284.620396 121.863387 
L 284.582388 119.889688 
L 284.544439 121.446981 
L 284.393211 142.217283 
L 284.317938 139.296292 
L 284.24289 137.046302 
L 284.205451 139.133201 
L 284.130739 144.016544 
L 284.093466 142.43218 
L 284.019087 136.079244 
L 283.98198 137.015147 
L 283.90793 141.952036 
L 283.870987 141.161315 
L 283.797265 135.667391 
L 283.760485 136.504177 
L 283.650467 144.052602 
L 283.613901 142.764569 
L 283.577389 142.092858 
L 283.54093 143.072265 
L 283.46817 144.989872 
L 283.43187 143.524261 
L 283.395621 142.266166 
L 283.359426 142.687087 
L 283.287191 145.057142 
L 283.251151 143.582345 
L 283.179227 140.386922 
L 283.143342 141.920258 
L 283.071726 145.003374 
L 283.035995 142.861963 
L 282.964685 135.914344 
L 282.893577 138.777623 
L 282.822671 142.866368 
L 282.681457 120.497912 
L 282.646277 127.76366 
L 282.611147 135.211571 
L 282.576066 133.400124 
L 282.471117 112.995434 
L 282.436231 119.903447 
L 282.366605 131.982978 
L 282.331865 129.953387 
L 282.262528 119.874579 
L 282.227931 124.370397 
L 282.124427 138.081985 
L 282.09002 137.209091 
L 282.055661 135.671981 
L 281.987083 137.242029 
L 281.918692 138.795702 
L 281.884566 137.135826 
L 281.714633 128.613144 
L 281.680784 128.260063 
L 281.613223 116.856844 
L 281.545843 120.048519 
L 281.478645 125.630895 
L 281.411626 122.288915 
L 281.344786 123.600634 
L 281.244859 135.571242 
L 281.178461 132.407997 
L 281.112239 127.747178 
L 281.079194 130.298714 
L 281.013234 140.141615 
L 280.947446 135.884538 
L 280.881831 125.578286 
L 280.849088 128.889275 
L 280.751115 141.627406 
L 280.718542 139.586361 
L 280.653522 130.774249 
L 280.621076 132.680239 
L 280.491709 145.034228 
L 280.459471 143.92197 
L 280.363006 140.720881 
L 280.330934 141.760532 
L 280.266911 144.952589 
L 280.234961 142.884351 
L 280.171183 139.603723 
L 280.139355 141.002861 
L 280.107567 143.801905 
L 280.07582 142.668263 
L 279.980818 133.207828 
L 279.94923 135.839681 
L 279.886175 142.397373 
L 279.854706 138.26862 
L 279.791887 132.535054 
L 279.760537 133.803834 
L 279.666721 144.171551 
L 279.635526 140.91868 
L 279.542176 128.182565 
L 279.511136 135.353097 
L 279.480135 139.929286 
L 279.449172 135.723925 
L 279.356512 102.434987 
L 279.294928 118.78168 
L 279.264193 118.851129 
L 279.233496 119.291366 
L 279.172213 99.38825 
L 279.141628 106.820939 
L 278.958897 133.616809 
L 278.807633 142.214115 
L 278.77749 142.045365 
L 278.747382 142.480917 
L 278.717311 141.583963 
L 278.507817 136.154915 
L 278.27052 144.461768 
L 278.241016 144.355232 
L 278.18211 141.529918 
L 278.152709 143.159084 
L 278.094011 144.850314 
L 278.064713 143.179178 
L 278.00622 136.702233 
L 277.947864 139.3683 
L 277.860583 144.831095 
L 277.802564 141.858852 
L 277.744679 137.688654 
L 277.686927 140.483722 
L 277.571822 144.985264 
L 277.543128 144.764211 
L 277.42868 137.345586 
L 277.40015 140.461392 
L 277.371652 144.779034 
L 277.286352 143.677215 
L 277.257983 144.810737 
L 277.229646 144.743908 
L 277.144827 134.320856 
L 277.08844 139.226448 
L 277.060294 141.769241 
L 277.032179 138.338308 
L 276.976045 131.995615 
L 276.920036 136.471094 
L 276.836257 144.881791 
L 276.780559 141.920443 
L 276.724985 138.435063 
L 276.697244 142.62191 
L 276.669534 144.650011 
L 276.614205 143.037887 
L 276.394104 133.449666 
L 276.203089 145.130204 
L 276.17592 145.091567 
L 276.121669 144.025557 
L 276.040513 133.45435 
L 275.986554 139.349271 
L 275.932712 142.25682 
L 275.878985 139.487638 
L 275.852164 138.517128 
L 275.825372 138.872802 
L 275.638628 144.538175 
L 275.612063 143.136859 
L 275.559018 127.696364 
L 275.479661 135.355217 
L 275.453264 137.722501 
L 275.400554 121.261425 
L 275.347955 129.974803 
L 275.269262 144.889502 
L 275.216938 141.814218 
L 275.190816 130.710528 
L 275.112615 144.00549 
L 275.060615 137.728247 
L 275.008724 139.926351 
L 274.95694 143.726136 
L 274.931088 139.197073 
L 274.853692 122.139246 
L 274.802226 134.526377 
L 274.776534 138.238438 
L 274.699612 134.812798 
L 274.622927 145.132997 
L 274.470255 142.617139 
L 274.368989 137.882083 
L 274.343736 140.312236 
L 274.318509 143.213944 
L 274.242979 139.146886 
L 274.217853 136.016942 
L 274.167676 142.922805 
L 274.117599 144.646585 
L 274.067622 143.690975 
L 273.967967 133.82615 
L 273.893484 128.903329 
L 273.868706 132.881245 
L 273.769837 143.622252 
L 273.720548 143.298373 
L 273.671356 144.793564 
L 273.646797 144.324328 
L 273.597749 139.528854 
L 273.524357 143.334771 
L 273.499941 143.994213 
L 273.475549 143.30569 
L 273.402514 132.202261 
L 273.353942 136.093919 
L 273.257079 134.666667 
L 273.208788 141.993727 
L 273.184677 144.962245 
L 273.136525 141.80464 
L 273.088465 143.406846 
L 273.06447 144.961799 
L 273.040497 142.20992 
L 272.992621 132.03993 
L 272.944836 138.555087 
L 272.897142 144.903292 
L 272.825771 142.921059 
L 272.802026 142.891158 
L 272.730925 139.70307 
L 272.683636 141.247714 
" style="fill:none;stroke:#1f77b4;stroke-linecap:square;stroke-width:1.5;"/>
   </g>
   <g id="patch_3">
    <path d="M 265.92 150.089143 
L 265.92 41.472 
" style="fill:none;stroke:#000000;stroke-linecap:square;stroke-linejoin:miter;stroke-width:0.8;"/>
   </g>
   <g id="patch_4">
    <path d="M 414.72 150.089143 
L 414.72 41.472 
" style="fill:none;stroke:#000000;stroke-linecap:square;stroke-linejoin:miter;stroke-width:0.8;"/>
   </g>
   <g id="patch_5">
    <path d="M 265.92 150.089143 
L 414.72 150.089143 
" style="fill:none;stroke:#000000;stroke-linecap:square;stroke-linejoin:miter;stroke-width:0.8;"/>
   </g>
   <g id="patch_6">
    <path d="M 265.92 41.472 
L 414.72 41.472 
" style="fill:none;stroke:#000000;stroke-linecap:square;stroke-linejoin:miter;stroke-width:0.8;"/>
   </g>
   <g id="text_8">
    <!-- Periodogram -->
    <g transform="translate(307.698125 35.472)scale(0.1 -0.1)">
     <defs>
      <path d="M 52.484375 46.6875 
L 52.484375 1.125 
Q 52.484375 -10.0625 46.328125 -16.140625 
Q 40.1875 -22.21875 28.8125 -22.21875 
Q 23.6875 -22.21875 19 -21.28125 
Q 14.3125 -20.359375 10.015625 -18.5 
L 10.015625 -7.625 
L 14.703125 -7.625 
Q 15.578125 -12.703125 18.84375 -15.046875 
Q 22.125 -17.390625 28.21875 -17.390625 
Q 36.140625 -17.390625 39.8125 -12.921875 
Q 43.5 -8.453125 43.5 1.125 
L 43.5 8.109375 
Q 40.875 3.21875 36.796875 0.890625 
Q 32.71875 -1.421875 26.703125 -1.421875 
Q 17.140625 -1.421875 11.0625 6.171875 
Q 4.984375 13.765625 4.984375 25.984375 
Q 4.984375 38.1875 11.03125 45.75 
Q 17.09375 53.328125 26.703125 53.328125 
Q 32.71875 53.328125 36.796875 51 
Q 40.875 48.6875 43.5 43.796875 
L 43.5 51.90625 
L 61.078125 51.90625 
L 61.078125 46.6875 
z
M 43.5 28.515625 
Q 43.5 37.84375 39.90625 42.765625 
Q 36.328125 47.703125 29.5 47.703125 
Q 22.5625 47.703125 19.015625 42.234375 
Q 15.484375 36.765625 15.484375 25.984375 
Q 15.484375 15.234375 19.015625 9.71875 
Q 22.5625 4.203125 29.5 4.203125 
Q 36.328125 4.203125 39.90625 9.109375 
Q 43.5 14.015625 43.5 23.390625 
z
" id="DejaVuSerif-103"/>
      <path d="M 39.796875 16.3125 
L 39.796875 27.296875 
L 28.21875 27.296875 
Q 21.53125 27.296875 18.25 24.40625 
Q 14.984375 21.53125 14.984375 15.578125 
Q 14.984375 10.15625 18.296875 6.984375 
Q 21.625 3.8125 27.296875 3.8125 
Q 32.90625 3.8125 36.34375 7.28125 
Q 39.796875 10.75 39.796875 16.3125 
z
M 48.78125 32.421875 
L 48.78125 5.171875 
L 56.78125 5.171875 
L 56.78125 0 
L 39.796875 0 
L 39.796875 5.609375 
Q 36.8125 2 32.90625 0.28125 
Q 29 -1.421875 23.78125 -1.421875 
Q 15.140625 -1.421875 10.0625 3.171875 
Q 4.984375 7.765625 4.984375 15.578125 
Q 4.984375 23.640625 10.796875 28.078125 
Q 16.609375 32.515625 27.203125 32.515625 
L 39.796875 32.515625 
L 39.796875 36.078125 
Q 39.796875 42 36.203125 45.234375 
Q 32.625 48.484375 26.125 48.484375 
Q 20.75 48.484375 17.578125 46.046875 
Q 14.40625 43.609375 13.625 38.8125 
L 8.984375 38.8125 
L 8.984375 49.3125 
Q 13.671875 51.3125 18.09375 52.3125 
Q 22.515625 53.328125 26.703125 53.328125 
Q 37.5 53.328125 43.140625 47.96875 
Q 48.78125 42.625 48.78125 32.421875 
z
" id="DejaVuSerif-97"/>
      <path d="M 51.8125 41.796875 
Q 54.390625 47.515625 58.421875 50.421875 
Q 62.453125 53.328125 67.828125 53.328125 
Q 75.984375 53.328125 79.984375 48.265625 
Q 83.984375 43.21875 83.984375 33.015625 
L 83.984375 5.171875 
L 92.09375 5.171875 
L 92.09375 0 
L 67.1875 0 
L 67.1875 5.171875 
L 75 5.171875 
L 75 31.984375 
Q 75 39.9375 72.65625 43.3125 
Q 70.3125 46.6875 64.890625 46.6875 
Q 58.890625 46.6875 55.734375 42.140625 
Q 52.59375 37.59375 52.59375 28.90625 
L 52.59375 5.171875 
L 60.40625 5.171875 
L 60.40625 0 
L 35.796875 0 
L 35.796875 5.171875 
L 43.609375 5.171875 
L 43.609375 32.328125 
Q 43.609375 40.09375 41.265625 43.390625 
Q 38.921875 46.6875 33.5 46.6875 
Q 27.484375 46.6875 24.328125 42.140625 
Q 21.1875 37.59375 21.1875 28.90625 
L 21.1875 5.171875 
L 29 5.171875 
L 29 0 
L 4.109375 0 
L 4.109375 5.171875 
L 12.203125 5.171875 
L 12.203125 46.78125 
L 3.609375 46.78125 
L 3.609375 51.90625 
L 21.1875 51.90625 
L 21.1875 42.671875 
Q 23.6875 47.859375 27.53125 50.59375 
Q 31.390625 53.328125 36.28125 53.328125 
Q 42.328125 53.328125 46.375 50.3125 
Q 50.4375 47.3125 51.8125 41.796875 
z
" id="DejaVuSerif-109"/>
     </defs>
     <use xlink:href="#DejaVuSerif-80"/>
     <use x="62.785156" xlink:href="#DejaVuSerif-101"/>
     <use x="121.964844" xlink:href="#DejaVuSerif-114"/>
     <use x="169.767578" xlink:href="#DejaVuSerif-105"/>
     <use x="201.75" xlink:href="#DejaVuSerif-111"/>
     <use x="261.955078" xlink:href="#DejaVuSerif-100"/>
     <use x="325.96875" xlink:href="#DejaVuSerif-111"/>
     <use x="386.173828" xlink:href="#DejaVuSerif-103"/>
     <use x="450.1875" xlink:href="#DejaVuSerif-114"/>
     <use x="497.990234" xlink:href="#DejaVuSerif-97"/>
     <use x="557.609375" xlink:href="#DejaVuSerif-109"/>
    </g>
   </g>
   <g id="legend_1">
    <g id="patch_7">
     <path d="M 419.648125 108.123071 
L 454.431875 108.123071 
Q 455.231875 108.123071 455.231875 107.323071 
L 455.231875 84.238071 
Q 455.231875 83.438071 454.431875 83.438071 
L 419.648125 83.438071 
Q 418.848125 83.438071 418.848125 84.238071 
L 418.848125 107.323071 
Q 418.848125 108.123071 419.648125 108.123071 
z
" style="fill:#ffffff;opacity:0.8;stroke:#cccccc;stroke-linejoin:miter;"/>
    </g>
    <g id="line2d_27">
     <path d="M 420.448125 86.677446 
L 428.448125 86.677446 
" style="fill:none;stroke:#808080;stroke-dasharray:5.55,2.4;stroke-dashoffset:0;stroke-width:1.5;"/>
    </g>
    <g id="text_9">
     <!-- 99.9% FAP -->
     <g transform="translate(431.648125 88.077446)scale(0.04 -0.04)">
      <defs>
       <path d="M 46.78125 32.671875 
Q 43.5 29 39.25 27.1875 
Q 35.015625 25.390625 29.6875 25.390625 
Q 18.84375 25.390625 12.5625 31.9375 
Q 6.296875 38.484375 6.296875 49.8125 
Q 6.296875 60.890625 13.109375 67.546875 
Q 19.921875 74.21875 31.296875 74.21875 
Q 43.65625 74.21875 50.265625 65.015625 
Q 56.890625 55.8125 56.890625 38.71875 
Q 56.890625 19.578125 49.015625 9.078125 
Q 41.15625 -1.421875 26.90625 -1.421875 
Q 23.046875 -1.421875 18.796875 -0.6875 
Q 14.546875 0.046875 10.109375 1.515625 
L 10.109375 13.625 
L 15.578125 13.625 
Q 16.21875 8.6875 19.390625 6.046875 
Q 22.5625 3.421875 27.875 3.421875 
Q 37.359375 3.421875 41.984375 10.5625 
Q 46.625 17.71875 46.78125 32.671875 
z
M 30.90625 69.390625 
Q 23.96875 69.390625 20.28125 64.328125 
Q 16.609375 59.28125 16.609375 49.8125 
Q 16.609375 40.328125 20.28125 35.25 
Q 23.96875 30.171875 30.90625 30.171875 
Q 37.84375 30.171875 41.53125 35.078125 
Q 45.21875 39.984375 45.21875 49.21875 
Q 45.21875 58.9375 41.5 64.15625 
Q 37.796875 69.390625 30.90625 69.390625 
z
" id="DejaVuSerif-57"/>
       <path d="M 22.40625 69.671875 
Q 18.109375 69.671875 15.6875 65.625 
Q 13.28125 61.578125 13.28125 54.296875 
Q 13.28125 47.125 15.75 43.015625 
Q 18.21875 38.921875 22.40625 38.921875 
Q 26.5625 38.921875 28.96875 43 
Q 31.390625 47.078125 31.390625 54.296875 
Q 31.390625 61.53125 28.96875 65.59375 
Q 26.5625 69.671875 22.40625 69.671875 
z
M 72.703125 33.890625 
Q 68.453125 33.890625 66.03125 29.78125 
Q 63.625 25.6875 63.625 18.40625 
Q 63.625 11.234375 66.0625 7.15625 
Q 68.5 3.078125 72.703125 3.078125 
Q 76.90625 3.078125 79.296875 7.15625 
Q 81.6875 11.234375 81.6875 18.40625 
Q 81.6875 25.640625 79.265625 29.765625 
Q 76.859375 33.890625 72.703125 33.890625 
z
M 72.703125 38.28125 
Q 80.421875 38.28125 84.953125 32.90625 
Q 89.5 27.546875 89.5 18.40625 
Q 89.5 9.28125 84.9375 3.921875 
Q 80.375 -1.421875 72.703125 -1.421875 
Q 64.890625 -1.421875 60.34375 3.921875 
Q 55.8125 9.28125 55.8125 18.40625 
Q 55.8125 27.59375 60.375 32.9375 
Q 64.9375 38.28125 72.703125 38.28125 
z
M 66.609375 74.21875 
L 74.03125 74.21875 
L 28.421875 -1.421875 
L 21 -1.421875 
z
M 22.3125 74.21875 
Q 30.03125 74.21875 34.609375 68.875 
Q 39.203125 63.53125 39.203125 54.390625 
Q 39.203125 45.171875 34.640625 39.84375 
Q 30.078125 34.515625 22.3125 34.515625 
Q 14.546875 34.515625 10.03125 39.859375 
Q 5.515625 45.21875 5.515625 54.390625 
Q 5.515625 63.484375 10.046875 68.84375 
Q 14.59375 74.21875 22.3125 74.21875 
z
" id="DejaVuSerif-37"/>
       <path d="M 5.515625 0 
L 5.515625 5.171875 
L 14.796875 5.171875 
L 14.796875 67.671875 
L 5.515625 67.671875 
L 5.515625 72.90625 
L 65.1875 72.90625 
L 65.1875 56.6875 
L 59.1875 56.6875 
L 59.1875 66.890625 
L 24.703125 66.890625 
L 24.703125 42.484375 
L 49.609375 42.484375 
L 49.609375 51.609375 
L 55.609375 51.609375 
L 55.609375 27.390625 
L 49.609375 27.390625 
L 49.609375 36.53125 
L 24.703125 36.53125 
L 24.703125 5.171875 
L 36.375 5.171875 
L 36.375 0 
z
" id="DejaVuSerif-70"/>
       <path d="M 20.015625 26.421875 
L 46.78125 26.421875 
L 33.40625 61.078125 
z
M -0.59375 0 
L -0.59375 5.171875 
L 5.8125 5.171875 
L 31.78125 72.90625 
L 39.984375 72.90625 
L 66.015625 5.171875 
L 73.1875 5.171875 
L 73.1875 0 
L 46.6875 0 
L 46.6875 5.171875 
L 54.78125 5.171875 
L 48.6875 21.1875 
L 18.015625 21.1875 
L 11.921875 5.171875 
L 19.921875 5.171875 
L 19.921875 0 
z
" id="DejaVuSerif-65"/>
      </defs>
      <use xlink:href="#DejaVuSerif-57"/>
      <use x="63.623047" xlink:href="#DejaVuSerif-57"/>
      <use x="127.246094" xlink:href="#DejaVuSerif-46"/>
      <use x="159.033203" xlink:href="#DejaVuSerif-57"/>
      <use x="222.65625" xlink:href="#DejaVuSerif-37"/>
      <use x="317.675781" xlink:href="#DejaVuSerif-32"/>
      <use x="349.462891" xlink:href="#DejaVuSerif-70"/>
      <use x="410.097656" xlink:href="#DejaVuSerif-65"/>
      <use x="482.314453" xlink:href="#DejaVuSerif-80"/>
     </g>
    </g>
    <g id="line2d_28">
     <path d="M 420.448125 92.548696 
L 428.448125 92.548696 
" style="fill:none;stroke:#a9a9a9;stroke-dasharray:5.55,2.4;stroke-dashoffset:0;stroke-width:1.5;"/>
    </g>
    <g id="text_10">
     <!-- 99.0% FAP -->
     <g transform="translate(431.648125 93.948696)scale(0.04 -0.04)">
      <use xlink:href="#DejaVuSerif-57"/>
      <use x="63.623047" xlink:href="#DejaVuSerif-57"/>
      <use x="127.246094" xlink:href="#DejaVuSerif-46"/>
      <use x="159.033203" xlink:href="#DejaVuSerif-48"/>
      <use x="222.65625" xlink:href="#DejaVuSerif-37"/>
      <use x="317.675781" xlink:href="#DejaVuSerif-32"/>
      <use x="349.462891" xlink:href="#DejaVuSerif-70"/>
      <use x="410.097656" xlink:href="#DejaVuSerif-65"/>
      <use x="482.314453" xlink:href="#DejaVuSerif-80"/>
     </g>
    </g>
    <g id="line2d_29">
     <path d="M 420.448125 98.419946 
L 428.448125 98.419946 
" style="fill:none;stroke:#c0c0c0;stroke-dasharray:5.55,2.4;stroke-dashoffset:0;stroke-width:1.5;"/>
    </g>
    <g id="text_11">
     <!-- 95.0% FAP -->
     <g transform="translate(431.648125 99.819946)scale(0.04 -0.04)">
      <defs>
       <path d="M 50.296875 72.90625 
L 50.296875 64.890625 
L 16.890625 64.890625 
L 16.890625 44 
Q 19.4375 45.75 22.828125 46.625 
Q 26.21875 47.515625 30.421875 47.515625 
Q 42.234375 47.515625 49.0625 40.96875 
Q 55.90625 34.421875 55.90625 23.09375 
Q 55.90625 11.53125 49 5.046875 
Q 42.09375 -1.421875 29.59375 -1.421875 
Q 24.5625 -1.421875 19.28125 -0.1875 
Q 14.015625 1.03125 8.5 3.515625 
L 8.5 17.671875 
L 14.015625 17.671875 
Q 14.453125 10.75 18.421875 7.078125 
Q 22.40625 3.421875 29.59375 3.421875 
Q 37.3125 3.421875 41.453125 8.5 
Q 45.609375 13.578125 45.609375 23.09375 
Q 45.609375 32.5625 41.484375 37.609375 
Q 37.359375 42.671875 29.59375 42.671875 
Q 25.203125 42.671875 21.84375 41.109375 
Q 18.5 39.546875 15.921875 36.28125 
L 11.71875 36.28125 
L 11.71875 72.90625 
z
" id="DejaVuSerif-53"/>
      </defs>
      <use xlink:href="#DejaVuSerif-57"/>
      <use x="63.623047" xlink:href="#DejaVuSerif-53"/>
      <use x="127.246094" xlink:href="#DejaVuSerif-46"/>
      <use x="159.033203" xlink:href="#DejaVuSerif-48"/>
      <use x="222.65625" xlink:href="#DejaVuSerif-37"/>
      <use x="317.675781" xlink:href="#DejaVuSerif-32"/>
      <use x="349.462891" xlink:href="#DejaVuSerif-70"/>
      <use x="410.097656" xlink:href="#DejaVuSerif-65"/>
      <use x="482.314453" xlink:href="#DejaVuSerif-80"/>
     </g>
    </g>
    <g id="line2d_30">
     <path d="M 420.448125 104.291196 
L 428.448125 104.291196 
" style="fill:none;stroke:#d3d3d3;stroke-dasharray:5.55,2.4;stroke-dashoffset:0;stroke-width:1.5;"/>
    </g>
    <g id="text_12">
     <!-- 90.0% FAP -->
     <g transform="translate(431.648125 105.691196)scale(0.04 -0.04)">
      <use xlink:href="#DejaVuSerif-57"/>
      <use x="63.623047" xlink:href="#DejaVuSerif-48"/>
      <use x="127.246094" xlink:href="#DejaVuSerif-46"/>
      <use x="159.033203" xlink:href="#DejaVuSerif-48"/>
      <use x="222.65625" xlink:href="#DejaVuSerif-37"/>
      <use x="317.675781" xlink:href="#DejaVuSerif-32"/>
      <use x="349.462891" xlink:href="#DejaVuSerif-70"/>
      <use x="410.097656" xlink:href="#DejaVuSerif-65"/>
      <use x="482.314453" xlink:href="#DejaVuSerif-80"/>
     </g>
    </g>
   </g>
  </g>
  <g id="axes_2">
   <g id="patch_8">
    <path d="M 57.6 150.089143 
L 206.4 150.089143 
L 206.4 41.472 
L 57.6 41.472 
z
" style="fill:#ffffff;"/>
   </g>
   <g id="PathCollection_1">
    <defs>
     <path d="M 0 0.707107 
C 0.187527 0.707107 0.367398 0.632602 0.5 0.5 
C 0.632602 0.367398 0.707107 0.187527 0.707107 0 
C 0.707107 -0.187527 0.632602 -0.367398 0.5 -0.5 
C 0.367398 -0.632602 0.187527 -0.707107 0 -0.707107 
C -0.187527 -0.707107 -0.367398 -0.632602 -0.5 -0.5 
C -0.632602 -0.367398 -0.707107 -0.187527 -0.707107 0 
C -0.707107 0.187527 -0.632602 0.367398 -0.5 0.5 
C -0.367398 0.632602 -0.187527 0.707107 0 0.707107 
z
" id="m0f1cbbea49" style="stroke:#1f77b4;"/>
    </defs>
    <g clip-path="url(#p0175fe8198)">
     <use style="fill:#1f77b4;stroke:#1f77b4;" x="64.363636" xlink:href="#m0f1cbbea49" y="109.684059"/>
     <use style="fill:#1f77b4;stroke:#1f77b4;" x="64.364261" xlink:href="#m0f1cbbea49" y="114.141527"/>
     <use style="fill:#1f77b4;stroke:#1f77b4;" x="98.006687" xlink:href="#m0f1cbbea49" y="99.147202"/>
     <use style="fill:#1f77b4;stroke:#1f77b4;" x="98.007311" xlink:href="#m0f1cbbea49" y="100.453886"/>
     <use style="fill:#1f77b4;stroke:#1f77b4;" x="100.824148" xlink:href="#m0f1cbbea49" y="89.875074"/>
     <use style="fill:#1f77b4;stroke:#1f77b4;" x="104.830049" xlink:href="#m0f1cbbea49" y="87.805581"/>
     <use style="fill:#1f77b4;stroke:#1f77b4;" x="104.834392" xlink:href="#m0f1cbbea49" y="99.912169"/>
     <use style="fill:#1f77b4;stroke:#1f77b4;" x="106.165126" xlink:href="#m0f1cbbea49" y="89.561444"/>
     <use style="fill:#1f77b4;stroke:#1f77b4;" x="69.471372" xlink:href="#m0f1cbbea49" y="128.607039"/>
     <use style="fill:#1f77b4;stroke:#1f77b4;" x="70.819633" xlink:href="#m0f1cbbea49" y="112.745549"/>
     <use style="fill:#1f77b4;stroke:#1f77b4;" x="70.820243" xlink:href="#m0f1cbbea49" y="120.614689"/>
     <use style="fill:#1f77b4;stroke:#1f77b4;" x="73.547226" xlink:href="#m0f1cbbea49" y="116.200528"/>
     <use style="fill:#1f77b4;stroke:#1f77b4;" x="73.54785" xlink:href="#m0f1cbbea49" y="115.229798"/>
     <use style="fill:#1f77b4;stroke:#1f77b4;" x="76.203788" xlink:href="#m0f1cbbea49" y="129.863153"/>
     <use style="fill:#1f77b4;stroke:#1f77b4;" x="76.204413" xlink:href="#m0f1cbbea49" y="129.573736"/>
     <use style="fill:#1f77b4;stroke:#1f77b4;" x="77.540223" xlink:href="#m0f1cbbea49" y="103.822011"/>
     <use style="fill:#1f77b4;stroke:#1f77b4;" x="77.540848" xlink:href="#m0f1cbbea49" y="96.936758"/>
     <use style="fill:#1f77b4;stroke:#1f77b4;" x="78.961998" xlink:href="#m0f1cbbea49" y="68.547452"/>
     <use style="fill:#1f77b4;stroke:#1f77b4;" x="78.962607" xlink:href="#m0f1cbbea49" y="77.335694"/>
     <use style="fill:#1f77b4;stroke:#1f77b4;" x="80.253491" xlink:href="#m0f1cbbea49" y="89.136464"/>
     <use style="fill:#1f77b4;stroke:#1f77b4;" x="80.254116" xlink:href="#m0f1cbbea49" y="83.938779"/>
     <use style="fill:#1f77b4;stroke:#1f77b4;" x="81.601892" xlink:href="#m0f1cbbea49" y="104.598273"/>
     <use style="fill:#1f77b4;stroke:#1f77b4;" x="81.602502" xlink:href="#m0f1cbbea49" y="111.170954"/>
     <use style="fill:#1f77b4;stroke:#1f77b4;" x="93.758906" xlink:href="#m0f1cbbea49" y="72.46536"/>
     <use style="fill:#1f77b4;stroke:#1f77b4;" x="103.129497" xlink:href="#m0f1cbbea49" y="46.409143"/>
     <use style="fill:#1f77b4;stroke:#1f77b4;" x="104.47304" xlink:href="#m0f1cbbea49" y="79.276351"/>
     <use style="fill:#1f77b4;stroke:#1f77b4;" x="105.823035" xlink:href="#m0f1cbbea49" y="125.494993"/>
     <use style="fill:#1f77b4;stroke:#1f77b4;" x="107.170234" xlink:href="#m0f1cbbea49" y="82.178868"/>
     <use style="fill:#1f77b4;stroke:#1f77b4;" x="108.525602" xlink:href="#m0f1cbbea49" y="120.151788"/>
     <use style="fill:#1f77b4;stroke:#1f77b4;" x="124.742051" xlink:href="#m0f1cbbea49" y="113.454559"/>
     <use style="fill:#1f77b4;stroke:#1f77b4;" x="66.20911" xlink:href="#m0f1cbbea49" y="103.22569"/>
     <use style="fill:#1f77b4;stroke:#1f77b4;" x="67.755715" xlink:href="#m0f1cbbea49" y="93.21226"/>
     <use style="fill:#1f77b4;stroke:#1f77b4;" x="69.130297" xlink:href="#m0f1cbbea49" y="105.477284"/>
     <use style="fill:#1f77b4;stroke:#1f77b4;" x="78.550268" xlink:href="#m0f1cbbea49" y="114.81397"/>
     <use style="fill:#1f77b4;stroke:#1f77b4;" x="82.625152" xlink:href="#m0f1cbbea49" y="115.824243"/>
     <use style="fill:#1f77b4;stroke:#1f77b4;" x="65.927193" xlink:href="#m0f1cbbea49" y="145.152"/>
     <use style="fill:#1f77b4;stroke:#1f77b4;" x="71.325891" xlink:href="#m0f1cbbea49" y="132.000971"/>
     <use style="fill:#1f77b4;stroke:#1f77b4;" x="84.812669" xlink:href="#m0f1cbbea49" y="97.5347"/>
     <use style="fill:#1f77b4;stroke:#1f77b4;" x="76.463387" xlink:href="#m0f1cbbea49" y="88.535575"/>
     <use style="fill:#1f77b4;stroke:#1f77b4;" x="129.227515" xlink:href="#m0f1cbbea49" y="145.102248"/>
     <use style="fill:#1f77b4;stroke:#1f77b4;" x="87.093183" xlink:href="#m0f1cbbea49" y="92.09467"/>
     <use style="fill:#1f77b4;stroke:#1f77b4;" x="87.093792" xlink:href="#m0f1cbbea49" y="90.92032"/>
     <use style="fill:#1f77b4;stroke:#1f77b4;" x="88.408404" xlink:href="#m0f1cbbea49" y="90.954743"/>
     <use style="fill:#1f77b4;stroke:#1f77b4;" x="88.409014" xlink:href="#m0f1cbbea49" y="98.946557"/>
     <use style="fill:#1f77b4;stroke:#1f77b4;" x="89.699882" xlink:href="#m0f1cbbea49" y="89.95657"/>
     <use style="fill:#1f77b4;stroke:#1f77b4;" x="89.700491" xlink:href="#m0f1cbbea49" y="92.833266"/>
    </g>
   </g>
   <g id="PathCollection_2">
    <g clip-path="url(#p0175fe8198)">
     <use style="fill:#1f77b4;stroke:#1f77b4;" x="134.772485" xlink:href="#m0f1cbbea49" y="109.684059"/>
     <use style="fill:#1f77b4;stroke:#1f77b4;" x="134.77311" xlink:href="#m0f1cbbea49" y="114.141527"/>
     <use style="fill:#1f77b4;stroke:#1f77b4;" x="168.415535" xlink:href="#m0f1cbbea49" y="99.147202"/>
     <use style="fill:#1f77b4;stroke:#1f77b4;" x="168.41616" xlink:href="#m0f1cbbea49" y="100.453886"/>
     <use style="fill:#1f77b4;stroke:#1f77b4;" x="171.232997" xlink:href="#m0f1cbbea49" y="89.875074"/>
     <use style="fill:#1f77b4;stroke:#1f77b4;" x="175.238898" xlink:href="#m0f1cbbea49" y="87.805581"/>
     <use style="fill:#1f77b4;stroke:#1f77b4;" x="175.243241" xlink:href="#m0f1cbbea49" y="99.912169"/>
     <use style="fill:#1f77b4;stroke:#1f77b4;" x="176.573975" xlink:href="#m0f1cbbea49" y="89.561444"/>
     <use style="fill:#1f77b4;stroke:#1f77b4;" x="139.880221" xlink:href="#m0f1cbbea49" y="128.607039"/>
     <use style="fill:#1f77b4;stroke:#1f77b4;" x="141.228482" xlink:href="#m0f1cbbea49" y="112.745549"/>
     <use style="fill:#1f77b4;stroke:#1f77b4;" x="141.229091" xlink:href="#m0f1cbbea49" y="120.614689"/>
     <use style="fill:#1f77b4;stroke:#1f77b4;" x="143.956075" xlink:href="#m0f1cbbea49" y="116.200528"/>
     <use style="fill:#1f77b4;stroke:#1f77b4;" x="143.956699" xlink:href="#m0f1cbbea49" y="115.229798"/>
     <use style="fill:#1f77b4;stroke:#1f77b4;" x="146.612637" xlink:href="#m0f1cbbea49" y="129.863153"/>
     <use style="fill:#1f77b4;stroke:#1f77b4;" x="146.613262" xlink:href="#m0f1cbbea49" y="129.573736"/>
     <use style="fill:#1f77b4;stroke:#1f77b4;" x="147.949072" xlink:href="#m0f1cbbea49" y="103.822011"/>
     <use style="fill:#1f77b4;stroke:#1f77b4;" x="147.949697" xlink:href="#m0f1cbbea49" y="96.936758"/>
     <use style="fill:#1f77b4;stroke:#1f77b4;" x="149.370847" xlink:href="#m0f1cbbea49" y="68.547452"/>
     <use style="fill:#1f77b4;stroke:#1f77b4;" x="149.371456" xlink:href="#m0f1cbbea49" y="77.335694"/>
     <use style="fill:#1f77b4;stroke:#1f77b4;" x="150.66234" xlink:href="#m0f1cbbea49" y="89.136464"/>
     <use style="fill:#1f77b4;stroke:#1f77b4;" x="150.662965" xlink:href="#m0f1cbbea49" y="83.938779"/>
     <use style="fill:#1f77b4;stroke:#1f77b4;" x="152.010741" xlink:href="#m0f1cbbea49" y="104.598273"/>
     <use style="fill:#1f77b4;stroke:#1f77b4;" x="152.01135" xlink:href="#m0f1cbbea49" y="111.170954"/>
     <use style="fill:#1f77b4;stroke:#1f77b4;" x="164.167755" xlink:href="#m0f1cbbea49" y="72.46536"/>
     <use style="fill:#1f77b4;stroke:#1f77b4;" x="173.538346" xlink:href="#m0f1cbbea49" y="46.409143"/>
     <use style="fill:#1f77b4;stroke:#1f77b4;" x="174.881889" xlink:href="#m0f1cbbea49" y="79.276351"/>
     <use style="fill:#1f77b4;stroke:#1f77b4;" x="176.231884" xlink:href="#m0f1cbbea49" y="125.494993"/>
     <use style="fill:#1f77b4;stroke:#1f77b4;" x="177.579083" xlink:href="#m0f1cbbea49" y="82.178868"/>
     <use style="fill:#1f77b4;stroke:#1f77b4;" x="178.934451" xlink:href="#m0f1cbbea49" y="120.151788"/>
     <use style="fill:#1f77b4;stroke:#1f77b4;" x="195.1509" xlink:href="#m0f1cbbea49" y="113.454559"/>
     <use style="fill:#1f77b4;stroke:#1f77b4;" x="136.617959" xlink:href="#m0f1cbbea49" y="103.22569"/>
     <use style="fill:#1f77b4;stroke:#1f77b4;" x="138.164564" xlink:href="#m0f1cbbea49" y="93.21226"/>
     <use style="fill:#1f77b4;stroke:#1f77b4;" x="139.539146" xlink:href="#m0f1cbbea49" y="105.477284"/>
     <use style="fill:#1f77b4;stroke:#1f77b4;" x="148.959117" xlink:href="#m0f1cbbea49" y="114.81397"/>
     <use style="fill:#1f77b4;stroke:#1f77b4;" x="153.034001" xlink:href="#m0f1cbbea49" y="115.824243"/>
     <use style="fill:#1f77b4;stroke:#1f77b4;" x="136.336042" xlink:href="#m0f1cbbea49" y="145.152"/>
     <use style="fill:#1f77b4;stroke:#1f77b4;" x="141.73474" xlink:href="#m0f1cbbea49" y="132.000971"/>
     <use style="fill:#1f77b4;stroke:#1f77b4;" x="155.221518" xlink:href="#m0f1cbbea49" y="97.5347"/>
     <use style="fill:#1f77b4;stroke:#1f77b4;" x="146.872236" xlink:href="#m0f1cbbea49" y="88.535575"/>
     <use style="fill:#1f77b4;stroke:#1f77b4;" x="199.636364" xlink:href="#m0f1cbbea49" y="145.102248"/>
     <use style="fill:#1f77b4;stroke:#1f77b4;" x="157.502032" xlink:href="#m0f1cbbea49" y="92.09467"/>
     <use style="fill:#1f77b4;stroke:#1f77b4;" x="157.502641" xlink:href="#m0f1cbbea49" y="90.92032"/>
     <use style="fill:#1f77b4;stroke:#1f77b4;" x="158.817253" xlink:href="#m0f1cbbea49" y="90.954743"/>
     <use style="fill:#1f77b4;stroke:#1f77b4;" x="158.817863" xlink:href="#m0f1cbbea49" y="98.946557"/>
     <use style="fill:#1f77b4;stroke:#1f77b4;" x="160.108731" xlink:href="#m0f1cbbea49" y="89.95657"/>
     <use style="fill:#1f77b4;stroke:#1f77b4;" x="160.10934" xlink:href="#m0f1cbbea49" y="92.833266"/>
    </g>
   </g>
   <g id="matplotlib.axis_3">
    <g id="xtick_23">
     <g id="line2d_31">
      <g>
       <use style="stroke:#000000;stroke-width:0.8;" x="63.137233" xlink:href="#mf929fec9bf" y="150.089143"/>
      </g>
     </g>
     <g id="text_13">
      <!-- 0 -->
      <g transform="translate(59.955983 164.68758)scale(0.1 -0.1)">
       <use xlink:href="#DejaVuSerif-48"/>
      </g>
     </g>
    </g>
    <g id="xtick_24">
     <g id="line2d_32">
      <g>
       <use style="stroke:#000000;stroke-width:0.8;" x="133.546082" xlink:href="#mf929fec9bf" y="150.089143"/>
      </g>
     </g>
     <g id="text_14">
      <!-- 1 -->
      <g transform="translate(130.364832 164.68758)scale(0.1 -0.1)">
       <use xlink:href="#DejaVuSerif-49"/>
      </g>
     </g>
    </g>
    <g id="xtick_25">
     <g id="line2d_33">
      <g>
       <use style="stroke:#000000;stroke-width:0.8;" x="203.954931" xlink:href="#mf929fec9bf" y="150.089143"/>
      </g>
     </g>
     <g id="text_15">
      <!-- 2 -->
      <g transform="translate(200.773681 164.68758)scale(0.1 -0.1)">
       <use xlink:href="#DejaVuSerif-50"/>
      </g>
     </g>
    </g>
    <g id="text_16">
     <!-- Phase (P = 52.167 d) -->
     <g transform="translate(78.401562 178.365705)scale(0.1 -0.1)">
      <defs>
       <path d="M 4.109375 0 
L 4.109375 5.171875 
L 12.203125 5.171875 
L 12.203125 70.796875 
L 3.609375 70.796875 
L 3.609375 75.984375 
L 21.1875 75.984375 
L 21.1875 42.671875 
Q 23.6875 47.953125 27.65625 50.640625 
Q 31.640625 53.328125 36.921875 53.328125 
Q 45.515625 53.328125 49.5625 48.390625 
Q 53.609375 43.453125 53.609375 33.015625 
L 53.609375 5.171875 
L 61.625 5.171875 
L 61.625 0 
L 36.8125 0 
L 36.8125 5.171875 
L 44.578125 5.171875 
L 44.578125 30.171875 
Q 44.578125 39.703125 42.25 43.1875 
Q 39.9375 46.6875 33.984375 46.6875 
Q 27.734375 46.6875 24.453125 42.140625 
Q 21.1875 37.59375 21.1875 28.90625 
L 21.1875 5.171875 
L 29 5.171875 
L 29 0 
z
" id="DejaVuSerif-104"/>
       <path d="M 5.609375 2.875 
L 5.609375 14.984375 
L 10.796875 14.984375 
Q 10.984375 9.1875 14.421875 6.296875 
Q 17.875 3.421875 24.609375 3.421875 
Q 30.671875 3.421875 33.84375 5.6875 
Q 37.015625 7.953125 37.015625 12.3125 
Q 37.015625 15.71875 34.6875 17.8125 
Q 32.375 19.921875 24.90625 22.3125 
L 18.40625 24.515625 
Q 11.71875 26.65625 8.71875 29.875 
Q 5.71875 33.109375 5.71875 38.09375 
Q 5.71875 45.21875 10.9375 49.265625 
Q 16.15625 53.328125 25.390625 53.328125 
Q 29.5 53.328125 34.03125 52.25 
Q 38.578125 51.171875 43.40625 49.125 
L 43.40625 37.796875 
L 38.234375 37.796875 
Q 38.03125 42.828125 34.703125 45.65625 
Q 31.390625 48.484375 25.6875 48.484375 
Q 20.015625 48.484375 17.109375 46.484375 
Q 14.203125 44.484375 14.203125 40.484375 
Q 14.203125 37.203125 16.40625 35.21875 
Q 18.609375 33.25 25.203125 31.203125 
L 32.328125 29 
Q 39.703125 26.703125 42.9375 23.265625 
Q 46.1875 19.828125 46.1875 14.40625 
Q 46.1875 7.03125 40.546875 2.796875 
Q 34.90625 -1.421875 25 -1.421875 
Q 19.96875 -1.421875 15.1875 -0.34375 
Q 10.40625 0.734375 5.609375 2.875 
z
" id="DejaVuSerif-115"/>
       <path d="M 31.890625 -15.578125 
Q 20.015625 -10.25 13.953125 1.296875 
Q 7.90625 12.84375 7.90625 30.171875 
Q 7.90625 47.5625 13.953125 59.109375 
Q 20.015625 70.65625 31.890625 75.984375 
L 31.890625 71.1875 
Q 24.359375 66.015625 21.09375 56.609375 
Q 17.828125 47.21875 17.828125 30.171875 
Q 17.828125 13.1875 21.09375 3.78125 
Q 24.359375 -5.609375 31.890625 -10.796875 
z
" id="DejaVuSerif-40"/>
       <path d="M 10.59375 45.21875 
L 73.1875 45.21875 
L 73.1875 37.40625 
L 10.59375 37.40625 
z
M 10.59375 25.296875 
L 73.1875 25.296875 
L 73.1875 17.484375 
L 10.59375 17.484375 
z
" id="DejaVuSerif-61"/>
       <path d="M 32.71875 3.421875 
Q 39.59375 3.421875 43.296875 8.46875 
Q 47.015625 13.53125 47.015625 23 
Q 47.015625 32.46875 43.296875 37.515625 
Q 39.59375 42.578125 32.71875 42.578125 
Q 25.734375 42.578125 22.0625 37.6875 
Q 18.40625 32.8125 18.40625 23.578125 
Q 18.40625 13.875 22.109375 8.640625 
Q 25.828125 3.421875 32.71875 3.421875 
z
M 16.796875 40.140625 
Q 20.125 43.796875 24.3125 45.59375 
Q 28.515625 47.40625 33.796875 47.40625 
Q 44.671875 47.40625 51 40.859375 
Q 57.328125 34.328125 57.328125 23 
Q 57.328125 11.921875 50.515625 5.25 
Q 43.703125 -1.421875 32.328125 -1.421875 
Q 19.96875 -1.421875 13.328125 7.78125 
Q 6.6875 17 6.6875 34.078125 
Q 6.6875 53.21875 14.546875 63.71875 
Q 22.40625 74.21875 36.71875 74.21875 
Q 40.578125 74.21875 44.828125 73.484375 
Q 49.078125 72.75 53.515625 71.296875 
L 53.515625 59.28125 
L 48 59.28125 
Q 47.40625 64.203125 44.234375 66.796875 
Q 41.0625 69.390625 35.6875 69.390625 
Q 26.21875 69.390625 21.578125 62.203125 
Q 16.9375 55.03125 16.796875 40.140625 
z
" id="DejaVuSerif-54"/>
       <path d="M 56.390625 67.921875 
L 27.875 0 
L 20.609375 0 
L 47.796875 64.890625 
L 14.109375 64.890625 
L 14.109375 55.90625 
L 8.40625 55.90625 
L 8.40625 72.90625 
L 56.390625 72.90625 
z
" id="DejaVuSerif-55"/>
       <path d="M 7.078125 -15.578125 
L 7.078125 -10.796875 
Q 14.59375 -5.609375 17.890625 3.78125 
Q 21.1875 13.1875 21.1875 30.171875 
Q 21.1875 47.21875 17.890625 56.609375 
Q 14.59375 66.015625 7.078125 71.1875 
L 7.078125 75.984375 
Q 19 70.65625 25.046875 59.109375 
Q 31.109375 47.5625 31.109375 30.171875 
Q 31.109375 12.84375 25.046875 1.296875 
Q 19 -10.25 7.078125 -15.578125 
z
" id="DejaVuSerif-41"/>
      </defs>
      <use xlink:href="#DejaVuSerif-80"/>
      <use x="67.285156" xlink:href="#DejaVuSerif-104"/>
      <use x="131.689453" xlink:href="#DejaVuSerif-97"/>
      <use x="191.308594" xlink:href="#DejaVuSerif-115"/>
      <use x="242.626953" xlink:href="#DejaVuSerif-101"/>
      <use x="301.806641" xlink:href="#DejaVuSerif-32"/>
      <use x="333.59375" xlink:href="#DejaVuSerif-40"/>
      <use x="372.607422" xlink:href="#DejaVuSerif-80"/>
      <use x="439.892578" xlink:href="#DejaVuSerif-32"/>
      <use x="471.679688" xlink:href="#DejaVuSerif-61"/>
      <use x="555.46875" xlink:href="#DejaVuSerif-32"/>
      <use x="587.255859" xlink:href="#DejaVuSerif-53"/>
      <use x="650.878906" xlink:href="#DejaVuSerif-50"/>
      <use x="714.501953" xlink:href="#DejaVuSerif-46"/>
      <use x="746.289062" xlink:href="#DejaVuSerif-49"/>
      <use x="809.912109" xlink:href="#DejaVuSerif-54"/>
      <use x="873.535156" xlink:href="#DejaVuSerif-55"/>
      <use x="937.158203" xlink:href="#DejaVuSerif-32"/>
      <use x="968.945312" xlink:href="#DejaVuSerif-100"/>
      <use x="1032.958984" xlink:href="#DejaVuSerif-41"/>
     </g>
    </g>
   </g>
   <g id="matplotlib.axis_4">
    <g id="ytick_4">
     <g id="line2d_34">
      <g>
       <use style="stroke:#000000;stroke-width:0.8;" x="57.6" xlink:href="#m6e812946b9" y="49.653311"/>
      </g>
     </g>
     <g id="text_17">
      <!-- 17.4 -->
      <g transform="translate(28.334375 53.452529)scale(0.1 -0.1)">
       <use xlink:href="#DejaVuSerif-49"/>
       <use x="63.623047" xlink:href="#DejaVuSerif-55"/>
       <use x="127.246094" xlink:href="#DejaVuSerif-46"/>
       <use x="159.033203" xlink:href="#DejaVuSerif-52"/>
      </g>
     </g>
    </g>
    <g id="ytick_5">
     <g id="line2d_35">
      <g>
       <use style="stroke:#000000;stroke-width:0.8;" x="57.6" xlink:href="#m6e812946b9" y="77.857457"/>
      </g>
     </g>
     <g id="text_18">
      <!-- 17.6 -->
      <g transform="translate(28.334375 81.656676)scale(0.1 -0.1)">
       <use xlink:href="#DejaVuSerif-49"/>
       <use x="63.623047" xlink:href="#DejaVuSerif-55"/>
       <use x="127.246094" xlink:href="#DejaVuSerif-46"/>
       <use x="159.033203" xlink:href="#DejaVuSerif-54"/>
      </g>
     </g>
    </g>
    <g id="ytick_6">
     <g id="line2d_36">
      <g>
       <use style="stroke:#000000;stroke-width:0.8;" x="57.6" xlink:href="#m6e812946b9" y="106.061603"/>
      </g>
     </g>
     <g id="text_19">
      <!-- 17.8 -->
      <g transform="translate(28.334375 109.860822)scale(0.1 -0.1)">
       <defs>
        <path d="M 46.578125 19.921875 
Q 46.578125 27.734375 42.6875 32.046875 
Q 38.8125 36.375 31.78125 36.375 
Q 24.75 36.375 20.875 32.046875 
Q 17 27.734375 17 19.921875 
Q 17 12.0625 20.875 7.734375 
Q 24.75 3.421875 31.78125 3.421875 
Q 38.8125 3.421875 42.6875 7.734375 
Q 46.578125 12.0625 46.578125 19.921875 
z
M 44.578125 55.328125 
Q 44.578125 61.96875 41.203125 65.671875 
Q 37.84375 69.390625 31.78125 69.390625 
Q 25.78125 69.390625 22.390625 65.671875 
Q 19 61.96875 19 55.328125 
Q 19 48.640625 22.390625 44.921875 
Q 25.78125 41.21875 31.78125 41.21875 
Q 37.84375 41.21875 41.203125 44.921875 
Q 44.578125 48.640625 44.578125 55.328125 
z
M 39.3125 38.8125 
Q 47.609375 37.703125 52.25 32.6875 
Q 56.890625 27.6875 56.890625 19.921875 
Q 56.890625 9.671875 50.390625 4.125 
Q 43.890625 -1.421875 31.78125 -1.421875 
Q 19.734375 -1.421875 13.203125 4.125 
Q 6.6875 9.671875 6.6875 19.921875 
Q 6.6875 27.6875 11.328125 32.6875 
Q 15.96875 37.703125 24.3125 38.8125 
Q 16.9375 40.140625 13 44.40625 
Q 9.078125 48.6875 9.078125 55.328125 
Q 9.078125 64.109375 15.125 69.15625 
Q 21.1875 74.21875 31.78125 74.21875 
Q 42.390625 74.21875 48.4375 69.15625 
Q 54.5 64.109375 54.5 55.328125 
Q 54.5 48.6875 50.5625 44.40625 
Q 46.625 40.140625 39.3125 38.8125 
z
" id="DejaVuSerif-56"/>
       </defs>
       <use xlink:href="#DejaVuSerif-49"/>
       <use x="63.623047" xlink:href="#DejaVuSerif-55"/>
       <use x="127.246094" xlink:href="#DejaVuSerif-46"/>
       <use x="159.033203" xlink:href="#DejaVuSerif-56"/>
      </g>
     </g>
    </g>
    <g id="ytick_7">
     <g id="line2d_37">
      <g>
       <use style="stroke:#000000;stroke-width:0.8;" x="57.6" xlink:href="#m6e812946b9" y="134.26575"/>
      </g>
     </g>
     <g id="text_20">
      <!-- 18.0 -->
      <g transform="translate(28.334375 138.064968)scale(0.1 -0.1)">
       <use xlink:href="#DejaVuSerif-49"/>
       <use x="63.623047" xlink:href="#DejaVuSerif-56"/>
       <use x="127.246094" xlink:href="#DejaVuSerif-46"/>
       <use x="159.033203" xlink:href="#DejaVuSerif-48"/>
      </g>
     </g>
    </g>
    <g id="text_21">
     <!-- Mag -->
     <g transform="translate(22.1125 107.082134)rotate(-90)scale(0.1 -0.1)">
      <defs>
       <path d="M 5.515625 0 
L 5.515625 5.171875 
L 14.796875 5.171875 
L 14.796875 67.671875 
L 4.984375 67.671875 
L 4.984375 72.90625 
L 26.21875 72.90625 
L 51.8125 21 
L 77.390625 72.90625 
L 97.3125 72.90625 
L 97.3125 67.671875 
L 87.59375 67.671875 
L 87.59375 5.171875 
L 96.921875 5.171875 
L 96.921875 0 
L 68.40625 0 
L 68.40625 5.171875 
L 77.6875 5.171875 
L 77.6875 61.53125 
L 52.6875 10.6875 
L 45.796875 10.6875 
L 20.796875 61.53125 
L 20.796875 5.171875 
L 30.078125 5.171875 
L 30.078125 0 
z
" id="DejaVuSerif-77"/>
      </defs>
      <use xlink:href="#DejaVuSerif-77"/>
      <use x="102.392578" xlink:href="#DejaVuSerif-97"/>
      <use x="162.011719" xlink:href="#DejaVuSerif-103"/>
     </g>
    </g>
   </g>
   <g id="patch_9">
    <path d="M 57.6 150.089143 
L 57.6 41.472 
" style="fill:none;stroke:#000000;stroke-linecap:square;stroke-linejoin:miter;stroke-width:0.8;"/>
   </g>
   <g id="patch_10">
    <path d="M 206.4 150.089143 
L 206.4 41.472 
" style="fill:none;stroke:#000000;stroke-linecap:square;stroke-linejoin:miter;stroke-width:0.8;"/>
   </g>
   <g id="patch_11">
    <path d="M 57.6 150.089143 
L 206.4 150.089143 
" style="fill:none;stroke:#000000;stroke-linecap:square;stroke-linejoin:miter;stroke-width:0.8;"/>
   </g>
   <g id="patch_12">
    <path d="M 57.6 41.472 
L 206.4 41.472 
" style="fill:none;stroke:#000000;stroke-linecap:square;stroke-linejoin:miter;stroke-width:0.8;"/>
   </g>
   <g id="text_22">
    <!-- Folded Light Curve -->
    <g transform="translate(83.086719 35.472)scale(0.1 -0.1)">
     <defs>
      <path d="M 20.515625 5.171875 
L 29 5.171875 
L 29 0 
L 2.875 0 
L 2.875 5.171875 
L 11.53125 5.171875 
L 11.53125 70.796875 
L 2.875 70.796875 
L 2.875 75.984375 
L 20.515625 75.984375 
z
" id="DejaVuSerif-108"/>
      <path d="M 5.515625 0 
L 5.515625 5.171875 
L 14.796875 5.171875 
L 14.796875 67.671875 
L 5.515625 67.671875 
L 5.515625 72.90625 
L 33.984375 72.90625 
L 33.984375 67.671875 
L 24.703125 67.671875 
L 24.703125 6 
L 58.015625 6 
L 58.015625 18.21875 
L 64.015625 18.21875 
L 64.015625 0 
z
" id="DejaVuSerif-76"/>
      <path d="M 10.796875 46.6875 
L 2.875 46.6875 
L 2.875 51.90625 
L 10.796875 51.90625 
L 10.796875 68.015625 
L 19.828125 68.015625 
L 19.828125 51.90625 
L 36.71875 51.90625 
L 36.71875 46.6875 
L 19.828125 46.6875 
L 19.828125 13.71875 
Q 19.828125 7.125 21.09375 5.265625 
Q 22.359375 3.421875 25.78125 3.421875 
Q 29.296875 3.421875 30.90625 5.484375 
Q 32.515625 7.5625 32.625 12.203125 
L 39.40625 12.203125 
Q 39.015625 5.125 35.546875 1.84375 
Q 32.078125 -1.421875 25 -1.421875 
Q 17.234375 -1.421875 14.015625 2.015625 
Q 10.796875 5.46875 10.796875 13.71875 
z
" id="DejaVuSerif-116"/>
      <path d="M 70.515625 19.28125 
Q 67.28125 9.078125 59.6875 3.828125 
Q 52.09375 -1.421875 40.484375 -1.421875 
Q 33.34375 -1.421875 27.234375 1.015625 
Q 21.140625 3.46875 16.40625 8.203125 
Q 10.9375 13.671875 8.265625 20.625 
Q 5.609375 27.59375 5.609375 36.375 
Q 5.609375 53.375 15.421875 63.796875 
Q 25.25 74.21875 41.3125 74.21875 
Q 47.265625 74.21875 54 72.65625 
Q 60.75 71.09375 68.5 67.921875 
L 68.5 51.125 
L 62.984375 51.125 
Q 61.1875 60.296875 55.734375 64.640625 
Q 50.296875 69 40.484375 69 
Q 28.8125 69 22.796875 60.71875 
Q 16.796875 52.4375 16.796875 36.375 
Q 16.796875 20.359375 22.796875 12.078125 
Q 28.8125 3.8125 40.484375 3.8125 
Q 48.640625 3.8125 53.90625 7.6875 
Q 59.1875 11.578125 61.53125 19.28125 
z
" id="DejaVuSerif-67"/>
      <path d="M 35.40625 51.90625 
L 52.203125 51.90625 
L 52.203125 5.171875 
L 60.6875 5.171875 
L 60.6875 0 
L 43.21875 0 
L 43.21875 9.1875 
Q 40.71875 4 36.765625 1.28125 
Q 32.8125 -1.421875 27.59375 -1.421875 
Q 18.953125 -1.421875 14.875 3.484375 
Q 10.796875 8.40625 10.796875 18.890625 
L 10.796875 46.6875 
L 2.6875 46.6875 
L 2.6875 51.90625 
L 19.828125 51.90625 
L 19.828125 21.6875 
Q 19.828125 12.203125 22.140625 8.6875 
Q 24.46875 5.171875 30.421875 5.171875 
Q 36.671875 5.171875 39.9375 9.765625 
Q 43.21875 14.359375 43.21875 23.09375 
L 43.21875 46.6875 
L 35.40625 46.6875 
z
" id="DejaVuSerif-117"/>
      <path d="M 24.703125 0 
L 5.609375 46.6875 
L -0.296875 46.6875 
L -0.296875 51.90625 
L 23.578125 51.90625 
L 23.578125 46.6875 
L 15.28125 46.6875 
L 29.890625 10.984375 
L 44.484375 46.6875 
L 36.71875 46.6875 
L 36.71875 51.90625 
L 56.203125 51.90625 
L 56.203125 46.6875 
L 50.390625 46.6875 
L 31.296875 0 
z
" id="DejaVuSerif-118"/>
     </defs>
     <use xlink:href="#DejaVuSerif-70"/>
     <use x="63.884766" xlink:href="#DejaVuSerif-111"/>
     <use x="124.089844" xlink:href="#DejaVuSerif-108"/>
     <use x="156.072266" xlink:href="#DejaVuSerif-100"/>
     <use x="220.085938" xlink:href="#DejaVuSerif-101"/>
     <use x="279.265625" xlink:href="#DejaVuSerif-100"/>
     <use x="343.279297" xlink:href="#DejaVuSerif-32"/>
     <use x="375.066406" xlink:href="#DejaVuSerif-76"/>
     <use x="441.472656" xlink:href="#DejaVuSerif-105"/>
     <use x="473.455078" xlink:href="#DejaVuSerif-103"/>
     <use x="537.46875" xlink:href="#DejaVuSerif-104"/>
     <use x="601.873047" xlink:href="#DejaVuSerif-116"/>
     <use x="642.058594" xlink:href="#DejaVuSerif-32"/>
     <use x="673.845703" xlink:href="#DejaVuSerif-67"/>
     <use x="750.359375" xlink:href="#DejaVuSerif-117"/>
     <use x="814.763672" xlink:href="#DejaVuSerif-114"/>
     <use x="862.566406" xlink:href="#DejaVuSerif-118"/>
     <use x="919.060547" xlink:href="#DejaVuSerif-101"/>
    </g>
   </g>
  </g>
  <g id="axes_3">
   <g id="patch_13">
    <path d="M 57.6 307.584 
L 414.72 307.584 
L 414.72 198.966857 
L 57.6 198.966857 
z
" style="fill:#ffffff;"/>
   </g>
   <g id="PathCollection_3">
    <g clip-path="url(#p04d0f493d2)">
     <use style="fill:#1f77b4;stroke:#1f77b4;" x="73.832727" xlink:href="#m0f1cbbea49" y="265.671259"/>
     <use style="fill:#1f77b4;stroke:#1f77b4;" x="73.833119" xlink:href="#m0f1cbbea49" y="269.824449"/>
     <use style="fill:#1f77b4;stroke:#1f77b4;" x="94.910293" xlink:href="#m0f1cbbea49" y="255.853674"/>
     <use style="fill:#1f77b4;stroke:#1f77b4;" x="94.910684" xlink:href="#m0f1cbbea49" y="257.071161"/>
     <use style="fill:#1f77b4;stroke:#1f77b4;" x="96.675449" xlink:href="#m0f1cbbea49" y="247.214486"/>
     <use style="fill:#1f77b4;stroke:#1f77b4;" x="99.185169" xlink:href="#m0f1cbbea49" y="245.286261"/>
     <use style="fill:#1f77b4;stroke:#1f77b4;" x="99.18789" xlink:href="#m0f1cbbea49" y="256.566423"/>
     <use style="fill:#1f77b4;stroke:#1f77b4;" x="100.021602" xlink:href="#m0f1cbbea49" y="246.922265"/>
     <use style="fill:#1f77b4;stroke:#1f77b4;" x="121.144305" xlink:href="#m0f1cbbea49" y="283.302508"/>
     <use style="fill:#1f77b4;stroke:#1f77b4;" x="121.988998" xlink:href="#m0f1cbbea49" y="268.523764"/>
     <use style="fill:#1f77b4;stroke:#1f77b4;" x="121.98938" xlink:href="#m0f1cbbea49" y="275.855736"/>
     <use style="fill:#1f77b4;stroke:#1f77b4;" x="123.69785" xlink:href="#m0f1cbbea49" y="271.742898"/>
     <use style="fill:#1f77b4;stroke:#1f77b4;" x="123.698242" xlink:href="#m0f1cbbea49" y="270.838432"/>
     <use style="fill:#1f77b4;stroke:#1f77b4;" x="125.362202" xlink:href="#m0f1cbbea49" y="284.472877"/>
     <use style="fill:#1f77b4;stroke:#1f77b4;" x="125.362594" xlink:href="#m0f1cbbea49" y="284.203216"/>
     <use style="fill:#1f77b4;stroke:#1f77b4;" x="126.199487" xlink:href="#m0f1cbbea49" y="260.209369"/>
     <use style="fill:#1f77b4;stroke:#1f77b4;" x="126.199878" xlink:href="#m0f1cbbea49" y="253.794121"/>
     <use style="fill:#1f77b4;stroke:#1f77b4;" x="127.090237" xlink:href="#m0f1cbbea49" y="227.342741"/>
     <use style="fill:#1f77b4;stroke:#1f77b4;" x="127.090618" xlink:href="#m0f1cbbea49" y="235.531076"/>
     <use style="fill:#1f77b4;stroke:#1f77b4;" x="127.899364" xlink:href="#m0f1cbbea49" y="246.526295"/>
     <use style="fill:#1f77b4;stroke:#1f77b4;" x="127.899756" xlink:href="#m0f1cbbea49" y="241.683417"/>
     <use style="fill:#1f77b4;stroke:#1f77b4;" x="128.744146" xlink:href="#m0f1cbbea49" y="260.932642"/>
     <use style="fill:#1f77b4;stroke:#1f77b4;" x="128.744527" xlink:href="#m0f1cbbea49" y="267.056654"/>
     <use style="fill:#1f77b4;stroke:#1f77b4;" x="136.360585" xlink:href="#m0f1cbbea49" y="230.993203"/>
     <use style="fill:#1f77b4;stroke:#1f77b4;" x="142.231315" xlink:href="#m0f1cbbea49" y="206.715649"/>
     <use style="fill:#1f77b4;stroke:#1f77b4;" x="143.073052" xlink:href="#m0f1cbbea49" y="237.339258"/>
     <use style="fill:#1f77b4;stroke:#1f77b4;" x="143.918832" xlink:href="#m0f1cbbea49" y="280.402899"/>
     <use style="fill:#1f77b4;stroke:#1f77b4;" x="144.76286" xlink:href="#m0f1cbbea49" y="240.043642"/>
     <use style="fill:#1f77b4;stroke:#1f77b4;" x="145.612006" xlink:href="#m0f1cbbea49" y="275.424435"/>
     <use style="fill:#1f77b4;stroke:#1f77b4;" x="155.771705" xlink:href="#m0f1cbbea49" y="269.184375"/>
     <use style="fill:#1f77b4;stroke:#1f77b4;" x="163.21203" xlink:href="#m0f1cbbea49" y="259.653755"/>
     <use style="fill:#1f77b4;stroke:#1f77b4;" x="164.180987" xlink:href="#m0f1cbbea49" y="250.323866"/>
     <use style="fill:#1f77b4;stroke:#1f77b4;" x="165.042171" xlink:href="#m0f1cbbea49" y="261.751649"/>
     <use style="fill:#1f77b4;stroke:#1f77b4;" x="170.943837" xlink:href="#m0f1cbbea49" y="270.45099"/>
     <use style="fill:#1f77b4;stroke:#1f77b4;" x="173.496775" xlink:href="#m0f1cbbea49" y="271.392298"/>
     <use style="fill:#1f77b4;stroke:#1f77b4;" x="207.146958" xlink:href="#m0f1cbbea49" y="298.718069"/>
     <use style="fill:#1f77b4;stroke:#1f77b4;" x="210.529274" xlink:href="#m0f1cbbea49" y="286.464762"/>
     <use style="fill:#1f77b4;stroke:#1f77b4;" x="218.978819" xlink:href="#m0f1cbbea49" y="254.351246"/>
     <use style="fill:#1f77b4;stroke:#1f77b4;" x="346.082599" xlink:href="#m0f1cbbea49" y="245.966424"/>
     <use style="fill:#1f77b4;stroke:#1f77b4;" x="379.139631" xlink:href="#m0f1cbbea49" y="298.671713"/>
     <use style="fill:#1f77b4;stroke:#1f77b4;" x="396.853779" xlink:href="#m0f1cbbea49" y="249.282567"/>
     <use style="fill:#1f77b4;stroke:#1f77b4;" x="396.854161" xlink:href="#m0f1cbbea49" y="248.188381"/>
     <use style="fill:#1f77b4;stroke:#1f77b4;" x="397.677773" xlink:href="#m0f1cbbea49" y="248.220454"/>
     <use style="fill:#1f77b4;stroke:#1f77b4;" x="397.678155" xlink:href="#m0f1cbbea49" y="255.666726"/>
     <use style="fill:#1f77b4;stroke:#1f77b4;" x="398.486891" xlink:href="#m0f1cbbea49" y="247.290419"/>
     <use style="fill:#1f77b4;stroke:#1f77b4;" x="398.487273" xlink:href="#m0f1cbbea49" y="249.970744"/>
    </g>
   </g>
   <g id="matplotlib.axis_5">
    <g id="xtick_26">
     <g id="line2d_38">
      <g>
       <use style="stroke:#000000;stroke-width:0.8;" x="97.996351" xlink:href="#mf929fec9bf" y="307.584"/>
      </g>
     </g>
     <g id="text_23">
      <!-- 58300 -->
      <g transform="translate(82.090101 322.182437)scale(0.1 -0.1)">
       <defs>
        <path d="M 9.71875 69.828125 
Q 15.4375 71.96875 20.671875 73.09375 
Q 25.921875 74.21875 30.515625 74.21875 
Q 41.21875 74.21875 47.21875 69.59375 
Q 53.21875 64.984375 53.21875 56.78125 
Q 53.21875 50.203125 49.0625 45.78125 
Q 44.921875 41.359375 37.3125 39.796875 
Q 46.296875 38.53125 51.25 33.28125 
Q 56.203125 28.03125 56.203125 19.671875 
Q 56.203125 9.46875 49.34375 4.015625 
Q 42.484375 -1.421875 29.59375 -1.421875 
Q 23.875 -1.421875 18.421875 -0.1875 
Q 12.984375 1.03125 7.625 3.515625 
L 7.625 17.671875 
L 13.09375 17.671875 
Q 13.578125 10.640625 17.828125 7.03125 
Q 22.078125 3.421875 29.78125 3.421875 
Q 37.25 3.421875 41.578125 7.734375 
Q 45.90625 12.0625 45.90625 19.578125 
Q 45.90625 28.171875 41.453125 32.59375 
Q 37.015625 37.015625 28.421875 37.015625 
L 23.78125 37.015625 
L 23.78125 42 
L 26.21875 42 
Q 34.765625 42 39.03125 45.53125 
Q 43.3125 49.078125 43.3125 56.203125 
Q 43.3125 62.59375 39.796875 65.984375 
Q 36.28125 69.390625 29.6875 69.390625 
Q 23.09375 69.390625 19.453125 66.265625 
Q 15.828125 63.140625 15.1875 56.984375 
L 9.71875 56.984375 
z
" id="DejaVuSerif-51"/>
       </defs>
       <use xlink:href="#DejaVuSerif-53"/>
       <use x="63.623047" xlink:href="#DejaVuSerif-56"/>
       <use x="127.246094" xlink:href="#DejaVuSerif-51"/>
       <use x="190.869141" xlink:href="#DejaVuSerif-48"/>
       <use x="254.492188" xlink:href="#DejaVuSerif-48"/>
      </g>
     </g>
    </g>
    <g id="xtick_27">
     <g id="line2d_39">
      <g>
       <use style="stroke:#000000;stroke-width:0.8;" x="140.27554" xlink:href="#mf929fec9bf" y="307.584"/>
      </g>
     </g>
     <g id="text_24">
      <!-- 58350 -->
      <g transform="translate(124.36929 322.182437)scale(0.1 -0.1)">
       <use xlink:href="#DejaVuSerif-53"/>
       <use x="63.623047" xlink:href="#DejaVuSerif-56"/>
       <use x="127.246094" xlink:href="#DejaVuSerif-51"/>
       <use x="190.869141" xlink:href="#DejaVuSerif-53"/>
       <use x="254.492188" xlink:href="#DejaVuSerif-48"/>
      </g>
     </g>
    </g>
    <g id="xtick_28">
     <g id="line2d_40">
      <g>
       <use style="stroke:#000000;stroke-width:0.8;" x="182.55473" xlink:href="#mf929fec9bf" y="307.584"/>
      </g>
     </g>
     <g id="text_25">
      <!-- 58400 -->
      <g transform="translate(166.64848 322.182437)scale(0.1 -0.1)">
       <use xlink:href="#DejaVuSerif-53"/>
       <use x="63.623047" xlink:href="#DejaVuSerif-56"/>
       <use x="127.246094" xlink:href="#DejaVuSerif-52"/>
       <use x="190.869141" xlink:href="#DejaVuSerif-48"/>
       <use x="254.492188" xlink:href="#DejaVuSerif-48"/>
      </g>
     </g>
    </g>
    <g id="xtick_29">
     <g id="line2d_41">
      <g>
       <use style="stroke:#000000;stroke-width:0.8;" x="224.833919" xlink:href="#mf929fec9bf" y="307.584"/>
      </g>
     </g>
     <g id="text_26">
      <!-- 58450 -->
      <g transform="translate(208.927669 322.182437)scale(0.1 -0.1)">
       <use xlink:href="#DejaVuSerif-53"/>
       <use x="63.623047" xlink:href="#DejaVuSerif-56"/>
       <use x="127.246094" xlink:href="#DejaVuSerif-52"/>
       <use x="190.869141" xlink:href="#DejaVuSerif-53"/>
       <use x="254.492188" xlink:href="#DejaVuSerif-48"/>
      </g>
     </g>
    </g>
    <g id="xtick_30">
     <g id="line2d_42">
      <g>
       <use style="stroke:#000000;stroke-width:0.8;" x="267.113108" xlink:href="#mf929fec9bf" y="307.584"/>
      </g>
     </g>
     <g id="text_27">
      <!-- 58500 -->
      <g transform="translate(251.206858 322.182437)scale(0.1 -0.1)">
       <use xlink:href="#DejaVuSerif-53"/>
       <use x="63.623047" xlink:href="#DejaVuSerif-56"/>
       <use x="127.246094" xlink:href="#DejaVuSerif-53"/>
       <use x="190.869141" xlink:href="#DejaVuSerif-48"/>
       <use x="254.492188" xlink:href="#DejaVuSerif-48"/>
      </g>
     </g>
    </g>
    <g id="xtick_31">
     <g id="line2d_43">
      <g>
       <use style="stroke:#000000;stroke-width:0.8;" x="309.392298" xlink:href="#mf929fec9bf" y="307.584"/>
      </g>
     </g>
     <g id="text_28">
      <!-- 58550 -->
      <g transform="translate(293.486048 322.182437)scale(0.1 -0.1)">
       <use xlink:href="#DejaVuSerif-53"/>
       <use x="63.623047" xlink:href="#DejaVuSerif-56"/>
       <use x="127.246094" xlink:href="#DejaVuSerif-53"/>
       <use x="190.869141" xlink:href="#DejaVuSerif-53"/>
       <use x="254.492188" xlink:href="#DejaVuSerif-48"/>
      </g>
     </g>
    </g>
    <g id="xtick_32">
     <g id="line2d_44">
      <g>
       <use style="stroke:#000000;stroke-width:0.8;" x="351.671487" xlink:href="#mf929fec9bf" y="307.584"/>
      </g>
     </g>
     <g id="text_29">
      <!-- 58600 -->
      <g transform="translate(335.765237 322.182437)scale(0.1 -0.1)">
       <use xlink:href="#DejaVuSerif-53"/>
       <use x="63.623047" xlink:href="#DejaVuSerif-56"/>
       <use x="127.246094" xlink:href="#DejaVuSerif-54"/>
       <use x="190.869141" xlink:href="#DejaVuSerif-48"/>
       <use x="254.492188" xlink:href="#DejaVuSerif-48"/>
      </g>
     </g>
    </g>
    <g id="xtick_33">
     <g id="line2d_45">
      <g>
       <use style="stroke:#000000;stroke-width:0.8;" x="393.950677" xlink:href="#mf929fec9bf" y="307.584"/>
      </g>
     </g>
     <g id="text_30">
      <!-- 58650 -->
      <g transform="translate(378.044427 322.182437)scale(0.1 -0.1)">
       <use xlink:href="#DejaVuSerif-53"/>
       <use x="63.623047" xlink:href="#DejaVuSerif-56"/>
       <use x="127.246094" xlink:href="#DejaVuSerif-54"/>
       <use x="190.869141" xlink:href="#DejaVuSerif-53"/>
       <use x="254.492188" xlink:href="#DejaVuSerif-48"/>
      </g>
     </g>
    </g>
    <g id="text_31">
     <!-- MJD -->
     <g transform="translate(225.027187 335.860562)scale(0.1 -0.1)">
      <defs>
       <path d="M -8.40625 -17.484375 
L -8.40625 -6 
L -2.828125 -6 
Q -2.6875 -10.84375 -0.53125 -13.203125 
Q 1.609375 -15.578125 5.90625 -15.578125 
Q 11.71875 -15.578125 14.015625 -11.90625 
Q 16.3125 -8.25 16.3125 2.390625 
L 16.3125 67.671875 
L 4.984375 67.671875 
L 4.984375 72.90625 
L 35.5 72.90625 
L 35.5 67.671875 
L 26.21875 67.671875 
L 26.21875 2 
Q 26.21875 -10.0625 21.375 -15.421875 
Q 16.546875 -20.796875 5.8125 -20.796875 
Q 2.34375 -20.796875 -1.234375 -19.96875 
Q -4.828125 -19.140625 -8.40625 -17.484375 
z
" id="DejaVuSerif-74"/>
       <path d="M 24.703125 5.171875 
L 33.796875 5.171875 
Q 48 5.171875 55.59375 13.28125 
Q 63.1875 21.390625 63.1875 36.53125 
Q 63.1875 51.65625 55.609375 59.65625 
Q 48.046875 67.671875 33.796875 67.671875 
L 24.703125 67.671875 
z
M 5.515625 0 
L 5.515625 5.171875 
L 14.796875 5.171875 
L 14.796875 67.671875 
L 5.515625 67.671875 
L 5.515625 72.90625 
L 34.515625 72.90625 
Q 53.375 72.90625 63.890625 63.28125 
Q 74.421875 53.65625 74.421875 36.53125 
Q 74.421875 19.34375 63.875 9.671875 
Q 53.328125 0 34.515625 0 
z
" id="DejaVuSerif-68"/>
      </defs>
      <use xlink:href="#DejaVuSerif-77"/>
      <use x="102.392578" xlink:href="#DejaVuSerif-74"/>
      <use x="142.480469" xlink:href="#DejaVuSerif-68"/>
     </g>
    </g>
   </g>
   <g id="matplotlib.axis_6">
    <g id="ytick_8">
     <g id="line2d_46">
      <g>
       <use style="stroke:#000000;stroke-width:0.8;" x="57.6" xlink:href="#m6e812946b9" y="209.738362"/>
      </g>
     </g>
     <g id="text_32">
      <!-- 17.4 -->
      <g transform="translate(28.334375 213.53758)scale(0.1 -0.1)">
       <use xlink:href="#DejaVuSerif-49"/>
       <use x="63.623047" xlink:href="#DejaVuSerif-55"/>
       <use x="127.246094" xlink:href="#DejaVuSerif-46"/>
       <use x="159.033203" xlink:href="#DejaVuSerif-52"/>
      </g>
     </g>
    </g>
    <g id="ytick_9">
     <g id="line2d_47">
      <g>
       <use style="stroke:#000000;stroke-width:0.8;" x="57.6" xlink:href="#m6e812946b9" y="236.017221"/>
      </g>
     </g>
     <g id="text_33">
      <!-- 17.6 -->
      <g transform="translate(28.334375 239.81644)scale(0.1 -0.1)">
       <use xlink:href="#DejaVuSerif-49"/>
       <use x="63.623047" xlink:href="#DejaVuSerif-55"/>
       <use x="127.246094" xlink:href="#DejaVuSerif-46"/>
       <use x="159.033203" xlink:href="#DejaVuSerif-54"/>
      </g>
     </g>
    </g>
    <g id="ytick_10">
     <g id="line2d_48">
      <g>
       <use style="stroke:#000000;stroke-width:0.8;" x="57.6" xlink:href="#m6e812946b9" y="262.296081"/>
      </g>
     </g>
     <g id="text_34">
      <!-- 17.8 -->
      <g transform="translate(28.334375 266.0953)scale(0.1 -0.1)">
       <use xlink:href="#DejaVuSerif-49"/>
       <use x="63.623047" xlink:href="#DejaVuSerif-55"/>
       <use x="127.246094" xlink:href="#DejaVuSerif-46"/>
       <use x="159.033203" xlink:href="#DejaVuSerif-56"/>
      </g>
     </g>
    </g>
    <g id="ytick_11">
     <g id="line2d_49">
      <g>
       <use style="stroke:#000000;stroke-width:0.8;" x="57.6" xlink:href="#m6e812946b9" y="288.574941"/>
      </g>
     </g>
     <g id="text_35">
      <!-- 18.0 -->
      <g transform="translate(28.334375 292.37416)scale(0.1 -0.1)">
       <use xlink:href="#DejaVuSerif-49"/>
       <use x="63.623047" xlink:href="#DejaVuSerif-56"/>
       <use x="127.246094" xlink:href="#DejaVuSerif-46"/>
       <use x="159.033203" xlink:href="#DejaVuSerif-48"/>
      </g>
     </g>
    </g>
    <g id="text_36">
     <!-- Mag -->
     <g transform="translate(22.1125 264.576991)rotate(-90)scale(0.1 -0.1)">
      <use xlink:href="#DejaVuSerif-77"/>
      <use x="102.392578" xlink:href="#DejaVuSerif-97"/>
      <use x="162.011719" xlink:href="#DejaVuSerif-103"/>
     </g>
    </g>
   </g>
   <g id="LineCollection_5">
    <path clip-path="url(#p04d0f493d2)" d="M 73.832727 262.226005 
L 73.832727 269.116513 
" style="fill:none;stroke:#1f77b4;stroke-width:0.5;"/>
    <path clip-path="url(#p04d0f493d2)" d="M 73.833119 266.324187 
L 73.833119 273.324711 
" style="fill:none;stroke:#1f77b4;stroke-width:0.5;"/>
    <path clip-path="url(#p04d0f493d2)" d="M 94.910293 252.532444 
L 94.910293 259.174904 
" style="fill:none;stroke:#1f77b4;stroke-width:0.5;"/>
    <path clip-path="url(#p04d0f493d2)" d="M 94.910684 253.734996 
L 94.910684 260.407325 
" style="fill:none;stroke:#1f77b4;stroke-width:0.5;"/>
    <path clip-path="url(#p04d0f493d2)" d="M 96.675449 243.995735 
L 96.675449 250.433237 
" style="fill:none;stroke:#1f77b4;stroke-width:0.5;"/>
    <path clip-path="url(#p04d0f493d2)" d="M 99.185169 242.089569 
L 99.185169 248.482954 
" style="fill:none;stroke:#1f77b4;stroke-width:0.5;"/>
    <path clip-path="url(#p04d0f493d2)" d="M 99.18789 253.236463 
L 99.18789 259.896382 
" style="fill:none;stroke:#1f77b4;stroke-width:0.5;"/>
    <path clip-path="url(#p04d0f493d2)" d="M 100.021602 243.706877 
L 100.021602 250.137653 
" style="fill:none;stroke:#1f77b4;stroke-width:0.5;"/>
    <path clip-path="url(#p04d0f493d2)" d="M 121.144305 279.612698 
L 121.144305 286.992319 
" style="fill:none;stroke:#1f77b4;stroke-width:0.5;"/>
    <path clip-path="url(#p04d0f493d2)" d="M 121.988998 265.040896 
L 121.988998 272.006631 
" style="fill:none;stroke:#1f77b4;stroke-width:0.5;"/>
    <path clip-path="url(#p04d0f493d2)" d="M 121.98938 272.272786 
L 121.98938 279.438687 
" style="fill:none;stroke:#1f77b4;stroke-width:0.5;"/>
    <path clip-path="url(#p04d0f493d2)" d="M 123.69785 268.216699 
L 123.69785 275.269097 
" style="fill:none;stroke:#1f77b4;stroke-width:0.5;"/>
    <path clip-path="url(#p04d0f493d2)" d="M 123.698242 267.324505 
L 123.698242 274.352359 
" style="fill:none;stroke:#1f77b4;stroke-width:0.5;"/>
    <path clip-path="url(#p04d0f493d2)" d="M 125.362202 280.765779 
L 125.362202 288.179975 
" style="fill:none;stroke:#1f77b4;stroke-width:0.5;"/>
    <path clip-path="url(#p04d0f493d2)" d="M 125.362594 280.500114 
L 125.362594 287.906318 
" style="fill:none;stroke:#1f77b4;stroke-width:0.5;"/>
    <path clip-path="url(#p04d0f493d2)" d="M 126.199487 256.834135 
L 126.199487 263.584603 
" style="fill:none;stroke:#1f77b4;stroke-width:0.5;"/>
    <path clip-path="url(#p04d0f493d2)" d="M 126.199878 250.497874 
L 126.199878 257.090369 
" style="fill:none;stroke:#1f77b4;stroke-width:0.5;"/>
    <path clip-path="url(#p04d0f493d2)" d="M 127.090237 224.337923 
L 127.090237 230.347558 
" style="fill:none;stroke:#1f77b4;stroke-width:0.5;"/>
    <path clip-path="url(#p04d0f493d2)" d="M 127.090618 232.441624 
L 127.090618 238.620527 
" style="fill:none;stroke:#1f77b4;stroke-width:0.5;"/>
    <path clip-path="url(#p04d0f493d2)" d="M 127.899364 243.315451 
L 127.899364 249.737139 
" style="fill:none;stroke:#1f77b4;stroke-width:0.5;"/>
    <path clip-path="url(#p04d0f493d2)" d="M 127.899756 238.527169 
L 127.899756 244.839664 
" style="fill:none;stroke:#1f77b4;stroke-width:0.5;"/>
    <path clip-path="url(#p04d0f493d2)" d="M 128.744146 257.548284 
L 128.744146 264.317 
" style="fill:none;stroke:#1f77b4;stroke-width:0.5;"/>
    <path clip-path="url(#p04d0f493d2)" d="M 128.744527 263.593225 
L 128.744527 270.520084 
" style="fill:none;stroke:#1f77b4;stroke-width:0.5;"/>
    <path clip-path="url(#p04d0f493d2)" d="M 136.360585 227.951244 
L 136.360585 234.035162 
" style="fill:none;stroke:#1f77b4;stroke-width:0.5;"/>
    <path clip-path="url(#p04d0f493d2)" d="M 142.231315 203.904 
L 142.231315 209.527298 
" style="fill:none;stroke:#1f77b4;stroke-width:0.5;"/>
    <path clip-path="url(#p04d0f493d2)" d="M 143.073052 234.230467 
L 143.073052 240.44805 
" style="fill:none;stroke:#1f77b4;stroke-width:0.5;"/>
    <path clip-path="url(#p04d0f493d2)" d="M 143.918832 276.755337 
L 143.918832 284.050461 
" style="fill:none;stroke:#1f77b4;stroke-width:0.5;"/>
    <path clip-path="url(#p04d0f493d2)" d="M 144.76286 236.905474 
L 144.76286 243.18181 
" style="fill:none;stroke:#1f77b4;stroke-width:0.5;"/>
    <path clip-path="url(#p04d0f493d2)" d="M 145.612006 271.847509 
L 145.612006 279.001361 
" style="fill:none;stroke:#1f77b4;stroke-width:0.5;"/>
    <path clip-path="url(#p04d0f493d2)" d="M 155.771705 265.692693 
L 155.771705 272.676056 
" style="fill:none;stroke:#1f77b4;stroke-width:0.5;"/>
    <path clip-path="url(#p04d0f493d2)" d="M 163.21203 256.285499 
L 163.21203 263.022011 
" style="fill:none;stroke:#1f77b4;stroke-width:0.5;"/>
    <path clip-path="url(#p04d0f493d2)" d="M 164.180987 247.068926 
L 164.180987 253.578806 
" style="fill:none;stroke:#1f77b4;stroke-width:0.5;"/>
    <path clip-path="url(#p04d0f493d2)" d="M 165.042171 258.356905 
L 165.042171 265.146393 
" style="fill:none;stroke:#1f77b4;stroke-width:0.5;"/>
    <path clip-path="url(#p04d0f493d2)" d="M 170.943837 266.942294 
L 170.943837 273.959685 
" style="fill:none;stroke:#1f77b4;stroke-width:0.5;"/>
    <path clip-path="url(#p04d0f493d2)" d="M 173.496775 267.870866 
L 173.496775 274.913731 
" style="fill:none;stroke:#1f77b4;stroke-width:0.5;"/>
    <path clip-path="url(#p04d0f493d2)" d="M 207.146958 294.78928 
L 207.146958 302.646857 
" style="fill:none;stroke:#1f77b4;stroke-width:0.5;"/>
    <path clip-path="url(#p04d0f493d2)" d="M 210.529274 282.727925 
L 210.529274 290.201598 
" style="fill:none;stroke:#1f77b4;stroke-width:0.5;"/>
    <path clip-path="url(#p04d0f493d2)" d="M 218.978819 251.048275 
L 218.978819 257.654217 
" style="fill:none;stroke:#1f77b4;stroke-width:0.5;"/>
    <path clip-path="url(#p04d0f493d2)" d="M 346.082599 242.761985 
L 346.082599 249.170864 
" style="fill:none;stroke:#1f77b4;stroke-width:0.5;"/>
    <path clip-path="url(#p04d0f493d2)" d="M 379.139631 294.743681 
L 379.139631 302.599744 
" style="fill:none;stroke:#1f77b4;stroke-width:0.5;"/>
    <path clip-path="url(#p04d0f493d2)" d="M 396.853779 246.039832 
L 396.853779 252.525301 
" style="fill:none;stroke:#1f77b4;stroke-width:0.5;"/>
    <path clip-path="url(#p04d0f493d2)" d="M 396.854161 244.958377 
L 396.854161 251.418384 
" style="fill:none;stroke:#1f77b4;stroke-width:0.5;"/>
    <path clip-path="url(#p04d0f493d2)" d="M 397.677773 244.990079 
L 397.677773 251.450828 
" style="fill:none;stroke:#1f77b4;stroke-width:0.5;"/>
    <path clip-path="url(#p04d0f493d2)" d="M 397.678155 252.347777 
L 397.678155 258.985676 
" style="fill:none;stroke:#1f77b4;stroke-width:0.5;"/>
    <path clip-path="url(#p04d0f493d2)" d="M 398.486891 244.070793 
L 398.486891 250.510045 
" style="fill:none;stroke:#1f77b4;stroke-width:0.5;"/>
    <path clip-path="url(#p04d0f493d2)" d="M 398.487273 246.719952 
L 398.487273 253.221536 
" style="fill:none;stroke:#1f77b4;stroke-width:0.5;"/>
   </g>
   <g id="line2d_50">
    <path clip-path="url(#p04d0f493d2)" d="M 73.832727 265.671259 
L 73.833119 269.824449 
L 94.910293 255.853674 
L 94.910684 257.071161 
L 96.675449 247.214486 
L 99.185169 245.286261 
L 99.18789 256.566423 
L 100.021602 246.922265 
L 121.144305 283.302508 
L 121.988998 268.523764 
L 121.98938 275.855736 
L 123.69785 271.742898 
L 123.698242 270.838432 
L 125.362202 284.472877 
L 125.362594 284.203216 
L 126.199487 260.209369 
L 126.199878 253.794121 
L 127.090237 227.342741 
L 127.090618 235.531076 
L 127.899364 246.526295 
L 127.899756 241.683417 
L 128.744146 260.932642 
L 128.744527 267.056654 
L 136.360585 230.993203 
L 142.231315 206.715649 
L 143.073052 237.339258 
L 143.918832 280.402899 
L 144.76286 240.043642 
L 145.612006 275.424435 
L 155.771705 269.184375 
L 163.21203 259.653755 
L 164.180987 250.323866 
L 165.042171 261.751649 
L 170.943837 270.45099 
L 173.496775 271.392298 
L 207.146958 298.718069 
L 210.529274 286.464762 
L 218.978819 254.351246 
L 346.082599 245.966424 
L 379.139631 298.671713 
L 396.853779 249.282567 
L 396.854161 248.188381 
L 397.677773 248.220454 
L 397.678155 255.666726 
L 398.486891 247.290419 
L 398.487273 249.970744 
" style="fill:none;"/>
   </g>
   <g id="patch_14">
    <path d="M 57.6 307.584 
L 57.6 198.966857 
" style="fill:none;stroke:#000000;stroke-linecap:square;stroke-linejoin:miter;stroke-width:0.8;"/>
   </g>
   <g id="patch_15">
    <path d="M 414.72 307.584 
L 414.72 198.966857 
" style="fill:none;stroke:#000000;stroke-linecap:square;stroke-linejoin:miter;stroke-width:0.8;"/>
   </g>
   <g id="patch_16">
    <path d="M 57.6 307.584 
L 414.72 307.584 
" style="fill:none;stroke:#000000;stroke-linecap:square;stroke-linejoin:miter;stroke-width:0.8;"/>
   </g>
   <g id="patch_17">
    <path d="M 57.6 198.966857 
L 414.72 198.966857 
" style="fill:none;stroke:#000000;stroke-linecap:square;stroke-linejoin:miter;stroke-width:0.8;"/>
   </g>
   <g id="text_37">
    <!-- Light Curve -->
    <g transform="translate(206.000625 192.966857)scale(0.1 -0.1)">
     <use xlink:href="#DejaVuSerif-76"/>
     <use x="66.40625" xlink:href="#DejaVuSerif-105"/>
     <use x="98.388672" xlink:href="#DejaVuSerif-103"/>
     <use x="162.402344" xlink:href="#DejaVuSerif-104"/>
     <use x="226.806641" xlink:href="#DejaVuSerif-116"/>
     <use x="266.992188" xlink:href="#DejaVuSerif-32"/>
     <use x="298.779297" xlink:href="#DejaVuSerif-67"/>
     <use x="375.292969" xlink:href="#DejaVuSerif-117"/>
     <use x="439.697266" xlink:href="#DejaVuSerif-114"/>
     <use x="487.5" xlink:href="#DejaVuSerif-118"/>
     <use x="543.994141" xlink:href="#DejaVuSerif-101"/>
    </g>
   </g>
  </g>
 </g>
 <defs>
  <clipPath id="p0eddf2938d">
   <rect height="108.617143" width="148.8" x="265.92" y="41.472"/>
  </clipPath>
  <clipPath id="p0175fe8198">
   <rect height="108.617143" width="148.8" x="57.6" y="41.472"/>
  </clipPath>
  <clipPath id="p04d0f493d2">
   <rect height="108.617143" width="357.12" x="57.6" y="198.966857"/>
  </clipPath>
 </defs>
</svg>
