<?xml version="1.0" encoding="utf-8" standalone="no"?>
<!DOCTYPE svg PUBLIC "-//W3C//DTD SVG 1.1//EN"
  "http://www.w3.org/Graphics/SVG/1.1/DTD/svg11.dtd">
<!-- Created with matplotlib (https://matplotlib.org/) -->
<svg height="345.6pt" version="1.1" viewBox="0 0 460.8 345.6" width="460.8pt" xmlns="http://www.w3.org/2000/svg" xmlns:xlink="http://www.w3.org/1999/xlink">
 <metadata>
  <rdf:RDF xmlns:cc="http://creativecommons.org/ns#" xmlns:dc="http://purl.org/dc/elements/1.1/" xmlns:rdf="http://www.w3.org/1999/02/22-rdf-syntax-ns#">
   <cc:Work>
    <dc:type rdf:resource="http://purl.org/dc/dcmitype/StillImage"/>
    <dc:date>2021-02-16T16:29:45.674711</dc:date>
    <dc:format>image/svg+xml</dc:format>
    <dc:creator>
     <cc:Agent>
      <dc:title>Matplotlib v3.3.3, https://matplotlib.org/</dc:title>
     </cc:Agent>
    </dc:creator>
   </cc:Work>
  </rdf:RDF>
 </metadata>
 <defs>
  <style type="text/css">*{stroke-linecap:butt;stroke-linejoin:round;}</style>
 </defs>
 <g id="figure_1">
  <g id="patch_1">
   <path d="M 0 345.6 
L 460.8 345.6 
L 460.8 0 
L 0 0 
z
" style="fill:#ffffff;"/>
  </g>
  <g id="axes_1">
   <g id="patch_2">
    <path d="M 265.92 150.089143 
L 414.72 150.089143 
L 414.72 41.472 
L 265.92 41.472 
z
" style="fill:#ffffff;"/>
   </g>
   <g id="matplotlib.axis_1">
    <g id="xtick_1">
     <g id="line2d_1">
      <defs>
       <path d="M 0 0 
L 0 3.5 
" id="mac47f7ab93" style="stroke:#000000;stroke-width:0.8;"/>
      </defs>
      <g>
       <use style="stroke:#000000;stroke-width:0.8;" x="315.519224" xlink:href="#mac47f7ab93" y="150.089143"/>
      </g>
     </g>
     <g id="text_1">
      <!-- $\mathdefault{10^{1}}$ -->
      <g transform="translate(306.719224 164.68758)scale(0.1 -0.1)">
       <defs>
        <path d="M 14.203125 0 
L 14.203125 5.171875 
L 26.90625 5.171875 
L 26.90625 65.828125 
L 12.203125 56.296875 
L 12.203125 62.703125 
L 29.984375 74.21875 
L 36.71875 74.21875 
L 36.71875 5.171875 
L 49.421875 5.171875 
L 49.421875 0 
z
" id="DejaVuSerif-49"/>
        <path d="M 31.78125 3.421875 
Q 39.265625 3.421875 42.96875 11.625 
Q 46.6875 19.828125 46.6875 36.375 
Q 46.6875 52.984375 42.96875 61.1875 
Q 39.265625 69.390625 31.78125 69.390625 
Q 24.3125 69.390625 20.59375 61.1875 
Q 16.890625 52.984375 16.890625 36.375 
Q 16.890625 19.828125 20.59375 11.625 
Q 24.3125 3.421875 31.78125 3.421875 
z
M 31.78125 -1.421875 
Q 19.921875 -1.421875 13.25 8.53125 
Q 6.59375 18.5 6.59375 36.375 
Q 6.59375 54.296875 13.25 64.25 
Q 19.921875 74.21875 31.78125 74.21875 
Q 43.703125 74.21875 50.34375 64.25 
Q 56.984375 54.296875 56.984375 36.375 
Q 56.984375 18.5 50.34375 8.53125 
Q 43.703125 -1.421875 31.78125 -1.421875 
z
" id="DejaVuSerif-48"/>
       </defs>
       <use transform="translate(0 0.7125)" xlink:href="#DejaVuSerif-49"/>
       <use transform="translate(63.623047 0.7125)" xlink:href="#DejaVuSerif-48"/>
       <use transform="translate(128.154453 37.046875)scale(0.7)" xlink:href="#DejaVuSerif-49"/>
      </g>
     </g>
    </g>
    <g id="xtick_2">
     <g id="line2d_2">
      <g>
       <use style="stroke:#000000;stroke-width:0.8;" x="373.218149" xlink:href="#mac47f7ab93" y="150.089143"/>
      </g>
     </g>
     <g id="text_2">
      <!-- $\mathdefault{10^{2}}$ -->
      <g transform="translate(364.418149 164.68758)scale(0.1 -0.1)">
       <defs>
        <path d="M 12.796875 55.515625 
L 7.328125 55.515625 
L 7.328125 68.5 
Q 12.546875 71.296875 17.84375 72.75 
Q 23.140625 74.21875 28.21875 74.21875 
Q 39.59375 74.21875 46.1875 68.703125 
Q 52.78125 63.1875 52.78125 53.71875 
Q 52.78125 43.015625 37.84375 28.125 
Q 36.671875 27 36.078125 26.421875 
L 17.671875 8.015625 
L 48.09375 8.015625 
L 48.09375 17 
L 53.8125 17 
L 53.8125 0 
L 6.78125 0 
L 6.78125 5.328125 
L 28.90625 27.390625 
Q 36.234375 34.71875 39.359375 40.84375 
Q 42.484375 46.96875 42.484375 53.71875 
Q 42.484375 61.078125 38.640625 65.234375 
Q 34.8125 69.390625 28.078125 69.390625 
Q 21.09375 69.390625 17.28125 65.921875 
Q 13.484375 62.453125 12.796875 55.515625 
z
" id="DejaVuSerif-50"/>
       </defs>
       <use transform="translate(0 0.7125)" xlink:href="#DejaVuSerif-49"/>
       <use transform="translate(63.623047 0.7125)" xlink:href="#DejaVuSerif-48"/>
       <use transform="translate(128.154453 37.046875)scale(0.7)" xlink:href="#DejaVuSerif-50"/>
      </g>
     </g>
    </g>
    <g id="xtick_3">
     <g id="line2d_3">
      <defs>
       <path d="M 0 0 
L 0 2 
" id="mbc1471efd8" style="stroke:#000000;stroke-width:0.6;"/>
      </defs>
      <g>
       <use style="stroke:#000000;stroke-width:0.6;" x="275.189406" xlink:href="#mbc1471efd8" y="150.089143"/>
      </g>
     </g>
    </g>
    <g id="xtick_4">
     <g id="line2d_4">
      <g>
       <use style="stroke:#000000;stroke-width:0.6;" x="285.349683" xlink:href="#mbc1471efd8" y="150.089143"/>
      </g>
     </g>
    </g>
    <g id="xtick_5">
     <g id="line2d_5">
      <g>
       <use style="stroke:#000000;stroke-width:0.6;" x="292.558513" xlink:href="#mbc1471efd8" y="150.089143"/>
      </g>
     </g>
    </g>
    <g id="xtick_6">
     <g id="line2d_6">
      <g>
       <use style="stroke:#000000;stroke-width:0.6;" x="298.150117" xlink:href="#mbc1471efd8" y="150.089143"/>
      </g>
     </g>
    </g>
    <g id="xtick_7">
     <g id="line2d_7">
      <g>
       <use style="stroke:#000000;stroke-width:0.6;" x="302.71879" xlink:href="#mbc1471efd8" y="150.089143"/>
      </g>
     </g>
    </g>
    <g id="xtick_8">
     <g id="line2d_8">
      <g>
       <use style="stroke:#000000;stroke-width:0.6;" x="306.581548" xlink:href="#mbc1471efd8" y="150.089143"/>
      </g>
     </g>
    </g>
    <g id="xtick_9">
     <g id="line2d_9">
      <g>
       <use style="stroke:#000000;stroke-width:0.6;" x="309.927621" xlink:href="#mbc1471efd8" y="150.089143"/>
      </g>
     </g>
    </g>
    <g id="xtick_10">
     <g id="line2d_10">
      <g>
       <use style="stroke:#000000;stroke-width:0.6;" x="312.879066" xlink:href="#mbc1471efd8" y="150.089143"/>
      </g>
     </g>
    </g>
    <g id="xtick_11">
     <g id="line2d_11">
      <g>
       <use style="stroke:#000000;stroke-width:0.6;" x="332.888331" xlink:href="#mbc1471efd8" y="150.089143"/>
      </g>
     </g>
    </g>
    <g id="xtick_12">
     <g id="line2d_12">
      <g>
       <use style="stroke:#000000;stroke-width:0.6;" x="343.048608" xlink:href="#mbc1471efd8" y="150.089143"/>
      </g>
     </g>
    </g>
    <g id="xtick_13">
     <g id="line2d_13">
      <g>
       <use style="stroke:#000000;stroke-width:0.6;" x="350.257438" xlink:href="#mbc1471efd8" y="150.089143"/>
      </g>
     </g>
    </g>
    <g id="xtick_14">
     <g id="line2d_14">
      <g>
       <use style="stroke:#000000;stroke-width:0.6;" x="355.849042" xlink:href="#mbc1471efd8" y="150.089143"/>
      </g>
     </g>
    </g>
    <g id="xtick_15">
     <g id="line2d_15">
      <g>
       <use style="stroke:#000000;stroke-width:0.6;" x="360.417715" xlink:href="#mbc1471efd8" y="150.089143"/>
      </g>
     </g>
    </g>
    <g id="xtick_16">
     <g id="line2d_16">
      <g>
       <use style="stroke:#000000;stroke-width:0.6;" x="364.280473" xlink:href="#mbc1471efd8" y="150.089143"/>
      </g>
     </g>
    </g>
    <g id="xtick_17">
     <g id="line2d_17">
      <g>
       <use style="stroke:#000000;stroke-width:0.6;" x="367.626546" xlink:href="#mbc1471efd8" y="150.089143"/>
      </g>
     </g>
    </g>
    <g id="xtick_18">
     <g id="line2d_18">
      <g>
       <use style="stroke:#000000;stroke-width:0.6;" x="370.577991" xlink:href="#mbc1471efd8" y="150.089143"/>
      </g>
     </g>
    </g>
    <g id="xtick_19">
     <g id="line2d_19">
      <g>
       <use style="stroke:#000000;stroke-width:0.6;" x="390.587256" xlink:href="#mbc1471efd8" y="150.089143"/>
      </g>
     </g>
    </g>
    <g id="xtick_20">
     <g id="line2d_20">
      <g>
       <use style="stroke:#000000;stroke-width:0.6;" x="400.747533" xlink:href="#mbc1471efd8" y="150.089143"/>
      </g>
     </g>
    </g>
    <g id="xtick_21">
     <g id="line2d_21">
      <g>
       <use style="stroke:#000000;stroke-width:0.6;" x="407.956364" xlink:href="#mbc1471efd8" y="150.089143"/>
      </g>
     </g>
    </g>
    <g id="xtick_22">
     <g id="line2d_22">
      <g>
       <use style="stroke:#000000;stroke-width:0.6;" x="413.547967" xlink:href="#mbc1471efd8" y="150.089143"/>
      </g>
     </g>
    </g>
    <g id="text_3">
     <!-- Period d -->
     <g transform="translate(319.231719 178.365705)scale(0.1 -0.1)">
      <defs>
       <path d="M 24.703125 37.109375 
L 37.59375 37.109375 
Q 44.875 37.109375 48.671875 41.03125 
Q 52.484375 44.96875 52.484375 52.390625 
Q 52.484375 59.859375 48.671875 63.765625 
Q 44.875 67.671875 37.59375 67.671875 
L 24.703125 67.671875 
z
M 5.515625 0 
L 5.515625 5.171875 
L 14.796875 5.171875 
L 14.796875 67.671875 
L 5.515625 67.671875 
L 5.515625 72.90625 
L 39.984375 72.90625 
Q 50.921875 72.90625 57.3125 67.359375 
Q 63.71875 61.8125 63.71875 52.390625 
Q 63.71875 43.015625 57.3125 37.453125 
Q 50.921875 31.890625 39.984375 31.890625 
L 24.703125 31.890625 
L 24.703125 5.171875 
L 35.984375 5.171875 
L 35.984375 0 
z
" id="DejaVuSerif-80"/>
       <path d="M 54.203125 25 
L 15.484375 25 
L 15.484375 24.609375 
Q 15.484375 14.109375 19.4375 8.765625 
Q 23.390625 3.421875 31.109375 3.421875 
Q 37.015625 3.421875 40.796875 6.515625 
Q 44.578125 9.625 46.09375 15.71875 
L 53.328125 15.71875 
Q 51.171875 7.171875 45.375 2.875 
Q 39.59375 -1.421875 30.171875 -1.421875 
Q 18.796875 -1.421875 11.890625 6.078125 
Q 4.984375 13.578125 4.984375 25.984375 
Q 4.984375 38.28125 11.765625 45.796875 
Q 18.5625 53.328125 29.59375 53.328125 
Q 41.359375 53.328125 47.65625 46.0625 
Q 53.953125 38.8125 54.203125 25 
z
M 43.609375 30.171875 
Q 43.3125 39.265625 39.765625 43.875 
Q 36.234375 48.484375 29.59375 48.484375 
Q 23.390625 48.484375 19.828125 43.84375 
Q 16.265625 39.203125 15.484375 30.171875 
z
" id="DejaVuSerif-101"/>
       <path d="M 47.796875 52 
L 47.796875 39.015625 
L 42.625 39.015625 
Q 42.390625 42.875 40.484375 44.78125 
Q 38.578125 46.6875 34.90625 46.6875 
Q 28.265625 46.6875 24.71875 42.09375 
Q 21.1875 37.5 21.1875 28.90625 
L 21.1875 5.171875 
L 31.59375 5.171875 
L 31.59375 0 
L 4.109375 0 
L 4.109375 5.171875 
L 12.203125 5.171875 
L 12.203125 46.78125 
L 3.609375 46.78125 
L 3.609375 51.90625 
L 21.1875 51.90625 
L 21.1875 42.671875 
Q 23.828125 48.09375 27.96875 50.703125 
Q 32.125 53.328125 38.09375 53.328125 
Q 40.28125 53.328125 42.703125 52.984375 
Q 45.125 52.640625 47.796875 52 
z
" id="DejaVuSerif-114"/>
       <path d="M 9.71875 68.015625 
Q 9.71875 70.265625 11.34375 71.921875 
Q 12.984375 73.578125 15.28125 73.578125 
Q 17.53125 73.578125 19.15625 71.921875 
Q 20.796875 70.265625 20.796875 68.015625 
Q 20.796875 65.71875 19.1875 64.109375 
Q 17.578125 62.5 15.28125 62.5 
Q 12.984375 62.5 11.34375 64.109375 
Q 9.71875 65.71875 9.71875 68.015625 
z
M 21.1875 5.171875 
L 29.6875 5.171875 
L 29.6875 0 
L 3.609375 0 
L 3.609375 5.171875 
L 12.203125 5.171875 
L 12.203125 46.6875 
L 3.609375 46.6875 
L 3.609375 51.90625 
L 21.1875 51.90625 
z
" id="DejaVuSerif-105"/>
       <path d="M 30.078125 3.421875 
Q 37.3125 3.421875 40.984375 9.125 
Q 44.671875 14.84375 44.671875 25.984375 
Q 44.671875 37.109375 40.984375 42.796875 
Q 37.3125 48.484375 30.078125 48.484375 
Q 22.859375 48.484375 19.171875 42.796875 
Q 15.484375 37.109375 15.484375 25.984375 
Q 15.484375 14.84375 19.1875 9.125 
Q 22.90625 3.421875 30.078125 3.421875 
z
M 30.078125 -1.421875 
Q 18.75 -1.421875 11.859375 6.078125 
Q 4.984375 13.578125 4.984375 25.984375 
Q 4.984375 38.375 11.84375 45.84375 
Q 18.703125 53.328125 30.078125 53.328125 
Q 41.453125 53.328125 48.3125 45.84375 
Q 55.171875 38.375 55.171875 25.984375 
Q 55.171875 13.578125 48.3125 6.078125 
Q 41.453125 -1.421875 30.078125 -1.421875 
z
" id="DejaVuSerif-111"/>
       <path d="M 52.484375 5.171875 
L 61.078125 5.171875 
L 61.078125 0 
L 43.5 0 
L 43.5 8.109375 
Q 40.875 3.21875 36.796875 0.890625 
Q 32.71875 -1.421875 26.703125 -1.421875 
Q 17.140625 -1.421875 11.0625 6.171875 
Q 4.984375 13.765625 4.984375 25.984375 
Q 4.984375 38.1875 11.03125 45.75 
Q 17.09375 53.328125 26.703125 53.328125 
Q 32.71875 53.328125 36.796875 51 
Q 40.875 48.6875 43.5 43.796875 
L 43.5 70.796875 
L 35.015625 70.796875 
L 35.015625 75.984375 
L 52.484375 75.984375 
z
M 43.5 23.390625 
L 43.5 28.515625 
Q 43.5 37.84375 39.90625 42.765625 
Q 36.328125 47.703125 29.5 47.703125 
Q 22.5625 47.703125 19.015625 42.234375 
Q 15.484375 36.765625 15.484375 25.984375 
Q 15.484375 15.234375 19.015625 9.71875 
Q 22.5625 4.203125 29.5 4.203125 
Q 36.328125 4.203125 39.90625 9.109375 
Q 43.5 14.015625 43.5 23.390625 
z
" id="DejaVuSerif-100"/>
       <path id="DejaVuSerif-32"/>
      </defs>
      <use xlink:href="#DejaVuSerif-80"/>
      <use x="62.785156" xlink:href="#DejaVuSerif-101"/>
      <use x="121.964844" xlink:href="#DejaVuSerif-114"/>
      <use x="169.767578" xlink:href="#DejaVuSerif-105"/>
      <use x="201.75" xlink:href="#DejaVuSerif-111"/>
      <use x="261.955078" xlink:href="#DejaVuSerif-100"/>
      <use x="325.96875" xlink:href="#DejaVuSerif-32"/>
      <use x="357.755859" xlink:href="#DejaVuSerif-100"/>
     </g>
    </g>
   </g>
   <g id="matplotlib.axis_2">
    <g id="ytick_1">
     <g id="line2d_23">
      <defs>
       <path d="M 0 0 
L -3.5 0 
" id="m15ef657d06" style="stroke:#000000;stroke-width:0.8;"/>
      </defs>
      <g>
       <use style="stroke:#000000;stroke-width:0.8;" x="265.92" xlink:href="#m15ef657d06" y="145.167326"/>
      </g>
     </g>
     <g id="text_4">
      <!-- 0.0 -->
      <g transform="translate(243.016875 148.966545)scale(0.1 -0.1)">
       <defs>
        <path d="M 9.421875 5.078125 
Q 9.421875 7.8125 11.28125 9.71875 
Q 13.140625 11.625 15.921875 11.625 
Q 18.609375 11.625 20.5 9.71875 
Q 22.40625 7.8125 22.40625 5.078125 
Q 22.40625 2.390625 20.5 0.484375 
Q 18.609375 -1.421875 15.921875 -1.421875 
Q 13.140625 -1.421875 11.28125 0.453125 
Q 9.421875 2.34375 9.421875 5.078125 
z
" id="DejaVuSerif-46"/>
       </defs>
       <use xlink:href="#DejaVuSerif-48"/>
       <use x="63.623047" xlink:href="#DejaVuSerif-46"/>
       <use x="95.410156" xlink:href="#DejaVuSerif-48"/>
      </g>
     </g>
    </g>
    <g id="ytick_2">
     <g id="line2d_24">
      <g>
       <use style="stroke:#000000;stroke-width:0.8;" x="265.92" xlink:href="#m15ef657d06" y="102.801672"/>
      </g>
     </g>
     <g id="text_5">
      <!-- 0.2 -->
      <g transform="translate(243.016875 106.600891)scale(0.1 -0.1)">
       <use xlink:href="#DejaVuSerif-48"/>
       <use x="63.623047" xlink:href="#DejaVuSerif-46"/>
       <use x="95.410156" xlink:href="#DejaVuSerif-50"/>
      </g>
     </g>
    </g>
    <g id="ytick_3">
     <g id="line2d_25">
      <g>
       <use style="stroke:#000000;stroke-width:0.8;" x="265.92" xlink:href="#m15ef657d06" y="60.436018"/>
      </g>
     </g>
     <g id="text_6">
      <!-- 0.4 -->
      <g transform="translate(243.016875 64.235237)scale(0.1 -0.1)">
       <defs>
        <path d="M 34.90625 24.703125 
L 34.90625 63.484375 
L 10.015625 24.703125 
z
M 56.390625 0 
L 23.1875 0 
L 23.1875 5.171875 
L 34.90625 5.171875 
L 34.90625 19.484375 
L 3.078125 19.484375 
L 3.078125 24.8125 
L 35.015625 74.21875 
L 44.671875 74.21875 
L 44.671875 24.703125 
L 58.59375 24.703125 
L 58.59375 19.484375 
L 44.671875 19.484375 
L 44.671875 5.171875 
L 56.390625 5.171875 
z
" id="DejaVuSerif-52"/>
       </defs>
       <use xlink:href="#DejaVuSerif-48"/>
       <use x="63.623047" xlink:href="#DejaVuSerif-46"/>
       <use x="95.410156" xlink:href="#DejaVuSerif-52"/>
      </g>
     </g>
    </g>
    <g id="text_7">
     <!-- Power -->
     <g transform="translate(236.937188 111.583696)rotate(-90)scale(0.1 -0.1)">
      <defs>
       <path d="M 48 51.90625 
L 61.28125 11.375 
L 73 46.6875 
L 65.484375 46.6875 
L 65.484375 51.90625 
L 84.28125 51.90625 
L 84.28125 46.6875 
L 78.515625 46.6875 
L 63.09375 0 
L 55.609375 0 
L 42.828125 38.8125 
L 29.984375 0 
L 22.796875 0 
L 7.421875 46.6875 
L 1.609375 46.6875 
L 1.609375 51.90625 
L 25.09375 51.90625 
L 25.09375 46.6875 
L 16.703125 46.6875 
L 28.328125 11.375 
L 41.703125 51.90625 
z
" id="DejaVuSerif-119"/>
      </defs>
      <use xlink:href="#DejaVuSerif-80"/>
      <use x="63.285156" xlink:href="#DejaVuSerif-111"/>
      <use x="123.490234" xlink:href="#DejaVuSerif-119"/>
      <use x="209.085938" xlink:href="#DejaVuSerif-101"/>
      <use x="268.265625" xlink:href="#DejaVuSerif-114"/>
     </g>
    </g>
   </g>
   <g id="LineCollection_1">
    <path clip-path="url(#p3460a4e4e6)" d="M 272.688076 46.409143 
L 407.956364 46.409143 
" style="fill:none;stroke:#808080;stroke-dasharray:5.55,2.4;stroke-dashoffset:0;stroke-width:1.5;"/>
   </g>
   <g id="LineCollection_2">
    <path clip-path="url(#p3460a4e4e6)" d="M 272.688076 60.346672 
L 407.956364 60.346672 
" style="fill:none;stroke:#a9a9a9;stroke-dasharray:5.55,2.4;stroke-dashoffset:0;stroke-width:1.5;"/>
   </g>
   <g id="LineCollection_3">
    <path clip-path="url(#p3460a4e4e6)" d="M 272.688076 71.321176 
L 407.956364 71.321176 
" style="fill:none;stroke:#c0c0c0;stroke-dasharray:5.55,2.4;stroke-dashoffset:0;stroke-width:1.5;"/>
   </g>
   <g id="LineCollection_4">
    <path clip-path="url(#p3460a4e4e6)" d="M 272.688076 76.505279 
L 407.956364 76.505279 
" style="fill:none;stroke:#d3d3d3;stroke-dasharray:5.55,2.4;stroke-dashoffset:0;stroke-width:1.5;"/>
   </g>
   <g id="line2d_26">
    <path clip-path="url(#p3460a4e4e6)" d="M 407.956364 139.080355 
L 403.213616 137.776276 
L 399.227255 137.751298 
L 395.788878 143.015795 
L 392.765875 143.591984 
L 390.068617 135.432242 
L 387.633683 123.094731 
L 385.414539 115.814263 
L 383.376032 114.324953 
L 381.490955 124.637802 
L 379.73782 126.414345 
L 378.099359 107.498429 
L 376.561486 96.619244 
L 375.112563 103.556463 
L 372.444161 125.494589 
L 371.209467 115.328343 
L 370.032763 81.240276 
L 368.908846 72.751318 
L 367.833182 86.090122 
L 365.811193 129.83236 
L 364.858264 126.687306 
L 363.940249 99.248846 
L 363.054681 87.13817 
L 362.199344 85.181231 
L 361.372241 88.569722 
L 360.571569 107.604476 
L 359.79569 138.054594 
L 359.043114 130.633914 
L 358.312483 105.101269 
L 357.602554 76.12579 
L 356.912184 67.336559 
L 356.240326 93.687736 
L 355.586012 139.797245 
L 354.948349 138.501127 
L 354.326511 122.693703 
L 353.719731 111.146472 
L 353.127298 112.089251 
L 352.548548 130.42908 
L 351.982864 137.466027 
L 351.429669 115.932864 
L 350.888423 102.801121 
L 350.358621 96.208771 
L 349.839788 105.349521 
L 349.331481 126.024667 
L 348.83328 131.007178 
L 348.344791 107.005734 
L 347.865643 93.542567 
L 347.395485 95.615561 
L 346.933987 109.042717 
L 346.480834 129.790306 
L 346.035731 142.834512 
L 345.598396 133.593403 
L 345.168563 115.541114 
L 344.745979 107.113802 
L 344.330404 108.1661 
L 343.921608 117.668131 
L 343.519374 135.460371 
L 343.123495 141.087634 
L 342.733774 116.784279 
L 342.35002 85.777804 
L 341.972055 64.682936 
L 341.599707 63.418677 
L 341.23281 86.630676 
L 340.871208 117.078915 
L 340.51475 115.726701 
L 339.816694 73.24611 
L 339.474825 68.1917 
L 339.137558 85.655168 
L 338.80477 116.327409 
L 338.476344 124.580765 
L 338.152167 125.995039 
L 337.83213 123.507396 
L 337.516128 123.243938 
L 337.204063 136.023665 
L 336.895836 142.527799 
L 336.290527 138.011484 
L 335.993269 138.74113 
L 335.699496 142.741685 
L 335.409128 143.149535 
L 334.838294 133.930094 
L 334.55768 135.104443 
L 334.005708 144.402258 
L 333.734215 144.533347 
L 333.199898 135.116241 
L 332.936952 133.681705 
L 332.419196 144.47706 
L 332.164275 143.418317 
L 331.911921 134.10251 
L 331.414712 108.852054 
L 331.169759 115.500124 
L 330.927177 131.577781 
L 330.686922 134.137446 
L 330.213212 112.576568 
L 329.979673 110.216608 
L 329.748291 118.240144 
L 329.519026 132.743536 
L 329.29184 137.068087 
L 328.843554 120.366985 
L 328.622384 124.075832 
L 328.185814 144.261599 
L 327.970348 143.989129 
L 327.544897 124.094601 
L 327.33485 125.284476 
L 326.919965 140.896794 
L 326.71507 143.80782 
L 326.511837 139.863227 
L 326.11025 123.292523 
L 325.911845 119.678404 
L 325.714998 126.627002 
L 325.519686 140.513946 
L 325.325884 144.107032 
L 324.753312 117.497157 
L 324.378739 142.482043 
L 324.193532 141.043655 
L 323.827173 106.484112 
L 323.645984 103.796789 
L 323.287487 137.862696 
L 323.110144 130.441438 
L 322.75918 102.295907 
L 322.585524 102.837046 
L 322.241781 137.989442 
L 322.071662 134.816442 
L 321.73485 114.832852 
L 321.568126 116.10575 
L 321.402505 122.521335 
L 321.07451 143.308728 
L 320.912109 134.600811 
L 320.59043 101.30336 
L 320.431126 97.193109 
L 319.959202 140.120987 
L 319.496001 105.022545 
L 319.343484 114.479197 
L 319.041207 143.951417 
L 318.891425 142.104581 
L 318.594521 133.016853 
L 318.447378 135.520754 
L 318.155658 144.642598 
L 317.867296 145.027255 
L 317.724349 144.564087 
L 317.44088 142.258616 
L 317.300339 142.679142 
L 317.160581 144.300132 
L 317.021599 143.597704 
L 316.745926 137.32114 
L 316.609219 137.159726 
L 316.338021 144.22795 
L 315.936649 142.874514 
L 315.804275 143.243613 
L 315.672596 139.694695 
L 315.411296 127.18126 
L 315.024386 144.02416 
L 314.643358 123.499063 
L 314.517626 128.317176 
L 314.268038 144.194071 
L 313.898256 133.936314 
L 313.654732 144.627901 
L 313.533852 144.095558 
L 313.174672 130.884559 
L 312.820567 143.097496 
L 312.703635 141.258602 
L 312.471396 128.506901 
L 312.24129 135.652199 
L 312.127024 135.330453 
L 312.013277 133.629199 
L 311.900044 126.351186 
L 311.78732 127.450048 
L 311.563383 144.151376 
L 311.452161 137.375967 
L 311.231186 97.295374 
L 311.121425 102.951089 
L 310.903334 142.388317 
L 310.794997 141.61152 
L 310.472767 113.460981 
L 310.154628 144.970571 
L 309.840478 130.230801 
L 309.73663 131.291149 
L 309.427645 143.360718 
L 309.122423 101.134203 
L 309.021503 109.219457 
L 308.820874 136.267407 
L 308.621839 99.847588 
L 308.522911 83.191827 
L 308.424372 89.551764 
L 308.228449 138.905596 
L 308.13106 135.879034 
L 307.937408 107.644262 
L 307.84114 116.12423 
L 307.649708 143.769848 
L 307.365274 131.250725 
L 307.177429 143.566208 
L 307.084032 143.217289 
L 306.898275 139.630276 
L 306.713886 144.566098 
L 306.622198 143.247141 
L 306.439822 135.050338 
L 306.349129 135.661099 
L 306.168722 144.545685 
L 306.079003 142.61326 
L 305.811759 121.185575 
L 305.547334 145.075587 
L 305.285671 124.315266 
L 305.199054 127.518327 
L 304.940984 143.956848 
L 304.685544 134.259415 
L 304.600973 135.244217 
L 304.432682 144.51647 
L 304.348959 142.919024 
L 304.099454 121.413352 
L 303.934487 143.051486 
L 303.852409 138.614124 
L 303.689056 115.45128 
L 303.446004 144.387905 
L 303.28527 104.692043 
L 303.205288 106.026619 
L 303.046086 143.626091 
L 302.966862 128.530549 
L 302.809162 71.62357 
L 302.730683 79.497411 
L 302.574458 138.518602 
L 302.49671 133.604499 
L 302.341932 81.441545 
L 302.264901 92.128446 
L 302.111544 143.48109 
L 302.035216 139.630499 
L 301.883255 115.121606 
L 301.732209 136.398535 
L 301.657027 144.561915 
L 301.582069 143.337142 
L 301.432822 130.428944 
L 301.358531 130.90871 
L 301.06355 144.21216 
L 300.844571 123.390154 
L 300.772001 127.393199 
L 300.627488 144.2449 
L 300.555543 142.59272 
L 300.41227 135.595449 
L 300.198885 143.037665 
L 300.057631 135.021702 
L 299.987302 137.04216 
L 299.77749 144.681364 
L 299.638585 137.456808 
L 299.56942 138.273535 
L 299.431661 143.732209 
L 299.294655 132.835877 
L 299.226432 133.225851 
L 299.09054 140.013961 
L 298.888074 100.55143 
L 298.820947 113.571318 
L 298.687231 134.122475 
L 298.487985 83.845873 
L 298.290311 143.205811 
L 298.094184 105.937134 
L 297.96428 144.323889 
L 297.89958 140.819427 
L 297.770679 118.600365 
L 297.578561 143.394622 
L 297.514848 136.486298 
L 297.451297 132.873825 
L 297.387906 134.869581 
L 297.261603 143.00303 
L 297.135934 135.834797 
L 297.010892 139.361649 
L 296.886471 132.220821 
L 296.824491 132.588779 
L 296.70099 140.565382 
L 296.516872 117.691774 
L 296.334097 142.462516 
L 296.212983 94.368541 
L 296.152645 95.301007 
L 295.972498 144.075445 
L 295.793636 100.13181 
L 295.616043 140.714521 
L 295.557123 139.426636 
L 295.439699 118.288845 
L 295.381192 121.675611 
L 295.264587 143.486731 
L 295.206487 138.315745 
L 295.090691 128.02843 
L 294.975427 143.592895 
L 294.917993 138.564067 
L 294.803519 121.156941 
L 294.632782 144.396595 
L 294.5196 128.316012 
L 294.463201 131.760199 
L 294.350781 144.970126 
L 294.183091 120.515614 
L 294.127442 127.861772 
L 294.016515 143.094995 
L 293.906077 133.225329 
L 293.85104 136.005964 
L 293.741328 143.561422 
L 293.686651 143.300557 
L 293.577654 144.589367 
L 293.415042 124.557531 
L 293.361072 132.035042 
L 293.253479 144.330626 
L 293.092951 122.430489 
L 292.9865 144.970249 
L 292.933444 135.223174 
L 292.827668 101.674446 
L 292.774947 108.377398 
L 292.669836 145.02689 
L 292.617446 135.503501 
L 292.512992 110.630018 
L 292.357124 143.714876 
L 292.305382 137.514659 
L 292.253748 129.781736 
L 292.202219 130.925113 
L 292.099478 144.117027 
L 292.048266 142.733145 
L 291.895253 113.669216 
L 291.743168 143.010479 
L 291.592001 103.069487 
L 291.541814 115.132082 
L 291.441741 144.74423 
L 291.391854 138.441537 
L 291.292376 124.367165 
L 291.242785 126.373901 
L 291.143896 139.333476 
L 290.996291 131.011267 
L 290.947282 131.983045 
L 290.752198 143.824305 
L 290.703664 141.920052 
L 290.606876 123.542558 
L 290.558622 126.009692 
L 290.462392 143.249285 
L 290.414415 142.473523 
L 290.318735 135.76654 
L 290.22342 144.893834 
L 290.175898 143.54875 
L 290.081123 138.279564 
L 289.986706 144.753214 
L 289.845744 126.088661 
L 289.798932 131.670776 
L 289.70557 143.894041 
L 289.612554 128.39244 
L 289.566176 130.166735 
L 289.473675 145.060548 
L 289.427552 142.30953 
L 289.335561 132.382878 
L 289.289692 137.287755 
L 289.198205 145.069415 
L 289.152586 143.048475 
L 289.061597 140.168462 
L 289.016226 141.379508 
L 288.92573 144.704365 
L 288.880604 142.758674 
L 288.790596 135.755633 
L 288.745712 136.059089 
L 288.656186 143.977823 
L 288.522494 123.472478 
L 288.478087 126.504354 
L 288.389511 143.383408 
L 288.25723 107.350056 
L 288.213291 114.267944 
L 288.125643 144.545195 
L 288.081934 134.777398 
L 287.994745 101.915074 
L 287.951263 112.812867 
L 287.82127 144.129306 
L 287.691947 121.827811 
L 287.648987 124.895479 
L 287.563288 144.968263 
L 287.520548 140.717556 
L 287.435287 115.67937 
L 287.392765 124.058999 
L 287.307936 144.304357 
L 287.265629 131.749392 
L 287.181229 102.497948 
L 287.139135 118.134815 
L 287.05516 144.495034 
L 287.013277 133.380876 
L 286.929721 109.019307 
L 286.888048 124.851733 
L 286.804908 141.92866 
L 286.763441 141.575135 
L 286.680713 136.580897 
L 286.639451 138.428393 
L 286.598257 139.050286 
L 286.516071 142.213387 
L 286.475079 141.051603 
L 286.393296 136.972245 
L 286.352504 138.766687 
L 286.271119 143.235869 
L 286.189998 133.210115 
L 286.149536 134.515225 
L 286.068806 143.195539 
L 286.028539 139.900249 
L 285.988336 134.329626 
L 285.948198 135.847443 
L 285.868114 145.10941 
L 285.828167 139.363788 
L 285.748465 122.058399 
L 285.708709 129.772161 
L 285.629385 143.907828 
L 285.589817 135.532066 
L 285.510868 122.024662 
L 285.392909 144.149459 
L 285.353713 140.256476 
L 285.314578 138.10434 
L 285.275503 140.836516 
L 285.197537 144.263358 
L 285.158645 141.473687 
L 285.119812 138.396186 
L 285.042328 139.794183 
L 284.965083 144.584878 
L 284.926549 144.266772 
L 284.811303 122.932096 
L 284.773005 129.457579 
L 284.696584 144.177612 
L 284.658461 139.278786 
L 284.582388 122.972047 
L 284.544439 127.648496 
L 284.468711 141.380888 
L 284.430932 135.087569 
L 284.355546 116.018452 
L 284.317938 121.917996 
L 284.24289 143.160006 
L 284.205451 142.045804 
L 284.093466 117.468045 
L 284.056249 121.825767 
L 283.98198 144.801944 
L 283.944928 142.070876 
L 283.870987 121.102357 
L 283.834099 126.060204 
L 283.760485 143.769917 
L 283.723758 132.974992 
L 283.650467 116.361883 
L 283.613901 129.775058 
L 283.577389 141.608388 
L 283.54093 139.604856 
L 283.46817 115.396771 
L 283.43187 120.043342 
L 283.359426 145.133559 
L 283.323282 138.993142 
L 283.251151 128.260446 
L 283.215163 136.553135 
L 283.179227 144.35935 
L 283.107508 137.354169 
L 283.071726 131.872609 
L 283.035995 134.003621 
L 282.964685 144.426453 
L 282.893577 142.217773 
L 282.822671 145.152 
L 282.787292 143.892934 
L 282.751964 142.0505 
L 282.681457 143.818553 
L 282.646277 144.203206 
L 282.576066 139.886404 
L 282.541034 141.827475 
L 282.506051 144.729889 
L 282.471117 144.321908 
L 282.401394 132.984312 
L 282.366605 134.111431 
L 282.297172 144.893706 
L 282.262528 142.984938 
L 282.193382 129.831376 
L 282.158881 133.709488 
L 282.09002 142.185239 
L 282.021348 138.164198 
L 281.987083 137.635261 
L 281.884566 143.771001 
L 281.782468 132.760809 
L 281.748527 134.688445 
L 281.680784 144.078489 
L 281.64698 136.463521 
L 281.57951 118.08144 
L 281.545843 129.044025 
L 281.512222 143.260579 
L 281.445113 127.880916 
L 281.411626 112.779664 
L 281.344786 132.693921 
L 281.311432 144.907233 
L 281.278123 136.860337 
L 281.211638 111.220308 
L 281.178461 116.488874 
L 281.112239 143.770945 
L 281.046192 133.201949 
L 281.013234 129.605639 
L 280.980318 134.811168 
L 280.947446 136.57161 
L 280.914617 131.47726 
L 280.849088 136.659681 
L 280.78373 143.986133 
L 280.751115 136.085873 
L 280.718542 129.254051 
L 280.686011 131.882299 
L 280.621076 144.457633 
L 280.588672 136.946473 
L 280.523988 126.378347 
L 280.491709 134.559542 
L 280.459471 139.721576 
L 280.427275 135.157626 
L 280.363006 118.522379 
L 280.330934 125.267553 
L 280.266911 140.795998 
L 280.234961 134.527557 
L 280.171183 125.852264 
L 280.139355 134.304813 
L 280.107567 143.226939 
L 280.044112 135.802698 
L 279.980818 129.691898 
L 279.94923 134.863892 
L 279.886175 144.190257 
L 279.854706 141.903535 
L 279.791887 135.0055 
L 279.760537 136.924371 
L 279.697954 143.001106 
L 279.635526 140.589772 
L 279.542176 144.696671 
L 279.511136 142.964603 
L 279.449172 139.229596 
L 279.418247 139.495918 
L 279.356512 143.832815 
L 279.294928 141.854225 
L 279.202836 135.824706 
L 279.172213 136.628256 
L 279.11108 143.117069 
L 279.08057 140.714819 
L 279.01966 127.212507 
L 278.98926 132.712506 
L 278.928572 143.728046 
L 278.898282 130.553222 
L 278.837813 106.453742 
L 278.807633 121.794333 
L 278.77749 139.668956 
L 278.717311 125.417671 
L 278.687276 117.509487 
L 278.657277 119.579689 
L 278.597386 141.530363 
L 278.567494 129.083492 
L 278.507817 112.09833 
L 278.478032 124.172171 
L 278.448282 140.659975 
L 278.388888 123.430949 
L 278.329634 109.776966 
L 278.30006 124.879471 
L 278.241016 143.85018 
L 278.18211 134.091263 
L 278.152709 132.508069 
L 278.123343 132.956991 
L 278.064713 141.17599 
L 278.03545 135.638135 
L 277.977025 133.055143 
L 277.947864 134.131156 
L 277.889643 144.734346 
L 277.831556 135.744875 
L 277.773605 125.83986 
L 277.744679 133.563606 
L 277.686927 139.367575 
L 277.629309 137.7142 
L 277.543128 143.750769 
L 277.485839 139.611932 
L 277.457243 139.749077 
L 277.40015 144.184504 
L 277.371652 140.734367 
L 277.257983 126.716704 
L 277.229646 131.92235 
L 277.201341 138.168872 
L 277.173068 131.812821 
L 277.116617 117.881409 
L 277.060294 128.771164 
L 277.032179 136.343853 
L 276.976045 129.979196 
L 276.948025 129.021332 
L 276.920036 131.145917 
L 276.892079 133.980845 
L 276.836257 113.32553 
L 276.780559 121.479364 
L 276.724985 133.915408 
L 276.697244 120.216155 
L 276.669534 112.830655 
L 276.614205 125.382404 
L 276.558999 144.275405 
L 276.503913 127.583415 
L 276.448949 133.758037 
L 276.394104 144.413088 
L 276.366727 134.349368 
L 276.284775 121.385004 
L 276.257517 128.807817 
L 276.203089 141.378614 
L 276.17592 129.82417 
L 276.14878 120.321012 
L 276.094588 128.295169 
L 276.040513 140.317653 
L 275.986554 127.282153 
L 275.932712 135.378891 
L 275.905834 142.23371 
L 275.878985 135.657427 
L 275.825372 123.08012 
L 275.771875 132.905205 
L 275.745168 142.312794 
L 275.691841 130.854776 
L 275.638628 120.277261 
L 275.612063 122.124446 
L 275.559018 143.7352 
L 275.506086 127.141398 
L 275.453264 113.122684 
L 275.426896 127.206533 
L 275.400554 138.327871 
L 275.347955 128.664615 
L 275.295466 113.220856 
L 275.243086 128.782517 
L 275.138655 124.524638 
L 275.112615 128.537386 
L 275.086602 121.048046 
L 275.034656 125.22314 
L 274.982819 132.026106 
L 274.95694 128.436155 
L 274.931088 116.243158 
L 274.879464 125.026181 
L 274.827946 140.314379 
L 274.776534 127.158001 
L 274.750867 124.38654 
L 274.725226 127.295716 
L 274.648462 141.290372 
L 274.622927 132.959671 
L 274.571933 124.582141 
L 274.521042 132.931932 
L 274.495636 137.73894 
L 274.470255 131.893721 
L 274.419571 124.861727 
L 274.394267 130.514171 
L 274.343736 142.496556 
L 274.293307 128.251192 
L 274.26813 129.035155 
L 274.217853 144.887398 
L 274.167676 130.92601 
L 274.117599 123.496987 
L 274.092598 128.160659 
L 274.042671 145.124031 
L 273.992843 128.352372 
L 273.943115 108.833468 
L 273.893484 134.065052 
L 273.868706 144.318141 
L 273.819223 124.782227 
L 273.794518 119.315188 
L 273.769837 124.165423 
L 273.74518 139.29788 
L 273.69594 121.127132 
L 273.646797 103.917465 
L 273.622261 112.698865 
L 273.597749 127.961126 
L 273.548797 110.998421 
L 273.524357 111.016732 
L 273.329691 142.866311 
L 273.305463 136.522377 
L 273.257079 124.514251 
L 273.208788 132.7585 
L 273.160589 142.744674 
L 273.112483 135.963244 
L 273.06447 132.462065 
L 273.040497 136.245625 
L 272.992621 143.358537 
L 272.920978 142.700994 
L 272.897142 143.285735 
L 272.873329 141.461296 
L 272.849539 138.464755 
L 272.778303 142.488038 
L 272.754603 141.835778 
L 272.683636 125.965232 
L 272.683636 125.965232 
" style="fill:none;stroke:#1f77b4;stroke-linecap:square;stroke-width:1.5;"/>
   </g>
   <g id="patch_3">
    <path d="M 265.92 150.089143 
L 265.92 41.472 
" style="fill:none;stroke:#000000;stroke-linecap:square;stroke-linejoin:miter;stroke-width:0.8;"/>
   </g>
   <g id="patch_4">
    <path d="M 414.72 150.089143 
L 414.72 41.472 
" style="fill:none;stroke:#000000;stroke-linecap:square;stroke-linejoin:miter;stroke-width:0.8;"/>
   </g>
   <g id="patch_5">
    <path d="M 265.92 150.089143 
L 414.72 150.089143 
" style="fill:none;stroke:#000000;stroke-linecap:square;stroke-linejoin:miter;stroke-width:0.8;"/>
   </g>
   <g id="patch_6">
    <path d="M 265.92 41.472 
L 414.72 41.472 
" style="fill:none;stroke:#000000;stroke-linecap:square;stroke-linejoin:miter;stroke-width:0.8;"/>
   </g>
   <g id="text_8">
    <!-- Periodogram -->
    <g transform="translate(307.698125 35.472)scale(0.1 -0.1)">
     <defs>
      <path d="M 52.484375 46.6875 
L 52.484375 1.125 
Q 52.484375 -10.0625 46.328125 -16.140625 
Q 40.1875 -22.21875 28.8125 -22.21875 
Q 23.6875 -22.21875 19 -21.28125 
Q 14.3125 -20.359375 10.015625 -18.5 
L 10.015625 -7.625 
L 14.703125 -7.625 
Q 15.578125 -12.703125 18.84375 -15.046875 
Q 22.125 -17.390625 28.21875 -17.390625 
Q 36.140625 -17.390625 39.8125 -12.921875 
Q 43.5 -8.453125 43.5 1.125 
L 43.5 8.109375 
Q 40.875 3.21875 36.796875 0.890625 
Q 32.71875 -1.421875 26.703125 -1.421875 
Q 17.140625 -1.421875 11.0625 6.171875 
Q 4.984375 13.765625 4.984375 25.984375 
Q 4.984375 38.1875 11.03125 45.75 
Q 17.09375 53.328125 26.703125 53.328125 
Q 32.71875 53.328125 36.796875 51 
Q 40.875 48.6875 43.5 43.796875 
L 43.5 51.90625 
L 61.078125 51.90625 
L 61.078125 46.6875 
z
M 43.5 28.515625 
Q 43.5 37.84375 39.90625 42.765625 
Q 36.328125 47.703125 29.5 47.703125 
Q 22.5625 47.703125 19.015625 42.234375 
Q 15.484375 36.765625 15.484375 25.984375 
Q 15.484375 15.234375 19.015625 9.71875 
Q 22.5625 4.203125 29.5 4.203125 
Q 36.328125 4.203125 39.90625 9.109375 
Q 43.5 14.015625 43.5 23.390625 
z
" id="DejaVuSerif-103"/>
      <path d="M 39.796875 16.3125 
L 39.796875 27.296875 
L 28.21875 27.296875 
Q 21.53125 27.296875 18.25 24.40625 
Q 14.984375 21.53125 14.984375 15.578125 
Q 14.984375 10.15625 18.296875 6.984375 
Q 21.625 3.8125 27.296875 3.8125 
Q 32.90625 3.8125 36.34375 7.28125 
Q 39.796875 10.75 39.796875 16.3125 
z
M 48.78125 32.421875 
L 48.78125 5.171875 
L 56.78125 5.171875 
L 56.78125 0 
L 39.796875 0 
L 39.796875 5.609375 
Q 36.8125 2 32.90625 0.28125 
Q 29 -1.421875 23.78125 -1.421875 
Q 15.140625 -1.421875 10.0625 3.171875 
Q 4.984375 7.765625 4.984375 15.578125 
Q 4.984375 23.640625 10.796875 28.078125 
Q 16.609375 32.515625 27.203125 32.515625 
L 39.796875 32.515625 
L 39.796875 36.078125 
Q 39.796875 42 36.203125 45.234375 
Q 32.625 48.484375 26.125 48.484375 
Q 20.75 48.484375 17.578125 46.046875 
Q 14.40625 43.609375 13.625 38.8125 
L 8.984375 38.8125 
L 8.984375 49.3125 
Q 13.671875 51.3125 18.09375 52.3125 
Q 22.515625 53.328125 26.703125 53.328125 
Q 37.5 53.328125 43.140625 47.96875 
Q 48.78125 42.625 48.78125 32.421875 
z
" id="DejaVuSerif-97"/>
      <path d="M 51.8125 41.796875 
Q 54.390625 47.515625 58.421875 50.421875 
Q 62.453125 53.328125 67.828125 53.328125 
Q 75.984375 53.328125 79.984375 48.265625 
Q 83.984375 43.21875 83.984375 33.015625 
L 83.984375 5.171875 
L 92.09375 5.171875 
L 92.09375 0 
L 67.1875 0 
L 67.1875 5.171875 
L 75 5.171875 
L 75 31.984375 
Q 75 39.9375 72.65625 43.3125 
Q 70.3125 46.6875 64.890625 46.6875 
Q 58.890625 46.6875 55.734375 42.140625 
Q 52.59375 37.59375 52.59375 28.90625 
L 52.59375 5.171875 
L 60.40625 5.171875 
L 60.40625 0 
L 35.796875 0 
L 35.796875 5.171875 
L 43.609375 5.171875 
L 43.609375 32.328125 
Q 43.609375 40.09375 41.265625 43.390625 
Q 38.921875 46.6875 33.5 46.6875 
Q 27.484375 46.6875 24.328125 42.140625 
Q 21.1875 37.59375 21.1875 28.90625 
L 21.1875 5.171875 
L 29 5.171875 
L 29 0 
L 4.109375 0 
L 4.109375 5.171875 
L 12.203125 5.171875 
L 12.203125 46.78125 
L 3.609375 46.78125 
L 3.609375 51.90625 
L 21.1875 51.90625 
L 21.1875 42.671875 
Q 23.6875 47.859375 27.53125 50.59375 
Q 31.390625 53.328125 36.28125 53.328125 
Q 42.328125 53.328125 46.375 50.3125 
Q 50.4375 47.3125 51.8125 41.796875 
z
" id="DejaVuSerif-109"/>
     </defs>
     <use xlink:href="#DejaVuSerif-80"/>
     <use x="62.785156" xlink:href="#DejaVuSerif-101"/>
     <use x="121.964844" xlink:href="#DejaVuSerif-114"/>
     <use x="169.767578" xlink:href="#DejaVuSerif-105"/>
     <use x="201.75" xlink:href="#DejaVuSerif-111"/>
     <use x="261.955078" xlink:href="#DejaVuSerif-100"/>
     <use x="325.96875" xlink:href="#DejaVuSerif-111"/>
     <use x="386.173828" xlink:href="#DejaVuSerif-103"/>
     <use x="450.1875" xlink:href="#DejaVuSerif-114"/>
     <use x="497.990234" xlink:href="#DejaVuSerif-97"/>
     <use x="557.609375" xlink:href="#DejaVuSerif-109"/>
    </g>
   </g>
   <g id="legend_1">
    <g id="patch_7">
     <path d="M 419.648125 108.123071 
L 454.431875 108.123071 
Q 455.231875 108.123071 455.231875 107.323071 
L 455.231875 84.238071 
Q 455.231875 83.438071 454.431875 83.438071 
L 419.648125 83.438071 
Q 418.848125 83.438071 418.848125 84.238071 
L 418.848125 107.323071 
Q 418.848125 108.123071 419.648125 108.123071 
z
" style="fill:#ffffff;opacity:0.8;stroke:#cccccc;stroke-linejoin:miter;"/>
    </g>
    <g id="line2d_27">
     <path d="M 420.448125 86.677446 
L 428.448125 86.677446 
" style="fill:none;stroke:#808080;stroke-dasharray:5.55,2.4;stroke-dashoffset:0;stroke-width:1.5;"/>
    </g>
    <g id="text_9">
     <!-- 99.9% FAP -->
     <g transform="translate(431.648125 88.077446)scale(0.04 -0.04)">
      <defs>
       <path d="M 46.78125 32.671875 
Q 43.5 29 39.25 27.1875 
Q 35.015625 25.390625 29.6875 25.390625 
Q 18.84375 25.390625 12.5625 31.9375 
Q 6.296875 38.484375 6.296875 49.8125 
Q 6.296875 60.890625 13.109375 67.546875 
Q 19.921875 74.21875 31.296875 74.21875 
Q 43.65625 74.21875 50.265625 65.015625 
Q 56.890625 55.8125 56.890625 38.71875 
Q 56.890625 19.578125 49.015625 9.078125 
Q 41.15625 -1.421875 26.90625 -1.421875 
Q 23.046875 -1.421875 18.796875 -0.6875 
Q 14.546875 0.046875 10.109375 1.515625 
L 10.109375 13.625 
L 15.578125 13.625 
Q 16.21875 8.6875 19.390625 6.046875 
Q 22.5625 3.421875 27.875 3.421875 
Q 37.359375 3.421875 41.984375 10.5625 
Q 46.625 17.71875 46.78125 32.671875 
z
M 30.90625 69.390625 
Q 23.96875 69.390625 20.28125 64.328125 
Q 16.609375 59.28125 16.609375 49.8125 
Q 16.609375 40.328125 20.28125 35.25 
Q 23.96875 30.171875 30.90625 30.171875 
Q 37.84375 30.171875 41.53125 35.078125 
Q 45.21875 39.984375 45.21875 49.21875 
Q 45.21875 58.9375 41.5 64.15625 
Q 37.796875 69.390625 30.90625 69.390625 
z
" id="DejaVuSerif-57"/>
       <path d="M 22.40625 69.671875 
Q 18.109375 69.671875 15.6875 65.625 
Q 13.28125 61.578125 13.28125 54.296875 
Q 13.28125 47.125 15.75 43.015625 
Q 18.21875 38.921875 22.40625 38.921875 
Q 26.5625 38.921875 28.96875 43 
Q 31.390625 47.078125 31.390625 54.296875 
Q 31.390625 61.53125 28.96875 65.59375 
Q 26.5625 69.671875 22.40625 69.671875 
z
M 72.703125 33.890625 
Q 68.453125 33.890625 66.03125 29.78125 
Q 63.625 25.6875 63.625 18.40625 
Q 63.625 11.234375 66.0625 7.15625 
Q 68.5 3.078125 72.703125 3.078125 
Q 76.90625 3.078125 79.296875 7.15625 
Q 81.6875 11.234375 81.6875 18.40625 
Q 81.6875 25.640625 79.265625 29.765625 
Q 76.859375 33.890625 72.703125 33.890625 
z
M 72.703125 38.28125 
Q 80.421875 38.28125 84.953125 32.90625 
Q 89.5 27.546875 89.5 18.40625 
Q 89.5 9.28125 84.9375 3.921875 
Q 80.375 -1.421875 72.703125 -1.421875 
Q 64.890625 -1.421875 60.34375 3.921875 
Q 55.8125 9.28125 55.8125 18.40625 
Q 55.8125 27.59375 60.375 32.9375 
Q 64.9375 38.28125 72.703125 38.28125 
z
M 66.609375 74.21875 
L 74.03125 74.21875 
L 28.421875 -1.421875 
L 21 -1.421875 
z
M 22.3125 74.21875 
Q 30.03125 74.21875 34.609375 68.875 
Q 39.203125 63.53125 39.203125 54.390625 
Q 39.203125 45.171875 34.640625 39.84375 
Q 30.078125 34.515625 22.3125 34.515625 
Q 14.546875 34.515625 10.03125 39.859375 
Q 5.515625 45.21875 5.515625 54.390625 
Q 5.515625 63.484375 10.046875 68.84375 
Q 14.59375 74.21875 22.3125 74.21875 
z
" id="DejaVuSerif-37"/>
       <path d="M 5.515625 0 
L 5.515625 5.171875 
L 14.796875 5.171875 
L 14.796875 67.671875 
L 5.515625 67.671875 
L 5.515625 72.90625 
L 65.1875 72.90625 
L 65.1875 56.6875 
L 59.1875 56.6875 
L 59.1875 66.890625 
L 24.703125 66.890625 
L 24.703125 42.484375 
L 49.609375 42.484375 
L 49.609375 51.609375 
L 55.609375 51.609375 
L 55.609375 27.390625 
L 49.609375 27.390625 
L 49.609375 36.53125 
L 24.703125 36.53125 
L 24.703125 5.171875 
L 36.375 5.171875 
L 36.375 0 
z
" id="DejaVuSerif-70"/>
       <path d="M 20.015625 26.421875 
L 46.78125 26.421875 
L 33.40625 61.078125 
z
M -0.59375 0 
L -0.59375 5.171875 
L 5.8125 5.171875 
L 31.78125 72.90625 
L 39.984375 72.90625 
L 66.015625 5.171875 
L 73.1875 5.171875 
L 73.1875 0 
L 46.6875 0 
L 46.6875 5.171875 
L 54.78125 5.171875 
L 48.6875 21.1875 
L 18.015625 21.1875 
L 11.921875 5.171875 
L 19.921875 5.171875 
L 19.921875 0 
z
" id="DejaVuSerif-65"/>
      </defs>
      <use xlink:href="#DejaVuSerif-57"/>
      <use x="63.623047" xlink:href="#DejaVuSerif-57"/>
      <use x="127.246094" xlink:href="#DejaVuSerif-46"/>
      <use x="159.033203" xlink:href="#DejaVuSerif-57"/>
      <use x="222.65625" xlink:href="#DejaVuSerif-37"/>
      <use x="317.675781" xlink:href="#DejaVuSerif-32"/>
      <use x="349.462891" xlink:href="#DejaVuSerif-70"/>
      <use x="410.097656" xlink:href="#DejaVuSerif-65"/>
      <use x="482.314453" xlink:href="#DejaVuSerif-80"/>
     </g>
    </g>
    <g id="line2d_28">
     <path d="M 420.448125 92.548696 
L 428.448125 92.548696 
" style="fill:none;stroke:#a9a9a9;stroke-dasharray:5.55,2.4;stroke-dashoffset:0;stroke-width:1.5;"/>
    </g>
    <g id="text_10">
     <!-- 99.0% FAP -->
     <g transform="translate(431.648125 93.948696)scale(0.04 -0.04)">
      <use xlink:href="#DejaVuSerif-57"/>
      <use x="63.623047" xlink:href="#DejaVuSerif-57"/>
      <use x="127.246094" xlink:href="#DejaVuSerif-46"/>
      <use x="159.033203" xlink:href="#DejaVuSerif-48"/>
      <use x="222.65625" xlink:href="#DejaVuSerif-37"/>
      <use x="317.675781" xlink:href="#DejaVuSerif-32"/>
      <use x="349.462891" xlink:href="#DejaVuSerif-70"/>
      <use x="410.097656" xlink:href="#DejaVuSerif-65"/>
      <use x="482.314453" xlink:href="#DejaVuSerif-80"/>
     </g>
    </g>
    <g id="line2d_29">
     <path d="M 420.448125 98.419946 
L 428.448125 98.419946 
" style="fill:none;stroke:#c0c0c0;stroke-dasharray:5.55,2.4;stroke-dashoffset:0;stroke-width:1.5;"/>
    </g>
    <g id="text_11">
     <!-- 95.0% FAP -->
     <g transform="translate(431.648125 99.819946)scale(0.04 -0.04)">
      <defs>
       <path d="M 50.296875 72.90625 
L 50.296875 64.890625 
L 16.890625 64.890625 
L 16.890625 44 
Q 19.4375 45.75 22.828125 46.625 
Q 26.21875 47.515625 30.421875 47.515625 
Q 42.234375 47.515625 49.0625 40.96875 
Q 55.90625 34.421875 55.90625 23.09375 
Q 55.90625 11.53125 49 5.046875 
Q 42.09375 -1.421875 29.59375 -1.421875 
Q 24.5625 -1.421875 19.28125 -0.1875 
Q 14.015625 1.03125 8.5 3.515625 
L 8.5 17.671875 
L 14.015625 17.671875 
Q 14.453125 10.75 18.421875 7.078125 
Q 22.40625 3.421875 29.59375 3.421875 
Q 37.3125 3.421875 41.453125 8.5 
Q 45.609375 13.578125 45.609375 23.09375 
Q 45.609375 32.5625 41.484375 37.609375 
Q 37.359375 42.671875 29.59375 42.671875 
Q 25.203125 42.671875 21.84375 41.109375 
Q 18.5 39.546875 15.921875 36.28125 
L 11.71875 36.28125 
L 11.71875 72.90625 
z
" id="DejaVuSerif-53"/>
      </defs>
      <use xlink:href="#DejaVuSerif-57"/>
      <use x="63.623047" xlink:href="#DejaVuSerif-53"/>
      <use x="127.246094" xlink:href="#DejaVuSerif-46"/>
      <use x="159.033203" xlink:href="#DejaVuSerif-48"/>
      <use x="222.65625" xlink:href="#DejaVuSerif-37"/>
      <use x="317.675781" xlink:href="#DejaVuSerif-32"/>
      <use x="349.462891" xlink:href="#DejaVuSerif-70"/>
      <use x="410.097656" xlink:href="#DejaVuSerif-65"/>
      <use x="482.314453" xlink:href="#DejaVuSerif-80"/>
     </g>
    </g>
    <g id="line2d_30">
     <path d="M 420.448125 104.291196 
L 428.448125 104.291196 
" style="fill:none;stroke:#d3d3d3;stroke-dasharray:5.55,2.4;stroke-dashoffset:0;stroke-width:1.5;"/>
    </g>
    <g id="text_12">
     <!-- 90.0% FAP -->
     <g transform="translate(431.648125 105.691196)scale(0.04 -0.04)">
      <use xlink:href="#DejaVuSerif-57"/>
      <use x="63.623047" xlink:href="#DejaVuSerif-48"/>
      <use x="127.246094" xlink:href="#DejaVuSerif-46"/>
      <use x="159.033203" xlink:href="#DejaVuSerif-48"/>
      <use x="222.65625" xlink:href="#DejaVuSerif-37"/>
      <use x="317.675781" xlink:href="#DejaVuSerif-32"/>
      <use x="349.462891" xlink:href="#DejaVuSerif-70"/>
      <use x="410.097656" xlink:href="#DejaVuSerif-65"/>
      <use x="482.314453" xlink:href="#DejaVuSerif-80"/>
     </g>
    </g>
   </g>
  </g>
  <g id="axes_2">
   <g id="patch_8">
    <path d="M 57.6 150.089143 
L 206.4 150.089143 
L 206.4 41.472 
L 57.6 41.472 
z
" style="fill:#ffffff;"/>
   </g>
   <g id="PathCollection_1">
    <defs>
     <path d="M 0 0.707107 
C 0.187527 0.707107 0.367398 0.632602 0.5 0.5 
C 0.632602 0.367398 0.707107 0.187527 0.707107 0 
C 0.707107 -0.187527 0.632602 -0.367398 0.5 -0.5 
C 0.367398 -0.632602 0.187527 -0.707107 0 -0.707107 
C -0.187527 -0.707107 -0.367398 -0.632602 -0.5 -0.5 
C -0.632602 -0.367398 -0.707107 -0.187527 -0.707107 0 
C -0.707107 0.187527 -0.632602 0.367398 -0.5 0.5 
C -0.367398 0.632602 -0.187527 0.707107 0 0.707107 
z
" id="m43d2d40095" style="stroke:#1f77b4;"/>
    </defs>
    <g clip-path="url(#pdae941d9b1)">
     <use style="fill:#1f77b4;stroke:#1f77b4;" x="64.363636" xlink:href="#m43d2d40095" y="61.759915"/>
     <use style="fill:#1f77b4;stroke:#1f77b4;" x="64.364743" xlink:href="#m43d2d40095" y="61.32691"/>
     <use style="fill:#1f77b4;stroke:#1f77b4;" x="123.96652" xlink:href="#m43d2d40095" y="64.489328"/>
     <use style="fill:#1f77b4;stroke:#1f77b4;" x="123.967627" xlink:href="#m43d2d40095" y="64.482576"/>
     <use style="fill:#1f77b4;stroke:#1f77b4;" x="128.958007" xlink:href="#m43d2d40095" y="99.578809"/>
     <use style="fill:#1f77b4;stroke:#1f77b4;" x="68.35112" xlink:href="#m43d2d40095" y="59.644335"/>
     <use style="fill:#1f77b4;stroke:#1f77b4;" x="68.358814" xlink:href="#m43d2d40095" y="58.964905"/>
     <use style="fill:#1f77b4;stroke:#1f77b4;" x="130.446897" xlink:href="#m43d2d40095" y="77.096435"/>
     <use style="fill:#1f77b4;stroke:#1f77b4;" x="65.131667" xlink:href="#m43d2d40095" y="86.653985"/>
     <use style="fill:#1f77b4;stroke:#1f77b4;" x="65.132747" xlink:href="#m43d2d40095" y="87.354802"/>
     <use style="fill:#1f77b4;stroke:#1f77b4;" x="69.96394" xlink:href="#m43d2d40095" y="95.968522"/>
     <use style="fill:#1f77b4;stroke:#1f77b4;" x="69.965046" xlink:href="#m43d2d40095" y="97.400655"/>
     <use style="fill:#1f77b4;stroke:#1f77b4;" x="74.670373" xlink:href="#m43d2d40095" y="81.460632"/>
     <use style="fill:#1f77b4;stroke:#1f77b4;" x="74.67148" xlink:href="#m43d2d40095" y="81.703949"/>
     <use style="fill:#1f77b4;stroke:#1f77b4;" x="77.038036" xlink:href="#m43d2d40095" y="79.909419"/>
     <use style="fill:#1f77b4;stroke:#1f77b4;" x="77.039143" xlink:href="#m43d2d40095" y="78.685863"/>
     <use style="fill:#1f77b4;stroke:#1f77b4;" x="79.556888" xlink:href="#m43d2d40095" y="144.53446"/>
     <use style="fill:#1f77b4;stroke:#1f77b4;" x="79.557967" xlink:href="#m43d2d40095" y="145.152"/>
     <use style="fill:#1f77b4;stroke:#1f77b4;" x="81.84493" xlink:href="#m43d2d40095" y="85.321513"/>
     <use style="fill:#1f77b4;stroke:#1f77b4;" x="81.846037" xlink:href="#m43d2d40095" y="83.185987"/>
     <use style="fill:#1f77b4;stroke:#1f77b4;" x="84.233792" xlink:href="#m43d2d40095" y="98.035182"/>
     <use style="fill:#1f77b4;stroke:#1f77b4;" x="84.234871" xlink:href="#m43d2d40095" y="97.868017"/>
     <use style="fill:#1f77b4;stroke:#1f77b4;" x="105.771466" xlink:href="#m43d2d40095" y="67.819818"/>
     <use style="fill:#1f77b4;stroke:#1f77b4;" x="122.372644" xlink:href="#m43d2d40095" y="62.279767"/>
     <use style="fill:#1f77b4;stroke:#1f77b4;" x="124.752899" xlink:href="#m43d2d40095" y="66.969428"/>
     <use style="fill:#1f77b4;stroke:#1f77b4;" x="127.144585" xlink:href="#m43d2d40095" y="73.884493"/>
     <use style="fill:#1f77b4;stroke:#1f77b4;" x="129.531316" xlink:href="#m43d2d40095" y="52.498544"/>
     <use style="fill:#1f77b4;stroke:#1f77b4;" x="131.932521" xlink:href="#m43d2d40095" y="66.185025"/>
     <use style="fill:#1f77b4;stroke:#1f77b4;" x="92.958152" xlink:href="#m43d2d40095" y="73.702455"/>
     <use style="fill:#1f77b4;stroke:#1f77b4;" x="113.997812" xlink:href="#m43d2d40095" y="63.391677"/>
     <use style="fill:#1f77b4;stroke:#1f77b4;" x="116.737816" xlink:href="#m43d2d40095" y="48.234006"/>
     <use style="fill:#1f77b4;stroke:#1f77b4;" x="119.173062" xlink:href="#m43d2d40095" y="58.282889"/>
     <use style="fill:#1f77b4;stroke:#1f77b4;" x="68.157879" xlink:href="#m43d2d40095" y="73.400437"/>
     <use style="fill:#1f77b4;stroke:#1f77b4;" x="75.377048" xlink:href="#m43d2d40095" y="79.042041"/>
     <use style="fill:#1f77b4;stroke:#1f77b4;" x="102.828783" xlink:href="#m43d2d40095" y="64.47059"/>
     <use style="fill:#1f77b4;stroke:#1f77b4;" x="112.393254" xlink:href="#m43d2d40095" y="67.2358"/>
     <use style="fill:#1f77b4;stroke:#1f77b4;" x="68.582932" xlink:href="#m43d2d40095" y="96.5668"/>
     <use style="fill:#1f77b4;stroke:#1f77b4;" x="89.486241" xlink:href="#m43d2d40095" y="112.106505"/>
     <use style="fill:#1f77b4;stroke:#1f77b4;" x="115.26067" xlink:href="#m43d2d40095" y="46.409143"/>
     <use style="fill:#1f77b4;stroke:#1f77b4;" x="97.64868" xlink:href="#m43d2d40095" y="103.969101"/>
     <use style="fill:#1f77b4;stroke:#1f77b4;" x="97.64976" xlink:href="#m43d2d40095" y="101.503483"/>
     <use style="fill:#1f77b4;stroke:#1f77b4;" x="99.978761" xlink:href="#m43d2d40095" y="120.497237"/>
     <use style="fill:#1f77b4;stroke:#1f77b4;" x="99.97984" xlink:href="#m43d2d40095" y="123.249396"/>
     <use style="fill:#1f77b4;stroke:#1f77b4;" x="102.266775" xlink:href="#m43d2d40095" y="62.346589"/>
     <use style="fill:#1f77b4;stroke:#1f77b4;" x="102.267854" xlink:href="#m43d2d40095" y="61.952188"/>
    </g>
   </g>
   <g id="PathCollection_2">
    <g clip-path="url(#pdae941d9b1)">
     <use style="fill:#1f77b4;stroke:#1f77b4;" x="132.067479" xlink:href="#m43d2d40095" y="61.759915"/>
     <use style="fill:#1f77b4;stroke:#1f77b4;" x="132.068586" xlink:href="#m43d2d40095" y="61.32691"/>
     <use style="fill:#1f77b4;stroke:#1f77b4;" x="191.670362" xlink:href="#m43d2d40095" y="64.489328"/>
     <use style="fill:#1f77b4;stroke:#1f77b4;" x="191.671469" xlink:href="#m43d2d40095" y="64.482576"/>
     <use style="fill:#1f77b4;stroke:#1f77b4;" x="196.661849" xlink:href="#m43d2d40095" y="99.578809"/>
     <use style="fill:#1f77b4;stroke:#1f77b4;" x="136.054963" xlink:href="#m43d2d40095" y="59.644335"/>
     <use style="fill:#1f77b4;stroke:#1f77b4;" x="136.062657" xlink:href="#m43d2d40095" y="58.964905"/>
     <use style="fill:#1f77b4;stroke:#1f77b4;" x="198.150739" xlink:href="#m43d2d40095" y="77.096435"/>
     <use style="fill:#1f77b4;stroke:#1f77b4;" x="132.83551" xlink:href="#m43d2d40095" y="86.653985"/>
     <use style="fill:#1f77b4;stroke:#1f77b4;" x="132.836589" xlink:href="#m43d2d40095" y="87.354802"/>
     <use style="fill:#1f77b4;stroke:#1f77b4;" x="137.667782" xlink:href="#m43d2d40095" y="95.968522"/>
     <use style="fill:#1f77b4;stroke:#1f77b4;" x="137.668889" xlink:href="#m43d2d40095" y="97.400655"/>
     <use style="fill:#1f77b4;stroke:#1f77b4;" x="142.374215" xlink:href="#m43d2d40095" y="81.460632"/>
     <use style="fill:#1f77b4;stroke:#1f77b4;" x="142.375322" xlink:href="#m43d2d40095" y="81.703949"/>
     <use style="fill:#1f77b4;stroke:#1f77b4;" x="144.741878" xlink:href="#m43d2d40095" y="79.909419"/>
     <use style="fill:#1f77b4;stroke:#1f77b4;" x="144.742985" xlink:href="#m43d2d40095" y="78.685863"/>
     <use style="fill:#1f77b4;stroke:#1f77b4;" x="147.26073" xlink:href="#m43d2d40095" y="144.53446"/>
     <use style="fill:#1f77b4;stroke:#1f77b4;" x="147.26181" xlink:href="#m43d2d40095" y="145.152"/>
     <use style="fill:#1f77b4;stroke:#1f77b4;" x="149.548772" xlink:href="#m43d2d40095" y="85.321513"/>
     <use style="fill:#1f77b4;stroke:#1f77b4;" x="149.549879" xlink:href="#m43d2d40095" y="83.185987"/>
     <use style="fill:#1f77b4;stroke:#1f77b4;" x="151.937634" xlink:href="#m43d2d40095" y="98.035182"/>
     <use style="fill:#1f77b4;stroke:#1f77b4;" x="151.938714" xlink:href="#m43d2d40095" y="97.868017"/>
     <use style="fill:#1f77b4;stroke:#1f77b4;" x="173.475309" xlink:href="#m43d2d40095" y="67.819818"/>
     <use style="fill:#1f77b4;stroke:#1f77b4;" x="190.076487" xlink:href="#m43d2d40095" y="62.279767"/>
     <use style="fill:#1f77b4;stroke:#1f77b4;" x="192.456742" xlink:href="#m43d2d40095" y="66.969428"/>
     <use style="fill:#1f77b4;stroke:#1f77b4;" x="194.848427" xlink:href="#m43d2d40095" y="73.884493"/>
     <use style="fill:#1f77b4;stroke:#1f77b4;" x="197.235158" xlink:href="#m43d2d40095" y="52.498544"/>
     <use style="fill:#1f77b4;stroke:#1f77b4;" x="199.636364" xlink:href="#m43d2d40095" y="66.185025"/>
     <use style="fill:#1f77b4;stroke:#1f77b4;" x="160.661994" xlink:href="#m43d2d40095" y="73.702455"/>
     <use style="fill:#1f77b4;stroke:#1f77b4;" x="181.701655" xlink:href="#m43d2d40095" y="63.391677"/>
     <use style="fill:#1f77b4;stroke:#1f77b4;" x="184.441659" xlink:href="#m43d2d40095" y="48.234006"/>
     <use style="fill:#1f77b4;stroke:#1f77b4;" x="186.876905" xlink:href="#m43d2d40095" y="58.282889"/>
     <use style="fill:#1f77b4;stroke:#1f77b4;" x="135.861721" xlink:href="#m43d2d40095" y="73.400437"/>
     <use style="fill:#1f77b4;stroke:#1f77b4;" x="143.08089" xlink:href="#m43d2d40095" y="79.042041"/>
     <use style="fill:#1f77b4;stroke:#1f77b4;" x="170.532626" xlink:href="#m43d2d40095" y="64.47059"/>
     <use style="fill:#1f77b4;stroke:#1f77b4;" x="180.097096" xlink:href="#m43d2d40095" y="67.2358"/>
     <use style="fill:#1f77b4;stroke:#1f77b4;" x="136.286774" xlink:href="#m43d2d40095" y="96.5668"/>
     <use style="fill:#1f77b4;stroke:#1f77b4;" x="157.190084" xlink:href="#m43d2d40095" y="112.106505"/>
     <use style="fill:#1f77b4;stroke:#1f77b4;" x="182.964512" xlink:href="#m43d2d40095" y="46.409143"/>
     <use style="fill:#1f77b4;stroke:#1f77b4;" x="165.352523" xlink:href="#m43d2d40095" y="103.969101"/>
     <use style="fill:#1f77b4;stroke:#1f77b4;" x="165.353602" xlink:href="#m43d2d40095" y="101.503483"/>
     <use style="fill:#1f77b4;stroke:#1f77b4;" x="167.682603" xlink:href="#m43d2d40095" y="120.497237"/>
     <use style="fill:#1f77b4;stroke:#1f77b4;" x="167.683683" xlink:href="#m43d2d40095" y="123.249396"/>
     <use style="fill:#1f77b4;stroke:#1f77b4;" x="169.970617" xlink:href="#m43d2d40095" y="62.346589"/>
     <use style="fill:#1f77b4;stroke:#1f77b4;" x="169.971697" xlink:href="#m43d2d40095" y="61.952188"/>
    </g>
   </g>
   <g id="matplotlib.axis_3">
    <g id="xtick_23">
     <g id="line2d_31">
      <g>
       <use style="stroke:#000000;stroke-width:0.8;" x="64.232431" xlink:href="#mac47f7ab93" y="150.089143"/>
      </g>
     </g>
     <g id="text_13">
      <!-- 0 -->
      <g transform="translate(61.051181 164.68758)scale(0.1 -0.1)">
       <use xlink:href="#DejaVuSerif-48"/>
      </g>
     </g>
    </g>
    <g id="xtick_24">
     <g id="line2d_32">
      <g>
       <use style="stroke:#000000;stroke-width:0.8;" x="131.936273" xlink:href="#mac47f7ab93" y="150.089143"/>
      </g>
     </g>
     <g id="text_14">
      <!-- 1 -->
      <g transform="translate(128.755023 164.68758)scale(0.1 -0.1)">
       <use xlink:href="#DejaVuSerif-49"/>
      </g>
     </g>
    </g>
    <g id="xtick_25">
     <g id="line2d_33">
      <g>
       <use style="stroke:#000000;stroke-width:0.8;" x="199.640116" xlink:href="#mac47f7ab93" y="150.089143"/>
      </g>
     </g>
     <g id="text_15">
      <!-- 2 -->
      <g transform="translate(196.458866 164.68758)scale(0.1 -0.1)">
       <use xlink:href="#DejaVuSerif-50"/>
      </g>
     </g>
    </g>
    <g id="text_16">
     <!-- Phase (P = 28.315 d) -->
     <g transform="translate(78.401562 178.365705)scale(0.1 -0.1)">
      <defs>
       <path d="M 4.109375 0 
L 4.109375 5.171875 
L 12.203125 5.171875 
L 12.203125 70.796875 
L 3.609375 70.796875 
L 3.609375 75.984375 
L 21.1875 75.984375 
L 21.1875 42.671875 
Q 23.6875 47.953125 27.65625 50.640625 
Q 31.640625 53.328125 36.921875 53.328125 
Q 45.515625 53.328125 49.5625 48.390625 
Q 53.609375 43.453125 53.609375 33.015625 
L 53.609375 5.171875 
L 61.625 5.171875 
L 61.625 0 
L 36.8125 0 
L 36.8125 5.171875 
L 44.578125 5.171875 
L 44.578125 30.171875 
Q 44.578125 39.703125 42.25 43.1875 
Q 39.9375 46.6875 33.984375 46.6875 
Q 27.734375 46.6875 24.453125 42.140625 
Q 21.1875 37.59375 21.1875 28.90625 
L 21.1875 5.171875 
L 29 5.171875 
L 29 0 
z
" id="DejaVuSerif-104"/>
       <path d="M 5.609375 2.875 
L 5.609375 14.984375 
L 10.796875 14.984375 
Q 10.984375 9.1875 14.421875 6.296875 
Q 17.875 3.421875 24.609375 3.421875 
Q 30.671875 3.421875 33.84375 5.6875 
Q 37.015625 7.953125 37.015625 12.3125 
Q 37.015625 15.71875 34.6875 17.8125 
Q 32.375 19.921875 24.90625 22.3125 
L 18.40625 24.515625 
Q 11.71875 26.65625 8.71875 29.875 
Q 5.71875 33.109375 5.71875 38.09375 
Q 5.71875 45.21875 10.9375 49.265625 
Q 16.15625 53.328125 25.390625 53.328125 
Q 29.5 53.328125 34.03125 52.25 
Q 38.578125 51.171875 43.40625 49.125 
L 43.40625 37.796875 
L 38.234375 37.796875 
Q 38.03125 42.828125 34.703125 45.65625 
Q 31.390625 48.484375 25.6875 48.484375 
Q 20.015625 48.484375 17.109375 46.484375 
Q 14.203125 44.484375 14.203125 40.484375 
Q 14.203125 37.203125 16.40625 35.21875 
Q 18.609375 33.25 25.203125 31.203125 
L 32.328125 29 
Q 39.703125 26.703125 42.9375 23.265625 
Q 46.1875 19.828125 46.1875 14.40625 
Q 46.1875 7.03125 40.546875 2.796875 
Q 34.90625 -1.421875 25 -1.421875 
Q 19.96875 -1.421875 15.1875 -0.34375 
Q 10.40625 0.734375 5.609375 2.875 
z
" id="DejaVuSerif-115"/>
       <path d="M 31.890625 -15.578125 
Q 20.015625 -10.25 13.953125 1.296875 
Q 7.90625 12.84375 7.90625 30.171875 
Q 7.90625 47.5625 13.953125 59.109375 
Q 20.015625 70.65625 31.890625 75.984375 
L 31.890625 71.1875 
Q 24.359375 66.015625 21.09375 56.609375 
Q 17.828125 47.21875 17.828125 30.171875 
Q 17.828125 13.1875 21.09375 3.78125 
Q 24.359375 -5.609375 31.890625 -10.796875 
z
" id="DejaVuSerif-40"/>
       <path d="M 10.59375 45.21875 
L 73.1875 45.21875 
L 73.1875 37.40625 
L 10.59375 37.40625 
z
M 10.59375 25.296875 
L 73.1875 25.296875 
L 73.1875 17.484375 
L 10.59375 17.484375 
z
" id="DejaVuSerif-61"/>
       <path d="M 46.578125 19.921875 
Q 46.578125 27.734375 42.6875 32.046875 
Q 38.8125 36.375 31.78125 36.375 
Q 24.75 36.375 20.875 32.046875 
Q 17 27.734375 17 19.921875 
Q 17 12.0625 20.875 7.734375 
Q 24.75 3.421875 31.78125 3.421875 
Q 38.8125 3.421875 42.6875 7.734375 
Q 46.578125 12.0625 46.578125 19.921875 
z
M 44.578125 55.328125 
Q 44.578125 61.96875 41.203125 65.671875 
Q 37.84375 69.390625 31.78125 69.390625 
Q 25.78125 69.390625 22.390625 65.671875 
Q 19 61.96875 19 55.328125 
Q 19 48.640625 22.390625 44.921875 
Q 25.78125 41.21875 31.78125 41.21875 
Q 37.84375 41.21875 41.203125 44.921875 
Q 44.578125 48.640625 44.578125 55.328125 
z
M 39.3125 38.8125 
Q 47.609375 37.703125 52.25 32.6875 
Q 56.890625 27.6875 56.890625 19.921875 
Q 56.890625 9.671875 50.390625 4.125 
Q 43.890625 -1.421875 31.78125 -1.421875 
Q 19.734375 -1.421875 13.203125 4.125 
Q 6.6875 9.671875 6.6875 19.921875 
Q 6.6875 27.6875 11.328125 32.6875 
Q 15.96875 37.703125 24.3125 38.8125 
Q 16.9375 40.140625 13 44.40625 
Q 9.078125 48.6875 9.078125 55.328125 
Q 9.078125 64.109375 15.125 69.15625 
Q 21.1875 74.21875 31.78125 74.21875 
Q 42.390625 74.21875 48.4375 69.15625 
Q 54.5 64.109375 54.5 55.328125 
Q 54.5 48.6875 50.5625 44.40625 
Q 46.625 40.140625 39.3125 38.8125 
z
" id="DejaVuSerif-56"/>
       <path d="M 9.71875 69.828125 
Q 15.4375 71.96875 20.671875 73.09375 
Q 25.921875 74.21875 30.515625 74.21875 
Q 41.21875 74.21875 47.21875 69.59375 
Q 53.21875 64.984375 53.21875 56.78125 
Q 53.21875 50.203125 49.0625 45.78125 
Q 44.921875 41.359375 37.3125 39.796875 
Q 46.296875 38.53125 51.25 33.28125 
Q 56.203125 28.03125 56.203125 19.671875 
Q 56.203125 9.46875 49.34375 4.015625 
Q 42.484375 -1.421875 29.59375 -1.421875 
Q 23.875 -1.421875 18.421875 -0.1875 
Q 12.984375 1.03125 7.625 3.515625 
L 7.625 17.671875 
L 13.09375 17.671875 
Q 13.578125 10.640625 17.828125 7.03125 
Q 22.078125 3.421875 29.78125 3.421875 
Q 37.25 3.421875 41.578125 7.734375 
Q 45.90625 12.0625 45.90625 19.578125 
Q 45.90625 28.171875 41.453125 32.59375 
Q 37.015625 37.015625 28.421875 37.015625 
L 23.78125 37.015625 
L 23.78125 42 
L 26.21875 42 
Q 34.765625 42 39.03125 45.53125 
Q 43.3125 49.078125 43.3125 56.203125 
Q 43.3125 62.59375 39.796875 65.984375 
Q 36.28125 69.390625 29.6875 69.390625 
Q 23.09375 69.390625 19.453125 66.265625 
Q 15.828125 63.140625 15.1875 56.984375 
L 9.71875 56.984375 
z
" id="DejaVuSerif-51"/>
       <path d="M 7.078125 -15.578125 
L 7.078125 -10.796875 
Q 14.59375 -5.609375 17.890625 3.78125 
Q 21.1875 13.1875 21.1875 30.171875 
Q 21.1875 47.21875 17.890625 56.609375 
Q 14.59375 66.015625 7.078125 71.1875 
L 7.078125 75.984375 
Q 19 70.65625 25.046875 59.109375 
Q 31.109375 47.5625 31.109375 30.171875 
Q 31.109375 12.84375 25.046875 1.296875 
Q 19 -10.25 7.078125 -15.578125 
z
" id="DejaVuSerif-41"/>
      </defs>
      <use xlink:href="#DejaVuSerif-80"/>
      <use x="67.285156" xlink:href="#DejaVuSerif-104"/>
      <use x="131.689453" xlink:href="#DejaVuSerif-97"/>
      <use x="191.308594" xlink:href="#DejaVuSerif-115"/>
      <use x="242.626953" xlink:href="#DejaVuSerif-101"/>
      <use x="301.806641" xlink:href="#DejaVuSerif-32"/>
      <use x="333.59375" xlink:href="#DejaVuSerif-40"/>
      <use x="372.607422" xlink:href="#DejaVuSerif-80"/>
      <use x="439.892578" xlink:href="#DejaVuSerif-32"/>
      <use x="471.679688" xlink:href="#DejaVuSerif-61"/>
      <use x="555.46875" xlink:href="#DejaVuSerif-32"/>
      <use x="587.255859" xlink:href="#DejaVuSerif-50"/>
      <use x="650.878906" xlink:href="#DejaVuSerif-56"/>
      <use x="714.501953" xlink:href="#DejaVuSerif-46"/>
      <use x="746.289062" xlink:href="#DejaVuSerif-51"/>
      <use x="809.912109" xlink:href="#DejaVuSerif-49"/>
      <use x="873.535156" xlink:href="#DejaVuSerif-53"/>
      <use x="937.158203" xlink:href="#DejaVuSerif-32"/>
      <use x="968.945312" xlink:href="#DejaVuSerif-100"/>
      <use x="1032.958984" xlink:href="#DejaVuSerif-41"/>
     </g>
    </g>
   </g>
   <g id="matplotlib.axis_4">
    <g id="ytick_4">
     <g id="line2d_34">
      <g>
       <use style="stroke:#000000;stroke-width:0.8;" x="57.6" xlink:href="#m15ef657d06" y="66.128137"/>
      </g>
     </g>
     <g id="text_17">
      <!-- 16.0 -->
      <g transform="translate(28.334375 69.927356)scale(0.1 -0.1)">
       <defs>
        <path d="M 32.71875 3.421875 
Q 39.59375 3.421875 43.296875 8.46875 
Q 47.015625 13.53125 47.015625 23 
Q 47.015625 32.46875 43.296875 37.515625 
Q 39.59375 42.578125 32.71875 42.578125 
Q 25.734375 42.578125 22.0625 37.6875 
Q 18.40625 32.8125 18.40625 23.578125 
Q 18.40625 13.875 22.109375 8.640625 
Q 25.828125 3.421875 32.71875 3.421875 
z
M 16.796875 40.140625 
Q 20.125 43.796875 24.3125 45.59375 
Q 28.515625 47.40625 33.796875 47.40625 
Q 44.671875 47.40625 51 40.859375 
Q 57.328125 34.328125 57.328125 23 
Q 57.328125 11.921875 50.515625 5.25 
Q 43.703125 -1.421875 32.328125 -1.421875 
Q 19.96875 -1.421875 13.328125 7.78125 
Q 6.6875 17 6.6875 34.078125 
Q 6.6875 53.21875 14.546875 63.71875 
Q 22.40625 74.21875 36.71875 74.21875 
Q 40.578125 74.21875 44.828125 73.484375 
Q 49.078125 72.75 53.515625 71.296875 
L 53.515625 59.28125 
L 48 59.28125 
Q 47.40625 64.203125 44.234375 66.796875 
Q 41.0625 69.390625 35.6875 69.390625 
Q 26.21875 69.390625 21.578125 62.203125 
Q 16.9375 55.03125 16.796875 40.140625 
z
" id="DejaVuSerif-54"/>
       </defs>
       <use xlink:href="#DejaVuSerif-49"/>
       <use x="63.623047" xlink:href="#DejaVuSerif-54"/>
       <use x="127.246094" xlink:href="#DejaVuSerif-46"/>
       <use x="159.033203" xlink:href="#DejaVuSerif-48"/>
      </g>
     </g>
    </g>
    <g id="ytick_5">
     <g id="line2d_35">
      <g>
       <use style="stroke:#000000;stroke-width:0.8;" x="57.6" xlink:href="#m15ef657d06" y="105.893473"/>
      </g>
     </g>
     <g id="text_18">
      <!-- 16.5 -->
      <g transform="translate(28.334375 109.692692)scale(0.1 -0.1)">
       <use xlink:href="#DejaVuSerif-49"/>
       <use x="63.623047" xlink:href="#DejaVuSerif-54"/>
       <use x="127.246094" xlink:href="#DejaVuSerif-46"/>
       <use x="159.033203" xlink:href="#DejaVuSerif-53"/>
      </g>
     </g>
    </g>
    <g id="ytick_6">
     <g id="line2d_36">
      <g>
       <use style="stroke:#000000;stroke-width:0.8;" x="57.6" xlink:href="#m15ef657d06" y="145.658809"/>
      </g>
     </g>
     <g id="text_19">
      <!-- 17.0 -->
      <g transform="translate(28.334375 149.458028)scale(0.1 -0.1)">
       <defs>
        <path d="M 56.390625 67.921875 
L 27.875 0 
L 20.609375 0 
L 47.796875 64.890625 
L 14.109375 64.890625 
L 14.109375 55.90625 
L 8.40625 55.90625 
L 8.40625 72.90625 
L 56.390625 72.90625 
z
" id="DejaVuSerif-55"/>
       </defs>
       <use xlink:href="#DejaVuSerif-49"/>
       <use x="63.623047" xlink:href="#DejaVuSerif-55"/>
       <use x="127.246094" xlink:href="#DejaVuSerif-46"/>
       <use x="159.033203" xlink:href="#DejaVuSerif-48"/>
      </g>
     </g>
    </g>
    <g id="text_20">
     <!-- Mag -->
     <g transform="translate(22.1125 107.082134)rotate(-90)scale(0.1 -0.1)">
      <defs>
       <path d="M 5.515625 0 
L 5.515625 5.171875 
L 14.796875 5.171875 
L 14.796875 67.671875 
L 4.984375 67.671875 
L 4.984375 72.90625 
L 26.21875 72.90625 
L 51.8125 21 
L 77.390625 72.90625 
L 97.3125 72.90625 
L 97.3125 67.671875 
L 87.59375 67.671875 
L 87.59375 5.171875 
L 96.921875 5.171875 
L 96.921875 0 
L 68.40625 0 
L 68.40625 5.171875 
L 77.6875 5.171875 
L 77.6875 61.53125 
L 52.6875 10.6875 
L 45.796875 10.6875 
L 20.796875 61.53125 
L 20.796875 5.171875 
L 30.078125 5.171875 
L 30.078125 0 
z
" id="DejaVuSerif-77"/>
      </defs>
      <use xlink:href="#DejaVuSerif-77"/>
      <use x="102.392578" xlink:href="#DejaVuSerif-97"/>
      <use x="162.011719" xlink:href="#DejaVuSerif-103"/>
     </g>
    </g>
   </g>
   <g id="patch_9">
    <path d="M 57.6 150.089143 
L 57.6 41.472 
" style="fill:none;stroke:#000000;stroke-linecap:square;stroke-linejoin:miter;stroke-width:0.8;"/>
   </g>
   <g id="patch_10">
    <path d="M 206.4 150.089143 
L 206.4 41.472 
" style="fill:none;stroke:#000000;stroke-linecap:square;stroke-linejoin:miter;stroke-width:0.8;"/>
   </g>
   <g id="patch_11">
    <path d="M 57.6 150.089143 
L 206.4 150.089143 
" style="fill:none;stroke:#000000;stroke-linecap:square;stroke-linejoin:miter;stroke-width:0.8;"/>
   </g>
   <g id="patch_12">
    <path d="M 57.6 41.472 
L 206.4 41.472 
" style="fill:none;stroke:#000000;stroke-linecap:square;stroke-linejoin:miter;stroke-width:0.8;"/>
   </g>
   <g id="text_21">
    <!-- Folded Light Curve -->
    <g transform="translate(83.086719 35.472)scale(0.1 -0.1)">
     <defs>
      <path d="M 20.515625 5.171875 
L 29 5.171875 
L 29 0 
L 2.875 0 
L 2.875 5.171875 
L 11.53125 5.171875 
L 11.53125 70.796875 
L 2.875 70.796875 
L 2.875 75.984375 
L 20.515625 75.984375 
z
" id="DejaVuSerif-108"/>
      <path d="M 5.515625 0 
L 5.515625 5.171875 
L 14.796875 5.171875 
L 14.796875 67.671875 
L 5.515625 67.671875 
L 5.515625 72.90625 
L 33.984375 72.90625 
L 33.984375 67.671875 
L 24.703125 67.671875 
L 24.703125 6 
L 58.015625 6 
L 58.015625 18.21875 
L 64.015625 18.21875 
L 64.015625 0 
z
" id="DejaVuSerif-76"/>
      <path d="M 10.796875 46.6875 
L 2.875 46.6875 
L 2.875 51.90625 
L 10.796875 51.90625 
L 10.796875 68.015625 
L 19.828125 68.015625 
L 19.828125 51.90625 
L 36.71875 51.90625 
L 36.71875 46.6875 
L 19.828125 46.6875 
L 19.828125 13.71875 
Q 19.828125 7.125 21.09375 5.265625 
Q 22.359375 3.421875 25.78125 3.421875 
Q 29.296875 3.421875 30.90625 5.484375 
Q 32.515625 7.5625 32.625 12.203125 
L 39.40625 12.203125 
Q 39.015625 5.125 35.546875 1.84375 
Q 32.078125 -1.421875 25 -1.421875 
Q 17.234375 -1.421875 14.015625 2.015625 
Q 10.796875 5.46875 10.796875 13.71875 
z
" id="DejaVuSerif-116"/>
      <path d="M 70.515625 19.28125 
Q 67.28125 9.078125 59.6875 3.828125 
Q 52.09375 -1.421875 40.484375 -1.421875 
Q 33.34375 -1.421875 27.234375 1.015625 
Q 21.140625 3.46875 16.40625 8.203125 
Q 10.9375 13.671875 8.265625 20.625 
Q 5.609375 27.59375 5.609375 36.375 
Q 5.609375 53.375 15.421875 63.796875 
Q 25.25 74.21875 41.3125 74.21875 
Q 47.265625 74.21875 54 72.65625 
Q 60.75 71.09375 68.5 67.921875 
L 68.5 51.125 
L 62.984375 51.125 
Q 61.1875 60.296875 55.734375 64.640625 
Q 50.296875 69 40.484375 69 
Q 28.8125 69 22.796875 60.71875 
Q 16.796875 52.4375 16.796875 36.375 
Q 16.796875 20.359375 22.796875 12.078125 
Q 28.8125 3.8125 40.484375 3.8125 
Q 48.640625 3.8125 53.90625 7.6875 
Q 59.1875 11.578125 61.53125 19.28125 
z
" id="DejaVuSerif-67"/>
      <path d="M 35.40625 51.90625 
L 52.203125 51.90625 
L 52.203125 5.171875 
L 60.6875 5.171875 
L 60.6875 0 
L 43.21875 0 
L 43.21875 9.1875 
Q 40.71875 4 36.765625 1.28125 
Q 32.8125 -1.421875 27.59375 -1.421875 
Q 18.953125 -1.421875 14.875 3.484375 
Q 10.796875 8.40625 10.796875 18.890625 
L 10.796875 46.6875 
L 2.6875 46.6875 
L 2.6875 51.90625 
L 19.828125 51.90625 
L 19.828125 21.6875 
Q 19.828125 12.203125 22.140625 8.6875 
Q 24.46875 5.171875 30.421875 5.171875 
Q 36.671875 5.171875 39.9375 9.765625 
Q 43.21875 14.359375 43.21875 23.09375 
L 43.21875 46.6875 
L 35.40625 46.6875 
z
" id="DejaVuSerif-117"/>
      <path d="M 24.703125 0 
L 5.609375 46.6875 
L -0.296875 46.6875 
L -0.296875 51.90625 
L 23.578125 51.90625 
L 23.578125 46.6875 
L 15.28125 46.6875 
L 29.890625 10.984375 
L 44.484375 46.6875 
L 36.71875 46.6875 
L 36.71875 51.90625 
L 56.203125 51.90625 
L 56.203125 46.6875 
L 50.390625 46.6875 
L 31.296875 0 
z
" id="DejaVuSerif-118"/>
     </defs>
     <use xlink:href="#DejaVuSerif-70"/>
     <use x="63.884766" xlink:href="#DejaVuSerif-111"/>
     <use x="124.089844" xlink:href="#DejaVuSerif-108"/>
     <use x="156.072266" xlink:href="#DejaVuSerif-100"/>
     <use x="220.085938" xlink:href="#DejaVuSerif-101"/>
     <use x="279.265625" xlink:href="#DejaVuSerif-100"/>
     <use x="343.279297" xlink:href="#DejaVuSerif-32"/>
     <use x="375.066406" xlink:href="#DejaVuSerif-76"/>
     <use x="441.472656" xlink:href="#DejaVuSerif-105"/>
     <use x="473.455078" xlink:href="#DejaVuSerif-103"/>
     <use x="537.46875" xlink:href="#DejaVuSerif-104"/>
     <use x="601.873047" xlink:href="#DejaVuSerif-116"/>
     <use x="642.058594" xlink:href="#DejaVuSerif-32"/>
     <use x="673.845703" xlink:href="#DejaVuSerif-67"/>
     <use x="750.359375" xlink:href="#DejaVuSerif-117"/>
     <use x="814.763672" xlink:href="#DejaVuSerif-114"/>
     <use x="862.566406" xlink:href="#DejaVuSerif-118"/>
     <use x="919.060547" xlink:href="#DejaVuSerif-101"/>
    </g>
   </g>
  </g>
  <g id="axes_3">
   <g id="patch_13">
    <path d="M 57.6 307.584 
L 414.72 307.584 
L 414.72 198.966857 
L 57.6 198.966857 
z
" style="fill:#ffffff;"/>
   </g>
   <g id="PathCollection_3">
    <g clip-path="url(#pa9a97c506f)">
     <use style="fill:#1f77b4;stroke:#1f77b4;" x="73.832727" xlink:href="#m43d2d40095" y="220.041045"/>
     <use style="fill:#1f77b4;stroke:#1f77b4;" x="73.833119" xlink:href="#m43d2d40095" y="219.619922"/>
     <use style="fill:#1f77b4;stroke:#1f77b4;" x="94.910293" xlink:href="#m43d2d40095" y="222.695561"/>
     <use style="fill:#1f77b4;stroke:#1f77b4;" x="94.910684" xlink:href="#m43d2d40095" y="222.688994"/>
     <use style="fill:#1f77b4;stroke:#1f77b4;" x="96.675449" xlink:href="#m43d2d40095" y="256.822161"/>
     <use style="fill:#1f77b4;stroke:#1f77b4;" x="99.185169" xlink:href="#m43d2d40095" y="217.983519"/>
     <use style="fill:#1f77b4;stroke:#1f77b4;" x="99.18789" xlink:href="#m43d2d40095" y="217.322732"/>
     <use style="fill:#1f77b4;stroke:#1f77b4;" x="121.144305" xlink:href="#m43d2d40095" y="234.95672"/>
     <use style="fill:#1f77b4;stroke:#1f77b4;" x="121.988998" xlink:href="#m43d2d40095" y="244.252004"/>
     <use style="fill:#1f77b4;stroke:#1f77b4;" x="121.98938" xlink:href="#m43d2d40095" y="244.933589"/>
     <use style="fill:#1f77b4;stroke:#1f77b4;" x="123.69785" xlink:href="#m43d2d40095" y="253.310943"/>
     <use style="fill:#1f77b4;stroke:#1f77b4;" x="123.698242" xlink:href="#m43d2d40095" y="254.703777"/>
     <use style="fill:#1f77b4;stroke:#1f77b4;" x="125.362202" xlink:href="#m43d2d40095" y="239.201161"/>
     <use style="fill:#1f77b4;stroke:#1f77b4;" x="125.362594" xlink:href="#m43d2d40095" y="239.4378"/>
     <use style="fill:#1f77b4;stroke:#1f77b4;" x="126.199487" xlink:href="#m43d2d40095" y="237.692513"/>
     <use style="fill:#1f77b4;stroke:#1f77b4;" x="126.199878" xlink:href="#m43d2d40095" y="236.502533"/>
     <use style="fill:#1f77b4;stroke:#1f77b4;" x="127.090237" xlink:href="#m43d2d40095" y="300.544195"/>
     <use style="fill:#1f77b4;stroke:#1f77b4;" x="127.090618" xlink:href="#m43d2d40095" y="301.144789"/>
     <use style="fill:#1f77b4;stroke:#1f77b4;" x="127.899364" xlink:href="#m43d2d40095" y="242.956095"/>
     <use style="fill:#1f77b4;stroke:#1f77b4;" x="127.899756" xlink:href="#m43d2d40095" y="240.87917"/>
     <use style="fill:#1f77b4;stroke:#1f77b4;" x="128.744146" xlink:href="#m43d2d40095" y="255.320893"/>
     <use style="fill:#1f77b4;stroke:#1f77b4;" x="128.744527" xlink:href="#m43d2d40095" y="255.158314"/>
     <use style="fill:#1f77b4;stroke:#1f77b4;" x="136.360585" xlink:href="#m43d2d40095" y="225.93466"/>
     <use style="fill:#1f77b4;stroke:#1f77b4;" x="142.231315" xlink:href="#m43d2d40095" y="220.546632"/>
     <use style="fill:#1f77b4;stroke:#1f77b4;" x="143.073052" xlink:href="#m43d2d40095" y="225.107606"/>
     <use style="fill:#1f77b4;stroke:#1f77b4;" x="143.918832" xlink:href="#m43d2d40095" y="231.832916"/>
     <use style="fill:#1f77b4;stroke:#1f77b4;" x="144.76286" xlink:href="#m43d2d40095" y="211.033814"/>
     <use style="fill:#1f77b4;stroke:#1f77b4;" x="145.612006" xlink:href="#m43d2d40095" y="224.344727"/>
     <use style="fill:#1f77b4;stroke:#1f77b4;" x="155.771705" xlink:href="#m43d2d40095" y="231.655874"/>
     <use style="fill:#1f77b4;stroke:#1f77b4;" x="163.21203" xlink:href="#m43d2d40095" y="221.628031"/>
     <use style="fill:#1f77b4;stroke:#1f77b4;" x="164.180987" xlink:href="#m43d2d40095" y="206.886298"/>
     <use style="fill:#1f77b4;stroke:#1f77b4;" x="165.042171" xlink:href="#m43d2d40095" y="216.659432"/>
     <use style="fill:#1f77b4;stroke:#1f77b4;" x="170.943837" xlink:href="#m43d2d40095" y="231.362143"/>
     <use style="fill:#1f77b4;stroke:#1f77b4;" x="173.496775" xlink:href="#m43d2d40095" y="236.848937"/>
     <use style="fill:#1f77b4;stroke:#1f77b4;" x="207.146958" xlink:href="#m43d2d40095" y="222.677338"/>
     <use style="fill:#1f77b4;stroke:#1f77b4;" x="210.529274" xlink:href="#m43d2d40095" y="225.366668"/>
     <use style="fill:#1f77b4;stroke:#1f77b4;" x="218.978819" xlink:href="#m43d2d40095" y="253.892803"/>
     <use style="fill:#1f77b4;stroke:#1f77b4;" x="346.082599" xlink:href="#m43d2d40095" y="269.006087"/>
     <use style="fill:#1f77b4;stroke:#1f77b4;" x="379.139631" xlink:href="#m43d2d40095" y="205.11151"/>
     <use style="fill:#1f77b4;stroke:#1f77b4;" x="396.853779" xlink:href="#m43d2d40095" y="261.09198"/>
     <use style="fill:#1f77b4;stroke:#1f77b4;" x="396.854161" xlink:href="#m43d2d40095" y="258.694021"/>
     <use style="fill:#1f77b4;stroke:#1f77b4;" x="397.677773" xlink:href="#m43d2d40095" y="277.166572"/>
     <use style="fill:#1f77b4;stroke:#1f77b4;" x="397.678155" xlink:href="#m43d2d40095" y="279.843209"/>
     <use style="fill:#1f77b4;stroke:#1f77b4;" x="398.486891" xlink:href="#m43d2d40095" y="220.61162"/>
     <use style="fill:#1f77b4;stroke:#1f77b4;" x="398.487273" xlink:href="#m43d2d40095" y="220.228042"/>
    </g>
   </g>
   <g id="matplotlib.axis_5">
    <g id="xtick_26">
     <g id="line2d_37">
      <g>
       <use style="stroke:#000000;stroke-width:0.8;" x="97.996351" xlink:href="#mac47f7ab93" y="307.584"/>
      </g>
     </g>
     <g id="text_22">
      <!-- 58300 -->
      <g transform="translate(82.090101 322.182437)scale(0.1 -0.1)">
       <use xlink:href="#DejaVuSerif-53"/>
       <use x="63.623047" xlink:href="#DejaVuSerif-56"/>
       <use x="127.246094" xlink:href="#DejaVuSerif-51"/>
       <use x="190.869141" xlink:href="#DejaVuSerif-48"/>
       <use x="254.492188" xlink:href="#DejaVuSerif-48"/>
      </g>
     </g>
    </g>
    <g id="xtick_27">
     <g id="line2d_38">
      <g>
       <use style="stroke:#000000;stroke-width:0.8;" x="140.27554" xlink:href="#mac47f7ab93" y="307.584"/>
      </g>
     </g>
     <g id="text_23">
      <!-- 58350 -->
      <g transform="translate(124.36929 322.182437)scale(0.1 -0.1)">
       <use xlink:href="#DejaVuSerif-53"/>
       <use x="63.623047" xlink:href="#DejaVuSerif-56"/>
       <use x="127.246094" xlink:href="#DejaVuSerif-51"/>
       <use x="190.869141" xlink:href="#DejaVuSerif-53"/>
       <use x="254.492188" xlink:href="#DejaVuSerif-48"/>
      </g>
     </g>
    </g>
    <g id="xtick_28">
     <g id="line2d_39">
      <g>
       <use style="stroke:#000000;stroke-width:0.8;" x="182.55473" xlink:href="#mac47f7ab93" y="307.584"/>
      </g>
     </g>
     <g id="text_24">
      <!-- 58400 -->
      <g transform="translate(166.64848 322.182437)scale(0.1 -0.1)">
       <use xlink:href="#DejaVuSerif-53"/>
       <use x="63.623047" xlink:href="#DejaVuSerif-56"/>
       <use x="127.246094" xlink:href="#DejaVuSerif-52"/>
       <use x="190.869141" xlink:href="#DejaVuSerif-48"/>
       <use x="254.492188" xlink:href="#DejaVuSerif-48"/>
      </g>
     </g>
    </g>
    <g id="xtick_29">
     <g id="line2d_40">
      <g>
       <use style="stroke:#000000;stroke-width:0.8;" x="224.833919" xlink:href="#mac47f7ab93" y="307.584"/>
      </g>
     </g>
     <g id="text_25">
      <!-- 58450 -->
      <g transform="translate(208.927669 322.182437)scale(0.1 -0.1)">
       <use xlink:href="#DejaVuSerif-53"/>
       <use x="63.623047" xlink:href="#DejaVuSerif-56"/>
       <use x="127.246094" xlink:href="#DejaVuSerif-52"/>
       <use x="190.869141" xlink:href="#DejaVuSerif-53"/>
       <use x="254.492188" xlink:href="#DejaVuSerif-48"/>
      </g>
     </g>
    </g>
    <g id="xtick_30">
     <g id="line2d_41">
      <g>
       <use style="stroke:#000000;stroke-width:0.8;" x="267.113108" xlink:href="#mac47f7ab93" y="307.584"/>
      </g>
     </g>
     <g id="text_26">
      <!-- 58500 -->
      <g transform="translate(251.206858 322.182437)scale(0.1 -0.1)">
       <use xlink:href="#DejaVuSerif-53"/>
       <use x="63.623047" xlink:href="#DejaVuSerif-56"/>
       <use x="127.246094" xlink:href="#DejaVuSerif-53"/>
       <use x="190.869141" xlink:href="#DejaVuSerif-48"/>
       <use x="254.492188" xlink:href="#DejaVuSerif-48"/>
      </g>
     </g>
    </g>
    <g id="xtick_31">
     <g id="line2d_42">
      <g>
       <use style="stroke:#000000;stroke-width:0.8;" x="309.392298" xlink:href="#mac47f7ab93" y="307.584"/>
      </g>
     </g>
     <g id="text_27">
      <!-- 58550 -->
      <g transform="translate(293.486048 322.182437)scale(0.1 -0.1)">
       <use xlink:href="#DejaVuSerif-53"/>
       <use x="63.623047" xlink:href="#DejaVuSerif-56"/>
       <use x="127.246094" xlink:href="#DejaVuSerif-53"/>
       <use x="190.869141" xlink:href="#DejaVuSerif-53"/>
       <use x="254.492188" xlink:href="#DejaVuSerif-48"/>
      </g>
     </g>
    </g>
    <g id="xtick_32">
     <g id="line2d_43">
      <g>
       <use style="stroke:#000000;stroke-width:0.8;" x="351.671487" xlink:href="#mac47f7ab93" y="307.584"/>
      </g>
     </g>
     <g id="text_28">
      <!-- 58600 -->
      <g transform="translate(335.765237 322.182437)scale(0.1 -0.1)">
       <use xlink:href="#DejaVuSerif-53"/>
       <use x="63.623047" xlink:href="#DejaVuSerif-56"/>
       <use x="127.246094" xlink:href="#DejaVuSerif-54"/>
       <use x="190.869141" xlink:href="#DejaVuSerif-48"/>
       <use x="254.492188" xlink:href="#DejaVuSerif-48"/>
      </g>
     </g>
    </g>
    <g id="xtick_33">
     <g id="line2d_44">
      <g>
       <use style="stroke:#000000;stroke-width:0.8;" x="393.950677" xlink:href="#mac47f7ab93" y="307.584"/>
      </g>
     </g>
     <g id="text_29">
      <!-- 58650 -->
      <g transform="translate(378.044427 322.182437)scale(0.1 -0.1)">
       <use xlink:href="#DejaVuSerif-53"/>
       <use x="63.623047" xlink:href="#DejaVuSerif-56"/>
       <use x="127.246094" xlink:href="#DejaVuSerif-54"/>
       <use x="190.869141" xlink:href="#DejaVuSerif-53"/>
       <use x="254.492188" xlink:href="#DejaVuSerif-48"/>
      </g>
     </g>
    </g>
    <g id="text_30">
     <!-- MJD -->
     <g transform="translate(225.027187 335.860562)scale(0.1 -0.1)">
      <defs>
       <path d="M -8.40625 -17.484375 
L -8.40625 -6 
L -2.828125 -6 
Q -2.6875 -10.84375 -0.53125 -13.203125 
Q 1.609375 -15.578125 5.90625 -15.578125 
Q 11.71875 -15.578125 14.015625 -11.90625 
Q 16.3125 -8.25 16.3125 2.390625 
L 16.3125 67.671875 
L 4.984375 67.671875 
L 4.984375 72.90625 
L 35.5 72.90625 
L 35.5 67.671875 
L 26.21875 67.671875 
L 26.21875 2 
Q 26.21875 -10.0625 21.375 -15.421875 
Q 16.546875 -20.796875 5.8125 -20.796875 
Q 2.34375 -20.796875 -1.234375 -19.96875 
Q -4.828125 -19.140625 -8.40625 -17.484375 
z
" id="DejaVuSerif-74"/>
       <path d="M 24.703125 5.171875 
L 33.796875 5.171875 
Q 48 5.171875 55.59375 13.28125 
Q 63.1875 21.390625 63.1875 36.53125 
Q 63.1875 51.65625 55.609375 59.65625 
Q 48.046875 67.671875 33.796875 67.671875 
L 24.703125 67.671875 
z
M 5.515625 0 
L 5.515625 5.171875 
L 14.796875 5.171875 
L 14.796875 67.671875 
L 5.515625 67.671875 
L 5.515625 72.90625 
L 34.515625 72.90625 
Q 53.375 72.90625 63.890625 63.28125 
Q 74.421875 53.65625 74.421875 36.53125 
Q 74.421875 19.34375 63.875 9.671875 
Q 53.328125 0 34.515625 0 
z
" id="DejaVuSerif-68"/>
      </defs>
      <use xlink:href="#DejaVuSerif-77"/>
      <use x="102.392578" xlink:href="#DejaVuSerif-74"/>
      <use x="142.480469" xlink:href="#DejaVuSerif-68"/>
     </g>
    </g>
   </g>
   <g id="matplotlib.axis_6">
    <g id="ytick_7">
     <g id="line2d_45">
      <g>
       <use style="stroke:#000000;stroke-width:0.8;" x="57.6" xlink:href="#m15ef657d06" y="224.2894"/>
      </g>
     </g>
     <g id="text_31">
      <!-- 16.0 -->
      <g transform="translate(28.334375 228.088619)scale(0.1 -0.1)">
       <use xlink:href="#DejaVuSerif-49"/>
       <use x="63.623047" xlink:href="#DejaVuSerif-54"/>
       <use x="127.246094" xlink:href="#DejaVuSerif-46"/>
       <use x="159.033203" xlink:href="#DejaVuSerif-48"/>
      </g>
     </g>
    </g>
    <g id="ytick_8">
     <g id="line2d_46">
      <g>
       <use style="stroke:#000000;stroke-width:0.8;" x="57.6" xlink:href="#m15ef657d06" y="262.963546"/>
      </g>
     </g>
     <g id="text_32">
      <!-- 16.5 -->
      <g transform="translate(28.334375 266.762764)scale(0.1 -0.1)">
       <use xlink:href="#DejaVuSerif-49"/>
       <use x="63.623047" xlink:href="#DejaVuSerif-54"/>
       <use x="127.246094" xlink:href="#DejaVuSerif-46"/>
       <use x="159.033203" xlink:href="#DejaVuSerif-53"/>
      </g>
     </g>
    </g>
    <g id="ytick_9">
     <g id="line2d_47">
      <g>
       <use style="stroke:#000000;stroke-width:0.8;" x="57.6" xlink:href="#m15ef657d06" y="301.637691"/>
      </g>
     </g>
     <g id="text_33">
      <!-- 17.0 -->
      <g transform="translate(28.334375 305.43691)scale(0.1 -0.1)">
       <use xlink:href="#DejaVuSerif-49"/>
       <use x="63.623047" xlink:href="#DejaVuSerif-55"/>
       <use x="127.246094" xlink:href="#DejaVuSerif-46"/>
       <use x="159.033203" xlink:href="#DejaVuSerif-48"/>
      </g>
     </g>
    </g>
    <g id="text_34">
     <!-- Mag -->
     <g transform="translate(22.1125 264.576991)rotate(-90)scale(0.1 -0.1)">
      <use xlink:href="#DejaVuSerif-77"/>
      <use x="102.392578" xlink:href="#DejaVuSerif-97"/>
      <use x="162.011719" xlink:href="#DejaVuSerif-103"/>
     </g>
    </g>
   </g>
   <g id="LineCollection_5">
    <path clip-path="url(#pa9a97c506f)" d="M 73.832727 218.811266 
L 73.832727 221.270825 
" style="fill:none;stroke:#1f77b4;stroke-width:0.5;"/>
    <path clip-path="url(#pa9a97c506f)" d="M 73.833119 218.390855 
L 73.833119 220.84899 
" style="fill:none;stroke:#1f77b4;stroke-width:0.5;"/>
    <path clip-path="url(#pa9a97c506f)" d="M 94.910293 221.461175 
L 94.910293 223.929948 
" style="fill:none;stroke:#1f77b4;stroke-width:0.5;"/>
    <path clip-path="url(#pa9a97c506f)" d="M 94.910684 221.45462 
L 94.910684 223.923369 
" style="fill:none;stroke:#1f77b4;stroke-width:0.5;"/>
    <path clip-path="url(#pa9a97c506f)" d="M 96.675449 255.507144 
L 96.675449 258.137178 
" style="fill:none;stroke:#1f77b4;stroke-width:0.5;"/>
    <path clip-path="url(#pa9a97c506f)" d="M 99.185169 216.757169 
L 99.185169 219.209868 
" style="fill:none;stroke:#1f77b4;stroke-width:0.5;"/>
    <path clip-path="url(#pa9a97c506f)" d="M 99.18789 216.097459 
L 99.18789 218.548006 
" style="fill:none;stroke:#1f77b4;stroke-width:0.5;"/>
    <path clip-path="url(#pa9a97c506f)" d="M 121.144305 233.698202 
L 121.144305 236.215237 
" style="fill:none;stroke:#1f77b4;stroke-width:0.5;"/>
    <path clip-path="url(#pa9a97c506f)" d="M 121.988998 242.971757 
L 121.988998 245.532251 
" style="fill:none;stroke:#1f77b4;stroke-width:0.5;"/>
    <path clip-path="url(#pa9a97c506f)" d="M 121.98938 243.651622 
L 121.98938 246.215557 
" style="fill:none;stroke:#1f77b4;stroke-width:0.5;"/>
    <path clip-path="url(#pa9a97c506f)" d="M 123.69785 252.006307 
L 123.69785 254.615579 
" style="fill:none;stroke:#1f77b4;stroke-width:0.5;"/>
    <path clip-path="url(#pa9a97c506f)" d="M 123.698242 253.395088 
L 123.698242 256.012466 
" style="fill:none;stroke:#1f77b4;stroke-width:0.5;"/>
    <path clip-path="url(#pa9a97c506f)" d="M 125.362202 237.933113 
L 125.362202 240.469209 
" style="fill:none;stroke:#1f77b4;stroke-width:0.5;"/>
    <path clip-path="url(#pa9a97c506f)" d="M 125.362594 238.169202 
L 125.362594 240.706398 
" style="fill:none;stroke:#1f77b4;stroke-width:0.5;"/>
    <path clip-path="url(#pa9a97c506f)" d="M 126.199487 236.427926 
L 126.199487 238.9571 
" style="fill:none;stroke:#1f77b4;stroke-width:0.5;"/>
    <path clip-path="url(#pa9a97c506f)" d="M 126.199878 235.240619 
L 126.199878 237.764447 
" style="fill:none;stroke:#1f77b4;stroke-width:0.5;"/>
    <path clip-path="url(#pa9a97c506f)" d="M 127.090237 299.045494 
L 127.090237 302.042897 
" style="fill:none;stroke:#1f77b4;stroke-width:0.5;"/>
    <path clip-path="url(#pa9a97c506f)" d="M 127.090618 299.642722 
L 127.090618 302.646857 
" style="fill:none;stroke:#1f77b4;stroke-width:0.5;"/>
    <path clip-path="url(#pa9a97c506f)" d="M 127.899364 241.67907 
L 127.899364 244.23312 
" style="fill:none;stroke:#1f77b4;stroke-width:0.5;"/>
    <path clip-path="url(#pa9a97c506f)" d="M 127.899756 239.607175 
L 127.899756 242.151165 
" style="fill:none;stroke:#1f77b4;stroke-width:0.5;"/>
    <path clip-path="url(#pa9a97c506f)" d="M 128.744146 254.010381 
L 128.744146 256.631404 
" style="fill:none;stroke:#1f77b4;stroke-width:0.5;"/>
    <path clip-path="url(#pa9a97c506f)" d="M 128.744527 253.848284 
L 128.744527 256.468344 
" style="fill:none;stroke:#1f77b4;stroke-width:0.5;"/>
    <path clip-path="url(#pa9a97c506f)" d="M 136.360585 224.694365 
L 136.360585 227.174955 
" style="fill:none;stroke:#1f77b4;stroke-width:0.5;"/>
    <path clip-path="url(#pa9a97c506f)" d="M 142.231315 219.315992 
L 142.231315 221.777273 
" style="fill:none;stroke:#1f77b4;stroke-width:0.5;"/>
    <path clip-path="url(#pa9a97c506f)" d="M 143.073052 223.86885 
L 143.073052 226.346362 
" style="fill:none;stroke:#1f77b4;stroke-width:0.5;"/>
    <path clip-path="url(#pa9a97c506f)" d="M 143.918832 230.581013 
L 143.918832 233.084819 
" style="fill:none;stroke:#1f77b4;stroke-width:0.5;"/>
    <path clip-path="url(#pa9a97c506f)" d="M 144.76286 209.818176 
L 144.76286 212.249451 
" style="fill:none;stroke:#1f77b4;stroke-width:0.5;"/>
    <path clip-path="url(#pa9a97c506f)" d="M 145.612006 223.107373 
L 145.612006 225.582082 
" style="fill:none;stroke:#1f77b4;stroke-width:0.5;"/>
    <path clip-path="url(#pa9a97c506f)" d="M 155.771705 230.404335 
L 155.771705 232.907412 
" style="fill:none;stroke:#1f77b4;stroke-width:0.5;"/>
    <path clip-path="url(#pa9a97c506f)" d="M 163.21203 220.395523 
L 163.21203 222.86054 
" style="fill:none;stroke:#1f77b4;stroke-width:0.5;"/>
    <path clip-path="url(#pa9a97c506f)" d="M 164.180987 205.676445 
L 164.180987 208.096151 
" style="fill:none;stroke:#1f77b4;stroke-width:0.5;"/>
    <path clip-path="url(#pa9a97c506f)" d="M 165.042171 215.435226 
L 165.042171 217.883638 
" style="fill:none;stroke:#1f77b4;stroke-width:0.5;"/>
    <path clip-path="url(#pa9a97c506f)" d="M 170.943837 230.111208 
L 170.943837 232.613079 
" style="fill:none;stroke:#1f77b4;stroke-width:0.5;"/>
    <path clip-path="url(#pa9a97c506f)" d="M 173.496775 235.58625 
L 173.496775 238.111624 
" style="fill:none;stroke:#1f77b4;stroke-width:0.5;"/>
    <path clip-path="url(#pa9a97c506f)" d="M 207.146958 221.442984 
L 207.146958 223.911692 
" style="fill:none;stroke:#1f77b4;stroke-width:0.5;"/>
    <path clip-path="url(#pa9a97c506f)" d="M 210.529274 224.127433 
L 210.529274 226.605904 
" style="fill:none;stroke:#1f77b4;stroke-width:0.5;"/>
    <path clip-path="url(#pa9a97c506f)" d="M 218.978819 252.586485 
L 218.978819 255.199122 
" style="fill:none;stroke:#1f77b4;stroke-width:0.5;"/>
    <path clip-path="url(#pa9a97c506f)" d="M 346.082599 267.650621 
L 346.082599 270.361553 
" style="fill:none;stroke:#1f77b4;stroke-width:0.5;"/>
    <path clip-path="url(#pa9a97c506f)" d="M 379.139631 203.904 
L 379.139631 206.31902 
" style="fill:none;stroke:#1f77b4;stroke-width:0.5;"/>
    <path clip-path="url(#pa9a97c506f)" d="M 396.853779 259.763594 
L 396.853779 262.420366 
" style="fill:none;stroke:#1f77b4;stroke-width:0.5;"/>
    <path clip-path="url(#pa9a97c506f)" d="M 396.854161 257.373246 
L 396.854161 260.014795 
" style="fill:none;stroke:#1f77b4;stroke-width:0.5;"/>
    <path clip-path="url(#pa9a97c506f)" d="M 397.677773 275.779794 
L 397.677773 278.553349 
" style="fill:none;stroke:#1f77b4;stroke-width:0.5;"/>
    <path clip-path="url(#pa9a97c506f)" d="M 397.678155 278.445357 
L 397.678155 281.241061 
" style="fill:none;stroke:#1f77b4;stroke-width:0.5;"/>
    <path clip-path="url(#pa9a97c506f)" d="M 398.486891 219.380868 
L 398.486891 221.842373 
" style="fill:none;stroke:#1f77b4;stroke-width:0.5;"/>
    <path clip-path="url(#pa9a97c506f)" d="M 398.487273 218.997945 
L 398.487273 221.45814 
" style="fill:none;stroke:#1f77b4;stroke-width:0.5;"/>
   </g>
   <g id="line2d_48">
    <path clip-path="url(#pa9a97c506f)" d="M 73.832727 220.041045 
L 73.833119 219.619922 
L 94.910293 222.695561 
L 94.910684 222.688994 
L 96.675449 256.822161 
L 99.185169 217.983519 
L 99.18789 217.322732 
L 121.144305 234.95672 
L 121.988998 244.252004 
L 121.98938 244.933589 
L 123.69785 253.310943 
L 123.698242 254.703777 
L 125.362202 239.201161 
L 125.362594 239.4378 
L 126.199487 237.692513 
L 126.199878 236.502533 
L 127.090237 300.544195 
L 127.090618 301.144789 
L 127.899364 242.956095 
L 127.899756 240.87917 
L 128.744146 255.320893 
L 128.744527 255.158314 
L 136.360585 225.93466 
L 142.231315 220.546632 
L 143.073052 225.107606 
L 143.918832 231.832916 
L 144.76286 211.033814 
L 145.612006 224.344727 
L 155.771705 231.655874 
L 163.21203 221.628031 
L 164.180987 206.886298 
L 165.042171 216.659432 
L 170.943837 231.362143 
L 173.496775 236.848937 
L 207.146958 222.677338 
L 210.529274 225.366668 
L 218.978819 253.892803 
L 346.082599 269.006087 
L 379.139631 205.11151 
L 396.853779 261.09198 
L 396.854161 258.694021 
L 397.677773 277.166572 
L 397.678155 279.843209 
L 398.486891 220.61162 
L 398.487273 220.228042 
" style="fill:none;"/>
   </g>
   <g id="patch_14">
    <path d="M 57.6 307.584 
L 57.6 198.966857 
" style="fill:none;stroke:#000000;stroke-linecap:square;stroke-linejoin:miter;stroke-width:0.8;"/>
   </g>
   <g id="patch_15">
    <path d="M 414.72 307.584 
L 414.72 198.966857 
" style="fill:none;stroke:#000000;stroke-linecap:square;stroke-linejoin:miter;stroke-width:0.8;"/>
   </g>
   <g id="patch_16">
    <path d="M 57.6 307.584 
L 414.72 307.584 
" style="fill:none;stroke:#000000;stroke-linecap:square;stroke-linejoin:miter;stroke-width:0.8;"/>
   </g>
   <g id="patch_17">
    <path d="M 57.6 198.966857 
L 414.72 198.966857 
" style="fill:none;stroke:#000000;stroke-linecap:square;stroke-linejoin:miter;stroke-width:0.8;"/>
   </g>
   <g id="text_35">
    <!-- Light Curve -->
    <g transform="translate(206.000625 192.966857)scale(0.1 -0.1)">
     <use xlink:href="#DejaVuSerif-76"/>
     <use x="66.40625" xlink:href="#DejaVuSerif-105"/>
     <use x="98.388672" xlink:href="#DejaVuSerif-103"/>
     <use x="162.402344" xlink:href="#DejaVuSerif-104"/>
     <use x="226.806641" xlink:href="#DejaVuSerif-116"/>
     <use x="266.992188" xlink:href="#DejaVuSerif-32"/>
     <use x="298.779297" xlink:href="#DejaVuSerif-67"/>
     <use x="375.292969" xlink:href="#DejaVuSerif-117"/>
     <use x="439.697266" xlink:href="#DejaVuSerif-114"/>
     <use x="487.5" xlink:href="#DejaVuSerif-118"/>
     <use x="543.994141" xlink:href="#DejaVuSerif-101"/>
    </g>
   </g>
  </g>
 </g>
 <defs>
  <clipPath id="p3460a4e4e6">
   <rect height="108.617143" width="148.8" x="265.92" y="41.472"/>
  </clipPath>
  <clipPath id="pdae941d9b1">
   <rect height="108.617143" width="148.8" x="57.6" y="41.472"/>
  </clipPath>
  <clipPath id="pa9a97c506f">
   <rect height="108.617143" width="357.12" x="57.6" y="198.966857"/>
  </clipPath>
 </defs>
</svg>
