<?xml version="1.0" encoding="utf-8" standalone="no"?>
<!DOCTYPE svg PUBLIC "-//W3C//DTD SVG 1.1//EN"
  "http://www.w3.org/Graphics/SVG/1.1/DTD/svg11.dtd">
<!-- Created with matplotlib (https://matplotlib.org/) -->
<svg height="345.6pt" version="1.1" viewBox="0 0 460.8 345.6" width="460.8pt" xmlns="http://www.w3.org/2000/svg" xmlns:xlink="http://www.w3.org/1999/xlink">
 <metadata>
  <rdf:RDF xmlns:cc="http://creativecommons.org/ns#" xmlns:dc="http://purl.org/dc/elements/1.1/" xmlns:rdf="http://www.w3.org/1999/02/22-rdf-syntax-ns#">
   <cc:Work>
    <dc:type rdf:resource="http://purl.org/dc/dcmitype/StillImage"/>
    <dc:date>2021-02-16T16:27:54.688218</dc:date>
    <dc:format>image/svg+xml</dc:format>
    <dc:creator>
     <cc:Agent>
      <dc:title>Matplotlib v3.3.3, https://matplotlib.org/</dc:title>
     </cc:Agent>
    </dc:creator>
   </cc:Work>
  </rdf:RDF>
 </metadata>
 <defs>
  <style type="text/css">*{stroke-linecap:butt;stroke-linejoin:round;}</style>
 </defs>
 <g id="figure_1">
  <g id="patch_1">
   <path d="M 0 345.6 
L 460.8 345.6 
L 460.8 0 
L 0 0 
z
" style="fill:#ffffff;"/>
  </g>
  <g id="axes_1">
   <g id="patch_2">
    <path d="M 265.92 150.089143 
L 414.72 150.089143 
L 414.72 41.472 
L 265.92 41.472 
z
" style="fill:#ffffff;"/>
   </g>
   <g id="matplotlib.axis_1">
    <g id="xtick_1">
     <g id="line2d_1">
      <defs>
       <path d="M 0 0 
L 0 3.5 
" id="mfcbb1c5f2c" style="stroke:#000000;stroke-width:0.8;"/>
      </defs>
      <g>
       <use style="stroke:#000000;stroke-width:0.8;" x="315.519224" xlink:href="#mfcbb1c5f2c" y="150.089143"/>
      </g>
     </g>
     <g id="text_1">
      <!-- $\mathdefault{10^{1}}$ -->
      <g transform="translate(306.719224 164.68758)scale(0.1 -0.1)">
       <defs>
        <path d="M 14.203125 0 
L 14.203125 5.171875 
L 26.90625 5.171875 
L 26.90625 65.828125 
L 12.203125 56.296875 
L 12.203125 62.703125 
L 29.984375 74.21875 
L 36.71875 74.21875 
L 36.71875 5.171875 
L 49.421875 5.171875 
L 49.421875 0 
z
" id="DejaVuSerif-49"/>
        <path d="M 31.78125 3.421875 
Q 39.265625 3.421875 42.96875 11.625 
Q 46.6875 19.828125 46.6875 36.375 
Q 46.6875 52.984375 42.96875 61.1875 
Q 39.265625 69.390625 31.78125 69.390625 
Q 24.3125 69.390625 20.59375 61.1875 
Q 16.890625 52.984375 16.890625 36.375 
Q 16.890625 19.828125 20.59375 11.625 
Q 24.3125 3.421875 31.78125 3.421875 
z
M 31.78125 -1.421875 
Q 19.921875 -1.421875 13.25 8.53125 
Q 6.59375 18.5 6.59375 36.375 
Q 6.59375 54.296875 13.25 64.25 
Q 19.921875 74.21875 31.78125 74.21875 
Q 43.703125 74.21875 50.34375 64.25 
Q 56.984375 54.296875 56.984375 36.375 
Q 56.984375 18.5 50.34375 8.53125 
Q 43.703125 -1.421875 31.78125 -1.421875 
z
" id="DejaVuSerif-48"/>
       </defs>
       <use transform="translate(0 0.7125)" xlink:href="#DejaVuSerif-49"/>
       <use transform="translate(63.623047 0.7125)" xlink:href="#DejaVuSerif-48"/>
       <use transform="translate(128.154453 37.046875)scale(0.7)" xlink:href="#DejaVuSerif-49"/>
      </g>
     </g>
    </g>
    <g id="xtick_2">
     <g id="line2d_2">
      <g>
       <use style="stroke:#000000;stroke-width:0.8;" x="373.218149" xlink:href="#mfcbb1c5f2c" y="150.089143"/>
      </g>
     </g>
     <g id="text_2">
      <!-- $\mathdefault{10^{2}}$ -->
      <g transform="translate(364.418149 164.68758)scale(0.1 -0.1)">
       <defs>
        <path d="M 12.796875 55.515625 
L 7.328125 55.515625 
L 7.328125 68.5 
Q 12.546875 71.296875 17.84375 72.75 
Q 23.140625 74.21875 28.21875 74.21875 
Q 39.59375 74.21875 46.1875 68.703125 
Q 52.78125 63.1875 52.78125 53.71875 
Q 52.78125 43.015625 37.84375 28.125 
Q 36.671875 27 36.078125 26.421875 
L 17.671875 8.015625 
L 48.09375 8.015625 
L 48.09375 17 
L 53.8125 17 
L 53.8125 0 
L 6.78125 0 
L 6.78125 5.328125 
L 28.90625 27.390625 
Q 36.234375 34.71875 39.359375 40.84375 
Q 42.484375 46.96875 42.484375 53.71875 
Q 42.484375 61.078125 38.640625 65.234375 
Q 34.8125 69.390625 28.078125 69.390625 
Q 21.09375 69.390625 17.28125 65.921875 
Q 13.484375 62.453125 12.796875 55.515625 
z
" id="DejaVuSerif-50"/>
       </defs>
       <use transform="translate(0 0.7125)" xlink:href="#DejaVuSerif-49"/>
       <use transform="translate(63.623047 0.7125)" xlink:href="#DejaVuSerif-48"/>
       <use transform="translate(128.154453 37.046875)scale(0.7)" xlink:href="#DejaVuSerif-50"/>
      </g>
     </g>
    </g>
    <g id="xtick_3">
     <g id="line2d_3">
      <defs>
       <path d="M 0 0 
L 0 2 
" id="m99dc01de4c" style="stroke:#000000;stroke-width:0.6;"/>
      </defs>
      <g>
       <use style="stroke:#000000;stroke-width:0.6;" x="275.189406" xlink:href="#m99dc01de4c" y="150.089143"/>
      </g>
     </g>
    </g>
    <g id="xtick_4">
     <g id="line2d_4">
      <g>
       <use style="stroke:#000000;stroke-width:0.6;" x="285.349683" xlink:href="#m99dc01de4c" y="150.089143"/>
      </g>
     </g>
    </g>
    <g id="xtick_5">
     <g id="line2d_5">
      <g>
       <use style="stroke:#000000;stroke-width:0.6;" x="292.558513" xlink:href="#m99dc01de4c" y="150.089143"/>
      </g>
     </g>
    </g>
    <g id="xtick_6">
     <g id="line2d_6">
      <g>
       <use style="stroke:#000000;stroke-width:0.6;" x="298.150117" xlink:href="#m99dc01de4c" y="150.089143"/>
      </g>
     </g>
    </g>
    <g id="xtick_7">
     <g id="line2d_7">
      <g>
       <use style="stroke:#000000;stroke-width:0.6;" x="302.71879" xlink:href="#m99dc01de4c" y="150.089143"/>
      </g>
     </g>
    </g>
    <g id="xtick_8">
     <g id="line2d_8">
      <g>
       <use style="stroke:#000000;stroke-width:0.6;" x="306.581548" xlink:href="#m99dc01de4c" y="150.089143"/>
      </g>
     </g>
    </g>
    <g id="xtick_9">
     <g id="line2d_9">
      <g>
       <use style="stroke:#000000;stroke-width:0.6;" x="309.927621" xlink:href="#m99dc01de4c" y="150.089143"/>
      </g>
     </g>
    </g>
    <g id="xtick_10">
     <g id="line2d_10">
      <g>
       <use style="stroke:#000000;stroke-width:0.6;" x="312.879066" xlink:href="#m99dc01de4c" y="150.089143"/>
      </g>
     </g>
    </g>
    <g id="xtick_11">
     <g id="line2d_11">
      <g>
       <use style="stroke:#000000;stroke-width:0.6;" x="332.888331" xlink:href="#m99dc01de4c" y="150.089143"/>
      </g>
     </g>
    </g>
    <g id="xtick_12">
     <g id="line2d_12">
      <g>
       <use style="stroke:#000000;stroke-width:0.6;" x="343.048608" xlink:href="#m99dc01de4c" y="150.089143"/>
      </g>
     </g>
    </g>
    <g id="xtick_13">
     <g id="line2d_13">
      <g>
       <use style="stroke:#000000;stroke-width:0.6;" x="350.257438" xlink:href="#m99dc01de4c" y="150.089143"/>
      </g>
     </g>
    </g>
    <g id="xtick_14">
     <g id="line2d_14">
      <g>
       <use style="stroke:#000000;stroke-width:0.6;" x="355.849042" xlink:href="#m99dc01de4c" y="150.089143"/>
      </g>
     </g>
    </g>
    <g id="xtick_15">
     <g id="line2d_15">
      <g>
       <use style="stroke:#000000;stroke-width:0.6;" x="360.417715" xlink:href="#m99dc01de4c" y="150.089143"/>
      </g>
     </g>
    </g>
    <g id="xtick_16">
     <g id="line2d_16">
      <g>
       <use style="stroke:#000000;stroke-width:0.6;" x="364.280473" xlink:href="#m99dc01de4c" y="150.089143"/>
      </g>
     </g>
    </g>
    <g id="xtick_17">
     <g id="line2d_17">
      <g>
       <use style="stroke:#000000;stroke-width:0.6;" x="367.626546" xlink:href="#m99dc01de4c" y="150.089143"/>
      </g>
     </g>
    </g>
    <g id="xtick_18">
     <g id="line2d_18">
      <g>
       <use style="stroke:#000000;stroke-width:0.6;" x="370.577991" xlink:href="#m99dc01de4c" y="150.089143"/>
      </g>
     </g>
    </g>
    <g id="xtick_19">
     <g id="line2d_19">
      <g>
       <use style="stroke:#000000;stroke-width:0.6;" x="390.587256" xlink:href="#m99dc01de4c" y="150.089143"/>
      </g>
     </g>
    </g>
    <g id="xtick_20">
     <g id="line2d_20">
      <g>
       <use style="stroke:#000000;stroke-width:0.6;" x="400.747533" xlink:href="#m99dc01de4c" y="150.089143"/>
      </g>
     </g>
    </g>
    <g id="xtick_21">
     <g id="line2d_21">
      <g>
       <use style="stroke:#000000;stroke-width:0.6;" x="407.956364" xlink:href="#m99dc01de4c" y="150.089143"/>
      </g>
     </g>
    </g>
    <g id="xtick_22">
     <g id="line2d_22">
      <g>
       <use style="stroke:#000000;stroke-width:0.6;" x="413.547967" xlink:href="#m99dc01de4c" y="150.089143"/>
      </g>
     </g>
    </g>
    <g id="text_3">
     <!-- Period d -->
     <g transform="translate(319.231719 178.365705)scale(0.1 -0.1)">
      <defs>
       <path d="M 24.703125 37.109375 
L 37.59375 37.109375 
Q 44.875 37.109375 48.671875 41.03125 
Q 52.484375 44.96875 52.484375 52.390625 
Q 52.484375 59.859375 48.671875 63.765625 
Q 44.875 67.671875 37.59375 67.671875 
L 24.703125 67.671875 
z
M 5.515625 0 
L 5.515625 5.171875 
L 14.796875 5.171875 
L 14.796875 67.671875 
L 5.515625 67.671875 
L 5.515625 72.90625 
L 39.984375 72.90625 
Q 50.921875 72.90625 57.3125 67.359375 
Q 63.71875 61.8125 63.71875 52.390625 
Q 63.71875 43.015625 57.3125 37.453125 
Q 50.921875 31.890625 39.984375 31.890625 
L 24.703125 31.890625 
L 24.703125 5.171875 
L 35.984375 5.171875 
L 35.984375 0 
z
" id="DejaVuSerif-80"/>
       <path d="M 54.203125 25 
L 15.484375 25 
L 15.484375 24.609375 
Q 15.484375 14.109375 19.4375 8.765625 
Q 23.390625 3.421875 31.109375 3.421875 
Q 37.015625 3.421875 40.796875 6.515625 
Q 44.578125 9.625 46.09375 15.71875 
L 53.328125 15.71875 
Q 51.171875 7.171875 45.375 2.875 
Q 39.59375 -1.421875 30.171875 -1.421875 
Q 18.796875 -1.421875 11.890625 6.078125 
Q 4.984375 13.578125 4.984375 25.984375 
Q 4.984375 38.28125 11.765625 45.796875 
Q 18.5625 53.328125 29.59375 53.328125 
Q 41.359375 53.328125 47.65625 46.0625 
Q 53.953125 38.8125 54.203125 25 
z
M 43.609375 30.171875 
Q 43.3125 39.265625 39.765625 43.875 
Q 36.234375 48.484375 29.59375 48.484375 
Q 23.390625 48.484375 19.828125 43.84375 
Q 16.265625 39.203125 15.484375 30.171875 
z
" id="DejaVuSerif-101"/>
       <path d="M 47.796875 52 
L 47.796875 39.015625 
L 42.625 39.015625 
Q 42.390625 42.875 40.484375 44.78125 
Q 38.578125 46.6875 34.90625 46.6875 
Q 28.265625 46.6875 24.71875 42.09375 
Q 21.1875 37.5 21.1875 28.90625 
L 21.1875 5.171875 
L 31.59375 5.171875 
L 31.59375 0 
L 4.109375 0 
L 4.109375 5.171875 
L 12.203125 5.171875 
L 12.203125 46.78125 
L 3.609375 46.78125 
L 3.609375 51.90625 
L 21.1875 51.90625 
L 21.1875 42.671875 
Q 23.828125 48.09375 27.96875 50.703125 
Q 32.125 53.328125 38.09375 53.328125 
Q 40.28125 53.328125 42.703125 52.984375 
Q 45.125 52.640625 47.796875 52 
z
" id="DejaVuSerif-114"/>
       <path d="M 9.71875 68.015625 
Q 9.71875 70.265625 11.34375 71.921875 
Q 12.984375 73.578125 15.28125 73.578125 
Q 17.53125 73.578125 19.15625 71.921875 
Q 20.796875 70.265625 20.796875 68.015625 
Q 20.796875 65.71875 19.1875 64.109375 
Q 17.578125 62.5 15.28125 62.5 
Q 12.984375 62.5 11.34375 64.109375 
Q 9.71875 65.71875 9.71875 68.015625 
z
M 21.1875 5.171875 
L 29.6875 5.171875 
L 29.6875 0 
L 3.609375 0 
L 3.609375 5.171875 
L 12.203125 5.171875 
L 12.203125 46.6875 
L 3.609375 46.6875 
L 3.609375 51.90625 
L 21.1875 51.90625 
z
" id="DejaVuSerif-105"/>
       <path d="M 30.078125 3.421875 
Q 37.3125 3.421875 40.984375 9.125 
Q 44.671875 14.84375 44.671875 25.984375 
Q 44.671875 37.109375 40.984375 42.796875 
Q 37.3125 48.484375 30.078125 48.484375 
Q 22.859375 48.484375 19.171875 42.796875 
Q 15.484375 37.109375 15.484375 25.984375 
Q 15.484375 14.84375 19.1875 9.125 
Q 22.90625 3.421875 30.078125 3.421875 
z
M 30.078125 -1.421875 
Q 18.75 -1.421875 11.859375 6.078125 
Q 4.984375 13.578125 4.984375 25.984375 
Q 4.984375 38.375 11.84375 45.84375 
Q 18.703125 53.328125 30.078125 53.328125 
Q 41.453125 53.328125 48.3125 45.84375 
Q 55.171875 38.375 55.171875 25.984375 
Q 55.171875 13.578125 48.3125 6.078125 
Q 41.453125 -1.421875 30.078125 -1.421875 
z
" id="DejaVuSerif-111"/>
       <path d="M 52.484375 5.171875 
L 61.078125 5.171875 
L 61.078125 0 
L 43.5 0 
L 43.5 8.109375 
Q 40.875 3.21875 36.796875 0.890625 
Q 32.71875 -1.421875 26.703125 -1.421875 
Q 17.140625 -1.421875 11.0625 6.171875 
Q 4.984375 13.765625 4.984375 25.984375 
Q 4.984375 38.1875 11.03125 45.75 
Q 17.09375 53.328125 26.703125 53.328125 
Q 32.71875 53.328125 36.796875 51 
Q 40.875 48.6875 43.5 43.796875 
L 43.5 70.796875 
L 35.015625 70.796875 
L 35.015625 75.984375 
L 52.484375 75.984375 
z
M 43.5 23.390625 
L 43.5 28.515625 
Q 43.5 37.84375 39.90625 42.765625 
Q 36.328125 47.703125 29.5 47.703125 
Q 22.5625 47.703125 19.015625 42.234375 
Q 15.484375 36.765625 15.484375 25.984375 
Q 15.484375 15.234375 19.015625 9.71875 
Q 22.5625 4.203125 29.5 4.203125 
Q 36.328125 4.203125 39.90625 9.109375 
Q 43.5 14.015625 43.5 23.390625 
z
" id="DejaVuSerif-100"/>
       <path id="DejaVuSerif-32"/>
      </defs>
      <use xlink:href="#DejaVuSerif-80"/>
      <use x="62.785156" xlink:href="#DejaVuSerif-101"/>
      <use x="121.964844" xlink:href="#DejaVuSerif-114"/>
      <use x="169.767578" xlink:href="#DejaVuSerif-105"/>
      <use x="201.75" xlink:href="#DejaVuSerif-111"/>
      <use x="261.955078" xlink:href="#DejaVuSerif-100"/>
      <use x="325.96875" xlink:href="#DejaVuSerif-32"/>
      <use x="357.755859" xlink:href="#DejaVuSerif-100"/>
     </g>
    </g>
   </g>
   <g id="matplotlib.axis_2">
    <g id="ytick_1">
     <g id="line2d_23">
      <defs>
       <path d="M 0 0 
L -3.5 0 
" id="m7c2f5e7fed" style="stroke:#000000;stroke-width:0.8;"/>
      </defs>
      <g>
       <use style="stroke:#000000;stroke-width:0.8;" x="265.92" xlink:href="#m7c2f5e7fed" y="145.158147"/>
      </g>
     </g>
     <g id="text_4">
      <!-- 0.0 -->
      <g transform="translate(243.016875 148.957366)scale(0.1 -0.1)">
       <defs>
        <path d="M 9.421875 5.078125 
Q 9.421875 7.8125 11.28125 9.71875 
Q 13.140625 11.625 15.921875 11.625 
Q 18.609375 11.625 20.5 9.71875 
Q 22.40625 7.8125 22.40625 5.078125 
Q 22.40625 2.390625 20.5 0.484375 
Q 18.609375 -1.421875 15.921875 -1.421875 
Q 13.140625 -1.421875 11.28125 0.453125 
Q 9.421875 2.34375 9.421875 5.078125 
z
" id="DejaVuSerif-46"/>
       </defs>
       <use xlink:href="#DejaVuSerif-48"/>
       <use x="63.623047" xlink:href="#DejaVuSerif-46"/>
       <use x="95.410156" xlink:href="#DejaVuSerif-48"/>
      </g>
     </g>
    </g>
    <g id="ytick_2">
     <g id="line2d_24">
      <g>
       <use style="stroke:#000000;stroke-width:0.8;" x="265.92" xlink:href="#m7c2f5e7fed" y="102.128903"/>
      </g>
     </g>
     <g id="text_5">
      <!-- 0.2 -->
      <g transform="translate(243.016875 105.928122)scale(0.1 -0.1)">
       <use xlink:href="#DejaVuSerif-48"/>
       <use x="63.623047" xlink:href="#DejaVuSerif-46"/>
       <use x="95.410156" xlink:href="#DejaVuSerif-50"/>
      </g>
     </g>
    </g>
    <g id="ytick_3">
     <g id="line2d_25">
      <g>
       <use style="stroke:#000000;stroke-width:0.8;" x="265.92" xlink:href="#m7c2f5e7fed" y="59.099659"/>
      </g>
     </g>
     <g id="text_6">
      <!-- 0.4 -->
      <g transform="translate(243.016875 62.898877)scale(0.1 -0.1)">
       <defs>
        <path d="M 34.90625 24.703125 
L 34.90625 63.484375 
L 10.015625 24.703125 
z
M 56.390625 0 
L 23.1875 0 
L 23.1875 5.171875 
L 34.90625 5.171875 
L 34.90625 19.484375 
L 3.078125 19.484375 
L 3.078125 24.8125 
L 35.015625 74.21875 
L 44.671875 74.21875 
L 44.671875 24.703125 
L 58.59375 24.703125 
L 58.59375 19.484375 
L 44.671875 19.484375 
L 44.671875 5.171875 
L 56.390625 5.171875 
z
" id="DejaVuSerif-52"/>
       </defs>
       <use xlink:href="#DejaVuSerif-48"/>
       <use x="63.623047" xlink:href="#DejaVuSerif-46"/>
       <use x="95.410156" xlink:href="#DejaVuSerif-52"/>
      </g>
     </g>
    </g>
    <g id="text_7">
     <!-- Power -->
     <g transform="translate(236.937188 111.583696)rotate(-90)scale(0.1 -0.1)">
      <defs>
       <path d="M 48 51.90625 
L 61.28125 11.375 
L 73 46.6875 
L 65.484375 46.6875 
L 65.484375 51.90625 
L 84.28125 51.90625 
L 84.28125 46.6875 
L 78.515625 46.6875 
L 63.09375 0 
L 55.609375 0 
L 42.828125 38.8125 
L 29.984375 0 
L 22.796875 0 
L 7.421875 46.6875 
L 1.609375 46.6875 
L 1.609375 51.90625 
L 25.09375 51.90625 
L 25.09375 46.6875 
L 16.703125 46.6875 
L 28.328125 11.375 
L 41.703125 51.90625 
z
" id="DejaVuSerif-119"/>
      </defs>
      <use xlink:href="#DejaVuSerif-80"/>
      <use x="63.285156" xlink:href="#DejaVuSerif-111"/>
      <use x="123.490234" xlink:href="#DejaVuSerif-119"/>
      <use x="209.085938" xlink:href="#DejaVuSerif-101"/>
      <use x="268.265625" xlink:href="#DejaVuSerif-114"/>
     </g>
    </g>
   </g>
   <g id="LineCollection_1">
    <path clip-path="url(#p0e3a805481)" d="M 272.688076 46.409143 
L 407.956364 46.409143 
" style="fill:none;stroke:#808080;stroke-dasharray:5.55,2.4;stroke-dashoffset:0;stroke-width:1.5;"/>
   </g>
   <g id="LineCollection_2">
    <path clip-path="url(#p0e3a805481)" d="M 272.688076 60.397399 
L 407.956364 60.397399 
" style="fill:none;stroke:#a9a9a9;stroke-dasharray:5.55,2.4;stroke-dashoffset:0;stroke-width:1.5;"/>
   </g>
   <g id="LineCollection_3">
    <path clip-path="url(#p0e3a805481)" d="M 272.688076 71.38557 
L 407.956364 71.38557 
" style="fill:none;stroke:#c0c0c0;stroke-dasharray:5.55,2.4;stroke-dashoffset:0;stroke-width:1.5;"/>
   </g>
   <g id="LineCollection_4">
    <path clip-path="url(#p0e3a805481)" d="M 272.688076 76.568579 
L 407.956364 76.568579 
" style="fill:none;stroke:#d3d3d3;stroke-dasharray:5.55,2.4;stroke-dashoffset:0;stroke-width:1.5;"/>
   </g>
   <g id="line2d_26">
    <path clip-path="url(#p0e3a805481)" d="M 407.956364 127.310438 
L 403.213616 144.437866 
L 399.227255 128.625861 
L 395.788878 122.935534 
L 392.765875 126.63517 
L 390.068617 136.769027 
L 387.633683 143.431214 
L 385.414539 138.978579 
L 383.376032 133.793827 
L 381.490955 134.364421 
L 379.73782 140.788484 
L 378.099359 145.150676 
L 376.561486 141.870912 
L 375.112563 137.186248 
L 373.74286 133.297245 
L 372.444161 132.398335 
L 371.209467 135.722685 
L 370.032763 140.320668 
L 368.908846 143.098845 
L 367.833182 144.807346 
L 366.801799 137.742846 
L 365.811193 127.629289 
L 364.858264 122.524383 
L 363.940249 122.113368 
L 363.054681 128.044719 
L 362.199344 141.520004 
L 361.372241 137.515137 
L 360.571569 128.619939 
L 359.79569 123.361427 
L 359.043114 122.216171 
L 358.312483 129.889849 
L 357.602554 140.004138 
L 356.240326 123.06531 
L 355.586012 118.234301 
L 354.948349 117.900552 
L 354.326511 126.142023 
L 353.719731 137.334702 
L 353.127298 137.098204 
L 352.548548 133.28452 
L 351.982864 130.986993 
L 351.429669 130.185361 
L 350.888423 129.052857 
L 350.358621 132.634329 
L 349.839788 141.283022 
L 349.331481 139.644675 
L 348.83328 133.027718 
L 348.344791 134.483852 
L 347.865643 141.088032 
L 347.395485 145.137681 
L 346.933987 137.51921 
L 346.480834 126.579714 
L 346.035731 122.664371 
L 345.598396 124.556556 
L 345.168563 131.732982 
L 344.745979 132.413421 
L 344.330404 111.870172 
L 343.921608 101.145798 
L 343.519374 104.093034 
L 343.123495 114.959075 
L 342.733774 133.319495 
L 342.35002 144.332066 
L 341.599707 132.13405 
L 341.23281 134.998604 
L 340.871208 142.371092 
L 340.51475 144.136881 
L 340.163291 139.247852 
L 339.816694 132.823191 
L 339.474825 131.824487 
L 338.80477 139.819272 
L 338.476344 140.063858 
L 338.152167 143.159185 
L 337.83213 144.895268 
L 337.516128 135.931154 
L 337.204063 112.361771 
L 336.895836 99.942809 
L 336.591354 103.73332 
L 335.993269 139.289868 
L 335.699496 141.259348 
L 335.409128 128.335263 
L 335.122085 121.430437 
L 334.838294 128.312049 
L 334.55768 139.824225 
L 334.280174 133.402893 
L 334.005708 120.399009 
L 333.734215 114.74149 
L 333.465633 120.055243 
L 333.199898 135.661209 
L 332.936952 139.933315 
L 332.419196 106.3144 
L 332.164275 104.821815 
L 331.911921 115.681965 
L 331.662084 136.827852 
L 331.414712 144.893227 
L 330.927177 133.318718 
L 330.686922 133.980414 
L 330.448947 141.363217 
L 330.213212 145.152 
L 329.979673 142.363225 
L 329.519026 129.405612 
L 329.29184 126.268847 
L 329.066695 128.13753 
L 328.622384 139.848064 
L 327.970348 117.243686 
L 327.756719 119.895822 
L 327.33485 142.59552 
L 327.126548 142.303508 
L 326.71507 135.132241 
L 326.310239 143.822014 
L 325.519686 112.744199 
L 325.133569 135.838377 
L 324.942719 134.61987 
L 324.753312 130.131971 
L 324.565326 130.52724 
L 323.827173 143.7415 
L 323.645984 144.773315 
L 323.466094 143.161004 
L 323.110144 137.077827 
L 322.934048 139.215216 
L 322.75918 143.011192 
L 322.585524 142.021467 
L 322.241781 122.575363 
L 322.071662 123.228967 
L 321.73485 137.104248 
L 321.568126 129.405395 
L 321.237971 104.548797 
L 321.07451 109.60976 
L 320.750753 143.9992 
L 320.59043 141.00524 
L 320.431126 134.344911 
L 320.272828 134.3872 
L 319.959202 144.318647 
L 319.496001 126.138256 
L 319.041207 144.755219 
L 318.742534 137.34568 
L 318.594521 138.216734 
L 318.447378 141.814674 
L 318.301094 141.992347 
L 318.155658 139.50979 
L 318.011062 139.858133 
L 317.867296 141.532586 
L 317.582214 142.009573 
L 317.300339 143.410085 
L 317.160581 141.146606 
L 316.883384 128.595516 
L 316.745926 131.009667 
L 316.473253 144.671408 
L 316.338021 140.846921 
L 316.069727 128.914154 
L 315.804275 143.623935 
L 315.672596 141.999844 
L 315.411296 113.49184 
L 315.281661 114.731326 
L 315.024386 140.273857 
L 314.896732 140.549081 
L 314.643358 126.45711 
L 314.517626 127.359468 
L 314.268038 143.074045 
L 314.14417 144.807101 
L 313.898256 144.846439 
L 313.776199 143.607771 
L 313.533852 139.97931 
L 313.293827 144.032001 
L 313.05608 133.021037 
L 312.938046 127.660306 
L 312.820567 127.575025 
L 312.703635 132.827409 
L 312.587246 130.374181 
L 312.356079 114.305677 
L 312.24129 114.548988 
L 311.900044 138.957143 
L 311.675102 131.79903 
L 311.452161 142.87976 
L 311.34143 142.246813 
L 311.121425 130.119247 
L 311.012142 130.455079 
L 310.794997 141.31761 
L 310.687126 140.983971 
L 310.472767 137.301083 
L 310.366271 137.630017 
L 310.154628 141.5959 
L 309.944758 144.608151 
L 309.73663 138.602149 
L 309.633211 139.573529 
L 309.427645 143.761867 
L 309.122423 130.300357 
L 308.920988 143.749593 
L 308.820874 141.238146 
L 308.621839 127.389381 
L 308.522911 131.526751 
L 308.326219 143.404768 
L 308.13106 128.108712 
L 308.034047 130.704494 
L 307.84114 140.646569 
L 307.554537 110.511627 
L 307.177429 143.826457 
L 306.990981 141.774961 
L 306.898275 141.855084 
L 306.713886 137.609662 
L 306.622198 138.962714 
L 306.439822 144.617137 
L 306.258763 139.408416 
L 306.079003 144.843272 
L 305.989605 139.710283 
L 305.723307 106.98514 
L 305.459809 135.625736 
L 305.285671 116.882907 
L 305.199054 119.776641 
L 304.940984 144.152743 
L 304.770402 133.005613 
L 304.685544 134.265206 
L 304.516687 138.944228 
L 304.182347 130.270445 
L 304.016835 134.805465 
L 303.934487 133.765429 
L 303.770599 130.087742 
L 303.446004 142.774349 
L 303.28527 138.51173 
L 303.12556 140.231745 
L 302.887888 115.482313 
L 302.809162 119.143472 
L 302.574458 134.674184 
L 302.49671 133.366739 
L 302.419202 134.903678 
L 302.264901 143.788355 
L 302.035216 133.072089 
L 301.95912 135.673487 
L 301.883255 137.79636 
L 301.657027 131.544146 
L 301.358531 143.822178 
L 301.210607 145.048613 
L 300.990344 133.123166 
L 300.917351 136.089387 
L 300.772001 144.672886 
L 300.555543 128.792921 
L 300.41227 141.058867 
L 300.269812 117.747433 
L 300.128159 103.8469 
L 299.917169 137.431656 
L 299.77749 127.007645 
L 299.707941 129.024954 
L 299.500446 143.375867 
L 299.294655 133.058791 
L 299.158394 138.421951 
L 299.09054 137.885893 
L 298.888074 113.6171 
L 298.687231 133.605803 
L 298.62064 130.563524 
L 298.487985 120.857212 
L 298.290311 137.143327 
L 298.094184 119.188001 
L 297.89958 134.882038 
L 297.835046 132.68915 
L 297.770679 130.520921 
L 297.642437 137.912456 
L 297.514848 143.768285 
L 297.387906 141.852637 
L 297.324675 142.091231 
L 297.135934 144.779709 
L 297.073335 144.574696 
L 296.70099 137.820236 
L 296.578094 133.77567 
L 296.334097 144.466664 
L 296.273467 144.008376 
L 296.152645 144.687177 
L 295.972498 136.86399 
L 295.912735 137.260114 
L 295.793636 141.342084 
L 295.734298 141.311534 
L 295.675101 141.017333 
L 295.557123 144.054255 
L 295.498342 145.118159 
L 295.439699 144.812679 
L 295.264587 142.347642 
L 295.148522 144.324924 
L 295.090691 143.919118 
L 294.975427 131.704508 
L 294.86069 118.320112 
L 294.689565 138.48357 
L 294.632782 135.643316 
L 294.576127 130.037883 
L 294.5196 131.449503 
L 294.406927 144.314146 
L 294.350781 141.316741 
L 294.183091 117.645754 
L 294.016515 127.037745 
L 293.906077 117.39604 
L 293.686651 143.895017 
L 293.632093 141.326638 
L 293.361072 130.214658 
L 293.307218 131.588259 
L 293.146346 143.172137 
L 293.039669 142.891222 
L 292.9865 143.635386 
L 292.933444 143.025228 
L 292.722336 129.370726 
L 292.512992 142.546084 
L 292.460928 141.582092 
L 292.253748 136.088207 
L 292.150796 140.174702 
L 291.997158 144.875495 
L 291.946153 144.826515 
L 291.895253 144.542833 
L 291.692678 136.148334 
L 291.642289 137.075553 
L 291.342066 145.142738 
L 291.242785 142.488413 
L 291.143896 137.700404 
L 291.094598 139.068909 
L 290.947282 144.449886 
L 290.898369 143.749855 
L 290.800827 138.787816 
L 290.510461 108.710421 
L 290.462392 111.017129 
L 290.22342 136.337389 
L 290.128466 128.484219 
L 290.081123 124.314171 
L 289.986706 125.676706 
L 289.93963 123.613967 
L 289.845744 103.239946 
L 289.798932 104.594689 
L 289.612554 139.231305 
L 289.566176 135.371356 
L 289.519883 133.843808 
L 289.473675 135.154305 
L 289.335561 143.521966 
L 289.152586 122.546063 
L 289.10705 126.90187 
L 289.016226 134.156467 
L 288.880604 118.82615 
L 288.745712 142.048281 
L 288.700909 140.048306 
L 288.611543 136.077544 
L 288.522494 142.048481 
L 288.478087 139.267845 
L 288.389511 133.433247 
L 288.345339 137.101031 
L 288.25723 144.438213 
L 288.213291 144.315446 
L 288.038302 134.145423 
L 287.994745 136.65703 
L 287.951263 141.139784 
L 287.907857 139.841948 
L 287.778088 102.435332 
L 287.691947 111.095518 
L 287.648987 110.092185 
L 287.563288 69.932909 
L 287.477881 83.424498 
L 287.350314 110.787193 
L 287.307936 102.280637 
L 287.223394 115.989715 
L 287.139135 125.147132 
L 287.097112 121.010544 
L 287.05516 115.319768 
L 286.971464 116.089458 
L 286.804908 127.425152 
L 286.722043 134.748026 
L 286.680713 134.37642 
L 286.598257 132.99284 
L 286.55713 133.237416 
L 286.516071 134.770302 
L 286.475079 134.004621 
L 286.311779 100.211293 
L 286.230526 102.364693 
L 286.189998 103.023432 
L 286.149536 100.874522 
L 286.109139 101.655247 
L 285.868114 139.823772 
L 285.828167 143.579166 
L 285.788285 143.546243 
L 285.669016 131.806003 
L 285.629385 137.307064 
L 285.550312 144.648999 
L 285.510868 143.686255 
L 285.392909 127.481623 
L 285.353713 121.700377 
L 285.314578 125.180787 
L 285.23649 141.492553 
L 285.197537 133.409141 
L 285.119812 114.499933 
L 285.08104 122.569474 
L 285.042328 133.232463 
L 285.003676 127.154368 
L 284.888075 65.694721 
L 284.84966 78.692359 
L 284.811303 94.031385 
L 284.773005 90.424981 
L 284.696584 62.927065 
L 284.658461 69.86064 
L 284.544439 130.191095 
L 284.506546 122.650298 
L 284.468711 120.150865 
L 284.393211 133.996652 
L 284.355546 132.834413 
L 284.24289 98.075086 
L 284.205451 109.822858 
L 284.130739 128.768286 
L 284.093466 122.237553 
L 284.019087 96.731052 
L 283.98198 101.014172 
L 283.870987 137.341733 
L 283.834099 125.80397 
L 283.760485 114.589042 
L 283.723758 120.881801 
L 283.687086 122.94063 
L 283.577389 93.613206 
L 283.54093 99.45457 
L 283.323282 141.769782 
L 283.251151 144.85811 
L 283.179227 144.558175 
L 283.143342 144.316408 
L 283.071726 142.154454 
L 283.035995 142.971096 
L 283.000314 143.905227 
L 282.787292 125.876712 
L 282.716685 95.676651 
L 282.681457 102.143441 
L 282.611147 121.579785 
L 282.576066 117.261075 
L 282.506051 97.788884 
L 282.471117 107.395839 
L 282.436231 117.768368 
L 282.401394 112.075563 
L 282.331865 75.409423 
L 282.297172 80.195832 
L 282.193382 116.828581 
L 282.158881 106.124977 
L 282.124427 106.662348 
L 282.021348 145.093726 
L 281.987083 139.436169 
L 281.918692 131.758866 
L 281.884566 137.35879 
L 281.850487 144.121562 
L 281.816455 141.673602 
L 281.714633 114.16845 
L 281.680784 116.430052 
L 281.613223 142.274975 
L 281.57951 138.751256 
L 281.512222 116.076562 
L 281.478645 122.344945 
L 281.411626 144.587321 
L 281.378184 137.76953 
L 281.311432 124.30725 
L 281.278123 131.776103 
L 281.244859 142.089497 
L 281.178461 133.710095 
L 281.145328 131.816664 
L 281.079194 144.513857 
L 281.013234 135.787912 
L 280.980318 133.521513 
L 280.947446 137.880779 
L 280.914617 142.697044 
L 280.881831 136.985501 
L 280.816388 120.11982 
L 280.78373 125.120887 
L 280.718542 144.688283 
L 280.653522 136.103989 
L 280.588672 143.153719 
L 280.556309 141.585616 
L 280.491709 120.652188 
L 280.427275 130.413256 
L 280.39512 136.007154 
L 280.363006 130.108844 
L 280.298902 121.078303 
L 280.266911 126.716733 
L 280.234961 132.747782 
L 280.203052 122.597252 
L 280.171183 114.929499 
L 280.107567 118.811108 
L 279.94923 134.710026 
L 279.886175 145.011308 
L 279.823277 138.924988 
L 279.729226 144.623954 
L 279.635526 127.825409 
L 279.573254 134.843999 
L 279.511136 144.158379 
L 279.480135 138.769549 
L 279.418247 128.457557 
L 279.38736 136.781025 
L 279.356512 144.768328 
L 279.294928 131.972188 
L 279.264193 125.754383 
L 279.233496 128.039567 
L 279.172213 139.325552 
L 279.141628 124.326054 
L 279.11108 113.899201 
L 279.08057 118.444474 
L 279.01966 144.276114 
L 278.958897 128.012214 
L 278.928572 126.31527 
L 278.868029 143.343715 
L 278.837813 127.310797 
L 278.77749 86.833151 
L 278.717311 115.318123 
L 278.687276 140.811322 
L 278.597386 124.489441 
L 278.537638 144.232308 
L 278.507817 137.057164 
L 278.448282 120.443692 
L 278.418567 126.284603 
L 278.359243 140.546464 
L 278.329634 132.321028 
L 278.30006 129.529308 
L 278.27052 134.290545 
L 278.211546 144.371122 
L 278.18211 137.832579 
L 278.152709 131.823038 
L 278.094011 141.180194 
L 278.064713 140.569579 
L 278.00622 123.968502 
L 277.947864 133.623218 
L 277.802564 144.79696 
L 277.744679 136.824306 
L 277.686927 125.798622 
L 277.658102 128.779515 
L 277.600549 142.307847 
L 277.543128 135.337439 
L 277.485839 131.262357 
L 277.457243 134.441752 
L 277.40015 144.242396 
L 277.314753 141.966579 
L 277.286352 143.726391 
L 277.201341 109.45452 
L 277.144827 123.52786 
L 277.116617 132.443498 
L 277.08844 121.555198 
L 277.060294 103.525916 
L 277.004096 120.499003 
L 276.948025 141.913619 
L 276.920036 122.863077 
L 276.892079 112.873421 
L 276.836257 128.801812 
L 276.808393 138.276094 
L 276.780559 121.113933 
L 276.724985 103.991355 
L 276.697244 113.177 
L 276.641855 144.708304 
L 276.558999 140.701768 
L 276.531441 143.850501 
L 276.503913 141.247022 
L 276.448949 124.556501 
L 276.394104 140.420706 
L 276.366727 144.838505 
L 276.312062 139.293182 
L 276.284775 138.930157 
L 276.257517 139.088885 
L 276.17592 119.323464 
L 276.14878 126.18682 
L 276.094588 143.614697 
L 276.067536 137.326361 
L 276.013519 121.234472 
L 275.986554 132.631504 
L 275.959619 140.31676 
L 275.878985 138.142632 
L 275.852164 137.570456 
L 275.771875 142.825212 
L 275.745168 142.009108 
L 275.691841 128.044571 
L 275.638628 138.112052 
L 275.612063 143.830267 
L 275.559018 132.002628 
L 275.532538 129.616578 
L 275.506086 134.197054 
L 275.479661 143.32712 
L 275.426896 131.870647 
L 275.374241 122.629541 
L 275.347955 134.938653 
L 275.321697 137.92684 
L 275.216938 105.519071 
L 275.164722 133.95814 
L 275.086602 129.8531 
L 275.060615 138.466492 
L 275.034656 127.738139 
L 275.008724 113.423785 
L 274.95694 117.955056 
L 274.905263 141.210242 
L 274.827946 135.825667 
L 274.776534 144.483721 
L 274.750867 138.029588 
L 274.725226 130.838734 
L 274.674024 137.660577 
L 274.648462 144.272186 
L 274.597417 139.594204 
L 274.546475 125.832351 
L 274.495636 137.91615 
L 274.4449 143.211575 
L 274.419571 140.743023 
L 274.394267 134.639694 
L 274.318509 140.520846 
L 274.293307 140.471306 
L 274.242979 118.410248 
L 274.192752 139.303711 
L 274.167676 145.087148 
L 274.117599 133.679142 
L 274.092598 132.171654 
L 274.067622 136.745229 
L 274.042671 140.248571 
L 274.017745 135.07251 
L 273.992843 131.423468 
L 273.967967 136.354503 
L 273.943115 144.255042 
L 273.918287 142.085509 
L 273.868706 116.056537 
L 273.819223 139.090641 
L 273.794518 142.205677 
L 273.769837 133.151743 
L 273.74518 127.446214 
L 273.69594 139.432697 
L 273.671356 137.257922 
L 273.597749 85.639978 
L 273.573261 97.639604 
L 273.524357 139.674227 
L 273.45118 119.199535 
L 273.402514 143.484792 
L 273.353942 112.272925 
L 273.329691 99.606961 
L 273.281259 130.559486 
L 273.257079 130.157014 
L 273.208788 120.985196 
L 273.184677 124.11399 
L 273.136525 144.827112 
L 273.040497 144.238381 
L 273.016548 143.897063 
L 272.920978 129.172609 
L 272.897142 130.183433 
L 272.849539 143.321599 
L 272.802026 129.654244 
L 272.778303 128.963123 
L 272.70727 143.536017 
L 272.683636 142.428077 
" style="fill:none;stroke:#1f77b4;stroke-linecap:square;stroke-width:1.5;"/>
   </g>
   <g id="patch_3">
    <path d="M 265.92 150.089143 
L 265.92 41.472 
" style="fill:none;stroke:#000000;stroke-linecap:square;stroke-linejoin:miter;stroke-width:0.8;"/>
   </g>
   <g id="patch_4">
    <path d="M 414.72 150.089143 
L 414.72 41.472 
" style="fill:none;stroke:#000000;stroke-linecap:square;stroke-linejoin:miter;stroke-width:0.8;"/>
   </g>
   <g id="patch_5">
    <path d="M 265.92 150.089143 
L 414.72 150.089143 
" style="fill:none;stroke:#000000;stroke-linecap:square;stroke-linejoin:miter;stroke-width:0.8;"/>
   </g>
   <g id="patch_6">
    <path d="M 265.92 41.472 
L 414.72 41.472 
" style="fill:none;stroke:#000000;stroke-linecap:square;stroke-linejoin:miter;stroke-width:0.8;"/>
   </g>
   <g id="text_8">
    <!-- Periodogram -->
    <g transform="translate(307.698125 35.472)scale(0.1 -0.1)">
     <defs>
      <path d="M 52.484375 46.6875 
L 52.484375 1.125 
Q 52.484375 -10.0625 46.328125 -16.140625 
Q 40.1875 -22.21875 28.8125 -22.21875 
Q 23.6875 -22.21875 19 -21.28125 
Q 14.3125 -20.359375 10.015625 -18.5 
L 10.015625 -7.625 
L 14.703125 -7.625 
Q 15.578125 -12.703125 18.84375 -15.046875 
Q 22.125 -17.390625 28.21875 -17.390625 
Q 36.140625 -17.390625 39.8125 -12.921875 
Q 43.5 -8.453125 43.5 1.125 
L 43.5 8.109375 
Q 40.875 3.21875 36.796875 0.890625 
Q 32.71875 -1.421875 26.703125 -1.421875 
Q 17.140625 -1.421875 11.0625 6.171875 
Q 4.984375 13.765625 4.984375 25.984375 
Q 4.984375 38.1875 11.03125 45.75 
Q 17.09375 53.328125 26.703125 53.328125 
Q 32.71875 53.328125 36.796875 51 
Q 40.875 48.6875 43.5 43.796875 
L 43.5 51.90625 
L 61.078125 51.90625 
L 61.078125 46.6875 
z
M 43.5 28.515625 
Q 43.5 37.84375 39.90625 42.765625 
Q 36.328125 47.703125 29.5 47.703125 
Q 22.5625 47.703125 19.015625 42.234375 
Q 15.484375 36.765625 15.484375 25.984375 
Q 15.484375 15.234375 19.015625 9.71875 
Q 22.5625 4.203125 29.5 4.203125 
Q 36.328125 4.203125 39.90625 9.109375 
Q 43.5 14.015625 43.5 23.390625 
z
" id="DejaVuSerif-103"/>
      <path d="M 39.796875 16.3125 
L 39.796875 27.296875 
L 28.21875 27.296875 
Q 21.53125 27.296875 18.25 24.40625 
Q 14.984375 21.53125 14.984375 15.578125 
Q 14.984375 10.15625 18.296875 6.984375 
Q 21.625 3.8125 27.296875 3.8125 
Q 32.90625 3.8125 36.34375 7.28125 
Q 39.796875 10.75 39.796875 16.3125 
z
M 48.78125 32.421875 
L 48.78125 5.171875 
L 56.78125 5.171875 
L 56.78125 0 
L 39.796875 0 
L 39.796875 5.609375 
Q 36.8125 2 32.90625 0.28125 
Q 29 -1.421875 23.78125 -1.421875 
Q 15.140625 -1.421875 10.0625 3.171875 
Q 4.984375 7.765625 4.984375 15.578125 
Q 4.984375 23.640625 10.796875 28.078125 
Q 16.609375 32.515625 27.203125 32.515625 
L 39.796875 32.515625 
L 39.796875 36.078125 
Q 39.796875 42 36.203125 45.234375 
Q 32.625 48.484375 26.125 48.484375 
Q 20.75 48.484375 17.578125 46.046875 
Q 14.40625 43.609375 13.625 38.8125 
L 8.984375 38.8125 
L 8.984375 49.3125 
Q 13.671875 51.3125 18.09375 52.3125 
Q 22.515625 53.328125 26.703125 53.328125 
Q 37.5 53.328125 43.140625 47.96875 
Q 48.78125 42.625 48.78125 32.421875 
z
" id="DejaVuSerif-97"/>
      <path d="M 51.8125 41.796875 
Q 54.390625 47.515625 58.421875 50.421875 
Q 62.453125 53.328125 67.828125 53.328125 
Q 75.984375 53.328125 79.984375 48.265625 
Q 83.984375 43.21875 83.984375 33.015625 
L 83.984375 5.171875 
L 92.09375 5.171875 
L 92.09375 0 
L 67.1875 0 
L 67.1875 5.171875 
L 75 5.171875 
L 75 31.984375 
Q 75 39.9375 72.65625 43.3125 
Q 70.3125 46.6875 64.890625 46.6875 
Q 58.890625 46.6875 55.734375 42.140625 
Q 52.59375 37.59375 52.59375 28.90625 
L 52.59375 5.171875 
L 60.40625 5.171875 
L 60.40625 0 
L 35.796875 0 
L 35.796875 5.171875 
L 43.609375 5.171875 
L 43.609375 32.328125 
Q 43.609375 40.09375 41.265625 43.390625 
Q 38.921875 46.6875 33.5 46.6875 
Q 27.484375 46.6875 24.328125 42.140625 
Q 21.1875 37.59375 21.1875 28.90625 
L 21.1875 5.171875 
L 29 5.171875 
L 29 0 
L 4.109375 0 
L 4.109375 5.171875 
L 12.203125 5.171875 
L 12.203125 46.78125 
L 3.609375 46.78125 
L 3.609375 51.90625 
L 21.1875 51.90625 
L 21.1875 42.671875 
Q 23.6875 47.859375 27.53125 50.59375 
Q 31.390625 53.328125 36.28125 53.328125 
Q 42.328125 53.328125 46.375 50.3125 
Q 50.4375 47.3125 51.8125 41.796875 
z
" id="DejaVuSerif-109"/>
     </defs>
     <use xlink:href="#DejaVuSerif-80"/>
     <use x="62.785156" xlink:href="#DejaVuSerif-101"/>
     <use x="121.964844" xlink:href="#DejaVuSerif-114"/>
     <use x="169.767578" xlink:href="#DejaVuSerif-105"/>
     <use x="201.75" xlink:href="#DejaVuSerif-111"/>
     <use x="261.955078" xlink:href="#DejaVuSerif-100"/>
     <use x="325.96875" xlink:href="#DejaVuSerif-111"/>
     <use x="386.173828" xlink:href="#DejaVuSerif-103"/>
     <use x="450.1875" xlink:href="#DejaVuSerif-114"/>
     <use x="497.990234" xlink:href="#DejaVuSerif-97"/>
     <use x="557.609375" xlink:href="#DejaVuSerif-109"/>
    </g>
   </g>
   <g id="legend_1">
    <g id="patch_7">
     <path d="M 419.648125 108.123071 
L 454.431875 108.123071 
Q 455.231875 108.123071 455.231875 107.323071 
L 455.231875 84.238071 
Q 455.231875 83.438071 454.431875 83.438071 
L 419.648125 83.438071 
Q 418.848125 83.438071 418.848125 84.238071 
L 418.848125 107.323071 
Q 418.848125 108.123071 419.648125 108.123071 
z
" style="fill:#ffffff;opacity:0.8;stroke:#cccccc;stroke-linejoin:miter;"/>
    </g>
    <g id="line2d_27">
     <path d="M 420.448125 86.677446 
L 428.448125 86.677446 
" style="fill:none;stroke:#808080;stroke-dasharray:5.55,2.4;stroke-dashoffset:0;stroke-width:1.5;"/>
    </g>
    <g id="text_9">
     <!-- 99.9% FAP -->
     <g transform="translate(431.648125 88.077446)scale(0.04 -0.04)">
      <defs>
       <path d="M 46.78125 32.671875 
Q 43.5 29 39.25 27.1875 
Q 35.015625 25.390625 29.6875 25.390625 
Q 18.84375 25.390625 12.5625 31.9375 
Q 6.296875 38.484375 6.296875 49.8125 
Q 6.296875 60.890625 13.109375 67.546875 
Q 19.921875 74.21875 31.296875 74.21875 
Q 43.65625 74.21875 50.265625 65.015625 
Q 56.890625 55.8125 56.890625 38.71875 
Q 56.890625 19.578125 49.015625 9.078125 
Q 41.15625 -1.421875 26.90625 -1.421875 
Q 23.046875 -1.421875 18.796875 -0.6875 
Q 14.546875 0.046875 10.109375 1.515625 
L 10.109375 13.625 
L 15.578125 13.625 
Q 16.21875 8.6875 19.390625 6.046875 
Q 22.5625 3.421875 27.875 3.421875 
Q 37.359375 3.421875 41.984375 10.5625 
Q 46.625 17.71875 46.78125 32.671875 
z
M 30.90625 69.390625 
Q 23.96875 69.390625 20.28125 64.328125 
Q 16.609375 59.28125 16.609375 49.8125 
Q 16.609375 40.328125 20.28125 35.25 
Q 23.96875 30.171875 30.90625 30.171875 
Q 37.84375 30.171875 41.53125 35.078125 
Q 45.21875 39.984375 45.21875 49.21875 
Q 45.21875 58.9375 41.5 64.15625 
Q 37.796875 69.390625 30.90625 69.390625 
z
" id="DejaVuSerif-57"/>
       <path d="M 22.40625 69.671875 
Q 18.109375 69.671875 15.6875 65.625 
Q 13.28125 61.578125 13.28125 54.296875 
Q 13.28125 47.125 15.75 43.015625 
Q 18.21875 38.921875 22.40625 38.921875 
Q 26.5625 38.921875 28.96875 43 
Q 31.390625 47.078125 31.390625 54.296875 
Q 31.390625 61.53125 28.96875 65.59375 
Q 26.5625 69.671875 22.40625 69.671875 
z
M 72.703125 33.890625 
Q 68.453125 33.890625 66.03125 29.78125 
Q 63.625 25.6875 63.625 18.40625 
Q 63.625 11.234375 66.0625 7.15625 
Q 68.5 3.078125 72.703125 3.078125 
Q 76.90625 3.078125 79.296875 7.15625 
Q 81.6875 11.234375 81.6875 18.40625 
Q 81.6875 25.640625 79.265625 29.765625 
Q 76.859375 33.890625 72.703125 33.890625 
z
M 72.703125 38.28125 
Q 80.421875 38.28125 84.953125 32.90625 
Q 89.5 27.546875 89.5 18.40625 
Q 89.5 9.28125 84.9375 3.921875 
Q 80.375 -1.421875 72.703125 -1.421875 
Q 64.890625 -1.421875 60.34375 3.921875 
Q 55.8125 9.28125 55.8125 18.40625 
Q 55.8125 27.59375 60.375 32.9375 
Q 64.9375 38.28125 72.703125 38.28125 
z
M 66.609375 74.21875 
L 74.03125 74.21875 
L 28.421875 -1.421875 
L 21 -1.421875 
z
M 22.3125 74.21875 
Q 30.03125 74.21875 34.609375 68.875 
Q 39.203125 63.53125 39.203125 54.390625 
Q 39.203125 45.171875 34.640625 39.84375 
Q 30.078125 34.515625 22.3125 34.515625 
Q 14.546875 34.515625 10.03125 39.859375 
Q 5.515625 45.21875 5.515625 54.390625 
Q 5.515625 63.484375 10.046875 68.84375 
Q 14.59375 74.21875 22.3125 74.21875 
z
" id="DejaVuSerif-37"/>
       <path d="M 5.515625 0 
L 5.515625 5.171875 
L 14.796875 5.171875 
L 14.796875 67.671875 
L 5.515625 67.671875 
L 5.515625 72.90625 
L 65.1875 72.90625 
L 65.1875 56.6875 
L 59.1875 56.6875 
L 59.1875 66.890625 
L 24.703125 66.890625 
L 24.703125 42.484375 
L 49.609375 42.484375 
L 49.609375 51.609375 
L 55.609375 51.609375 
L 55.609375 27.390625 
L 49.609375 27.390625 
L 49.609375 36.53125 
L 24.703125 36.53125 
L 24.703125 5.171875 
L 36.375 5.171875 
L 36.375 0 
z
" id="DejaVuSerif-70"/>
       <path d="M 20.015625 26.421875 
L 46.78125 26.421875 
L 33.40625 61.078125 
z
M -0.59375 0 
L -0.59375 5.171875 
L 5.8125 5.171875 
L 31.78125 72.90625 
L 39.984375 72.90625 
L 66.015625 5.171875 
L 73.1875 5.171875 
L 73.1875 0 
L 46.6875 0 
L 46.6875 5.171875 
L 54.78125 5.171875 
L 48.6875 21.1875 
L 18.015625 21.1875 
L 11.921875 5.171875 
L 19.921875 5.171875 
L 19.921875 0 
z
" id="DejaVuSerif-65"/>
      </defs>
      <use xlink:href="#DejaVuSerif-57"/>
      <use x="63.623047" xlink:href="#DejaVuSerif-57"/>
      <use x="127.246094" xlink:href="#DejaVuSerif-46"/>
      <use x="159.033203" xlink:href="#DejaVuSerif-57"/>
      <use x="222.65625" xlink:href="#DejaVuSerif-37"/>
      <use x="317.675781" xlink:href="#DejaVuSerif-32"/>
      <use x="349.462891" xlink:href="#DejaVuSerif-70"/>
      <use x="410.097656" xlink:href="#DejaVuSerif-65"/>
      <use x="482.314453" xlink:href="#DejaVuSerif-80"/>
     </g>
    </g>
    <g id="line2d_28">
     <path d="M 420.448125 92.548696 
L 428.448125 92.548696 
" style="fill:none;stroke:#a9a9a9;stroke-dasharray:5.55,2.4;stroke-dashoffset:0;stroke-width:1.5;"/>
    </g>
    <g id="text_10">
     <!-- 99.0% FAP -->
     <g transform="translate(431.648125 93.948696)scale(0.04 -0.04)">
      <use xlink:href="#DejaVuSerif-57"/>
      <use x="63.623047" xlink:href="#DejaVuSerif-57"/>
      <use x="127.246094" xlink:href="#DejaVuSerif-46"/>
      <use x="159.033203" xlink:href="#DejaVuSerif-48"/>
      <use x="222.65625" xlink:href="#DejaVuSerif-37"/>
      <use x="317.675781" xlink:href="#DejaVuSerif-32"/>
      <use x="349.462891" xlink:href="#DejaVuSerif-70"/>
      <use x="410.097656" xlink:href="#DejaVuSerif-65"/>
      <use x="482.314453" xlink:href="#DejaVuSerif-80"/>
     </g>
    </g>
    <g id="line2d_29">
     <path d="M 420.448125 98.419946 
L 428.448125 98.419946 
" style="fill:none;stroke:#c0c0c0;stroke-dasharray:5.55,2.4;stroke-dashoffset:0;stroke-width:1.5;"/>
    </g>
    <g id="text_11">
     <!-- 95.0% FAP -->
     <g transform="translate(431.648125 99.819946)scale(0.04 -0.04)">
      <defs>
       <path d="M 50.296875 72.90625 
L 50.296875 64.890625 
L 16.890625 64.890625 
L 16.890625 44 
Q 19.4375 45.75 22.828125 46.625 
Q 26.21875 47.515625 30.421875 47.515625 
Q 42.234375 47.515625 49.0625 40.96875 
Q 55.90625 34.421875 55.90625 23.09375 
Q 55.90625 11.53125 49 5.046875 
Q 42.09375 -1.421875 29.59375 -1.421875 
Q 24.5625 -1.421875 19.28125 -0.1875 
Q 14.015625 1.03125 8.5 3.515625 
L 8.5 17.671875 
L 14.015625 17.671875 
Q 14.453125 10.75 18.421875 7.078125 
Q 22.40625 3.421875 29.59375 3.421875 
Q 37.3125 3.421875 41.453125 8.5 
Q 45.609375 13.578125 45.609375 23.09375 
Q 45.609375 32.5625 41.484375 37.609375 
Q 37.359375 42.671875 29.59375 42.671875 
Q 25.203125 42.671875 21.84375 41.109375 
Q 18.5 39.546875 15.921875 36.28125 
L 11.71875 36.28125 
L 11.71875 72.90625 
z
" id="DejaVuSerif-53"/>
      </defs>
      <use xlink:href="#DejaVuSerif-57"/>
      <use x="63.623047" xlink:href="#DejaVuSerif-53"/>
      <use x="127.246094" xlink:href="#DejaVuSerif-46"/>
      <use x="159.033203" xlink:href="#DejaVuSerif-48"/>
      <use x="222.65625" xlink:href="#DejaVuSerif-37"/>
      <use x="317.675781" xlink:href="#DejaVuSerif-32"/>
      <use x="349.462891" xlink:href="#DejaVuSerif-70"/>
      <use x="410.097656" xlink:href="#DejaVuSerif-65"/>
      <use x="482.314453" xlink:href="#DejaVuSerif-80"/>
     </g>
    </g>
    <g id="line2d_30">
     <path d="M 420.448125 104.291196 
L 428.448125 104.291196 
" style="fill:none;stroke:#d3d3d3;stroke-dasharray:5.55,2.4;stroke-dashoffset:0;stroke-width:1.5;"/>
    </g>
    <g id="text_12">
     <!-- 90.0% FAP -->
     <g transform="translate(431.648125 105.691196)scale(0.04 -0.04)">
      <use xlink:href="#DejaVuSerif-57"/>
      <use x="63.623047" xlink:href="#DejaVuSerif-48"/>
      <use x="127.246094" xlink:href="#DejaVuSerif-46"/>
      <use x="159.033203" xlink:href="#DejaVuSerif-48"/>
      <use x="222.65625" xlink:href="#DejaVuSerif-37"/>
      <use x="317.675781" xlink:href="#DejaVuSerif-32"/>
      <use x="349.462891" xlink:href="#DejaVuSerif-70"/>
      <use x="410.097656" xlink:href="#DejaVuSerif-65"/>
      <use x="482.314453" xlink:href="#DejaVuSerif-80"/>
     </g>
    </g>
   </g>
  </g>
  <g id="axes_2">
   <g id="patch_8">
    <path d="M 57.6 150.089143 
L 206.4 150.089143 
L 206.4 41.472 
L 57.6 41.472 
z
" style="fill:#ffffff;"/>
   </g>
   <g id="PathCollection_1">
    <defs>
     <path d="M 0 0.707107 
C 0.187527 0.707107 0.367398 0.632602 0.5 0.5 
C 0.632602 0.367398 0.707107 0.187527 0.707107 0 
C 0.707107 -0.187527 0.632602 -0.367398 0.5 -0.5 
C 0.367398 -0.632602 0.187527 -0.707107 0 -0.707107 
C -0.187527 -0.707107 -0.367398 -0.632602 -0.5 -0.5 
C -0.632602 -0.367398 -0.707107 -0.187527 -0.707107 0 
C -0.707107 0.187527 -0.632602 0.367398 -0.5 0.5 
C -0.367398 0.632602 -0.187527 0.707107 0 0.707107 
z
" id="mad39f76b17" style="stroke:#1f77b4;"/>
    </defs>
    <g clip-path="url(#p5d756e0f38)">
     <use style="fill:#1f77b4;stroke:#1f77b4;" x="113.028394" xlink:href="#mad39f76b17" y="46.409143"/>
     <use style="fill:#1f77b4;stroke:#1f77b4;" x="113.039291" xlink:href="#mad39f76b17" y="48.42838"/>
     <use style="fill:#1f77b4;stroke:#1f77b4;" x="80.580036" xlink:href="#mad39f76b17" y="75.771295"/>
     <use style="fill:#1f77b4;stroke:#1f77b4;" x="80.590932" xlink:href="#mad39f76b17" y="77.486115"/>
     <use style="fill:#1f77b4;stroke:#1f77b4;" x="129.70879" xlink:href="#mad39f76b17" y="75.1744"/>
     <use style="fill:#1f77b4;stroke:#1f77b4;" x="130.772836" xlink:href="#mad39f76b17" y="57.052603"/>
     <use style="fill:#1f77b4;stroke:#1f77b4;" x="130.848559" xlink:href="#mad39f76b17" y="55.441325"/>
     <use style="fill:#1f77b4;stroke:#1f77b4;" x="85.265075" xlink:href="#mad39f76b17" y="145.152"/>
     <use style="fill:#1f77b4;stroke:#1f77b4;" x="122.860796" xlink:href="#mad39f76b17" y="53.958477"/>
     <use style="fill:#1f77b4;stroke:#1f77b4;" x="77.582937" xlink:href="#mad39f76b17" y="114.925708"/>
     <use style="fill:#1f77b4;stroke:#1f77b4;" x="77.593561" xlink:href="#mad39f76b17" y="118.112814"/>
     <use style="fill:#1f77b4;stroke:#1f77b4;" x="125.144617" xlink:href="#mad39f76b17" y="56.287145"/>
     <use style="fill:#1f77b4;stroke:#1f77b4;" x="125.155511" xlink:href="#mad39f76b17" y="59.051725"/>
     <use style="fill:#1f77b4;stroke:#1f77b4;" x="102.67992" xlink:href="#mad39f76b17" y="70.197224"/>
     <use style="fill:#1f77b4;stroke:#1f77b4;" x="102.690816" xlink:href="#mad39f76b17" y="65.736572"/>
     <use style="fill:#1f77b4;stroke:#1f77b4;" x="125.983664" xlink:href="#mad39f76b17" y="57.295656"/>
     <use style="fill:#1f77b4;stroke:#1f77b4;" x="125.994558" xlink:href="#mad39f76b17" y="57.752103"/>
     <use style="fill:#1f77b4;stroke:#1f77b4;" x="81.987682" xlink:href="#mad39f76b17" y="97.314127"/>
     <use style="fill:#1f77b4;stroke:#1f77b4;" x="81.998306" xlink:href="#mad39f76b17" y="98.236735"/>
     <use style="fill:#1f77b4;stroke:#1f77b4;" x="104.507752" xlink:href="#mad39f76b17" y="79.957019"/>
     <use style="fill:#1f77b4;stroke:#1f77b4;" x="104.518649" xlink:href="#mad39f76b17" y="80.94772"/>
     <use style="fill:#1f77b4;stroke:#1f77b4;" x="128.020148" xlink:href="#mad39f76b17" y="66.119216"/>
     <use style="fill:#1f77b4;stroke:#1f77b4;" x="128.030772" xlink:href="#mad39f76b17" y="66.264007"/>
     <use style="fill:#1f77b4;stroke:#1f77b4;" x="64.853672" xlink:href="#mad39f76b17" y="92.641878"/>
     <use style="fill:#1f77b4;stroke:#1f77b4;" x="90.675297" xlink:href="#mad39f76b17" y="77.342521"/>
     <use style="fill:#1f77b4;stroke:#1f77b4;" x="114.10298" xlink:href="#mad39f76b17" y="87.371445"/>
     <use style="fill:#1f77b4;stroke:#1f77b4;" x="68.855355" xlink:href="#mad39f76b17" y="100.16376"/>
     <use style="fill:#1f77b4;stroke:#1f77b4;" x="92.346777" xlink:href="#mad39f76b17" y="105.068929"/>
     <use style="fill:#1f77b4;stroke:#1f77b4;" x="115.980661" xlink:href="#mad39f76b17" y="97.185108"/>
     <use style="fill:#1f77b4;stroke:#1f77b4;" x="123.599525" xlink:href="#mad39f76b17" y="86.889092"/>
     <use style="fill:#1f77b4;stroke:#1f77b4;" x="124.319146" xlink:href="#mad39f76b17" y="82.951444"/>
     <use style="fill:#1f77b4;stroke:#1f77b4;" x="82.499857" xlink:href="#mad39f76b17" y="86.491284"/>
     <use style="fill:#1f77b4;stroke:#1f77b4;" x="106.468784" xlink:href="#mad39f76b17" y="79.002974"/>
     <use style="fill:#1f77b4;stroke:#1f77b4;" x="64.363636" xlink:href="#mad39f76b17" y="65.564936"/>
     <use style="fill:#1f77b4;stroke:#1f77b4;" x="66.630566" xlink:href="#mad39f76b17" y="57.07144"/>
     <use style="fill:#1f77b4;stroke:#1f77b4;" x="108.958685" xlink:href="#mad39f76b17" y="77.276475"/>
     <use style="fill:#1f77b4;stroke:#1f77b4;" x="65.521459" xlink:href="#mad39f76b17" y="56.184031"/>
     <use style="fill:#1f77b4;stroke:#1f77b4;" x="94.330221" xlink:href="#mad39f76b17" y="143.966492"/>
     <use style="fill:#1f77b4;stroke:#1f77b4;" x="123.771394" xlink:href="#mad39f76b17" y="101.728088"/>
     <use style="fill:#1f77b4;stroke:#1f77b4;" x="80.802799" xlink:href="#mad39f76b17" y="115.783378"/>
     <use style="fill:#1f77b4;stroke:#1f77b4;" x="92.317656" xlink:href="#mad39f76b17" y="112.714819"/>
     <use style="fill:#1f77b4;stroke:#1f77b4;" x="92.328279" xlink:href="#mad39f76b17" y="112.506956"/>
     <use style="fill:#1f77b4;stroke:#1f77b4;" x="115.25149" xlink:href="#mad39f76b17" y="81.160774"/>
     <use style="fill:#1f77b4;stroke:#1f77b4;" x="115.262114" xlink:href="#mad39f76b17" y="83.180351"/>
     <use style="fill:#1f77b4;stroke:#1f77b4;" x="68.983482" xlink:href="#mad39f76b17" y="105.563132"/>
     <use style="fill:#1f77b4;stroke:#1f77b4;" x="68.994106" xlink:href="#mad39f76b17" y="103.907192"/>
    </g>
   </g>
   <g id="PathCollection_2">
    <g clip-path="url(#p5d756e0f38)">
     <use style="fill:#1f77b4;stroke:#1f77b4;" x="181.816199" xlink:href="#mad39f76b17" y="46.409143"/>
     <use style="fill:#1f77b4;stroke:#1f77b4;" x="181.827096" xlink:href="#mad39f76b17" y="48.42838"/>
     <use style="fill:#1f77b4;stroke:#1f77b4;" x="149.367841" xlink:href="#mad39f76b17" y="75.771295"/>
     <use style="fill:#1f77b4;stroke:#1f77b4;" x="149.378737" xlink:href="#mad39f76b17" y="77.486115"/>
     <use style="fill:#1f77b4;stroke:#1f77b4;" x="198.496595" xlink:href="#mad39f76b17" y="75.1744"/>
     <use style="fill:#1f77b4;stroke:#1f77b4;" x="199.560641" xlink:href="#mad39f76b17" y="57.052603"/>
     <use style="fill:#1f77b4;stroke:#1f77b4;" x="199.636364" xlink:href="#mad39f76b17" y="55.441325"/>
     <use style="fill:#1f77b4;stroke:#1f77b4;" x="154.05288" xlink:href="#mad39f76b17" y="145.152"/>
     <use style="fill:#1f77b4;stroke:#1f77b4;" x="191.648601" xlink:href="#mad39f76b17" y="53.958477"/>
     <use style="fill:#1f77b4;stroke:#1f77b4;" x="146.370742" xlink:href="#mad39f76b17" y="114.925708"/>
     <use style="fill:#1f77b4;stroke:#1f77b4;" x="146.381365" xlink:href="#mad39f76b17" y="118.112814"/>
     <use style="fill:#1f77b4;stroke:#1f77b4;" x="193.932422" xlink:href="#mad39f76b17" y="56.287145"/>
     <use style="fill:#1f77b4;stroke:#1f77b4;" x="193.943316" xlink:href="#mad39f76b17" y="59.051725"/>
     <use style="fill:#1f77b4;stroke:#1f77b4;" x="171.467725" xlink:href="#mad39f76b17" y="70.197224"/>
     <use style="fill:#1f77b4;stroke:#1f77b4;" x="171.478621" xlink:href="#mad39f76b17" y="65.736572"/>
     <use style="fill:#1f77b4;stroke:#1f77b4;" x="194.771468" xlink:href="#mad39f76b17" y="57.295656"/>
     <use style="fill:#1f77b4;stroke:#1f77b4;" x="194.782363" xlink:href="#mad39f76b17" y="57.752103"/>
     <use style="fill:#1f77b4;stroke:#1f77b4;" x="150.775487" xlink:href="#mad39f76b17" y="97.314127"/>
     <use style="fill:#1f77b4;stroke:#1f77b4;" x="150.786111" xlink:href="#mad39f76b17" y="98.236735"/>
     <use style="fill:#1f77b4;stroke:#1f77b4;" x="173.295557" xlink:href="#mad39f76b17" y="79.957019"/>
     <use style="fill:#1f77b4;stroke:#1f77b4;" x="173.306454" xlink:href="#mad39f76b17" y="80.94772"/>
     <use style="fill:#1f77b4;stroke:#1f77b4;" x="196.807953" xlink:href="#mad39f76b17" y="66.119216"/>
     <use style="fill:#1f77b4;stroke:#1f77b4;" x="196.818577" xlink:href="#mad39f76b17" y="66.264007"/>
     <use style="fill:#1f77b4;stroke:#1f77b4;" x="133.641477" xlink:href="#mad39f76b17" y="92.641878"/>
     <use style="fill:#1f77b4;stroke:#1f77b4;" x="159.463102" xlink:href="#mad39f76b17" y="77.342521"/>
     <use style="fill:#1f77b4;stroke:#1f77b4;" x="182.890784" xlink:href="#mad39f76b17" y="87.371445"/>
     <use style="fill:#1f77b4;stroke:#1f77b4;" x="137.64316" xlink:href="#mad39f76b17" y="100.16376"/>
     <use style="fill:#1f77b4;stroke:#1f77b4;" x="161.134582" xlink:href="#mad39f76b17" y="105.068929"/>
     <use style="fill:#1f77b4;stroke:#1f77b4;" x="184.768466" xlink:href="#mad39f76b17" y="97.185108"/>
     <use style="fill:#1f77b4;stroke:#1f77b4;" x="192.38733" xlink:href="#mad39f76b17" y="86.889092"/>
     <use style="fill:#1f77b4;stroke:#1f77b4;" x="193.106951" xlink:href="#mad39f76b17" y="82.951444"/>
     <use style="fill:#1f77b4;stroke:#1f77b4;" x="151.287662" xlink:href="#mad39f76b17" y="86.491284"/>
     <use style="fill:#1f77b4;stroke:#1f77b4;" x="175.256589" xlink:href="#mad39f76b17" y="79.002974"/>
     <use style="fill:#1f77b4;stroke:#1f77b4;" x="133.151441" xlink:href="#mad39f76b17" y="65.564936"/>
     <use style="fill:#1f77b4;stroke:#1f77b4;" x="135.418371" xlink:href="#mad39f76b17" y="57.07144"/>
     <use style="fill:#1f77b4;stroke:#1f77b4;" x="177.74649" xlink:href="#mad39f76b17" y="77.276475"/>
     <use style="fill:#1f77b4;stroke:#1f77b4;" x="134.309264" xlink:href="#mad39f76b17" y="56.184031"/>
     <use style="fill:#1f77b4;stroke:#1f77b4;" x="163.118026" xlink:href="#mad39f76b17" y="143.966492"/>
     <use style="fill:#1f77b4;stroke:#1f77b4;" x="192.559198" xlink:href="#mad39f76b17" y="101.728088"/>
     <use style="fill:#1f77b4;stroke:#1f77b4;" x="149.590604" xlink:href="#mad39f76b17" y="115.783378"/>
     <use style="fill:#1f77b4;stroke:#1f77b4;" x="161.105461" xlink:href="#mad39f76b17" y="112.714819"/>
     <use style="fill:#1f77b4;stroke:#1f77b4;" x="161.116084" xlink:href="#mad39f76b17" y="112.506956"/>
     <use style="fill:#1f77b4;stroke:#1f77b4;" x="184.039295" xlink:href="#mad39f76b17" y="81.160774"/>
     <use style="fill:#1f77b4;stroke:#1f77b4;" x="184.049919" xlink:href="#mad39f76b17" y="83.180351"/>
     <use style="fill:#1f77b4;stroke:#1f77b4;" x="137.771287" xlink:href="#mad39f76b17" y="105.563132"/>
     <use style="fill:#1f77b4;stroke:#1f77b4;" x="137.781911" xlink:href="#mad39f76b17" y="103.907192"/>
    </g>
   </g>
   <g id="matplotlib.axis_3">
    <g id="xtick_23">
     <g id="line2d_31">
      <g>
       <use style="stroke:#000000;stroke-width:0.8;" x="64.339644" xlink:href="#mfcbb1c5f2c" y="150.089143"/>
      </g>
     </g>
     <g id="text_13">
      <!-- 0 -->
      <g transform="translate(61.158394 164.68758)scale(0.1 -0.1)">
       <use xlink:href="#DejaVuSerif-48"/>
      </g>
     </g>
    </g>
    <g id="xtick_24">
     <g id="line2d_32">
      <g>
       <use style="stroke:#000000;stroke-width:0.8;" x="133.127449" xlink:href="#mfcbb1c5f2c" y="150.089143"/>
      </g>
     </g>
     <g id="text_14">
      <!-- 1 -->
      <g transform="translate(129.946199 164.68758)scale(0.1 -0.1)">
       <use xlink:href="#DejaVuSerif-49"/>
      </g>
     </g>
    </g>
    <g id="xtick_25">
     <g id="line2d_33">
      <g>
       <use style="stroke:#000000;stroke-width:0.8;" x="201.915253" xlink:href="#mfcbb1c5f2c" y="150.089143"/>
      </g>
     </g>
     <g id="text_15">
      <!-- 2 -->
      <g transform="translate(198.734003 164.68758)scale(0.1 -0.1)">
       <use xlink:href="#DejaVuSerif-50"/>
      </g>
     </g>
    </g>
    <g id="text_16">
     <!-- Phase (P = 2.923 d) -->
     <g transform="translate(81.582812 178.365705)scale(0.1 -0.1)">
      <defs>
       <path d="M 4.109375 0 
L 4.109375 5.171875 
L 12.203125 5.171875 
L 12.203125 70.796875 
L 3.609375 70.796875 
L 3.609375 75.984375 
L 21.1875 75.984375 
L 21.1875 42.671875 
Q 23.6875 47.953125 27.65625 50.640625 
Q 31.640625 53.328125 36.921875 53.328125 
Q 45.515625 53.328125 49.5625 48.390625 
Q 53.609375 43.453125 53.609375 33.015625 
L 53.609375 5.171875 
L 61.625 5.171875 
L 61.625 0 
L 36.8125 0 
L 36.8125 5.171875 
L 44.578125 5.171875 
L 44.578125 30.171875 
Q 44.578125 39.703125 42.25 43.1875 
Q 39.9375 46.6875 33.984375 46.6875 
Q 27.734375 46.6875 24.453125 42.140625 
Q 21.1875 37.59375 21.1875 28.90625 
L 21.1875 5.171875 
L 29 5.171875 
L 29 0 
z
" id="DejaVuSerif-104"/>
       <path d="M 5.609375 2.875 
L 5.609375 14.984375 
L 10.796875 14.984375 
Q 10.984375 9.1875 14.421875 6.296875 
Q 17.875 3.421875 24.609375 3.421875 
Q 30.671875 3.421875 33.84375 5.6875 
Q 37.015625 7.953125 37.015625 12.3125 
Q 37.015625 15.71875 34.6875 17.8125 
Q 32.375 19.921875 24.90625 22.3125 
L 18.40625 24.515625 
Q 11.71875 26.65625 8.71875 29.875 
Q 5.71875 33.109375 5.71875 38.09375 
Q 5.71875 45.21875 10.9375 49.265625 
Q 16.15625 53.328125 25.390625 53.328125 
Q 29.5 53.328125 34.03125 52.25 
Q 38.578125 51.171875 43.40625 49.125 
L 43.40625 37.796875 
L 38.234375 37.796875 
Q 38.03125 42.828125 34.703125 45.65625 
Q 31.390625 48.484375 25.6875 48.484375 
Q 20.015625 48.484375 17.109375 46.484375 
Q 14.203125 44.484375 14.203125 40.484375 
Q 14.203125 37.203125 16.40625 35.21875 
Q 18.609375 33.25 25.203125 31.203125 
L 32.328125 29 
Q 39.703125 26.703125 42.9375 23.265625 
Q 46.1875 19.828125 46.1875 14.40625 
Q 46.1875 7.03125 40.546875 2.796875 
Q 34.90625 -1.421875 25 -1.421875 
Q 19.96875 -1.421875 15.1875 -0.34375 
Q 10.40625 0.734375 5.609375 2.875 
z
" id="DejaVuSerif-115"/>
       <path d="M 31.890625 -15.578125 
Q 20.015625 -10.25 13.953125 1.296875 
Q 7.90625 12.84375 7.90625 30.171875 
Q 7.90625 47.5625 13.953125 59.109375 
Q 20.015625 70.65625 31.890625 75.984375 
L 31.890625 71.1875 
Q 24.359375 66.015625 21.09375 56.609375 
Q 17.828125 47.21875 17.828125 30.171875 
Q 17.828125 13.1875 21.09375 3.78125 
Q 24.359375 -5.609375 31.890625 -10.796875 
z
" id="DejaVuSerif-40"/>
       <path d="M 10.59375 45.21875 
L 73.1875 45.21875 
L 73.1875 37.40625 
L 10.59375 37.40625 
z
M 10.59375 25.296875 
L 73.1875 25.296875 
L 73.1875 17.484375 
L 10.59375 17.484375 
z
" id="DejaVuSerif-61"/>
       <path d="M 9.71875 69.828125 
Q 15.4375 71.96875 20.671875 73.09375 
Q 25.921875 74.21875 30.515625 74.21875 
Q 41.21875 74.21875 47.21875 69.59375 
Q 53.21875 64.984375 53.21875 56.78125 
Q 53.21875 50.203125 49.0625 45.78125 
Q 44.921875 41.359375 37.3125 39.796875 
Q 46.296875 38.53125 51.25 33.28125 
Q 56.203125 28.03125 56.203125 19.671875 
Q 56.203125 9.46875 49.34375 4.015625 
Q 42.484375 -1.421875 29.59375 -1.421875 
Q 23.875 -1.421875 18.421875 -0.1875 
Q 12.984375 1.03125 7.625 3.515625 
L 7.625 17.671875 
L 13.09375 17.671875 
Q 13.578125 10.640625 17.828125 7.03125 
Q 22.078125 3.421875 29.78125 3.421875 
Q 37.25 3.421875 41.578125 7.734375 
Q 45.90625 12.0625 45.90625 19.578125 
Q 45.90625 28.171875 41.453125 32.59375 
Q 37.015625 37.015625 28.421875 37.015625 
L 23.78125 37.015625 
L 23.78125 42 
L 26.21875 42 
Q 34.765625 42 39.03125 45.53125 
Q 43.3125 49.078125 43.3125 56.203125 
Q 43.3125 62.59375 39.796875 65.984375 
Q 36.28125 69.390625 29.6875 69.390625 
Q 23.09375 69.390625 19.453125 66.265625 
Q 15.828125 63.140625 15.1875 56.984375 
L 9.71875 56.984375 
z
" id="DejaVuSerif-51"/>
       <path d="M 7.078125 -15.578125 
L 7.078125 -10.796875 
Q 14.59375 -5.609375 17.890625 3.78125 
Q 21.1875 13.1875 21.1875 30.171875 
Q 21.1875 47.21875 17.890625 56.609375 
Q 14.59375 66.015625 7.078125 71.1875 
L 7.078125 75.984375 
Q 19 70.65625 25.046875 59.109375 
Q 31.109375 47.5625 31.109375 30.171875 
Q 31.109375 12.84375 25.046875 1.296875 
Q 19 -10.25 7.078125 -15.578125 
z
" id="DejaVuSerif-41"/>
      </defs>
      <use xlink:href="#DejaVuSerif-80"/>
      <use x="67.285156" xlink:href="#DejaVuSerif-104"/>
      <use x="131.689453" xlink:href="#DejaVuSerif-97"/>
      <use x="191.308594" xlink:href="#DejaVuSerif-115"/>
      <use x="242.626953" xlink:href="#DejaVuSerif-101"/>
      <use x="301.806641" xlink:href="#DejaVuSerif-32"/>
      <use x="333.59375" xlink:href="#DejaVuSerif-40"/>
      <use x="372.607422" xlink:href="#DejaVuSerif-80"/>
      <use x="439.892578" xlink:href="#DejaVuSerif-32"/>
      <use x="471.679688" xlink:href="#DejaVuSerif-61"/>
      <use x="555.46875" xlink:href="#DejaVuSerif-32"/>
      <use x="587.255859" xlink:href="#DejaVuSerif-50"/>
      <use x="650.878906" xlink:href="#DejaVuSerif-46"/>
      <use x="682.666016" xlink:href="#DejaVuSerif-57"/>
      <use x="746.289062" xlink:href="#DejaVuSerif-50"/>
      <use x="809.912109" xlink:href="#DejaVuSerif-51"/>
      <use x="873.535156" xlink:href="#DejaVuSerif-32"/>
      <use x="905.322266" xlink:href="#DejaVuSerif-100"/>
      <use x="969.335938" xlink:href="#DejaVuSerif-41"/>
     </g>
    </g>
   </g>
   <g id="matplotlib.axis_4">
    <g id="ytick_4">
     <g id="line2d_34">
      <g>
       <use style="stroke:#000000;stroke-width:0.8;" x="57.6" xlink:href="#m7c2f5e7fed" y="45.608236"/>
      </g>
     </g>
     <g id="text_17">
      <!-- 14.25 -->
      <g transform="translate(21.971875 49.407455)scale(0.1 -0.1)">
       <use xlink:href="#DejaVuSerif-49"/>
       <use x="63.623047" xlink:href="#DejaVuSerif-52"/>
       <use x="127.246094" xlink:href="#DejaVuSerif-46"/>
       <use x="159.033203" xlink:href="#DejaVuSerif-50"/>
       <use x="222.65625" xlink:href="#DejaVuSerif-53"/>
      </g>
     </g>
    </g>
    <g id="ytick_5">
     <g id="line2d_35">
      <g>
       <use style="stroke:#000000;stroke-width:0.8;" x="57.6" xlink:href="#m7c2f5e7fed" y="67.948489"/>
      </g>
     </g>
     <g id="text_18">
      <!-- 14.50 -->
      <g transform="translate(21.971875 71.747708)scale(0.1 -0.1)">
       <use xlink:href="#DejaVuSerif-49"/>
       <use x="63.623047" xlink:href="#DejaVuSerif-52"/>
       <use x="127.246094" xlink:href="#DejaVuSerif-46"/>
       <use x="159.033203" xlink:href="#DejaVuSerif-53"/>
       <use x="222.65625" xlink:href="#DejaVuSerif-48"/>
      </g>
     </g>
    </g>
    <g id="ytick_6">
     <g id="line2d_36">
      <g>
       <use style="stroke:#000000;stroke-width:0.8;" x="57.6" xlink:href="#m7c2f5e7fed" y="90.288743"/>
      </g>
     </g>
     <g id="text_19">
      <!-- 14.75 -->
      <g transform="translate(21.971875 94.087962)scale(0.1 -0.1)">
       <defs>
        <path d="M 56.390625 67.921875 
L 27.875 0 
L 20.609375 0 
L 47.796875 64.890625 
L 14.109375 64.890625 
L 14.109375 55.90625 
L 8.40625 55.90625 
L 8.40625 72.90625 
L 56.390625 72.90625 
z
" id="DejaVuSerif-55"/>
       </defs>
       <use xlink:href="#DejaVuSerif-49"/>
       <use x="63.623047" xlink:href="#DejaVuSerif-52"/>
       <use x="127.246094" xlink:href="#DejaVuSerif-46"/>
       <use x="159.033203" xlink:href="#DejaVuSerif-55"/>
       <use x="222.65625" xlink:href="#DejaVuSerif-53"/>
      </g>
     </g>
    </g>
    <g id="ytick_7">
     <g id="line2d_37">
      <g>
       <use style="stroke:#000000;stroke-width:0.8;" x="57.6" xlink:href="#m7c2f5e7fed" y="112.628996"/>
      </g>
     </g>
     <g id="text_20">
      <!-- 15.00 -->
      <g transform="translate(21.971875 116.428215)scale(0.1 -0.1)">
       <use xlink:href="#DejaVuSerif-49"/>
       <use x="63.623047" xlink:href="#DejaVuSerif-53"/>
       <use x="127.246094" xlink:href="#DejaVuSerif-46"/>
       <use x="159.033203" xlink:href="#DejaVuSerif-48"/>
       <use x="222.65625" xlink:href="#DejaVuSerif-48"/>
      </g>
     </g>
    </g>
    <g id="ytick_8">
     <g id="line2d_38">
      <g>
       <use style="stroke:#000000;stroke-width:0.8;" x="57.6" xlink:href="#m7c2f5e7fed" y="134.96925"/>
      </g>
     </g>
     <g id="text_21">
      <!-- 15.25 -->
      <g transform="translate(21.971875 138.768469)scale(0.1 -0.1)">
       <use xlink:href="#DejaVuSerif-49"/>
       <use x="63.623047" xlink:href="#DejaVuSerif-53"/>
       <use x="127.246094" xlink:href="#DejaVuSerif-46"/>
       <use x="159.033203" xlink:href="#DejaVuSerif-50"/>
       <use x="222.65625" xlink:href="#DejaVuSerif-53"/>
      </g>
     </g>
    </g>
    <g id="text_22">
     <!-- Mag -->
     <g transform="translate(15.75 107.082134)rotate(-90)scale(0.1 -0.1)">
      <defs>
       <path d="M 5.515625 0 
L 5.515625 5.171875 
L 14.796875 5.171875 
L 14.796875 67.671875 
L 4.984375 67.671875 
L 4.984375 72.90625 
L 26.21875 72.90625 
L 51.8125 21 
L 77.390625 72.90625 
L 97.3125 72.90625 
L 97.3125 67.671875 
L 87.59375 67.671875 
L 87.59375 5.171875 
L 96.921875 5.171875 
L 96.921875 0 
L 68.40625 0 
L 68.40625 5.171875 
L 77.6875 5.171875 
L 77.6875 61.53125 
L 52.6875 10.6875 
L 45.796875 10.6875 
L 20.796875 61.53125 
L 20.796875 5.171875 
L 30.078125 5.171875 
L 30.078125 0 
z
" id="DejaVuSerif-77"/>
      </defs>
      <use xlink:href="#DejaVuSerif-77"/>
      <use x="102.392578" xlink:href="#DejaVuSerif-97"/>
      <use x="162.011719" xlink:href="#DejaVuSerif-103"/>
     </g>
    </g>
   </g>
   <g id="patch_9">
    <path d="M 57.6 150.089143 
L 57.6 41.472 
" style="fill:none;stroke:#000000;stroke-linecap:square;stroke-linejoin:miter;stroke-width:0.8;"/>
   </g>
   <g id="patch_10">
    <path d="M 206.4 150.089143 
L 206.4 41.472 
" style="fill:none;stroke:#000000;stroke-linecap:square;stroke-linejoin:miter;stroke-width:0.8;"/>
   </g>
   <g id="patch_11">
    <path d="M 57.6 150.089143 
L 206.4 150.089143 
" style="fill:none;stroke:#000000;stroke-linecap:square;stroke-linejoin:miter;stroke-width:0.8;"/>
   </g>
   <g id="patch_12">
    <path d="M 57.6 41.472 
L 206.4 41.472 
" style="fill:none;stroke:#000000;stroke-linecap:square;stroke-linejoin:miter;stroke-width:0.8;"/>
   </g>
   <g id="text_23">
    <!-- Folded Light Curve -->
    <g transform="translate(83.086719 35.472)scale(0.1 -0.1)">
     <defs>
      <path d="M 20.515625 5.171875 
L 29 5.171875 
L 29 0 
L 2.875 0 
L 2.875 5.171875 
L 11.53125 5.171875 
L 11.53125 70.796875 
L 2.875 70.796875 
L 2.875 75.984375 
L 20.515625 75.984375 
z
" id="DejaVuSerif-108"/>
      <path d="M 5.515625 0 
L 5.515625 5.171875 
L 14.796875 5.171875 
L 14.796875 67.671875 
L 5.515625 67.671875 
L 5.515625 72.90625 
L 33.984375 72.90625 
L 33.984375 67.671875 
L 24.703125 67.671875 
L 24.703125 6 
L 58.015625 6 
L 58.015625 18.21875 
L 64.015625 18.21875 
L 64.015625 0 
z
" id="DejaVuSerif-76"/>
      <path d="M 10.796875 46.6875 
L 2.875 46.6875 
L 2.875 51.90625 
L 10.796875 51.90625 
L 10.796875 68.015625 
L 19.828125 68.015625 
L 19.828125 51.90625 
L 36.71875 51.90625 
L 36.71875 46.6875 
L 19.828125 46.6875 
L 19.828125 13.71875 
Q 19.828125 7.125 21.09375 5.265625 
Q 22.359375 3.421875 25.78125 3.421875 
Q 29.296875 3.421875 30.90625 5.484375 
Q 32.515625 7.5625 32.625 12.203125 
L 39.40625 12.203125 
Q 39.015625 5.125 35.546875 1.84375 
Q 32.078125 -1.421875 25 -1.421875 
Q 17.234375 -1.421875 14.015625 2.015625 
Q 10.796875 5.46875 10.796875 13.71875 
z
" id="DejaVuSerif-116"/>
      <path d="M 70.515625 19.28125 
Q 67.28125 9.078125 59.6875 3.828125 
Q 52.09375 -1.421875 40.484375 -1.421875 
Q 33.34375 -1.421875 27.234375 1.015625 
Q 21.140625 3.46875 16.40625 8.203125 
Q 10.9375 13.671875 8.265625 20.625 
Q 5.609375 27.59375 5.609375 36.375 
Q 5.609375 53.375 15.421875 63.796875 
Q 25.25 74.21875 41.3125 74.21875 
Q 47.265625 74.21875 54 72.65625 
Q 60.75 71.09375 68.5 67.921875 
L 68.5 51.125 
L 62.984375 51.125 
Q 61.1875 60.296875 55.734375 64.640625 
Q 50.296875 69 40.484375 69 
Q 28.8125 69 22.796875 60.71875 
Q 16.796875 52.4375 16.796875 36.375 
Q 16.796875 20.359375 22.796875 12.078125 
Q 28.8125 3.8125 40.484375 3.8125 
Q 48.640625 3.8125 53.90625 7.6875 
Q 59.1875 11.578125 61.53125 19.28125 
z
" id="DejaVuSerif-67"/>
      <path d="M 35.40625 51.90625 
L 52.203125 51.90625 
L 52.203125 5.171875 
L 60.6875 5.171875 
L 60.6875 0 
L 43.21875 0 
L 43.21875 9.1875 
Q 40.71875 4 36.765625 1.28125 
Q 32.8125 -1.421875 27.59375 -1.421875 
Q 18.953125 -1.421875 14.875 3.484375 
Q 10.796875 8.40625 10.796875 18.890625 
L 10.796875 46.6875 
L 2.6875 46.6875 
L 2.6875 51.90625 
L 19.828125 51.90625 
L 19.828125 21.6875 
Q 19.828125 12.203125 22.140625 8.6875 
Q 24.46875 5.171875 30.421875 5.171875 
Q 36.671875 5.171875 39.9375 9.765625 
Q 43.21875 14.359375 43.21875 23.09375 
L 43.21875 46.6875 
L 35.40625 46.6875 
z
" id="DejaVuSerif-117"/>
      <path d="M 24.703125 0 
L 5.609375 46.6875 
L -0.296875 46.6875 
L -0.296875 51.90625 
L 23.578125 51.90625 
L 23.578125 46.6875 
L 15.28125 46.6875 
L 29.890625 10.984375 
L 44.484375 46.6875 
L 36.71875 46.6875 
L 36.71875 51.90625 
L 56.203125 51.90625 
L 56.203125 46.6875 
L 50.390625 46.6875 
L 31.296875 0 
z
" id="DejaVuSerif-118"/>
     </defs>
     <use xlink:href="#DejaVuSerif-70"/>
     <use x="63.884766" xlink:href="#DejaVuSerif-111"/>
     <use x="124.089844" xlink:href="#DejaVuSerif-108"/>
     <use x="156.072266" xlink:href="#DejaVuSerif-100"/>
     <use x="220.085938" xlink:href="#DejaVuSerif-101"/>
     <use x="279.265625" xlink:href="#DejaVuSerif-100"/>
     <use x="343.279297" xlink:href="#DejaVuSerif-32"/>
     <use x="375.066406" xlink:href="#DejaVuSerif-76"/>
     <use x="441.472656" xlink:href="#DejaVuSerif-105"/>
     <use x="473.455078" xlink:href="#DejaVuSerif-103"/>
     <use x="537.46875" xlink:href="#DejaVuSerif-104"/>
     <use x="601.873047" xlink:href="#DejaVuSerif-116"/>
     <use x="642.058594" xlink:href="#DejaVuSerif-32"/>
     <use x="673.845703" xlink:href="#DejaVuSerif-67"/>
     <use x="750.359375" xlink:href="#DejaVuSerif-117"/>
     <use x="814.763672" xlink:href="#DejaVuSerif-114"/>
     <use x="862.566406" xlink:href="#DejaVuSerif-118"/>
     <use x="919.060547" xlink:href="#DejaVuSerif-101"/>
    </g>
   </g>
  </g>
  <g id="axes_3">
   <g id="patch_13">
    <path d="M 57.6 307.584 
L 414.72 307.584 
L 414.72 198.966857 
L 57.6 198.966857 
z
" style="fill:#ffffff;"/>
   </g>
   <g id="PathCollection_3">
    <g clip-path="url(#p22e4b49f17)">
     <use style="fill:#1f77b4;stroke:#1f77b4;" x="73.832727" xlink:href="#mad39f76b17" y="205.011127"/>
     <use style="fill:#1f77b4;stroke:#1f77b4;" x="73.833119" xlink:href="#mad39f76b17" y="206.983632"/>
     <use style="fill:#1f77b4;stroke:#1f77b4;" x="94.910293" xlink:href="#mad39f76b17" y="233.693725"/>
     <use style="fill:#1f77b4;stroke:#1f77b4;" x="94.910684" xlink:href="#mad39f76b17" y="235.368857"/>
     <use style="fill:#1f77b4;stroke:#1f77b4;" x="96.675449" xlink:href="#mad39f76b17" y="233.110643"/>
     <use style="fill:#1f77b4;stroke:#1f77b4;" x="99.185169" xlink:href="#mad39f76b17" y="215.408256"/>
     <use style="fill:#1f77b4;stroke:#1f77b4;" x="99.18789" xlink:href="#mad39f76b17" y="213.83427"/>
     <use style="fill:#1f77b4;stroke:#1f77b4;" x="100.021602" xlink:href="#mad39f76b17" y="301.468688"/>
     <use style="fill:#1f77b4;stroke:#1f77b4;" x="121.144305" xlink:href="#mad39f76b17" y="212.385741"/>
     <use style="fill:#1f77b4;stroke:#1f77b4;" x="121.988998" xlink:href="#mad39f76b17" y="271.941951"/>
     <use style="fill:#1f77b4;stroke:#1f77b4;" x="121.98938" xlink:href="#mad39f76b17" y="275.055294"/>
     <use style="fill:#1f77b4;stroke:#1f77b4;" x="123.69785" xlink:href="#mad39f76b17" y="214.660514"/>
     <use style="fill:#1f77b4;stroke:#1f77b4;" x="123.698242" xlink:href="#mad39f76b17" y="217.36111"/>
     <use style="fill:#1f77b4;stroke:#1f77b4;" x="125.362202" xlink:href="#mad39f76b17" y="228.248659"/>
     <use style="fill:#1f77b4;stroke:#1f77b4;" x="125.362594" xlink:href="#mad39f76b17" y="223.891244"/>
     <use style="fill:#1f77b4;stroke:#1f77b4;" x="126.199487" xlink:href="#mad39f76b17" y="215.645684"/>
     <use style="fill:#1f77b4;stroke:#1f77b4;" x="126.199878" xlink:href="#mad39f76b17" y="216.091567"/>
     <use style="fill:#1f77b4;stroke:#1f77b4;" x="127.090237" xlink:href="#mad39f76b17" y="254.737971"/>
     <use style="fill:#1f77b4;stroke:#1f77b4;" x="127.090618" xlink:href="#mad39f76b17" y="255.639226"/>
     <use style="fill:#1f77b4;stroke:#1f77b4;" x="127.899364" xlink:href="#mad39f76b17" y="237.782574"/>
     <use style="fill:#1f77b4;stroke:#1f77b4;" x="127.899756" xlink:href="#mad39f76b17" y="238.750346"/>
     <use style="fill:#1f77b4;stroke:#1f77b4;" x="128.744146" xlink:href="#mad39f76b17" y="224.265032"/>
     <use style="fill:#1f77b4;stroke:#1f77b4;" x="128.744527" xlink:href="#mad39f76b17" y="224.406473"/>
     <use style="fill:#1f77b4;stroke:#1f77b4;" x="136.360585" xlink:href="#mad39f76b17" y="250.173855"/>
     <use style="fill:#1f77b4;stroke:#1f77b4;" x="142.231315" xlink:href="#mad39f76b17" y="235.228586"/>
     <use style="fill:#1f77b4;stroke:#1f77b4;" x="143.073052" xlink:href="#mad39f76b17" y="245.025402"/>
     <use style="fill:#1f77b4;stroke:#1f77b4;" x="143.918832" xlink:href="#mad39f76b17" y="257.521652"/>
     <use style="fill:#1f77b4;stroke:#1f77b4;" x="144.76286" xlink:href="#mad39f76b17" y="262.313297"/>
     <use style="fill:#1f77b4;stroke:#1f77b4;" x="145.612006" xlink:href="#mad39f76b17" y="254.611937"/>
     <use style="fill:#1f77b4;stroke:#1f77b4;" x="155.771705" xlink:href="#mad39f76b17" y="244.554212"/>
     <use style="fill:#1f77b4;stroke:#1f77b4;" x="163.21203" xlink:href="#mad39f76b17" y="240.707696"/>
     <use style="fill:#1f77b4;stroke:#1f77b4;" x="164.180987" xlink:href="#mad39f76b17" y="244.165611"/>
     <use style="fill:#1f77b4;stroke:#1f77b4;" x="165.042171" xlink:href="#mad39f76b17" y="236.850609"/>
     <use style="fill:#1f77b4;stroke:#1f77b4;" x="170.943837" xlink:href="#mad39f76b17" y="223.723581"/>
     <use style="fill:#1f77b4;stroke:#1f77b4;" x="173.496775" xlink:href="#mad39f76b17" y="215.426657"/>
     <use style="fill:#1f77b4;stroke:#1f77b4;" x="207.146958" xlink:href="#mad39f76b17" y="235.164068"/>
     <use style="fill:#1f77b4;stroke:#1f77b4;" x="210.529274" xlink:href="#mad39f76b17" y="214.559787"/>
     <use style="fill:#1f77b4;stroke:#1f77b4;" x="218.978819" xlink:href="#mad39f76b17" y="300.310617"/>
     <use style="fill:#1f77b4;stroke:#1f77b4;" x="346.082599" xlink:href="#mad39f76b17" y="259.049775"/>
     <use style="fill:#1f77b4;stroke:#1f77b4;" x="379.139631" xlink:href="#mad39f76b17" y="272.77977"/>
     <use style="fill:#1f77b4;stroke:#1f77b4;" x="396.853779" xlink:href="#mad39f76b17" y="269.78223"/>
     <use style="fill:#1f77b4;stroke:#1f77b4;" x="396.854161" xlink:href="#mad39f76b17" y="269.579178"/>
     <use style="fill:#1f77b4;stroke:#1f77b4;" x="397.677773" xlink:href="#mad39f76b17" y="238.95847"/>
     <use style="fill:#1f77b4;stroke:#1f77b4;" x="397.678155" xlink:href="#mad39f76b17" y="240.931306"/>
     <use style="fill:#1f77b4;stroke:#1f77b4;" x="398.486891" xlink:href="#mad39f76b17" y="262.796061"/>
     <use style="fill:#1f77b4;stroke:#1f77b4;" x="398.487273" xlink:href="#mad39f76b17" y="261.178446"/>
    </g>
   </g>
   <g id="matplotlib.axis_5">
    <g id="xtick_26">
     <g id="line2d_39">
      <g>
       <use style="stroke:#000000;stroke-width:0.8;" x="97.996351" xlink:href="#mfcbb1c5f2c" y="307.584"/>
      </g>
     </g>
     <g id="text_24">
      <!-- 58300 -->
      <g transform="translate(82.090101 322.182437)scale(0.1 -0.1)">
       <defs>
        <path d="M 46.578125 19.921875 
Q 46.578125 27.734375 42.6875 32.046875 
Q 38.8125 36.375 31.78125 36.375 
Q 24.75 36.375 20.875 32.046875 
Q 17 27.734375 17 19.921875 
Q 17 12.0625 20.875 7.734375 
Q 24.75 3.421875 31.78125 3.421875 
Q 38.8125 3.421875 42.6875 7.734375 
Q 46.578125 12.0625 46.578125 19.921875 
z
M 44.578125 55.328125 
Q 44.578125 61.96875 41.203125 65.671875 
Q 37.84375 69.390625 31.78125 69.390625 
Q 25.78125 69.390625 22.390625 65.671875 
Q 19 61.96875 19 55.328125 
Q 19 48.640625 22.390625 44.921875 
Q 25.78125 41.21875 31.78125 41.21875 
Q 37.84375 41.21875 41.203125 44.921875 
Q 44.578125 48.640625 44.578125 55.328125 
z
M 39.3125 38.8125 
Q 47.609375 37.703125 52.25 32.6875 
Q 56.890625 27.6875 56.890625 19.921875 
Q 56.890625 9.671875 50.390625 4.125 
Q 43.890625 -1.421875 31.78125 -1.421875 
Q 19.734375 -1.421875 13.203125 4.125 
Q 6.6875 9.671875 6.6875 19.921875 
Q 6.6875 27.6875 11.328125 32.6875 
Q 15.96875 37.703125 24.3125 38.8125 
Q 16.9375 40.140625 13 44.40625 
Q 9.078125 48.6875 9.078125 55.328125 
Q 9.078125 64.109375 15.125 69.15625 
Q 21.1875 74.21875 31.78125 74.21875 
Q 42.390625 74.21875 48.4375 69.15625 
Q 54.5 64.109375 54.5 55.328125 
Q 54.5 48.6875 50.5625 44.40625 
Q 46.625 40.140625 39.3125 38.8125 
z
" id="DejaVuSerif-56"/>
       </defs>
       <use xlink:href="#DejaVuSerif-53"/>
       <use x="63.623047" xlink:href="#DejaVuSerif-56"/>
       <use x="127.246094" xlink:href="#DejaVuSerif-51"/>
       <use x="190.869141" xlink:href="#DejaVuSerif-48"/>
       <use x="254.492188" xlink:href="#DejaVuSerif-48"/>
      </g>
     </g>
    </g>
    <g id="xtick_27">
     <g id="line2d_40">
      <g>
       <use style="stroke:#000000;stroke-width:0.8;" x="140.27554" xlink:href="#mfcbb1c5f2c" y="307.584"/>
      </g>
     </g>
     <g id="text_25">
      <!-- 58350 -->
      <g transform="translate(124.36929 322.182437)scale(0.1 -0.1)">
       <use xlink:href="#DejaVuSerif-53"/>
       <use x="63.623047" xlink:href="#DejaVuSerif-56"/>
       <use x="127.246094" xlink:href="#DejaVuSerif-51"/>
       <use x="190.869141" xlink:href="#DejaVuSerif-53"/>
       <use x="254.492188" xlink:href="#DejaVuSerif-48"/>
      </g>
     </g>
    </g>
    <g id="xtick_28">
     <g id="line2d_41">
      <g>
       <use style="stroke:#000000;stroke-width:0.8;" x="182.55473" xlink:href="#mfcbb1c5f2c" y="307.584"/>
      </g>
     </g>
     <g id="text_26">
      <!-- 58400 -->
      <g transform="translate(166.64848 322.182437)scale(0.1 -0.1)">
       <use xlink:href="#DejaVuSerif-53"/>
       <use x="63.623047" xlink:href="#DejaVuSerif-56"/>
       <use x="127.246094" xlink:href="#DejaVuSerif-52"/>
       <use x="190.869141" xlink:href="#DejaVuSerif-48"/>
       <use x="254.492188" xlink:href="#DejaVuSerif-48"/>
      </g>
     </g>
    </g>
    <g id="xtick_29">
     <g id="line2d_42">
      <g>
       <use style="stroke:#000000;stroke-width:0.8;" x="224.833919" xlink:href="#mfcbb1c5f2c" y="307.584"/>
      </g>
     </g>
     <g id="text_27">
      <!-- 58450 -->
      <g transform="translate(208.927669 322.182437)scale(0.1 -0.1)">
       <use xlink:href="#DejaVuSerif-53"/>
       <use x="63.623047" xlink:href="#DejaVuSerif-56"/>
       <use x="127.246094" xlink:href="#DejaVuSerif-52"/>
       <use x="190.869141" xlink:href="#DejaVuSerif-53"/>
       <use x="254.492188" xlink:href="#DejaVuSerif-48"/>
      </g>
     </g>
    </g>
    <g id="xtick_30">
     <g id="line2d_43">
      <g>
       <use style="stroke:#000000;stroke-width:0.8;" x="267.113108" xlink:href="#mfcbb1c5f2c" y="307.584"/>
      </g>
     </g>
     <g id="text_28">
      <!-- 58500 -->
      <g transform="translate(251.206858 322.182437)scale(0.1 -0.1)">
       <use xlink:href="#DejaVuSerif-53"/>
       <use x="63.623047" xlink:href="#DejaVuSerif-56"/>
       <use x="127.246094" xlink:href="#DejaVuSerif-53"/>
       <use x="190.869141" xlink:href="#DejaVuSerif-48"/>
       <use x="254.492188" xlink:href="#DejaVuSerif-48"/>
      </g>
     </g>
    </g>
    <g id="xtick_31">
     <g id="line2d_44">
      <g>
       <use style="stroke:#000000;stroke-width:0.8;" x="309.392298" xlink:href="#mfcbb1c5f2c" y="307.584"/>
      </g>
     </g>
     <g id="text_29">
      <!-- 58550 -->
      <g transform="translate(293.486048 322.182437)scale(0.1 -0.1)">
       <use xlink:href="#DejaVuSerif-53"/>
       <use x="63.623047" xlink:href="#DejaVuSerif-56"/>
       <use x="127.246094" xlink:href="#DejaVuSerif-53"/>
       <use x="190.869141" xlink:href="#DejaVuSerif-53"/>
       <use x="254.492188" xlink:href="#DejaVuSerif-48"/>
      </g>
     </g>
    </g>
    <g id="xtick_32">
     <g id="line2d_45">
      <g>
       <use style="stroke:#000000;stroke-width:0.8;" x="351.671487" xlink:href="#mfcbb1c5f2c" y="307.584"/>
      </g>
     </g>
     <g id="text_30">
      <!-- 58600 -->
      <g transform="translate(335.765237 322.182437)scale(0.1 -0.1)">
       <defs>
        <path d="M 32.71875 3.421875 
Q 39.59375 3.421875 43.296875 8.46875 
Q 47.015625 13.53125 47.015625 23 
Q 47.015625 32.46875 43.296875 37.515625 
Q 39.59375 42.578125 32.71875 42.578125 
Q 25.734375 42.578125 22.0625 37.6875 
Q 18.40625 32.8125 18.40625 23.578125 
Q 18.40625 13.875 22.109375 8.640625 
Q 25.828125 3.421875 32.71875 3.421875 
z
M 16.796875 40.140625 
Q 20.125 43.796875 24.3125 45.59375 
Q 28.515625 47.40625 33.796875 47.40625 
Q 44.671875 47.40625 51 40.859375 
Q 57.328125 34.328125 57.328125 23 
Q 57.328125 11.921875 50.515625 5.25 
Q 43.703125 -1.421875 32.328125 -1.421875 
Q 19.96875 -1.421875 13.328125 7.78125 
Q 6.6875 17 6.6875 34.078125 
Q 6.6875 53.21875 14.546875 63.71875 
Q 22.40625 74.21875 36.71875 74.21875 
Q 40.578125 74.21875 44.828125 73.484375 
Q 49.078125 72.75 53.515625 71.296875 
L 53.515625 59.28125 
L 48 59.28125 
Q 47.40625 64.203125 44.234375 66.796875 
Q 41.0625 69.390625 35.6875 69.390625 
Q 26.21875 69.390625 21.578125 62.203125 
Q 16.9375 55.03125 16.796875 40.140625 
z
" id="DejaVuSerif-54"/>
       </defs>
       <use xlink:href="#DejaVuSerif-53"/>
       <use x="63.623047" xlink:href="#DejaVuSerif-56"/>
       <use x="127.246094" xlink:href="#DejaVuSerif-54"/>
       <use x="190.869141" xlink:href="#DejaVuSerif-48"/>
       <use x="254.492188" xlink:href="#DejaVuSerif-48"/>
      </g>
     </g>
    </g>
    <g id="xtick_33">
     <g id="line2d_46">
      <g>
       <use style="stroke:#000000;stroke-width:0.8;" x="393.950677" xlink:href="#mfcbb1c5f2c" y="307.584"/>
      </g>
     </g>
     <g id="text_31">
      <!-- 58650 -->
      <g transform="translate(378.044427 322.182437)scale(0.1 -0.1)">
       <use xlink:href="#DejaVuSerif-53"/>
       <use x="63.623047" xlink:href="#DejaVuSerif-56"/>
       <use x="127.246094" xlink:href="#DejaVuSerif-54"/>
       <use x="190.869141" xlink:href="#DejaVuSerif-53"/>
       <use x="254.492188" xlink:href="#DejaVuSerif-48"/>
      </g>
     </g>
    </g>
    <g id="text_32">
     <!-- MJD -->
     <g transform="translate(225.027187 335.860562)scale(0.1 -0.1)">
      <defs>
       <path d="M -8.40625 -17.484375 
L -8.40625 -6 
L -2.828125 -6 
Q -2.6875 -10.84375 -0.53125 -13.203125 
Q 1.609375 -15.578125 5.90625 -15.578125 
Q 11.71875 -15.578125 14.015625 -11.90625 
Q 16.3125 -8.25 16.3125 2.390625 
L 16.3125 67.671875 
L 4.984375 67.671875 
L 4.984375 72.90625 
L 35.5 72.90625 
L 35.5 67.671875 
L 26.21875 67.671875 
L 26.21875 2 
Q 26.21875 -10.0625 21.375 -15.421875 
Q 16.546875 -20.796875 5.8125 -20.796875 
Q 2.34375 -20.796875 -1.234375 -19.96875 
Q -4.828125 -19.140625 -8.40625 -17.484375 
z
" id="DejaVuSerif-74"/>
       <path d="M 24.703125 5.171875 
L 33.796875 5.171875 
Q 48 5.171875 55.59375 13.28125 
Q 63.1875 21.390625 63.1875 36.53125 
Q 63.1875 51.65625 55.609375 59.65625 
Q 48.046875 67.671875 33.796875 67.671875 
L 24.703125 67.671875 
z
M 5.515625 0 
L 5.515625 5.171875 
L 14.796875 5.171875 
L 14.796875 67.671875 
L 5.515625 67.671875 
L 5.515625 72.90625 
L 34.515625 72.90625 
Q 53.375 72.90625 63.890625 63.28125 
Q 74.421875 53.65625 74.421875 36.53125 
Q 74.421875 19.34375 63.875 9.671875 
Q 53.328125 0 34.515625 0 
z
" id="DejaVuSerif-68"/>
      </defs>
      <use xlink:href="#DejaVuSerif-77"/>
      <use x="102.392578" xlink:href="#DejaVuSerif-74"/>
      <use x="142.480469" xlink:href="#DejaVuSerif-68"/>
     </g>
    </g>
   </g>
   <g id="matplotlib.axis_6">
    <g id="ytick_9">
     <g id="line2d_47">
      <g>
       <use style="stroke:#000000;stroke-width:0.8;" x="57.6" xlink:href="#m7c2f5e7fed" y="204.228756"/>
      </g>
     </g>
     <g id="text_33">
      <!-- 14.25 -->
      <g transform="translate(21.971875 208.027975)scale(0.1 -0.1)">
       <use xlink:href="#DejaVuSerif-49"/>
       <use x="63.623047" xlink:href="#DejaVuSerif-52"/>
       <use x="127.246094" xlink:href="#DejaVuSerif-46"/>
       <use x="159.033203" xlink:href="#DejaVuSerif-50"/>
       <use x="222.65625" xlink:href="#DejaVuSerif-53"/>
      </g>
     </g>
    </g>
    <g id="ytick_10">
     <g id="line2d_48">
      <g>
       <use style="stroke:#000000;stroke-width:0.8;" x="57.6" xlink:href="#m7c2f5e7fed" y="226.051969"/>
      </g>
     </g>
     <g id="text_34">
      <!-- 14.50 -->
      <g transform="translate(21.971875 229.851188)scale(0.1 -0.1)">
       <use xlink:href="#DejaVuSerif-49"/>
       <use x="63.623047" xlink:href="#DejaVuSerif-52"/>
       <use x="127.246094" xlink:href="#DejaVuSerif-46"/>
       <use x="159.033203" xlink:href="#DejaVuSerif-53"/>
       <use x="222.65625" xlink:href="#DejaVuSerif-48"/>
      </g>
     </g>
    </g>
    <g id="ytick_11">
     <g id="line2d_49">
      <g>
       <use style="stroke:#000000;stroke-width:0.8;" x="57.6" xlink:href="#m7c2f5e7fed" y="247.875181"/>
      </g>
     </g>
     <g id="text_35">
      <!-- 14.75 -->
      <g transform="translate(21.971875 251.6744)scale(0.1 -0.1)">
       <use xlink:href="#DejaVuSerif-49"/>
       <use x="63.623047" xlink:href="#DejaVuSerif-52"/>
       <use x="127.246094" xlink:href="#DejaVuSerif-46"/>
       <use x="159.033203" xlink:href="#DejaVuSerif-55"/>
       <use x="222.65625" xlink:href="#DejaVuSerif-53"/>
      </g>
     </g>
    </g>
    <g id="ytick_12">
     <g id="line2d_50">
      <g>
       <use style="stroke:#000000;stroke-width:0.8;" x="57.6" xlink:href="#m7c2f5e7fed" y="269.698394"/>
      </g>
     </g>
     <g id="text_36">
      <!-- 15.00 -->
      <g transform="translate(21.971875 273.497613)scale(0.1 -0.1)">
       <use xlink:href="#DejaVuSerif-49"/>
       <use x="63.623047" xlink:href="#DejaVuSerif-53"/>
       <use x="127.246094" xlink:href="#DejaVuSerif-46"/>
       <use x="159.033203" xlink:href="#DejaVuSerif-48"/>
       <use x="222.65625" xlink:href="#DejaVuSerif-48"/>
      </g>
     </g>
    </g>
    <g id="ytick_13">
     <g id="line2d_51">
      <g>
       <use style="stroke:#000000;stroke-width:0.8;" x="57.6" xlink:href="#m7c2f5e7fed" y="291.521606"/>
      </g>
     </g>
     <g id="text_37">
      <!-- 15.25 -->
      <g transform="translate(21.971875 295.320825)scale(0.1 -0.1)">
       <use xlink:href="#DejaVuSerif-49"/>
       <use x="63.623047" xlink:href="#DejaVuSerif-53"/>
       <use x="127.246094" xlink:href="#DejaVuSerif-46"/>
       <use x="159.033203" xlink:href="#DejaVuSerif-50"/>
       <use x="222.65625" xlink:href="#DejaVuSerif-53"/>
      </g>
     </g>
    </g>
    <g id="text_38">
     <!-- Mag -->
     <g transform="translate(15.75 264.576991)rotate(-90)scale(0.1 -0.1)">
      <use xlink:href="#DejaVuSerif-77"/>
      <use x="102.392578" xlink:href="#DejaVuSerif-97"/>
      <use x="162.011719" xlink:href="#DejaVuSerif-103"/>
     </g>
    </g>
   </g>
   <g id="LineCollection_5">
    <path clip-path="url(#p22e4b49f17)" d="M 73.832727 203.904 
L 73.832727 206.118255 
" style="fill:none;stroke:#1f77b4;stroke-width:0.5;"/>
    <path clip-path="url(#p22e4b49f17)" d="M 73.833119 205.875786 
L 73.833119 208.091477 
" style="fill:none;stroke:#1f77b4;stroke-width:0.5;"/>
    <path clip-path="url(#p22e4b49f17)" d="M 94.910293 232.57384 
L 94.910293 234.813609 
" style="fill:none;stroke:#1f77b4;stroke-width:0.5;"/>
    <path clip-path="url(#p22e4b49f17)" d="M 94.910684 234.248057 
L 94.910684 236.489657 
" style="fill:none;stroke:#1f77b4;stroke-width:0.5;"/>
    <path clip-path="url(#p22e4b49f17)" d="M 96.675449 231.991073 
L 96.675449 234.230214 
" style="fill:none;stroke:#1f77b4;stroke-width:0.5;"/>
    <path clip-path="url(#p22e4b49f17)" d="M 99.185169 214.297097 
L 99.185169 216.519415 
" style="fill:none;stroke:#1f77b4;stroke-width:0.5;"/>
    <path clip-path="url(#p22e4b49f17)" d="M 99.18789 212.723761 
L 99.18789 214.944778 
" style="fill:none;stroke:#1f77b4;stroke-width:0.5;"/>
    <path clip-path="url(#p22e4b49f17)" d="M 100.021602 300.290518 
L 100.021602 302.646857 
" style="fill:none;stroke:#1f77b4;stroke-width:0.5;"/>
    <path clip-path="url(#p22e4b49f17)" d="M 121.144305 211.275818 
L 121.144305 213.495663 
" style="fill:none;stroke:#1f77b4;stroke-width:0.5;"/>
    <path clip-path="url(#p22e4b49f17)" d="M 121.988998 270.795241 
L 121.988998 273.088661 
" style="fill:none;stroke:#1f77b4;stroke-width:0.5;"/>
    <path clip-path="url(#p22e4b49f17)" d="M 121.98938 273.905774 
L 121.98938 276.204815 
" style="fill:none;stroke:#1f77b4;stroke-width:0.5;"/>
    <path clip-path="url(#p22e4b49f17)" d="M 123.69785 213.549666 
L 123.69785 215.771362 
" style="fill:none;stroke:#1f77b4;stroke-width:0.5;"/>
    <path clip-path="url(#p22e4b49f17)" d="M 123.698242 216.249123 
L 123.698242 218.473097 
" style="fill:none;stroke:#1f77b4;stroke-width:0.5;"/>
    <path clip-path="url(#p22e4b49f17)" d="M 125.362202 227.131609 
L 125.362202 229.365708 
" style="fill:none;stroke:#1f77b4;stroke-width:0.5;"/>
    <path clip-path="url(#p22e4b49f17)" d="M 125.362594 222.776314 
L 125.362594 225.006174 
" style="fill:none;stroke:#1f77b4;stroke-width:0.5;"/>
    <path clip-path="url(#p22e4b49f17)" d="M 126.199487 214.534425 
L 126.199487 216.756942 
" style="fill:none;stroke:#1f77b4;stroke-width:0.5;"/>
    <path clip-path="url(#p22e4b49f17)" d="M 126.199878 214.980121 
L 126.199878 217.203013 
" style="fill:none;stroke:#1f77b4;stroke-width:0.5;"/>
    <path clip-path="url(#p22e4b49f17)" d="M 127.090237 253.604967 
L 127.090237 255.870974 
" style="fill:none;stroke:#1f77b4;stroke-width:0.5;"/>
    <path clip-path="url(#p22e4b49f17)" d="M 127.090618 254.505576 
L 127.090618 256.772876 
" style="fill:none;stroke:#1f77b4;stroke-width:0.5;"/>
    <path clip-path="url(#p22e4b49f17)" d="M 127.899364 236.660419 
L 127.899364 238.90473 
" style="fill:none;stroke:#1f77b4;stroke-width:0.5;"/>
    <path clip-path="url(#p22e4b49f17)" d="M 127.899756 237.627635 
L 127.899756 239.873058 
" style="fill:none;stroke:#1f77b4;stroke-width:0.5;"/>
    <path clip-path="url(#p22e4b49f17)" d="M 128.744146 223.149925 
L 128.744146 225.380139 
" style="fill:none;stroke:#1f77b4;stroke-width:0.5;"/>
    <path clip-path="url(#p22e4b49f17)" d="M 128.744527 223.291298 
L 128.744527 225.521647 
" style="fill:none;stroke:#1f77b4;stroke-width:0.5;"/>
    <path clip-path="url(#p22e4b49f17)" d="M 136.360585 249.044012 
L 136.360585 251.303698 
" style="fill:none;stroke:#1f77b4;stroke-width:0.5;"/>
    <path clip-path="url(#p22e4b49f17)" d="M 142.231315 234.107864 
L 142.231315 236.349308 
" style="fill:none;stroke:#1f77b4;stroke-width:0.5;"/>
    <path clip-path="url(#p22e4b49f17)" d="M 143.073052 243.898906 
L 143.073052 246.151897 
" style="fill:none;stroke:#1f77b4;stroke-width:0.5;"/>
    <path clip-path="url(#p22e4b49f17)" d="M 143.918832 256.386628 
L 143.918832 258.656677 
" style="fill:none;stroke:#1f77b4;stroke-width:0.5;"/>
    <path clip-path="url(#p22e4b49f17)" d="M 144.76286 261.174622 
L 144.76286 263.451971 
" style="fill:none;stroke:#1f77b4;stroke-width:0.5;"/>
    <path clip-path="url(#p22e4b49f17)" d="M 145.612006 253.479023 
L 145.612006 255.744851 
" style="fill:none;stroke:#1f77b4;stroke-width:0.5;"/>
    <path clip-path="url(#p22e4b49f17)" d="M 155.771705 243.428011 
L 155.771705 245.680413 
" style="fill:none;stroke:#1f77b4;stroke-width:0.5;"/>
    <path clip-path="url(#p22e4b49f17)" d="M 163.21203 239.583838 
L 163.21203 241.831555 
" style="fill:none;stroke:#1f77b4;stroke-width:0.5;"/>
    <path clip-path="url(#p22e4b49f17)" d="M 164.180987 243.039652 
L 164.180987 245.291569 
" style="fill:none;stroke:#1f77b4;stroke-width:0.5;"/>
    <path clip-path="url(#p22e4b49f17)" d="M 165.042171 235.728983 
L 165.042171 237.972236 
" style="fill:none;stroke:#1f77b4;stroke-width:0.5;"/>
    <path clip-path="url(#p22e4b49f17)" d="M 170.943837 222.608729 
L 170.943837 224.838432 
" style="fill:none;stroke:#1f77b4;stroke-width:0.5;"/>
    <path clip-path="url(#p22e4b49f17)" d="M 173.496775 214.31549 
L 173.496775 216.537824 
" style="fill:none;stroke:#1f77b4;stroke-width:0.5;"/>
    <path clip-path="url(#p22e4b49f17)" d="M 207.146958 234.043381 
L 207.146958 236.284755 
" style="fill:none;stroke:#1f77b4;stroke-width:0.5;"/>
    <path clip-path="url(#p22e4b49f17)" d="M 210.529274 213.44898 
L 210.529274 215.670593 
" style="fill:none;stroke:#1f77b4;stroke-width:0.5;"/>
    <path clip-path="url(#p22e4b49f17)" d="M 218.978819 299.133902 
L 218.978819 301.487332 
" style="fill:none;stroke:#1f77b4;stroke-width:0.5;"/>
    <path clip-path="url(#p22e4b49f17)" d="M 346.082599 257.91361 
L 346.082599 260.185939 
" style="fill:none;stroke:#1f77b4;stroke-width:0.5;"/>
    <path clip-path="url(#p22e4b49f17)" d="M 379.139631 271.632315 
L 379.139631 273.927226 
" style="fill:none;stroke:#1f77b4;stroke-width:0.5;"/>
    <path clip-path="url(#p22e4b49f17)" d="M 396.853779 268.637407 
L 396.853779 270.927052 
" style="fill:none;stroke:#1f77b4;stroke-width:0.5;"/>
    <path clip-path="url(#p22e4b49f17)" d="M 396.854161 268.43453 
L 396.854161 270.723826 
" style="fill:none;stroke:#1f77b4;stroke-width:0.5;"/>
    <path clip-path="url(#p22e4b49f17)" d="M 397.677773 237.835638 
L 397.677773 240.081302 
" style="fill:none;stroke:#1f77b4;stroke-width:0.5;"/>
    <path clip-path="url(#p22e4b49f17)" d="M 397.678155 239.807315 
L 397.678155 242.055297 
" style="fill:none;stroke:#1f77b4;stroke-width:0.5;"/>
    <path clip-path="url(#p22e4b49f17)" d="M 398.486891 261.657006 
L 398.486891 263.935116 
" style="fill:none;stroke:#1f77b4;stroke-width:0.5;"/>
    <path clip-path="url(#p22e4b49f17)" d="M 398.487273 260.040656 
L 398.487273 262.316236 
" style="fill:none;stroke:#1f77b4;stroke-width:0.5;"/>
   </g>
   <g id="line2d_52">
    <path clip-path="url(#p22e4b49f17)" d="M 73.832727 205.011127 
L 73.833119 206.983632 
L 94.910293 233.693725 
L 94.910684 235.368857 
L 96.675449 233.110643 
L 99.185169 215.408256 
L 99.18789 213.83427 
L 100.021602 301.468688 
L 121.144305 212.385741 
L 121.988998 271.941951 
L 121.98938 275.055294 
L 123.69785 214.660514 
L 123.698242 217.36111 
L 125.362202 228.248659 
L 125.362594 223.891244 
L 126.199487 215.645684 
L 126.199878 216.091567 
L 127.090237 254.737971 
L 127.090618 255.639226 
L 127.899364 237.782574 
L 127.899756 238.750346 
L 128.744146 224.265032 
L 128.744527 224.406473 
L 136.360585 250.173855 
L 142.231315 235.228586 
L 143.073052 245.025402 
L 143.918832 257.521652 
L 144.76286 262.313297 
L 145.612006 254.611937 
L 155.771705 244.554212 
L 163.21203 240.707696 
L 164.180987 244.165611 
L 165.042171 236.850609 
L 170.943837 223.723581 
L 173.496775 215.426657 
L 207.146958 235.164068 
L 210.529274 214.559787 
L 218.978819 300.310617 
L 346.082599 259.049775 
L 379.139631 272.77977 
L 396.853779 269.78223 
L 396.854161 269.579178 
L 397.677773 238.95847 
L 397.678155 240.931306 
L 398.486891 262.796061 
L 398.487273 261.178446 
" style="fill:none;"/>
   </g>
   <g id="patch_14">
    <path d="M 57.6 307.584 
L 57.6 198.966857 
" style="fill:none;stroke:#000000;stroke-linecap:square;stroke-linejoin:miter;stroke-width:0.8;"/>
   </g>
   <g id="patch_15">
    <path d="M 414.72 307.584 
L 414.72 198.966857 
" style="fill:none;stroke:#000000;stroke-linecap:square;stroke-linejoin:miter;stroke-width:0.8;"/>
   </g>
   <g id="patch_16">
    <path d="M 57.6 307.584 
L 414.72 307.584 
" style="fill:none;stroke:#000000;stroke-linecap:square;stroke-linejoin:miter;stroke-width:0.8;"/>
   </g>
   <g id="patch_17">
    <path d="M 57.6 198.966857 
L 414.72 198.966857 
" style="fill:none;stroke:#000000;stroke-linecap:square;stroke-linejoin:miter;stroke-width:0.8;"/>
   </g>
   <g id="text_39">
    <!-- Light Curve -->
    <g transform="translate(206.000625 192.966857)scale(0.1 -0.1)">
     <use xlink:href="#DejaVuSerif-76"/>
     <use x="66.40625" xlink:href="#DejaVuSerif-105"/>
     <use x="98.388672" xlink:href="#DejaVuSerif-103"/>
     <use x="162.402344" xlink:href="#DejaVuSerif-104"/>
     <use x="226.806641" xlink:href="#DejaVuSerif-116"/>
     <use x="266.992188" xlink:href="#DejaVuSerif-32"/>
     <use x="298.779297" xlink:href="#DejaVuSerif-67"/>
     <use x="375.292969" xlink:href="#DejaVuSerif-117"/>
     <use x="439.697266" xlink:href="#DejaVuSerif-114"/>
     <use x="487.5" xlink:href="#DejaVuSerif-118"/>
     <use x="543.994141" xlink:href="#DejaVuSerif-101"/>
    </g>
   </g>
  </g>
 </g>
 <defs>
  <clipPath id="p0e3a805481">
   <rect height="108.617143" width="148.8" x="265.92" y="41.472"/>
  </clipPath>
  <clipPath id="p5d756e0f38">
   <rect height="108.617143" width="148.8" x="57.6" y="41.472"/>
  </clipPath>
  <clipPath id="p22e4b49f17">
   <rect height="108.617143" width="357.12" x="57.6" y="198.966857"/>
  </clipPath>
 </defs>
</svg>
